<?xml version="1.0" encoding="UTF-8" standalone="no"?>
<!DOCTYPE svg PUBLIC "-//W3C//DTD SVG 1.1//EN"
"http://www.w3.org/Graphics/SVG/1.1/DTD/svg11.dtd">
<svg version="1.1" xmlns="http://www.w3.org/2000/svg" xmlns:xlink="http://www.w3.org/1999/xlink">
<defs>
<clipPath id="c0_81"><path d="M47.5,199.5l0,-25l365,0l0,25Z" /></clipPath>
<clipPath id="c1_81"><path d="M413.5,199.5l0,-25l213,0l0,25Z" /></clipPath>
<clipPath id="c2_81"><path d="M627.5,199.5l0,-25l258,0l0,25Z" /></clipPath>
<clipPath id="c3_81"><path d="M92.5,272.5l0,-72l320,0l0,72Z" /></clipPath>
<clipPath id="c4_81"><path d="M413.5,272.5l0,-72l213,0l0,72Z" /></clipPath>
<clipPath id="c5_81"><path d="M627.5,272.5l0,-72l258,0l0,72Z" /></clipPath>
<clipPath id="c6_81"><path d="M92.5,298.5l0,-25l320,0l0,25Z" /></clipPath>
<clipPath id="c7_81"><path d="M413.5,298.5l0,-25l213,0l0,25Z" /></clipPath>
<clipPath id="c8_81"><path d="M627.5,298.5l0,-25l258,0l0,25Z" /></clipPath>
<clipPath id="c9_81"><path d="M92.5,347.5l0,-48l320,0l0,48Z" /></clipPath>
<clipPath id="c10_81"><path d="M413.5,347.5l0,-48l213,0l0,48Z" /></clipPath>
<clipPath id="c11_81"><path d="M627.5,347.5l0,-48l258,0l0,48Z" /></clipPath>
<clipPath id="c12_81"><path d="M181.5,376.5l0,-27l231,0l0,27Z" /></clipPath>
<clipPath id="c13_81"><path d="M413.5,376.5l0,-27l213,0l0,27Z" /></clipPath>
<clipPath id="c14_81"><path d="M627.5,376.5l0,-27l258,0l0,27Z" /></clipPath>
<clipPath id="c15_81"><path d="M181.5,402.5l0,-24l231,0l0,24Z" /></clipPath>
<clipPath id="c16_81"><path d="M413.5,402.5l0,-24l213,0l0,24Z" /></clipPath>
<clipPath id="c17_81"><path d="M627.5,402.5l0,-24l258,0l0,24Z" /></clipPath>
<clipPath id="c18_81"><path d="M274.5,599.5l0,-71l138,0l0,71Z" /></clipPath>
<clipPath id="c19_81"><path d="M413.5,599.5l0,-71l213,0l0,71Z" /></clipPath>
<clipPath id="c20_81"><path d="M627.5,599.5l0,-71l258,0l0,71Z" /></clipPath>
<clipPath id="c21_81"><path d="M47.5,721.5l0,-24l840,0l0,24Z" /></clipPath>
<clipPath id="c22_81"><path d="M47.5,1082.5l0,-334l840,0l0,334Z" /></clipPath>
<style type="text/css"><![CDATA[
.g2_81{
fill: none;
stroke: #7E7E7E;
stroke-width: 1;
stroke-linecap: butt;
stroke-linejoin: miter;
}
.g3_81{
fill: #F1F1F1;
}
.g1_81{
fill: #DBE5F1;
}
]]></style>
</defs>
<path fill-rule="evenodd" d="M47,199l365,0l0,-25L47,174l0,25Z" class="g1_81" />
<g clip-path="url(#c0_81)">
<path fill-rule="evenodd" d="M55,198l349,0l0,-24L55,174l0,24Z" class="g1_81" />
</g>
<path fill-rule="evenodd" d="M413,199l213,0l0,-25l-213,0l0,25Z" class="g1_81" />
<g clip-path="url(#c1_81)">
<path fill-rule="evenodd" d="M421,198l197,0l0,-24l-197,0l0,24Z" class="g1_81" />
</g>
<path fill-rule="evenodd" d="M627,199l258,0l0,-25l-258,0l0,25Z" class="g1_81" />
<g clip-path="url(#c2_81)">
<path fill-rule="evenodd" d="M635,198l243,0l0,-24l-243,0l0,24Z" class="g1_81" />
</g>
<path d="M46.5,174.5l0,-1" class="g2_81" />
<path d="M46.5,174.5l0,-1" class="g2_81" />
<path d="M47.5,174.5l365,0" class="g2_81" />
<path d="M412.5,174.5l0,-1" class="g2_81" />
<path d="M413.5,174.5l213,0" class="g2_81" />
<path d="M626.5,174.5l0,-1" class="g2_81" />
<path d="M627.5,174.5l258,0" class="g2_81" />
<path d="M885.5,174.5l0,-1" class="g2_81" />
<path d="M885.5,174.5l0,-1" class="g2_81" />
<path d="M46.5,199.5l0,-25" class="g2_81" />
<path d="M412.5,199.5l0,-25" class="g2_81" />
<path d="M626.5,199.5l0,-25" class="g2_81" />
<path d="M885.5,199.5l0,-25" class="g2_81" />
<path fill-rule="evenodd" d="M47,599l43,0L90,200l-43,0l0,399Z" class="g3_81" />
<path fill-rule="evenodd" d="M55,599l23,0L78,200l-23,0l0,399Z" class="g3_81" />
<path fill-rule="evenodd" d="M92,272l320,0l0,-72L92,200l0,72Z" class="g3_81" />
<g clip-path="url(#c3_81)">
<path fill-rule="evenodd" d="M99,224l305,0l0,-24L99,200l0,24Z" class="g3_81" />
</g>
<path fill-rule="evenodd" d="M413,272l213,0l0,-72l-213,0l0,72Z" class="g3_81" />
<g clip-path="url(#c4_81)">
<path fill-rule="evenodd" d="M421,224l197,0l0,-24l-197,0l0,24Z" class="g3_81" />
</g>
<path fill-rule="evenodd" d="M627,272l258,0l0,-72l-258,0l0,72Z" class="g3_81" />
<g clip-path="url(#c5_81)">
<path fill-rule="evenodd" d="M635,224l243,0l0,-24l-243,0l0,24Z" class="g3_81" />
</g>
<path fill-rule="evenodd" d="M635,248l243,0l0,-24l-243,0l0,24Z" class="g3_81" />
<path fill-rule="evenodd" d="M635,272l243,0l0,-24l-243,0l0,24Z" class="g3_81" />
<path d="M46.5,200.5l0,-1" class="g2_81" />
<path d="M47.5,200.5l43,0" class="g2_81" />
<path d="M90.5,200.5l0,-1" class="g2_81" />
<path d="M92.5,200.5l320,0" class="g2_81" />
<path d="M412.5,200.5l0,-1" class="g2_81" />
<path d="M413.5,200.5l213,0" class="g2_81" />
<path d="M626.5,200.5l0,-1" class="g2_81" />
<path d="M627.5,200.5l258,0" class="g2_81" />
<path d="M885.5,200.5l0,-1" class="g2_81" />
<path d="M46.5,272.5l0,-72" class="g2_81" />
<path d="M90.5,272.5l0,-72" class="g2_81" />
<path d="M412.5,272.5l0,-72" class="g2_81" />
<path d="M626.5,272.5l0,-72" class="g2_81" />
<path d="M885.5,272.5l0,-72" class="g2_81" />
<path fill-rule="evenodd" d="M92,298l320,0l0,-25L92,273l0,25Z" class="g3_81" />
<g clip-path="url(#c6_81)">
<path fill-rule="evenodd" d="M99,297l305,0l0,-24L99,273l0,24Z" class="g3_81" />
</g>
<path fill-rule="evenodd" d="M413,298l213,0l0,-25l-213,0l0,25Z" class="g3_81" />
<g clip-path="url(#c7_81)">
<path fill-rule="evenodd" d="M421,297l197,0l0,-24l-197,0l0,24Z" class="g3_81" />
</g>
<path fill-rule="evenodd" d="M627,298l258,0l0,-25l-258,0l0,25Z" class="g3_81" />
<g clip-path="url(#c8_81)">
<path fill-rule="evenodd" d="M635,297l243,0l0,-24l-243,0l0,24Z" class="g3_81" />
</g>
<path d="M46.5,273.5l0,-1" class="g2_81" />
<path d="M90.5,273.5l0,-1" class="g2_81" />
<path d="M92.5,273.5l320,0" class="g2_81" />
<path d="M412.5,273.5l0,-1" class="g2_81" />
<path d="M413.5,273.5l213,0" class="g2_81" />
<path d="M626.5,273.5l0,-1" class="g2_81" />
<path d="M627.5,273.5l258,0" class="g2_81" />
<path d="M885.5,273.5l0,-1" class="g2_81" />
<path d="M46.5,298.5l0,-25" class="g2_81" />
<path d="M90.5,298.5l0,-25" class="g2_81" />
<path d="M412.5,298.5l0,-25" class="g2_81" />
<path d="M626.5,298.5l0,-25" class="g2_81" />
<path d="M885.5,298.5l0,-25" class="g2_81" />
<path fill-rule="evenodd" d="M92,347l320,0l0,-48L92,299l0,48Z" class="g3_81" />
<g clip-path="url(#c9_81)">
<path fill-rule="evenodd" d="M99,323l305,0l0,-24L99,299l0,24Z" class="g3_81" />
</g>
<path fill-rule="evenodd" d="M413,347l213,0l0,-48l-213,0l0,48Z" class="g3_81" />
<g clip-path="url(#c10_81)">
<path fill-rule="evenodd" d="M421,323l197,0l0,-24l-197,0l0,24Z" class="g3_81" />
</g>
<path fill-rule="evenodd" d="M421,347l197,0l0,-24l-197,0l0,24Z" class="g3_81" />
<path fill-rule="evenodd" d="M627,347l258,0l0,-48l-258,0l0,48Z" class="g3_81" />
<g clip-path="url(#c11_81)">
<path fill-rule="evenodd" d="M635,323l243,0l0,-24l-243,0l0,24Z" class="g3_81" />
</g>
<path d="M46.5,299.5l0,-1" class="g2_81" />
<path d="M90.5,299.5l0,-1" class="g2_81" />
<path d="M92.5,299.5l320,0" class="g2_81" />
<path d="M412.5,299.5l0,-1" class="g2_81" />
<path d="M413.5,299.5l213,0" class="g2_81" />
<path d="M626.5,299.5l0,-1" class="g2_81" />
<path d="M627.5,299.5l258,0" class="g2_81" />
<path d="M885.5,299.5l0,-1" class="g2_81" />
<path d="M46.5,347.5l0,-48" class="g2_81" />
<path d="M90.5,347.5l0,-48" class="g2_81" />
<path d="M412.5,347.5l0,-48" class="g2_81" />
<path d="M626.5,347.5l0,-48" class="g2_81" />
<path d="M885.5,347.5l0,-48" class="g2_81" />
<path fill-rule="evenodd" d="M92,599l43,0l0,-250l-43,0l0,250Z" class="g3_81" />
<path fill-rule="evenodd" d="M99,599l24,0l0,-250l-24,0l0,250Z" class="g3_81" />
<path fill-rule="evenodd" d="M136,599l44,0l0,-250l-44,0l0,250Z" class="g3_81" />
<path fill-rule="evenodd" d="M144,599l24,0l0,-250l-24,0l0,250Z" class="g3_81" />
<path fill-rule="evenodd" d="M181,376l231,0l0,-27l-231,0l0,27Z" class="g3_81" />
<g clip-path="url(#c12_81)">
<path fill-rule="evenodd" d="M189,372l215,0l0,-23l-215,0l0,23Z" class="g3_81" />
</g>
<path fill-rule="evenodd" d="M413,376l213,0l0,-27l-213,0l0,27Z" class="g3_81" />
<g clip-path="url(#c13_81)">
<path fill-rule="evenodd" d="M421,372l197,0l0,-23l-197,0l0,23Z" class="g3_81" />
</g>
<path fill-rule="evenodd" d="M627,376l258,0l0,-27l-258,0l0,27Z" class="g3_81" />
<g clip-path="url(#c14_81)">
<path fill-rule="evenodd" d="M635,372l243,0l0,-23l-243,0l0,23Z" class="g3_81" />
</g>
<path d="M46.5,349.5l0,-2" class="g2_81" />
<path d="M90.5,349.5l0,-2" class="g2_81" />
<path d="M92.5,349.5l43,0" class="g2_81" />
<path d="M135.5,349.5l0,-2" class="g2_81" />
<path d="M136.5,349.5l44,0" class="g2_81" />
<path d="M180.5,349.5l0,-2" class="g2_81" />
<path d="M181.5,349.5l231,0" class="g2_81" />
<path d="M412.5,349.5l0,-2" class="g2_81" />
<path d="M413.5,349.5l213,0" class="g2_81" />
<path d="M626.5,349.5l0,-2" class="g2_81" />
<path d="M627.5,349.5l258,0" class="g2_81" />
<path d="M885.5,349.5l0,-2" class="g2_81" />
<path d="M46.5,376.5l0,-27" class="g2_81" />
<path d="M90.5,376.5l0,-27" class="g2_81" />
<path d="M135.5,376.5l0,-27" class="g2_81" />
<path d="M180.5,376.5l0,-27" class="g2_81" />
<path d="M412.5,376.5l0,-27" class="g2_81" />
<path d="M626.5,376.5l0,-27" class="g2_81" />
<path d="M885.5,376.5l0,-27" class="g2_81" />
<path fill-rule="evenodd" d="M181,402l231,0l0,-24l-231,0l0,24Z" class="g3_81" />
<g clip-path="url(#c15_81)">
<path fill-rule="evenodd" d="M189,401l215,0l0,-23l-215,0l0,23Z" class="g3_81" />
</g>
<path fill-rule="evenodd" d="M413,402l213,0l0,-24l-213,0l0,24Z" class="g3_81" />
<g clip-path="url(#c16_81)">
<path fill-rule="evenodd" d="M421,401l197,0l0,-23l-197,0l0,23Z" class="g3_81" />
</g>
<path fill-rule="evenodd" d="M627,402l258,0l0,-24l-258,0l0,24Z" class="g3_81" />
<g clip-path="url(#c17_81)">
<path fill-rule="evenodd" d="M635,401l243,0l0,-23l-243,0l0,23Z" class="g3_81" />
</g>
<path d="M46.5,378.5l0,-2" class="g2_81" />
<path d="M90.5,378.5l0,-2" class="g2_81" />
<path d="M135.5,378.5l0,-2" class="g2_81" />
<path d="M180.5,378.5l0,-2" class="g2_81" />
<path d="M181.5,378.5l231,0" class="g2_81" />
<path d="M412.5,378.5l0,-2" class="g2_81" />
<path d="M413.5,378.5l213,0" class="g2_81" />
<path d="M626.5,378.5l0,-2" class="g2_81" />
<path d="M627.5,378.5l258,0" class="g2_81" />
<path d="M885.5,378.5l0,-2" class="g2_81" />
<path d="M46.5,402.5l0,-24" class="g2_81" />
<path d="M90.5,402.5l0,-24" class="g2_81" />
<path d="M135.5,402.5l0,-24" class="g2_81" />
<path d="M180.5,402.5l0,-24" class="g2_81" />
<path d="M412.5,402.5l0,-24" class="g2_81" />
<path d="M626.5,402.5l0,-24" class="g2_81" />
<path d="M885.5,402.5l0,-24" class="g2_81" />
<path fill-rule="evenodd" d="M181,599l50,0l0,-195l-50,0l0,195Z" class="g3_81" />
<path fill-rule="evenodd" d="M189,599l23,0l0,-195l-23,0l0,195Z" class="g3_81" />
<path fill-rule="evenodd" d="M233,599l39,0l0,-195l-39,0l0,195Z" class="g3_81" />
<path fill-rule="evenodd" d="M240,599l24,0l0,-195l-24,0l0,195Z" class="g3_81" />
<path fill-rule="evenodd" d="M274,428l138,0l0,-24l-138,0l0,24Z" class="g3_81" />
<path fill-rule="evenodd" d="M281,428l123,0l0,-24l-123,0l0,24Z" class="g3_81" />
<path fill-rule="evenodd" d="M413,428l213,0l0,-24l-213,0l0,24Z" class="g3_81" />
<path fill-rule="evenodd" d="M421,428l197,0l0,-24l-197,0l0,24Z" class="g3_81" />
<path fill-rule="evenodd" d="M627,428l258,0l0,-24l-258,0l0,24Z" class="g3_81" />
<path fill-rule="evenodd" d="M635,428l243,0l0,-24l-243,0l0,24Z" class="g3_81" />
<path d="M46.5,404.5l0,-2" class="g2_81" />
<path d="M90.5,404.5l0,-2" class="g2_81" />
<path d="M135.5,404.5l0,-2" class="g2_81" />
<path d="M180.5,404.5l0,-2" class="g2_81" />
<path d="M181.5,404.5l50,0" class="g2_81" />
<path d="M231.5,404.5l0,-2" class="g2_81" />
<path d="M233.5,404.5l40,0" class="g2_81" />
<path d="M273.5,404.5l0,-2" class="g2_81" />
<path d="M274.5,404.5l138,0" class="g2_81" />
<path d="M412.5,404.5l0,-2" class="g2_81" />
<path d="M413.5,404.5l213,0" class="g2_81" />
<path d="M626.5,404.5l0,-2" class="g2_81" />
<path d="M627.5,404.5l258,0" class="g2_81" />
<path d="M885.5,404.5l0,-2" class="g2_81" />
<path d="M46.5,428.5l0,-24" class="g2_81" />
<path d="M90.5,428.5l0,-24" class="g2_81" />
<path d="M135.5,428.5l0,-24" class="g2_81" />
<path d="M180.5,428.5l0,-24" class="g2_81" />
<path d="M231.5,428.5l0,-24" class="g2_81" />
<path d="M273.5,428.5l0,-24" class="g2_81" />
<path d="M412.5,428.5l0,-24" class="g2_81" />
<path d="M626.5,428.5l0,-24" class="g2_81" />
<path d="M885.5,428.5l0,-24" class="g2_81" />
<path fill-rule="evenodd" d="M274,477l138,0l0,-48l-138,0l0,48Z" class="g3_81" />
<path fill-rule="evenodd" d="M281,453l123,0l0,-24l-123,0l0,24Z" class="g3_81" />
<path fill-rule="evenodd" d="M413,477l213,0l0,-48l-213,0l0,48Z" class="g3_81" />
<path fill-rule="evenodd" d="M421,453l197,0l0,-24l-197,0l0,24Z" class="g3_81" />
<path fill-rule="evenodd" d="M627,477l258,0l0,-48l-258,0l0,48Z" class="g3_81" />
<path fill-rule="evenodd" d="M635,453l243,0l0,-24l-243,0l0,24Z" class="g3_81" />
<path fill-rule="evenodd" d="M635,477l243,0l0,-24l-243,0l0,24Z" class="g3_81" />
<path d="M46.5,429.5l0,-1" class="g2_81" />
<path d="M90.5,429.5l0,-1" class="g2_81" />
<path d="M135.5,429.5l0,-1" class="g2_81" />
<path d="M180.5,429.5l0,-1" class="g2_81" />
<path d="M231.5,429.5l0,-1" class="g2_81" />
<path d="M273.5,429.5l0,-1" class="g2_81" />
<path d="M274.5,429.5l138,0" class="g2_81" />
<path d="M412.5,429.5l0,-1" class="g2_81" />
<path d="M413.5,429.5l213,0" class="g2_81" />
<path d="M626.5,429.5l0,-1" class="g2_81" />
<path d="M627.5,429.5l258,0" class="g2_81" />
<path d="M885.5,429.5l0,-1" class="g2_81" />
<path d="M46.5,477.5l0,-48" class="g2_81" />
<path d="M90.5,477.5l0,-48" class="g2_81" />
<path d="M135.5,477.5l0,-48" class="g2_81" />
<path d="M180.5,477.5l0,-48" class="g2_81" />
<path d="M231.5,477.5l0,-48" class="g2_81" />
<path d="M273.5,477.5l0,-48" class="g2_81" />
<path d="M412.5,477.5l0,-48" class="g2_81" />
<path d="M626.5,477.5l0,-48" class="g2_81" />
<path d="M885.5,477.5l0,-48" class="g2_81" />
<path fill-rule="evenodd" d="M274,526l138,0l0,-48l-138,0l0,48Z" class="g3_81" />
<path fill-rule="evenodd" d="M281,502l123,0l0,-24l-123,0l0,24Z" class="g3_81" />
<path fill-rule="evenodd" d="M413,526l213,0l0,-48l-213,0l0,48Z" class="g3_81" />
<path fill-rule="evenodd" d="M421,502l197,0l0,-24l-197,0l0,24Z" class="g3_81" />
<path fill-rule="evenodd" d="M627,526l258,0l0,-48l-258,0l0,48Z" class="g3_81" />
<path fill-rule="evenodd" d="M635,502l243,0l0,-24l-243,0l0,24Z" class="g3_81" />
<path fill-rule="evenodd" d="M635,526l243,0l0,-24l-243,0l0,24Z" class="g3_81" />
<path d="M46.5,478.5l0,-1" class="g2_81" />
<path d="M90.5,478.5l0,-1" class="g2_81" />
<path d="M135.5,478.5l0,-1" class="g2_81" />
<path d="M180.5,478.5l0,-1" class="g2_81" />
<path d="M231.5,478.5l0,-1" class="g2_81" />
<path d="M273.5,478.5l0,-1" class="g2_81" />
<path d="M274.5,478.5l138,0" class="g2_81" />
<path d="M412.5,478.5l0,-1" class="g2_81" />
<path d="M413.5,478.5l213,0" class="g2_81" />
<path d="M626.5,478.5l0,-1" class="g2_81" />
<path d="M627.5,478.5l258,0" class="g2_81" />
<path d="M885.5,478.5l0,-1" class="g2_81" />
<path d="M46.5,526.5l0,-48" class="g2_81" />
<path d="M90.5,526.5l0,-48" class="g2_81" />
<path d="M135.5,526.5l0,-48" class="g2_81" />
<path d="M180.5,526.5l0,-48" class="g2_81" />
<path d="M231.5,526.5l0,-48" class="g2_81" />
<path d="M273.5,526.5l0,-48" class="g2_81" />
<path d="M412.5,526.5l0,-48" class="g2_81" />
<path d="M626.5,526.5l0,-48" class="g2_81" />
<path d="M885.5,526.5l0,-48" class="g2_81" />
<path fill-rule="evenodd" d="M274,599l138,0l0,-71l-138,0l0,71Z" class="g3_81" />
<g clip-path="url(#c18_81)">
<path fill-rule="evenodd" d="M281,551l123,0l0,-23l-123,0l0,23Z" class="g3_81" />
</g>
<path fill-rule="evenodd" d="M281,575l123,0l0,-24l-123,0l0,24Z" class="g3_81" />
<path fill-rule="evenodd" d="M413,599l213,0l0,-71l-213,0l0,71Z" class="g3_81" />
<g clip-path="url(#c19_81)">
<path fill-rule="evenodd" d="M421,551l197,0l0,-23l-197,0l0,23Z" class="g3_81" />
</g>
<path fill-rule="evenodd" d="M627,599l258,0l0,-71l-258,0l0,71Z" class="g3_81" />
<g clip-path="url(#c20_81)">
<path fill-rule="evenodd" d="M635,551l243,0l0,-23l-243,0l0,23Z" class="g3_81" />
</g>
<path fill-rule="evenodd" d="M635,575l243,0l0,-24l-243,0l0,24Z" class="g3_81" />
<path fill-rule="evenodd" d="M635,599l243,0l0,-24l-243,0l0,24Z" class="g3_81" />
<path d="M46.5,527.5l0,-1" class="g2_81" />
<path d="M90.5,527.5l0,-1" class="g2_81" />
<path d="M135.5,527.5l0,-1" class="g2_81" />
<path d="M180.5,527.5l0,-1" class="g2_81" />
<path d="M231.5,527.5l0,-1" class="g2_81" />
<path d="M273.5,527.5l0,-1" class="g2_81" />
<path d="M274.5,527.5l138,0" class="g2_81" />
<path d="M412.5,527.5l0,-1" class="g2_81" />
<path d="M413.5,527.5l213,0" class="g2_81" />
<path d="M626.5,527.5l0,-1" class="g2_81" />
<path d="M627.5,527.5l258,0" class="g2_81" />
<path d="M885.5,527.5l0,-1" class="g2_81" />
<path d="M46.5,599.5l0,-72" class="g2_81" />
<path d="M46.5,601.5l0,-2" class="g2_81" />
<path d="M46.5,601.5l0,-2" class="g2_81" />
<path d="M47.5,601.5l43,0" class="g2_81" />
<path d="M90.5,599.5l0,-72" class="g2_81" />
<path d="M90.5,601.5l0,-2" class="g2_81" />
<path d="M92.5,601.5l43,0" class="g2_81" />
<path d="M135.5,599.5l0,-72" class="g2_81" />
<path d="M135.5,601.5l0,-2" class="g2_81" />
<path d="M136.5,601.5l44,0" class="g2_81" />
<path d="M180.5,599.5l0,-72" class="g2_81" />
<path d="M180.5,601.5l0,-2" class="g2_81" />
<path d="M181.5,601.5l50,0" class="g2_81" />
<path d="M231.5,599.5l0,-72" class="g2_81" />
<path d="M231.5,601.5l0,-2" class="g2_81" />
<path d="M233.5,601.5l40,0" class="g2_81" />
<path d="M273.5,599.5l0,-72" class="g2_81" />
<path d="M273.5,601.5l0,-2" class="g2_81" />
<path d="M274.5,601.5l138,0" class="g2_81" />
<path d="M412.5,599.5l0,-72" class="g2_81" />
<path d="M412.5,601.5l0,-2" class="g2_81" />
<path d="M413.5,601.5l213,0" class="g2_81" />
<path d="M626.5,599.5l0,-72" class="g2_81" />
<path d="M626.5,601.5l0,-2" class="g2_81" />
<path d="M627.5,601.5l258,0" class="g2_81" />
<path d="M885.5,599.5l0,-72" class="g2_81" />
<path d="M885.5,601.5l0,-2" class="g2_81" />
<path d="M885.5,601.5l0,-2" class="g2_81" />
<path fill-rule="evenodd" d="M47,721l840,0l0,-24L47,697l0,24Z" class="g3_81" />
<g clip-path="url(#c21_81)">
<path fill-rule="evenodd" d="M55,721l825,0l0,-24L55,697l0,24Z" class="g3_81" />
</g>
<path d="M46.5,697.5l0,-1" class="g2_81" />
<path d="M46.5,697.5l0,-1" class="g2_81" />
<path d="M47.5,697.5l840,0" class="g2_81" />
<path d="M887.5,697.5l0,-1" class="g2_81" />
<path d="M887.5,697.5l0,-1" class="g2_81" />
<path d="M46.5,721.5l0,-24" class="g2_81" />
<path d="M46.5,723.5l0,-2" class="g2_81" />
<path d="M46.5,723.5l0,-2" class="g2_81" />
<path d="M47.5,723.5l840,0" class="g2_81" />
<path d="M887.5,721.5l0,-24" class="g2_81" />
<path d="M887.5,723.5l0,-2" class="g2_81" />
<path d="M887.5,723.5l0,-2" class="g2_81" />
<path fill-rule="evenodd" d="M47,1082l840,0l0,-334L47,748l0,334Z" class="g3_81" />
<g clip-path="url(#c22_81)">
<path fill-rule="evenodd" d="M55,772l825,0l0,-24L55,748l0,24Z" class="g3_81" />
</g>
<path fill-rule="evenodd" d="M55,796l825,0l0,-24L55,772l0,24Z" class="g3_81" />
<path fill-rule="evenodd" d="M55,820l825,0l0,-24L55,796l0,24Z" class="g3_81" />
<path fill-rule="evenodd" d="M55,843l825,0l0,-23L55,820l0,23Z" class="g3_81" />
<path fill-rule="evenodd" d="M55,867l825,0l0,-24L55,843l0,24Z" class="g3_81" />
<path fill-rule="evenodd" d="M55,891l825,0l0,-24L55,867l0,24Z" class="g3_81" />
<path fill-rule="evenodd" d="M55,915l825,0l0,-24L55,891l0,24Z" class="g3_81" />
<path fill-rule="evenodd" d="M55,939l825,0l0,-24L55,915l0,24Z" class="g3_81" />
<path fill-rule="evenodd" d="M55,963l825,0l0,-24L55,939l0,24Z" class="g3_81" />
<path fill-rule="evenodd" d="M55,987l825,0l0,-24L55,963l0,24Z" class="g3_81" />
<path fill-rule="evenodd" d="M55,1010l825,0l0,-23L55,987l0,23Z" class="g3_81" />
<path fill-rule="evenodd" d="M55,1034l825,0l0,-24l-825,0l0,24Z" class="g3_81" />
<path fill-rule="evenodd" d="M55,1058l825,0l0,-24l-825,0l0,24Z" class="g3_81" />
<g clip-path="url(#c22_81)">
<path fill-rule="evenodd" d="M55,1082l825,0l0,-24l-825,0l0,24Z" class="g3_81" />
</g>
<path d="M46.5,748.5l0,-1" class="g2_81" />
<path d="M46.5,748.5l0,-1" class="g2_81" />
<path d="M47.5,748.5l840,0" class="g2_81" />
<path d="M887.5,748.5l0,-1" class="g2_81" />
<path d="M887.5,748.5l0,-1" class="g2_81" />
<path d="M46.5,1082.5l0,-334" class="g2_81" />
<path d="M46.5,1083.5l0,-1" class="g2_81" />
<path d="M46.5,1083.5l0,-1" class="g2_81" />
<path d="M47.5,1083.5l840,0" class="g2_81" />
<path d="M887.5,1082.5l0,-334" class="g2_81" />
<path d="M887.5,1083.5l0,-1" class="g2_81" />
<path d="M887.5,1083.5l0,-1" class="g2_81" />
</svg>