<?xml version="1.0" encoding="UTF-8" standalone="no"?>
<!DOCTYPE svg PUBLIC "-//W3C//DTD SVG 1.1//EN"
"http://www.w3.org/Graphics/SVG/1.1/DTD/svg11.dtd">
<svg version="1.1" xmlns="http://www.w3.org/2000/svg" xmlns:xlink="http://www.w3.org/1999/xlink">
<defs>
<clipPath id="c0_378"><path d="M422.5,302.5l0,-191l465,0l0,191Z" /></clipPath>
<clipPath id="c1_378"><path d="M88.5,409.5l0,-106l40,0l0,106Z" /></clipPath>
<clipPath id="c2_378"><path d="M129.5,335.5l0,-32l150,0l0,32Z" /></clipPath>
<clipPath id="c3_378"><path d="M280.5,335.5l0,-32l79,0l0,32Z" /></clipPath>
<clipPath id="c4_378"><path d="M361.5,335.5l0,-32l60,0l0,32Z" /></clipPath>
<clipPath id="c5_378"><path d="M422.5,335.5l0,-32l465,0l0,32Z" /></clipPath>
<clipPath id="c6_378"><path d="M128.5,409.5l0,-73l70,0l0,73Z" /></clipPath>
<clipPath id="c7_378"><path d="M199.5,360.5l0,-24l80,0l0,24Z" /></clipPath>
<clipPath id="c8_378"><path d="M280.5,360.5l0,-24l79,0l0,24Z" /></clipPath>
<clipPath id="c9_378"><path d="M361.5,360.5l0,-24l60,0l0,24Z" /></clipPath>
<clipPath id="c10_378"><path d="M422.5,360.5l0,-24l465,0l0,24Z" /></clipPath>
<clipPath id="c11_378"><path d="M199.5,409.5l0,-47l80,0l0,47Z" /></clipPath>
<clipPath id="c12_378"><path d="M280.5,409.5l0,-47l79,0l0,47Z" /></clipPath>
<clipPath id="c13_378"><path d="M361.5,409.5l0,-47l60,0l0,47Z" /></clipPath>
<clipPath id="c14_378"><path d="M422.5,409.5l0,-47l465,0l0,47Z" /></clipPath>
<clipPath id="c15_378"><path d="M47.5,940.5l0,-382l840,0l0,382Z" /></clipPath>
<clipPath id="c16_378"><path d="M47.5,1086.5l0,-72l840,0l0,72Z" /></clipPath>
<style type="text/css"><![CDATA[
.g2_378{
fill: none;
stroke: #7E7E7E;
stroke-width: 1;
stroke-linecap: butt;
stroke-linejoin: miter;
}
.g3_378{
fill: none;
stroke: #000000;
stroke-width: 1;
stroke-linecap: butt;
stroke-linejoin: miter;
}
.g1_378{
fill: #F1F1F1;
}
]]></style>
</defs>
<path fill-rule="evenodd" d="M47,302l39,0L86,111l-39,0l0,191Z" class="g1_378" />
<path fill-rule="evenodd" d="M88,302l191,0l0,-191L88,111l0,191Z" class="g1_378" />
<path fill-rule="evenodd" d="M280,302l79,0l0,-191l-79,0l0,191Z" class="g1_378" />
<path fill-rule="evenodd" d="M361,302l60,0l0,-191l-60,0l0,191Z" class="g1_378" />
<path fill-rule="evenodd" d="M422,302l465,0l0,-191l-465,0l0,191Z" class="g1_378" />
<g clip-path="url(#c0_378)">
<path fill-rule="evenodd" d="M429,135l451,0l0,-24l-451,0l0,24Z" class="g1_378" />
</g>
<path fill-rule="evenodd" d="M429,159l451,0l0,-24l-451,0l0,24Z" class="g1_378" />
<path fill-rule="evenodd" d="M429,182l451,0l0,-23l-451,0l0,23Z" class="g1_378" />
<path fill-rule="evenodd" d="M429,206l451,0l0,-24l-451,0l0,24Z" class="g1_378" />
<path fill-rule="evenodd" d="M429,230l451,0l0,-24l-451,0l0,24Z" class="g1_378" />
<path fill-rule="evenodd" d="M429,254l451,0l0,-24l-451,0l0,24Z" class="g1_378" />
<path fill-rule="evenodd" d="M429,278l451,0l0,-24l-451,0l0,24Z" class="g1_378" />
<path fill-rule="evenodd" d="M429,302l451,0l0,-24l-451,0l0,24Z" class="g1_378" />
<path d="M46.5,111.5l0,-1" class="g2_378" />
<path d="M46.5,111.5l0,-1" class="g2_378" />
<path d="M47.5,111.5l39,0" class="g2_378" />
<path d="M86.5,111.5l0,-1" class="g2_378" />
<path d="M88.5,111.5l191,0" class="g2_378" />
<path d="M279.5,111.5l0,-1" class="g2_378" />
<path d="M280.5,111.5l79,0" class="g2_378" />
<path d="M359.5,111.5l0,-1" class="g2_378" />
<path d="M361.5,111.5l60,0" class="g2_378" />
<path d="M421.5,111.5l0,-1" class="g2_378" />
<path d="M422.5,111.5l465,0" class="g2_378" />
<path d="M887.5,111.5l0,-1" class="g2_378" />
<path d="M887.5,111.5l0,-1" class="g2_378" />
<path d="M46.5,302.5l0,-191" class="g2_378" />
<path d="M86.5,302.5l0,-191" class="g2_378" />
<path d="M279.5,302.5l0,-191" class="g2_378" />
<path d="M359.5,302.5l0,-191" class="g2_378" />
<path d="M421.5,302.5l0,-191" class="g2_378" />
<path d="M887.5,302.5l0,-191" class="g2_378" />
<path fill-rule="evenodd" d="M47,335l39,0l0,-33l-39,0l0,33Z" class="g1_378" />
<path fill-rule="evenodd" d="M88,409l40,0l0,-106l-40,0l0,106Z" class="g1_378" />
<g clip-path="url(#c1_378)">
<path fill-rule="evenodd" d="M95,409l24,0l0,-106l-24,0l0,106Z" class="g1_378" />
</g>
<path fill-rule="evenodd" d="M129,335l150,0l0,-32l-150,0l0,32Z" class="g1_378" />
<g clip-path="url(#c2_378)">
<path fill-rule="evenodd" d="M136,327l135,0l0,-24l-135,0l0,24Z" class="g1_378" />
</g>
<path fill-rule="evenodd" d="M280,335l79,0l0,-32l-79,0l0,32Z" class="g1_378" />
<g clip-path="url(#c3_378)">
<path fill-rule="evenodd" d="M288,327l64,0l0,-24l-64,0l0,24Z" class="g1_378" />
</g>
<path fill-rule="evenodd" d="M361,335l60,0l0,-32l-60,0l0,32Z" class="g1_378" />
<g clip-path="url(#c4_378)">
<path fill-rule="evenodd" d="M368,327l45,0l0,-24l-45,0l0,24Z" class="g1_378" />
</g>
<path fill-rule="evenodd" d="M422,335l465,0l0,-32l-465,0l0,32Z" class="g1_378" />
<g clip-path="url(#c5_378)">
<path fill-rule="evenodd" d="M429,327l451,0l0,-24l-451,0l0,24Z" class="g1_378" />
</g>
<path d="M46.5,303.5l0,-1" class="g2_378" />
<path d="M86.5,303.5l0,-1" class="g2_378" />
<path d="M88.5,303.5l40,0" class="g2_378" />
<path d="M128.5,303.5l0,-1" class="g2_378" />
<path d="M129.5,303.5l150,0" class="g2_378" />
<path d="M279.5,303.5l0,-1" class="g2_378" />
<path d="M280.5,303.5l79,0" class="g2_378" />
<path d="M359.5,303.5l0,-1" class="g2_378" />
<path d="M361.5,303.5l60,0" class="g2_378" />
<path d="M421.5,303.5l0,-1" class="g2_378" />
<path d="M422.5,303.5l465,0" class="g2_378" />
<path d="M887.5,303.5l0,-1" class="g2_378" />
<path d="M46.5,335.5l0,-32" class="g2_378" />
<path d="M86.5,335.5l0,-32" class="g2_378" />
<path d="M127.5,335.5l0,-32" class="g2_378" />
<path d="M279.5,335.5l0,-32" class="g2_378" />
<path d="M359.5,335.5l0,-32" class="g2_378" />
<path d="M421.5,335.5l0,-32" class="g2_378" />
<path d="M887.5,335.5l0,-32" class="g2_378" />
<path fill-rule="evenodd" d="M47,360l39,0l0,-25l-39,0l0,25Z" class="g1_378" />
<path fill-rule="evenodd" d="M128,409l70,0l0,-73l-70,0l0,73Z" class="g1_378" />
<g clip-path="url(#c6_378)">
<path fill-rule="evenodd" d="M136,360l55,0l0,-24l-55,0l0,24Z" class="g1_378" />
</g>
<path fill-rule="evenodd" d="M199,360l80,0l0,-24l-80,0l0,24Z" class="g1_378" />
<g clip-path="url(#c7_378)">
<path fill-rule="evenodd" d="M207,360l64,0l0,-24l-64,0l0,24Z" class="g1_378" />
</g>
<path fill-rule="evenodd" d="M280,360l79,0l0,-24l-79,0l0,24Z" class="g1_378" />
<g clip-path="url(#c8_378)">
<path fill-rule="evenodd" d="M288,360l64,0l0,-24l-64,0l0,24Z" class="g1_378" />
</g>
<path fill-rule="evenodd" d="M361,360l60,0l0,-24l-60,0l0,24Z" class="g1_378" />
<g clip-path="url(#c9_378)">
<path fill-rule="evenodd" d="M368,360l45,0l0,-24l-45,0l0,24Z" class="g1_378" />
</g>
<path fill-rule="evenodd" d="M422,360l465,0l0,-24l-465,0l0,24Z" class="g1_378" />
<g clip-path="url(#c10_378)">
<path fill-rule="evenodd" d="M429,360l451,0l0,-24l-451,0l0,24Z" class="g1_378" />
</g>
<path d="M46.5,336.5l0,-1" class="g2_378" />
<path d="M86.5,336.5l0,-1" class="g2_378" />
<path d="M128.5,336.5l0,-1" class="g2_378" />
<path d="M128.5,336.5l0,-1" class="g2_378" />
<path d="M129.5,336.5l69,0" class="g2_378" />
<path d="M198.5,336.5l0,-1" class="g2_378" />
<path d="M200.5,336.5l79,0" class="g2_378" />
<path d="M279.5,336.5l0,-1" class="g2_378" />
<path d="M280.5,336.5l79,0" class="g2_378" />
<path d="M359.5,336.5l0,-1" class="g2_378" />
<path d="M361.5,336.5l60,0" class="g2_378" />
<path d="M421.5,336.5l0,-1" class="g2_378" />
<path d="M422.5,336.5l465,0" class="g2_378" />
<path d="M887.5,336.5l0,-1" class="g2_378" />
<path d="M46.5,360.5l0,-24" class="g2_378" />
<path d="M86.5,360.5l0,-24" class="g2_378" />
<path d="M128.5,360.5l0,-24" class="g3_378" />
<path d="M198.5,360.5l0,-24" class="g2_378" />
<path d="M279.5,360.5l0,-24" class="g2_378" />
<path d="M359.5,360.5l0,-24" class="g2_378" />
<path d="M421.5,360.5l0,-24" class="g2_378" />
<path d="M887.5,360.5l0,-24" class="g2_378" />
<path fill-rule="evenodd" d="M47,409l39,0l0,-49l-39,0l0,49Z" class="g1_378" />
<path fill-rule="evenodd" d="M199,409l80,0l0,-47l-80,0l0,47Z" class="g1_378" />
<g clip-path="url(#c11_378)">
<path fill-rule="evenodd" d="M207,385l64,0l0,-23l-64,0l0,23Z" class="g1_378" />
</g>
<path fill-rule="evenodd" d="M280,409l79,0l0,-47l-79,0l0,47Z" class="g1_378" />
<g clip-path="url(#c12_378)">
<path fill-rule="evenodd" d="M288,385l64,0l0,-23l-64,0l0,23Z" class="g1_378" />
</g>
<path fill-rule="evenodd" d="M361,409l60,0l0,-47l-60,0l0,47Z" class="g1_378" />
<g clip-path="url(#c13_378)">
<path fill-rule="evenodd" d="M368,385l45,0l0,-23l-45,0l0,23Z" class="g1_378" />
</g>
<path fill-rule="evenodd" d="M422,409l465,0l0,-47l-465,0l0,47Z" class="g1_378" />
<g clip-path="url(#c14_378)">
<path fill-rule="evenodd" d="M429,385l451,0l0,-23l-451,0l0,23Z" class="g1_378" />
</g>
<path fill-rule="evenodd" d="M429,409l451,0l0,-24l-451,0l0,24Z" class="g1_378" />
<path d="M46.5,362.5l0,-2" class="g2_378" />
<path d="M86.5,362.5l0,-2" class="g2_378" />
<path d="M128.5,362.5l0,-2" class="g3_378" />
<path d="M198.5,362.5l0,-2" class="g2_378" />
<path d="M200.5,362.5l79,0" class="g2_378" />
<path d="M279.5,362.5l0,-2" class="g2_378" />
<path d="M280.5,362.5l79,0" class="g2_378" />
<path d="M359.5,362.5l0,-2" class="g2_378" />
<path d="M361.5,362.5l60,0" class="g2_378" />
<path d="M421.5,362.5l0,-2" class="g2_378" />
<path d="M422.5,362.5l465,0" class="g2_378" />
<path d="M887.5,362.5l0,-2" class="g2_378" />
<path d="M46.5,409.5l0,-47" class="g2_378" />
<path d="M46.5,411.5l0,-2" class="g2_378" />
<path d="M46.5,411.5l0,-2" class="g2_378" />
<path d="M47.5,411.5l39,0" class="g2_378" />
<path d="M86.5,409.5l0,-47" class="g2_378" />
<path d="M86.5,411.5l0,-2" class="g2_378" />
<path d="M88.5,411.5l40,0" class="g2_378" />
<path d="M128.5,409.5l0,-47" class="g3_378" />
<path d="M128.5,411.5l0,-2" class="g2_378" />
<path d="M129.5,411.5l69,0" class="g2_378" />
<path d="M198.5,409.5l0,-47" class="g2_378" />
<path d="M198.5,411.5l0,-2" class="g2_378" />
<path d="M200.5,411.5l79,0" class="g2_378" />
<path d="M279.5,409.5l0,-47" class="g2_378" />
<path d="M279.5,411.5l0,-2" class="g2_378" />
<path d="M280.5,411.5l79,0" class="g2_378" />
<path d="M359.5,409.5l0,-47" class="g2_378" />
<path d="M359.5,411.5l0,-2" class="g2_378" />
<path d="M361.5,411.5l60,0" class="g2_378" />
<path d="M421.5,409.5l0,-47" class="g2_378" />
<path d="M421.5,411.5l0,-2" class="g2_378" />
<path d="M422.5,411.5l465,0" class="g2_378" />
<path d="M887.5,409.5l0,-47" class="g2_378" />
<path d="M887.5,411.5l0,-2" class="g2_378" />
<path d="M887.5,411.5l0,-2" class="g2_378" />
<path fill-rule="evenodd" d="M47,532l840,0l0,-24L47,508l0,24Z" class="g1_378" />
<path fill-rule="evenodd" d="M55,532l825,0l0,-24L55,508l0,24Z" class="g1_378" />
<path d="M46.5,508.5l0,-2" class="g2_378" />
<path d="M46.5,508.5l0,-2" class="g2_378" />
<path d="M47.5,508.5l840,0" class="g2_378" />
<path d="M887.5,508.5l0,-2" class="g2_378" />
<path d="M887.5,508.5l0,-2" class="g2_378" />
<path d="M46.5,532.5l0,-24" class="g2_378" />
<path d="M46.5,533.5l0,-1" class="g2_378" />
<path d="M46.5,533.5l0,-1" class="g2_378" />
<path d="M47.5,533.5l840,0" class="g2_378" />
<path d="M887.5,532.5l0,-24" class="g2_378" />
<path d="M887.5,533.5l0,-1" class="g2_378" />
<path d="M887.5,533.5l0,-1" class="g2_378" />
<path fill-rule="evenodd" d="M47,940l840,0l0,-382L47,558l0,382Z" class="g1_378" />
<path fill-rule="evenodd" d="M55,582l825,0l0,-24L55,558l0,24Z" class="g1_378" />
<path fill-rule="evenodd" d="M55,606l825,0l0,-24L55,582l0,24Z" class="g1_378" />
<path fill-rule="evenodd" d="M55,630l825,0l0,-24L55,606l0,24Z" class="g1_378" />
<path fill-rule="evenodd" d="M55,654l825,0l0,-24L55,630l0,24Z" class="g1_378" />
<path fill-rule="evenodd" d="M55,678l825,0l0,-24L55,654l0,24Z" class="g1_378" />
<path fill-rule="evenodd" d="M55,701l825,0l0,-23L55,678l0,23Z" class="g1_378" />
<path fill-rule="evenodd" d="M55,725l825,0l0,-24L55,701l0,24Z" class="g1_378" />
<path fill-rule="evenodd" d="M55,749l825,0l0,-24L55,725l0,24Z" class="g1_378" />
<path fill-rule="evenodd" d="M55,773l825,0l0,-24L55,749l0,24Z" class="g1_378" />
<path fill-rule="evenodd" d="M55,797l825,0l0,-24L55,773l0,24Z" class="g1_378" />
<path fill-rule="evenodd" d="M55,821l825,0l0,-24L55,797l0,24Z" class="g1_378" />
<path fill-rule="evenodd" d="M55,844l825,0l0,-23L55,821l0,23Z" class="g1_378" />
<path fill-rule="evenodd" d="M55,868l825,0l0,-24L55,844l0,24Z" class="g1_378" />
<path fill-rule="evenodd" d="M55,892l825,0l0,-24L55,868l0,24Z" class="g1_378" />
<path fill-rule="evenodd" d="M55,916l825,0l0,-24L55,892l0,24Z" class="g1_378" />
<g clip-path="url(#c15_378)">
<path fill-rule="evenodd" d="M55,940l825,0l0,-24L55,916l0,24Z" class="g1_378" />
</g>
<path d="M46.5,558.5l0,-1" class="g2_378" />
<path d="M46.5,558.5l0,-1" class="g2_378" />
<path d="M47.5,558.5l840,0" class="g2_378" />
<path d="M887.5,558.5l0,-1" class="g2_378" />
<path d="M887.5,558.5l0,-1" class="g2_378" />
<path d="M46.5,940.5l0,-382" class="g2_378" />
<path d="M46.5,941.5l0,-1" class="g2_378" />
<path d="M46.5,941.5l0,-1" class="g2_378" />
<path d="M47.5,941.5l840,0" class="g2_378" />
<path d="M887.5,940.5l0,-382" class="g2_378" />
<path d="M887.5,941.5l0,-1" class="g2_378" />
<path d="M887.5,941.5l0,-1" class="g2_378" />
<path fill-rule="evenodd" d="M47,1086l840,0l0,-72l-840,0l0,72Z" class="g1_378" />
<path fill-rule="evenodd" d="M55,1038l825,0l0,-24l-825,0l0,24Z" class="g1_378" />
<path fill-rule="evenodd" d="M55,1062l825,0l0,-24l-825,0l0,24Z" class="g1_378" />
<g clip-path="url(#c16_378)">
<path fill-rule="evenodd" d="M55,1086l825,0l0,-24l-825,0l0,24Z" class="g1_378" />
</g>
<path d="M46.5,1014.5l0,-1" class="g2_378" />
<path d="M46.5,1014.5l0,-1" class="g2_378" />
<path d="M47.5,1014.5l840,0" class="g2_378" />
<path d="M887.5,1014.5l0,-1" class="g2_378" />
<path d="M887.5,1014.5l0,-1" class="g2_378" />
<path d="M46.5,1086.5l0,-72" class="g2_378" />
<path d="M46.5,1087.5l0,-1" class="g2_378" />
<path d="M46.5,1087.5l0,-1" class="g2_378" />
<path d="M47.5,1087.5l840,0" class="g2_378" />
<path d="M887.5,1086.5l0,-72" class="g2_378" />
<path d="M887.5,1087.5l0,-1" class="g2_378" />
<path d="M887.5,1087.5l0,-1" class="g2_378" />
</svg>