<?xml version="1.0" encoding="UTF-8" standalone="no"?>
<!DOCTYPE svg PUBLIC "-//W3C//DTD SVG 1.1//EN"
"http://www.w3.org/Graphics/SVG/1.1/DTD/svg11.dtd">
<svg version="1.1" xmlns="http://www.w3.org/2000/svg" xmlns:xlink="http://www.w3.org/1999/xlink">
<defs>
<clipPath id="c0_401"><path d="M47.5,199.5l0,-25l371,0l0,25Z" /></clipPath>
<clipPath id="c1_401"><path d="M420.5,199.5l0,-25l95,0l0,25Z" /></clipPath>
<clipPath id="c2_401"><path d="M516.5,199.5l0,-25l371,0l0,25Z" /></clipPath>
<clipPath id="c3_401"><path d="M47.5,941.5l0,-741l34,0l0,741Z" /></clipPath>
<clipPath id="c4_401"><path d="M83.5,248.5l0,-48l335,0l0,48Z" /></clipPath>
<clipPath id="c5_401"><path d="M420.5,248.5l0,-48l95,0l0,48Z" /></clipPath>
<clipPath id="c6_401"><path d="M516.5,248.5l0,-48l371,0l0,48Z" /></clipPath>
<clipPath id="c7_401"><path d="M83.5,275.5l0,-25l335,0l0,25Z" /></clipPath>
<clipPath id="c8_401"><path d="M420.5,275.5l0,-25l95,0l0,25Z" /></clipPath>
<clipPath id="c9_401"><path d="M516.5,275.5l0,-25l371,0l0,25Z" /></clipPath>
<clipPath id="c10_401"><path d="M83.5,301.5l0,-24l335,0l0,24Z" /></clipPath>
<clipPath id="c11_401"><path d="M420.5,301.5l0,-24l95,0l0,24Z" /></clipPath>
<clipPath id="c12_401"><path d="M516.5,301.5l0,-24l371,0l0,24Z" /></clipPath>
<clipPath id="c13_401"><path d="M83.5,941.5l0,-639l40,0l0,639Z" /></clipPath>
<clipPath id="c14_401"><path d="M516.5,337.5l0,-35l371,0l0,35Z" /></clipPath>
<clipPath id="c15_401"><path d="M516.5,372.5l0,-34l371,0l0,34Z" /></clipPath>
<clipPath id="c16_401"><path d="M124.5,516.5l0,-142l33,0l0,142Z" /></clipPath>
<clipPath id="c17_401"><path d="M159.5,408.5l0,-34l259,0l0,34Z" /></clipPath>
<clipPath id="c18_401"><path d="M420.5,408.5l0,-34l95,0l0,34Z" /></clipPath>
<clipPath id="c19_401"><path d="M516.5,408.5l0,-34l371,0l0,34Z" /></clipPath>
<clipPath id="c20_401"><path d="M124.5,941.5l0,-423l33,0l0,423Z" /></clipPath>
<clipPath id="c21_401"><path d="M159.5,941.5l0,-423l39,0l0,423Z" /></clipPath>
<clipPath id="c22_401"><path d="M200.5,732.5l0,-71l218,0l0,71Z" /></clipPath>
<clipPath id="c23_401"><path d="M420.5,732.5l0,-71l95,0l0,71Z" /></clipPath>
<clipPath id="c24_401"><path d="M516.5,732.5l0,-71l371,0l0,71Z" /></clipPath>
<clipPath id="c25_401"><path d="M200.5,772.5l0,-38l218,0l0,38Z" /></clipPath>
<clipPath id="c26_401"><path d="M420.5,772.5l0,-38l95,0l0,38Z" /></clipPath>
<clipPath id="c27_401"><path d="M516.5,772.5l0,-38l371,0l0,38Z" /></clipPath>
<clipPath id="c28_401"><path d="M200.5,941.5l0,-167l218,0l0,167Z" /></clipPath>
<clipPath id="c29_401"><path d="M420.5,941.5l0,-167l95,0l0,167Z" /></clipPath>
<clipPath id="c30_401"><path d="M516.5,941.5l0,-167l371,0l0,167Z" /></clipPath>
<style type="text/css"><![CDATA[
.g2_401{
fill: none;
stroke: #7E7E7E;
stroke-width: 1;
stroke-linecap: butt;
stroke-linejoin: miter;
}
.g3_401{
fill: #F1F1F1;
}
.g1_401{
fill: #DBE5F1;
}
]]></style>
</defs>
<path fill-rule="evenodd" d="M47,199l371,0l0,-25L47,174l0,25Z" class="g1_401" />
<g clip-path="url(#c0_401)">
<path fill-rule="evenodd" d="M55,198l356,0l0,-24L55,174l0,24Z" class="g1_401" />
</g>
<path fill-rule="evenodd" d="M420,199l95,0l0,-25l-95,0l0,25Z" class="g1_401" />
<g clip-path="url(#c1_401)">
<path fill-rule="evenodd" d="M427,198l80,0l0,-24l-80,0l0,24Z" class="g1_401" />
</g>
<path fill-rule="evenodd" d="M516,199l371,0l0,-25l-371,0l0,25Z" class="g1_401" />
<g clip-path="url(#c2_401)">
<path fill-rule="evenodd" d="M524,198l356,0l0,-24l-356,0l0,24Z" class="g1_401" />
</g>
<path d="M46.5,174.5l0,-1" class="g2_401" />
<path d="M46.5,174.5l0,-1" class="g2_401" />
<path d="M47.5,174.5l371,0" class="g2_401" />
<path d="M418.5,174.5l0,-1" class="g2_401" />
<path d="M420.5,174.5l95,0" class="g2_401" />
<path d="M515.5,174.5l0,-1" class="g2_401" />
<path d="M516.5,174.5l371,0" class="g2_401" />
<path d="M887.5,174.5l0,-1" class="g2_401" />
<path d="M887.5,174.5l0,-1" class="g2_401" />
<path d="M46.5,199.5l0,-25" class="g2_401" />
<path d="M418.5,199.5l0,-25" class="g2_401" />
<path d="M515.5,199.5l0,-25" class="g2_401" />
<path d="M887.5,199.5l0,-25" class="g2_401" />
<path fill-rule="evenodd" d="M47,941l34,0L81,200l-34,0l0,741Z" class="g3_401" />
<g clip-path="url(#c3_401)">
<path fill-rule="evenodd" d="M55,941l23,0L78,200l-23,0l0,741Z" class="g3_401" />
</g>
<path fill-rule="evenodd" d="M83,248l335,0l0,-48L83,200l0,48Z" class="g3_401" />
<g clip-path="url(#c4_401)">
<path fill-rule="evenodd" d="M90,224l321,0l0,-24L90,200l0,24Z" class="g3_401" />
</g>
<path fill-rule="evenodd" d="M420,248l95,0l0,-48l-95,0l0,48Z" class="g3_401" />
<g clip-path="url(#c5_401)">
<path fill-rule="evenodd" d="M427,224l80,0l0,-24l-80,0l0,24Z" class="g3_401" />
</g>
<path fill-rule="evenodd" d="M516,248l371,0l0,-48l-371,0l0,48Z" class="g3_401" />
<g clip-path="url(#c6_401)">
<path fill-rule="evenodd" d="M524,224l356,0l0,-24l-356,0l0,24Z" class="g3_401" />
</g>
<path fill-rule="evenodd" d="M524,248l356,0l0,-24l-356,0l0,24Z" class="g3_401" />
<path d="M46.5,200.5l0,-1" class="g2_401" />
<path d="M47.5,200.5l34,0" class="g2_401" />
<path d="M81.5,200.5l0,-1" class="g2_401" />
<path d="M83.5,200.5l335,0" class="g2_401" />
<path d="M418.5,200.5l0,-1" class="g2_401" />
<path d="M420.5,200.5l95,0" class="g2_401" />
<path d="M515.5,200.5l0,-1" class="g2_401" />
<path d="M516.5,200.5l371,0" class="g2_401" />
<path d="M887.5,200.5l0,-1" class="g2_401" />
<path d="M46.5,248.5l0,-48" class="g2_401" />
<path d="M81.5,248.5l0,-48" class="g2_401" />
<path d="M418.5,248.5l0,-48" class="g2_401" />
<path d="M515.5,248.5l0,-48" class="g2_401" />
<path d="M887.5,248.5l0,-48" class="g2_401" />
<path fill-rule="evenodd" d="M83,275l335,0l0,-25L83,250l0,25Z" class="g3_401" />
<g clip-path="url(#c7_401)">
<path fill-rule="evenodd" d="M90,273l321,0l0,-23L90,250l0,23Z" class="g3_401" />
</g>
<path fill-rule="evenodd" d="M420,275l95,0l0,-25l-95,0l0,25Z" class="g3_401" />
<g clip-path="url(#c8_401)">
<path fill-rule="evenodd" d="M427,273l80,0l0,-23l-80,0l0,23Z" class="g3_401" />
</g>
<path fill-rule="evenodd" d="M516,275l371,0l0,-25l-371,0l0,25Z" class="g3_401" />
<g clip-path="url(#c9_401)">
<path fill-rule="evenodd" d="M524,273l356,0l0,-23l-356,0l0,23Z" class="g3_401" />
</g>
<path d="M46.5,249.5l0,-1" class="g2_401" />
<path d="M81.5,249.5l0,-1" class="g2_401" />
<path d="M83.5,249.5l335,0" class="g2_401" />
<path d="M418.5,249.5l0,-1" class="g2_401" />
<path d="M420.5,249.5l95,0" class="g2_401" />
<path d="M515.5,249.5l0,-1" class="g2_401" />
<path d="M516.5,249.5l371,0" class="g2_401" />
<path d="M887.5,249.5l0,-1" class="g2_401" />
<path d="M46.5,275.5l0,-26" class="g2_401" />
<path d="M81.5,275.5l0,-26" class="g2_401" />
<path d="M418.5,275.5l0,-26" class="g2_401" />
<path d="M515.5,275.5l0,-26" class="g2_401" />
<path d="M887.5,275.5l0,-26" class="g2_401" />
<path fill-rule="evenodd" d="M83,301l335,0l0,-24L83,277l0,24Z" class="g3_401" />
<g clip-path="url(#c10_401)">
<path fill-rule="evenodd" d="M90,300l321,0l0,-23L90,277l0,23Z" class="g3_401" />
</g>
<path fill-rule="evenodd" d="M420,301l95,0l0,-24l-95,0l0,24Z" class="g3_401" />
<g clip-path="url(#c11_401)">
<path fill-rule="evenodd" d="M427,300l80,0l0,-23l-80,0l0,23Z" class="g3_401" />
</g>
<path fill-rule="evenodd" d="M516,301l371,0l0,-24l-371,0l0,24Z" class="g3_401" />
<g clip-path="url(#c12_401)">
<path fill-rule="evenodd" d="M524,300l356,0l0,-23l-356,0l0,23Z" class="g3_401" />
</g>
<path d="M46.5,277.5l0,-2" class="g2_401" />
<path d="M81.5,277.5l0,-2" class="g2_401" />
<path d="M83.5,277.5l335,0" class="g2_401" />
<path d="M418.5,277.5l0,-2" class="g2_401" />
<path d="M420.5,277.5l95,0" class="g2_401" />
<path d="M515.5,277.5l0,-2" class="g2_401" />
<path d="M516.5,277.5l371,0" class="g2_401" />
<path d="M887.5,277.5l0,-2" class="g2_401" />
<path d="M46.5,301.5l0,-24" class="g2_401" />
<path d="M81.5,301.5l0,-24" class="g2_401" />
<path d="M418.5,301.5l0,-24" class="g2_401" />
<path d="M515.5,301.5l0,-24" class="g2_401" />
<path d="M887.5,301.5l0,-24" class="g2_401" />
<path fill-rule="evenodd" d="M83,941l40,0l0,-639l-40,0l0,639Z" class="g3_401" />
<g clip-path="url(#c13_401)">
<path fill-rule="evenodd" d="M90,941l24,0l0,-639l-24,0l0,639Z" class="g3_401" />
</g>
<path fill-rule="evenodd" d="M124,337l294,0l0,-35l-294,0l0,35Z" class="g3_401" />
<path fill-rule="evenodd" d="M132,332l279,0l0,-24l-279,0l0,24Z" class="g3_401" />
<path fill-rule="evenodd" d="M420,337l95,0l0,-35l-95,0l0,35Z" class="g3_401" />
<path fill-rule="evenodd" d="M427,332l80,0l0,-24l-80,0l0,24Z" class="g3_401" />
<path fill-rule="evenodd" d="M516,337l371,0l0,-35l-371,0l0,35Z" class="g3_401" />
<g clip-path="url(#c14_401)">
<path fill-rule="evenodd" d="M524,326l356,0l0,-24l-356,0l0,24Z" class="g3_401" />
</g>
<path d="M46.5,302.5l0,-1" class="g2_401" />
<path d="M81.5,302.5l0,-1" class="g2_401" />
<path d="M83.5,302.5l40,0" class="g2_401" />
<path d="M123.5,302.5l0,-1" class="g2_401" />
<path d="M124.5,302.5l294,0" class="g2_401" />
<path d="M418.5,302.5l0,-1" class="g2_401" />
<path d="M420.5,302.5l95,0" class="g2_401" />
<path d="M515.5,302.5l0,-1" class="g2_401" />
<path d="M516.5,302.5l371,0" class="g2_401" />
<path d="M887.5,302.5l0,-1" class="g2_401" />
<path d="M46.5,337.5l0,-35" class="g2_401" />
<path d="M81.5,337.5l0,-35" class="g2_401" />
<path d="M123.5,337.5l0,-35" class="g2_401" />
<path d="M418.5,337.5l0,-35" class="g2_401" />
<path d="M515.5,337.5l0,-35" class="g2_401" />
<path d="M887.5,337.5l0,-35" class="g2_401" />
<path fill-rule="evenodd" d="M124,372l294,0l0,-34l-294,0l0,34Z" class="g3_401" />
<path fill-rule="evenodd" d="M132,367l279,0l0,-24l-279,0l0,24Z" class="g3_401" />
<path fill-rule="evenodd" d="M420,372l95,0l0,-34l-95,0l0,34Z" class="g3_401" />
<path fill-rule="evenodd" d="M427,367l80,0l0,-24l-80,0l0,24Z" class="g3_401" />
<path fill-rule="evenodd" d="M516,372l371,0l0,-34l-371,0l0,34Z" class="g3_401" />
<g clip-path="url(#c15_401)">
<path fill-rule="evenodd" d="M524,362l356,0l0,-24l-356,0l0,24Z" class="g3_401" />
</g>
<path d="M46.5,338.5l0,-1" class="g2_401" />
<path d="M81.5,338.5l0,-1" class="g2_401" />
<path d="M123.5,338.5l0,-1" class="g2_401" />
<path d="M124.5,338.5l294,0" class="g2_401" />
<path d="M418.5,338.5l0,-1" class="g2_401" />
<path d="M420.5,338.5l95,0" class="g2_401" />
<path d="M515.5,338.5l0,-1" class="g2_401" />
<path d="M516.5,338.5l371,0" class="g2_401" />
<path d="M887.5,338.5l0,-1" class="g2_401" />
<path d="M46.5,372.5l0,-34" class="g2_401" />
<path d="M81.5,372.5l0,-34" class="g2_401" />
<path d="M123.5,372.5l0,-34" class="g2_401" />
<path d="M418.5,372.5l0,-34" class="g2_401" />
<path d="M515.5,372.5l0,-34" class="g2_401" />
<path d="M887.5,372.5l0,-34" class="g2_401" />
<path fill-rule="evenodd" d="M124,516l33,0l0,-142l-33,0l0,142Z" class="g3_401" />
<g clip-path="url(#c16_401)">
<path fill-rule="evenodd" d="M132,516l24,0l0,-142l-24,0l0,142Z" class="g3_401" />
</g>
<path fill-rule="evenodd" d="M159,408l259,0l0,-34l-259,0l0,34Z" class="g3_401" />
<g clip-path="url(#c17_401)">
<path fill-rule="evenodd" d="M166,398l245,0l0,-24l-245,0l0,24Z" class="g3_401" />
</g>
<path fill-rule="evenodd" d="M420,408l95,0l0,-34l-95,0l0,34Z" class="g3_401" />
<g clip-path="url(#c18_401)">
<path fill-rule="evenodd" d="M427,398l80,0l0,-24l-80,0l0,24Z" class="g3_401" />
</g>
<path fill-rule="evenodd" d="M516,408l371,0l0,-34l-371,0l0,34Z" class="g3_401" />
<g clip-path="url(#c19_401)">
<path fill-rule="evenodd" d="M524,398l356,0l0,-24l-356,0l0,24Z" class="g3_401" />
</g>
<path d="M46.5,374.5l0,-2" class="g2_401" />
<path d="M81.5,374.5l0,-2" class="g2_401" />
<path d="M123.5,374.5l0,-2" class="g2_401" />
<path d="M124.5,374.5l33,0" class="g2_401" />
<path d="M157.5,374.5l0,-2" class="g2_401" />
<path d="M159.5,374.5l259,0" class="g2_401" />
<path d="M418.5,374.5l0,-2" class="g2_401" />
<path d="M420.5,374.5l95,0" class="g2_401" />
<path d="M515.5,374.5l0,-2" class="g2_401" />
<path d="M516.5,374.5l371,0" class="g2_401" />
<path d="M887.5,374.5l0,-2" class="g2_401" />
<path d="M46.5,408.5l0,-34" class="g2_401" />
<path d="M81.5,408.5l0,-34" class="g2_401" />
<path d="M123.5,408.5l0,-34" class="g2_401" />
<path d="M157.5,408.5l0,-34" class="g2_401" />
<path d="M418.5,408.5l0,-34" class="g2_401" />
<path d="M515.5,408.5l0,-34" class="g2_401" />
<path d="M887.5,408.5l0,-34" class="g2_401" />
<path fill-rule="evenodd" d="M159,443l259,0l0,-33l-259,0l0,33Z" class="g3_401" />
<path fill-rule="evenodd" d="M166,434l245,0l0,-24l-245,0l0,24Z" class="g3_401" />
<path fill-rule="evenodd" d="M420,443l95,0l0,-33l-95,0l0,33Z" class="g3_401" />
<path fill-rule="evenodd" d="M427,434l80,0l0,-24l-80,0l0,24Z" class="g3_401" />
<path fill-rule="evenodd" d="M516,443l371,0l0,-33l-371,0l0,33Z" class="g3_401" />
<path fill-rule="evenodd" d="M524,434l356,0l0,-24l-356,0l0,24Z" class="g3_401" />
<path d="M46.5,410.5l0,-2" class="g2_401" />
<path d="M81.5,410.5l0,-2" class="g2_401" />
<path d="M123.5,410.5l0,-2" class="g2_401" />
<path d="M157.5,410.5l0,-2" class="g2_401" />
<path d="M159.5,410.5l259,0" class="g2_401" />
<path d="M418.5,410.5l0,-2" class="g2_401" />
<path d="M420.5,410.5l95,0" class="g2_401" />
<path d="M515.5,410.5l0,-2" class="g2_401" />
<path d="M516.5,410.5l371,0" class="g2_401" />
<path d="M887.5,410.5l0,-2" class="g2_401" />
<path d="M46.5,443.5l0,-33" class="g2_401" />
<path d="M81.5,443.5l0,-33" class="g2_401" />
<path d="M123.5,443.5l0,-33" class="g2_401" />
<path d="M157.5,443.5l0,-33" class="g2_401" />
<path d="M418.5,443.5l0,-33" class="g2_401" />
<path d="M515.5,443.5l0,-33" class="g2_401" />
<path d="M887.5,443.5l0,-33" class="g2_401" />
<path fill-rule="evenodd" d="M159,475l259,0l0,-31l-259,0l0,31Z" class="g3_401" />
<path fill-rule="evenodd" d="M166,468l245,0l0,-24l-245,0l0,24Z" class="g3_401" />
<path fill-rule="evenodd" d="M420,475l95,0l0,-31l-95,0l0,31Z" class="g3_401" />
<path fill-rule="evenodd" d="M427,468l80,0l0,-24l-80,0l0,24Z" class="g3_401" />
<path fill-rule="evenodd" d="M516,475l371,0l0,-31l-371,0l0,31Z" class="g3_401" />
<path fill-rule="evenodd" d="M524,468l356,0l0,-24l-356,0l0,24Z" class="g3_401" />
<path d="M46.5,444.5l0,-1" class="g2_401" />
<path d="M81.5,444.5l0,-1" class="g2_401" />
<path d="M123.5,444.5l0,-1" class="g2_401" />
<path d="M157.5,444.5l0,-1" class="g2_401" />
<path d="M159.5,444.5l259,0" class="g2_401" />
<path d="M418.5,444.5l0,-1" class="g2_401" />
<path d="M420.5,444.5l95,0" class="g2_401" />
<path d="M515.5,444.5l0,-1" class="g2_401" />
<path d="M516.5,444.5l371,0" class="g2_401" />
<path d="M887.5,444.5l0,-1" class="g2_401" />
<path d="M46.5,475.5l0,-31" class="g2_401" />
<path d="M81.5,475.5l0,-31" class="g2_401" />
<path d="M123.5,475.5l0,-31" class="g2_401" />
<path d="M157.5,475.5l0,-31" class="g2_401" />
<path d="M418.5,475.5l0,-31" class="g2_401" />
<path d="M515.5,475.5l0,-31" class="g2_401" />
<path d="M887.5,475.5l0,-31" class="g2_401" />
<path fill-rule="evenodd" d="M159,516l259,0l0,-40l-259,0l0,40Z" class="g3_401" />
<path fill-rule="evenodd" d="M166,500l245,0l0,-24l-245,0l0,24Z" class="g3_401" />
<path fill-rule="evenodd" d="M420,516l95,0l0,-40l-95,0l0,40Z" class="g3_401" />
<path fill-rule="evenodd" d="M427,500l80,0l0,-24l-80,0l0,24Z" class="g3_401" />
<path fill-rule="evenodd" d="M516,516l371,0l0,-40l-371,0l0,40Z" class="g3_401" />
<path fill-rule="evenodd" d="M524,500l356,0l0,-24l-356,0l0,24Z" class="g3_401" />
<path d="M46.5,476.5l0,-1" class="g2_401" />
<path d="M81.5,476.5l0,-1" class="g2_401" />
<path d="M123.5,476.5l0,-1" class="g2_401" />
<path d="M157.5,476.5l0,-1" class="g2_401" />
<path d="M159.5,476.5l259,0" class="g2_401" />
<path d="M418.5,476.5l0,-1" class="g2_401" />
<path d="M420.5,476.5l95,0" class="g2_401" />
<path d="M515.5,476.5l0,-1" class="g2_401" />
<path d="M516.5,476.5l371,0" class="g2_401" />
<path d="M887.5,476.5l0,-1" class="g2_401" />
<path d="M46.5,516.5l0,-40" class="g2_401" />
<path d="M81.5,516.5l0,-40" class="g2_401" />
<path d="M123.5,516.5l0,-40" class="g2_401" />
<path d="M157.5,516.5l0,-40" class="g2_401" />
<path d="M418.5,516.5l0,-40" class="g2_401" />
<path d="M515.5,516.5l0,-40" class="g2_401" />
<path d="M887.5,516.5l0,-40" class="g2_401" />
<path fill-rule="evenodd" d="M124,941l33,0l0,-423l-33,0l0,423Z" class="g3_401" />
<g clip-path="url(#c20_401)">
<path fill-rule="evenodd" d="M132,941l24,0l0,-423l-24,0l0,423Z" class="g3_401" />
</g>
<path fill-rule="evenodd" d="M159,941l39,0l0,-423l-39,0l0,423Z" class="g3_401" />
<g clip-path="url(#c21_401)">
<path fill-rule="evenodd" d="M166,941l24,0l0,-423l-24,0l0,423Z" class="g3_401" />
</g>
<path fill-rule="evenodd" d="M200,545l218,0l0,-27l-218,0l0,27Z" class="g3_401" />
<path fill-rule="evenodd" d="M207,542l204,0l0,-24l-204,0l0,24Z" class="g3_401" />
<path fill-rule="evenodd" d="M420,545l95,0l0,-27l-95,0l0,27Z" class="g3_401" />
<path fill-rule="evenodd" d="M427,542l80,0l0,-24l-80,0l0,24Z" class="g3_401" />
<path fill-rule="evenodd" d="M516,545l371,0l0,-27l-371,0l0,27Z" class="g3_401" />
<path fill-rule="evenodd" d="M524,542l356,0l0,-24l-356,0l0,24Z" class="g3_401" />
<path d="M46.5,518.5l0,-2" class="g2_401" />
<path d="M81.5,518.5l0,-2" class="g2_401" />
<path d="M123.5,518.5l0,-2" class="g2_401" />
<path d="M124.5,518.5l33,0" class="g2_401" />
<path d="M157.5,518.5l0,-2" class="g2_401" />
<path d="M159.5,518.5l39,0" class="g2_401" />
<path d="M198.5,518.5l0,-2" class="g2_401" />
<path d="M200.5,518.5l218,0" class="g2_401" />
<path d="M418.5,518.5l0,-2" class="g2_401" />
<path d="M420.5,518.5l95,0" class="g2_401" />
<path d="M515.5,518.5l0,-2" class="g2_401" />
<path d="M516.5,518.5l371,0" class="g2_401" />
<path d="M887.5,518.5l0,-2" class="g2_401" />
<path d="M46.5,545.5l0,-27" class="g2_401" />
<path d="M81.5,545.5l0,-27" class="g2_401" />
<path d="M123.5,545.5l0,-27" class="g2_401" />
<path d="M157.5,545.5l0,-27" class="g2_401" />
<path d="M198.5,545.5l0,-27" class="g2_401" />
<path d="M418.5,545.5l0,-27" class="g2_401" />
<path d="M515.5,545.5l0,-27" class="g2_401" />
<path d="M887.5,545.5l0,-27" class="g2_401" />
<path fill-rule="evenodd" d="M200,586l218,0l0,-39l-218,0l0,39Z" class="g3_401" />
<path fill-rule="evenodd" d="M207,570l204,0l0,-23l-204,0l0,23Z" class="g3_401" />
<path fill-rule="evenodd" d="M420,586l95,0l0,-39l-95,0l0,39Z" class="g3_401" />
<path fill-rule="evenodd" d="M427,570l80,0l0,-23l-80,0l0,23Z" class="g3_401" />
<path fill-rule="evenodd" d="M516,586l371,0l0,-39l-371,0l0,39Z" class="g3_401" />
<path fill-rule="evenodd" d="M524,570l356,0l0,-23l-356,0l0,23Z" class="g3_401" />
<path d="M46.5,546.5l0,-1" class="g2_401" />
<path d="M81.5,546.5l0,-1" class="g2_401" />
<path d="M123.5,546.5l0,-1" class="g2_401" />
<path d="M157.5,546.5l0,-1" class="g2_401" />
<path d="M198.5,546.5l0,-1" class="g2_401" />
<path d="M200.5,546.5l218,0" class="g2_401" />
<path d="M418.5,546.5l0,-1" class="g2_401" />
<path d="M420.5,546.5l95,0" class="g2_401" />
<path d="M515.5,546.5l0,-1" class="g2_401" />
<path d="M516.5,546.5l371,0" class="g2_401" />
<path d="M887.5,546.5l0,-1" class="g2_401" />
<path d="M46.5,586.5l0,-40" class="g2_401" />
<path d="M81.5,586.5l0,-40" class="g2_401" />
<path d="M123.5,586.5l0,-40" class="g2_401" />
<path d="M157.5,586.5l0,-40" class="g2_401" />
<path d="M198.5,586.5l0,-40" class="g2_401" />
<path d="M418.5,586.5l0,-40" class="g2_401" />
<path d="M515.5,586.5l0,-40" class="g2_401" />
<path d="M887.5,586.5l0,-40" class="g2_401" />
<path fill-rule="evenodd" d="M200,659l218,0l0,-71l-218,0l0,71Z" class="g3_401" />
<path fill-rule="evenodd" d="M207,612l204,0l0,-24l-204,0l0,24Z" class="g3_401" />
<path fill-rule="evenodd" d="M420,659l95,0l0,-71l-95,0l0,71Z" class="g3_401" />
<path fill-rule="evenodd" d="M427,612l80,0l0,-24l-80,0l0,24Z" class="g3_401" />
<path fill-rule="evenodd" d="M516,659l371,0l0,-71l-371,0l0,71Z" class="g3_401" />
<path fill-rule="evenodd" d="M524,612l356,0l0,-24l-356,0l0,24Z" class="g3_401" />
<path fill-rule="evenodd" d="M524,636l356,0l0,-24l-356,0l0,24Z" class="g3_401" />
<path fill-rule="evenodd" d="M524,659l356,0l0,-23l-356,0l0,23Z" class="g3_401" />
<path d="M46.5,588.5l0,-2" class="g2_401" />
<path d="M81.5,588.5l0,-2" class="g2_401" />
<path d="M123.5,588.5l0,-2" class="g2_401" />
<path d="M157.5,588.5l0,-2" class="g2_401" />
<path d="M198.5,588.5l0,-2" class="g2_401" />
<path d="M200.5,588.5l218,0" class="g2_401" />
<path d="M418.5,588.5l0,-2" class="g2_401" />
<path d="M420.5,588.5l95,0" class="g2_401" />
<path d="M515.5,588.5l0,-2" class="g2_401" />
<path d="M516.5,588.5l371,0" class="g2_401" />
<path d="M887.5,588.5l0,-2" class="g2_401" />
<path d="M46.5,659.5l0,-71" class="g2_401" />
<path d="M81.5,659.5l0,-71" class="g2_401" />
<path d="M123.5,659.5l0,-71" class="g2_401" />
<path d="M157.5,659.5l0,-71" class="g2_401" />
<path d="M198.5,659.5l0,-71" class="g2_401" />
<path d="M418.5,659.5l0,-71" class="g2_401" />
<path d="M515.5,659.5l0,-71" class="g2_401" />
<path d="M887.5,659.5l0,-71" class="g2_401" />
<path fill-rule="evenodd" d="M200,732l218,0l0,-71l-218,0l0,71Z" class="g3_401" />
<g clip-path="url(#c22_401)">
<path fill-rule="evenodd" d="M207,685l204,0l0,-24l-204,0l0,24Z" class="g3_401" />
</g>
<path fill-rule="evenodd" d="M420,732l95,0l0,-71l-95,0l0,71Z" class="g3_401" />
<g clip-path="url(#c23_401)">
<path fill-rule="evenodd" d="M427,685l80,0l0,-24l-80,0l0,24Z" class="g3_401" />
</g>
<path fill-rule="evenodd" d="M516,732l371,0l0,-71l-371,0l0,71Z" class="g3_401" />
<g clip-path="url(#c24_401)">
<path fill-rule="evenodd" d="M524,685l356,0l0,-24l-356,0l0,24Z" class="g3_401" />
</g>
<path fill-rule="evenodd" d="M524,709l356,0l0,-24l-356,0l0,24Z" class="g3_401" />
<path fill-rule="evenodd" d="M524,732l356,0l0,-23l-356,0l0,23Z" class="g3_401" />
<path d="M46.5,661.5l0,-2" class="g2_401" />
<path d="M81.5,661.5l0,-2" class="g2_401" />
<path d="M123.5,661.5l0,-2" class="g2_401" />
<path d="M157.5,661.5l0,-2" class="g2_401" />
<path d="M198.5,661.5l0,-2" class="g2_401" />
<path d="M200.5,661.5l218,0" class="g2_401" />
<path d="M418.5,661.5l0,-2" class="g2_401" />
<path d="M420.5,661.5l95,0" class="g2_401" />
<path d="M515.5,661.5l0,-2" class="g2_401" />
<path d="M516.5,661.5l371,0" class="g2_401" />
<path d="M887.5,661.5l0,-2" class="g2_401" />
<path d="M46.5,732.5l0,-71" class="g2_401" />
<path d="M81.5,732.5l0,-71" class="g2_401" />
<path d="M123.5,732.5l0,-71" class="g2_401" />
<path d="M157.5,732.5l0,-71" class="g2_401" />
<path d="M198.5,732.5l0,-71" class="g2_401" />
<path d="M418.5,732.5l0,-71" class="g2_401" />
<path d="M515.5,732.5l0,-71" class="g2_401" />
<path d="M887.5,732.5l0,-71" class="g2_401" />
<path fill-rule="evenodd" d="M200,772l218,0l0,-38l-218,0l0,38Z" class="g3_401" />
<g clip-path="url(#c25_401)">
<path fill-rule="evenodd" d="M207,758l204,0l0,-24l-204,0l0,24Z" class="g3_401" />
</g>
<path fill-rule="evenodd" d="M420,772l95,0l0,-38l-95,0l0,38Z" class="g3_401" />
<g clip-path="url(#c26_401)">
<path fill-rule="evenodd" d="M427,758l80,0l0,-24l-80,0l0,24Z" class="g3_401" />
</g>
<path fill-rule="evenodd" d="M516,772l371,0l0,-38l-371,0l0,38Z" class="g3_401" />
<g clip-path="url(#c27_401)">
<path fill-rule="evenodd" d="M524,758l356,0l0,-24l-356,0l0,24Z" class="g3_401" />
</g>
<path d="M46.5,734.5l0,-2" class="g2_401" />
<path d="M81.5,734.5l0,-2" class="g2_401" />
<path d="M123.5,734.5l0,-2" class="g2_401" />
<path d="M157.5,734.5l0,-2" class="g2_401" />
<path d="M198.5,734.5l0,-2" class="g2_401" />
<path d="M200.5,734.5l218,0" class="g2_401" />
<path d="M418.5,734.5l0,-2" class="g2_401" />
<path d="M420.5,734.5l95,0" class="g2_401" />
<path d="M515.5,734.5l0,-2" class="g2_401" />
<path d="M516.5,734.5l371,0" class="g2_401" />
<path d="M887.5,734.5l0,-2" class="g2_401" />
<path d="M46.5,772.5l0,-38" class="g2_401" />
<path d="M81.5,772.5l0,-38" class="g2_401" />
<path d="M123.5,772.5l0,-38" class="g2_401" />
<path d="M157.5,772.5l0,-38" class="g2_401" />
<path d="M198.5,772.5l0,-38" class="g2_401" />
<path d="M418.5,772.5l0,-38" class="g2_401" />
<path d="M515.5,772.5l0,-38" class="g2_401" />
<path d="M887.5,772.5l0,-38" class="g2_401" />
<path fill-rule="evenodd" d="M200,941l218,0l0,-167l-218,0l0,167Z" class="g3_401" />
<g clip-path="url(#c28_401)">
<path fill-rule="evenodd" d="M207,798l204,0l0,-24l-204,0l0,24Z" class="g3_401" />
</g>
<path fill-rule="evenodd" d="M420,941l95,0l0,-167l-95,0l0,167Z" class="g3_401" />
<g clip-path="url(#c29_401)">
<path fill-rule="evenodd" d="M427,798l80,0l0,-24l-80,0l0,24Z" class="g3_401" />
</g>
<path fill-rule="evenodd" d="M516,941l371,0l0,-167l-371,0l0,167Z" class="g3_401" />
<g clip-path="url(#c30_401)">
<path fill-rule="evenodd" d="M524,798l356,0l0,-24l-356,0l0,24Z" class="g3_401" />
</g>
<path fill-rule="evenodd" d="M524,821l356,0l0,-23l-356,0l0,23Z" class="g3_401" />
<path fill-rule="evenodd" d="M524,845l356,0l0,-24l-356,0l0,24Z" class="g3_401" />
<path fill-rule="evenodd" d="M524,869l356,0l0,-24l-356,0l0,24Z" class="g3_401" />
<path fill-rule="evenodd" d="M524,893l356,0l0,-24l-356,0l0,24Z" class="g3_401" />
<path fill-rule="evenodd" d="M524,917l356,0l0,-24l-356,0l0,24Z" class="g3_401" />
<g clip-path="url(#c30_401)">
<path fill-rule="evenodd" d="M524,941l356,0l0,-24l-356,0l0,24Z" class="g3_401" />
</g>
<path d="M46.5,774.5l0,-2" class="g2_401" />
<path d="M81.5,774.5l0,-2" class="g2_401" />
<path d="M123.5,774.5l0,-2" class="g2_401" />
<path d="M157.5,774.5l0,-2" class="g2_401" />
<path d="M198.5,774.5l0,-2" class="g2_401" />
<path d="M200.5,774.5l218,0" class="g2_401" />
<path d="M418.5,774.5l0,-2" class="g2_401" />
<path d="M420.5,774.5l95,0" class="g2_401" />
<path d="M515.5,774.5l0,-2" class="g2_401" />
<path d="M516.5,774.5l371,0" class="g2_401" />
<path d="M887.5,774.5l0,-2" class="g2_401" />
<path d="M46.5,941.5l0,-167" class="g2_401" />
<path d="M46.5,942.5l0,-1" class="g2_401" />
<path d="M46.5,942.5l0,-1" class="g2_401" />
<path d="M47.5,942.5l34,0" class="g2_401" />
<path d="M81.5,941.5l0,-167" class="g2_401" />
<path d="M81.5,942.5l0,-1" class="g2_401" />
<path d="M83.5,942.5l40,0" class="g2_401" />
<path d="M123.5,941.5l0,-167" class="g2_401" />
<path d="M123.5,942.5l0,-1" class="g2_401" />
<path d="M124.5,942.5l33,0" class="g2_401" />
<path d="M157.5,941.5l0,-167" class="g2_401" />
<path d="M157.5,942.5l0,-1" class="g2_401" />
<path d="M159.5,942.5l39,0" class="g2_401" />
<path d="M198.5,941.5l0,-167" class="g2_401" />
<path d="M198.5,942.5l0,-1" class="g2_401" />
<path d="M200.5,942.5l218,0" class="g2_401" />
<path d="M418.5,941.5l0,-167" class="g2_401" />
<path d="M418.5,942.5l0,-1" class="g2_401" />
<path d="M420.5,942.5l95,0" class="g2_401" />
<path d="M515.5,941.5l0,-167" class="g2_401" />
<path d="M515.5,942.5l0,-1" class="g2_401" />
<path d="M516.5,942.5l371,0" class="g2_401" />
<path d="M887.5,941.5l0,-167" class="g2_401" />
<path d="M887.5,942.5l0,-1" class="g2_401" />
<path d="M887.5,942.5l0,-1" class="g2_401" />
</svg>