<?xml version="1.0" encoding="UTF-8" standalone="no"?>
<!DOCTYPE svg PUBLIC "-//W3C//DTD SVG 1.1//EN"
"http://www.w3.org/Graphics/SVG/1.1/DTD/svg11.dtd">
<svg version="1.1" xmlns="http://www.w3.org/2000/svg" xmlns:xlink="http://www.w3.org/1999/xlink">
<defs>
<clipPath id="c0_99"><path d="M47.5,278.5l0,-167l840,0l0,167Z" /></clipPath>
<clipPath id="c1_99"><path d="M47.5,758.5l0,-406l840,0l0,406Z" /></clipPath>
<clipPath id="c2_99"><path d="M47.5,917.5l0,-24l102,0l0,24Z" /></clipPath>
<clipPath id="c3_99"><path d="M151.5,917.5l0,-24l736,0l0,24Z" /></clipPath>
<clipPath id="c4_99"><path d="M47.5,942.5l0,-24l102,0l0,24Z" /></clipPath>
<clipPath id="c5_99"><path d="M151.5,942.5l0,-24l736,0l0,24Z" /></clipPath>
<clipPath id="c6_99"><path d="M47.5,968.5l0,-24l102,0l0,24Z" /></clipPath>
<clipPath id="c7_99"><path d="M151.5,968.5l0,-24l736,0l0,24Z" /></clipPath>
<clipPath id="c8_99"><path d="M47.5,993.5l0,-24l102,0l0,24Z" /></clipPath>
<clipPath id="c9_99"><path d="M151.5,993.5l0,-24l736,0l0,24Z" /></clipPath>
<clipPath id="c10_99"><path d="M47.5,1018.5l0,-23l102,0l0,23Z" /></clipPath>
<clipPath id="c11_99"><path d="M151.5,1018.5l0,-23l736,0l0,23Z" /></clipPath>
<clipPath id="c12_99"><path d="M47.5,1044.5l0,-24l102,0l0,24Z" /></clipPath>
<clipPath id="c13_99"><path d="M151.5,1044.5l0,-24l736,0l0,24Z" /></clipPath>
<clipPath id="c14_99"><path d="M47.5,1069.5l0,-24l102,0l0,24Z" /></clipPath>
<clipPath id="c15_99"><path d="M151.5,1069.5l0,-24l736,0l0,24Z" /></clipPath>
<clipPath id="c16_99"><path d="M47.5,1095.5l0,-24l102,0l0,24Z" /></clipPath>
<clipPath id="c17_99"><path d="M151.5,1095.5l0,-24l736,0l0,24Z" /></clipPath>
<style type="text/css"><![CDATA[
.g2_99{
fill: none;
stroke: #7E7E7E;
stroke-width: 1;
stroke-linecap: butt;
stroke-linejoin: miter;
}
.g3_99{
fill: none;
stroke: #0000FF;
stroke-width: 1;
stroke-linecap: butt;
stroke-linejoin: miter;
}
.g4_99{
fill: #DBE5F1;
}
.g1_99{
fill: #F1F1F1;
}
]]></style>
</defs>
<path fill-rule="evenodd" d="M47,278l840,0l0,-167L47,111l0,167Z" class="g1_99" />
<g clip-path="url(#c0_99)">
<path fill-rule="evenodd" d="M55,135l825,0l0,-24L55,111l0,24Z" class="g1_99" />
</g>
<path fill-rule="evenodd" d="M55,159l825,0l0,-24L55,135l0,24Z" class="g1_99" />
<path fill-rule="evenodd" d="M55,182l825,0l0,-23L55,159l0,23Z" class="g1_99" />
<path fill-rule="evenodd" d="M55,206l825,0l0,-24L55,182l0,24Z" class="g1_99" />
<path fill-rule="evenodd" d="M55,230l825,0l0,-24L55,206l0,24Z" class="g1_99" />
<path fill-rule="evenodd" d="M55,254l825,0l0,-24L55,230l0,24Z" class="g1_99" />
<path fill-rule="evenodd" d="M55,278l825,0l0,-24L55,254l0,24Z" class="g1_99" />
<path d="M46.5,111.5l0,-1" class="g2_99" />
<path d="M46.5,111.5l0,-1" class="g2_99" />
<path d="M47.5,111.5l840,0" class="g2_99" />
<path d="M887.5,111.5l0,-1" class="g2_99" />
<path d="M887.5,111.5l0,-1" class="g2_99" />
<path d="M46.5,278.5l0,-167" class="g2_99" />
<path d="M46.5,279.5l0,-1" class="g2_99" />
<path d="M46.5,279.5l0,-1" class="g2_99" />
<path d="M47.5,279.5l840,0" class="g2_99" />
<path d="M887.5,278.5l0,-167" class="g2_99" />
<path d="M887.5,279.5l0,-1" class="g2_99" />
<path d="M887.5,279.5l0,-1" class="g2_99" />
<path fill-rule="evenodd" d="M47,758l840,0l0,-406L47,352l0,406Z" class="g1_99" />
<g clip-path="url(#c1_99)">
<path fill-rule="evenodd" d="M55,376l825,0l0,-24L55,352l0,24Z" class="g1_99" />
</g>
<path fill-rule="evenodd" d="M55,400l825,0l0,-24L55,376l0,24Z" class="g1_99" />
<path fill-rule="evenodd" d="M55,424l825,0l0,-24L55,400l0,24Z" class="g1_99" />
<path fill-rule="evenodd" d="M55,448l825,0l0,-24L55,424l0,24Z" class="g1_99" />
<path fill-rule="evenodd" d="M55,472l825,0l0,-24L55,448l0,24Z" class="g1_99" />
<path fill-rule="evenodd" d="M55,495l825,0l0,-23L55,472l0,23Z" class="g1_99" />
<path fill-rule="evenodd" d="M55,519l825,0l0,-24L55,495l0,24Z" class="g1_99" />
<path fill-rule="evenodd" d="M55,543l825,0l0,-24L55,519l0,24Z" class="g1_99" />
<path fill-rule="evenodd" d="M55,567l825,0l0,-24L55,543l0,24Z" class="g1_99" />
<path fill-rule="evenodd" d="M55,591l825,0l0,-24L55,567l0,24Z" class="g1_99" />
<path fill-rule="evenodd" d="M55,615l825,0l0,-24L55,591l0,24Z" class="g1_99" />
<path fill-rule="evenodd" d="M55,638l825,0l0,-23L55,615l0,23Z" class="g1_99" />
<path fill-rule="evenodd" d="M55,662l825,0l0,-24L55,638l0,24Z" class="g1_99" />
<path fill-rule="evenodd" d="M55,686l825,0l0,-24L55,662l0,24Z" class="g1_99" />
<path fill-rule="evenodd" d="M55,710l825,0l0,-24L55,686l0,24Z" class="g1_99" />
<path fill-rule="evenodd" d="M55,734l825,0l0,-24L55,710l0,24Z" class="g1_99" />
<path fill-rule="evenodd" d="M55,758l825,0l0,-24L55,734l0,24Z" class="g1_99" />
<path d="M46.5,352.5l0,-1" class="g2_99" />
<path d="M46.5,352.5l0,-1" class="g2_99" />
<path d="M47.5,352.5l840,0" class="g2_99" />
<path d="M887.5,352.5l0,-1" class="g2_99" />
<path d="M887.5,352.5l0,-1" class="g2_99" />
<path d="M46.5,758.5l0,-406" class="g2_99" />
<path d="M46.5,759.5l0,-1" class="g2_99" />
<path d="M46.5,759.5l0,-1" class="g2_99" />
<path d="M47.5,759.5l840,0" class="g2_99" />
<path d="M887.5,758.5l0,-406" class="g2_99" />
<path d="M887.5,759.5l0,-1" class="g2_99" />
<path d="M887.5,759.5l0,-1" class="g2_99" />
<path d="M371.5,863.5l163,0" class="g3_99" />
<path fill-rule="evenodd" d="M47,917l102,0l0,-24L47,893l0,24Z" class="g4_99" />
<g clip-path="url(#c2_99)">
<path fill-rule="evenodd" d="M55,917l87,0l0,-24l-87,0l0,24Z" class="g4_99" />
</g>
<path fill-rule="evenodd" d="M151,917l736,0l0,-24l-736,0l0,24Z" class="g4_99" />
<g clip-path="url(#c3_99)">
<path fill-rule="evenodd" d="M158,917l722,0l0,-24l-722,0l0,24Z" class="g4_99" />
</g>
<path d="M46.5,893.5l0,-1" class="g2_99" />
<path d="M46.5,893.5l0,-1" class="g2_99" />
<path d="M47.5,893.5l102,0" class="g2_99" />
<path d="M149.5,893.5l0,-1" class="g2_99" />
<path d="M151.5,893.5l736,0" class="g2_99" />
<path d="M887.5,893.5l0,-1" class="g2_99" />
<path d="M887.5,893.5l0,-1" class="g2_99" />
<path d="M46.5,917.5l0,-24" class="g2_99" />
<path d="M149.5,917.5l0,-24" class="g2_99" />
<path d="M887.5,917.5l0,-24" class="g2_99" />
<path fill-rule="evenodd" d="M47,942l102,0l0,-24L47,918l0,24Z" class="g1_99" />
<g clip-path="url(#c4_99)">
<path fill-rule="evenodd" d="M55,942l87,0l0,-24l-87,0l0,24Z" class="g1_99" />
</g>
<path fill-rule="evenodd" d="M151,942l736,0l0,-24l-736,0l0,24Z" class="g1_99" />
<g clip-path="url(#c5_99)">
<path fill-rule="evenodd" d="M158,942l722,0l0,-24l-722,0l0,24Z" class="g1_99" />
</g>
<path d="M46.5,918.5l0,-1" class="g2_99" />
<path d="M47.5,918.5l102,0" class="g2_99" />
<path d="M149.5,918.5l0,-1" class="g2_99" />
<path d="M151.5,918.5l736,0" class="g2_99" />
<path d="M887.5,918.5l0,-1" class="g2_99" />
<path d="M46.5,942.5l0,-24" class="g2_99" />
<path d="M149.5,942.5l0,-24" class="g2_99" />
<path d="M887.5,942.5l0,-24" class="g2_99" />
<path fill-rule="evenodd" d="M47,968l102,0l0,-24L47,944l0,24Z" class="g1_99" />
<g clip-path="url(#c6_99)">
<path fill-rule="evenodd" d="M55,968l87,0l0,-24l-87,0l0,24Z" class="g1_99" />
</g>
<path fill-rule="evenodd" d="M151,968l736,0l0,-24l-736,0l0,24Z" class="g1_99" />
<g clip-path="url(#c7_99)">
<path fill-rule="evenodd" d="M158,968l722,0l0,-24l-722,0l0,24Z" class="g1_99" />
</g>
<path d="M46.5,944.5l0,-2" class="g2_99" />
<path d="M47.5,944.5l102,0" class="g2_99" />
<path d="M149.5,944.5l0,-2" class="g2_99" />
<path d="M151.5,944.5l736,0" class="g2_99" />
<path d="M887.5,944.5l0,-2" class="g2_99" />
<path d="M46.5,968.5l0,-24" class="g2_99" />
<path d="M149.5,968.5l0,-24" class="g2_99" />
<path d="M887.5,968.5l0,-24" class="g2_99" />
<path fill-rule="evenodd" d="M47,993l102,0l0,-24L47,969l0,24Z" class="g1_99" />
<g clip-path="url(#c8_99)">
<path fill-rule="evenodd" d="M55,993l87,0l0,-24l-87,0l0,24Z" class="g1_99" />
</g>
<path fill-rule="evenodd" d="M151,993l736,0l0,-24l-736,0l0,24Z" class="g1_99" />
<g clip-path="url(#c9_99)">
<path fill-rule="evenodd" d="M158,993l722,0l0,-24l-722,0l0,24Z" class="g1_99" />
</g>
<path d="M46.5,969.5l0,-1" class="g2_99" />
<path d="M47.5,969.5l102,0" class="g2_99" />
<path d="M149.5,969.5l0,-1" class="g2_99" />
<path d="M151.5,969.5l736,0" class="g2_99" />
<path d="M887.5,969.5l0,-1" class="g2_99" />
<path d="M46.5,993.5l0,-24" class="g2_99" />
<path d="M149.5,993.5l0,-24" class="g2_99" />
<path d="M887.5,993.5l0,-24" class="g2_99" />
<path fill-rule="evenodd" d="M47,1018l102,0l0,-23L47,995l0,23Z" class="g1_99" />
<g clip-path="url(#c10_99)">
<path fill-rule="evenodd" d="M55,1018l87,0l0,-23l-87,0l0,23Z" class="g1_99" />
</g>
<path fill-rule="evenodd" d="M151,1018l736,0l0,-23l-736,0l0,23Z" class="g1_99" />
<g clip-path="url(#c11_99)">
<path fill-rule="evenodd" d="M158,1018l722,0l0,-23l-722,0l0,23Z" class="g1_99" />
</g>
<path d="M46.5,995.5l0,-2" class="g2_99" />
<path d="M47.5,995.5l102,0" class="g2_99" />
<path d="M149.5,995.5l0,-2" class="g2_99" />
<path d="M151.5,995.5l736,0" class="g2_99" />
<path d="M887.5,995.5l0,-2" class="g2_99" />
<path d="M46.5,1018.5l0,-23" class="g2_99" />
<path d="M149.5,1018.5l0,-23" class="g2_99" />
<path d="M887.5,1018.5l0,-23" class="g2_99" />
<path fill-rule="evenodd" d="M47,1044l102,0l0,-24l-102,0l0,24Z" class="g1_99" />
<g clip-path="url(#c12_99)">
<path fill-rule="evenodd" d="M55,1044l87,0l0,-24l-87,0l0,24Z" class="g1_99" />
</g>
<path fill-rule="evenodd" d="M151,1044l736,0l0,-24l-736,0l0,24Z" class="g1_99" />
<g clip-path="url(#c13_99)">
<path fill-rule="evenodd" d="M158,1044l722,0l0,-24l-722,0l0,24Z" class="g1_99" />
</g>
<path d="M46.5,1020.5l0,-2" class="g2_99" />
<path d="M47.5,1020.5l102,0" class="g2_99" />
<path d="M149.5,1020.5l0,-2" class="g2_99" />
<path d="M151.5,1020.5l736,0" class="g2_99" />
<path d="M887.5,1020.5l0,-2" class="g2_99" />
<path d="M46.5,1044.5l0,-24" class="g2_99" />
<path d="M149.5,1044.5l0,-24" class="g2_99" />
<path d="M887.5,1044.5l0,-24" class="g2_99" />
<path fill-rule="evenodd" d="M47,1069l102,0l0,-24l-102,0l0,24Z" class="g1_99" />
<g clip-path="url(#c14_99)">
<path fill-rule="evenodd" d="M55,1069l87,0l0,-24l-87,0l0,24Z" class="g1_99" />
</g>
<path fill-rule="evenodd" d="M151,1069l736,0l0,-24l-736,0l0,24Z" class="g1_99" />
<g clip-path="url(#c15_99)">
<path fill-rule="evenodd" d="M158,1069l722,0l0,-24l-722,0l0,24Z" class="g1_99" />
</g>
<path d="M46.5,1045.5l0,-1" class="g2_99" />
<path d="M47.5,1045.5l102,0" class="g2_99" />
<path d="M149.5,1045.5l0,-1" class="g2_99" />
<path d="M151.5,1045.5l736,0" class="g2_99" />
<path d="M887.5,1045.5l0,-1" class="g2_99" />
<path d="M46.5,1069.5l0,-24" class="g2_99" />
<path d="M149.5,1069.5l0,-24" class="g2_99" />
<path d="M887.5,1069.5l0,-24" class="g2_99" />
<path fill-rule="evenodd" d="M47,1095l102,0l0,-24l-102,0l0,24Z" class="g1_99" />
<g clip-path="url(#c16_99)">
<path fill-rule="evenodd" d="M55,1095l87,0l0,-24l-87,0l0,24Z" class="g1_99" />
</g>
<path fill-rule="evenodd" d="M151,1095l736,0l0,-24l-736,0l0,24Z" class="g1_99" />
<g clip-path="url(#c17_99)">
<path fill-rule="evenodd" d="M158,1095l722,0l0,-24l-722,0l0,24Z" class="g1_99" />
</g>
<path d="M46.5,1071.5l0,-2" class="g2_99" />
<path d="M47.5,1071.5l102,0" class="g2_99" />
<path d="M149.5,1071.5l0,-2" class="g2_99" />
<path d="M151.5,1071.5l736,0" class="g2_99" />
<path d="M887.5,1071.5l0,-2" class="g2_99" />
<path d="M46.5,1095.5l0,-24" class="g2_99" />
<path d="M46.5,1096.5l0,-1" class="g2_99" />
<path d="M46.5,1096.5l0,-1" class="g2_99" />
<path d="M47.5,1096.5l102,0" class="g2_99" />
<path d="M149.5,1095.5l0,-24" class="g2_99" />
<path d="M149.5,1096.5l0,-1" class="g2_99" />
<path d="M151.5,1096.5l736,0" class="g2_99" />
<path d="M887.5,1095.5l0,-24" class="g2_99" />
<path d="M887.5,1096.5l0,-1" class="g2_99" />
<path d="M887.5,1096.5l0,-1" class="g2_99" />
</svg>