<?xml version="1.0" encoding="UTF-8" standalone="no"?>
<!DOCTYPE svg PUBLIC "-//W3C//DTD SVG 1.1//EN"
"http://www.w3.org/Graphics/SVG/1.1/DTD/svg11.dtd">
<svg version="1.1" xmlns="http://www.w3.org/2000/svg" xmlns:xlink="http://www.w3.org/1999/xlink">
<defs>
<clipPath id="c0_51"><path d="M47.5,198.5l0,-24l246,0l0,24Z" /></clipPath>
<clipPath id="c1_51"><path d="M295.5,198.5l0,-24l87,0l0,24Z" /></clipPath>
<clipPath id="c2_51"><path d="M383.5,198.5l0,-24l73,0l0,24Z" /></clipPath>
<clipPath id="c3_51"><path d="M457.5,198.5l0,-24l430,0l0,24Z" /></clipPath>
<clipPath id="c4_51"><path d="M47.5,1094.5l0,-894l48,0l0,894Z" /></clipPath>
<clipPath id="c5_51"><path d="M96.5,271.5l0,-71l197,0l0,71Z" /></clipPath>
<clipPath id="c6_51"><path d="M295.5,271.5l0,-71l87,0l0,71Z" /></clipPath>
<clipPath id="c7_51"><path d="M383.5,271.5l0,-71l73,0l0,71Z" /></clipPath>
<clipPath id="c8_51"><path d="M457.5,271.5l0,-71l430,0l0,71Z" /></clipPath>
<clipPath id="c9_51"><path d="M96.5,297.5l0,-24l197,0l0,24Z" /></clipPath>
<clipPath id="c10_51"><path d="M295.5,297.5l0,-24l87,0l0,24Z" /></clipPath>
<clipPath id="c11_51"><path d="M383.5,297.5l0,-24l73,0l0,24Z" /></clipPath>
<clipPath id="c12_51"><path d="M457.5,297.5l0,-24l430,0l0,24Z" /></clipPath>
<clipPath id="c13_51"><path d="M96.5,370.5l0,-72l197,0l0,72Z" /></clipPath>
<clipPath id="c14_51"><path d="M295.5,370.5l0,-72l87,0l0,72Z" /></clipPath>
<clipPath id="c15_51"><path d="M383.5,370.5l0,-72l73,0l0,72Z" /></clipPath>
<clipPath id="c16_51"><path d="M457.5,370.5l0,-72l430,0l0,72Z" /></clipPath>
<clipPath id="c17_51"><path d="M96.5,443.5l0,-72l197,0l0,72Z" /></clipPath>
<clipPath id="c18_51"><path d="M295.5,443.5l0,-72l87,0l0,72Z" /></clipPath>
<clipPath id="c19_51"><path d="M383.5,443.5l0,-72l73,0l0,72Z" /></clipPath>
<clipPath id="c20_51"><path d="M457.5,443.5l0,-72l430,0l0,72Z" /></clipPath>
<clipPath id="c21_51"><path d="M96.5,564.5l0,-120l197,0l0,120Z" /></clipPath>
<clipPath id="c22_51"><path d="M295.5,564.5l0,-120l87,0l0,120Z" /></clipPath>
<clipPath id="c23_51"><path d="M383.5,564.5l0,-120l73,0l0,120Z" /></clipPath>
<clipPath id="c24_51"><path d="M457.5,564.5l0,-120l430,0l0,120Z" /></clipPath>
<clipPath id="c25_51"><path d="M96.5,948.5l0,-48l197,0l0,48Z" /></clipPath>
<clipPath id="c26_51"><path d="M295.5,948.5l0,-48l87,0l0,48Z" /></clipPath>
<clipPath id="c27_51"><path d="M383.5,948.5l0,-48l73,0l0,48Z" /></clipPath>
<clipPath id="c28_51"><path d="M457.5,948.5l0,-48l430,0l0,48Z" /></clipPath>
<clipPath id="c29_51"><path d="M457.5,997.5l0,-48l430,0l0,48Z" /></clipPath>
<clipPath id="c30_51"><path d="M457.5,1094.5l0,-95l430,0l0,95Z" /></clipPath>
<style type="text/css"><![CDATA[
.g2_51{
fill: none;
stroke: #7E7E7E;
stroke-width: 1;
stroke-linecap: butt;
stroke-linejoin: miter;
}
.g3_51{
fill: #F1F1F1;
}
.g1_51{
fill: #DBE5F1;
}
]]></style>
</defs>
<path fill-rule="evenodd" d="M47,198l246,0l0,-24L47,174l0,24Z" class="g1_51" />
<g clip-path="url(#c0_51)">
<path fill-rule="evenodd" d="M55,198l231,0l0,-24L55,174l0,24Z" class="g1_51" />
</g>
<path fill-rule="evenodd" d="M295,198l87,0l0,-24l-87,0l0,24Z" class="g1_51" />
<g clip-path="url(#c1_51)">
<path fill-rule="evenodd" d="M302,198l72,0l0,-24l-72,0l0,24Z" class="g1_51" />
</g>
<path fill-rule="evenodd" d="M383,198l73,0l0,-24l-73,0l0,24Z" class="g1_51" />
<g clip-path="url(#c2_51)">
<path fill-rule="evenodd" d="M391,198l57,0l0,-24l-57,0l0,24Z" class="g1_51" />
</g>
<path fill-rule="evenodd" d="M457,198l430,0l0,-24l-430,0l0,24Z" class="g1_51" />
<g clip-path="url(#c3_51)">
<path fill-rule="evenodd" d="M465,198l415,0l0,-24l-415,0l0,24Z" class="g1_51" />
</g>
<path d="M46.5,174.5l0,-1" class="g2_51" />
<path d="M46.5,174.5l0,-1" class="g2_51" />
<path d="M47.5,174.5l246,0" class="g2_51" />
<path d="M293.5,174.5l0,-1" class="g2_51" />
<path d="M295.5,174.5l87,0" class="g2_51" />
<path d="M382.5,174.5l0,-1" class="g2_51" />
<path d="M383.5,174.5l73,0" class="g2_51" />
<path d="M456.5,174.5l0,-1" class="g2_51" />
<path d="M457.5,174.5l430,0" class="g2_51" />
<path d="M887.5,174.5l0,-1" class="g2_51" />
<path d="M887.5,174.5l0,-1" class="g2_51" />
<path d="M46.5,198.5l0,-24" class="g2_51" />
<path d="M293.5,198.5l0,-24" class="g2_51" />
<path d="M382.5,198.5l0,-24" class="g2_51" />
<path d="M456.5,198.5l0,-24" class="g2_51" />
<path d="M887.5,198.5l0,-24" class="g2_51" />
<path fill-rule="evenodd" d="M47,1094l48,0L95,200l-48,0l0,894Z" class="g3_51" />
<g clip-path="url(#c4_51)">
<path fill-rule="evenodd" d="M55,1094l23,0L78,200l-23,0l0,894Z" class="g3_51" />
</g>
<path fill-rule="evenodd" d="M96,271l197,0l0,-71L96,200l0,71Z" class="g3_51" />
<g clip-path="url(#c5_51)">
<path fill-rule="evenodd" d="M104,224l182,0l0,-24l-182,0l0,24Z" class="g3_51" />
</g>
<path fill-rule="evenodd" d="M295,271l87,0l0,-71l-87,0l0,71Z" class="g3_51" />
<g clip-path="url(#c6_51)">
<path fill-rule="evenodd" d="M302,224l72,0l0,-24l-72,0l0,24Z" class="g3_51" />
</g>
<path fill-rule="evenodd" d="M383,271l73,0l0,-71l-73,0l0,71Z" class="g3_51" />
<g clip-path="url(#c7_51)">
<path fill-rule="evenodd" d="M391,224l57,0l0,-24l-57,0l0,24Z" class="g3_51" />
</g>
<path fill-rule="evenodd" d="M457,271l430,0l0,-71l-430,0l0,71Z" class="g3_51" />
<g clip-path="url(#c8_51)">
<path fill-rule="evenodd" d="M465,224l415,0l0,-24l-415,0l0,24Z" class="g3_51" />
</g>
<path fill-rule="evenodd" d="M465,247l415,0l0,-23l-415,0l0,23Z" class="g3_51" />
<path fill-rule="evenodd" d="M465,271l415,0l0,-24l-415,0l0,24Z" class="g3_51" />
<path d="M46.5,200.5l0,-2" class="g2_51" />
<path d="M47.5,200.5l48,0" class="g2_51" />
<path d="M95.5,200.5l0,-2" class="g2_51" />
<path d="M96.5,200.5l197,0" class="g2_51" />
<path d="M293.5,200.5l0,-2" class="g2_51" />
<path d="M295.5,200.5l87,0" class="g2_51" />
<path d="M382.5,200.5l0,-2" class="g2_51" />
<path d="M383.5,200.5l73,0" class="g2_51" />
<path d="M456.5,200.5l0,-2" class="g2_51" />
<path d="M457.5,200.5l430,0" class="g2_51" />
<path d="M887.5,200.5l0,-2" class="g2_51" />
<path d="M46.5,271.5l0,-71" class="g2_51" />
<path d="M95.5,271.5l0,-71" class="g2_51" />
<path d="M293.5,271.5l0,-71" class="g2_51" />
<path d="M382.5,271.5l0,-71" class="g2_51" />
<path d="M456.5,271.5l0,-71" class="g2_51" />
<path d="M887.5,271.5l0,-71" class="g2_51" />
<path fill-rule="evenodd" d="M96,297l197,0l0,-24L96,273l0,24Z" class="g3_51" />
<g clip-path="url(#c9_51)">
<path fill-rule="evenodd" d="M104,297l182,0l0,-24l-182,0l0,24Z" class="g3_51" />
</g>
<path fill-rule="evenodd" d="M295,297l87,0l0,-24l-87,0l0,24Z" class="g3_51" />
<g clip-path="url(#c10_51)">
<path fill-rule="evenodd" d="M302,297l72,0l0,-24l-72,0l0,24Z" class="g3_51" />
</g>
<path fill-rule="evenodd" d="M383,297l73,0l0,-24l-73,0l0,24Z" class="g3_51" />
<g clip-path="url(#c11_51)">
<path fill-rule="evenodd" d="M391,297l57,0l0,-24l-57,0l0,24Z" class="g3_51" />
</g>
<path fill-rule="evenodd" d="M457,297l430,0l0,-24l-430,0l0,24Z" class="g3_51" />
<g clip-path="url(#c12_51)">
<path fill-rule="evenodd" d="M465,297l415,0l0,-24l-415,0l0,24Z" class="g3_51" />
</g>
<path d="M46.5,273.5l0,-2" class="g2_51" />
<path d="M95.5,273.5l0,-2" class="g2_51" />
<path d="M96.5,273.5l197,0" class="g2_51" />
<path d="M293.5,273.5l0,-2" class="g2_51" />
<path d="M295.5,273.5l87,0" class="g2_51" />
<path d="M382.5,273.5l0,-2" class="g2_51" />
<path d="M383.5,273.5l73,0" class="g2_51" />
<path d="M456.5,273.5l0,-2" class="g2_51" />
<path d="M457.5,273.5l430,0" class="g2_51" />
<path d="M887.5,273.5l0,-2" class="g2_51" />
<path d="M46.5,297.5l0,-24" class="g2_51" />
<path d="M95.5,297.5l0,-24" class="g2_51" />
<path d="M293.5,297.5l0,-24" class="g2_51" />
<path d="M382.5,297.5l0,-24" class="g2_51" />
<path d="M456.5,297.5l0,-24" class="g2_51" />
<path d="M887.5,297.5l0,-24" class="g2_51" />
<path fill-rule="evenodd" d="M96,370l197,0l0,-72L96,298l0,72Z" class="g3_51" />
<g clip-path="url(#c13_51)">
<path fill-rule="evenodd" d="M104,322l182,0l0,-24l-182,0l0,24Z" class="g3_51" />
</g>
<path fill-rule="evenodd" d="M295,370l87,0l0,-72l-87,0l0,72Z" class="g3_51" />
<g clip-path="url(#c14_51)">
<path fill-rule="evenodd" d="M302,322l72,0l0,-24l-72,0l0,24Z" class="g3_51" />
</g>
<path fill-rule="evenodd" d="M383,370l73,0l0,-72l-73,0l0,72Z" class="g3_51" />
<g clip-path="url(#c15_51)">
<path fill-rule="evenodd" d="M391,322l57,0l0,-24l-57,0l0,24Z" class="g3_51" />
</g>
<path fill-rule="evenodd" d="M457,370l430,0l0,-72l-430,0l0,72Z" class="g3_51" />
<g clip-path="url(#c16_51)">
<path fill-rule="evenodd" d="M465,322l415,0l0,-24l-415,0l0,24Z" class="g3_51" />
</g>
<path fill-rule="evenodd" d="M465,346l415,0l0,-24l-415,0l0,24Z" class="g3_51" />
<path fill-rule="evenodd" d="M465,370l415,0l0,-24l-415,0l0,24Z" class="g3_51" />
<path d="M46.5,298.5l0,-1" class="g2_51" />
<path d="M95.5,298.5l0,-1" class="g2_51" />
<path d="M96.5,298.5l197,0" class="g2_51" />
<path d="M293.5,298.5l0,-1" class="g2_51" />
<path d="M295.5,298.5l87,0" class="g2_51" />
<path d="M382.5,298.5l0,-1" class="g2_51" />
<path d="M383.5,298.5l73,0" class="g2_51" />
<path d="M456.5,298.5l0,-1" class="g2_51" />
<path d="M457.5,298.5l430,0" class="g2_51" />
<path d="M887.5,298.5l0,-1" class="g2_51" />
<path d="M46.5,370.5l0,-72" class="g2_51" />
<path d="M95.5,370.5l0,-72" class="g2_51" />
<path d="M293.5,370.5l0,-72" class="g2_51" />
<path d="M382.5,370.5l0,-72" class="g2_51" />
<path d="M456.5,370.5l0,-72" class="g2_51" />
<path d="M887.5,370.5l0,-72" class="g2_51" />
<path fill-rule="evenodd" d="M96,443l197,0l0,-72L96,371l0,72Z" class="g3_51" />
<g clip-path="url(#c17_51)">
<path fill-rule="evenodd" d="M104,395l182,0l0,-24l-182,0l0,24Z" class="g3_51" />
</g>
<path fill-rule="evenodd" d="M295,443l87,0l0,-72l-87,0l0,72Z" class="g3_51" />
<g clip-path="url(#c18_51)">
<path fill-rule="evenodd" d="M302,395l72,0l0,-24l-72,0l0,24Z" class="g3_51" />
</g>
<path fill-rule="evenodd" d="M383,443l73,0l0,-72l-73,0l0,72Z" class="g3_51" />
<g clip-path="url(#c19_51)">
<path fill-rule="evenodd" d="M391,395l57,0l0,-24l-57,0l0,24Z" class="g3_51" />
</g>
<path fill-rule="evenodd" d="M457,443l430,0l0,-72l-430,0l0,72Z" class="g3_51" />
<g clip-path="url(#c20_51)">
<path fill-rule="evenodd" d="M465,395l415,0l0,-24l-415,0l0,24Z" class="g3_51" />
</g>
<path fill-rule="evenodd" d="M465,419l415,0l0,-24l-415,0l0,24Z" class="g3_51" />
<path fill-rule="evenodd" d="M465,443l415,0l0,-24l-415,0l0,24Z" class="g3_51" />
<path d="M46.5,371.5l0,-1" class="g2_51" />
<path d="M95.5,371.5l0,-1" class="g2_51" />
<path d="M96.5,371.5l197,0" class="g2_51" />
<path d="M293.5,371.5l0,-1" class="g2_51" />
<path d="M295.5,371.5l87,0" class="g2_51" />
<path d="M382.5,371.5l0,-1" class="g2_51" />
<path d="M383.5,371.5l73,0" class="g2_51" />
<path d="M456.5,371.5l0,-1" class="g2_51" />
<path d="M457.5,371.5l430,0" class="g2_51" />
<path d="M887.5,371.5l0,-1" class="g2_51" />
<path d="M46.5,443.5l0,-72" class="g2_51" />
<path d="M95.5,443.5l0,-72" class="g2_51" />
<path d="M293.5,443.5l0,-72" class="g2_51" />
<path d="M382.5,443.5l0,-72" class="g2_51" />
<path d="M456.5,443.5l0,-72" class="g2_51" />
<path d="M887.5,443.5l0,-72" class="g2_51" />
<path fill-rule="evenodd" d="M96,564l197,0l0,-120L96,444l0,120Z" class="g3_51" />
<g clip-path="url(#c21_51)">
<path fill-rule="evenodd" d="M104,468l182,0l0,-24l-182,0l0,24Z" class="g3_51" />
</g>
<path fill-rule="evenodd" d="M295,564l87,0l0,-120l-87,0l0,120Z" class="g3_51" />
<g clip-path="url(#c22_51)">
<path fill-rule="evenodd" d="M302,468l72,0l0,-24l-72,0l0,24Z" class="g3_51" />
</g>
<path fill-rule="evenodd" d="M383,564l73,0l0,-120l-73,0l0,120Z" class="g3_51" />
<g clip-path="url(#c23_51)">
<path fill-rule="evenodd" d="M391,468l57,0l0,-24l-57,0l0,24Z" class="g3_51" />
</g>
<path fill-rule="evenodd" d="M457,564l430,0l0,-120l-430,0l0,120Z" class="g3_51" />
<g clip-path="url(#c24_51)">
<path fill-rule="evenodd" d="M465,468l415,0l0,-24l-415,0l0,24Z" class="g3_51" />
</g>
<path fill-rule="evenodd" d="M465,492l415,0l0,-24l-415,0l0,24Z" class="g3_51" />
<path fill-rule="evenodd" d="M465,516l415,0l0,-24l-415,0l0,24Z" class="g3_51" />
<path fill-rule="evenodd" d="M465,540l415,0l0,-24l-415,0l0,24Z" class="g3_51" />
<path fill-rule="evenodd" d="M465,564l415,0l0,-24l-415,0l0,24Z" class="g3_51" />
<path d="M46.5,444.5l0,-1" class="g2_51" />
<path d="M95.5,444.5l0,-1" class="g2_51" />
<path d="M96.5,444.5l197,0" class="g2_51" />
<path d="M293.5,444.5l0,-1" class="g2_51" />
<path d="M295.5,444.5l87,0" class="g2_51" />
<path d="M382.5,444.5l0,-1" class="g2_51" />
<path d="M383.5,444.5l73,0" class="g2_51" />
<path d="M456.5,444.5l0,-1" class="g2_51" />
<path d="M457.5,444.5l430,0" class="g2_51" />
<path d="M887.5,444.5l0,-1" class="g2_51" />
<path d="M46.5,564.5l0,-120" class="g2_51" />
<path d="M95.5,564.5l0,-120" class="g2_51" />
<path d="M293.5,564.5l0,-120" class="g2_51" />
<path d="M382.5,564.5l0,-120" class="g2_51" />
<path d="M456.5,564.5l0,-120" class="g2_51" />
<path d="M887.5,564.5l0,-120" class="g2_51" />
<path fill-rule="evenodd" d="M96,899l197,0l0,-334L96,565l0,334Z" class="g3_51" />
<path fill-rule="evenodd" d="M104,589l182,0l0,-24l-182,0l0,24Z" class="g3_51" />
<path fill-rule="evenodd" d="M295,899l87,0l0,-334l-87,0l0,334Z" class="g3_51" />
<path fill-rule="evenodd" d="M302,589l72,0l0,-24l-72,0l0,24Z" class="g3_51" />
<path fill-rule="evenodd" d="M383,899l73,0l0,-334l-73,0l0,334Z" class="g3_51" />
<path fill-rule="evenodd" d="M391,589l57,0l0,-24l-57,0l0,24Z" class="g3_51" />
<path fill-rule="evenodd" d="M457,899l430,0l0,-334l-430,0l0,334Z" class="g3_51" />
<path fill-rule="evenodd" d="M465,589l415,0l0,-24l-415,0l0,24Z" class="g3_51" />
<path fill-rule="evenodd" d="M465,613l415,0l0,-24l-415,0l0,24Z" class="g3_51" />
<path fill-rule="evenodd" d="M465,636l415,0l0,-23l-415,0l0,23Z" class="g3_51" />
<path fill-rule="evenodd" d="M465,660l415,0l0,-24l-415,0l0,24Z" class="g3_51" />
<path fill-rule="evenodd" d="M465,684l415,0l0,-24l-415,0l0,24Z" class="g3_51" />
<path fill-rule="evenodd" d="M465,708l415,0l0,-24l-415,0l0,24Z" class="g3_51" />
<path fill-rule="evenodd" d="M465,732l415,0l0,-24l-415,0l0,24Z" class="g3_51" />
<path fill-rule="evenodd" d="M465,756l415,0l0,-24l-415,0l0,24Z" class="g3_51" />
<path fill-rule="evenodd" d="M465,780l415,0l0,-24l-415,0l0,24Z" class="g3_51" />
<path fill-rule="evenodd" d="M465,803l415,0l0,-23l-415,0l0,23Z" class="g3_51" />
<path fill-rule="evenodd" d="M465,827l415,0l0,-24l-415,0l0,24Z" class="g3_51" />
<path fill-rule="evenodd" d="M465,851l415,0l0,-24l-415,0l0,24Z" class="g3_51" />
<path fill-rule="evenodd" d="M465,875l415,0l0,-24l-415,0l0,24Z" class="g3_51" />
<path fill-rule="evenodd" d="M465,899l415,0l0,-24l-415,0l0,24Z" class="g3_51" />
<path d="M46.5,565.5l0,-1" class="g2_51" />
<path d="M95.5,565.5l0,-1" class="g2_51" />
<path d="M96.5,565.5l197,0" class="g2_51" />
<path d="M293.5,565.5l0,-1" class="g2_51" />
<path d="M295.5,565.5l87,0" class="g2_51" />
<path d="M382.5,565.5l0,-1" class="g2_51" />
<path d="M383.5,565.5l73,0" class="g2_51" />
<path d="M456.5,565.5l0,-1" class="g2_51" />
<path d="M457.5,565.5l430,0" class="g2_51" />
<path d="M887.5,565.5l0,-1" class="g2_51" />
<path d="M46.5,899.5l0,-334" class="g2_51" />
<path d="M95.5,899.5l0,-334" class="g2_51" />
<path d="M293.5,899.5l0,-334" class="g2_51" />
<path d="M382.5,899.5l0,-334" class="g2_51" />
<path d="M456.5,899.5l0,-334" class="g2_51" />
<path d="M887.5,899.5l0,-334" class="g2_51" />
<path fill-rule="evenodd" d="M96,948l197,0l0,-48L96,900l0,48Z" class="g3_51" />
<g clip-path="url(#c25_51)">
<path fill-rule="evenodd" d="M104,924l182,0l0,-24l-182,0l0,24Z" class="g3_51" />
</g>
<path fill-rule="evenodd" d="M295,948l87,0l0,-48l-87,0l0,48Z" class="g3_51" />
<g clip-path="url(#c26_51)">
<path fill-rule="evenodd" d="M302,924l72,0l0,-24l-72,0l0,24Z" class="g3_51" />
</g>
<path fill-rule="evenodd" d="M383,948l73,0l0,-48l-73,0l0,48Z" class="g3_51" />
<g clip-path="url(#c27_51)">
<path fill-rule="evenodd" d="M391,924l57,0l0,-24l-57,0l0,24Z" class="g3_51" />
</g>
<path fill-rule="evenodd" d="M457,948l430,0l0,-48l-430,0l0,48Z" class="g3_51" />
<g clip-path="url(#c28_51)">
<path fill-rule="evenodd" d="M465,924l415,0l0,-24l-415,0l0,24Z" class="g3_51" />
<path fill-rule="evenodd" d="M465,948l415,0l0,-24l-415,0l0,24Z" class="g3_51" />
</g>
<path d="M46.5,900.5l0,-1" class="g2_51" />
<path d="M95.5,900.5l0,-1" class="g2_51" />
<path d="M96.5,900.5l197,0" class="g2_51" />
<path d="M293.5,900.5l0,-1" class="g2_51" />
<path d="M295.5,900.5l87,0" class="g2_51" />
<path d="M382.5,900.5l0,-1" class="g2_51" />
<path d="M383.5,900.5l73,0" class="g2_51" />
<path d="M456.5,900.5l0,-1" class="g2_51" />
<path d="M457.5,900.5l430,0" class="g2_51" />
<path d="M887.5,900.5l0,-1" class="g2_51" />
<path d="M46.5,948.5l0,-48" class="g2_51" />
<path d="M95.5,948.5l0,-48" class="g2_51" />
<path d="M293.5,948.5l0,-48" class="g2_51" />
<path d="M382.5,948.5l0,-48" class="g2_51" />
<path d="M456.5,948.5l0,-48" class="g2_51" />
<path d="M887.5,948.5l0,-48" class="g2_51" />
<path fill-rule="evenodd" d="M96,997l197,0l0,-47L96,950l0,47Z" class="g3_51" />
<path fill-rule="evenodd" d="M104,973l182,0l0,-23l-182,0l0,23Z" class="g3_51" />
<path fill-rule="evenodd" d="M295,997l87,0l0,-47l-87,0l0,47Z" class="g3_51" />
<path fill-rule="evenodd" d="M302,973l72,0l0,-23l-72,0l0,23Z" class="g3_51" />
<path fill-rule="evenodd" d="M383,997l73,0l0,-47l-73,0l0,47Z" class="g3_51" />
<path fill-rule="evenodd" d="M391,973l57,0l0,-23l-57,0l0,23Z" class="g3_51" />
<path fill-rule="evenodd" d="M457,997l430,0l0,-47l-430,0l0,47Z" class="g3_51" />
<path fill-rule="evenodd" d="M465,973l415,0l0,-23l-415,0l0,23Z" class="g3_51" />
<g clip-path="url(#c29_51)">
<path fill-rule="evenodd" d="M465,997l415,0l0,-24l-415,0l0,24Z" class="g3_51" />
</g>
<path d="M46.5,949.5l0,-1" class="g2_51" />
<path d="M95.5,949.5l0,-1" class="g2_51" />
<path d="M96.5,949.5l197,0" class="g2_51" />
<path d="M293.5,949.5l0,-1" class="g2_51" />
<path d="M295.5,949.5l87,0" class="g2_51" />
<path d="M382.5,949.5l0,-1" class="g2_51" />
<path d="M383.5,949.5l73,0" class="g2_51" />
<path d="M456.5,949.5l0,-1" class="g2_51" />
<path d="M457.5,949.5l430,0" class="g2_51" />
<path d="M887.5,949.5l0,-1" class="g2_51" />
<path d="M46.5,997.5l0,-48" class="g2_51" />
<path d="M95.5,997.5l0,-48" class="g2_51" />
<path d="M293.5,997.5l0,-48" class="g2_51" />
<path d="M382.5,997.5l0,-48" class="g2_51" />
<path d="M456.5,997.5l0,-48" class="g2_51" />
<path d="M887.5,997.5l0,-48" class="g2_51" />
<path fill-rule="evenodd" d="M96,1094l197,0l0,-95L96,999l0,95Z" class="g3_51" />
<path fill-rule="evenodd" d="M104,1022l182,0l0,-23l-182,0l0,23Z" class="g3_51" />
<path fill-rule="evenodd" d="M295,1094l87,0l0,-95l-87,0l0,95Z" class="g3_51" />
<path fill-rule="evenodd" d="M302,1022l72,0l0,-23l-72,0l0,23Z" class="g3_51" />
<path fill-rule="evenodd" d="M383,1094l73,0l0,-95l-73,0l0,95Z" class="g3_51" />
<path fill-rule="evenodd" d="M391,1022l57,0l0,-23l-57,0l0,23Z" class="g3_51" />
<path fill-rule="evenodd" d="M457,1094l430,0l0,-95l-430,0l0,95Z" class="g3_51" />
<path fill-rule="evenodd" d="M465,1022l415,0l0,-23l-415,0l0,23Z" class="g3_51" />
<path fill-rule="evenodd" d="M465,1046l415,0l0,-24l-415,0l0,24Z" class="g3_51" />
<path fill-rule="evenodd" d="M465,1070l415,0l0,-24l-415,0l0,24Z" class="g3_51" />
<g clip-path="url(#c30_51)">
<path fill-rule="evenodd" d="M465,1094l415,0l0,-24l-415,0l0,24Z" class="g3_51" />
</g>
<path d="M46.5,999.5l0,-2" class="g2_51" />
<path d="M95.5,999.5l0,-2" class="g2_51" />
<path d="M96.5,999.5l197,0" class="g2_51" />
<path d="M293.5,999.5l0,-2" class="g2_51" />
<path d="M295.5,999.5l87,0" class="g2_51" />
<path d="M382.5,999.5l0,-2" class="g2_51" />
<path d="M383.5,999.5l73,0" class="g2_51" />
<path d="M456.5,999.5l0,-2" class="g2_51" />
<path d="M457.5,999.5l430,0" class="g2_51" />
<path d="M887.5,999.5l0,-2" class="g2_51" />
<path d="M46.5,1094.5l0,-95" class="g2_51" />
<path d="M46.5,1095.5l0,-1" class="g2_51" />
<path d="M46.5,1095.5l0,-1" class="g2_51" />
<path d="M47.5,1095.5l48,0" class="g2_51" />
<path d="M95.5,1094.5l0,-95" class="g2_51" />
<path d="M95.5,1095.5l0,-1" class="g2_51" />
<path d="M96.5,1095.5l197,0" class="g2_51" />
<path d="M293.5,1094.5l0,-95" class="g2_51" />
<path d="M293.5,1095.5l0,-1" class="g2_51" />
<path d="M295.5,1095.5l87,0" class="g2_51" />
<path d="M382.5,1094.5l0,-95" class="g2_51" />
<path d="M382.5,1095.5l0,-1" class="g2_51" />
<path d="M383.5,1095.5l73,0" class="g2_51" />
<path d="M456.5,1094.5l0,-95" class="g2_51" />
<path d="M456.5,1095.5l0,-1" class="g2_51" />
<path d="M457.5,1095.5l430,0" class="g2_51" />
<path d="M887.5,1094.5l0,-95" class="g2_51" />
<path d="M887.5,1095.5l0,-1" class="g2_51" />
<path d="M887.5,1095.5l0,-1" class="g2_51" />
</svg>