<?xml version="1.0" encoding="UTF-8" standalone="no"?>
<!DOCTYPE svg PUBLIC "-//W3C//DTD SVG 1.1//EN"
"http://www.w3.org/Graphics/SVG/1.1/DTD/svg11.dtd">
<svg version="1.1" xmlns="http://www.w3.org/2000/svg" xmlns:xlink="http://www.w3.org/1999/xlink">
<defs>
<clipPath id="c0_54"><path d="M533.5,183.5l0,-72l354,0l0,72Z" /></clipPath>
<clipPath id="c1_54"><path d="M88.5,470.5l0,-286l348,0l0,286Z" /></clipPath>
<clipPath id="c2_54"><path d="M438.5,470.5l0,-286l94,0l0,286Z" /></clipPath>
<clipPath id="c3_54"><path d="M533.5,470.5l0,-286l354,0l0,286Z" /></clipPath>
<clipPath id="c4_54"><path d="M88.5,568.5l0,-71l348,0l0,71Z" /></clipPath>
<clipPath id="c5_54"><path d="M438.5,568.5l0,-71l94,0l0,71Z" /></clipPath>
<clipPath id="c6_54"><path d="M533.5,568.5l0,-71l354,0l0,71Z" /></clipPath>
<clipPath id="c7_54"><path d="M47.5,691.5l0,-24l840,0l0,24Z" /></clipPath>
<clipPath id="c8_54"><path d="M47.5,1075.5l0,-357l840,0l0,357Z" /></clipPath>
<style type="text/css"><![CDATA[
.g2_54{
fill: none;
stroke: #7E7E7E;
stroke-width: 1;
stroke-linecap: butt;
stroke-linejoin: miter;
}
.g1_54{
fill: #F1F1F1;
}
]]></style>
</defs>
<path fill-rule="evenodd" d="M47,182l39,0l0,-71l-39,0l0,71Z" class="g1_54" />
<path fill-rule="evenodd" d="M88,182l348,0l0,-71L88,111l0,71Z" class="g1_54" />
<path fill-rule="evenodd" d="M438,182l94,0l0,-71l-94,0l0,71Z" class="g1_54" />
<path fill-rule="evenodd" d="M533,182l354,0l0,-71l-354,0l0,71Z" class="g1_54" />
<g clip-path="url(#c0_54)">
<path fill-rule="evenodd" d="M541,135l339,0l0,-24l-339,0l0,24Z" class="g1_54" />
</g>
<path fill-rule="evenodd" d="M541,159l339,0l0,-24l-339,0l0,24Z" class="g1_54" />
<path fill-rule="evenodd" d="M541,182l339,0l0,-23l-339,0l0,23Z" class="g1_54" />
<path d="M46.5,111.5l0,-1" class="g2_54" />
<path d="M46.5,111.5l0,-1" class="g2_54" />
<path d="M47.5,111.5l39,0" class="g2_54" />
<path d="M86.5,111.5l0,-1" class="g2_54" />
<path d="M88.5,111.5l349,0" class="g2_54" />
<path d="M437.5,111.5l0,-1" class="g2_54" />
<path d="M438.5,111.5l94,0" class="g2_54" />
<path d="M532.5,111.5l0,-1" class="g2_54" />
<path d="M533.5,111.5l354,0" class="g2_54" />
<path d="M887.5,111.5l0,-1" class="g2_54" />
<path d="M887.5,111.5l0,-1" class="g2_54" />
<path d="M46.5,182.5l0,-71" class="g2_54" />
<path d="M86.5,182.5l0,-71" class="g2_54" />
<path d="M437.5,182.5l0,-71" class="g2_54" />
<path d="M532.5,182.5l0,-71" class="g2_54" />
<path d="M887.5,182.5l0,-71" class="g2_54" />
<path fill-rule="evenodd" d="M47,470l39,0L86,183l-39,0l0,287Z" class="g1_54" />
<path fill-rule="evenodd" d="M88,470l348,0l0,-286L88,184l0,286Z" class="g1_54" />
<g clip-path="url(#c1_54)">
<path fill-rule="evenodd" d="M95,208l334,0l0,-24L95,184l0,24Z" class="g1_54" />
</g>
<path fill-rule="evenodd" d="M438,470l94,0l0,-286l-94,0l0,286Z" class="g1_54" />
<g clip-path="url(#c2_54)">
<path fill-rule="evenodd" d="M445,208l79,0l0,-24l-79,0l0,24Z" class="g1_54" />
</g>
<path fill-rule="evenodd" d="M533,470l354,0l0,-286l-354,0l0,286Z" class="g1_54" />
<g clip-path="url(#c3_54)">
<path fill-rule="evenodd" d="M541,208l339,0l0,-24l-339,0l0,24Z" class="g1_54" />
</g>
<path fill-rule="evenodd" d="M541,232l339,0l0,-24l-339,0l0,24Z" class="g1_54" />
<path fill-rule="evenodd" d="M541,256l339,0l0,-24l-339,0l0,24Z" class="g1_54" />
<path fill-rule="evenodd" d="M541,279l339,0l0,-23l-339,0l0,23Z" class="g1_54" />
<path fill-rule="evenodd" d="M541,303l339,0l0,-24l-339,0l0,24Z" class="g1_54" />
<path fill-rule="evenodd" d="M541,327l339,0l0,-24l-339,0l0,24Z" class="g1_54" />
<path fill-rule="evenodd" d="M541,351l339,0l0,-24l-339,0l0,24Z" class="g1_54" />
<path fill-rule="evenodd" d="M541,375l339,0l0,-24l-339,0l0,24Z" class="g1_54" />
<path fill-rule="evenodd" d="M541,399l339,0l0,-24l-339,0l0,24Z" class="g1_54" />
<path fill-rule="evenodd" d="M541,423l339,0l0,-24l-339,0l0,24Z" class="g1_54" />
<path fill-rule="evenodd" d="M541,446l339,0l0,-23l-339,0l0,23Z" class="g1_54" />
<path fill-rule="evenodd" d="M541,470l339,0l0,-24l-339,0l0,24Z" class="g1_54" />
<path d="M46.5,184.5l0,-2" class="g2_54" />
<path d="M86.5,184.5l0,-2" class="g2_54" />
<path d="M88.5,184.5l349,0" class="g2_54" />
<path d="M437.5,184.5l0,-2" class="g2_54" />
<path d="M438.5,184.5l94,0" class="g2_54" />
<path d="M532.5,184.5l0,-2" class="g2_54" />
<path d="M533.5,184.5l354,0" class="g2_54" />
<path d="M887.5,184.5l0,-2" class="g2_54" />
<path d="M46.5,470.5l0,-286" class="g2_54" />
<path d="M86.5,470.5l0,-286" class="g2_54" />
<path d="M437.5,470.5l0,-286" class="g2_54" />
<path d="M532.5,470.5l0,-286" class="g2_54" />
<path d="M887.5,470.5l0,-286" class="g2_54" />
<path fill-rule="evenodd" d="M47,495l39,0l0,-25l-39,0l0,25Z" class="g1_54" />
<path fill-rule="evenodd" d="M88,495l348,0l0,-23L88,472l0,23Z" class="g1_54" />
<path fill-rule="evenodd" d="M95,495l334,0l0,-23L95,472l0,23Z" class="g1_54" />
<path fill-rule="evenodd" d="M438,495l94,0l0,-23l-94,0l0,23Z" class="g1_54" />
<path fill-rule="evenodd" d="M445,495l79,0l0,-23l-79,0l0,23Z" class="g1_54" />
<path fill-rule="evenodd" d="M533,495l354,0l0,-23l-354,0l0,23Z" class="g1_54" />
<path fill-rule="evenodd" d="M541,495l339,0l0,-23l-339,0l0,23Z" class="g1_54" />
<path d="M46.5,472.5l0,-2" class="g2_54" />
<path d="M86.5,472.5l0,-2" class="g2_54" />
<path d="M88.5,472.5l349,0" class="g2_54" />
<path d="M437.5,472.5l0,-2" class="g2_54" />
<path d="M438.5,472.5l94,0" class="g2_54" />
<path d="M532.5,472.5l0,-2" class="g2_54" />
<path d="M533.5,472.5l354,0" class="g2_54" />
<path d="M887.5,472.5l0,-2" class="g2_54" />
<path d="M46.5,495.5l0,-23" class="g2_54" />
<path d="M86.5,495.5l0,-23" class="g2_54" />
<path d="M437.5,495.5l0,-23" class="g2_54" />
<path d="M532.5,495.5l0,-23" class="g2_54" />
<path d="M887.5,495.5l0,-23" class="g2_54" />
<path fill-rule="evenodd" d="M47,568l39,0l0,-73l-39,0l0,73Z" class="g1_54" />
<path fill-rule="evenodd" d="M88,568l348,0l0,-71L88,497l0,71Z" class="g1_54" />
<g clip-path="url(#c4_54)">
<path fill-rule="evenodd" d="M95,521l334,0l0,-24L95,497l0,24Z" class="g1_54" />
</g>
<path fill-rule="evenodd" d="M438,568l94,0l0,-71l-94,0l0,71Z" class="g1_54" />
<g clip-path="url(#c5_54)">
<path fill-rule="evenodd" d="M445,521l79,0l0,-24l-79,0l0,24Z" class="g1_54" />
</g>
<path fill-rule="evenodd" d="M533,568l354,0l0,-71l-354,0l0,71Z" class="g1_54" />
<g clip-path="url(#c6_54)">
<path fill-rule="evenodd" d="M541,521l339,0l0,-24l-339,0l0,24Z" class="g1_54" />
</g>
<path fill-rule="evenodd" d="M541,545l339,0l0,-24l-339,0l0,24Z" class="g1_54" />
<path fill-rule="evenodd" d="M541,568l339,0l0,-23l-339,0l0,23Z" class="g1_54" />
<path d="M46.5,497.5l0,-2" class="g2_54" />
<path d="M86.5,497.5l0,-2" class="g2_54" />
<path d="M88.5,497.5l349,0" class="g2_54" />
<path d="M437.5,497.5l0,-2" class="g2_54" />
<path d="M438.5,497.5l94,0" class="g2_54" />
<path d="M532.5,497.5l0,-2" class="g2_54" />
<path d="M533.5,497.5l354,0" class="g2_54" />
<path d="M887.5,497.5l0,-2" class="g2_54" />
<path d="M46.5,569.5l0,-72" class="g2_54" />
<path d="M46.5,570.5l0,-1" class="g2_54" />
<path d="M46.5,570.5l0,-1" class="g2_54" />
<path d="M47.5,570.5l39,0" class="g2_54" />
<path d="M86.5,569.5l0,-72" class="g2_54" />
<path d="M86.5,570.5l0,-1" class="g2_54" />
<path d="M88.5,570.5l349,0" class="g2_54" />
<path d="M437.5,569.5l0,-72" class="g2_54" />
<path d="M437.5,570.5l0,-1" class="g2_54" />
<path d="M438.5,570.5l94,0" class="g2_54" />
<path d="M532.5,569.5l0,-72" class="g2_54" />
<path d="M532.5,570.5l0,-1" class="g2_54" />
<path d="M533.5,570.5l354,0" class="g2_54" />
<path d="M887.5,569.5l0,-72" class="g2_54" />
<path d="M887.5,570.5l0,-1" class="g2_54" />
<path d="M887.5,570.5l0,-1" class="g2_54" />
<path fill-rule="evenodd" d="M47,691l840,0l0,-24L47,667l0,24Z" class="g1_54" />
<g clip-path="url(#c7_54)">
<path fill-rule="evenodd" d="M55,691l825,0l0,-24L55,667l0,24Z" class="g1_54" />
</g>
<path d="M46.5,667.5l0,-2" class="g2_54" />
<path d="M46.5,667.5l0,-2" class="g2_54" />
<path d="M47.5,667.5l840,0" class="g2_54" />
<path d="M887.5,667.5l0,-2" class="g2_54" />
<path d="M887.5,667.5l0,-2" class="g2_54" />
<path d="M46.5,691.5l0,-24" class="g2_54" />
<path d="M46.5,692.5l0,-1" class="g2_54" />
<path d="M46.5,692.5l0,-1" class="g2_54" />
<path d="M47.5,692.5l840,0" class="g2_54" />
<path d="M887.5,691.5l0,-24" class="g2_54" />
<path d="M887.5,692.5l0,-1" class="g2_54" />
<path d="M887.5,692.5l0,-1" class="g2_54" />
<path fill-rule="evenodd" d="M47,1075l840,0l0,-357L47,718l0,357Z" class="g1_54" />
<g clip-path="url(#c8_54)">
<path fill-rule="evenodd" d="M55,742l825,0l0,-24L55,718l0,24Z" class="g1_54" />
</g>
<path fill-rule="evenodd" d="M55,765l825,0l0,-23L55,742l0,23Z" class="g1_54" />
<path fill-rule="evenodd" d="M55,789l825,0l0,-24L55,765l0,24Z" class="g1_54" />
<path fill-rule="evenodd" d="M55,813l825,0l0,-24L55,789l0,24Z" class="g1_54" />
<path fill-rule="evenodd" d="M55,837l825,0l0,-24L55,813l0,24Z" class="g1_54" />
<path fill-rule="evenodd" d="M55,861l825,0l0,-24L55,837l0,24Z" class="g1_54" />
<path fill-rule="evenodd" d="M55,885l825,0l0,-24L55,861l0,24Z" class="g1_54" />
<path fill-rule="evenodd" d="M55,908l825,0l0,-23L55,885l0,23Z" class="g1_54" />
<path fill-rule="evenodd" d="M55,932l825,0l0,-24L55,908l0,24Z" class="g1_54" />
<path fill-rule="evenodd" d="M55,956l825,0l0,-24L55,932l0,24Z" class="g1_54" />
<path fill-rule="evenodd" d="M55,980l825,0l0,-24L55,956l0,24Z" class="g1_54" />
<path fill-rule="evenodd" d="M55,1004l825,0l0,-24L55,980l0,24Z" class="g1_54" />
<path fill-rule="evenodd" d="M55,1028l825,0l0,-24l-825,0l0,24Z" class="g1_54" />
<path fill-rule="evenodd" d="M55,1051l825,0l0,-23l-825,0l0,23Z" class="g1_54" />
<g clip-path="url(#c8_54)">
<path fill-rule="evenodd" d="M55,1075l825,0l0,-24l-825,0l0,24Z" class="g1_54" />
</g>
<path d="M46.5,718.5l0,-2" class="g2_54" />
<path d="M46.5,718.5l0,-2" class="g2_54" />
<path d="M47.5,718.5l840,0" class="g2_54" />
<path d="M887.5,718.5l0,-2" class="g2_54" />
<path d="M887.5,718.5l0,-2" class="g2_54" />
<path d="M46.5,1075.5l0,-357" class="g2_54" />
<path d="M46.5,1077.5l0,-2" class="g2_54" />
<path d="M46.5,1077.5l0,-2" class="g2_54" />
<path d="M47.5,1077.5l840,0" class="g2_54" />
<path d="M887.5,1075.5l0,-357" class="g2_54" />
<path d="M887.5,1077.5l0,-2" class="g2_54" />
<path d="M887.5,1077.5l0,-2" class="g2_54" />
</svg>