<?xml version="1.0" encoding="UTF-8" standalone="no"?>
<!DOCTYPE svg PUBLIC "-//W3C//DTD SVG 1.1//EN"
"http://www.w3.org/Graphics/SVG/1.1/DTD/svg11.dtd">
<svg version="1.1" xmlns="http://www.w3.org/2000/svg" xmlns:xlink="http://www.w3.org/1999/xlink">
<defs>
<clipPath id="c0_128"><path d="M88.5,158.5l0,-47l225,0l0,47Z" /></clipPath>
<clipPath id="c1_128"><path d="M315.5,158.5l0,-47l75,0l0,47Z" /></clipPath>
<clipPath id="c2_128"><path d="M391.5,158.5l0,-47l496,0l0,47Z" /></clipPath>
<clipPath id="c3_128"><path d="M47.5,328.5l0,-24l840,0l0,24Z" /></clipPath>
<clipPath id="c4_128"><path d="M47.5,664.5l0,-310l840,0l0,310Z" /></clipPath>
<clipPath id="c5_128"><path d="M47.5,1073.5l0,-334l840,0l0,334Z" /></clipPath>
<style type="text/css"><![CDATA[
.g2_128{
fill: none;
stroke: #7E7E7E;
stroke-width: 1;
stroke-linecap: butt;
stroke-linejoin: miter;
}
.g1_128{
fill: #F1F1F1;
}
]]></style>
</defs>
<path fill-rule="evenodd" d="M47,158l39,0l0,-47l-39,0l0,47Z" class="g1_128" />
<path fill-rule="evenodd" d="M88,158l225,0l0,-47L88,111l0,47Z" class="g1_128" />
<g clip-path="url(#c0_128)">
<path fill-rule="evenodd" d="M95,135l211,0l0,-24L95,111l0,24Z" class="g1_128" />
</g>
<path fill-rule="evenodd" d="M315,158l75,0l0,-47l-75,0l0,47Z" class="g1_128" />
<g clip-path="url(#c1_128)">
<path fill-rule="evenodd" d="M322,135l60,0l0,-24l-60,0l0,24Z" class="g1_128" />
</g>
<path fill-rule="evenodd" d="M391,158l496,0l0,-47l-496,0l0,47Z" class="g1_128" />
<g clip-path="url(#c2_128)">
<path fill-rule="evenodd" d="M399,135l481,0l0,-24l-481,0l0,24Z" class="g1_128" />
</g>
<path d="M46.5,111.5l0,-1" class="g2_128" />
<path d="M46.5,111.5l0,-1" class="g2_128" />
<path d="M47.5,111.5l39,0" class="g2_128" />
<path d="M86.5,111.5l0,-1" class="g2_128" />
<path d="M88.5,111.5l225,0" class="g2_128" />
<path d="M313.5,111.5l0,-1" class="g2_128" />
<path d="M315.5,111.5l75,0" class="g2_128" />
<path d="M390.5,111.5l0,-1" class="g2_128" />
<path d="M391.5,111.5l496,0" class="g2_128" />
<path d="M887.5,111.5l0,-1" class="g2_128" />
<path d="M887.5,111.5l0,-1" class="g2_128" />
<path d="M46.5,158.5l0,-47" class="g2_128" />
<path d="M46.5,159.5l0,-1" class="g2_128" />
<path d="M46.5,159.5l0,-1" class="g2_128" />
<path d="M47.5,159.5l39,0" class="g2_128" />
<path d="M86.5,158.5l0,-47" class="g2_128" />
<path d="M86.5,159.5l0,-1" class="g2_128" />
<path d="M88.5,159.5l225,0" class="g2_128" />
<path d="M313.5,158.5l0,-47" class="g2_128" />
<path d="M313.5,159.5l0,-1" class="g2_128" />
<path d="M315.5,159.5l75,0" class="g2_128" />
<path d="M390.5,158.5l0,-47" class="g2_128" />
<path d="M390.5,159.5l0,-1" class="g2_128" />
<path d="M391.5,159.5l496,0" class="g2_128" />
<path d="M887.5,158.5l0,-47" class="g2_128" />
<path d="M887.5,159.5l0,-1" class="g2_128" />
<path d="M887.5,159.5l0,-1" class="g2_128" />
<path fill-rule="evenodd" d="M47,328l840,0l0,-24L47,304l0,24Z" class="g1_128" />
<g clip-path="url(#c3_128)">
<path fill-rule="evenodd" d="M55,328l825,0l0,-24L55,304l0,24Z" class="g1_128" />
</g>
<path d="M46.5,304.5l0,-2" class="g2_128" />
<path d="M46.5,304.5l0,-2" class="g2_128" />
<path d="M47.5,304.5l840,0" class="g2_128" />
<path d="M887.5,304.5l0,-2" class="g2_128" />
<path d="M887.5,304.5l0,-2" class="g2_128" />
<path d="M46.5,328.5l0,-24" class="g2_128" />
<path d="M46.5,329.5l0,-1" class="g2_128" />
<path d="M46.5,329.5l0,-1" class="g2_128" />
<path d="M47.5,329.5l840,0" class="g2_128" />
<path d="M887.5,328.5l0,-24" class="g2_128" />
<path d="M887.5,329.5l0,-1" class="g2_128" />
<path d="M887.5,329.5l0,-1" class="g2_128" />
<path fill-rule="evenodd" d="M47,664l840,0l0,-310L47,354l0,310Z" class="g1_128" />
<g clip-path="url(#c4_128)">
<path fill-rule="evenodd" d="M55,378l825,0l0,-24L55,354l0,24Z" class="g1_128" />
</g>
<path fill-rule="evenodd" d="M55,402l825,0l0,-24L55,378l0,24Z" class="g1_128" />
<path fill-rule="evenodd" d="M55,426l825,0l0,-24L55,402l0,24Z" class="g1_128" />
<path fill-rule="evenodd" d="M55,450l825,0l0,-24L55,426l0,24Z" class="g1_128" />
<path fill-rule="evenodd" d="M55,474l825,0l0,-24L55,450l0,24Z" class="g1_128" />
<path fill-rule="evenodd" d="M55,498l825,0l0,-24L55,474l0,24Z" class="g1_128" />
<path fill-rule="evenodd" d="M55,521l825,0l0,-23L55,498l0,23Z" class="g1_128" />
<path fill-rule="evenodd" d="M55,545l825,0l0,-24L55,521l0,24Z" class="g1_128" />
<path fill-rule="evenodd" d="M55,569l825,0l0,-24L55,545l0,24Z" class="g1_128" />
<path fill-rule="evenodd" d="M55,593l825,0l0,-24L55,569l0,24Z" class="g1_128" />
<path fill-rule="evenodd" d="M55,617l825,0l0,-24L55,593l0,24Z" class="g1_128" />
<path fill-rule="evenodd" d="M55,641l825,0l0,-24L55,617l0,24Z" class="g1_128" />
<path fill-rule="evenodd" d="M55,664l825,0l0,-23L55,641l0,23Z" class="g1_128" />
<path d="M46.5,354.5l0,-1" class="g2_128" />
<path d="M46.5,354.5l0,-1" class="g2_128" />
<path d="M47.5,354.5l840,0" class="g2_128" />
<path d="M887.5,354.5l0,-1" class="g2_128" />
<path d="M887.5,354.5l0,-1" class="g2_128" />
<path d="M46.5,664.5l0,-310" class="g2_128" />
<path d="M46.5,666.5l0,-2" class="g2_128" />
<path d="M46.5,666.5l0,-2" class="g2_128" />
<path d="M47.5,666.5l840,0" class="g2_128" />
<path d="M887.5,664.5l0,-310" class="g2_128" />
<path d="M887.5,666.5l0,-2" class="g2_128" />
<path d="M887.5,666.5l0,-2" class="g2_128" />
<path fill-rule="evenodd" d="M47,1073l840,0l0,-334L47,739l0,334Z" class="g1_128" />
<g clip-path="url(#c5_128)">
<path fill-rule="evenodd" d="M55,763l825,0l0,-24L55,739l0,24Z" class="g1_128" />
</g>
<path fill-rule="evenodd" d="M55,786l825,0l0,-23L55,763l0,23Z" class="g1_128" />
<path fill-rule="evenodd" d="M55,810l825,0l0,-24L55,786l0,24Z" class="g1_128" />
<path fill-rule="evenodd" d="M55,834l825,0l0,-24L55,810l0,24Z" class="g1_128" />
<path fill-rule="evenodd" d="M55,858l825,0l0,-24L55,834l0,24Z" class="g1_128" />
<path fill-rule="evenodd" d="M55,882l825,0l0,-24L55,858l0,24Z" class="g1_128" />
<path fill-rule="evenodd" d="M55,906l825,0l0,-24L55,882l0,24Z" class="g1_128" />
<path fill-rule="evenodd" d="M55,930l825,0l0,-24L55,906l0,24Z" class="g1_128" />
<path fill-rule="evenodd" d="M55,953l825,0l0,-23L55,930l0,23Z" class="g1_128" />
<path fill-rule="evenodd" d="M55,977l825,0l0,-24L55,953l0,24Z" class="g1_128" />
<path fill-rule="evenodd" d="M55,1001l825,0l0,-24L55,977l0,24Z" class="g1_128" />
<path fill-rule="evenodd" d="M55,1025l825,0l0,-24l-825,0l0,24Z" class="g1_128" />
<path fill-rule="evenodd" d="M55,1049l825,0l0,-24l-825,0l0,24Z" class="g1_128" />
<g clip-path="url(#c5_128)">
<path fill-rule="evenodd" d="M55,1073l825,0l0,-24l-825,0l0,24Z" class="g1_128" />
</g>
<path d="M46.5,739.5l0,-2" class="g2_128" />
<path d="M46.5,739.5l0,-2" class="g2_128" />
<path d="M47.5,739.5l840,0" class="g2_128" />
<path d="M887.5,739.5l0,-2" class="g2_128" />
<path d="M887.5,739.5l0,-2" class="g2_128" />
<path d="M46.5,1073.5l0,-334" class="g2_128" />
<path d="M46.5,1074.5l0,-1" class="g2_128" />
<path d="M46.5,1074.5l0,-1" class="g2_128" />
<path d="M47.5,1074.5l840,0" class="g2_128" />
<path d="M887.5,1073.5l0,-334" class="g2_128" />
<path d="M887.5,1074.5l0,-1" class="g2_128" />
<path d="M887.5,1074.5l0,-1" class="g2_128" />
</svg>