<?xml version="1.0" encoding="UTF-8" standalone="no"?>
<!DOCTYPE svg PUBLIC "-//W3C//DTD SVG 1.1//EN"
"http://www.w3.org/Graphics/SVG/1.1/DTD/svg11.dtd">
<svg version="1.1" xmlns="http://www.w3.org/2000/svg" xmlns:xlink="http://www.w3.org/1999/xlink">
<defs>
<clipPath id="c0_280"><path d="M47.5,278.5l0,-167l840,0l0,167Z" /></clipPath>
<clipPath id="c1_280"><path d="M47.5,972.5l0,-620l840,0l0,620Z" /></clipPath>
<style type="text/css"><![CDATA[
.g2_280{
fill: none;
stroke: #7E7E7E;
stroke-width: 1;
stroke-linecap: butt;
stroke-linejoin: miter;
}
.g1_280{
fill: #F1F1F1;
}
]]></style>
</defs>
<path fill-rule="evenodd" d="M47,278l840,0l0,-167L47,111l0,167Z" class="g1_280" />
<g clip-path="url(#c0_280)">
<path fill-rule="evenodd" d="M55,135l825,0l0,-24L55,111l0,24Z" class="g1_280" />
</g>
<path fill-rule="evenodd" d="M55,159l825,0l0,-24L55,135l0,24Z" class="g1_280" />
<path fill-rule="evenodd" d="M55,182l825,0l0,-23L55,159l0,23Z" class="g1_280" />
<path fill-rule="evenodd" d="M55,206l825,0l0,-24L55,182l0,24Z" class="g1_280" />
<path fill-rule="evenodd" d="M55,230l825,0l0,-24L55,206l0,24Z" class="g1_280" />
<path fill-rule="evenodd" d="M55,254l825,0l0,-24L55,230l0,24Z" class="g1_280" />
<path fill-rule="evenodd" d="M55,278l825,0l0,-24L55,254l0,24Z" class="g1_280" />
<path d="M46.5,111.5l0,-1" class="g2_280" />
<path d="M46.5,111.5l0,-1" class="g2_280" />
<path d="M47.5,111.5l840,0" class="g2_280" />
<path d="M887.5,111.5l0,-1" class="g2_280" />
<path d="M887.5,111.5l0,-1" class="g2_280" />
<path d="M46.5,278.5l0,-167" class="g2_280" />
<path d="M46.5,279.5l0,-1" class="g2_280" />
<path d="M46.5,279.5l0,-1" class="g2_280" />
<path d="M47.5,279.5l840,0" class="g2_280" />
<path d="M887.5,278.5l0,-167" class="g2_280" />
<path d="M887.5,279.5l0,-1" class="g2_280" />
<path d="M887.5,279.5l0,-1" class="g2_280" />
<path fill-rule="evenodd" d="M47,972l840,0l0,-620L47,352l0,620Z" class="g1_280" />
<g clip-path="url(#c1_280)">
<path fill-rule="evenodd" d="M55,376l825,0l0,-24L55,352l0,24Z" class="g1_280" />
</g>
<path fill-rule="evenodd" d="M55,400l825,0l0,-24L55,376l0,24Z" class="g1_280" />
<path fill-rule="evenodd" d="M55,424l825,0l0,-24L55,400l0,24Z" class="g1_280" />
<path fill-rule="evenodd" d="M55,448l825,0l0,-24L55,424l0,24Z" class="g1_280" />
<path fill-rule="evenodd" d="M55,472l825,0l0,-24L55,448l0,24Z" class="g1_280" />
<path fill-rule="evenodd" d="M55,495l825,0l0,-23L55,472l0,23Z" class="g1_280" />
<path fill-rule="evenodd" d="M55,519l825,0l0,-24L55,495l0,24Z" class="g1_280" />
<path fill-rule="evenodd" d="M55,543l825,0l0,-24L55,519l0,24Z" class="g1_280" />
<path fill-rule="evenodd" d="M55,567l825,0l0,-24L55,543l0,24Z" class="g1_280" />
<path fill-rule="evenodd" d="M55,591l825,0l0,-24L55,567l0,24Z" class="g1_280" />
<path fill-rule="evenodd" d="M55,615l825,0l0,-24L55,591l0,24Z" class="g1_280" />
<path fill-rule="evenodd" d="M55,638l825,0l0,-23L55,615l0,23Z" class="g1_280" />
<path fill-rule="evenodd" d="M55,662l825,0l0,-24L55,638l0,24Z" class="g1_280" />
<path fill-rule="evenodd" d="M55,686l825,0l0,-24L55,662l0,24Z" class="g1_280" />
<path fill-rule="evenodd" d="M55,710l825,0l0,-24L55,686l0,24Z" class="g1_280" />
<path fill-rule="evenodd" d="M55,734l825,0l0,-24L55,710l0,24Z" class="g1_280" />
<path fill-rule="evenodd" d="M55,758l825,0l0,-24L55,734l0,24Z" class="g1_280" />
<path fill-rule="evenodd" d="M55,782l825,0l0,-24L55,758l0,24Z" class="g1_280" />
<path fill-rule="evenodd" d="M55,805l825,0l0,-23L55,782l0,23Z" class="g1_280" />
<path fill-rule="evenodd" d="M55,829l825,0l0,-24L55,805l0,24Z" class="g1_280" />
<path fill-rule="evenodd" d="M55,853l825,0l0,-24L55,829l0,24Z" class="g1_280" />
<path fill-rule="evenodd" d="M55,877l825,0l0,-24L55,853l0,24Z" class="g1_280" />
<path fill-rule="evenodd" d="M55,901l825,0l0,-24L55,877l0,24Z" class="g1_280" />
<path fill-rule="evenodd" d="M55,925l825,0l0,-24L55,901l0,24Z" class="g1_280" />
<path fill-rule="evenodd" d="M55,948l825,0l0,-23L55,925l0,23Z" class="g1_280" />
<g clip-path="url(#c1_280)">
<path fill-rule="evenodd" d="M55,972l825,0l0,-24L55,948l0,24Z" class="g1_280" />
</g>
<path d="M46.5,352.5l0,-1" class="g2_280" />
<path d="M46.5,352.5l0,-1" class="g2_280" />
<path d="M47.5,352.5l840,0" class="g2_280" />
<path d="M887.5,352.5l0,-1" class="g2_280" />
<path d="M887.5,352.5l0,-1" class="g2_280" />
<path d="M46.5,972.5l0,-620" class="g2_280" />
<path d="M46.5,974.5l0,-2" class="g2_280" />
<path d="M46.5,974.5l0,-2" class="g2_280" />
<path d="M47.5,974.5l840,0" class="g2_280" />
<path d="M887.5,972.5l0,-620" class="g2_280" />
<path d="M887.5,974.5l0,-2" class="g2_280" />
<path d="M887.5,974.5l0,-2" class="g2_280" />
</svg>