<?xml version="1.0" encoding="UTF-8" standalone="no"?>
<!DOCTYPE svg PUBLIC "-//W3C//DTD SVG 1.1//EN"
"http://www.w3.org/Graphics/SVG/1.1/DTD/svg11.dtd">
<svg version="1.1" xmlns="http://www.w3.org/2000/svg" xmlns:xlink="http://www.w3.org/1999/xlink">
<defs>
<clipPath id="c0_299"><path d="M210.5,707.5l0,-596l278,0l0,596Z" /></clipPath>
<clipPath id="c1_299"><path d="M490.5,707.5l0,-596l66,0l0,596Z" /></clipPath>
<clipPath id="c2_299"><path d="M557.5,707.5l0,-596l330,0l0,596Z" /></clipPath>
<clipPath id="c3_299"><path d="M210.5,732.5l0,-23l278,0l0,23Z" /></clipPath>
<clipPath id="c4_299"><path d="M490.5,732.5l0,-23l66,0l0,23Z" /></clipPath>
<clipPath id="c5_299"><path d="M557.5,732.5l0,-23l330,0l0,23Z" /></clipPath>
<clipPath id="c6_299"><path d="M210.5,758.5l0,-24l278,0l0,24Z" /></clipPath>
<clipPath id="c7_299"><path d="M490.5,758.5l0,-24l66,0l0,24Z" /></clipPath>
<clipPath id="c8_299"><path d="M557.5,758.5l0,-24l330,0l0,24Z" /></clipPath>
<clipPath id="c9_299"><path d="M210.5,807.5l0,-48l278,0l0,48Z" /></clipPath>
<clipPath id="c10_299"><path d="M490.5,807.5l0,-48l66,0l0,48Z" /></clipPath>
<clipPath id="c11_299"><path d="M557.5,807.5l0,-48l330,0l0,48Z" /></clipPath>
<clipPath id="c12_299"><path d="M210.5,856.5l0,-48l278,0l0,48Z" /></clipPath>
<clipPath id="c13_299"><path d="M490.5,856.5l0,-48l66,0l0,48Z" /></clipPath>
<clipPath id="c14_299"><path d="M557.5,856.5l0,-48l330,0l0,48Z" /></clipPath>
<clipPath id="c15_299"><path d="M210.5,905.5l0,-47l278,0l0,47Z" /></clipPath>
<clipPath id="c16_299"><path d="M490.5,905.5l0,-47l66,0l0,47Z" /></clipPath>
<clipPath id="c17_299"><path d="M557.5,905.5l0,-47l330,0l0,47Z" /></clipPath>
<clipPath id="c18_299"><path d="M210.5,931.5l0,-24l278,0l0,24Z" /></clipPath>
<clipPath id="c19_299"><path d="M490.5,931.5l0,-24l66,0l0,24Z" /></clipPath>
<clipPath id="c20_299"><path d="M557.5,931.5l0,-24l330,0l0,24Z" /></clipPath>
<clipPath id="c21_299"><path d="M210.5,956.5l0,-24l278,0l0,24Z" /></clipPath>
<clipPath id="c22_299"><path d="M490.5,956.5l0,-24l66,0l0,24Z" /></clipPath>
<clipPath id="c23_299"><path d="M557.5,956.5l0,-24l330,0l0,24Z" /></clipPath>
<clipPath id="c24_299"><path d="M210.5,981.5l0,-23l278,0l0,23Z" /></clipPath>
<clipPath id="c25_299"><path d="M490.5,981.5l0,-23l66,0l0,23Z" /></clipPath>
<clipPath id="c26_299"><path d="M557.5,981.5l0,-23l330,0l0,23Z" /></clipPath>
<clipPath id="c27_299"><path d="M557.5,1031.5l0,-48l330,0l0,48Z" /></clipPath>
<clipPath id="c28_299"><path d="M210.5,1056.5l0,-24l278,0l0,24Z" /></clipPath>
<clipPath id="c29_299"><path d="M490.5,1056.5l0,-24l66,0l0,24Z" /></clipPath>
<clipPath id="c30_299"><path d="M557.5,1056.5l0,-24l330,0l0,24Z" /></clipPath>
<clipPath id="c31_299"><path d="M210.5,1081.5l0,-24l278,0l0,24Z" /></clipPath>
<clipPath id="c32_299"><path d="M490.5,1081.5l0,-24l66,0l0,24Z" /></clipPath>
<clipPath id="c33_299"><path d="M557.5,1081.5l0,-24l330,0l0,24Z" /></clipPath>
<style type="text/css"><![CDATA[
.g2_299{
fill: none;
stroke: #7E7E7E;
stroke-width: 1;
stroke-linecap: butt;
stroke-linejoin: miter;
}
.g1_299{
fill: #F1F1F1;
}
]]></style>
</defs>
<path fill-rule="evenodd" d="M47,707l39,0L86,111l-39,0l0,596Z" class="g1_299" />
<path fill-rule="evenodd" d="M88,707l39,0l0,-596l-39,0l0,596Z" class="g1_299" />
<path fill-rule="evenodd" d="M129,707l39,0l0,-596l-39,0l0,596Z" class="g1_299" />
<path fill-rule="evenodd" d="M169,707l40,0l0,-596l-40,0l0,596Z" class="g1_299" />
<path fill-rule="evenodd" d="M210,707l278,0l0,-596l-278,0l0,596Z" class="g1_299" />
<g clip-path="url(#c0_299)">
<path fill-rule="evenodd" d="M218,135l263,0l0,-24l-263,0l0,24Z" class="g1_299" />
</g>
<path fill-rule="evenodd" d="M490,707l66,0l0,-596l-66,0l0,596Z" class="g1_299" />
<g clip-path="url(#c1_299)">
<path fill-rule="evenodd" d="M497,135l51,0l0,-24l-51,0l0,24Z" class="g1_299" />
</g>
<path fill-rule="evenodd" d="M557,707l330,0l0,-596l-330,0l0,596Z" class="g1_299" />
<g clip-path="url(#c2_299)">
<path fill-rule="evenodd" d="M565,135l315,0l0,-24l-315,0l0,24Z" class="g1_299" />
</g>
<path fill-rule="evenodd" d="M565,159l315,0l0,-24l-315,0l0,24Z" class="g1_299" />
<path fill-rule="evenodd" d="M565,182l315,0l0,-23l-315,0l0,23Z" class="g1_299" />
<path fill-rule="evenodd" d="M565,206l315,0l0,-24l-315,0l0,24Z" class="g1_299" />
<path fill-rule="evenodd" d="M565,230l315,0l0,-24l-315,0l0,24Z" class="g1_299" />
<path fill-rule="evenodd" d="M565,254l315,0l0,-24l-315,0l0,24Z" class="g1_299" />
<path fill-rule="evenodd" d="M565,278l315,0l0,-24l-315,0l0,24Z" class="g1_299" />
<path fill-rule="evenodd" d="M565,302l315,0l0,-24l-315,0l0,24Z" class="g1_299" />
<path fill-rule="evenodd" d="M565,325l315,0l0,-23l-315,0l0,23Z" class="g1_299" />
<path fill-rule="evenodd" d="M565,349l315,0l0,-24l-315,0l0,24Z" class="g1_299" />
<path fill-rule="evenodd" d="M565,373l315,0l0,-24l-315,0l0,24Z" class="g1_299" />
<path fill-rule="evenodd" d="M565,397l315,0l0,-24l-315,0l0,24Z" class="g1_299" />
<path fill-rule="evenodd" d="M565,421l315,0l0,-24l-315,0l0,24Z" class="g1_299" />
<path fill-rule="evenodd" d="M565,445l315,0l0,-24l-315,0l0,24Z" class="g1_299" />
<path fill-rule="evenodd" d="M565,469l315,0l0,-24l-315,0l0,24Z" class="g1_299" />
<path fill-rule="evenodd" d="M565,492l315,0l0,-23l-315,0l0,23Z" class="g1_299" />
<path fill-rule="evenodd" d="M565,516l315,0l0,-24l-315,0l0,24Z" class="g1_299" />
<path fill-rule="evenodd" d="M565,540l315,0l0,-24l-315,0l0,24Z" class="g1_299" />
<path fill-rule="evenodd" d="M565,564l315,0l0,-24l-315,0l0,24Z" class="g1_299" />
<path fill-rule="evenodd" d="M565,588l315,0l0,-24l-315,0l0,24Z" class="g1_299" />
<path fill-rule="evenodd" d="M565,612l315,0l0,-24l-315,0l0,24Z" class="g1_299" />
<path fill-rule="evenodd" d="M565,635l315,0l0,-23l-315,0l0,23Z" class="g1_299" />
<path fill-rule="evenodd" d="M565,659l315,0l0,-24l-315,0l0,24Z" class="g1_299" />
<path fill-rule="evenodd" d="M565,683l315,0l0,-24l-315,0l0,24Z" class="g1_299" />
<path fill-rule="evenodd" d="M565,707l315,0l0,-24l-315,0l0,24Z" class="g1_299" />
<path d="M46.5,111.5l0,-1" class="g2_299" />
<path d="M46.5,111.5l0,-1" class="g2_299" />
<path d="M47.5,111.5l39,0" class="g2_299" />
<path d="M86.5,111.5l0,-1" class="g2_299" />
<path d="M88.5,111.5l39,0" class="g2_299" />
<path d="M127.5,111.5l0,-1" class="g2_299" />
<path d="M129.5,111.5l39,0" class="g2_299" />
<path d="M168.5,111.5l0,-1" class="g2_299" />
<path d="M169.5,111.5l40,0" class="g2_299" />
<path d="M209.5,111.5l0,-1" class="g2_299" />
<path d="M210.5,111.5l278,0" class="g2_299" />
<path d="M488.5,111.5l0,-1" class="g2_299" />
<path d="M490.5,111.5l66,0" class="g2_299" />
<path d="M556.5,111.5l0,-1" class="g2_299" />
<path d="M557.5,111.5l330,0" class="g2_299" />
<path d="M887.5,111.5l0,-1" class="g2_299" />
<path d="M887.5,111.5l0,-1" class="g2_299" />
<path d="M46.5,707.5l0,-596" class="g2_299" />
<path d="M86.5,707.5l0,-596" class="g2_299" />
<path d="M127.5,707.5l0,-596" class="g2_299" />
<path d="M168.5,707.5l0,-596" class="g2_299" />
<path d="M209.5,707.5l0,-596" class="g2_299" />
<path d="M488.5,707.5l0,-596" class="g2_299" />
<path d="M556.5,707.5l0,-596" class="g2_299" />
<path d="M887.5,707.5l0,-596" class="g2_299" />
<path fill-rule="evenodd" d="M47,732l39,0l0,-25l-39,0l0,25Z" class="g1_299" />
<path fill-rule="evenodd" d="M88,732l39,0l0,-25l-39,0l0,25Z" class="g1_299" />
<path fill-rule="evenodd" d="M129,732l39,0l0,-25l-39,0l0,25Z" class="g1_299" />
<path fill-rule="evenodd" d="M169,732l40,0l0,-25l-40,0l0,25Z" class="g1_299" />
<path fill-rule="evenodd" d="M210,732l278,0l0,-23l-278,0l0,23Z" class="g1_299" />
<g clip-path="url(#c3_299)">
<path fill-rule="evenodd" d="M218,732l263,0l0,-23l-263,0l0,23Z" class="g1_299" />
</g>
<path fill-rule="evenodd" d="M490,732l66,0l0,-23l-66,0l0,23Z" class="g1_299" />
<g clip-path="url(#c4_299)">
<path fill-rule="evenodd" d="M497,732l51,0l0,-23l-51,0l0,23Z" class="g1_299" />
</g>
<path fill-rule="evenodd" d="M557,732l330,0l0,-23l-330,0l0,23Z" class="g1_299" />
<g clip-path="url(#c5_299)">
<path fill-rule="evenodd" d="M565,732l315,0l0,-23l-315,0l0,23Z" class="g1_299" />
</g>
<path d="M46.5,708.5l0,-1" class="g2_299" />
<path d="M86.5,708.5l0,-1" class="g2_299" />
<path d="M127.5,708.5l0,-1" class="g2_299" />
<path d="M168.5,708.5l0,-1" class="g2_299" />
<path d="M209.5,708.5l0,-1" class="g2_299" />
<path d="M210.5,708.5l278,0" class="g2_299" />
<path d="M488.5,708.5l0,-1" class="g2_299" />
<path d="M490.5,708.5l66,0" class="g2_299" />
<path d="M556.5,708.5l0,-1" class="g2_299" />
<path d="M557.5,708.5l330,0" class="g2_299" />
<path d="M887.5,708.5l0,-1" class="g2_299" />
<path d="M46.5,732.5l0,-24" class="g2_299" />
<path d="M86.5,732.5l0,-24" class="g2_299" />
<path d="M127.5,732.5l0,-24" class="g2_299" />
<path d="M168.5,732.5l0,-24" class="g2_299" />
<path d="M209.5,732.5l0,-24" class="g2_299" />
<path d="M488.5,732.5l0,-24" class="g2_299" />
<path d="M556.5,732.5l0,-24" class="g2_299" />
<path d="M887.5,732.5l0,-24" class="g2_299" />
<path fill-rule="evenodd" d="M47,758l39,0l0,-26l-39,0l0,26Z" class="g1_299" />
<path fill-rule="evenodd" d="M88,758l39,0l0,-26l-39,0l0,26Z" class="g1_299" />
<path fill-rule="evenodd" d="M129,758l39,0l0,-26l-39,0l0,26Z" class="g1_299" />
<path fill-rule="evenodd" d="M169,758l40,0l0,-26l-40,0l0,26Z" class="g1_299" />
<path fill-rule="evenodd" d="M210,758l278,0l0,-24l-278,0l0,24Z" class="g1_299" />
<g clip-path="url(#c6_299)">
<path fill-rule="evenodd" d="M218,758l263,0l0,-24l-263,0l0,24Z" class="g1_299" />
</g>
<path fill-rule="evenodd" d="M490,758l66,0l0,-24l-66,0l0,24Z" class="g1_299" />
<g clip-path="url(#c7_299)">
<path fill-rule="evenodd" d="M497,758l51,0l0,-24l-51,0l0,24Z" class="g1_299" />
</g>
<path fill-rule="evenodd" d="M557,758l330,0l0,-24l-330,0l0,24Z" class="g1_299" />
<g clip-path="url(#c8_299)">
<path fill-rule="evenodd" d="M565,758l315,0l0,-24l-315,0l0,24Z" class="g1_299" />
</g>
<path d="M46.5,734.5l0,-2" class="g2_299" />
<path d="M86.5,734.5l0,-2" class="g2_299" />
<path d="M127.5,734.5l0,-2" class="g2_299" />
<path d="M168.5,734.5l0,-2" class="g2_299" />
<path d="M209.5,734.5l0,-2" class="g2_299" />
<path d="M210.5,734.5l278,0" class="g2_299" />
<path d="M488.5,734.5l0,-2" class="g2_299" />
<path d="M490.5,734.5l66,0" class="g2_299" />
<path d="M556.5,734.5l0,-2" class="g2_299" />
<path d="M557.5,734.5l330,0" class="g2_299" />
<path d="M887.5,734.5l0,-2" class="g2_299" />
<path d="M46.5,758.5l0,-24" class="g2_299" />
<path d="M86.5,758.5l0,-24" class="g2_299" />
<path d="M127.5,758.5l0,-24" class="g2_299" />
<path d="M168.5,758.5l0,-24" class="g2_299" />
<path d="M209.5,758.5l0,-24" class="g2_299" />
<path d="M488.5,758.5l0,-24" class="g2_299" />
<path d="M556.5,758.5l0,-24" class="g2_299" />
<path d="M887.5,758.5l0,-24" class="g2_299" />
<path fill-rule="evenodd" d="M47,807l39,0l0,-49l-39,0l0,49Z" class="g1_299" />
<path fill-rule="evenodd" d="M88,807l39,0l0,-49l-39,0l0,49Z" class="g1_299" />
<path fill-rule="evenodd" d="M129,807l39,0l0,-49l-39,0l0,49Z" class="g1_299" />
<path fill-rule="evenodd" d="M169,807l40,0l0,-49l-40,0l0,49Z" class="g1_299" />
<path fill-rule="evenodd" d="M210,807l278,0l0,-48l-278,0l0,48Z" class="g1_299" />
<g clip-path="url(#c9_299)">
<path fill-rule="evenodd" d="M218,783l263,0l0,-24l-263,0l0,24Z" class="g1_299" />
</g>
<path fill-rule="evenodd" d="M490,807l66,0l0,-48l-66,0l0,48Z" class="g1_299" />
<g clip-path="url(#c10_299)">
<path fill-rule="evenodd" d="M497,783l51,0l0,-24l-51,0l0,24Z" class="g1_299" />
</g>
<path fill-rule="evenodd" d="M557,807l330,0l0,-48l-330,0l0,48Z" class="g1_299" />
<g clip-path="url(#c11_299)">
<path fill-rule="evenodd" d="M565,783l315,0l0,-24l-315,0l0,24Z" class="g1_299" />
</g>
<path fill-rule="evenodd" d="M565,807l315,0l0,-24l-315,0l0,24Z" class="g1_299" />
<path d="M46.5,759.5l0,-1" class="g2_299" />
<path d="M86.5,759.5l0,-1" class="g2_299" />
<path d="M127.5,759.5l0,-1" class="g2_299" />
<path d="M168.5,759.5l0,-1" class="g2_299" />
<path d="M209.5,759.5l0,-1" class="g2_299" />
<path d="M210.5,759.5l278,0" class="g2_299" />
<path d="M488.5,759.5l0,-1" class="g2_299" />
<path d="M490.5,759.5l66,0" class="g2_299" />
<path d="M556.5,759.5l0,-1" class="g2_299" />
<path d="M557.5,759.5l330,0" class="g2_299" />
<path d="M887.5,759.5l0,-1" class="g2_299" />
<path d="M46.5,807.5l0,-48" class="g2_299" />
<path d="M86.5,807.5l0,-48" class="g2_299" />
<path d="M127.5,807.5l0,-48" class="g2_299" />
<path d="M168.5,807.5l0,-48" class="g2_299" />
<path d="M209.5,807.5l0,-48" class="g2_299" />
<path d="M488.5,807.5l0,-48" class="g2_299" />
<path d="M556.5,807.5l0,-48" class="g2_299" />
<path d="M887.5,807.5l0,-48" class="g2_299" />
<path fill-rule="evenodd" d="M47,856l39,0l0,-49l-39,0l0,49Z" class="g1_299" />
<path fill-rule="evenodd" d="M88,856l39,0l0,-49l-39,0l0,49Z" class="g1_299" />
<path fill-rule="evenodd" d="M129,856l39,0l0,-49l-39,0l0,49Z" class="g1_299" />
<path fill-rule="evenodd" d="M169,856l40,0l0,-49l-40,0l0,49Z" class="g1_299" />
<path fill-rule="evenodd" d="M210,856l278,0l0,-48l-278,0l0,48Z" class="g1_299" />
<g clip-path="url(#c12_299)">
<path fill-rule="evenodd" d="M218,832l263,0l0,-24l-263,0l0,24Z" class="g1_299" />
</g>
<path fill-rule="evenodd" d="M490,856l66,0l0,-48l-66,0l0,48Z" class="g1_299" />
<g clip-path="url(#c13_299)">
<path fill-rule="evenodd" d="M497,832l51,0l0,-24l-51,0l0,24Z" class="g1_299" />
</g>
<path fill-rule="evenodd" d="M557,856l330,0l0,-48l-330,0l0,48Z" class="g1_299" />
<g clip-path="url(#c14_299)">
<path fill-rule="evenodd" d="M565,832l315,0l0,-24l-315,0l0,24Z" class="g1_299" />
</g>
<path fill-rule="evenodd" d="M565,856l315,0l0,-24l-315,0l0,24Z" class="g1_299" />
<path d="M46.5,808.5l0,-1" class="g2_299" />
<path d="M86.5,808.5l0,-1" class="g2_299" />
<path d="M127.5,808.5l0,-1" class="g2_299" />
<path d="M168.5,808.5l0,-1" class="g2_299" />
<path d="M209.5,808.5l0,-1" class="g2_299" />
<path d="M210.5,808.5l278,0" class="g2_299" />
<path d="M488.5,808.5l0,-1" class="g2_299" />
<path d="M490.5,808.5l66,0" class="g2_299" />
<path d="M556.5,808.5l0,-1" class="g2_299" />
<path d="M557.5,808.5l330,0" class="g2_299" />
<path d="M887.5,808.5l0,-1" class="g2_299" />
<path d="M46.5,856.5l0,-48" class="g2_299" />
<path d="M86.5,856.5l0,-48" class="g2_299" />
<path d="M127.5,856.5l0,-48" class="g2_299" />
<path d="M168.5,856.5l0,-48" class="g2_299" />
<path d="M209.5,856.5l0,-48" class="g2_299" />
<path d="M488.5,856.5l0,-48" class="g2_299" />
<path d="M556.5,856.5l0,-48" class="g2_299" />
<path d="M887.5,856.5l0,-48" class="g2_299" />
<path fill-rule="evenodd" d="M47,905l39,0l0,-49l-39,0l0,49Z" class="g1_299" />
<path fill-rule="evenodd" d="M88,905l39,0l0,-49l-39,0l0,49Z" class="g1_299" />
<path fill-rule="evenodd" d="M129,905l39,0l0,-49l-39,0l0,49Z" class="g1_299" />
<path fill-rule="evenodd" d="M169,905l40,0l0,-49l-40,0l0,49Z" class="g1_299" />
<path fill-rule="evenodd" d="M210,905l278,0l0,-47l-278,0l0,47Z" class="g1_299" />
<g clip-path="url(#c15_299)">
<path fill-rule="evenodd" d="M218,881l263,0l0,-23l-263,0l0,23Z" class="g1_299" />
</g>
<path fill-rule="evenodd" d="M490,905l66,0l0,-47l-66,0l0,47Z" class="g1_299" />
<g clip-path="url(#c16_299)">
<path fill-rule="evenodd" d="M497,881l51,0l0,-23l-51,0l0,23Z" class="g1_299" />
</g>
<path fill-rule="evenodd" d="M557,905l330,0l0,-47l-330,0l0,47Z" class="g1_299" />
<g clip-path="url(#c17_299)">
<path fill-rule="evenodd" d="M565,881l315,0l0,-23l-315,0l0,23Z" class="g1_299" />
</g>
<path fill-rule="evenodd" d="M565,905l315,0l0,-24l-315,0l0,24Z" class="g1_299" />
<path d="M46.5,858.5l0,-2" class="g2_299" />
<path d="M86.5,858.5l0,-2" class="g2_299" />
<path d="M127.5,858.5l0,-2" class="g2_299" />
<path d="M168.5,858.5l0,-2" class="g2_299" />
<path d="M209.5,858.5l0,-2" class="g2_299" />
<path d="M210.5,858.5l278,0" class="g2_299" />
<path d="M488.5,858.5l0,-2" class="g2_299" />
<path d="M490.5,858.5l66,0" class="g2_299" />
<path d="M556.5,858.5l0,-2" class="g2_299" />
<path d="M557.5,858.5l330,0" class="g2_299" />
<path d="M887.5,858.5l0,-2" class="g2_299" />
<path d="M46.5,905.5l0,-47" class="g2_299" />
<path d="M86.5,905.5l0,-47" class="g2_299" />
<path d="M127.5,905.5l0,-47" class="g2_299" />
<path d="M168.5,905.5l0,-47" class="g2_299" />
<path d="M209.5,905.5l0,-47" class="g2_299" />
<path d="M488.5,905.5l0,-47" class="g2_299" />
<path d="M556.5,905.5l0,-47" class="g2_299" />
<path d="M887.5,905.5l0,-47" class="g2_299" />
<path fill-rule="evenodd" d="M47,931l39,0l0,-26l-39,0l0,26Z" class="g1_299" />
<path fill-rule="evenodd" d="M88,931l39,0l0,-26l-39,0l0,26Z" class="g1_299" />
<path fill-rule="evenodd" d="M129,931l39,0l0,-26l-39,0l0,26Z" class="g1_299" />
<path fill-rule="evenodd" d="M169,931l40,0l0,-26l-40,0l0,26Z" class="g1_299" />
<path fill-rule="evenodd" d="M210,931l278,0l0,-24l-278,0l0,24Z" class="g1_299" />
<g clip-path="url(#c18_299)">
<path fill-rule="evenodd" d="M218,931l263,0l0,-24l-263,0l0,24Z" class="g1_299" />
</g>
<path fill-rule="evenodd" d="M490,931l66,0l0,-24l-66,0l0,24Z" class="g1_299" />
<g clip-path="url(#c19_299)">
<path fill-rule="evenodd" d="M497,931l51,0l0,-24l-51,0l0,24Z" class="g1_299" />
</g>
<path fill-rule="evenodd" d="M557,931l330,0l0,-24l-330,0l0,24Z" class="g1_299" />
<g clip-path="url(#c20_299)">
<path fill-rule="evenodd" d="M565,931l315,0l0,-24l-315,0l0,24Z" class="g1_299" />
</g>
<path d="M46.5,907.5l0,-2" class="g2_299" />
<path d="M86.5,907.5l0,-2" class="g2_299" />
<path d="M127.5,907.5l0,-2" class="g2_299" />
<path d="M168.5,907.5l0,-2" class="g2_299" />
<path d="M209.5,907.5l0,-2" class="g2_299" />
<path d="M210.5,907.5l278,0" class="g2_299" />
<path d="M488.5,907.5l0,-2" class="g2_299" />
<path d="M490.5,907.5l66,0" class="g2_299" />
<path d="M556.5,907.5l0,-2" class="g2_299" />
<path d="M557.5,907.5l330,0" class="g2_299" />
<path d="M887.5,907.5l0,-2" class="g2_299" />
<path d="M46.5,931.5l0,-24" class="g2_299" />
<path d="M86.5,931.5l0,-24" class="g2_299" />
<path d="M127.5,931.5l0,-24" class="g2_299" />
<path d="M168.5,931.5l0,-24" class="g2_299" />
<path d="M209.5,931.5l0,-24" class="g2_299" />
<path d="M488.5,931.5l0,-24" class="g2_299" />
<path d="M556.5,931.5l0,-24" class="g2_299" />
<path d="M887.5,931.5l0,-24" class="g2_299" />
<path fill-rule="evenodd" d="M47,956l39,0l0,-25l-39,0l0,25Z" class="g1_299" />
<path fill-rule="evenodd" d="M88,956l39,0l0,-25l-39,0l0,25Z" class="g1_299" />
<path fill-rule="evenodd" d="M129,956l39,0l0,-25l-39,0l0,25Z" class="g1_299" />
<path fill-rule="evenodd" d="M169,956l40,0l0,-25l-40,0l0,25Z" class="g1_299" />
<path fill-rule="evenodd" d="M210,956l278,0l0,-24l-278,0l0,24Z" class="g1_299" />
<g clip-path="url(#c21_299)">
<path fill-rule="evenodd" d="M218,956l263,0l0,-24l-263,0l0,24Z" class="g1_299" />
</g>
<path fill-rule="evenodd" d="M490,956l66,0l0,-24l-66,0l0,24Z" class="g1_299" />
<g clip-path="url(#c22_299)">
<path fill-rule="evenodd" d="M497,956l51,0l0,-24l-51,0l0,24Z" class="g1_299" />
</g>
<path fill-rule="evenodd" d="M557,956l330,0l0,-24l-330,0l0,24Z" class="g1_299" />
<g clip-path="url(#c23_299)">
<path fill-rule="evenodd" d="M565,956l315,0l0,-24l-315,0l0,24Z" class="g1_299" />
</g>
<path d="M46.5,932.5l0,-1" class="g2_299" />
<path d="M86.5,932.5l0,-1" class="g2_299" />
<path d="M127.5,932.5l0,-1" class="g2_299" />
<path d="M168.5,932.5l0,-1" class="g2_299" />
<path d="M209.5,932.5l0,-1" class="g2_299" />
<path d="M210.5,932.5l278,0" class="g2_299" />
<path d="M488.5,932.5l0,-1" class="g2_299" />
<path d="M490.5,932.5l66,0" class="g2_299" />
<path d="M556.5,932.5l0,-1" class="g2_299" />
<path d="M557.5,932.5l330,0" class="g2_299" />
<path d="M887.5,932.5l0,-1" class="g2_299" />
<path d="M46.5,956.5l0,-24" class="g2_299" />
<path d="M86.5,956.5l0,-24" class="g2_299" />
<path d="M127.5,956.5l0,-24" class="g2_299" />
<path d="M168.5,956.5l0,-24" class="g2_299" />
<path d="M209.5,956.5l0,-24" class="g2_299" />
<path d="M488.5,956.5l0,-24" class="g2_299" />
<path d="M556.5,956.5l0,-24" class="g2_299" />
<path d="M887.5,956.5l0,-24" class="g2_299" />
<path fill-rule="evenodd" d="M47,981l39,0l0,-25l-39,0l0,25Z" class="g1_299" />
<path fill-rule="evenodd" d="M88,981l39,0l0,-25l-39,0l0,25Z" class="g1_299" />
<path fill-rule="evenodd" d="M129,981l39,0l0,-25l-39,0l0,25Z" class="g1_299" />
<path fill-rule="evenodd" d="M169,981l40,0l0,-25l-40,0l0,25Z" class="g1_299" />
<path fill-rule="evenodd" d="M210,981l278,0l0,-23l-278,0l0,23Z" class="g1_299" />
<g clip-path="url(#c24_299)">
<path fill-rule="evenodd" d="M218,981l263,0l0,-23l-263,0l0,23Z" class="g1_299" />
</g>
<path fill-rule="evenodd" d="M490,981l66,0l0,-23l-66,0l0,23Z" class="g1_299" />
<g clip-path="url(#c25_299)">
<path fill-rule="evenodd" d="M497,981l51,0l0,-23l-51,0l0,23Z" class="g1_299" />
</g>
<path fill-rule="evenodd" d="M557,981l330,0l0,-23l-330,0l0,23Z" class="g1_299" />
<g clip-path="url(#c26_299)">
<path fill-rule="evenodd" d="M565,981l315,0l0,-23l-315,0l0,23Z" class="g1_299" />
</g>
<path d="M46.5,958.5l0,-2" class="g2_299" />
<path d="M86.5,958.5l0,-2" class="g2_299" />
<path d="M127.5,958.5l0,-2" class="g2_299" />
<path d="M168.5,958.5l0,-2" class="g2_299" />
<path d="M209.5,958.5l0,-2" class="g2_299" />
<path d="M210.5,958.5l278,0" class="g2_299" />
<path d="M488.5,958.5l0,-2" class="g2_299" />
<path d="M490.5,958.5l66,0" class="g2_299" />
<path d="M556.5,958.5l0,-2" class="g2_299" />
<path d="M557.5,958.5l330,0" class="g2_299" />
<path d="M887.5,958.5l0,-2" class="g2_299" />
<path d="M46.5,981.5l0,-23" class="g2_299" />
<path d="M86.5,981.5l0,-23" class="g2_299" />
<path d="M127.5,981.5l0,-23" class="g2_299" />
<path d="M168.5,981.5l0,-23" class="g2_299" />
<path d="M209.5,981.5l0,-23" class="g2_299" />
<path d="M488.5,981.5l0,-23" class="g2_299" />
<path d="M556.5,981.5l0,-23" class="g2_299" />
<path d="M887.5,981.5l0,-23" class="g2_299" />
<path fill-rule="evenodd" d="M47,1031l39,0l0,-50l-39,0l0,50Z" class="g1_299" />
<path fill-rule="evenodd" d="M88,1031l39,0l0,-50l-39,0l0,50Z" class="g1_299" />
<path fill-rule="evenodd" d="M129,1031l39,0l0,-50l-39,0l0,50Z" class="g1_299" />
<path fill-rule="evenodd" d="M169,1031l40,0l0,-50l-40,0l0,50Z" class="g1_299" />
<path fill-rule="evenodd" d="M210,1031l278,0l0,-48l-278,0l0,48Z" class="g1_299" />
<path fill-rule="evenodd" d="M218,1007l263,0l0,-24l-263,0l0,24Z" class="g1_299" />
<path fill-rule="evenodd" d="M490,1031l66,0l0,-48l-66,0l0,48Z" class="g1_299" />
<path fill-rule="evenodd" d="M497,1007l51,0l0,-24l-51,0l0,24Z" class="g1_299" />
<path fill-rule="evenodd" d="M557,1031l330,0l0,-48l-330,0l0,48Z" class="g1_299" />
<path fill-rule="evenodd" d="M565,1007l315,0l0,-24l-315,0l0,24Z" class="g1_299" />
<g clip-path="url(#c27_299)">
<path fill-rule="evenodd" d="M565,1031l315,0l0,-24l-315,0l0,24Z" class="g1_299" />
</g>
<path d="M46.5,983.5l0,-2" class="g2_299" />
<path d="M86.5,983.5l0,-2" class="g2_299" />
<path d="M127.5,983.5l0,-2" class="g2_299" />
<path d="M168.5,983.5l0,-2" class="g2_299" />
<path d="M209.5,983.5l0,-2" class="g2_299" />
<path d="M210.5,983.5l278,0" class="g2_299" />
<path d="M488.5,983.5l0,-2" class="g2_299" />
<path d="M490.5,983.5l66,0" class="g2_299" />
<path d="M556.5,983.5l0,-2" class="g2_299" />
<path d="M557.5,983.5l330,0" class="g2_299" />
<path d="M887.5,983.5l0,-2" class="g2_299" />
<path d="M46.5,1031.5l0,-48" class="g2_299" />
<path d="M86.5,1031.5l0,-48" class="g2_299" />
<path d="M127.5,1031.5l0,-48" class="g2_299" />
<path d="M168.5,1031.5l0,-48" class="g2_299" />
<path d="M209.5,1031.5l0,-48" class="g2_299" />
<path d="M488.5,1031.5l0,-48" class="g2_299" />
<path d="M556.5,1031.5l0,-48" class="g2_299" />
<path d="M887.5,1031.5l0,-48" class="g2_299" />
<path fill-rule="evenodd" d="M47,1056l39,0l0,-25l-39,0l0,25Z" class="g1_299" />
<path fill-rule="evenodd" d="M88,1056l39,0l0,-25l-39,0l0,25Z" class="g1_299" />
<path fill-rule="evenodd" d="M129,1056l39,0l0,-25l-39,0l0,25Z" class="g1_299" />
<path fill-rule="evenodd" d="M169,1056l40,0l0,-25l-40,0l0,25Z" class="g1_299" />
<path fill-rule="evenodd" d="M210,1056l278,0l0,-24l-278,0l0,24Z" class="g1_299" />
<g clip-path="url(#c28_299)">
<path fill-rule="evenodd" d="M218,1056l263,0l0,-24l-263,0l0,24Z" class="g1_299" />
</g>
<path fill-rule="evenodd" d="M490,1056l66,0l0,-24l-66,0l0,24Z" class="g1_299" />
<g clip-path="url(#c29_299)">
<path fill-rule="evenodd" d="M497,1056l51,0l0,-24l-51,0l0,24Z" class="g1_299" />
</g>
<path fill-rule="evenodd" d="M557,1056l330,0l0,-24l-330,0l0,24Z" class="g1_299" />
<g clip-path="url(#c30_299)">
<path fill-rule="evenodd" d="M565,1056l315,0l0,-24l-315,0l0,24Z" class="g1_299" />
</g>
<path d="M46.5,1032.5l0,-1" class="g2_299" />
<path d="M86.5,1032.5l0,-1" class="g2_299" />
<path d="M127.5,1032.5l0,-1" class="g2_299" />
<path d="M168.5,1032.5l0,-1" class="g2_299" />
<path d="M209.5,1032.5l0,-1" class="g2_299" />
<path d="M210.5,1032.5l278,0" class="g2_299" />
<path d="M488.5,1032.5l0,-1" class="g2_299" />
<path d="M490.5,1032.5l66,0" class="g2_299" />
<path d="M556.5,1032.5l0,-1" class="g2_299" />
<path d="M557.5,1032.5l330,0" class="g2_299" />
<path d="M887.5,1032.5l0,-1" class="g2_299" />
<path d="M46.5,1056.5l0,-24" class="g2_299" />
<path d="M86.5,1056.5l0,-24" class="g2_299" />
<path d="M127.5,1056.5l0,-24" class="g2_299" />
<path d="M168.5,1056.5l0,-24" class="g2_299" />
<path d="M209.5,1056.5l0,-24" class="g2_299" />
<path d="M488.5,1056.5l0,-24" class="g2_299" />
<path d="M556.5,1056.5l0,-24" class="g2_299" />
<path d="M887.5,1056.5l0,-24" class="g2_299" />
<path fill-rule="evenodd" d="M47,1081l39,0l0,-25l-39,0l0,25Z" class="g1_299" />
<path fill-rule="evenodd" d="M88,1081l39,0l0,-25l-39,0l0,25Z" class="g1_299" />
<path fill-rule="evenodd" d="M129,1081l39,0l0,-25l-39,0l0,25Z" class="g1_299" />
<path fill-rule="evenodd" d="M169,1081l40,0l0,-25l-40,0l0,25Z" class="g1_299" />
<path fill-rule="evenodd" d="M210,1081l278,0l0,-24l-278,0l0,24Z" class="g1_299" />
<g clip-path="url(#c31_299)">
<path fill-rule="evenodd" d="M218,1081l263,0l0,-24l-263,0l0,24Z" class="g1_299" />
</g>
<path fill-rule="evenodd" d="M490,1081l66,0l0,-24l-66,0l0,24Z" class="g1_299" />
<g clip-path="url(#c32_299)">
<path fill-rule="evenodd" d="M497,1081l51,0l0,-24l-51,0l0,24Z" class="g1_299" />
</g>
<path fill-rule="evenodd" d="M557,1081l330,0l0,-24l-330,0l0,24Z" class="g1_299" />
<g clip-path="url(#c33_299)">
<path fill-rule="evenodd" d="M565,1081l315,0l0,-24l-315,0l0,24Z" class="g1_299" />
</g>
<path d="M46.5,1057.5l0,-1" class="g2_299" />
<path d="M86.5,1057.5l0,-1" class="g2_299" />
<path d="M127.5,1057.5l0,-1" class="g2_299" />
<path d="M168.5,1057.5l0,-1" class="g2_299" />
<path d="M209.5,1057.5l0,-1" class="g2_299" />
<path d="M210.5,1057.5l278,0" class="g2_299" />
<path d="M488.5,1057.5l0,-1" class="g2_299" />
<path d="M490.5,1057.5l66,0" class="g2_299" />
<path d="M556.5,1057.5l0,-1" class="g2_299" />
<path d="M557.5,1057.5l330,0" class="g2_299" />
<path d="M887.5,1057.5l0,-1" class="g2_299" />
<path d="M46.5,1081.5l0,-24" class="g2_299" />
<path d="M46.5,1083.5l0,-2" class="g2_299" />
<path d="M46.5,1083.5l0,-2" class="g2_299" />
<path d="M47.5,1083.5l39,0" class="g2_299" />
<path d="M86.5,1081.5l0,-24" class="g2_299" />
<path d="M86.5,1083.5l0,-2" class="g2_299" />
<path d="M88.5,1083.5l39,0" class="g2_299" />
<path d="M127.5,1081.5l0,-24" class="g2_299" />
<path d="M127.5,1083.5l0,-2" class="g2_299" />
<path d="M129.5,1083.5l39,0" class="g2_299" />
<path d="M168.5,1081.5l0,-24" class="g2_299" />
<path d="M168.5,1083.5l0,-2" class="g2_299" />
<path d="M169.5,1083.5l40,0" class="g2_299" />
<path d="M209.5,1081.5l0,-24" class="g2_299" />
<path d="M209.5,1083.5l0,-2" class="g2_299" />
<path d="M210.5,1083.5l278,0" class="g2_299" />
<path d="M488.5,1081.5l0,-24" class="g2_299" />
<path d="M488.5,1083.5l0,-2" class="g2_299" />
<path d="M490.5,1083.5l66,0" class="g2_299" />
<path d="M556.5,1081.5l0,-24" class="g2_299" />
<path d="M556.5,1083.5l0,-2" class="g2_299" />
<path d="M557.5,1083.5l330,0" class="g2_299" />
<path d="M887.5,1081.5l0,-24" class="g2_299" />
<path d="M887.5,1083.5l0,-2" class="g2_299" />
<path d="M887.5,1083.5l0,-2" class="g2_299" />
</svg>