<?xml version="1.0" encoding="UTF-8" standalone="no"?>
<!DOCTYPE svg PUBLIC "-//W3C//DTD SVG 1.1//EN"
"http://www.w3.org/Graphics/SVG/1.1/DTD/svg11.dtd">
<svg version="1.1" xmlns="http://www.w3.org/2000/svg" xmlns:xlink="http://www.w3.org/1999/xlink">
<defs>
<clipPath id="c0_320"><path d="M47.5,682.5l0,-24l177,0l0,24Z" /></clipPath>
<clipPath id="c1_320"><path d="M226.5,682.5l0,-24l162,0l0,24Z" /></clipPath>
<clipPath id="c2_320"><path d="M390.5,682.5l0,-24l163,0l0,24Z" /></clipPath>
<clipPath id="c3_320"><path d="M554.5,682.5l0,-24l163,0l0,24Z" /></clipPath>
<clipPath id="c4_320"><path d="M719.5,682.5l0,-24l168,0l0,24Z" /></clipPath>
<clipPath id="c5_320"><path d="M47.5,795.5l0,-25l247,0l0,25Z" /></clipPath>
<clipPath id="c6_320"><path d="M296.5,795.5l0,-25l108,0l0,25Z" /></clipPath>
<clipPath id="c7_320"><path d="M406.5,795.5l0,-25l102,0l0,25Z" /></clipPath>
<clipPath id="c8_320"><path d="M509.5,795.5l0,-25l378,0l0,25Z" /></clipPath>
<clipPath id="c9_320"><path d="M47.5,1089.5l0,-293l39,0l0,293Z" /></clipPath>
<clipPath id="c10_320"><path d="M88.5,844.5l0,-48l206,0l0,48Z" /></clipPath>
<clipPath id="c11_320"><path d="M296.5,844.5l0,-48l108,0l0,48Z" /></clipPath>
<clipPath id="c12_320"><path d="M406.5,844.5l0,-48l102,0l0,48Z" /></clipPath>
<clipPath id="c13_320"><path d="M509.5,844.5l0,-48l378,0l0,48Z" /></clipPath>
<clipPath id="c14_320"><path d="M88.5,870.5l0,-25l206,0l0,25Z" /></clipPath>
<clipPath id="c15_320"><path d="M296.5,870.5l0,-25l108,0l0,25Z" /></clipPath>
<clipPath id="c16_320"><path d="M406.5,870.5l0,-25l102,0l0,25Z" /></clipPath>
<clipPath id="c17_320"><path d="M509.5,870.5l0,-25l378,0l0,25Z" /></clipPath>
<clipPath id="c18_320"><path d="M88.5,1089.5l0,-218l39,0l0,218Z" /></clipPath>
<clipPath id="c19_320"><path d="M129.5,1016.5l0,-145l39,0l0,145Z" /></clipPath>
<clipPath id="c20_320"><path d="M169.5,943.5l0,-72l125,0l0,72Z" /></clipPath>
<clipPath id="c21_320"><path d="M296.5,943.5l0,-72l108,0l0,72Z" /></clipPath>
<clipPath id="c22_320"><path d="M406.5,943.5l0,-72l102,0l0,72Z" /></clipPath>
<clipPath id="c23_320"><path d="M509.5,943.5l0,-72l378,0l0,72Z" /></clipPath>
<clipPath id="c24_320"><path d="M509.5,1016.5l0,-72l378,0l0,72Z" /></clipPath>
<clipPath id="c25_320"><path d="M509.5,1089.5l0,-72l378,0l0,72Z" /></clipPath>
<style type="text/css"><![CDATA[
.g2_320{
fill: none;
stroke: #7E7E7E;
stroke-width: 1;
stroke-linecap: butt;
stroke-linejoin: miter;
}
.g3_320{
fill: #DBE5F1;
}
.g1_320{
fill: #F1F1F1;
}
]]></style>
</defs>
<path fill-rule="evenodd" d="M47,450l840,0l0,-24L47,426l0,24Z" class="g1_320" />
<path fill-rule="evenodd" d="M55,450l825,0l0,-24L55,426l0,24Z" class="g1_320" />
<path d="M46.5,426.5l0,-1" class="g2_320" />
<path d="M46.5,426.5l0,-1" class="g2_320" />
<path d="M47.5,426.5l840,0" class="g2_320" />
<path d="M887.5,426.5l0,-1" class="g2_320" />
<path d="M887.5,426.5l0,-1" class="g2_320" />
<path d="M46.5,450.5l0,-24" class="g2_320" />
<path d="M46.5,452.5l0,-2" class="g2_320" />
<path d="M46.5,452.5l0,-2" class="g2_320" />
<path d="M47.5,452.5l840,0" class="g2_320" />
<path d="M887.5,450.5l0,-24" class="g2_320" />
<path d="M887.5,452.5l0,-2" class="g2_320" />
<path d="M887.5,452.5l0,-2" class="g2_320" />
<path fill-rule="evenodd" d="M47,557l178,0l0,-24L47,533l0,24Z" class="g3_320" />
<path fill-rule="evenodd" d="M55,557l162,0l0,-24L55,533l0,24Z" class="g3_320" />
<path fill-rule="evenodd" d="M226,557l163,0l0,-24l-163,0l0,24Z" class="g3_320" />
<path fill-rule="evenodd" d="M234,557l147,0l0,-24l-147,0l0,24Z" class="g3_320" />
<path fill-rule="evenodd" d="M390,557l497,0l0,-24l-497,0l0,24Z" class="g3_320" />
<path fill-rule="evenodd" d="M398,557l482,0l0,-24l-482,0l0,24Z" class="g3_320" />
<path d="M46.5,533.5l0,-1" class="g2_320" />
<path d="M46.5,533.5l0,-1" class="g2_320" />
<path d="M47.5,533.5l178,0" class="g2_320" />
<path d="M225.5,533.5l0,-1" class="g2_320" />
<path d="M226.5,533.5l163,0" class="g2_320" />
<path d="M389.5,533.5l0,-1" class="g2_320" />
<path d="M390.5,533.5l497,0" class="g2_320" />
<path d="M887.5,533.5l0,-1" class="g2_320" />
<path d="M887.5,533.5l0,-1" class="g2_320" />
<path d="M46.5,557.5l0,-24" class="g2_320" />
<path d="M225.5,557.5l0,-24" class="g2_320" />
<path d="M389.5,557.5l0,-24" class="g2_320" />
<path d="M887.5,557.5l0,-24" class="g2_320" />
<path fill-rule="evenodd" d="M47,582l178,0l0,-23L47,559l0,23Z" class="g1_320" />
<path fill-rule="evenodd" d="M55,582l162,0l0,-23L55,559l0,23Z" class="g1_320" />
<path fill-rule="evenodd" d="M226,582l163,0l0,-23l-163,0l0,23Z" class="g1_320" />
<path fill-rule="evenodd" d="M234,582l147,0l0,-23l-147,0l0,23Z" class="g1_320" />
<path fill-rule="evenodd" d="M390,582l497,0l0,-23l-497,0l0,23Z" class="g1_320" />
<path fill-rule="evenodd" d="M398,582l482,0l0,-23l-482,0l0,23Z" class="g1_320" />
<path d="M46.5,559.5l0,-2" class="g2_320" />
<path d="M47.5,559.5l178,0" class="g2_320" />
<path d="M225.5,559.5l0,-2" class="g2_320" />
<path d="M226.5,559.5l163,0" class="g2_320" />
<path d="M389.5,559.5l0,-2" class="g2_320" />
<path d="M390.5,559.5l497,0" class="g2_320" />
<path d="M887.5,559.5l0,-2" class="g2_320" />
<path d="M46.5,583.5l0,-24" class="g2_320" />
<path d="M46.5,584.5l0,-1" class="g2_320" />
<path d="M46.5,584.5l0,-1" class="g2_320" />
<path d="M47.5,584.5l178,0" class="g2_320" />
<path d="M225.5,583.5l0,-24" class="g2_320" />
<path d="M225.5,584.5l0,-1" class="g2_320" />
<path d="M226.5,584.5l163,0" class="g2_320" />
<path d="M389.5,583.5l0,-24" class="g2_320" />
<path d="M389.5,584.5l0,-1" class="g2_320" />
<path d="M390.5,584.5l497,0" class="g2_320" />
<path d="M887.5,583.5l0,-24" class="g2_320" />
<path d="M887.5,584.5l0,-1" class="g2_320" />
<path d="M887.5,584.5l0,-1" class="g2_320" />
<path fill-rule="evenodd" d="M47,657l177,0l0,-24L47,633l0,24Z" class="g3_320" />
<path fill-rule="evenodd" d="M55,657l162,0l0,-24L55,633l0,24Z" class="g3_320" />
<path fill-rule="evenodd" d="M226,657l162,0l0,-24l-162,0l0,24Z" class="g3_320" />
<path fill-rule="evenodd" d="M233,657l148,0l0,-24l-148,0l0,24Z" class="g3_320" />
<path fill-rule="evenodd" d="M390,657l163,0l0,-24l-163,0l0,24Z" class="g3_320" />
<path fill-rule="evenodd" d="M397,657l148,0l0,-24l-148,0l0,24Z" class="g3_320" />
<path fill-rule="evenodd" d="M554,657l163,0l0,-24l-163,0l0,24Z" class="g3_320" />
<path fill-rule="evenodd" d="M562,657l148,0l0,-24l-148,0l0,24Z" class="g3_320" />
<path fill-rule="evenodd" d="M719,657l168,0l0,-24l-168,0l0,24Z" class="g3_320" />
<path fill-rule="evenodd" d="M726,657l154,0l0,-24l-154,0l0,24Z" class="g3_320" />
<path d="M46.5,633.5l0,-1" class="g2_320" />
<path d="M46.5,633.5l0,-1" class="g2_320" />
<path d="M47.5,633.5l177,0" class="g2_320" />
<path d="M224.5,633.5l0,-1" class="g2_320" />
<path d="M226.5,633.5l162,0" class="g2_320" />
<path d="M388.5,633.5l0,-1" class="g2_320" />
<path d="M390.5,633.5l163,0" class="g2_320" />
<path d="M553.5,633.5l0,-1" class="g2_320" />
<path d="M554.5,633.5l163,0" class="g2_320" />
<path d="M717.5,633.5l0,-1" class="g2_320" />
<path d="M719.5,633.5l168,0" class="g2_320" />
<path d="M887.5,633.5l0,-1" class="g2_320" />
<path d="M887.5,633.5l0,-1" class="g2_320" />
<path d="M46.5,657.5l0,-24" class="g2_320" />
<path d="M224.5,657.5l0,-24" class="g2_320" />
<path d="M388.5,657.5l0,-24" class="g2_320" />
<path d="M553.5,657.5l0,-24" class="g2_320" />
<path d="M717.5,657.5l0,-24" class="g2_320" />
<path d="M887.5,657.5l0,-24" class="g2_320" />
<path fill-rule="evenodd" d="M47,682l177,0l0,-24L47,658l0,24Z" class="g1_320" />
<g clip-path="url(#c0_320)">
<path fill-rule="evenodd" d="M55,682l162,0l0,-24L55,658l0,24Z" class="g1_320" />
</g>
<path fill-rule="evenodd" d="M226,682l162,0l0,-24l-162,0l0,24Z" class="g1_320" />
<g clip-path="url(#c1_320)">
<path fill-rule="evenodd" d="M233,682l148,0l0,-24l-148,0l0,24Z" class="g1_320" />
</g>
<path fill-rule="evenodd" d="M390,682l163,0l0,-24l-163,0l0,24Z" class="g1_320" />
<g clip-path="url(#c2_320)">
<path fill-rule="evenodd" d="M397,682l148,0l0,-24l-148,0l0,24Z" class="g1_320" />
</g>
<path fill-rule="evenodd" d="M554,682l163,0l0,-24l-163,0l0,24Z" class="g1_320" />
<g clip-path="url(#c3_320)">
<path fill-rule="evenodd" d="M562,682l148,0l0,-24l-148,0l0,24Z" class="g1_320" />
</g>
<path fill-rule="evenodd" d="M719,682l168,0l0,-24l-168,0l0,24Z" class="g1_320" />
<g clip-path="url(#c4_320)">
<path fill-rule="evenodd" d="M726,682l154,0l0,-24l-154,0l0,24Z" class="g1_320" />
</g>
<path d="M46.5,658.5l0,-1" class="g2_320" />
<path d="M47.5,658.5l177,0" class="g2_320" />
<path d="M224.5,658.5l0,-1" class="g2_320" />
<path d="M226.5,658.5l162,0" class="g2_320" />
<path d="M388.5,658.5l0,-1" class="g2_320" />
<path d="M390.5,658.5l163,0" class="g2_320" />
<path d="M553.5,658.5l0,-1" class="g2_320" />
<path d="M554.5,658.5l163,0" class="g2_320" />
<path d="M717.5,658.5l0,-1" class="g2_320" />
<path d="M719.5,658.5l168,0" class="g2_320" />
<path d="M887.5,658.5l0,-1" class="g2_320" />
<path d="M46.5,683.5l0,-25" class="g2_320" />
<path d="M46.5,684.5l0,-1" class="g2_320" />
<path d="M46.5,684.5l0,-1" class="g2_320" />
<path d="M47.5,684.5l177,0" class="g2_320" />
<path d="M224.5,683.5l0,-25" class="g2_320" />
<path d="M224.5,684.5l0,-1" class="g2_320" />
<path d="M226.5,684.5l162,0" class="g2_320" />
<path d="M388.5,683.5l0,-25" class="g2_320" />
<path d="M388.5,684.5l0,-1" class="g2_320" />
<path d="M390.5,684.5l163,0" class="g2_320" />
<path d="M553.5,683.5l0,-25" class="g2_320" />
<path d="M553.5,684.5l0,-1" class="g2_320" />
<path d="M554.5,684.5l163,0" class="g2_320" />
<path d="M717.5,683.5l0,-25" class="g2_320" />
<path d="M717.5,684.5l0,-1" class="g2_320" />
<path d="M719.5,684.5l168,0" class="g2_320" />
<path d="M887.5,683.5l0,-25" class="g2_320" />
<path d="M887.5,684.5l0,-1" class="g2_320" />
<path d="M887.5,684.5l0,-1" class="g2_320" />
<path fill-rule="evenodd" d="M47,795l247,0l0,-25L47,770l0,25Z" class="g3_320" />
<g clip-path="url(#c5_320)">
<path fill-rule="evenodd" d="M55,794l232,0l0,-24L55,770l0,24Z" class="g3_320" />
</g>
<path fill-rule="evenodd" d="M296,795l108,0l0,-25l-108,0l0,25Z" class="g3_320" />
<g clip-path="url(#c6_320)">
<path fill-rule="evenodd" d="M303,794l94,0l0,-24l-94,0l0,24Z" class="g3_320" />
</g>
<path fill-rule="evenodd" d="M406,795l102,0l0,-25l-102,0l0,25Z" class="g3_320" />
<g clip-path="url(#c7_320)">
<path fill-rule="evenodd" d="M413,794l87,0l0,-24l-87,0l0,24Z" class="g3_320" />
</g>
<path fill-rule="evenodd" d="M509,795l378,0l0,-25l-378,0l0,25Z" class="g3_320" />
<g clip-path="url(#c8_320)">
<path fill-rule="evenodd" d="M517,794l363,0l0,-24l-363,0l0,24Z" class="g3_320" />
</g>
<path d="M46.5,770.5l0,-1" class="g2_320" />
<path d="M46.5,770.5l0,-1" class="g2_320" />
<path d="M47.5,770.5l248,0" class="g2_320" />
<path d="M295.5,770.5l0,-1" class="g2_320" />
<path d="M296.5,770.5l108,0" class="g2_320" />
<path d="M404.5,770.5l0,-1" class="g2_320" />
<path d="M406.5,770.5l102,0" class="g2_320" />
<path d="M508.5,770.5l0,-1" class="g2_320" />
<path d="M509.5,770.5l378,0" class="g2_320" />
<path d="M887.5,770.5l0,-1" class="g2_320" />
<path d="M887.5,770.5l0,-1" class="g2_320" />
<path d="M46.5,795.5l0,-25" class="g2_320" />
<path d="M295.5,795.5l0,-25" class="g2_320" />
<path d="M404.5,795.5l0,-25" class="g2_320" />
<path d="M508.5,795.5l0,-25" class="g2_320" />
<path d="M887.5,795.5l0,-25" class="g2_320" />
<path fill-rule="evenodd" d="M47,1089l39,0L86,796l-39,0l0,293Z" class="g1_320" />
<g clip-path="url(#c9_320)">
<path fill-rule="evenodd" d="M55,1089l23,0L78,796l-23,0l0,293Z" class="g1_320" />
</g>
<path fill-rule="evenodd" d="M88,844l206,0l0,-48L88,796l0,48Z" class="g1_320" />
<g clip-path="url(#c10_320)">
<path fill-rule="evenodd" d="M95,820l192,0l0,-24L95,796l0,24Z" class="g1_320" />
</g>
<path fill-rule="evenodd" d="M296,844l108,0l0,-48l-108,0l0,48Z" class="g1_320" />
<g clip-path="url(#c11_320)">
<path fill-rule="evenodd" d="M303,820l94,0l0,-24l-94,0l0,24Z" class="g1_320" />
</g>
<path fill-rule="evenodd" d="M406,844l102,0l0,-48l-102,0l0,48Z" class="g1_320" />
<g clip-path="url(#c12_320)">
<path fill-rule="evenodd" d="M413,820l87,0l0,-24l-87,0l0,24Z" class="g1_320" />
</g>
<path fill-rule="evenodd" d="M509,844l378,0l0,-48l-378,0l0,48Z" class="g1_320" />
<g clip-path="url(#c13_320)">
<path fill-rule="evenodd" d="M517,820l363,0l0,-24l-363,0l0,24Z" class="g1_320" />
</g>
<path fill-rule="evenodd" d="M517,844l363,0l0,-24l-363,0l0,24Z" class="g1_320" />
<path d="M46.5,796.5l0,-1" class="g2_320" />
<path d="M47.5,796.5l39,0" class="g2_320" />
<path d="M86.5,796.5l0,-1" class="g2_320" />
<path d="M88.5,796.5l207,0" class="g2_320" />
<path d="M295.5,796.5l0,-1" class="g2_320" />
<path d="M296.5,796.5l108,0" class="g2_320" />
<path d="M404.5,796.5l0,-1" class="g2_320" />
<path d="M406.5,796.5l102,0" class="g2_320" />
<path d="M508.5,796.5l0,-1" class="g2_320" />
<path d="M509.5,796.5l378,0" class="g2_320" />
<path d="M887.5,796.5l0,-1" class="g2_320" />
<path d="M46.5,844.5l0,-48" class="g2_320" />
<path d="M86.5,844.5l0,-48" class="g2_320" />
<path d="M295.5,844.5l0,-48" class="g2_320" />
<path d="M404.5,844.5l0,-48" class="g2_320" />
<path d="M508.5,844.5l0,-48" class="g2_320" />
<path d="M887.5,844.5l0,-48" class="g2_320" />
<path fill-rule="evenodd" d="M88,870l206,0l0,-25L88,845l0,25Z" class="g1_320" />
<g clip-path="url(#c14_320)">
<path fill-rule="evenodd" d="M95,869l192,0l0,-24L95,845l0,24Z" class="g1_320" />
</g>
<path fill-rule="evenodd" d="M296,870l108,0l0,-25l-108,0l0,25Z" class="g1_320" />
<g clip-path="url(#c15_320)">
<path fill-rule="evenodd" d="M303,869l94,0l0,-24l-94,0l0,24Z" class="g1_320" />
</g>
<path fill-rule="evenodd" d="M406,870l102,0l0,-25l-102,0l0,25Z" class="g1_320" />
<g clip-path="url(#c16_320)">
<path fill-rule="evenodd" d="M413,869l87,0l0,-24l-87,0l0,24Z" class="g1_320" />
</g>
<path fill-rule="evenodd" d="M509,870l378,0l0,-25l-378,0l0,25Z" class="g1_320" />
<g clip-path="url(#c17_320)">
<path fill-rule="evenodd" d="M517,869l363,0l0,-24l-363,0l0,24Z" class="g1_320" />
</g>
<path d="M46.5,845.5l0,-1" class="g2_320" />
<path d="M86.5,845.5l0,-1" class="g2_320" />
<path d="M88.5,845.5l207,0" class="g2_320" />
<path d="M295.5,845.5l0,-1" class="g2_320" />
<path d="M296.5,845.5l108,0" class="g2_320" />
<path d="M404.5,845.5l0,-1" class="g2_320" />
<path d="M406.5,845.5l102,0" class="g2_320" />
<path d="M508.5,845.5l0,-1" class="g2_320" />
<path d="M509.5,845.5l378,0" class="g2_320" />
<path d="M887.5,845.5l0,-1" class="g2_320" />
<path d="M46.5,870.5l0,-25" class="g2_320" />
<path d="M86.5,870.5l0,-25" class="g2_320" />
<path d="M295.5,870.5l0,-25" class="g2_320" />
<path d="M404.5,870.5l0,-25" class="g2_320" />
<path d="M508.5,870.5l0,-25" class="g2_320" />
<path d="M887.5,870.5l0,-25" class="g2_320" />
<path fill-rule="evenodd" d="M88,1089l39,0l0,-218l-39,0l0,218Z" class="g1_320" />
<g clip-path="url(#c18_320)">
<path fill-rule="evenodd" d="M95,895l25,0l0,-24l-25,0l0,24Z" class="g1_320" />
</g>
<path fill-rule="evenodd" d="M129,1016l39,0l0,-145l-39,0l0,145Z" class="g1_320" />
<g clip-path="url(#c19_320)">
<path fill-rule="evenodd" d="M136,895l25,0l0,-24l-25,0l0,24Z" class="g1_320" />
</g>
<path fill-rule="evenodd" d="M169,943l125,0l0,-72l-125,0l0,72Z" class="g1_320" />
<g clip-path="url(#c20_320)">
<path fill-rule="evenodd" d="M177,895l110,0l0,-24l-110,0l0,24Z" class="g1_320" />
</g>
<path fill-rule="evenodd" d="M296,943l108,0l0,-72l-108,0l0,72Z" class="g1_320" />
<g clip-path="url(#c21_320)">
<path fill-rule="evenodd" d="M303,895l94,0l0,-24l-94,0l0,24Z" class="g1_320" />
</g>
<path fill-rule="evenodd" d="M406,943l102,0l0,-72l-102,0l0,72Z" class="g1_320" />
<g clip-path="url(#c22_320)">
<path fill-rule="evenodd" d="M413,895l87,0l0,-24l-87,0l0,24Z" class="g1_320" />
</g>
<path fill-rule="evenodd" d="M509,943l378,0l0,-72l-378,0l0,72Z" class="g1_320" />
<g clip-path="url(#c23_320)">
<path fill-rule="evenodd" d="M517,895l363,0l0,-24l-363,0l0,24Z" class="g1_320" />
</g>
<path fill-rule="evenodd" d="M517,919l363,0l0,-24l-363,0l0,24Z" class="g1_320" />
<g clip-path="url(#c23_320)">
<path fill-rule="evenodd" d="M517,943l363,0l0,-24l-363,0l0,24Z" class="g1_320" />
</g>
<path d="M46.5,871.5l0,-1" class="g2_320" />
<path d="M86.5,871.5l0,-1" class="g2_320" />
<path d="M88.5,871.5l39,0" class="g2_320" />
<path d="M127.5,871.5l0,-1" class="g2_320" />
<path d="M129.5,871.5l39,0" class="g2_320" />
<path d="M168.5,871.5l0,-1" class="g2_320" />
<path d="M169.5,871.5l126,0" class="g2_320" />
<path d="M295.5,871.5l0,-1" class="g2_320" />
<path d="M296.5,871.5l108,0" class="g2_320" />
<path d="M404.5,871.5l0,-1" class="g2_320" />
<path d="M406.5,871.5l102,0" class="g2_320" />
<path d="M508.5,871.5l0,-1" class="g2_320" />
<path d="M509.5,871.5l378,0" class="g2_320" />
<path d="M887.5,871.5l0,-1" class="g2_320" />
<path d="M46.5,943.5l0,-72" class="g2_320" />
<path d="M86.5,943.5l0,-72" class="g2_320" />
<path d="M127.5,943.5l0,-72" class="g2_320" />
<path d="M168.5,943.5l0,-72" class="g2_320" />
<path d="M295.5,943.5l0,-72" class="g2_320" />
<path d="M404.5,943.5l0,-72" class="g2_320" />
<path d="M508.5,943.5l0,-72" class="g2_320" />
<path d="M887.5,943.5l0,-72" class="g2_320" />
<path fill-rule="evenodd" d="M169,1016l125,0l0,-72l-125,0l0,72Z" class="g1_320" />
<path fill-rule="evenodd" d="M177,968l110,0l0,-24l-110,0l0,24Z" class="g1_320" />
<path fill-rule="evenodd" d="M296,1016l108,0l0,-72l-108,0l0,72Z" class="g1_320" />
<path fill-rule="evenodd" d="M303,968l94,0l0,-24l-94,0l0,24Z" class="g1_320" />
<path fill-rule="evenodd" d="M406,1016l102,0l0,-72l-102,0l0,72Z" class="g1_320" />
<path fill-rule="evenodd" d="M413,968l87,0l0,-24l-87,0l0,24Z" class="g1_320" />
<path fill-rule="evenodd" d="M509,1016l378,0l0,-72l-378,0l0,72Z" class="g1_320" />
<path fill-rule="evenodd" d="M517,968l363,0l0,-24l-363,0l0,24Z" class="g1_320" />
<path fill-rule="evenodd" d="M517,992l363,0l0,-24l-363,0l0,24Z" class="g1_320" />
<g clip-path="url(#c24_320)">
<path fill-rule="evenodd" d="M517,1016l363,0l0,-24l-363,0l0,24Z" class="g1_320" />
</g>
<path d="M46.5,944.5l0,-1" class="g2_320" />
<path d="M86.5,944.5l0,-1" class="g2_320" />
<path d="M127.5,944.5l0,-1" class="g2_320" />
<path d="M168.5,944.5l0,-1" class="g2_320" />
<path d="M169.5,944.5l126,0" class="g2_320" />
<path d="M295.5,944.5l0,-1" class="g2_320" />
<path d="M296.5,944.5l108,0" class="g2_320" />
<path d="M404.5,944.5l0,-1" class="g2_320" />
<path d="M406.5,944.5l102,0" class="g2_320" />
<path d="M508.5,944.5l0,-1" class="g2_320" />
<path d="M509.5,944.5l378,0" class="g2_320" />
<path d="M887.5,944.5l0,-1" class="g2_320" />
<path d="M46.5,1016.5l0,-72" class="g2_320" />
<path d="M86.5,1016.5l0,-72" class="g2_320" />
<path d="M127.5,1016.5l0,-72" class="g2_320" />
<path d="M168.5,1016.5l0,-72" class="g2_320" />
<path d="M295.5,1016.5l0,-72" class="g2_320" />
<path d="M404.5,1016.5l0,-72" class="g2_320" />
<path d="M508.5,1016.5l0,-72" class="g2_320" />
<path d="M887.5,1016.5l0,-72" class="g2_320" />
<path fill-rule="evenodd" d="M129,1089l165,0l0,-72l-165,0l0,72Z" class="g1_320" />
<path fill-rule="evenodd" d="M136,1041l151,0l0,-24l-151,0l0,24Z" class="g1_320" />
<path fill-rule="evenodd" d="M296,1089l108,0l0,-72l-108,0l0,72Z" class="g1_320" />
<path fill-rule="evenodd" d="M303,1041l94,0l0,-24l-94,0l0,24Z" class="g1_320" />
<path fill-rule="evenodd" d="M406,1089l102,0l0,-72l-102,0l0,72Z" class="g1_320" />
<path fill-rule="evenodd" d="M413,1041l87,0l0,-24l-87,0l0,24Z" class="g1_320" />
<path fill-rule="evenodd" d="M509,1089l378,0l0,-72l-378,0l0,72Z" class="g1_320" />
<path fill-rule="evenodd" d="M517,1041l363,0l0,-24l-363,0l0,24Z" class="g1_320" />
<path fill-rule="evenodd" d="M517,1065l363,0l0,-24l-363,0l0,24Z" class="g1_320" />
<g clip-path="url(#c25_320)">
<path fill-rule="evenodd" d="M517,1089l363,0l0,-24l-363,0l0,24Z" class="g1_320" />
</g>
<path d="M46.5,1017.5l0,-1" class="g2_320" />
<path d="M86.5,1017.5l0,-1" class="g2_320" />
<path d="M127.5,1017.5l0,-1" class="g2_320" />
<path d="M129.5,1017.5l39,0" class="g2_320" />
<path d="M168.5,1017.5l0,-1" class="g2_320" />
<path d="M169.5,1017.5l126,0" class="g2_320" />
<path d="M295.5,1017.5l0,-1" class="g2_320" />
<path d="M296.5,1017.5l108,0" class="g2_320" />
<path d="M404.5,1017.5l0,-1" class="g2_320" />
<path d="M406.5,1017.5l102,0" class="g2_320" />
<path d="M508.5,1017.5l0,-1" class="g2_320" />
<path d="M509.5,1017.5l378,0" class="g2_320" />
<path d="M887.5,1017.5l0,-1" class="g2_320" />
<path d="M46.5,1089.5l0,-72" class="g2_320" />
<path d="M46.5,1090.5l0,-1" class="g2_320" />
<path d="M46.5,1090.5l0,-1" class="g2_320" />
<path d="M47.5,1090.5l39,0" class="g2_320" />
<path d="M86.5,1089.5l0,-72" class="g2_320" />
<path d="M86.5,1090.5l0,-1" class="g2_320" />
<path d="M88.5,1090.5l39,0" class="g2_320" />
<path d="M127.5,1089.5l0,-72" class="g2_320" />
<path d="M127.5,1090.5l0,-1" class="g2_320" />
<path d="M129.5,1090.5l166,0" class="g2_320" />
<path d="M295.5,1089.5l0,-72" class="g2_320" />
<path d="M295.5,1090.5l0,-1" class="g2_320" />
<path d="M296.5,1090.5l108,0" class="g2_320" />
<path d="M404.5,1089.5l0,-72" class="g2_320" />
<path d="M404.5,1090.5l0,-1" class="g2_320" />
<path d="M406.5,1090.5l102,0" class="g2_320" />
<path d="M508.5,1089.5l0,-72" class="g2_320" />
<path d="M508.5,1090.5l0,-1" class="g2_320" />
<path d="M509.5,1090.5l378,0" class="g2_320" />
<path d="M887.5,1089.5l0,-72" class="g2_320" />
<path d="M887.5,1090.5l0,-1" class="g2_320" />
<path d="M887.5,1090.5l0,-1" class="g2_320" />
</svg>