<?xml version="1.0" encoding="UTF-8" standalone="no"?>
<!DOCTYPE svg PUBLIC "-//W3C//DTD SVG 1.1//EN"
"http://www.w3.org/Graphics/SVG/1.1/DTD/svg11.dtd">
<svg version="1.1" xmlns="http://www.w3.org/2000/svg" xmlns:xlink="http://www.w3.org/1999/xlink">
<defs>
<clipPath id="c0_324"><path d="M47.5,199.5l0,-25l432,0l0,25Z" /></clipPath>
<clipPath id="c1_324"><path d="M481.5,199.5l0,-25l73,0l0,25Z" /></clipPath>
<clipPath id="c2_324"><path d="M555.5,199.5l0,-25l332,0l0,25Z" /></clipPath>
<clipPath id="c3_324"><path d="M47.5,962.5l0,-762l39,0l0,762Z" /></clipPath>
<clipPath id="c4_324"><path d="M88.5,248.5l0,-48l391,0l0,48Z" /></clipPath>
<clipPath id="c5_324"><path d="M481.5,248.5l0,-48l73,0l0,48Z" /></clipPath>
<clipPath id="c6_324"><path d="M555.5,248.5l0,-48l332,0l0,48Z" /></clipPath>
<clipPath id="c7_324"><path d="M88.5,274.5l0,-24l391,0l0,24Z" /></clipPath>
<clipPath id="c8_324"><path d="M481.5,274.5l0,-24l73,0l0,24Z" /></clipPath>
<clipPath id="c9_324"><path d="M555.5,274.5l0,-24l332,0l0,24Z" /></clipPath>
<clipPath id="c10_324"><path d="M88.5,300.5l0,-25l391,0l0,25Z" /></clipPath>
<clipPath id="c11_324"><path d="M481.5,300.5l0,-25l73,0l0,25Z" /></clipPath>
<clipPath id="c12_324"><path d="M555.5,300.5l0,-25l332,0l0,25Z" /></clipPath>
<clipPath id="c13_324"><path d="M88.5,962.5l0,-661l39,0l0,661Z" /></clipPath>
<clipPath id="c14_324"><path d="M129.5,403.5l0,-102l39,0l0,102Z" /></clipPath>
<clipPath id="c15_324"><path d="M169.5,326.5l0,-25l310,0l0,25Z" /></clipPath>
<clipPath id="c16_324"><path d="M481.5,326.5l0,-25l73,0l0,25Z" /></clipPath>
<clipPath id="c17_324"><path d="M555.5,326.5l0,-25l332,0l0,25Z" /></clipPath>
<clipPath id="c18_324"><path d="M169.5,352.5l0,-25l310,0l0,25Z" /></clipPath>
<clipPath id="c19_324"><path d="M481.5,352.5l0,-25l73,0l0,25Z" /></clipPath>
<clipPath id="c20_324"><path d="M555.5,352.5l0,-25l332,0l0,25Z" /></clipPath>
<clipPath id="c21_324"><path d="M169.5,377.5l0,-24l310,0l0,24Z" /></clipPath>
<clipPath id="c22_324"><path d="M481.5,377.5l0,-24l73,0l0,24Z" /></clipPath>
<clipPath id="c23_324"><path d="M555.5,377.5l0,-24l332,0l0,24Z" /></clipPath>
<clipPath id="c24_324"><path d="M169.5,403.5l0,-24l310,0l0,24Z" /></clipPath>
<clipPath id="c25_324"><path d="M481.5,403.5l0,-24l73,0l0,24Z" /></clipPath>
<clipPath id="c26_324"><path d="M555.5,403.5l0,-24l332,0l0,24Z" /></clipPath>
<clipPath id="c27_324"><path d="M129.5,962.5l0,-557l39,0l0,557Z" /></clipPath>
<clipPath id="c28_324"><path d="M169.5,962.5l0,-557l40,0l0,557Z" /></clipPath>
<clipPath id="c29_324"><path d="M210.5,502.5l0,-72l269,0l0,72Z" /></clipPath>
<clipPath id="c30_324"><path d="M481.5,502.5l0,-72l73,0l0,72Z" /></clipPath>
<clipPath id="c31_324"><path d="M555.5,502.5l0,-72l332,0l0,72Z" /></clipPath>
<clipPath id="c32_324"><path d="M555.5,962.5l0,-167l332,0l0,167Z" /></clipPath>
<style type="text/css"><![CDATA[
.g2_324{
fill: none;
stroke: #7E7E7E;
stroke-width: 1;
stroke-linecap: butt;
stroke-linejoin: miter;
}
.g3_324{
fill: #F1F1F1;
}
.g1_324{
fill: #DBE5F1;
}
]]></style>
</defs>
<path fill-rule="evenodd" d="M47,199l432,0l0,-25L47,174l0,25Z" class="g1_324" />
<g clip-path="url(#c0_324)">
<path fill-rule="evenodd" d="M55,198l417,0l0,-24L55,174l0,24Z" class="g1_324" />
</g>
<path fill-rule="evenodd" d="M481,199l73,0l0,-25l-73,0l0,25Z" class="g1_324" />
<g clip-path="url(#c1_324)">
<path fill-rule="evenodd" d="M488,198l58,0l0,-24l-58,0l0,24Z" class="g1_324" />
</g>
<path fill-rule="evenodd" d="M555,199l332,0l0,-25l-332,0l0,25Z" class="g1_324" />
<g clip-path="url(#c2_324)">
<path fill-rule="evenodd" d="M563,198l317,0l0,-24l-317,0l0,24Z" class="g1_324" />
</g>
<path d="M46.5,174.5l0,-1" class="g2_324" />
<path d="M46.5,174.5l0,-1" class="g2_324" />
<path d="M47.5,174.5l432,0" class="g2_324" />
<path d="M479.5,174.5l0,-1" class="g2_324" />
<path d="M481.5,174.5l73,0" class="g2_324" />
<path d="M554.5,174.5l0,-1" class="g2_324" />
<path d="M555.5,174.5l332,0" class="g2_324" />
<path d="M887.5,174.5l0,-1" class="g2_324" />
<path d="M887.5,174.5l0,-1" class="g2_324" />
<path d="M46.5,199.5l0,-25" class="g2_324" />
<path d="M479.5,199.5l0,-25" class="g2_324" />
<path d="M554.5,199.5l0,-25" class="g2_324" />
<path d="M887.5,199.5l0,-25" class="g2_324" />
<path fill-rule="evenodd" d="M47,962l39,0L86,200l-39,0l0,762Z" class="g3_324" />
<g clip-path="url(#c3_324)">
<path fill-rule="evenodd" d="M55,962l23,0L78,200l-23,0l0,762Z" class="g3_324" />
</g>
<path fill-rule="evenodd" d="M88,248l391,0l0,-48L88,200l0,48Z" class="g3_324" />
<g clip-path="url(#c4_324)">
<path fill-rule="evenodd" d="M95,224l377,0l0,-24L95,200l0,24Z" class="g3_324" />
</g>
<path fill-rule="evenodd" d="M481,248l73,0l0,-48l-73,0l0,48Z" class="g3_324" />
<g clip-path="url(#c5_324)">
<path fill-rule="evenodd" d="M488,224l58,0l0,-24l-58,0l0,24Z" class="g3_324" />
</g>
<path fill-rule="evenodd" d="M555,248l332,0l0,-48l-332,0l0,48Z" class="g3_324" />
<g clip-path="url(#c6_324)">
<path fill-rule="evenodd" d="M563,224l317,0l0,-24l-317,0l0,24Z" class="g3_324" />
</g>
<path fill-rule="evenodd" d="M563,248l317,0l0,-24l-317,0l0,24Z" class="g3_324" />
<path d="M46.5,200.5l0,-1" class="g2_324" />
<path d="M47.5,200.5l39,0" class="g2_324" />
<path d="M86.5,200.5l0,-1" class="g2_324" />
<path d="M88.5,200.5l391,0" class="g2_324" />
<path d="M479.5,200.5l0,-1" class="g2_324" />
<path d="M481.5,200.5l73,0" class="g2_324" />
<path d="M554.5,200.5l0,-1" class="g2_324" />
<path d="M555.5,200.5l332,0" class="g2_324" />
<path d="M887.5,200.5l0,-1" class="g2_324" />
<path d="M46.5,248.5l0,-48" class="g2_324" />
<path d="M86.5,248.5l0,-48" class="g2_324" />
<path d="M479.5,248.5l0,-48" class="g2_324" />
<path d="M554.5,248.5l0,-48" class="g2_324" />
<path d="M887.5,248.5l0,-48" class="g2_324" />
<path fill-rule="evenodd" d="M88,274l391,0l0,-24L88,250l0,24Z" class="g3_324" />
<g clip-path="url(#c7_324)">
<path fill-rule="evenodd" d="M95,273l377,0l0,-23L95,250l0,23Z" class="g3_324" />
</g>
<path fill-rule="evenodd" d="M481,274l73,0l0,-24l-73,0l0,24Z" class="g3_324" />
<g clip-path="url(#c8_324)">
<path fill-rule="evenodd" d="M488,273l58,0l0,-23l-58,0l0,23Z" class="g3_324" />
</g>
<path fill-rule="evenodd" d="M555,274l332,0l0,-24l-332,0l0,24Z" class="g3_324" />
<g clip-path="url(#c9_324)">
<path fill-rule="evenodd" d="M563,273l317,0l0,-23l-317,0l0,23Z" class="g3_324" />
</g>
<path d="M46.5,249.5l0,-1" class="g2_324" />
<path d="M86.5,249.5l0,-1" class="g2_324" />
<path d="M88.5,249.5l391,0" class="g2_324" />
<path d="M479.5,249.5l0,-1" class="g2_324" />
<path d="M481.5,249.5l73,0" class="g2_324" />
<path d="M554.5,249.5l0,-1" class="g2_324" />
<path d="M555.5,249.5l332,0" class="g2_324" />
<path d="M887.5,249.5l0,-1" class="g2_324" />
<path d="M46.5,274.5l0,-25" class="g2_324" />
<path d="M86.5,274.5l0,-25" class="g2_324" />
<path d="M479.5,274.5l0,-25" class="g2_324" />
<path d="M554.5,274.5l0,-25" class="g2_324" />
<path d="M887.5,274.5l0,-25" class="g2_324" />
<path fill-rule="evenodd" d="M88,300l391,0l0,-25L88,275l0,25Z" class="g3_324" />
<g clip-path="url(#c10_324)">
<path fill-rule="evenodd" d="M95,299l377,0l0,-24L95,275l0,24Z" class="g3_324" />
</g>
<path fill-rule="evenodd" d="M481,300l73,0l0,-25l-73,0l0,25Z" class="g3_324" />
<g clip-path="url(#c11_324)">
<path fill-rule="evenodd" d="M488,299l58,0l0,-24l-58,0l0,24Z" class="g3_324" />
</g>
<path fill-rule="evenodd" d="M555,300l332,0l0,-25l-332,0l0,25Z" class="g3_324" />
<g clip-path="url(#c12_324)">
<path fill-rule="evenodd" d="M563,299l317,0l0,-24l-317,0l0,24Z" class="g3_324" />
</g>
<path d="M46.5,275.5l0,-1" class="g2_324" />
<path d="M86.5,275.5l0,-1" class="g2_324" />
<path d="M88.5,275.5l391,0" class="g2_324" />
<path d="M479.5,275.5l0,-1" class="g2_324" />
<path d="M481.5,275.5l73,0" class="g2_324" />
<path d="M554.5,275.5l0,-1" class="g2_324" />
<path d="M555.5,275.5l332,0" class="g2_324" />
<path d="M887.5,275.5l0,-1" class="g2_324" />
<path d="M46.5,300.5l0,-25" class="g2_324" />
<path d="M86.5,300.5l0,-25" class="g2_324" />
<path d="M479.5,300.5l0,-25" class="g2_324" />
<path d="M554.5,300.5l0,-25" class="g2_324" />
<path d="M887.5,300.5l0,-25" class="g2_324" />
<path fill-rule="evenodd" d="M88,962l39,0l0,-661l-39,0l0,661Z" class="g3_324" />
<g clip-path="url(#c13_324)">
<path fill-rule="evenodd" d="M95,962l24,0l0,-661l-24,0l0,661Z" class="g3_324" />
</g>
<path fill-rule="evenodd" d="M129,403l39,0l0,-102l-39,0l0,102Z" class="g3_324" />
<g clip-path="url(#c14_324)">
<path fill-rule="evenodd" d="M136,403l24,0l0,-102l-24,0l0,102Z" class="g3_324" />
</g>
<path fill-rule="evenodd" d="M169,326l310,0l0,-25l-310,0l0,25Z" class="g3_324" />
<g clip-path="url(#c15_324)">
<path fill-rule="evenodd" d="M177,325l295,0l0,-24l-295,0l0,24Z" class="g3_324" />
</g>
<path fill-rule="evenodd" d="M481,326l73,0l0,-25l-73,0l0,25Z" class="g3_324" />
<g clip-path="url(#c16_324)">
<path fill-rule="evenodd" d="M488,325l58,0l0,-24l-58,0l0,24Z" class="g3_324" />
</g>
<path fill-rule="evenodd" d="M555,326l332,0l0,-25l-332,0l0,25Z" class="g3_324" />
<g clip-path="url(#c17_324)">
<path fill-rule="evenodd" d="M563,325l317,0l0,-24l-317,0l0,24Z" class="g3_324" />
</g>
<path d="M46.5,301.5l0,-1" class="g2_324" />
<path d="M86.5,301.5l0,-1" class="g2_324" />
<path d="M88.5,301.5l39,0" class="g2_324" />
<path d="M127.5,301.5l0,-1" class="g2_324" />
<path d="M129.5,301.5l39,0" class="g2_324" />
<path d="M168.5,301.5l0,-1" class="g2_324" />
<path d="M169.5,301.5l310,0" class="g2_324" />
<path d="M479.5,301.5l0,-1" class="g2_324" />
<path d="M481.5,301.5l73,0" class="g2_324" />
<path d="M554.5,301.5l0,-1" class="g2_324" />
<path d="M555.5,301.5l332,0" class="g2_324" />
<path d="M887.5,301.5l0,-1" class="g2_324" />
<path d="M46.5,326.5l0,-25" class="g2_324" />
<path d="M86.5,326.5l0,-25" class="g2_324" />
<path d="M127.5,326.5l0,-25" class="g2_324" />
<path d="M168.5,326.5l0,-25" class="g2_324" />
<path d="M479.5,326.5l0,-25" class="g2_324" />
<path d="M554.5,326.5l0,-25" class="g2_324" />
<path d="M887.5,326.5l0,-25" class="g2_324" />
<path fill-rule="evenodd" d="M169,352l310,0l0,-25l-310,0l0,25Z" class="g3_324" />
<g clip-path="url(#c18_324)">
<path fill-rule="evenodd" d="M177,351l295,0l0,-24l-295,0l0,24Z" class="g3_324" />
</g>
<path fill-rule="evenodd" d="M481,352l73,0l0,-25l-73,0l0,25Z" class="g3_324" />
<g clip-path="url(#c19_324)">
<path fill-rule="evenodd" d="M488,351l58,0l0,-24l-58,0l0,24Z" class="g3_324" />
</g>
<path fill-rule="evenodd" d="M555,352l332,0l0,-25l-332,0l0,25Z" class="g3_324" />
<g clip-path="url(#c20_324)">
<path fill-rule="evenodd" d="M563,351l317,0l0,-24l-317,0l0,24Z" class="g3_324" />
</g>
<path d="M46.5,327.5l0,-1" class="g2_324" />
<path d="M86.5,327.5l0,-1" class="g2_324" />
<path d="M127.5,327.5l0,-1" class="g2_324" />
<path d="M168.5,327.5l0,-1" class="g2_324" />
<path d="M169.5,327.5l310,0" class="g2_324" />
<path d="M479.5,327.5l0,-1" class="g2_324" />
<path d="M481.5,327.5l73,0" class="g2_324" />
<path d="M554.5,327.5l0,-1" class="g2_324" />
<path d="M555.5,327.5l332,0" class="g2_324" />
<path d="M887.5,327.5l0,-1" class="g2_324" />
<path d="M46.5,352.5l0,-25" class="g2_324" />
<path d="M86.5,352.5l0,-25" class="g2_324" />
<path d="M127.5,352.5l0,-25" class="g2_324" />
<path d="M168.5,352.5l0,-25" class="g2_324" />
<path d="M479.5,352.5l0,-25" class="g2_324" />
<path d="M554.5,352.5l0,-25" class="g2_324" />
<path d="M887.5,352.5l0,-25" class="g2_324" />
<path fill-rule="evenodd" d="M169,377l310,0l0,-24l-310,0l0,24Z" class="g3_324" />
<g clip-path="url(#c21_324)">
<path fill-rule="evenodd" d="M177,377l295,0l0,-24l-295,0l0,24Z" class="g3_324" />
</g>
<path fill-rule="evenodd" d="M481,377l73,0l0,-24l-73,0l0,24Z" class="g3_324" />
<g clip-path="url(#c22_324)">
<path fill-rule="evenodd" d="M488,377l58,0l0,-24l-58,0l0,24Z" class="g3_324" />
</g>
<path fill-rule="evenodd" d="M555,377l332,0l0,-24l-332,0l0,24Z" class="g3_324" />
<g clip-path="url(#c23_324)">
<path fill-rule="evenodd" d="M563,377l317,0l0,-24l-317,0l0,24Z" class="g3_324" />
</g>
<path d="M46.5,353.5l0,-1" class="g2_324" />
<path d="M86.5,353.5l0,-1" class="g2_324" />
<path d="M127.5,353.5l0,-1" class="g2_324" />
<path d="M168.5,353.5l0,-1" class="g2_324" />
<path d="M169.5,353.5l310,0" class="g2_324" />
<path d="M479.5,353.5l0,-1" class="g2_324" />
<path d="M481.5,353.5l73,0" class="g2_324" />
<path d="M554.5,353.5l0,-1" class="g2_324" />
<path d="M555.5,353.5l332,0" class="g2_324" />
<path d="M887.5,353.5l0,-1" class="g2_324" />
<path d="M46.5,377.5l0,-24" class="g2_324" />
<path d="M86.5,377.5l0,-24" class="g2_324" />
<path d="M127.5,377.5l0,-24" class="g2_324" />
<path d="M168.5,377.5l0,-24" class="g2_324" />
<path d="M479.5,377.5l0,-24" class="g2_324" />
<path d="M554.5,377.5l0,-24" class="g2_324" />
<path d="M887.5,377.5l0,-24" class="g2_324" />
<path fill-rule="evenodd" d="M169,403l310,0l0,-24l-310,0l0,24Z" class="g3_324" />
<g clip-path="url(#c24_324)">
<path fill-rule="evenodd" d="M177,403l295,0l0,-24l-295,0l0,24Z" class="g3_324" />
</g>
<path fill-rule="evenodd" d="M481,403l73,0l0,-24l-73,0l0,24Z" class="g3_324" />
<g clip-path="url(#c25_324)">
<path fill-rule="evenodd" d="M488,403l58,0l0,-24l-58,0l0,24Z" class="g3_324" />
</g>
<path fill-rule="evenodd" d="M555,403l332,0l0,-24l-332,0l0,24Z" class="g3_324" />
<g clip-path="url(#c26_324)">
<path fill-rule="evenodd" d="M563,403l317,0l0,-24l-317,0l0,24Z" class="g3_324" />
</g>
<path d="M46.5,379.5l0,-2" class="g2_324" />
<path d="M86.5,379.5l0,-2" class="g2_324" />
<path d="M127.5,379.5l0,-2" class="g2_324" />
<path d="M168.5,379.5l0,-2" class="g2_324" />
<path d="M169.5,379.5l310,0" class="g2_324" />
<path d="M479.5,379.5l0,-2" class="g2_324" />
<path d="M481.5,379.5l73,0" class="g2_324" />
<path d="M554.5,379.5l0,-2" class="g2_324" />
<path d="M555.5,379.5l332,0" class="g2_324" />
<path d="M887.5,379.5l0,-2" class="g2_324" />
<path d="M46.5,403.5l0,-24" class="g2_324" />
<path d="M86.5,403.5l0,-24" class="g2_324" />
<path d="M127.5,403.5l0,-24" class="g2_324" />
<path d="M168.5,403.5l0,-24" class="g2_324" />
<path d="M479.5,403.5l0,-24" class="g2_324" />
<path d="M554.5,403.5l0,-24" class="g2_324" />
<path d="M887.5,403.5l0,-24" class="g2_324" />
<path fill-rule="evenodd" d="M129,962l39,0l0,-557l-39,0l0,557Z" class="g3_324" />
<g clip-path="url(#c27_324)">
<path fill-rule="evenodd" d="M136,962l24,0l0,-557l-24,0l0,557Z" class="g3_324" />
</g>
<path fill-rule="evenodd" d="M169,962l40,0l0,-557l-40,0l0,557Z" class="g3_324" />
<g clip-path="url(#c28_324)">
<path fill-rule="evenodd" d="M177,962l24,0l0,-557l-24,0l0,557Z" class="g3_324" />
</g>
<path fill-rule="evenodd" d="M210,429l269,0l0,-24l-269,0l0,24Z" class="g3_324" />
<path fill-rule="evenodd" d="M218,429l254,0l0,-24l-254,0l0,24Z" class="g3_324" />
<path fill-rule="evenodd" d="M481,429l73,0l0,-24l-73,0l0,24Z" class="g3_324" />
<path fill-rule="evenodd" d="M488,429l58,0l0,-24l-58,0l0,24Z" class="g3_324" />
<path fill-rule="evenodd" d="M555,429l332,0l0,-24l-332,0l0,24Z" class="g3_324" />
<path fill-rule="evenodd" d="M563,429l317,0l0,-24l-317,0l0,24Z" class="g3_324" />
<path d="M46.5,405.5l0,-2" class="g2_324" />
<path d="M86.5,405.5l0,-2" class="g2_324" />
<path d="M127.5,405.5l0,-2" class="g2_324" />
<path d="M129.5,405.5l39,0" class="g2_324" />
<path d="M168.5,405.5l0,-2" class="g2_324" />
<path d="M169.5,405.5l40,0" class="g2_324" />
<path d="M209.5,405.5l0,-2" class="g2_324" />
<path d="M210.5,405.5l269,0" class="g2_324" />
<path d="M479.5,405.5l0,-2" class="g2_324" />
<path d="M481.5,405.5l73,0" class="g2_324" />
<path d="M554.5,405.5l0,-2" class="g2_324" />
<path d="M555.5,405.5l332,0" class="g2_324" />
<path d="M887.5,405.5l0,-2" class="g2_324" />
<path d="M46.5,429.5l0,-24" class="g2_324" />
<path d="M86.5,429.5l0,-24" class="g2_324" />
<path d="M127.5,429.5l0,-24" class="g2_324" />
<path d="M168.5,429.5l0,-24" class="g2_324" />
<path d="M209.5,429.5l0,-24" class="g2_324" />
<path d="M479.5,429.5l0,-24" class="g2_324" />
<path d="M554.5,429.5l0,-24" class="g2_324" />
<path d="M887.5,429.5l0,-24" class="g2_324" />
<path fill-rule="evenodd" d="M210,502l269,0l0,-72l-269,0l0,72Z" class="g3_324" />
<g clip-path="url(#c29_324)">
<path fill-rule="evenodd" d="M218,454l254,0l0,-24l-254,0l0,24Z" class="g3_324" />
</g>
<path fill-rule="evenodd" d="M481,502l73,0l0,-72l-73,0l0,72Z" class="g3_324" />
<g clip-path="url(#c30_324)">
<path fill-rule="evenodd" d="M488,454l58,0l0,-24l-58,0l0,24Z" class="g3_324" />
</g>
<path fill-rule="evenodd" d="M555,502l332,0l0,-72l-332,0l0,72Z" class="g3_324" />
<g clip-path="url(#c31_324)">
<path fill-rule="evenodd" d="M563,454l317,0l0,-24l-317,0l0,24Z" class="g3_324" />
</g>
<path fill-rule="evenodd" d="M563,478l317,0l0,-24l-317,0l0,24Z" class="g3_324" />
<path fill-rule="evenodd" d="M563,502l317,0l0,-24l-317,0l0,24Z" class="g3_324" />
<path d="M46.5,430.5l0,-1" class="g2_324" />
<path d="M86.5,430.5l0,-1" class="g2_324" />
<path d="M127.5,430.5l0,-1" class="g2_324" />
<path d="M168.5,430.5l0,-1" class="g2_324" />
<path d="M209.5,430.5l0,-1" class="g2_324" />
<path d="M210.5,430.5l269,0" class="g2_324" />
<path d="M479.5,430.5l0,-1" class="g2_324" />
<path d="M481.5,430.5l73,0" class="g2_324" />
<path d="M554.5,430.5l0,-1" class="g2_324" />
<path d="M555.5,430.5l332,0" class="g2_324" />
<path d="M887.5,430.5l0,-1" class="g2_324" />
<path d="M46.5,502.5l0,-72" class="g2_324" />
<path d="M86.5,502.5l0,-72" class="g2_324" />
<path d="M127.5,502.5l0,-72" class="g2_324" />
<path d="M168.5,502.5l0,-72" class="g2_324" />
<path d="M209.5,502.5l0,-72" class="g2_324" />
<path d="M479.5,502.5l0,-72" class="g2_324" />
<path d="M554.5,502.5l0,-72" class="g2_324" />
<path d="M887.5,502.5l0,-72" class="g2_324" />
<path fill-rule="evenodd" d="M210,551l269,0l0,-48l-269,0l0,48Z" class="g3_324" />
<path fill-rule="evenodd" d="M218,527l254,0l0,-24l-254,0l0,24Z" class="g3_324" />
<path fill-rule="evenodd" d="M481,551l73,0l0,-48l-73,0l0,48Z" class="g3_324" />
<path fill-rule="evenodd" d="M488,527l58,0l0,-24l-58,0l0,24Z" class="g3_324" />
<path fill-rule="evenodd" d="M555,551l332,0l0,-48l-332,0l0,48Z" class="g3_324" />
<path fill-rule="evenodd" d="M563,527l317,0l0,-24l-317,0l0,24Z" class="g3_324" />
<path fill-rule="evenodd" d="M563,551l317,0l0,-24l-317,0l0,24Z" class="g3_324" />
<path d="M46.5,503.5l0,-1" class="g2_324" />
<path d="M86.5,503.5l0,-1" class="g2_324" />
<path d="M127.5,503.5l0,-1" class="g2_324" />
<path d="M168.5,503.5l0,-1" class="g2_324" />
<path d="M209.5,503.5l0,-1" class="g2_324" />
<path d="M210.5,503.5l269,0" class="g2_324" />
<path d="M479.5,503.5l0,-1" class="g2_324" />
<path d="M481.5,503.5l73,0" class="g2_324" />
<path d="M554.5,503.5l0,-1" class="g2_324" />
<path d="M555.5,503.5l332,0" class="g2_324" />
<path d="M887.5,503.5l0,-1" class="g2_324" />
<path d="M46.5,551.5l0,-48" class="g2_324" />
<path d="M86.5,551.5l0,-48" class="g2_324" />
<path d="M127.5,551.5l0,-48" class="g2_324" />
<path d="M168.5,551.5l0,-48" class="g2_324" />
<path d="M209.5,551.5l0,-48" class="g2_324" />
<path d="M479.5,551.5l0,-48" class="g2_324" />
<path d="M554.5,551.5l0,-48" class="g2_324" />
<path d="M887.5,551.5l0,-48" class="g2_324" />
<path fill-rule="evenodd" d="M210,600l269,0l0,-47l-269,0l0,47Z" class="g3_324" />
<path fill-rule="evenodd" d="M218,576l254,0l0,-23l-254,0l0,23Z" class="g3_324" />
<path fill-rule="evenodd" d="M481,600l73,0l0,-47l-73,0l0,47Z" class="g3_324" />
<path fill-rule="evenodd" d="M488,576l58,0l0,-23l-58,0l0,23Z" class="g3_324" />
<path fill-rule="evenodd" d="M555,600l332,0l0,-47l-332,0l0,47Z" class="g3_324" />
<path fill-rule="evenodd" d="M563,576l317,0l0,-23l-317,0l0,23Z" class="g3_324" />
<path fill-rule="evenodd" d="M563,600l317,0l0,-24l-317,0l0,24Z" class="g3_324" />
<path d="M46.5,553.5l0,-2" class="g2_324" />
<path d="M86.5,553.5l0,-2" class="g2_324" />
<path d="M127.5,553.5l0,-2" class="g2_324" />
<path d="M168.5,553.5l0,-2" class="g2_324" />
<path d="M209.5,553.5l0,-2" class="g2_324" />
<path d="M210.5,553.5l269,0" class="g2_324" />
<path d="M479.5,553.5l0,-2" class="g2_324" />
<path d="M481.5,553.5l73,0" class="g2_324" />
<path d="M554.5,553.5l0,-2" class="g2_324" />
<path d="M555.5,553.5l332,0" class="g2_324" />
<path d="M887.5,553.5l0,-2" class="g2_324" />
<path d="M46.5,600.5l0,-47" class="g2_324" />
<path d="M86.5,600.5l0,-47" class="g2_324" />
<path d="M127.5,600.5l0,-47" class="g2_324" />
<path d="M168.5,600.5l0,-47" class="g2_324" />
<path d="M209.5,600.5l0,-47" class="g2_324" />
<path d="M479.5,600.5l0,-47" class="g2_324" />
<path d="M554.5,600.5l0,-47" class="g2_324" />
<path d="M887.5,600.5l0,-47" class="g2_324" />
<path fill-rule="evenodd" d="M210,625l269,0l0,-23l-269,0l0,23Z" class="g3_324" />
<path fill-rule="evenodd" d="M218,625l254,0l0,-23l-254,0l0,23Z" class="g3_324" />
<path fill-rule="evenodd" d="M481,625l73,0l0,-23l-73,0l0,23Z" class="g3_324" />
<path fill-rule="evenodd" d="M488,625l58,0l0,-23l-58,0l0,23Z" class="g3_324" />
<path fill-rule="evenodd" d="M555,625l332,0l0,-23l-332,0l0,23Z" class="g3_324" />
<path fill-rule="evenodd" d="M563,625l317,0l0,-23l-317,0l0,23Z" class="g3_324" />
<path d="M46.5,602.5l0,-2" class="g2_324" />
<path d="M86.5,602.5l0,-2" class="g2_324" />
<path d="M127.5,602.5l0,-2" class="g2_324" />
<path d="M168.5,602.5l0,-2" class="g2_324" />
<path d="M209.5,602.5l0,-2" class="g2_324" />
<path d="M210.5,602.5l269,0" class="g2_324" />
<path d="M479.5,602.5l0,-2" class="g2_324" />
<path d="M481.5,602.5l73,0" class="g2_324" />
<path d="M554.5,602.5l0,-2" class="g2_324" />
<path d="M555.5,602.5l332,0" class="g2_324" />
<path d="M887.5,602.5l0,-2" class="g2_324" />
<path d="M46.5,625.5l0,-23" class="g2_324" />
<path d="M86.5,625.5l0,-23" class="g2_324" />
<path d="M127.5,625.5l0,-23" class="g2_324" />
<path d="M168.5,625.5l0,-23" class="g2_324" />
<path d="M209.5,625.5l0,-23" class="g2_324" />
<path d="M479.5,625.5l0,-23" class="g2_324" />
<path d="M554.5,625.5l0,-23" class="g2_324" />
<path d="M887.5,625.5l0,-23" class="g2_324" />
<path fill-rule="evenodd" d="M210,794l269,0l0,-167l-269,0l0,167Z" class="g3_324" />
<path fill-rule="evenodd" d="M218,651l254,0l0,-24l-254,0l0,24Z" class="g3_324" />
<path fill-rule="evenodd" d="M481,794l73,0l0,-167l-73,0l0,167Z" class="g3_324" />
<path fill-rule="evenodd" d="M488,651l58,0l0,-24l-58,0l0,24Z" class="g3_324" />
<path fill-rule="evenodd" d="M555,794l332,0l0,-167l-332,0l0,167Z" class="g3_324" />
<path fill-rule="evenodd" d="M563,651l317,0l0,-24l-317,0l0,24Z" class="g3_324" />
<path fill-rule="evenodd" d="M563,675l317,0l0,-24l-317,0l0,24Z" class="g3_324" />
<path fill-rule="evenodd" d="M563,699l317,0l0,-24l-317,0l0,24Z" class="g3_324" />
<path fill-rule="evenodd" d="M563,722l317,0l0,-23l-317,0l0,23Z" class="g3_324" />
<path fill-rule="evenodd" d="M563,746l317,0l0,-24l-317,0l0,24Z" class="g3_324" />
<path fill-rule="evenodd" d="M563,770l317,0l0,-24l-317,0l0,24Z" class="g3_324" />
<path fill-rule="evenodd" d="M563,794l317,0l0,-24l-317,0l0,24Z" class="g3_324" />
<path d="M46.5,627.5l0,-2" class="g2_324" />
<path d="M86.5,627.5l0,-2" class="g2_324" />
<path d="M127.5,627.5l0,-2" class="g2_324" />
<path d="M168.5,627.5l0,-2" class="g2_324" />
<path d="M209.5,627.5l0,-2" class="g2_324" />
<path d="M210.5,627.5l269,0" class="g2_324" />
<path d="M479.5,627.5l0,-2" class="g2_324" />
<path d="M481.5,627.5l73,0" class="g2_324" />
<path d="M554.5,627.5l0,-2" class="g2_324" />
<path d="M555.5,627.5l332,0" class="g2_324" />
<path d="M887.5,627.5l0,-2" class="g2_324" />
<path d="M46.5,794.5l0,-167" class="g2_324" />
<path d="M86.5,794.5l0,-167" class="g2_324" />
<path d="M127.5,794.5l0,-167" class="g2_324" />
<path d="M168.5,794.5l0,-167" class="g2_324" />
<path d="M209.5,794.5l0,-167" class="g2_324" />
<path d="M479.5,794.5l0,-167" class="g2_324" />
<path d="M554.5,794.5l0,-167" class="g2_324" />
<path d="M887.5,794.5l0,-167" class="g2_324" />
<path fill-rule="evenodd" d="M210,962l269,0l0,-167l-269,0l0,167Z" class="g3_324" />
<path fill-rule="evenodd" d="M218,819l254,0l0,-24l-254,0l0,24Z" class="g3_324" />
<path fill-rule="evenodd" d="M481,962l73,0l0,-167l-73,0l0,167Z" class="g3_324" />
<path fill-rule="evenodd" d="M488,819l58,0l0,-24l-58,0l0,24Z" class="g3_324" />
<path fill-rule="evenodd" d="M555,962l332,0l0,-167l-332,0l0,167Z" class="g3_324" />
<path fill-rule="evenodd" d="M563,819l317,0l0,-24l-317,0l0,24Z" class="g3_324" />
<path fill-rule="evenodd" d="M563,843l317,0l0,-24l-317,0l0,24Z" class="g3_324" />
<path fill-rule="evenodd" d="M563,867l317,0l0,-24l-317,0l0,24Z" class="g3_324" />
<path fill-rule="evenodd" d="M563,891l317,0l0,-24l-317,0l0,24Z" class="g3_324" />
<path fill-rule="evenodd" d="M563,915l317,0l0,-24l-317,0l0,24Z" class="g3_324" />
<path fill-rule="evenodd" d="M563,939l317,0l0,-24l-317,0l0,24Z" class="g3_324" />
<g clip-path="url(#c32_324)">
<path fill-rule="evenodd" d="M563,962l317,0l0,-23l-317,0l0,23Z" class="g3_324" />
</g>
<path d="M46.5,795.5l0,-1" class="g2_324" />
<path d="M86.5,795.5l0,-1" class="g2_324" />
<path d="M127.5,795.5l0,-1" class="g2_324" />
<path d="M168.5,795.5l0,-1" class="g2_324" />
<path d="M209.5,795.5l0,-1" class="g2_324" />
<path d="M210.5,795.5l269,0" class="g2_324" />
<path d="M479.5,795.5l0,-1" class="g2_324" />
<path d="M481.5,795.5l73,0" class="g2_324" />
<path d="M554.5,795.5l0,-1" class="g2_324" />
<path d="M555.5,795.5l332,0" class="g2_324" />
<path d="M887.5,795.5l0,-1" class="g2_324" />
<path d="M46.5,962.5l0,-167" class="g2_324" />
<path d="M46.5,964.5l0,-2" class="g2_324" />
<path d="M46.5,964.5l0,-2" class="g2_324" />
<path d="M47.5,964.5l39,0" class="g2_324" />
<path d="M86.5,962.5l0,-167" class="g2_324" />
<path d="M86.5,964.5l0,-2" class="g2_324" />
<path d="M88.5,964.5l39,0" class="g2_324" />
<path d="M127.5,962.5l0,-167" class="g2_324" />
<path d="M127.5,964.5l0,-2" class="g2_324" />
<path d="M129.5,964.5l39,0" class="g2_324" />
<path d="M168.5,962.5l0,-167" class="g2_324" />
<path d="M168.5,964.5l0,-2" class="g2_324" />
<path d="M169.5,964.5l40,0" class="g2_324" />
<path d="M209.5,962.5l0,-167" class="g2_324" />
<path d="M209.5,964.5l0,-2" class="g2_324" />
<path d="M210.5,964.5l269,0" class="g2_324" />
<path d="M479.5,962.5l0,-167" class="g2_324" />
<path d="M479.5,964.5l0,-2" class="g2_324" />
<path d="M481.5,964.5l73,0" class="g2_324" />
<path d="M554.5,962.5l0,-167" class="g2_324" />
<path d="M554.5,964.5l0,-2" class="g2_324" />
<path d="M555.5,964.5l332,0" class="g2_324" />
<path d="M887.5,962.5l0,-167" class="g2_324" />
<path d="M887.5,964.5l0,-2" class="g2_324" />
<path d="M887.5,964.5l0,-2" class="g2_324" />
</svg>