<?xml version="1.0" encoding="UTF-8" standalone="no"?>
<!DOCTYPE svg PUBLIC "-//W3C//DTD SVG 1.1//EN"
"http://www.w3.org/Graphics/SVG/1.1/DTD/svg11.dtd">
<svg version="1.1" xmlns="http://www.w3.org/2000/svg" xmlns:xlink="http://www.w3.org/1999/xlink">
<defs>
<clipPath id="c0_458"><path d="M47.5,183.5l0,-72l102,0l0,72Z" /></clipPath>
<clipPath id="c1_458"><path d="M151.5,183.5l0,-72l736,0l0,72Z" /></clipPath>
<clipPath id="c2_458"><path d="M47.5,232.5l0,-48l102,0l0,48Z" /></clipPath>
<clipPath id="c3_458"><path d="M151.5,232.5l0,-48l736,0l0,48Z" /></clipPath>
<clipPath id="c4_458"><path d="M47.5,281.5l0,-48l102,0l0,48Z" /></clipPath>
<clipPath id="c5_458"><path d="M151.5,281.5l0,-48l736,0l0,48Z" /></clipPath>
<clipPath id="c6_458"><path d="M47.5,354.5l0,-72l102,0l0,72Z" /></clipPath>
<clipPath id="c7_458"><path d="M151.5,354.5l0,-72l736,0l0,72Z" /></clipPath>
<clipPath id="c8_458"><path d="M47.5,403.5l0,-47l102,0l0,47Z" /></clipPath>
<clipPath id="c9_458"><path d="M151.5,403.5l0,-47l736,0l0,47Z" /></clipPath>
<clipPath id="c10_458"><path d="M47.5,551.5l0,-72l102,0l0,72Z" /></clipPath>
<clipPath id="c11_458"><path d="M151.5,551.5l0,-72l736,0l0,72Z" /></clipPath>
<clipPath id="c12_458"><path d="M47.5,832.5l0,-181l840,0l0,181Z" /></clipPath>
<clipPath id="c13_458"><path d="M47.5,1002.5l0,-95l840,0l0,95Z" /></clipPath>
<style type="text/css"><![CDATA[
.g2_458{
fill: none;
stroke: #7E7E7E;
stroke-width: 1;
stroke-linecap: butt;
stroke-linejoin: miter;
}
.g3_458{
fill: none;
stroke: #F0F0E0;
stroke-width: 1;
stroke-linecap: butt;
stroke-linejoin: miter;
}
.g1_458{
fill: #F1F1F1;
}
]]></style>
</defs>
<path fill-rule="evenodd" d="M47,182l102,0l0,-71L47,111l0,71Z" class="g1_458" />
<g clip-path="url(#c0_458)">
<path fill-rule="evenodd" d="M55,135l87,0l0,-24l-87,0l0,24Z" class="g1_458" />
</g>
<path fill-rule="evenodd" d="M151,182l736,0l0,-71l-736,0l0,71Z" class="g1_458" />
<g clip-path="url(#c1_458)">
<path fill-rule="evenodd" d="M158,135l722,0l0,-24l-722,0l0,24Z" class="g1_458" />
</g>
<path fill-rule="evenodd" d="M158,159l722,0l0,-24l-722,0l0,24Z" class="g1_458" />
<path fill-rule="evenodd" d="M158,182l722,0l0,-23l-722,0l0,23Z" class="g1_458" />
<path d="M46.5,111.5l0,-1" class="g2_458" />
<path d="M46.5,111.5l0,-1" class="g2_458" />
<path d="M47.5,111.5l102,0" class="g2_458" />
<path d="M149.5,111.5l0,-1" class="g2_458" />
<path d="M151.5,111.5l736,0" class="g2_458" />
<path d="M887.5,111.5l0,-1" class="g2_458" />
<path d="M887.5,111.5l0,-1" class="g2_458" />
<path d="M46.5,182.5l0,-71" class="g2_458" />
<path d="M149.5,182.5l0,-71" class="g2_458" />
<path d="M887.5,182.5l0,-71" class="g2_458" />
<path fill-rule="evenodd" d="M47,232l102,0l0,-48L47,184l0,48Z" class="g1_458" />
<g clip-path="url(#c2_458)">
<path fill-rule="evenodd" d="M55,208l87,0l0,-24l-87,0l0,24Z" class="g1_458" />
</g>
<path fill-rule="evenodd" d="M151,232l736,0l0,-48l-736,0l0,48Z" class="g1_458" />
<g clip-path="url(#c3_458)">
<path fill-rule="evenodd" d="M158,208l722,0l0,-24l-722,0l0,24Z" class="g1_458" />
</g>
<path fill-rule="evenodd" d="M158,232l722,0l0,-24l-722,0l0,24Z" class="g1_458" />
<path d="M46.5,184.5l0,-2" class="g2_458" />
<path d="M47.5,184.5l102,0" class="g2_458" />
<path d="M149.5,184.5l0,-2" class="g2_458" />
<path d="M151.5,184.5l736,0" class="g2_458" />
<path d="M887.5,184.5l0,-2" class="g2_458" />
<path d="M46.5,232.5l0,-48" class="g2_458" />
<path d="M149.5,232.5l0,-48" class="g2_458" />
<path d="M887.5,232.5l0,-48" class="g2_458" />
<path fill-rule="evenodd" d="M47,281l102,0l0,-48L47,233l0,48Z" class="g1_458" />
<g clip-path="url(#c4_458)">
<path fill-rule="evenodd" d="M55,257l87,0l0,-24l-87,0l0,24Z" class="g1_458" />
</g>
<path fill-rule="evenodd" d="M151,281l736,0l0,-48l-736,0l0,48Z" class="g1_458" />
<g clip-path="url(#c5_458)">
<path fill-rule="evenodd" d="M158,257l722,0l0,-24l-722,0l0,24Z" class="g1_458" />
</g>
<path fill-rule="evenodd" d="M158,281l722,0l0,-24l-722,0l0,24Z" class="g1_458" />
<path d="M46.5,233.5l0,-1" class="g2_458" />
<path d="M47.5,233.5l102,0" class="g2_458" />
<path d="M149.5,233.5l0,-1" class="g2_458" />
<path d="M151.5,233.5l736,0" class="g2_458" />
<path d="M887.5,233.5l0,-1" class="g2_458" />
<path d="M46.5,281.5l0,-48" class="g2_458" />
<path d="M149.5,281.5l0,-48" class="g2_458" />
<path d="M887.5,281.5l0,-48" class="g2_458" />
<path fill-rule="evenodd" d="M47,354l102,0l0,-72L47,282l0,72Z" class="g1_458" />
<g clip-path="url(#c6_458)">
<path fill-rule="evenodd" d="M55,306l87,0l0,-24l-87,0l0,24Z" class="g1_458" />
</g>
<path fill-rule="evenodd" d="M151,354l736,0l0,-72l-736,0l0,72Z" class="g1_458" />
<g clip-path="url(#c7_458)">
<path fill-rule="evenodd" d="M158,306l722,0l0,-24l-722,0l0,24Z" class="g1_458" />
</g>
<path fill-rule="evenodd" d="M158,330l722,0l0,-24l-722,0l0,24Z" class="g1_458" />
<path fill-rule="evenodd" d="M158,354l722,0l0,-24l-722,0l0,24Z" class="g1_458" />
<path d="M46.5,282.5l0,-1" class="g2_458" />
<path d="M47.5,282.5l102,0" class="g2_458" />
<path d="M149.5,282.5l0,-1" class="g2_458" />
<path d="M151.5,282.5l736,0" class="g2_458" />
<path d="M887.5,282.5l0,-1" class="g2_458" />
<path d="M46.5,354.5l0,-72" class="g2_458" />
<path d="M149.5,354.5l0,-72" class="g2_458" />
<path d="M887.5,354.5l0,-72" class="g2_458" />
<path fill-rule="evenodd" d="M47,403l102,0l0,-47L47,356l0,47Z" class="g1_458" />
<g clip-path="url(#c8_458)">
<path fill-rule="evenodd" d="M55,379l87,0l0,-23l-87,0l0,23Z" class="g1_458" />
</g>
<path fill-rule="evenodd" d="M151,403l736,0l0,-47l-736,0l0,47Z" class="g1_458" />
<g clip-path="url(#c9_458)">
<path fill-rule="evenodd" d="M158,379l722,0l0,-23l-722,0l0,23Z" class="g1_458" />
</g>
<path fill-rule="evenodd" d="M158,403l722,0l0,-24l-722,0l0,24Z" class="g1_458" />
<path d="M46.5,355.5l0,-1" class="g2_458" />
<path d="M47.5,355.5l102,0" class="g2_458" />
<path d="M149.5,355.5l0,-1" class="g2_458" />
<path d="M151.5,355.5l736,0" class="g2_458" />
<path d="M887.5,355.5l0,-1" class="g2_458" />
<path d="M46.5,403.5l0,-48" class="g2_458" />
<path d="M149.5,403.5l0,-48" class="g2_458" />
<path d="M887.5,403.5l0,-48" class="g2_458" />
<path fill-rule="evenodd" d="M47,452l102,0l0,-47L47,405l0,47Z" class="g1_458" />
<path fill-rule="evenodd" d="M55,429l87,0l0,-24l-87,0l0,24Z" class="g1_458" />
<path fill-rule="evenodd" d="M151,452l736,0l0,-47l-736,0l0,47Z" class="g1_458" />
<path fill-rule="evenodd" d="M158,429l722,0l0,-24l-722,0l0,24Z" class="g1_458" />
<path fill-rule="evenodd" d="M158,452l722,0l0,-23l-722,0l0,23Z" class="g1_458" />
<path d="M46.5,405.5l0,-2" class="g2_458" />
<path d="M47.5,405.5l102,0" class="g2_458" />
<path d="M149.5,405.5l0,-2" class="g2_458" />
<path d="M151.5,405.5l736,0" class="g2_458" />
<path d="M887.5,405.5l0,-2" class="g2_458" />
<path d="M46.5,452.5l0,-47" class="g2_458" />
<path d="M149.5,452.5l0,-47" class="g2_458" />
<path d="M887.5,452.5l0,-47" class="g2_458" />
<path fill-rule="evenodd" d="M47,478l102,0l0,-24L47,454l0,24Z" class="g1_458" />
<path fill-rule="evenodd" d="M55,478l87,0l0,-24l-87,0l0,24Z" class="g1_458" />
<path fill-rule="evenodd" d="M151,478l736,0l0,-24l-736,0l0,24Z" class="g1_458" />
<path fill-rule="evenodd" d="M158,478l722,0l0,-24l-722,0l0,24Z" class="g1_458" />
<path d="M46.5,454.5l0,-2" class="g2_458" />
<path d="M47.5,454.5l102,0" class="g2_458" />
<path d="M149.5,454.5l0,-2" class="g2_458" />
<path d="M151.5,454.5l736,0" class="g2_458" />
<path d="M887.5,454.5l0,-2" class="g2_458" />
<path d="M46.5,478.5l0,-24" class="g2_458" />
<path d="M149.5,478.5l0,-24" class="g2_458" />
<path d="M887.5,478.5l0,-24" class="g2_458" />
<path fill-rule="evenodd" d="M47,551l102,0l0,-72L47,479l0,72Z" class="g1_458" />
<g clip-path="url(#c10_458)">
<path fill-rule="evenodd" d="M55,503l87,0l0,-24l-87,0l0,24Z" class="g1_458" />
</g>
<path fill-rule="evenodd" d="M151,551l736,0l0,-72l-736,0l0,72Z" class="g1_458" />
<g clip-path="url(#c11_458)">
<path fill-rule="evenodd" d="M158,503l722,0l0,-24l-722,0l0,24Z" class="g1_458" />
</g>
<path fill-rule="evenodd" d="M158,527l722,0l0,-24l-722,0l0,24Z" class="g1_458" />
<path fill-rule="evenodd" d="M158,551l722,0l0,-24l-722,0l0,24Z" class="g1_458" />
<path d="M46.5,479.5l0,-1" class="g2_458" />
<path d="M47.5,479.5l102,0" class="g2_458" />
<path d="M149.5,479.5l0,-1" class="g2_458" />
<path d="M151.5,479.5l736,0" class="g2_458" />
<path d="M887.5,479.5l0,-1" class="g2_458" />
<path d="M46.5,551.5l0,-72" class="g2_458" />
<path d="M149.5,551.5l0,-72" class="g2_458" />
<path d="M887.5,551.5l0,-72" class="g2_458" />
<path fill-rule="evenodd" d="M47,576l102,0l0,-24L47,552l0,24Z" class="g1_458" />
<path fill-rule="evenodd" d="M55,576l87,0l0,-24l-87,0l0,24Z" class="g1_458" />
<path fill-rule="evenodd" d="M151,576l736,0l0,-24l-736,0l0,24Z" class="g1_458" />
<path fill-rule="evenodd" d="M158,576l722,0l0,-24l-722,0l0,24Z" class="g1_458" />
<path d="M46.5,552.5l0,-1" class="g2_458" />
<path d="M47.5,552.5l102,0" class="g2_458" />
<path d="M149.5,552.5l0,-1" class="g2_458" />
<path d="M151.5,552.5l736,0" class="g2_458" />
<path d="M887.5,552.5l0,-1" class="g2_458" />
<path d="M46.5,576.5l0,-24" class="g2_458" />
<path d="M46.5,578.5l0,-2" class="g2_458" />
<path d="M46.5,578.5l0,-2" class="g2_458" />
<path d="M47.5,578.5l102,0" class="g2_458" />
<path d="M149.5,576.5l0,-24" class="g2_458" />
<path d="M149.5,578.5l0,-2" class="g2_458" />
<path d="M151.5,578.5l736,0" class="g2_458" />
<path d="M887.5,576.5l0,-24" class="g2_458" />
<path d="M887.5,578.5l0,-2" class="g2_458" />
<path d="M887.5,578.5l0,-2" class="g2_458" />
<path fill-rule="evenodd" d="M47,832l840,0l0,-181L47,651l0,181Z" class="g1_458" />
<g clip-path="url(#c12_458)">
<path fill-rule="evenodd" d="M55,682l825,0l0,-31L55,651l0,31Z" class="g1_458" />
<path d="M45.5,652.5l0,-1" class="g3_458" />
<path d="M45.5,652.5l0,-1" class="g3_458" />
<path d="M46.5,652.5l842,0" class="g3_458" />
<path d="M888.5,652.5l0,-1" class="g3_458" />
<path d="M888.5,652.5l0,-1" class="g3_458" />
<path d="M45.5,682.5l0,-30" class="g3_458" />
<path d="M888.5,682.5l0,-30" class="g3_458" />
</g>
<path fill-rule="evenodd" d="M55,706l825,0l0,-24L55,682l0,24Z" class="g1_458" />
<g clip-path="url(#c12_458)">
<path d="M45.5,706.5l0,-24" class="g3_458" />
<path d="M888.5,706.5l0,-24" class="g3_458" />
</g>
<path fill-rule="evenodd" d="M55,729l825,0l0,-23L55,706l0,23Z" class="g1_458" />
<g clip-path="url(#c12_458)">
<path d="M45.5,729.5l0,-23" class="g3_458" />
<path d="M888.5,729.5l0,-23" class="g3_458" />
</g>
<path fill-rule="evenodd" d="M55,753l825,0l0,-24L55,729l0,24Z" class="g1_458" />
<g clip-path="url(#c12_458)">
<path d="M45.5,753.5l0,-24" class="g3_458" />
<path d="M888.5,753.5l0,-24" class="g3_458" />
</g>
<path fill-rule="evenodd" d="M55,777l825,0l0,-24L55,753l0,24Z" class="g1_458" />
<g clip-path="url(#c12_458)">
<path d="M45.5,777.5l0,-24" class="g3_458" />
<path d="M888.5,777.5l0,-24" class="g3_458" />
</g>
<path fill-rule="evenodd" d="M55,801l825,0l0,-24L55,777l0,24Z" class="g1_458" />
<g clip-path="url(#c12_458)">
<path d="M45.5,801.5l0,-24" class="g3_458" />
<path d="M888.5,801.5l0,-24" class="g3_458" />
</g>
<path fill-rule="evenodd" d="M55,832l825,0l0,-31L55,801l0,31Z" class="g1_458" />
<g clip-path="url(#c12_458)">
<path d="M45.5,832.5l0,-1" class="g3_458" />
<path d="M45.5,832.5l0,-1" class="g3_458" />
<path d="M46.5,832.5l842,0" class="g3_458" />
<path d="M888.5,832.5l0,-1" class="g3_458" />
<path d="M888.5,832.5l0,-1" class="g3_458" />
<path d="M45.5,831.5l0,-30" class="g3_458" />
<path d="M888.5,831.5l0,-30" class="g3_458" />
</g>
<path d="M46.5,651.5l0,-2" class="g2_458" />
<path d="M46.5,651.5l0,-2" class="g2_458" />
<path d="M47.5,651.5l840,0" class="g2_458" />
<path d="M887.5,651.5l0,-2" class="g2_458" />
<path d="M887.5,651.5l0,-2" class="g2_458" />
<path d="M46.5,832.5l0,-181" class="g2_458" />
<path d="M46.5,834.5l0,-2" class="g2_458" />
<path d="M46.5,834.5l0,-2" class="g2_458" />
<path d="M47.5,834.5l840,0" class="g2_458" />
<path d="M887.5,832.5l0,-181" class="g2_458" />
<path d="M887.5,834.5l0,-2" class="g2_458" />
<path d="M887.5,834.5l0,-2" class="g2_458" />
<path fill-rule="evenodd" d="M47,1002l840,0l0,-95L47,907l0,95Z" class="g1_458" />
<path fill-rule="evenodd" d="M55,930l825,0l0,-23L55,907l0,23Z" class="g1_458" />
<path fill-rule="evenodd" d="M55,954l825,0l0,-24L55,930l0,24Z" class="g1_458" />
<path fill-rule="evenodd" d="M55,978l825,0l0,-24L55,954l0,24Z" class="g1_458" />
<g clip-path="url(#c13_458)">
<path fill-rule="evenodd" d="M55,1002l825,0l0,-24L55,978l0,24Z" class="g1_458" />
</g>
<path d="M46.5,907.5l0,-2" class="g2_458" />
<path d="M46.5,907.5l0,-2" class="g2_458" />
<path d="M47.5,907.5l840,0" class="g2_458" />
<path d="M887.5,907.5l0,-2" class="g2_458" />
<path d="M887.5,907.5l0,-2" class="g2_458" />
<path d="M46.5,1002.5l0,-95" class="g2_458" />
<path d="M46.5,1004.5l0,-2" class="g2_458" />
<path d="M46.5,1004.5l0,-2" class="g2_458" />
<path d="M47.5,1004.5l840,0" class="g2_458" />
<path d="M887.5,1002.5l0,-95" class="g2_458" />
<path d="M887.5,1004.5l0,-2" class="g2_458" />
<path d="M887.5,1004.5l0,-2" class="g2_458" />
</svg>