<?xml version="1.0" encoding="UTF-8" standalone="no"?>
<!DOCTYPE svg PUBLIC "-//W3C//DTD SVG 1.1//EN"
"http://www.w3.org/Graphics/SVG/1.1/DTD/svg11.dtd">
<svg version="1.1" xmlns="http://www.w3.org/2000/svg" xmlns:xlink="http://www.w3.org/1999/xlink">
<defs>
<clipPath id="c0_142"><path d="M181.5,159.5l0,-48l217,0l0,48Z" /></clipPath>
<clipPath id="c1_142"><path d="M399.5,159.5l0,-48l68,0l0,48Z" /></clipPath>
<clipPath id="c2_142"><path d="M468.5,159.5l0,-48l342,0l0,48Z" /></clipPath>
<clipPath id="c3_142"><path d="M812.5,159.5l0,-48l60,0l0,48Z" /></clipPath>
<clipPath id="c4_142"><path d="M181.5,208.5l0,-48l217,0l0,48Z" /></clipPath>
<clipPath id="c5_142"><path d="M399.5,208.5l0,-48l68,0l0,48Z" /></clipPath>
<clipPath id="c6_142"><path d="M468.5,208.5l0,-48l342,0l0,48Z" /></clipPath>
<clipPath id="c7_142"><path d="M812.5,208.5l0,-48l60,0l0,48Z" /></clipPath>
<clipPath id="c8_142"><path d="M181.5,257.5l0,-48l217,0l0,48Z" /></clipPath>
<clipPath id="c9_142"><path d="M399.5,257.5l0,-48l68,0l0,48Z" /></clipPath>
<clipPath id="c10_142"><path d="M468.5,257.5l0,-48l342,0l0,48Z" /></clipPath>
<clipPath id="c11_142"><path d="M812.5,257.5l0,-48l60,0l0,48Z" /></clipPath>
<clipPath id="c12_142"><path d="M181.5,306.5l0,-47l217,0l0,47Z" /></clipPath>
<clipPath id="c13_142"><path d="M399.5,306.5l0,-47l68,0l0,47Z" /></clipPath>
<clipPath id="c14_142"><path d="M468.5,306.5l0,-47l342,0l0,47Z" /></clipPath>
<clipPath id="c15_142"><path d="M812.5,306.5l0,-47l60,0l0,47Z" /></clipPath>
<clipPath id="c16_142"><path d="M181.5,356.5l0,-48l217,0l0,48Z" /></clipPath>
<clipPath id="c17_142"><path d="M399.5,356.5l0,-48l68,0l0,48Z" /></clipPath>
<clipPath id="c18_142"><path d="M468.5,356.5l0,-48l342,0l0,48Z" /></clipPath>
<clipPath id="c19_142"><path d="M812.5,356.5l0,-48l60,0l0,48Z" /></clipPath>
<clipPath id="c20_142"><path d="M181.5,429.5l0,-72l217,0l0,72Z" /></clipPath>
<clipPath id="c21_142"><path d="M399.5,429.5l0,-72l68,0l0,72Z" /></clipPath>
<clipPath id="c22_142"><path d="M468.5,429.5l0,-72l342,0l0,72Z" /></clipPath>
<clipPath id="c23_142"><path d="M812.5,429.5l0,-72l60,0l0,72Z" /></clipPath>
<clipPath id="c24_142"><path d="M181.5,1086.5l0,-583l31,0l0,583Z" /></clipPath>
<clipPath id="c25_142"><path d="M214.5,1086.5l0,-583l31,0l0,583Z" /></clipPath>
<clipPath id="c26_142"><path d="M247.5,700.5l0,-40l151,0l0,40Z" /></clipPath>
<clipPath id="c27_142"><path d="M399.5,700.5l0,-40l68,0l0,40Z" /></clipPath>
<clipPath id="c28_142"><path d="M468.5,700.5l0,-40l342,0l0,40Z" /></clipPath>
<clipPath id="c29_142"><path d="M812.5,700.5l0,-40l60,0l0,40Z" /></clipPath>
<clipPath id="c30_142"><path d="M247.5,734.5l0,-33l151,0l0,33Z" /></clipPath>
<clipPath id="c31_142"><path d="M399.5,734.5l0,-33l68,0l0,33Z" /></clipPath>
<clipPath id="c32_142"><path d="M468.5,734.5l0,-33l342,0l0,33Z" /></clipPath>
<clipPath id="c33_142"><path d="M812.5,734.5l0,-33l60,0l0,33Z" /></clipPath>
<clipPath id="c34_142"><path d="M247.5,768.5l0,-32l151,0l0,32Z" /></clipPath>
<clipPath id="c35_142"><path d="M399.5,768.5l0,-32l68,0l0,32Z" /></clipPath>
<clipPath id="c36_142"><path d="M468.5,768.5l0,-32l342,0l0,32Z" /></clipPath>
<clipPath id="c37_142"><path d="M812.5,768.5l0,-32l60,0l0,32Z" /></clipPath>
<clipPath id="c38_142"><path d="M247.5,841.5l0,-71l151,0l0,71Z" /></clipPath>
<clipPath id="c39_142"><path d="M399.5,841.5l0,-71l68,0l0,71Z" /></clipPath>
<clipPath id="c40_142"><path d="M468.5,841.5l0,-71l342,0l0,71Z" /></clipPath>
<clipPath id="c41_142"><path d="M812.5,841.5l0,-71l60,0l0,71Z" /></clipPath>
<clipPath id="c42_142"><path d="M247.5,914.5l0,-71l151,0l0,71Z" /></clipPath>
<clipPath id="c43_142"><path d="M399.5,914.5l0,-71l68,0l0,71Z" /></clipPath>
<clipPath id="c44_142"><path d="M468.5,914.5l0,-71l342,0l0,71Z" /></clipPath>
<clipPath id="c45_142"><path d="M812.5,914.5l0,-71l60,0l0,71Z" /></clipPath>
<clipPath id="c46_142"><path d="M468.5,987.5l0,-71l342,0l0,71Z" /></clipPath>
<clipPath id="c47_142"><path d="M468.5,1037.5l0,-48l342,0l0,48Z" /></clipPath>
<clipPath id="c48_142"><path d="M812.5,1037.5l0,-48l60,0l0,48Z" /></clipPath>
<clipPath id="c49_142"><path d="M468.5,1086.5l0,-48l342,0l0,48Z" /></clipPath>
<style type="text/css"><![CDATA[
.g2_142{
fill: none;
stroke: #7E7E7E;
stroke-width: 1;
stroke-linecap: butt;
stroke-linejoin: miter;
}
.g1_142{
fill: #F1F1F1;
}
]]></style>
</defs>
<path fill-rule="evenodd" d="M47,159l33,0l0,-48l-33,0l0,48Z" class="g1_142" />
<path fill-rule="evenodd" d="M81,159l32,0l0,-48l-32,0l0,48Z" class="g1_142" />
<path fill-rule="evenodd" d="M115,159l31,0l0,-48l-31,0l0,48Z" class="g1_142" />
<path fill-rule="evenodd" d="M148,159l31,0l0,-48l-31,0l0,48Z" class="g1_142" />
<path fill-rule="evenodd" d="M181,159l217,0l0,-48l-217,0l0,48Z" class="g1_142" />
<g clip-path="url(#c0_142)">
<path fill-rule="evenodd" d="M188,135l202,0l0,-24l-202,0l0,24Z" class="g1_142" />
</g>
<path fill-rule="evenodd" d="M399,159l68,0l0,-48l-68,0l0,48Z" class="g1_142" />
<g clip-path="url(#c1_142)">
<path fill-rule="evenodd" d="M407,135l52,0l0,-24l-52,0l0,24Z" class="g1_142" />
</g>
<path fill-rule="evenodd" d="M468,159l342,0l0,-48l-342,0l0,48Z" class="g1_142" />
<g clip-path="url(#c2_142)">
<path fill-rule="evenodd" d="M476,135l327,0l0,-24l-327,0l0,24Z" class="g1_142" />
</g>
<path fill-rule="evenodd" d="M476,159l327,0l0,-24l-327,0l0,24Z" class="g1_142" />
<path fill-rule="evenodd" d="M812,159l60,0l0,-48l-60,0l0,48Z" class="g1_142" />
<g clip-path="url(#c3_142)">
<path fill-rule="evenodd" d="M819,135l45,0l0,-24l-45,0l0,24Z" class="g1_142" />
</g>
<path fill-rule="evenodd" d="M819,159l45,0l0,-24l-45,0l0,24Z" class="g1_142" />
<path d="M46.5,111.5l0,-1" class="g2_142" />
<path d="M46.5,111.5l0,-1" class="g2_142" />
<path d="M47.5,111.5l33,0" class="g2_142" />
<path d="M80.5,111.5l0,-1" class="g2_142" />
<path d="M81.5,111.5l32,0" class="g2_142" />
<path d="M113.5,111.5l0,-1" class="g2_142" />
<path d="M114.5,111.5l32,0" class="g2_142" />
<path d="M146.5,111.5l0,-1" class="g2_142" />
<path d="M148.5,111.5l31,0" class="g2_142" />
<path d="M179.5,111.5l0,-1" class="g2_142" />
<path d="M181.5,111.5l217,0" class="g2_142" />
<path d="M398.5,111.5l0,-1" class="g2_142" />
<path d="M399.5,111.5l68,0" class="g2_142" />
<path d="M467.5,111.5l0,-1" class="g2_142" />
<path d="M468.5,111.5l342,0" class="g2_142" />
<path d="M810.5,111.5l0,-1" class="g2_142" />
<path d="M812.5,111.5l60,0" class="g2_142" />
<path d="M872.5,111.5l0,-1" class="g2_142" />
<path d="M872.5,111.5l0,-1" class="g2_142" />
<path d="M46.5,159.5l0,-48" class="g2_142" />
<path d="M80.5,159.5l0,-48" class="g2_142" />
<path d="M113.5,159.5l0,-48" class="g2_142" />
<path d="M146.5,159.5l0,-48" class="g2_142" />
<path d="M179.5,159.5l0,-48" class="g2_142" />
<path d="M398.5,159.5l0,-48" class="g2_142" />
<path d="M467.5,159.5l0,-48" class="g2_142" />
<path d="M810.5,159.5l0,-48" class="g2_142" />
<path d="M872.5,159.5l0,-48" class="g2_142" />
<path fill-rule="evenodd" d="M47,208l33,0l0,-49l-33,0l0,49Z" class="g1_142" />
<path fill-rule="evenodd" d="M81,208l32,0l0,-49l-32,0l0,49Z" class="g1_142" />
<path fill-rule="evenodd" d="M115,208l31,0l0,-49l-31,0l0,49Z" class="g1_142" />
<path fill-rule="evenodd" d="M148,208l31,0l0,-49l-31,0l0,49Z" class="g1_142" />
<path fill-rule="evenodd" d="M181,208l217,0l0,-48l-217,0l0,48Z" class="g1_142" />
<g clip-path="url(#c4_142)">
<path fill-rule="evenodd" d="M188,184l202,0l0,-24l-202,0l0,24Z" class="g1_142" />
</g>
<path fill-rule="evenodd" d="M399,208l68,0l0,-48l-68,0l0,48Z" class="g1_142" />
<g clip-path="url(#c5_142)">
<path fill-rule="evenodd" d="M407,184l52,0l0,-24l-52,0l0,24Z" class="g1_142" />
</g>
<path fill-rule="evenodd" d="M468,208l342,0l0,-48l-342,0l0,48Z" class="g1_142" />
<g clip-path="url(#c6_142)">
<path fill-rule="evenodd" d="M476,184l327,0l0,-24l-327,0l0,24Z" class="g1_142" />
</g>
<path fill-rule="evenodd" d="M476,208l327,0l0,-24l-327,0l0,24Z" class="g1_142" />
<path fill-rule="evenodd" d="M812,208l60,0l0,-48l-60,0l0,48Z" class="g1_142" />
<g clip-path="url(#c7_142)">
<path fill-rule="evenodd" d="M819,184l45,0l0,-24l-45,0l0,24Z" class="g1_142" />
</g>
<path d="M46.5,160.5l0,-1" class="g2_142" />
<path d="M80.5,160.5l0,-1" class="g2_142" />
<path d="M113.5,160.5l0,-1" class="g2_142" />
<path d="M146.5,160.5l0,-1" class="g2_142" />
<path d="M179.5,160.5l0,-1" class="g2_142" />
<path d="M181.5,160.5l217,0" class="g2_142" />
<path d="M398.5,160.5l0,-1" class="g2_142" />
<path d="M399.5,160.5l68,0" class="g2_142" />
<path d="M467.5,160.5l0,-1" class="g2_142" />
<path d="M468.5,160.5l342,0" class="g2_142" />
<path d="M810.5,160.5l0,-1" class="g2_142" />
<path d="M812.5,160.5l60,0" class="g2_142" />
<path d="M872.5,160.5l0,-1" class="g2_142" />
<path d="M46.5,208.5l0,-48" class="g2_142" />
<path d="M80.5,208.5l0,-48" class="g2_142" />
<path d="M113.5,208.5l0,-48" class="g2_142" />
<path d="M146.5,208.5l0,-48" class="g2_142" />
<path d="M179.5,208.5l0,-48" class="g2_142" />
<path d="M398.5,208.5l0,-48" class="g2_142" />
<path d="M467.5,208.5l0,-48" class="g2_142" />
<path d="M810.5,208.5l0,-48" class="g2_142" />
<path d="M872.5,208.5l0,-48" class="g2_142" />
<path fill-rule="evenodd" d="M47,257l33,0l0,-49l-33,0l0,49Z" class="g1_142" />
<path fill-rule="evenodd" d="M81,257l32,0l0,-49l-32,0l0,49Z" class="g1_142" />
<path fill-rule="evenodd" d="M115,257l31,0l0,-49l-31,0l0,49Z" class="g1_142" />
<path fill-rule="evenodd" d="M148,257l31,0l0,-49l-31,0l0,49Z" class="g1_142" />
<path fill-rule="evenodd" d="M181,257l217,0l0,-48l-217,0l0,48Z" class="g1_142" />
<g clip-path="url(#c8_142)">
<path fill-rule="evenodd" d="M188,233l202,0l0,-24l-202,0l0,24Z" class="g1_142" />
</g>
<path fill-rule="evenodd" d="M399,257l68,0l0,-48l-68,0l0,48Z" class="g1_142" />
<g clip-path="url(#c9_142)">
<path fill-rule="evenodd" d="M407,233l52,0l0,-24l-52,0l0,24Z" class="g1_142" />
</g>
<path fill-rule="evenodd" d="M468,257l342,0l0,-48l-342,0l0,48Z" class="g1_142" />
<g clip-path="url(#c10_142)">
<path fill-rule="evenodd" d="M476,233l327,0l0,-24l-327,0l0,24Z" class="g1_142" />
</g>
<path fill-rule="evenodd" d="M476,257l327,0l0,-24l-327,0l0,24Z" class="g1_142" />
<path fill-rule="evenodd" d="M812,257l60,0l0,-48l-60,0l0,48Z" class="g1_142" />
<g clip-path="url(#c11_142)">
<path fill-rule="evenodd" d="M819,233l45,0l0,-24l-45,0l0,24Z" class="g1_142" />
</g>
<path d="M46.5,209.5l0,-1" class="g2_142" />
<path d="M80.5,209.5l0,-1" class="g2_142" />
<path d="M113.5,209.5l0,-1" class="g2_142" />
<path d="M146.5,209.5l0,-1" class="g2_142" />
<path d="M179.5,209.5l0,-1" class="g2_142" />
<path d="M181.5,209.5l217,0" class="g2_142" />
<path d="M398.5,209.5l0,-1" class="g2_142" />
<path d="M399.5,209.5l68,0" class="g2_142" />
<path d="M467.5,209.5l0,-1" class="g2_142" />
<path d="M468.5,209.5l342,0" class="g2_142" />
<path d="M810.5,209.5l0,-1" class="g2_142" />
<path d="M812.5,209.5l60,0" class="g2_142" />
<path d="M872.5,209.5l0,-1" class="g2_142" />
<path d="M46.5,257.5l0,-48" class="g2_142" />
<path d="M80.5,257.5l0,-48" class="g2_142" />
<path d="M113.5,257.5l0,-48" class="g2_142" />
<path d="M146.5,257.5l0,-48" class="g2_142" />
<path d="M179.5,257.5l0,-48" class="g2_142" />
<path d="M398.5,257.5l0,-48" class="g2_142" />
<path d="M467.5,257.5l0,-48" class="g2_142" />
<path d="M810.5,257.5l0,-48" class="g2_142" />
<path d="M872.5,257.5l0,-48" class="g2_142" />
<path fill-rule="evenodd" d="M47,306l33,0l0,-49l-33,0l0,49Z" class="g1_142" />
<path fill-rule="evenodd" d="M81,306l32,0l0,-49l-32,0l0,49Z" class="g1_142" />
<path fill-rule="evenodd" d="M115,306l31,0l0,-49l-31,0l0,49Z" class="g1_142" />
<path fill-rule="evenodd" d="M148,306l31,0l0,-49l-31,0l0,49Z" class="g1_142" />
<path fill-rule="evenodd" d="M181,306l217,0l0,-47l-217,0l0,47Z" class="g1_142" />
<g clip-path="url(#c12_142)">
<path fill-rule="evenodd" d="M188,282l202,0l0,-23l-202,0l0,23Z" class="g1_142" />
</g>
<path fill-rule="evenodd" d="M399,306l68,0l0,-47l-68,0l0,47Z" class="g1_142" />
<g clip-path="url(#c13_142)">
<path fill-rule="evenodd" d="M407,282l52,0l0,-23l-52,0l0,23Z" class="g1_142" />
</g>
<path fill-rule="evenodd" d="M468,306l342,0l0,-47l-342,0l0,47Z" class="g1_142" />
<g clip-path="url(#c14_142)">
<path fill-rule="evenodd" d="M476,282l327,0l0,-23l-327,0l0,23Z" class="g1_142" />
</g>
<path fill-rule="evenodd" d="M476,306l327,0l0,-24l-327,0l0,24Z" class="g1_142" />
<path fill-rule="evenodd" d="M812,306l60,0l0,-47l-60,0l0,47Z" class="g1_142" />
<g clip-path="url(#c15_142)">
<path fill-rule="evenodd" d="M819,282l45,0l0,-23l-45,0l0,23Z" class="g1_142" />
</g>
<path d="M46.5,259.5l0,-2" class="g2_142" />
<path d="M80.5,259.5l0,-2" class="g2_142" />
<path d="M113.5,259.5l0,-2" class="g2_142" />
<path d="M146.5,259.5l0,-2" class="g2_142" />
<path d="M179.5,259.5l0,-2" class="g2_142" />
<path d="M181.5,259.5l217,0" class="g2_142" />
<path d="M398.5,259.5l0,-2" class="g2_142" />
<path d="M399.5,259.5l68,0" class="g2_142" />
<path d="M467.5,259.5l0,-2" class="g2_142" />
<path d="M468.5,259.5l342,0" class="g2_142" />
<path d="M810.5,259.5l0,-2" class="g2_142" />
<path d="M812.5,259.5l60,0" class="g2_142" />
<path d="M872.5,259.5l0,-2" class="g2_142" />
<path d="M46.5,306.5l0,-47" class="g2_142" />
<path d="M80.5,306.5l0,-47" class="g2_142" />
<path d="M113.5,306.5l0,-47" class="g2_142" />
<path d="M146.5,306.5l0,-47" class="g2_142" />
<path d="M179.5,306.5l0,-47" class="g2_142" />
<path d="M398.5,306.5l0,-47" class="g2_142" />
<path d="M467.5,306.5l0,-47" class="g2_142" />
<path d="M810.5,306.5l0,-47" class="g2_142" />
<path d="M872.5,306.5l0,-47" class="g2_142" />
<path fill-rule="evenodd" d="M47,356l33,0l0,-50l-33,0l0,50Z" class="g1_142" />
<path fill-rule="evenodd" d="M81,356l32,0l0,-50l-32,0l0,50Z" class="g1_142" />
<path fill-rule="evenodd" d="M115,356l31,0l0,-50l-31,0l0,50Z" class="g1_142" />
<path fill-rule="evenodd" d="M148,356l31,0l0,-50l-31,0l0,50Z" class="g1_142" />
<path fill-rule="evenodd" d="M181,356l217,0l0,-48l-217,0l0,48Z" class="g1_142" />
<g clip-path="url(#c16_142)">
<path fill-rule="evenodd" d="M188,332l202,0l0,-24l-202,0l0,24Z" class="g1_142" />
</g>
<path fill-rule="evenodd" d="M399,356l68,0l0,-48l-68,0l0,48Z" class="g1_142" />
<g clip-path="url(#c17_142)">
<path fill-rule="evenodd" d="M407,332l52,0l0,-24l-52,0l0,24Z" class="g1_142" />
</g>
<path fill-rule="evenodd" d="M468,356l342,0l0,-48l-342,0l0,48Z" class="g1_142" />
<g clip-path="url(#c18_142)">
<path fill-rule="evenodd" d="M476,332l327,0l0,-24l-327,0l0,24Z" class="g1_142" />
</g>
<path fill-rule="evenodd" d="M476,356l327,0l0,-24l-327,0l0,24Z" class="g1_142" />
<path fill-rule="evenodd" d="M812,356l60,0l0,-48l-60,0l0,48Z" class="g1_142" />
<g clip-path="url(#c19_142)">
<path fill-rule="evenodd" d="M819,332l45,0l0,-24l-45,0l0,24Z" class="g1_142" />
</g>
<path d="M46.5,308.5l0,-2" class="g2_142" />
<path d="M80.5,308.5l0,-2" class="g2_142" />
<path d="M113.5,308.5l0,-2" class="g2_142" />
<path d="M146.5,308.5l0,-2" class="g2_142" />
<path d="M179.5,308.5l0,-2" class="g2_142" />
<path d="M181.5,308.5l217,0" class="g2_142" />
<path d="M398.5,308.5l0,-2" class="g2_142" />
<path d="M399.5,308.5l68,0" class="g2_142" />
<path d="M467.5,308.5l0,-2" class="g2_142" />
<path d="M468.5,308.5l342,0" class="g2_142" />
<path d="M810.5,308.5l0,-2" class="g2_142" />
<path d="M812.5,308.5l60,0" class="g2_142" />
<path d="M872.5,308.5l0,-2" class="g2_142" />
<path d="M46.5,356.5l0,-48" class="g2_142" />
<path d="M80.5,356.5l0,-48" class="g2_142" />
<path d="M113.5,356.5l0,-48" class="g2_142" />
<path d="M146.5,356.5l0,-48" class="g2_142" />
<path d="M179.5,356.5l0,-48" class="g2_142" />
<path d="M398.5,356.5l0,-48" class="g2_142" />
<path d="M467.5,356.5l0,-48" class="g2_142" />
<path d="M810.5,356.5l0,-48" class="g2_142" />
<path d="M872.5,356.5l0,-48" class="g2_142" />
<path fill-rule="evenodd" d="M47,429l33,0l0,-73l-33,0l0,73Z" class="g1_142" />
<path fill-rule="evenodd" d="M81,429l32,0l0,-73l-32,0l0,73Z" class="g1_142" />
<path fill-rule="evenodd" d="M115,429l31,0l0,-73l-31,0l0,73Z" class="g1_142" />
<path fill-rule="evenodd" d="M148,429l31,0l0,-73l-31,0l0,73Z" class="g1_142" />
<path fill-rule="evenodd" d="M181,429l217,0l0,-72l-217,0l0,72Z" class="g1_142" />
<g clip-path="url(#c20_142)">
<path fill-rule="evenodd" d="M188,381l202,0l0,-24l-202,0l0,24Z" class="g1_142" />
</g>
<path fill-rule="evenodd" d="M399,429l68,0l0,-72l-68,0l0,72Z" class="g1_142" />
<g clip-path="url(#c21_142)">
<path fill-rule="evenodd" d="M407,381l52,0l0,-24l-52,0l0,24Z" class="g1_142" />
</g>
<path fill-rule="evenodd" d="M468,429l342,0l0,-72l-342,0l0,72Z" class="g1_142" />
<g clip-path="url(#c22_142)">
<path fill-rule="evenodd" d="M476,381l327,0l0,-24l-327,0l0,24Z" class="g1_142" />
</g>
<path fill-rule="evenodd" d="M476,405l327,0l0,-24l-327,0l0,24Z" class="g1_142" />
<path fill-rule="evenodd" d="M476,429l327,0l0,-24l-327,0l0,24Z" class="g1_142" />
<path fill-rule="evenodd" d="M812,429l60,0l0,-72l-60,0l0,72Z" class="g1_142" />
<g clip-path="url(#c23_142)">
<path fill-rule="evenodd" d="M819,381l45,0l0,-24l-45,0l0,24Z" class="g1_142" />
</g>
<path d="M46.5,357.5l0,-1" class="g2_142" />
<path d="M80.5,357.5l0,-1" class="g2_142" />
<path d="M113.5,357.5l0,-1" class="g2_142" />
<path d="M146.5,357.5l0,-1" class="g2_142" />
<path d="M179.5,357.5l0,-1" class="g2_142" />
<path d="M181.5,357.5l217,0" class="g2_142" />
<path d="M398.5,357.5l0,-1" class="g2_142" />
<path d="M399.5,357.5l68,0" class="g2_142" />
<path d="M467.5,357.5l0,-1" class="g2_142" />
<path d="M468.5,357.5l342,0" class="g2_142" />
<path d="M810.5,357.5l0,-1" class="g2_142" />
<path d="M812.5,357.5l60,0" class="g2_142" />
<path d="M872.5,357.5l0,-1" class="g2_142" />
<path d="M46.5,429.5l0,-72" class="g2_142" />
<path d="M80.5,429.5l0,-72" class="g2_142" />
<path d="M113.5,429.5l0,-72" class="g2_142" />
<path d="M146.5,429.5l0,-72" class="g2_142" />
<path d="M179.5,429.5l0,-72" class="g2_142" />
<path d="M398.5,429.5l0,-72" class="g2_142" />
<path d="M467.5,429.5l0,-72" class="g2_142" />
<path d="M810.5,429.5l0,-72" class="g2_142" />
<path d="M872.5,429.5l0,-72" class="g2_142" />
<path fill-rule="evenodd" d="M47,502l33,0l0,-73l-33,0l0,73Z" class="g1_142" />
<path fill-rule="evenodd" d="M81,502l32,0l0,-73l-32,0l0,73Z" class="g1_142" />
<path fill-rule="evenodd" d="M115,502l31,0l0,-73l-31,0l0,73Z" class="g1_142" />
<path fill-rule="evenodd" d="M148,502l31,0l0,-73l-31,0l0,73Z" class="g1_142" />
<path fill-rule="evenodd" d="M181,502l217,0l0,-72l-217,0l0,72Z" class="g1_142" />
<path fill-rule="evenodd" d="M188,454l202,0l0,-24l-202,0l0,24Z" class="g1_142" />
<path fill-rule="evenodd" d="M399,502l68,0l0,-72l-68,0l0,72Z" class="g1_142" />
<path fill-rule="evenodd" d="M407,454l52,0l0,-24l-52,0l0,24Z" class="g1_142" />
<path fill-rule="evenodd" d="M468,502l342,0l0,-72l-342,0l0,72Z" class="g1_142" />
<path fill-rule="evenodd" d="M476,454l327,0l0,-24l-327,0l0,24Z" class="g1_142" />
<path fill-rule="evenodd" d="M476,478l327,0l0,-24l-327,0l0,24Z" class="g1_142" />
<path fill-rule="evenodd" d="M476,502l327,0l0,-24l-327,0l0,24Z" class="g1_142" />
<path fill-rule="evenodd" d="M812,502l60,0l0,-72l-60,0l0,72Z" class="g1_142" />
<path fill-rule="evenodd" d="M819,454l45,0l0,-24l-45,0l0,24Z" class="g1_142" />
<path d="M46.5,430.5l0,-1" class="g2_142" />
<path d="M80.5,430.5l0,-1" class="g2_142" />
<path d="M113.5,430.5l0,-1" class="g2_142" />
<path d="M146.5,430.5l0,-1" class="g2_142" />
<path d="M179.5,430.5l0,-1" class="g2_142" />
<path d="M181.5,430.5l217,0" class="g2_142" />
<path d="M398.5,430.5l0,-1" class="g2_142" />
<path d="M399.5,430.5l68,0" class="g2_142" />
<path d="M467.5,430.5l0,-1" class="g2_142" />
<path d="M468.5,430.5l342,0" class="g2_142" />
<path d="M810.5,430.5l0,-1" class="g2_142" />
<path d="M812.5,430.5l60,0" class="g2_142" />
<path d="M872.5,430.5l0,-1" class="g2_142" />
<path d="M46.5,502.5l0,-72" class="g2_142" />
<path d="M80.5,502.5l0,-72" class="g2_142" />
<path d="M113.5,502.5l0,-72" class="g2_142" />
<path d="M146.5,502.5l0,-72" class="g2_142" />
<path d="M179.5,502.5l0,-72" class="g2_142" />
<path d="M398.5,502.5l0,-72" class="g2_142" />
<path d="M467.5,502.5l0,-72" class="g2_142" />
<path d="M810.5,502.5l0,-72" class="g2_142" />
<path d="M872.5,502.5l0,-72" class="g2_142" />
<path fill-rule="evenodd" d="M47,542l33,0l0,-40l-33,0l0,40Z" class="g1_142" />
<path fill-rule="evenodd" d="M81,542l32,0l0,-40l-32,0l0,40Z" class="g1_142" />
<path fill-rule="evenodd" d="M115,542l31,0l0,-40l-31,0l0,40Z" class="g1_142" />
<path fill-rule="evenodd" d="M148,542l31,0l0,-40l-31,0l0,40Z" class="g1_142" />
<path fill-rule="evenodd" d="M181,1086l31,0l0,-583l-31,0l0,583Z" class="g1_142" />
<g clip-path="url(#c24_142)">
<path fill-rule="evenodd" d="M188,1086l24,0l0,-583l-24,0l0,583Z" class="g1_142" />
</g>
<path fill-rule="evenodd" d="M214,1086l31,0l0,-583l-31,0l0,583Z" class="g1_142" />
<g clip-path="url(#c25_142)">
<path fill-rule="evenodd" d="M221,1086l24,0l0,-583l-24,0l0,583Z" class="g1_142" />
</g>
<path fill-rule="evenodd" d="M247,542l151,0l0,-39l-151,0l0,39Z" class="g1_142" />
<path fill-rule="evenodd" d="M254,527l136,0l0,-24l-136,0l0,24Z" class="g1_142" />
<path fill-rule="evenodd" d="M399,542l68,0l0,-39l-68,0l0,39Z" class="g1_142" />
<path fill-rule="evenodd" d="M407,527l52,0l0,-24l-52,0l0,24Z" class="g1_142" />
<path fill-rule="evenodd" d="M468,542l342,0l0,-39l-342,0l0,39Z" class="g1_142" />
<path fill-rule="evenodd" d="M476,527l327,0l0,-24l-327,0l0,24Z" class="g1_142" />
<path fill-rule="evenodd" d="M812,542l60,0l0,-39l-60,0l0,39Z" class="g1_142" />
<path fill-rule="evenodd" d="M819,527l45,0l0,-24l-45,0l0,24Z" class="g1_142" />
<path d="M46.5,503.5l0,-1" class="g2_142" />
<path d="M80.5,503.5l0,-1" class="g2_142" />
<path d="M113.5,503.5l0,-1" class="g2_142" />
<path d="M146.5,503.5l0,-1" class="g2_142" />
<path d="M179.5,503.5l0,-1" class="g2_142" />
<path d="M181.5,503.5l31,0" class="g2_142" />
<path d="M212.5,503.5l0,-1" class="g2_142" />
<path d="M214.5,503.5l31,0" class="g2_142" />
<path d="M245.5,503.5l0,-1" class="g2_142" />
<path d="M247.5,503.5l151,0" class="g2_142" />
<path d="M398.5,503.5l0,-1" class="g2_142" />
<path d="M399.5,503.5l68,0" class="g2_142" />
<path d="M467.5,503.5l0,-1" class="g2_142" />
<path d="M468.5,503.5l342,0" class="g2_142" />
<path d="M810.5,503.5l0,-1" class="g2_142" />
<path d="M812.5,503.5l60,0" class="g2_142" />
<path d="M872.5,503.5l0,-1" class="g2_142" />
<path d="M46.5,542.5l0,-39" class="g2_142" />
<path d="M80.5,542.5l0,-39" class="g2_142" />
<path d="M113.5,542.5l0,-39" class="g2_142" />
<path d="M146.5,542.5l0,-39" class="g2_142" />
<path d="M179.5,542.5l0,-39" class="g2_142" />
<path d="M212.5,542.5l0,-39" class="g2_142" />
<path d="M245.5,542.5l0,-39" class="g2_142" />
<path d="M398.5,542.5l0,-39" class="g2_142" />
<path d="M467.5,542.5l0,-39" class="g2_142" />
<path d="M810.5,542.5l0,-39" class="g2_142" />
<path d="M872.5,542.5l0,-39" class="g2_142" />
<path fill-rule="evenodd" d="M47,583l33,0l0,-41l-33,0l0,41Z" class="g1_142" />
<path fill-rule="evenodd" d="M81,583l32,0l0,-41l-32,0l0,41Z" class="g1_142" />
<path fill-rule="evenodd" d="M115,583l31,0l0,-41l-31,0l0,41Z" class="g1_142" />
<path fill-rule="evenodd" d="M148,583l31,0l0,-41l-31,0l0,41Z" class="g1_142" />
<path fill-rule="evenodd" d="M247,583l151,0l0,-40l-151,0l0,40Z" class="g1_142" />
<path fill-rule="evenodd" d="M254,567l136,0l0,-24l-136,0l0,24Z" class="g1_142" />
<path fill-rule="evenodd" d="M399,583l68,0l0,-40l-68,0l0,40Z" class="g1_142" />
<path fill-rule="evenodd" d="M407,567l52,0l0,-24l-52,0l0,24Z" class="g1_142" />
<path fill-rule="evenodd" d="M468,583l342,0l0,-40l-342,0l0,40Z" class="g1_142" />
<path fill-rule="evenodd" d="M476,567l327,0l0,-24l-327,0l0,24Z" class="g1_142" />
<path fill-rule="evenodd" d="M812,583l60,0l0,-40l-60,0l0,40Z" class="g1_142" />
<path fill-rule="evenodd" d="M819,567l45,0l0,-24l-45,0l0,24Z" class="g1_142" />
<path d="M46.5,543.5l0,-1" class="g2_142" />
<path d="M80.5,543.5l0,-1" class="g2_142" />
<path d="M113.5,543.5l0,-1" class="g2_142" />
<path d="M146.5,543.5l0,-1" class="g2_142" />
<path d="M179.5,543.5l0,-1" class="g2_142" />
<path d="M212.5,543.5l0,-1" class="g2_142" />
<path d="M245.5,543.5l0,-1" class="g2_142" />
<path d="M247.5,543.5l151,0" class="g2_142" />
<path d="M398.5,543.5l0,-1" class="g2_142" />
<path d="M399.5,543.5l68,0" class="g2_142" />
<path d="M467.5,543.5l0,-1" class="g2_142" />
<path d="M468.5,543.5l342,0" class="g2_142" />
<path d="M810.5,543.5l0,-1" class="g2_142" />
<path d="M812.5,543.5l60,0" class="g2_142" />
<path d="M872.5,543.5l0,-1" class="g2_142" />
<path d="M46.5,583.5l0,-40" class="g2_142" />
<path d="M80.5,583.5l0,-40" class="g2_142" />
<path d="M113.5,583.5l0,-40" class="g2_142" />
<path d="M146.5,583.5l0,-40" class="g2_142" />
<path d="M179.5,583.5l0,-40" class="g2_142" />
<path d="M212.5,583.5l0,-40" class="g2_142" />
<path d="M245.5,583.5l0,-40" class="g2_142" />
<path d="M398.5,583.5l0,-40" class="g2_142" />
<path d="M467.5,583.5l0,-40" class="g2_142" />
<path d="M810.5,583.5l0,-40" class="g2_142" />
<path d="M872.5,583.5l0,-40" class="g2_142" />
<path fill-rule="evenodd" d="M47,624l33,0l0,-41l-33,0l0,41Z" class="g1_142" />
<path fill-rule="evenodd" d="M81,624l32,0l0,-41l-32,0l0,41Z" class="g1_142" />
<path fill-rule="evenodd" d="M115,624l31,0l0,-41l-31,0l0,41Z" class="g1_142" />
<path fill-rule="evenodd" d="M148,624l31,0l0,-41l-31,0l0,41Z" class="g1_142" />
<path fill-rule="evenodd" d="M247,624l151,0l0,-40l-151,0l0,40Z" class="g1_142" />
<path fill-rule="evenodd" d="M254,608l136,0l0,-24l-136,0l0,24Z" class="g1_142" />
<path fill-rule="evenodd" d="M399,624l68,0l0,-40l-68,0l0,40Z" class="g1_142" />
<path fill-rule="evenodd" d="M407,608l52,0l0,-24l-52,0l0,24Z" class="g1_142" />
<path fill-rule="evenodd" d="M468,624l342,0l0,-40l-342,0l0,40Z" class="g1_142" />
<path fill-rule="evenodd" d="M476,608l327,0l0,-24l-327,0l0,24Z" class="g1_142" />
<path fill-rule="evenodd" d="M812,624l60,0l0,-40l-60,0l0,40Z" class="g1_142" />
<path fill-rule="evenodd" d="M819,608l45,0l0,-24l-45,0l0,24Z" class="g1_142" />
<path d="M46.5,584.5l0,-1" class="g2_142" />
<path d="M80.5,584.5l0,-1" class="g2_142" />
<path d="M113.5,584.5l0,-1" class="g2_142" />
<path d="M146.5,584.5l0,-1" class="g2_142" />
<path d="M179.5,584.5l0,-1" class="g2_142" />
<path d="M212.5,584.5l0,-1" class="g2_142" />
<path d="M245.5,584.5l0,-1" class="g2_142" />
<path d="M247.5,584.5l151,0" class="g2_142" />
<path d="M398.5,584.5l0,-1" class="g2_142" />
<path d="M399.5,584.5l68,0" class="g2_142" />
<path d="M467.5,584.5l0,-1" class="g2_142" />
<path d="M468.5,584.5l342,0" class="g2_142" />
<path d="M810.5,584.5l0,-1" class="g2_142" />
<path d="M812.5,584.5l60,0" class="g2_142" />
<path d="M872.5,584.5l0,-1" class="g2_142" />
<path d="M46.5,624.5l0,-40" class="g2_142" />
<path d="M80.5,624.5l0,-40" class="g2_142" />
<path d="M113.5,624.5l0,-40" class="g2_142" />
<path d="M146.5,624.5l0,-40" class="g2_142" />
<path d="M179.5,624.5l0,-40" class="g2_142" />
<path d="M212.5,624.5l0,-40" class="g2_142" />
<path d="M245.5,624.5l0,-40" class="g2_142" />
<path d="M398.5,624.5l0,-40" class="g2_142" />
<path d="M467.5,624.5l0,-40" class="g2_142" />
<path d="M810.5,624.5l0,-40" class="g2_142" />
<path d="M872.5,624.5l0,-40" class="g2_142" />
<path fill-rule="evenodd" d="M47,658l33,0l0,-34l-33,0l0,34Z" class="g1_142" />
<path fill-rule="evenodd" d="M81,658l32,0l0,-34l-32,0l0,34Z" class="g1_142" />
<path fill-rule="evenodd" d="M115,658l31,0l0,-34l-31,0l0,34Z" class="g1_142" />
<path fill-rule="evenodd" d="M148,658l31,0l0,-34l-31,0l0,34Z" class="g1_142" />
<path fill-rule="evenodd" d="M247,658l151,0l0,-33l-151,0l0,33Z" class="g1_142" />
<path fill-rule="evenodd" d="M254,649l136,0l0,-24l-136,0l0,24Z" class="g1_142" />
<path fill-rule="evenodd" d="M399,658l68,0l0,-33l-68,0l0,33Z" class="g1_142" />
<path fill-rule="evenodd" d="M407,649l52,0l0,-24l-52,0l0,24Z" class="g1_142" />
<path fill-rule="evenodd" d="M468,658l342,0l0,-33l-342,0l0,33Z" class="g1_142" />
<path fill-rule="evenodd" d="M476,649l327,0l0,-24l-327,0l0,24Z" class="g1_142" />
<path fill-rule="evenodd" d="M812,658l60,0l0,-33l-60,0l0,33Z" class="g1_142" />
<path fill-rule="evenodd" d="M819,649l45,0l0,-24l-45,0l0,24Z" class="g1_142" />
<path d="M46.5,625.5l0,-1" class="g2_142" />
<path d="M80.5,625.5l0,-1" class="g2_142" />
<path d="M113.5,625.5l0,-1" class="g2_142" />
<path d="M146.5,625.5l0,-1" class="g2_142" />
<path d="M179.5,625.5l0,-1" class="g2_142" />
<path d="M212.5,625.5l0,-1" class="g2_142" />
<path d="M245.5,625.5l0,-1" class="g2_142" />
<path d="M247.5,625.5l151,0" class="g2_142" />
<path d="M398.5,625.5l0,-1" class="g2_142" />
<path d="M399.5,625.5l68,0" class="g2_142" />
<path d="M467.5,625.5l0,-1" class="g2_142" />
<path d="M468.5,625.5l342,0" class="g2_142" />
<path d="M810.5,625.5l0,-1" class="g2_142" />
<path d="M812.5,625.5l60,0" class="g2_142" />
<path d="M872.5,625.5l0,-1" class="g2_142" />
<path d="M46.5,658.5l0,-33" class="g2_142" />
<path d="M80.5,658.5l0,-33" class="g2_142" />
<path d="M113.5,658.5l0,-33" class="g2_142" />
<path d="M146.5,658.5l0,-33" class="g2_142" />
<path d="M179.5,658.5l0,-33" class="g2_142" />
<path d="M212.5,658.5l0,-33" class="g2_142" />
<path d="M245.5,658.5l0,-33" class="g2_142" />
<path d="M398.5,658.5l0,-33" class="g2_142" />
<path d="M467.5,658.5l0,-33" class="g2_142" />
<path d="M810.5,658.5l0,-33" class="g2_142" />
<path d="M872.5,658.5l0,-33" class="g2_142" />
<path fill-rule="evenodd" d="M47,700l33,0l0,-42l-33,0l0,42Z" class="g1_142" />
<path fill-rule="evenodd" d="M81,700l32,0l0,-42l-32,0l0,42Z" class="g1_142" />
<path fill-rule="evenodd" d="M115,700l31,0l0,-42l-31,0l0,42Z" class="g1_142" />
<path fill-rule="evenodd" d="M148,700l31,0l0,-42l-31,0l0,42Z" class="g1_142" />
<path fill-rule="evenodd" d="M247,700l151,0l0,-40l-151,0l0,40Z" class="g1_142" />
<g clip-path="url(#c26_142)">
<path fill-rule="evenodd" d="M254,684l136,0l0,-24l-136,0l0,24Z" class="g1_142" />
</g>
<path fill-rule="evenodd" d="M399,700l68,0l0,-40l-68,0l0,40Z" class="g1_142" />
<g clip-path="url(#c27_142)">
<path fill-rule="evenodd" d="M407,684l52,0l0,-24l-52,0l0,24Z" class="g1_142" />
</g>
<path fill-rule="evenodd" d="M468,700l342,0l0,-40l-342,0l0,40Z" class="g1_142" />
<g clip-path="url(#c28_142)">
<path fill-rule="evenodd" d="M476,684l327,0l0,-24l-327,0l0,24Z" class="g1_142" />
</g>
<path fill-rule="evenodd" d="M812,700l60,0l0,-40l-60,0l0,40Z" class="g1_142" />
<g clip-path="url(#c29_142)">
<path fill-rule="evenodd" d="M819,684l45,0l0,-24l-45,0l0,24Z" class="g1_142" />
</g>
<path d="M46.5,660.5l0,-2" class="g2_142" />
<path d="M80.5,660.5l0,-2" class="g2_142" />
<path d="M113.5,660.5l0,-2" class="g2_142" />
<path d="M146.5,660.5l0,-2" class="g2_142" />
<path d="M179.5,660.5l0,-2" class="g2_142" />
<path d="M212.5,660.5l0,-2" class="g2_142" />
<path d="M245.5,660.5l0,-2" class="g2_142" />
<path d="M247.5,660.5l151,0" class="g2_142" />
<path d="M398.5,660.5l0,-2" class="g2_142" />
<path d="M399.5,660.5l68,0" class="g2_142" />
<path d="M467.5,660.5l0,-2" class="g2_142" />
<path d="M468.5,660.5l342,0" class="g2_142" />
<path d="M810.5,660.5l0,-2" class="g2_142" />
<path d="M812.5,660.5l60,0" class="g2_142" />
<path d="M872.5,660.5l0,-2" class="g2_142" />
<path d="M46.5,700.5l0,-40" class="g2_142" />
<path d="M80.5,700.5l0,-40" class="g2_142" />
<path d="M113.5,700.5l0,-40" class="g2_142" />
<path d="M146.5,700.5l0,-40" class="g2_142" />
<path d="M179.5,700.5l0,-40" class="g2_142" />
<path d="M212.5,700.5l0,-40" class="g2_142" />
<path d="M245.5,700.5l0,-40" class="g2_142" />
<path d="M398.5,700.5l0,-40" class="g2_142" />
<path d="M467.5,700.5l0,-40" class="g2_142" />
<path d="M810.5,700.5l0,-40" class="g2_142" />
<path d="M872.5,700.5l0,-40" class="g2_142" />
<path fill-rule="evenodd" d="M47,734l33,0l0,-34l-33,0l0,34Z" class="g1_142" />
<path fill-rule="evenodd" d="M81,734l32,0l0,-34l-32,0l0,34Z" class="g1_142" />
<path fill-rule="evenodd" d="M115,734l31,0l0,-34l-31,0l0,34Z" class="g1_142" />
<path fill-rule="evenodd" d="M148,734l31,0l0,-34l-31,0l0,34Z" class="g1_142" />
<path fill-rule="evenodd" d="M247,734l151,0l0,-33l-151,0l0,33Z" class="g1_142" />
<g clip-path="url(#c30_142)">
<path fill-rule="evenodd" d="M254,725l136,0l0,-24l-136,0l0,24Z" class="g1_142" />
</g>
<path fill-rule="evenodd" d="M399,734l68,0l0,-33l-68,0l0,33Z" class="g1_142" />
<g clip-path="url(#c31_142)">
<path fill-rule="evenodd" d="M407,725l52,0l0,-24l-52,0l0,24Z" class="g1_142" />
</g>
<path fill-rule="evenodd" d="M468,734l342,0l0,-33l-342,0l0,33Z" class="g1_142" />
<g clip-path="url(#c32_142)">
<path fill-rule="evenodd" d="M476,725l327,0l0,-24l-327,0l0,24Z" class="g1_142" />
</g>
<path fill-rule="evenodd" d="M812,734l60,0l0,-33l-60,0l0,33Z" class="g1_142" />
<g clip-path="url(#c33_142)">
<path fill-rule="evenodd" d="M819,725l45,0l0,-24l-45,0l0,24Z" class="g1_142" />
</g>
<path d="M46.5,701.5l0,-1" class="g2_142" />
<path d="M80.5,701.5l0,-1" class="g2_142" />
<path d="M113.5,701.5l0,-1" class="g2_142" />
<path d="M146.5,701.5l0,-1" class="g2_142" />
<path d="M179.5,701.5l0,-1" class="g2_142" />
<path d="M212.5,701.5l0,-1" class="g2_142" />
<path d="M245.5,701.5l0,-1" class="g2_142" />
<path d="M247.5,701.5l151,0" class="g2_142" />
<path d="M398.5,701.5l0,-1" class="g2_142" />
<path d="M399.5,701.5l68,0" class="g2_142" />
<path d="M467.5,701.5l0,-1" class="g2_142" />
<path d="M468.5,701.5l342,0" class="g2_142" />
<path d="M810.5,701.5l0,-1" class="g2_142" />
<path d="M812.5,701.5l60,0" class="g2_142" />
<path d="M872.5,701.5l0,-1" class="g2_142" />
<path d="M46.5,734.5l0,-33" class="g2_142" />
<path d="M80.5,734.5l0,-33" class="g2_142" />
<path d="M113.5,734.5l0,-33" class="g2_142" />
<path d="M146.5,734.5l0,-33" class="g2_142" />
<path d="M179.5,734.5l0,-33" class="g2_142" />
<path d="M212.5,734.5l0,-33" class="g2_142" />
<path d="M245.5,734.5l0,-33" class="g2_142" />
<path d="M398.5,734.5l0,-33" class="g2_142" />
<path d="M467.5,734.5l0,-33" class="g2_142" />
<path d="M810.5,734.5l0,-33" class="g2_142" />
<path d="M872.5,734.5l0,-33" class="g2_142" />
<path fill-rule="evenodd" d="M47,768l33,0l0,-34l-33,0l0,34Z" class="g1_142" />
<path fill-rule="evenodd" d="M81,768l32,0l0,-34l-32,0l0,34Z" class="g1_142" />
<path fill-rule="evenodd" d="M115,768l31,0l0,-34l-31,0l0,34Z" class="g1_142" />
<path fill-rule="evenodd" d="M148,768l31,0l0,-34l-31,0l0,34Z" class="g1_142" />
<path fill-rule="evenodd" d="M247,768l151,0l0,-32l-151,0l0,32Z" class="g1_142" />
<g clip-path="url(#c34_142)">
<path fill-rule="evenodd" d="M254,759l136,0l0,-23l-136,0l0,23Z" class="g1_142" />
</g>
<path fill-rule="evenodd" d="M399,768l68,0l0,-32l-68,0l0,32Z" class="g1_142" />
<g clip-path="url(#c35_142)">
<path fill-rule="evenodd" d="M407,759l52,0l0,-23l-52,0l0,23Z" class="g1_142" />
</g>
<path fill-rule="evenodd" d="M468,768l342,0l0,-32l-342,0l0,32Z" class="g1_142" />
<g clip-path="url(#c36_142)">
<path fill-rule="evenodd" d="M476,759l327,0l0,-23l-327,0l0,23Z" class="g1_142" />
</g>
<path fill-rule="evenodd" d="M812,768l60,0l0,-32l-60,0l0,32Z" class="g1_142" />
<g clip-path="url(#c37_142)">
<path fill-rule="evenodd" d="M819,759l45,0l0,-23l-45,0l0,23Z" class="g1_142" />
</g>
<path d="M46.5,736.5l0,-2" class="g2_142" />
<path d="M80.5,736.5l0,-2" class="g2_142" />
<path d="M113.5,736.5l0,-2" class="g2_142" />
<path d="M146.5,736.5l0,-2" class="g2_142" />
<path d="M179.5,736.5l0,-2" class="g2_142" />
<path d="M212.5,736.5l0,-2" class="g2_142" />
<path d="M245.5,736.5l0,-2" class="g2_142" />
<path d="M247.5,736.5l151,0" class="g2_142" />
<path d="M398.5,736.5l0,-2" class="g2_142" />
<path d="M399.5,736.5l68,0" class="g2_142" />
<path d="M467.5,736.5l0,-2" class="g2_142" />
<path d="M468.5,736.5l342,0" class="g2_142" />
<path d="M810.5,736.5l0,-2" class="g2_142" />
<path d="M812.5,736.5l60,0" class="g2_142" />
<path d="M872.5,736.5l0,-2" class="g2_142" />
<path d="M46.5,768.5l0,-32" class="g2_142" />
<path d="M80.5,768.5l0,-32" class="g2_142" />
<path d="M113.5,768.5l0,-32" class="g2_142" />
<path d="M146.5,768.5l0,-32" class="g2_142" />
<path d="M179.5,768.5l0,-32" class="g2_142" />
<path d="M212.5,768.5l0,-32" class="g2_142" />
<path d="M245.5,768.5l0,-32" class="g2_142" />
<path d="M398.5,768.5l0,-32" class="g2_142" />
<path d="M467.5,768.5l0,-32" class="g2_142" />
<path d="M810.5,768.5l0,-32" class="g2_142" />
<path d="M872.5,768.5l0,-32" class="g2_142" />
<path fill-rule="evenodd" d="M47,841l33,0l0,-72l-33,0l0,72Z" class="g1_142" />
<path fill-rule="evenodd" d="M81,841l32,0l0,-72l-32,0l0,72Z" class="g1_142" />
<path fill-rule="evenodd" d="M115,841l31,0l0,-72l-31,0l0,72Z" class="g1_142" />
<path fill-rule="evenodd" d="M148,841l31,0l0,-72l-31,0l0,72Z" class="g1_142" />
<path fill-rule="evenodd" d="M247,841l151,0l0,-71l-151,0l0,71Z" class="g1_142" />
<g clip-path="url(#c38_142)">
<path fill-rule="evenodd" d="M254,794l136,0l0,-24l-136,0l0,24Z" class="g1_142" />
</g>
<path fill-rule="evenodd" d="M399,841l68,0l0,-71l-68,0l0,71Z" class="g1_142" />
<g clip-path="url(#c39_142)">
<path fill-rule="evenodd" d="M407,794l52,0l0,-24l-52,0l0,24Z" class="g1_142" />
</g>
<path fill-rule="evenodd" d="M468,841l342,0l0,-71l-342,0l0,71Z" class="g1_142" />
<g clip-path="url(#c40_142)">
<path fill-rule="evenodd" d="M476,794l327,0l0,-24l-327,0l0,24Z" class="g1_142" />
</g>
<path fill-rule="evenodd" d="M476,818l327,0l0,-24l-327,0l0,24Z" class="g1_142" />
<path fill-rule="evenodd" d="M476,841l327,0l0,-23l-327,0l0,23Z" class="g1_142" />
<path fill-rule="evenodd" d="M812,841l60,0l0,-71l-60,0l0,71Z" class="g1_142" />
<g clip-path="url(#c41_142)">
<path fill-rule="evenodd" d="M819,794l45,0l0,-24l-45,0l0,24Z" class="g1_142" />
</g>
<path d="M46.5,770.5l0,-2" class="g2_142" />
<path d="M80.5,770.5l0,-2" class="g2_142" />
<path d="M113.5,770.5l0,-2" class="g2_142" />
<path d="M146.5,770.5l0,-2" class="g2_142" />
<path d="M179.5,770.5l0,-2" class="g2_142" />
<path d="M212.5,770.5l0,-2" class="g2_142" />
<path d="M245.5,770.5l0,-2" class="g2_142" />
<path d="M247.5,770.5l151,0" class="g2_142" />
<path d="M398.5,770.5l0,-2" class="g2_142" />
<path d="M399.5,770.5l68,0" class="g2_142" />
<path d="M467.5,770.5l0,-2" class="g2_142" />
<path d="M468.5,770.5l342,0" class="g2_142" />
<path d="M810.5,770.5l0,-2" class="g2_142" />
<path d="M812.5,770.5l60,0" class="g2_142" />
<path d="M872.5,770.5l0,-2" class="g2_142" />
<path d="M46.5,841.5l0,-71" class="g2_142" />
<path d="M80.5,841.5l0,-71" class="g2_142" />
<path d="M113.5,841.5l0,-71" class="g2_142" />
<path d="M146.5,841.5l0,-71" class="g2_142" />
<path d="M179.5,841.5l0,-71" class="g2_142" />
<path d="M212.5,841.5l0,-71" class="g2_142" />
<path d="M245.5,841.5l0,-71" class="g2_142" />
<path d="M398.5,841.5l0,-71" class="g2_142" />
<path d="M467.5,841.5l0,-71" class="g2_142" />
<path d="M810.5,841.5l0,-71" class="g2_142" />
<path d="M872.5,841.5l0,-71" class="g2_142" />
<path fill-rule="evenodd" d="M47,914l33,0l0,-73l-33,0l0,73Z" class="g1_142" />
<path fill-rule="evenodd" d="M81,914l32,0l0,-73l-32,0l0,73Z" class="g1_142" />
<path fill-rule="evenodd" d="M115,914l31,0l0,-73l-31,0l0,73Z" class="g1_142" />
<path fill-rule="evenodd" d="M148,914l31,0l0,-73l-31,0l0,73Z" class="g1_142" />
<path fill-rule="evenodd" d="M247,914l151,0l0,-71l-151,0l0,71Z" class="g1_142" />
<g clip-path="url(#c42_142)">
<path fill-rule="evenodd" d="M254,867l136,0l0,-24l-136,0l0,24Z" class="g1_142" />
</g>
<path fill-rule="evenodd" d="M399,914l68,0l0,-71l-68,0l0,71Z" class="g1_142" />
<g clip-path="url(#c43_142)">
<path fill-rule="evenodd" d="M407,867l52,0l0,-24l-52,0l0,24Z" class="g1_142" />
</g>
<path fill-rule="evenodd" d="M468,914l342,0l0,-71l-342,0l0,71Z" class="g1_142" />
<g clip-path="url(#c44_142)">
<path fill-rule="evenodd" d="M476,867l327,0l0,-24l-327,0l0,24Z" class="g1_142" />
</g>
<path fill-rule="evenodd" d="M476,891l327,0l0,-24l-327,0l0,24Z" class="g1_142" />
<path fill-rule="evenodd" d="M476,914l327,0l0,-23l-327,0l0,23Z" class="g1_142" />
<path fill-rule="evenodd" d="M812,914l60,0l0,-71l-60,0l0,71Z" class="g1_142" />
<g clip-path="url(#c45_142)">
<path fill-rule="evenodd" d="M819,867l45,0l0,-24l-45,0l0,24Z" class="g1_142" />
</g>
<path d="M46.5,843.5l0,-2" class="g2_142" />
<path d="M80.5,843.5l0,-2" class="g2_142" />
<path d="M113.5,843.5l0,-2" class="g2_142" />
<path d="M146.5,843.5l0,-2" class="g2_142" />
<path d="M179.5,843.5l0,-2" class="g2_142" />
<path d="M212.5,843.5l0,-2" class="g2_142" />
<path d="M245.5,843.5l0,-2" class="g2_142" />
<path d="M247.5,843.5l151,0" class="g2_142" />
<path d="M398.5,843.5l0,-2" class="g2_142" />
<path d="M399.5,843.5l68,0" class="g2_142" />
<path d="M467.5,843.5l0,-2" class="g2_142" />
<path d="M468.5,843.5l342,0" class="g2_142" />
<path d="M810.5,843.5l0,-2" class="g2_142" />
<path d="M812.5,843.5l60,0" class="g2_142" />
<path d="M872.5,843.5l0,-2" class="g2_142" />
<path d="M46.5,914.5l0,-71" class="g2_142" />
<path d="M80.5,914.5l0,-71" class="g2_142" />
<path d="M113.5,914.5l0,-71" class="g2_142" />
<path d="M146.5,914.5l0,-71" class="g2_142" />
<path d="M179.5,914.5l0,-71" class="g2_142" />
<path d="M212.5,914.5l0,-71" class="g2_142" />
<path d="M245.5,914.5l0,-71" class="g2_142" />
<path d="M398.5,914.5l0,-71" class="g2_142" />
<path d="M467.5,914.5l0,-71" class="g2_142" />
<path d="M810.5,914.5l0,-71" class="g2_142" />
<path d="M872.5,914.5l0,-71" class="g2_142" />
<path fill-rule="evenodd" d="M47,987l33,0l0,-73l-33,0l0,73Z" class="g1_142" />
<path fill-rule="evenodd" d="M81,987l32,0l0,-73l-32,0l0,73Z" class="g1_142" />
<path fill-rule="evenodd" d="M115,987l31,0l0,-73l-31,0l0,73Z" class="g1_142" />
<path fill-rule="evenodd" d="M148,987l31,0l0,-73l-31,0l0,73Z" class="g1_142" />
<path fill-rule="evenodd" d="M247,987l151,0l0,-71l-151,0l0,71Z" class="g1_142" />
<path fill-rule="evenodd" d="M254,940l136,0l0,-24l-136,0l0,24Z" class="g1_142" />
<path fill-rule="evenodd" d="M254,964l136,0l0,-24l-136,0l0,24Z" class="g1_142" />
<path fill-rule="evenodd" d="M399,987l68,0l0,-71l-68,0l0,71Z" class="g1_142" />
<path fill-rule="evenodd" d="M407,940l52,0l0,-24l-52,0l0,24Z" class="g1_142" />
<path fill-rule="evenodd" d="M468,987l342,0l0,-71l-342,0l0,71Z" class="g1_142" />
<path fill-rule="evenodd" d="M476,940l327,0l0,-24l-327,0l0,24Z" class="g1_142" />
<path fill-rule="evenodd" d="M476,964l327,0l0,-24l-327,0l0,24Z" class="g1_142" />
<g clip-path="url(#c46_142)">
<path fill-rule="evenodd" d="M476,987l327,0l0,-23l-327,0l0,23Z" class="g1_142" />
</g>
<path fill-rule="evenodd" d="M812,987l60,0l0,-71l-60,0l0,71Z" class="g1_142" />
<path fill-rule="evenodd" d="M819,940l45,0l0,-24l-45,0l0,24Z" class="g1_142" />
<path d="M46.5,916.5l0,-2" class="g2_142" />
<path d="M80.5,916.5l0,-2" class="g2_142" />
<path d="M113.5,916.5l0,-2" class="g2_142" />
<path d="M146.5,916.5l0,-2" class="g2_142" />
<path d="M179.5,916.5l0,-2" class="g2_142" />
<path d="M212.5,916.5l0,-2" class="g2_142" />
<path d="M245.5,916.5l0,-2" class="g2_142" />
<path d="M247.5,916.5l151,0" class="g2_142" />
<path d="M398.5,916.5l0,-2" class="g2_142" />
<path d="M399.5,916.5l68,0" class="g2_142" />
<path d="M467.5,916.5l0,-2" class="g2_142" />
<path d="M468.5,916.5l342,0" class="g2_142" />
<path d="M810.5,916.5l0,-2" class="g2_142" />
<path d="M812.5,916.5l60,0" class="g2_142" />
<path d="M872.5,916.5l0,-2" class="g2_142" />
<path d="M46.5,987.5l0,-71" class="g2_142" />
<path d="M80.5,987.5l0,-71" class="g2_142" />
<path d="M113.5,987.5l0,-71" class="g2_142" />
<path d="M146.5,987.5l0,-71" class="g2_142" />
<path d="M179.5,987.5l0,-71" class="g2_142" />
<path d="M212.5,987.5l0,-71" class="g2_142" />
<path d="M245.5,987.5l0,-71" class="g2_142" />
<path d="M398.5,987.5l0,-71" class="g2_142" />
<path d="M467.5,987.5l0,-71" class="g2_142" />
<path d="M810.5,987.5l0,-71" class="g2_142" />
<path d="M872.5,987.5l0,-71" class="g2_142" />
<path fill-rule="evenodd" d="M47,1037l33,0l0,-49l-33,0l0,49Z" class="g1_142" />
<path fill-rule="evenodd" d="M81,1037l32,0l0,-49l-32,0l0,49Z" class="g1_142" />
<path fill-rule="evenodd" d="M115,1037l31,0l0,-49l-31,0l0,49Z" class="g1_142" />
<path fill-rule="evenodd" d="M148,1037l31,0l0,-49l-31,0l0,49Z" class="g1_142" />
<path fill-rule="evenodd" d="M247,1037l151,0l0,-48l-151,0l0,48Z" class="g1_142" />
<path fill-rule="evenodd" d="M254,1013l136,0l0,-24l-136,0l0,24Z" class="g1_142" />
<path fill-rule="evenodd" d="M399,1037l68,0l0,-48l-68,0l0,48Z" class="g1_142" />
<path fill-rule="evenodd" d="M407,1013l52,0l0,-24l-52,0l0,24Z" class="g1_142" />
<path fill-rule="evenodd" d="M468,1037l342,0l0,-48l-342,0l0,48Z" class="g1_142" />
<path fill-rule="evenodd" d="M476,1013l327,0l0,-24l-327,0l0,24Z" class="g1_142" />
<g clip-path="url(#c47_142)">
<path fill-rule="evenodd" d="M476,1037l327,0l0,-24l-327,0l0,24Z" class="g1_142" />
</g>
<path fill-rule="evenodd" d="M812,1037l60,0l0,-48l-60,0l0,48Z" class="g1_142" />
<path fill-rule="evenodd" d="M819,1013l45,0l0,-24l-45,0l0,24Z" class="g1_142" />
<g clip-path="url(#c48_142)">
<path fill-rule="evenodd" d="M819,1037l45,0l0,-24l-45,0l0,24Z" class="g1_142" />
</g>
<path d="M46.5,989.5l0,-2" class="g2_142" />
<path d="M80.5,989.5l0,-2" class="g2_142" />
<path d="M113.5,989.5l0,-2" class="g2_142" />
<path d="M146.5,989.5l0,-2" class="g2_142" />
<path d="M179.5,989.5l0,-2" class="g2_142" />
<path d="M212.5,989.5l0,-2" class="g2_142" />
<path d="M245.5,989.5l0,-2" class="g2_142" />
<path d="M247.5,989.5l151,0" class="g2_142" />
<path d="M398.5,989.5l0,-2" class="g2_142" />
<path d="M399.5,989.5l68,0" class="g2_142" />
<path d="M467.5,989.5l0,-2" class="g2_142" />
<path d="M468.5,989.5l342,0" class="g2_142" />
<path d="M810.5,989.5l0,-2" class="g2_142" />
<path d="M812.5,989.5l60,0" class="g2_142" />
<path d="M872.5,989.5l0,-2" class="g2_142" />
<path d="M46.5,1037.5l0,-48" class="g2_142" />
<path d="M80.5,1037.5l0,-48" class="g2_142" />
<path d="M113.5,1037.5l0,-48" class="g2_142" />
<path d="M146.5,1037.5l0,-48" class="g2_142" />
<path d="M179.5,1037.5l0,-48" class="g2_142" />
<path d="M212.5,1037.5l0,-48" class="g2_142" />
<path d="M245.5,1037.5l0,-48" class="g2_142" />
<path d="M398.5,1037.5l0,-48" class="g2_142" />
<path d="M467.5,1037.5l0,-48" class="g2_142" />
<path d="M810.5,1037.5l0,-48" class="g2_142" />
<path d="M872.5,1037.5l0,-48" class="g2_142" />
<path fill-rule="evenodd" d="M47,1086l33,0l0,-49l-33,0l0,49Z" class="g1_142" />
<path fill-rule="evenodd" d="M81,1086l32,0l0,-49l-32,0l0,49Z" class="g1_142" />
<path fill-rule="evenodd" d="M115,1086l31,0l0,-49l-31,0l0,49Z" class="g1_142" />
<path fill-rule="evenodd" d="M148,1086l31,0l0,-49l-31,0l0,49Z" class="g1_142" />
<path fill-rule="evenodd" d="M247,1086l151,0l0,-48l-151,0l0,48Z" class="g1_142" />
<path fill-rule="evenodd" d="M254,1062l136,0l0,-24l-136,0l0,24Z" class="g1_142" />
<path fill-rule="evenodd" d="M399,1086l68,0l0,-48l-68,0l0,48Z" class="g1_142" />
<path fill-rule="evenodd" d="M407,1062l52,0l0,-24l-52,0l0,24Z" class="g1_142" />
<path fill-rule="evenodd" d="M468,1086l342,0l0,-48l-342,0l0,48Z" class="g1_142" />
<path fill-rule="evenodd" d="M476,1062l327,0l0,-24l-327,0l0,24Z" class="g1_142" />
<g clip-path="url(#c49_142)">
<path fill-rule="evenodd" d="M476,1086l327,0l0,-24l-327,0l0,24Z" class="g1_142" />
</g>
<path fill-rule="evenodd" d="M812,1086l60,0l0,-48l-60,0l0,48Z" class="g1_142" />
<path fill-rule="evenodd" d="M819,1062l45,0l0,-24l-45,0l0,24Z" class="g1_142" />
<path d="M46.5,1038.5l0,-1" class="g2_142" />
<path d="M80.5,1038.5l0,-1" class="g2_142" />
<path d="M113.5,1038.5l0,-1" class="g2_142" />
<path d="M146.5,1038.5l0,-1" class="g2_142" />
<path d="M179.5,1038.5l0,-1" class="g2_142" />
<path d="M212.5,1038.5l0,-1" class="g2_142" />
<path d="M245.5,1038.5l0,-1" class="g2_142" />
<path d="M247.5,1038.5l151,0" class="g2_142" />
<path d="M398.5,1038.5l0,-1" class="g2_142" />
<path d="M399.5,1038.5l68,0" class="g2_142" />
<path d="M467.5,1038.5l0,-1" class="g2_142" />
<path d="M468.5,1038.5l342,0" class="g2_142" />
<path d="M810.5,1038.5l0,-1" class="g2_142" />
<path d="M812.5,1038.5l60,0" class="g2_142" />
<path d="M872.5,1038.5l0,-1" class="g2_142" />
<path d="M46.5,1086.5l0,-48" class="g2_142" />
<path d="M46.5,1087.5l0,-1" class="g2_142" />
<path d="M46.5,1087.5l0,-1" class="g2_142" />
<path d="M47.5,1087.5l33,0" class="g2_142" />
<path d="M80.5,1086.5l0,-48" class="g2_142" />
<path d="M80.5,1087.5l0,-1" class="g2_142" />
<path d="M81.5,1087.5l32,0" class="g2_142" />
<path d="M113.5,1086.5l0,-48" class="g2_142" />
<path d="M113.5,1087.5l0,-1" class="g2_142" />
<path d="M114.5,1087.5l32,0" class="g2_142" />
<path d="M146.5,1086.5l0,-48" class="g2_142" />
<path d="M146.5,1087.5l0,-1" class="g2_142" />
<path d="M148.5,1087.5l31,0" class="g2_142" />
<path d="M179.5,1086.5l0,-48" class="g2_142" />
<path d="M179.5,1087.5l0,-1" class="g2_142" />
<path d="M181.5,1087.5l31,0" class="g2_142" />
<path d="M212.5,1086.5l0,-48" class="g2_142" />
<path d="M212.5,1087.5l0,-1" class="g2_142" />
<path d="M214.5,1087.5l31,0" class="g2_142" />
<path d="M245.5,1086.5l0,-48" class="g2_142" />
<path d="M245.5,1087.5l0,-1" class="g2_142" />
<path d="M247.5,1087.5l151,0" class="g2_142" />
<path d="M398.5,1086.5l0,-48" class="g2_142" />
<path d="M398.5,1087.5l0,-1" class="g2_142" />
<path d="M399.5,1087.5l68,0" class="g2_142" />
<path d="M467.5,1086.5l0,-48" class="g2_142" />
<path d="M467.5,1087.5l0,-1" class="g2_142" />
<path d="M468.5,1087.5l342,0" class="g2_142" />
<path d="M810.5,1086.5l0,-48" class="g2_142" />
<path d="M810.5,1087.5l0,-1" class="g2_142" />
<path d="M812.5,1087.5l60,0" class="g2_142" />
<path d="M872.5,1086.5l0,-48" class="g2_142" />
<path d="M872.5,1087.5l0,-1" class="g2_142" />
<path d="M872.5,1087.5l0,-1" class="g2_142" />
</svg>