<?xml version="1.0" encoding="UTF-8" standalone="no"?>
<!DOCTYPE svg PUBLIC "-//W3C//DTD SVG 1.1//EN"
"http://www.w3.org/Graphics/SVG/1.1/DTD/svg11.dtd">
<svg version="1.1" xmlns="http://www.w3.org/2000/svg" xmlns:xlink="http://www.w3.org/1999/xlink">
<defs>
<clipPath id="c0_141"><path d="M181.5,707.5l0,-596l217,0l0,596Z" /></clipPath>
<clipPath id="c1_141"><path d="M399.5,707.5l0,-596l68,0l0,596Z" /></clipPath>
<clipPath id="c2_141"><path d="M468.5,707.5l0,-596l342,0l0,596Z" /></clipPath>
<clipPath id="c3_141"><path d="M812.5,707.5l0,-596l60,0l0,596Z" /></clipPath>
<clipPath id="c4_141"><path d="M181.5,747.5l0,-38l217,0l0,38Z" /></clipPath>
<clipPath id="c5_141"><path d="M399.5,747.5l0,-38l68,0l0,38Z" /></clipPath>
<clipPath id="c6_141"><path d="M468.5,747.5l0,-38l342,0l0,38Z" /></clipPath>
<clipPath id="c7_141"><path d="M812.5,747.5l0,-38l60,0l0,38Z" /></clipPath>
<clipPath id="c8_141"><path d="M181.5,787.5l0,-39l217,0l0,39Z" /></clipPath>
<clipPath id="c9_141"><path d="M399.5,787.5l0,-39l68,0l0,39Z" /></clipPath>
<clipPath id="c10_141"><path d="M468.5,787.5l0,-39l342,0l0,39Z" /></clipPath>
<clipPath id="c11_141"><path d="M812.5,787.5l0,-39l60,0l0,39Z" /></clipPath>
<clipPath id="c12_141"><path d="M181.5,827.5l0,-39l217,0l0,39Z" /></clipPath>
<clipPath id="c13_141"><path d="M399.5,827.5l0,-39l68,0l0,39Z" /></clipPath>
<clipPath id="c14_141"><path d="M468.5,827.5l0,-39l342,0l0,39Z" /></clipPath>
<clipPath id="c15_141"><path d="M812.5,827.5l0,-39l60,0l0,39Z" /></clipPath>
<clipPath id="c16_141"><path d="M181.5,876.5l0,-48l217,0l0,48Z" /></clipPath>
<clipPath id="c17_141"><path d="M399.5,876.5l0,-48l68,0l0,48Z" /></clipPath>
<clipPath id="c18_141"><path d="M468.5,876.5l0,-48l342,0l0,48Z" /></clipPath>
<clipPath id="c19_141"><path d="M812.5,876.5l0,-48l60,0l0,48Z" /></clipPath>
<clipPath id="c20_141"><path d="M181.5,925.5l0,-48l217,0l0,48Z" /></clipPath>
<clipPath id="c21_141"><path d="M399.5,925.5l0,-48l68,0l0,48Z" /></clipPath>
<clipPath id="c22_141"><path d="M468.5,925.5l0,-48l342,0l0,48Z" /></clipPath>
<clipPath id="c23_141"><path d="M812.5,925.5l0,-48l60,0l0,48Z" /></clipPath>
<clipPath id="c24_141"><path d="M468.5,974.5l0,-47l342,0l0,47Z" /></clipPath>
<clipPath id="c25_141"><path d="M468.5,1063.5l0,-47l342,0l0,47Z" /></clipPath>
<style type="text/css"><![CDATA[
.g2_141{
fill: none;
stroke: #7E7E7E;
stroke-width: 1;
stroke-linecap: butt;
stroke-linejoin: miter;
}
.g1_141{
fill: #F1F1F1;
}
]]></style>
</defs>
<path fill-rule="evenodd" d="M47,707l33,0L80,111l-33,0l0,596Z" class="g1_141" />
<path fill-rule="evenodd" d="M81,707l32,0l0,-596l-32,0l0,596Z" class="g1_141" />
<path fill-rule="evenodd" d="M115,707l31,0l0,-596l-31,0l0,596Z" class="g1_141" />
<path fill-rule="evenodd" d="M148,707l31,0l0,-596l-31,0l0,596Z" class="g1_141" />
<path fill-rule="evenodd" d="M181,707l217,0l0,-596l-217,0l0,596Z" class="g1_141" />
<g clip-path="url(#c0_141)">
<path fill-rule="evenodd" d="M188,135l202,0l0,-24l-202,0l0,24Z" class="g1_141" />
</g>
<path fill-rule="evenodd" d="M399,707l68,0l0,-596l-68,0l0,596Z" class="g1_141" />
<g clip-path="url(#c1_141)">
<path fill-rule="evenodd" d="M407,135l52,0l0,-24l-52,0l0,24Z" class="g1_141" />
</g>
<path fill-rule="evenodd" d="M468,707l342,0l0,-596l-342,0l0,596Z" class="g1_141" />
<g clip-path="url(#c2_141)">
<path fill-rule="evenodd" d="M476,135l327,0l0,-24l-327,0l0,24Z" class="g1_141" />
</g>
<path fill-rule="evenodd" d="M476,159l327,0l0,-24l-327,0l0,24Z" class="g1_141" />
<path fill-rule="evenodd" d="M476,182l327,0l0,-23l-327,0l0,23Z" class="g1_141" />
<path fill-rule="evenodd" d="M476,206l327,0l0,-24l-327,0l0,24Z" class="g1_141" />
<path fill-rule="evenodd" d="M476,230l327,0l0,-24l-327,0l0,24Z" class="g1_141" />
<path fill-rule="evenodd" d="M476,254l327,0l0,-24l-327,0l0,24Z" class="g1_141" />
<path fill-rule="evenodd" d="M476,278l327,0l0,-24l-327,0l0,24Z" class="g1_141" />
<path fill-rule="evenodd" d="M476,302l327,0l0,-24l-327,0l0,24Z" class="g1_141" />
<path fill-rule="evenodd" d="M476,325l327,0l0,-23l-327,0l0,23Z" class="g1_141" />
<path fill-rule="evenodd" d="M476,349l327,0l0,-24l-327,0l0,24Z" class="g1_141" />
<path fill-rule="evenodd" d="M476,373l327,0l0,-24l-327,0l0,24Z" class="g1_141" />
<path fill-rule="evenodd" d="M476,397l327,0l0,-24l-327,0l0,24Z" class="g1_141" />
<path fill-rule="evenodd" d="M476,421l327,0l0,-24l-327,0l0,24Z" class="g1_141" />
<path fill-rule="evenodd" d="M476,445l327,0l0,-24l-327,0l0,24Z" class="g1_141" />
<path fill-rule="evenodd" d="M476,469l327,0l0,-24l-327,0l0,24Z" class="g1_141" />
<path fill-rule="evenodd" d="M476,492l327,0l0,-23l-327,0l0,23Z" class="g1_141" />
<path fill-rule="evenodd" d="M476,516l327,0l0,-24l-327,0l0,24Z" class="g1_141" />
<path fill-rule="evenodd" d="M476,540l327,0l0,-24l-327,0l0,24Z" class="g1_141" />
<path fill-rule="evenodd" d="M476,564l327,0l0,-24l-327,0l0,24Z" class="g1_141" />
<path fill-rule="evenodd" d="M476,588l327,0l0,-24l-327,0l0,24Z" class="g1_141" />
<path fill-rule="evenodd" d="M476,612l327,0l0,-24l-327,0l0,24Z" class="g1_141" />
<path fill-rule="evenodd" d="M476,635l327,0l0,-23l-327,0l0,23Z" class="g1_141" />
<path fill-rule="evenodd" d="M476,659l327,0l0,-24l-327,0l0,24Z" class="g1_141" />
<path fill-rule="evenodd" d="M476,683l327,0l0,-24l-327,0l0,24Z" class="g1_141" />
<path fill-rule="evenodd" d="M476,707l327,0l0,-24l-327,0l0,24Z" class="g1_141" />
<path fill-rule="evenodd" d="M812,707l60,0l0,-596l-60,0l0,596Z" class="g1_141" />
<g clip-path="url(#c3_141)">
<path fill-rule="evenodd" d="M819,135l45,0l0,-24l-45,0l0,24Z" class="g1_141" />
</g>
<path d="M46.5,111.5l0,-1" class="g2_141" />
<path d="M46.5,111.5l0,-1" class="g2_141" />
<path d="M47.5,111.5l33,0" class="g2_141" />
<path d="M80.5,111.5l0,-1" class="g2_141" />
<path d="M81.5,111.5l32,0" class="g2_141" />
<path d="M113.5,111.5l0,-1" class="g2_141" />
<path d="M114.5,111.5l32,0" class="g2_141" />
<path d="M146.5,111.5l0,-1" class="g2_141" />
<path d="M148.5,111.5l31,0" class="g2_141" />
<path d="M179.5,111.5l0,-1" class="g2_141" />
<path d="M181.5,111.5l217,0" class="g2_141" />
<path d="M398.5,111.5l0,-1" class="g2_141" />
<path d="M399.5,111.5l68,0" class="g2_141" />
<path d="M467.5,111.5l0,-1" class="g2_141" />
<path d="M468.5,111.5l342,0" class="g2_141" />
<path d="M810.5,111.5l0,-1" class="g2_141" />
<path d="M812.5,111.5l60,0" class="g2_141" />
<path d="M872.5,111.5l0,-1" class="g2_141" />
<path d="M872.5,111.5l0,-1" class="g2_141" />
<path d="M46.5,707.5l0,-596" class="g2_141" />
<path d="M80.5,707.5l0,-596" class="g2_141" />
<path d="M113.5,707.5l0,-596" class="g2_141" />
<path d="M146.5,707.5l0,-596" class="g2_141" />
<path d="M179.5,707.5l0,-596" class="g2_141" />
<path d="M398.5,707.5l0,-596" class="g2_141" />
<path d="M467.5,707.5l0,-596" class="g2_141" />
<path d="M810.5,707.5l0,-596" class="g2_141" />
<path d="M872.5,707.5l0,-596" class="g2_141" />
<path fill-rule="evenodd" d="M47,747l33,0l0,-40l-33,0l0,40Z" class="g1_141" />
<path fill-rule="evenodd" d="M81,747l32,0l0,-40l-32,0l0,40Z" class="g1_141" />
<path fill-rule="evenodd" d="M115,747l31,0l0,-40l-31,0l0,40Z" class="g1_141" />
<path fill-rule="evenodd" d="M148,747l31,0l0,-40l-31,0l0,40Z" class="g1_141" />
<path fill-rule="evenodd" d="M181,747l217,0l0,-38l-217,0l0,38Z" class="g1_141" />
<g clip-path="url(#c4_141)">
<path fill-rule="evenodd" d="M188,732l202,0l0,-23l-202,0l0,23Z" class="g1_141" />
</g>
<path fill-rule="evenodd" d="M399,747l68,0l0,-38l-68,0l0,38Z" class="g1_141" />
<g clip-path="url(#c5_141)">
<path fill-rule="evenodd" d="M407,732l52,0l0,-23l-52,0l0,23Z" class="g1_141" />
</g>
<path fill-rule="evenodd" d="M468,747l342,0l0,-38l-342,0l0,38Z" class="g1_141" />
<g clip-path="url(#c6_141)">
<path fill-rule="evenodd" d="M476,732l327,0l0,-23l-327,0l0,23Z" class="g1_141" />
</g>
<path fill-rule="evenodd" d="M812,747l60,0l0,-38l-60,0l0,38Z" class="g1_141" />
<g clip-path="url(#c7_141)">
<path fill-rule="evenodd" d="M819,732l45,0l0,-23l-45,0l0,23Z" class="g1_141" />
</g>
<path d="M46.5,708.5l0,-1" class="g2_141" />
<path d="M80.5,708.5l0,-1" class="g2_141" />
<path d="M113.5,708.5l0,-1" class="g2_141" />
<path d="M146.5,708.5l0,-1" class="g2_141" />
<path d="M179.5,708.5l0,-1" class="g2_141" />
<path d="M181.5,708.5l217,0" class="g2_141" />
<path d="M398.5,708.5l0,-1" class="g2_141" />
<path d="M399.5,708.5l68,0" class="g2_141" />
<path d="M467.5,708.5l0,-1" class="g2_141" />
<path d="M468.5,708.5l342,0" class="g2_141" />
<path d="M810.5,708.5l0,-1" class="g2_141" />
<path d="M812.5,708.5l60,0" class="g2_141" />
<path d="M872.5,708.5l0,-1" class="g2_141" />
<path d="M46.5,747.5l0,-39" class="g2_141" />
<path d="M80.5,747.5l0,-39" class="g2_141" />
<path d="M113.5,747.5l0,-39" class="g2_141" />
<path d="M146.5,747.5l0,-39" class="g2_141" />
<path d="M179.5,747.5l0,-39" class="g2_141" />
<path d="M398.5,747.5l0,-39" class="g2_141" />
<path d="M467.5,747.5l0,-39" class="g2_141" />
<path d="M810.5,747.5l0,-39" class="g2_141" />
<path d="M872.5,747.5l0,-39" class="g2_141" />
<path fill-rule="evenodd" d="M47,787l33,0l0,-40l-33,0l0,40Z" class="g1_141" />
<path fill-rule="evenodd" d="M81,787l32,0l0,-40l-32,0l0,40Z" class="g1_141" />
<path fill-rule="evenodd" d="M115,787l31,0l0,-40l-31,0l0,40Z" class="g1_141" />
<path fill-rule="evenodd" d="M148,787l31,0l0,-40l-31,0l0,40Z" class="g1_141" />
<path fill-rule="evenodd" d="M181,787l217,0l0,-39l-217,0l0,39Z" class="g1_141" />
<g clip-path="url(#c8_141)">
<path fill-rule="evenodd" d="M188,772l202,0l0,-24l-202,0l0,24Z" class="g1_141" />
</g>
<path fill-rule="evenodd" d="M399,787l68,0l0,-39l-68,0l0,39Z" class="g1_141" />
<g clip-path="url(#c9_141)">
<path fill-rule="evenodd" d="M407,772l52,0l0,-24l-52,0l0,24Z" class="g1_141" />
</g>
<path fill-rule="evenodd" d="M468,787l342,0l0,-39l-342,0l0,39Z" class="g1_141" />
<g clip-path="url(#c10_141)">
<path fill-rule="evenodd" d="M476,772l327,0l0,-24l-327,0l0,24Z" class="g1_141" />
</g>
<path fill-rule="evenodd" d="M812,787l60,0l0,-39l-60,0l0,39Z" class="g1_141" />
<g clip-path="url(#c11_141)">
<path fill-rule="evenodd" d="M819,772l45,0l0,-24l-45,0l0,24Z" class="g1_141" />
</g>
<path d="M46.5,748.5l0,-1" class="g2_141" />
<path d="M80.5,748.5l0,-1" class="g2_141" />
<path d="M113.5,748.5l0,-1" class="g2_141" />
<path d="M146.5,748.5l0,-1" class="g2_141" />
<path d="M179.5,748.5l0,-1" class="g2_141" />
<path d="M181.5,748.5l217,0" class="g2_141" />
<path d="M398.5,748.5l0,-1" class="g2_141" />
<path d="M399.5,748.5l68,0" class="g2_141" />
<path d="M467.5,748.5l0,-1" class="g2_141" />
<path d="M468.5,748.5l342,0" class="g2_141" />
<path d="M810.5,748.5l0,-1" class="g2_141" />
<path d="M812.5,748.5l60,0" class="g2_141" />
<path d="M872.5,748.5l0,-1" class="g2_141" />
<path d="M46.5,787.5l0,-39" class="g2_141" />
<path d="M80.5,787.5l0,-39" class="g2_141" />
<path d="M113.5,787.5l0,-39" class="g2_141" />
<path d="M146.5,787.5l0,-39" class="g2_141" />
<path d="M179.5,787.5l0,-39" class="g2_141" />
<path d="M398.5,787.5l0,-39" class="g2_141" />
<path d="M467.5,787.5l0,-39" class="g2_141" />
<path d="M810.5,787.5l0,-39" class="g2_141" />
<path d="M872.5,787.5l0,-39" class="g2_141" />
<path fill-rule="evenodd" d="M47,827l33,0l0,-40l-33,0l0,40Z" class="g1_141" />
<path fill-rule="evenodd" d="M81,827l32,0l0,-40l-32,0l0,40Z" class="g1_141" />
<path fill-rule="evenodd" d="M115,827l31,0l0,-40l-31,0l0,40Z" class="g1_141" />
<path fill-rule="evenodd" d="M148,827l31,0l0,-40l-31,0l0,40Z" class="g1_141" />
<path fill-rule="evenodd" d="M181,827l217,0l0,-39l-217,0l0,39Z" class="g1_141" />
<g clip-path="url(#c12_141)">
<path fill-rule="evenodd" d="M188,812l202,0l0,-24l-202,0l0,24Z" class="g1_141" />
</g>
<path fill-rule="evenodd" d="M399,827l68,0l0,-39l-68,0l0,39Z" class="g1_141" />
<g clip-path="url(#c13_141)">
<path fill-rule="evenodd" d="M407,812l52,0l0,-24l-52,0l0,24Z" class="g1_141" />
</g>
<path fill-rule="evenodd" d="M468,827l342,0l0,-39l-342,0l0,39Z" class="g1_141" />
<g clip-path="url(#c14_141)">
<path fill-rule="evenodd" d="M476,812l327,0l0,-24l-327,0l0,24Z" class="g1_141" />
</g>
<path fill-rule="evenodd" d="M812,827l60,0l0,-39l-60,0l0,39Z" class="g1_141" />
<g clip-path="url(#c15_141)">
<path fill-rule="evenodd" d="M819,812l45,0l0,-24l-45,0l0,24Z" class="g1_141" />
</g>
<path d="M46.5,788.5l0,-1" class="g2_141" />
<path d="M80.5,788.5l0,-1" class="g2_141" />
<path d="M113.5,788.5l0,-1" class="g2_141" />
<path d="M146.5,788.5l0,-1" class="g2_141" />
<path d="M179.5,788.5l0,-1" class="g2_141" />
<path d="M181.5,788.5l217,0" class="g2_141" />
<path d="M398.5,788.5l0,-1" class="g2_141" />
<path d="M399.5,788.5l68,0" class="g2_141" />
<path d="M467.5,788.5l0,-1" class="g2_141" />
<path d="M468.5,788.5l342,0" class="g2_141" />
<path d="M810.5,788.5l0,-1" class="g2_141" />
<path d="M812.5,788.5l60,0" class="g2_141" />
<path d="M872.5,788.5l0,-1" class="g2_141" />
<path d="M46.5,827.5l0,-39" class="g2_141" />
<path d="M80.5,827.5l0,-39" class="g2_141" />
<path d="M113.5,827.5l0,-39" class="g2_141" />
<path d="M146.5,827.5l0,-39" class="g2_141" />
<path d="M179.5,827.5l0,-39" class="g2_141" />
<path d="M398.5,827.5l0,-39" class="g2_141" />
<path d="M467.5,827.5l0,-39" class="g2_141" />
<path d="M810.5,827.5l0,-39" class="g2_141" />
<path d="M872.5,827.5l0,-39" class="g2_141" />
<path fill-rule="evenodd" d="M47,876l33,0l0,-49l-33,0l0,49Z" class="g1_141" />
<path fill-rule="evenodd" d="M81,876l32,0l0,-49l-32,0l0,49Z" class="g1_141" />
<path fill-rule="evenodd" d="M115,876l31,0l0,-49l-31,0l0,49Z" class="g1_141" />
<path fill-rule="evenodd" d="M148,876l31,0l0,-49l-31,0l0,49Z" class="g1_141" />
<path fill-rule="evenodd" d="M181,876l217,0l0,-48l-217,0l0,48Z" class="g1_141" />
<g clip-path="url(#c16_141)">
<path fill-rule="evenodd" d="M188,852l202,0l0,-24l-202,0l0,24Z" class="g1_141" />
</g>
<path fill-rule="evenodd" d="M399,876l68,0l0,-48l-68,0l0,48Z" class="g1_141" />
<g clip-path="url(#c17_141)">
<path fill-rule="evenodd" d="M407,852l52,0l0,-24l-52,0l0,24Z" class="g1_141" />
</g>
<path fill-rule="evenodd" d="M468,876l342,0l0,-48l-342,0l0,48Z" class="g1_141" />
<g clip-path="url(#c18_141)">
<path fill-rule="evenodd" d="M476,852l327,0l0,-24l-327,0l0,24Z" class="g1_141" />
</g>
<path fill-rule="evenodd" d="M476,876l327,0l0,-24l-327,0l0,24Z" class="g1_141" />
<path fill-rule="evenodd" d="M812,876l60,0l0,-48l-60,0l0,48Z" class="g1_141" />
<g clip-path="url(#c19_141)">
<path fill-rule="evenodd" d="M819,852l45,0l0,-24l-45,0l0,24Z" class="g1_141" />
</g>
<path d="M46.5,828.5l0,-1" class="g2_141" />
<path d="M80.5,828.5l0,-1" class="g2_141" />
<path d="M113.5,828.5l0,-1" class="g2_141" />
<path d="M146.5,828.5l0,-1" class="g2_141" />
<path d="M179.5,828.5l0,-1" class="g2_141" />
<path d="M181.5,828.5l217,0" class="g2_141" />
<path d="M398.5,828.5l0,-1" class="g2_141" />
<path d="M399.5,828.5l68,0" class="g2_141" />
<path d="M467.5,828.5l0,-1" class="g2_141" />
<path d="M468.5,828.5l342,0" class="g2_141" />
<path d="M810.5,828.5l0,-1" class="g2_141" />
<path d="M812.5,828.5l60,0" class="g2_141" />
<path d="M872.5,828.5l0,-1" class="g2_141" />
<path d="M46.5,876.5l0,-48" class="g2_141" />
<path d="M80.5,876.5l0,-48" class="g2_141" />
<path d="M113.5,876.5l0,-48" class="g2_141" />
<path d="M146.5,876.5l0,-48" class="g2_141" />
<path d="M179.5,876.5l0,-48" class="g2_141" />
<path d="M398.5,876.5l0,-48" class="g2_141" />
<path d="M467.5,876.5l0,-48" class="g2_141" />
<path d="M810.5,876.5l0,-48" class="g2_141" />
<path d="M872.5,876.5l0,-48" class="g2_141" />
<path fill-rule="evenodd" d="M47,925l33,0l0,-49l-33,0l0,49Z" class="g1_141" />
<path fill-rule="evenodd" d="M81,925l32,0l0,-49l-32,0l0,49Z" class="g1_141" />
<path fill-rule="evenodd" d="M115,925l31,0l0,-49l-31,0l0,49Z" class="g1_141" />
<path fill-rule="evenodd" d="M148,925l31,0l0,-49l-31,0l0,49Z" class="g1_141" />
<path fill-rule="evenodd" d="M181,925l217,0l0,-48l-217,0l0,48Z" class="g1_141" />
<g clip-path="url(#c20_141)">
<path fill-rule="evenodd" d="M188,901l202,0l0,-24l-202,0l0,24Z" class="g1_141" />
</g>
<path fill-rule="evenodd" d="M399,925l68,0l0,-48l-68,0l0,48Z" class="g1_141" />
<g clip-path="url(#c21_141)">
<path fill-rule="evenodd" d="M407,901l52,0l0,-24l-52,0l0,24Z" class="g1_141" />
</g>
<path fill-rule="evenodd" d="M468,925l342,0l0,-48l-342,0l0,48Z" class="g1_141" />
<g clip-path="url(#c22_141)">
<path fill-rule="evenodd" d="M476,901l327,0l0,-24l-327,0l0,24Z" class="g1_141" />
<path fill-rule="evenodd" d="M476,925l327,0l0,-24l-327,0l0,24Z" class="g1_141" />
</g>
<path fill-rule="evenodd" d="M812,925l60,0l0,-48l-60,0l0,48Z" class="g1_141" />
<g clip-path="url(#c23_141)">
<path fill-rule="evenodd" d="M819,901l45,0l0,-24l-45,0l0,24Z" class="g1_141" />
</g>
<path d="M46.5,877.5l0,-1" class="g2_141" />
<path d="M80.5,877.5l0,-1" class="g2_141" />
<path d="M113.5,877.5l0,-1" class="g2_141" />
<path d="M146.5,877.5l0,-1" class="g2_141" />
<path d="M179.5,877.5l0,-1" class="g2_141" />
<path d="M181.5,877.5l217,0" class="g2_141" />
<path d="M398.5,877.5l0,-1" class="g2_141" />
<path d="M399.5,877.5l68,0" class="g2_141" />
<path d="M467.5,877.5l0,-1" class="g2_141" />
<path d="M468.5,877.5l342,0" class="g2_141" />
<path d="M810.5,877.5l0,-1" class="g2_141" />
<path d="M812.5,877.5l60,0" class="g2_141" />
<path d="M872.5,877.5l0,-1" class="g2_141" />
<path d="M46.5,925.5l0,-48" class="g2_141" />
<path d="M80.5,925.5l0,-48" class="g2_141" />
<path d="M113.5,925.5l0,-48" class="g2_141" />
<path d="M146.5,925.5l0,-48" class="g2_141" />
<path d="M179.5,925.5l0,-48" class="g2_141" />
<path d="M398.5,925.5l0,-48" class="g2_141" />
<path d="M467.5,925.5l0,-48" class="g2_141" />
<path d="M810.5,925.5l0,-48" class="g2_141" />
<path d="M872.5,925.5l0,-48" class="g2_141" />
<path fill-rule="evenodd" d="M47,974l33,0l0,-49l-33,0l0,49Z" class="g1_141" />
<path fill-rule="evenodd" d="M81,974l32,0l0,-49l-32,0l0,49Z" class="g1_141" />
<path fill-rule="evenodd" d="M115,974l31,0l0,-49l-31,0l0,49Z" class="g1_141" />
<path fill-rule="evenodd" d="M148,974l31,0l0,-49l-31,0l0,49Z" class="g1_141" />
<path fill-rule="evenodd" d="M181,974l217,0l0,-47l-217,0l0,47Z" class="g1_141" />
<path fill-rule="evenodd" d="M188,950l202,0l0,-23l-202,0l0,23Z" class="g1_141" />
<path fill-rule="evenodd" d="M399,974l68,0l0,-47l-68,0l0,47Z" class="g1_141" />
<path fill-rule="evenodd" d="M407,950l52,0l0,-23l-52,0l0,23Z" class="g1_141" />
<path fill-rule="evenodd" d="M468,974l342,0l0,-47l-342,0l0,47Z" class="g1_141" />
<path fill-rule="evenodd" d="M476,950l327,0l0,-23l-327,0l0,23Z" class="g1_141" />
<g clip-path="url(#c24_141)">
<path fill-rule="evenodd" d="M476,974l327,0l0,-24l-327,0l0,24Z" class="g1_141" />
</g>
<path fill-rule="evenodd" d="M812,974l60,0l0,-47l-60,0l0,47Z" class="g1_141" />
<path fill-rule="evenodd" d="M819,950l45,0l0,-23l-45,0l0,23Z" class="g1_141" />
<path d="M46.5,926.5l0,-1" class="g2_141" />
<path d="M80.5,926.5l0,-1" class="g2_141" />
<path d="M113.5,926.5l0,-1" class="g2_141" />
<path d="M146.5,926.5l0,-1" class="g2_141" />
<path d="M179.5,926.5l0,-1" class="g2_141" />
<path d="M181.5,926.5l217,0" class="g2_141" />
<path d="M398.5,926.5l0,-1" class="g2_141" />
<path d="M399.5,926.5l68,0" class="g2_141" />
<path d="M467.5,926.5l0,-1" class="g2_141" />
<path d="M468.5,926.5l342,0" class="g2_141" />
<path d="M810.5,926.5l0,-1" class="g2_141" />
<path d="M812.5,926.5l60,0" class="g2_141" />
<path d="M872.5,926.5l0,-1" class="g2_141" />
<path d="M46.5,974.5l0,-48" class="g2_141" />
<path d="M80.5,974.5l0,-48" class="g2_141" />
<path d="M113.5,974.5l0,-48" class="g2_141" />
<path d="M146.5,974.5l0,-48" class="g2_141" />
<path d="M179.5,974.5l0,-48" class="g2_141" />
<path d="M398.5,974.5l0,-48" class="g2_141" />
<path d="M467.5,974.5l0,-48" class="g2_141" />
<path d="M810.5,974.5l0,-48" class="g2_141" />
<path d="M872.5,974.5l0,-48" class="g2_141" />
<path fill-rule="evenodd" d="M47,1014l33,0l0,-40l-33,0l0,40Z" class="g1_141" />
<path fill-rule="evenodd" d="M81,1014l32,0l0,-40l-32,0l0,40Z" class="g1_141" />
<path fill-rule="evenodd" d="M115,1014l31,0l0,-40l-31,0l0,40Z" class="g1_141" />
<path fill-rule="evenodd" d="M148,1014l31,0l0,-40l-31,0l0,40Z" class="g1_141" />
<path fill-rule="evenodd" d="M181,1014l217,0l0,-38l-217,0l0,38Z" class="g1_141" />
<path fill-rule="evenodd" d="M188,1000l202,0l0,-24l-202,0l0,24Z" class="g1_141" />
<path fill-rule="evenodd" d="M399,1014l68,0l0,-38l-68,0l0,38Z" class="g1_141" />
<path fill-rule="evenodd" d="M407,1000l52,0l0,-24l-52,0l0,24Z" class="g1_141" />
<path fill-rule="evenodd" d="M468,1014l342,0l0,-38l-342,0l0,38Z" class="g1_141" />
<path fill-rule="evenodd" d="M476,1000l327,0l0,-24l-327,0l0,24Z" class="g1_141" />
<path fill-rule="evenodd" d="M812,1014l60,0l0,-38l-60,0l0,38Z" class="g1_141" />
<path fill-rule="evenodd" d="M819,1000l45,0l0,-24l-45,0l0,24Z" class="g1_141" />
<path d="M46.5,976.5l0,-2" class="g2_141" />
<path d="M80.5,976.5l0,-2" class="g2_141" />
<path d="M113.5,976.5l0,-2" class="g2_141" />
<path d="M146.5,976.5l0,-2" class="g2_141" />
<path d="M179.5,976.5l0,-2" class="g2_141" />
<path d="M181.5,976.5l217,0" class="g2_141" />
<path d="M398.5,976.5l0,-2" class="g2_141" />
<path d="M399.5,976.5l68,0" class="g2_141" />
<path d="M467.5,976.5l0,-2" class="g2_141" />
<path d="M468.5,976.5l342,0" class="g2_141" />
<path d="M810.5,976.5l0,-2" class="g2_141" />
<path d="M812.5,976.5l60,0" class="g2_141" />
<path d="M872.5,976.5l0,-2" class="g2_141" />
<path d="M46.5,1014.5l0,-38" class="g2_141" />
<path d="M80.5,1014.5l0,-38" class="g2_141" />
<path d="M113.5,1014.5l0,-38" class="g2_141" />
<path d="M146.5,1014.5l0,-38" class="g2_141" />
<path d="M179.5,1014.5l0,-38" class="g2_141" />
<path d="M398.5,1014.5l0,-38" class="g2_141" />
<path d="M467.5,1014.5l0,-38" class="g2_141" />
<path d="M810.5,1014.5l0,-38" class="g2_141" />
<path d="M872.5,1014.5l0,-38" class="g2_141" />
<path fill-rule="evenodd" d="M47,1063l33,0l0,-49l-33,0l0,49Z" class="g1_141" />
<path fill-rule="evenodd" d="M81,1063l32,0l0,-49l-32,0l0,49Z" class="g1_141" />
<path fill-rule="evenodd" d="M115,1063l31,0l0,-49l-31,0l0,49Z" class="g1_141" />
<path fill-rule="evenodd" d="M148,1063l31,0l0,-49l-31,0l0,49Z" class="g1_141" />
<path fill-rule="evenodd" d="M181,1063l217,0l0,-47l-217,0l0,47Z" class="g1_141" />
<path fill-rule="evenodd" d="M188,1040l202,0l0,-24l-202,0l0,24Z" class="g1_141" />
<path fill-rule="evenodd" d="M399,1063l68,0l0,-47l-68,0l0,47Z" class="g1_141" />
<path fill-rule="evenodd" d="M407,1040l52,0l0,-24l-52,0l0,24Z" class="g1_141" />
<path fill-rule="evenodd" d="M468,1063l342,0l0,-47l-342,0l0,47Z" class="g1_141" />
<path fill-rule="evenodd" d="M476,1040l327,0l0,-24l-327,0l0,24Z" class="g1_141" />
<g clip-path="url(#c25_141)">
<path fill-rule="evenodd" d="M476,1063l327,0l0,-23l-327,0l0,23Z" class="g1_141" />
</g>
<path fill-rule="evenodd" d="M812,1063l60,0l0,-47l-60,0l0,47Z" class="g1_141" />
<path fill-rule="evenodd" d="M819,1040l45,0l0,-24l-45,0l0,24Z" class="g1_141" />
<path d="M46.5,1016.5l0,-2" class="g2_141" />
<path d="M80.5,1016.5l0,-2" class="g2_141" />
<path d="M113.5,1016.5l0,-2" class="g2_141" />
<path d="M146.5,1016.5l0,-2" class="g2_141" />
<path d="M179.5,1016.5l0,-2" class="g2_141" />
<path d="M181.5,1016.5l217,0" class="g2_141" />
<path d="M398.5,1016.5l0,-2" class="g2_141" />
<path d="M399.5,1016.5l68,0" class="g2_141" />
<path d="M467.5,1016.5l0,-2" class="g2_141" />
<path d="M468.5,1016.5l342,0" class="g2_141" />
<path d="M810.5,1016.5l0,-2" class="g2_141" />
<path d="M812.5,1016.5l60,0" class="g2_141" />
<path d="M872.5,1016.5l0,-2" class="g2_141" />
<path d="M46.5,1063.5l0,-48" class="g2_141" />
<path d="M46.5,1065.5l0,-2" class="g2_141" />
<path d="M46.5,1065.5l0,-2" class="g2_141" />
<path d="M47.5,1065.5l33,0" class="g2_141" />
<path d="M80.5,1063.5l0,-48" class="g2_141" />
<path d="M80.5,1065.5l0,-2" class="g2_141" />
<path d="M81.5,1065.5l32,0" class="g2_141" />
<path d="M113.5,1063.5l0,-48" class="g2_141" />
<path d="M113.5,1065.5l0,-2" class="g2_141" />
<path d="M114.5,1065.5l32,0" class="g2_141" />
<path d="M146.5,1063.5l0,-48" class="g2_141" />
<path d="M146.5,1065.5l0,-2" class="g2_141" />
<path d="M148.5,1065.5l31,0" class="g2_141" />
<path d="M179.5,1063.5l0,-48" class="g2_141" />
<path d="M179.5,1065.5l0,-2" class="g2_141" />
<path d="M181.5,1065.5l217,0" class="g2_141" />
<path d="M398.5,1063.5l0,-48" class="g2_141" />
<path d="M398.5,1065.5l0,-2" class="g2_141" />
<path d="M399.5,1065.5l68,0" class="g2_141" />
<path d="M467.5,1063.5l0,-48" class="g2_141" />
<path d="M467.5,1065.5l0,-2" class="g2_141" />
<path d="M468.5,1065.5l342,0" class="g2_141" />
<path d="M810.5,1063.5l0,-48" class="g2_141" />
<path d="M810.5,1065.5l0,-2" class="g2_141" />
<path d="M812.5,1065.5l60,0" class="g2_141" />
<path d="M872.5,1063.5l0,-48" class="g2_141" />
<path d="M872.5,1065.5l0,-2" class="g2_141" />
<path d="M872.5,1065.5l0,-2" class="g2_141" />
</svg>