<?xml version="1.0" encoding="UTF-8" standalone="no"?>
<!DOCTYPE svg PUBLIC "-//W3C//DTD SVG 1.1//EN"
"http://www.w3.org/Graphics/SVG/1.1/DTD/svg11.dtd">
<svg version="1.1" xmlns="http://www.w3.org/2000/svg" xmlns:xlink="http://www.w3.org/1999/xlink">
<defs>
<clipPath id="c0_137"><path d="M151.5,492.5l0,-381l130,0l0,381Z" /></clipPath>
<clipPath id="c1_137"><path d="M282.5,492.5l0,-381l74,0l0,381Z" /></clipPath>
<clipPath id="c2_137"><path d="M358.5,492.5l0,-381l67,0l0,381Z" /></clipPath>
<clipPath id="c3_137"><path d="M427.5,492.5l0,-381l460,0l0,381Z" /></clipPath>
<clipPath id="c4_137"><path d="M47.5,688.5l0,-24l840,0l0,24Z" /></clipPath>
<clipPath id="c5_137"><path d="M47.5,1096.5l0,-381l840,0l0,381Z" /></clipPath>
<style type="text/css"><![CDATA[
.g2_137{
fill: none;
stroke: #0000FF;
stroke-width: 1;
stroke-linecap: butt;
stroke-linejoin: miter;
}
.g3_137{
fill: none;
stroke: #7E7E7E;
stroke-width: 1;
stroke-linecap: butt;
stroke-linejoin: miter;
}
.g1_137{
fill: #F1F1F1;
}
]]></style>
</defs>
<path fill-rule="evenodd" d="M47,492l33,0L80,111l-33,0l0,381Z" class="g1_137" />
<path fill-rule="evenodd" d="M81,492l34,0l0,-381l-34,0l0,381Z" class="g1_137" />
<path fill-rule="evenodd" d="M116,492l33,0l0,-381l-33,0l0,381Z" class="g1_137" />
<path fill-rule="evenodd" d="M151,492l130,0l0,-381l-130,0l0,381Z" class="g1_137" />
<g clip-path="url(#c0_137)">
<path fill-rule="evenodd" d="M158,135l115,0l0,-24l-115,0l0,24Z" class="g1_137" />
</g>
<path fill-rule="evenodd" d="M282,492l74,0l0,-381l-74,0l0,381Z" class="g1_137" />
<g clip-path="url(#c1_137)">
<path fill-rule="evenodd" d="M290,135l59,0l0,-24l-59,0l0,24Z" class="g1_137" />
</g>
<path fill-rule="evenodd" d="M358,492l67,0l0,-381l-67,0l0,381Z" class="g1_137" />
<g clip-path="url(#c2_137)">
<path fill-rule="evenodd" d="M365,135l53,0l0,-24l-53,0l0,24Z" class="g1_137" />
</g>
<path fill-rule="evenodd" d="M427,492l460,0l0,-381l-460,0l0,381Z" class="g1_137" />
<g clip-path="url(#c3_137)">
<path fill-rule="evenodd" d="M434,135l446,0l0,-24l-446,0l0,24Z" class="g1_137" />
</g>
<path fill-rule="evenodd" d="M434,159l446,0l0,-24l-446,0l0,24Z" class="g1_137" />
<path fill-rule="evenodd" d="M434,182l446,0l0,-23l-446,0l0,23Z" class="g1_137" />
<path fill-rule="evenodd" d="M434,206l446,0l0,-24l-446,0l0,24Z" class="g1_137" />
<path fill-rule="evenodd" d="M434,230l446,0l0,-24l-446,0l0,24Z" class="g1_137" />
<path fill-rule="evenodd" d="M434,254l446,0l0,-24l-446,0l0,24Z" class="g1_137" />
<path fill-rule="evenodd" d="M434,278l446,0l0,-24l-446,0l0,24Z" class="g1_137" />
<path fill-rule="evenodd" d="M434,302l446,0l0,-24l-446,0l0,24Z" class="g1_137" />
<path fill-rule="evenodd" d="M434,325l446,0l0,-23l-446,0l0,23Z" class="g1_137" />
<path fill-rule="evenodd" d="M434,349l446,0l0,-24l-446,0l0,24Z" class="g1_137" />
<path fill-rule="evenodd" d="M434,373l446,0l0,-24l-446,0l0,24Z" class="g1_137" />
<path fill-rule="evenodd" d="M434,397l446,0l0,-24l-446,0l0,24Z" class="g1_137" />
<path fill-rule="evenodd" d="M434,421l446,0l0,-24l-446,0l0,24Z" class="g1_137" />
<path fill-rule="evenodd" d="M434,445l446,0l0,-24l-446,0l0,24Z" class="g1_137" />
<path d="M434.5,440.5l439,0" class="g2_137" />
<path fill-rule="evenodd" d="M434,469l446,0l0,-24l-446,0l0,24Z" class="g1_137" />
<path d="M434.5,464.5l241,0" class="g2_137" />
<path fill-rule="evenodd" d="M434,492l446,0l0,-23l-446,0l0,23Z" class="g1_137" />
<path d="M46.5,111.5l0,-1" class="g3_137" />
<path d="M46.5,111.5l0,-1" class="g3_137" />
<path d="M47.5,111.5l33,0" class="g3_137" />
<path d="M80.5,111.5l0,-1" class="g3_137" />
<path d="M81.5,111.5l34,0" class="g3_137" />
<path d="M115.5,111.5l0,-1" class="g3_137" />
<path d="M116.5,111.5l33,0" class="g3_137" />
<path d="M149.5,111.5l0,-1" class="g3_137" />
<path d="M151.5,111.5l130,0" class="g3_137" />
<path d="M281.5,111.5l0,-1" class="g3_137" />
<path d="M282.5,111.5l74,0" class="g3_137" />
<path d="M356.5,111.5l0,-1" class="g3_137" />
<path d="M358.5,111.5l67,0" class="g3_137" />
<path d="M425.5,111.5l0,-1" class="g3_137" />
<path d="M427.5,111.5l460,0" class="g3_137" />
<path d="M887.5,111.5l0,-1" class="g3_137" />
<path d="M887.5,111.5l0,-1" class="g3_137" />
<path d="M46.5,492.5l0,-381" class="g3_137" />
<path d="M80.5,492.5l0,-381" class="g3_137" />
<path d="M115.5,492.5l0,-381" class="g3_137" />
<path d="M149.5,492.5l0,-381" class="g3_137" />
<path d="M281.5,492.5l0,-381" class="g3_137" />
<path d="M356.5,492.5l0,-381" class="g3_137" />
<path d="M425.5,492.5l0,-381" class="g3_137" />
<path d="M887.5,492.5l0,-381" class="g3_137" />
<path fill-rule="evenodd" d="M47,566l33,0l0,-73l-33,0l0,73Z" class="g1_137" />
<path fill-rule="evenodd" d="M81,566l34,0l0,-73l-34,0l0,73Z" class="g1_137" />
<path fill-rule="evenodd" d="M116,566l33,0l0,-73l-33,0l0,73Z" class="g1_137" />
<path fill-rule="evenodd" d="M151,566l130,0l0,-72l-130,0l0,72Z" class="g1_137" />
<path fill-rule="evenodd" d="M158,518l115,0l0,-24l-115,0l0,24Z" class="g1_137" />
<path fill-rule="evenodd" d="M282,566l74,0l0,-72l-74,0l0,72Z" class="g1_137" />
<path fill-rule="evenodd" d="M290,518l59,0l0,-24l-59,0l0,24Z" class="g1_137" />
<path fill-rule="evenodd" d="M358,566l67,0l0,-72l-67,0l0,72Z" class="g1_137" />
<path fill-rule="evenodd" d="M365,518l53,0l0,-24l-53,0l0,24Z" class="g1_137" />
<path fill-rule="evenodd" d="M427,566l460,0l0,-72l-460,0l0,72Z" class="g1_137" />
<path fill-rule="evenodd" d="M434,518l446,0l0,-24l-446,0l0,24Z" class="g1_137" />
<path fill-rule="evenodd" d="M434,542l446,0l0,-24l-446,0l0,24Z" class="g1_137" />
<path fill-rule="evenodd" d="M434,566l446,0l0,-24l-446,0l0,24Z" class="g1_137" />
<path d="M46.5,494.5l0,-2" class="g3_137" />
<path d="M80.5,494.5l0,-2" class="g3_137" />
<path d="M115.5,494.5l0,-2" class="g3_137" />
<path d="M149.5,494.5l0,-2" class="g3_137" />
<path d="M151.5,494.5l130,0" class="g3_137" />
<path d="M281.5,494.5l0,-2" class="g3_137" />
<path d="M282.5,494.5l74,0" class="g3_137" />
<path d="M356.5,494.5l0,-2" class="g3_137" />
<path d="M358.5,494.5l67,0" class="g3_137" />
<path d="M425.5,494.5l0,-2" class="g3_137" />
<path d="M427.5,494.5l460,0" class="g3_137" />
<path d="M887.5,494.5l0,-2" class="g3_137" />
<path d="M46.5,566.5l0,-72" class="g3_137" />
<path d="M46.5,567.5l0,-1" class="g3_137" />
<path d="M46.5,567.5l0,-1" class="g3_137" />
<path d="M47.5,567.5l33,0" class="g3_137" />
<path d="M80.5,566.5l0,-72" class="g3_137" />
<path d="M80.5,567.5l0,-1" class="g3_137" />
<path d="M81.5,567.5l34,0" class="g3_137" />
<path d="M115.5,566.5l0,-72" class="g3_137" />
<path d="M115.5,567.5l0,-1" class="g3_137" />
<path d="M116.5,567.5l33,0" class="g3_137" />
<path d="M149.5,566.5l0,-72" class="g3_137" />
<path d="M149.5,567.5l0,-1" class="g3_137" />
<path d="M151.5,567.5l130,0" class="g3_137" />
<path d="M281.5,566.5l0,-72" class="g3_137" />
<path d="M281.5,567.5l0,-1" class="g3_137" />
<path d="M282.5,567.5l74,0" class="g3_137" />
<path d="M356.5,566.5l0,-72" class="g3_137" />
<path d="M356.5,567.5l0,-1" class="g3_137" />
<path d="M358.5,567.5l67,0" class="g3_137" />
<path d="M425.5,566.5l0,-72" class="g3_137" />
<path d="M425.5,567.5l0,-1" class="g3_137" />
<path d="M427.5,567.5l460,0" class="g3_137" />
<path d="M887.5,566.5l0,-72" class="g3_137" />
<path d="M887.5,567.5l0,-1" class="g3_137" />
<path d="M887.5,567.5l0,-1" class="g3_137" />
<path fill-rule="evenodd" d="M47,688l840,0l0,-24L47,664l0,24Z" class="g1_137" />
<g clip-path="url(#c4_137)">
<path fill-rule="evenodd" d="M55,688l825,0l0,-24L55,664l0,24Z" class="g1_137" />
</g>
<path d="M46.5,664.5l0,-2" class="g3_137" />
<path d="M46.5,664.5l0,-2" class="g3_137" />
<path d="M47.5,664.5l840,0" class="g3_137" />
<path d="M887.5,664.5l0,-2" class="g3_137" />
<path d="M887.5,664.5l0,-2" class="g3_137" />
<path d="M46.5,688.5l0,-24" class="g3_137" />
<path d="M46.5,689.5l0,-1" class="g3_137" />
<path d="M46.5,689.5l0,-1" class="g3_137" />
<path d="M47.5,689.5l840,0" class="g3_137" />
<path d="M887.5,688.5l0,-24" class="g3_137" />
<path d="M887.5,689.5l0,-1" class="g3_137" />
<path d="M887.5,689.5l0,-1" class="g3_137" />
<path fill-rule="evenodd" d="M47,1096l840,0l0,-381L47,715l0,381Z" class="g1_137" />
<g clip-path="url(#c5_137)">
<path fill-rule="evenodd" d="M55,738l825,0l0,-23L55,715l0,23Z" class="g1_137" />
</g>
<path fill-rule="evenodd" d="M55,762l825,0l0,-24L55,738l0,24Z" class="g1_137" />
<path fill-rule="evenodd" d="M55,786l825,0l0,-24L55,762l0,24Z" class="g1_137" />
<path fill-rule="evenodd" d="M55,810l825,0l0,-24L55,786l0,24Z" class="g1_137" />
<path fill-rule="evenodd" d="M55,834l825,0l0,-24L55,810l0,24Z" class="g1_137" />
<path fill-rule="evenodd" d="M55,858l825,0l0,-24L55,834l0,24Z" class="g1_137" />
<path fill-rule="evenodd" d="M55,881l825,0l0,-23L55,858l0,23Z" class="g1_137" />
<path fill-rule="evenodd" d="M55,905l825,0l0,-24L55,881l0,24Z" class="g1_137" />
<path fill-rule="evenodd" d="M55,929l825,0l0,-24L55,905l0,24Z" class="g1_137" />
<path fill-rule="evenodd" d="M55,953l825,0l0,-24L55,929l0,24Z" class="g1_137" />
<path fill-rule="evenodd" d="M55,977l825,0l0,-24L55,953l0,24Z" class="g1_137" />
<path fill-rule="evenodd" d="M55,1001l825,0l0,-24L55,977l0,24Z" class="g1_137" />
<path fill-rule="evenodd" d="M55,1024l825,0l0,-23l-825,0l0,23Z" class="g1_137" />
<path fill-rule="evenodd" d="M55,1048l825,0l0,-24l-825,0l0,24Z" class="g1_137" />
<path fill-rule="evenodd" d="M55,1072l825,0l0,-24l-825,0l0,24Z" class="g1_137" />
<g clip-path="url(#c5_137)">
<path fill-rule="evenodd" d="M55,1096l825,0l0,-24l-825,0l0,24Z" class="g1_137" />
</g>
<path d="M46.5,715.5l0,-2" class="g3_137" />
<path d="M46.5,715.5l0,-2" class="g3_137" />
<path d="M47.5,715.5l840,0" class="g3_137" />
<path d="M887.5,715.5l0,-2" class="g3_137" />
<path d="M887.5,715.5l0,-2" class="g3_137" />
<path d="M46.5,1096.5l0,-381" class="g3_137" />
<path d="M46.5,1097.5l0,-1" class="g3_137" />
<path d="M46.5,1097.5l0,-1" class="g3_137" />
<path d="M47.5,1097.5l840,0" class="g3_137" />
<path d="M887.5,1096.5l0,-381" class="g3_137" />
<path d="M887.5,1097.5l0,-1" class="g3_137" />
<path d="M887.5,1097.5l0,-1" class="g3_137" />
</svg>