<?xml version="1.0" encoding="UTF-8" standalone="no"?>
<!DOCTYPE svg PUBLIC "-//W3C//DTD SVG 1.1//EN"
"http://www.w3.org/Graphics/SVG/1.1/DTD/svg11.dtd">
<svg version="1.1" xmlns="http://www.w3.org/2000/svg" xmlns:xlink="http://www.w3.org/1999/xlink">
<defs>
<clipPath id="c0_411"><path d="M47.5,612.5l0,-501l840,0l0,501Z" /></clipPath>
<clipPath id="c1_411"><path d="M47.5,724.5l0,-25l190,0l0,25Z" /></clipPath>
<clipPath id="c2_411"><path d="M238.5,724.5l0,-25l77,0l0,25Z" /></clipPath>
<clipPath id="c3_411"><path d="M317.5,724.5l0,-25l570,0l0,25Z" /></clipPath>
<clipPath id="c4_411"><path d="M47.5,1065.5l0,-340l34,0l0,340Z" /></clipPath>
<clipPath id="c5_411"><path d="M83.5,751.5l0,-26l154,0l0,26Z" /></clipPath>
<clipPath id="c6_411"><path d="M238.5,751.5l0,-26l77,0l0,26Z" /></clipPath>
<clipPath id="c7_411"><path d="M317.5,751.5l0,-26l570,0l0,26Z" /></clipPath>
<clipPath id="c8_411"><path d="M83.5,778.5l0,-26l154,0l0,26Z" /></clipPath>
<clipPath id="c9_411"><path d="M238.5,778.5l0,-26l77,0l0,26Z" /></clipPath>
<clipPath id="c10_411"><path d="M317.5,778.5l0,-26l570,0l0,26Z" /></clipPath>
<clipPath id="c11_411"><path d="M83.5,804.5l0,-24l154,0l0,24Z" /></clipPath>
<clipPath id="c12_411"><path d="M238.5,804.5l0,-24l77,0l0,24Z" /></clipPath>
<clipPath id="c13_411"><path d="M317.5,804.5l0,-24l570,0l0,24Z" /></clipPath>
<clipPath id="c14_411"><path d="M83.5,830.5l0,-25l154,0l0,25Z" /></clipPath>
<clipPath id="c15_411"><path d="M238.5,830.5l0,-25l77,0l0,25Z" /></clipPath>
<clipPath id="c16_411"><path d="M317.5,830.5l0,-25l570,0l0,25Z" /></clipPath>
<clipPath id="c17_411"><path d="M83.5,1034.5l0,-203l33,0l0,203Z" /></clipPath>
<clipPath id="c18_411"><path d="M317.5,866.5l0,-35l570,0l0,35Z" /></clipPath>
<clipPath id="c19_411"><path d="M317.5,901.5l0,-34l570,0l0,34Z" /></clipPath>
<clipPath id="c20_411"><path d="M317.5,1034.5l0,-96l570,0l0,96Z" /></clipPath>
<style type="text/css"><![CDATA[
.g2_411{
fill: none;
stroke: #7E7E7E;
stroke-width: 1;
stroke-linecap: butt;
stroke-linejoin: miter;
}
.g3_411{
fill: #DBE5F1;
}
.g1_411{
fill: #F1F1F1;
}
]]></style>
</defs>
<path fill-rule="evenodd" d="M47,612l840,0l0,-501L47,111l0,501Z" class="g1_411" />
<g clip-path="url(#c0_411)">
<path fill-rule="evenodd" d="M55,135l825,0l0,-24L55,111l0,24Z" class="g1_411" />
</g>
<path fill-rule="evenodd" d="M55,159l825,0l0,-24L55,135l0,24Z" class="g1_411" />
<path fill-rule="evenodd" d="M55,182l825,0l0,-23L55,159l0,23Z" class="g1_411" />
<path fill-rule="evenodd" d="M55,206l825,0l0,-24L55,182l0,24Z" class="g1_411" />
<path fill-rule="evenodd" d="M55,230l825,0l0,-24L55,206l0,24Z" class="g1_411" />
<path fill-rule="evenodd" d="M55,254l825,0l0,-24L55,230l0,24Z" class="g1_411" />
<path fill-rule="evenodd" d="M55,278l825,0l0,-24L55,254l0,24Z" class="g1_411" />
<path fill-rule="evenodd" d="M55,302l825,0l0,-24L55,278l0,24Z" class="g1_411" />
<path fill-rule="evenodd" d="M55,325l825,0l0,-23L55,302l0,23Z" class="g1_411" />
<path fill-rule="evenodd" d="M55,349l825,0l0,-24L55,325l0,24Z" class="g1_411" />
<path fill-rule="evenodd" d="M55,373l825,0l0,-24L55,349l0,24Z" class="g1_411" />
<path fill-rule="evenodd" d="M55,397l825,0l0,-24L55,373l0,24Z" class="g1_411" />
<path fill-rule="evenodd" d="M55,421l825,0l0,-24L55,397l0,24Z" class="g1_411" />
<path fill-rule="evenodd" d="M55,445l825,0l0,-24L55,421l0,24Z" class="g1_411" />
<path fill-rule="evenodd" d="M55,469l825,0l0,-24L55,445l0,24Z" class="g1_411" />
<path fill-rule="evenodd" d="M55,492l825,0l0,-23L55,469l0,23Z" class="g1_411" />
<path fill-rule="evenodd" d="M55,516l825,0l0,-24L55,492l0,24Z" class="g1_411" />
<path fill-rule="evenodd" d="M55,540l825,0l0,-24L55,516l0,24Z" class="g1_411" />
<path fill-rule="evenodd" d="M55,564l825,0l0,-24L55,540l0,24Z" class="g1_411" />
<path fill-rule="evenodd" d="M55,588l825,0l0,-24L55,564l0,24Z" class="g1_411" />
<path fill-rule="evenodd" d="M55,612l825,0l0,-24L55,588l0,24Z" class="g1_411" />
<path d="M46.5,111.5l0,-1" class="g2_411" />
<path d="M46.5,111.5l0,-1" class="g2_411" />
<path d="M47.5,111.5l840,0" class="g2_411" />
<path d="M887.5,111.5l0,-1" class="g2_411" />
<path d="M887.5,111.5l0,-1" class="g2_411" />
<path d="M46.5,612.5l0,-501" class="g2_411" />
<path d="M46.5,613.5l0,-1" class="g2_411" />
<path d="M46.5,613.5l0,-1" class="g2_411" />
<path d="M47.5,613.5l840,0" class="g2_411" />
<path d="M887.5,612.5l0,-501" class="g2_411" />
<path d="M887.5,613.5l0,-1" class="g2_411" />
<path d="M887.5,613.5l0,-1" class="g2_411" />
<path fill-rule="evenodd" d="M47,724l190,0l0,-25L47,699l0,25Z" class="g3_411" />
<g clip-path="url(#c1_411)">
<path fill-rule="evenodd" d="M55,723l174,0l0,-24L55,699l0,24Z" class="g3_411" />
</g>
<path fill-rule="evenodd" d="M238,724l77,0l0,-25l-77,0l0,25Z" class="g3_411" />
<g clip-path="url(#c2_411)">
<path fill-rule="evenodd" d="M246,723l62,0l0,-24l-62,0l0,24Z" class="g3_411" />
</g>
<path fill-rule="evenodd" d="M317,724l570,0l0,-25l-570,0l0,25Z" class="g3_411" />
<g clip-path="url(#c3_411)">
<path fill-rule="evenodd" d="M324,723l556,0l0,-24l-556,0l0,24Z" class="g3_411" />
</g>
<path d="M46.5,699.5l0,-1" class="g2_411" />
<path d="M46.5,699.5l0,-1" class="g2_411" />
<path d="M47.5,699.5l190,0" class="g2_411" />
<path d="M237.5,699.5l0,-1" class="g2_411" />
<path d="M238.5,699.5l77,0" class="g2_411" />
<path d="M315.5,699.5l0,-1" class="g2_411" />
<path d="M317.5,699.5l570,0" class="g2_411" />
<path d="M887.5,699.5l0,-1" class="g2_411" />
<path d="M887.5,699.5l0,-1" class="g2_411" />
<path d="M46.5,724.5l0,-25" class="g2_411" />
<path d="M237.5,724.5l0,-25" class="g2_411" />
<path d="M315.5,724.5l0,-25" class="g2_411" />
<path d="M887.5,724.5l0,-25" class="g2_411" />
<path fill-rule="evenodd" d="M47,1065l34,0L81,725l-34,0l0,340Z" class="g1_411" />
<g clip-path="url(#c4_411)">
<path fill-rule="evenodd" d="M55,1065l23,0L78,725l-23,0l0,340Z" class="g1_411" />
</g>
<path fill-rule="evenodd" d="M83,751l154,0l0,-26L83,725l0,26Z" class="g1_411" />
<g clip-path="url(#c5_411)">
<path fill-rule="evenodd" d="M90,749l139,0l0,-24L90,725l0,24Z" class="g1_411" />
</g>
<path fill-rule="evenodd" d="M238,751l77,0l0,-26l-77,0l0,26Z" class="g1_411" />
<g clip-path="url(#c6_411)">
<path fill-rule="evenodd" d="M246,749l62,0l0,-24l-62,0l0,24Z" class="g1_411" />
</g>
<path fill-rule="evenodd" d="M317,751l570,0l0,-26l-570,0l0,26Z" class="g1_411" />
<g clip-path="url(#c7_411)">
<path fill-rule="evenodd" d="M324,749l556,0l0,-24l-556,0l0,24Z" class="g1_411" />
</g>
<path d="M46.5,725.5l0,-1" class="g2_411" />
<path d="M47.5,725.5l34,0" class="g2_411" />
<path d="M81.5,725.5l0,-1" class="g2_411" />
<path d="M83.5,725.5l154,0" class="g2_411" />
<path d="M237.5,725.5l0,-1" class="g2_411" />
<path d="M238.5,725.5l77,0" class="g2_411" />
<path d="M315.5,725.5l0,-1" class="g2_411" />
<path d="M317.5,725.5l570,0" class="g2_411" />
<path d="M887.5,725.5l0,-1" class="g2_411" />
<path d="M46.5,751.5l0,-26" class="g2_411" />
<path d="M81.5,751.5l0,-26" class="g2_411" />
<path d="M237.5,751.5l0,-26" class="g2_411" />
<path d="M315.5,751.5l0,-26" class="g2_411" />
<path d="M887.5,751.5l0,-26" class="g2_411" />
<path fill-rule="evenodd" d="M83,778l154,0l0,-26L83,752l0,26Z" class="g1_411" />
<g clip-path="url(#c8_411)">
<path fill-rule="evenodd" d="M90,776l139,0l0,-24L90,752l0,24Z" class="g1_411" />
</g>
<path fill-rule="evenodd" d="M238,778l77,0l0,-26l-77,0l0,26Z" class="g1_411" />
<g clip-path="url(#c9_411)">
<path fill-rule="evenodd" d="M246,776l62,0l0,-24l-62,0l0,24Z" class="g1_411" />
</g>
<path fill-rule="evenodd" d="M317,778l570,0l0,-26l-570,0l0,26Z" class="g1_411" />
<g clip-path="url(#c10_411)">
<path fill-rule="evenodd" d="M324,776l556,0l0,-24l-556,0l0,24Z" class="g1_411" />
</g>
<path d="M46.5,752.5l0,-1" class="g2_411" />
<path d="M81.5,752.5l0,-1" class="g2_411" />
<path d="M83.5,752.5l154,0" class="g2_411" />
<path d="M237.5,752.5l0,-1" class="g2_411" />
<path d="M238.5,752.5l77,0" class="g2_411" />
<path d="M315.5,752.5l0,-1" class="g2_411" />
<path d="M317.5,752.5l570,0" class="g2_411" />
<path d="M887.5,752.5l0,-1" class="g2_411" />
<path d="M46.5,778.5l0,-26" class="g2_411" />
<path d="M81.5,778.5l0,-26" class="g2_411" />
<path d="M237.5,778.5l0,-26" class="g2_411" />
<path d="M315.5,778.5l0,-26" class="g2_411" />
<path d="M887.5,778.5l0,-26" class="g2_411" />
<path fill-rule="evenodd" d="M83,804l154,0l0,-24L83,780l0,24Z" class="g1_411" />
<g clip-path="url(#c11_411)">
<path fill-rule="evenodd" d="M90,803l139,0l0,-23L90,780l0,23Z" class="g1_411" />
</g>
<path fill-rule="evenodd" d="M238,804l77,0l0,-24l-77,0l0,24Z" class="g1_411" />
<g clip-path="url(#c12_411)">
<path fill-rule="evenodd" d="M246,803l62,0l0,-23l-62,0l0,23Z" class="g1_411" />
</g>
<path fill-rule="evenodd" d="M317,804l570,0l0,-24l-570,0l0,24Z" class="g1_411" />
<g clip-path="url(#c13_411)">
<path fill-rule="evenodd" d="M324,803l556,0l0,-23l-556,0l0,23Z" class="g1_411" />
</g>
<path d="M46.5,779.5l0,-1" class="g2_411" />
<path d="M81.5,779.5l0,-1" class="g2_411" />
<path d="M83.5,779.5l154,0" class="g2_411" />
<path d="M237.5,779.5l0,-1" class="g2_411" />
<path d="M238.5,779.5l77,0" class="g2_411" />
<path d="M315.5,779.5l0,-1" class="g2_411" />
<path d="M317.5,779.5l570,0" class="g2_411" />
<path d="M887.5,779.5l0,-1" class="g2_411" />
<path d="M46.5,804.5l0,-25" class="g2_411" />
<path d="M81.5,804.5l0,-25" class="g2_411" />
<path d="M237.5,804.5l0,-25" class="g2_411" />
<path d="M315.5,804.5l0,-25" class="g2_411" />
<path d="M887.5,804.5l0,-25" class="g2_411" />
<path fill-rule="evenodd" d="M83,830l154,0l0,-25L83,805l0,25Z" class="g1_411" />
<g clip-path="url(#c14_411)">
<path fill-rule="evenodd" d="M90,829l139,0l0,-24L90,805l0,24Z" class="g1_411" />
</g>
<path fill-rule="evenodd" d="M238,830l77,0l0,-25l-77,0l0,25Z" class="g1_411" />
<g clip-path="url(#c15_411)">
<path fill-rule="evenodd" d="M246,829l62,0l0,-24l-62,0l0,24Z" class="g1_411" />
</g>
<path fill-rule="evenodd" d="M317,830l570,0l0,-25l-570,0l0,25Z" class="g1_411" />
<g clip-path="url(#c16_411)">
<path fill-rule="evenodd" d="M324,829l556,0l0,-24l-556,0l0,24Z" class="g1_411" />
</g>
<path d="M46.5,805.5l0,-1" class="g2_411" />
<path d="M81.5,805.5l0,-1" class="g2_411" />
<path d="M83.5,805.5l154,0" class="g2_411" />
<path d="M237.5,805.5l0,-1" class="g2_411" />
<path d="M238.5,805.5l77,0" class="g2_411" />
<path d="M315.5,805.5l0,-1" class="g2_411" />
<path d="M317.5,805.5l570,0" class="g2_411" />
<path d="M887.5,805.5l0,-1" class="g2_411" />
<path d="M46.5,830.5l0,-25" class="g2_411" />
<path d="M81.5,830.5l0,-25" class="g2_411" />
<path d="M237.5,830.5l0,-25" class="g2_411" />
<path d="M315.5,830.5l0,-25" class="g2_411" />
<path d="M887.5,830.5l0,-25" class="g2_411" />
<path fill-rule="evenodd" d="M83,1034l33,0l0,-203l-33,0l0,203Z" class="g1_411" />
<g clip-path="url(#c17_411)">
<path fill-rule="evenodd" d="M90,1034l24,0l0,-203l-24,0l0,203Z" class="g1_411" />
</g>
<path fill-rule="evenodd" d="M117,865l120,0l0,-34l-120,0l0,34Z" class="g1_411" />
<path fill-rule="evenodd" d="M125,860l104,0l0,-24l-104,0l0,24Z" class="g1_411" />
<path fill-rule="evenodd" d="M238,865l77,0l0,-34l-77,0l0,34Z" class="g1_411" />
<path fill-rule="evenodd" d="M246,860l62,0l0,-24l-62,0l0,24Z" class="g1_411" />
<path fill-rule="evenodd" d="M317,865l570,0l0,-34l-570,0l0,34Z" class="g1_411" />
<g clip-path="url(#c18_411)">
<path fill-rule="evenodd" d="M324,855l556,0l0,-24l-556,0l0,24Z" class="g1_411" />
</g>
<path d="M46.5,831.5l0,-1" class="g2_411" />
<path d="M81.5,831.5l0,-1" class="g2_411" />
<path d="M83.5,831.5l33,0" class="g2_411" />
<path d="M116.5,831.5l0,-1" class="g2_411" />
<path d="M117.5,831.5l120,0" class="g2_411" />
<path d="M237.5,831.5l0,-1" class="g2_411" />
<path d="M238.5,831.5l77,0" class="g2_411" />
<path d="M315.5,831.5l0,-1" class="g2_411" />
<path d="M317.5,831.5l570,0" class="g2_411" />
<path d="M887.5,831.5l0,-1" class="g2_411" />
<path d="M46.5,865.5l0,-34" class="g2_411" />
<path d="M81.5,865.5l0,-34" class="g2_411" />
<path d="M116.5,865.5l0,-34" class="g2_411" />
<path d="M237.5,865.5l0,-34" class="g2_411" />
<path d="M315.5,865.5l0,-34" class="g2_411" />
<path d="M887.5,865.5l0,-34" class="g2_411" />
<path fill-rule="evenodd" d="M117,901l120,0l0,-34l-120,0l0,34Z" class="g1_411" />
<path fill-rule="evenodd" d="M125,896l104,0l0,-24l-104,0l0,24Z" class="g1_411" />
<path fill-rule="evenodd" d="M238,901l77,0l0,-34l-77,0l0,34Z" class="g1_411" />
<path fill-rule="evenodd" d="M246,896l62,0l0,-24l-62,0l0,24Z" class="g1_411" />
<path fill-rule="evenodd" d="M317,901l570,0l0,-34l-570,0l0,34Z" class="g1_411" />
<g clip-path="url(#c19_411)">
<path fill-rule="evenodd" d="M324,891l556,0l0,-24l-556,0l0,24Z" class="g1_411" />
</g>
<path d="M46.5,867.5l0,-2" class="g2_411" />
<path d="M81.5,867.5l0,-2" class="g2_411" />
<path d="M116.5,867.5l0,-2" class="g2_411" />
<path d="M117.5,867.5l120,0" class="g2_411" />
<path d="M237.5,867.5l0,-2" class="g2_411" />
<path d="M238.5,867.5l77,0" class="g2_411" />
<path d="M315.5,867.5l0,-2" class="g2_411" />
<path d="M317.5,867.5l570,0" class="g2_411" />
<path d="M887.5,867.5l0,-2" class="g2_411" />
<path d="M46.5,901.5l0,-34" class="g2_411" />
<path d="M81.5,901.5l0,-34" class="g2_411" />
<path d="M116.5,901.5l0,-34" class="g2_411" />
<path d="M237.5,901.5l0,-34" class="g2_411" />
<path d="M315.5,901.5l0,-34" class="g2_411" />
<path d="M887.5,901.5l0,-34" class="g2_411" />
<path fill-rule="evenodd" d="M117,937l120,0l0,-34l-120,0l0,34Z" class="g1_411" />
<path fill-rule="evenodd" d="M125,932l104,0l0,-24l-104,0l0,24Z" class="g1_411" />
<path fill-rule="evenodd" d="M238,937l77,0l0,-34l-77,0l0,34Z" class="g1_411" />
<path fill-rule="evenodd" d="M246,932l62,0l0,-24l-62,0l0,24Z" class="g1_411" />
<path fill-rule="evenodd" d="M317,937l570,0l0,-34l-570,0l0,34Z" class="g1_411" />
<path fill-rule="evenodd" d="M324,927l556,0l0,-24l-556,0l0,24Z" class="g1_411" />
<path d="M46.5,903.5l0,-2" class="g2_411" />
<path d="M81.5,903.5l0,-2" class="g2_411" />
<path d="M116.5,903.5l0,-2" class="g2_411" />
<path d="M117.5,903.5l120,0" class="g2_411" />
<path d="M237.5,903.5l0,-2" class="g2_411" />
<path d="M238.5,903.5l77,0" class="g2_411" />
<path d="M315.5,903.5l0,-2" class="g2_411" />
<path d="M317.5,903.5l570,0" class="g2_411" />
<path d="M887.5,903.5l0,-2" class="g2_411" />
<path d="M46.5,937.5l0,-34" class="g2_411" />
<path d="M81.5,937.5l0,-34" class="g2_411" />
<path d="M116.5,937.5l0,-34" class="g2_411" />
<path d="M237.5,937.5l0,-34" class="g2_411" />
<path d="M315.5,937.5l0,-34" class="g2_411" />
<path d="M887.5,937.5l0,-34" class="g2_411" />
<path fill-rule="evenodd" d="M117,1034l120,0l0,-95l-120,0l0,95Z" class="g1_411" />
<path fill-rule="evenodd" d="M125,962l104,0l0,-23l-104,0l0,23Z" class="g1_411" />
<path fill-rule="evenodd" d="M238,1034l77,0l0,-95l-77,0l0,95Z" class="g1_411" />
<path fill-rule="evenodd" d="M246,962l62,0l0,-23l-62,0l0,23Z" class="g1_411" />
<path fill-rule="evenodd" d="M317,1034l570,0l0,-95l-570,0l0,95Z" class="g1_411" />
<path fill-rule="evenodd" d="M324,962l556,0l0,-23l-556,0l0,23Z" class="g1_411" />
<path fill-rule="evenodd" d="M324,986l556,0l0,-24l-556,0l0,24Z" class="g1_411" />
<path fill-rule="evenodd" d="M324,1010l556,0l0,-24l-556,0l0,24Z" class="g1_411" />
<g clip-path="url(#c20_411)">
<path fill-rule="evenodd" d="M324,1034l556,0l0,-24l-556,0l0,24Z" class="g1_411" />
</g>
<path d="M46.5,939.5l0,-2" class="g2_411" />
<path d="M81.5,939.5l0,-2" class="g2_411" />
<path d="M116.5,939.5l0,-2" class="g2_411" />
<path d="M117.5,939.5l120,0" class="g2_411" />
<path d="M237.5,939.5l0,-2" class="g2_411" />
<path d="M238.5,939.5l77,0" class="g2_411" />
<path d="M315.5,939.5l0,-2" class="g2_411" />
<path d="M317.5,939.5l570,0" class="g2_411" />
<path d="M887.5,939.5l0,-2" class="g2_411" />
<path d="M46.5,1034.5l0,-95" class="g2_411" />
<path d="M81.5,1034.5l0,-95" class="g2_411" />
<path d="M116.5,1034.5l0,-95" class="g2_411" />
<path d="M237.5,1034.5l0,-95" class="g2_411" />
<path d="M315.5,1034.5l0,-95" class="g2_411" />
<path d="M887.5,1034.5l0,-95" class="g2_411" />
<path fill-rule="evenodd" d="M83,1065l154,0l0,-30l-154,0l0,30Z" class="g1_411" />
<path fill-rule="evenodd" d="M90,1059l139,0l0,-24l-139,0l0,24Z" class="g1_411" />
<path fill-rule="evenodd" d="M238,1065l77,0l0,-30l-77,0l0,30Z" class="g1_411" />
<path fill-rule="evenodd" d="M246,1059l62,0l0,-24l-62,0l0,24Z" class="g1_411" />
<path fill-rule="evenodd" d="M317,1065l570,0l0,-30l-570,0l0,30Z" class="g1_411" />
<path fill-rule="evenodd" d="M324,1059l556,0l0,-24l-556,0l0,24Z" class="g1_411" />
<path d="M46.5,1035.5l0,-1" class="g2_411" />
<path d="M81.5,1035.5l0,-1" class="g2_411" />
<path d="M83.5,1035.5l33,0" class="g2_411" />
<path d="M116.5,1035.5l0,-1" class="g2_411" />
<path d="M117.5,1035.5l120,0" class="g2_411" />
<path d="M237.5,1035.5l0,-1" class="g2_411" />
<path d="M238.5,1035.5l77,0" class="g2_411" />
<path d="M315.5,1035.5l0,-1" class="g2_411" />
<path d="M317.5,1035.5l570,0" class="g2_411" />
<path d="M887.5,1035.5l0,-1" class="g2_411" />
<path d="M46.5,1065.5l0,-30" class="g2_411" />
<path d="M46.5,1066.5l0,-1" class="g2_411" />
<path d="M46.5,1066.5l0,-1" class="g2_411" />
<path d="M47.5,1066.5l34,0" class="g2_411" />
<path d="M81.5,1065.5l0,-30" class="g2_411" />
<path d="M81.5,1066.5l0,-1" class="g2_411" />
<path d="M83.5,1066.5l154,0" class="g2_411" />
<path d="M237.5,1065.5l0,-30" class="g2_411" />
<path d="M237.5,1066.5l0,-1" class="g2_411" />
<path d="M238.5,1066.5l77,0" class="g2_411" />
<path d="M315.5,1065.5l0,-30" class="g2_411" />
<path d="M315.5,1066.5l0,-1" class="g2_411" />
<path d="M317.5,1066.5l570,0" class="g2_411" />
<path d="M887.5,1065.5l0,-30" class="g2_411" />
<path d="M887.5,1066.5l0,-1" class="g2_411" />
<path d="M887.5,1066.5l0,-1" class="g2_411" />
</svg>