<?xml version="1.0" encoding="UTF-8" standalone="no"?>
<!DOCTYPE svg PUBLIC "-//W3C//DTD SVG 1.1//EN"
"http://www.w3.org/Graphics/SVG/1.1/DTD/svg11.dtd">
<svg version="1.1" xmlns="http://www.w3.org/2000/svg" xmlns:xlink="http://www.w3.org/1999/xlink">
<defs>
<clipPath id="c0_231"><path d="M47.5,1081.5l0,-453l840,0l0,453Z" /></clipPath>
<style type="text/css"><![CDATA[
.g2_231{
fill: #F1F1F1;
}
.g3_231{
fill: none;
stroke: #7E7E7E;
stroke-width: 1;
stroke-linecap: butt;
stroke-linejoin: miter;
}
.g1_231{
fill: none;
stroke: #000000;
stroke-width: 1;
stroke-linecap: butt;
stroke-linejoin: miter;
}
]]></style>
</defs>
<path d="M338.5,110.5l89,0" class="g1_231" />
<path d="M53.5,182.5l0,-72" class="g1_231" />
<path d="M94.5,182.5l0,-72" class="g1_231" />
<path d="M135.5,182.5l0,-72" class="g1_231" />
<path d="M175.5,182.5l0,-72" class="g1_231" />
<path d="M337.5,182.5l0,-72" class="g1_231" />
<path d="M427.5,182.5l0,-72" class="g1_231" />
<path d="M808.5,182.5l0,-72" class="g1_231" />
<path d="M888.5,182.5l0,-72" class="g1_231" />
<path d="M176.5,182.5l161,0" class="g1_231" />
<path d="M338.5,182.5l89,0" class="g1_231" />
<path d="M428.5,182.5l380,0" class="g1_231" />
<path d="M809.5,182.5l79,0" class="g1_231" />
<path d="M53.5,206.5l0,-24" class="g1_231" />
<path d="M94.5,206.5l0,-24" class="g1_231" />
<path d="M135.5,206.5l0,-24" class="g1_231" />
<path d="M175.5,206.5l0,-24" class="g1_231" />
<path d="M337.5,206.5l0,-24" class="g1_231" />
<path d="M427.5,206.5l0,-24" class="g1_231" />
<path d="M808.5,206.5l0,-24" class="g1_231" />
<path d="M888.5,206.5l0,-24" class="g1_231" />
<path d="M53.5,207.5l0,-1" class="g1_231" />
<path d="M94.5,207.5l0,-1" class="g1_231" />
<path d="M135.5,207.5l0,-1" class="g1_231" />
<path d="M175.5,207.5l0,-1" class="g1_231" />
<path d="M176.5,207.5l161,0" class="g1_231" />
<path d="M337.5,207.5l0,-1" class="g1_231" />
<path d="M338.5,207.5l89,0" class="g1_231" />
<path d="M427.5,207.5l0,-1" class="g1_231" />
<path d="M428.5,207.5l380,0" class="g1_231" />
<path d="M808.5,207.5l0,-1" class="g1_231" />
<path d="M809.5,207.5l79,0" class="g1_231" />
<path d="M888.5,207.5l0,-1" class="g1_231" />
<path d="M53.5,289.5l0,-82" class="g1_231" />
<path d="M94.5,289.5l0,-82" class="g1_231" />
<path d="M135.5,289.5l0,-82" class="g1_231" />
<path d="M175.5,289.5l0,-82" class="g1_231" />
<path d="M337.5,289.5l0,-82" class="g1_231" />
<path d="M427.5,289.5l0,-82" class="g1_231" />
<path d="M808.5,289.5l0,-82" class="g1_231" />
<path d="M888.5,289.5l0,-82" class="g1_231" />
<path d="M53.5,290.5l0,-1" class="g1_231" />
<path d="M94.5,290.5l0,-1" class="g1_231" />
<path d="M135.5,290.5l0,-1" class="g1_231" />
<path d="M175.5,290.5l0,-1" class="g1_231" />
<path d="M176.5,290.5l161,0" class="g1_231" />
<path d="M337.5,290.5l0,-1" class="g1_231" />
<path d="M338.5,290.5l89,0" class="g1_231" />
<path d="M427.5,290.5l0,-1" class="g1_231" />
<path d="M428.5,290.5l380,0" class="g1_231" />
<path d="M808.5,290.5l0,-1" class="g1_231" />
<path d="M809.5,290.5l79,0" class="g1_231" />
<path d="M888.5,290.5l0,-1" class="g1_231" />
<path d="M53.5,359.5l0,-69" class="g1_231" />
<path d="M94.5,359.5l0,-69" class="g1_231" />
<path d="M135.5,359.5l0,-69" class="g1_231" />
<path d="M175.5,359.5l0,-69" class="g1_231" />
<path d="M337.5,359.5l0,-69" class="g1_231" />
<path d="M427.5,359.5l0,-69" class="g1_231" />
<path d="M808.5,359.5l0,-69" class="g1_231" />
<path d="M888.5,359.5l0,-69" class="g1_231" />
<path d="M53.5,360.5l0,-1" class="g1_231" />
<path d="M94.5,360.5l0,-1" class="g1_231" />
<path d="M135.5,360.5l0,-1" class="g1_231" />
<path d="M175.5,360.5l0,-1" class="g1_231" />
<path d="M176.5,360.5l161,0" class="g1_231" />
<path d="M337.5,360.5l0,-1" class="g1_231" />
<path d="M338.5,360.5l89,0" class="g1_231" />
<path d="M427.5,360.5l0,-1" class="g1_231" />
<path d="M428.5,360.5l380,0" class="g1_231" />
<path d="M808.5,360.5l0,-1" class="g1_231" />
<path d="M809.5,360.5l79,0" class="g1_231" />
<path d="M888.5,360.5l0,-1" class="g1_231" />
<path d="M53.5,383.5l0,-23" class="g1_231" />
<path d="M94.5,383.5l0,-23" class="g1_231" />
<path d="M135.5,383.5l0,-23" class="g1_231" />
<path d="M175.5,383.5l0,-23" class="g1_231" />
<path d="M337.5,383.5l0,-23" class="g1_231" />
<path d="M427.5,383.5l0,-23" class="g1_231" />
<path d="M808.5,383.5l0,-23" class="g1_231" />
<path d="M888.5,383.5l0,-23" class="g1_231" />
<path d="M53.5,384.5l0,-1" class="g1_231" />
<path d="M94.5,384.5l0,-1" class="g1_231" />
<path d="M135.5,384.5l0,-1" class="g1_231" />
<path d="M175.5,384.5l0,-1" class="g1_231" />
<path d="M176.5,384.5l161,0" class="g1_231" />
<path d="M337.5,384.5l0,-1" class="g1_231" />
<path d="M338.5,384.5l89,0" class="g1_231" />
<path d="M427.5,384.5l0,-1" class="g1_231" />
<path d="M428.5,384.5l380,0" class="g1_231" />
<path d="M808.5,384.5l0,-1" class="g1_231" />
<path d="M809.5,384.5l79,0" class="g1_231" />
<path d="M888.5,384.5l0,-1" class="g1_231" />
<path d="M53.5,480.5l0,-96" class="g1_231" />
<path d="M54.5,480.5l40,0" class="g1_231" />
<path d="M94.5,480.5l0,-96" class="g1_231" />
<path d="M94.5,480.5l41,0" class="g1_231" />
<path d="M135.5,480.5l0,-96" class="g1_231" />
<path d="M135.5,480.5l40,0" class="g1_231" />
<path d="M175.5,480.5l0,-96" class="g1_231" />
<path d="M176.5,480.5l161,0" class="g1_231" />
<path d="M337.5,480.5l0,-96" class="g1_231" />
<path d="M338.5,480.5l89,0" class="g1_231" />
<path d="M427.5,480.5l0,-96" class="g1_231" />
<path d="M428.5,480.5l380,0" class="g1_231" />
<path d="M808.5,480.5l0,-96" class="g1_231" />
<path d="M809.5,480.5l79,0" class="g1_231" />
<path d="M888.5,480.5l0,-96" class="g1_231" />
<path fill-rule="evenodd" d="M47,601l840,0l0,-24L47,577l0,24Z" class="g2_231" />
<path fill-rule="evenodd" d="M55,601l825,0l0,-24L55,577l0,24Z" class="g2_231" />
<path d="M46.5,577.5l0,-1" class="g3_231" />
<path d="M46.5,577.5l0,-1" class="g3_231" />
<path d="M47.5,577.5l840,0" class="g3_231" />
<path d="M887.5,577.5l0,-1" class="g3_231" />
<path d="M887.5,577.5l0,-1" class="g3_231" />
<path d="M46.5,601.5l0,-24" class="g3_231" />
<path d="M46.5,603.5l0,-2" class="g3_231" />
<path d="M46.5,603.5l0,-2" class="g3_231" />
<path d="M47.5,603.5l840,0" class="g3_231" />
<path d="M887.5,601.5l0,-24" class="g3_231" />
<path d="M887.5,603.5l0,-2" class="g3_231" />
<path d="M887.5,603.5l0,-2" class="g3_231" />
<path fill-rule="evenodd" d="M47,1081l840,0l0,-453L47,628l0,453Z" class="g2_231" />
<path fill-rule="evenodd" d="M55,652l825,0l0,-24L55,628l0,24Z" class="g2_231" />
<path fill-rule="evenodd" d="M55,676l825,0l0,-24L55,652l0,24Z" class="g2_231" />
<path fill-rule="evenodd" d="M55,700l825,0l0,-24L55,676l0,24Z" class="g2_231" />
<path fill-rule="evenodd" d="M55,723l825,0l0,-23L55,700l0,23Z" class="g2_231" />
<path fill-rule="evenodd" d="M55,747l825,0l0,-24L55,723l0,24Z" class="g2_231" />
<path fill-rule="evenodd" d="M55,771l825,0l0,-24L55,747l0,24Z" class="g2_231" />
<path fill-rule="evenodd" d="M55,795l825,0l0,-24L55,771l0,24Z" class="g2_231" />
<path fill-rule="evenodd" d="M55,819l825,0l0,-24L55,795l0,24Z" class="g2_231" />
<path fill-rule="evenodd" d="M55,843l825,0l0,-24L55,819l0,24Z" class="g2_231" />
<path fill-rule="evenodd" d="M55,866l825,0l0,-23L55,843l0,23Z" class="g2_231" />
<path fill-rule="evenodd" d="M55,890l825,0l0,-24L55,866l0,24Z" class="g2_231" />
<path fill-rule="evenodd" d="M55,914l825,0l0,-24L55,890l0,24Z" class="g2_231" />
<path fill-rule="evenodd" d="M55,938l825,0l0,-24L55,914l0,24Z" class="g2_231" />
<path fill-rule="evenodd" d="M55,962l825,0l0,-24L55,938l0,24Z" class="g2_231" />
<path fill-rule="evenodd" d="M55,986l825,0l0,-24L55,962l0,24Z" class="g2_231" />
<path fill-rule="evenodd" d="M55,1009l825,0l0,-23L55,986l0,23Z" class="g2_231" />
<path fill-rule="evenodd" d="M55,1033l825,0l0,-24l-825,0l0,24Z" class="g2_231" />
<path fill-rule="evenodd" d="M55,1057l825,0l0,-24l-825,0l0,24Z" class="g2_231" />
<g clip-path="url(#c0_231)">
<path fill-rule="evenodd" d="M55,1081l825,0l0,-24l-825,0l0,24Z" class="g2_231" />
</g>
<path d="M46.5,628.5l0,-2" class="g3_231" />
<path d="M46.5,628.5l0,-2" class="g3_231" />
<path d="M47.5,628.5l840,0" class="g3_231" />
<path d="M887.5,628.5l0,-2" class="g3_231" />
<path d="M887.5,628.5l0,-2" class="g3_231" />
<path d="M46.5,1081.5l0,-453" class="g3_231" />
<path d="M46.5,1082.5l0,-1" class="g3_231" />
<path d="M46.5,1082.5l0,-1" class="g3_231" />
<path d="M47.5,1082.5l840,0" class="g3_231" />
<path d="M887.5,1081.5l0,-453" class="g3_231" />
<path d="M887.5,1082.5l0,-1" class="g3_231" />
<path d="M887.5,1082.5l0,-1" class="g3_231" />
</svg>