<?xml version="1.0" encoding="UTF-8" standalone="no"?>
<!DOCTYPE svg PUBLIC "-//W3C//DTD SVG 1.1//EN"
"http://www.w3.org/Graphics/SVG/1.1/DTD/svg11.dtd">
<svg version="1.1" xmlns="http://www.w3.org/2000/svg" xmlns:xlink="http://www.w3.org/1999/xlink">
<defs>
<clipPath id="c0_153"><path d="M47.5,206.5l0,-95l840,0l0,95Z" /></clipPath>
<clipPath id="c1_153"><path d="M47.5,567.5l0,-286l840,0l0,286Z" /></clipPath>
<clipPath id="c2_153"><path d="M47.5,726.5l0,-23l102,0l0,23Z" /></clipPath>
<clipPath id="c3_153"><path d="M151.5,726.5l0,-23l736,0l0,23Z" /></clipPath>
<clipPath id="c4_153"><path d="M47.5,775.5l0,-47l102,0l0,47Z" /></clipPath>
<clipPath id="c5_153"><path d="M151.5,775.5l0,-47l736,0l0,47Z" /></clipPath>
<clipPath id="c6_153"><path d="M47.5,801.5l0,-24l102,0l0,24Z" /></clipPath>
<clipPath id="c7_153"><path d="M151.5,801.5l0,-24l736,0l0,24Z" /></clipPath>
<clipPath id="c8_153"><path d="M47.5,1057.5l0,-182l840,0l0,182Z" /></clipPath>
<style type="text/css"><![CDATA[
.g5_153{
fill: none;
stroke: #F0F0E0;
stroke-width: 1;
stroke-linecap: butt;
stroke-linejoin: miter;
}
.g2_153{
fill: none;
stroke: #7E7E7E;
stroke-width: 1;
stroke-linecap: butt;
stroke-linejoin: miter;
}
.g3_153{
fill: none;
stroke: #0000FF;
stroke-width: 1;
stroke-linecap: butt;
stroke-linejoin: miter;
}
.g4_153{
fill: #DBE5F1;
}
.g1_153{
fill: #F1F1F1;
}
]]></style>
</defs>
<path fill-rule="evenodd" d="M47,206l840,0l0,-95L47,111l0,95Z" class="g1_153" />
<g clip-path="url(#c0_153)">
<path fill-rule="evenodd" d="M55,135l825,0l0,-24L55,111l0,24Z" class="g1_153" />
</g>
<path fill-rule="evenodd" d="M55,159l825,0l0,-24L55,135l0,24Z" class="g1_153" />
<path fill-rule="evenodd" d="M55,182l825,0l0,-23L55,159l0,23Z" class="g1_153" />
<path fill-rule="evenodd" d="M55,206l825,0l0,-24L55,182l0,24Z" class="g1_153" />
<path d="M46.5,111.5l0,-1" class="g2_153" />
<path d="M46.5,111.5l0,-1" class="g2_153" />
<path d="M47.5,111.5l840,0" class="g2_153" />
<path d="M887.5,111.5l0,-1" class="g2_153" />
<path d="M887.5,111.5l0,-1" class="g2_153" />
<path d="M46.5,207.5l0,-96" class="g2_153" />
<path d="M46.5,208.5l0,-1" class="g2_153" />
<path d="M46.5,208.5l0,-1" class="g2_153" />
<path d="M47.5,208.5l840,0" class="g2_153" />
<path d="M887.5,207.5l0,-96" class="g2_153" />
<path d="M887.5,208.5l0,-1" class="g2_153" />
<path d="M887.5,208.5l0,-1" class="g2_153" />
<path fill-rule="evenodd" d="M47,567l840,0l0,-286L47,281l0,286Z" class="g1_153" />
<g clip-path="url(#c1_153)">
<path fill-rule="evenodd" d="M55,305l825,0l0,-24L55,281l0,24Z" class="g1_153" />
</g>
<path fill-rule="evenodd" d="M55,329l825,0l0,-24L55,305l0,24Z" class="g1_153" />
<path fill-rule="evenodd" d="M55,352l825,0l0,-23L55,329l0,23Z" class="g1_153" />
<path fill-rule="evenodd" d="M55,376l825,0l0,-24L55,352l0,24Z" class="g1_153" />
<path fill-rule="evenodd" d="M55,400l825,0l0,-24L55,376l0,24Z" class="g1_153" />
<path fill-rule="evenodd" d="M55,424l825,0l0,-24L55,400l0,24Z" class="g1_153" />
<path fill-rule="evenodd" d="M55,448l825,0l0,-24L55,424l0,24Z" class="g1_153" />
<path fill-rule="evenodd" d="M55,472l825,0l0,-24L55,448l0,24Z" class="g1_153" />
<path fill-rule="evenodd" d="M55,495l825,0l0,-23L55,472l0,23Z" class="g1_153" />
<path fill-rule="evenodd" d="M55,519l825,0l0,-24L55,495l0,24Z" class="g1_153" />
<path fill-rule="evenodd" d="M55,543l825,0l0,-24L55,519l0,24Z" class="g1_153" />
<path fill-rule="evenodd" d="M55,567l825,0l0,-24L55,543l0,24Z" class="g1_153" />
<path d="M46.5,281.5l0,-2" class="g2_153" />
<path d="M46.5,281.5l0,-2" class="g2_153" />
<path d="M47.5,281.5l840,0" class="g2_153" />
<path d="M887.5,281.5l0,-2" class="g2_153" />
<path d="M887.5,281.5l0,-2" class="g2_153" />
<path d="M46.5,567.5l0,-286" class="g2_153" />
<path d="M46.5,568.5l0,-1" class="g2_153" />
<path d="M46.5,568.5l0,-1" class="g2_153" />
<path d="M47.5,568.5l840,0" class="g2_153" />
<path d="M887.5,567.5l0,-286" class="g2_153" />
<path d="M887.5,568.5l0,-1" class="g2_153" />
<path d="M887.5,568.5l0,-1" class="g2_153" />
<path d="M371.5,672.5l163,0" class="g3_153" />
<path fill-rule="evenodd" d="M47,726l102,0l0,-23L47,703l0,23Z" class="g4_153" />
<g clip-path="url(#c2_153)">
<path fill-rule="evenodd" d="M55,726l87,0l0,-23l-87,0l0,23Z" class="g4_153" />
</g>
<path fill-rule="evenodd" d="M151,726l736,0l0,-23l-736,0l0,23Z" class="g4_153" />
<g clip-path="url(#c3_153)">
<path fill-rule="evenodd" d="M158,726l722,0l0,-23l-722,0l0,23Z" class="g4_153" />
</g>
<path d="M46.5,703.5l0,-2" class="g2_153" />
<path d="M46.5,703.5l0,-2" class="g2_153" />
<path d="M47.5,703.5l102,0" class="g2_153" />
<path d="M149.5,703.5l0,-2" class="g2_153" />
<path d="M151.5,703.5l736,0" class="g2_153" />
<path d="M887.5,703.5l0,-2" class="g2_153" />
<path d="M887.5,703.5l0,-2" class="g2_153" />
<path d="M46.5,726.5l0,-23" class="g2_153" />
<path d="M149.5,726.5l0,-23" class="g2_153" />
<path d="M887.5,726.5l0,-23" class="g2_153" />
<path fill-rule="evenodd" d="M47,775l102,0l0,-47L47,728l0,47Z" class="g1_153" />
<g clip-path="url(#c4_153)">
<path fill-rule="evenodd" d="M55,752l87,0l0,-24l-87,0l0,24Z" class="g1_153" />
</g>
<path fill-rule="evenodd" d="M151,775l736,0l0,-47l-736,0l0,47Z" class="g1_153" />
<g clip-path="url(#c5_153)">
<path fill-rule="evenodd" d="M158,752l722,0l0,-24l-722,0l0,24Z" class="g1_153" />
</g>
<path fill-rule="evenodd" d="M158,775l722,0l0,-23l-722,0l0,23Z" class="g1_153" />
<path d="M46.5,728.5l0,-2" class="g2_153" />
<path d="M47.5,728.5l102,0" class="g2_153" />
<path d="M149.5,728.5l0,-2" class="g2_153" />
<path d="M151.5,728.5l736,0" class="g2_153" />
<path d="M887.5,728.5l0,-2" class="g2_153" />
<path d="M46.5,775.5l0,-47" class="g2_153" />
<path d="M149.5,775.5l0,-47" class="g2_153" />
<path d="M887.5,775.5l0,-47" class="g2_153" />
<path fill-rule="evenodd" d="M47,801l102,0l0,-24L47,777l0,24Z" class="g1_153" />
<g clip-path="url(#c6_153)">
<path fill-rule="evenodd" d="M55,801l87,0l0,-24l-87,0l0,24Z" class="g1_153" />
</g>
<path fill-rule="evenodd" d="M151,801l736,0l0,-24l-736,0l0,24Z" class="g1_153" />
<g clip-path="url(#c7_153)">
<path fill-rule="evenodd" d="M158,801l722,0l0,-24l-722,0l0,24Z" class="g1_153" />
</g>
<path d="M46.5,777.5l0,-2" class="g2_153" />
<path d="M47.5,777.5l102,0" class="g2_153" />
<path d="M149.5,777.5l0,-2" class="g2_153" />
<path d="M151.5,777.5l736,0" class="g2_153" />
<path d="M887.5,777.5l0,-2" class="g2_153" />
<path d="M46.5,801.5l0,-24" class="g2_153" />
<path d="M46.5,802.5l0,-1" class="g2_153" />
<path d="M46.5,802.5l0,-1" class="g2_153" />
<path d="M47.5,802.5l102,0" class="g2_153" />
<path d="M149.5,801.5l0,-24" class="g2_153" />
<path d="M149.5,802.5l0,-1" class="g2_153" />
<path d="M151.5,802.5l736,0" class="g2_153" />
<path d="M887.5,801.5l0,-24" class="g2_153" />
<path d="M887.5,802.5l0,-1" class="g2_153" />
<path d="M887.5,802.5l0,-1" class="g2_153" />
<path fill-rule="evenodd" d="M47,1057l840,0l0,-182L47,875l0,182Z" class="g1_153" />
<g clip-path="url(#c8_153)">
<path fill-rule="evenodd" d="M55,907l825,0l0,-32L55,875l0,32Z" class="g1_153" />
<path d="M45.5,876.5l0,-1" class="g5_153" />
<path d="M45.5,876.5l0,-1" class="g5_153" />
<path d="M46.5,876.5l842,0" class="g5_153" />
<path d="M888.5,876.5l0,-1" class="g5_153" />
<path d="M888.5,876.5l0,-1" class="g5_153" />
<path d="M45.5,907.5l0,-31" class="g5_153" />
<path d="M888.5,907.5l0,-31" class="g5_153" />
</g>
<path fill-rule="evenodd" d="M55,930l825,0l0,-23L55,907l0,23Z" class="g1_153" />
<g clip-path="url(#c8_153)">
<path d="M45.5,930.5l0,-23" class="g5_153" />
<path d="M888.5,930.5l0,-23" class="g5_153" />
</g>
<path fill-rule="evenodd" d="M55,954l825,0l0,-24L55,930l0,24Z" class="g1_153" />
<g clip-path="url(#c8_153)">
<path d="M45.5,954.5l0,-24" class="g5_153" />
<path d="M888.5,954.5l0,-24" class="g5_153" />
</g>
<path fill-rule="evenodd" d="M55,978l825,0l0,-24L55,954l0,24Z" class="g1_153" />
<g clip-path="url(#c8_153)">
<path d="M45.5,978.5l0,-24" class="g5_153" />
<path d="M888.5,978.5l0,-24" class="g5_153" />
</g>
<path fill-rule="evenodd" d="M55,1002l825,0l0,-24L55,978l0,24Z" class="g1_153" />
<g clip-path="url(#c8_153)">
<path d="M45.5,1002.5l0,-24" class="g5_153" />
<path d="M888.5,1002.5l0,-24" class="g5_153" />
</g>
<path fill-rule="evenodd" d="M55,1026l825,0l0,-24l-825,0l0,24Z" class="g1_153" />
<g clip-path="url(#c8_153)">
<path d="M45.5,1026.5l0,-24" class="g5_153" />
<path d="M888.5,1026.5l0,-24" class="g5_153" />
<path fill-rule="evenodd" d="M55,1057l825,0l0,-31l-825,0l0,31Z" class="g1_153" />
<path d="M45.5,1057.5l0,-1" class="g5_153" />
<path d="M45.5,1057.5l0,-1" class="g5_153" />
<path d="M46.5,1057.5l842,0" class="g5_153" />
<path d="M888.5,1057.5l0,-1" class="g5_153" />
<path d="M888.5,1057.5l0,-1" class="g5_153" />
<path d="M45.5,1056.5l0,-30" class="g5_153" />
<path d="M888.5,1056.5l0,-30" class="g5_153" />
</g>
<path d="M46.5,875.5l0,-1" class="g2_153" />
<path d="M46.5,875.5l0,-1" class="g2_153" />
<path d="M47.5,875.5l840,0" class="g2_153" />
<path d="M887.5,875.5l0,-1" class="g2_153" />
<path d="M887.5,875.5l0,-1" class="g2_153" />
<path d="M46.5,1057.5l0,-182" class="g2_153" />
<path d="M46.5,1058.5l0,-1" class="g2_153" />
<path d="M46.5,1058.5l0,-1" class="g2_153" />
<path d="M47.5,1058.5l840,0" class="g2_153" />
<path d="M887.5,1057.5l0,-182" class="g2_153" />
<path d="M887.5,1058.5l0,-1" class="g2_153" />
<path d="M887.5,1058.5l0,-1" class="g2_153" />
</svg>