<?xml version="1.0" encoding="UTF-8" standalone="no"?>
<!DOCTYPE svg PUBLIC "-//W3C//DTD SVG 1.1//EN"
"http://www.w3.org/Graphics/SVG/1.1/DTD/svg11.dtd">
<svg version="1.1" xmlns="http://www.w3.org/2000/svg" xmlns:xlink="http://www.w3.org/1999/xlink">
<defs>
<clipPath id="c0_308"><path d="M47.5,159.5l0,-48l840,0l0,48Z" /></clipPath>
<clipPath id="c1_308"><path d="M47.5,829.5l0,-596l840,0l0,596Z" /></clipPath>
<clipPath id="c2_308"><path d="M47.5,1089.5l0,-126l39,0l0,126Z" /></clipPath>
<clipPath id="c3_308"><path d="M88.5,1089.5l0,-73l39,0l0,73Z" /></clipPath>
<clipPath id="c4_308"><path d="M129.5,1089.5l0,-73l39,0l0,73Z" /></clipPath>
<clipPath id="c5_308"><path d="M169.5,1040.5l0,-24l159,0l0,24Z" /></clipPath>
<clipPath id="c6_308"><path d="M330.5,1040.5l0,-24l84,0l0,24Z" /></clipPath>
<clipPath id="c7_308"><path d="M416.5,1040.5l0,-24l60,0l0,24Z" /></clipPath>
<clipPath id="c8_308"><path d="M477.5,1040.5l0,-24l410,0l0,24Z" /></clipPath>
<clipPath id="c9_308"><path d="M477.5,1089.5l0,-48l410,0l0,48Z" /></clipPath>
<style type="text/css"><![CDATA[
.g2_308{
fill: none;
stroke: #7E7E7E;
stroke-width: 1;
stroke-linecap: butt;
stroke-linejoin: miter;
}
.g3_308{
fill: #DBE5F1;
}
.g1_308{
fill: #F1F1F1;
}
]]></style>
</defs>
<path fill-rule="evenodd" d="M47,159l840,0l0,-48L47,111l0,48Z" class="g1_308" />
<g clip-path="url(#c0_308)">
<path fill-rule="evenodd" d="M55,135l825,0l0,-24L55,111l0,24Z" class="g1_308" />
</g>
<path fill-rule="evenodd" d="M55,159l825,0l0,-24L55,135l0,24Z" class="g1_308" />
<path d="M46.5,111.5l0,-1" class="g2_308" />
<path d="M46.5,111.5l0,-1" class="g2_308" />
<path d="M47.5,111.5l840,0" class="g2_308" />
<path d="M887.5,111.5l0,-1" class="g2_308" />
<path d="M887.5,111.5l0,-1" class="g2_308" />
<path d="M46.5,159.5l0,-48" class="g2_308" />
<path d="M46.5,160.5l0,-1" class="g2_308" />
<path d="M46.5,160.5l0,-1" class="g2_308" />
<path d="M47.5,160.5l840,0" class="g2_308" />
<path d="M887.5,159.5l0,-48" class="g2_308" />
<path d="M887.5,160.5l0,-1" class="g2_308" />
<path d="M887.5,160.5l0,-1" class="g2_308" />
<path fill-rule="evenodd" d="M47,829l840,0l0,-596L47,233l0,596Z" class="g1_308" />
<g clip-path="url(#c1_308)">
<path fill-rule="evenodd" d="M55,257l825,0l0,-24L55,233l0,24Z" class="g1_308" />
</g>
<path fill-rule="evenodd" d="M55,281l825,0l0,-24L55,257l0,24Z" class="g1_308" />
<path fill-rule="evenodd" d="M55,305l825,0l0,-24L55,281l0,24Z" class="g1_308" />
<path fill-rule="evenodd" d="M55,329l825,0l0,-24L55,305l0,24Z" class="g1_308" />
<path fill-rule="evenodd" d="M55,352l825,0l0,-23L55,329l0,23Z" class="g1_308" />
<path fill-rule="evenodd" d="M55,376l825,0l0,-24L55,352l0,24Z" class="g1_308" />
<path fill-rule="evenodd" d="M55,400l825,0l0,-24L55,376l0,24Z" class="g1_308" />
<path fill-rule="evenodd" d="M55,424l825,0l0,-24L55,400l0,24Z" class="g1_308" />
<path fill-rule="evenodd" d="M55,448l825,0l0,-24L55,424l0,24Z" class="g1_308" />
<path fill-rule="evenodd" d="M55,472l825,0l0,-24L55,448l0,24Z" class="g1_308" />
<path fill-rule="evenodd" d="M55,495l825,0l0,-23L55,472l0,23Z" class="g1_308" />
<path fill-rule="evenodd" d="M55,519l825,0l0,-24L55,495l0,24Z" class="g1_308" />
<path fill-rule="evenodd" d="M55,543l825,0l0,-24L55,519l0,24Z" class="g1_308" />
<path fill-rule="evenodd" d="M55,567l825,0l0,-24L55,543l0,24Z" class="g1_308" />
<path fill-rule="evenodd" d="M55,591l825,0l0,-24L55,567l0,24Z" class="g1_308" />
<path fill-rule="evenodd" d="M55,615l825,0l0,-24L55,591l0,24Z" class="g1_308" />
<path fill-rule="evenodd" d="M55,638l825,0l0,-23L55,615l0,23Z" class="g1_308" />
<path fill-rule="evenodd" d="M55,662l825,0l0,-24L55,638l0,24Z" class="g1_308" />
<path fill-rule="evenodd" d="M55,686l825,0l0,-24L55,662l0,24Z" class="g1_308" />
<path fill-rule="evenodd" d="M55,710l825,0l0,-24L55,686l0,24Z" class="g1_308" />
<path fill-rule="evenodd" d="M55,734l825,0l0,-24L55,710l0,24Z" class="g1_308" />
<path fill-rule="evenodd" d="M55,758l825,0l0,-24L55,734l0,24Z" class="g1_308" />
<path fill-rule="evenodd" d="M55,782l825,0l0,-24L55,758l0,24Z" class="g1_308" />
<path fill-rule="evenodd" d="M55,805l825,0l0,-23L55,782l0,23Z" class="g1_308" />
<path fill-rule="evenodd" d="M55,829l825,0l0,-24L55,805l0,24Z" class="g1_308" />
<path d="M46.5,233.5l0,-1" class="g2_308" />
<path d="M46.5,233.5l0,-1" class="g2_308" />
<path d="M47.5,233.5l840,0" class="g2_308" />
<path d="M887.5,233.5l0,-1" class="g2_308" />
<path d="M887.5,233.5l0,-1" class="g2_308" />
<path d="M46.5,829.5l0,-596" class="g2_308" />
<path d="M46.5,831.5l0,-2" class="g2_308" />
<path d="M46.5,831.5l0,-2" class="g2_308" />
<path d="M47.5,831.5l840,0" class="g2_308" />
<path d="M887.5,829.5l0,-596" class="g2_308" />
<path d="M887.5,831.5l0,-2" class="g2_308" />
<path d="M887.5,831.5l0,-2" class="g2_308" />
<path fill-rule="evenodd" d="M47,961l281,0l0,-24L47,937l0,24Z" class="g3_308" />
<path fill-rule="evenodd" d="M55,961l266,0l0,-24L55,937l0,24Z" class="g3_308" />
<path fill-rule="evenodd" d="M330,961l84,0l0,-24l-84,0l0,24Z" class="g3_308" />
<path fill-rule="evenodd" d="M337,961l70,0l0,-24l-70,0l0,24Z" class="g3_308" />
<path fill-rule="evenodd" d="M416,961l60,0l0,-24l-60,0l0,24Z" class="g3_308" />
<path fill-rule="evenodd" d="M423,961l45,0l0,-24l-45,0l0,24Z" class="g3_308" />
<path fill-rule="evenodd" d="M477,961l410,0l0,-24l-410,0l0,24Z" class="g3_308" />
<path fill-rule="evenodd" d="M485,961l395,0l0,-24l-395,0l0,24Z" class="g3_308" />
<path d="M46.5,937.5l0,-1" class="g2_308" />
<path d="M46.5,937.5l0,-1" class="g2_308" />
<path d="M47.5,937.5l281,0" class="g2_308" />
<path d="M328.5,937.5l0,-1" class="g2_308" />
<path d="M330.5,937.5l84,0" class="g2_308" />
<path d="M414.5,937.5l0,-1" class="g2_308" />
<path d="M416.5,937.5l60,0" class="g2_308" />
<path d="M476.5,937.5l0,-1" class="g2_308" />
<path d="M477.5,937.5l410,0" class="g2_308" />
<path d="M887.5,937.5l0,-1" class="g2_308" />
<path d="M887.5,937.5l0,-1" class="g2_308" />
<path d="M46.5,961.5l0,-24" class="g2_308" />
<path d="M328.5,961.5l0,-24" class="g2_308" />
<path d="M414.5,961.5l0,-24" class="g2_308" />
<path d="M476.5,961.5l0,-24" class="g2_308" />
<path d="M887.5,961.5l0,-24" class="g2_308" />
<path fill-rule="evenodd" d="M47,1089l39,0L86,963l-39,0l0,126Z" class="g1_308" />
<g clip-path="url(#c2_308)">
<path fill-rule="evenodd" d="M55,1089l23,0L78,963l-23,0l0,126Z" class="g1_308" />
<path fill-rule="evenodd" d="M78,1089l8,0L86,963l-8,0l0,126Z" class="g1_308" />
</g>
<path fill-rule="evenodd" d="M88,989l240,0l0,-26L88,963l0,26Z" class="g1_308" />
<path fill-rule="evenodd" d="M95,987l226,0l0,-24L95,963l0,24Z" class="g1_308" />
<path fill-rule="evenodd" d="M330,989l84,0l0,-26l-84,0l0,26Z" class="g1_308" />
<path fill-rule="evenodd" d="M337,987l70,0l0,-24l-70,0l0,24Z" class="g1_308" />
<path fill-rule="evenodd" d="M416,989l60,0l0,-26l-60,0l0,26Z" class="g1_308" />
<path fill-rule="evenodd" d="M423,987l45,0l0,-24l-45,0l0,24Z" class="g1_308" />
<path fill-rule="evenodd" d="M477,989l410,0l0,-26l-410,0l0,26Z" class="g1_308" />
<path fill-rule="evenodd" d="M485,987l395,0l0,-24l-395,0l0,24Z" class="g1_308" />
<path d="M46.5,963.5l0,-2" class="g2_308" />
<path d="M47.5,963.5l39,0" class="g2_308" />
<path d="M86.5,963.5l0,-2" class="g2_308" />
<path d="M88.5,963.5l240,0" class="g2_308" />
<path d="M328.5,963.5l0,-2" class="g2_308" />
<path d="M330.5,963.5l84,0" class="g2_308" />
<path d="M414.5,963.5l0,-2" class="g2_308" />
<path d="M416.5,963.5l60,0" class="g2_308" />
<path d="M476.5,963.5l0,-2" class="g2_308" />
<path d="M477.5,963.5l410,0" class="g2_308" />
<path d="M887.5,963.5l0,-2" class="g2_308" />
<path d="M46.5,989.5l0,-26" class="g2_308" />
<path d="M86.5,989.5l0,-26" class="g2_308" />
<path d="M328.5,989.5l0,-26" class="g2_308" />
<path d="M414.5,989.5l0,-26" class="g2_308" />
<path d="M476.5,989.5l0,-26" class="g2_308" />
<path d="M887.5,989.5l0,-26" class="g2_308" />
<path fill-rule="evenodd" d="M88,1014l240,0l0,-24L88,990l0,24Z" class="g1_308" />
<path fill-rule="evenodd" d="M95,1014l226,0l0,-24L95,990l0,24Z" class="g1_308" />
<path fill-rule="evenodd" d="M330,1014l84,0l0,-24l-84,0l0,24Z" class="g1_308" />
<path fill-rule="evenodd" d="M337,1014l70,0l0,-24l-70,0l0,24Z" class="g1_308" />
<path fill-rule="evenodd" d="M416,1014l60,0l0,-24l-60,0l0,24Z" class="g1_308" />
<path fill-rule="evenodd" d="M423,1014l45,0l0,-24l-45,0l0,24Z" class="g1_308" />
<path fill-rule="evenodd" d="M477,1014l410,0l0,-24l-410,0l0,24Z" class="g1_308" />
<path fill-rule="evenodd" d="M485,1014l395,0l0,-24l-395,0l0,24Z" class="g1_308" />
<path d="M46.5,990.5l0,-1" class="g2_308" />
<path d="M86.5,990.5l0,-1" class="g2_308" />
<path d="M88.5,990.5l240,0" class="g2_308" />
<path d="M328.5,990.5l0,-1" class="g2_308" />
<path d="M330.5,990.5l84,0" class="g2_308" />
<path d="M414.5,990.5l0,-1" class="g2_308" />
<path d="M416.5,990.5l60,0" class="g2_308" />
<path d="M476.5,990.5l0,-1" class="g2_308" />
<path d="M477.5,990.5l410,0" class="g2_308" />
<path d="M887.5,990.5l0,-1" class="g2_308" />
<path d="M46.5,1014.5l0,-24" class="g2_308" />
<path d="M86.5,1014.5l0,-24" class="g2_308" />
<path d="M328.5,1014.5l0,-24" class="g2_308" />
<path d="M414.5,1014.5l0,-24" class="g2_308" />
<path d="M476.5,1014.5l0,-24" class="g2_308" />
<path d="M887.5,1014.5l0,-24" class="g2_308" />
<path fill-rule="evenodd" d="M88,1089l39,0l0,-73l-39,0l0,73Z" class="g1_308" />
<g clip-path="url(#c3_308)">
<path fill-rule="evenodd" d="M95,1089l24,0l0,-73l-24,0l0,73Z" class="g1_308" />
<path fill-rule="evenodd" d="M119,1089l8,0l0,-73l-8,0l0,73Z" class="g1_308" />
</g>
<path fill-rule="evenodd" d="M129,1089l39,0l0,-73l-39,0l0,73Z" class="g1_308" />
<g clip-path="url(#c4_308)">
<path fill-rule="evenodd" d="M136,1089l24,0l0,-73l-24,0l0,73Z" class="g1_308" />
<path fill-rule="evenodd" d="M160,1089l8,0l0,-73l-8,0l0,73Z" class="g1_308" />
</g>
<path fill-rule="evenodd" d="M169,1040l159,0l0,-24l-159,0l0,24Z" class="g1_308" />
<g clip-path="url(#c5_308)">
<path fill-rule="evenodd" d="M177,1040l144,0l0,-24l-144,0l0,24Z" class="g1_308" />
</g>
<path fill-rule="evenodd" d="M330,1040l84,0l0,-24l-84,0l0,24Z" class="g1_308" />
<g clip-path="url(#c6_308)">
<path fill-rule="evenodd" d="M337,1040l70,0l0,-24l-70,0l0,24Z" class="g1_308" />
</g>
<path fill-rule="evenodd" d="M416,1040l60,0l0,-24l-60,0l0,24Z" class="g1_308" />
<g clip-path="url(#c7_308)">
<path fill-rule="evenodd" d="M423,1040l45,0l0,-24l-45,0l0,24Z" class="g1_308" />
</g>
<path fill-rule="evenodd" d="M477,1040l410,0l0,-24l-410,0l0,24Z" class="g1_308" />
<g clip-path="url(#c8_308)">
<path fill-rule="evenodd" d="M485,1040l395,0l0,-24l-395,0l0,24Z" class="g1_308" />
</g>
<path d="M46.5,1016.5l0,-2" class="g2_308" />
<path d="M86.5,1016.5l0,-2" class="g2_308" />
<path d="M88.5,1016.5l39,0" class="g2_308" />
<path d="M127.5,1016.5l0,-2" class="g2_308" />
<path d="M129.5,1016.5l39,0" class="g2_308" />
<path d="M168.5,1016.5l0,-2" class="g2_308" />
<path d="M169.5,1016.5l159,0" class="g2_308" />
<path d="M328.5,1016.5l0,-2" class="g2_308" />
<path d="M330.5,1016.5l84,0" class="g2_308" />
<path d="M414.5,1016.5l0,-2" class="g2_308" />
<path d="M416.5,1016.5l60,0" class="g2_308" />
<path d="M476.5,1016.5l0,-2" class="g2_308" />
<path d="M477.5,1016.5l410,0" class="g2_308" />
<path d="M887.5,1016.5l0,-2" class="g2_308" />
<path d="M46.5,1040.5l0,-24" class="g2_308" />
<path d="M86.5,1040.5l0,-24" class="g2_308" />
<path d="M127.5,1040.5l0,-24" class="g2_308" />
<path d="M168.5,1040.5l0,-24" class="g2_308" />
<path d="M328.5,1040.5l0,-24" class="g2_308" />
<path d="M414.5,1040.5l0,-24" class="g2_308" />
<path d="M476.5,1040.5l0,-24" class="g2_308" />
<path d="M887.5,1040.5l0,-24" class="g2_308" />
<path fill-rule="evenodd" d="M169,1089l159,0l0,-48l-159,0l0,48Z" class="g1_308" />
<path fill-rule="evenodd" d="M177,1065l144,0l0,-24l-144,0l0,24Z" class="g1_308" />
<path fill-rule="evenodd" d="M330,1089l84,0l0,-48l-84,0l0,48Z" class="g1_308" />
<path fill-rule="evenodd" d="M337,1065l70,0l0,-24l-70,0l0,24Z" class="g1_308" />
<path fill-rule="evenodd" d="M416,1089l60,0l0,-48l-60,0l0,48Z" class="g1_308" />
<path fill-rule="evenodd" d="M423,1065l45,0l0,-24l-45,0l0,24Z" class="g1_308" />
<path fill-rule="evenodd" d="M477,1089l410,0l0,-48l-410,0l0,48Z" class="g1_308" />
<path fill-rule="evenodd" d="M485,1065l395,0l0,-24l-395,0l0,24Z" class="g1_308" />
<g clip-path="url(#c9_308)">
<path fill-rule="evenodd" d="M485,1089l395,0l0,-24l-395,0l0,24Z" class="g1_308" />
</g>
<path d="M46.5,1041.5l0,-1" class="g2_308" />
<path d="M86.5,1041.5l0,-1" class="g2_308" />
<path d="M127.5,1041.5l0,-1" class="g2_308" />
<path d="M168.5,1041.5l0,-1" class="g2_308" />
<path d="M169.5,1041.5l159,0" class="g2_308" />
<path d="M328.5,1041.5l0,-1" class="g2_308" />
<path d="M330.5,1041.5l84,0" class="g2_308" />
<path d="M414.5,1041.5l0,-1" class="g2_308" />
<path d="M416.5,1041.5l60,0" class="g2_308" />
<path d="M476.5,1041.5l0,-1" class="g2_308" />
<path d="M477.5,1041.5l410,0" class="g2_308" />
<path d="M887.5,1041.5l0,-1" class="g2_308" />
<path d="M46.5,1089.5l0,-48" class="g2_308" />
<path d="M46.5,1090.5l0,-1" class="g2_308" />
<path d="M46.5,1090.5l0,-1" class="g2_308" />
<path d="M47.5,1090.5l39,0" class="g2_308" />
<path d="M86.5,1089.5l0,-48" class="g2_308" />
<path d="M86.5,1090.5l0,-1" class="g2_308" />
<path d="M88.5,1090.5l39,0" class="g2_308" />
<path d="M127.5,1089.5l0,-48" class="g2_308" />
<path d="M127.5,1090.5l0,-1" class="g2_308" />
<path d="M129.5,1090.5l39,0" class="g2_308" />
<path d="M168.5,1089.5l0,-48" class="g2_308" />
<path d="M168.5,1090.5l0,-1" class="g2_308" />
<path d="M169.5,1090.5l159,0" class="g2_308" />
<path d="M328.5,1089.5l0,-48" class="g2_308" />
<path d="M328.5,1090.5l0,-1" class="g2_308" />
<path d="M330.5,1090.5l84,0" class="g2_308" />
<path d="M414.5,1089.5l0,-48" class="g2_308" />
<path d="M414.5,1090.5l0,-1" class="g2_308" />
<path d="M416.5,1090.5l60,0" class="g2_308" />
<path d="M476.5,1089.5l0,-48" class="g2_308" />
<path d="M476.5,1090.5l0,-1" class="g2_308" />
<path d="M477.5,1090.5l410,0" class="g2_308" />
<path d="M887.5,1089.5l0,-48" class="g2_308" />
<path d="M887.5,1090.5l0,-1" class="g2_308" />
<path d="M887.5,1090.5l0,-1" class="g2_308" />
</svg>