<?xml version="1.0" encoding="UTF-8" standalone="no"?>
<!DOCTYPE svg PUBLIC "-//W3C//DTD SVG 1.1//EN"
"http://www.w3.org/Graphics/SVG/1.1/DTD/svg11.dtd">
<svg version="1.1" xmlns="http://www.w3.org/2000/svg" xmlns:xlink="http://www.w3.org/1999/xlink">
<defs>
<clipPath id="c0_4"><path d="M47.5,183.5l0,-24l74,0l0,24Z" /></clipPath>
<clipPath id="c1_4"><path d="M122.5,183.5l0,-24l135,0l0,24Z" /></clipPath>
<clipPath id="c2_4"><path d="M259.5,183.5l0,-24l628,0l0,24Z" /></clipPath>
<clipPath id="c3_4"><path d="M47.5,923.5l0,-739l74,0l0,739Z" /></clipPath>
<clipPath id="c4_4"><path d="M122.5,923.5l0,-739l135,0l0,739Z" /></clipPath>
<clipPath id="c5_4"><path d="M259.5,923.5l0,-739l628,0l0,739Z" /></clipPath>
<clipPath id="c6_4"><path d="M47.5,948.5l0,-23l74,0l0,23Z" /></clipPath>
<clipPath id="c7_4"><path d="M122.5,948.5l0,-23l135,0l0,23Z" /></clipPath>
<clipPath id="c8_4"><path d="M259.5,948.5l0,-23l628,0l0,23Z" /></clipPath>
<clipPath id="c9_4"><path d="M259.5,1093.5l0,-143l628,0l0,143Z" /></clipPath>
<style type="text/css"><![CDATA[
.g2_4{
fill: none;
stroke: #7E7E7E;
stroke-width: 1;
stroke-linecap: butt;
stroke-linejoin: miter;
}
.g3_4{
fill: #F1F1F1;
}
.g1_4{
fill: #DBE5F1;
}
]]></style>
</defs>
<path fill-rule="evenodd" d="M47,182l74,0l0,-23l-74,0l0,23Z" class="g1_4" />
<g clip-path="url(#c0_4)">
<path fill-rule="evenodd" d="M55,182l58,0l0,-23l-58,0l0,23Z" class="g1_4" />
</g>
<path fill-rule="evenodd" d="M122,182l135,0l0,-23l-135,0l0,23Z" class="g1_4" />
<g clip-path="url(#c1_4)">
<path fill-rule="evenodd" d="M130,182l120,0l0,-23l-120,0l0,23Z" class="g1_4" />
</g>
<path fill-rule="evenodd" d="M259,182l628,0l0,-23l-628,0l0,23Z" class="g1_4" />
<g clip-path="url(#c2_4)">
<path fill-rule="evenodd" d="M266,182l614,0l0,-23l-614,0l0,23Z" class="g1_4" />
</g>
<path d="M46.5,159.5l0,-2" class="g2_4" />
<path d="M46.5,159.5l0,-2" class="g2_4" />
<path d="M47.5,159.5l74,0" class="g2_4" />
<path d="M121.5,159.5l0,-2" class="g2_4" />
<path d="M122.5,159.5l135,0" class="g2_4" />
<path d="M257.5,159.5l0,-2" class="g2_4" />
<path d="M259.5,159.5l628,0" class="g2_4" />
<path d="M887.5,159.5l0,-2" class="g2_4" />
<path d="M887.5,159.5l0,-2" class="g2_4" />
<path d="M46.5,182.5l0,-23" class="g2_4" />
<path d="M121.5,182.5l0,-23" class="g2_4" />
<path d="M257.5,182.5l0,-23" class="g2_4" />
<path d="M887.5,182.5l0,-23" class="g2_4" />
<path fill-rule="evenodd" d="M47,923l74,0l0,-739l-74,0l0,739Z" class="g3_4" />
<g clip-path="url(#c3_4)">
<path fill-rule="evenodd" d="M55,208l58,0l0,-24l-58,0l0,24Z" class="g3_4" />
</g>
<path fill-rule="evenodd" d="M122,923l135,0l0,-739l-135,0l0,739Z" class="g3_4" />
<g clip-path="url(#c4_4)">
<path fill-rule="evenodd" d="M130,208l120,0l0,-24l-120,0l0,24Z" class="g3_4" />
</g>
<path fill-rule="evenodd" d="M259,923l628,0l0,-739l-628,0l0,739Z" class="g3_4" />
<g clip-path="url(#c5_4)">
<path fill-rule="evenodd" d="M266,208l614,0l0,-24l-614,0l0,24Z" class="g3_4" />
</g>
<path fill-rule="evenodd" d="M266,232l614,0l0,-24l-614,0l0,24Z" class="g3_4" />
<path fill-rule="evenodd" d="M266,256l614,0l0,-24l-614,0l0,24Z" class="g3_4" />
<path fill-rule="evenodd" d="M266,279l614,0l0,-23l-614,0l0,23Z" class="g3_4" />
<path fill-rule="evenodd" d="M266,303l614,0l0,-24l-614,0l0,24Z" class="g3_4" />
<path fill-rule="evenodd" d="M266,327l614,0l0,-24l-614,0l0,24Z" class="g3_4" />
<path fill-rule="evenodd" d="M266,351l614,0l0,-24l-614,0l0,24Z" class="g3_4" />
<path fill-rule="evenodd" d="M266,375l614,0l0,-24l-614,0l0,24Z" class="g3_4" />
<path fill-rule="evenodd" d="M266,399l614,0l0,-24l-614,0l0,24Z" class="g3_4" />
<path fill-rule="evenodd" d="M266,423l614,0l0,-24l-614,0l0,24Z" class="g3_4" />
<path fill-rule="evenodd" d="M266,446l614,0l0,-23l-614,0l0,23Z" class="g3_4" />
<path fill-rule="evenodd" d="M266,470l614,0l0,-24l-614,0l0,24Z" class="g3_4" />
<path fill-rule="evenodd" d="M266,494l614,0l0,-24l-614,0l0,24Z" class="g3_4" />
<path fill-rule="evenodd" d="M266,518l614,0l0,-24l-614,0l0,24Z" class="g3_4" />
<path fill-rule="evenodd" d="M266,542l614,0l0,-24l-614,0l0,24Z" class="g3_4" />
<path fill-rule="evenodd" d="M266,566l614,0l0,-24l-614,0l0,24Z" class="g3_4" />
<path fill-rule="evenodd" d="M266,589l614,0l0,-23l-614,0l0,23Z" class="g3_4" />
<path fill-rule="evenodd" d="M266,613l614,0l0,-24l-614,0l0,24Z" class="g3_4" />
<path fill-rule="evenodd" d="M266,637l614,0l0,-24l-614,0l0,24Z" class="g3_4" />
<path fill-rule="evenodd" d="M266,661l614,0l0,-24l-614,0l0,24Z" class="g3_4" />
<path fill-rule="evenodd" d="M266,685l614,0l0,-24l-614,0l0,24Z" class="g3_4" />
<path fill-rule="evenodd" d="M266,709l614,0l0,-24l-614,0l0,24Z" class="g3_4" />
<path fill-rule="evenodd" d="M266,732l614,0l0,-23l-614,0l0,23Z" class="g3_4" />
<path fill-rule="evenodd" d="M266,756l614,0l0,-24l-614,0l0,24Z" class="g3_4" />
<path fill-rule="evenodd" d="M266,780l614,0l0,-24l-614,0l0,24Z" class="g3_4" />
<path fill-rule="evenodd" d="M266,804l614,0l0,-24l-614,0l0,24Z" class="g3_4" />
<path fill-rule="evenodd" d="M266,828l614,0l0,-24l-614,0l0,24Z" class="g3_4" />
<path fill-rule="evenodd" d="M266,852l614,0l0,-24l-614,0l0,24Z" class="g3_4" />
<path fill-rule="evenodd" d="M266,875l614,0l0,-23l-614,0l0,23Z" class="g3_4" />
<path fill-rule="evenodd" d="M266,899l614,0l0,-24l-614,0l0,24Z" class="g3_4" />
<path fill-rule="evenodd" d="M266,923l614,0l0,-24l-614,0l0,24Z" class="g3_4" />
<path d="M46.5,184.5l0,-2" class="g2_4" />
<path d="M47.5,184.5l74,0" class="g2_4" />
<path d="M121.5,184.5l0,-2" class="g2_4" />
<path d="M122.5,184.5l135,0" class="g2_4" />
<path d="M257.5,184.5l0,-2" class="g2_4" />
<path d="M259.5,184.5l628,0" class="g2_4" />
<path d="M887.5,184.5l0,-2" class="g2_4" />
<path d="M46.5,923.5l0,-739" class="g2_4" />
<path d="M121.5,923.5l0,-739" class="g2_4" />
<path d="M257.5,923.5l0,-739" class="g2_4" />
<path d="M887.5,923.5l0,-739" class="g2_4" />
<path fill-rule="evenodd" d="M47,948l74,0l0,-23l-74,0l0,23Z" class="g3_4" />
<g clip-path="url(#c6_4)">
<path fill-rule="evenodd" d="M55,948l58,0l0,-23l-58,0l0,23Z" class="g3_4" />
</g>
<path fill-rule="evenodd" d="M122,948l135,0l0,-23l-135,0l0,23Z" class="g3_4" />
<g clip-path="url(#c7_4)">
<path fill-rule="evenodd" d="M130,948l120,0l0,-23l-120,0l0,23Z" class="g3_4" />
</g>
<path fill-rule="evenodd" d="M259,948l628,0l0,-23l-628,0l0,23Z" class="g3_4" />
<g clip-path="url(#c8_4)">
<path fill-rule="evenodd" d="M266,948l614,0l0,-23l-614,0l0,23Z" class="g3_4" />
</g>
<path d="M46.5,925.5l0,-2" class="g2_4" />
<path d="M47.5,925.5l74,0" class="g2_4" />
<path d="M121.5,925.5l0,-2" class="g2_4" />
<path d="M122.5,925.5l135,0" class="g2_4" />
<path d="M257.5,925.5l0,-2" class="g2_4" />
<path d="M259.5,925.5l628,0" class="g2_4" />
<path d="M887.5,925.5l0,-2" class="g2_4" />
<path d="M46.5,948.5l0,-23" class="g2_4" />
<path d="M121.5,948.5l0,-23" class="g2_4" />
<path d="M257.5,948.5l0,-23" class="g2_4" />
<path d="M887.5,948.5l0,-23" class="g2_4" />
<path fill-rule="evenodd" d="M47,1093l74,0l0,-143l-74,0l0,143Z" class="g3_4" />
<path fill-rule="evenodd" d="M55,974l58,0l0,-24l-58,0l0,24Z" class="g3_4" />
<path fill-rule="evenodd" d="M122,1093l135,0l0,-143l-135,0l0,143Z" class="g3_4" />
<path fill-rule="evenodd" d="M130,974l120,0l0,-24l-120,0l0,24Z" class="g3_4" />
<path fill-rule="evenodd" d="M259,1093l628,0l0,-143l-628,0l0,143Z" class="g3_4" />
<path fill-rule="evenodd" d="M266,974l614,0l0,-24l-614,0l0,24Z" class="g3_4" />
<path fill-rule="evenodd" d="M266,998l614,0l0,-24l-614,0l0,24Z" class="g3_4" />
<path fill-rule="evenodd" d="M266,1021l614,0l0,-23l-614,0l0,23Z" class="g3_4" />
<path fill-rule="evenodd" d="M266,1045l614,0l0,-24l-614,0l0,24Z" class="g3_4" />
<path fill-rule="evenodd" d="M266,1069l614,0l0,-24l-614,0l0,24Z" class="g3_4" />
<g clip-path="url(#c9_4)">
<path fill-rule="evenodd" d="M266,1093l614,0l0,-24l-614,0l0,24Z" class="g3_4" />
</g>
<path d="M46.5,950.5l0,-2" class="g2_4" />
<path d="M47.5,950.5l74,0" class="g2_4" />
<path d="M121.5,950.5l0,-2" class="g2_4" />
<path d="M122.5,950.5l135,0" class="g2_4" />
<path d="M257.5,950.5l0,-2" class="g2_4" />
<path d="M259.5,950.5l628,0" class="g2_4" />
<path d="M887.5,950.5l0,-2" class="g2_4" />
<path d="M46.5,1093.5l0,-143" class="g2_4" />
<path d="M46.5,1095.5l0,-2" class="g2_4" />
<path d="M46.5,1095.5l0,-2" class="g2_4" />
<path d="M47.5,1095.5l74,0" class="g2_4" />
<path d="M121.5,1093.5l0,-143" class="g2_4" />
<path d="M121.5,1095.5l0,-2" class="g2_4" />
<path d="M122.5,1095.5l135,0" class="g2_4" />
<path d="M257.5,1093.5l0,-143" class="g2_4" />
<path d="M257.5,1095.5l0,-2" class="g2_4" />
<path d="M259.5,1095.5l628,0" class="g2_4" />
<path d="M887.5,1093.5l0,-143" class="g2_4" />
<path d="M887.5,1095.5l0,-2" class="g2_4" />
<path d="M887.5,1095.5l0,-2" class="g2_4" />
</svg>