<?xml version="1.0" encoding="UTF-8" standalone="no"?>
<!DOCTYPE svg PUBLIC "-//W3C//DTD SVG 1.1//EN"
"http://www.w3.org/Graphics/SVG/1.1/DTD/svg11.dtd">
<svg version="1.1" xmlns="http://www.w3.org/2000/svg" xmlns:xlink="http://www.w3.org/1999/xlink">
<defs>
<clipPath id="c0_311"><path d="M47.5,199.5l0,-28l219,0l0,28Z" /></clipPath>
<clipPath id="c1_311"><path d="M267.5,199.5l0,-28l79,0l0,28Z" /></clipPath>
<clipPath id="c2_311"><path d="M347.5,199.5l0,-28l60,0l0,28Z" /></clipPath>
<clipPath id="c3_311"><path d="M409.5,199.5l0,-28l478,0l0,28Z" /></clipPath>
<clipPath id="c4_311"><path d="M88.5,248.5l0,-48l178,0l0,48Z" /></clipPath>
<clipPath id="c5_311"><path d="M267.5,248.5l0,-48l79,0l0,48Z" /></clipPath>
<clipPath id="c6_311"><path d="M347.5,248.5l0,-48l60,0l0,48Z" /></clipPath>
<clipPath id="c7_311"><path d="M409.5,248.5l0,-48l478,0l0,48Z" /></clipPath>
<clipPath id="c8_311"><path d="M88.5,301.5l0,-52l178,0l0,52Z" /></clipPath>
<clipPath id="c9_311"><path d="M267.5,301.5l0,-52l79,0l0,52Z" /></clipPath>
<clipPath id="c10_311"><path d="M347.5,301.5l0,-52l60,0l0,52Z" /></clipPath>
<clipPath id="c11_311"><path d="M409.5,301.5l0,-52l478,0l0,52Z" /></clipPath>
<clipPath id="c12_311"><path d="M88.5,439.5l0,-136l39,0l0,136Z" /></clipPath>
<clipPath id="c13_311"><path d="M129.5,439.5l0,-136l39,0l0,136Z" /></clipPath>
<clipPath id="c14_311"><path d="M169.5,365.5l0,-62l97,0l0,62Z" /></clipPath>
<clipPath id="c15_311"><path d="M267.5,365.5l0,-62l79,0l0,62Z" /></clipPath>
<clipPath id="c16_311"><path d="M347.5,365.5l0,-62l60,0l0,62Z" /></clipPath>
<clipPath id="c17_311"><path d="M409.5,365.5l0,-62l478,0l0,62Z" /></clipPath>
<clipPath id="c18_311"><path d="M169.5,439.5l0,-73l97,0l0,73Z" /></clipPath>
<clipPath id="c19_311"><path d="M267.5,439.5l0,-73l79,0l0,73Z" /></clipPath>
<clipPath id="c20_311"><path d="M347.5,439.5l0,-73l60,0l0,73Z" /></clipPath>
<clipPath id="c21_311"><path d="M409.5,439.5l0,-73l478,0l0,73Z" /></clipPath>
<clipPath id="c22_311"><path d="M47.5,969.5l0,-357l840,0l0,357Z" /></clipPath>
<clipPath id="c23_311"><path d="M47.5,1092.5l0,-48l840,0l0,48Z" /></clipPath>
<style type="text/css"><![CDATA[
.g2_311{
fill: none;
stroke: #7E7E7E;
stroke-width: 1;
stroke-linecap: butt;
stroke-linejoin: miter;
}
.g3_311{
fill: #F1F1F1;
}
.g1_311{
fill: #DBE5F1;
}
]]></style>
</defs>
<path fill-rule="evenodd" d="M47,199l219,0l0,-28L47,171l0,28Z" class="g1_311" />
<g clip-path="url(#c0_311)">
<path fill-rule="evenodd" d="M55,194l203,0l0,-23L55,171l0,23Z" class="g1_311" />
</g>
<path fill-rule="evenodd" d="M267,199l79,0l0,-28l-79,0l0,28Z" class="g1_311" />
<g clip-path="url(#c1_311)">
<path fill-rule="evenodd" d="M275,194l63,0l0,-23l-63,0l0,23Z" class="g1_311" />
</g>
<path fill-rule="evenodd" d="M347,199l60,0l0,-28l-60,0l0,28Z" class="g1_311" />
<g clip-path="url(#c2_311)">
<path fill-rule="evenodd" d="M355,194l45,0l0,-23l-45,0l0,23Z" class="g1_311" />
</g>
<path fill-rule="evenodd" d="M409,199l478,0l0,-28l-478,0l0,28Z" class="g1_311" />
<g clip-path="url(#c3_311)">
<path fill-rule="evenodd" d="M416,194l464,0l0,-23l-464,0l0,23Z" class="g1_311" />
</g>
<path d="M46.5,171.5l0,-2" class="g2_311" />
<path d="M46.5,171.5l0,-2" class="g2_311" />
<path d="M47.5,171.5l219,0" class="g2_311" />
<path d="M266.5,171.5l0,-2" class="g2_311" />
<path d="M267.5,171.5l79,0" class="g2_311" />
<path d="M346.5,171.5l0,-2" class="g2_311" />
<path d="M347.5,171.5l60,0" class="g2_311" />
<path d="M407.5,171.5l0,-2" class="g2_311" />
<path d="M409.5,171.5l478,0" class="g2_311" />
<path d="M887.5,171.5l0,-2" class="g2_311" />
<path d="M887.5,171.5l0,-2" class="g2_311" />
<path d="M46.5,199.5l0,-28" class="g2_311" />
<path d="M266.5,199.5l0,-28" class="g2_311" />
<path d="M346.5,199.5l0,-28" class="g2_311" />
<path d="M407.5,199.5l0,-28" class="g2_311" />
<path d="M887.5,199.5l0,-28" class="g2_311" />
<path fill-rule="evenodd" d="M47,439l39,0L86,200l-39,0l0,239Z" class="g3_311" />
<path fill-rule="evenodd" d="M55,439l23,0L78,200l-23,0l0,239Z" class="g3_311" />
<path fill-rule="evenodd" d="M88,248l178,0l0,-48L88,200l0,48Z" class="g3_311" />
<g clip-path="url(#c4_311)">
<path fill-rule="evenodd" d="M95,224l163,0l0,-24L95,200l0,24Z" class="g3_311" />
</g>
<path fill-rule="evenodd" d="M267,248l79,0l0,-48l-79,0l0,48Z" class="g3_311" />
<g clip-path="url(#c5_311)">
<path fill-rule="evenodd" d="M275,224l63,0l0,-24l-63,0l0,24Z" class="g3_311" />
</g>
<path fill-rule="evenodd" d="M347,248l60,0l0,-48l-60,0l0,48Z" class="g3_311" />
<g clip-path="url(#c6_311)">
<path fill-rule="evenodd" d="M355,224l45,0l0,-24l-45,0l0,24Z" class="g3_311" />
</g>
<path fill-rule="evenodd" d="M409,248l478,0l0,-48l-478,0l0,48Z" class="g3_311" />
<g clip-path="url(#c7_311)">
<path fill-rule="evenodd" d="M416,224l464,0l0,-24l-464,0l0,24Z" class="g3_311" />
</g>
<path fill-rule="evenodd" d="M416,248l464,0l0,-24l-464,0l0,24Z" class="g3_311" />
<path d="M46.5,200.5l0,-1" class="g2_311" />
<path d="M47.5,200.5l39,0" class="g2_311" />
<path d="M86.5,200.5l0,-1" class="g2_311" />
<path d="M88.5,200.5l178,0" class="g2_311" />
<path d="M266.5,200.5l0,-1" class="g2_311" />
<path d="M267.5,200.5l79,0" class="g2_311" />
<path d="M346.5,200.5l0,-1" class="g2_311" />
<path d="M347.5,200.5l60,0" class="g2_311" />
<path d="M407.5,200.5l0,-1" class="g2_311" />
<path d="M409.5,200.5l478,0" class="g2_311" />
<path d="M887.5,200.5l0,-1" class="g2_311" />
<path d="M46.5,248.5l0,-48" class="g2_311" />
<path d="M86.5,248.5l0,-48" class="g2_311" />
<path d="M266.5,248.5l0,-48" class="g2_311" />
<path d="M346.5,248.5l0,-48" class="g2_311" />
<path d="M407.5,248.5l0,-48" class="g2_311" />
<path d="M887.5,248.5l0,-48" class="g2_311" />
<path fill-rule="evenodd" d="M88,301l178,0l0,-52L88,249l0,52Z" class="g3_311" />
<g clip-path="url(#c8_311)">
<path fill-rule="evenodd" d="M95,273l163,0l0,-24L95,249l0,24Z" class="g3_311" />
</g>
<path fill-rule="evenodd" d="M267,301l79,0l0,-52l-79,0l0,52Z" class="g3_311" />
<g clip-path="url(#c9_311)">
<path fill-rule="evenodd" d="M275,273l63,0l0,-24l-63,0l0,24Z" class="g3_311" />
</g>
<path fill-rule="evenodd" d="M347,301l60,0l0,-52l-60,0l0,52Z" class="g3_311" />
<g clip-path="url(#c10_311)">
<path fill-rule="evenodd" d="M355,273l45,0l0,-24l-45,0l0,24Z" class="g3_311" />
</g>
<path fill-rule="evenodd" d="M409,301l478,0l0,-52l-478,0l0,52Z" class="g3_311" />
<g clip-path="url(#c11_311)">
<path fill-rule="evenodd" d="M416,273l464,0l0,-24l-464,0l0,24Z" class="g3_311" />
</g>
<path d="M46.5,249.5l0,-1" class="g2_311" />
<path d="M86.5,249.5l0,-1" class="g2_311" />
<path d="M88.5,249.5l178,0" class="g2_311" />
<path d="M266.5,249.5l0,-1" class="g2_311" />
<path d="M267.5,249.5l79,0" class="g2_311" />
<path d="M346.5,249.5l0,-1" class="g2_311" />
<path d="M347.5,249.5l60,0" class="g2_311" />
<path d="M407.5,249.5l0,-1" class="g2_311" />
<path d="M409.5,249.5l478,0" class="g2_311" />
<path d="M887.5,249.5l0,-1" class="g2_311" />
<path d="M46.5,301.5l0,-52" class="g2_311" />
<path d="M86.5,301.5l0,-52" class="g2_311" />
<path d="M266.5,301.5l0,-52" class="g2_311" />
<path d="M346.5,301.5l0,-52" class="g2_311" />
<path d="M407.5,301.5l0,-52" class="g2_311" />
<path d="M887.5,301.5l0,-52" class="g2_311" />
<path fill-rule="evenodd" d="M88,439l39,0l0,-136l-39,0l0,136Z" class="g3_311" />
<g clip-path="url(#c12_311)">
<path fill-rule="evenodd" d="M95,439l24,0l0,-136l-24,0l0,136Z" class="g3_311" />
</g>
<path fill-rule="evenodd" d="M129,439l39,0l0,-136l-39,0l0,136Z" class="g3_311" />
<g clip-path="url(#c13_311)">
<path fill-rule="evenodd" d="M136,439l24,0l0,-136l-24,0l0,136Z" class="g3_311" />
</g>
<path fill-rule="evenodd" d="M169,365l97,0l0,-62l-97,0l0,62Z" class="g3_311" />
<g clip-path="url(#c14_311)">
<path fill-rule="evenodd" d="M177,327l81,0l0,-24l-81,0l0,24Z" class="g3_311" />
</g>
<path fill-rule="evenodd" d="M267,365l79,0l0,-62l-79,0l0,62Z" class="g3_311" />
<g clip-path="url(#c15_311)">
<path fill-rule="evenodd" d="M275,327l63,0l0,-24l-63,0l0,24Z" class="g3_311" />
</g>
<path fill-rule="evenodd" d="M347,365l60,0l0,-62l-60,0l0,62Z" class="g3_311" />
<g clip-path="url(#c16_311)">
<path fill-rule="evenodd" d="M355,327l45,0l0,-24l-45,0l0,24Z" class="g3_311" />
</g>
<path fill-rule="evenodd" d="M409,365l478,0l0,-62l-478,0l0,62Z" class="g3_311" />
<g clip-path="url(#c17_311)">
<path fill-rule="evenodd" d="M416,327l464,0l0,-24l-464,0l0,24Z" class="g3_311" />
</g>
<path d="M46.5,303.5l0,-2" class="g2_311" />
<path d="M86.5,303.5l0,-2" class="g2_311" />
<path d="M88.5,303.5l39,0" class="g2_311" />
<path d="M127.5,303.5l0,-2" class="g2_311" />
<path d="M129.5,303.5l39,0" class="g2_311" />
<path d="M168.5,303.5l0,-2" class="g2_311" />
<path d="M169.5,303.5l97,0" class="g2_311" />
<path d="M266.5,303.5l0,-2" class="g2_311" />
<path d="M267.5,303.5l79,0" class="g2_311" />
<path d="M346.5,303.5l0,-2" class="g2_311" />
<path d="M347.5,303.5l60,0" class="g2_311" />
<path d="M407.5,303.5l0,-2" class="g2_311" />
<path d="M409.5,303.5l478,0" class="g2_311" />
<path d="M887.5,303.5l0,-2" class="g2_311" />
<path d="M46.5,365.5l0,-62" class="g2_311" />
<path d="M86.5,365.5l0,-62" class="g2_311" />
<path d="M127.5,365.5l0,-62" class="g2_311" />
<path d="M168.5,365.5l0,-62" class="g2_311" />
<path d="M266.5,365.5l0,-62" class="g2_311" />
<path d="M346.5,365.5l0,-62" class="g2_311" />
<path d="M407.5,365.5l0,-62" class="g2_311" />
<path d="M887.5,365.5l0,-62" class="g2_311" />
<path fill-rule="evenodd" d="M169,439l97,0l0,-73l-97,0l0,73Z" class="g3_311" />
<g clip-path="url(#c18_311)">
<path fill-rule="evenodd" d="M177,390l81,0l0,-24l-81,0l0,24Z" class="g3_311" />
</g>
<path fill-rule="evenodd" d="M267,439l79,0l0,-73l-79,0l0,73Z" class="g3_311" />
<g clip-path="url(#c19_311)">
<path fill-rule="evenodd" d="M275,390l63,0l0,-24l-63,0l0,24Z" class="g3_311" />
</g>
<path fill-rule="evenodd" d="M347,439l60,0l0,-73l-60,0l0,73Z" class="g3_311" />
<g clip-path="url(#c20_311)">
<path fill-rule="evenodd" d="M355,390l45,0l0,-24l-45,0l0,24Z" class="g3_311" />
</g>
<path fill-rule="evenodd" d="M409,439l478,0l0,-73l-478,0l0,73Z" class="g3_311" />
<g clip-path="url(#c21_311)">
<path fill-rule="evenodd" d="M416,390l464,0l0,-24l-464,0l0,24Z" class="g3_311" />
</g>
<path fill-rule="evenodd" d="M416,414l464,0l0,-24l-464,0l0,24Z" class="g3_311" />
<path d="M46.5,366.5l0,-1" class="g2_311" />
<path d="M86.5,366.5l0,-1" class="g2_311" />
<path d="M127.5,366.5l0,-1" class="g2_311" />
<path d="M168.5,366.5l0,-1" class="g2_311" />
<path d="M169.5,366.5l97,0" class="g2_311" />
<path d="M266.5,366.5l0,-1" class="g2_311" />
<path d="M267.5,366.5l79,0" class="g2_311" />
<path d="M346.5,366.5l0,-1" class="g2_311" />
<path d="M347.5,366.5l60,0" class="g2_311" />
<path d="M407.5,366.5l0,-1" class="g2_311" />
<path d="M409.5,366.5l478,0" class="g2_311" />
<path d="M887.5,366.5l0,-1" class="g2_311" />
<path d="M46.5,439.5l0,-73" class="g2_311" />
<path d="M46.5,440.5l0,-1" class="g2_311" />
<path d="M46.5,440.5l0,-1" class="g2_311" />
<path d="M47.5,440.5l39,0" class="g2_311" />
<path d="M86.5,439.5l0,-73" class="g2_311" />
<path d="M86.5,440.5l0,-1" class="g2_311" />
<path d="M88.5,440.5l39,0" class="g2_311" />
<path d="M127.5,439.5l0,-73" class="g2_311" />
<path d="M127.5,440.5l0,-1" class="g2_311" />
<path d="M129.5,440.5l39,0" class="g2_311" />
<path d="M168.5,439.5l0,-73" class="g2_311" />
<path d="M168.5,440.5l0,-1" class="g2_311" />
<path d="M169.5,440.5l97,0" class="g2_311" />
<path d="M266.5,439.5l0,-73" class="g2_311" />
<path d="M266.5,440.5l0,-1" class="g2_311" />
<path d="M267.5,440.5l79,0" class="g2_311" />
<path d="M346.5,439.5l0,-73" class="g2_311" />
<path d="M346.5,440.5l0,-1" class="g2_311" />
<path d="M347.5,440.5l60,0" class="g2_311" />
<path d="M407.5,439.5l0,-73" class="g2_311" />
<path d="M407.5,440.5l0,-1" class="g2_311" />
<path d="M409.5,440.5l478,0" class="g2_311" />
<path d="M887.5,439.5l0,-73" class="g2_311" />
<path d="M887.5,440.5l0,-1" class="g2_311" />
<path d="M887.5,440.5l0,-1" class="g2_311" />
<path fill-rule="evenodd" d="M47,585l840,0l0,-48L47,537l0,48Z" class="g3_311" />
<path fill-rule="evenodd" d="M55,561l825,0l0,-24L55,537l0,24Z" class="g3_311" />
<path fill-rule="evenodd" d="M55,585l825,0l0,-24L55,561l0,24Z" class="g3_311" />
<path d="M46.5,537.5l0,-1" class="g2_311" />
<path d="M46.5,537.5l0,-1" class="g2_311" />
<path d="M47.5,537.5l840,0" class="g2_311" />
<path d="M887.5,537.5l0,-1" class="g2_311" />
<path d="M887.5,537.5l0,-1" class="g2_311" />
<path d="M46.5,585.5l0,-48" class="g2_311" />
<path d="M46.5,587.5l0,-2" class="g2_311" />
<path d="M46.5,587.5l0,-2" class="g2_311" />
<path d="M47.5,587.5l840,0" class="g2_311" />
<path d="M887.5,585.5l0,-48" class="g2_311" />
<path d="M887.5,587.5l0,-2" class="g2_311" />
<path d="M887.5,587.5l0,-2" class="g2_311" />
<path fill-rule="evenodd" d="M47,969l840,0l0,-357L47,612l0,357Z" class="g3_311" />
<path fill-rule="evenodd" d="M55,636l825,0l0,-24L55,612l0,24Z" class="g3_311" />
<path fill-rule="evenodd" d="M55,660l825,0l0,-24L55,636l0,24Z" class="g3_311" />
<path fill-rule="evenodd" d="M55,683l825,0l0,-23L55,660l0,23Z" class="g3_311" />
<path fill-rule="evenodd" d="M55,707l825,0l0,-24L55,683l0,24Z" class="g3_311" />
<path fill-rule="evenodd" d="M55,731l825,0l0,-24L55,707l0,24Z" class="g3_311" />
<path fill-rule="evenodd" d="M55,755l825,0l0,-24L55,731l0,24Z" class="g3_311" />
<path fill-rule="evenodd" d="M55,779l825,0l0,-24L55,755l0,24Z" class="g3_311" />
<path fill-rule="evenodd" d="M55,803l825,0l0,-24L55,779l0,24Z" class="g3_311" />
<path fill-rule="evenodd" d="M55,826l825,0l0,-23L55,803l0,23Z" class="g3_311" />
<path fill-rule="evenodd" d="M55,850l825,0l0,-24L55,826l0,24Z" class="g3_311" />
<path fill-rule="evenodd" d="M55,874l825,0l0,-24L55,850l0,24Z" class="g3_311" />
<path fill-rule="evenodd" d="M55,898l825,0l0,-24L55,874l0,24Z" class="g3_311" />
<path fill-rule="evenodd" d="M55,922l825,0l0,-24L55,898l0,24Z" class="g3_311" />
<path fill-rule="evenodd" d="M55,946l825,0l0,-24L55,922l0,24Z" class="g3_311" />
<g clip-path="url(#c22_311)">
<path fill-rule="evenodd" d="M55,969l825,0l0,-23L55,946l0,23Z" class="g3_311" />
</g>
<path d="M46.5,612.5l0,-2" class="g2_311" />
<path d="M46.5,612.5l0,-2" class="g2_311" />
<path d="M47.5,612.5l840,0" class="g2_311" />
<path d="M887.5,612.5l0,-2" class="g2_311" />
<path d="M887.5,612.5l0,-2" class="g2_311" />
<path d="M46.5,970.5l0,-358" class="g2_311" />
<path d="M46.5,971.5l0,-1" class="g2_311" />
<path d="M46.5,971.5l0,-1" class="g2_311" />
<path d="M47.5,971.5l840,0" class="g2_311" />
<path d="M887.5,970.5l0,-358" class="g2_311" />
<path d="M887.5,971.5l0,-1" class="g2_311" />
<path d="M887.5,971.5l0,-1" class="g2_311" />
<path fill-rule="evenodd" d="M47,1092l840,0l0,-48l-840,0l0,48Z" class="g3_311" />
<path fill-rule="evenodd" d="M55,1068l825,0l0,-24l-825,0l0,24Z" class="g3_311" />
<g clip-path="url(#c23_311)">
<path fill-rule="evenodd" d="M55,1092l825,0l0,-24l-825,0l0,24Z" class="g3_311" />
</g>
<path d="M46.5,1044.5l0,-1" class="g2_311" />
<path d="M46.5,1044.5l0,-1" class="g2_311" />
<path d="M47.5,1044.5l840,0" class="g2_311" />
<path d="M887.5,1044.5l0,-1" class="g2_311" />
<path d="M887.5,1044.5l0,-1" class="g2_311" />
<path d="M46.5,1092.5l0,-48" class="g2_311" />
<path d="M46.5,1093.5l0,-1" class="g2_311" />
<path d="M46.5,1093.5l0,-1" class="g2_311" />
<path d="M47.5,1093.5l840,0" class="g2_311" />
<path d="M887.5,1092.5l0,-48" class="g2_311" />
<path d="M887.5,1093.5l0,-1" class="g2_311" />
<path d="M887.5,1093.5l0,-1" class="g2_311" />
</svg>