<?xml version="1.0" encoding="UTF-8" standalone="no"?>
<!DOCTYPE svg PUBLIC "-//W3C//DTD SVG 1.1//EN"
"http://www.w3.org/Graphics/SVG/1.1/DTD/svg11.dtd">
<svg version="1.1" xmlns="http://www.w3.org/2000/svg" xmlns:xlink="http://www.w3.org/1999/xlink">
<defs>
<clipPath id="c0_340"><path d="M509.5,230.5l0,-119l378,0l0,119Z" /></clipPath>
<clipPath id="c1_340"><path d="M209.5,279.5l0,-47l227,0l0,47Z" /></clipPath>
<clipPath id="c2_340"><path d="M438.5,279.5l0,-47l70,0l0,47Z" /></clipPath>
<clipPath id="c3_340"><path d="M509.5,279.5l0,-47l378,0l0,47Z" /></clipPath>
<clipPath id="c4_340"><path d="M209.5,1040.5l0,-759l39,0l0,759Z" /></clipPath>
<clipPath id="c5_340"><path d="M250.5,1040.5l0,-759l39,0l0,759Z" /></clipPath>
<clipPath id="c6_340"><path d="M290.5,305.5l0,-24l146,0l0,24Z" /></clipPath>
<clipPath id="c7_340"><path d="M438.5,305.5l0,-24l70,0l0,24Z" /></clipPath>
<clipPath id="c8_340"><path d="M509.5,305.5l0,-24l378,0l0,24Z" /></clipPath>
<clipPath id="c9_340"><path d="M290.5,330.5l0,-24l146,0l0,24Z" /></clipPath>
<clipPath id="c10_340"><path d="M438.5,330.5l0,-24l70,0l0,24Z" /></clipPath>
<clipPath id="c11_340"><path d="M509.5,330.5l0,-24l378,0l0,24Z" /></clipPath>
<clipPath id="c12_340"><path d="M290.5,356.5l0,-24l146,0l0,24Z" /></clipPath>
<clipPath id="c13_340"><path d="M438.5,356.5l0,-24l70,0l0,24Z" /></clipPath>
<clipPath id="c14_340"><path d="M509.5,356.5l0,-24l378,0l0,24Z" /></clipPath>
<clipPath id="c15_340"><path d="M290.5,381.5l0,-24l146,0l0,24Z" /></clipPath>
<clipPath id="c16_340"><path d="M438.5,381.5l0,-24l70,0l0,24Z" /></clipPath>
<clipPath id="c17_340"><path d="M509.5,381.5l0,-24l378,0l0,24Z" /></clipPath>
<clipPath id="c18_340"><path d="M290.5,406.5l0,-24l146,0l0,24Z" /></clipPath>
<clipPath id="c19_340"><path d="M438.5,406.5l0,-24l70,0l0,24Z" /></clipPath>
<clipPath id="c20_340"><path d="M509.5,406.5l0,-24l378,0l0,24Z" /></clipPath>
<clipPath id="c21_340"><path d="M290.5,768.5l0,-23l146,0l0,23Z" /></clipPath>
<clipPath id="c22_340"><path d="M438.5,768.5l0,-23l70,0l0,23Z" /></clipPath>
<clipPath id="c23_340"><path d="M509.5,768.5l0,-23l378,0l0,23Z" /></clipPath>
<clipPath id="c24_340"><path d="M290.5,865.5l0,-95l146,0l0,95Z" /></clipPath>
<clipPath id="c25_340"><path d="M438.5,865.5l0,-95l70,0l0,95Z" /></clipPath>
<clipPath id="c26_340"><path d="M509.5,865.5l0,-95l378,0l0,95Z" /></clipPath>
<clipPath id="c27_340"><path d="M290.5,914.5l0,-47l146,0l0,47Z" /></clipPath>
<clipPath id="c28_340"><path d="M438.5,914.5l0,-47l70,0l0,47Z" /></clipPath>
<clipPath id="c29_340"><path d="M509.5,914.5l0,-47l378,0l0,47Z" /></clipPath>
<clipPath id="c30_340"><path d="M290.5,940.5l0,-24l146,0l0,24Z" /></clipPath>
<clipPath id="c31_340"><path d="M438.5,940.5l0,-24l70,0l0,24Z" /></clipPath>
<clipPath id="c32_340"><path d="M509.5,940.5l0,-24l378,0l0,24Z" /></clipPath>
<clipPath id="c33_340"><path d="M290.5,965.5l0,-24l146,0l0,24Z" /></clipPath>
<clipPath id="c34_340"><path d="M438.5,965.5l0,-24l70,0l0,24Z" /></clipPath>
<clipPath id="c35_340"><path d="M509.5,965.5l0,-24l378,0l0,24Z" /></clipPath>
<clipPath id="c36_340"><path d="M290.5,991.5l0,-24l146,0l0,24Z" /></clipPath>
<clipPath id="c37_340"><path d="M438.5,991.5l0,-24l70,0l0,24Z" /></clipPath>
<clipPath id="c38_340"><path d="M509.5,991.5l0,-24l378,0l0,24Z" /></clipPath>
<clipPath id="c39_340"><path d="M509.5,1040.5l0,-48l378,0l0,48Z" /></clipPath>
<clipPath id="c40_340"><path d="M47.5,1065.5l0,-24l389,0l0,24Z" /></clipPath>
<clipPath id="c41_340"><path d="M438.5,1065.5l0,-24l70,0l0,24Z" /></clipPath>
<clipPath id="c42_340"><path d="M509.5,1065.5l0,-24l378,0l0,24Z" /></clipPath>
<style type="text/css"><![CDATA[
.g2_340{
fill: none;
stroke: #7E7E7E;
stroke-width: 1;
stroke-linecap: butt;
stroke-linejoin: miter;
}
.g1_340{
fill: #F1F1F1;
}
]]></style>
</defs>
<path fill-rule="evenodd" d="M47,230l38,0L85,111l-38,0l0,119Z" class="g1_340" />
<path fill-rule="evenodd" d="M87,230l39,0l0,-119l-39,0l0,119Z" class="g1_340" />
<path fill-rule="evenodd" d="M127,230l40,0l0,-119l-40,0l0,119Z" class="g1_340" />
<path fill-rule="evenodd" d="M168,230l39,0l0,-119l-39,0l0,119Z" class="g1_340" />
<path fill-rule="evenodd" d="M209,230l227,0l0,-119l-227,0l0,119Z" class="g1_340" />
<path fill-rule="evenodd" d="M438,230l70,0l0,-119l-70,0l0,119Z" class="g1_340" />
<path fill-rule="evenodd" d="M509,230l378,0l0,-119l-378,0l0,119Z" class="g1_340" />
<g clip-path="url(#c0_340)">
<path fill-rule="evenodd" d="M517,135l363,0l0,-24l-363,0l0,24Z" class="g1_340" />
</g>
<path fill-rule="evenodd" d="M517,159l363,0l0,-24l-363,0l0,24Z" class="g1_340" />
<path fill-rule="evenodd" d="M517,182l363,0l0,-23l-363,0l0,23Z" class="g1_340" />
<path fill-rule="evenodd" d="M517,206l363,0l0,-24l-363,0l0,24Z" class="g1_340" />
<path fill-rule="evenodd" d="M517,230l363,0l0,-24l-363,0l0,24Z" class="g1_340" />
<path d="M46.5,111.5l0,-1" class="g2_340" />
<path d="M46.5,111.5l0,-1" class="g2_340" />
<path d="M47.5,111.5l38,0" class="g2_340" />
<path d="M85.5,111.5l0,-1" class="g2_340" />
<path d="M86.5,111.5l40,0" class="g2_340" />
<path d="M126.5,111.5l0,-1" class="g2_340" />
<path d="M127.5,111.5l40,0" class="g2_340" />
<path d="M167.5,111.5l0,-1" class="g2_340" />
<path d="M168.5,111.5l39,0" class="g2_340" />
<path d="M207.5,111.5l0,-1" class="g2_340" />
<path d="M209.5,111.5l227,0" class="g2_340" />
<path d="M436.5,111.5l0,-1" class="g2_340" />
<path d="M438.5,111.5l70,0" class="g2_340" />
<path d="M508.5,111.5l0,-1" class="g2_340" />
<path d="M509.5,111.5l378,0" class="g2_340" />
<path d="M887.5,111.5l0,-1" class="g2_340" />
<path d="M887.5,111.5l0,-1" class="g2_340" />
<path d="M46.5,230.5l0,-119" class="g2_340" />
<path d="M85.5,230.5l0,-119" class="g2_340" />
<path d="M126.5,230.5l0,-119" class="g2_340" />
<path d="M167.5,230.5l0,-119" class="g2_340" />
<path d="M207.5,230.5l0,-119" class="g2_340" />
<path d="M436.5,230.5l0,-119" class="g2_340" />
<path d="M508.5,230.5l0,-119" class="g2_340" />
<path d="M887.5,230.5l0,-119" class="g2_340" />
<path fill-rule="evenodd" d="M47,279l38,0l0,-49l-38,0l0,49Z" class="g1_340" />
<path fill-rule="evenodd" d="M87,279l39,0l0,-49l-39,0l0,49Z" class="g1_340" />
<path fill-rule="evenodd" d="M127,279l40,0l0,-49l-40,0l0,49Z" class="g1_340" />
<path fill-rule="evenodd" d="M168,279l39,0l0,-49l-39,0l0,49Z" class="g1_340" />
<path fill-rule="evenodd" d="M209,279l227,0l0,-47l-227,0l0,47Z" class="g1_340" />
<g clip-path="url(#c1_340)">
<path fill-rule="evenodd" d="M216,256l213,0l0,-24l-213,0l0,24Z" class="g1_340" />
</g>
<path fill-rule="evenodd" d="M438,279l70,0l0,-47l-70,0l0,47Z" class="g1_340" />
<g clip-path="url(#c2_340)">
<path fill-rule="evenodd" d="M445,256l55,0l0,-24l-55,0l0,24Z" class="g1_340" />
</g>
<path fill-rule="evenodd" d="M509,279l378,0l0,-47l-378,0l0,47Z" class="g1_340" />
<g clip-path="url(#c3_340)">
<path fill-rule="evenodd" d="M517,256l363,0l0,-24l-363,0l0,24Z" class="g1_340" />
</g>
<path fill-rule="evenodd" d="M517,279l363,0l0,-23l-363,0l0,23Z" class="g1_340" />
<path d="M46.5,232.5l0,-2" class="g2_340" />
<path d="M85.5,232.5l0,-2" class="g2_340" />
<path d="M126.5,232.5l0,-2" class="g2_340" />
<path d="M167.5,232.5l0,-2" class="g2_340" />
<path d="M207.5,232.5l0,-2" class="g2_340" />
<path d="M209.5,232.5l227,0" class="g2_340" />
<path d="M436.5,232.5l0,-2" class="g2_340" />
<path d="M438.5,232.5l70,0" class="g2_340" />
<path d="M508.5,232.5l0,-2" class="g2_340" />
<path d="M509.5,232.5l378,0" class="g2_340" />
<path d="M887.5,232.5l0,-2" class="g2_340" />
<path d="M46.5,279.5l0,-47" class="g2_340" />
<path d="M85.5,279.5l0,-47" class="g2_340" />
<path d="M126.5,279.5l0,-47" class="g2_340" />
<path d="M167.5,279.5l0,-47" class="g2_340" />
<path d="M207.5,279.5l0,-47" class="g2_340" />
<path d="M436.5,279.5l0,-47" class="g2_340" />
<path d="M508.5,279.5l0,-47" class="g2_340" />
<path d="M887.5,279.5l0,-47" class="g2_340" />
<path fill-rule="evenodd" d="M47,305l38,0l0,-26l-38,0l0,26Z" class="g1_340" />
<path fill-rule="evenodd" d="M87,305l39,0l0,-26l-39,0l0,26Z" class="g1_340" />
<path fill-rule="evenodd" d="M127,305l40,0l0,-26l-40,0l0,26Z" class="g1_340" />
<path fill-rule="evenodd" d="M168,305l39,0l0,-26l-39,0l0,26Z" class="g1_340" />
<path fill-rule="evenodd" d="M209,1040l39,0l0,-759l-39,0l0,759Z" class="g1_340" />
<g clip-path="url(#c4_340)">
<path fill-rule="evenodd" d="M216,1040l24,0l0,-759l-24,0l0,759Z" class="g1_340" />
</g>
<path fill-rule="evenodd" d="M250,1040l39,0l0,-759l-39,0l0,759Z" class="g1_340" />
<g clip-path="url(#c5_340)">
<path fill-rule="evenodd" d="M257,1040l24,0l0,-759l-24,0l0,759Z" class="g1_340" />
</g>
<path fill-rule="evenodd" d="M290,305l146,0l0,-24l-146,0l0,24Z" class="g1_340" />
<g clip-path="url(#c6_340)">
<path fill-rule="evenodd" d="M298,305l131,0l0,-24l-131,0l0,24Z" class="g1_340" />
</g>
<path fill-rule="evenodd" d="M438,305l70,0l0,-24l-70,0l0,24Z" class="g1_340" />
<g clip-path="url(#c7_340)">
<path fill-rule="evenodd" d="M445,305l55,0l0,-24l-55,0l0,24Z" class="g1_340" />
</g>
<path fill-rule="evenodd" d="M509,305l378,0l0,-24l-378,0l0,24Z" class="g1_340" />
<g clip-path="url(#c8_340)">
<path fill-rule="evenodd" d="M517,305l363,0l0,-24l-363,0l0,24Z" class="g1_340" />
</g>
<path d="M46.5,281.5l0,-2" class="g2_340" />
<path d="M85.5,281.5l0,-2" class="g2_340" />
<path d="M126.5,281.5l0,-2" class="g2_340" />
<path d="M167.5,281.5l0,-2" class="g2_340" />
<path d="M207.5,281.5l0,-2" class="g2_340" />
<path d="M209.5,281.5l39,0" class="g2_340" />
<path d="M248.5,281.5l0,-2" class="g2_340" />
<path d="M250.5,281.5l39,0" class="g2_340" />
<path d="M289.5,281.5l0,-2" class="g2_340" />
<path d="M290.5,281.5l146,0" class="g2_340" />
<path d="M436.5,281.5l0,-2" class="g2_340" />
<path d="M438.5,281.5l70,0" class="g2_340" />
<path d="M508.5,281.5l0,-2" class="g2_340" />
<path d="M509.5,281.5l378,0" class="g2_340" />
<path d="M887.5,281.5l0,-2" class="g2_340" />
<path d="M46.5,305.5l0,-24" class="g2_340" />
<path d="M85.5,305.5l0,-24" class="g2_340" />
<path d="M126.5,305.5l0,-24" class="g2_340" />
<path d="M167.5,305.5l0,-24" class="g2_340" />
<path d="M207.5,305.5l0,-24" class="g2_340" />
<path d="M248.5,305.5l0,-24" class="g2_340" />
<path d="M289.5,305.5l0,-24" class="g2_340" />
<path d="M436.5,305.5l0,-24" class="g2_340" />
<path d="M508.5,305.5l0,-24" class="g2_340" />
<path d="M887.5,305.5l0,-24" class="g2_340" />
<path fill-rule="evenodd" d="M47,330l38,0l0,-25l-38,0l0,25Z" class="g1_340" />
<path fill-rule="evenodd" d="M87,330l39,0l0,-25l-39,0l0,25Z" class="g1_340" />
<path fill-rule="evenodd" d="M127,330l40,0l0,-25l-40,0l0,25Z" class="g1_340" />
<path fill-rule="evenodd" d="M168,330l39,0l0,-25l-39,0l0,25Z" class="g1_340" />
<path fill-rule="evenodd" d="M290,330l146,0l0,-24l-146,0l0,24Z" class="g1_340" />
<g clip-path="url(#c9_340)">
<path fill-rule="evenodd" d="M298,330l131,0l0,-24l-131,0l0,24Z" class="g1_340" />
</g>
<path fill-rule="evenodd" d="M438,330l70,0l0,-24l-70,0l0,24Z" class="g1_340" />
<g clip-path="url(#c10_340)">
<path fill-rule="evenodd" d="M445,330l55,0l0,-24l-55,0l0,24Z" class="g1_340" />
</g>
<path fill-rule="evenodd" d="M509,330l378,0l0,-24l-378,0l0,24Z" class="g1_340" />
<g clip-path="url(#c11_340)">
<path fill-rule="evenodd" d="M517,330l363,0l0,-24l-363,0l0,24Z" class="g1_340" />
</g>
<path d="M46.5,306.5l0,-1" class="g2_340" />
<path d="M85.5,306.5l0,-1" class="g2_340" />
<path d="M126.5,306.5l0,-1" class="g2_340" />
<path d="M167.5,306.5l0,-1" class="g2_340" />
<path d="M207.5,306.5l0,-1" class="g2_340" />
<path d="M248.5,306.5l0,-1" class="g2_340" />
<path d="M289.5,306.5l0,-1" class="g2_340" />
<path d="M290.5,306.5l146,0" class="g2_340" />
<path d="M436.5,306.5l0,-1" class="g2_340" />
<path d="M438.5,306.5l70,0" class="g2_340" />
<path d="M508.5,306.5l0,-1" class="g2_340" />
<path d="M509.5,306.5l378,0" class="g2_340" />
<path d="M887.5,306.5l0,-1" class="g2_340" />
<path d="M46.5,330.5l0,-24" class="g2_340" />
<path d="M85.5,330.5l0,-24" class="g2_340" />
<path d="M126.5,330.5l0,-24" class="g2_340" />
<path d="M167.5,330.5l0,-24" class="g2_340" />
<path d="M207.5,330.5l0,-24" class="g2_340" />
<path d="M248.5,330.5l0,-24" class="g2_340" />
<path d="M289.5,330.5l0,-24" class="g2_340" />
<path d="M436.5,330.5l0,-24" class="g2_340" />
<path d="M508.5,330.5l0,-24" class="g2_340" />
<path d="M887.5,330.5l0,-24" class="g2_340" />
<path fill-rule="evenodd" d="M47,356l38,0l0,-26l-38,0l0,26Z" class="g1_340" />
<path fill-rule="evenodd" d="M87,356l39,0l0,-26l-39,0l0,26Z" class="g1_340" />
<path fill-rule="evenodd" d="M127,356l40,0l0,-26l-40,0l0,26Z" class="g1_340" />
<path fill-rule="evenodd" d="M168,356l39,0l0,-26l-39,0l0,26Z" class="g1_340" />
<path fill-rule="evenodd" d="M290,356l146,0l0,-24l-146,0l0,24Z" class="g1_340" />
<g clip-path="url(#c12_340)">
<path fill-rule="evenodd" d="M298,356l131,0l0,-24l-131,0l0,24Z" class="g1_340" />
</g>
<path fill-rule="evenodd" d="M438,356l70,0l0,-24l-70,0l0,24Z" class="g1_340" />
<g clip-path="url(#c13_340)">
<path fill-rule="evenodd" d="M445,356l55,0l0,-24l-55,0l0,24Z" class="g1_340" />
</g>
<path fill-rule="evenodd" d="M509,356l378,0l0,-24l-378,0l0,24Z" class="g1_340" />
<g clip-path="url(#c14_340)">
<path fill-rule="evenodd" d="M517,356l363,0l0,-24l-363,0l0,24Z" class="g1_340" />
</g>
<path d="M46.5,332.5l0,-2" class="g2_340" />
<path d="M85.5,332.5l0,-2" class="g2_340" />
<path d="M126.5,332.5l0,-2" class="g2_340" />
<path d="M167.5,332.5l0,-2" class="g2_340" />
<path d="M207.5,332.5l0,-2" class="g2_340" />
<path d="M248.5,332.5l0,-2" class="g2_340" />
<path d="M289.5,332.5l0,-2" class="g2_340" />
<path d="M290.5,332.5l146,0" class="g2_340" />
<path d="M436.5,332.5l0,-2" class="g2_340" />
<path d="M438.5,332.5l70,0" class="g2_340" />
<path d="M508.5,332.5l0,-2" class="g2_340" />
<path d="M509.5,332.5l378,0" class="g2_340" />
<path d="M887.5,332.5l0,-2" class="g2_340" />
<path d="M46.5,356.5l0,-24" class="g2_340" />
<path d="M85.5,356.5l0,-24" class="g2_340" />
<path d="M126.5,356.5l0,-24" class="g2_340" />
<path d="M167.5,356.5l0,-24" class="g2_340" />
<path d="M207.5,356.5l0,-24" class="g2_340" />
<path d="M248.5,356.5l0,-24" class="g2_340" />
<path d="M289.5,356.5l0,-24" class="g2_340" />
<path d="M436.5,356.5l0,-24" class="g2_340" />
<path d="M508.5,356.5l0,-24" class="g2_340" />
<path d="M887.5,356.5l0,-24" class="g2_340" />
<path fill-rule="evenodd" d="M47,381l38,0l0,-25l-38,0l0,25Z" class="g1_340" />
<path fill-rule="evenodd" d="M87,381l39,0l0,-25l-39,0l0,25Z" class="g1_340" />
<path fill-rule="evenodd" d="M127,381l40,0l0,-25l-40,0l0,25Z" class="g1_340" />
<path fill-rule="evenodd" d="M168,381l39,0l0,-25l-39,0l0,25Z" class="g1_340" />
<path fill-rule="evenodd" d="M290,381l146,0l0,-24l-146,0l0,24Z" class="g1_340" />
<g clip-path="url(#c15_340)">
<path fill-rule="evenodd" d="M298,381l131,0l0,-24l-131,0l0,24Z" class="g1_340" />
</g>
<path fill-rule="evenodd" d="M438,381l70,0l0,-24l-70,0l0,24Z" class="g1_340" />
<g clip-path="url(#c16_340)">
<path fill-rule="evenodd" d="M445,381l55,0l0,-24l-55,0l0,24Z" class="g1_340" />
</g>
<path fill-rule="evenodd" d="M509,381l378,0l0,-24l-378,0l0,24Z" class="g1_340" />
<g clip-path="url(#c17_340)">
<path fill-rule="evenodd" d="M517,381l363,0l0,-24l-363,0l0,24Z" class="g1_340" />
</g>
<path d="M46.5,357.5l0,-1" class="g2_340" />
<path d="M85.5,357.5l0,-1" class="g2_340" />
<path d="M126.5,357.5l0,-1" class="g2_340" />
<path d="M167.5,357.5l0,-1" class="g2_340" />
<path d="M207.5,357.5l0,-1" class="g2_340" />
<path d="M248.5,357.5l0,-1" class="g2_340" />
<path d="M289.5,357.5l0,-1" class="g2_340" />
<path d="M290.5,357.5l146,0" class="g2_340" />
<path d="M436.5,357.5l0,-1" class="g2_340" />
<path d="M438.5,357.5l70,0" class="g2_340" />
<path d="M508.5,357.5l0,-1" class="g2_340" />
<path d="M509.5,357.5l378,0" class="g2_340" />
<path d="M887.5,357.5l0,-1" class="g2_340" />
<path d="M46.5,381.5l0,-24" class="g2_340" />
<path d="M85.5,381.5l0,-24" class="g2_340" />
<path d="M126.5,381.5l0,-24" class="g2_340" />
<path d="M167.5,381.5l0,-24" class="g2_340" />
<path d="M207.5,381.5l0,-24" class="g2_340" />
<path d="M248.5,381.5l0,-24" class="g2_340" />
<path d="M289.5,381.5l0,-24" class="g2_340" />
<path d="M436.5,381.5l0,-24" class="g2_340" />
<path d="M508.5,381.5l0,-24" class="g2_340" />
<path d="M887.5,381.5l0,-24" class="g2_340" />
<path fill-rule="evenodd" d="M47,406l38,0l0,-25l-38,0l0,25Z" class="g1_340" />
<path fill-rule="evenodd" d="M87,406l39,0l0,-25l-39,0l0,25Z" class="g1_340" />
<path fill-rule="evenodd" d="M127,406l40,0l0,-25l-40,0l0,25Z" class="g1_340" />
<path fill-rule="evenodd" d="M168,406l39,0l0,-25l-39,0l0,25Z" class="g1_340" />
<path fill-rule="evenodd" d="M290,406l146,0l0,-24l-146,0l0,24Z" class="g1_340" />
<g clip-path="url(#c18_340)">
<path fill-rule="evenodd" d="M298,406l131,0l0,-24l-131,0l0,24Z" class="g1_340" />
</g>
<path fill-rule="evenodd" d="M438,406l70,0l0,-24l-70,0l0,24Z" class="g1_340" />
<g clip-path="url(#c19_340)">
<path fill-rule="evenodd" d="M445,406l55,0l0,-24l-55,0l0,24Z" class="g1_340" />
</g>
<path fill-rule="evenodd" d="M509,406l378,0l0,-24l-378,0l0,24Z" class="g1_340" />
<g clip-path="url(#c20_340)">
<path fill-rule="evenodd" d="M517,406l363,0l0,-24l-363,0l0,24Z" class="g1_340" />
</g>
<path d="M46.5,382.5l0,-1" class="g2_340" />
<path d="M85.5,382.5l0,-1" class="g2_340" />
<path d="M126.5,382.5l0,-1" class="g2_340" />
<path d="M167.5,382.5l0,-1" class="g2_340" />
<path d="M207.5,382.5l0,-1" class="g2_340" />
<path d="M248.5,382.5l0,-1" class="g2_340" />
<path d="M289.5,382.5l0,-1" class="g2_340" />
<path d="M290.5,382.5l146,0" class="g2_340" />
<path d="M436.5,382.5l0,-1" class="g2_340" />
<path d="M438.5,382.5l70,0" class="g2_340" />
<path d="M508.5,382.5l0,-1" class="g2_340" />
<path d="M509.5,382.5l378,0" class="g2_340" />
<path d="M887.5,382.5l0,-1" class="g2_340" />
<path d="M46.5,406.5l0,-24" class="g2_340" />
<path d="M85.5,406.5l0,-24" class="g2_340" />
<path d="M126.5,406.5l0,-24" class="g2_340" />
<path d="M167.5,406.5l0,-24" class="g2_340" />
<path d="M207.5,406.5l0,-24" class="g2_340" />
<path d="M248.5,406.5l0,-24" class="g2_340" />
<path d="M289.5,406.5l0,-24" class="g2_340" />
<path d="M436.5,406.5l0,-24" class="g2_340" />
<path d="M508.5,406.5l0,-24" class="g2_340" />
<path d="M887.5,406.5l0,-24" class="g2_340" />
<path fill-rule="evenodd" d="M47,575l38,0L85,406l-38,0l0,169Z" class="g1_340" />
<path fill-rule="evenodd" d="M87,575l39,0l0,-169l-39,0l0,169Z" class="g1_340" />
<path fill-rule="evenodd" d="M127,575l40,0l0,-169l-40,0l0,169Z" class="g1_340" />
<path fill-rule="evenodd" d="M168,575l39,0l0,-169l-39,0l0,169Z" class="g1_340" />
<path fill-rule="evenodd" d="M290,575l146,0l0,-167l-146,0l0,167Z" class="g1_340" />
<path fill-rule="evenodd" d="M298,432l131,0l0,-24l-131,0l0,24Z" class="g1_340" />
<path fill-rule="evenodd" d="M438,575l70,0l0,-167l-70,0l0,167Z" class="g1_340" />
<path fill-rule="evenodd" d="M445,432l55,0l0,-24l-55,0l0,24Z" class="g1_340" />
<path fill-rule="evenodd" d="M509,575l378,0l0,-167l-378,0l0,167Z" class="g1_340" />
<path fill-rule="evenodd" d="M517,432l363,0l0,-24l-363,0l0,24Z" class="g1_340" />
<path fill-rule="evenodd" d="M517,456l363,0l0,-24l-363,0l0,24Z" class="g1_340" />
<path fill-rule="evenodd" d="M517,479l363,0l0,-23l-363,0l0,23Z" class="g1_340" />
<path fill-rule="evenodd" d="M517,503l363,0l0,-24l-363,0l0,24Z" class="g1_340" />
<path fill-rule="evenodd" d="M517,527l363,0l0,-24l-363,0l0,24Z" class="g1_340" />
<path fill-rule="evenodd" d="M517,551l363,0l0,-24l-363,0l0,24Z" class="g1_340" />
<path fill-rule="evenodd" d="M517,575l363,0l0,-24l-363,0l0,24Z" class="g1_340" />
<path d="M46.5,408.5l0,-2" class="g2_340" />
<path d="M85.5,408.5l0,-2" class="g2_340" />
<path d="M126.5,408.5l0,-2" class="g2_340" />
<path d="M167.5,408.5l0,-2" class="g2_340" />
<path d="M207.5,408.5l0,-2" class="g2_340" />
<path d="M248.5,408.5l0,-2" class="g2_340" />
<path d="M289.5,408.5l0,-2" class="g2_340" />
<path d="M290.5,408.5l146,0" class="g2_340" />
<path d="M436.5,408.5l0,-2" class="g2_340" />
<path d="M438.5,408.5l70,0" class="g2_340" />
<path d="M508.5,408.5l0,-2" class="g2_340" />
<path d="M509.5,408.5l378,0" class="g2_340" />
<path d="M887.5,408.5l0,-2" class="g2_340" />
<path d="M46.5,575.5l0,-167" class="g2_340" />
<path d="M85.5,575.5l0,-167" class="g2_340" />
<path d="M126.5,575.5l0,-167" class="g2_340" />
<path d="M167.5,575.5l0,-167" class="g2_340" />
<path d="M207.5,575.5l0,-167" class="g2_340" />
<path d="M248.5,575.5l0,-167" class="g2_340" />
<path d="M289.5,575.5l0,-167" class="g2_340" />
<path d="M436.5,575.5l0,-167" class="g2_340" />
<path d="M508.5,575.5l0,-167" class="g2_340" />
<path d="M887.5,575.5l0,-167" class="g2_340" />
<path fill-rule="evenodd" d="M47,743l38,0L85,575l-38,0l0,168Z" class="g1_340" />
<path fill-rule="evenodd" d="M87,743l39,0l0,-168l-39,0l0,168Z" class="g1_340" />
<path fill-rule="evenodd" d="M127,743l40,0l0,-168l-40,0l0,168Z" class="g1_340" />
<path fill-rule="evenodd" d="M168,743l39,0l0,-168l-39,0l0,168Z" class="g1_340" />
<path fill-rule="evenodd" d="M290,743l146,0l0,-167l-146,0l0,167Z" class="g1_340" />
<path fill-rule="evenodd" d="M298,600l131,0l0,-24l-131,0l0,24Z" class="g1_340" />
<path fill-rule="evenodd" d="M438,743l70,0l0,-167l-70,0l0,167Z" class="g1_340" />
<path fill-rule="evenodd" d="M445,600l55,0l0,-24l-55,0l0,24Z" class="g1_340" />
<path fill-rule="evenodd" d="M509,743l378,0l0,-167l-378,0l0,167Z" class="g1_340" />
<path fill-rule="evenodd" d="M517,600l363,0l0,-24l-363,0l0,24Z" class="g1_340" />
<path fill-rule="evenodd" d="M517,624l363,0l0,-24l-363,0l0,24Z" class="g1_340" />
<path fill-rule="evenodd" d="M517,648l363,0l0,-24l-363,0l0,24Z" class="g1_340" />
<path fill-rule="evenodd" d="M517,672l363,0l0,-24l-363,0l0,24Z" class="g1_340" />
<path fill-rule="evenodd" d="M517,695l363,0l0,-23l-363,0l0,23Z" class="g1_340" />
<path fill-rule="evenodd" d="M517,719l363,0l0,-24l-363,0l0,24Z" class="g1_340" />
<path fill-rule="evenodd" d="M517,743l363,0l0,-24l-363,0l0,24Z" class="g1_340" />
<path d="M46.5,576.5l0,-1" class="g2_340" />
<path d="M85.5,576.5l0,-1" class="g2_340" />
<path d="M126.5,576.5l0,-1" class="g2_340" />
<path d="M167.5,576.5l0,-1" class="g2_340" />
<path d="M207.5,576.5l0,-1" class="g2_340" />
<path d="M248.5,576.5l0,-1" class="g2_340" />
<path d="M289.5,576.5l0,-1" class="g2_340" />
<path d="M290.5,576.5l146,0" class="g2_340" />
<path d="M436.5,576.5l0,-1" class="g2_340" />
<path d="M438.5,576.5l70,0" class="g2_340" />
<path d="M508.5,576.5l0,-1" class="g2_340" />
<path d="M509.5,576.5l378,0" class="g2_340" />
<path d="M887.5,576.5l0,-1" class="g2_340" />
<path d="M46.5,743.5l0,-167" class="g2_340" />
<path d="M85.5,743.5l0,-167" class="g2_340" />
<path d="M126.5,743.5l0,-167" class="g2_340" />
<path d="M167.5,743.5l0,-167" class="g2_340" />
<path d="M207.5,743.5l0,-167" class="g2_340" />
<path d="M248.5,743.5l0,-167" class="g2_340" />
<path d="M289.5,743.5l0,-167" class="g2_340" />
<path d="M436.5,743.5l0,-167" class="g2_340" />
<path d="M508.5,743.5l0,-167" class="g2_340" />
<path d="M887.5,743.5l0,-167" class="g2_340" />
<path fill-rule="evenodd" d="M47,768l38,0l0,-25l-38,0l0,25Z" class="g1_340" />
<path fill-rule="evenodd" d="M87,768l39,0l0,-25l-39,0l0,25Z" class="g1_340" />
<path fill-rule="evenodd" d="M127,768l40,0l0,-25l-40,0l0,25Z" class="g1_340" />
<path fill-rule="evenodd" d="M168,768l39,0l0,-25l-39,0l0,25Z" class="g1_340" />
<path fill-rule="evenodd" d="M290,768l146,0l0,-24l-146,0l0,24Z" class="g1_340" />
<g clip-path="url(#c21_340)">
<path fill-rule="evenodd" d="M298,768l131,0l0,-24l-131,0l0,24Z" class="g1_340" />
</g>
<path fill-rule="evenodd" d="M438,768l70,0l0,-24l-70,0l0,24Z" class="g1_340" />
<g clip-path="url(#c22_340)">
<path fill-rule="evenodd" d="M445,768l55,0l0,-24l-55,0l0,24Z" class="g1_340" />
</g>
<path fill-rule="evenodd" d="M509,768l378,0l0,-24l-378,0l0,24Z" class="g1_340" />
<g clip-path="url(#c23_340)">
<path fill-rule="evenodd" d="M517,768l363,0l0,-24l-363,0l0,24Z" class="g1_340" />
</g>
<path d="M46.5,744.5l0,-1" class="g2_340" />
<path d="M85.5,744.5l0,-1" class="g2_340" />
<path d="M126.5,744.5l0,-1" class="g2_340" />
<path d="M167.5,744.5l0,-1" class="g2_340" />
<path d="M207.5,744.5l0,-1" class="g2_340" />
<path d="M248.5,744.5l0,-1" class="g2_340" />
<path d="M289.5,744.5l0,-1" class="g2_340" />
<path d="M290.5,744.5l146,0" class="g2_340" />
<path d="M436.5,744.5l0,-1" class="g2_340" />
<path d="M438.5,744.5l70,0" class="g2_340" />
<path d="M508.5,744.5l0,-1" class="g2_340" />
<path d="M509.5,744.5l378,0" class="g2_340" />
<path d="M887.5,744.5l0,-1" class="g2_340" />
<path d="M46.5,768.5l0,-24" class="g2_340" />
<path d="M85.5,768.5l0,-24" class="g2_340" />
<path d="M126.5,768.5l0,-24" class="g2_340" />
<path d="M167.5,768.5l0,-24" class="g2_340" />
<path d="M207.5,768.5l0,-24" class="g2_340" />
<path d="M248.5,768.5l0,-24" class="g2_340" />
<path d="M289.5,768.5l0,-24" class="g2_340" />
<path d="M436.5,768.5l0,-24" class="g2_340" />
<path d="M508.5,768.5l0,-24" class="g2_340" />
<path d="M887.5,768.5l0,-24" class="g2_340" />
<path fill-rule="evenodd" d="M47,865l38,0l0,-96l-38,0l0,96Z" class="g1_340" />
<path fill-rule="evenodd" d="M87,865l39,0l0,-96l-39,0l0,96Z" class="g1_340" />
<path fill-rule="evenodd" d="M127,865l40,0l0,-96l-40,0l0,96Z" class="g1_340" />
<path fill-rule="evenodd" d="M168,865l39,0l0,-96l-39,0l0,96Z" class="g1_340" />
<path fill-rule="evenodd" d="M290,865l146,0l0,-95l-146,0l0,95Z" class="g1_340" />
<g clip-path="url(#c24_340)">
<path fill-rule="evenodd" d="M298,794l131,0l0,-24l-131,0l0,24Z" class="g1_340" />
</g>
<path fill-rule="evenodd" d="M438,865l70,0l0,-95l-70,0l0,95Z" class="g1_340" />
<g clip-path="url(#c25_340)">
<path fill-rule="evenodd" d="M445,794l55,0l0,-24l-55,0l0,24Z" class="g1_340" />
</g>
<path fill-rule="evenodd" d="M509,865l378,0l0,-95l-378,0l0,95Z" class="g1_340" />
<g clip-path="url(#c26_340)">
<path fill-rule="evenodd" d="M517,794l363,0l0,-24l-363,0l0,24Z" class="g1_340" />
</g>
<path fill-rule="evenodd" d="M517,818l363,0l0,-24l-363,0l0,24Z" class="g1_340" />
<path fill-rule="evenodd" d="M517,841l363,0l0,-23l-363,0l0,23Z" class="g1_340" />
<path fill-rule="evenodd" d="M517,865l363,0l0,-24l-363,0l0,24Z" class="g1_340" />
<path d="M46.5,770.5l0,-2" class="g2_340" />
<path d="M85.5,770.5l0,-2" class="g2_340" />
<path d="M126.5,770.5l0,-2" class="g2_340" />
<path d="M167.5,770.5l0,-2" class="g2_340" />
<path d="M207.5,770.5l0,-2" class="g2_340" />
<path d="M248.5,770.5l0,-2" class="g2_340" />
<path d="M289.5,770.5l0,-2" class="g2_340" />
<path d="M290.5,770.5l146,0" class="g2_340" />
<path d="M436.5,770.5l0,-2" class="g2_340" />
<path d="M438.5,770.5l70,0" class="g2_340" />
<path d="M508.5,770.5l0,-2" class="g2_340" />
<path d="M509.5,770.5l378,0" class="g2_340" />
<path d="M887.5,770.5l0,-2" class="g2_340" />
<path d="M46.5,865.5l0,-95" class="g2_340" />
<path d="M85.5,865.5l0,-95" class="g2_340" />
<path d="M126.5,865.5l0,-95" class="g2_340" />
<path d="M167.5,865.5l0,-95" class="g2_340" />
<path d="M207.5,865.5l0,-95" class="g2_340" />
<path d="M248.5,865.5l0,-95" class="g2_340" />
<path d="M289.5,865.5l0,-95" class="g2_340" />
<path d="M436.5,865.5l0,-95" class="g2_340" />
<path d="M508.5,865.5l0,-95" class="g2_340" />
<path d="M887.5,865.5l0,-95" class="g2_340" />
<path fill-rule="evenodd" d="M47,914l38,0l0,-49l-38,0l0,49Z" class="g1_340" />
<path fill-rule="evenodd" d="M87,914l39,0l0,-49l-39,0l0,49Z" class="g1_340" />
<path fill-rule="evenodd" d="M127,914l40,0l0,-49l-40,0l0,49Z" class="g1_340" />
<path fill-rule="evenodd" d="M168,914l39,0l0,-49l-39,0l0,49Z" class="g1_340" />
<path fill-rule="evenodd" d="M290,914l146,0l0,-47l-146,0l0,47Z" class="g1_340" />
<g clip-path="url(#c27_340)">
<path fill-rule="evenodd" d="M298,891l131,0l0,-24l-131,0l0,24Z" class="g1_340" />
</g>
<path fill-rule="evenodd" d="M438,914l70,0l0,-47l-70,0l0,47Z" class="g1_340" />
<g clip-path="url(#c28_340)">
<path fill-rule="evenodd" d="M445,891l55,0l0,-24l-55,0l0,24Z" class="g1_340" />
</g>
<path fill-rule="evenodd" d="M509,914l378,0l0,-47l-378,0l0,47Z" class="g1_340" />
<g clip-path="url(#c29_340)">
<path fill-rule="evenodd" d="M517,891l363,0l0,-24l-363,0l0,24Z" class="g1_340" />
</g>
<path fill-rule="evenodd" d="M517,914l363,0l0,-23l-363,0l0,23Z" class="g1_340" />
<path d="M46.5,867.5l0,-2" class="g2_340" />
<path d="M85.5,867.5l0,-2" class="g2_340" />
<path d="M126.5,867.5l0,-2" class="g2_340" />
<path d="M167.5,867.5l0,-2" class="g2_340" />
<path d="M207.5,867.5l0,-2" class="g2_340" />
<path d="M248.5,867.5l0,-2" class="g2_340" />
<path d="M289.5,867.5l0,-2" class="g2_340" />
<path d="M290.5,867.5l146,0" class="g2_340" />
<path d="M436.5,867.5l0,-2" class="g2_340" />
<path d="M438.5,867.5l70,0" class="g2_340" />
<path d="M508.5,867.5l0,-2" class="g2_340" />
<path d="M509.5,867.5l378,0" class="g2_340" />
<path d="M887.5,867.5l0,-2" class="g2_340" />
<path d="M46.5,914.5l0,-47" class="g2_340" />
<path d="M85.5,914.5l0,-47" class="g2_340" />
<path d="M126.5,914.5l0,-47" class="g2_340" />
<path d="M167.5,914.5l0,-47" class="g2_340" />
<path d="M207.5,914.5l0,-47" class="g2_340" />
<path d="M248.5,914.5l0,-47" class="g2_340" />
<path d="M289.5,914.5l0,-47" class="g2_340" />
<path d="M436.5,914.5l0,-47" class="g2_340" />
<path d="M508.5,914.5l0,-47" class="g2_340" />
<path d="M887.5,914.5l0,-47" class="g2_340" />
<path fill-rule="evenodd" d="M47,940l38,0l0,-26l-38,0l0,26Z" class="g1_340" />
<path fill-rule="evenodd" d="M87,940l39,0l0,-26l-39,0l0,26Z" class="g1_340" />
<path fill-rule="evenodd" d="M127,940l40,0l0,-26l-40,0l0,26Z" class="g1_340" />
<path fill-rule="evenodd" d="M168,940l39,0l0,-26l-39,0l0,26Z" class="g1_340" />
<path fill-rule="evenodd" d="M290,940l146,0l0,-24l-146,0l0,24Z" class="g1_340" />
<g clip-path="url(#c30_340)">
<path fill-rule="evenodd" d="M298,940l131,0l0,-24l-131,0l0,24Z" class="g1_340" />
</g>
<path fill-rule="evenodd" d="M438,940l70,0l0,-24l-70,0l0,24Z" class="g1_340" />
<g clip-path="url(#c31_340)">
<path fill-rule="evenodd" d="M445,940l55,0l0,-24l-55,0l0,24Z" class="g1_340" />
</g>
<path fill-rule="evenodd" d="M509,940l378,0l0,-24l-378,0l0,24Z" class="g1_340" />
<g clip-path="url(#c32_340)">
<path fill-rule="evenodd" d="M517,940l363,0l0,-24l-363,0l0,24Z" class="g1_340" />
</g>
<path d="M46.5,916.5l0,-2" class="g2_340" />
<path d="M85.5,916.5l0,-2" class="g2_340" />
<path d="M126.5,916.5l0,-2" class="g2_340" />
<path d="M167.5,916.5l0,-2" class="g2_340" />
<path d="M207.5,916.5l0,-2" class="g2_340" />
<path d="M248.5,916.5l0,-2" class="g2_340" />
<path d="M289.5,916.5l0,-2" class="g2_340" />
<path d="M290.5,916.5l146,0" class="g2_340" />
<path d="M436.5,916.5l0,-2" class="g2_340" />
<path d="M438.5,916.5l70,0" class="g2_340" />
<path d="M508.5,916.5l0,-2" class="g2_340" />
<path d="M509.5,916.5l378,0" class="g2_340" />
<path d="M887.5,916.5l0,-2" class="g2_340" />
<path d="M46.5,940.5l0,-24" class="g2_340" />
<path d="M85.5,940.5l0,-24" class="g2_340" />
<path d="M126.5,940.5l0,-24" class="g2_340" />
<path d="M167.5,940.5l0,-24" class="g2_340" />
<path d="M207.5,940.5l0,-24" class="g2_340" />
<path d="M248.5,940.5l0,-24" class="g2_340" />
<path d="M289.5,940.5l0,-24" class="g2_340" />
<path d="M436.5,940.5l0,-24" class="g2_340" />
<path d="M508.5,940.5l0,-24" class="g2_340" />
<path d="M887.5,940.5l0,-24" class="g2_340" />
<path fill-rule="evenodd" d="M47,965l38,0l0,-25l-38,0l0,25Z" class="g1_340" />
<path fill-rule="evenodd" d="M87,965l39,0l0,-25l-39,0l0,25Z" class="g1_340" />
<path fill-rule="evenodd" d="M127,965l40,0l0,-25l-40,0l0,25Z" class="g1_340" />
<path fill-rule="evenodd" d="M168,965l39,0l0,-25l-39,0l0,25Z" class="g1_340" />
<path fill-rule="evenodd" d="M290,965l146,0l0,-24l-146,0l0,24Z" class="g1_340" />
<g clip-path="url(#c33_340)">
<path fill-rule="evenodd" d="M298,965l131,0l0,-24l-131,0l0,24Z" class="g1_340" />
</g>
<path fill-rule="evenodd" d="M438,965l70,0l0,-24l-70,0l0,24Z" class="g1_340" />
<g clip-path="url(#c34_340)">
<path fill-rule="evenodd" d="M445,965l55,0l0,-24l-55,0l0,24Z" class="g1_340" />
</g>
<path fill-rule="evenodd" d="M509,965l378,0l0,-24l-378,0l0,24Z" class="g1_340" />
<g clip-path="url(#c35_340)">
<path fill-rule="evenodd" d="M517,965l363,0l0,-24l-363,0l0,24Z" class="g1_340" />
</g>
<path d="M46.5,941.5l0,-1" class="g2_340" />
<path d="M85.5,941.5l0,-1" class="g2_340" />
<path d="M126.5,941.5l0,-1" class="g2_340" />
<path d="M167.5,941.5l0,-1" class="g2_340" />
<path d="M207.5,941.5l0,-1" class="g2_340" />
<path d="M248.5,941.5l0,-1" class="g2_340" />
<path d="M289.5,941.5l0,-1" class="g2_340" />
<path d="M290.5,941.5l146,0" class="g2_340" />
<path d="M436.5,941.5l0,-1" class="g2_340" />
<path d="M438.5,941.5l70,0" class="g2_340" />
<path d="M508.5,941.5l0,-1" class="g2_340" />
<path d="M509.5,941.5l378,0" class="g2_340" />
<path d="M887.5,941.5l0,-1" class="g2_340" />
<path d="M46.5,965.5l0,-24" class="g2_340" />
<path d="M85.5,965.5l0,-24" class="g2_340" />
<path d="M126.5,965.5l0,-24" class="g2_340" />
<path d="M167.5,965.5l0,-24" class="g2_340" />
<path d="M207.5,965.5l0,-24" class="g2_340" />
<path d="M248.5,965.5l0,-24" class="g2_340" />
<path d="M289.5,965.5l0,-24" class="g2_340" />
<path d="M436.5,965.5l0,-24" class="g2_340" />
<path d="M508.5,965.5l0,-24" class="g2_340" />
<path d="M887.5,965.5l0,-24" class="g2_340" />
<path fill-rule="evenodd" d="M47,991l38,0l0,-26l-38,0l0,26Z" class="g1_340" />
<path fill-rule="evenodd" d="M87,991l39,0l0,-26l-39,0l0,26Z" class="g1_340" />
<path fill-rule="evenodd" d="M127,991l40,0l0,-26l-40,0l0,26Z" class="g1_340" />
<path fill-rule="evenodd" d="M168,991l39,0l0,-26l-39,0l0,26Z" class="g1_340" />
<path fill-rule="evenodd" d="M290,991l146,0l0,-24l-146,0l0,24Z" class="g1_340" />
<g clip-path="url(#c36_340)">
<path fill-rule="evenodd" d="M298,991l131,0l0,-24l-131,0l0,24Z" class="g1_340" />
</g>
<path fill-rule="evenodd" d="M438,991l70,0l0,-24l-70,0l0,24Z" class="g1_340" />
<g clip-path="url(#c37_340)">
<path fill-rule="evenodd" d="M445,991l55,0l0,-24l-55,0l0,24Z" class="g1_340" />
</g>
<path fill-rule="evenodd" d="M509,991l378,0l0,-24l-378,0l0,24Z" class="g1_340" />
<g clip-path="url(#c38_340)">
<path fill-rule="evenodd" d="M517,991l363,0l0,-24l-363,0l0,24Z" class="g1_340" />
</g>
<path d="M46.5,967.5l0,-2" class="g2_340" />
<path d="M85.5,967.5l0,-2" class="g2_340" />
<path d="M126.5,967.5l0,-2" class="g2_340" />
<path d="M167.5,967.5l0,-2" class="g2_340" />
<path d="M207.5,967.5l0,-2" class="g2_340" />
<path d="M248.5,967.5l0,-2" class="g2_340" />
<path d="M289.5,967.5l0,-2" class="g2_340" />
<path d="M290.5,967.5l146,0" class="g2_340" />
<path d="M436.5,967.5l0,-2" class="g2_340" />
<path d="M438.5,967.5l70,0" class="g2_340" />
<path d="M508.5,967.5l0,-2" class="g2_340" />
<path d="M509.5,967.5l378,0" class="g2_340" />
<path d="M887.5,967.5l0,-2" class="g2_340" />
<path d="M46.5,991.5l0,-24" class="g2_340" />
<path d="M85.5,991.5l0,-24" class="g2_340" />
<path d="M126.5,991.5l0,-24" class="g2_340" />
<path d="M167.5,991.5l0,-24" class="g2_340" />
<path d="M207.5,991.5l0,-24" class="g2_340" />
<path d="M248.5,991.5l0,-24" class="g2_340" />
<path d="M289.5,991.5l0,-24" class="g2_340" />
<path d="M436.5,991.5l0,-24" class="g2_340" />
<path d="M508.5,991.5l0,-24" class="g2_340" />
<path d="M887.5,991.5l0,-24" class="g2_340" />
<path fill-rule="evenodd" d="M47,1040l38,0l0,-49l-38,0l0,49Z" class="g1_340" />
<path fill-rule="evenodd" d="M87,1040l39,0l0,-49l-39,0l0,49Z" class="g1_340" />
<path fill-rule="evenodd" d="M127,1040l40,0l0,-49l-40,0l0,49Z" class="g1_340" />
<path fill-rule="evenodd" d="M168,1040l39,0l0,-49l-39,0l0,49Z" class="g1_340" />
<path fill-rule="evenodd" d="M290,1040l146,0l0,-48l-146,0l0,48Z" class="g1_340" />
<path fill-rule="evenodd" d="M298,1016l131,0l0,-24l-131,0l0,24Z" class="g1_340" />
<path fill-rule="evenodd" d="M438,1040l70,0l0,-48l-70,0l0,48Z" class="g1_340" />
<path fill-rule="evenodd" d="M445,1016l55,0l0,-24l-55,0l0,24Z" class="g1_340" />
<path fill-rule="evenodd" d="M509,1040l378,0l0,-48l-378,0l0,48Z" class="g1_340" />
<path fill-rule="evenodd" d="M517,1016l363,0l0,-24l-363,0l0,24Z" class="g1_340" />
<g clip-path="url(#c39_340)">
<path fill-rule="evenodd" d="M517,1040l363,0l0,-24l-363,0l0,24Z" class="g1_340" />
</g>
<path d="M46.5,992.5l0,-1" class="g2_340" />
<path d="M85.5,992.5l0,-1" class="g2_340" />
<path d="M126.5,992.5l0,-1" class="g2_340" />
<path d="M167.5,992.5l0,-1" class="g2_340" />
<path d="M207.5,992.5l0,-1" class="g2_340" />
<path d="M248.5,992.5l0,-1" class="g2_340" />
<path d="M289.5,992.5l0,-1" class="g2_340" />
<path d="M290.5,992.5l146,0" class="g2_340" />
<path d="M436.5,992.5l0,-1" class="g2_340" />
<path d="M438.5,992.5l70,0" class="g2_340" />
<path d="M508.5,992.5l0,-1" class="g2_340" />
<path d="M509.5,992.5l378,0" class="g2_340" />
<path d="M887.5,992.5l0,-1" class="g2_340" />
<path d="M46.5,1040.5l0,-48" class="g2_340" />
<path d="M85.5,1040.5l0,-48" class="g2_340" />
<path d="M126.5,1040.5l0,-48" class="g2_340" />
<path d="M167.5,1040.5l0,-48" class="g2_340" />
<path d="M207.5,1040.5l0,-48" class="g2_340" />
<path d="M248.5,1040.5l0,-48" class="g2_340" />
<path d="M289.5,1040.5l0,-48" class="g2_340" />
<path d="M436.5,1040.5l0,-48" class="g2_340" />
<path d="M508.5,1040.5l0,-48" class="g2_340" />
<path d="M887.5,1040.5l0,-48" class="g2_340" />
<path fill-rule="evenodd" d="M47,1065l389,0l0,-24l-389,0l0,24Z" class="g1_340" />
<g clip-path="url(#c40_340)">
<path fill-rule="evenodd" d="M55,1065l374,0l0,-24l-374,0l0,24Z" class="g1_340" />
</g>
<path fill-rule="evenodd" d="M438,1065l70,0l0,-24l-70,0l0,24Z" class="g1_340" />
<g clip-path="url(#c41_340)">
<path fill-rule="evenodd" d="M445,1065l55,0l0,-24l-55,0l0,24Z" class="g1_340" />
</g>
<path fill-rule="evenodd" d="M509,1065l378,0l0,-24l-378,0l0,24Z" class="g1_340" />
<g clip-path="url(#c42_340)">
<path fill-rule="evenodd" d="M517,1065l363,0l0,-24l-363,0l0,24Z" class="g1_340" />
</g>
<path d="M46.5,1041.5l0,-1" class="g2_340" />
<path d="M47.5,1041.5l38,0" class="g2_340" />
<path d="M85.5,1041.5l0,-1" class="g2_340" />
<path d="M86.5,1041.5l40,0" class="g2_340" />
<path d="M126.5,1041.5l0,-1" class="g2_340" />
<path d="M127.5,1041.5l40,0" class="g2_340" />
<path d="M167.5,1041.5l0,-1" class="g2_340" />
<path d="M168.5,1041.5l39,0" class="g2_340" />
<path d="M207.5,1041.5l0,-1" class="g2_340" />
<path d="M209.5,1041.5l39,0" class="g2_340" />
<path d="M248.5,1041.5l0,-1" class="g2_340" />
<path d="M250.5,1041.5l39,0" class="g2_340" />
<path d="M289.5,1041.5l0,-1" class="g2_340" />
<path d="M290.5,1041.5l146,0" class="g2_340" />
<path d="M436.5,1041.5l0,-1" class="g2_340" />
<path d="M438.5,1041.5l70,0" class="g2_340" />
<path d="M508.5,1041.5l0,-1" class="g2_340" />
<path d="M509.5,1041.5l378,0" class="g2_340" />
<path d="M887.5,1041.5l0,-1" class="g2_340" />
<path d="M46.5,1065.5l0,-24" class="g2_340" />
<path d="M46.5,1067.5l0,-2" class="g2_340" />
<path d="M46.5,1067.5l0,-2" class="g2_340" />
<path d="M47.5,1067.5l389,0" class="g2_340" />
<path d="M436.5,1065.5l0,-24" class="g2_340" />
<path d="M436.5,1067.5l0,-2" class="g2_340" />
<path d="M438.5,1067.5l70,0" class="g2_340" />
<path d="M508.5,1065.5l0,-24" class="g2_340" />
<path d="M508.5,1067.5l0,-2" class="g2_340" />
<path d="M509.5,1067.5l378,0" class="g2_340" />
<path d="M887.5,1065.5l0,-24" class="g2_340" />
<path d="M887.5,1067.5l0,-2" class="g2_340" />
<path d="M887.5,1067.5l0,-2" class="g2_340" />
</svg>