<?xml version="1.0" encoding="UTF-8" standalone="no"?>
<!DOCTYPE svg PUBLIC "-//W3C//DTD SVG 1.1//EN"
"http://www.w3.org/Graphics/SVG/1.1/DTD/svg11.dtd">
<svg version="1.1" xmlns="http://www.w3.org/2000/svg" xmlns:xlink="http://www.w3.org/1999/xlink">
<defs>
<clipPath id="c0_314"><path d="M88.5,135.5l0,-24l325,0l0,24Z" /></clipPath>
<clipPath id="c1_314"><path d="M414.5,135.5l0,-24l100,0l0,24Z" /></clipPath>
<clipPath id="c2_314"><path d="M516.5,135.5l0,-24l371,0l0,24Z" /></clipPath>
<clipPath id="c3_314"><path d="M88.5,161.5l0,-24l325,0l0,24Z" /></clipPath>
<clipPath id="c4_314"><path d="M414.5,161.5l0,-24l100,0l0,24Z" /></clipPath>
<clipPath id="c5_314"><path d="M516.5,161.5l0,-24l371,0l0,24Z" /></clipPath>
<clipPath id="c6_314"><path d="M88.5,187.5l0,-24l325,0l0,24Z" /></clipPath>
<clipPath id="c7_314"><path d="M414.5,187.5l0,-24l100,0l0,24Z" /></clipPath>
<clipPath id="c8_314"><path d="M516.5,187.5l0,-24l371,0l0,24Z" /></clipPath>
<clipPath id="c9_314"><path d="M88.5,1080.5l0,-891l39,0l0,891Z" /></clipPath>
<clipPath id="c10_314"><path d="M129.5,1080.5l0,-891l39,0l0,891Z" /></clipPath>
<clipPath id="c11_314"><path d="M169.5,213.5l0,-24l244,0l0,24Z" /></clipPath>
<clipPath id="c12_314"><path d="M414.5,213.5l0,-24l100,0l0,24Z" /></clipPath>
<clipPath id="c13_314"><path d="M516.5,213.5l0,-24l371,0l0,24Z" /></clipPath>
<clipPath id="c14_314"><path d="M169.5,286.5l0,-72l244,0l0,72Z" /></clipPath>
<clipPath id="c15_314"><path d="M414.5,286.5l0,-72l100,0l0,72Z" /></clipPath>
<clipPath id="c16_314"><path d="M516.5,286.5l0,-72l371,0l0,72Z" /></clipPath>
<clipPath id="c17_314"><path d="M169.5,335.5l0,-48l244,0l0,48Z" /></clipPath>
<clipPath id="c18_314"><path d="M414.5,335.5l0,-48l100,0l0,48Z" /></clipPath>
<clipPath id="c19_314"><path d="M516.5,335.5l0,-48l371,0l0,48Z" /></clipPath>
<clipPath id="c20_314"><path d="M169.5,360.5l0,-24l244,0l0,24Z" /></clipPath>
<clipPath id="c21_314"><path d="M414.5,360.5l0,-24l100,0l0,24Z" /></clipPath>
<clipPath id="c22_314"><path d="M516.5,360.5l0,-24l371,0l0,24Z" /></clipPath>
<clipPath id="c23_314"><path d="M169.5,409.5l0,-47l244,0l0,47Z" /></clipPath>
<clipPath id="c24_314"><path d="M414.5,409.5l0,-47l100,0l0,47Z" /></clipPath>
<clipPath id="c25_314"><path d="M516.5,409.5l0,-47l371,0l0,47Z" /></clipPath>
<clipPath id="c26_314"><path d="M169.5,1080.5l0,-239l244,0l0,239Z" /></clipPath>
<clipPath id="c27_314"><path d="M414.5,1080.5l0,-239l100,0l0,239Z" /></clipPath>
<clipPath id="c28_314"><path d="M516.5,1080.5l0,-239l371,0l0,239Z" /></clipPath>
<style type="text/css"><![CDATA[
.g2_314{
fill: none;
stroke: #7E7E7E;
stroke-width: 1;
stroke-linecap: butt;
stroke-linejoin: miter;
}
.g1_314{
fill: #F1F1F1;
}
]]></style>
</defs>
<path fill-rule="evenodd" d="M47,135l39,0l0,-24l-39,0l0,24Z" class="g1_314" />
<path fill-rule="evenodd" d="M88,135l325,0l0,-24L88,111l0,24Z" class="g1_314" />
<g clip-path="url(#c0_314)">
<path fill-rule="evenodd" d="M95,135l310,0l0,-24L95,111l0,24Z" class="g1_314" />
</g>
<path fill-rule="evenodd" d="M414,135l100,0l0,-24l-100,0l0,24Z" class="g1_314" />
<g clip-path="url(#c1_314)">
<path fill-rule="evenodd" d="M422,135l85,0l0,-24l-85,0l0,24Z" class="g1_314" />
</g>
<path fill-rule="evenodd" d="M516,135l371,0l0,-24l-371,0l0,24Z" class="g1_314" />
<g clip-path="url(#c2_314)">
<path fill-rule="evenodd" d="M523,135l357,0l0,-24l-357,0l0,24Z" class="g1_314" />
</g>
<path d="M46.5,111.5l0,-1" class="g2_314" />
<path d="M46.5,111.5l0,-1" class="g2_314" />
<path d="M47.5,111.5l39,0" class="g2_314" />
<path d="M86.5,111.5l0,-1" class="g2_314" />
<path d="M88.5,111.5l325,0" class="g2_314" />
<path d="M413.5,111.5l0,-1" class="g2_314" />
<path d="M414.5,111.5l101,0" class="g2_314" />
<path d="M515.5,111.5l0,-1" class="g2_314" />
<path d="M516.5,111.5l371,0" class="g2_314" />
<path d="M887.5,111.5l0,-1" class="g2_314" />
<path d="M887.5,111.5l0,-1" class="g2_314" />
<path d="M46.5,135.5l0,-24" class="g2_314" />
<path d="M86.5,135.5l0,-24" class="g2_314" />
<path d="M413.5,135.5l0,-24" class="g2_314" />
<path d="M515.5,135.5l0,-24" class="g2_314" />
<path d="M887.5,135.5l0,-24" class="g2_314" />
<path fill-rule="evenodd" d="M47,161l39,0l0,-25l-39,0l0,25Z" class="g1_314" />
<path fill-rule="evenodd" d="M88,161l325,0l0,-24L88,137l0,24Z" class="g1_314" />
<g clip-path="url(#c3_314)">
<path fill-rule="evenodd" d="M95,161l310,0l0,-24L95,137l0,24Z" class="g1_314" />
</g>
<path fill-rule="evenodd" d="M414,161l100,0l0,-24l-100,0l0,24Z" class="g1_314" />
<g clip-path="url(#c4_314)">
<path fill-rule="evenodd" d="M422,161l85,0l0,-24l-85,0l0,24Z" class="g1_314" />
</g>
<path fill-rule="evenodd" d="M516,161l371,0l0,-24l-371,0l0,24Z" class="g1_314" />
<g clip-path="url(#c5_314)">
<path fill-rule="evenodd" d="M523,161l357,0l0,-24l-357,0l0,24Z" class="g1_314" />
</g>
<path d="M46.5,137.5l0,-2" class="g2_314" />
<path d="M86.5,137.5l0,-2" class="g2_314" />
<path d="M88.5,137.5l325,0" class="g2_314" />
<path d="M413.5,137.5l0,-2" class="g2_314" />
<path d="M414.5,137.5l101,0" class="g2_314" />
<path d="M515.5,137.5l0,-2" class="g2_314" />
<path d="M516.5,137.5l371,0" class="g2_314" />
<path d="M887.5,137.5l0,-2" class="g2_314" />
<path d="M46.5,161.5l0,-24" class="g2_314" />
<path d="M86.5,161.5l0,-24" class="g2_314" />
<path d="M413.5,161.5l0,-24" class="g2_314" />
<path d="M515.5,161.5l0,-24" class="g2_314" />
<path d="M887.5,161.5l0,-24" class="g2_314" />
<path fill-rule="evenodd" d="M47,187l39,0l0,-26l-39,0l0,26Z" class="g1_314" />
<path fill-rule="evenodd" d="M88,187l325,0l0,-24L88,163l0,24Z" class="g1_314" />
<g clip-path="url(#c6_314)">
<path fill-rule="evenodd" d="M95,187l310,0l0,-24L95,163l0,24Z" class="g1_314" />
</g>
<path fill-rule="evenodd" d="M414,187l100,0l0,-24l-100,0l0,24Z" class="g1_314" />
<g clip-path="url(#c7_314)">
<path fill-rule="evenodd" d="M422,187l85,0l0,-24l-85,0l0,24Z" class="g1_314" />
</g>
<path fill-rule="evenodd" d="M516,187l371,0l0,-24l-371,0l0,24Z" class="g1_314" />
<g clip-path="url(#c8_314)">
<path fill-rule="evenodd" d="M523,187l357,0l0,-24l-357,0l0,24Z" class="g1_314" />
</g>
<path d="M46.5,163.5l0,-2" class="g2_314" />
<path d="M86.5,163.5l0,-2" class="g2_314" />
<path d="M88.5,163.5l325,0" class="g2_314" />
<path d="M413.5,163.5l0,-2" class="g2_314" />
<path d="M414.5,163.5l101,0" class="g2_314" />
<path d="M515.5,163.5l0,-2" class="g2_314" />
<path d="M516.5,163.5l371,0" class="g2_314" />
<path d="M887.5,163.5l0,-2" class="g2_314" />
<path d="M46.5,187.5l0,-24" class="g2_314" />
<path d="M86.5,187.5l0,-24" class="g2_314" />
<path d="M413.5,187.5l0,-24" class="g2_314" />
<path d="M515.5,187.5l0,-24" class="g2_314" />
<path d="M887.5,187.5l0,-24" class="g2_314" />
<path fill-rule="evenodd" d="M47,213l39,0l0,-26l-39,0l0,26Z" class="g1_314" />
<path fill-rule="evenodd" d="M88,1080l39,0l0,-891l-39,0l0,891Z" class="g1_314" />
<g clip-path="url(#c9_314)">
<path fill-rule="evenodd" d="M95,1080l24,0l0,-891l-24,0l0,891Z" class="g1_314" />
<path fill-rule="evenodd" d="M119,1080l8,0l0,-891l-8,0l0,891Z" class="g1_314" />
</g>
<path fill-rule="evenodd" d="M129,1080l39,0l0,-891l-39,0l0,891Z" class="g1_314" />
<g clip-path="url(#c10_314)">
<path fill-rule="evenodd" d="M136,1080l24,0l0,-891l-24,0l0,891Z" class="g1_314" />
</g>
<path fill-rule="evenodd" d="M169,213l244,0l0,-24l-244,0l0,24Z" class="g1_314" />
<g clip-path="url(#c11_314)">
<path fill-rule="evenodd" d="M177,213l228,0l0,-24l-228,0l0,24Z" class="g1_314" />
</g>
<path fill-rule="evenodd" d="M414,213l100,0l0,-24l-100,0l0,24Z" class="g1_314" />
<g clip-path="url(#c12_314)">
<path fill-rule="evenodd" d="M422,213l85,0l0,-24l-85,0l0,24Z" class="g1_314" />
</g>
<path fill-rule="evenodd" d="M516,213l371,0l0,-24l-371,0l0,24Z" class="g1_314" />
<g clip-path="url(#c13_314)">
<path fill-rule="evenodd" d="M523,213l357,0l0,-24l-357,0l0,24Z" class="g1_314" />
</g>
<path d="M46.5,189.5l0,-2" class="g2_314" />
<path d="M86.5,189.5l0,-2" class="g2_314" />
<path d="M88.5,189.5l39,0" class="g2_314" />
<path d="M127.5,189.5l0,-2" class="g2_314" />
<path d="M129.5,189.5l39,0" class="g2_314" />
<path d="M168.5,189.5l0,-2" class="g2_314" />
<path d="M169.5,189.5l244,0" class="g2_314" />
<path d="M413.5,189.5l0,-2" class="g2_314" />
<path d="M414.5,189.5l101,0" class="g2_314" />
<path d="M515.5,189.5l0,-2" class="g2_314" />
<path d="M516.5,189.5l371,0" class="g2_314" />
<path d="M887.5,189.5l0,-2" class="g2_314" />
<path d="M46.5,213.5l0,-24" class="g2_314" />
<path d="M86.5,213.5l0,-24" class="g2_314" />
<path d="M127.5,213.5l0,-24" class="g2_314" />
<path d="M168.5,213.5l0,-24" class="g2_314" />
<path d="M413.5,213.5l0,-24" class="g2_314" />
<path d="M515.5,213.5l0,-24" class="g2_314" />
<path d="M887.5,213.5l0,-24" class="g2_314" />
<path fill-rule="evenodd" d="M47,286l39,0l0,-73l-39,0l0,73Z" class="g1_314" />
<path fill-rule="evenodd" d="M169,286l244,0l0,-72l-244,0l0,72Z" class="g1_314" />
<g clip-path="url(#c14_314)">
<path fill-rule="evenodd" d="M177,238l228,0l0,-24l-228,0l0,24Z" class="g1_314" />
</g>
<path fill-rule="evenodd" d="M414,286l100,0l0,-72l-100,0l0,72Z" class="g1_314" />
<g clip-path="url(#c15_314)">
<path fill-rule="evenodd" d="M422,238l85,0l0,-24l-85,0l0,24Z" class="g1_314" />
</g>
<path fill-rule="evenodd" d="M516,286l371,0l0,-72l-371,0l0,72Z" class="g1_314" />
<g clip-path="url(#c16_314)">
<path fill-rule="evenodd" d="M523,238l357,0l0,-24l-357,0l0,24Z" class="g1_314" />
</g>
<path fill-rule="evenodd" d="M523,262l357,0l0,-24l-357,0l0,24Z" class="g1_314" />
<path fill-rule="evenodd" d="M523,286l357,0l0,-24l-357,0l0,24Z" class="g1_314" />
<path d="M46.5,214.5l0,-1" class="g2_314" />
<path d="M86.5,214.5l0,-1" class="g2_314" />
<path d="M127.5,214.5l0,-1" class="g2_314" />
<path d="M168.5,214.5l0,-1" class="g2_314" />
<path d="M169.5,214.5l244,0" class="g2_314" />
<path d="M413.5,214.5l0,-1" class="g2_314" />
<path d="M414.5,214.5l101,0" class="g2_314" />
<path d="M515.5,214.5l0,-1" class="g2_314" />
<path d="M516.5,214.5l371,0" class="g2_314" />
<path d="M887.5,214.5l0,-1" class="g2_314" />
<path d="M46.5,286.5l0,-72" class="g2_314" />
<path d="M86.5,286.5l0,-72" class="g2_314" />
<path d="M127.5,286.5l0,-72" class="g2_314" />
<path d="M168.5,286.5l0,-72" class="g2_314" />
<path d="M413.5,286.5l0,-72" class="g2_314" />
<path d="M515.5,286.5l0,-72" class="g2_314" />
<path d="M887.5,286.5l0,-72" class="g2_314" />
<path fill-rule="evenodd" d="M47,335l39,0l0,-49l-39,0l0,49Z" class="g1_314" />
<path fill-rule="evenodd" d="M169,335l244,0l0,-48l-244,0l0,48Z" class="g1_314" />
<g clip-path="url(#c17_314)">
<path fill-rule="evenodd" d="M177,311l228,0l0,-24l-228,0l0,24Z" class="g1_314" />
</g>
<path fill-rule="evenodd" d="M414,335l100,0l0,-48l-100,0l0,48Z" class="g1_314" />
<g clip-path="url(#c18_314)">
<path fill-rule="evenodd" d="M422,311l85,0l0,-24l-85,0l0,24Z" class="g1_314" />
</g>
<path fill-rule="evenodd" d="M516,335l371,0l0,-48l-371,0l0,48Z" class="g1_314" />
<g clip-path="url(#c19_314)">
<path fill-rule="evenodd" d="M523,311l357,0l0,-24l-357,0l0,24Z" class="g1_314" />
</g>
<path fill-rule="evenodd" d="M523,335l357,0l0,-24l-357,0l0,24Z" class="g1_314" />
<path d="M46.5,287.5l0,-1" class="g2_314" />
<path d="M86.5,287.5l0,-1" class="g2_314" />
<path d="M127.5,287.5l0,-1" class="g2_314" />
<path d="M168.5,287.5l0,-1" class="g2_314" />
<path d="M169.5,287.5l244,0" class="g2_314" />
<path d="M413.5,287.5l0,-1" class="g2_314" />
<path d="M414.5,287.5l101,0" class="g2_314" />
<path d="M515.5,287.5l0,-1" class="g2_314" />
<path d="M516.5,287.5l371,0" class="g2_314" />
<path d="M887.5,287.5l0,-1" class="g2_314" />
<path d="M46.5,335.5l0,-48" class="g2_314" />
<path d="M86.5,335.5l0,-48" class="g2_314" />
<path d="M127.5,335.5l0,-48" class="g2_314" />
<path d="M168.5,335.5l0,-48" class="g2_314" />
<path d="M413.5,335.5l0,-48" class="g2_314" />
<path d="M515.5,335.5l0,-48" class="g2_314" />
<path d="M887.5,335.5l0,-48" class="g2_314" />
<path fill-rule="evenodd" d="M47,360l39,0l0,-25l-39,0l0,25Z" class="g1_314" />
<path fill-rule="evenodd" d="M169,360l244,0l0,-24l-244,0l0,24Z" class="g1_314" />
<g clip-path="url(#c20_314)">
<path fill-rule="evenodd" d="M177,360l228,0l0,-24l-228,0l0,24Z" class="g1_314" />
</g>
<path fill-rule="evenodd" d="M414,360l100,0l0,-24l-100,0l0,24Z" class="g1_314" />
<g clip-path="url(#c21_314)">
<path fill-rule="evenodd" d="M422,360l85,0l0,-24l-85,0l0,24Z" class="g1_314" />
</g>
<path fill-rule="evenodd" d="M516,360l371,0l0,-24l-371,0l0,24Z" class="g1_314" />
<g clip-path="url(#c22_314)">
<path fill-rule="evenodd" d="M523,360l357,0l0,-24l-357,0l0,24Z" class="g1_314" />
</g>
<path d="M46.5,336.5l0,-1" class="g2_314" />
<path d="M86.5,336.5l0,-1" class="g2_314" />
<path d="M127.5,336.5l0,-1" class="g2_314" />
<path d="M168.5,336.5l0,-1" class="g2_314" />
<path d="M169.5,336.5l244,0" class="g2_314" />
<path d="M413.5,336.5l0,-1" class="g2_314" />
<path d="M414.5,336.5l101,0" class="g2_314" />
<path d="M515.5,336.5l0,-1" class="g2_314" />
<path d="M516.5,336.5l371,0" class="g2_314" />
<path d="M887.5,336.5l0,-1" class="g2_314" />
<path d="M46.5,360.5l0,-24" class="g2_314" />
<path d="M86.5,360.5l0,-24" class="g2_314" />
<path d="M127.5,360.5l0,-24" class="g2_314" />
<path d="M168.5,360.5l0,-24" class="g2_314" />
<path d="M413.5,360.5l0,-24" class="g2_314" />
<path d="M515.5,360.5l0,-24" class="g2_314" />
<path d="M887.5,360.5l0,-24" class="g2_314" />
<path fill-rule="evenodd" d="M47,409l39,0l0,-49l-39,0l0,49Z" class="g1_314" />
<path fill-rule="evenodd" d="M169,409l244,0l0,-47l-244,0l0,47Z" class="g1_314" />
<g clip-path="url(#c23_314)">
<path fill-rule="evenodd" d="M177,385l228,0l0,-23l-228,0l0,23Z" class="g1_314" />
</g>
<path fill-rule="evenodd" d="M414,409l100,0l0,-47l-100,0l0,47Z" class="g1_314" />
<g clip-path="url(#c24_314)">
<path fill-rule="evenodd" d="M422,385l85,0l0,-23l-85,0l0,23Z" class="g1_314" />
</g>
<path fill-rule="evenodd" d="M516,409l371,0l0,-47l-371,0l0,47Z" class="g1_314" />
<g clip-path="url(#c25_314)">
<path fill-rule="evenodd" d="M523,385l357,0l0,-23l-357,0l0,23Z" class="g1_314" />
</g>
<path fill-rule="evenodd" d="M523,409l357,0l0,-24l-357,0l0,24Z" class="g1_314" />
<path d="M46.5,362.5l0,-2" class="g2_314" />
<path d="M86.5,362.5l0,-2" class="g2_314" />
<path d="M127.5,362.5l0,-2" class="g2_314" />
<path d="M168.5,362.5l0,-2" class="g2_314" />
<path d="M169.5,362.5l244,0" class="g2_314" />
<path d="M413.5,362.5l0,-2" class="g2_314" />
<path d="M414.5,362.5l101,0" class="g2_314" />
<path d="M515.5,362.5l0,-2" class="g2_314" />
<path d="M516.5,362.5l371,0" class="g2_314" />
<path d="M887.5,362.5l0,-2" class="g2_314" />
<path d="M46.5,409.5l0,-47" class="g2_314" />
<path d="M86.5,409.5l0,-47" class="g2_314" />
<path d="M127.5,409.5l0,-47" class="g2_314" />
<path d="M168.5,409.5l0,-47" class="g2_314" />
<path d="M413.5,409.5l0,-47" class="g2_314" />
<path d="M515.5,409.5l0,-47" class="g2_314" />
<path d="M887.5,409.5l0,-47" class="g2_314" />
<path fill-rule="evenodd" d="M47,840l39,0L86,410l-39,0l0,430Z" class="g1_314" />
<path fill-rule="evenodd" d="M169,840l244,0l0,-429l-244,0l0,429Z" class="g1_314" />
<path fill-rule="evenodd" d="M177,435l228,0l0,-24l-228,0l0,24Z" class="g1_314" />
<path fill-rule="evenodd" d="M414,840l100,0l0,-429l-100,0l0,429Z" class="g1_314" />
<path fill-rule="evenodd" d="M422,435l85,0l0,-24l-85,0l0,24Z" class="g1_314" />
<path fill-rule="evenodd" d="M516,840l371,0l0,-429l-371,0l0,429Z" class="g1_314" />
<path fill-rule="evenodd" d="M523,435l357,0l0,-24l-357,0l0,24Z" class="g1_314" />
<path fill-rule="evenodd" d="M523,459l357,0l0,-24l-357,0l0,24Z" class="g1_314" />
<path fill-rule="evenodd" d="M523,482l357,0l0,-23l-357,0l0,23Z" class="g1_314" />
<path fill-rule="evenodd" d="M523,506l357,0l0,-24l-357,0l0,24Z" class="g1_314" />
<path fill-rule="evenodd" d="M523,530l357,0l0,-24l-357,0l0,24Z" class="g1_314" />
<path fill-rule="evenodd" d="M523,554l357,0l0,-24l-357,0l0,24Z" class="g1_314" />
<path fill-rule="evenodd" d="M523,578l357,0l0,-24l-357,0l0,24Z" class="g1_314" />
<path fill-rule="evenodd" d="M523,602l357,0l0,-24l-357,0l0,24Z" class="g1_314" />
<path fill-rule="evenodd" d="M523,625l357,0l0,-23l-357,0l0,23Z" class="g1_314" />
<path fill-rule="evenodd" d="M523,649l357,0l0,-24l-357,0l0,24Z" class="g1_314" />
<path fill-rule="evenodd" d="M523,673l357,0l0,-24l-357,0l0,24Z" class="g1_314" />
<path fill-rule="evenodd" d="M523,697l357,0l0,-24l-357,0l0,24Z" class="g1_314" />
<path fill-rule="evenodd" d="M523,721l357,0l0,-24l-357,0l0,24Z" class="g1_314" />
<path fill-rule="evenodd" d="M523,745l357,0l0,-24l-357,0l0,24Z" class="g1_314" />
<path fill-rule="evenodd" d="M523,769l357,0l0,-24l-357,0l0,24Z" class="g1_314" />
<path fill-rule="evenodd" d="M523,792l357,0l0,-23l-357,0l0,23Z" class="g1_314" />
<path fill-rule="evenodd" d="M523,816l357,0l0,-24l-357,0l0,24Z" class="g1_314" />
<path fill-rule="evenodd" d="M523,840l357,0l0,-24l-357,0l0,24Z" class="g1_314" />
<path d="M46.5,411.5l0,-2" class="g2_314" />
<path d="M86.5,411.5l0,-2" class="g2_314" />
<path d="M127.5,411.5l0,-2" class="g2_314" />
<path d="M168.5,411.5l0,-2" class="g2_314" />
<path d="M169.5,411.5l244,0" class="g2_314" />
<path d="M413.5,411.5l0,-2" class="g2_314" />
<path d="M414.5,411.5l101,0" class="g2_314" />
<path d="M515.5,411.5l0,-2" class="g2_314" />
<path d="M516.5,411.5l371,0" class="g2_314" />
<path d="M887.5,411.5l0,-2" class="g2_314" />
<path d="M46.5,840.5l0,-429" class="g2_314" />
<path d="M86.5,840.5l0,-429" class="g2_314" />
<path d="M127.5,840.5l0,-429" class="g2_314" />
<path d="M168.5,840.5l0,-429" class="g2_314" />
<path d="M413.5,840.5l0,-429" class="g2_314" />
<path d="M515.5,840.5l0,-429" class="g2_314" />
<path d="M887.5,840.5l0,-429" class="g2_314" />
<path fill-rule="evenodd" d="M47,1080l39,0L86,840l-39,0l0,240Z" class="g1_314" />
<path fill-rule="evenodd" d="M169,1080l244,0l0,-239l-244,0l0,239Z" class="g1_314" />
<g clip-path="url(#c26_314)">
<path fill-rule="evenodd" d="M177,865l228,0l0,-24l-228,0l0,24Z" class="g1_314" />
</g>
<path fill-rule="evenodd" d="M414,1080l100,0l0,-239l-100,0l0,239Z" class="g1_314" />
<g clip-path="url(#c27_314)">
<path fill-rule="evenodd" d="M422,865l85,0l0,-24l-85,0l0,24Z" class="g1_314" />
</g>
<path fill-rule="evenodd" d="M516,1080l371,0l0,-239l-371,0l0,239Z" class="g1_314" />
<g clip-path="url(#c28_314)">
<path fill-rule="evenodd" d="M523,865l357,0l0,-24l-357,0l0,24Z" class="g1_314" />
</g>
<path fill-rule="evenodd" d="M523,889l357,0l0,-24l-357,0l0,24Z" class="g1_314" />
<path fill-rule="evenodd" d="M523,913l357,0l0,-24l-357,0l0,24Z" class="g1_314" />
<path fill-rule="evenodd" d="M523,937l357,0l0,-24l-357,0l0,24Z" class="g1_314" />
<path fill-rule="evenodd" d="M523,961l357,0l0,-24l-357,0l0,24Z" class="g1_314" />
<path fill-rule="evenodd" d="M523,985l357,0l0,-24l-357,0l0,24Z" class="g1_314" />
<path fill-rule="evenodd" d="M523,1008l357,0l0,-23l-357,0l0,23Z" class="g1_314" />
<path fill-rule="evenodd" d="M523,1032l357,0l0,-24l-357,0l0,24Z" class="g1_314" />
<path fill-rule="evenodd" d="M523,1056l357,0l0,-24l-357,0l0,24Z" class="g1_314" />
<g clip-path="url(#c28_314)">
<path fill-rule="evenodd" d="M523,1080l357,0l0,-24l-357,0l0,24Z" class="g1_314" />
</g>
<path d="M46.5,841.5l0,-1" class="g2_314" />
<path d="M86.5,841.5l0,-1" class="g2_314" />
<path d="M127.5,841.5l0,-1" class="g2_314" />
<path d="M168.5,841.5l0,-1" class="g2_314" />
<path d="M169.5,841.5l244,0" class="g2_314" />
<path d="M413.5,841.5l0,-1" class="g2_314" />
<path d="M414.5,841.5l101,0" class="g2_314" />
<path d="M515.5,841.5l0,-1" class="g2_314" />
<path d="M516.5,841.5l371,0" class="g2_314" />
<path d="M887.5,841.5l0,-1" class="g2_314" />
<path d="M46.5,1080.5l0,-239" class="g2_314" />
<path d="M46.5,1081.5l0,-1" class="g2_314" />
<path d="M46.5,1081.5l0,-1" class="g2_314" />
<path d="M47.5,1081.5l39,0" class="g2_314" />
<path d="M86.5,1080.5l0,-239" class="g2_314" />
<path d="M86.5,1081.5l0,-1" class="g2_314" />
<path d="M88.5,1081.5l39,0" class="g2_314" />
<path d="M127.5,1080.5l0,-239" class="g2_314" />
<path d="M127.5,1081.5l0,-1" class="g2_314" />
<path d="M129.5,1081.5l39,0" class="g2_314" />
<path d="M168.5,1080.5l0,-239" class="g2_314" />
<path d="M168.5,1081.5l0,-1" class="g2_314" />
<path d="M169.5,1081.5l244,0" class="g2_314" />
<path d="M413.5,1080.5l0,-239" class="g2_314" />
<path d="M413.5,1081.5l0,-1" class="g2_314" />
<path d="M414.5,1081.5l101,0" class="g2_314" />
<path d="M515.5,1080.5l0,-239" class="g2_314" />
<path d="M515.5,1081.5l0,-1" class="g2_314" />
<path d="M516.5,1081.5l371,0" class="g2_314" />
<path d="M887.5,1080.5l0,-239" class="g2_314" />
<path d="M887.5,1081.5l0,-1" class="g2_314" />
<path d="M887.5,1081.5l0,-1" class="g2_314" />
</svg>