<?xml version="1.0" encoding="UTF-8" standalone="no"?>
<!DOCTYPE svg PUBLIC "-//W3C//DTD SVG 1.1//EN"
"http://www.w3.org/Graphics/SVG/1.1/DTD/svg11.dtd">
<svg version="1.1" xmlns="http://www.w3.org/2000/svg" xmlns:xlink="http://www.w3.org/1999/xlink">
<defs>
<clipPath id="c0_131"><path d="M47.5,302.5l0,-191l840,0l0,191Z" /></clipPath>
<clipPath id="c1_131"><path d="M47.5,877.5l0,-501l840,0l0,501Z" /></clipPath>
<style type="text/css"><![CDATA[
.g2_131{
fill: none;
stroke: #7E7E7E;
stroke-width: 1;
stroke-linecap: butt;
stroke-linejoin: miter;
}
.g1_131{
fill: #F1F1F1;
}
]]></style>
</defs>
<path fill-rule="evenodd" d="M47,302l840,0l0,-191L47,111l0,191Z" class="g1_131" />
<g clip-path="url(#c0_131)">
<path fill-rule="evenodd" d="M55,135l825,0l0,-24L55,111l0,24Z" class="g1_131" />
</g>
<path fill-rule="evenodd" d="M55,159l825,0l0,-24L55,135l0,24Z" class="g1_131" />
<path fill-rule="evenodd" d="M55,182l825,0l0,-23L55,159l0,23Z" class="g1_131" />
<path fill-rule="evenodd" d="M55,206l825,0l0,-24L55,182l0,24Z" class="g1_131" />
<path fill-rule="evenodd" d="M55,230l825,0l0,-24L55,206l0,24Z" class="g1_131" />
<path fill-rule="evenodd" d="M55,254l825,0l0,-24L55,230l0,24Z" class="g1_131" />
<path fill-rule="evenodd" d="M55,278l825,0l0,-24L55,254l0,24Z" class="g1_131" />
<path fill-rule="evenodd" d="M55,302l825,0l0,-24L55,278l0,24Z" class="g1_131" />
<path d="M46.5,111.5l0,-1" class="g2_131" />
<path d="M46.5,111.5l0,-1" class="g2_131" />
<path d="M47.5,111.5l840,0" class="g2_131" />
<path d="M887.5,111.5l0,-1" class="g2_131" />
<path d="M887.5,111.5l0,-1" class="g2_131" />
<path d="M46.5,302.5l0,-191" class="g2_131" />
<path d="M46.5,303.5l0,-1" class="g2_131" />
<path d="M46.5,303.5l0,-1" class="g2_131" />
<path d="M47.5,303.5l840,0" class="g2_131" />
<path d="M887.5,302.5l0,-191" class="g2_131" />
<path d="M887.5,303.5l0,-1" class="g2_131" />
<path d="M887.5,303.5l0,-1" class="g2_131" />
<path fill-rule="evenodd" d="M47,877l840,0l0,-501L47,376l0,501Z" class="g1_131" />
<g clip-path="url(#c1_131)">
<path fill-rule="evenodd" d="M55,400l825,0l0,-24L55,376l0,24Z" class="g1_131" />
</g>
<path fill-rule="evenodd" d="M55,424l825,0l0,-24L55,400l0,24Z" class="g1_131" />
<path fill-rule="evenodd" d="M55,448l825,0l0,-24L55,424l0,24Z" class="g1_131" />
<path fill-rule="evenodd" d="M55,472l825,0l0,-24L55,448l0,24Z" class="g1_131" />
<path fill-rule="evenodd" d="M55,495l825,0l0,-23L55,472l0,23Z" class="g1_131" />
<path fill-rule="evenodd" d="M55,519l825,0l0,-24L55,495l0,24Z" class="g1_131" />
<path fill-rule="evenodd" d="M55,543l825,0l0,-24L55,519l0,24Z" class="g1_131" />
<path fill-rule="evenodd" d="M55,567l825,0l0,-24L55,543l0,24Z" class="g1_131" />
<path fill-rule="evenodd" d="M55,591l825,0l0,-24L55,567l0,24Z" class="g1_131" />
<path fill-rule="evenodd" d="M55,615l825,0l0,-24L55,591l0,24Z" class="g1_131" />
<path fill-rule="evenodd" d="M55,638l825,0l0,-23L55,615l0,23Z" class="g1_131" />
<path fill-rule="evenodd" d="M55,662l825,0l0,-24L55,638l0,24Z" class="g1_131" />
<path fill-rule="evenodd" d="M55,686l825,0l0,-24L55,662l0,24Z" class="g1_131" />
<path fill-rule="evenodd" d="M55,710l825,0l0,-24L55,686l0,24Z" class="g1_131" />
<path fill-rule="evenodd" d="M55,734l825,0l0,-24L55,710l0,24Z" class="g1_131" />
<path fill-rule="evenodd" d="M55,758l825,0l0,-24L55,734l0,24Z" class="g1_131" />
<path fill-rule="evenodd" d="M55,782l825,0l0,-24L55,758l0,24Z" class="g1_131" />
<path fill-rule="evenodd" d="M55,805l825,0l0,-23L55,782l0,23Z" class="g1_131" />
<path fill-rule="evenodd" d="M55,829l825,0l0,-24L55,805l0,24Z" class="g1_131" />
<path fill-rule="evenodd" d="M55,853l825,0l0,-24L55,829l0,24Z" class="g1_131" />
<path fill-rule="evenodd" d="M55,877l825,0l0,-24L55,853l0,24Z" class="g1_131" />
<path d="M46.5,376.5l0,-1" class="g2_131" />
<path d="M46.5,376.5l0,-1" class="g2_131" />
<path d="M47.5,376.5l840,0" class="g2_131" />
<path d="M887.5,376.5l0,-1" class="g2_131" />
<path d="M887.5,376.5l0,-1" class="g2_131" />
<path d="M46.5,877.5l0,-501" class="g2_131" />
<path d="M46.5,878.5l0,-1" class="g2_131" />
<path d="M46.5,878.5l0,-1" class="g2_131" />
<path d="M47.5,878.5l840,0" class="g2_131" />
<path d="M887.5,877.5l0,-501" class="g2_131" />
<path d="M887.5,878.5l0,-1" class="g2_131" />
<path d="M887.5,878.5l0,-1" class="g2_131" />
</svg>