<?xml version="1.0" encoding="UTF-8" standalone="no"?>
<!DOCTYPE svg PUBLIC "-//W3C//DTD SVG 1.1//EN"
"http://www.w3.org/Graphics/SVG/1.1/DTD/svg11.dtd">
<svg version="1.1" xmlns="http://www.w3.org/2000/svg" xmlns:xlink="http://www.w3.org/1999/xlink">
<defs>
<clipPath id="c0_167"><path d="M47.5,238.5l0,-127l840,0l0,127Z" /></clipPath>
<clipPath id="c1_167"><path d="M47.5,237.5l0,-126l840,0l0,126Z" /></clipPath>
<clipPath id="c2_167"><path d="M47.5,374.5l0,-25l330,0l0,25Z" /></clipPath>
<clipPath id="c3_167"><path d="M379.5,374.5l0,-25l60,0l0,25Z" /></clipPath>
<clipPath id="c4_167"><path d="M441.5,374.5l0,-25l445,0l0,25Z" /></clipPath>
<clipPath id="c5_167"><path d="M47.5,870.5l0,-495l33,0l0,495Z" /></clipPath>
<clipPath id="c6_167"><path d="M81.5,423.5l0,-48l296,0l0,48Z" /></clipPath>
<clipPath id="c7_167"><path d="M379.5,423.5l0,-48l60,0l0,48Z" /></clipPath>
<clipPath id="c8_167"><path d="M441.5,423.5l0,-48l445,0l0,48Z" /></clipPath>
<clipPath id="c9_167"><path d="M81.5,870.5l0,-393l28,0l0,393Z" /></clipPath>
<clipPath id="c10_167"><path d="M172.5,529.5l0,-25l205,0l0,25Z" /></clipPath>
<clipPath id="c11_167"><path d="M379.5,529.5l0,-25l60,0l0,25Z" /></clipPath>
<clipPath id="c12_167"><path d="M441.5,529.5l0,-25l445,0l0,25Z" /></clipPath>
<clipPath id="c13_167"><path d="M192.5,698.5l0,-71l185,0l0,71Z" /></clipPath>
<clipPath id="c14_167"><path d="M379.5,698.5l0,-71l60,0l0,71Z" /></clipPath>
<clipPath id="c15_167"><path d="M441.5,698.5l0,-71l445,0l0,71Z" /></clipPath>
<clipPath id="c16_167"><path d="M192.5,732.5l0,-32l185,0l0,32Z" /></clipPath>
<clipPath id="c17_167"><path d="M379.5,732.5l0,-32l60,0l0,32Z" /></clipPath>
<clipPath id="c18_167"><path d="M441.5,732.5l0,-32l445,0l0,32Z" /></clipPath>
<clipPath id="c19_167"><path d="M192.5,767.5l0,-33l185,0l0,33Z" /></clipPath>
<clipPath id="c20_167"><path d="M379.5,767.5l0,-33l60,0l0,33Z" /></clipPath>
<clipPath id="c21_167"><path d="M441.5,767.5l0,-33l445,0l0,33Z" /></clipPath>
<clipPath id="c22_167"><path d="M192.5,801.5l0,-33l185,0l0,33Z" /></clipPath>
<clipPath id="c23_167"><path d="M379.5,801.5l0,-33l60,0l0,33Z" /></clipPath>
<clipPath id="c24_167"><path d="M441.5,801.5l0,-33l445,0l0,33Z" /></clipPath>
<clipPath id="c25_167"><path d="M192.5,836.5l0,-33l185,0l0,33Z" /></clipPath>
<clipPath id="c26_167"><path d="M379.5,836.5l0,-33l60,0l0,33Z" /></clipPath>
<clipPath id="c27_167"><path d="M441.5,836.5l0,-33l445,0l0,33Z" /></clipPath>
<clipPath id="c28_167"><path d="M192.5,870.5l0,-33l185,0l0,33Z" /></clipPath>
<clipPath id="c29_167"><path d="M379.5,870.5l0,-33l60,0l0,33Z" /></clipPath>
<clipPath id="c30_167"><path d="M441.5,870.5l0,-33l445,0l0,33Z" /></clipPath>
<style type="text/css"><![CDATA[
.g2_167{
fill: none;
stroke: #F0F0E0;
stroke-width: 1;
stroke-linecap: butt;
stroke-linejoin: miter;
}
.g3_167{
fill: none;
stroke: #7E7E7E;
stroke-width: 1;
stroke-linecap: butt;
stroke-linejoin: miter;
}
.g4_167{
fill: #DBE5F1;
}
.g1_167{
fill: #F1F1F1;
}
]]></style>
</defs>
<path fill-rule="evenodd" d="M47,237l840,0l0,-126L47,111l0,126Z" class="g1_167" />
<g clip-path="url(#c0_167)">
<path fill-rule="evenodd" d="M55,135l825,0l0,-24L55,111l0,24Z" class="g1_167" />
</g>
<g clip-path="url(#c1_167)">
<path d="M45.5,135.5l0,-24" class="g2_167" />
<path d="M888.5,135.5l0,-24" class="g2_167" />
</g>
<path fill-rule="evenodd" d="M55,159l825,0l0,-24L55,135l0,24Z" class="g1_167" />
<g clip-path="url(#c1_167)">
<path d="M45.5,159.5l0,-24" class="g2_167" />
<path d="M888.5,159.5l0,-24" class="g2_167" />
</g>
<path fill-rule="evenodd" d="M55,182l825,0l0,-23L55,159l0,23Z" class="g1_167" />
<g clip-path="url(#c1_167)">
<path d="M45.5,182.5l0,-23" class="g2_167" />
<path d="M888.5,182.5l0,-23" class="g2_167" />
</g>
<path fill-rule="evenodd" d="M55,214l825,0l0,-32L55,182l0,32Z" class="g1_167" />
<g clip-path="url(#c1_167)">
<path d="M45.5,214.5l0,-1" class="g2_167" />
<path d="M45.5,214.5l0,-1" class="g2_167" />
<path d="M46.5,214.5l842,0" class="g2_167" />
<path d="M888.5,214.5l0,-1" class="g2_167" />
<path d="M888.5,214.5l0,-1" class="g2_167" />
<path d="M45.5,213.5l0,-31" class="g2_167" />
<path d="M888.5,213.5l0,-31" class="g2_167" />
</g>
<path fill-rule="evenodd" d="M55,237l825,0l0,-23L55,214l0,23Z" class="g1_167" />
<path d="M46.5,111.5l0,-1" class="g3_167" />
<path d="M46.5,111.5l0,-1" class="g3_167" />
<path d="M47.5,111.5l840,0" class="g3_167" />
<path d="M887.5,111.5l0,-1" class="g3_167" />
<path d="M887.5,111.5l0,-1" class="g3_167" />
<path d="M46.5,237.5l0,-126" class="g3_167" />
<path d="M46.5,239.5l0,-2" class="g3_167" />
<path d="M46.5,239.5l0,-2" class="g3_167" />
<path d="M47.5,239.5l840,0" class="g3_167" />
<path d="M887.5,237.5l0,-126" class="g3_167" />
<path d="M887.5,239.5l0,-2" class="g3_167" />
<path d="M887.5,239.5l0,-2" class="g3_167" />
<path fill-rule="evenodd" d="M47,374l330,0l0,-25L47,349l0,25Z" class="g4_167" />
<g clip-path="url(#c2_167)">
<path fill-rule="evenodd" d="M55,373l315,0l0,-24L55,349l0,24Z" class="g4_167" />
</g>
<path fill-rule="evenodd" d="M379,374l60,0l0,-25l-60,0l0,25Z" class="g4_167" />
<g clip-path="url(#c3_167)">
<path fill-rule="evenodd" d="M386,373l46,0l0,-24l-46,0l0,24Z" class="g4_167" />
</g>
<path fill-rule="evenodd" d="M441,374l445,0l0,-25l-445,0l0,25Z" class="g4_167" />
<g clip-path="url(#c4_167)">
<path fill-rule="evenodd" d="M448,373l430,0l0,-24l-430,0l0,24Z" class="g4_167" />
</g>
<path d="M46.5,349.5l0,-1" class="g3_167" />
<path d="M46.5,349.5l0,-1" class="g3_167" />
<path d="M47.5,349.5l330,0" class="g3_167" />
<path d="M377.5,349.5l0,-1" class="g3_167" />
<path d="M379.5,349.5l60,0" class="g3_167" />
<path d="M439.5,349.5l0,-1" class="g3_167" />
<path d="M441.5,349.5l445,0" class="g3_167" />
<path d="M886.5,349.5l0,-1" class="g3_167" />
<path d="M886.5,349.5l0,-1" class="g3_167" />
<path d="M46.5,374.5l0,-25" class="g3_167" />
<path d="M377.5,374.5l0,-25" class="g3_167" />
<path d="M439.5,374.5l0,-25" class="g3_167" />
<path d="M886.5,374.5l0,-25" class="g3_167" />
<path fill-rule="evenodd" d="M47,870l33,0L80,375l-33,0l0,495Z" class="g1_167" />
<g clip-path="url(#c5_167)">
<path fill-rule="evenodd" d="M55,870l23,0L78,375l-23,0l0,495Z" class="g1_167" />
</g>
<path fill-rule="evenodd" d="M81,423l296,0l0,-48L81,375l0,48Z" class="g1_167" />
<g clip-path="url(#c6_167)">
<path fill-rule="evenodd" d="M89,399l281,0l0,-24L89,375l0,24Z" class="g1_167" />
</g>
<path fill-rule="evenodd" d="M379,423l60,0l0,-48l-60,0l0,48Z" class="g1_167" />
<g clip-path="url(#c7_167)">
<path fill-rule="evenodd" d="M386,399l46,0l0,-24l-46,0l0,24Z" class="g1_167" />
</g>
<path fill-rule="evenodd" d="M441,423l445,0l0,-48l-445,0l0,48Z" class="g1_167" />
<g clip-path="url(#c8_167)">
<path fill-rule="evenodd" d="M448,399l430,0l0,-24l-430,0l0,24Z" class="g1_167" />
</g>
<path fill-rule="evenodd" d="M448,423l430,0l0,-24l-430,0l0,24Z" class="g1_167" />
<path d="M46.5,375.5l0,-1" class="g3_167" />
<path d="M47.5,375.5l33,0" class="g3_167" />
<path d="M80.5,375.5l0,-1" class="g3_167" />
<path d="M81.5,375.5l296,0" class="g3_167" />
<path d="M377.5,375.5l0,-1" class="g3_167" />
<path d="M379.5,375.5l60,0" class="g3_167" />
<path d="M439.5,375.5l0,-1" class="g3_167" />
<path d="M441.5,375.5l445,0" class="g3_167" />
<path d="M886.5,375.5l0,-1" class="g3_167" />
<path d="M46.5,423.5l0,-48" class="g3_167" />
<path d="M80.5,423.5l0,-48" class="g3_167" />
<path d="M377.5,423.5l0,-48" class="g3_167" />
<path d="M439.5,423.5l0,-48" class="g3_167" />
<path d="M886.5,423.5l0,-48" class="g3_167" />
<path fill-rule="evenodd" d="M81,448l296,0l0,-24L81,424l0,24Z" class="g1_167" />
<path fill-rule="evenodd" d="M89,448l281,0l0,-24L89,424l0,24Z" class="g1_167" />
<path fill-rule="evenodd" d="M379,448l60,0l0,-24l-60,0l0,24Z" class="g1_167" />
<path fill-rule="evenodd" d="M386,448l46,0l0,-24l-46,0l0,24Z" class="g1_167" />
<path fill-rule="evenodd" d="M441,448l445,0l0,-24l-445,0l0,24Z" class="g1_167" />
<path fill-rule="evenodd" d="M448,448l430,0l0,-24l-430,0l0,24Z" class="g1_167" />
<path d="M46.5,424.5l0,-1" class="g3_167" />
<path d="M80.5,424.5l0,-1" class="g3_167" />
<path d="M81.5,424.5l296,0" class="g3_167" />
<path d="M377.5,424.5l0,-1" class="g3_167" />
<path d="M379.5,424.5l60,0" class="g3_167" />
<path d="M439.5,424.5l0,-1" class="g3_167" />
<path d="M441.5,424.5l445,0" class="g3_167" />
<path d="M886.5,424.5l0,-1" class="g3_167" />
<path d="M46.5,448.5l0,-24" class="g3_167" />
<path d="M80.5,448.5l0,-24" class="g3_167" />
<path d="M377.5,448.5l0,-24" class="g3_167" />
<path d="M439.5,448.5l0,-24" class="g3_167" />
<path d="M886.5,448.5l0,-24" class="g3_167" />
<path fill-rule="evenodd" d="M81,475l296,0l0,-25L81,450l0,25Z" class="g1_167" />
<path fill-rule="evenodd" d="M89,473l281,0l0,-23L89,450l0,23Z" class="g1_167" />
<path fill-rule="evenodd" d="M379,475l60,0l0,-25l-60,0l0,25Z" class="g1_167" />
<path fill-rule="evenodd" d="M386,473l46,0l0,-23l-46,0l0,23Z" class="g1_167" />
<path fill-rule="evenodd" d="M441,475l445,0l0,-25l-445,0l0,25Z" class="g1_167" />
<path fill-rule="evenodd" d="M448,473l430,0l0,-23l-430,0l0,23Z" class="g1_167" />
<path d="M46.5,449.5l0,-1" class="g3_167" />
<path d="M80.5,449.5l0,-1" class="g3_167" />
<path d="M81.5,449.5l296,0" class="g3_167" />
<path d="M377.5,449.5l0,-1" class="g3_167" />
<path d="M379.5,449.5l60,0" class="g3_167" />
<path d="M439.5,449.5l0,-1" class="g3_167" />
<path d="M441.5,449.5l445,0" class="g3_167" />
<path d="M886.5,449.5l0,-1" class="g3_167" />
<path d="M46.5,475.5l0,-26" class="g3_167" />
<path d="M80.5,475.5l0,-26" class="g3_167" />
<path d="M377.5,475.5l0,-26" class="g3_167" />
<path d="M439.5,475.5l0,-26" class="g3_167" />
<path d="M886.5,475.5l0,-26" class="g3_167" />
<path fill-rule="evenodd" d="M81,870l28,0l0,-393l-28,0l0,393Z" class="g1_167" />
<g clip-path="url(#c9_167)">
<path fill-rule="evenodd" d="M89,870l20,0l0,-393l-20,0l0,393Z" class="g1_167" />
</g>
<path fill-rule="evenodd" d="M110,502l267,0l0,-25l-267,0l0,25Z" class="g1_167" />
<path fill-rule="evenodd" d="M118,500l252,0l0,-23l-252,0l0,23Z" class="g1_167" />
<path fill-rule="evenodd" d="M379,502l60,0l0,-25l-60,0l0,25Z" class="g1_167" />
<path fill-rule="evenodd" d="M386,500l46,0l0,-23l-46,0l0,23Z" class="g1_167" />
<path fill-rule="evenodd" d="M441,502l445,0l0,-25l-445,0l0,25Z" class="g1_167" />
<path fill-rule="evenodd" d="M448,500l430,0l0,-23l-430,0l0,23Z" class="g1_167" />
<path d="M46.5,477.5l0,-2" class="g3_167" />
<path d="M80.5,477.5l0,-2" class="g3_167" />
<path d="M81.5,477.5l28,0" class="g3_167" />
<path d="M109.5,477.5l0,-2" class="g3_167" />
<path d="M110.5,477.5l267,0" class="g3_167" />
<path d="M377.5,477.5l0,-2" class="g3_167" />
<path d="M379.5,477.5l60,0" class="g3_167" />
<path d="M439.5,477.5l0,-2" class="g3_167" />
<path d="M441.5,477.5l445,0" class="g3_167" />
<path d="M886.5,477.5l0,-2" class="g3_167" />
<path d="M46.5,502.5l0,-25" class="g3_167" />
<path d="M80.5,502.5l0,-25" class="g3_167" />
<path d="M109.5,502.5l0,-25" class="g3_167" />
<path d="M377.5,502.5l0,-25" class="g3_167" />
<path d="M439.5,502.5l0,-25" class="g3_167" />
<path d="M886.5,502.5l0,-25" class="g3_167" />
<path fill-rule="evenodd" d="M110,870l26,0l0,-366l-26,0l0,366Z" class="g1_167" />
<path fill-rule="evenodd" d="M118,870l18,0l0,-366l-18,0l0,366Z" class="g1_167" />
<path fill-rule="evenodd" d="M138,870l33,0l0,-366l-33,0l0,366Z" class="g1_167" />
<path fill-rule="evenodd" d="M145,870l24,0l0,-366l-24,0l0,366Z" class="g1_167" />
<path fill-rule="evenodd" d="M172,529l205,0l0,-25l-205,0l0,25Z" class="g1_167" />
<g clip-path="url(#c10_167)">
<path fill-rule="evenodd" d="M180,528l190,0l0,-24l-190,0l0,24Z" class="g1_167" />
</g>
<path fill-rule="evenodd" d="M379,529l60,0l0,-25l-60,0l0,25Z" class="g1_167" />
<g clip-path="url(#c11_167)">
<path fill-rule="evenodd" d="M386,528l46,0l0,-24l-46,0l0,24Z" class="g1_167" />
</g>
<path fill-rule="evenodd" d="M441,529l445,0l0,-25l-445,0l0,25Z" class="g1_167" />
<g clip-path="url(#c12_167)">
<path fill-rule="evenodd" d="M448,528l430,0l0,-24l-430,0l0,24Z" class="g1_167" />
</g>
<path d="M46.5,504.5l0,-2" class="g3_167" />
<path d="M80.5,504.5l0,-2" class="g3_167" />
<path d="M109.5,504.5l0,-2" class="g3_167" />
<path d="M110.5,504.5l26,0" class="g3_167" />
<path d="M136.5,504.5l0,-2" class="g3_167" />
<path d="M138.5,504.5l33,0" class="g3_167" />
<path d="M171.5,504.5l0,-2" class="g3_167" />
<path d="M172.5,504.5l205,0" class="g3_167" />
<path d="M377.5,504.5l0,-2" class="g3_167" />
<path d="M379.5,504.5l60,0" class="g3_167" />
<path d="M439.5,504.5l0,-2" class="g3_167" />
<path d="M441.5,504.5l445,0" class="g3_167" />
<path d="M886.5,504.5l0,-2" class="g3_167" />
<path d="M46.5,529.5l0,-25" class="g3_167" />
<path d="M80.5,529.5l0,-25" class="g3_167" />
<path d="M109.5,529.5l0,-25" class="g3_167" />
<path d="M136.5,529.5l0,-25" class="g3_167" />
<path d="M171.5,529.5l0,-25" class="g3_167" />
<path d="M377.5,529.5l0,-25" class="g3_167" />
<path d="M439.5,529.5l0,-25" class="g3_167" />
<path d="M886.5,529.5l0,-25" class="g3_167" />
<path fill-rule="evenodd" d="M172,556l205,0l0,-25l-205,0l0,25Z" class="g1_167" />
<path fill-rule="evenodd" d="M180,555l190,0l0,-24l-190,0l0,24Z" class="g1_167" />
<path fill-rule="evenodd" d="M379,556l60,0l0,-25l-60,0l0,25Z" class="g1_167" />
<path fill-rule="evenodd" d="M386,555l46,0l0,-24l-46,0l0,24Z" class="g1_167" />
<path fill-rule="evenodd" d="M441,556l445,0l0,-25l-445,0l0,25Z" class="g1_167" />
<path fill-rule="evenodd" d="M448,555l430,0l0,-24l-430,0l0,24Z" class="g1_167" />
<path d="M46.5,531.5l0,-2" class="g3_167" />
<path d="M80.5,531.5l0,-2" class="g3_167" />
<path d="M109.5,531.5l0,-2" class="g3_167" />
<path d="M136.5,531.5l0,-2" class="g3_167" />
<path d="M171.5,531.5l0,-2" class="g3_167" />
<path d="M172.5,531.5l205,0" class="g3_167" />
<path d="M377.5,531.5l0,-2" class="g3_167" />
<path d="M379.5,531.5l60,0" class="g3_167" />
<path d="M439.5,531.5l0,-2" class="g3_167" />
<path d="M441.5,531.5l445,0" class="g3_167" />
<path d="M886.5,531.5l0,-2" class="g3_167" />
<path d="M46.5,556.5l0,-25" class="g3_167" />
<path d="M80.5,556.5l0,-25" class="g3_167" />
<path d="M109.5,556.5l0,-25" class="g3_167" />
<path d="M136.5,556.5l0,-25" class="g3_167" />
<path d="M171.5,556.5l0,-25" class="g3_167" />
<path d="M377.5,556.5l0,-25" class="g3_167" />
<path d="M439.5,556.5l0,-25" class="g3_167" />
<path d="M886.5,556.5l0,-25" class="g3_167" />
<path fill-rule="evenodd" d="M172,870l19,0l0,-312l-19,0l0,312Z" class="g1_167" />
<path fill-rule="evenodd" d="M180,870l11,0l0,-312l-11,0l0,312Z" class="g1_167" />
<path fill-rule="evenodd" d="M192,591l185,0l0,-33l-185,0l0,33Z" class="g1_167" />
<path fill-rule="evenodd" d="M200,582l170,0l0,-24l-170,0l0,24Z" class="g1_167" />
<path fill-rule="evenodd" d="M379,591l60,0l0,-33l-60,0l0,33Z" class="g1_167" />
<path fill-rule="evenodd" d="M386,582l46,0l0,-24l-46,0l0,24Z" class="g1_167" />
<path fill-rule="evenodd" d="M441,591l445,0l0,-33l-445,0l0,33Z" class="g1_167" />
<path fill-rule="evenodd" d="M448,582l430,0l0,-24l-430,0l0,24Z" class="g1_167" />
<path d="M46.5,558.5l0,-2" class="g3_167" />
<path d="M80.5,558.5l0,-2" class="g3_167" />
<path d="M109.5,558.5l0,-2" class="g3_167" />
<path d="M136.5,558.5l0,-2" class="g3_167" />
<path d="M171.5,558.5l0,-2" class="g3_167" />
<path d="M172.5,558.5l19,0" class="g3_167" />
<path d="M191.5,558.5l0,-2" class="g3_167" />
<path d="M192.5,558.5l185,0" class="g3_167" />
<path d="M377.5,558.5l0,-2" class="g3_167" />
<path d="M379.5,558.5l60,0" class="g3_167" />
<path d="M439.5,558.5l0,-2" class="g3_167" />
<path d="M441.5,558.5l445,0" class="g3_167" />
<path d="M886.5,558.5l0,-2" class="g3_167" />
<path d="M46.5,591.5l0,-33" class="g3_167" />
<path d="M80.5,591.5l0,-33" class="g3_167" />
<path d="M109.5,591.5l0,-33" class="g3_167" />
<path d="M136.5,591.5l0,-33" class="g3_167" />
<path d="M171.5,591.5l0,-33" class="g3_167" />
<path d="M191.5,591.5l0,-33" class="g3_167" />
<path d="M377.5,591.5l0,-33" class="g3_167" />
<path d="M439.5,591.5l0,-33" class="g3_167" />
<path d="M886.5,591.5l0,-33" class="g3_167" />
<path fill-rule="evenodd" d="M192,625l185,0l0,-33l-185,0l0,33Z" class="g1_167" />
<path fill-rule="evenodd" d="M200,616l170,0l0,-24l-170,0l0,24Z" class="g1_167" />
<path fill-rule="evenodd" d="M379,625l60,0l0,-33l-60,0l0,33Z" class="g1_167" />
<path fill-rule="evenodd" d="M386,616l46,0l0,-24l-46,0l0,24Z" class="g1_167" />
<path fill-rule="evenodd" d="M441,625l445,0l0,-33l-445,0l0,33Z" class="g1_167" />
<path fill-rule="evenodd" d="M448,616l430,0l0,-24l-430,0l0,24Z" class="g1_167" />
<path d="M46.5,592.5l0,-1" class="g3_167" />
<path d="M80.5,592.5l0,-1" class="g3_167" />
<path d="M109.5,592.5l0,-1" class="g3_167" />
<path d="M136.5,592.5l0,-1" class="g3_167" />
<path d="M171.5,592.5l0,-1" class="g3_167" />
<path d="M191.5,592.5l0,-1" class="g3_167" />
<path d="M192.5,592.5l185,0" class="g3_167" />
<path d="M377.5,592.5l0,-1" class="g3_167" />
<path d="M379.5,592.5l60,0" class="g3_167" />
<path d="M439.5,592.5l0,-1" class="g3_167" />
<path d="M441.5,592.5l445,0" class="g3_167" />
<path d="M886.5,592.5l0,-1" class="g3_167" />
<path d="M46.5,625.5l0,-33" class="g3_167" />
<path d="M80.5,625.5l0,-33" class="g3_167" />
<path d="M109.5,625.5l0,-33" class="g3_167" />
<path d="M136.5,625.5l0,-33" class="g3_167" />
<path d="M171.5,625.5l0,-33" class="g3_167" />
<path d="M191.5,625.5l0,-33" class="g3_167" />
<path d="M377.5,625.5l0,-33" class="g3_167" />
<path d="M439.5,625.5l0,-33" class="g3_167" />
<path d="M886.5,625.5l0,-33" class="g3_167" />
<path fill-rule="evenodd" d="M192,698l185,0l0,-71l-185,0l0,71Z" class="g1_167" />
<g clip-path="url(#c13_167)">
<path fill-rule="evenodd" d="M200,650l170,0l0,-23l-170,0l0,23Z" class="g1_167" />
</g>
<path fill-rule="evenodd" d="M379,698l60,0l0,-71l-60,0l0,71Z" class="g1_167" />
<g clip-path="url(#c14_167)">
<path fill-rule="evenodd" d="M386,650l46,0l0,-23l-46,0l0,23Z" class="g1_167" />
</g>
<path fill-rule="evenodd" d="M441,698l445,0l0,-71l-445,0l0,71Z" class="g1_167" />
<g clip-path="url(#c15_167)">
<path fill-rule="evenodd" d="M448,650l430,0l0,-23l-430,0l0,23Z" class="g1_167" />
</g>
<path fill-rule="evenodd" d="M448,674l430,0l0,-24l-430,0l0,24Z" class="g1_167" />
<path fill-rule="evenodd" d="M448,698l430,0l0,-24l-430,0l0,24Z" class="g1_167" />
<path d="M46.5,626.5l0,-1" class="g3_167" />
<path d="M80.5,626.5l0,-1" class="g3_167" />
<path d="M109.5,626.5l0,-1" class="g3_167" />
<path d="M136.5,626.5l0,-1" class="g3_167" />
<path d="M171.5,626.5l0,-1" class="g3_167" />
<path d="M191.5,626.5l0,-1" class="g3_167" />
<path d="M192.5,626.5l185,0" class="g3_167" />
<path d="M377.5,626.5l0,-1" class="g3_167" />
<path d="M379.5,626.5l60,0" class="g3_167" />
<path d="M439.5,626.5l0,-1" class="g3_167" />
<path d="M441.5,626.5l445,0" class="g3_167" />
<path d="M886.5,626.5l0,-1" class="g3_167" />
<path d="M46.5,698.5l0,-72" class="g3_167" />
<path d="M80.5,698.5l0,-72" class="g3_167" />
<path d="M109.5,698.5l0,-72" class="g3_167" />
<path d="M136.5,698.5l0,-72" class="g3_167" />
<path d="M171.5,698.5l0,-72" class="g3_167" />
<path d="M191.5,698.5l0,-72" class="g3_167" />
<path d="M377.5,698.5l0,-72" class="g3_167" />
<path d="M439.5,698.5l0,-72" class="g3_167" />
<path d="M886.5,698.5l0,-72" class="g3_167" />
<path fill-rule="evenodd" d="M192,732l185,0l0,-32l-185,0l0,32Z" class="g1_167" />
<g clip-path="url(#c16_167)">
<path fill-rule="evenodd" d="M200,723l170,0l0,-23l-170,0l0,23Z" class="g1_167" />
</g>
<path fill-rule="evenodd" d="M379,732l60,0l0,-32l-60,0l0,32Z" class="g1_167" />
<g clip-path="url(#c17_167)">
<path fill-rule="evenodd" d="M386,723l46,0l0,-23l-46,0l0,23Z" class="g1_167" />
</g>
<path fill-rule="evenodd" d="M441,732l445,0l0,-32l-445,0l0,32Z" class="g1_167" />
<g clip-path="url(#c18_167)">
<path fill-rule="evenodd" d="M448,723l430,0l0,-23l-430,0l0,23Z" class="g1_167" />
</g>
<path d="M46.5,700.5l0,-2" class="g3_167" />
<path d="M80.5,700.5l0,-2" class="g3_167" />
<path d="M109.5,700.5l0,-2" class="g3_167" />
<path d="M136.5,700.5l0,-2" class="g3_167" />
<path d="M171.5,700.5l0,-2" class="g3_167" />
<path d="M191.5,700.5l0,-2" class="g3_167" />
<path d="M192.5,700.5l185,0" class="g3_167" />
<path d="M377.5,700.5l0,-2" class="g3_167" />
<path d="M379.5,700.5l60,0" class="g3_167" />
<path d="M439.5,700.5l0,-2" class="g3_167" />
<path d="M441.5,700.5l445,0" class="g3_167" />
<path d="M886.5,700.5l0,-2" class="g3_167" />
<path d="M46.5,732.5l0,-32" class="g3_167" />
<path d="M80.5,732.5l0,-32" class="g3_167" />
<path d="M109.5,732.5l0,-32" class="g3_167" />
<path d="M136.5,732.5l0,-32" class="g3_167" />
<path d="M171.5,732.5l0,-32" class="g3_167" />
<path d="M191.5,732.5l0,-32" class="g3_167" />
<path d="M377.5,732.5l0,-32" class="g3_167" />
<path d="M439.5,732.5l0,-32" class="g3_167" />
<path d="M886.5,732.5l0,-32" class="g3_167" />
<path fill-rule="evenodd" d="M192,767l185,0l0,-33l-185,0l0,33Z" class="g1_167" />
<g clip-path="url(#c19_167)">
<path fill-rule="evenodd" d="M200,758l170,0l0,-24l-170,0l0,24Z" class="g1_167" />
</g>
<path fill-rule="evenodd" d="M379,767l60,0l0,-33l-60,0l0,33Z" class="g1_167" />
<g clip-path="url(#c20_167)">
<path fill-rule="evenodd" d="M386,758l46,0l0,-24l-46,0l0,24Z" class="g1_167" />
</g>
<path fill-rule="evenodd" d="M441,767l445,0l0,-33l-445,0l0,33Z" class="g1_167" />
<g clip-path="url(#c21_167)">
<path fill-rule="evenodd" d="M448,758l430,0l0,-24l-430,0l0,24Z" class="g1_167" />
</g>
<path d="M46.5,734.5l0,-2" class="g3_167" />
<path d="M80.5,734.5l0,-2" class="g3_167" />
<path d="M109.5,734.5l0,-2" class="g3_167" />
<path d="M136.5,734.5l0,-2" class="g3_167" />
<path d="M171.5,734.5l0,-2" class="g3_167" />
<path d="M191.5,734.5l0,-2" class="g3_167" />
<path d="M192.5,734.5l185,0" class="g3_167" />
<path d="M377.5,734.5l0,-2" class="g3_167" />
<path d="M379.5,734.5l60,0" class="g3_167" />
<path d="M439.5,734.5l0,-2" class="g3_167" />
<path d="M441.5,734.5l445,0" class="g3_167" />
<path d="M886.5,734.5l0,-2" class="g3_167" />
<path d="M46.5,767.5l0,-33" class="g3_167" />
<path d="M80.5,767.5l0,-33" class="g3_167" />
<path d="M109.5,767.5l0,-33" class="g3_167" />
<path d="M136.5,767.5l0,-33" class="g3_167" />
<path d="M171.5,767.5l0,-33" class="g3_167" />
<path d="M191.5,767.5l0,-33" class="g3_167" />
<path d="M377.5,767.5l0,-33" class="g3_167" />
<path d="M439.5,767.5l0,-33" class="g3_167" />
<path d="M886.5,767.5l0,-33" class="g3_167" />
<path fill-rule="evenodd" d="M192,801l185,0l0,-33l-185,0l0,33Z" class="g1_167" />
<g clip-path="url(#c22_167)">
<path fill-rule="evenodd" d="M200,792l170,0l0,-24l-170,0l0,24Z" class="g1_167" />
</g>
<path fill-rule="evenodd" d="M379,801l60,0l0,-33l-60,0l0,33Z" class="g1_167" />
<g clip-path="url(#c23_167)">
<path fill-rule="evenodd" d="M386,792l46,0l0,-24l-46,0l0,24Z" class="g1_167" />
</g>
<path fill-rule="evenodd" d="M441,801l445,0l0,-33l-445,0l0,33Z" class="g1_167" />
<g clip-path="url(#c24_167)">
<path fill-rule="evenodd" d="M448,792l430,0l0,-24l-430,0l0,24Z" class="g1_167" />
</g>
<path d="M46.5,768.5l0,-1" class="g3_167" />
<path d="M80.5,768.5l0,-1" class="g3_167" />
<path d="M109.5,768.5l0,-1" class="g3_167" />
<path d="M136.5,768.5l0,-1" class="g3_167" />
<path d="M171.5,768.5l0,-1" class="g3_167" />
<path d="M191.5,768.5l0,-1" class="g3_167" />
<path d="M192.5,768.5l185,0" class="g3_167" />
<path d="M377.5,768.5l0,-1" class="g3_167" />
<path d="M379.5,768.5l60,0" class="g3_167" />
<path d="M439.5,768.5l0,-1" class="g3_167" />
<path d="M441.5,768.5l445,0" class="g3_167" />
<path d="M886.5,768.5l0,-1" class="g3_167" />
<path d="M46.5,801.5l0,-33" class="g3_167" />
<path d="M80.5,801.5l0,-33" class="g3_167" />
<path d="M109.5,801.5l0,-33" class="g3_167" />
<path d="M136.5,801.5l0,-33" class="g3_167" />
<path d="M171.5,801.5l0,-33" class="g3_167" />
<path d="M191.5,801.5l0,-33" class="g3_167" />
<path d="M377.5,801.5l0,-33" class="g3_167" />
<path d="M439.5,801.5l0,-33" class="g3_167" />
<path d="M886.5,801.5l0,-33" class="g3_167" />
<path fill-rule="evenodd" d="M192,836l185,0l0,-33l-185,0l0,33Z" class="g1_167" />
<g clip-path="url(#c25_167)">
<path fill-rule="evenodd" d="M200,827l170,0l0,-24l-170,0l0,24Z" class="g1_167" />
</g>
<path fill-rule="evenodd" d="M379,836l60,0l0,-33l-60,0l0,33Z" class="g1_167" />
<g clip-path="url(#c26_167)">
<path fill-rule="evenodd" d="M386,827l46,0l0,-24l-46,0l0,24Z" class="g1_167" />
</g>
<path fill-rule="evenodd" d="M441,836l445,0l0,-33l-445,0l0,33Z" class="g1_167" />
<g clip-path="url(#c27_167)">
<path fill-rule="evenodd" d="M448,827l430,0l0,-24l-430,0l0,24Z" class="g1_167" />
</g>
<path d="M46.5,803.5l0,-2" class="g3_167" />
<path d="M80.5,803.5l0,-2" class="g3_167" />
<path d="M109.5,803.5l0,-2" class="g3_167" />
<path d="M136.5,803.5l0,-2" class="g3_167" />
<path d="M171.5,803.5l0,-2" class="g3_167" />
<path d="M191.5,803.5l0,-2" class="g3_167" />
<path d="M192.5,803.5l185,0" class="g3_167" />
<path d="M377.5,803.5l0,-2" class="g3_167" />
<path d="M379.5,803.5l60,0" class="g3_167" />
<path d="M439.5,803.5l0,-2" class="g3_167" />
<path d="M441.5,803.5l445,0" class="g3_167" />
<path d="M886.5,803.5l0,-2" class="g3_167" />
<path d="M46.5,836.5l0,-33" class="g3_167" />
<path d="M80.5,836.5l0,-33" class="g3_167" />
<path d="M109.5,836.5l0,-33" class="g3_167" />
<path d="M136.5,836.5l0,-33" class="g3_167" />
<path d="M171.5,836.5l0,-33" class="g3_167" />
<path d="M191.5,836.5l0,-33" class="g3_167" />
<path d="M377.5,836.5l0,-33" class="g3_167" />
<path d="M439.5,836.5l0,-33" class="g3_167" />
<path d="M886.5,836.5l0,-33" class="g3_167" />
<path fill-rule="evenodd" d="M192,870l185,0l0,-33l-185,0l0,33Z" class="g1_167" />
<g clip-path="url(#c28_167)">
<path fill-rule="evenodd" d="M200,861l170,0l0,-24l-170,0l0,24Z" class="g1_167" />
</g>
<path fill-rule="evenodd" d="M379,870l60,0l0,-33l-60,0l0,33Z" class="g1_167" />
<g clip-path="url(#c29_167)">
<path fill-rule="evenodd" d="M386,861l46,0l0,-24l-46,0l0,24Z" class="g1_167" />
</g>
<path fill-rule="evenodd" d="M441,870l445,0l0,-33l-445,0l0,33Z" class="g1_167" />
<g clip-path="url(#c30_167)">
<path fill-rule="evenodd" d="M448,861l430,0l0,-24l-430,0l0,24Z" class="g1_167" />
</g>
<path d="M46.5,837.5l0,-1" class="g3_167" />
<path d="M80.5,837.5l0,-1" class="g3_167" />
<path d="M109.5,837.5l0,-1" class="g3_167" />
<path d="M136.5,837.5l0,-1" class="g3_167" />
<path d="M171.5,837.5l0,-1" class="g3_167" />
<path d="M191.5,837.5l0,-1" class="g3_167" />
<path d="M192.5,837.5l185,0" class="g3_167" />
<path d="M377.5,837.5l0,-1" class="g3_167" />
<path d="M379.5,837.5l60,0" class="g3_167" />
<path d="M439.5,837.5l0,-1" class="g3_167" />
<path d="M441.5,837.5l445,0" class="g3_167" />
<path d="M886.5,837.5l0,-1" class="g3_167" />
<path d="M46.5,870.5l0,-33" class="g3_167" />
<path d="M46.5,872.5l0,-2" class="g3_167" />
<path d="M46.5,872.5l0,-2" class="g3_167" />
<path d="M47.5,872.5l33,0" class="g3_167" />
<path d="M80.5,870.5l0,-33" class="g3_167" />
<path d="M80.5,872.5l0,-2" class="g3_167" />
<path d="M81.5,872.5l28,0" class="g3_167" />
<path d="M109.5,870.5l0,-33" class="g3_167" />
<path d="M109.5,872.5l0,-2" class="g3_167" />
<path d="M110.5,872.5l26,0" class="g3_167" />
<path d="M136.5,870.5l0,-33" class="g3_167" />
<path d="M136.5,872.5l0,-2" class="g3_167" />
<path d="M138.5,872.5l33,0" class="g3_167" />
<path d="M171.5,870.5l0,-33" class="g3_167" />
<path d="M171.5,872.5l0,-2" class="g3_167" />
<path d="M172.5,872.5l19,0" class="g3_167" />
<path d="M191.5,870.5l0,-33" class="g3_167" />
<path d="M191.5,872.5l0,-2" class="g3_167" />
<path d="M192.5,872.5l185,0" class="g3_167" />
<path d="M377.5,870.5l0,-33" class="g3_167" />
<path d="M377.5,872.5l0,-2" class="g3_167" />
<path d="M379.5,872.5l60,0" class="g3_167" />
<path d="M439.5,870.5l0,-33" class="g3_167" />
<path d="M439.5,872.5l0,-2" class="g3_167" />
<path d="M441.5,872.5l445,0" class="g3_167" />
<path d="M886.5,870.5l0,-33" class="g3_167" />
<path d="M886.5,872.5l0,-2" class="g3_167" />
<path d="M886.5,872.5l0,-2" class="g3_167" />
</svg>