<?xml version="1.0" encoding="UTF-8" standalone="no"?>
<!DOCTYPE svg PUBLIC "-//W3C//DTD SVG 1.1//EN"
"http://www.w3.org/Graphics/SVG/1.1/DTD/svg11.dtd">
<svg version="1.1" xmlns="http://www.w3.org/2000/svg" xmlns:xlink="http://www.w3.org/1999/xlink">
<defs>
<clipPath id="c0_101"><path d="M47.5,359.5l0,-24l840,0l0,24Z" /></clipPath>
<clipPath id="c1_101"><path d="M47.5,703.5l0,-24l247,0l0,24Z" /></clipPath>
<clipPath id="c2_101"><path d="M296.5,703.5l0,-24l81,0l0,24Z" /></clipPath>
<clipPath id="c3_101"><path d="M379.5,703.5l0,-24l67,0l0,24Z" /></clipPath>
<clipPath id="c4_101"><path d="M447.5,703.5l0,-24l440,0l0,24Z" /></clipPath>
<clipPath id="c5_101"><path d="M47.5,969.5l0,-265l33,0l0,265Z" /></clipPath>
<clipPath id="c6_101"><path d="M81.5,776.5l0,-72l213,0l0,72Z" /></clipPath>
<clipPath id="c7_101"><path d="M296.5,776.5l0,-72l81,0l0,72Z" /></clipPath>
<clipPath id="c8_101"><path d="M379.5,776.5l0,-72l67,0l0,72Z" /></clipPath>
<clipPath id="c9_101"><path d="M447.5,776.5l0,-72l440,0l0,72Z" /></clipPath>
<clipPath id="c10_101"><path d="M81.5,801.5l0,-24l213,0l0,24Z" /></clipPath>
<clipPath id="c11_101"><path d="M296.5,801.5l0,-24l81,0l0,24Z" /></clipPath>
<clipPath id="c12_101"><path d="M379.5,801.5l0,-24l67,0l0,24Z" /></clipPath>
<clipPath id="c13_101"><path d="M447.5,801.5l0,-24l440,0l0,24Z" /></clipPath>
<clipPath id="c14_101"><path d="M81.5,969.5l0,-166l213,0l0,166Z" /></clipPath>
<clipPath id="c15_101"><path d="M296.5,969.5l0,-166l81,0l0,166Z" /></clipPath>
<clipPath id="c16_101"><path d="M379.5,969.5l0,-166l67,0l0,166Z" /></clipPath>
<clipPath id="c17_101"><path d="M447.5,969.5l0,-166l440,0l0,166Z" /></clipPath>
<style type="text/css"><![CDATA[
.g2_101{
fill: none;
stroke: #7E7E7E;
stroke-width: 1;
stroke-linecap: butt;
stroke-linejoin: miter;
}
.g3_101{
fill: #DBE5F1;
}
.g1_101{
fill: #F1F1F1;
}
]]></style>
</defs>
<path fill-rule="evenodd" d="M47,359l840,0l0,-24L47,335l0,24Z" class="g1_101" />
<g clip-path="url(#c0_101)">
<path fill-rule="evenodd" d="M55,359l825,0l0,-24L55,335l0,24Z" class="g1_101" />
</g>
<path d="M46.5,335.5l0,-2" class="g2_101" />
<path d="M46.5,335.5l0,-2" class="g2_101" />
<path d="M47.5,335.5l840,0" class="g2_101" />
<path d="M887.5,335.5l0,-2" class="g2_101" />
<path d="M887.5,335.5l0,-2" class="g2_101" />
<path d="M46.5,359.5l0,-24" class="g2_101" />
<path d="M46.5,360.5l0,-1" class="g2_101" />
<path d="M46.5,360.5l0,-1" class="g2_101" />
<path d="M47.5,360.5l840,0" class="g2_101" />
<path d="M887.5,359.5l0,-24" class="g2_101" />
<path d="M887.5,360.5l0,-1" class="g2_101" />
<path d="M887.5,360.5l0,-1" class="g2_101" />
<path fill-rule="evenodd" d="M47,466l179,0l0,-24L47,442l0,24Z" class="g3_101" />
<path fill-rule="evenodd" d="M55,466l163,0l0,-24L55,442l0,24Z" class="g3_101" />
<path fill-rule="evenodd" d="M227,466l163,0l0,-24l-163,0l0,24Z" class="g3_101" />
<path fill-rule="evenodd" d="M235,466l148,0l0,-24l-148,0l0,24Z" class="g3_101" />
<path fill-rule="evenodd" d="M392,466l495,0l0,-24l-495,0l0,24Z" class="g3_101" />
<path fill-rule="evenodd" d="M400,466l480,0l0,-24l-480,0l0,24Z" class="g3_101" />
<path d="M46.5,442.5l0,-2" class="g2_101" />
<path d="M46.5,442.5l0,-2" class="g2_101" />
<path d="M47.5,442.5l179,0" class="g2_101" />
<path d="M226.5,442.5l0,-2" class="g2_101" />
<path d="M227.5,442.5l164,0" class="g2_101" />
<path d="M391.5,442.5l0,-2" class="g2_101" />
<path d="M392.5,442.5l495,0" class="g2_101" />
<path d="M887.5,442.5l0,-2" class="g2_101" />
<path d="M887.5,442.5l0,-2" class="g2_101" />
<path d="M46.5,466.5l0,-24" class="g2_101" />
<path d="M226.5,466.5l0,-24" class="g2_101" />
<path d="M391.5,466.5l0,-24" class="g2_101" />
<path d="M887.5,466.5l0,-24" class="g2_101" />
<path fill-rule="evenodd" d="M47,491l179,0l0,-24L47,467l0,24Z" class="g1_101" />
<path fill-rule="evenodd" d="M55,491l163,0l0,-24L55,467l0,24Z" class="g1_101" />
<path fill-rule="evenodd" d="M227,491l163,0l0,-24l-163,0l0,24Z" class="g1_101" />
<path fill-rule="evenodd" d="M235,491l148,0l0,-24l-148,0l0,24Z" class="g1_101" />
<path fill-rule="evenodd" d="M392,491l495,0l0,-24l-495,0l0,24Z" class="g1_101" />
<path fill-rule="evenodd" d="M400,491l480,0l0,-24l-480,0l0,24Z" class="g1_101" />
<path d="M46.5,467.5l0,-1" class="g2_101" />
<path d="M47.5,467.5l179,0" class="g2_101" />
<path d="M226.5,467.5l0,-1" class="g2_101" />
<path d="M227.5,467.5l164,0" class="g2_101" />
<path d="M391.5,467.5l0,-1" class="g2_101" />
<path d="M392.5,467.5l495,0" class="g2_101" />
<path d="M887.5,467.5l0,-1" class="g2_101" />
<path d="M46.5,491.5l0,-24" class="g2_101" />
<path d="M46.5,493.5l0,-2" class="g2_101" />
<path d="M46.5,493.5l0,-2" class="g2_101" />
<path d="M47.5,493.5l179,0" class="g2_101" />
<path d="M226.5,491.5l0,-24" class="g2_101" />
<path d="M226.5,493.5l0,-2" class="g2_101" />
<path d="M227.5,493.5l164,0" class="g2_101" />
<path d="M391.5,491.5l0,-24" class="g2_101" />
<path d="M391.5,493.5l0,-2" class="g2_101" />
<path d="M392.5,493.5l495,0" class="g2_101" />
<path d="M887.5,491.5l0,-24" class="g2_101" />
<path d="M887.5,493.5l0,-2" class="g2_101" />
<path d="M887.5,493.5l0,-2" class="g2_101" />
<path fill-rule="evenodd" d="M47,566l178,0l0,-24L47,542l0,24Z" class="g3_101" />
<path fill-rule="evenodd" d="M55,566l163,0l0,-24L55,542l0,24Z" class="g3_101" />
<path fill-rule="evenodd" d="M227,566l163,0l0,-24l-163,0l0,24Z" class="g3_101" />
<path fill-rule="evenodd" d="M234,566l149,0l0,-24l-149,0l0,24Z" class="g3_101" />
<path fill-rule="evenodd" d="M392,566l164,0l0,-24l-164,0l0,24Z" class="g3_101" />
<path fill-rule="evenodd" d="M399,566l149,0l0,-24l-149,0l0,24Z" class="g3_101" />
<path fill-rule="evenodd" d="M557,566l164,0l0,-24l-164,0l0,24Z" class="g3_101" />
<path fill-rule="evenodd" d="M565,566l149,0l0,-24l-149,0l0,24Z" class="g3_101" />
<path fill-rule="evenodd" d="M723,566l164,0l0,-24l-164,0l0,24Z" class="g3_101" />
<path fill-rule="evenodd" d="M730,566l150,0l0,-24l-150,0l0,24Z" class="g3_101" />
<path d="M46.5,542.5l0,-2" class="g2_101" />
<path d="M46.5,542.5l0,-2" class="g2_101" />
<path d="M47.5,542.5l178,0" class="g2_101" />
<path d="M225.5,542.5l0,-2" class="g2_101" />
<path d="M227.5,542.5l163,0" class="g2_101" />
<path d="M390.5,542.5l0,-2" class="g2_101" />
<path d="M392.5,542.5l164,0" class="g2_101" />
<path d="M556.5,542.5l0,-2" class="g2_101" />
<path d="M557.5,542.5l164,0" class="g2_101" />
<path d="M721.5,542.5l0,-2" class="g2_101" />
<path d="M723.5,542.5l164,0" class="g2_101" />
<path d="M887.5,542.5l0,-2" class="g2_101" />
<path d="M887.5,542.5l0,-2" class="g2_101" />
<path d="M46.5,566.5l0,-24" class="g2_101" />
<path d="M225.5,566.5l0,-24" class="g2_101" />
<path d="M390.5,566.5l0,-24" class="g2_101" />
<path d="M556.5,566.5l0,-24" class="g2_101" />
<path d="M721.5,566.5l0,-24" class="g2_101" />
<path d="M887.5,566.5l0,-24" class="g2_101" />
<path fill-rule="evenodd" d="M47,591l178,0l0,-24L47,567l0,24Z" class="g1_101" />
<path fill-rule="evenodd" d="M55,591l163,0l0,-24L55,567l0,24Z" class="g1_101" />
<path fill-rule="evenodd" d="M227,591l163,0l0,-24l-163,0l0,24Z" class="g1_101" />
<path fill-rule="evenodd" d="M234,591l149,0l0,-24l-149,0l0,24Z" class="g1_101" />
<path fill-rule="evenodd" d="M392,591l164,0l0,-24l-164,0l0,24Z" class="g1_101" />
<path fill-rule="evenodd" d="M399,591l149,0l0,-24l-149,0l0,24Z" class="g1_101" />
<path fill-rule="evenodd" d="M557,591l164,0l0,-24l-164,0l0,24Z" class="g1_101" />
<path fill-rule="evenodd" d="M565,591l149,0l0,-24l-149,0l0,24Z" class="g1_101" />
<path fill-rule="evenodd" d="M723,591l164,0l0,-24l-164,0l0,24Z" class="g1_101" />
<path fill-rule="evenodd" d="M730,591l150,0l0,-24l-150,0l0,24Z" class="g1_101" />
<path d="M46.5,567.5l0,-1" class="g2_101" />
<path d="M47.5,567.5l178,0" class="g2_101" />
<path d="M225.5,567.5l0,-1" class="g2_101" />
<path d="M227.5,567.5l163,0" class="g2_101" />
<path d="M390.5,567.5l0,-1" class="g2_101" />
<path d="M392.5,567.5l164,0" class="g2_101" />
<path d="M556.5,567.5l0,-1" class="g2_101" />
<path d="M557.5,567.5l164,0" class="g2_101" />
<path d="M721.5,567.5l0,-1" class="g2_101" />
<path d="M723.5,567.5l164,0" class="g2_101" />
<path d="M887.5,567.5l0,-1" class="g2_101" />
<path d="M46.5,591.5l0,-24" class="g2_101" />
<path d="M46.5,592.5l0,-1" class="g2_101" />
<path d="M46.5,592.5l0,-1" class="g2_101" />
<path d="M47.5,592.5l178,0" class="g2_101" />
<path d="M225.5,591.5l0,-24" class="g2_101" />
<path d="M225.5,592.5l0,-1" class="g2_101" />
<path d="M227.5,592.5l163,0" class="g2_101" />
<path d="M390.5,591.5l0,-24" class="g2_101" />
<path d="M390.5,592.5l0,-1" class="g2_101" />
<path d="M392.5,592.5l164,0" class="g2_101" />
<path d="M556.5,591.5l0,-24" class="g2_101" />
<path d="M556.5,592.5l0,-1" class="g2_101" />
<path d="M557.5,592.5l164,0" class="g2_101" />
<path d="M721.5,591.5l0,-24" class="g2_101" />
<path d="M721.5,592.5l0,-1" class="g2_101" />
<path d="M723.5,592.5l164,0" class="g2_101" />
<path d="M887.5,591.5l0,-24" class="g2_101" />
<path d="M887.5,592.5l0,-1" class="g2_101" />
<path d="M887.5,592.5l0,-1" class="g2_101" />
<path fill-rule="evenodd" d="M47,703l247,0l0,-24L47,679l0,24Z" class="g3_101" />
<g clip-path="url(#c1_101)">
<path fill-rule="evenodd" d="M55,703l232,0l0,-24L55,679l0,24Z" class="g3_101" />
</g>
<path fill-rule="evenodd" d="M296,703l81,0l0,-24l-81,0l0,24Z" class="g3_101" />
<g clip-path="url(#c2_101)">
<path fill-rule="evenodd" d="M303,703l66,0l0,-24l-66,0l0,24Z" class="g3_101" />
</g>
<path fill-rule="evenodd" d="M379,703l67,0l0,-24l-67,0l0,24Z" class="g3_101" />
<g clip-path="url(#c3_101)">
<path fill-rule="evenodd" d="M386,703l52,0l0,-24l-52,0l0,24Z" class="g3_101" />
</g>
<path fill-rule="evenodd" d="M447,703l440,0l0,-24l-440,0l0,24Z" class="g3_101" />
<g clip-path="url(#c4_101)">
<path fill-rule="evenodd" d="M455,703l425,0l0,-24l-425,0l0,24Z" class="g3_101" />
</g>
<path d="M46.5,679.5l0,-2" class="g2_101" />
<path d="M46.5,679.5l0,-2" class="g2_101" />
<path d="M47.5,679.5l248,0" class="g2_101" />
<path d="M295.5,679.5l0,-2" class="g2_101" />
<path d="M296.5,679.5l81,0" class="g2_101" />
<path d="M377.5,679.5l0,-2" class="g2_101" />
<path d="M379.5,679.5l67,0" class="g2_101" />
<path d="M446.5,679.5l0,-2" class="g2_101" />
<path d="M447.5,679.5l440,0" class="g2_101" />
<path d="M887.5,679.5l0,-2" class="g2_101" />
<path d="M887.5,679.5l0,-2" class="g2_101" />
<path d="M46.5,703.5l0,-24" class="g2_101" />
<path d="M295.5,703.5l0,-24" class="g2_101" />
<path d="M377.5,703.5l0,-24" class="g2_101" />
<path d="M446.5,703.5l0,-24" class="g2_101" />
<path d="M887.5,703.5l0,-24" class="g2_101" />
<path fill-rule="evenodd" d="M47,969l33,0L80,704l-33,0l0,265Z" class="g1_101" />
<g clip-path="url(#c5_101)">
<path fill-rule="evenodd" d="M55,969l23,0L78,704l-23,0l0,265Z" class="g1_101" />
</g>
<path fill-rule="evenodd" d="M81,776l213,0l0,-72L81,704l0,72Z" class="g1_101" />
<g clip-path="url(#c6_101)">
<path fill-rule="evenodd" d="M89,728l198,0l0,-24L89,704l0,24Z" class="g1_101" />
</g>
<path fill-rule="evenodd" d="M296,776l81,0l0,-72l-81,0l0,72Z" class="g1_101" />
<g clip-path="url(#c7_101)">
<path fill-rule="evenodd" d="M303,728l66,0l0,-24l-66,0l0,24Z" class="g1_101" />
</g>
<path fill-rule="evenodd" d="M379,776l67,0l0,-72l-67,0l0,72Z" class="g1_101" />
<g clip-path="url(#c8_101)">
<path fill-rule="evenodd" d="M386,728l52,0l0,-24l-52,0l0,24Z" class="g1_101" />
</g>
<path fill-rule="evenodd" d="M447,776l440,0l0,-72l-440,0l0,72Z" class="g1_101" />
<g clip-path="url(#c9_101)">
<path fill-rule="evenodd" d="M455,728l425,0l0,-24l-425,0l0,24Z" class="g1_101" />
</g>
<path fill-rule="evenodd" d="M455,752l425,0l0,-24l-425,0l0,24Z" class="g1_101" />
<path fill-rule="evenodd" d="M455,776l425,0l0,-24l-425,0l0,24Z" class="g1_101" />
<path d="M46.5,704.5l0,-1" class="g2_101" />
<path d="M47.5,704.5l33,0" class="g2_101" />
<path d="M80.5,704.5l0,-1" class="g2_101" />
<path d="M81.5,704.5l214,0" class="g2_101" />
<path d="M295.5,704.5l0,-1" class="g2_101" />
<path d="M296.5,704.5l81,0" class="g2_101" />
<path d="M377.5,704.5l0,-1" class="g2_101" />
<path d="M379.5,704.5l67,0" class="g2_101" />
<path d="M446.5,704.5l0,-1" class="g2_101" />
<path d="M447.5,704.5l440,0" class="g2_101" />
<path d="M887.5,704.5l0,-1" class="g2_101" />
<path d="M46.5,776.5l0,-72" class="g2_101" />
<path d="M80.5,776.5l0,-72" class="g2_101" />
<path d="M295.5,776.5l0,-72" class="g2_101" />
<path d="M377.5,776.5l0,-72" class="g2_101" />
<path d="M446.5,776.5l0,-72" class="g2_101" />
<path d="M887.5,776.5l0,-72" class="g2_101" />
<path fill-rule="evenodd" d="M81,801l213,0l0,-24L81,777l0,24Z" class="g1_101" />
<g clip-path="url(#c10_101)">
<path fill-rule="evenodd" d="M89,801l198,0l0,-24L89,777l0,24Z" class="g1_101" />
</g>
<path fill-rule="evenodd" d="M296,801l81,0l0,-24l-81,0l0,24Z" class="g1_101" />
<g clip-path="url(#c11_101)">
<path fill-rule="evenodd" d="M303,801l66,0l0,-24l-66,0l0,24Z" class="g1_101" />
</g>
<path fill-rule="evenodd" d="M379,801l67,0l0,-24l-67,0l0,24Z" class="g1_101" />
<g clip-path="url(#c12_101)">
<path fill-rule="evenodd" d="M386,801l52,0l0,-24l-52,0l0,24Z" class="g1_101" />
</g>
<path fill-rule="evenodd" d="M447,801l440,0l0,-24l-440,0l0,24Z" class="g1_101" />
<g clip-path="url(#c13_101)">
<path fill-rule="evenodd" d="M455,801l425,0l0,-24l-425,0l0,24Z" class="g1_101" />
</g>
<path d="M46.5,777.5l0,-1" class="g2_101" />
<path d="M80.5,777.5l0,-1" class="g2_101" />
<path d="M81.5,777.5l214,0" class="g2_101" />
<path d="M295.5,777.5l0,-1" class="g2_101" />
<path d="M296.5,777.5l81,0" class="g2_101" />
<path d="M377.5,777.5l0,-1" class="g2_101" />
<path d="M379.5,777.5l67,0" class="g2_101" />
<path d="M446.5,777.5l0,-1" class="g2_101" />
<path d="M447.5,777.5l440,0" class="g2_101" />
<path d="M887.5,777.5l0,-1" class="g2_101" />
<path d="M46.5,801.5l0,-24" class="g2_101" />
<path d="M80.5,801.5l0,-24" class="g2_101" />
<path d="M295.5,801.5l0,-24" class="g2_101" />
<path d="M377.5,801.5l0,-24" class="g2_101" />
<path d="M446.5,801.5l0,-24" class="g2_101" />
<path d="M887.5,801.5l0,-24" class="g2_101" />
<path fill-rule="evenodd" d="M81,969l213,0l0,-166L81,803l0,166Z" class="g1_101" />
<g clip-path="url(#c14_101)">
<path fill-rule="evenodd" d="M89,826l198,0l0,-23L89,803l0,23Z" class="g1_101" />
</g>
<path fill-rule="evenodd" d="M296,969l81,0l0,-166l-81,0l0,166Z" class="g1_101" />
<g clip-path="url(#c15_101)">
<path fill-rule="evenodd" d="M303,826l66,0l0,-23l-66,0l0,23Z" class="g1_101" />
</g>
<path fill-rule="evenodd" d="M379,969l67,0l0,-166l-67,0l0,166Z" class="g1_101" />
<g clip-path="url(#c16_101)">
<path fill-rule="evenodd" d="M386,826l52,0l0,-23l-52,0l0,23Z" class="g1_101" />
</g>
<path fill-rule="evenodd" d="M447,969l440,0l0,-166l-440,0l0,166Z" class="g1_101" />
<g clip-path="url(#c17_101)">
<path fill-rule="evenodd" d="M455,826l425,0l0,-23l-425,0l0,23Z" class="g1_101" />
</g>
<path fill-rule="evenodd" d="M455,850l425,0l0,-24l-425,0l0,24Z" class="g1_101" />
<path fill-rule="evenodd" d="M455,874l425,0l0,-24l-425,0l0,24Z" class="g1_101" />
<path fill-rule="evenodd" d="M455,898l425,0l0,-24l-425,0l0,24Z" class="g1_101" />
<path fill-rule="evenodd" d="M455,922l425,0l0,-24l-425,0l0,24Z" class="g1_101" />
<path fill-rule="evenodd" d="M455,946l425,0l0,-24l-425,0l0,24Z" class="g1_101" />
<g clip-path="url(#c17_101)">
<path fill-rule="evenodd" d="M455,969l425,0l0,-23l-425,0l0,23Z" class="g1_101" />
</g>
<path d="M46.5,803.5l0,-2" class="g2_101" />
<path d="M80.5,803.5l0,-2" class="g2_101" />
<path d="M81.5,803.5l214,0" class="g2_101" />
<path d="M295.5,803.5l0,-2" class="g2_101" />
<path d="M296.5,803.5l81,0" class="g2_101" />
<path d="M377.5,803.5l0,-2" class="g2_101" />
<path d="M379.5,803.5l67,0" class="g2_101" />
<path d="M446.5,803.5l0,-2" class="g2_101" />
<path d="M447.5,803.5l440,0" class="g2_101" />
<path d="M887.5,803.5l0,-2" class="g2_101" />
<path d="M46.5,969.5l0,-166" class="g2_101" />
<path d="M46.5,971.5l0,-2" class="g2_101" />
<path d="M46.5,971.5l0,-2" class="g2_101" />
<path d="M47.5,971.5l33,0" class="g2_101" />
<path d="M80.5,969.5l0,-166" class="g2_101" />
<path d="M80.5,971.5l0,-2" class="g2_101" />
<path d="M81.5,971.5l214,0" class="g2_101" />
<path d="M295.5,969.5l0,-166" class="g2_101" />
<path d="M295.5,971.5l0,-2" class="g2_101" />
<path d="M296.5,971.5l81,0" class="g2_101" />
<path d="M377.5,969.5l0,-166" class="g2_101" />
<path d="M377.5,971.5l0,-2" class="g2_101" />
<path d="M379.5,971.5l67,0" class="g2_101" />
<path d="M446.5,969.5l0,-166" class="g2_101" />
<path d="M446.5,971.5l0,-2" class="g2_101" />
<path d="M447.5,971.5l440,0" class="g2_101" />
<path d="M887.5,969.5l0,-166" class="g2_101" />
<path d="M887.5,971.5l0,-2" class="g2_101" />
<path d="M887.5,971.5l0,-2" class="g2_101" />
</svg>