<?xml version="1.0" encoding="UTF-8" standalone="no"?>
<!DOCTYPE svg PUBLIC "-//W3C//DTD SVG 1.1//EN"
"http://www.w3.org/Graphics/SVG/1.1/DTD/svg11.dtd">
<svg version="1.1" xmlns="http://www.w3.org/2000/svg" xmlns:xlink="http://www.w3.org/1999/xlink">
<defs>
<clipPath id="c0_267"><path d="M47.5,879.5l0,-768l39,0l0,768Z" /></clipPath>
<clipPath id="c1_267"><path d="M88.5,136.5l0,-25l218,0l0,25Z" /></clipPath>
<clipPath id="c2_267"><path d="M307.5,136.5l0,-25l79,0l0,25Z" /></clipPath>
<clipPath id="c3_267"><path d="M388.5,136.5l0,-25l75,0l0,25Z" /></clipPath>
<clipPath id="c4_267"><path d="M464.5,136.5l0,-25l423,0l0,25Z" /></clipPath>
<clipPath id="c5_267"><path d="M88.5,163.5l0,-25l218,0l0,25Z" /></clipPath>
<clipPath id="c6_267"><path d="M307.5,163.5l0,-25l79,0l0,25Z" /></clipPath>
<clipPath id="c7_267"><path d="M388.5,163.5l0,-25l75,0l0,25Z" /></clipPath>
<clipPath id="c8_267"><path d="M464.5,163.5l0,-25l423,0l0,25Z" /></clipPath>
<clipPath id="c9_267"><path d="M88.5,879.5l0,-715l39,0l0,715Z" /></clipPath>
<clipPath id="c10_267"><path d="M129.5,879.5l0,-715l39,0l0,715Z" /></clipPath>
<clipPath id="c11_267"><path d="M169.5,276.5l0,-112l40,0l0,112Z" /></clipPath>
<clipPath id="c12_267"><path d="M210.5,276.5l0,-112l96,0l0,112Z" /></clipPath>
<clipPath id="c13_267"><path d="M307.5,276.5l0,-112l79,0l0,112Z" /></clipPath>
<clipPath id="c14_267"><path d="M388.5,276.5l0,-112l75,0l0,112Z" /></clipPath>
<clipPath id="c15_267"><path d="M464.5,276.5l0,-112l423,0l0,112Z" /></clipPath>
<clipPath id="c16_267"><path d="M210.5,540.5l0,-263l96,0l0,263Z" /></clipPath>
<clipPath id="c17_267"><path d="M307.5,540.5l0,-263l79,0l0,263Z" /></clipPath>
<clipPath id="c18_267"><path d="M388.5,540.5l0,-263l75,0l0,263Z" /></clipPath>
<clipPath id="c19_267"><path d="M464.5,540.5l0,-263l423,0l0,263Z" /></clipPath>
<clipPath id="c20_267"><path d="M169.5,830.5l0,-71l137,0l0,71Z" /></clipPath>
<clipPath id="c21_267"><path d="M307.5,830.5l0,-71l79,0l0,71Z" /></clipPath>
<clipPath id="c22_267"><path d="M388.5,830.5l0,-71l75,0l0,71Z" /></clipPath>
<clipPath id="c23_267"><path d="M464.5,830.5l0,-71l423,0l0,71Z" /></clipPath>
<clipPath id="c24_267"><path d="M169.5,879.5l0,-47l137,0l0,47Z" /></clipPath>
<clipPath id="c25_267"><path d="M307.5,879.5l0,-47l79,0l0,47Z" /></clipPath>
<clipPath id="c26_267"><path d="M388.5,879.5l0,-47l75,0l0,47Z" /></clipPath>
<clipPath id="c27_267"><path d="M464.5,879.5l0,-47l423,0l0,47Z" /></clipPath>
<clipPath id="c28_267"><path d="M47.5,1002.5l0,-24l840,0l0,24Z" /></clipPath>
<clipPath id="c29_267"><path d="M47.5,1076.5l0,-47l840,0l0,47Z" /></clipPath>
<style type="text/css"><![CDATA[
.g2_267{
fill: none;
stroke: #7E7E7E;
stroke-width: 1;
stroke-linecap: butt;
stroke-linejoin: miter;
}
.g1_267{
fill: #F1F1F1;
}
]]></style>
</defs>
<path fill-rule="evenodd" d="M47,879l39,0L86,111l-39,0l0,768Z" class="g1_267" />
<g clip-path="url(#c0_267)">
<path fill-rule="evenodd" d="M55,879l23,0L78,111l-23,0l0,768Z" class="g1_267" />
</g>
<path fill-rule="evenodd" d="M88,136l218,0l0,-25L88,111l0,25Z" class="g1_267" />
<g clip-path="url(#c1_267)">
<path fill-rule="evenodd" d="M95,135l203,0l0,-24L95,111l0,24Z" class="g1_267" />
</g>
<path fill-rule="evenodd" d="M307,136l79,0l0,-25l-79,0l0,25Z" class="g1_267" />
<g clip-path="url(#c2_267)">
<path fill-rule="evenodd" d="M315,135l64,0l0,-24l-64,0l0,24Z" class="g1_267" />
</g>
<path fill-rule="evenodd" d="M388,136l75,0l0,-25l-75,0l0,25Z" class="g1_267" />
<g clip-path="url(#c3_267)">
<path fill-rule="evenodd" d="M395,135l60,0l0,-24l-60,0l0,24Z" class="g1_267" />
</g>
<path fill-rule="evenodd" d="M464,136l423,0l0,-25l-423,0l0,25Z" class="g1_267" />
<g clip-path="url(#c4_267)">
<path fill-rule="evenodd" d="M472,135l408,0l0,-24l-408,0l0,24Z" class="g1_267" />
</g>
<path d="M46.5,111.5l0,-1" class="g2_267" />
<path d="M46.5,111.5l0,-1" class="g2_267" />
<path d="M47.5,111.5l39,0" class="g2_267" />
<path d="M86.5,111.5l0,-1" class="g2_267" />
<path d="M88.5,111.5l218,0" class="g2_267" />
<path d="M306.5,111.5l0,-1" class="g2_267" />
<path d="M307.5,111.5l79,0" class="g2_267" />
<path d="M386.5,111.5l0,-1" class="g2_267" />
<path d="M388.5,111.5l75,0" class="g2_267" />
<path d="M463.5,111.5l0,-1" class="g2_267" />
<path d="M464.5,111.5l423,0" class="g2_267" />
<path d="M887.5,111.5l0,-1" class="g2_267" />
<path d="M887.5,111.5l0,-1" class="g2_267" />
<path d="M46.5,136.5l0,-25" class="g2_267" />
<path d="M86.5,136.5l0,-25" class="g2_267" />
<path d="M306.5,136.5l0,-25" class="g2_267" />
<path d="M386.5,136.5l0,-25" class="g2_267" />
<path d="M463.5,136.5l0,-25" class="g2_267" />
<path d="M887.5,136.5l0,-25" class="g2_267" />
<path fill-rule="evenodd" d="M88,163l218,0l0,-25L88,138l0,25Z" class="g1_267" />
<g clip-path="url(#c5_267)">
<path fill-rule="evenodd" d="M95,162l203,0l0,-24L95,138l0,24Z" class="g1_267" />
</g>
<path fill-rule="evenodd" d="M307,163l79,0l0,-25l-79,0l0,25Z" class="g1_267" />
<g clip-path="url(#c6_267)">
<path fill-rule="evenodd" d="M315,162l64,0l0,-24l-64,0l0,24Z" class="g1_267" />
</g>
<path fill-rule="evenodd" d="M388,163l75,0l0,-25l-75,0l0,25Z" class="g1_267" />
<g clip-path="url(#c7_267)">
<path fill-rule="evenodd" d="M395,162l60,0l0,-24l-60,0l0,24Z" class="g1_267" />
</g>
<path fill-rule="evenodd" d="M464,163l423,0l0,-25l-423,0l0,25Z" class="g1_267" />
<g clip-path="url(#c8_267)">
<path fill-rule="evenodd" d="M472,162l408,0l0,-24l-408,0l0,24Z" class="g1_267" />
</g>
<path d="M46.5,138.5l0,-2" class="g2_267" />
<path d="M86.5,138.5l0,-2" class="g2_267" />
<path d="M88.5,138.5l218,0" class="g2_267" />
<path d="M306.5,138.5l0,-2" class="g2_267" />
<path d="M307.5,138.5l79,0" class="g2_267" />
<path d="M386.5,138.5l0,-2" class="g2_267" />
<path d="M388.5,138.5l75,0" class="g2_267" />
<path d="M463.5,138.5l0,-2" class="g2_267" />
<path d="M464.5,138.5l423,0" class="g2_267" />
<path d="M887.5,138.5l0,-2" class="g2_267" />
<path d="M46.5,163.5l0,-25" class="g2_267" />
<path d="M86.5,163.5l0,-25" class="g2_267" />
<path d="M306.5,163.5l0,-25" class="g2_267" />
<path d="M386.5,163.5l0,-25" class="g2_267" />
<path d="M463.5,163.5l0,-25" class="g2_267" />
<path d="M887.5,163.5l0,-25" class="g2_267" />
<path fill-rule="evenodd" d="M88,879l39,0l0,-715l-39,0l0,715Z" class="g1_267" />
<g clip-path="url(#c9_267)">
<path fill-rule="evenodd" d="M95,879l24,0l0,-715l-24,0l0,715Z" class="g1_267" />
</g>
<path fill-rule="evenodd" d="M129,879l39,0l0,-715l-39,0l0,715Z" class="g1_267" />
<g clip-path="url(#c10_267)">
<path fill-rule="evenodd" d="M136,879l24,0l0,-715l-24,0l0,715Z" class="g1_267" />
</g>
<path fill-rule="evenodd" d="M169,276l40,0l0,-112l-40,0l0,112Z" class="g1_267" />
<g clip-path="url(#c11_267)">
<path fill-rule="evenodd" d="M177,276l24,0l0,-112l-24,0l0,112Z" class="g1_267" />
</g>
<path fill-rule="evenodd" d="M210,276l96,0l0,-112l-96,0l0,112Z" class="g1_267" />
<g clip-path="url(#c12_267)">
<path fill-rule="evenodd" d="M218,188l80,0l0,-24l-80,0l0,24Z" class="g1_267" />
</g>
<path fill-rule="evenodd" d="M307,276l79,0l0,-112l-79,0l0,112Z" class="g1_267" />
<g clip-path="url(#c13_267)">
<path fill-rule="evenodd" d="M315,188l64,0l0,-24l-64,0l0,24Z" class="g1_267" />
</g>
<path fill-rule="evenodd" d="M388,276l75,0l0,-112l-75,0l0,112Z" class="g1_267" />
<g clip-path="url(#c14_267)">
<path fill-rule="evenodd" d="M395,188l60,0l0,-24l-60,0l0,24Z" class="g1_267" />
</g>
<path fill-rule="evenodd" d="M464,276l423,0l0,-112l-423,0l0,112Z" class="g1_267" />
<g clip-path="url(#c15_267)">
<path fill-rule="evenodd" d="M472,188l408,0l0,-24l-408,0l0,24Z" class="g1_267" />
</g>
<path fill-rule="evenodd" d="M472,212l408,0l0,-24l-408,0l0,24Z" class="g1_267" />
<path d="M46.5,164.5l0,-1" class="g2_267" />
<path d="M86.5,164.5l0,-1" class="g2_267" />
<path d="M88.5,164.5l39,0" class="g2_267" />
<path d="M127.5,164.5l0,-1" class="g2_267" />
<path d="M129.5,164.5l39,0" class="g2_267" />
<path d="M168.5,164.5l0,-1" class="g2_267" />
<path d="M169.5,164.5l40,0" class="g2_267" />
<path d="M209.5,164.5l0,-1" class="g2_267" />
<path d="M210.5,164.5l96,0" class="g2_267" />
<path d="M306.5,164.5l0,-1" class="g2_267" />
<path d="M307.5,164.5l79,0" class="g2_267" />
<path d="M386.5,164.5l0,-1" class="g2_267" />
<path d="M388.5,164.5l75,0" class="g2_267" />
<path d="M463.5,164.5l0,-1" class="g2_267" />
<path d="M464.5,164.5l423,0" class="g2_267" />
<path d="M887.5,164.5l0,-1" class="g2_267" />
<path d="M46.5,276.5l0,-112" class="g2_267" />
<path d="M86.5,276.5l0,-112" class="g2_267" />
<path d="M127.5,276.5l0,-112" class="g2_267" />
<path d="M168.5,276.5l0,-112" class="g2_267" />
<path d="M209.5,276.5l0,-112" class="g2_267" />
<path d="M306.5,276.5l0,-112" class="g2_267" />
<path d="M386.5,276.5l0,-112" class="g2_267" />
<path d="M463.5,276.5l0,-112" class="g2_267" />
<path d="M887.5,276.5l0,-112" class="g2_267" />
<path fill-rule="evenodd" d="M169,540l40,0l0,-263l-40,0l0,263Z" class="g1_267" />
<path fill-rule="evenodd" d="M177,540l24,0l0,-263l-24,0l0,263Z" class="g1_267" />
<path fill-rule="evenodd" d="M210,540l96,0l0,-263l-96,0l0,263Z" class="g1_267" />
<g clip-path="url(#c16_267)">
<path fill-rule="evenodd" d="M218,301l80,0l0,-24l-80,0l0,24Z" class="g1_267" />
</g>
<path fill-rule="evenodd" d="M307,540l79,0l0,-263l-79,0l0,263Z" class="g1_267" />
<g clip-path="url(#c17_267)">
<path fill-rule="evenodd" d="M315,301l64,0l0,-24l-64,0l0,24Z" class="g1_267" />
</g>
<path fill-rule="evenodd" d="M388,540l75,0l0,-263l-75,0l0,263Z" class="g1_267" />
<g clip-path="url(#c18_267)">
<path fill-rule="evenodd" d="M395,301l60,0l0,-24l-60,0l0,24Z" class="g1_267" />
</g>
<path fill-rule="evenodd" d="M464,540l423,0l0,-263l-423,0l0,263Z" class="g1_267" />
<g clip-path="url(#c19_267)">
<path fill-rule="evenodd" d="M472,301l408,0l0,-24l-408,0l0,24Z" class="g1_267" />
</g>
<path fill-rule="evenodd" d="M472,325l408,0l0,-24l-408,0l0,24Z" class="g1_267" />
<path fill-rule="evenodd" d="M472,349l408,0l0,-24l-408,0l0,24Z" class="g1_267" />
<path fill-rule="evenodd" d="M472,373l408,0l0,-24l-408,0l0,24Z" class="g1_267" />
<path fill-rule="evenodd" d="M472,397l408,0l0,-24l-408,0l0,24Z" class="g1_267" />
<path fill-rule="evenodd" d="M472,421l408,0l0,-24l-408,0l0,24Z" class="g1_267" />
<path fill-rule="evenodd" d="M472,444l408,0l0,-23l-408,0l0,23Z" class="g1_267" />
<path fill-rule="evenodd" d="M472,468l408,0l0,-24l-408,0l0,24Z" class="g1_267" />
<path fill-rule="evenodd" d="M472,492l408,0l0,-24l-408,0l0,24Z" class="g1_267" />
<path fill-rule="evenodd" d="M472,516l408,0l0,-24l-408,0l0,24Z" class="g1_267" />
<path fill-rule="evenodd" d="M472,540l408,0l0,-24l-408,0l0,24Z" class="g1_267" />
<path d="M46.5,277.5l0,-1" class="g2_267" />
<path d="M86.5,277.5l0,-1" class="g2_267" />
<path d="M127.5,277.5l0,-1" class="g2_267" />
<path d="M168.5,277.5l0,-1" class="g2_267" />
<path d="M169.5,277.5l40,0" class="g2_267" />
<path d="M209.5,277.5l0,-1" class="g2_267" />
<path d="M210.5,277.5l96,0" class="g2_267" />
<path d="M306.5,277.5l0,-1" class="g2_267" />
<path d="M307.5,277.5l79,0" class="g2_267" />
<path d="M386.5,277.5l0,-1" class="g2_267" />
<path d="M388.5,277.5l75,0" class="g2_267" />
<path d="M463.5,277.5l0,-1" class="g2_267" />
<path d="M464.5,277.5l423,0" class="g2_267" />
<path d="M887.5,277.5l0,-1" class="g2_267" />
<path d="M46.5,540.5l0,-263" class="g2_267" />
<path d="M86.5,540.5l0,-263" class="g2_267" />
<path d="M127.5,540.5l0,-263" class="g2_267" />
<path d="M168.5,540.5l0,-263" class="g2_267" />
<path d="M209.5,540.5l0,-263" class="g2_267" />
<path d="M306.5,540.5l0,-263" class="g2_267" />
<path d="M386.5,540.5l0,-263" class="g2_267" />
<path d="M463.5,540.5l0,-263" class="g2_267" />
<path d="M887.5,540.5l0,-263" class="g2_267" />
<path fill-rule="evenodd" d="M169,589l137,0l0,-48l-137,0l0,48Z" class="g1_267" />
<path fill-rule="evenodd" d="M177,565l121,0l0,-24l-121,0l0,24Z" class="g1_267" />
<path fill-rule="evenodd" d="M307,589l79,0l0,-48l-79,0l0,48Z" class="g1_267" />
<path fill-rule="evenodd" d="M315,565l64,0l0,-24l-64,0l0,24Z" class="g1_267" />
<path fill-rule="evenodd" d="M388,589l75,0l0,-48l-75,0l0,48Z" class="g1_267" />
<path fill-rule="evenodd" d="M395,565l60,0l0,-24l-60,0l0,24Z" class="g1_267" />
<path fill-rule="evenodd" d="M464,589l423,0l0,-48l-423,0l0,48Z" class="g1_267" />
<path fill-rule="evenodd" d="M472,565l408,0l0,-24l-408,0l0,24Z" class="g1_267" />
<path fill-rule="evenodd" d="M472,589l408,0l0,-24l-408,0l0,24Z" class="g1_267" />
<path d="M46.5,541.5l0,-1" class="g2_267" />
<path d="M86.5,541.5l0,-1" class="g2_267" />
<path d="M127.5,541.5l0,-1" class="g2_267" />
<path d="M168.5,541.5l0,-1" class="g2_267" />
<path d="M169.5,541.5l40,0" class="g2_267" />
<path d="M209.5,541.5l0,-1" class="g2_267" />
<path d="M210.5,541.5l96,0" class="g2_267" />
<path d="M306.5,541.5l0,-1" class="g2_267" />
<path d="M307.5,541.5l79,0" class="g2_267" />
<path d="M386.5,541.5l0,-1" class="g2_267" />
<path d="M388.5,541.5l75,0" class="g2_267" />
<path d="M463.5,541.5l0,-1" class="g2_267" />
<path d="M464.5,541.5l423,0" class="g2_267" />
<path d="M887.5,541.5l0,-1" class="g2_267" />
<path d="M46.5,589.5l0,-48" class="g2_267" />
<path d="M86.5,589.5l0,-48" class="g2_267" />
<path d="M127.5,589.5l0,-48" class="g2_267" />
<path d="M168.5,589.5l0,-48" class="g2_267" />
<path d="M306.5,589.5l0,-48" class="g2_267" />
<path d="M386.5,589.5l0,-48" class="g2_267" />
<path d="M463.5,589.5l0,-48" class="g2_267" />
<path d="M887.5,589.5l0,-48" class="g2_267" />
<path fill-rule="evenodd" d="M169,757l137,0l0,-167l-137,0l0,167Z" class="g1_267" />
<path fill-rule="evenodd" d="M177,614l121,0l0,-24l-121,0l0,24Z" class="g1_267" />
<path fill-rule="evenodd" d="M307,757l79,0l0,-167l-79,0l0,167Z" class="g1_267" />
<path fill-rule="evenodd" d="M315,614l64,0l0,-24l-64,0l0,24Z" class="g1_267" />
<path fill-rule="evenodd" d="M388,757l75,0l0,-167l-75,0l0,167Z" class="g1_267" />
<path fill-rule="evenodd" d="M395,614l60,0l0,-24l-60,0l0,24Z" class="g1_267" />
<path fill-rule="evenodd" d="M464,757l423,0l0,-167l-423,0l0,167Z" class="g1_267" />
<path fill-rule="evenodd" d="M472,614l408,0l0,-24l-408,0l0,24Z" class="g1_267" />
<path fill-rule="evenodd" d="M472,638l408,0l0,-24l-408,0l0,24Z" class="g1_267" />
<path fill-rule="evenodd" d="M472,662l408,0l0,-24l-408,0l0,24Z" class="g1_267" />
<path fill-rule="evenodd" d="M472,686l408,0l0,-24l-408,0l0,24Z" class="g1_267" />
<path fill-rule="evenodd" d="M472,709l408,0l0,-23l-408,0l0,23Z" class="g1_267" />
<path fill-rule="evenodd" d="M472,733l408,0l0,-24l-408,0l0,24Z" class="g1_267" />
<path fill-rule="evenodd" d="M472,757l408,0l0,-24l-408,0l0,24Z" class="g1_267" />
<path d="M46.5,590.5l0,-1" class="g2_267" />
<path d="M86.5,590.5l0,-1" class="g2_267" />
<path d="M127.5,590.5l0,-1" class="g2_267" />
<path d="M168.5,590.5l0,-1" class="g2_267" />
<path d="M169.5,590.5l137,0" class="g2_267" />
<path d="M306.5,590.5l0,-1" class="g2_267" />
<path d="M307.5,590.5l79,0" class="g2_267" />
<path d="M386.5,590.5l0,-1" class="g2_267" />
<path d="M388.5,590.5l75,0" class="g2_267" />
<path d="M463.5,590.5l0,-1" class="g2_267" />
<path d="M464.5,590.5l423,0" class="g2_267" />
<path d="M887.5,590.5l0,-1" class="g2_267" />
<path d="M46.5,757.5l0,-167" class="g2_267" />
<path d="M86.5,757.5l0,-167" class="g2_267" />
<path d="M127.5,757.5l0,-167" class="g2_267" />
<path d="M168.5,757.5l0,-167" class="g2_267" />
<path d="M306.5,757.5l0,-167" class="g2_267" />
<path d="M386.5,757.5l0,-167" class="g2_267" />
<path d="M463.5,757.5l0,-167" class="g2_267" />
<path d="M887.5,757.5l0,-167" class="g2_267" />
<path fill-rule="evenodd" d="M169,830l137,0l0,-71l-137,0l0,71Z" class="g1_267" />
<g clip-path="url(#c20_267)">
<path fill-rule="evenodd" d="M177,783l121,0l0,-24l-121,0l0,24Z" class="g1_267" />
</g>
<path fill-rule="evenodd" d="M307,830l79,0l0,-71l-79,0l0,71Z" class="g1_267" />
<g clip-path="url(#c21_267)">
<path fill-rule="evenodd" d="M315,783l64,0l0,-24l-64,0l0,24Z" class="g1_267" />
</g>
<path fill-rule="evenodd" d="M388,830l75,0l0,-71l-75,0l0,71Z" class="g1_267" />
<g clip-path="url(#c22_267)">
<path fill-rule="evenodd" d="M395,783l60,0l0,-24l-60,0l0,24Z" class="g1_267" />
</g>
<path fill-rule="evenodd" d="M464,830l423,0l0,-71l-423,0l0,71Z" class="g1_267" />
<g clip-path="url(#c23_267)">
<path fill-rule="evenodd" d="M472,783l408,0l0,-24l-408,0l0,24Z" class="g1_267" />
</g>
<path fill-rule="evenodd" d="M472,806l408,0l0,-23l-408,0l0,23Z" class="g1_267" />
<path fill-rule="evenodd" d="M472,830l408,0l0,-24l-408,0l0,24Z" class="g1_267" />
<path d="M46.5,759.5l0,-2" class="g2_267" />
<path d="M86.5,759.5l0,-2" class="g2_267" />
<path d="M127.5,759.5l0,-2" class="g2_267" />
<path d="M168.5,759.5l0,-2" class="g2_267" />
<path d="M169.5,759.5l137,0" class="g2_267" />
<path d="M306.5,759.5l0,-2" class="g2_267" />
<path d="M307.5,759.5l79,0" class="g2_267" />
<path d="M386.5,759.5l0,-2" class="g2_267" />
<path d="M388.5,759.5l75,0" class="g2_267" />
<path d="M463.5,759.5l0,-2" class="g2_267" />
<path d="M464.5,759.5l423,0" class="g2_267" />
<path d="M887.5,759.5l0,-2" class="g2_267" />
<path d="M46.5,830.5l0,-71" class="g2_267" />
<path d="M86.5,830.5l0,-71" class="g2_267" />
<path d="M127.5,830.5l0,-71" class="g2_267" />
<path d="M168.5,830.5l0,-71" class="g2_267" />
<path d="M306.5,830.5l0,-71" class="g2_267" />
<path d="M386.5,830.5l0,-71" class="g2_267" />
<path d="M463.5,830.5l0,-71" class="g2_267" />
<path d="M887.5,830.5l0,-71" class="g2_267" />
<path fill-rule="evenodd" d="M169,879l137,0l0,-47l-137,0l0,47Z" class="g1_267" />
<g clip-path="url(#c24_267)">
<path fill-rule="evenodd" d="M177,856l121,0l0,-24l-121,0l0,24Z" class="g1_267" />
</g>
<path fill-rule="evenodd" d="M307,879l79,0l0,-47l-79,0l0,47Z" class="g1_267" />
<g clip-path="url(#c25_267)">
<path fill-rule="evenodd" d="M315,856l64,0l0,-24l-64,0l0,24Z" class="g1_267" />
</g>
<path fill-rule="evenodd" d="M388,879l75,0l0,-47l-75,0l0,47Z" class="g1_267" />
<g clip-path="url(#c26_267)">
<path fill-rule="evenodd" d="M395,856l60,0l0,-24l-60,0l0,24Z" class="g1_267" />
</g>
<path fill-rule="evenodd" d="M464,879l423,0l0,-47l-423,0l0,47Z" class="g1_267" />
<g clip-path="url(#c27_267)">
<path fill-rule="evenodd" d="M472,856l408,0l0,-24l-408,0l0,24Z" class="g1_267" />
</g>
<path fill-rule="evenodd" d="M472,879l408,0l0,-23l-408,0l0,23Z" class="g1_267" />
<path d="M46.5,832.5l0,-2" class="g2_267" />
<path d="M86.5,832.5l0,-2" class="g2_267" />
<path d="M127.5,832.5l0,-2" class="g2_267" />
<path d="M168.5,832.5l0,-2" class="g2_267" />
<path d="M169.5,832.5l137,0" class="g2_267" />
<path d="M306.5,832.5l0,-2" class="g2_267" />
<path d="M307.5,832.5l79,0" class="g2_267" />
<path d="M386.5,832.5l0,-2" class="g2_267" />
<path d="M388.5,832.5l75,0" class="g2_267" />
<path d="M463.5,832.5l0,-2" class="g2_267" />
<path d="M464.5,832.5l423,0" class="g2_267" />
<path d="M887.5,832.5l0,-2" class="g2_267" />
<path d="M46.5,879.5l0,-47" class="g2_267" />
<path d="M46.5,881.5l0,-2" class="g2_267" />
<path d="M46.5,881.5l0,-2" class="g2_267" />
<path d="M47.5,881.5l39,0" class="g2_267" />
<path d="M86.5,879.5l0,-47" class="g2_267" />
<path d="M86.5,881.5l0,-2" class="g2_267" />
<path d="M88.5,881.5l39,0" class="g2_267" />
<path d="M127.5,879.5l0,-47" class="g2_267" />
<path d="M127.5,881.5l0,-2" class="g2_267" />
<path d="M129.5,881.5l39,0" class="g2_267" />
<path d="M168.5,879.5l0,-47" class="g2_267" />
<path d="M168.5,881.5l0,-2" class="g2_267" />
<path d="M169.5,881.5l137,0" class="g2_267" />
<path d="M306.5,879.5l0,-47" class="g2_267" />
<path d="M306.5,881.5l0,-2" class="g2_267" />
<path d="M307.5,881.5l79,0" class="g2_267" />
<path d="M386.5,879.5l0,-47" class="g2_267" />
<path d="M386.5,881.5l0,-2" class="g2_267" />
<path d="M388.5,881.5l75,0" class="g2_267" />
<path d="M463.5,879.5l0,-47" class="g2_267" />
<path d="M463.5,881.5l0,-2" class="g2_267" />
<path d="M464.5,881.5l423,0" class="g2_267" />
<path d="M887.5,879.5l0,-47" class="g2_267" />
<path d="M887.5,881.5l0,-2" class="g2_267" />
<path d="M887.5,881.5l0,-2" class="g2_267" />
<path fill-rule="evenodd" d="M47,1002l840,0l0,-24L47,978l0,24Z" class="g1_267" />
<g clip-path="url(#c28_267)">
<path fill-rule="evenodd" d="M55,1002l825,0l0,-24L55,978l0,24Z" class="g1_267" />
</g>
<path d="M46.5,978.5l0,-2" class="g2_267" />
<path d="M46.5,978.5l0,-2" class="g2_267" />
<path d="M47.5,978.5l840,0" class="g2_267" />
<path d="M887.5,978.5l0,-2" class="g2_267" />
<path d="M887.5,978.5l0,-2" class="g2_267" />
<path d="M46.5,1002.5l0,-24" class="g2_267" />
<path d="M46.5,1003.5l0,-1" class="g2_267" />
<path d="M46.5,1003.5l0,-1" class="g2_267" />
<path d="M47.5,1003.5l840,0" class="g2_267" />
<path d="M887.5,1002.5l0,-24" class="g2_267" />
<path d="M887.5,1003.5l0,-1" class="g2_267" />
<path d="M887.5,1003.5l0,-1" class="g2_267" />
<path fill-rule="evenodd" d="M47,1076l840,0l0,-47l-840,0l0,47Z" class="g1_267" />
<path fill-rule="evenodd" d="M55,1052l825,0l0,-23l-825,0l0,23Z" class="g1_267" />
<g clip-path="url(#c29_267)">
<path fill-rule="evenodd" d="M55,1076l825,0l0,-24l-825,0l0,24Z" class="g1_267" />
</g>
<path d="M46.5,1029.5l0,-2" class="g2_267" />
<path d="M46.5,1029.5l0,-2" class="g2_267" />
<path d="M47.5,1029.5l840,0" class="g2_267" />
<path d="M887.5,1029.5l0,-2" class="g2_267" />
<path d="M887.5,1029.5l0,-2" class="g2_267" />
<path d="M46.5,1076.5l0,-47" class="g2_267" />
<path d="M46.5,1078.5l0,-2" class="g2_267" />
<path d="M46.5,1078.5l0,-2" class="g2_267" />
<path d="M47.5,1078.5l840,0" class="g2_267" />
<path d="M887.5,1076.5l0,-47" class="g2_267" />
<path d="M887.5,1078.5l0,-2" class="g2_267" />
<path d="M887.5,1078.5l0,-2" class="g2_267" />
</svg>