<?xml version="1.0" encoding="UTF-8" standalone="no"?>
<!DOCTYPE svg PUBLIC "-//W3C//DTD SVG 1.1//EN"
"http://www.w3.org/Graphics/SVG/1.1/DTD/svg11.dtd">
<svg version="1.1" xmlns="http://www.w3.org/2000/svg" xmlns:xlink="http://www.w3.org/1999/xlink">
<defs>
<clipPath id="c0_45"><path d="M47.5,285.5l0,-174l840,0l0,174Z" /></clipPath>
<clipPath id="c1_45"><path d="M47.5,902.5l0,-182l840,0l0,182Z" /></clipPath>
<clipPath id="c2_45"><path d="M47.5,1072.5l0,-96l840,0l0,96Z" /></clipPath>
<style type="text/css"><![CDATA[
.g4_45{
fill: none;
stroke: #0000FF;
stroke-width: 1;
stroke-linecap: butt;
stroke-linejoin: miter;
}
.g2_45{
fill: none;
stroke: #F0F0E0;
stroke-width: 1;
stroke-linecap: butt;
stroke-linejoin: miter;
}
.g3_45{
fill: none;
stroke: #7E7E7E;
stroke-width: 1;
stroke-linecap: butt;
stroke-linejoin: miter;
}
.g5_45{
fill: #DBE5F1;
}
.g1_45{
fill: #F1F1F1;
}
]]></style>
</defs>
<path fill-rule="evenodd" d="M47,285l840,0l0,-174L47,111l0,174Z" class="g1_45" />
<g clip-path="url(#c0_45)">
<path fill-rule="evenodd" d="M55,135l825,0l0,-24L55,111l0,24Z" class="g1_45" />
<path d="M45.5,135.5l0,-24" class="g2_45" />
<path d="M888.5,135.5l0,-24" class="g2_45" />
</g>
<path fill-rule="evenodd" d="M55,159l825,0l0,-24L55,135l0,24Z" class="g1_45" />
<g clip-path="url(#c0_45)">
<path d="M45.5,159.5l0,-24" class="g2_45" />
<path d="M888.5,159.5l0,-24" class="g2_45" />
</g>
<path fill-rule="evenodd" d="M55,182l825,0l0,-23L55,159l0,23Z" class="g1_45" />
<g clip-path="url(#c0_45)">
<path d="M45.5,182.5l0,-23" class="g2_45" />
<path d="M888.5,182.5l0,-23" class="g2_45" />
</g>
<path fill-rule="evenodd" d="M55,206l825,0l0,-24L55,182l0,24Z" class="g1_45" />
<g clip-path="url(#c0_45)">
<path d="M45.5,206.5l0,-24" class="g2_45" />
<path d="M888.5,206.5l0,-24" class="g2_45" />
</g>
<path fill-rule="evenodd" d="M55,230l825,0l0,-24L55,206l0,24Z" class="g1_45" />
<g clip-path="url(#c0_45)">
<path d="M45.5,230.5l0,-24" class="g2_45" />
<path d="M888.5,230.5l0,-24" class="g2_45" />
</g>
<path fill-rule="evenodd" d="M55,254l825,0l0,-24L55,230l0,24Z" class="g1_45" />
<g clip-path="url(#c0_45)">
<path d="M45.5,254.5l0,-24" class="g2_45" />
<path d="M888.5,254.5l0,-24" class="g2_45" />
</g>
<path fill-rule="evenodd" d="M55,285l825,0l0,-31L55,254l0,31Z" class="g1_45" />
<g clip-path="url(#c0_45)">
<path d="M45.5,285.5l0,-1" class="g2_45" />
<path d="M45.5,285.5l0,-1" class="g2_45" />
<path d="M46.5,285.5l842,0" class="g2_45" />
<path d="M888.5,285.5l0,-1" class="g2_45" />
<path d="M888.5,285.5l0,-1" class="g2_45" />
<path d="M45.5,284.5l0,-30" class="g2_45" />
<path d="M888.5,284.5l0,-30" class="g2_45" />
</g>
<path d="M46.5,111.5l0,-1" class="g3_45" />
<path d="M46.5,111.5l0,-1" class="g3_45" />
<path d="M47.5,111.5l840,0" class="g3_45" />
<path d="M887.5,111.5l0,-1" class="g3_45" />
<path d="M887.5,111.5l0,-1" class="g3_45" />
<path d="M46.5,285.5l0,-174" class="g3_45" />
<path d="M46.5,287.5l0,-2" class="g3_45" />
<path d="M46.5,287.5l0,-2" class="g3_45" />
<path d="M47.5,287.5l840,0" class="g3_45" />
<path d="M887.5,285.5l0,-174" class="g3_45" />
<path d="M887.5,287.5l0,-2" class="g3_45" />
<path d="M887.5,287.5l0,-2" class="g3_45" />
<path d="M371.5,391.5l163,0" class="g4_45" />
<path fill-rule="evenodd" d="M47,445l102,0l0,-24L47,421l0,24Z" class="g5_45" />
<path fill-rule="evenodd" d="M55,445l87,0l0,-24l-87,0l0,24Z" class="g5_45" />
<path fill-rule="evenodd" d="M151,445l736,0l0,-24l-736,0l0,24Z" class="g5_45" />
<path fill-rule="evenodd" d="M158,445l722,0l0,-24l-722,0l0,24Z" class="g5_45" />
<path d="M46.5,421.5l0,-2" class="g3_45" />
<path d="M46.5,421.5l0,-2" class="g3_45" />
<path d="M47.5,421.5l102,0" class="g3_45" />
<path d="M149.5,421.5l0,-2" class="g3_45" />
<path d="M151.5,421.5l736,0" class="g3_45" />
<path d="M887.5,421.5l0,-2" class="g3_45" />
<path d="M887.5,421.5l0,-2" class="g3_45" />
<path d="M46.5,445.5l0,-24" class="g3_45" />
<path d="M149.5,445.5l0,-24" class="g3_45" />
<path d="M887.5,445.5l0,-24" class="g3_45" />
<path fill-rule="evenodd" d="M47,470l102,0l0,-24L47,446l0,24Z" class="g1_45" />
<path fill-rule="evenodd" d="M55,470l87,0l0,-24l-87,0l0,24Z" class="g1_45" />
<path fill-rule="evenodd" d="M151,470l736,0l0,-24l-736,0l0,24Z" class="g1_45" />
<path fill-rule="evenodd" d="M158,470l722,0l0,-24l-722,0l0,24Z" class="g1_45" />
<path d="M46.5,446.5l0,-1" class="g3_45" />
<path d="M47.5,446.5l102,0" class="g3_45" />
<path d="M149.5,446.5l0,-1" class="g3_45" />
<path d="M151.5,446.5l736,0" class="g3_45" />
<path d="M887.5,446.5l0,-1" class="g3_45" />
<path d="M46.5,470.5l0,-24" class="g3_45" />
<path d="M149.5,470.5l0,-24" class="g3_45" />
<path d="M887.5,470.5l0,-24" class="g3_45" />
<path fill-rule="evenodd" d="M47,495l102,0l0,-24L47,471l0,24Z" class="g1_45" />
<path fill-rule="evenodd" d="M55,495l87,0l0,-24l-87,0l0,24Z" class="g1_45" />
<path fill-rule="evenodd" d="M151,495l736,0l0,-24l-736,0l0,24Z" class="g1_45" />
<path fill-rule="evenodd" d="M158,495l722,0l0,-24l-722,0l0,24Z" class="g1_45" />
<path d="M46.5,471.5l0,-1" class="g3_45" />
<path d="M47.5,471.5l102,0" class="g3_45" />
<path d="M149.5,471.5l0,-1" class="g3_45" />
<path d="M151.5,471.5l736,0" class="g3_45" />
<path d="M887.5,471.5l0,-1" class="g3_45" />
<path d="M46.5,495.5l0,-24" class="g3_45" />
<path d="M149.5,495.5l0,-24" class="g3_45" />
<path d="M887.5,495.5l0,-24" class="g3_45" />
<path fill-rule="evenodd" d="M47,521l102,0l0,-24L47,497l0,24Z" class="g1_45" />
<path fill-rule="evenodd" d="M55,521l87,0l0,-24l-87,0l0,24Z" class="g1_45" />
<path fill-rule="evenodd" d="M151,521l736,0l0,-24l-736,0l0,24Z" class="g1_45" />
<path fill-rule="evenodd" d="M158,521l722,0l0,-24l-722,0l0,24Z" class="g1_45" />
<path d="M46.5,497.5l0,-2" class="g3_45" />
<path d="M47.5,497.5l102,0" class="g3_45" />
<path d="M149.5,497.5l0,-2" class="g3_45" />
<path d="M151.5,497.5l736,0" class="g3_45" />
<path d="M887.5,497.5l0,-2" class="g3_45" />
<path d="M46.5,521.5l0,-24" class="g3_45" />
<path d="M149.5,521.5l0,-24" class="g3_45" />
<path d="M887.5,521.5l0,-24" class="g3_45" />
<path fill-rule="evenodd" d="M47,546l102,0l0,-24L47,522l0,24Z" class="g1_45" />
<path fill-rule="evenodd" d="M55,546l87,0l0,-24l-87,0l0,24Z" class="g1_45" />
<path fill-rule="evenodd" d="M151,546l736,0l0,-24l-736,0l0,24Z" class="g1_45" />
<path fill-rule="evenodd" d="M158,546l722,0l0,-24l-722,0l0,24Z" class="g1_45" />
<path d="M46.5,522.5l0,-1" class="g3_45" />
<path d="M47.5,522.5l102,0" class="g3_45" />
<path d="M149.5,522.5l0,-1" class="g3_45" />
<path d="M151.5,522.5l736,0" class="g3_45" />
<path d="M887.5,522.5l0,-1" class="g3_45" />
<path d="M46.5,546.5l0,-24" class="g3_45" />
<path d="M149.5,546.5l0,-24" class="g3_45" />
<path d="M887.5,546.5l0,-24" class="g3_45" />
<path fill-rule="evenodd" d="M47,571l102,0l0,-23L47,548l0,23Z" class="g1_45" />
<path fill-rule="evenodd" d="M55,571l87,0l0,-23l-87,0l0,23Z" class="g1_45" />
<path fill-rule="evenodd" d="M151,571l736,0l0,-23l-736,0l0,23Z" class="g1_45" />
<path fill-rule="evenodd" d="M158,571l722,0l0,-23l-722,0l0,23Z" class="g1_45" />
<path d="M46.5,547.5l0,-1" class="g3_45" />
<path d="M47.5,547.5l102,0" class="g3_45" />
<path d="M149.5,547.5l0,-1" class="g3_45" />
<path d="M151.5,547.5l736,0" class="g3_45" />
<path d="M887.5,547.5l0,-1" class="g3_45" />
<path d="M46.5,571.5l0,-24" class="g3_45" />
<path d="M149.5,571.5l0,-24" class="g3_45" />
<path d="M887.5,571.5l0,-24" class="g3_45" />
<path fill-rule="evenodd" d="M47,597l102,0l0,-24L47,573l0,24Z" class="g1_45" />
<path fill-rule="evenodd" d="M55,597l87,0l0,-24l-87,0l0,24Z" class="g1_45" />
<path fill-rule="evenodd" d="M151,597l736,0l0,-24l-736,0l0,24Z" class="g1_45" />
<path fill-rule="evenodd" d="M158,597l722,0l0,-24l-722,0l0,24Z" class="g1_45" />
<path d="M46.5,573.5l0,-2" class="g3_45" />
<path d="M47.5,573.5l102,0" class="g3_45" />
<path d="M149.5,573.5l0,-2" class="g3_45" />
<path d="M151.5,573.5l736,0" class="g3_45" />
<path d="M887.5,573.5l0,-2" class="g3_45" />
<path d="M46.5,597.5l0,-24" class="g3_45" />
<path d="M149.5,597.5l0,-24" class="g3_45" />
<path d="M887.5,597.5l0,-24" class="g3_45" />
<path fill-rule="evenodd" d="M47,646l102,0l0,-48L47,598l0,48Z" class="g1_45" />
<path fill-rule="evenodd" d="M55,622l87,0l0,-24l-87,0l0,24Z" class="g1_45" />
<path fill-rule="evenodd" d="M151,646l736,0l0,-48l-736,0l0,48Z" class="g1_45" />
<path fill-rule="evenodd" d="M158,622l722,0l0,-24l-722,0l0,24Z" class="g1_45" />
<path fill-rule="evenodd" d="M158,646l722,0l0,-24l-722,0l0,24Z" class="g1_45" />
<path d="M46.5,598.5l0,-1" class="g3_45" />
<path d="M47.5,598.5l102,0" class="g3_45" />
<path d="M149.5,598.5l0,-1" class="g3_45" />
<path d="M151.5,598.5l736,0" class="g3_45" />
<path d="M887.5,598.5l0,-1" class="g3_45" />
<path d="M46.5,646.5l0,-48" class="g3_45" />
<path d="M46.5,647.5l0,-1" class="g3_45" />
<path d="M46.5,647.5l0,-1" class="g3_45" />
<path d="M47.5,647.5l102,0" class="g3_45" />
<path d="M149.5,646.5l0,-48" class="g3_45" />
<path d="M149.5,647.5l0,-1" class="g3_45" />
<path d="M151.5,647.5l736,0" class="g3_45" />
<path d="M887.5,646.5l0,-48" class="g3_45" />
<path d="M887.5,647.5l0,-1" class="g3_45" />
<path d="M887.5,647.5l0,-1" class="g3_45" />
<path fill-rule="evenodd" d="M47,902l840,0l0,-182L47,720l0,182Z" class="g1_45" />
<g clip-path="url(#c1_45)">
<path fill-rule="evenodd" d="M55,751l825,0l0,-31L55,720l0,31Z" class="g1_45" />
<path d="M45.5,722.5l0,-2" class="g2_45" />
<path d="M45.5,722.5l0,-2" class="g2_45" />
<path d="M46.5,722.5l842,0" class="g2_45" />
<path d="M888.5,722.5l0,-2" class="g2_45" />
<path d="M888.5,722.5l0,-2" class="g2_45" />
<path d="M45.5,751.5l0,-29" class="g2_45" />
<path d="M888.5,751.5l0,-29" class="g2_45" />
</g>
<path fill-rule="evenodd" d="M55,775l825,0l0,-24L55,751l0,24Z" class="g1_45" />
<g clip-path="url(#c1_45)">
<path d="M45.5,775.5l0,-24" class="g2_45" />
<path d="M888.5,775.5l0,-24" class="g2_45" />
</g>
<path fill-rule="evenodd" d="M55,799l825,0l0,-24L55,775l0,24Z" class="g1_45" />
<g clip-path="url(#c1_45)">
<path d="M45.5,799.5l0,-24" class="g2_45" />
<path d="M888.5,799.5l0,-24" class="g2_45" />
</g>
<path fill-rule="evenodd" d="M55,823l825,0l0,-24L55,799l0,24Z" class="g1_45" />
<g clip-path="url(#c1_45)">
<path d="M45.5,823.5l0,-24" class="g2_45" />
<path d="M888.5,823.5l0,-24" class="g2_45" />
</g>
<path fill-rule="evenodd" d="M55,847l825,0l0,-24L55,823l0,24Z" class="g1_45" />
<g clip-path="url(#c1_45)">
<path d="M45.5,847.5l0,-24" class="g2_45" />
<path d="M888.5,847.5l0,-24" class="g2_45" />
</g>
<path fill-rule="evenodd" d="M55,871l825,0l0,-24L55,847l0,24Z" class="g1_45" />
<g clip-path="url(#c1_45)">
<path d="M45.5,871.5l0,-24" class="g2_45" />
<path d="M888.5,871.5l0,-24" class="g2_45" />
</g>
<path fill-rule="evenodd" d="M55,902l825,0l0,-31L55,871l0,31Z" class="g1_45" />
<g clip-path="url(#c1_45)">
<path d="M45.5,902.5l0,-1" class="g2_45" />
<path d="M45.5,902.5l0,-1" class="g2_45" />
<path d="M46.5,902.5l842,0" class="g2_45" />
<path d="M888.5,902.5l0,-1" class="g2_45" />
<path d="M888.5,902.5l0,-1" class="g2_45" />
<path d="M45.5,901.5l0,-30" class="g2_45" />
<path d="M888.5,901.5l0,-30" class="g2_45" />
</g>
<path d="M46.5,720.5l0,-1" class="g3_45" />
<path d="M46.5,720.5l0,-1" class="g3_45" />
<path d="M47.5,720.5l840,0" class="g3_45" />
<path d="M887.5,720.5l0,-1" class="g3_45" />
<path d="M887.5,720.5l0,-1" class="g3_45" />
<path d="M46.5,902.5l0,-182" class="g3_45" />
<path d="M46.5,903.5l0,-1" class="g3_45" />
<path d="M46.5,903.5l0,-1" class="g3_45" />
<path d="M47.5,903.5l840,0" class="g3_45" />
<path d="M887.5,902.5l0,-182" class="g3_45" />
<path d="M887.5,903.5l0,-1" class="g3_45" />
<path d="M887.5,903.5l0,-1" class="g3_45" />
<path fill-rule="evenodd" d="M47,1072l840,0l0,-96L47,976l0,96Z" class="g1_45" />
<path fill-rule="evenodd" d="M55,1000l825,0l0,-24L55,976l0,24Z" class="g1_45" />
<path fill-rule="evenodd" d="M55,1024l825,0l0,-24l-825,0l0,24Z" class="g1_45" />
<path fill-rule="evenodd" d="M55,1048l825,0l0,-24l-825,0l0,24Z" class="g1_45" />
<g clip-path="url(#c2_45)">
<path fill-rule="evenodd" d="M55,1072l825,0l0,-24l-825,0l0,24Z" class="g1_45" />
</g>
<path d="M46.5,976.5l0,-1" class="g3_45" />
<path d="M46.5,976.5l0,-1" class="g3_45" />
<path d="M47.5,976.5l840,0" class="g3_45" />
<path d="M887.5,976.5l0,-1" class="g3_45" />
<path d="M887.5,976.5l0,-1" class="g3_45" />
<path d="M46.5,1072.5l0,-96" class="g3_45" />
<path d="M46.5,1073.5l0,-1" class="g3_45" />
<path d="M46.5,1073.5l0,-1" class="g3_45" />
<path d="M47.5,1073.5l840,0" class="g3_45" />
<path d="M887.5,1072.5l0,-96" class="g3_45" />
<path d="M887.5,1073.5l0,-1" class="g3_45" />
<path d="M887.5,1073.5l0,-1" class="g3_45" />
</svg>