<?xml version="1.0" encoding="UTF-8" standalone="no"?>
<!DOCTYPE svg PUBLIC "-//W3C//DTD SVG 1.1//EN"
"http://www.w3.org/Graphics/SVG/1.1/DTD/svg11.dtd">
<svg version="1.1" xmlns="http://www.w3.org/2000/svg" xmlns:xlink="http://www.w3.org/1999/xlink">
<defs>
<clipPath id="c0_56"><path d="M151.5,135.5l0,-24l736,0l0,24Z" /></clipPath>
<clipPath id="c1_56"><path d="M47.5,160.5l0,-24l102,0l0,24Z" /></clipPath>
<clipPath id="c2_56"><path d="M151.5,160.5l0,-24l736,0l0,24Z" /></clipPath>
<clipPath id="c3_56"><path d="M47.5,186.5l0,-24l102,0l0,24Z" /></clipPath>
<clipPath id="c4_56"><path d="M151.5,186.5l0,-24l736,0l0,24Z" /></clipPath>
<clipPath id="c5_56"><path d="M47.5,211.5l0,-24l102,0l0,24Z" /></clipPath>
<clipPath id="c6_56"><path d="M151.5,211.5l0,-24l736,0l0,24Z" /></clipPath>
<clipPath id="c7_56"><path d="M47.5,236.5l0,-23l102,0l0,23Z" /></clipPath>
<clipPath id="c8_56"><path d="M151.5,236.5l0,-23l736,0l0,23Z" /></clipPath>
<clipPath id="c9_56"><path d="M47.5,262.5l0,-24l102,0l0,24Z" /></clipPath>
<clipPath id="c10_56"><path d="M151.5,262.5l0,-24l736,0l0,24Z" /></clipPath>
<clipPath id="c11_56"><path d="M47.5,287.5l0,-24l102,0l0,24Z" /></clipPath>
<clipPath id="c12_56"><path d="M151.5,287.5l0,-24l736,0l0,24Z" /></clipPath>
<clipPath id="c13_56"><path d="M47.5,312.5l0,-23l102,0l0,23Z" /></clipPath>
<clipPath id="c14_56"><path d="M151.5,312.5l0,-23l736,0l0,23Z" /></clipPath>
<clipPath id="c15_56"><path d="M47.5,338.5l0,-24l102,0l0,24Z" /></clipPath>
<clipPath id="c16_56"><path d="M151.5,338.5l0,-24l736,0l0,24Z" /></clipPath>
<clipPath id="c17_56"><path d="M47.5,387.5l0,-48l102,0l0,48Z" /></clipPath>
<clipPath id="c18_56"><path d="M151.5,387.5l0,-48l736,0l0,48Z" /></clipPath>
<clipPath id="c19_56"><path d="M47.5,436.5l0,-47l102,0l0,47Z" /></clipPath>
<clipPath id="c20_56"><path d="M151.5,436.5l0,-47l736,0l0,47Z" /></clipPath>
<clipPath id="c21_56"><path d="M47.5,685.5l0,-24l102,0l0,24Z" /></clipPath>
<clipPath id="c22_56"><path d="M151.5,685.5l0,-24l736,0l0,24Z" /></clipPath>
<clipPath id="c23_56"><path d="M47.5,758.5l0,-71l102,0l0,71Z" /></clipPath>
<clipPath id="c24_56"><path d="M151.5,758.5l0,-71l736,0l0,71Z" /></clipPath>
<clipPath id="c25_56"><path d="M47.5,808.5l0,-48l102,0l0,48Z" /></clipPath>
<clipPath id="c26_56"><path d="M151.5,808.5l0,-48l736,0l0,48Z" /></clipPath>
<clipPath id="c27_56"><path d="M47.5,833.5l0,-24l102,0l0,24Z" /></clipPath>
<clipPath id="c28_56"><path d="M151.5,833.5l0,-24l736,0l0,24Z" /></clipPath>
<clipPath id="c29_56"><path d="M47.5,906.5l0,-72l102,0l0,72Z" /></clipPath>
<clipPath id="c30_56"><path d="M151.5,906.5l0,-72l736,0l0,72Z" /></clipPath>
<clipPath id="c31_56"><path d="M151.5,955.5l0,-48l736,0l0,48Z" /></clipPath>
<clipPath id="c32_56"><path d="M47.5,980.5l0,-23l102,0l0,23Z" /></clipPath>
<clipPath id="c33_56"><path d="M151.5,980.5l0,-23l736,0l0,23Z" /></clipPath>
<clipPath id="c34_56"><path d="M47.5,1086.5l0,-31l840,0l0,31Z" /></clipPath>
<style type="text/css"><![CDATA[
.g2_56{
fill: none;
stroke: #7E7E7E;
stroke-width: 1;
stroke-linecap: butt;
stroke-linejoin: miter;
}
.g3_56{
fill: none;
stroke: #F0F0E0;
stroke-width: 1;
stroke-linecap: butt;
stroke-linejoin: miter;
}
.g1_56{
fill: #F1F1F1;
}
]]></style>
</defs>
<path fill-rule="evenodd" d="M47,135l102,0l0,-24L47,111l0,24Z" class="g1_56" />
<path fill-rule="evenodd" d="M151,135l736,0l0,-24l-736,0l0,24Z" class="g1_56" />
<g clip-path="url(#c0_56)">
<path fill-rule="evenodd" d="M158,135l722,0l0,-24l-722,0l0,24Z" class="g1_56" />
</g>
<path d="M46.5,111.5l0,-1" class="g2_56" />
<path d="M46.5,111.5l0,-1" class="g2_56" />
<path d="M47.5,111.5l102,0" class="g2_56" />
<path d="M149.5,111.5l0,-1" class="g2_56" />
<path d="M151.5,111.5l736,0" class="g2_56" />
<path d="M887.5,111.5l0,-1" class="g2_56" />
<path d="M887.5,111.5l0,-1" class="g2_56" />
<path d="M46.5,135.5l0,-24" class="g2_56" />
<path d="M149.5,135.5l0,-24" class="g2_56" />
<path d="M887.5,135.5l0,-24" class="g2_56" />
<path fill-rule="evenodd" d="M47,160l102,0l0,-24L47,136l0,24Z" class="g1_56" />
<g clip-path="url(#c1_56)">
<path fill-rule="evenodd" d="M55,160l87,0l0,-24l-87,0l0,24Z" class="g1_56" />
</g>
<path fill-rule="evenodd" d="M151,160l736,0l0,-24l-736,0l0,24Z" class="g1_56" />
<g clip-path="url(#c2_56)">
<path fill-rule="evenodd" d="M158,160l722,0l0,-24l-722,0l0,24Z" class="g1_56" />
</g>
<path d="M46.5,136.5l0,-1" class="g2_56" />
<path d="M47.5,136.5l102,0" class="g2_56" />
<path d="M149.5,136.5l0,-1" class="g2_56" />
<path d="M151.5,136.5l736,0" class="g2_56" />
<path d="M887.5,136.5l0,-1" class="g2_56" />
<path d="M46.5,160.5l0,-24" class="g2_56" />
<path d="M149.5,160.5l0,-24" class="g2_56" />
<path d="M887.5,160.5l0,-24" class="g2_56" />
<path fill-rule="evenodd" d="M47,186l102,0l0,-24L47,162l0,24Z" class="g1_56" />
<g clip-path="url(#c3_56)">
<path fill-rule="evenodd" d="M55,186l87,0l0,-24l-87,0l0,24Z" class="g1_56" />
</g>
<path fill-rule="evenodd" d="M151,186l736,0l0,-24l-736,0l0,24Z" class="g1_56" />
<g clip-path="url(#c4_56)">
<path fill-rule="evenodd" d="M158,186l722,0l0,-24l-722,0l0,24Z" class="g1_56" />
</g>
<path d="M46.5,162.5l0,-2" class="g2_56" />
<path d="M47.5,162.5l102,0" class="g2_56" />
<path d="M149.5,162.5l0,-2" class="g2_56" />
<path d="M151.5,162.5l736,0" class="g2_56" />
<path d="M887.5,162.5l0,-2" class="g2_56" />
<path d="M46.5,186.5l0,-24" class="g2_56" />
<path d="M149.5,186.5l0,-24" class="g2_56" />
<path d="M887.5,186.5l0,-24" class="g2_56" />
<path fill-rule="evenodd" d="M47,211l102,0l0,-24L47,187l0,24Z" class="g1_56" />
<g clip-path="url(#c5_56)">
<path fill-rule="evenodd" d="M55,211l87,0l0,-24l-87,0l0,24Z" class="g1_56" />
</g>
<path fill-rule="evenodd" d="M151,211l736,0l0,-24l-736,0l0,24Z" class="g1_56" />
<g clip-path="url(#c6_56)">
<path fill-rule="evenodd" d="M158,211l722,0l0,-24l-722,0l0,24Z" class="g1_56" />
</g>
<path d="M46.5,187.5l0,-1" class="g2_56" />
<path d="M47.5,187.5l102,0" class="g2_56" />
<path d="M149.5,187.5l0,-1" class="g2_56" />
<path d="M151.5,187.5l736,0" class="g2_56" />
<path d="M887.5,187.5l0,-1" class="g2_56" />
<path d="M46.5,211.5l0,-24" class="g2_56" />
<path d="M149.5,211.5l0,-24" class="g2_56" />
<path d="M887.5,211.5l0,-24" class="g2_56" />
<path fill-rule="evenodd" d="M47,236l102,0l0,-23L47,213l0,23Z" class="g1_56" />
<g clip-path="url(#c7_56)">
<path fill-rule="evenodd" d="M55,236l87,0l0,-23l-87,0l0,23Z" class="g1_56" />
</g>
<path fill-rule="evenodd" d="M151,236l736,0l0,-23l-736,0l0,23Z" class="g1_56" />
<g clip-path="url(#c8_56)">
<path fill-rule="evenodd" d="M158,236l722,0l0,-23l-722,0l0,23Z" class="g1_56" />
</g>
<path d="M46.5,212.5l0,-1" class="g2_56" />
<path d="M47.5,212.5l102,0" class="g2_56" />
<path d="M149.5,212.5l0,-1" class="g2_56" />
<path d="M151.5,212.5l736,0" class="g2_56" />
<path d="M887.5,212.5l0,-1" class="g2_56" />
<path d="M46.5,236.5l0,-24" class="g2_56" />
<path d="M149.5,236.5l0,-24" class="g2_56" />
<path d="M887.5,236.5l0,-24" class="g2_56" />
<path fill-rule="evenodd" d="M47,262l102,0l0,-24L47,238l0,24Z" class="g1_56" />
<g clip-path="url(#c9_56)">
<path fill-rule="evenodd" d="M55,262l87,0l0,-24l-87,0l0,24Z" class="g1_56" />
</g>
<path fill-rule="evenodd" d="M151,262l736,0l0,-24l-736,0l0,24Z" class="g1_56" />
<g clip-path="url(#c10_56)">
<path fill-rule="evenodd" d="M158,262l722,0l0,-24l-722,0l0,24Z" class="g1_56" />
</g>
<path d="M46.5,238.5l0,-2" class="g2_56" />
<path d="M47.5,238.5l102,0" class="g2_56" />
<path d="M149.5,238.5l0,-2" class="g2_56" />
<path d="M151.5,238.5l736,0" class="g2_56" />
<path d="M887.5,238.5l0,-2" class="g2_56" />
<path d="M46.5,262.5l0,-24" class="g2_56" />
<path d="M149.5,262.5l0,-24" class="g2_56" />
<path d="M887.5,262.5l0,-24" class="g2_56" />
<path fill-rule="evenodd" d="M47,287l102,0l0,-24L47,263l0,24Z" class="g1_56" />
<g clip-path="url(#c11_56)">
<path fill-rule="evenodd" d="M55,287l87,0l0,-24l-87,0l0,24Z" class="g1_56" />
</g>
<path fill-rule="evenodd" d="M151,287l736,0l0,-24l-736,0l0,24Z" class="g1_56" />
<g clip-path="url(#c12_56)">
<path fill-rule="evenodd" d="M158,287l722,0l0,-24l-722,0l0,24Z" class="g1_56" />
</g>
<path d="M46.5,263.5l0,-1" class="g2_56" />
<path d="M47.5,263.5l102,0" class="g2_56" />
<path d="M149.5,263.5l0,-1" class="g2_56" />
<path d="M151.5,263.5l736,0" class="g2_56" />
<path d="M887.5,263.5l0,-1" class="g2_56" />
<path d="M46.5,287.5l0,-24" class="g2_56" />
<path d="M149.5,287.5l0,-24" class="g2_56" />
<path d="M887.5,287.5l0,-24" class="g2_56" />
<path fill-rule="evenodd" d="M47,312l102,0l0,-23L47,289l0,23Z" class="g1_56" />
<g clip-path="url(#c13_56)">
<path fill-rule="evenodd" d="M55,312l87,0l0,-23l-87,0l0,23Z" class="g1_56" />
</g>
<path fill-rule="evenodd" d="M151,312l736,0l0,-23l-736,0l0,23Z" class="g1_56" />
<g clip-path="url(#c14_56)">
<path fill-rule="evenodd" d="M158,312l722,0l0,-23l-722,0l0,23Z" class="g1_56" />
</g>
<path d="M46.5,288.5l0,-1" class="g2_56" />
<path d="M47.5,288.5l102,0" class="g2_56" />
<path d="M149.5,288.5l0,-1" class="g2_56" />
<path d="M151.5,288.5l736,0" class="g2_56" />
<path d="M887.5,288.5l0,-1" class="g2_56" />
<path d="M46.5,312.5l0,-24" class="g2_56" />
<path d="M149.5,312.5l0,-24" class="g2_56" />
<path d="M887.5,312.5l0,-24" class="g2_56" />
<path fill-rule="evenodd" d="M47,338l102,0l0,-24L47,314l0,24Z" class="g1_56" />
<g clip-path="url(#c15_56)">
<path fill-rule="evenodd" d="M55,338l87,0l0,-24l-87,0l0,24Z" class="g1_56" />
</g>
<path fill-rule="evenodd" d="M151,338l736,0l0,-24l-736,0l0,24Z" class="g1_56" />
<g clip-path="url(#c16_56)">
<path fill-rule="evenodd" d="M158,338l722,0l0,-24l-722,0l0,24Z" class="g1_56" />
</g>
<path d="M46.5,314.5l0,-2" class="g2_56" />
<path d="M47.5,314.5l102,0" class="g2_56" />
<path d="M149.5,314.5l0,-2" class="g2_56" />
<path d="M151.5,314.5l736,0" class="g2_56" />
<path d="M887.5,314.5l0,-2" class="g2_56" />
<path d="M46.5,338.5l0,-24" class="g2_56" />
<path d="M149.5,338.5l0,-24" class="g2_56" />
<path d="M887.5,338.5l0,-24" class="g2_56" />
<path fill-rule="evenodd" d="M47,387l102,0l0,-48L47,339l0,48Z" class="g1_56" />
<g clip-path="url(#c17_56)">
<path fill-rule="evenodd" d="M55,363l87,0l0,-24l-87,0l0,24Z" class="g1_56" />
</g>
<path fill-rule="evenodd" d="M151,387l736,0l0,-48l-736,0l0,48Z" class="g1_56" />
<g clip-path="url(#c18_56)">
<path fill-rule="evenodd" d="M158,363l722,0l0,-24l-722,0l0,24Z" class="g1_56" />
</g>
<path fill-rule="evenodd" d="M158,387l722,0l0,-24l-722,0l0,24Z" class="g1_56" />
<path d="M46.5,339.5l0,-1" class="g2_56" />
<path d="M47.5,339.5l102,0" class="g2_56" />
<path d="M149.5,339.5l0,-1" class="g2_56" />
<path d="M151.5,339.5l736,0" class="g2_56" />
<path d="M887.5,339.5l0,-1" class="g2_56" />
<path d="M46.5,387.5l0,-48" class="g2_56" />
<path d="M149.5,387.5l0,-48" class="g2_56" />
<path d="M887.5,387.5l0,-48" class="g2_56" />
<path fill-rule="evenodd" d="M47,436l102,0l0,-47L47,389l0,47Z" class="g1_56" />
<g clip-path="url(#c19_56)">
<path fill-rule="evenodd" d="M55,412l87,0l0,-23l-87,0l0,23Z" class="g1_56" />
</g>
<path fill-rule="evenodd" d="M151,436l736,0l0,-47l-736,0l0,47Z" class="g1_56" />
<g clip-path="url(#c20_56)">
<path fill-rule="evenodd" d="M158,412l722,0l0,-23l-722,0l0,23Z" class="g1_56" />
</g>
<path fill-rule="evenodd" d="M158,436l722,0l0,-24l-722,0l0,24Z" class="g1_56" />
<path d="M46.5,388.5l0,-1" class="g2_56" />
<path d="M47.5,388.5l102,0" class="g2_56" />
<path d="M149.5,388.5l0,-1" class="g2_56" />
<path d="M151.5,388.5l736,0" class="g2_56" />
<path d="M887.5,388.5l0,-1" class="g2_56" />
<path d="M46.5,436.5l0,-48" class="g2_56" />
<path d="M149.5,436.5l0,-48" class="g2_56" />
<path d="M887.5,436.5l0,-48" class="g2_56" />
<path fill-rule="evenodd" d="M47,462l102,0l0,-24L47,438l0,24Z" class="g1_56" />
<path fill-rule="evenodd" d="M55,462l87,0l0,-24l-87,0l0,24Z" class="g1_56" />
<path fill-rule="evenodd" d="M151,462l736,0l0,-24l-736,0l0,24Z" class="g1_56" />
<path fill-rule="evenodd" d="M158,462l722,0l0,-24l-722,0l0,24Z" class="g1_56" />
<path d="M46.5,438.5l0,-2" class="g2_56" />
<path d="M47.5,438.5l102,0" class="g2_56" />
<path d="M149.5,438.5l0,-2" class="g2_56" />
<path d="M151.5,438.5l736,0" class="g2_56" />
<path d="M887.5,438.5l0,-2" class="g2_56" />
<path d="M46.5,462.5l0,-24" class="g2_56" />
<path d="M149.5,462.5l0,-24" class="g2_56" />
<path d="M887.5,462.5l0,-24" class="g2_56" />
<path fill-rule="evenodd" d="M47,511l102,0l0,-48L47,463l0,48Z" class="g1_56" />
<path fill-rule="evenodd" d="M55,487l87,0l0,-24l-87,0l0,24Z" class="g1_56" />
<path fill-rule="evenodd" d="M151,511l736,0l0,-48l-736,0l0,48Z" class="g1_56" />
<path fill-rule="evenodd" d="M158,487l722,0l0,-24l-722,0l0,24Z" class="g1_56" />
<path fill-rule="evenodd" d="M158,511l722,0l0,-24l-722,0l0,24Z" class="g1_56" />
<path d="M46.5,463.5l0,-1" class="g2_56" />
<path d="M47.5,463.5l102,0" class="g2_56" />
<path d="M149.5,463.5l0,-1" class="g2_56" />
<path d="M151.5,463.5l736,0" class="g2_56" />
<path d="M887.5,463.5l0,-1" class="g2_56" />
<path d="M46.5,511.5l0,-48" class="g2_56" />
<path d="M149.5,511.5l0,-48" class="g2_56" />
<path d="M887.5,511.5l0,-48" class="g2_56" />
<path fill-rule="evenodd" d="M47,560l102,0l0,-48L47,512l0,48Z" class="g1_56" />
<path fill-rule="evenodd" d="M55,536l87,0l0,-24l-87,0l0,24Z" class="g1_56" />
<path fill-rule="evenodd" d="M151,560l736,0l0,-48l-736,0l0,48Z" class="g1_56" />
<path fill-rule="evenodd" d="M158,536l722,0l0,-24l-722,0l0,24Z" class="g1_56" />
<path fill-rule="evenodd" d="M158,560l722,0l0,-24l-722,0l0,24Z" class="g1_56" />
<path d="M46.5,512.5l0,-1" class="g2_56" />
<path d="M47.5,512.5l102,0" class="g2_56" />
<path d="M149.5,512.5l0,-1" class="g2_56" />
<path d="M151.5,512.5l736,0" class="g2_56" />
<path d="M887.5,512.5l0,-1" class="g2_56" />
<path d="M46.5,560.5l0,-48" class="g2_56" />
<path d="M149.5,560.5l0,-48" class="g2_56" />
<path d="M887.5,560.5l0,-48" class="g2_56" />
<path fill-rule="evenodd" d="M47,609l102,0l0,-48L47,561l0,48Z" class="g1_56" />
<path fill-rule="evenodd" d="M55,585l87,0l0,-24l-87,0l0,24Z" class="g1_56" />
<path fill-rule="evenodd" d="M151,609l736,0l0,-48l-736,0l0,48Z" class="g1_56" />
<path fill-rule="evenodd" d="M158,585l722,0l0,-24l-722,0l0,24Z" class="g1_56" />
<path fill-rule="evenodd" d="M158,609l722,0l0,-24l-722,0l0,24Z" class="g1_56" />
<path d="M46.5,561.5l0,-1" class="g2_56" />
<path d="M47.5,561.5l102,0" class="g2_56" />
<path d="M149.5,561.5l0,-1" class="g2_56" />
<path d="M151.5,561.5l736,0" class="g2_56" />
<path d="M887.5,561.5l0,-1" class="g2_56" />
<path d="M46.5,609.5l0,-48" class="g2_56" />
<path d="M149.5,609.5l0,-48" class="g2_56" />
<path d="M887.5,609.5l0,-48" class="g2_56" />
<path fill-rule="evenodd" d="M47,634l102,0l0,-23L47,611l0,23Z" class="g1_56" />
<path fill-rule="evenodd" d="M55,634l87,0l0,-23l-87,0l0,23Z" class="g1_56" />
<path fill-rule="evenodd" d="M151,634l736,0l0,-23l-736,0l0,23Z" class="g1_56" />
<path fill-rule="evenodd" d="M158,634l722,0l0,-23l-722,0l0,23Z" class="g1_56" />
<path d="M46.5,611.5l0,-2" class="g2_56" />
<path d="M47.5,611.5l102,0" class="g2_56" />
<path d="M149.5,611.5l0,-2" class="g2_56" />
<path d="M151.5,611.5l736,0" class="g2_56" />
<path d="M887.5,611.5l0,-2" class="g2_56" />
<path d="M46.5,634.5l0,-23" class="g2_56" />
<path d="M149.5,634.5l0,-23" class="g2_56" />
<path d="M887.5,634.5l0,-23" class="g2_56" />
<path fill-rule="evenodd" d="M47,660l102,0l0,-24L47,636l0,24Z" class="g1_56" />
<path fill-rule="evenodd" d="M55,660l87,0l0,-24l-87,0l0,24Z" class="g1_56" />
<path fill-rule="evenodd" d="M151,660l736,0l0,-24l-736,0l0,24Z" class="g1_56" />
<path fill-rule="evenodd" d="M158,660l722,0l0,-24l-722,0l0,24Z" class="g1_56" />
<path d="M46.5,636.5l0,-2" class="g2_56" />
<path d="M47.5,636.5l102,0" class="g2_56" />
<path d="M149.5,636.5l0,-2" class="g2_56" />
<path d="M151.5,636.5l736,0" class="g2_56" />
<path d="M887.5,636.5l0,-2" class="g2_56" />
<path d="M46.5,660.5l0,-24" class="g2_56" />
<path d="M149.5,660.5l0,-24" class="g2_56" />
<path d="M887.5,660.5l0,-24" class="g2_56" />
<path fill-rule="evenodd" d="M47,685l102,0l0,-24L47,661l0,24Z" class="g1_56" />
<g clip-path="url(#c21_56)">
<path fill-rule="evenodd" d="M55,685l87,0l0,-24l-87,0l0,24Z" class="g1_56" />
</g>
<path fill-rule="evenodd" d="M151,685l736,0l0,-24l-736,0l0,24Z" class="g1_56" />
<g clip-path="url(#c22_56)">
<path fill-rule="evenodd" d="M158,685l722,0l0,-24l-722,0l0,24Z" class="g1_56" />
</g>
<path d="M46.5,661.5l0,-1" class="g2_56" />
<path d="M47.5,661.5l102,0" class="g2_56" />
<path d="M149.5,661.5l0,-1" class="g2_56" />
<path d="M151.5,661.5l736,0" class="g2_56" />
<path d="M887.5,661.5l0,-1" class="g2_56" />
<path d="M46.5,685.5l0,-24" class="g2_56" />
<path d="M149.5,685.5l0,-24" class="g2_56" />
<path d="M887.5,685.5l0,-24" class="g2_56" />
<path fill-rule="evenodd" d="M47,758l102,0l0,-71L47,687l0,71Z" class="g1_56" />
<g clip-path="url(#c23_56)">
<path fill-rule="evenodd" d="M55,711l87,0l0,-24l-87,0l0,24Z" class="g1_56" />
</g>
<path fill-rule="evenodd" d="M151,758l736,0l0,-71l-736,0l0,71Z" class="g1_56" />
<g clip-path="url(#c24_56)">
<path fill-rule="evenodd" d="M158,711l722,0l0,-24l-722,0l0,24Z" class="g1_56" />
</g>
<path fill-rule="evenodd" d="M158,734l722,0l0,-23l-722,0l0,23Z" class="g1_56" />
<path fill-rule="evenodd" d="M158,758l722,0l0,-24l-722,0l0,24Z" class="g1_56" />
<path d="M46.5,687.5l0,-2" class="g2_56" />
<path d="M47.5,687.5l102,0" class="g2_56" />
<path d="M149.5,687.5l0,-2" class="g2_56" />
<path d="M151.5,687.5l736,0" class="g2_56" />
<path d="M887.5,687.5l0,-2" class="g2_56" />
<path d="M46.5,758.5l0,-71" class="g2_56" />
<path d="M149.5,758.5l0,-71" class="g2_56" />
<path d="M887.5,758.5l0,-71" class="g2_56" />
<path fill-rule="evenodd" d="M47,808l102,0l0,-48L47,760l0,48Z" class="g1_56" />
<g clip-path="url(#c25_56)">
<path fill-rule="evenodd" d="M55,784l87,0l0,-24l-87,0l0,24Z" class="g1_56" />
</g>
<path fill-rule="evenodd" d="M151,808l736,0l0,-48l-736,0l0,48Z" class="g1_56" />
<g clip-path="url(#c26_56)">
<path fill-rule="evenodd" d="M158,784l722,0l0,-24l-722,0l0,24Z" class="g1_56" />
</g>
<path fill-rule="evenodd" d="M158,808l722,0l0,-24l-722,0l0,24Z" class="g1_56" />
<path d="M46.5,760.5l0,-2" class="g2_56" />
<path d="M47.5,760.5l102,0" class="g2_56" />
<path d="M149.5,760.5l0,-2" class="g2_56" />
<path d="M151.5,760.5l736,0" class="g2_56" />
<path d="M887.5,760.5l0,-2" class="g2_56" />
<path d="M46.5,808.5l0,-48" class="g2_56" />
<path d="M149.5,808.5l0,-48" class="g2_56" />
<path d="M887.5,808.5l0,-48" class="g2_56" />
<path fill-rule="evenodd" d="M47,833l102,0l0,-24L47,809l0,24Z" class="g1_56" />
<g clip-path="url(#c27_56)">
<path fill-rule="evenodd" d="M55,833l87,0l0,-24l-87,0l0,24Z" class="g1_56" />
</g>
<path fill-rule="evenodd" d="M151,833l736,0l0,-24l-736,0l0,24Z" class="g1_56" />
<g clip-path="url(#c28_56)">
<path fill-rule="evenodd" d="M158,833l722,0l0,-24l-722,0l0,24Z" class="g1_56" />
</g>
<path d="M46.5,809.5l0,-1" class="g2_56" />
<path d="M47.5,809.5l102,0" class="g2_56" />
<path d="M149.5,809.5l0,-1" class="g2_56" />
<path d="M151.5,809.5l736,0" class="g2_56" />
<path d="M887.5,809.5l0,-1" class="g2_56" />
<path d="M46.5,833.5l0,-24" class="g2_56" />
<path d="M149.5,833.5l0,-24" class="g2_56" />
<path d="M887.5,833.5l0,-24" class="g2_56" />
<path fill-rule="evenodd" d="M47,906l102,0l0,-72L47,834l0,72Z" class="g1_56" />
<g clip-path="url(#c29_56)">
<path fill-rule="evenodd" d="M55,858l87,0l0,-24l-87,0l0,24Z" class="g1_56" />
</g>
<path fill-rule="evenodd" d="M151,906l736,0l0,-72l-736,0l0,72Z" class="g1_56" />
<g clip-path="url(#c30_56)">
<path fill-rule="evenodd" d="M158,858l722,0l0,-24l-722,0l0,24Z" class="g1_56" />
</g>
<path fill-rule="evenodd" d="M158,882l722,0l0,-24l-722,0l0,24Z" class="g1_56" />
<path fill-rule="evenodd" d="M158,906l722,0l0,-24l-722,0l0,24Z" class="g1_56" />
<path d="M46.5,834.5l0,-1" class="g2_56" />
<path d="M47.5,834.5l102,0" class="g2_56" />
<path d="M149.5,834.5l0,-1" class="g2_56" />
<path d="M151.5,834.5l736,0" class="g2_56" />
<path d="M887.5,834.5l0,-1" class="g2_56" />
<path d="M46.5,906.5l0,-72" class="g2_56" />
<path d="M149.5,906.5l0,-72" class="g2_56" />
<path d="M887.5,906.5l0,-72" class="g2_56" />
<path fill-rule="evenodd" d="M47,955l102,0l0,-48L47,907l0,48Z" class="g1_56" />
<path fill-rule="evenodd" d="M55,931l87,0l0,-24l-87,0l0,24Z" class="g1_56" />
<path fill-rule="evenodd" d="M151,955l736,0l0,-48l-736,0l0,48Z" class="g1_56" />
<path fill-rule="evenodd" d="M158,931l722,0l0,-24l-722,0l0,24Z" class="g1_56" />
<g clip-path="url(#c31_56)">
<path fill-rule="evenodd" d="M158,955l722,0l0,-24l-722,0l0,24Z" class="g1_56" />
</g>
<path d="M46.5,907.5l0,-1" class="g2_56" />
<path d="M47.5,907.5l102,0" class="g2_56" />
<path d="M149.5,907.5l0,-1" class="g2_56" />
<path d="M151.5,907.5l736,0" class="g2_56" />
<path d="M887.5,907.5l0,-1" class="g2_56" />
<path d="M46.5,955.5l0,-48" class="g2_56" />
<path d="M149.5,955.5l0,-48" class="g2_56" />
<path d="M887.5,955.5l0,-48" class="g2_56" />
<path fill-rule="evenodd" d="M47,980l102,0l0,-23L47,957l0,23Z" class="g1_56" />
<g clip-path="url(#c32_56)">
<path fill-rule="evenodd" d="M55,980l87,0l0,-23l-87,0l0,23Z" class="g1_56" />
</g>
<path fill-rule="evenodd" d="M151,980l736,0l0,-23l-736,0l0,23Z" class="g1_56" />
<g clip-path="url(#c33_56)">
<path fill-rule="evenodd" d="M158,980l722,0l0,-23l-722,0l0,23Z" class="g1_56" />
</g>
<path d="M46.5,957.5l0,-2" class="g2_56" />
<path d="M47.5,957.5l102,0" class="g2_56" />
<path d="M149.5,957.5l0,-2" class="g2_56" />
<path d="M151.5,957.5l736,0" class="g2_56" />
<path d="M887.5,957.5l0,-2" class="g2_56" />
<path d="M46.5,980.5l0,-23" class="g2_56" />
<path d="M46.5,982.5l0,-2" class="g2_56" />
<path d="M46.5,982.5l0,-2" class="g2_56" />
<path d="M47.5,982.5l102,0" class="g2_56" />
<path d="M149.5,980.5l0,-23" class="g2_56" />
<path d="M149.5,982.5l0,-2" class="g2_56" />
<path d="M151.5,982.5l736,0" class="g2_56" />
<path d="M887.5,980.5l0,-23" class="g2_56" />
<path d="M887.5,982.5l0,-2" class="g2_56" />
<path d="M887.5,982.5l0,-2" class="g2_56" />
<path fill-rule="evenodd" d="M47,1086l840,0l0,-31l-840,0l0,31Z" class="g1_56" />
<g clip-path="url(#c34_56)">
<path fill-rule="evenodd" d="M55,1086l825,0l0,-31l-825,0l0,31Z" class="g1_56" />
<path d="M45.5,1056.5l0,-1" class="g3_56" />
<path d="M45.5,1056.5l0,-1" class="g3_56" />
<path d="M46.5,1056.5l842,0" class="g3_56" />
<path d="M888.5,1056.5l0,-1" class="g3_56" />
<path d="M888.5,1056.5l0,-1" class="g3_56" />
<path d="M45.5,1086.5l0,-30" class="g3_56" />
<path d="M888.5,1086.5l0,-30" class="g3_56" />
</g>
<path d="M46.5,1055.5l0,-2" class="g2_56" />
<path d="M46.5,1055.5l0,-2" class="g2_56" />
<path d="M47.5,1055.5l840,0" class="g2_56" />
<path d="M887.5,1055.5l0,-2" class="g2_56" />
<path d="M887.5,1055.5l0,-2" class="g2_56" />
<path d="M46.5,1086.5l0,-31" class="g2_56" />
<path d="M46.5,1088.5l0,-2" class="g2_56" />
<path d="M46.5,1088.5l0,-2" class="g2_56" />
<path d="M47.5,1088.5l840,0" class="g2_56" />
<path d="M887.5,1086.5l0,-31" class="g2_56" />
<path d="M887.5,1088.5l0,-2" class="g2_56" />
<path d="M887.5,1088.5l0,-2" class="g2_56" />
</svg>