<?xml version="1.0" encoding="UTF-8" standalone="no"?>
<!DOCTYPE svg PUBLIC "-//W3C//DTD SVG 1.1//EN"
"http://www.w3.org/Graphics/SVG/1.1/DTD/svg11.dtd">
<svg version="1.1" xmlns="http://www.w3.org/2000/svg" xmlns:xlink="http://www.w3.org/1999/xlink">
<defs>
<clipPath id="c0_422"><path d="M47.5,540.5l0,-381l840,0l0,381Z" /></clipPath>
<clipPath id="c1_422"><path d="M47.5,676.5l0,-24l378,0l0,24Z" /></clipPath>
<clipPath id="c2_422"><path d="M427.5,676.5l0,-24l81,0l0,24Z" /></clipPath>
<clipPath id="c3_422"><path d="M509.5,676.5l0,-24l378,0l0,24Z" /></clipPath>
<clipPath id="c4_422"><path d="M47.5,1038.5l0,-360l41,0l0,360Z" /></clipPath>
<clipPath id="c5_422"><path d="M90.5,749.5l0,-71l335,0l0,71Z" /></clipPath>
<clipPath id="c6_422"><path d="M427.5,749.5l0,-71l81,0l0,71Z" /></clipPath>
<clipPath id="c7_422"><path d="M509.5,749.5l0,-71l378,0l0,71Z" /></clipPath>
<clipPath id="c8_422"><path d="M90.5,775.5l0,-24l335,0l0,24Z" /></clipPath>
<clipPath id="c9_422"><path d="M427.5,775.5l0,-24l81,0l0,24Z" /></clipPath>
<clipPath id="c10_422"><path d="M509.5,775.5l0,-24l378,0l0,24Z" /></clipPath>
<clipPath id="c11_422"><path d="M90.5,801.5l0,-24l335,0l0,24Z" /></clipPath>
<clipPath id="c12_422"><path d="M427.5,801.5l0,-24l81,0l0,24Z" /></clipPath>
<clipPath id="c13_422"><path d="M509.5,801.5l0,-24l378,0l0,24Z" /></clipPath>
<clipPath id="c14_422"><path d="M90.5,1038.5l0,-236l40,0l0,236Z" /></clipPath>
<clipPath id="c15_422"><path d="M131.5,1038.5l0,-236l40,0l0,236Z" /></clipPath>
<clipPath id="c16_422"><path d="M172.5,1038.5l0,-236l40,0l0,236Z" /></clipPath>
<clipPath id="c17_422"><path d="M213.5,826.5l0,-24l212,0l0,24Z" /></clipPath>
<clipPath id="c18_422"><path d="M427.5,826.5l0,-24l81,0l0,24Z" /></clipPath>
<clipPath id="c19_422"><path d="M509.5,826.5l0,-24l378,0l0,24Z" /></clipPath>
<clipPath id="c20_422"><path d="M213.5,855.5l0,-27l212,0l0,27Z" /></clipPath>
<clipPath id="c21_422"><path d="M427.5,855.5l0,-27l81,0l0,27Z" /></clipPath>
<clipPath id="c22_422"><path d="M509.5,855.5l0,-27l378,0l0,27Z" /></clipPath>
<clipPath id="c23_422"><path d="M213.5,888.5l0,-31l212,0l0,31Z" /></clipPath>
<clipPath id="c24_422"><path d="M427.5,888.5l0,-31l81,0l0,31Z" /></clipPath>
<clipPath id="c25_422"><path d="M509.5,888.5l0,-31l378,0l0,31Z" /></clipPath>
<clipPath id="c26_422"><path d="M213.5,917.5l0,-28l212,0l0,28Z" /></clipPath>
<clipPath id="c27_422"><path d="M427.5,917.5l0,-28l81,0l0,28Z" /></clipPath>
<clipPath id="c28_422"><path d="M509.5,917.5l0,-28l378,0l0,28Z" /></clipPath>
<clipPath id="c29_422"><path d="M509.5,1038.5l0,-119l378,0l0,119Z" /></clipPath>
<style type="text/css"><![CDATA[
.g2_422{
fill: none;
stroke: #7E7E7E;
stroke-width: 1;
stroke-linecap: butt;
stroke-linejoin: miter;
}
.g3_422{
fill: #DBE5F1;
}
.g1_422{
fill: #F1F1F1;
}
]]></style>
</defs>
<path fill-rule="evenodd" d="M47,540l840,0l0,-381L47,159l0,381Z" class="g1_422" />
<g clip-path="url(#c0_422)">
<path fill-rule="evenodd" d="M55,182l825,0l0,-23L55,159l0,23Z" class="g1_422" />
</g>
<path fill-rule="evenodd" d="M55,206l825,0l0,-24L55,182l0,24Z" class="g1_422" />
<path fill-rule="evenodd" d="M55,230l825,0l0,-24L55,206l0,24Z" class="g1_422" />
<path fill-rule="evenodd" d="M55,254l825,0l0,-24L55,230l0,24Z" class="g1_422" />
<path fill-rule="evenodd" d="M55,278l825,0l0,-24L55,254l0,24Z" class="g1_422" />
<path fill-rule="evenodd" d="M55,302l825,0l0,-24L55,278l0,24Z" class="g1_422" />
<path fill-rule="evenodd" d="M55,325l825,0l0,-23L55,302l0,23Z" class="g1_422" />
<path fill-rule="evenodd" d="M55,349l825,0l0,-24L55,325l0,24Z" class="g1_422" />
<path fill-rule="evenodd" d="M55,373l825,0l0,-24L55,349l0,24Z" class="g1_422" />
<path fill-rule="evenodd" d="M55,397l825,0l0,-24L55,373l0,24Z" class="g1_422" />
<path fill-rule="evenodd" d="M55,421l825,0l0,-24L55,397l0,24Z" class="g1_422" />
<path fill-rule="evenodd" d="M55,445l825,0l0,-24L55,421l0,24Z" class="g1_422" />
<path fill-rule="evenodd" d="M55,469l825,0l0,-24L55,445l0,24Z" class="g1_422" />
<path fill-rule="evenodd" d="M55,492l825,0l0,-23L55,469l0,23Z" class="g1_422" />
<path fill-rule="evenodd" d="M55,516l825,0l0,-24L55,492l0,24Z" class="g1_422" />
<path fill-rule="evenodd" d="M55,540l825,0l0,-24L55,516l0,24Z" class="g1_422" />
<path d="M46.5,159.5l0,-2" class="g2_422" />
<path d="M46.5,159.5l0,-2" class="g2_422" />
<path d="M47.5,159.5l840,0" class="g2_422" />
<path d="M887.5,159.5l0,-2" class="g2_422" />
<path d="M887.5,159.5l0,-2" class="g2_422" />
<path d="M46.5,540.5l0,-381" class="g2_422" />
<path d="M46.5,542.5l0,-2" class="g2_422" />
<path d="M46.5,542.5l0,-2" class="g2_422" />
<path d="M47.5,542.5l840,0" class="g2_422" />
<path d="M887.5,540.5l0,-381" class="g2_422" />
<path d="M887.5,542.5l0,-2" class="g2_422" />
<path d="M887.5,542.5l0,-2" class="g2_422" />
<path fill-rule="evenodd" d="M47,676l378,0l0,-24L47,652l0,24Z" class="g3_422" />
<g clip-path="url(#c1_422)">
<path fill-rule="evenodd" d="M55,676l363,0l0,-24L55,652l0,24Z" class="g3_422" />
</g>
<path fill-rule="evenodd" d="M427,676l81,0l0,-24l-81,0l0,24Z" class="g3_422" />
<g clip-path="url(#c2_422)">
<path fill-rule="evenodd" d="M434,676l66,0l0,-24l-66,0l0,24Z" class="g3_422" />
</g>
<path fill-rule="evenodd" d="M509,676l378,0l0,-24l-378,0l0,24Z" class="g3_422" />
<g clip-path="url(#c3_422)">
<path fill-rule="evenodd" d="M517,676l363,0l0,-24l-363,0l0,24Z" class="g3_422" />
</g>
<path d="M46.5,652.5l0,-2" class="g2_422" />
<path d="M46.5,652.5l0,-2" class="g2_422" />
<path d="M47.5,652.5l378,0" class="g2_422" />
<path d="M425.5,652.5l0,-2" class="g2_422" />
<path d="M427.5,652.5l81,0" class="g2_422" />
<path d="M508.5,652.5l0,-2" class="g2_422" />
<path d="M509.5,652.5l378,0" class="g2_422" />
<path d="M887.5,652.5l0,-2" class="g2_422" />
<path d="M887.5,652.5l0,-2" class="g2_422" />
<path d="M46.5,676.5l0,-24" class="g2_422" />
<path d="M425.5,676.5l0,-24" class="g2_422" />
<path d="M508.5,676.5l0,-24" class="g2_422" />
<path d="M887.5,676.5l0,-24" class="g2_422" />
<path fill-rule="evenodd" d="M47,1038l41,0L88,678l-41,0l0,360Z" class="g1_422" />
<g clip-path="url(#c4_422)">
<path fill-rule="evenodd" d="M55,1038l23,0L78,678l-23,0l0,360Z" class="g1_422" />
</g>
<path fill-rule="evenodd" d="M90,749l335,0l0,-71L90,678l0,71Z" class="g1_422" />
<g clip-path="url(#c5_422)">
<path fill-rule="evenodd" d="M97,702l321,0l0,-24L97,678l0,24Z" class="g1_422" />
</g>
<path fill-rule="evenodd" d="M427,749l81,0l0,-71l-81,0l0,71Z" class="g1_422" />
<g clip-path="url(#c6_422)">
<path fill-rule="evenodd" d="M434,702l66,0l0,-24l-66,0l0,24Z" class="g1_422" />
</g>
<path fill-rule="evenodd" d="M509,749l378,0l0,-71l-378,0l0,71Z" class="g1_422" />
<g clip-path="url(#c7_422)">
<path fill-rule="evenodd" d="M517,702l363,0l0,-24l-363,0l0,24Z" class="g1_422" />
</g>
<path fill-rule="evenodd" d="M517,725l363,0l0,-23l-363,0l0,23Z" class="g1_422" />
<path fill-rule="evenodd" d="M517,749l363,0l0,-24l-363,0l0,24Z" class="g1_422" />
<path d="M46.5,678.5l0,-2" class="g2_422" />
<path d="M47.5,678.5l41,0" class="g2_422" />
<path d="M88.5,678.5l0,-2" class="g2_422" />
<path d="M90.5,678.5l335,0" class="g2_422" />
<path d="M425.5,678.5l0,-2" class="g2_422" />
<path d="M427.5,678.5l81,0" class="g2_422" />
<path d="M508.5,678.5l0,-2" class="g2_422" />
<path d="M509.5,678.5l378,0" class="g2_422" />
<path d="M887.5,678.5l0,-2" class="g2_422" />
<path d="M46.5,749.5l0,-71" class="g2_422" />
<path d="M88.5,749.5l0,-71" class="g2_422" />
<path d="M425.5,749.5l0,-71" class="g2_422" />
<path d="M508.5,749.5l0,-71" class="g2_422" />
<path d="M887.5,749.5l0,-71" class="g2_422" />
<path fill-rule="evenodd" d="M90,775l335,0l0,-24L90,751l0,24Z" class="g1_422" />
<g clip-path="url(#c8_422)">
<path fill-rule="evenodd" d="M97,775l321,0l0,-24L97,751l0,24Z" class="g1_422" />
</g>
<path fill-rule="evenodd" d="M427,775l81,0l0,-24l-81,0l0,24Z" class="g1_422" />
<g clip-path="url(#c9_422)">
<path fill-rule="evenodd" d="M434,775l66,0l0,-24l-66,0l0,24Z" class="g1_422" />
</g>
<path fill-rule="evenodd" d="M509,775l378,0l0,-24l-378,0l0,24Z" class="g1_422" />
<g clip-path="url(#c10_422)">
<path fill-rule="evenodd" d="M517,775l363,0l0,-24l-363,0l0,24Z" class="g1_422" />
</g>
<path d="M46.5,751.5l0,-2" class="g2_422" />
<path d="M88.5,751.5l0,-2" class="g2_422" />
<path d="M90.5,751.5l335,0" class="g2_422" />
<path d="M425.5,751.5l0,-2" class="g2_422" />
<path d="M427.5,751.5l81,0" class="g2_422" />
<path d="M508.5,751.5l0,-2" class="g2_422" />
<path d="M509.5,751.5l378,0" class="g2_422" />
<path d="M887.5,751.5l0,-2" class="g2_422" />
<path d="M46.5,775.5l0,-24" class="g2_422" />
<path d="M88.5,775.5l0,-24" class="g2_422" />
<path d="M425.5,775.5l0,-24" class="g2_422" />
<path d="M508.5,775.5l0,-24" class="g2_422" />
<path d="M887.5,775.5l0,-24" class="g2_422" />
<path fill-rule="evenodd" d="M90,801l335,0l0,-24L90,777l0,24Z" class="g1_422" />
<g clip-path="url(#c11_422)">
<path fill-rule="evenodd" d="M97,800l321,0l0,-23L97,777l0,23Z" class="g1_422" />
</g>
<path fill-rule="evenodd" d="M427,801l81,0l0,-24l-81,0l0,24Z" class="g1_422" />
<g clip-path="url(#c12_422)">
<path fill-rule="evenodd" d="M434,800l66,0l0,-23l-66,0l0,23Z" class="g1_422" />
</g>
<path fill-rule="evenodd" d="M509,801l378,0l0,-24l-378,0l0,24Z" class="g1_422" />
<g clip-path="url(#c13_422)">
<path fill-rule="evenodd" d="M517,800l363,0l0,-23l-363,0l0,23Z" class="g1_422" />
</g>
<path d="M46.5,777.5l0,-2" class="g2_422" />
<path d="M88.5,777.5l0,-2" class="g2_422" />
<path d="M90.5,777.5l335,0" class="g2_422" />
<path d="M425.5,777.5l0,-2" class="g2_422" />
<path d="M427.5,777.5l81,0" class="g2_422" />
<path d="M508.5,777.5l0,-2" class="g2_422" />
<path d="M509.5,777.5l378,0" class="g2_422" />
<path d="M887.5,777.5l0,-2" class="g2_422" />
<path d="M46.5,801.5l0,-24" class="g2_422" />
<path d="M88.5,801.5l0,-24" class="g2_422" />
<path d="M425.5,801.5l0,-24" class="g2_422" />
<path d="M508.5,801.5l0,-24" class="g2_422" />
<path d="M887.5,801.5l0,-24" class="g2_422" />
<path fill-rule="evenodd" d="M90,1038l40,0l0,-236l-40,0l0,236Z" class="g1_422" />
<g clip-path="url(#c14_422)">
<path fill-rule="evenodd" d="M97,1038l24,0l0,-236l-24,0l0,236Z" class="g1_422" />
</g>
<path fill-rule="evenodd" d="M131,1038l40,0l0,-236l-40,0l0,236Z" class="g1_422" />
<g clip-path="url(#c15_422)">
<path fill-rule="evenodd" d="M139,1038l23,0l0,-236l-23,0l0,236Z" class="g1_422" />
</g>
<path fill-rule="evenodd" d="M172,1038l40,0l0,-236l-40,0l0,236Z" class="g1_422" />
<g clip-path="url(#c16_422)">
<path fill-rule="evenodd" d="M180,1038l24,0l0,-236l-24,0l0,236Z" class="g1_422" />
</g>
<path fill-rule="evenodd" d="M213,826l212,0l0,-24l-212,0l0,24Z" class="g1_422" />
<g clip-path="url(#c17_422)">
<path fill-rule="evenodd" d="M221,826l197,0l0,-24l-197,0l0,24Z" class="g1_422" />
</g>
<path fill-rule="evenodd" d="M427,826l81,0l0,-24l-81,0l0,24Z" class="g1_422" />
<g clip-path="url(#c18_422)">
<path fill-rule="evenodd" d="M434,826l66,0l0,-24l-66,0l0,24Z" class="g1_422" />
</g>
<path fill-rule="evenodd" d="M509,826l378,0l0,-24l-378,0l0,24Z" class="g1_422" />
<g clip-path="url(#c19_422)">
<path fill-rule="evenodd" d="M517,826l363,0l0,-24l-363,0l0,24Z" class="g1_422" />
</g>
<path d="M46.5,802.5l0,-1" class="g2_422" />
<path d="M88.5,802.5l0,-1" class="g2_422" />
<path d="M90.5,802.5l40,0" class="g2_422" />
<path d="M130.5,802.5l0,-1" class="g2_422" />
<path d="M131.5,802.5l40,0" class="g2_422" />
<path d="M171.5,802.5l0,-1" class="g2_422" />
<path d="M172.5,802.5l40,0" class="g2_422" />
<path d="M212.5,802.5l0,-1" class="g2_422" />
<path d="M213.5,802.5l212,0" class="g2_422" />
<path d="M425.5,802.5l0,-1" class="g2_422" />
<path d="M427.5,802.5l81,0" class="g2_422" />
<path d="M508.5,802.5l0,-1" class="g2_422" />
<path d="M509.5,802.5l378,0" class="g2_422" />
<path d="M887.5,802.5l0,-1" class="g2_422" />
<path d="M46.5,826.5l0,-24" class="g2_422" />
<path d="M88.5,826.5l0,-24" class="g2_422" />
<path d="M130.5,826.5l0,-24" class="g2_422" />
<path d="M171.5,826.5l0,-24" class="g2_422" />
<path d="M212.5,826.5l0,-24" class="g2_422" />
<path d="M425.5,826.5l0,-24" class="g2_422" />
<path d="M508.5,826.5l0,-24" class="g2_422" />
<path d="M887.5,826.5l0,-24" class="g2_422" />
<path fill-rule="evenodd" d="M213,855l212,0l0,-27l-212,0l0,27Z" class="g1_422" />
<g clip-path="url(#c20_422)">
<path fill-rule="evenodd" d="M221,852l197,0l0,-24l-197,0l0,24Z" class="g1_422" />
</g>
<path fill-rule="evenodd" d="M427,855l81,0l0,-27l-81,0l0,27Z" class="g1_422" />
<g clip-path="url(#c21_422)">
<path fill-rule="evenodd" d="M434,852l66,0l0,-24l-66,0l0,24Z" class="g1_422" />
</g>
<path fill-rule="evenodd" d="M509,855l378,0l0,-27l-378,0l0,27Z" class="g1_422" />
<g clip-path="url(#c22_422)">
<path fill-rule="evenodd" d="M517,852l363,0l0,-24l-363,0l0,24Z" class="g1_422" />
</g>
<path d="M46.5,828.5l0,-2" class="g2_422" />
<path d="M88.5,828.5l0,-2" class="g2_422" />
<path d="M130.5,828.5l0,-2" class="g2_422" />
<path d="M171.5,828.5l0,-2" class="g2_422" />
<path d="M212.5,828.5l0,-2" class="g2_422" />
<path d="M213.5,828.5l212,0" class="g2_422" />
<path d="M425.5,828.5l0,-2" class="g2_422" />
<path d="M427.5,828.5l81,0" class="g2_422" />
<path d="M508.5,828.5l0,-2" class="g2_422" />
<path d="M509.5,828.5l378,0" class="g2_422" />
<path d="M887.5,828.5l0,-2" class="g2_422" />
<path d="M46.5,855.5l0,-27" class="g2_422" />
<path d="M88.5,855.5l0,-27" class="g2_422" />
<path d="M130.5,855.5l0,-27" class="g2_422" />
<path d="M171.5,855.5l0,-27" class="g2_422" />
<path d="M212.5,855.5l0,-27" class="g2_422" />
<path d="M425.5,855.5l0,-27" class="g2_422" />
<path d="M508.5,855.5l0,-27" class="g2_422" />
<path d="M887.5,855.5l0,-27" class="g2_422" />
<path fill-rule="evenodd" d="M213,887l212,0l0,-30l-212,0l0,30Z" class="g1_422" />
<g clip-path="url(#c23_422)">
<path fill-rule="evenodd" d="M221,881l197,0l0,-24l-197,0l0,24Z" class="g1_422" />
</g>
<path fill-rule="evenodd" d="M427,887l81,0l0,-30l-81,0l0,30Z" class="g1_422" />
<g clip-path="url(#c24_422)">
<path fill-rule="evenodd" d="M434,881l66,0l0,-24l-66,0l0,24Z" class="g1_422" />
</g>
<path fill-rule="evenodd" d="M509,887l378,0l0,-30l-378,0l0,30Z" class="g1_422" />
<g clip-path="url(#c25_422)">
<path fill-rule="evenodd" d="M517,881l363,0l0,-24l-363,0l0,24Z" class="g1_422" />
</g>
<path d="M46.5,857.5l0,-2" class="g2_422" />
<path d="M88.5,857.5l0,-2" class="g2_422" />
<path d="M130.5,857.5l0,-2" class="g2_422" />
<path d="M171.5,857.5l0,-2" class="g2_422" />
<path d="M212.5,857.5l0,-2" class="g2_422" />
<path d="M213.5,857.5l212,0" class="g2_422" />
<path d="M425.5,857.5l0,-2" class="g2_422" />
<path d="M427.5,857.5l81,0" class="g2_422" />
<path d="M508.5,857.5l0,-2" class="g2_422" />
<path d="M509.5,857.5l378,0" class="g2_422" />
<path d="M887.5,857.5l0,-2" class="g2_422" />
<path d="M46.5,887.5l0,-30" class="g2_422" />
<path d="M88.5,887.5l0,-30" class="g2_422" />
<path d="M130.5,887.5l0,-30" class="g2_422" />
<path d="M171.5,887.5l0,-30" class="g2_422" />
<path d="M212.5,887.5l0,-30" class="g2_422" />
<path d="M425.5,887.5l0,-30" class="g2_422" />
<path d="M508.5,887.5l0,-30" class="g2_422" />
<path d="M887.5,887.5l0,-30" class="g2_422" />
<path fill-rule="evenodd" d="M213,917l212,0l0,-28l-212,0l0,28Z" class="g1_422" />
<g clip-path="url(#c26_422)">
<path fill-rule="evenodd" d="M221,913l197,0l0,-24l-197,0l0,24Z" class="g1_422" />
</g>
<path fill-rule="evenodd" d="M427,917l81,0l0,-28l-81,0l0,28Z" class="g1_422" />
<g clip-path="url(#c27_422)">
<path fill-rule="evenodd" d="M434,913l66,0l0,-24l-66,0l0,24Z" class="g1_422" />
</g>
<path fill-rule="evenodd" d="M509,917l378,0l0,-28l-378,0l0,28Z" class="g1_422" />
<g clip-path="url(#c28_422)">
<path fill-rule="evenodd" d="M517,913l363,0l0,-24l-363,0l0,24Z" class="g1_422" />
</g>
<path d="M46.5,889.5l0,-2" class="g2_422" />
<path d="M88.5,889.5l0,-2" class="g2_422" />
<path d="M130.5,889.5l0,-2" class="g2_422" />
<path d="M171.5,889.5l0,-2" class="g2_422" />
<path d="M212.5,889.5l0,-2" class="g2_422" />
<path d="M213.5,889.5l212,0" class="g2_422" />
<path d="M425.5,889.5l0,-2" class="g2_422" />
<path d="M427.5,889.5l81,0" class="g2_422" />
<path d="M508.5,889.5l0,-2" class="g2_422" />
<path d="M509.5,889.5l378,0" class="g2_422" />
<path d="M887.5,889.5l0,-2" class="g2_422" />
<path d="M46.5,917.5l0,-28" class="g2_422" />
<path d="M88.5,917.5l0,-28" class="g2_422" />
<path d="M130.5,917.5l0,-28" class="g2_422" />
<path d="M171.5,917.5l0,-28" class="g2_422" />
<path d="M212.5,917.5l0,-28" class="g2_422" />
<path d="M425.5,917.5l0,-28" class="g2_422" />
<path d="M508.5,917.5l0,-28" class="g2_422" />
<path d="M887.5,917.5l0,-28" class="g2_422" />
<path fill-rule="evenodd" d="M213,1038l212,0l0,-119l-212,0l0,119Z" class="g1_422" />
<path fill-rule="evenodd" d="M221,943l197,0l0,-24l-197,0l0,24Z" class="g1_422" />
<path fill-rule="evenodd" d="M427,1038l81,0l0,-119l-81,0l0,119Z" class="g1_422" />
<path fill-rule="evenodd" d="M434,943l66,0l0,-24l-66,0l0,24Z" class="g1_422" />
<path fill-rule="evenodd" d="M509,1038l378,0l0,-119l-378,0l0,119Z" class="g1_422" />
<path fill-rule="evenodd" d="M517,943l363,0l0,-24l-363,0l0,24Z" class="g1_422" />
<path fill-rule="evenodd" d="M517,966l363,0l0,-23l-363,0l0,23Z" class="g1_422" />
<path fill-rule="evenodd" d="M517,990l363,0l0,-24l-363,0l0,24Z" class="g1_422" />
<path fill-rule="evenodd" d="M517,1014l363,0l0,-24l-363,0l0,24Z" class="g1_422" />
<g clip-path="url(#c29_422)">
<path fill-rule="evenodd" d="M517,1038l363,0l0,-24l-363,0l0,24Z" class="g1_422" />
</g>
<path d="M46.5,918.5l0,-1" class="g2_422" />
<path d="M88.5,918.5l0,-1" class="g2_422" />
<path d="M130.5,918.5l0,-1" class="g2_422" />
<path d="M171.5,918.5l0,-1" class="g2_422" />
<path d="M212.5,918.5l0,-1" class="g2_422" />
<path d="M213.5,918.5l212,0" class="g2_422" />
<path d="M425.5,918.5l0,-1" class="g2_422" />
<path d="M427.5,918.5l81,0" class="g2_422" />
<path d="M508.5,918.5l0,-1" class="g2_422" />
<path d="M509.5,918.5l378,0" class="g2_422" />
<path d="M887.5,918.5l0,-1" class="g2_422" />
<path d="M46.5,1038.5l0,-120" class="g2_422" />
<path d="M46.5,1039.5l0,-1" class="g2_422" />
<path d="M46.5,1039.5l0,-1" class="g2_422" />
<path d="M47.5,1039.5l41,0" class="g2_422" />
<path d="M88.5,1038.5l0,-120" class="g2_422" />
<path d="M88.5,1039.5l0,-1" class="g2_422" />
<path d="M90.5,1039.5l40,0" class="g2_422" />
<path d="M130.5,1038.5l0,-120" class="g2_422" />
<path d="M130.5,1039.5l0,-1" class="g2_422" />
<path d="M131.5,1039.5l40,0" class="g2_422" />
<path d="M171.5,1038.5l0,-120" class="g2_422" />
<path d="M171.5,1039.5l0,-1" class="g2_422" />
<path d="M172.5,1039.5l40,0" class="g2_422" />
<path d="M212.5,1038.5l0,-120" class="g2_422" />
<path d="M212.5,1039.5l0,-1" class="g2_422" />
<path d="M213.5,1039.5l212,0" class="g2_422" />
<path d="M425.5,1038.5l0,-120" class="g2_422" />
<path d="M425.5,1039.5l0,-1" class="g2_422" />
<path d="M427.5,1039.5l81,0" class="g2_422" />
<path d="M508.5,1038.5l0,-120" class="g2_422" />
<path d="M508.5,1039.5l0,-1" class="g2_422" />
<path d="M509.5,1039.5l378,0" class="g2_422" />
<path d="M887.5,1038.5l0,-120" class="g2_422" />
<path d="M887.5,1039.5l0,-1" class="g2_422" />
<path d="M887.5,1039.5l0,-1" class="g2_422" />
</svg>