<?xml version="1.0" encoding="UTF-8" standalone="no"?>
<!DOCTYPE svg PUBLIC "-//W3C//DTD SVG 1.1//EN"
"http://www.w3.org/Graphics/SVG/1.1/DTD/svg11.dtd">
<svg version="1.1" xmlns="http://www.w3.org/2000/svg" xmlns:xlink="http://www.w3.org/1999/xlink">
<defs>
<clipPath id="c0_453"><path d="M47.5,230.5l0,-24l840,0l0,24Z" /></clipPath>
<clipPath id="c1_453"><path d="M47.5,1091.5l0,-834l840,0l0,834Z" /></clipPath>
<style type="text/css"><![CDATA[
.g2_453{
fill: none;
stroke: #7E7E7E;
stroke-width: 1;
stroke-linecap: butt;
stroke-linejoin: miter;
}
.g1_453{
fill: #F1F1F1;
}
]]></style>
</defs>
<path fill-rule="evenodd" d="M47,230l840,0l0,-24L47,206l0,24Z" class="g1_453" />
<g clip-path="url(#c0_453)">
<path fill-rule="evenodd" d="M55,230l825,0l0,-24L55,206l0,24Z" class="g1_453" />
</g>
<path d="M46.5,206.5l0,-1" class="g2_453" />
<path d="M46.5,206.5l0,-1" class="g2_453" />
<path d="M47.5,206.5l840,0" class="g2_453" />
<path d="M887.5,206.5l0,-1" class="g2_453" />
<path d="M887.5,206.5l0,-1" class="g2_453" />
<path d="M46.5,230.5l0,-24" class="g2_453" />
<path d="M46.5,232.5l0,-2" class="g2_453" />
<path d="M46.5,232.5l0,-2" class="g2_453" />
<path d="M47.5,232.5l840,0" class="g2_453" />
<path d="M887.5,230.5l0,-24" class="g2_453" />
<path d="M887.5,232.5l0,-2" class="g2_453" />
<path d="M887.5,232.5l0,-2" class="g2_453" />
<path fill-rule="evenodd" d="M47,1091l840,0l0,-834L47,257l0,834Z" class="g1_453" />
<g clip-path="url(#c1_453)">
<path fill-rule="evenodd" d="M55,281l825,0l0,-24L55,257l0,24Z" class="g1_453" />
</g>
<path fill-rule="evenodd" d="M55,305l825,0l0,-24L55,281l0,24Z" class="g1_453" />
<path fill-rule="evenodd" d="M55,329l825,0l0,-24L55,305l0,24Z" class="g1_453" />
<path fill-rule="evenodd" d="M55,352l825,0l0,-23L55,329l0,23Z" class="g1_453" />
<path fill-rule="evenodd" d="M55,376l825,0l0,-24L55,352l0,24Z" class="g1_453" />
<path fill-rule="evenodd" d="M55,400l825,0l0,-24L55,376l0,24Z" class="g1_453" />
<path fill-rule="evenodd" d="M55,424l825,0l0,-24L55,400l0,24Z" class="g1_453" />
<path fill-rule="evenodd" d="M55,448l825,0l0,-24L55,424l0,24Z" class="g1_453" />
<path fill-rule="evenodd" d="M55,472l825,0l0,-24L55,448l0,24Z" class="g1_453" />
<path fill-rule="evenodd" d="M55,495l825,0l0,-23L55,472l0,23Z" class="g1_453" />
<path fill-rule="evenodd" d="M55,519l825,0l0,-24L55,495l0,24Z" class="g1_453" />
<path fill-rule="evenodd" d="M55,543l825,0l0,-24L55,519l0,24Z" class="g1_453" />
<path fill-rule="evenodd" d="M55,567l825,0l0,-24L55,543l0,24Z" class="g1_453" />
<path fill-rule="evenodd" d="M55,591l825,0l0,-24L55,567l0,24Z" class="g1_453" />
<path fill-rule="evenodd" d="M55,615l825,0l0,-24L55,591l0,24Z" class="g1_453" />
<path fill-rule="evenodd" d="M55,638l825,0l0,-23L55,615l0,23Z" class="g1_453" />
<path fill-rule="evenodd" d="M55,662l825,0l0,-24L55,638l0,24Z" class="g1_453" />
<path fill-rule="evenodd" d="M55,686l825,0l0,-24L55,662l0,24Z" class="g1_453" />
<path fill-rule="evenodd" d="M55,710l825,0l0,-24L55,686l0,24Z" class="g1_453" />
<path fill-rule="evenodd" d="M55,734l825,0l0,-24L55,710l0,24Z" class="g1_453" />
<path fill-rule="evenodd" d="M55,758l825,0l0,-24L55,734l0,24Z" class="g1_453" />
<path fill-rule="evenodd" d="M55,782l825,0l0,-24L55,758l0,24Z" class="g1_453" />
<path fill-rule="evenodd" d="M55,805l825,0l0,-23L55,782l0,23Z" class="g1_453" />
<path fill-rule="evenodd" d="M55,829l825,0l0,-24L55,805l0,24Z" class="g1_453" />
<path fill-rule="evenodd" d="M55,853l825,0l0,-24L55,829l0,24Z" class="g1_453" />
<path fill-rule="evenodd" d="M55,877l825,0l0,-24L55,853l0,24Z" class="g1_453" />
<path fill-rule="evenodd" d="M55,901l825,0l0,-24L55,877l0,24Z" class="g1_453" />
<path fill-rule="evenodd" d="M55,925l825,0l0,-24L55,901l0,24Z" class="g1_453" />
<path fill-rule="evenodd" d="M55,948l825,0l0,-23L55,925l0,23Z" class="g1_453" />
<path fill-rule="evenodd" d="M55,972l825,0l0,-24L55,948l0,24Z" class="g1_453" />
<path fill-rule="evenodd" d="M55,996l825,0l0,-24L55,972l0,24Z" class="g1_453" />
<path fill-rule="evenodd" d="M55,1020l825,0l0,-24L55,996l0,24Z" class="g1_453" />
<path fill-rule="evenodd" d="M55,1044l825,0l0,-24l-825,0l0,24Z" class="g1_453" />
<path fill-rule="evenodd" d="M55,1068l825,0l0,-24l-825,0l0,24Z" class="g1_453" />
<g clip-path="url(#c1_453)">
<path fill-rule="evenodd" d="M55,1091l825,0l0,-23l-825,0l0,23Z" class="g1_453" />
</g>
<path d="M46.5,257.5l0,-1" class="g2_453" />
<path d="M46.5,257.5l0,-1" class="g2_453" />
<path d="M47.5,257.5l840,0" class="g2_453" />
<path d="M887.5,257.5l0,-1" class="g2_453" />
<path d="M887.5,257.5l0,-1" class="g2_453" />
<path d="M46.5,1091.5l0,-834" class="g2_453" />
<path d="M46.5,1093.5l0,-2" class="g2_453" />
<path d="M46.5,1093.5l0,-2" class="g2_453" />
<path d="M47.5,1093.5l840,0" class="g2_453" />
<path d="M887.5,1091.5l0,-834" class="g2_453" />
<path d="M887.5,1093.5l0,-2" class="g2_453" />
<path d="M887.5,1093.5l0,-2" class="g2_453" />
</svg>