<?xml version="1.0" encoding="UTF-8" standalone="no"?>
<!DOCTYPE svg PUBLIC "-//W3C//DTD SVG 1.1//EN"
"http://www.w3.org/Graphics/SVG/1.1/DTD/svg11.dtd">
<svg version="1.1" xmlns="http://www.w3.org/2000/svg" xmlns:xlink="http://www.w3.org/1999/xlink">
<defs>
<clipPath id="c0_214"><path d="M54.5,134.5l0,-24l385,0l0,24Z" /></clipPath>
<clipPath id="c1_214"><path d="M440.5,134.5l0,-24l67,0l0,24Z" /></clipPath>
<clipPath id="c2_214"><path d="M508.5,134.5l0,-24l277,0l0,24Z" /></clipPath>
<clipPath id="c3_214"><path d="M786.5,134.5l0,-24l102,0l0,24Z" /></clipPath>
<style type="text/css"><![CDATA[
.g2_214{
fill: none;
stroke: #000000;
stroke-width: 1;
stroke-linecap: butt;
stroke-linejoin: miter;
}
.g1_214{
fill: #D7D7D7;
}
]]></style>
</defs>
<path fill-rule="evenodd" d="M54,134l385,0l0,-24L54,110l0,24Z" class="g1_214" />
<g clip-path="url(#c0_214)">
<path fill-rule="evenodd" d="M62,134l370,0l0,-24L62,110l0,24Z" class="g1_214" />
</g>
<path fill-rule="evenodd" d="M440,134l67,0l0,-24l-67,0l0,24Z" class="g1_214" />
<g clip-path="url(#c1_214)">
<path fill-rule="evenodd" d="M448,134l51,0l0,-24l-51,0l0,24Z" class="g1_214" />
</g>
<path fill-rule="evenodd" d="M508,134l277,0l0,-24l-277,0l0,24Z" class="g1_214" />
<g clip-path="url(#c2_214)">
<path fill-rule="evenodd" d="M516,134l261,0l0,-24l-261,0l0,24Z" class="g1_214" />
</g>
<path fill-rule="evenodd" d="M786,134l102,0l0,-24l-102,0l0,24Z" class="g1_214" />
<g clip-path="url(#c3_214)">
<path fill-rule="evenodd" d="M794,134l86,0l0,-24l-86,0l0,24Z" class="g1_214" />
</g>
<path d="M54.5,110.5l385,0" class="g2_214" />
<path d="M440.5,110.5l67,0" class="g2_214" />
<path d="M508.5,110.5l277,0" class="g2_214" />
<path d="M786.5,110.5l102,0" class="g2_214" />
<path d="M53.5,134.5l0,-24" class="g2_214" />
<path d="M439.5,134.5l0,-24" class="g2_214" />
<path d="M507.5,134.5l0,-24" class="g2_214" />
<path d="M785.5,134.5l0,-24" class="g2_214" />
<path d="M888.5,134.5l0,-24" class="g2_214" />
<path d="M53.5,135.5l0,-1" class="g2_214" />
<path d="M54.5,135.5l385,0" class="g2_214" />
<path d="M439.5,135.5l0,-1" class="g2_214" />
<path d="M440.5,135.5l67,0" class="g2_214" />
<path d="M507.5,135.5l0,-1" class="g2_214" />
<path d="M508.5,135.5l277,0" class="g2_214" />
<path d="M785.5,135.5l0,-1" class="g2_214" />
<path d="M786.5,135.5l102,0" class="g2_214" />
<path d="M888.5,135.5l0,-1" class="g2_214" />
<path d="M53.5,182.5l0,-47" class="g2_214" />
<path d="M439.5,182.5l0,-47" class="g2_214" />
<path d="M507.5,182.5l0,-47" class="g2_214" />
<path d="M785.5,182.5l0,-47" class="g2_214" />
<path d="M888.5,182.5l0,-47" class="g2_214" />
<path d="M53.5,183.5l0,-1" class="g2_214" />
<path d="M54.5,183.5l385,0" class="g2_214" />
<path d="M439.5,183.5l0,-1" class="g2_214" />
<path d="M440.5,183.5l67,0" class="g2_214" />
<path d="M507.5,183.5l0,-1" class="g2_214" />
<path d="M508.5,183.5l277,0" class="g2_214" />
<path d="M785.5,183.5l0,-1" class="g2_214" />
<path d="M786.5,183.5l102,0" class="g2_214" />
<path d="M888.5,183.5l0,-1" class="g2_214" />
<path d="M53.5,207.5l0,-24" class="g2_214" />
<path d="M439.5,207.5l0,-24" class="g2_214" />
<path d="M507.5,207.5l0,-24" class="g2_214" />
<path d="M785.5,207.5l0,-24" class="g2_214" />
<path d="M888.5,207.5l0,-24" class="g2_214" />
<path d="M53.5,208.5l0,-1" class="g2_214" />
<path d="M54.5,208.5l40,0" class="g2_214" />
<path d="M94.5,208.5l0,-1" class="g2_214" />
<path d="M94.5,208.5l41,0" class="g2_214" />
<path d="M135.5,208.5l0,-1" class="g2_214" />
<path d="M135.5,208.5l40,0" class="g2_214" />
<path d="M175.5,208.5l0,-1" class="g2_214" />
<path d="M176.5,208.5l40,0" class="g2_214" />
<path d="M216.5,208.5l0,-1" class="g2_214" />
<path d="M217.5,208.5l222,0" class="g2_214" />
<path d="M439.5,208.5l0,-1" class="g2_214" />
<path d="M440.5,208.5l67,0" class="g2_214" />
<path d="M507.5,208.5l0,-1" class="g2_214" />
<path d="M508.5,208.5l277,0" class="g2_214" />
<path d="M785.5,208.5l0,-1" class="g2_214" />
<path d="M786.5,208.5l102,0" class="g2_214" />
<path d="M888.5,208.5l0,-1" class="g2_214" />
<path d="M53.5,295.5l0,-87" class="g2_214" />
<path d="M94.5,295.5l0,-87" class="g2_214" />
<path d="M135.5,295.5l0,-87" class="g2_214" />
<path d="M175.5,295.5l0,-87" class="g2_214" />
<path d="M216.5,295.5l0,-87" class="g2_214" />
<path d="M439.5,295.5l0,-87" class="g2_214" />
<path d="M507.5,295.5l0,-87" class="g2_214" />
<path d="M785.5,295.5l0,-87" class="g2_214" />
<path d="M888.5,295.5l0,-87" class="g2_214" />
<path d="M217.5,295.5l222,0" class="g2_214" />
<path d="M440.5,295.5l67,0" class="g2_214" />
<path d="M508.5,295.5l277,0" class="g2_214" />
<path d="M786.5,295.5l102,0" class="g2_214" />
<path d="M53.5,414.5l0,-119" class="g2_214" />
<path d="M94.5,414.5l0,-119" class="g2_214" />
<path d="M135.5,414.5l0,-119" class="g2_214" />
<path d="M175.5,414.5l0,-119" class="g2_214" />
<path d="M216.5,414.5l0,-119" class="g2_214" />
<path d="M439.5,414.5l0,-119" class="g2_214" />
<path d="M507.5,414.5l0,-119" class="g2_214" />
<path d="M785.5,414.5l0,-119" class="g2_214" />
<path d="M888.5,414.5l0,-119" class="g2_214" />
<path d="M53.5,415.5l0,-1" class="g2_214" />
<path d="M94.5,415.5l0,-1" class="g2_214" />
<path d="M135.5,415.5l0,-1" class="g2_214" />
<path d="M175.5,415.5l0,-1" class="g2_214" />
<path d="M216.5,415.5l0,-1" class="g2_214" />
<path d="M217.5,415.5l222,0" class="g2_214" />
<path d="M439.5,415.5l0,-1" class="g2_214" />
<path d="M440.5,415.5l67,0" class="g2_214" />
<path d="M507.5,415.5l0,-1" class="g2_214" />
<path d="M508.5,415.5l277,0" class="g2_214" />
<path d="M785.5,415.5l0,-1" class="g2_214" />
<path d="M786.5,415.5l102,0" class="g2_214" />
<path d="M888.5,415.5l0,-1" class="g2_214" />
<path d="M53.5,487.5l0,-72" class="g2_214" />
<path d="M94.5,487.5l0,-72" class="g2_214" />
<path d="M135.5,487.5l0,-72" class="g2_214" />
<path d="M175.5,487.5l0,-72" class="g2_214" />
<path d="M216.5,487.5l0,-72" class="g2_214" />
<path d="M439.5,487.5l0,-72" class="g2_214" />
<path d="M507.5,487.5l0,-72" class="g2_214" />
<path d="M785.5,487.5l0,-72" class="g2_214" />
<path d="M888.5,487.5l0,-72" class="g2_214" />
<path d="M217.5,487.5l222,0" class="g2_214" />
<path d="M440.5,487.5l67,0" class="g2_214" />
<path d="M508.5,487.5l277,0" class="g2_214" />
<path d="M786.5,487.5l102,0" class="g2_214" />
<path d="M53.5,631.5l0,-144" class="g2_214" />
<path d="M94.5,631.5l0,-144" class="g2_214" />
<path d="M135.5,631.5l0,-144" class="g2_214" />
<path d="M175.5,631.5l0,-144" class="g2_214" />
<path d="M216.5,631.5l0,-144" class="g2_214" />
<path d="M439.5,631.5l0,-144" class="g2_214" />
<path d="M507.5,631.5l0,-144" class="g2_214" />
<path d="M785.5,631.5l0,-144" class="g2_214" />
<path d="M888.5,631.5l0,-144" class="g2_214" />
<path d="M217.5,631.5l222,0" class="g2_214" />
<path d="M440.5,631.5l67,0" class="g2_214" />
<path d="M508.5,631.5l277,0" class="g2_214" />
<path d="M786.5,631.5l102,0" class="g2_214" />
<path d="M53.5,798.5l0,-167" class="g2_214" />
<path d="M94.5,798.5l0,-167" class="g2_214" />
<path d="M135.5,798.5l0,-167" class="g2_214" />
<path d="M175.5,798.5l0,-167" class="g2_214" />
<path d="M216.5,798.5l0,-167" class="g2_214" />
<path d="M439.5,798.5l0,-167" class="g2_214" />
<path d="M507.5,798.5l0,-167" class="g2_214" />
<path d="M785.5,798.5l0,-167" class="g2_214" />
<path d="M888.5,798.5l0,-167" class="g2_214" />
<path d="M53.5,799.5l0,-1" class="g2_214" />
<path d="M94.5,799.5l0,-1" class="g2_214" />
<path d="M135.5,799.5l0,-1" class="g2_214" />
<path d="M175.5,799.5l0,-1" class="g2_214" />
<path d="M216.5,799.5l0,-1" class="g2_214" />
<path d="M217.5,799.5l222,0" class="g2_214" />
<path d="M439.5,799.5l0,-1" class="g2_214" />
<path d="M440.5,799.5l67,0" class="g2_214" />
<path d="M507.5,799.5l0,-1" class="g2_214" />
<path d="M508.5,799.5l277,0" class="g2_214" />
<path d="M785.5,799.5l0,-1" class="g2_214" />
<path d="M786.5,799.5l102,0" class="g2_214" />
<path d="M888.5,799.5l0,-1" class="g2_214" />
<path d="M53.5,847.5l0,-48" class="g2_214" />
<path d="M94.5,847.5l0,-48" class="g2_214" />
<path d="M135.5,847.5l0,-48" class="g2_214" />
<path d="M175.5,847.5l0,-48" class="g2_214" />
<path d="M216.5,847.5l0,-48" class="g2_214" />
<path d="M439.5,847.5l0,-48" class="g2_214" />
<path d="M507.5,847.5l0,-48" class="g2_214" />
<path d="M785.5,847.5l0,-48" class="g2_214" />
<path d="M888.5,847.5l0,-48" class="g2_214" />
<path d="M217.5,847.5l222,0" class="g2_214" />
<path d="M440.5,847.5l67,0" class="g2_214" />
<path d="M508.5,847.5l277,0" class="g2_214" />
<path d="M786.5,847.5l102,0" class="g2_214" />
<path d="M53.5,990.5l0,-143" class="g2_214" />
<path d="M94.5,990.5l0,-143" class="g2_214" />
<path d="M135.5,990.5l0,-143" class="g2_214" />
<path d="M175.5,990.5l0,-143" class="g2_214" />
<path d="M216.5,990.5l0,-143" class="g2_214" />
<path d="M439.5,990.5l0,-143" class="g2_214" />
<path d="M507.5,990.5l0,-143" class="g2_214" />
<path d="M785.5,990.5l0,-143" class="g2_214" />
<path d="M888.5,990.5l0,-143" class="g2_214" />
<path d="M53.5,991.5l0,-1" class="g2_214" />
<path d="M94.5,991.5l0,-1" class="g2_214" />
<path d="M135.5,991.5l0,-1" class="g2_214" />
<path d="M175.5,991.5l0,-1" class="g2_214" />
<path d="M216.5,991.5l0,-1" class="g2_214" />
<path d="M217.5,991.5l222,0" class="g2_214" />
<path d="M439.5,991.5l0,-1" class="g2_214" />
<path d="M440.5,991.5l67,0" class="g2_214" />
<path d="M507.5,991.5l0,-1" class="g2_214" />
<path d="M508.5,991.5l277,0" class="g2_214" />
<path d="M785.5,991.5l0,-1" class="g2_214" />
<path d="M786.5,991.5l102,0" class="g2_214" />
<path d="M888.5,991.5l0,-1" class="g2_214" />
<path d="M53.5,1086.5l0,-95" class="g2_214" />
<path d="M94.5,1086.5l0,-95" class="g2_214" />
<path d="M135.5,1086.5l0,-95" class="g2_214" />
<path d="M175.5,1086.5l0,-95" class="g2_214" />
<path d="M216.5,1086.5l0,-95" class="g2_214" />
<path d="M216.5,1087.5l0,-1" class="g2_214" />
<path d="M216.5,1087.5l0,-1" class="g2_214" />
<path d="M217.5,1087.5l222,0" class="g2_214" />
<path d="M439.5,1086.5l0,-95" class="g2_214" />
<path d="M439.5,1087.5l0,-1" class="g2_214" />
<path d="M440.5,1087.5l67,0" class="g2_214" />
<path d="M507.5,1086.5l0,-95" class="g2_214" />
<path d="M507.5,1087.5l0,-1" class="g2_214" />
<path d="M508.5,1087.5l277,0" class="g2_214" />
<path d="M785.5,1086.5l0,-95" class="g2_214" />
<path d="M785.5,1087.5l0,-1" class="g2_214" />
<path d="M786.5,1087.5l102,0" class="g2_214" />
<path d="M888.5,1086.5l0,-95" class="g2_214" />
<path d="M888.5,1087.5l0,-1" class="g2_214" />
<path d="M888.5,1087.5l0,-1" class="g2_214" />
</svg>