<?xml version="1.0" encoding="UTF-8" standalone="no"?>
<!DOCTYPE svg PUBLIC "-//W3C//DTD SVG 1.1//EN"
"http://www.w3.org/Graphics/SVG/1.1/DTD/svg11.dtd">
<svg version="1.1" xmlns="http://www.w3.org/2000/svg" xmlns:xlink="http://www.w3.org/1999/xlink">
<defs>
<clipPath id="c0_456"><path d="M47.5,326.5l0,-215l840,0l0,215Z" /></clipPath>
<clipPath id="c1_456"><path d="M47.5,751.5l0,-25l254,0l0,25Z" /></clipPath>
<clipPath id="c2_456"><path d="M303.5,751.5l0,-25l60,0l0,25Z" /></clipPath>
<clipPath id="c3_456"><path d="M365.5,751.5l0,-25l522,0l0,25Z" /></clipPath>
<clipPath id="c4_456"><path d="M47.5,976.5l0,-224l41,0l0,224Z" /></clipPath>
<clipPath id="c5_456"><path d="M89.5,800.5l0,-48l212,0l0,48Z" /></clipPath>
<clipPath id="c6_456"><path d="M303.5,800.5l0,-48l60,0l0,48Z" /></clipPath>
<clipPath id="c7_456"><path d="M365.5,800.5l0,-48l522,0l0,48Z" /></clipPath>
<clipPath id="c8_456"><path d="M89.5,826.5l0,-24l212,0l0,24Z" /></clipPath>
<clipPath id="c9_456"><path d="M303.5,826.5l0,-24l60,0l0,24Z" /></clipPath>
<clipPath id="c10_456"><path d="M365.5,826.5l0,-24l522,0l0,24Z" /></clipPath>
<clipPath id="c11_456"><path d="M89.5,852.5l0,-25l212,0l0,25Z" /></clipPath>
<clipPath id="c12_456"><path d="M303.5,852.5l0,-25l60,0l0,25Z" /></clipPath>
<clipPath id="c13_456"><path d="M365.5,852.5l0,-25l522,0l0,25Z" /></clipPath>
<clipPath id="c14_456"><path d="M89.5,976.5l0,-123l41,0l0,123Z" /></clipPath>
<clipPath id="c15_456"><path d="M131.5,877.5l0,-24l170,0l0,24Z" /></clipPath>
<clipPath id="c16_456"><path d="M303.5,877.5l0,-24l60,0l0,24Z" /></clipPath>
<clipPath id="c17_456"><path d="M365.5,877.5l0,-24l522,0l0,24Z" /></clipPath>
<clipPath id="c18_456"><path d="M131.5,902.5l0,-23l170,0l0,23Z" /></clipPath>
<clipPath id="c19_456"><path d="M303.5,902.5l0,-23l60,0l0,23Z" /></clipPath>
<clipPath id="c20_456"><path d="M365.5,902.5l0,-23l522,0l0,23Z" /></clipPath>
<clipPath id="c21_456"><path d="M365.5,976.5l0,-72l522,0l0,72Z" /></clipPath>
<clipPath id="c22_456"><path d="M47.5,1098.5l0,-24l840,0l0,24Z" /></clipPath>
<style type="text/css"><![CDATA[
.g2_456{
fill: none;
stroke: #7E7E7E;
stroke-width: 1;
stroke-linecap: butt;
stroke-linejoin: miter;
}
.g3_456{
fill: #DBE5F1;
}
.g1_456{
fill: #F1F1F1;
}
]]></style>
</defs>
<path fill-rule="evenodd" d="M47,325l840,0l0,-214L47,111l0,214Z" class="g1_456" />
<g clip-path="url(#c0_456)">
<path fill-rule="evenodd" d="M55,135l825,0l0,-24L55,111l0,24Z" class="g1_456" />
</g>
<path fill-rule="evenodd" d="M55,159l825,0l0,-24L55,135l0,24Z" class="g1_456" />
<path fill-rule="evenodd" d="M55,182l825,0l0,-23L55,159l0,23Z" class="g1_456" />
<path fill-rule="evenodd" d="M55,206l825,0l0,-24L55,182l0,24Z" class="g1_456" />
<path fill-rule="evenodd" d="M55,230l825,0l0,-24L55,206l0,24Z" class="g1_456" />
<path fill-rule="evenodd" d="M55,254l825,0l0,-24L55,230l0,24Z" class="g1_456" />
<path fill-rule="evenodd" d="M55,278l825,0l0,-24L55,254l0,24Z" class="g1_456" />
<path fill-rule="evenodd" d="M55,302l825,0l0,-24L55,278l0,24Z" class="g1_456" />
<path fill-rule="evenodd" d="M55,325l825,0l0,-23L55,302l0,23Z" class="g1_456" />
<path d="M46.5,111.5l0,-1" class="g2_456" />
<path d="M46.5,111.5l0,-1" class="g2_456" />
<path d="M47.5,111.5l840,0" class="g2_456" />
<path d="M887.5,111.5l0,-1" class="g2_456" />
<path d="M887.5,111.5l0,-1" class="g2_456" />
<path d="M46.5,326.5l0,-215" class="g2_456" />
<path d="M46.5,327.5l0,-1" class="g2_456" />
<path d="M46.5,327.5l0,-1" class="g2_456" />
<path d="M47.5,327.5l840,0" class="g2_456" />
<path d="M887.5,326.5l0,-215" class="g2_456" />
<path d="M887.5,327.5l0,-1" class="g2_456" />
<path d="M887.5,327.5l0,-1" class="g2_456" />
<path fill-rule="evenodd" d="M47,615l840,0l0,-215L47,400l0,215Z" class="g1_456" />
<path fill-rule="evenodd" d="M55,424l825,0l0,-24L55,400l0,24Z" class="g1_456" />
<path fill-rule="evenodd" d="M55,448l825,0l0,-24L55,424l0,24Z" class="g1_456" />
<path fill-rule="evenodd" d="M55,472l825,0l0,-24L55,448l0,24Z" class="g1_456" />
<path fill-rule="evenodd" d="M55,495l825,0l0,-23L55,472l0,23Z" class="g1_456" />
<path fill-rule="evenodd" d="M55,519l825,0l0,-24L55,495l0,24Z" class="g1_456" />
<path fill-rule="evenodd" d="M55,543l825,0l0,-24L55,519l0,24Z" class="g1_456" />
<path fill-rule="evenodd" d="M55,567l825,0l0,-24L55,543l0,24Z" class="g1_456" />
<path fill-rule="evenodd" d="M55,591l825,0l0,-24L55,567l0,24Z" class="g1_456" />
<path fill-rule="evenodd" d="M55,615l825,0l0,-24L55,591l0,24Z" class="g1_456" />
<path d="M46.5,400.5l0,-1" class="g2_456" />
<path d="M46.5,400.5l0,-1" class="g2_456" />
<path d="M47.5,400.5l840,0" class="g2_456" />
<path d="M887.5,400.5l0,-1" class="g2_456" />
<path d="M887.5,400.5l0,-1" class="g2_456" />
<path d="M46.5,615.5l0,-215" class="g2_456" />
<path d="M46.5,616.5l0,-1" class="g2_456" />
<path d="M46.5,616.5l0,-1" class="g2_456" />
<path d="M47.5,616.5l840,0" class="g2_456" />
<path d="M887.5,615.5l0,-215" class="g2_456" />
<path d="M887.5,616.5l0,-1" class="g2_456" />
<path d="M887.5,616.5l0,-1" class="g2_456" />
<path fill-rule="evenodd" d="M47,751l254,0l0,-25L47,726l0,25Z" class="g3_456" />
<g clip-path="url(#c1_456)">
<path fill-rule="evenodd" d="M55,750l239,0l0,-24L55,726l0,24Z" class="g3_456" />
</g>
<path fill-rule="evenodd" d="M303,751l60,0l0,-25l-60,0l0,25Z" class="g3_456" />
<g clip-path="url(#c2_456)">
<path fill-rule="evenodd" d="M310,750l46,0l0,-24l-46,0l0,24Z" class="g3_456" />
</g>
<path fill-rule="evenodd" d="M365,751l522,0l0,-25l-522,0l0,25Z" class="g3_456" />
<g clip-path="url(#c3_456)">
<path fill-rule="evenodd" d="M372,750l508,0l0,-24l-508,0l0,24Z" class="g3_456" />
</g>
<path d="M46.5,726.5l0,-1" class="g2_456" />
<path d="M46.5,726.5l0,-1" class="g2_456" />
<path d="M47.5,726.5l254,0" class="g2_456" />
<path d="M301.5,726.5l0,-1" class="g2_456" />
<path d="M303.5,726.5l60,0" class="g2_456" />
<path d="M363.5,726.5l0,-1" class="g2_456" />
<path d="M365.5,726.5l522,0" class="g2_456" />
<path d="M887.5,726.5l0,-1" class="g2_456" />
<path d="M887.5,726.5l0,-1" class="g2_456" />
<path d="M46.5,751.5l0,-25" class="g2_456" />
<path d="M301.5,751.5l0,-25" class="g2_456" />
<path d="M363.5,751.5l0,-25" class="g2_456" />
<path d="M887.5,751.5l0,-25" class="g2_456" />
<path fill-rule="evenodd" d="M47,976l41,0L88,752l-41,0l0,224Z" class="g1_456" />
<g clip-path="url(#c4_456)">
<path fill-rule="evenodd" d="M55,976l23,0L78,752l-23,0l0,224Z" class="g1_456" />
</g>
<path fill-rule="evenodd" d="M89,800l212,0l0,-48L89,752l0,48Z" class="g1_456" />
<g clip-path="url(#c5_456)">
<path fill-rule="evenodd" d="M97,776l197,0l0,-24L97,752l0,24Z" class="g1_456" />
</g>
<path fill-rule="evenodd" d="M303,800l60,0l0,-48l-60,0l0,48Z" class="g1_456" />
<g clip-path="url(#c6_456)">
<path fill-rule="evenodd" d="M310,776l46,0l0,-24l-46,0l0,24Z" class="g1_456" />
</g>
<path fill-rule="evenodd" d="M365,800l522,0l0,-48l-522,0l0,48Z" class="g1_456" />
<g clip-path="url(#c7_456)">
<path fill-rule="evenodd" d="M372,776l508,0l0,-24l-508,0l0,24Z" class="g1_456" />
</g>
<path fill-rule="evenodd" d="M372,800l508,0l0,-24l-508,0l0,24Z" class="g1_456" />
<path d="M46.5,752.5l0,-1" class="g2_456" />
<path d="M47.5,752.5l41,0" class="g2_456" />
<path d="M88.5,752.5l0,-1" class="g2_456" />
<path d="M89.5,752.5l212,0" class="g2_456" />
<path d="M301.5,752.5l0,-1" class="g2_456" />
<path d="M303.5,752.5l60,0" class="g2_456" />
<path d="M363.5,752.5l0,-1" class="g2_456" />
<path d="M365.5,752.5l522,0" class="g2_456" />
<path d="M887.5,752.5l0,-1" class="g2_456" />
<path d="M46.5,800.5l0,-48" class="g2_456" />
<path d="M88.5,800.5l0,-48" class="g2_456" />
<path d="M301.5,800.5l0,-48" class="g2_456" />
<path d="M363.5,800.5l0,-48" class="g2_456" />
<path d="M887.5,800.5l0,-48" class="g2_456" />
<path fill-rule="evenodd" d="M89,826l212,0l0,-24L89,802l0,24Z" class="g1_456" />
<g clip-path="url(#c8_456)">
<path fill-rule="evenodd" d="M97,825l197,0l0,-23L97,802l0,23Z" class="g1_456" />
</g>
<path fill-rule="evenodd" d="M303,826l60,0l0,-24l-60,0l0,24Z" class="g1_456" />
<g clip-path="url(#c9_456)">
<path fill-rule="evenodd" d="M310,825l46,0l0,-23l-46,0l0,23Z" class="g1_456" />
</g>
<path fill-rule="evenodd" d="M365,826l522,0l0,-24l-522,0l0,24Z" class="g1_456" />
<g clip-path="url(#c10_456)">
<path fill-rule="evenodd" d="M372,825l508,0l0,-23l-508,0l0,23Z" class="g1_456" />
</g>
<path d="M46.5,801.5l0,-1" class="g2_456" />
<path d="M88.5,801.5l0,-1" class="g2_456" />
<path d="M89.5,801.5l212,0" class="g2_456" />
<path d="M301.5,801.5l0,-1" class="g2_456" />
<path d="M303.5,801.5l60,0" class="g2_456" />
<path d="M363.5,801.5l0,-1" class="g2_456" />
<path d="M365.5,801.5l522,0" class="g2_456" />
<path d="M887.5,801.5l0,-1" class="g2_456" />
<path d="M46.5,826.5l0,-25" class="g2_456" />
<path d="M88.5,826.5l0,-25" class="g2_456" />
<path d="M301.5,826.5l0,-25" class="g2_456" />
<path d="M363.5,826.5l0,-25" class="g2_456" />
<path d="M887.5,826.5l0,-25" class="g2_456" />
<path fill-rule="evenodd" d="M89,852l212,0l0,-25L89,827l0,25Z" class="g1_456" />
<g clip-path="url(#c11_456)">
<path fill-rule="evenodd" d="M97,851l197,0l0,-24L97,827l0,24Z" class="g1_456" />
</g>
<path fill-rule="evenodd" d="M303,852l60,0l0,-25l-60,0l0,25Z" class="g1_456" />
<g clip-path="url(#c12_456)">
<path fill-rule="evenodd" d="M310,851l46,0l0,-24l-46,0l0,24Z" class="g1_456" />
</g>
<path fill-rule="evenodd" d="M365,852l522,0l0,-25l-522,0l0,25Z" class="g1_456" />
<g clip-path="url(#c13_456)">
<path fill-rule="evenodd" d="M372,851l508,0l0,-24l-508,0l0,24Z" class="g1_456" />
</g>
<path d="M46.5,827.5l0,-1" class="g2_456" />
<path d="M88.5,827.5l0,-1" class="g2_456" />
<path d="M89.5,827.5l212,0" class="g2_456" />
<path d="M301.5,827.5l0,-1" class="g2_456" />
<path d="M303.5,827.5l60,0" class="g2_456" />
<path d="M363.5,827.5l0,-1" class="g2_456" />
<path d="M365.5,827.5l522,0" class="g2_456" />
<path d="M887.5,827.5l0,-1" class="g2_456" />
<path d="M46.5,852.5l0,-25" class="g2_456" />
<path d="M88.5,852.5l0,-25" class="g2_456" />
<path d="M301.5,852.5l0,-25" class="g2_456" />
<path d="M363.5,852.5l0,-25" class="g2_456" />
<path d="M887.5,852.5l0,-25" class="g2_456" />
<path fill-rule="evenodd" d="M89,976l41,0l0,-123l-41,0l0,123Z" class="g1_456" />
<g clip-path="url(#c14_456)">
<path fill-rule="evenodd" d="M97,976l24,0l0,-123l-24,0l0,123Z" class="g1_456" />
</g>
<path fill-rule="evenodd" d="M131,877l170,0l0,-24l-170,0l0,24Z" class="g1_456" />
<g clip-path="url(#c15_456)">
<path fill-rule="evenodd" d="M139,877l155,0l0,-24l-155,0l0,24Z" class="g1_456" />
</g>
<path fill-rule="evenodd" d="M303,877l60,0l0,-24l-60,0l0,24Z" class="g1_456" />
<g clip-path="url(#c16_456)">
<path fill-rule="evenodd" d="M310,877l46,0l0,-24l-46,0l0,24Z" class="g1_456" />
</g>
<path fill-rule="evenodd" d="M365,877l522,0l0,-24l-522,0l0,24Z" class="g1_456" />
<g clip-path="url(#c17_456)">
<path fill-rule="evenodd" d="M372,877l508,0l0,-24l-508,0l0,24Z" class="g1_456" />
</g>
<path d="M46.5,853.5l0,-1" class="g2_456" />
<path d="M88.5,853.5l0,-1" class="g2_456" />
<path d="M89.5,853.5l41,0" class="g2_456" />
<path d="M130.5,853.5l0,-1" class="g2_456" />
<path d="M131.5,853.5l170,0" class="g2_456" />
<path d="M301.5,853.5l0,-1" class="g2_456" />
<path d="M303.5,853.5l60,0" class="g2_456" />
<path d="M363.5,853.5l0,-1" class="g2_456" />
<path d="M365.5,853.5l522,0" class="g2_456" />
<path d="M887.5,853.5l0,-1" class="g2_456" />
<path d="M46.5,877.5l0,-24" class="g2_456" />
<path d="M88.5,877.5l0,-24" class="g2_456" />
<path d="M130.5,877.5l0,-24" class="g2_456" />
<path d="M301.5,877.5l0,-24" class="g2_456" />
<path d="M363.5,877.5l0,-24" class="g2_456" />
<path d="M887.5,877.5l0,-24" class="g2_456" />
<path fill-rule="evenodd" d="M131,902l170,0l0,-23l-170,0l0,23Z" class="g1_456" />
<g clip-path="url(#c18_456)">
<path fill-rule="evenodd" d="M139,902l155,0l0,-23l-155,0l0,23Z" class="g1_456" />
</g>
<path fill-rule="evenodd" d="M303,902l60,0l0,-23l-60,0l0,23Z" class="g1_456" />
<g clip-path="url(#c19_456)">
<path fill-rule="evenodd" d="M310,902l46,0l0,-23l-46,0l0,23Z" class="g1_456" />
</g>
<path fill-rule="evenodd" d="M365,902l522,0l0,-23l-522,0l0,23Z" class="g1_456" />
<g clip-path="url(#c20_456)">
<path fill-rule="evenodd" d="M372,902l508,0l0,-23l-508,0l0,23Z" class="g1_456" />
</g>
<path d="M46.5,879.5l0,-2" class="g2_456" />
<path d="M88.5,879.5l0,-2" class="g2_456" />
<path d="M130.5,879.5l0,-2" class="g2_456" />
<path d="M131.5,879.5l170,0" class="g2_456" />
<path d="M301.5,879.5l0,-2" class="g2_456" />
<path d="M303.5,879.5l60,0" class="g2_456" />
<path d="M363.5,879.5l0,-2" class="g2_456" />
<path d="M365.5,879.5l522,0" class="g2_456" />
<path d="M887.5,879.5l0,-2" class="g2_456" />
<path d="M46.5,902.5l0,-23" class="g2_456" />
<path d="M88.5,902.5l0,-23" class="g2_456" />
<path d="M130.5,902.5l0,-23" class="g2_456" />
<path d="M301.5,902.5l0,-23" class="g2_456" />
<path d="M363.5,902.5l0,-23" class="g2_456" />
<path d="M887.5,902.5l0,-23" class="g2_456" />
<path fill-rule="evenodd" d="M131,976l170,0l0,-72l-170,0l0,72Z" class="g1_456" />
<path fill-rule="evenodd" d="M139,928l155,0l0,-24l-155,0l0,24Z" class="g1_456" />
<path fill-rule="evenodd" d="M303,976l60,0l0,-72l-60,0l0,72Z" class="g1_456" />
<path fill-rule="evenodd" d="M310,928l46,0l0,-24l-46,0l0,24Z" class="g1_456" />
<path fill-rule="evenodd" d="M365,976l522,0l0,-72l-522,0l0,72Z" class="g1_456" />
<path fill-rule="evenodd" d="M372,928l508,0l0,-24l-508,0l0,24Z" class="g1_456" />
<path fill-rule="evenodd" d="M372,952l508,0l0,-24l-508,0l0,24Z" class="g1_456" />
<g clip-path="url(#c21_456)">
<path fill-rule="evenodd" d="M372,976l508,0l0,-24l-508,0l0,24Z" class="g1_456" />
</g>
<path d="M46.5,904.5l0,-2" class="g2_456" />
<path d="M88.5,904.5l0,-2" class="g2_456" />
<path d="M130.5,904.5l0,-2" class="g2_456" />
<path d="M131.5,904.5l170,0" class="g2_456" />
<path d="M301.5,904.5l0,-2" class="g2_456" />
<path d="M303.5,904.5l60,0" class="g2_456" />
<path d="M363.5,904.5l0,-2" class="g2_456" />
<path d="M365.5,904.5l522,0" class="g2_456" />
<path d="M887.5,904.5l0,-2" class="g2_456" />
<path d="M46.5,976.5l0,-72" class="g2_456" />
<path d="M46.5,977.5l0,-1" class="g2_456" />
<path d="M46.5,977.5l0,-1" class="g2_456" />
<path d="M47.5,977.5l41,0" class="g2_456" />
<path d="M88.5,976.5l0,-72" class="g2_456" />
<path d="M88.5,977.5l0,-1" class="g2_456" />
<path d="M89.5,977.5l41,0" class="g2_456" />
<path d="M130.5,976.5l0,-72" class="g2_456" />
<path d="M130.5,977.5l0,-1" class="g2_456" />
<path d="M131.5,977.5l170,0" class="g2_456" />
<path d="M301.5,976.5l0,-72" class="g2_456" />
<path d="M301.5,977.5l0,-1" class="g2_456" />
<path d="M303.5,977.5l60,0" class="g2_456" />
<path d="M363.5,976.5l0,-72" class="g2_456" />
<path d="M363.5,977.5l0,-1" class="g2_456" />
<path d="M365.5,977.5l522,0" class="g2_456" />
<path d="M887.5,976.5l0,-72" class="g2_456" />
<path d="M887.5,977.5l0,-1" class="g2_456" />
<path d="M887.5,977.5l0,-1" class="g2_456" />
<path fill-rule="evenodd" d="M47,1098l840,0l0,-24l-840,0l0,24Z" class="g1_456" />
<g clip-path="url(#c22_456)">
<path fill-rule="evenodd" d="M55,1098l825,0l0,-24l-825,0l0,24Z" class="g1_456" />
</g>
<path d="M46.5,1074.5l0,-2" class="g2_456" />
<path d="M46.5,1074.5l0,-2" class="g2_456" />
<path d="M47.5,1074.5l840,0" class="g2_456" />
<path d="M887.5,1074.5l0,-2" class="g2_456" />
<path d="M887.5,1074.5l0,-2" class="g2_456" />
<path d="M46.5,1098.5l0,-24" class="g2_456" />
<path d="M46.5,1099.5l0,-1" class="g2_456" />
<path d="M46.5,1099.5l0,-1" class="g2_456" />
<path d="M47.5,1099.5l840,0" class="g2_456" />
<path d="M887.5,1098.5l0,-24" class="g2_456" />
<path d="M887.5,1099.5l0,-1" class="g2_456" />
<path d="M887.5,1099.5l0,-1" class="g2_456" />
</svg>