<?xml version="1.0" encoding="UTF-8" standalone="no"?>
<!DOCTYPE svg PUBLIC "-//W3C//DTD SVG 1.1//EN"
"http://www.w3.org/Graphics/SVG/1.1/DTD/svg11.dtd">
<svg version="1.1" xmlns="http://www.w3.org/2000/svg" xmlns:xlink="http://www.w3.org/1999/xlink">
<defs>
<clipPath id="c0_39"><path d="M47.5,159.5l0,-24l840,0l0,24Z" /></clipPath>
<clipPath id="c1_39"><path d="M47.5,448.5l0,-262l840,0l0,262Z" /></clipPath>
<clipPath id="c2_39"><path d="M47.5,832.5l0,-286l840,0l0,286Z" /></clipPath>
<clipPath id="c3_39"><path d="M47.5,1090.5l0,-55l840,0l0,55Z" /></clipPath>
<style type="text/css"><![CDATA[
.g4_39{
fill: none;
stroke: #F0F0E0;
stroke-width: 1;
stroke-linecap: butt;
stroke-linejoin: miter;
}
.g2_39{
fill: none;
stroke: #7E7E7E;
stroke-width: 1;
stroke-linecap: butt;
stroke-linejoin: miter;
}
.g3_39{
fill: none;
stroke: #0000FF;
stroke-width: 1;
stroke-linecap: butt;
stroke-linejoin: miter;
}
.g1_39{
fill: #F1F1F1;
}
]]></style>
</defs>
<path fill-rule="evenodd" d="M47,159l840,0l0,-24L47,135l0,24Z" class="g1_39" />
<g clip-path="url(#c0_39)">
<path fill-rule="evenodd" d="M55,159l825,0l0,-24L55,135l0,24Z" class="g1_39" />
</g>
<path d="M46.5,135.5l0,-2" class="g2_39" />
<path d="M46.5,135.5l0,-2" class="g2_39" />
<path d="M47.5,135.5l840,0" class="g2_39" />
<path d="M887.5,135.5l0,-2" class="g2_39" />
<path d="M887.5,135.5l0,-2" class="g2_39" />
<path d="M46.5,159.5l0,-24" class="g2_39" />
<path d="M46.5,160.5l0,-1" class="g2_39" />
<path d="M46.5,160.5l0,-1" class="g2_39" />
<path d="M47.5,160.5l840,0" class="g2_39" />
<path d="M887.5,159.5l0,-24" class="g2_39" />
<path d="M887.5,160.5l0,-1" class="g2_39" />
<path d="M887.5,160.5l0,-1" class="g2_39" />
<path fill-rule="evenodd" d="M47,448l840,0l0,-262L47,186l0,262Z" class="g1_39" />
<g clip-path="url(#c1_39)">
<path fill-rule="evenodd" d="M55,209l825,0l0,-23L55,186l0,23Z" class="g1_39" />
</g>
<path fill-rule="evenodd" d="M55,233l825,0l0,-24L55,209l0,24Z" class="g1_39" />
<path fill-rule="evenodd" d="M55,257l825,0l0,-24L55,233l0,24Z" class="g1_39" />
<path fill-rule="evenodd" d="M55,281l825,0l0,-24L55,257l0,24Z" class="g1_39" />
<path fill-rule="evenodd" d="M55,305l825,0l0,-24L55,281l0,24Z" class="g1_39" />
<path fill-rule="evenodd" d="M55,329l825,0l0,-24L55,305l0,24Z" class="g1_39" />
<path fill-rule="evenodd" d="M55,352l825,0l0,-23L55,329l0,23Z" class="g1_39" />
<path fill-rule="evenodd" d="M55,376l825,0l0,-24L55,352l0,24Z" class="g1_39" />
<path fill-rule="evenodd" d="M55,400l825,0l0,-24L55,376l0,24Z" class="g1_39" />
<path fill-rule="evenodd" d="M55,424l825,0l0,-24L55,400l0,24Z" class="g1_39" />
<path fill-rule="evenodd" d="M55,448l825,0l0,-24L55,424l0,24Z" class="g1_39" />
<path d="M46.5,186.5l0,-2" class="g2_39" />
<path d="M46.5,186.5l0,-2" class="g2_39" />
<path d="M47.5,186.5l840,0" class="g2_39" />
<path d="M887.5,186.5l0,-2" class="g2_39" />
<path d="M887.5,186.5l0,-2" class="g2_39" />
<path d="M46.5,448.5l0,-262" class="g2_39" />
<path d="M46.5,449.5l0,-1" class="g2_39" />
<path d="M46.5,449.5l0,-1" class="g2_39" />
<path d="M47.5,449.5l840,0" class="g2_39" />
<path d="M887.5,448.5l0,-262" class="g2_39" />
<path d="M887.5,449.5l0,-1" class="g2_39" />
<path d="M887.5,449.5l0,-1" class="g2_39" />
<path fill-rule="evenodd" d="M47,832l840,0l0,-286L47,546l0,286Z" class="g1_39" />
<g clip-path="url(#c2_39)">
<path fill-rule="evenodd" d="M55,570l825,0l0,-24L55,546l0,24Z" class="g1_39" />
</g>
<path fill-rule="evenodd" d="M55,594l825,0l0,-24L55,570l0,24Z" class="g1_39" />
<path fill-rule="evenodd" d="M55,618l825,0l0,-24L55,594l0,24Z" class="g1_39" />
<path fill-rule="evenodd" d="M55,642l825,0l0,-24L55,618l0,24Z" class="g1_39" />
<path fill-rule="evenodd" d="M55,665l825,0l0,-23L55,642l0,23Z" class="g1_39" />
<path fill-rule="evenodd" d="M55,689l825,0l0,-24L55,665l0,24Z" class="g1_39" />
<path fill-rule="evenodd" d="M55,713l825,0l0,-24L55,689l0,24Z" class="g1_39" />
<path fill-rule="evenodd" d="M55,737l825,0l0,-24L55,713l0,24Z" class="g1_39" />
<path fill-rule="evenodd" d="M55,761l825,0l0,-24L55,737l0,24Z" class="g1_39" />
<path fill-rule="evenodd" d="M55,785l825,0l0,-24L55,761l0,24Z" class="g1_39" />
<path fill-rule="evenodd" d="M55,808l825,0l0,-23L55,785l0,23Z" class="g1_39" />
<path fill-rule="evenodd" d="M55,832l825,0l0,-24L55,808l0,24Z" class="g1_39" />
<path d="M46.5,546.5l0,-1" class="g2_39" />
<path d="M46.5,546.5l0,-1" class="g2_39" />
<path d="M47.5,546.5l840,0" class="g2_39" />
<path d="M887.5,546.5l0,-1" class="g2_39" />
<path d="M887.5,546.5l0,-1" class="g2_39" />
<path d="M46.5,832.5l0,-286" class="g2_39" />
<path d="M46.5,834.5l0,-2" class="g2_39" />
<path d="M46.5,834.5l0,-2" class="g2_39" />
<path d="M47.5,834.5l840,0" class="g2_39" />
<path d="M887.5,832.5l0,-286" class="g2_39" />
<path d="M887.5,834.5l0,-2" class="g2_39" />
<path d="M887.5,834.5l0,-2" class="g2_39" />
<path d="M371.5,958.5l163,0" class="g3_39" />
<path fill-rule="evenodd" d="M47,1090l840,0l0,-55l-840,0l0,55Z" class="g1_39" />
<path fill-rule="evenodd" d="M55,1066l825,0l0,-31l-825,0l0,31Z" class="g1_39" />
<g clip-path="url(#c3_39)">
<path d="M45.5,1036.5l0,-1" class="g4_39" />
<path d="M45.5,1036.5l0,-1" class="g4_39" />
<path d="M46.5,1036.5l842,0" class="g4_39" />
<path d="M888.5,1036.5l0,-1" class="g4_39" />
<path d="M888.5,1036.5l0,-1" class="g4_39" />
<path d="M45.5,1066.5l0,-30" class="g4_39" />
<path d="M888.5,1066.5l0,-30" class="g4_39" />
<path fill-rule="evenodd" d="M55,1090l825,0l0,-24l-825,0l0,24Z" class="g1_39" />
<path d="M45.5,1090.5l0,-24" class="g4_39" />
<path d="M888.5,1090.5l0,-24" class="g4_39" />
</g>
<path d="M46.5,1035.5l0,-1" class="g2_39" />
<path d="M46.5,1035.5l0,-1" class="g2_39" />
<path d="M47.5,1035.5l840,0" class="g2_39" />
<path d="M887.5,1035.5l0,-1" class="g2_39" />
<path d="M887.5,1035.5l0,-1" class="g2_39" />
<path d="M46.5,1090.5l0,-55" class="g2_39" />
<path d="M46.5,1092.5l0,-2" class="g2_39" />
<path d="M46.5,1092.5l0,-2" class="g2_39" />
<path d="M47.5,1092.5l840,0" class="g2_39" />
<path d="M887.5,1090.5l0,-55" class="g2_39" />
<path d="M887.5,1092.5l0,-2" class="g2_39" />
<path d="M887.5,1092.5l0,-2" class="g2_39" />
</svg>