<?xml version="1.0" encoding="UTF-8" standalone="no"?>
<!DOCTYPE svg PUBLIC "-//W3C//DTD SVG 1.1//EN"
"http://www.w3.org/Graphics/SVG/1.1/DTD/svg11.dtd">
<svg version="1.1" xmlns="http://www.w3.org/2000/svg" xmlns:xlink="http://www.w3.org/1999/xlink">
<defs>
<clipPath id="c0_354"><path d="M47.5,688.5l0,-529l840,0l0,529Z" /></clipPath>
<clipPath id="c1_354"><path d="M47.5,848.5l0,-48l237,0l0,48Z" /></clipPath>
<clipPath id="c2_354"><path d="M286.5,848.5l0,-48l61,0l0,48Z" /></clipPath>
<clipPath id="c3_354"><path d="M349.5,848.5l0,-48l76,0l0,48Z" /></clipPath>
<clipPath id="c4_354"><path d="M427.5,848.5l0,-48l460,0l0,48Z" /></clipPath>
<clipPath id="c5_354"><path d="M47.5,1046.5l0,-197l27,0l0,197Z" /></clipPath>
<clipPath id="c6_354"><path d="M76.5,873.5l0,-24l208,0l0,24Z" /></clipPath>
<clipPath id="c7_354"><path d="M286.5,873.5l0,-24l61,0l0,24Z" /></clipPath>
<clipPath id="c8_354"><path d="M349.5,873.5l0,-24l76,0l0,24Z" /></clipPath>
<clipPath id="c9_354"><path d="M427.5,873.5l0,-24l460,0l0,24Z" /></clipPath>
<clipPath id="c10_354"><path d="M76.5,898.5l0,-24l208,0l0,24Z" /></clipPath>
<clipPath id="c11_354"><path d="M286.5,898.5l0,-24l61,0l0,24Z" /></clipPath>
<clipPath id="c12_354"><path d="M349.5,898.5l0,-24l76,0l0,24Z" /></clipPath>
<clipPath id="c13_354"><path d="M427.5,898.5l0,-24l460,0l0,24Z" /></clipPath>
<clipPath id="c14_354"><path d="M76.5,1046.5l0,-146l33,0l0,146Z" /></clipPath>
<clipPath id="c15_354"><path d="M110.5,1046.5l0,-146l54,0l0,146Z" /></clipPath>
<clipPath id="c16_354"><path d="M165.5,948.5l0,-48l119,0l0,48Z" /></clipPath>
<clipPath id="c17_354"><path d="M286.5,948.5l0,-48l61,0l0,48Z" /></clipPath>
<clipPath id="c18_354"><path d="M349.5,948.5l0,-48l76,0l0,48Z" /></clipPath>
<clipPath id="c19_354"><path d="M427.5,948.5l0,-48l460,0l0,48Z" /></clipPath>
<clipPath id="c20_354"><path d="M427.5,997.5l0,-48l460,0l0,48Z" /></clipPath>
<clipPath id="c21_354"><path d="M427.5,1046.5l0,-47l460,0l0,47Z" /></clipPath>
<style type="text/css"><![CDATA[
.g2_354{
fill: none;
stroke: #F0F0E0;
stroke-width: 1;
stroke-linecap: butt;
stroke-linejoin: miter;
}
.g3_354{
fill: none;
stroke: #7E7E7E;
stroke-width: 1;
stroke-linecap: butt;
stroke-linejoin: miter;
}
.g4_354{
fill: #DBE5F1;
}
.g1_354{
fill: #F1F1F1;
}
]]></style>
</defs>
<path fill-rule="evenodd" d="M47,688l840,0l0,-529L47,159l0,529Z" class="g1_354" />
<g clip-path="url(#c0_354)">
<path fill-rule="evenodd" d="M55,182l825,0l0,-23L55,159l0,23Z" class="g1_354" />
</g>
<path fill-rule="evenodd" d="M55,206l825,0l0,-24L55,182l0,24Z" class="g1_354" />
<path fill-rule="evenodd" d="M55,230l825,0l0,-24L55,206l0,24Z" class="g1_354" />
<path fill-rule="evenodd" d="M55,254l825,0l0,-24L55,230l0,24Z" class="g1_354" />
<path fill-rule="evenodd" d="M55,278l825,0l0,-24L55,254l0,24Z" class="g1_354" />
<path fill-rule="evenodd" d="M55,309l825,0l0,-31L55,278l0,31Z" class="g1_354" />
<g clip-path="url(#c0_354)">
<path d="M45.5,279.5l0,-1" class="g2_354" />
<path d="M45.5,279.5l0,-1" class="g2_354" />
<path d="M46.5,279.5l842,0" class="g2_354" />
<path d="M888.5,279.5l0,-1" class="g2_354" />
<path d="M888.5,279.5l0,-1" class="g2_354" />
<path d="M45.5,309.5l0,-30" class="g2_354" />
<path d="M888.5,309.5l0,-30" class="g2_354" />
</g>
<path fill-rule="evenodd" d="M55,333l825,0l0,-24L55,309l0,24Z" class="g1_354" />
<g clip-path="url(#c0_354)">
<path d="M45.5,333.5l0,-24" class="g2_354" />
<path d="M888.5,333.5l0,-24" class="g2_354" />
</g>
<path fill-rule="evenodd" d="M55,357l825,0l0,-24L55,333l0,24Z" class="g1_354" />
<g clip-path="url(#c0_354)">
<path d="M45.5,357.5l0,-24" class="g2_354" />
<path d="M888.5,357.5l0,-24" class="g2_354" />
</g>
<path fill-rule="evenodd" d="M55,380l825,0l0,-23L55,357l0,23Z" class="g1_354" />
<g clip-path="url(#c0_354)">
<path d="M45.5,380.5l0,-23" class="g2_354" />
<path d="M888.5,380.5l0,-23" class="g2_354" />
</g>
<path fill-rule="evenodd" d="M55,404l825,0l0,-23L55,381l0,23Z" class="g1_354" />
<g clip-path="url(#c0_354)">
<path d="M45.5,404.5l0,-23" class="g2_354" />
<path d="M888.5,404.5l0,-23" class="g2_354" />
</g>
<path fill-rule="evenodd" d="M55,428l825,0l0,-24L55,404l0,24Z" class="g1_354" />
<g clip-path="url(#c0_354)">
<path d="M45.5,428.5l0,-24" class="g2_354" />
<path d="M888.5,428.5l0,-24" class="g2_354" />
</g>
<path fill-rule="evenodd" d="M55,452l825,0l0,-24L55,428l0,24Z" class="g1_354" />
<g clip-path="url(#c0_354)">
<path d="M45.5,452.5l0,-24" class="g2_354" />
<path d="M888.5,452.5l0,-24" class="g2_354" />
</g>
<path fill-rule="evenodd" d="M55,476l825,0l0,-24L55,452l0,24Z" class="g1_354" />
<g clip-path="url(#c0_354)">
<path d="M45.5,476.5l0,-24" class="g2_354" />
<path d="M888.5,476.5l0,-24" class="g2_354" />
</g>
<path fill-rule="evenodd" d="M55,500l825,0l0,-24L55,476l0,24Z" class="g1_354" />
<g clip-path="url(#c0_354)">
<path d="M45.5,500.5l0,-24" class="g2_354" />
<path d="M888.5,500.5l0,-24" class="g2_354" />
</g>
<path fill-rule="evenodd" d="M55,524l825,0l0,-24L55,500l0,24Z" class="g1_354" />
<g clip-path="url(#c0_354)">
<path d="M45.5,524.5l0,-24" class="g2_354" />
<path d="M888.5,524.5l0,-24" class="g2_354" />
</g>
<path fill-rule="evenodd" d="M55,547l825,0l0,-23L55,524l0,23Z" class="g1_354" />
<g clip-path="url(#c0_354)">
<path d="M45.5,547.5l0,-23" class="g2_354" />
<path d="M888.5,547.5l0,-23" class="g2_354" />
</g>
<path fill-rule="evenodd" d="M55,578l825,0l0,-31L55,547l0,31Z" class="g1_354" />
<g clip-path="url(#c0_354)">
<path d="M45.5,578.5l0,-1" class="g2_354" />
<path d="M45.5,578.5l0,-1" class="g2_354" />
<path d="M46.5,578.5l842,0" class="g2_354" />
<path d="M888.5,578.5l0,-1" class="g2_354" />
<path d="M888.5,578.5l0,-1" class="g2_354" />
<path d="M45.5,577.5l0,-30" class="g2_354" />
<path d="M888.5,577.5l0,-30" class="g2_354" />
</g>
<path fill-rule="evenodd" d="M55,602l825,0l0,-24L55,578l0,24Z" class="g1_354" />
<path fill-rule="evenodd" d="M55,633l825,0l0,-31L55,602l0,31Z" class="g1_354" />
<g clip-path="url(#c0_354)">
<path d="M45.5,603.5l0,-1" class="g2_354" />
<path d="M45.5,603.5l0,-1" class="g2_354" />
<path d="M46.5,603.5l842,0" class="g2_354" />
<path d="M888.5,603.5l0,-1" class="g2_354" />
<path d="M888.5,603.5l0,-1" class="g2_354" />
<path d="M45.5,633.5l0,-30" class="g2_354" />
<path d="M888.5,633.5l0,-30" class="g2_354" />
</g>
<path fill-rule="evenodd" d="M55,665l825,0l0,-32L55,633l0,32Z" class="g1_354" />
<g clip-path="url(#c0_354)">
<path d="M45.5,665.5l0,-2" class="g2_354" />
<path d="M45.5,665.5l0,-2" class="g2_354" />
<path d="M46.5,665.5l842,0" class="g2_354" />
<path d="M888.5,665.5l0,-2" class="g2_354" />
<path d="M888.5,665.5l0,-2" class="g2_354" />
<path d="M45.5,663.5l0,-30" class="g2_354" />
<path d="M888.5,663.5l0,-30" class="g2_354" />
</g>
<path fill-rule="evenodd" d="M55,688l825,0l0,-23L55,665l0,23Z" class="g1_354" />
<path d="M46.5,159.5l0,-2" class="g3_354" />
<path d="M46.5,159.5l0,-2" class="g3_354" />
<path d="M47.5,159.5l840,0" class="g3_354" />
<path d="M887.5,159.5l0,-2" class="g3_354" />
<path d="M887.5,159.5l0,-2" class="g3_354" />
<path d="M46.5,688.5l0,-529" class="g3_354" />
<path d="M46.5,690.5l0,-2" class="g3_354" />
<path d="M46.5,690.5l0,-2" class="g3_354" />
<path d="M47.5,690.5l840,0" class="g3_354" />
<path d="M887.5,688.5l0,-529" class="g3_354" />
<path d="M887.5,690.5l0,-2" class="g3_354" />
<path d="M887.5,690.5l0,-2" class="g3_354" />
<path fill-rule="evenodd" d="M47,848l237,0l0,-48L47,800l0,48Z" class="g4_354" />
<g clip-path="url(#c1_354)">
<path fill-rule="evenodd" d="M55,824l222,0l0,-24L55,800l0,24Z" class="g4_354" />
</g>
<path fill-rule="evenodd" d="M286,848l61,0l0,-48l-61,0l0,48Z" class="g4_354" />
<g clip-path="url(#c2_354)">
<path fill-rule="evenodd" d="M293,824l47,0l0,-24l-47,0l0,24Z" class="g4_354" />
</g>
<path fill-rule="evenodd" d="M293,848l47,0l0,-24l-47,0l0,24Z" class="g4_354" />
<path fill-rule="evenodd" d="M349,848l76,0l0,-48l-76,0l0,48Z" class="g4_354" />
<g clip-path="url(#c3_354)">
<path fill-rule="evenodd" d="M357,824l61,0l0,-24l-61,0l0,24Z" class="g4_354" />
</g>
<path fill-rule="evenodd" d="M427,848l460,0l0,-48l-460,0l0,48Z" class="g4_354" />
<g clip-path="url(#c4_354)">
<path fill-rule="evenodd" d="M434,824l446,0l0,-24l-446,0l0,24Z" class="g4_354" />
</g>
<path d="M46.5,800.5l0,-2" class="g3_354" />
<path d="M46.5,800.5l0,-2" class="g3_354" />
<path d="M47.5,800.5l237,0" class="g3_354" />
<path d="M284.5,800.5l0,-2" class="g3_354" />
<path d="M286.5,800.5l62,0" class="g3_354" />
<path d="M348.5,800.5l0,-2" class="g3_354" />
<path d="M349.5,800.5l76,0" class="g3_354" />
<path d="M425.5,800.5l0,-2" class="g3_354" />
<path d="M427.5,800.5l460,0" class="g3_354" />
<path d="M887.5,800.5l0,-2" class="g3_354" />
<path d="M887.5,800.5l0,-2" class="g3_354" />
<path d="M46.5,848.5l0,-48" class="g3_354" />
<path d="M284.5,848.5l0,-48" class="g3_354" />
<path d="M348.5,848.5l0,-48" class="g3_354" />
<path d="M425.5,848.5l0,-48" class="g3_354" />
<path d="M887.5,848.5l0,-48" class="g3_354" />
<path fill-rule="evenodd" d="M47,1046l27,0L74,849l-27,0l0,197Z" class="g1_354" />
<g clip-path="url(#c5_354)">
<path fill-rule="evenodd" d="M55,1046l19,0L74,849l-19,0l0,197Z" class="g1_354" />
</g>
<path fill-rule="evenodd" d="M76,873l208,0l0,-24L76,849l0,24Z" class="g1_354" />
<g clip-path="url(#c6_354)">
<path fill-rule="evenodd" d="M83,873l194,0l0,-24L83,849l0,24Z" class="g1_354" />
</g>
<path fill-rule="evenodd" d="M286,873l61,0l0,-24l-61,0l0,24Z" class="g1_354" />
<g clip-path="url(#c7_354)">
<path fill-rule="evenodd" d="M293,873l47,0l0,-24l-47,0l0,24Z" class="g1_354" />
</g>
<path fill-rule="evenodd" d="M349,873l76,0l0,-24l-76,0l0,24Z" class="g1_354" />
<g clip-path="url(#c8_354)">
<path fill-rule="evenodd" d="M357,873l61,0l0,-24l-61,0l0,24Z" class="g1_354" />
</g>
<path fill-rule="evenodd" d="M427,873l460,0l0,-24l-460,0l0,24Z" class="g1_354" />
<g clip-path="url(#c9_354)">
<path fill-rule="evenodd" d="M434,873l446,0l0,-24l-446,0l0,24Z" class="g1_354" />
</g>
<path d="M46.5,849.5l0,-1" class="g3_354" />
<path d="M47.5,849.5l27,0" class="g3_354" />
<path d="M74.5,849.5l0,-1" class="g3_354" />
<path d="M76.5,849.5l208,0" class="g3_354" />
<path d="M284.5,849.5l0,-1" class="g3_354" />
<path d="M286.5,849.5l62,0" class="g3_354" />
<path d="M348.5,849.5l0,-1" class="g3_354" />
<path d="M349.5,849.5l76,0" class="g3_354" />
<path d="M425.5,849.5l0,-1" class="g3_354" />
<path d="M427.5,849.5l460,0" class="g3_354" />
<path d="M887.5,849.5l0,-1" class="g3_354" />
<path d="M46.5,873.5l0,-24" class="g3_354" />
<path d="M74.5,873.5l0,-24" class="g3_354" />
<path d="M284.5,873.5l0,-24" class="g3_354" />
<path d="M348.5,873.5l0,-24" class="g3_354" />
<path d="M425.5,873.5l0,-24" class="g3_354" />
<path d="M887.5,873.5l0,-24" class="g3_354" />
<path fill-rule="evenodd" d="M76,898l208,0l0,-24L76,874l0,24Z" class="g1_354" />
<g clip-path="url(#c10_354)">
<path fill-rule="evenodd" d="M83,898l194,0l0,-24L83,874l0,24Z" class="g1_354" />
</g>
<path fill-rule="evenodd" d="M286,898l61,0l0,-24l-61,0l0,24Z" class="g1_354" />
<g clip-path="url(#c11_354)">
<path fill-rule="evenodd" d="M293,898l47,0l0,-24l-47,0l0,24Z" class="g1_354" />
</g>
<path fill-rule="evenodd" d="M349,898l76,0l0,-24l-76,0l0,24Z" class="g1_354" />
<g clip-path="url(#c12_354)">
<path fill-rule="evenodd" d="M357,898l61,0l0,-24l-61,0l0,24Z" class="g1_354" />
</g>
<path fill-rule="evenodd" d="M427,898l460,0l0,-24l-460,0l0,24Z" class="g1_354" />
<g clip-path="url(#c13_354)">
<path fill-rule="evenodd" d="M434,898l446,0l0,-24l-446,0l0,24Z" class="g1_354" />
</g>
<path d="M46.5,874.5l0,-1" class="g3_354" />
<path d="M74.5,874.5l0,-1" class="g3_354" />
<path d="M76.5,874.5l208,0" class="g3_354" />
<path d="M284.5,874.5l0,-1" class="g3_354" />
<path d="M286.5,874.5l62,0" class="g3_354" />
<path d="M348.5,874.5l0,-1" class="g3_354" />
<path d="M349.5,874.5l76,0" class="g3_354" />
<path d="M425.5,874.5l0,-1" class="g3_354" />
<path d="M427.5,874.5l460,0" class="g3_354" />
<path d="M887.5,874.5l0,-1" class="g3_354" />
<path d="M46.5,898.5l0,-24" class="g3_354" />
<path d="M74.5,898.5l0,-24" class="g3_354" />
<path d="M284.5,898.5l0,-24" class="g3_354" />
<path d="M348.5,898.5l0,-24" class="g3_354" />
<path d="M425.5,898.5l0,-24" class="g3_354" />
<path d="M887.5,898.5l0,-24" class="g3_354" />
<path fill-rule="evenodd" d="M76,1046l33,0l0,-146l-33,0l0,146Z" class="g1_354" />
<g clip-path="url(#c14_354)">
<path fill-rule="evenodd" d="M83,1046l24,0l0,-146l-24,0l0,146Z" class="g1_354" />
</g>
<path fill-rule="evenodd" d="M110,1046l54,0l0,-146l-54,0l0,146Z" class="g1_354" />
<g clip-path="url(#c15_354)">
<path fill-rule="evenodd" d="M118,1046l23,0l0,-146l-23,0l0,146Z" class="g1_354" />
<path fill-rule="evenodd" d="M141,1046l23,0l0,-146l-23,0l0,146Z" class="g1_354" />
</g>
<path fill-rule="evenodd" d="M165,948l119,0l0,-48l-119,0l0,48Z" class="g1_354" />
<g clip-path="url(#c16_354)">
<path fill-rule="evenodd" d="M173,924l104,0l0,-24l-104,0l0,24Z" class="g1_354" />
</g>
<path fill-rule="evenodd" d="M286,948l61,0l0,-48l-61,0l0,48Z" class="g1_354" />
<g clip-path="url(#c17_354)">
<path fill-rule="evenodd" d="M293,924l47,0l0,-24l-47,0l0,24Z" class="g1_354" />
</g>
<path fill-rule="evenodd" d="M349,948l76,0l0,-48l-76,0l0,48Z" class="g1_354" />
<g clip-path="url(#c18_354)">
<path fill-rule="evenodd" d="M357,924l61,0l0,-24l-61,0l0,24Z" class="g1_354" />
</g>
<path fill-rule="evenodd" d="M427,948l460,0l0,-48l-460,0l0,48Z" class="g1_354" />
<g clip-path="url(#c19_354)">
<path fill-rule="evenodd" d="M434,924l446,0l0,-24l-446,0l0,24Z" class="g1_354" />
</g>
<path d="M46.5,900.5l0,-2" class="g3_354" />
<path d="M74.5,900.5l0,-2" class="g3_354" />
<path d="M76.5,900.5l33,0" class="g3_354" />
<path d="M109.5,900.5l0,-2" class="g3_354" />
<path d="M110.5,900.5l54,0" class="g3_354" />
<path d="M164.5,900.5l0,-2" class="g3_354" />
<path d="M165.5,900.5l119,0" class="g3_354" />
<path d="M284.5,900.5l0,-2" class="g3_354" />
<path d="M286.5,900.5l62,0" class="g3_354" />
<path d="M348.5,900.5l0,-2" class="g3_354" />
<path d="M349.5,900.5l76,0" class="g3_354" />
<path d="M425.5,900.5l0,-2" class="g3_354" />
<path d="M427.5,900.5l460,0" class="g3_354" />
<path d="M887.5,900.5l0,-2" class="g3_354" />
<path d="M46.5,948.5l0,-48" class="g3_354" />
<path d="M74.5,948.5l0,-48" class="g3_354" />
<path d="M109.5,948.5l0,-48" class="g3_354" />
<path d="M164.5,948.5l0,-48" class="g3_354" />
<path d="M284.5,948.5l0,-48" class="g3_354" />
<path d="M348.5,948.5l0,-48" class="g3_354" />
<path d="M425.5,948.5l0,-48" class="g3_354" />
<path d="M887.5,948.5l0,-48" class="g3_354" />
<path fill-rule="evenodd" d="M165,997l119,0l0,-47l-119,0l0,47Z" class="g1_354" />
<path fill-rule="evenodd" d="M173,973l104,0l0,-23l-104,0l0,23Z" class="g1_354" />
<path fill-rule="evenodd" d="M286,997l61,0l0,-47l-61,0l0,47Z" class="g1_354" />
<path fill-rule="evenodd" d="M293,973l47,0l0,-23l-47,0l0,23Z" class="g1_354" />
<path fill-rule="evenodd" d="M349,997l76,0l0,-47l-76,0l0,47Z" class="g1_354" />
<path fill-rule="evenodd" d="M357,973l61,0l0,-23l-61,0l0,23Z" class="g1_354" />
<path fill-rule="evenodd" d="M427,997l460,0l0,-47l-460,0l0,47Z" class="g1_354" />
<path fill-rule="evenodd" d="M434,973l446,0l0,-23l-446,0l0,23Z" class="g1_354" />
<g clip-path="url(#c20_354)">
<path fill-rule="evenodd" d="M434,997l446,0l0,-24l-446,0l0,24Z" class="g1_354" />
</g>
<path d="M46.5,949.5l0,-1" class="g3_354" />
<path d="M74.5,949.5l0,-1" class="g3_354" />
<path d="M109.5,949.5l0,-1" class="g3_354" />
<path d="M164.5,949.5l0,-1" class="g3_354" />
<path d="M165.5,949.5l119,0" class="g3_354" />
<path d="M284.5,949.5l0,-1" class="g3_354" />
<path d="M286.5,949.5l62,0" class="g3_354" />
<path d="M348.5,949.5l0,-1" class="g3_354" />
<path d="M349.5,949.5l76,0" class="g3_354" />
<path d="M425.5,949.5l0,-1" class="g3_354" />
<path d="M427.5,949.5l460,0" class="g3_354" />
<path d="M887.5,949.5l0,-1" class="g3_354" />
<path d="M46.5,997.5l0,-48" class="g3_354" />
<path d="M74.5,997.5l0,-48" class="g3_354" />
<path d="M109.5,997.5l0,-48" class="g3_354" />
<path d="M164.5,997.5l0,-48" class="g3_354" />
<path d="M284.5,997.5l0,-48" class="g3_354" />
<path d="M348.5,997.5l0,-48" class="g3_354" />
<path d="M425.5,997.5l0,-48" class="g3_354" />
<path d="M887.5,997.5l0,-48" class="g3_354" />
<path fill-rule="evenodd" d="M165,1046l119,0l0,-47l-119,0l0,47Z" class="g1_354" />
<path fill-rule="evenodd" d="M173,1022l104,0l0,-23l-104,0l0,23Z" class="g1_354" />
<path fill-rule="evenodd" d="M286,1046l61,0l0,-47l-61,0l0,47Z" class="g1_354" />
<path fill-rule="evenodd" d="M293,1022l47,0l0,-23l-47,0l0,23Z" class="g1_354" />
<path fill-rule="evenodd" d="M349,1046l76,0l0,-47l-76,0l0,47Z" class="g1_354" />
<path fill-rule="evenodd" d="M357,1022l61,0l0,-23l-61,0l0,23Z" class="g1_354" />
<path fill-rule="evenodd" d="M427,1046l460,0l0,-47l-460,0l0,47Z" class="g1_354" />
<path fill-rule="evenodd" d="M434,1022l446,0l0,-23l-446,0l0,23Z" class="g1_354" />
<g clip-path="url(#c21_354)">
<path fill-rule="evenodd" d="M434,1046l446,0l0,-24l-446,0l0,24Z" class="g1_354" />
</g>
<path d="M46.5,999.5l0,-2" class="g3_354" />
<path d="M74.5,999.5l0,-2" class="g3_354" />
<path d="M109.5,999.5l0,-2" class="g3_354" />
<path d="M164.5,999.5l0,-2" class="g3_354" />
<path d="M165.5,999.5l119,0" class="g3_354" />
<path d="M284.5,999.5l0,-2" class="g3_354" />
<path d="M286.5,999.5l62,0" class="g3_354" />
<path d="M348.5,999.5l0,-2" class="g3_354" />
<path d="M349.5,999.5l76,0" class="g3_354" />
<path d="M425.5,999.5l0,-2" class="g3_354" />
<path d="M427.5,999.5l460,0" class="g3_354" />
<path d="M887.5,999.5l0,-2" class="g3_354" />
<path d="M46.5,1046.5l0,-47" class="g3_354" />
<path d="M46.5,1048.5l0,-2" class="g3_354" />
<path d="M46.5,1048.5l0,-2" class="g3_354" />
<path d="M47.5,1048.5l27,0" class="g3_354" />
<path d="M74.5,1046.5l0,-47" class="g3_354" />
<path d="M74.5,1048.5l0,-2" class="g3_354" />
<path d="M76.5,1048.5l33,0" class="g3_354" />
<path d="M109.5,1046.5l0,-47" class="g3_354" />
<path d="M109.5,1048.5l0,-2" class="g3_354" />
<path d="M110.5,1048.5l54,0" class="g3_354" />
<path d="M164.5,1046.5l0,-47" class="g3_354" />
<path d="M164.5,1048.5l0,-2" class="g3_354" />
<path d="M165.5,1048.5l119,0" class="g3_354" />
<path d="M284.5,1046.5l0,-47" class="g3_354" />
<path d="M284.5,1048.5l0,-2" class="g3_354" />
<path d="M286.5,1048.5l62,0" class="g3_354" />
<path d="M348.5,1046.5l0,-47" class="g3_354" />
<path d="M348.5,1048.5l0,-2" class="g3_354" />
<path d="M349.5,1048.5l76,0" class="g3_354" />
<path d="M425.5,1046.5l0,-47" class="g3_354" />
<path d="M425.5,1048.5l0,-2" class="g3_354" />
<path d="M427.5,1048.5l460,0" class="g3_354" />
<path d="M887.5,1046.5l0,-47" class="g3_354" />
<path d="M887.5,1048.5l0,-2" class="g3_354" />
<path d="M887.5,1048.5l0,-2" class="g3_354" />
</svg>