<?xml version="1.0" encoding="UTF-8" standalone="no"?>
<!DOCTYPE svg PUBLIC "-//W3C//DTD SVG 1.1//EN"
"http://www.w3.org/Graphics/SVG/1.1/DTD/svg11.dtd">
<svg version="1.1" xmlns="http://www.w3.org/2000/svg" xmlns:xlink="http://www.w3.org/1999/xlink">
<defs>
<clipPath id="c0_259"><path d="M47.5,973.5l0,-24l840,0l0,24Z" /></clipPath>
<clipPath id="c1_259"><path d="M47.5,1095.5l0,-95l840,0l0,95Z" /></clipPath>
<style type="text/css"><![CDATA[
.g2_259{
fill: #F1F1F1;
}
.g3_259{
fill: none;
stroke: #7E7E7E;
stroke-width: 1;
stroke-linecap: butt;
stroke-linejoin: miter;
}
.g1_259{
fill: none;
stroke: #000000;
stroke-width: 1;
stroke-linecap: butt;
stroke-linejoin: miter;
}
]]></style>
</defs>
<path d="M135.5,110.5l243,0" class="g1_259" />
<path d="M379.5,110.5l74,0" class="g1_259" />
<path d="M454.5,110.5l306,0" class="g1_259" />
<path d="M761.5,110.5l127,0" class="g1_259" />
<path d="M53.5,277.5l0,-167" class="g1_259" />
<path d="M94.5,277.5l0,-167" class="g1_259" />
<path d="M135.5,277.5l0,-167" class="g1_259" />
<path d="M378.5,277.5l0,-167" class="g1_259" />
<path d="M453.5,277.5l0,-167" class="g1_259" />
<path d="M760.5,277.5l0,-167" class="g1_259" />
<path d="M888.5,277.5l0,-167" class="g1_259" />
<path d="M53.5,278.5l0,-1" class="g1_259" />
<path d="M94.5,278.5l0,-1" class="g1_259" />
<path d="M135.5,278.5l0,-1" class="g1_259" />
<path d="M135.5,278.5l243,0" class="g1_259" />
<path d="M378.5,278.5l0,-1" class="g1_259" />
<path d="M379.5,278.5l74,0" class="g1_259" />
<path d="M453.5,278.5l0,-1" class="g1_259" />
<path d="M454.5,278.5l306,0" class="g1_259" />
<path d="M760.5,278.5l0,-1" class="g1_259" />
<path d="M761.5,278.5l127,0" class="g1_259" />
<path d="M888.5,278.5l0,-1" class="g1_259" />
<path d="M53.5,588.5l0,-310" class="g1_259" />
<path d="M94.5,588.5l0,-310" class="g1_259" />
<path d="M135.5,588.5l0,-310" class="g1_259" />
<path d="M378.5,588.5l0,-310" class="g1_259" />
<path d="M453.5,588.5l0,-310" class="g1_259" />
<path d="M760.5,588.5l0,-310" class="g1_259" />
<path d="M888.5,588.5l0,-310" class="g1_259" />
<path d="M135.5,588.5l243,0" class="g1_259" />
<path d="M379.5,588.5l74,0" class="g1_259" />
<path d="M454.5,588.5l306,0" class="g1_259" />
<path d="M761.5,588.5l127,0" class="g1_259" />
<path d="M53.5,803.5l0,-215" class="g1_259" />
<path d="M94.5,803.5l0,-215" class="g1_259" />
<path d="M135.5,803.5l0,-215" class="g1_259" />
<path d="M378.5,803.5l0,-215" class="g1_259" />
<path d="M453.5,803.5l0,-215" class="g1_259" />
<path d="M760.5,803.5l0,-215" class="g1_259" />
<path d="M888.5,803.5l0,-215" class="g1_259" />
<path d="M53.5,804.5l0,-1" class="g1_259" />
<path d="M94.5,804.5l0,-1" class="g1_259" />
<path d="M135.5,804.5l0,-1" class="g1_259" />
<path d="M135.5,804.5l243,0" class="g1_259" />
<path d="M378.5,804.5l0,-1" class="g1_259" />
<path d="M379.5,804.5l74,0" class="g1_259" />
<path d="M453.5,804.5l0,-1" class="g1_259" />
<path d="M454.5,804.5l306,0" class="g1_259" />
<path d="M760.5,804.5l0,-1" class="g1_259" />
<path d="M761.5,804.5l127,0" class="g1_259" />
<path d="M888.5,804.5l0,-1" class="g1_259" />
<path d="M53.5,852.5l0,-48" class="g1_259" />
<path d="M54.5,852.5l40,0" class="g1_259" />
<path d="M94.5,852.5l0,-48" class="g1_259" />
<path d="M94.5,852.5l41,0" class="g1_259" />
<path d="M135.5,852.5l0,-48" class="g1_259" />
<path d="M135.5,852.5l243,0" class="g1_259" />
<path d="M378.5,852.5l0,-48" class="g1_259" />
<path d="M379.5,852.5l74,0" class="g1_259" />
<path d="M453.5,852.5l0,-48" class="g1_259" />
<path d="M454.5,852.5l306,0" class="g1_259" />
<path d="M760.5,852.5l0,-48" class="g1_259" />
<path d="M761.5,852.5l127,0" class="g1_259" />
<path d="M888.5,852.5l0,-48" class="g1_259" />
<path fill-rule="evenodd" d="M47,973l840,0l0,-24L47,949l0,24Z" class="g2_259" />
<g clip-path="url(#c0_259)">
<path fill-rule="evenodd" d="M55,973l825,0l0,-24L55,949l0,24Z" class="g2_259" />
</g>
<path d="M46.5,949.5l0,-1" class="g3_259" />
<path d="M46.5,949.5l0,-1" class="g3_259" />
<path d="M47.5,949.5l840,0" class="g3_259" />
<path d="M887.5,949.5l0,-1" class="g3_259" />
<path d="M887.5,949.5l0,-1" class="g3_259" />
<path d="M46.5,973.5l0,-24" class="g3_259" />
<path d="M46.5,974.5l0,-1" class="g3_259" />
<path d="M46.5,974.5l0,-1" class="g3_259" />
<path d="M47.5,974.5l840,0" class="g3_259" />
<path d="M887.5,973.5l0,-24" class="g3_259" />
<path d="M887.5,974.5l0,-1" class="g3_259" />
<path d="M887.5,974.5l0,-1" class="g3_259" />
<path fill-rule="evenodd" d="M47,1095l840,0l0,-95l-840,0l0,95Z" class="g2_259" />
<path fill-rule="evenodd" d="M55,1024l825,0l0,-24l-825,0l0,24Z" class="g2_259" />
<path fill-rule="evenodd" d="M55,1048l825,0l0,-24l-825,0l0,24Z" class="g2_259" />
<path fill-rule="evenodd" d="M55,1071l825,0l0,-23l-825,0l0,23Z" class="g2_259" />
<g clip-path="url(#c1_259)">
<path fill-rule="evenodd" d="M55,1095l825,0l0,-24l-825,0l0,24Z" class="g2_259" />
</g>
<path d="M46.5,1000.5l0,-2" class="g3_259" />
<path d="M46.5,1000.5l0,-2" class="g3_259" />
<path d="M47.5,1000.5l840,0" class="g3_259" />
<path d="M887.5,1000.5l0,-2" class="g3_259" />
<path d="M887.5,1000.5l0,-2" class="g3_259" />
<path d="M46.5,1095.5l0,-95" class="g3_259" />
<path d="M46.5,1097.5l0,-2" class="g3_259" />
<path d="M46.5,1097.5l0,-2" class="g3_259" />
<path d="M47.5,1097.5l840,0" class="g3_259" />
<path d="M887.5,1095.5l0,-95" class="g3_259" />
<path d="M887.5,1097.5l0,-2" class="g3_259" />
<path d="M887.5,1097.5l0,-2" class="g3_259" />
</svg>