<?xml version="1.0" encoding="UTF-8" standalone="no"?>
<!DOCTYPE svg PUBLIC "-//W3C//DTD SVG 1.1//EN"
"http://www.w3.org/Graphics/SVG/1.1/DTD/svg11.dtd">
<svg version="1.1" xmlns="http://www.w3.org/2000/svg" xmlns:xlink="http://www.w3.org/1999/xlink">
<defs>
<clipPath id="c0_358"><path d="M47.5,238.5l0,-127l840,0l0,127Z" /></clipPath>
<clipPath id="c1_358"><path d="M47.5,237.5l0,-126l840,0l0,126Z" /></clipPath>
<clipPath id="c2_358"><path d="M47.5,885.5l0,-24l840,0l0,24Z" /></clipPath>
<clipPath id="c3_358"><path d="M47.5,1079.5l0,-167l840,0l0,167Z" /></clipPath>
<style type="text/css"><![CDATA[
.g2_358{
fill: none;
stroke: #F0F0E0;
stroke-width: 1;
stroke-linecap: butt;
stroke-linejoin: miter;
}
.g3_358{
fill: none;
stroke: #7E7E7E;
stroke-width: 1;
stroke-linecap: butt;
stroke-linejoin: miter;
}
.g4_358{
fill: #DBE5F1;
}
.g1_358{
fill: #F1F1F1;
}
]]></style>
</defs>
<path fill-rule="evenodd" d="M47,237l840,0l0,-126L47,111l0,126Z" class="g1_358" />
<g clip-path="url(#c0_358)">
<path fill-rule="evenodd" d="M55,135l825,0l0,-24L55,111l0,24Z" class="g1_358" />
</g>
<g clip-path="url(#c1_358)">
<path d="M45.5,135.5l0,-24" class="g2_358" />
<path d="M888.5,135.5l0,-24" class="g2_358" />
</g>
<path fill-rule="evenodd" d="M55,159l825,0l0,-24L55,135l0,24Z" class="g1_358" />
<g clip-path="url(#c1_358)">
<path d="M45.5,159.5l0,-24" class="g2_358" />
<path d="M888.5,159.5l0,-24" class="g2_358" />
</g>
<path fill-rule="evenodd" d="M55,182l825,0l0,-23L55,159l0,23Z" class="g1_358" />
<g clip-path="url(#c1_358)">
<path d="M45.5,182.5l0,-23" class="g2_358" />
<path d="M888.5,182.5l0,-23" class="g2_358" />
</g>
<path fill-rule="evenodd" d="M55,214l825,0l0,-32L55,182l0,32Z" class="g1_358" />
<g clip-path="url(#c1_358)">
<path d="M45.5,214.5l0,-1" class="g2_358" />
<path d="M45.5,214.5l0,-1" class="g2_358" />
<path d="M46.5,214.5l842,0" class="g2_358" />
<path d="M888.5,214.5l0,-1" class="g2_358" />
<path d="M888.5,214.5l0,-1" class="g2_358" />
<path d="M45.5,213.5l0,-31" class="g2_358" />
<path d="M888.5,213.5l0,-31" class="g2_358" />
</g>
<path fill-rule="evenodd" d="M55,237l825,0l0,-23L55,214l0,23Z" class="g1_358" />
<path d="M46.5,111.5l0,-1" class="g3_358" />
<path d="M46.5,111.5l0,-1" class="g3_358" />
<path d="M47.5,111.5l840,0" class="g3_358" />
<path d="M887.5,111.5l0,-1" class="g3_358" />
<path d="M887.5,111.5l0,-1" class="g3_358" />
<path d="M46.5,237.5l0,-126" class="g3_358" />
<path d="M46.5,239.5l0,-2" class="g3_358" />
<path d="M46.5,239.5l0,-2" class="g3_358" />
<path d="M47.5,239.5l840,0" class="g3_358" />
<path d="M887.5,237.5l0,-126" class="g3_358" />
<path d="M887.5,239.5l0,-2" class="g3_358" />
<path d="M887.5,239.5l0,-2" class="g3_358" />
<path fill-rule="evenodd" d="M47,421l195,0l0,-24L47,397l0,24Z" class="g4_358" />
<path fill-rule="evenodd" d="M55,421l180,0l0,-24L55,397l0,24Z" class="g4_358" />
<path fill-rule="evenodd" d="M244,421l95,0l0,-24l-95,0l0,24Z" class="g4_358" />
<path fill-rule="evenodd" d="M251,421l81,0l0,-24l-81,0l0,24Z" class="g4_358" />
<path fill-rule="evenodd" d="M341,421l77,0l0,-24l-77,0l0,24Z" class="g4_358" />
<path fill-rule="evenodd" d="M348,421l63,0l0,-24l-63,0l0,24Z" class="g4_358" />
<path fill-rule="evenodd" d="M420,421l467,0l0,-24l-467,0l0,24Z" class="g4_358" />
<path fill-rule="evenodd" d="M427,421l453,0l0,-24l-453,0l0,24Z" class="g4_358" />
<path d="M46.5,397.5l0,-2" class="g3_358" />
<path d="M46.5,397.5l0,-2" class="g3_358" />
<path d="M47.5,397.5l195,0" class="g3_358" />
<path d="M242.5,397.5l0,-2" class="g3_358" />
<path d="M244.5,397.5l95,0" class="g3_358" />
<path d="M339.5,397.5l0,-2" class="g3_358" />
<path d="M341.5,397.5l77,0" class="g3_358" />
<path d="M418.5,397.5l0,-2" class="g3_358" />
<path d="M420.5,397.5l467,0" class="g3_358" />
<path d="M887.5,397.5l0,-2" class="g3_358" />
<path d="M887.5,397.5l0,-2" class="g3_358" />
<path d="M46.5,421.5l0,-24" class="g3_358" />
<path d="M242.5,421.5l0,-24" class="g3_358" />
<path d="M339.5,421.5l0,-24" class="g3_358" />
<path d="M418.5,421.5l0,-24" class="g3_358" />
<path d="M887.5,421.5l0,-24" class="g3_358" />
<path fill-rule="evenodd" d="M47,762l27,0L74,423l-27,0l0,339Z" class="g1_358" />
<path fill-rule="evenodd" d="M55,762l19,0L74,423l-19,0l0,339Z" class="g1_358" />
<path fill-rule="evenodd" d="M76,447l166,0l0,-24L76,423l0,24Z" class="g1_358" />
<path fill-rule="evenodd" d="M83,447l152,0l0,-24L83,423l0,24Z" class="g1_358" />
<path fill-rule="evenodd" d="M244,447l95,0l0,-24l-95,0l0,24Z" class="g1_358" />
<path fill-rule="evenodd" d="M251,447l81,0l0,-24l-81,0l0,24Z" class="g1_358" />
<path fill-rule="evenodd" d="M341,447l77,0l0,-24l-77,0l0,24Z" class="g1_358" />
<path fill-rule="evenodd" d="M348,447l63,0l0,-24l-63,0l0,24Z" class="g1_358" />
<path fill-rule="evenodd" d="M420,447l467,0l0,-24l-467,0l0,24Z" class="g1_358" />
<path fill-rule="evenodd" d="M427,447l453,0l0,-24l-453,0l0,24Z" class="g1_358" />
<path d="M46.5,423.5l0,-2" class="g3_358" />
<path d="M47.5,423.5l27,0" class="g3_358" />
<path d="M74.5,423.5l0,-2" class="g3_358" />
<path d="M76.5,423.5l166,0" class="g3_358" />
<path d="M242.5,423.5l0,-2" class="g3_358" />
<path d="M244.5,423.5l95,0" class="g3_358" />
<path d="M339.5,423.5l0,-2" class="g3_358" />
<path d="M341.5,423.5l77,0" class="g3_358" />
<path d="M418.5,423.5l0,-2" class="g3_358" />
<path d="M420.5,423.5l467,0" class="g3_358" />
<path d="M887.5,423.5l0,-2" class="g3_358" />
<path d="M46.5,447.5l0,-24" class="g3_358" />
<path d="M74.5,447.5l0,-24" class="g3_358" />
<path d="M242.5,447.5l0,-24" class="g3_358" />
<path d="M339.5,447.5l0,-24" class="g3_358" />
<path d="M418.5,447.5l0,-24" class="g3_358" />
<path d="M887.5,447.5l0,-24" class="g3_358" />
<path fill-rule="evenodd" d="M76,472l166,0l0,-24L76,448l0,24Z" class="g1_358" />
<path fill-rule="evenodd" d="M83,472l152,0l0,-24L83,448l0,24Z" class="g1_358" />
<path fill-rule="evenodd" d="M244,472l95,0l0,-24l-95,0l0,24Z" class="g1_358" />
<path fill-rule="evenodd" d="M251,472l81,0l0,-24l-81,0l0,24Z" class="g1_358" />
<path fill-rule="evenodd" d="M341,472l77,0l0,-24l-77,0l0,24Z" class="g1_358" />
<path fill-rule="evenodd" d="M348,472l63,0l0,-24l-63,0l0,24Z" class="g1_358" />
<path fill-rule="evenodd" d="M420,472l467,0l0,-24l-467,0l0,24Z" class="g1_358" />
<path fill-rule="evenodd" d="M427,472l453,0l0,-24l-453,0l0,24Z" class="g1_358" />
<path d="M46.5,448.5l0,-1" class="g3_358" />
<path d="M74.5,448.5l0,-1" class="g3_358" />
<path d="M76.5,448.5l166,0" class="g3_358" />
<path d="M242.5,448.5l0,-1" class="g3_358" />
<path d="M244.5,448.5l95,0" class="g3_358" />
<path d="M339.5,448.5l0,-1" class="g3_358" />
<path d="M341.5,448.5l77,0" class="g3_358" />
<path d="M418.5,448.5l0,-1" class="g3_358" />
<path d="M420.5,448.5l467,0" class="g3_358" />
<path d="M887.5,448.5l0,-1" class="g3_358" />
<path d="M46.5,472.5l0,-24" class="g3_358" />
<path d="M74.5,472.5l0,-24" class="g3_358" />
<path d="M242.5,472.5l0,-24" class="g3_358" />
<path d="M339.5,472.5l0,-24" class="g3_358" />
<path d="M418.5,472.5l0,-24" class="g3_358" />
<path d="M887.5,472.5l0,-24" class="g3_358" />
<path fill-rule="evenodd" d="M76,762l28,0l0,-289l-28,0l0,289Z" class="g1_358" />
<path fill-rule="evenodd" d="M83,762l21,0l0,-289l-21,0l0,289Z" class="g1_358" />
<path fill-rule="evenodd" d="M106,762l67,0l0,-289l-67,0l0,289Z" class="g1_358" />
<path fill-rule="evenodd" d="M113,762l24,0l0,-289l-24,0l0,289Z" class="g1_358" />
<path fill-rule="evenodd" d="M174,569l68,0l0,-96l-68,0l0,96Z" class="g1_358" />
<path fill-rule="evenodd" d="M182,497l53,0l0,-24l-53,0l0,24Z" class="g1_358" />
<path fill-rule="evenodd" d="M182,521l53,0l0,-24l-53,0l0,24Z" class="g1_358" />
<path fill-rule="evenodd" d="M244,569l95,0l0,-96l-95,0l0,96Z" class="g1_358" />
<path fill-rule="evenodd" d="M251,497l81,0l0,-24l-81,0l0,24Z" class="g1_358" />
<path fill-rule="evenodd" d="M341,569l77,0l0,-96l-77,0l0,96Z" class="g1_358" />
<path fill-rule="evenodd" d="M348,497l63,0l0,-24l-63,0l0,24Z" class="g1_358" />
<path fill-rule="evenodd" d="M420,569l467,0l0,-96l-467,0l0,96Z" class="g1_358" />
<path fill-rule="evenodd" d="M427,497l453,0l0,-24l-453,0l0,24Z" class="g1_358" />
<path fill-rule="evenodd" d="M427,521l453,0l0,-24l-453,0l0,24Z" class="g1_358" />
<path fill-rule="evenodd" d="M427,545l453,0l0,-24l-453,0l0,24Z" class="g1_358" />
<path fill-rule="evenodd" d="M427,569l453,0l0,-24l-453,0l0,24Z" class="g1_358" />
<path d="M46.5,473.5l0,-1" class="g3_358" />
<path d="M74.5,473.5l0,-1" class="g3_358" />
<path d="M76.5,473.5l28,0" class="g3_358" />
<path d="M104.5,473.5l0,-1" class="g3_358" />
<path d="M105.5,473.5l68,0" class="g3_358" />
<path d="M173.5,473.5l0,-1" class="g3_358" />
<path d="M174.5,473.5l68,0" class="g3_358" />
<path d="M242.5,473.5l0,-1" class="g3_358" />
<path d="M244.5,473.5l95,0" class="g3_358" />
<path d="M339.5,473.5l0,-1" class="g3_358" />
<path d="M341.5,473.5l77,0" class="g3_358" />
<path d="M418.5,473.5l0,-1" class="g3_358" />
<path d="M420.5,473.5l467,0" class="g3_358" />
<path d="M887.5,473.5l0,-1" class="g3_358" />
<path d="M46.5,569.5l0,-96" class="g3_358" />
<path d="M74.5,569.5l0,-96" class="g3_358" />
<path d="M104.5,569.5l0,-96" class="g3_358" />
<path d="M173.5,569.5l0,-96" class="g3_358" />
<path d="M242.5,569.5l0,-96" class="g3_358" />
<path d="M339.5,569.5l0,-96" class="g3_358" />
<path d="M418.5,569.5l0,-96" class="g3_358" />
<path d="M887.5,569.5l0,-96" class="g3_358" />
<path fill-rule="evenodd" d="M174,618l68,0l0,-48l-68,0l0,48Z" class="g1_358" />
<path fill-rule="evenodd" d="M182,594l53,0l0,-24l-53,0l0,24Z" class="g1_358" />
<path fill-rule="evenodd" d="M182,618l53,0l0,-24l-53,0l0,24Z" class="g1_358" />
<path fill-rule="evenodd" d="M244,618l95,0l0,-48l-95,0l0,48Z" class="g1_358" />
<path fill-rule="evenodd" d="M251,594l81,0l0,-24l-81,0l0,24Z" class="g1_358" />
<path fill-rule="evenodd" d="M341,618l77,0l0,-48l-77,0l0,48Z" class="g1_358" />
<path fill-rule="evenodd" d="M348,594l63,0l0,-24l-63,0l0,24Z" class="g1_358" />
<path fill-rule="evenodd" d="M420,618l467,0l0,-48l-467,0l0,48Z" class="g1_358" />
<path fill-rule="evenodd" d="M427,594l453,0l0,-24l-453,0l0,24Z" class="g1_358" />
<path d="M46.5,570.5l0,-1" class="g3_358" />
<path d="M74.5,570.5l0,-1" class="g3_358" />
<path d="M104.5,570.5l0,-1" class="g3_358" />
<path d="M173.5,570.5l0,-1" class="g3_358" />
<path d="M174.5,570.5l68,0" class="g3_358" />
<path d="M242.5,570.5l0,-1" class="g3_358" />
<path d="M244.5,570.5l95,0" class="g3_358" />
<path d="M339.5,570.5l0,-1" class="g3_358" />
<path d="M341.5,570.5l77,0" class="g3_358" />
<path d="M418.5,570.5l0,-1" class="g3_358" />
<path d="M420.5,570.5l467,0" class="g3_358" />
<path d="M887.5,570.5l0,-1" class="g3_358" />
<path d="M46.5,618.5l0,-48" class="g3_358" />
<path d="M74.5,618.5l0,-48" class="g3_358" />
<path d="M104.5,618.5l0,-48" class="g3_358" />
<path d="M173.5,618.5l0,-48" class="g3_358" />
<path d="M242.5,618.5l0,-48" class="g3_358" />
<path d="M339.5,618.5l0,-48" class="g3_358" />
<path d="M418.5,618.5l0,-48" class="g3_358" />
<path d="M887.5,618.5l0,-48" class="g3_358" />
<path fill-rule="evenodd" d="M174,762l68,0l0,-143l-68,0l0,143Z" class="g1_358" />
<path fill-rule="evenodd" d="M182,643l53,0l0,-24l-53,0l0,24Z" class="g1_358" />
<path fill-rule="evenodd" d="M182,667l53,0l0,-24l-53,0l0,24Z" class="g1_358" />
<path fill-rule="evenodd" d="M244,762l95,0l0,-143l-95,0l0,143Z" class="g1_358" />
<path fill-rule="evenodd" d="M251,643l81,0l0,-24l-81,0l0,24Z" class="g1_358" />
<path fill-rule="evenodd" d="M341,762l77,0l0,-143l-77,0l0,143Z" class="g1_358" />
<path fill-rule="evenodd" d="M348,643l63,0l0,-24l-63,0l0,24Z" class="g1_358" />
<path fill-rule="evenodd" d="M420,762l467,0l0,-143l-467,0l0,143Z" class="g1_358" />
<path fill-rule="evenodd" d="M427,643l453,0l0,-24l-453,0l0,24Z" class="g1_358" />
<path fill-rule="evenodd" d="M427,667l453,0l0,-24l-453,0l0,24Z" class="g1_358" />
<path fill-rule="evenodd" d="M427,691l453,0l0,-24l-453,0l0,24Z" class="g1_358" />
<path fill-rule="evenodd" d="M427,715l453,0l0,-24l-453,0l0,24Z" class="g1_358" />
<path fill-rule="evenodd" d="M427,739l453,0l0,-24l-453,0l0,24Z" class="g1_358" />
<path fill-rule="evenodd" d="M427,762l453,0l0,-23l-453,0l0,23Z" class="g1_358" />
<path d="M46.5,619.5l0,-1" class="g3_358" />
<path d="M74.5,619.5l0,-1" class="g3_358" />
<path d="M104.5,619.5l0,-1" class="g3_358" />
<path d="M173.5,619.5l0,-1" class="g3_358" />
<path d="M174.5,619.5l68,0" class="g3_358" />
<path d="M242.5,619.5l0,-1" class="g3_358" />
<path d="M244.5,619.5l95,0" class="g3_358" />
<path d="M339.5,619.5l0,-1" class="g3_358" />
<path d="M341.5,619.5l77,0" class="g3_358" />
<path d="M418.5,619.5l0,-1" class="g3_358" />
<path d="M420.5,619.5l467,0" class="g3_358" />
<path d="M887.5,619.5l0,-1" class="g3_358" />
<path d="M46.5,763.5l0,-144" class="g3_358" />
<path d="M46.5,764.5l0,-1" class="g3_358" />
<path d="M46.5,764.5l0,-1" class="g3_358" />
<path d="M47.5,764.5l27,0" class="g3_358" />
<path d="M74.5,763.5l0,-144" class="g3_358" />
<path d="M74.5,764.5l0,-1" class="g3_358" />
<path d="M76.5,764.5l28,0" class="g3_358" />
<path d="M104.5,763.5l0,-144" class="g3_358" />
<path d="M104.5,764.5l0,-1" class="g3_358" />
<path d="M105.5,764.5l68,0" class="g3_358" />
<path d="M173.5,763.5l0,-144" class="g3_358" />
<path d="M173.5,764.5l0,-1" class="g3_358" />
<path d="M174.5,764.5l68,0" class="g3_358" />
<path d="M242.5,763.5l0,-144" class="g3_358" />
<path d="M242.5,764.5l0,-1" class="g3_358" />
<path d="M244.5,764.5l95,0" class="g3_358" />
<path d="M339.5,763.5l0,-144" class="g3_358" />
<path d="M339.5,764.5l0,-1" class="g3_358" />
<path d="M341.5,764.5l77,0" class="g3_358" />
<path d="M418.5,763.5l0,-144" class="g3_358" />
<path d="M418.5,764.5l0,-1" class="g3_358" />
<path d="M420.5,764.5l467,0" class="g3_358" />
<path d="M887.5,763.5l0,-144" class="g3_358" />
<path d="M887.5,764.5l0,-1" class="g3_358" />
<path d="M887.5,764.5l0,-1" class="g3_358" />
<path fill-rule="evenodd" d="M47,885l840,0l0,-24L47,861l0,24Z" class="g1_358" />
<g clip-path="url(#c2_358)">
<path fill-rule="evenodd" d="M55,885l825,0l0,-24L55,861l0,24Z" class="g1_358" />
</g>
<path d="M46.5,861.5l0,-2" class="g3_358" />
<path d="M46.5,861.5l0,-2" class="g3_358" />
<path d="M47.5,861.5l840,0" class="g3_358" />
<path d="M887.5,861.5l0,-2" class="g3_358" />
<path d="M887.5,861.5l0,-2" class="g3_358" />
<path d="M46.5,885.5l0,-24" class="g3_358" />
<path d="M46.5,886.5l0,-1" class="g3_358" />
<path d="M46.5,886.5l0,-1" class="g3_358" />
<path d="M47.5,886.5l840,0" class="g3_358" />
<path d="M887.5,885.5l0,-24" class="g3_358" />
<path d="M887.5,886.5l0,-1" class="g3_358" />
<path d="M887.5,886.5l0,-1" class="g3_358" />
<path fill-rule="evenodd" d="M47,1079l840,0l0,-167L47,912l0,167Z" class="g1_358" />
<path fill-rule="evenodd" d="M55,936l825,0l0,-24L55,912l0,24Z" class="g1_358" />
<path fill-rule="evenodd" d="M55,959l825,0l0,-23L55,936l0,23Z" class="g1_358" />
<path fill-rule="evenodd" d="M55,983l825,0l0,-24L55,959l0,24Z" class="g1_358" />
<path fill-rule="evenodd" d="M55,1007l825,0l0,-24L55,983l0,24Z" class="g1_358" />
<path fill-rule="evenodd" d="M55,1031l825,0l0,-24l-825,0l0,24Z" class="g1_358" />
<path fill-rule="evenodd" d="M55,1055l825,0l0,-24l-825,0l0,24Z" class="g1_358" />
<g clip-path="url(#c3_358)">
<path fill-rule="evenodd" d="M55,1079l825,0l0,-24l-825,0l0,24Z" class="g1_358" />
</g>
<path d="M46.5,912.5l0,-2" class="g3_358" />
<path d="M46.5,912.5l0,-2" class="g3_358" />
<path d="M47.5,912.5l840,0" class="g3_358" />
<path d="M887.5,912.5l0,-2" class="g3_358" />
<path d="M887.5,912.5l0,-2" class="g3_358" />
<path d="M46.5,1079.5l0,-167" class="g3_358" />
<path d="M46.5,1080.5l0,-1" class="g3_358" />
<path d="M46.5,1080.5l0,-1" class="g3_358" />
<path d="M47.5,1080.5l840,0" class="g3_358" />
<path d="M887.5,1079.5l0,-167" class="g3_358" />
<path d="M887.5,1080.5l0,-1" class="g3_358" />
<path d="M887.5,1080.5l0,-1" class="g3_358" />
</svg>