<?xml version="1.0" encoding="UTF-8" standalone="no"?>
<!DOCTYPE svg PUBLIC "-//W3C//DTD SVG 1.1//EN"
"http://www.w3.org/Graphics/SVG/1.1/DTD/svg11.dtd">
<svg version="1.1" xmlns="http://www.w3.org/2000/svg" xmlns:xlink="http://www.w3.org/1999/xlink">
<defs>
<clipPath id="c0_482"><path d="M47.5,635.5l0,-452l840,0l0,452Z" /></clipPath>
<clipPath id="c1_482"><path d="M47.5,767.5l0,-24l102,0l0,24Z" /></clipPath>
<clipPath id="c2_482"><path d="M151.5,767.5l0,-24l736,0l0,24Z" /></clipPath>
<clipPath id="c3_482"><path d="M47.5,792.5l0,-23l102,0l0,23Z" /></clipPath>
<clipPath id="c4_482"><path d="M151.5,792.5l0,-23l736,0l0,23Z" /></clipPath>
<clipPath id="c5_482"><path d="M47.5,1048.5l0,-181l840,0l0,181Z" /></clipPath>
<style type="text/css"><![CDATA[
.g4_482{
fill: none;
stroke: #F0F0E0;
stroke-width: 1;
stroke-linecap: butt;
stroke-linejoin: miter;
}
.g2_482{
fill: none;
stroke: #7E7E7E;
stroke-width: 1;
stroke-linecap: butt;
stroke-linejoin: miter;
}
.g3_482{
fill: none;
stroke: #0000FF;
stroke-width: 1;
stroke-linecap: butt;
stroke-linejoin: miter;
}
.g1_482{
fill: #F1F1F1;
}
]]></style>
</defs>
<path fill-rule="evenodd" d="M47,635l840,0l0,-452L47,183l0,452Z" class="g1_482" />
<g clip-path="url(#c0_482)">
<path fill-rule="evenodd" d="M55,206l825,0l0,-24L55,182l0,24Z" class="g1_482" />
</g>
<path fill-rule="evenodd" d="M55,230l825,0l0,-24L55,206l0,24Z" class="g1_482" />
<path fill-rule="evenodd" d="M55,254l825,0l0,-24L55,230l0,24Z" class="g1_482" />
<path fill-rule="evenodd" d="M55,278l825,0l0,-24L55,254l0,24Z" class="g1_482" />
<path fill-rule="evenodd" d="M55,302l825,0l0,-24L55,278l0,24Z" class="g1_482" />
<path fill-rule="evenodd" d="M55,325l825,0l0,-23L55,302l0,23Z" class="g1_482" />
<path fill-rule="evenodd" d="M55,349l825,0l0,-24L55,325l0,24Z" class="g1_482" />
<path fill-rule="evenodd" d="M55,373l825,0l0,-24L55,349l0,24Z" class="g1_482" />
<path fill-rule="evenodd" d="M55,397l825,0l0,-24L55,373l0,24Z" class="g1_482" />
<path fill-rule="evenodd" d="M55,421l825,0l0,-24L55,397l0,24Z" class="g1_482" />
<path fill-rule="evenodd" d="M55,445l825,0l0,-24L55,421l0,24Z" class="g1_482" />
<path fill-rule="evenodd" d="M55,469l825,0l0,-24L55,445l0,24Z" class="g1_482" />
<path fill-rule="evenodd" d="M55,492l825,0l0,-23L55,469l0,23Z" class="g1_482" />
<path fill-rule="evenodd" d="M55,516l825,0l0,-24L55,492l0,24Z" class="g1_482" />
<path fill-rule="evenodd" d="M55,540l825,0l0,-24L55,516l0,24Z" class="g1_482" />
<path fill-rule="evenodd" d="M55,564l825,0l0,-24L55,540l0,24Z" class="g1_482" />
<path fill-rule="evenodd" d="M55,588l825,0l0,-24L55,564l0,24Z" class="g1_482" />
<path fill-rule="evenodd" d="M55,612l825,0l0,-24L55,588l0,24Z" class="g1_482" />
<path fill-rule="evenodd" d="M55,635l825,0l0,-23L55,612l0,23Z" class="g1_482" />
<path d="M46.5,182.5l0,-1" class="g2_482" />
<path d="M46.5,182.5l0,-1" class="g2_482" />
<path d="M47.5,182.5l840,0" class="g2_482" />
<path d="M887.5,182.5l0,-1" class="g2_482" />
<path d="M887.5,182.5l0,-1" class="g2_482" />
<path d="M46.5,636.5l0,-453" class="g2_482" />
<path d="M46.5,637.5l0,-1" class="g2_482" />
<path d="M46.5,637.5l0,-1" class="g2_482" />
<path d="M47.5,637.5l840,0" class="g2_482" />
<path d="M887.5,636.5l0,-453" class="g2_482" />
<path d="M887.5,637.5l0,-1" class="g2_482" />
<path d="M887.5,637.5l0,-1" class="g2_482" />
<path d="M371.5,737.5l163,0" class="g3_482" />
<path fill-rule="evenodd" d="M47,767l102,0l0,-24L47,743l0,24Z" class="g1_482" />
<g clip-path="url(#c1_482)">
<path fill-rule="evenodd" d="M55,767l87,0l0,-24l-87,0l0,24Z" class="g1_482" />
</g>
<path fill-rule="evenodd" d="M151,767l736,0l0,-24l-736,0l0,24Z" class="g1_482" />
<g clip-path="url(#c2_482)">
<path fill-rule="evenodd" d="M158,767l722,0l0,-24l-722,0l0,24Z" class="g1_482" />
</g>
<path d="M46.5,743.5l0,-1" class="g2_482" />
<path d="M46.5,743.5l0,-1" class="g2_482" />
<path d="M47.5,743.5l102,0" class="g2_482" />
<path d="M149.5,743.5l0,-1" class="g2_482" />
<path d="M151.5,743.5l736,0" class="g2_482" />
<path d="M887.5,743.5l0,-1" class="g2_482" />
<path d="M887.5,743.5l0,-1" class="g2_482" />
<path d="M46.5,767.5l0,-24" class="g2_482" />
<path d="M149.5,767.5l0,-24" class="g2_482" />
<path d="M887.5,767.5l0,-24" class="g2_482" />
<path fill-rule="evenodd" d="M47,792l102,0l0,-23L47,769l0,23Z" class="g1_482" />
<g clip-path="url(#c3_482)">
<path fill-rule="evenodd" d="M55,792l87,0l0,-23l-87,0l0,23Z" class="g1_482" />
</g>
<path fill-rule="evenodd" d="M151,792l736,0l0,-23l-736,0l0,23Z" class="g1_482" />
<g clip-path="url(#c4_482)">
<path fill-rule="evenodd" d="M158,792l722,0l0,-23l-722,0l0,23Z" class="g1_482" />
</g>
<path d="M46.5,769.5l0,-2" class="g2_482" />
<path d="M47.5,769.5l102,0" class="g2_482" />
<path d="M149.5,769.5l0,-2" class="g2_482" />
<path d="M151.5,769.5l736,0" class="g2_482" />
<path d="M887.5,769.5l0,-2" class="g2_482" />
<path d="M46.5,793.5l0,-24" class="g2_482" />
<path d="M46.5,794.5l0,-1" class="g2_482" />
<path d="M46.5,794.5l0,-1" class="g2_482" />
<path d="M47.5,794.5l102,0" class="g2_482" />
<path d="M149.5,793.5l0,-24" class="g2_482" />
<path d="M149.5,794.5l0,-1" class="g2_482" />
<path d="M151.5,794.5l736,0" class="g2_482" />
<path d="M887.5,793.5l0,-24" class="g2_482" />
<path d="M887.5,794.5l0,-1" class="g2_482" />
<path d="M887.5,794.5l0,-1" class="g2_482" />
<path fill-rule="evenodd" d="M47,1048l840,0l0,-181L47,867l0,181Z" class="g1_482" />
<path fill-rule="evenodd" d="M55,898l825,0l0,-31L55,867l0,31Z" class="g1_482" />
<g clip-path="url(#c5_482)">
<path d="M45.5,868.5l0,-1" class="g4_482" />
<path d="M45.5,868.5l0,-1" class="g4_482" />
<path d="M46.5,868.5l842,0" class="g4_482" />
<path d="M888.5,868.5l0,-1" class="g4_482" />
<path d="M888.5,868.5l0,-1" class="g4_482" />
<path d="M45.5,898.5l0,-30" class="g4_482" />
<path d="M888.5,898.5l0,-30" class="g4_482" />
</g>
<path fill-rule="evenodd" d="M55,922l825,0l0,-24L55,898l0,24Z" class="g1_482" />
<g clip-path="url(#c5_482)">
<path d="M45.5,922.5l0,-24" class="g4_482" />
<path d="M888.5,922.5l0,-24" class="g4_482" />
</g>
<path fill-rule="evenodd" d="M55,946l825,0l0,-24L55,922l0,24Z" class="g1_482" />
<g clip-path="url(#c5_482)">
<path d="M45.5,946.5l0,-24" class="g4_482" />
<path d="M888.5,946.5l0,-24" class="g4_482" />
</g>
<path fill-rule="evenodd" d="M55,970l825,0l0,-24L55,946l0,24Z" class="g1_482" />
<g clip-path="url(#c5_482)">
<path d="M45.5,970.5l0,-24" class="g4_482" />
<path d="M888.5,970.5l0,-24" class="g4_482" />
</g>
<path fill-rule="evenodd" d="M55,994l825,0l0,-24L55,970l0,24Z" class="g1_482" />
<g clip-path="url(#c5_482)">
<path d="M45.5,994.5l0,-24" class="g4_482" />
<path d="M888.5,994.5l0,-24" class="g4_482" />
</g>
<path fill-rule="evenodd" d="M55,1017l825,0l0,-23L55,994l0,23Z" class="g1_482" />
<g clip-path="url(#c5_482)">
<path d="M45.5,1017.5l0,-23" class="g4_482" />
<path d="M888.5,1017.5l0,-23" class="g4_482" />
<path fill-rule="evenodd" d="M55,1048l825,0l0,-31l-825,0l0,31Z" class="g1_482" />
<path d="M45.5,1048.5l0,-1" class="g4_482" />
<path d="M45.5,1048.5l0,-1" class="g4_482" />
<path d="M46.5,1048.5l842,0" class="g4_482" />
<path d="M888.5,1048.5l0,-1" class="g4_482" />
<path d="M888.5,1048.5l0,-1" class="g4_482" />
<path d="M45.5,1047.5l0,-30" class="g4_482" />
<path d="M888.5,1047.5l0,-30" class="g4_482" />
</g>
<path d="M46.5,867.5l0,-2" class="g2_482" />
<path d="M46.5,867.5l0,-2" class="g2_482" />
<path d="M47.5,867.5l840,0" class="g2_482" />
<path d="M887.5,867.5l0,-2" class="g2_482" />
<path d="M887.5,867.5l0,-2" class="g2_482" />
<path d="M46.5,1049.5l0,-182" class="g2_482" />
<path d="M46.5,1050.5l0,-1" class="g2_482" />
<path d="M46.5,1050.5l0,-1" class="g2_482" />
<path d="M47.5,1050.5l840,0" class="g2_482" />
<path d="M887.5,1049.5l0,-182" class="g2_482" />
<path d="M887.5,1050.5l0,-1" class="g2_482" />
<path d="M887.5,1050.5l0,-1" class="g2_482" />
</svg>