<?xml version="1.0" encoding="UTF-8" standalone="no"?>
<!DOCTYPE svg PUBLIC "-//W3C//DTD SVG 1.1//EN"
"http://www.w3.org/Graphics/SVG/1.1/DTD/svg11.dtd">
<svg version="1.1" xmlns="http://www.w3.org/2000/svg" xmlns:xlink="http://www.w3.org/1999/xlink">
<defs>
<clipPath id="c0_334"><path d="M47.5,254.5l0,-143l840,0l0,143Z" /></clipPath>
<clipPath id="c1_334"><path d="M47.5,734.5l0,-405l840,0l0,405Z" /></clipPath>
<clipPath id="c2_334"><path d="M47.5,846.5l0,-24l296,0l0,24Z" /></clipPath>
<clipPath id="c3_334"><path d="M345.5,846.5l0,-24l115,0l0,24Z" /></clipPath>
<clipPath id="c4_334"><path d="M462.5,846.5l0,-24l425,0l0,24Z" /></clipPath>
<clipPath id="c5_334"><path d="M47.5,1022.5l0,-174l39,0l0,174Z" /></clipPath>
<clipPath id="c6_334"><path d="M88.5,895.5l0,-47l255,0l0,47Z" /></clipPath>
<clipPath id="c7_334"><path d="M345.5,895.5l0,-47l115,0l0,47Z" /></clipPath>
<clipPath id="c8_334"><path d="M462.5,895.5l0,-47l425,0l0,47Z" /></clipPath>
<clipPath id="c9_334"><path d="M88.5,921.5l0,-24l255,0l0,24Z" /></clipPath>
<clipPath id="c10_334"><path d="M345.5,921.5l0,-24l115,0l0,24Z" /></clipPath>
<clipPath id="c11_334"><path d="M462.5,921.5l0,-24l425,0l0,24Z" /></clipPath>
<clipPath id="c12_334"><path d="M88.5,1022.5l0,-73l39,0l0,73Z" /></clipPath>
<clipPath id="c13_334"><path d="M129.5,1022.5l0,-73l39,0l0,73Z" /></clipPath>
<clipPath id="c14_334"><path d="M169.5,1022.5l0,-73l40,0l0,73Z" /></clipPath>
<clipPath id="c15_334"><path d="M210.5,972.5l0,-23l133,0l0,23Z" /></clipPath>
<clipPath id="c16_334"><path d="M345.5,972.5l0,-23l115,0l0,23Z" /></clipPath>
<clipPath id="c17_334"><path d="M462.5,972.5l0,-23l425,0l0,23Z" /></clipPath>
<clipPath id="c18_334"><path d="M462.5,1022.5l0,-48l425,0l0,48Z" /></clipPath>
<style type="text/css"><![CDATA[
.g2_334{
fill: none;
stroke: #7E7E7E;
stroke-width: 1;
stroke-linecap: butt;
stroke-linejoin: miter;
}
.g3_334{
fill: #DBE5F1;
}
.g1_334{
fill: #F1F1F1;
}
]]></style>
</defs>
<path fill-rule="evenodd" d="M47,254l840,0l0,-143L47,111l0,143Z" class="g1_334" />
<g clip-path="url(#c0_334)">
<path fill-rule="evenodd" d="M55,135l825,0l0,-24L55,111l0,24Z" class="g1_334" />
</g>
<path fill-rule="evenodd" d="M55,159l825,0l0,-24L55,135l0,24Z" class="g1_334" />
<path fill-rule="evenodd" d="M55,182l825,0l0,-23L55,159l0,23Z" class="g1_334" />
<path fill-rule="evenodd" d="M55,206l825,0l0,-24L55,182l0,24Z" class="g1_334" />
<path fill-rule="evenodd" d="M55,230l825,0l0,-24L55,206l0,24Z" class="g1_334" />
<path fill-rule="evenodd" d="M55,254l825,0l0,-24L55,230l0,24Z" class="g1_334" />
<path d="M46.5,111.5l0,-1" class="g2_334" />
<path d="M46.5,111.5l0,-1" class="g2_334" />
<path d="M47.5,111.5l840,0" class="g2_334" />
<path d="M887.5,111.5l0,-1" class="g2_334" />
<path d="M887.5,111.5l0,-1" class="g2_334" />
<path d="M46.5,254.5l0,-143" class="g2_334" />
<path d="M46.5,256.5l0,-2" class="g2_334" />
<path d="M46.5,256.5l0,-2" class="g2_334" />
<path d="M47.5,256.5l840,0" class="g2_334" />
<path d="M887.5,254.5l0,-143" class="g2_334" />
<path d="M887.5,256.5l0,-2" class="g2_334" />
<path d="M887.5,256.5l0,-2" class="g2_334" />
<path fill-rule="evenodd" d="M47,734l840,0l0,-405L47,329l0,405Z" class="g1_334" />
<g clip-path="url(#c1_334)">
<path fill-rule="evenodd" d="M55,352l825,0l0,-23L55,329l0,23Z" class="g1_334" />
</g>
<path fill-rule="evenodd" d="M55,376l825,0l0,-24L55,352l0,24Z" class="g1_334" />
<path fill-rule="evenodd" d="M55,400l825,0l0,-24L55,376l0,24Z" class="g1_334" />
<path fill-rule="evenodd" d="M55,424l825,0l0,-24L55,400l0,24Z" class="g1_334" />
<path fill-rule="evenodd" d="M55,448l825,0l0,-24L55,424l0,24Z" class="g1_334" />
<path fill-rule="evenodd" d="M55,472l825,0l0,-24L55,448l0,24Z" class="g1_334" />
<path fill-rule="evenodd" d="M55,495l825,0l0,-23L55,472l0,23Z" class="g1_334" />
<path fill-rule="evenodd" d="M55,519l825,0l0,-24L55,495l0,24Z" class="g1_334" />
<path fill-rule="evenodd" d="M55,543l825,0l0,-24L55,519l0,24Z" class="g1_334" />
<path fill-rule="evenodd" d="M55,567l825,0l0,-24L55,543l0,24Z" class="g1_334" />
<path fill-rule="evenodd" d="M55,591l825,0l0,-24L55,567l0,24Z" class="g1_334" />
<path fill-rule="evenodd" d="M55,615l825,0l0,-24L55,591l0,24Z" class="g1_334" />
<path fill-rule="evenodd" d="M55,638l825,0l0,-23L55,615l0,23Z" class="g1_334" />
<path fill-rule="evenodd" d="M55,662l825,0l0,-24L55,638l0,24Z" class="g1_334" />
<path fill-rule="evenodd" d="M55,686l825,0l0,-24L55,662l0,24Z" class="g1_334" />
<path fill-rule="evenodd" d="M55,710l825,0l0,-24L55,686l0,24Z" class="g1_334" />
<path fill-rule="evenodd" d="M55,734l825,0l0,-24L55,710l0,24Z" class="g1_334" />
<path d="M46.5,329.5l0,-2" class="g2_334" />
<path d="M46.5,329.5l0,-2" class="g2_334" />
<path d="M47.5,329.5l840,0" class="g2_334" />
<path d="M887.5,329.5l0,-2" class="g2_334" />
<path d="M887.5,329.5l0,-2" class="g2_334" />
<path d="M46.5,734.5l0,-405" class="g2_334" />
<path d="M46.5,735.5l0,-1" class="g2_334" />
<path d="M46.5,735.5l0,-1" class="g2_334" />
<path d="M47.5,735.5l840,0" class="g2_334" />
<path d="M887.5,734.5l0,-405" class="g2_334" />
<path d="M887.5,735.5l0,-1" class="g2_334" />
<path d="M887.5,735.5l0,-1" class="g2_334" />
<path fill-rule="evenodd" d="M47,846l296,0l0,-24L47,822l0,24Z" class="g3_334" />
<g clip-path="url(#c2_334)">
<path fill-rule="evenodd" d="M55,846l281,0l0,-24L55,822l0,24Z" class="g3_334" />
</g>
<path fill-rule="evenodd" d="M345,846l115,0l0,-24l-115,0l0,24Z" class="g3_334" />
<g clip-path="url(#c3_334)">
<path fill-rule="evenodd" d="M352,846l101,0l0,-24l-101,0l0,24Z" class="g3_334" />
</g>
<path fill-rule="evenodd" d="M462,846l425,0l0,-24l-425,0l0,24Z" class="g3_334" />
<g clip-path="url(#c4_334)">
<path fill-rule="evenodd" d="M469,846l411,0l0,-24l-411,0l0,24Z" class="g3_334" />
</g>
<path d="M46.5,822.5l0,-2" class="g2_334" />
<path d="M46.5,822.5l0,-2" class="g2_334" />
<path d="M47.5,822.5l297,0" class="g2_334" />
<path d="M344.5,822.5l0,-2" class="g2_334" />
<path d="M345.5,822.5l115,0" class="g2_334" />
<path d="M460.5,822.5l0,-2" class="g2_334" />
<path d="M462.5,822.5l425,0" class="g2_334" />
<path d="M887.5,822.5l0,-2" class="g2_334" />
<path d="M887.5,822.5l0,-2" class="g2_334" />
<path d="M46.5,846.5l0,-24" class="g2_334" />
<path d="M344.5,846.5l0,-24" class="g2_334" />
<path d="M460.5,846.5l0,-24" class="g2_334" />
<path d="M887.5,846.5l0,-24" class="g2_334" />
<path fill-rule="evenodd" d="M47,1022l39,0L86,848l-39,0l0,174Z" class="g1_334" />
<g clip-path="url(#c5_334)">
<path fill-rule="evenodd" d="M55,1022l23,0L78,848l-23,0l0,174Z" class="g1_334" />
</g>
<path fill-rule="evenodd" d="M88,895l255,0l0,-47L88,848l0,47Z" class="g1_334" />
<g clip-path="url(#c6_334)">
<path fill-rule="evenodd" d="M95,871l241,0l0,-23L95,848l0,23Z" class="g1_334" />
</g>
<path fill-rule="evenodd" d="M345,895l115,0l0,-47l-115,0l0,47Z" class="g1_334" />
<g clip-path="url(#c7_334)">
<path fill-rule="evenodd" d="M352,871l101,0l0,-23l-101,0l0,23Z" class="g1_334" />
</g>
<path fill-rule="evenodd" d="M462,895l425,0l0,-47l-425,0l0,47Z" class="g1_334" />
<g clip-path="url(#c8_334)">
<path fill-rule="evenodd" d="M469,871l411,0l0,-23l-411,0l0,23Z" class="g1_334" />
</g>
<path fill-rule="evenodd" d="M469,895l411,0l0,-24l-411,0l0,24Z" class="g1_334" />
<path d="M46.5,848.5l0,-2" class="g2_334" />
<path d="M47.5,848.5l39,0" class="g2_334" />
<path d="M86.5,848.5l0,-2" class="g2_334" />
<path d="M88.5,848.5l256,0" class="g2_334" />
<path d="M344.5,848.5l0,-2" class="g2_334" />
<path d="M345.5,848.5l115,0" class="g2_334" />
<path d="M460.5,848.5l0,-2" class="g2_334" />
<path d="M462.5,848.5l425,0" class="g2_334" />
<path d="M887.5,848.5l0,-2" class="g2_334" />
<path d="M46.5,895.5l0,-47" class="g2_334" />
<path d="M86.5,895.5l0,-47" class="g2_334" />
<path d="M344.5,895.5l0,-47" class="g2_334" />
<path d="M460.5,895.5l0,-47" class="g2_334" />
<path d="M887.5,895.5l0,-47" class="g2_334" />
<path fill-rule="evenodd" d="M88,921l255,0l0,-24L88,897l0,24Z" class="g1_334" />
<g clip-path="url(#c9_334)">
<path fill-rule="evenodd" d="M95,921l241,0l0,-24L95,897l0,24Z" class="g1_334" />
</g>
<path fill-rule="evenodd" d="M345,921l115,0l0,-24l-115,0l0,24Z" class="g1_334" />
<g clip-path="url(#c10_334)">
<path fill-rule="evenodd" d="M352,921l101,0l0,-24l-101,0l0,24Z" class="g1_334" />
</g>
<path fill-rule="evenodd" d="M462,921l425,0l0,-24l-425,0l0,24Z" class="g1_334" />
<g clip-path="url(#c11_334)">
<path fill-rule="evenodd" d="M469,921l411,0l0,-24l-411,0l0,24Z" class="g1_334" />
</g>
<path d="M46.5,897.5l0,-2" class="g2_334" />
<path d="M86.5,897.5l0,-2" class="g2_334" />
<path d="M88.5,897.5l256,0" class="g2_334" />
<path d="M344.5,897.5l0,-2" class="g2_334" />
<path d="M345.5,897.5l115,0" class="g2_334" />
<path d="M460.5,897.5l0,-2" class="g2_334" />
<path d="M462.5,897.5l425,0" class="g2_334" />
<path d="M887.5,897.5l0,-2" class="g2_334" />
<path d="M46.5,921.5l0,-24" class="g2_334" />
<path d="M86.5,921.5l0,-24" class="g2_334" />
<path d="M344.5,921.5l0,-24" class="g2_334" />
<path d="M460.5,921.5l0,-24" class="g2_334" />
<path d="M887.5,921.5l0,-24" class="g2_334" />
<path fill-rule="evenodd" d="M88,947l255,0l0,-24L88,923l0,24Z" class="g1_334" />
<path fill-rule="evenodd" d="M95,947l241,0l0,-24L95,923l0,24Z" class="g1_334" />
<path fill-rule="evenodd" d="M345,947l115,0l0,-24l-115,0l0,24Z" class="g1_334" />
<path fill-rule="evenodd" d="M352,947l101,0l0,-24l-101,0l0,24Z" class="g1_334" />
<path fill-rule="evenodd" d="M462,947l425,0l0,-24l-425,0l0,24Z" class="g1_334" />
<path fill-rule="evenodd" d="M469,947l411,0l0,-24l-411,0l0,24Z" class="g1_334" />
<path d="M46.5,923.5l0,-2" class="g2_334" />
<path d="M86.5,923.5l0,-2" class="g2_334" />
<path d="M88.5,923.5l256,0" class="g2_334" />
<path d="M344.5,923.5l0,-2" class="g2_334" />
<path d="M345.5,923.5l115,0" class="g2_334" />
<path d="M460.5,923.5l0,-2" class="g2_334" />
<path d="M462.5,923.5l425,0" class="g2_334" />
<path d="M887.5,923.5l0,-2" class="g2_334" />
<path d="M46.5,947.5l0,-24" class="g2_334" />
<path d="M86.5,947.5l0,-24" class="g2_334" />
<path d="M344.5,947.5l0,-24" class="g2_334" />
<path d="M460.5,947.5l0,-24" class="g2_334" />
<path d="M887.5,947.5l0,-24" class="g2_334" />
<path fill-rule="evenodd" d="M88,1022l39,0l0,-73l-39,0l0,73Z" class="g1_334" />
<g clip-path="url(#c12_334)">
<path fill-rule="evenodd" d="M95,1022l24,0l0,-73l-24,0l0,73Z" class="g1_334" />
<path fill-rule="evenodd" d="M119,1022l8,0l0,-73l-8,0l0,73Z" class="g1_334" />
</g>
<path fill-rule="evenodd" d="M129,1022l39,0l0,-73l-39,0l0,73Z" class="g1_334" />
<g clip-path="url(#c13_334)">
<path fill-rule="evenodd" d="M136,1022l24,0l0,-73l-24,0l0,73Z" class="g1_334" />
<path fill-rule="evenodd" d="M160,1022l8,0l0,-73l-8,0l0,73Z" class="g1_334" />
</g>
<path fill-rule="evenodd" d="M169,1022l40,0l0,-73l-40,0l0,73Z" class="g1_334" />
<g clip-path="url(#c14_334)">
<path fill-rule="evenodd" d="M177,1022l24,0l0,-73l-24,0l0,73Z" class="g1_334" />
<path fill-rule="evenodd" d="M201,1022l8,0l0,-73l-8,0l0,73Z" class="g1_334" />
</g>
<path fill-rule="evenodd" d="M210,972l133,0l0,-23l-133,0l0,23Z" class="g1_334" />
<g clip-path="url(#c15_334)">
<path fill-rule="evenodd" d="M218,972l118,0l0,-23l-118,0l0,23Z" class="g1_334" />
</g>
<path fill-rule="evenodd" d="M345,972l115,0l0,-23l-115,0l0,23Z" class="g1_334" />
<g clip-path="url(#c16_334)">
<path fill-rule="evenodd" d="M352,972l101,0l0,-23l-101,0l0,23Z" class="g1_334" />
</g>
<path fill-rule="evenodd" d="M462,972l425,0l0,-23l-425,0l0,23Z" class="g1_334" />
<g clip-path="url(#c17_334)">
<path fill-rule="evenodd" d="M469,972l411,0l0,-23l-411,0l0,23Z" class="g1_334" />
</g>
<path d="M46.5,949.5l0,-2" class="g2_334" />
<path d="M86.5,949.5l0,-2" class="g2_334" />
<path d="M88.5,949.5l39,0" class="g2_334" />
<path d="M127.5,949.5l0,-2" class="g2_334" />
<path d="M129.5,949.5l39,0" class="g2_334" />
<path d="M168.5,949.5l0,-2" class="g2_334" />
<path d="M169.5,949.5l40,0" class="g2_334" />
<path d="M209.5,949.5l0,-2" class="g2_334" />
<path d="M210.5,949.5l134,0" class="g2_334" />
<path d="M344.5,949.5l0,-2" class="g2_334" />
<path d="M345.5,949.5l115,0" class="g2_334" />
<path d="M460.5,949.5l0,-2" class="g2_334" />
<path d="M462.5,949.5l425,0" class="g2_334" />
<path d="M887.5,949.5l0,-2" class="g2_334" />
<path d="M46.5,972.5l0,-23" class="g2_334" />
<path d="M86.5,972.5l0,-23" class="g2_334" />
<path d="M127.5,972.5l0,-23" class="g2_334" />
<path d="M168.5,972.5l0,-23" class="g2_334" />
<path d="M209.5,972.5l0,-23" class="g2_334" />
<path d="M344.5,972.5l0,-23" class="g2_334" />
<path d="M460.5,972.5l0,-23" class="g2_334" />
<path d="M887.5,972.5l0,-23" class="g2_334" />
<path fill-rule="evenodd" d="M210,1022l133,0l0,-48l-133,0l0,48Z" class="g1_334" />
<path fill-rule="evenodd" d="M218,998l118,0l0,-24l-118,0l0,24Z" class="g1_334" />
<path fill-rule="evenodd" d="M345,1022l115,0l0,-48l-115,0l0,48Z" class="g1_334" />
<path fill-rule="evenodd" d="M352,998l101,0l0,-24l-101,0l0,24Z" class="g1_334" />
<path fill-rule="evenodd" d="M462,1022l425,0l0,-48l-425,0l0,48Z" class="g1_334" />
<path fill-rule="evenodd" d="M469,998l411,0l0,-24l-411,0l0,24Z" class="g1_334" />
<g clip-path="url(#c18_334)">
<path fill-rule="evenodd" d="M469,1022l411,0l0,-24l-411,0l0,24Z" class="g1_334" />
</g>
<path d="M46.5,974.5l0,-2" class="g2_334" />
<path d="M86.5,974.5l0,-2" class="g2_334" />
<path d="M127.5,974.5l0,-2" class="g2_334" />
<path d="M168.5,974.5l0,-2" class="g2_334" />
<path d="M209.5,974.5l0,-2" class="g2_334" />
<path d="M210.5,974.5l134,0" class="g2_334" />
<path d="M344.5,974.5l0,-2" class="g2_334" />
<path d="M345.5,974.5l115,0" class="g2_334" />
<path d="M460.5,974.5l0,-2" class="g2_334" />
<path d="M462.5,974.5l425,0" class="g2_334" />
<path d="M887.5,974.5l0,-2" class="g2_334" />
<path d="M46.5,1022.5l0,-48" class="g2_334" />
<path d="M46.5,1023.5l0,-1" class="g2_334" />
<path d="M46.5,1023.5l0,-1" class="g2_334" />
<path d="M47.5,1023.5l39,0" class="g2_334" />
<path d="M86.5,1022.5l0,-48" class="g2_334" />
<path d="M86.5,1023.5l0,-1" class="g2_334" />
<path d="M88.5,1023.5l39,0" class="g2_334" />
<path d="M127.5,1022.5l0,-48" class="g2_334" />
<path d="M127.5,1023.5l0,-1" class="g2_334" />
<path d="M129.5,1023.5l39,0" class="g2_334" />
<path d="M168.5,1022.5l0,-48" class="g2_334" />
<path d="M168.5,1023.5l0,-1" class="g2_334" />
<path d="M169.5,1023.5l40,0" class="g2_334" />
<path d="M209.5,1022.5l0,-48" class="g2_334" />
<path d="M209.5,1023.5l0,-1" class="g2_334" />
<path d="M210.5,1023.5l134,0" class="g2_334" />
<path d="M344.5,1022.5l0,-48" class="g2_334" />
<path d="M344.5,1023.5l0,-1" class="g2_334" />
<path d="M345.5,1023.5l115,0" class="g2_334" />
<path d="M460.5,1022.5l0,-48" class="g2_334" />
<path d="M460.5,1023.5l0,-1" class="g2_334" />
<path d="M462.5,1023.5l425,0" class="g2_334" />
<path d="M887.5,1022.5l0,-48" class="g2_334" />
<path d="M887.5,1023.5l0,-1" class="g2_334" />
<path d="M887.5,1023.5l0,-1" class="g2_334" />
</svg>