<?xml version="1.0" encoding="UTF-8" standalone="no"?>
<!DOCTYPE svg PUBLIC "-//W3C//DTD SVG 1.1//EN"
"http://www.w3.org/Graphics/SVG/1.1/DTD/svg11.dtd">
<svg version="1.1" xmlns="http://www.w3.org/2000/svg" xmlns:xlink="http://www.w3.org/1999/xlink">
<defs>
<clipPath id="c0_124"><path d="M47.5,445.5l0,-334l840,0l0,334Z" /></clipPath>
<clipPath id="c1_124"><path d="M47.5,680.5l0,-24l102,0l0,24Z" /></clipPath>
<clipPath id="c2_124"><path d="M151.5,680.5l0,-24l736,0l0,24Z" /></clipPath>
<clipPath id="c3_124"><path d="M47.5,706.5l0,-24l102,0l0,24Z" /></clipPath>
<clipPath id="c4_124"><path d="M151.5,706.5l0,-24l736,0l0,24Z" /></clipPath>
<clipPath id="c5_124"><path d="M47.5,731.5l0,-24l102,0l0,24Z" /></clipPath>
<clipPath id="c6_124"><path d="M151.5,731.5l0,-24l736,0l0,24Z" /></clipPath>
<clipPath id="c7_124"><path d="M47.5,756.5l0,-24l102,0l0,24Z" /></clipPath>
<clipPath id="c8_124"><path d="M151.5,756.5l0,-24l736,0l0,24Z" /></clipPath>
<clipPath id="c9_124"><path d="M47.5,782.5l0,-24l102,0l0,24Z" /></clipPath>
<clipPath id="c10_124"><path d="M151.5,782.5l0,-24l736,0l0,24Z" /></clipPath>
<clipPath id="c11_124"><path d="M47.5,807.5l0,-24l102,0l0,24Z" /></clipPath>
<clipPath id="c12_124"><path d="M151.5,807.5l0,-24l736,0l0,24Z" /></clipPath>
<clipPath id="c13_124"><path d="M47.5,832.5l0,-24l102,0l0,24Z" /></clipPath>
<clipPath id="c14_124"><path d="M151.5,832.5l0,-24l736,0l0,24Z" /></clipPath>
<clipPath id="c15_124"><path d="M47.5,858.5l0,-24l102,0l0,24Z" /></clipPath>
<clipPath id="c16_124"><path d="M151.5,858.5l0,-24l736,0l0,24Z" /></clipPath>
<clipPath id="c17_124"><path d="M47.5,883.5l0,-24l102,0l0,24Z" /></clipPath>
<clipPath id="c18_124"><path d="M151.5,883.5l0,-24l736,0l0,24Z" /></clipPath>
<clipPath id="c19_124"><path d="M47.5,908.5l0,-23l102,0l0,23Z" /></clipPath>
<clipPath id="c20_124"><path d="M151.5,908.5l0,-23l736,0l0,23Z" /></clipPath>
<clipPath id="c21_124"><path d="M47.5,934.5l0,-24l102,0l0,24Z" /></clipPath>
<clipPath id="c22_124"><path d="M151.5,934.5l0,-24l736,0l0,24Z" /></clipPath>
<clipPath id="c23_124"><path d="M47.5,959.5l0,-24l102,0l0,24Z" /></clipPath>
<clipPath id="c24_124"><path d="M151.5,959.5l0,-24l736,0l0,24Z" /></clipPath>
<clipPath id="c25_124"><path d="M47.5,985.5l0,-24l102,0l0,24Z" /></clipPath>
<clipPath id="c26_124"><path d="M151.5,985.5l0,-24l736,0l0,24Z" /></clipPath>
<clipPath id="c27_124"><path d="M151.5,1034.5l0,-48l736,0l0,48Z" /></clipPath>
<clipPath id="c28_124"><path d="M47.5,1059.5l0,-24l102,0l0,24Z" /></clipPath>
<clipPath id="c29_124"><path d="M151.5,1059.5l0,-24l736,0l0,24Z" /></clipPath>
<clipPath id="c30_124"><path d="M47.5,1084.5l0,-23l102,0l0,23Z" /></clipPath>
<clipPath id="c31_124"><path d="M151.5,1084.5l0,-23l736,0l0,23Z" /></clipPath>
<style type="text/css"><![CDATA[
.g2_124{
fill: none;
stroke: #7E7E7E;
stroke-width: 1;
stroke-linecap: butt;
stroke-linejoin: miter;
}
.g3_124{
fill: none;
stroke: #0000FF;
stroke-width: 1;
stroke-linecap: butt;
stroke-linejoin: miter;
}
.g4_124{
fill: #DBE5F1;
}
.g1_124{
fill: #F1F1F1;
}
]]></style>
</defs>
<path fill-rule="evenodd" d="M47,445l840,0l0,-334L47,111l0,334Z" class="g1_124" />
<g clip-path="url(#c0_124)">
<path fill-rule="evenodd" d="M55,135l825,0l0,-24L55,111l0,24Z" class="g1_124" />
</g>
<path fill-rule="evenodd" d="M55,159l825,0l0,-24L55,135l0,24Z" class="g1_124" />
<path fill-rule="evenodd" d="M55,182l825,0l0,-23L55,159l0,23Z" class="g1_124" />
<path fill-rule="evenodd" d="M55,206l825,0l0,-24L55,182l0,24Z" class="g1_124" />
<path fill-rule="evenodd" d="M55,230l825,0l0,-24L55,206l0,24Z" class="g1_124" />
<path fill-rule="evenodd" d="M55,254l825,0l0,-24L55,230l0,24Z" class="g1_124" />
<path fill-rule="evenodd" d="M55,278l825,0l0,-24L55,254l0,24Z" class="g1_124" />
<path fill-rule="evenodd" d="M55,302l825,0l0,-24L55,278l0,24Z" class="g1_124" />
<path fill-rule="evenodd" d="M55,325l825,0l0,-23L55,302l0,23Z" class="g1_124" />
<path fill-rule="evenodd" d="M55,349l825,0l0,-24L55,325l0,24Z" class="g1_124" />
<path fill-rule="evenodd" d="M55,373l825,0l0,-24L55,349l0,24Z" class="g1_124" />
<path fill-rule="evenodd" d="M55,397l825,0l0,-24L55,373l0,24Z" class="g1_124" />
<path fill-rule="evenodd" d="M55,421l825,0l0,-24L55,397l0,24Z" class="g1_124" />
<path fill-rule="evenodd" d="M55,445l825,0l0,-24L55,421l0,24Z" class="g1_124" />
<path d="M46.5,111.5l0,-1" class="g2_124" />
<path d="M46.5,111.5l0,-1" class="g2_124" />
<path d="M47.5,111.5l840,0" class="g2_124" />
<path d="M887.5,111.5l0,-1" class="g2_124" />
<path d="M887.5,111.5l0,-1" class="g2_124" />
<path d="M46.5,445.5l0,-334" class="g2_124" />
<path d="M46.5,446.5l0,-1" class="g2_124" />
<path d="M46.5,446.5l0,-1" class="g2_124" />
<path d="M47.5,446.5l840,0" class="g2_124" />
<path d="M887.5,445.5l0,-334" class="g2_124" />
<path d="M887.5,446.5l0,-1" class="g2_124" />
<path d="M887.5,446.5l0,-1" class="g2_124" />
<path d="M371.5,574.5l163,0" class="g3_124" />
<path fill-rule="evenodd" d="M47,604l102,0l0,-24L47,580l0,24Z" class="g4_124" />
<path fill-rule="evenodd" d="M55,604l87,0l0,-24l-87,0l0,24Z" class="g4_124" />
<path fill-rule="evenodd" d="M151,604l736,0l0,-24l-736,0l0,24Z" class="g4_124" />
<path fill-rule="evenodd" d="M158,604l722,0l0,-24l-722,0l0,24Z" class="g4_124" />
<path d="M46.5,580.5l0,-1" class="g2_124" />
<path d="M46.5,580.5l0,-1" class="g2_124" />
<path d="M47.5,580.5l102,0" class="g2_124" />
<path d="M149.5,580.5l0,-1" class="g2_124" />
<path d="M151.5,580.5l736,0" class="g2_124" />
<path d="M887.5,580.5l0,-1" class="g2_124" />
<path d="M887.5,580.5l0,-1" class="g2_124" />
<path d="M46.5,604.5l0,-24" class="g2_124" />
<path d="M149.5,604.5l0,-24" class="g2_124" />
<path d="M887.5,604.5l0,-24" class="g2_124" />
<path fill-rule="evenodd" d="M47,630l102,0l0,-24L47,606l0,24Z" class="g1_124" />
<path fill-rule="evenodd" d="M55,630l87,0l0,-24l-87,0l0,24Z" class="g1_124" />
<path fill-rule="evenodd" d="M151,630l736,0l0,-24l-736,0l0,24Z" class="g1_124" />
<path fill-rule="evenodd" d="M158,630l722,0l0,-24l-722,0l0,24Z" class="g1_124" />
<path d="M46.5,605.5l0,-1" class="g2_124" />
<path d="M47.5,605.5l102,0" class="g2_124" />
<path d="M149.5,605.5l0,-1" class="g2_124" />
<path d="M151.5,605.5l736,0" class="g2_124" />
<path d="M887.5,605.5l0,-1" class="g2_124" />
<path d="M46.5,630.5l0,-25" class="g2_124" />
<path d="M149.5,630.5l0,-25" class="g2_124" />
<path d="M887.5,630.5l0,-25" class="g2_124" />
<path fill-rule="evenodd" d="M47,655l102,0l0,-24L47,631l0,24Z" class="g1_124" />
<path fill-rule="evenodd" d="M55,655l87,0l0,-24l-87,0l0,24Z" class="g1_124" />
<path fill-rule="evenodd" d="M151,655l736,0l0,-24l-736,0l0,24Z" class="g1_124" />
<path fill-rule="evenodd" d="M158,655l722,0l0,-24l-722,0l0,24Z" class="g1_124" />
<path d="M46.5,631.5l0,-1" class="g2_124" />
<path d="M47.5,631.5l102,0" class="g2_124" />
<path d="M149.5,631.5l0,-1" class="g2_124" />
<path d="M151.5,631.5l736,0" class="g2_124" />
<path d="M887.5,631.5l0,-1" class="g2_124" />
<path d="M46.5,655.5l0,-24" class="g2_124" />
<path d="M149.5,655.5l0,-24" class="g2_124" />
<path d="M887.5,655.5l0,-24" class="g2_124" />
<path fill-rule="evenodd" d="M47,680l102,0l0,-24L47,656l0,24Z" class="g1_124" />
<g clip-path="url(#c1_124)">
<path fill-rule="evenodd" d="M55,680l87,0l0,-24l-87,0l0,24Z" class="g1_124" />
</g>
<path fill-rule="evenodd" d="M151,680l736,0l0,-24l-736,0l0,24Z" class="g1_124" />
<g clip-path="url(#c2_124)">
<path fill-rule="evenodd" d="M158,680l722,0l0,-24l-722,0l0,24Z" class="g1_124" />
</g>
<path d="M46.5,656.5l0,-1" class="g2_124" />
<path d="M47.5,656.5l102,0" class="g2_124" />
<path d="M149.5,656.5l0,-1" class="g2_124" />
<path d="M151.5,656.5l736,0" class="g2_124" />
<path d="M887.5,656.5l0,-1" class="g2_124" />
<path d="M46.5,680.5l0,-24" class="g2_124" />
<path d="M149.5,680.5l0,-24" class="g2_124" />
<path d="M887.5,680.5l0,-24" class="g2_124" />
<path fill-rule="evenodd" d="M47,706l102,0l0,-24L47,682l0,24Z" class="g1_124" />
<g clip-path="url(#c3_124)">
<path fill-rule="evenodd" d="M55,706l87,0l0,-24l-87,0l0,24Z" class="g1_124" />
</g>
<path fill-rule="evenodd" d="M151,706l736,0l0,-24l-736,0l0,24Z" class="g1_124" />
<g clip-path="url(#c4_124)">
<path fill-rule="evenodd" d="M158,706l722,0l0,-24l-722,0l0,24Z" class="g1_124" />
</g>
<path d="M46.5,682.5l0,-2" class="g2_124" />
<path d="M47.5,682.5l102,0" class="g2_124" />
<path d="M149.5,682.5l0,-2" class="g2_124" />
<path d="M151.5,682.5l736,0" class="g2_124" />
<path d="M887.5,682.5l0,-2" class="g2_124" />
<path d="M46.5,706.5l0,-24" class="g2_124" />
<path d="M149.5,706.5l0,-24" class="g2_124" />
<path d="M887.5,706.5l0,-24" class="g2_124" />
<path fill-rule="evenodd" d="M47,731l102,0l0,-24L47,707l0,24Z" class="g1_124" />
<g clip-path="url(#c5_124)">
<path fill-rule="evenodd" d="M55,731l87,0l0,-24l-87,0l0,24Z" class="g1_124" />
</g>
<path fill-rule="evenodd" d="M151,731l736,0l0,-24l-736,0l0,24Z" class="g1_124" />
<g clip-path="url(#c6_124)">
<path fill-rule="evenodd" d="M158,731l722,0l0,-24l-722,0l0,24Z" class="g1_124" />
</g>
<path d="M46.5,707.5l0,-1" class="g2_124" />
<path d="M47.5,707.5l102,0" class="g2_124" />
<path d="M149.5,707.5l0,-1" class="g2_124" />
<path d="M151.5,707.5l736,0" class="g2_124" />
<path d="M887.5,707.5l0,-1" class="g2_124" />
<path d="M46.5,731.5l0,-24" class="g2_124" />
<path d="M149.5,731.5l0,-24" class="g2_124" />
<path d="M887.5,731.5l0,-24" class="g2_124" />
<path fill-rule="evenodd" d="M47,756l102,0l0,-24L47,732l0,24Z" class="g1_124" />
<g clip-path="url(#c7_124)">
<path fill-rule="evenodd" d="M55,756l87,0l0,-24l-87,0l0,24Z" class="g1_124" />
</g>
<path fill-rule="evenodd" d="M151,756l736,0l0,-24l-736,0l0,24Z" class="g1_124" />
<g clip-path="url(#c8_124)">
<path fill-rule="evenodd" d="M158,756l722,0l0,-24l-722,0l0,24Z" class="g1_124" />
</g>
<path d="M46.5,732.5l0,-1" class="g2_124" />
<path d="M47.5,732.5l102,0" class="g2_124" />
<path d="M149.5,732.5l0,-1" class="g2_124" />
<path d="M151.5,732.5l736,0" class="g2_124" />
<path d="M887.5,732.5l0,-1" class="g2_124" />
<path d="M46.5,756.5l0,-24" class="g2_124" />
<path d="M149.5,756.5l0,-24" class="g2_124" />
<path d="M887.5,756.5l0,-24" class="g2_124" />
<path fill-rule="evenodd" d="M47,782l102,0l0,-24L47,758l0,24Z" class="g1_124" />
<g clip-path="url(#c9_124)">
<path fill-rule="evenodd" d="M55,782l87,0l0,-24l-87,0l0,24Z" class="g1_124" />
</g>
<path fill-rule="evenodd" d="M151,782l736,0l0,-24l-736,0l0,24Z" class="g1_124" />
<g clip-path="url(#c10_124)">
<path fill-rule="evenodd" d="M158,782l722,0l0,-24l-722,0l0,24Z" class="g1_124" />
</g>
<path d="M46.5,758.5l0,-2" class="g2_124" />
<path d="M47.5,758.5l102,0" class="g2_124" />
<path d="M149.5,758.5l0,-2" class="g2_124" />
<path d="M151.5,758.5l736,0" class="g2_124" />
<path d="M887.5,758.5l0,-2" class="g2_124" />
<path d="M46.5,782.5l0,-24" class="g2_124" />
<path d="M149.5,782.5l0,-24" class="g2_124" />
<path d="M887.5,782.5l0,-24" class="g2_124" />
<path fill-rule="evenodd" d="M47,807l102,0l0,-24L47,783l0,24Z" class="g1_124" />
<g clip-path="url(#c11_124)">
<path fill-rule="evenodd" d="M55,807l87,0l0,-24l-87,0l0,24Z" class="g1_124" />
</g>
<path fill-rule="evenodd" d="M151,807l736,0l0,-24l-736,0l0,24Z" class="g1_124" />
<g clip-path="url(#c12_124)">
<path fill-rule="evenodd" d="M158,807l722,0l0,-24l-722,0l0,24Z" class="g1_124" />
</g>
<path d="M46.5,783.5l0,-1" class="g2_124" />
<path d="M47.5,783.5l102,0" class="g2_124" />
<path d="M149.5,783.5l0,-1" class="g2_124" />
<path d="M151.5,783.5l736,0" class="g2_124" />
<path d="M887.5,783.5l0,-1" class="g2_124" />
<path d="M46.5,807.5l0,-24" class="g2_124" />
<path d="M149.5,807.5l0,-24" class="g2_124" />
<path d="M887.5,807.5l0,-24" class="g2_124" />
<path fill-rule="evenodd" d="M47,832l102,0l0,-24L47,808l0,24Z" class="g1_124" />
<g clip-path="url(#c13_124)">
<path fill-rule="evenodd" d="M55,832l87,0l0,-24l-87,0l0,24Z" class="g1_124" />
</g>
<path fill-rule="evenodd" d="M151,832l736,0l0,-24l-736,0l0,24Z" class="g1_124" />
<g clip-path="url(#c14_124)">
<path fill-rule="evenodd" d="M158,832l722,0l0,-24l-722,0l0,24Z" class="g1_124" />
</g>
<path d="M46.5,808.5l0,-1" class="g2_124" />
<path d="M47.5,808.5l102,0" class="g2_124" />
<path d="M149.5,808.5l0,-1" class="g2_124" />
<path d="M151.5,808.5l736,0" class="g2_124" />
<path d="M887.5,808.5l0,-1" class="g2_124" />
<path d="M46.5,832.5l0,-24" class="g2_124" />
<path d="M149.5,832.5l0,-24" class="g2_124" />
<path d="M887.5,832.5l0,-24" class="g2_124" />
<path fill-rule="evenodd" d="M47,858l102,0l0,-24L47,834l0,24Z" class="g1_124" />
<g clip-path="url(#c15_124)">
<path fill-rule="evenodd" d="M55,858l87,0l0,-24l-87,0l0,24Z" class="g1_124" />
</g>
<path fill-rule="evenodd" d="M151,858l736,0l0,-24l-736,0l0,24Z" class="g1_124" />
<g clip-path="url(#c16_124)">
<path fill-rule="evenodd" d="M158,858l722,0l0,-24l-722,0l0,24Z" class="g1_124" />
</g>
<path d="M46.5,834.5l0,-2" class="g2_124" />
<path d="M47.5,834.5l102,0" class="g2_124" />
<path d="M149.5,834.5l0,-2" class="g2_124" />
<path d="M151.5,834.5l736,0" class="g2_124" />
<path d="M887.5,834.5l0,-2" class="g2_124" />
<path d="M46.5,858.5l0,-24" class="g2_124" />
<path d="M149.5,858.5l0,-24" class="g2_124" />
<path d="M887.5,858.5l0,-24" class="g2_124" />
<path fill-rule="evenodd" d="M47,883l102,0l0,-24L47,859l0,24Z" class="g1_124" />
<g clip-path="url(#c17_124)">
<path fill-rule="evenodd" d="M55,883l87,0l0,-24l-87,0l0,24Z" class="g1_124" />
</g>
<path fill-rule="evenodd" d="M151,883l736,0l0,-24l-736,0l0,24Z" class="g1_124" />
<g clip-path="url(#c18_124)">
<path fill-rule="evenodd" d="M158,883l722,0l0,-24l-722,0l0,24Z" class="g1_124" />
</g>
<path d="M46.5,859.5l0,-1" class="g2_124" />
<path d="M47.5,859.5l102,0" class="g2_124" />
<path d="M149.5,859.5l0,-1" class="g2_124" />
<path d="M151.5,859.5l736,0" class="g2_124" />
<path d="M887.5,859.5l0,-1" class="g2_124" />
<path d="M46.5,883.5l0,-24" class="g2_124" />
<path d="M149.5,883.5l0,-24" class="g2_124" />
<path d="M887.5,883.5l0,-24" class="g2_124" />
<path fill-rule="evenodd" d="M47,908l102,0l0,-23L47,885l0,23Z" class="g1_124" />
<g clip-path="url(#c19_124)">
<path fill-rule="evenodd" d="M55,908l87,0l0,-23l-87,0l0,23Z" class="g1_124" />
</g>
<path fill-rule="evenodd" d="M151,908l736,0l0,-23l-736,0l0,23Z" class="g1_124" />
<g clip-path="url(#c20_124)">
<path fill-rule="evenodd" d="M158,908l722,0l0,-23l-722,0l0,23Z" class="g1_124" />
</g>
<path d="M46.5,885.5l0,-2" class="g2_124" />
<path d="M47.5,885.5l102,0" class="g2_124" />
<path d="M149.5,885.5l0,-2" class="g2_124" />
<path d="M151.5,885.5l736,0" class="g2_124" />
<path d="M887.5,885.5l0,-2" class="g2_124" />
<path d="M46.5,908.5l0,-23" class="g2_124" />
<path d="M149.5,908.5l0,-23" class="g2_124" />
<path d="M887.5,908.5l0,-23" class="g2_124" />
<path fill-rule="evenodd" d="M47,934l102,0l0,-24L47,910l0,24Z" class="g1_124" />
<g clip-path="url(#c21_124)">
<path fill-rule="evenodd" d="M55,934l87,0l0,-24l-87,0l0,24Z" class="g1_124" />
</g>
<path fill-rule="evenodd" d="M151,934l736,0l0,-24l-736,0l0,24Z" class="g1_124" />
<g clip-path="url(#c22_124)">
<path fill-rule="evenodd" d="M158,934l722,0l0,-24l-722,0l0,24Z" class="g1_124" />
</g>
<path d="M46.5,910.5l0,-2" class="g2_124" />
<path d="M47.5,910.5l102,0" class="g2_124" />
<path d="M149.5,910.5l0,-2" class="g2_124" />
<path d="M151.5,910.5l736,0" class="g2_124" />
<path d="M887.5,910.5l0,-2" class="g2_124" />
<path d="M46.5,934.5l0,-24" class="g2_124" />
<path d="M149.5,934.5l0,-24" class="g2_124" />
<path d="M887.5,934.5l0,-24" class="g2_124" />
<path fill-rule="evenodd" d="M47,959l102,0l0,-24L47,935l0,24Z" class="g1_124" />
<g clip-path="url(#c23_124)">
<path fill-rule="evenodd" d="M55,959l87,0l0,-24l-87,0l0,24Z" class="g1_124" />
</g>
<path fill-rule="evenodd" d="M151,959l736,0l0,-24l-736,0l0,24Z" class="g1_124" />
<g clip-path="url(#c24_124)">
<path fill-rule="evenodd" d="M158,959l722,0l0,-24l-722,0l0,24Z" class="g1_124" />
</g>
<path d="M46.5,935.5l0,-1" class="g2_124" />
<path d="M47.5,935.5l102,0" class="g2_124" />
<path d="M149.5,935.5l0,-1" class="g2_124" />
<path d="M151.5,935.5l736,0" class="g2_124" />
<path d="M887.5,935.5l0,-1" class="g2_124" />
<path d="M46.5,959.5l0,-24" class="g2_124" />
<path d="M149.5,959.5l0,-24" class="g2_124" />
<path d="M887.5,959.5l0,-24" class="g2_124" />
<path fill-rule="evenodd" d="M47,985l102,0l0,-24L47,961l0,24Z" class="g1_124" />
<g clip-path="url(#c25_124)">
<path fill-rule="evenodd" d="M55,985l87,0l0,-24l-87,0l0,24Z" class="g1_124" />
</g>
<path fill-rule="evenodd" d="M151,985l736,0l0,-24l-736,0l0,24Z" class="g1_124" />
<g clip-path="url(#c26_124)">
<path fill-rule="evenodd" d="M158,985l722,0l0,-24l-722,0l0,24Z" class="g1_124" />
</g>
<path d="M46.5,961.5l0,-2" class="g2_124" />
<path d="M47.5,961.5l102,0" class="g2_124" />
<path d="M149.5,961.5l0,-2" class="g2_124" />
<path d="M151.5,961.5l736,0" class="g2_124" />
<path d="M887.5,961.5l0,-2" class="g2_124" />
<path d="M46.5,985.5l0,-24" class="g2_124" />
<path d="M149.5,985.5l0,-24" class="g2_124" />
<path d="M887.5,985.5l0,-24" class="g2_124" />
<path fill-rule="evenodd" d="M47,1034l102,0l0,-48L47,986l0,48Z" class="g1_124" />
<path fill-rule="evenodd" d="M55,1010l87,0l0,-24l-87,0l0,24Z" class="g1_124" />
<path fill-rule="evenodd" d="M151,1034l736,0l0,-48l-736,0l0,48Z" class="g1_124" />
<path fill-rule="evenodd" d="M158,1010l722,0l0,-24l-722,0l0,24Z" class="g1_124" />
<g clip-path="url(#c27_124)">
<path fill-rule="evenodd" d="M158,1034l722,0l0,-24l-722,0l0,24Z" class="g1_124" />
</g>
<path d="M46.5,986.5l0,-1" class="g2_124" />
<path d="M47.5,986.5l102,0" class="g2_124" />
<path d="M149.5,986.5l0,-1" class="g2_124" />
<path d="M151.5,986.5l736,0" class="g2_124" />
<path d="M887.5,986.5l0,-1" class="g2_124" />
<path d="M46.5,1034.5l0,-48" class="g2_124" />
<path d="M149.5,1034.5l0,-48" class="g2_124" />
<path d="M887.5,1034.5l0,-48" class="g2_124" />
<path fill-rule="evenodd" d="M47,1059l102,0l0,-24l-102,0l0,24Z" class="g1_124" />
<g clip-path="url(#c28_124)">
<path fill-rule="evenodd" d="M55,1059l87,0l0,-24l-87,0l0,24Z" class="g1_124" />
</g>
<path fill-rule="evenodd" d="M151,1059l736,0l0,-24l-736,0l0,24Z" class="g1_124" />
<g clip-path="url(#c29_124)">
<path fill-rule="evenodd" d="M158,1059l722,0l0,-24l-722,0l0,24Z" class="g1_124" />
</g>
<path d="M46.5,1035.5l0,-1" class="g2_124" />
<path d="M47.5,1035.5l102,0" class="g2_124" />
<path d="M149.5,1035.5l0,-1" class="g2_124" />
<path d="M151.5,1035.5l736,0" class="g2_124" />
<path d="M887.5,1035.5l0,-1" class="g2_124" />
<path d="M46.5,1059.5l0,-24" class="g2_124" />
<path d="M149.5,1059.5l0,-24" class="g2_124" />
<path d="M887.5,1059.5l0,-24" class="g2_124" />
<path fill-rule="evenodd" d="M47,1084l102,0l0,-23l-102,0l0,23Z" class="g1_124" />
<g clip-path="url(#c30_124)">
<path fill-rule="evenodd" d="M55,1084l87,0l0,-23l-87,0l0,23Z" class="g1_124" />
</g>
<path fill-rule="evenodd" d="M151,1084l736,0l0,-23l-736,0l0,23Z" class="g1_124" />
<g clip-path="url(#c31_124)">
<path fill-rule="evenodd" d="M158,1084l722,0l0,-23l-722,0l0,23Z" class="g1_124" />
</g>
<path d="M46.5,1061.5l0,-2" class="g2_124" />
<path d="M47.5,1061.5l102,0" class="g2_124" />
<path d="M149.5,1061.5l0,-2" class="g2_124" />
<path d="M151.5,1061.5l736,0" class="g2_124" />
<path d="M887.5,1061.5l0,-2" class="g2_124" />
<path d="M46.5,1085.5l0,-24" class="g2_124" />
<path d="M46.5,1086.5l0,-1" class="g2_124" />
<path d="M46.5,1086.5l0,-1" class="g2_124" />
<path d="M47.5,1086.5l102,0" class="g2_124" />
<path d="M149.5,1085.5l0,-24" class="g2_124" />
<path d="M149.5,1086.5l0,-1" class="g2_124" />
<path d="M151.5,1086.5l736,0" class="g2_124" />
<path d="M887.5,1085.5l0,-24" class="g2_124" />
<path d="M887.5,1086.5l0,-1" class="g2_124" />
<path d="M887.5,1086.5l0,-1" class="g2_124" />
</svg>