<?xml version="1.0" encoding="UTF-8" standalone="no"?>
<!DOCTYPE svg PUBLIC "-//W3C//DTD SVG 1.1//EN"
"http://www.w3.org/Graphics/SVG/1.1/DTD/svg11.dtd">
<svg version="1.1" xmlns="http://www.w3.org/2000/svg" xmlns:xlink="http://www.w3.org/1999/xlink">
<defs>
<clipPath id="c0_143"><path d="M247.5,159.5l0,-48l151,0l0,48Z" /></clipPath>
<clipPath id="c1_143"><path d="M399.5,159.5l0,-48l68,0l0,48Z" /></clipPath>
<clipPath id="c2_143"><path d="M468.5,159.5l0,-48l342,0l0,48Z" /></clipPath>
<clipPath id="c3_143"><path d="M812.5,159.5l0,-48l60,0l0,48Z" /></clipPath>
<clipPath id="c4_143"><path d="M247.5,232.5l0,-72l151,0l0,72Z" /></clipPath>
<clipPath id="c5_143"><path d="M399.5,232.5l0,-72l68,0l0,72Z" /></clipPath>
<clipPath id="c6_143"><path d="M468.5,232.5l0,-72l342,0l0,72Z" /></clipPath>
<clipPath id="c7_143"><path d="M812.5,232.5l0,-72l60,0l0,72Z" /></clipPath>
<clipPath id="c8_143"><path d="M247.5,305.5l0,-72l151,0l0,72Z" /></clipPath>
<clipPath id="c9_143"><path d="M399.5,305.5l0,-72l68,0l0,72Z" /></clipPath>
<clipPath id="c10_143"><path d="M468.5,305.5l0,-72l342,0l0,72Z" /></clipPath>
<clipPath id="c11_143"><path d="M812.5,305.5l0,-72l60,0l0,72Z" /></clipPath>
<clipPath id="c12_143"><path d="M247.5,338.5l0,-32l151,0l0,32Z" /></clipPath>
<clipPath id="c13_143"><path d="M399.5,338.5l0,-32l68,0l0,32Z" /></clipPath>
<clipPath id="c14_143"><path d="M468.5,338.5l0,-32l342,0l0,32Z" /></clipPath>
<clipPath id="c15_143"><path d="M812.5,338.5l0,-32l60,0l0,32Z" /></clipPath>
<clipPath id="c16_143"><path d="M247.5,363.5l0,-24l151,0l0,24Z" /></clipPath>
<clipPath id="c17_143"><path d="M399.5,363.5l0,-24l68,0l0,24Z" /></clipPath>
<clipPath id="c18_143"><path d="M468.5,363.5l0,-24l342,0l0,24Z" /></clipPath>
<clipPath id="c19_143"><path d="M812.5,363.5l0,-24l60,0l0,24Z" /></clipPath>
<clipPath id="c20_143"><path d="M247.5,389.5l0,-24l151,0l0,24Z" /></clipPath>
<clipPath id="c21_143"><path d="M399.5,389.5l0,-24l68,0l0,24Z" /></clipPath>
<clipPath id="c22_143"><path d="M468.5,389.5l0,-24l342,0l0,24Z" /></clipPath>
<clipPath id="c23_143"><path d="M812.5,389.5l0,-24l60,0l0,24Z" /></clipPath>
<clipPath id="c24_143"><path d="M247.5,414.5l0,-24l151,0l0,24Z" /></clipPath>
<clipPath id="c25_143"><path d="M399.5,414.5l0,-24l68,0l0,24Z" /></clipPath>
<clipPath id="c26_143"><path d="M468.5,414.5l0,-24l342,0l0,24Z" /></clipPath>
<clipPath id="c27_143"><path d="M812.5,414.5l0,-24l60,0l0,24Z" /></clipPath>
<clipPath id="c28_143"><path d="M47.5,771.5l0,-24l840,0l0,24Z" /></clipPath>
<clipPath id="c29_143"><path d="M47.5,1084.5l0,-286l846,0l0,286Z" /></clipPath>
<style type="text/css"><![CDATA[
.g2_143{
fill: none;
stroke: #7E7E7E;
stroke-width: 1;
stroke-linecap: butt;
stroke-linejoin: miter;
}
.g1_143{
fill: #F1F1F1;
}
]]></style>
</defs>
<path fill-rule="evenodd" d="M47,159l33,0l0,-48l-33,0l0,48Z" class="g1_143" />
<path fill-rule="evenodd" d="M81,159l32,0l0,-48l-32,0l0,48Z" class="g1_143" />
<path fill-rule="evenodd" d="M115,159l31,0l0,-48l-31,0l0,48Z" class="g1_143" />
<path fill-rule="evenodd" d="M148,159l31,0l0,-48l-31,0l0,48Z" class="g1_143" />
<path fill-rule="evenodd" d="M181,159l31,0l0,-48l-31,0l0,48Z" class="g1_143" />
<path fill-rule="evenodd" d="M214,159l31,0l0,-48l-31,0l0,48Z" class="g1_143" />
<path fill-rule="evenodd" d="M247,159l151,0l0,-48l-151,0l0,48Z" class="g1_143" />
<g clip-path="url(#c0_143)">
<path fill-rule="evenodd" d="M254,135l136,0l0,-24l-136,0l0,24Z" class="g1_143" />
</g>
<path fill-rule="evenodd" d="M399,159l68,0l0,-48l-68,0l0,48Z" class="g1_143" />
<g clip-path="url(#c1_143)">
<path fill-rule="evenodd" d="M407,135l52,0l0,-24l-52,0l0,24Z" class="g1_143" />
</g>
<path fill-rule="evenodd" d="M468,159l342,0l0,-48l-342,0l0,48Z" class="g1_143" />
<g clip-path="url(#c2_143)">
<path fill-rule="evenodd" d="M476,135l327,0l0,-24l-327,0l0,24Z" class="g1_143" />
</g>
<path fill-rule="evenodd" d="M476,159l327,0l0,-24l-327,0l0,24Z" class="g1_143" />
<path fill-rule="evenodd" d="M812,159l60,0l0,-48l-60,0l0,48Z" class="g1_143" />
<g clip-path="url(#c3_143)">
<path fill-rule="evenodd" d="M819,135l45,0l0,-24l-45,0l0,24Z" class="g1_143" />
</g>
<path d="M46.5,111.5l0,-1" class="g2_143" />
<path d="M46.5,111.5l0,-1" class="g2_143" />
<path d="M47.5,111.5l33,0" class="g2_143" />
<path d="M80.5,111.5l0,-1" class="g2_143" />
<path d="M81.5,111.5l32,0" class="g2_143" />
<path d="M113.5,111.5l0,-1" class="g2_143" />
<path d="M114.5,111.5l32,0" class="g2_143" />
<path d="M146.5,111.5l0,-1" class="g2_143" />
<path d="M148.5,111.5l31,0" class="g2_143" />
<path d="M179.5,111.5l0,-1" class="g2_143" />
<path d="M181.5,111.5l31,0" class="g2_143" />
<path d="M212.5,111.5l0,-1" class="g2_143" />
<path d="M214.5,111.5l31,0" class="g2_143" />
<path d="M245.5,111.5l0,-1" class="g2_143" />
<path d="M247.5,111.5l151,0" class="g2_143" />
<path d="M398.5,111.5l0,-1" class="g2_143" />
<path d="M399.5,111.5l68,0" class="g2_143" />
<path d="M467.5,111.5l0,-1" class="g2_143" />
<path d="M468.5,111.5l342,0" class="g2_143" />
<path d="M810.5,111.5l0,-1" class="g2_143" />
<path d="M812.5,111.5l60,0" class="g2_143" />
<path d="M872.5,111.5l0,-1" class="g2_143" />
<path d="M872.5,111.5l0,-1" class="g2_143" />
<path d="M46.5,159.5l0,-48" class="g2_143" />
<path d="M80.5,159.5l0,-48" class="g2_143" />
<path d="M113.5,159.5l0,-48" class="g2_143" />
<path d="M146.5,159.5l0,-48" class="g2_143" />
<path d="M179.5,159.5l0,-48" class="g2_143" />
<path d="M212.5,159.5l0,-48" class="g2_143" />
<path d="M245.5,159.5l0,-48" class="g2_143" />
<path d="M398.5,159.5l0,-48" class="g2_143" />
<path d="M467.5,159.5l0,-48" class="g2_143" />
<path d="M810.5,159.5l0,-48" class="g2_143" />
<path d="M872.5,159.5l0,-48" class="g2_143" />
<path fill-rule="evenodd" d="M47,232l33,0l0,-73l-33,0l0,73Z" class="g1_143" />
<path fill-rule="evenodd" d="M81,232l32,0l0,-73l-32,0l0,73Z" class="g1_143" />
<path fill-rule="evenodd" d="M115,232l31,0l0,-73l-31,0l0,73Z" class="g1_143" />
<path fill-rule="evenodd" d="M148,232l31,0l0,-73l-31,0l0,73Z" class="g1_143" />
<path fill-rule="evenodd" d="M181,232l31,0l0,-73l-31,0l0,73Z" class="g1_143" />
<path fill-rule="evenodd" d="M214,232l31,0l0,-73l-31,0l0,73Z" class="g1_143" />
<path fill-rule="evenodd" d="M247,232l151,0l0,-72l-151,0l0,72Z" class="g1_143" />
<g clip-path="url(#c4_143)">
<path fill-rule="evenodd" d="M254,184l136,0l0,-24l-136,0l0,24Z" class="g1_143" />
</g>
<path fill-rule="evenodd" d="M399,232l68,0l0,-72l-68,0l0,72Z" class="g1_143" />
<g clip-path="url(#c5_143)">
<path fill-rule="evenodd" d="M407,184l52,0l0,-24l-52,0l0,24Z" class="g1_143" />
</g>
<path fill-rule="evenodd" d="M468,232l342,0l0,-72l-342,0l0,72Z" class="g1_143" />
<g clip-path="url(#c6_143)">
<path fill-rule="evenodd" d="M476,184l327,0l0,-24l-327,0l0,24Z" class="g1_143" />
</g>
<path fill-rule="evenodd" d="M476,208l327,0l0,-24l-327,0l0,24Z" class="g1_143" />
<path fill-rule="evenodd" d="M476,232l327,0l0,-24l-327,0l0,24Z" class="g1_143" />
<path fill-rule="evenodd" d="M812,232l60,0l0,-72l-60,0l0,72Z" class="g1_143" />
<g clip-path="url(#c7_143)">
<path fill-rule="evenodd" d="M819,184l45,0l0,-24l-45,0l0,24Z" class="g1_143" />
</g>
<path d="M46.5,160.5l0,-1" class="g2_143" />
<path d="M80.5,160.5l0,-1" class="g2_143" />
<path d="M113.5,160.5l0,-1" class="g2_143" />
<path d="M146.5,160.5l0,-1" class="g2_143" />
<path d="M179.5,160.5l0,-1" class="g2_143" />
<path d="M212.5,160.5l0,-1" class="g2_143" />
<path d="M245.5,160.5l0,-1" class="g2_143" />
<path d="M247.5,160.5l151,0" class="g2_143" />
<path d="M398.5,160.5l0,-1" class="g2_143" />
<path d="M399.5,160.5l68,0" class="g2_143" />
<path d="M467.5,160.5l0,-1" class="g2_143" />
<path d="M468.5,160.5l342,0" class="g2_143" />
<path d="M810.5,160.5l0,-1" class="g2_143" />
<path d="M812.5,160.5l60,0" class="g2_143" />
<path d="M872.5,160.5l0,-1" class="g2_143" />
<path d="M46.5,232.5l0,-72" class="g2_143" />
<path d="M80.5,232.5l0,-72" class="g2_143" />
<path d="M113.5,232.5l0,-72" class="g2_143" />
<path d="M146.5,232.5l0,-72" class="g2_143" />
<path d="M179.5,232.5l0,-72" class="g2_143" />
<path d="M212.5,232.5l0,-72" class="g2_143" />
<path d="M245.5,232.5l0,-72" class="g2_143" />
<path d="M398.5,232.5l0,-72" class="g2_143" />
<path d="M467.5,232.5l0,-72" class="g2_143" />
<path d="M810.5,232.5l0,-72" class="g2_143" />
<path d="M872.5,232.5l0,-72" class="g2_143" />
<path fill-rule="evenodd" d="M47,305l33,0l0,-73l-33,0l0,73Z" class="g1_143" />
<path fill-rule="evenodd" d="M81,305l32,0l0,-73l-32,0l0,73Z" class="g1_143" />
<path fill-rule="evenodd" d="M115,305l31,0l0,-73l-31,0l0,73Z" class="g1_143" />
<path fill-rule="evenodd" d="M148,305l31,0l0,-73l-31,0l0,73Z" class="g1_143" />
<path fill-rule="evenodd" d="M181,305l31,0l0,-73l-31,0l0,73Z" class="g1_143" />
<path fill-rule="evenodd" d="M214,305l31,0l0,-73l-31,0l0,73Z" class="g1_143" />
<path fill-rule="evenodd" d="M247,305l151,0l0,-72l-151,0l0,72Z" class="g1_143" />
<g clip-path="url(#c8_143)">
<path fill-rule="evenodd" d="M254,257l136,0l0,-24l-136,0l0,24Z" class="g1_143" />
</g>
<path fill-rule="evenodd" d="M399,305l68,0l0,-72l-68,0l0,72Z" class="g1_143" />
<g clip-path="url(#c9_143)">
<path fill-rule="evenodd" d="M407,257l52,0l0,-24l-52,0l0,24Z" class="g1_143" />
</g>
<path fill-rule="evenodd" d="M468,305l342,0l0,-72l-342,0l0,72Z" class="g1_143" />
<g clip-path="url(#c10_143)">
<path fill-rule="evenodd" d="M476,257l327,0l0,-24l-327,0l0,24Z" class="g1_143" />
</g>
<path fill-rule="evenodd" d="M476,281l327,0l0,-24l-327,0l0,24Z" class="g1_143" />
<path fill-rule="evenodd" d="M476,305l327,0l0,-24l-327,0l0,24Z" class="g1_143" />
<path fill-rule="evenodd" d="M812,305l60,0l0,-72l-60,0l0,72Z" class="g1_143" />
<g clip-path="url(#c11_143)">
<path fill-rule="evenodd" d="M819,257l45,0l0,-24l-45,0l0,24Z" class="g1_143" />
</g>
<path d="M46.5,233.5l0,-1" class="g2_143" />
<path d="M80.5,233.5l0,-1" class="g2_143" />
<path d="M113.5,233.5l0,-1" class="g2_143" />
<path d="M146.5,233.5l0,-1" class="g2_143" />
<path d="M179.5,233.5l0,-1" class="g2_143" />
<path d="M212.5,233.5l0,-1" class="g2_143" />
<path d="M245.5,233.5l0,-1" class="g2_143" />
<path d="M247.5,233.5l151,0" class="g2_143" />
<path d="M398.5,233.5l0,-1" class="g2_143" />
<path d="M399.5,233.5l68,0" class="g2_143" />
<path d="M467.5,233.5l0,-1" class="g2_143" />
<path d="M468.5,233.5l342,0" class="g2_143" />
<path d="M810.5,233.5l0,-1" class="g2_143" />
<path d="M812.5,233.5l60,0" class="g2_143" />
<path d="M872.5,233.5l0,-1" class="g2_143" />
<path d="M46.5,305.5l0,-72" class="g2_143" />
<path d="M80.5,305.5l0,-72" class="g2_143" />
<path d="M113.5,305.5l0,-72" class="g2_143" />
<path d="M146.5,305.5l0,-72" class="g2_143" />
<path d="M179.5,305.5l0,-72" class="g2_143" />
<path d="M212.5,305.5l0,-72" class="g2_143" />
<path d="M245.5,305.5l0,-72" class="g2_143" />
<path d="M398.5,305.5l0,-72" class="g2_143" />
<path d="M467.5,305.5l0,-72" class="g2_143" />
<path d="M810.5,305.5l0,-72" class="g2_143" />
<path d="M872.5,305.5l0,-72" class="g2_143" />
<path fill-rule="evenodd" d="M47,338l33,0l0,-33l-33,0l0,33Z" class="g1_143" />
<path fill-rule="evenodd" d="M81,338l32,0l0,-33l-32,0l0,33Z" class="g1_143" />
<path fill-rule="evenodd" d="M115,338l31,0l0,-33l-31,0l0,33Z" class="g1_143" />
<path fill-rule="evenodd" d="M148,338l31,0l0,-33l-31,0l0,33Z" class="g1_143" />
<path fill-rule="evenodd" d="M181,587l31,0l0,-281l-31,0l0,281Z" class="g1_143" />
<path fill-rule="evenodd" d="M188,587l24,0l0,-281l-24,0l0,281Z" class="g1_143" />
<path fill-rule="evenodd" d="M214,587l31,0l0,-281l-31,0l0,281Z" class="g1_143" />
<path fill-rule="evenodd" d="M221,587l24,0l0,-281l-24,0l0,281Z" class="g1_143" />
<path fill-rule="evenodd" d="M247,338l151,0l0,-32l-151,0l0,32Z" class="g1_143" />
<g clip-path="url(#c12_143)">
<path fill-rule="evenodd" d="M254,330l136,0l0,-24l-136,0l0,24Z" class="g1_143" />
</g>
<path fill-rule="evenodd" d="M399,338l68,0l0,-32l-68,0l0,32Z" class="g1_143" />
<g clip-path="url(#c13_143)">
<path fill-rule="evenodd" d="M407,330l52,0l0,-24l-52,0l0,24Z" class="g1_143" />
</g>
<path fill-rule="evenodd" d="M468,338l342,0l0,-32l-342,0l0,32Z" class="g1_143" />
<g clip-path="url(#c14_143)">
<path fill-rule="evenodd" d="M476,330l327,0l0,-24l-327,0l0,24Z" class="g1_143" />
</g>
<path fill-rule="evenodd" d="M812,338l60,0l0,-32l-60,0l0,32Z" class="g1_143" />
<g clip-path="url(#c15_143)">
<path fill-rule="evenodd" d="M819,330l45,0l0,-24l-45,0l0,24Z" class="g1_143" />
</g>
<path d="M46.5,306.5l0,-1" class="g2_143" />
<path d="M80.5,306.5l0,-1" class="g2_143" />
<path d="M113.5,306.5l0,-1" class="g2_143" />
<path d="M146.5,306.5l0,-1" class="g2_143" />
<path d="M179.5,306.5l0,-1" class="g2_143" />
<path d="M181.5,306.5l31,0" class="g2_143" />
<path d="M212.5,306.5l0,-1" class="g2_143" />
<path d="M214.5,306.5l31,0" class="g2_143" />
<path d="M245.5,306.5l0,-1" class="g2_143" />
<path d="M247.5,306.5l151,0" class="g2_143" />
<path d="M398.5,306.5l0,-1" class="g2_143" />
<path d="M399.5,306.5l68,0" class="g2_143" />
<path d="M467.5,306.5l0,-1" class="g2_143" />
<path d="M468.5,306.5l342,0" class="g2_143" />
<path d="M810.5,306.5l0,-1" class="g2_143" />
<path d="M812.5,306.5l60,0" class="g2_143" />
<path d="M872.5,306.5l0,-1" class="g2_143" />
<path d="M46.5,338.5l0,-32" class="g2_143" />
<path d="M80.5,338.5l0,-32" class="g2_143" />
<path d="M113.5,338.5l0,-32" class="g2_143" />
<path d="M146.5,338.5l0,-32" class="g2_143" />
<path d="M179.5,338.5l0,-32" class="g2_143" />
<path d="M212.5,338.5l0,-32" class="g2_143" />
<path d="M245.5,338.5l0,-32" class="g2_143" />
<path d="M398.5,338.5l0,-32" class="g2_143" />
<path d="M467.5,338.5l0,-32" class="g2_143" />
<path d="M810.5,338.5l0,-32" class="g2_143" />
<path d="M872.5,338.5l0,-32" class="g2_143" />
<path fill-rule="evenodd" d="M47,363l33,0l0,-25l-33,0l0,25Z" class="g1_143" />
<path fill-rule="evenodd" d="M81,363l32,0l0,-25l-32,0l0,25Z" class="g1_143" />
<path fill-rule="evenodd" d="M115,363l31,0l0,-25l-31,0l0,25Z" class="g1_143" />
<path fill-rule="evenodd" d="M148,363l31,0l0,-25l-31,0l0,25Z" class="g1_143" />
<path fill-rule="evenodd" d="M247,363l151,0l0,-24l-151,0l0,24Z" class="g1_143" />
<g clip-path="url(#c16_143)">
<path fill-rule="evenodd" d="M254,363l136,0l0,-24l-136,0l0,24Z" class="g1_143" />
</g>
<path fill-rule="evenodd" d="M399,363l68,0l0,-24l-68,0l0,24Z" class="g1_143" />
<g clip-path="url(#c17_143)">
<path fill-rule="evenodd" d="M407,363l52,0l0,-24l-52,0l0,24Z" class="g1_143" />
</g>
<path fill-rule="evenodd" d="M468,363l342,0l0,-24l-342,0l0,24Z" class="g1_143" />
<g clip-path="url(#c18_143)">
<path fill-rule="evenodd" d="M476,363l327,0l0,-24l-327,0l0,24Z" class="g1_143" />
</g>
<path fill-rule="evenodd" d="M812,363l60,0l0,-24l-60,0l0,24Z" class="g1_143" />
<g clip-path="url(#c19_143)">
<path fill-rule="evenodd" d="M819,363l45,0l0,-24l-45,0l0,24Z" class="g1_143" />
</g>
<path d="M46.5,339.5l0,-1" class="g2_143" />
<path d="M80.5,339.5l0,-1" class="g2_143" />
<path d="M113.5,339.5l0,-1" class="g2_143" />
<path d="M146.5,339.5l0,-1" class="g2_143" />
<path d="M179.5,339.5l0,-1" class="g2_143" />
<path d="M212.5,339.5l0,-1" class="g2_143" />
<path d="M245.5,339.5l0,-1" class="g2_143" />
<path d="M247.5,339.5l151,0" class="g2_143" />
<path d="M398.5,339.5l0,-1" class="g2_143" />
<path d="M399.5,339.5l68,0" class="g2_143" />
<path d="M467.5,339.5l0,-1" class="g2_143" />
<path d="M468.5,339.5l342,0" class="g2_143" />
<path d="M810.5,339.5l0,-1" class="g2_143" />
<path d="M812.5,339.5l60,0" class="g2_143" />
<path d="M872.5,339.5l0,-1" class="g2_143" />
<path d="M46.5,363.5l0,-24" class="g2_143" />
<path d="M80.5,363.5l0,-24" class="g2_143" />
<path d="M113.5,363.5l0,-24" class="g2_143" />
<path d="M146.5,363.5l0,-24" class="g2_143" />
<path d="M179.5,363.5l0,-24" class="g2_143" />
<path d="M212.5,363.5l0,-24" class="g2_143" />
<path d="M245.5,363.5l0,-24" class="g2_143" />
<path d="M398.5,363.5l0,-24" class="g2_143" />
<path d="M467.5,363.5l0,-24" class="g2_143" />
<path d="M810.5,363.5l0,-24" class="g2_143" />
<path d="M872.5,363.5l0,-24" class="g2_143" />
<path fill-rule="evenodd" d="M47,389l33,0l0,-26l-33,0l0,26Z" class="g1_143" />
<path fill-rule="evenodd" d="M81,389l32,0l0,-26l-32,0l0,26Z" class="g1_143" />
<path fill-rule="evenodd" d="M115,389l31,0l0,-26l-31,0l0,26Z" class="g1_143" />
<path fill-rule="evenodd" d="M148,389l31,0l0,-26l-31,0l0,26Z" class="g1_143" />
<path fill-rule="evenodd" d="M247,389l151,0l0,-24l-151,0l0,24Z" class="g1_143" />
<g clip-path="url(#c20_143)">
<path fill-rule="evenodd" d="M254,389l136,0l0,-24l-136,0l0,24Z" class="g1_143" />
</g>
<path fill-rule="evenodd" d="M399,389l68,0l0,-24l-68,0l0,24Z" class="g1_143" />
<g clip-path="url(#c21_143)">
<path fill-rule="evenodd" d="M407,389l52,0l0,-24l-52,0l0,24Z" class="g1_143" />
</g>
<path fill-rule="evenodd" d="M468,389l342,0l0,-24l-342,0l0,24Z" class="g1_143" />
<g clip-path="url(#c22_143)">
<path fill-rule="evenodd" d="M476,389l327,0l0,-24l-327,0l0,24Z" class="g1_143" />
</g>
<path fill-rule="evenodd" d="M812,389l60,0l0,-24l-60,0l0,24Z" class="g1_143" />
<g clip-path="url(#c23_143)">
<path fill-rule="evenodd" d="M819,389l45,0l0,-24l-45,0l0,24Z" class="g1_143" />
</g>
<path d="M46.5,365.5l0,-2" class="g2_143" />
<path d="M80.5,365.5l0,-2" class="g2_143" />
<path d="M113.5,365.5l0,-2" class="g2_143" />
<path d="M146.5,365.5l0,-2" class="g2_143" />
<path d="M179.5,365.5l0,-2" class="g2_143" />
<path d="M212.5,365.5l0,-2" class="g2_143" />
<path d="M245.5,365.5l0,-2" class="g2_143" />
<path d="M247.5,365.5l151,0" class="g2_143" />
<path d="M398.5,365.5l0,-2" class="g2_143" />
<path d="M399.5,365.5l68,0" class="g2_143" />
<path d="M467.5,365.5l0,-2" class="g2_143" />
<path d="M468.5,365.5l342,0" class="g2_143" />
<path d="M810.5,365.5l0,-2" class="g2_143" />
<path d="M812.5,365.5l60,0" class="g2_143" />
<path d="M872.5,365.5l0,-2" class="g2_143" />
<path d="M46.5,389.5l0,-24" class="g2_143" />
<path d="M80.5,389.5l0,-24" class="g2_143" />
<path d="M113.5,389.5l0,-24" class="g2_143" />
<path d="M146.5,389.5l0,-24" class="g2_143" />
<path d="M179.5,389.5l0,-24" class="g2_143" />
<path d="M212.5,389.5l0,-24" class="g2_143" />
<path d="M245.5,389.5l0,-24" class="g2_143" />
<path d="M398.5,389.5l0,-24" class="g2_143" />
<path d="M467.5,389.5l0,-24" class="g2_143" />
<path d="M810.5,389.5l0,-24" class="g2_143" />
<path d="M872.5,389.5l0,-24" class="g2_143" />
<path fill-rule="evenodd" d="M47,414l33,0l0,-25l-33,0l0,25Z" class="g1_143" />
<path fill-rule="evenodd" d="M81,414l32,0l0,-25l-32,0l0,25Z" class="g1_143" />
<path fill-rule="evenodd" d="M115,414l31,0l0,-25l-31,0l0,25Z" class="g1_143" />
<path fill-rule="evenodd" d="M148,414l31,0l0,-25l-31,0l0,25Z" class="g1_143" />
<path fill-rule="evenodd" d="M247,414l151,0l0,-24l-151,0l0,24Z" class="g1_143" />
<g clip-path="url(#c24_143)">
<path fill-rule="evenodd" d="M254,414l136,0l0,-24l-136,0l0,24Z" class="g1_143" />
</g>
<path fill-rule="evenodd" d="M399,414l68,0l0,-24l-68,0l0,24Z" class="g1_143" />
<g clip-path="url(#c25_143)">
<path fill-rule="evenodd" d="M407,414l52,0l0,-24l-52,0l0,24Z" class="g1_143" />
</g>
<path fill-rule="evenodd" d="M468,414l342,0l0,-24l-342,0l0,24Z" class="g1_143" />
<g clip-path="url(#c26_143)">
<path fill-rule="evenodd" d="M476,414l327,0l0,-24l-327,0l0,24Z" class="g1_143" />
</g>
<path fill-rule="evenodd" d="M812,414l60,0l0,-24l-60,0l0,24Z" class="g1_143" />
<g clip-path="url(#c27_143)">
<path fill-rule="evenodd" d="M819,414l45,0l0,-24l-45,0l0,24Z" class="g1_143" />
</g>
<path d="M46.5,390.5l0,-1" class="g2_143" />
<path d="M80.5,390.5l0,-1" class="g2_143" />
<path d="M113.5,390.5l0,-1" class="g2_143" />
<path d="M146.5,390.5l0,-1" class="g2_143" />
<path d="M179.5,390.5l0,-1" class="g2_143" />
<path d="M212.5,390.5l0,-1" class="g2_143" />
<path d="M245.5,390.5l0,-1" class="g2_143" />
<path d="M247.5,390.5l151,0" class="g2_143" />
<path d="M398.5,390.5l0,-1" class="g2_143" />
<path d="M399.5,390.5l68,0" class="g2_143" />
<path d="M467.5,390.5l0,-1" class="g2_143" />
<path d="M468.5,390.5l342,0" class="g2_143" />
<path d="M810.5,390.5l0,-1" class="g2_143" />
<path d="M812.5,390.5l60,0" class="g2_143" />
<path d="M872.5,390.5l0,-1" class="g2_143" />
<path d="M46.5,414.5l0,-24" class="g2_143" />
<path d="M80.5,414.5l0,-24" class="g2_143" />
<path d="M113.5,414.5l0,-24" class="g2_143" />
<path d="M146.5,414.5l0,-24" class="g2_143" />
<path d="M179.5,414.5l0,-24" class="g2_143" />
<path d="M212.5,414.5l0,-24" class="g2_143" />
<path d="M245.5,414.5l0,-24" class="g2_143" />
<path d="M398.5,414.5l0,-24" class="g2_143" />
<path d="M467.5,414.5l0,-24" class="g2_143" />
<path d="M810.5,414.5l0,-24" class="g2_143" />
<path d="M872.5,414.5l0,-24" class="g2_143" />
<path fill-rule="evenodd" d="M47,439l33,0l0,-25l-33,0l0,25Z" class="g1_143" />
<path fill-rule="evenodd" d="M81,439l32,0l0,-25l-32,0l0,25Z" class="g1_143" />
<path fill-rule="evenodd" d="M115,439l31,0l0,-25l-31,0l0,25Z" class="g1_143" />
<path fill-rule="evenodd" d="M148,439l31,0l0,-25l-31,0l0,25Z" class="g1_143" />
<path fill-rule="evenodd" d="M247,439l151,0l0,-24l-151,0l0,24Z" class="g1_143" />
<path fill-rule="evenodd" d="M254,439l136,0l0,-24l-136,0l0,24Z" class="g1_143" />
<path fill-rule="evenodd" d="M399,439l68,0l0,-24l-68,0l0,24Z" class="g1_143" />
<path fill-rule="evenodd" d="M407,439l52,0l0,-24l-52,0l0,24Z" class="g1_143" />
<path fill-rule="evenodd" d="M468,439l342,0l0,-24l-342,0l0,24Z" class="g1_143" />
<path fill-rule="evenodd" d="M476,439l327,0l0,-24l-327,0l0,24Z" class="g1_143" />
<path fill-rule="evenodd" d="M812,439l60,0l0,-24l-60,0l0,24Z" class="g1_143" />
<path fill-rule="evenodd" d="M819,439l45,0l0,-24l-45,0l0,24Z" class="g1_143" />
<path d="M46.5,415.5l0,-1" class="g2_143" />
<path d="M80.5,415.5l0,-1" class="g2_143" />
<path d="M113.5,415.5l0,-1" class="g2_143" />
<path d="M146.5,415.5l0,-1" class="g2_143" />
<path d="M179.5,415.5l0,-1" class="g2_143" />
<path d="M212.5,415.5l0,-1" class="g2_143" />
<path d="M245.5,415.5l0,-1" class="g2_143" />
<path d="M247.5,415.5l151,0" class="g2_143" />
<path d="M398.5,415.5l0,-1" class="g2_143" />
<path d="M399.5,415.5l68,0" class="g2_143" />
<path d="M467.5,415.5l0,-1" class="g2_143" />
<path d="M468.5,415.5l342,0" class="g2_143" />
<path d="M810.5,415.5l0,-1" class="g2_143" />
<path d="M812.5,415.5l60,0" class="g2_143" />
<path d="M872.5,415.5l0,-1" class="g2_143" />
<path d="M46.5,439.5l0,-24" class="g2_143" />
<path d="M80.5,439.5l0,-24" class="g2_143" />
<path d="M113.5,439.5l0,-24" class="g2_143" />
<path d="M146.5,439.5l0,-24" class="g2_143" />
<path d="M179.5,439.5l0,-24" class="g2_143" />
<path d="M212.5,439.5l0,-24" class="g2_143" />
<path d="M245.5,439.5l0,-24" class="g2_143" />
<path d="M398.5,439.5l0,-24" class="g2_143" />
<path d="M467.5,439.5l0,-24" class="g2_143" />
<path d="M810.5,439.5l0,-24" class="g2_143" />
<path d="M872.5,439.5l0,-24" class="g2_143" />
<path fill-rule="evenodd" d="M47,489l33,0l0,-50l-33,0l0,50Z" class="g1_143" />
<path fill-rule="evenodd" d="M81,489l32,0l0,-50l-32,0l0,50Z" class="g1_143" />
<path fill-rule="evenodd" d="M115,489l31,0l0,-50l-31,0l0,50Z" class="g1_143" />
<path fill-rule="evenodd" d="M148,489l31,0l0,-50l-31,0l0,50Z" class="g1_143" />
<path fill-rule="evenodd" d="M247,587l31,0l0,-146l-31,0l0,146Z" class="g1_143" />
<path fill-rule="evenodd" d="M254,587l24,0l0,-146l-24,0l0,146Z" class="g1_143" />
<path fill-rule="evenodd" d="M280,587l31,0l0,-146l-31,0l0,146Z" class="g1_143" />
<path fill-rule="evenodd" d="M287,587l24,0l0,-146l-24,0l0,146Z" class="g1_143" />
<path fill-rule="evenodd" d="M313,489l85,0l0,-48l-85,0l0,48Z" class="g1_143" />
<path fill-rule="evenodd" d="M320,465l70,0l0,-24l-70,0l0,24Z" class="g1_143" />
<path fill-rule="evenodd" d="M320,489l70,0l0,-24l-70,0l0,24Z" class="g1_143" />
<path fill-rule="evenodd" d="M399,489l68,0l0,-48l-68,0l0,48Z" class="g1_143" />
<path fill-rule="evenodd" d="M407,465l52,0l0,-24l-52,0l0,24Z" class="g1_143" />
<path fill-rule="evenodd" d="M468,489l342,0l0,-48l-342,0l0,48Z" class="g1_143" />
<path fill-rule="evenodd" d="M476,465l327,0l0,-24l-327,0l0,24Z" class="g1_143" />
<path fill-rule="evenodd" d="M812,489l60,0l0,-48l-60,0l0,48Z" class="g1_143" />
<path fill-rule="evenodd" d="M819,465l45,0l0,-24l-45,0l0,24Z" class="g1_143" />
<path d="M46.5,441.5l0,-2" class="g2_143" />
<path d="M80.5,441.5l0,-2" class="g2_143" />
<path d="M113.5,441.5l0,-2" class="g2_143" />
<path d="M146.5,441.5l0,-2" class="g2_143" />
<path d="M179.5,441.5l0,-2" class="g2_143" />
<path d="M212.5,441.5l0,-2" class="g2_143" />
<path d="M245.5,441.5l0,-2" class="g2_143" />
<path d="M247.5,441.5l31,0" class="g2_143" />
<path d="M278.5,441.5l0,-2" class="g2_143" />
<path d="M280.5,441.5l31,0" class="g2_143" />
<path d="M311.5,441.5l0,-2" class="g2_143" />
<path d="M313.5,441.5l85,0" class="g2_143" />
<path d="M398.5,441.5l0,-2" class="g2_143" />
<path d="M399.5,441.5l68,0" class="g2_143" />
<path d="M467.5,441.5l0,-2" class="g2_143" />
<path d="M468.5,441.5l342,0" class="g2_143" />
<path d="M810.5,441.5l0,-2" class="g2_143" />
<path d="M812.5,441.5l60,0" class="g2_143" />
<path d="M872.5,441.5l0,-2" class="g2_143" />
<path d="M46.5,489.5l0,-48" class="g2_143" />
<path d="M80.5,489.5l0,-48" class="g2_143" />
<path d="M113.5,489.5l0,-48" class="g2_143" />
<path d="M146.5,489.5l0,-48" class="g2_143" />
<path d="M179.5,489.5l0,-48" class="g2_143" />
<path d="M212.5,489.5l0,-48" class="g2_143" />
<path d="M245.5,489.5l0,-48" class="g2_143" />
<path d="M278.5,489.5l0,-48" class="g2_143" />
<path d="M311.5,489.5l0,-48" class="g2_143" />
<path d="M398.5,489.5l0,-48" class="g2_143" />
<path d="M467.5,489.5l0,-48" class="g2_143" />
<path d="M810.5,489.5l0,-48" class="g2_143" />
<path d="M872.5,489.5l0,-48" class="g2_143" />
<path fill-rule="evenodd" d="M47,538l33,0l0,-49l-33,0l0,49Z" class="g1_143" />
<path fill-rule="evenodd" d="M81,538l32,0l0,-49l-32,0l0,49Z" class="g1_143" />
<path fill-rule="evenodd" d="M115,538l31,0l0,-49l-31,0l0,49Z" class="g1_143" />
<path fill-rule="evenodd" d="M148,538l31,0l0,-49l-31,0l0,49Z" class="g1_143" />
<path fill-rule="evenodd" d="M313,538l85,0l0,-48l-85,0l0,48Z" class="g1_143" />
<path fill-rule="evenodd" d="M320,514l70,0l0,-24l-70,0l0,24Z" class="g1_143" />
<path fill-rule="evenodd" d="M320,538l70,0l0,-24l-70,0l0,24Z" class="g1_143" />
<path fill-rule="evenodd" d="M399,538l68,0l0,-48l-68,0l0,48Z" class="g1_143" />
<path fill-rule="evenodd" d="M407,514l52,0l0,-24l-52,0l0,24Z" class="g1_143" />
<path fill-rule="evenodd" d="M468,538l342,0l0,-48l-342,0l0,48Z" class="g1_143" />
<path fill-rule="evenodd" d="M476,514l327,0l0,-24l-327,0l0,24Z" class="g1_143" />
<path fill-rule="evenodd" d="M812,538l60,0l0,-48l-60,0l0,48Z" class="g1_143" />
<path fill-rule="evenodd" d="M819,514l45,0l0,-24l-45,0l0,24Z" class="g1_143" />
<path d="M46.5,490.5l0,-1" class="g2_143" />
<path d="M80.5,490.5l0,-1" class="g2_143" />
<path d="M113.5,490.5l0,-1" class="g2_143" />
<path d="M146.5,490.5l0,-1" class="g2_143" />
<path d="M179.5,490.5l0,-1" class="g2_143" />
<path d="M212.5,490.5l0,-1" class="g2_143" />
<path d="M245.5,490.5l0,-1" class="g2_143" />
<path d="M278.5,490.5l0,-1" class="g2_143" />
<path d="M311.5,490.5l0,-1" class="g2_143" />
<path d="M313.5,490.5l85,0" class="g2_143" />
<path d="M398.5,490.5l0,-1" class="g2_143" />
<path d="M399.5,490.5l68,0" class="g2_143" />
<path d="M467.5,490.5l0,-1" class="g2_143" />
<path d="M468.5,490.5l342,0" class="g2_143" />
<path d="M810.5,490.5l0,-1" class="g2_143" />
<path d="M812.5,490.5l60,0" class="g2_143" />
<path d="M872.5,490.5l0,-1" class="g2_143" />
<path d="M46.5,538.5l0,-48" class="g2_143" />
<path d="M80.5,538.5l0,-48" class="g2_143" />
<path d="M113.5,538.5l0,-48" class="g2_143" />
<path d="M146.5,538.5l0,-48" class="g2_143" />
<path d="M179.5,538.5l0,-48" class="g2_143" />
<path d="M212.5,538.5l0,-48" class="g2_143" />
<path d="M245.5,538.5l0,-48" class="g2_143" />
<path d="M278.5,538.5l0,-48" class="g2_143" />
<path d="M311.5,538.5l0,-48" class="g2_143" />
<path d="M398.5,538.5l0,-48" class="g2_143" />
<path d="M467.5,538.5l0,-48" class="g2_143" />
<path d="M810.5,538.5l0,-48" class="g2_143" />
<path d="M872.5,538.5l0,-48" class="g2_143" />
<path fill-rule="evenodd" d="M47,587l33,0l0,-49l-33,0l0,49Z" class="g1_143" />
<path fill-rule="evenodd" d="M81,587l32,0l0,-49l-32,0l0,49Z" class="g1_143" />
<path fill-rule="evenodd" d="M115,587l31,0l0,-49l-31,0l0,49Z" class="g1_143" />
<path fill-rule="evenodd" d="M148,587l31,0l0,-49l-31,0l0,49Z" class="g1_143" />
<path fill-rule="evenodd" d="M313,587l85,0l0,-48l-85,0l0,48Z" class="g1_143" />
<path fill-rule="evenodd" d="M320,563l70,0l0,-24l-70,0l0,24Z" class="g1_143" />
<path fill-rule="evenodd" d="M320,587l70,0l0,-24l-70,0l0,24Z" class="g1_143" />
<path fill-rule="evenodd" d="M399,587l68,0l0,-48l-68,0l0,48Z" class="g1_143" />
<path fill-rule="evenodd" d="M407,563l52,0l0,-24l-52,0l0,24Z" class="g1_143" />
<path fill-rule="evenodd" d="M468,587l342,0l0,-48l-342,0l0,48Z" class="g1_143" />
<path fill-rule="evenodd" d="M476,563l327,0l0,-24l-327,0l0,24Z" class="g1_143" />
<path fill-rule="evenodd" d="M812,587l60,0l0,-48l-60,0l0,48Z" class="g1_143" />
<path fill-rule="evenodd" d="M819,563l45,0l0,-24l-45,0l0,24Z" class="g1_143" />
<path d="M46.5,539.5l0,-1" class="g2_143" />
<path d="M80.5,539.5l0,-1" class="g2_143" />
<path d="M113.5,539.5l0,-1" class="g2_143" />
<path d="M146.5,539.5l0,-1" class="g2_143" />
<path d="M179.5,539.5l0,-1" class="g2_143" />
<path d="M212.5,539.5l0,-1" class="g2_143" />
<path d="M245.5,539.5l0,-1" class="g2_143" />
<path d="M278.5,539.5l0,-1" class="g2_143" />
<path d="M311.5,539.5l0,-1" class="g2_143" />
<path d="M313.5,539.5l85,0" class="g2_143" />
<path d="M398.5,539.5l0,-1" class="g2_143" />
<path d="M399.5,539.5l68,0" class="g2_143" />
<path d="M467.5,539.5l0,-1" class="g2_143" />
<path d="M468.5,539.5l342,0" class="g2_143" />
<path d="M810.5,539.5l0,-1" class="g2_143" />
<path d="M812.5,539.5l60,0" class="g2_143" />
<path d="M872.5,539.5l0,-1" class="g2_143" />
<path d="M46.5,587.5l0,-48" class="g2_143" />
<path d="M80.5,587.5l0,-48" class="g2_143" />
<path d="M113.5,587.5l0,-48" class="g2_143" />
<path d="M146.5,587.5l0,-48" class="g2_143" />
<path d="M179.5,587.5l0,-48" class="g2_143" />
<path d="M212.5,587.5l0,-48" class="g2_143" />
<path d="M245.5,587.5l0,-48" class="g2_143" />
<path d="M278.5,587.5l0,-48" class="g2_143" />
<path d="M311.5,587.5l0,-48" class="g2_143" />
<path d="M398.5,587.5l0,-48" class="g2_143" />
<path d="M467.5,587.5l0,-48" class="g2_143" />
<path d="M810.5,587.5l0,-48" class="g2_143" />
<path d="M872.5,587.5l0,-48" class="g2_143" />
<path fill-rule="evenodd" d="M47,618l33,0l0,-31l-33,0l0,31Z" class="g1_143" />
<path fill-rule="evenodd" d="M81,618l212,0l0,-30L81,588l0,30Z" class="g1_143" />
<path fill-rule="evenodd" d="M89,612l197,0l0,-24L89,588l0,24Z" class="g1_143" />
<path fill-rule="evenodd" d="M295,618l172,0l0,-30l-172,0l0,30Z" class="g1_143" />
<path fill-rule="evenodd" d="M302,612l157,0l0,-24l-157,0l0,24Z" class="g1_143" />
<path fill-rule="evenodd" d="M468,618l342,0l0,-30l-342,0l0,30Z" class="g1_143" />
<path fill-rule="evenodd" d="M476,612l327,0l0,-24l-327,0l0,24Z" class="g1_143" />
<path fill-rule="evenodd" d="M812,618l60,0l0,-30l-60,0l0,30Z" class="g1_143" />
<path fill-rule="evenodd" d="M819,612l45,0l0,-24l-45,0l0,24Z" class="g1_143" />
<path d="M46.5,588.5l0,-1" class="g2_143" />
<path d="M80.5,588.5l0,-1" class="g2_143" />
<path d="M81.5,588.5l32,0" class="g2_143" />
<path d="M113.5,588.5l0,-1" class="g2_143" />
<path d="M114.5,588.5l32,0" class="g2_143" />
<path d="M146.5,588.5l0,-1" class="g2_143" />
<path d="M148.5,588.5l31,0" class="g2_143" />
<path d="M179.5,588.5l0,-1" class="g2_143" />
<path d="M181.5,588.5l31,0" class="g2_143" />
<path d="M212.5,588.5l0,-1" class="g2_143" />
<path d="M214.5,588.5l31,0" class="g2_143" />
<path d="M245.5,588.5l0,-1" class="g2_143" />
<path d="M247.5,588.5l31,0" class="g2_143" />
<path d="M278.5,588.5l0,-1" class="g2_143" />
<path d="M280.5,588.5l13,0" class="g2_143" />
<path d="M293.5,588.5l0,-1" class="g2_143" />
<path d="M295.5,588.5l16,0" class="g2_143" />
<path d="M311.5,588.5l0,-1" class="g2_143" />
<path d="M313.5,588.5l85,0" class="g2_143" />
<path d="M398.5,588.5l0,-1" class="g2_143" />
<path d="M399.5,588.5l68,0" class="g2_143" />
<path d="M467.5,588.5l0,-1" class="g2_143" />
<path d="M468.5,588.5l342,0" class="g2_143" />
<path d="M810.5,588.5l0,-1" class="g2_143" />
<path d="M812.5,588.5l60,0" class="g2_143" />
<path d="M872.5,588.5l0,-1" class="g2_143" />
<path d="M46.5,618.5l0,-30" class="g2_143" />
<path d="M80.5,618.5l0,-30" class="g2_143" />
<path d="M293.5,618.5l0,-30" class="g2_143" />
<path d="M467.5,618.5l0,-30" class="g2_143" />
<path d="M810.5,618.5l0,-30" class="g2_143" />
<path d="M872.5,618.5l0,-30" class="g2_143" />
<path fill-rule="evenodd" d="M47,649l33,0l0,-31l-33,0l0,31Z" class="g1_143" />
<path fill-rule="evenodd" d="M81,649l212,0l0,-30L81,619l0,30Z" class="g1_143" />
<path fill-rule="evenodd" d="M89,643l197,0l0,-24L89,619l0,24Z" class="g1_143" />
<path fill-rule="evenodd" d="M295,649l172,0l0,-30l-172,0l0,30Z" class="g1_143" />
<path fill-rule="evenodd" d="M302,643l157,0l0,-24l-157,0l0,24Z" class="g1_143" />
<path fill-rule="evenodd" d="M468,649l342,0l0,-30l-342,0l0,30Z" class="g1_143" />
<path fill-rule="evenodd" d="M476,643l327,0l0,-24l-327,0l0,24Z" class="g1_143" />
<path fill-rule="evenodd" d="M812,649l60,0l0,-30l-60,0l0,30Z" class="g1_143" />
<path fill-rule="evenodd" d="M819,643l45,0l0,-24l-45,0l0,24Z" class="g1_143" />
<path d="M46.5,619.5l0,-1" class="g2_143" />
<path d="M80.5,619.5l0,-1" class="g2_143" />
<path d="M81.5,619.5l212,0" class="g2_143" />
<path d="M293.5,619.5l0,-1" class="g2_143" />
<path d="M295.5,619.5l172,0" class="g2_143" />
<path d="M467.5,619.5l0,-1" class="g2_143" />
<path d="M468.5,619.5l342,0" class="g2_143" />
<path d="M810.5,619.5l0,-1" class="g2_143" />
<path d="M812.5,619.5l60,0" class="g2_143" />
<path d="M872.5,619.5l0,-1" class="g2_143" />
<path d="M46.5,649.5l0,-30" class="g2_143" />
<path d="M46.5,650.5l0,-1" class="g2_143" />
<path d="M46.5,650.5l0,-1" class="g2_143" />
<path d="M47.5,650.5l33,0" class="g2_143" />
<path d="M80.5,649.5l0,-30" class="g2_143" />
<path d="M80.5,650.5l0,-1" class="g2_143" />
<path d="M81.5,650.5l212,0" class="g2_143" />
<path d="M293.5,649.5l0,-30" class="g2_143" />
<path d="M293.5,650.5l0,-1" class="g2_143" />
<path d="M295.5,650.5l172,0" class="g2_143" />
<path d="M467.5,649.5l0,-30" class="g2_143" />
<path d="M467.5,650.5l0,-1" class="g2_143" />
<path d="M468.5,650.5l342,0" class="g2_143" />
<path d="M810.5,649.5l0,-30" class="g2_143" />
<path d="M810.5,650.5l0,-1" class="g2_143" />
<path d="M812.5,650.5l60,0" class="g2_143" />
<path d="M872.5,649.5l0,-30" class="g2_143" />
<path d="M872.5,650.5l0,-1" class="g2_143" />
<path d="M872.5,650.5l0,-1" class="g2_143" />
<path fill-rule="evenodd" d="M47,771l840,0l0,-24L47,747l0,24Z" class="g1_143" />
<g clip-path="url(#c28_143)">
<path fill-rule="evenodd" d="M55,771l825,0l0,-24L55,747l0,24Z" class="g1_143" />
</g>
<path d="M46.5,747.5l0,-1" class="g2_143" />
<path d="M46.5,747.5l0,-1" class="g2_143" />
<path d="M47.5,747.5l840,0" class="g2_143" />
<path d="M887.5,747.5l0,-1" class="g2_143" />
<path d="M887.5,747.5l0,-1" class="g2_143" />
<path d="M46.5,771.5l0,-24" class="g2_143" />
<path d="M46.5,773.5l0,-2" class="g2_143" />
<path d="M46.5,773.5l0,-2" class="g2_143" />
<path d="M47.5,773.5l840,0" class="g2_143" />
<path d="M887.5,771.5l0,-24" class="g2_143" />
<path d="M887.5,773.5l0,-2" class="g2_143" />
<path d="M887.5,773.5l0,-2" class="g2_143" />
<path fill-rule="evenodd" d="M47,1084l846,0l0,-286L47,798l0,286Z" class="g1_143" />
<g clip-path="url(#c29_143)">
<path fill-rule="evenodd" d="M55,822l830,0l0,-24L55,798l0,24Z" class="g1_143" />
</g>
<path fill-rule="evenodd" d="M55,846l830,0l0,-24L55,822l0,24Z" class="g1_143" />
<path fill-rule="evenodd" d="M55,869l830,0l0,-23L55,846l0,23Z" class="g1_143" />
<path fill-rule="evenodd" d="M55,893l830,0l0,-24L55,869l0,24Z" class="g1_143" />
<path fill-rule="evenodd" d="M55,917l830,0l0,-24L55,893l0,24Z" class="g1_143" />
<path fill-rule="evenodd" d="M55,941l830,0l0,-24L55,917l0,24Z" class="g1_143" />
<path fill-rule="evenodd" d="M55,965l830,0l0,-24L55,941l0,24Z" class="g1_143" />
<path fill-rule="evenodd" d="M55,989l830,0l0,-24L55,965l0,24Z" class="g1_143" />
<path fill-rule="evenodd" d="M55,1012l830,0l0,-23L55,989l0,23Z" class="g1_143" />
<path fill-rule="evenodd" d="M55,1036l830,0l0,-24l-830,0l0,24Z" class="g1_143" />
<path fill-rule="evenodd" d="M55,1060l830,0l0,-24l-830,0l0,24Z" class="g1_143" />
<g clip-path="url(#c29_143)">
<path fill-rule="evenodd" d="M55,1084l830,0l0,-24l-830,0l0,24Z" class="g1_143" />
</g>
<path d="M46.5,798.5l0,-2" class="g2_143" />
<path d="M46.5,798.5l0,-2" class="g2_143" />
<path d="M47.5,798.5l846,0" class="g2_143" />
<path d="M893.5,798.5l0,-2" class="g2_143" />
<path d="M893.5,798.5l0,-2" class="g2_143" />
<path d="M46.5,1084.5l0,-286" class="g2_143" />
<path d="M46.5,1085.5l0,-1" class="g2_143" />
<path d="M46.5,1085.5l0,-1" class="g2_143" />
<path d="M47.5,1085.5l846,0" class="g2_143" />
<path d="M893.5,1084.5l0,-286" class="g2_143" />
<path d="M893.5,1085.5l0,-1" class="g2_143" />
<path d="M893.5,1085.5l0,-1" class="g2_143" />
</svg>