<?xml version="1.0" encoding="UTF-8" standalone="no"?>
<!DOCTYPE svg PUBLIC "-//W3C//DTD SVG 1.1//EN"
"http://www.w3.org/Graphics/SVG/1.1/DTD/svg11.dtd">
<svg version="1.1" xmlns="http://www.w3.org/2000/svg" xmlns:xlink="http://www.w3.org/1999/xlink">
<defs>
<clipPath id="c0_165"><path d="M47.5,761.5l0,-24l178,0l0,24Z" /></clipPath>
<clipPath id="c1_165"><path d="M227.5,761.5l0,-24l162,0l0,24Z" /></clipPath>
<clipPath id="c2_165"><path d="M391.5,761.5l0,-24l496,0l0,24Z" /></clipPath>
<clipPath id="c3_165"><path d="M47.5,786.5l0,-24l178,0l0,24Z" /></clipPath>
<clipPath id="c4_165"><path d="M227.5,786.5l0,-24l162,0l0,24Z" /></clipPath>
<clipPath id="c5_165"><path d="M391.5,786.5l0,-24l496,0l0,24Z" /></clipPath>
<clipPath id="c6_165"><path d="M47.5,861.5l0,-24l177,0l0,24Z" /></clipPath>
<clipPath id="c7_165"><path d="M226.5,861.5l0,-24l162,0l0,24Z" /></clipPath>
<clipPath id="c8_165"><path d="M390.5,861.5l0,-24l163,0l0,24Z" /></clipPath>
<clipPath id="c9_165"><path d="M554.5,861.5l0,-24l163,0l0,24Z" /></clipPath>
<clipPath id="c10_165"><path d="M719.5,861.5l0,-24l168,0l0,24Z" /></clipPath>
<clipPath id="c11_165"><path d="M47.5,886.5l0,-24l177,0l0,24Z" /></clipPath>
<clipPath id="c12_165"><path d="M226.5,886.5l0,-24l162,0l0,24Z" /></clipPath>
<clipPath id="c13_165"><path d="M390.5,886.5l0,-24l163,0l0,24Z" /></clipPath>
<clipPath id="c14_165"><path d="M554.5,886.5l0,-24l163,0l0,24Z" /></clipPath>
<clipPath id="c15_165"><path d="M719.5,886.5l0,-24l168,0l0,24Z" /></clipPath>
<clipPath id="c16_165"><path d="M47.5,1073.5l0,-73l39,0l0,73Z" /></clipPath>
<clipPath id="c17_165"><path d="M88.5,1024.5l0,-24l191,0l0,24Z" /></clipPath>
<clipPath id="c18_165"><path d="M280.5,1024.5l0,-24l79,0l0,24Z" /></clipPath>
<clipPath id="c19_165"><path d="M361.5,1024.5l0,-24l60,0l0,24Z" /></clipPath>
<clipPath id="c20_165"><path d="M422.5,1024.5l0,-24l465,0l0,24Z" /></clipPath>
<clipPath id="c21_165"><path d="M422.5,1073.5l0,-48l465,0l0,48Z" /></clipPath>
<style type="text/css"><![CDATA[
.g2_165{
fill: #F1F1F1;
}
.g4_165{
fill: #DBE5F1;
}
.g3_165{
fill: none;
stroke: #7E7E7E;
stroke-width: 1;
stroke-linecap: butt;
stroke-linejoin: miter;
}
.g1_165{
fill: #FFFFFF;
}
]]></style>
</defs>
<path fill-rule="evenodd" d="M52,199l830,0l0,-23L52,176l0,23Z" class="g1_165" />
<path fill-rule="evenodd" d="M52,242l830,0l0,-43L52,199l0,43Z" class="g1_165" />
<path fill-rule="evenodd" d="M52,265l830,0l0,-23L52,242l0,23Z" class="g1_165" />
<path fill-rule="evenodd" d="M55,334l784,0l0,-18L55,316l0,18Z" class="g1_165" />
<path fill-rule="evenodd" d="M55,357l825,0l0,-17L55,340l0,17Z" class="g1_165" />
<path fill-rule="evenodd" d="M55,381l93,0l0,-17l-93,0l0,17Z" class="g1_165" />
<path fill-rule="evenodd" d="M47,654l840,0l0,-24L47,630l0,24Z" class="g2_165" />
<path fill-rule="evenodd" d="M55,654l825,0l0,-24L55,630l0,24Z" class="g2_165" />
<path d="M46.5,630.5l0,-2" class="g3_165" />
<path d="M46.5,630.5l0,-2" class="g3_165" />
<path d="M47.5,630.5l840,0" class="g3_165" />
<path d="M887.5,630.5l0,-2" class="g3_165" />
<path d="M887.5,630.5l0,-2" class="g3_165" />
<path d="M46.5,654.5l0,-24" class="g3_165" />
<path d="M46.5,655.5l0,-1" class="g3_165" />
<path d="M46.5,655.5l0,-1" class="g3_165" />
<path d="M47.5,655.5l840,0" class="g3_165" />
<path d="M887.5,654.5l0,-24" class="g3_165" />
<path d="M887.5,655.5l0,-1" class="g3_165" />
<path d="M887.5,655.5l0,-1" class="g3_165" />
<path fill-rule="evenodd" d="M47,761l178,0l0,-24L47,737l0,24Z" class="g4_165" />
<g clip-path="url(#c0_165)">
<path fill-rule="evenodd" d="M55,761l163,0l0,-24L55,737l0,24Z" class="g4_165" />
</g>
<path fill-rule="evenodd" d="M226,761l163,0l0,-24l-163,0l0,24Z" class="g4_165" />
<g clip-path="url(#c1_165)">
<path fill-rule="evenodd" d="M234,761l148,0l0,-24l-148,0l0,24Z" class="g4_165" />
</g>
<path fill-rule="evenodd" d="M391,761l496,0l0,-24l-496,0l0,24Z" class="g4_165" />
<g clip-path="url(#c2_165)">
<path fill-rule="evenodd" d="M398,761l482,0l0,-24l-482,0l0,24Z" class="g4_165" />
</g>
<path d="M46.5,737.5l0,-2" class="g3_165" />
<path d="M46.5,737.5l0,-2" class="g3_165" />
<path d="M47.5,737.5l178,0" class="g3_165" />
<path d="M225.5,737.5l0,-2" class="g3_165" />
<path d="M226.5,737.5l163,0" class="g3_165" />
<path d="M389.5,737.5l0,-2" class="g3_165" />
<path d="M391.5,737.5l496,0" class="g3_165" />
<path d="M887.5,737.5l0,-2" class="g3_165" />
<path d="M887.5,737.5l0,-2" class="g3_165" />
<path d="M46.5,761.5l0,-24" class="g3_165" />
<path d="M225.5,761.5l0,-24" class="g3_165" />
<path d="M389.5,761.5l0,-24" class="g3_165" />
<path d="M887.5,761.5l0,-24" class="g3_165" />
<path fill-rule="evenodd" d="M47,786l178,0l0,-24L47,762l0,24Z" class="g2_165" />
<g clip-path="url(#c3_165)">
<path fill-rule="evenodd" d="M55,786l163,0l0,-24L55,762l0,24Z" class="g2_165" />
</g>
<path fill-rule="evenodd" d="M226,786l163,0l0,-24l-163,0l0,24Z" class="g2_165" />
<g clip-path="url(#c4_165)">
<path fill-rule="evenodd" d="M234,786l148,0l0,-24l-148,0l0,24Z" class="g2_165" />
</g>
<path fill-rule="evenodd" d="M391,786l496,0l0,-24l-496,0l0,24Z" class="g2_165" />
<g clip-path="url(#c5_165)">
<path fill-rule="evenodd" d="M398,786l482,0l0,-24l-482,0l0,24Z" class="g2_165" />
</g>
<path d="M46.5,762.5l0,-1" class="g3_165" />
<path d="M47.5,762.5l178,0" class="g3_165" />
<path d="M225.5,762.5l0,-1" class="g3_165" />
<path d="M226.5,762.5l163,0" class="g3_165" />
<path d="M389.5,762.5l0,-1" class="g3_165" />
<path d="M391.5,762.5l496,0" class="g3_165" />
<path d="M887.5,762.5l0,-1" class="g3_165" />
<path d="M46.5,786.5l0,-24" class="g3_165" />
<path d="M46.5,788.5l0,-2" class="g3_165" />
<path d="M46.5,788.5l0,-2" class="g3_165" />
<path d="M47.5,788.5l178,0" class="g3_165" />
<path d="M225.5,786.5l0,-24" class="g3_165" />
<path d="M225.5,788.5l0,-2" class="g3_165" />
<path d="M226.5,788.5l163,0" class="g3_165" />
<path d="M389.5,786.5l0,-24" class="g3_165" />
<path d="M389.5,788.5l0,-2" class="g3_165" />
<path d="M391.5,788.5l496,0" class="g3_165" />
<path d="M887.5,786.5l0,-24" class="g3_165" />
<path d="M887.5,788.5l0,-2" class="g3_165" />
<path d="M887.5,788.5l0,-2" class="g3_165" />
<path fill-rule="evenodd" d="M47,861l177,0l0,-24L47,837l0,24Z" class="g4_165" />
<g clip-path="url(#c6_165)">
<path fill-rule="evenodd" d="M55,861l162,0l0,-24L55,837l0,24Z" class="g4_165" />
</g>
<path fill-rule="evenodd" d="M226,861l162,0l0,-24l-162,0l0,24Z" class="g4_165" />
<g clip-path="url(#c7_165)">
<path fill-rule="evenodd" d="M233,861l148,0l0,-24l-148,0l0,24Z" class="g4_165" />
</g>
<path fill-rule="evenodd" d="M390,861l163,0l0,-24l-163,0l0,24Z" class="g4_165" />
<g clip-path="url(#c8_165)">
<path fill-rule="evenodd" d="M397,861l148,0l0,-24l-148,0l0,24Z" class="g4_165" />
</g>
<path fill-rule="evenodd" d="M554,861l163,0l0,-24l-163,0l0,24Z" class="g4_165" />
<g clip-path="url(#c9_165)">
<path fill-rule="evenodd" d="M562,861l148,0l0,-24l-148,0l0,24Z" class="g4_165" />
</g>
<path fill-rule="evenodd" d="M719,861l168,0l0,-24l-168,0l0,24Z" class="g4_165" />
<g clip-path="url(#c10_165)">
<path fill-rule="evenodd" d="M726,861l154,0l0,-24l-154,0l0,24Z" class="g4_165" />
</g>
<path d="M46.5,837.5l0,-2" class="g3_165" />
<path d="M46.5,837.5l0,-2" class="g3_165" />
<path d="M47.5,837.5l177,0" class="g3_165" />
<path d="M224.5,837.5l0,-2" class="g3_165" />
<path d="M226.5,837.5l162,0" class="g3_165" />
<path d="M388.5,837.5l0,-2" class="g3_165" />
<path d="M390.5,837.5l163,0" class="g3_165" />
<path d="M553.5,837.5l0,-2" class="g3_165" />
<path d="M554.5,837.5l163,0" class="g3_165" />
<path d="M717.5,837.5l0,-2" class="g3_165" />
<path d="M719.5,837.5l168,0" class="g3_165" />
<path d="M887.5,837.5l0,-2" class="g3_165" />
<path d="M887.5,837.5l0,-2" class="g3_165" />
<path d="M46.5,861.5l0,-24" class="g3_165" />
<path d="M224.5,861.5l0,-24" class="g3_165" />
<path d="M388.5,861.5l0,-24" class="g3_165" />
<path d="M553.5,861.5l0,-24" class="g3_165" />
<path d="M717.5,861.5l0,-24" class="g3_165" />
<path d="M887.5,861.5l0,-24" class="g3_165" />
<path fill-rule="evenodd" d="M47,886l177,0l0,-24L47,862l0,24Z" class="g2_165" />
<g clip-path="url(#c11_165)">
<path fill-rule="evenodd" d="M55,886l162,0l0,-24L55,862l0,24Z" class="g2_165" />
</g>
<path fill-rule="evenodd" d="M226,886l162,0l0,-24l-162,0l0,24Z" class="g2_165" />
<g clip-path="url(#c12_165)">
<path fill-rule="evenodd" d="M233,886l148,0l0,-24l-148,0l0,24Z" class="g2_165" />
</g>
<path fill-rule="evenodd" d="M390,886l163,0l0,-24l-163,0l0,24Z" class="g2_165" />
<g clip-path="url(#c13_165)">
<path fill-rule="evenodd" d="M397,886l148,0l0,-24l-148,0l0,24Z" class="g2_165" />
</g>
<path fill-rule="evenodd" d="M554,886l163,0l0,-24l-163,0l0,24Z" class="g2_165" />
<g clip-path="url(#c14_165)">
<path fill-rule="evenodd" d="M562,886l148,0l0,-24l-148,0l0,24Z" class="g2_165" />
</g>
<path fill-rule="evenodd" d="M719,886l168,0l0,-24l-168,0l0,24Z" class="g2_165" />
<g clip-path="url(#c15_165)">
<path fill-rule="evenodd" d="M726,886l154,0l0,-24l-154,0l0,24Z" class="g2_165" />
</g>
<path d="M46.5,862.5l0,-1" class="g3_165" />
<path d="M47.5,862.5l177,0" class="g3_165" />
<path d="M224.5,862.5l0,-1" class="g3_165" />
<path d="M226.5,862.5l162,0" class="g3_165" />
<path d="M388.5,862.5l0,-1" class="g3_165" />
<path d="M390.5,862.5l163,0" class="g3_165" />
<path d="M553.5,862.5l0,-1" class="g3_165" />
<path d="M554.5,862.5l163,0" class="g3_165" />
<path d="M717.5,862.5l0,-1" class="g3_165" />
<path d="M719.5,862.5l168,0" class="g3_165" />
<path d="M887.5,862.5l0,-1" class="g3_165" />
<path d="M46.5,886.5l0,-24" class="g3_165" />
<path d="M46.5,887.5l0,-1" class="g3_165" />
<path d="M46.5,887.5l0,-1" class="g3_165" />
<path d="M47.5,887.5l177,0" class="g3_165" />
<path d="M224.5,886.5l0,-24" class="g3_165" />
<path d="M224.5,887.5l0,-1" class="g3_165" />
<path d="M226.5,887.5l162,0" class="g3_165" />
<path d="M388.5,886.5l0,-24" class="g3_165" />
<path d="M388.5,887.5l0,-1" class="g3_165" />
<path d="M390.5,887.5l163,0" class="g3_165" />
<path d="M553.5,886.5l0,-24" class="g3_165" />
<path d="M553.5,887.5l0,-1" class="g3_165" />
<path d="M554.5,887.5l163,0" class="g3_165" />
<path d="M717.5,886.5l0,-24" class="g3_165" />
<path d="M717.5,887.5l0,-1" class="g3_165" />
<path d="M719.5,887.5l168,0" class="g3_165" />
<path d="M887.5,886.5l0,-24" class="g3_165" />
<path d="M887.5,887.5l0,-1" class="g3_165" />
<path d="M887.5,887.5l0,-1" class="g3_165" />
<path fill-rule="evenodd" d="M47,998l232,0l0,-24L47,974l0,24Z" class="g4_165" />
<path fill-rule="evenodd" d="M55,998l216,0l0,-24L55,974l0,24Z" class="g4_165" />
<path fill-rule="evenodd" d="M280,998l79,0l0,-24l-79,0l0,24Z" class="g4_165" />
<path fill-rule="evenodd" d="M288,998l64,0l0,-24l-64,0l0,24Z" class="g4_165" />
<path fill-rule="evenodd" d="M361,998l60,0l0,-24l-60,0l0,24Z" class="g4_165" />
<path fill-rule="evenodd" d="M368,998l45,0l0,-24l-45,0l0,24Z" class="g4_165" />
<path fill-rule="evenodd" d="M422,998l465,0l0,-24l-465,0l0,24Z" class="g4_165" />
<path fill-rule="evenodd" d="M430,998l450,0l0,-24l-450,0l0,24Z" class="g4_165" />
<path d="M46.5,974.5l0,-2" class="g3_165" />
<path d="M46.5,974.5l0,-2" class="g3_165" />
<path d="M47.5,974.5l232,0" class="g3_165" />
<path d="M279.5,974.5l0,-2" class="g3_165" />
<path d="M280.5,974.5l79,0" class="g3_165" />
<path d="M359.5,974.5l0,-2" class="g3_165" />
<path d="M361.5,974.5l60,0" class="g3_165" />
<path d="M421.5,974.5l0,-2" class="g3_165" />
<path d="M422.5,974.5l465,0" class="g3_165" />
<path d="M887.5,974.5l0,-2" class="g3_165" />
<path d="M887.5,974.5l0,-2" class="g3_165" />
<path d="M46.5,998.5l0,-24" class="g3_165" />
<path d="M279.5,998.5l0,-24" class="g3_165" />
<path d="M359.5,998.5l0,-24" class="g3_165" />
<path d="M421.5,998.5l0,-24" class="g3_165" />
<path d="M887.5,998.5l0,-24" class="g3_165" />
<path fill-rule="evenodd" d="M47,1073l39,0l0,-73l-39,0l0,73Z" class="g2_165" />
<g clip-path="url(#c16_165)">
<path fill-rule="evenodd" d="M55,1073l23,0l0,-73l-23,0l0,73Z" class="g2_165" />
<path fill-rule="evenodd" d="M78,1073l8,0l0,-73l-8,0l0,73Z" class="g2_165" />
</g>
<path fill-rule="evenodd" d="M88,1024l191,0l0,-24l-191,0l0,24Z" class="g2_165" />
<g clip-path="url(#c17_165)">
<path fill-rule="evenodd" d="M95,1024l176,0l0,-24l-176,0l0,24Z" class="g2_165" />
</g>
<path fill-rule="evenodd" d="M280,1024l79,0l0,-24l-79,0l0,24Z" class="g2_165" />
<g clip-path="url(#c18_165)">
<path fill-rule="evenodd" d="M288,1024l64,0l0,-24l-64,0l0,24Z" class="g2_165" />
</g>
<path fill-rule="evenodd" d="M361,1024l60,0l0,-24l-60,0l0,24Z" class="g2_165" />
<g clip-path="url(#c19_165)">
<path fill-rule="evenodd" d="M368,1024l45,0l0,-24l-45,0l0,24Z" class="g2_165" />
</g>
<path fill-rule="evenodd" d="M422,1024l465,0l0,-24l-465,0l0,24Z" class="g2_165" />
<g clip-path="url(#c20_165)">
<path fill-rule="evenodd" d="M430,1024l450,0l0,-24l-450,0l0,24Z" class="g2_165" />
</g>
<path d="M46.5,1000.5l0,-2" class="g3_165" />
<path d="M47.5,1000.5l39,0" class="g3_165" />
<path d="M86.5,1000.5l0,-2" class="g3_165" />
<path d="M88.5,1000.5l191,0" class="g3_165" />
<path d="M279.5,1000.5l0,-2" class="g3_165" />
<path d="M280.5,1000.5l79,0" class="g3_165" />
<path d="M359.5,1000.5l0,-2" class="g3_165" />
<path d="M361.5,1000.5l60,0" class="g3_165" />
<path d="M421.5,1000.5l0,-2" class="g3_165" />
<path d="M422.5,1000.5l465,0" class="g3_165" />
<path d="M887.5,1000.5l0,-2" class="g3_165" />
<path d="M46.5,1024.5l0,-24" class="g3_165" />
<path d="M86.5,1024.5l0,-24" class="g3_165" />
<path d="M279.5,1024.5l0,-24" class="g3_165" />
<path d="M359.5,1024.5l0,-24" class="g3_165" />
<path d="M421.5,1024.5l0,-24" class="g3_165" />
<path d="M887.5,1024.5l0,-24" class="g3_165" />
<path fill-rule="evenodd" d="M88,1073l191,0l0,-48l-191,0l0,48Z" class="g2_165" />
<path fill-rule="evenodd" d="M95,1049l176,0l0,-24l-176,0l0,24Z" class="g2_165" />
<path fill-rule="evenodd" d="M280,1073l79,0l0,-48l-79,0l0,48Z" class="g2_165" />
<path fill-rule="evenodd" d="M288,1049l64,0l0,-24l-64,0l0,24Z" class="g2_165" />
<path fill-rule="evenodd" d="M361,1073l60,0l0,-48l-60,0l0,48Z" class="g2_165" />
<path fill-rule="evenodd" d="M368,1049l45,0l0,-24l-45,0l0,24Z" class="g2_165" />
<path fill-rule="evenodd" d="M422,1073l465,0l0,-48l-465,0l0,48Z" class="g2_165" />
<path fill-rule="evenodd" d="M430,1049l450,0l0,-24l-450,0l0,24Z" class="g2_165" />
<g clip-path="url(#c21_165)">
<path fill-rule="evenodd" d="M430,1073l450,0l0,-24l-450,0l0,24Z" class="g2_165" />
</g>
<path d="M46.5,1025.5l0,-1" class="g3_165" />
<path d="M86.5,1025.5l0,-1" class="g3_165" />
<path d="M88.5,1025.5l191,0" class="g3_165" />
<path d="M279.5,1025.5l0,-1" class="g3_165" />
<path d="M280.5,1025.5l79,0" class="g3_165" />
<path d="M359.5,1025.5l0,-1" class="g3_165" />
<path d="M361.5,1025.5l60,0" class="g3_165" />
<path d="M421.5,1025.5l0,-1" class="g3_165" />
<path d="M422.5,1025.5l465,0" class="g3_165" />
<path d="M887.5,1025.5l0,-1" class="g3_165" />
<path d="M46.5,1073.5l0,-48" class="g3_165" />
<path d="M46.5,1074.5l0,-1" class="g3_165" />
<path d="M46.5,1074.5l0,-1" class="g3_165" />
<path d="M47.5,1074.5l39,0" class="g3_165" />
<path d="M86.5,1073.5l0,-48" class="g3_165" />
<path d="M86.5,1074.5l0,-1" class="g3_165" />
<path d="M88.5,1074.5l191,0" class="g3_165" />
<path d="M279.5,1073.5l0,-48" class="g3_165" />
<path d="M279.5,1074.5l0,-1" class="g3_165" />
<path d="M280.5,1074.5l79,0" class="g3_165" />
<path d="M359.5,1073.5l0,-48" class="g3_165" />
<path d="M359.5,1074.5l0,-1" class="g3_165" />
<path d="M361.5,1074.5l60,0" class="g3_165" />
<path d="M421.5,1073.5l0,-48" class="g3_165" />
<path d="M421.5,1074.5l0,-1" class="g3_165" />
<path d="M422.5,1074.5l465,0" class="g3_165" />
<path d="M887.5,1073.5l0,-48" class="g3_165" />
<path d="M887.5,1074.5l0,-1" class="g3_165" />
<path d="M887.5,1074.5l0,-1" class="g3_165" />
</svg>