<?xml version="1.0" encoding="UTF-8" standalone="no"?>
<!DOCTYPE svg PUBLIC "-//W3C//DTD SVG 1.1//EN"
"http://www.w3.org/Graphics/SVG/1.1/DTD/svg11.dtd">
<svg version="1.1" xmlns="http://www.w3.org/2000/svg" xmlns:xlink="http://www.w3.org/1999/xlink">
<defs>
<clipPath id="c0_292"><path d="M47.5,730.5l0,-24l177,0l0,24Z" /></clipPath>
<clipPath id="c1_292"><path d="M226.5,730.5l0,-24l162,0l0,24Z" /></clipPath>
<clipPath id="c2_292"><path d="M390.5,730.5l0,-24l163,0l0,24Z" /></clipPath>
<clipPath id="c3_292"><path d="M554.5,730.5l0,-24l163,0l0,24Z" /></clipPath>
<clipPath id="c4_292"><path d="M719.5,730.5l0,-24l168,0l0,24Z" /></clipPath>
<clipPath id="c5_292"><path d="M47.5,755.5l0,-24l177,0l0,24Z" /></clipPath>
<clipPath id="c6_292"><path d="M226.5,755.5l0,-24l162,0l0,24Z" /></clipPath>
<clipPath id="c7_292"><path d="M390.5,755.5l0,-24l163,0l0,24Z" /></clipPath>
<clipPath id="c8_292"><path d="M554.5,755.5l0,-24l163,0l0,24Z" /></clipPath>
<clipPath id="c9_292"><path d="M719.5,755.5l0,-24l168,0l0,24Z" /></clipPath>
<clipPath id="c10_292"><path d="M47.5,867.5l0,-24l282,0l0,24Z" /></clipPath>
<clipPath id="c11_292"><path d="M330.5,867.5l0,-24l164,0l0,24Z" /></clipPath>
<clipPath id="c12_292"><path d="M495.5,867.5l0,-24l68,0l0,24Z" /></clipPath>
<clipPath id="c13_292"><path d="M564.5,867.5l0,-24l323,0l0,24Z" /></clipPath>
<clipPath id="c14_292"><path d="M47.5,1093.5l0,-225l28,0l0,225Z" /></clipPath>
<clipPath id="c15_292"><path d="M77.5,964.5l0,-96l252,0l0,96Z" /></clipPath>
<clipPath id="c16_292"><path d="M330.5,964.5l0,-96l164,0l0,96Z" /></clipPath>
<clipPath id="c17_292"><path d="M495.5,964.5l0,-96l68,0l0,96Z" /></clipPath>
<clipPath id="c18_292"><path d="M564.5,964.5l0,-96l323,0l0,96Z" /></clipPath>
<clipPath id="c19_292"><path d="M77.5,989.5l0,-24l252,0l0,24Z" /></clipPath>
<clipPath id="c20_292"><path d="M330.5,989.5l0,-24l164,0l0,24Z" /></clipPath>
<clipPath id="c21_292"><path d="M495.5,989.5l0,-24l68,0l0,24Z" /></clipPath>
<clipPath id="c22_292"><path d="M564.5,989.5l0,-24l323,0l0,24Z" /></clipPath>
<clipPath id="c23_292"><path d="M77.5,1093.5l0,-102l31,0l0,102Z" /></clipPath>
<clipPath id="c24_292"><path d="M109.5,1093.5l0,-102l42,0l0,102Z" /></clipPath>
<clipPath id="c25_292"><path d="M564.5,1093.5l0,-102l323,0l0,102Z" /></clipPath>
<style type="text/css"><![CDATA[
.g2_292{
fill: none;
stroke: #7E7E7E;
stroke-width: 1;
stroke-linecap: butt;
stroke-linejoin: miter;
}
.g3_292{
fill: #DBE5F1;
}
.g1_292{
fill: #F1F1F1;
}
]]></style>
</defs>
<path fill-rule="evenodd" d="M47,498l840,0l0,-24L47,474l0,24Z" class="g1_292" />
<path fill-rule="evenodd" d="M55,498l825,0l0,-24L55,474l0,24Z" class="g1_292" />
<path d="M46.5,474.5l0,-2" class="g2_292" />
<path d="M46.5,474.5l0,-2" class="g2_292" />
<path d="M47.5,474.5l840,0" class="g2_292" />
<path d="M887.5,474.5l0,-2" class="g2_292" />
<path d="M887.5,474.5l0,-2" class="g2_292" />
<path d="M46.5,498.5l0,-24" class="g2_292" />
<path d="M46.5,499.5l0,-1" class="g2_292" />
<path d="M46.5,499.5l0,-1" class="g2_292" />
<path d="M47.5,499.5l840,0" class="g2_292" />
<path d="M887.5,498.5l0,-24" class="g2_292" />
<path d="M887.5,499.5l0,-1" class="g2_292" />
<path d="M887.5,499.5l0,-1" class="g2_292" />
<path fill-rule="evenodd" d="M47,630l178,0l0,-24L47,606l0,24Z" class="g3_292" />
<path fill-rule="evenodd" d="M55,630l162,0l0,-24L55,606l0,24Z" class="g3_292" />
<path fill-rule="evenodd" d="M226,630l163,0l0,-24l-163,0l0,24Z" class="g3_292" />
<path fill-rule="evenodd" d="M234,630l147,0l0,-24l-147,0l0,24Z" class="g3_292" />
<path fill-rule="evenodd" d="M390,630l497,0l0,-24l-497,0l0,24Z" class="g3_292" />
<path fill-rule="evenodd" d="M398,630l482,0l0,-24l-482,0l0,24Z" class="g3_292" />
<path d="M46.5,606.5l0,-2" class="g2_292" />
<path d="M46.5,606.5l0,-2" class="g2_292" />
<path d="M47.5,606.5l178,0" class="g2_292" />
<path d="M225.5,606.5l0,-2" class="g2_292" />
<path d="M226.5,606.5l163,0" class="g2_292" />
<path d="M389.5,606.5l0,-2" class="g2_292" />
<path d="M390.5,606.5l497,0" class="g2_292" />
<path d="M887.5,606.5l0,-2" class="g2_292" />
<path d="M887.5,606.5l0,-2" class="g2_292" />
<path d="M46.5,630.5l0,-24" class="g2_292" />
<path d="M225.5,630.5l0,-24" class="g2_292" />
<path d="M389.5,630.5l0,-24" class="g2_292" />
<path d="M887.5,630.5l0,-24" class="g2_292" />
<path fill-rule="evenodd" d="M47,655l178,0l0,-24L47,631l0,24Z" class="g1_292" />
<path fill-rule="evenodd" d="M55,655l162,0l0,-24L55,631l0,24Z" class="g1_292" />
<path fill-rule="evenodd" d="M226,655l163,0l0,-24l-163,0l0,24Z" class="g1_292" />
<path fill-rule="evenodd" d="M234,655l147,0l0,-24l-147,0l0,24Z" class="g1_292" />
<path fill-rule="evenodd" d="M390,655l497,0l0,-24l-497,0l0,24Z" class="g1_292" />
<path fill-rule="evenodd" d="M398,655l482,0l0,-24l-482,0l0,24Z" class="g1_292" />
<path d="M46.5,631.5l0,-1" class="g2_292" />
<path d="M47.5,631.5l178,0" class="g2_292" />
<path d="M225.5,631.5l0,-1" class="g2_292" />
<path d="M226.5,631.5l163,0" class="g2_292" />
<path d="M389.5,631.5l0,-1" class="g2_292" />
<path d="M390.5,631.5l497,0" class="g2_292" />
<path d="M887.5,631.5l0,-1" class="g2_292" />
<path d="M46.5,655.5l0,-24" class="g2_292" />
<path d="M46.5,657.5l0,-2" class="g2_292" />
<path d="M46.5,657.5l0,-2" class="g2_292" />
<path d="M47.5,657.5l178,0" class="g2_292" />
<path d="M225.5,655.5l0,-24" class="g2_292" />
<path d="M225.5,657.5l0,-2" class="g2_292" />
<path d="M226.5,657.5l163,0" class="g2_292" />
<path d="M389.5,655.5l0,-24" class="g2_292" />
<path d="M389.5,657.5l0,-2" class="g2_292" />
<path d="M390.5,657.5l497,0" class="g2_292" />
<path d="M887.5,655.5l0,-24" class="g2_292" />
<path d="M887.5,657.5l0,-2" class="g2_292" />
<path d="M887.5,657.5l0,-2" class="g2_292" />
<path fill-rule="evenodd" d="M47,730l177,0l0,-24L47,706l0,24Z" class="g3_292" />
<g clip-path="url(#c0_292)">
<path fill-rule="evenodd" d="M55,730l162,0l0,-24L55,706l0,24Z" class="g3_292" />
</g>
<path fill-rule="evenodd" d="M226,730l162,0l0,-24l-162,0l0,24Z" class="g3_292" />
<g clip-path="url(#c1_292)">
<path fill-rule="evenodd" d="M233,730l148,0l0,-24l-148,0l0,24Z" class="g3_292" />
</g>
<path fill-rule="evenodd" d="M390,730l163,0l0,-24l-163,0l0,24Z" class="g3_292" />
<g clip-path="url(#c2_292)">
<path fill-rule="evenodd" d="M397,730l148,0l0,-24l-148,0l0,24Z" class="g3_292" />
</g>
<path fill-rule="evenodd" d="M554,730l163,0l0,-24l-163,0l0,24Z" class="g3_292" />
<g clip-path="url(#c3_292)">
<path fill-rule="evenodd" d="M562,730l148,0l0,-24l-148,0l0,24Z" class="g3_292" />
</g>
<path fill-rule="evenodd" d="M719,730l168,0l0,-24l-168,0l0,24Z" class="g3_292" />
<g clip-path="url(#c4_292)">
<path fill-rule="evenodd" d="M726,730l154,0l0,-24l-154,0l0,24Z" class="g3_292" />
</g>
<path d="M46.5,706.5l0,-2" class="g2_292" />
<path d="M46.5,706.5l0,-2" class="g2_292" />
<path d="M47.5,706.5l177,0" class="g2_292" />
<path d="M224.5,706.5l0,-2" class="g2_292" />
<path d="M226.5,706.5l162,0" class="g2_292" />
<path d="M388.5,706.5l0,-2" class="g2_292" />
<path d="M390.5,706.5l163,0" class="g2_292" />
<path d="M553.5,706.5l0,-2" class="g2_292" />
<path d="M554.5,706.5l163,0" class="g2_292" />
<path d="M717.5,706.5l0,-2" class="g2_292" />
<path d="M719.5,706.5l168,0" class="g2_292" />
<path d="M887.5,706.5l0,-2" class="g2_292" />
<path d="M887.5,706.5l0,-2" class="g2_292" />
<path d="M46.5,730.5l0,-24" class="g2_292" />
<path d="M224.5,730.5l0,-24" class="g2_292" />
<path d="M388.5,730.5l0,-24" class="g2_292" />
<path d="M553.5,730.5l0,-24" class="g2_292" />
<path d="M717.5,730.5l0,-24" class="g2_292" />
<path d="M887.5,730.5l0,-24" class="g2_292" />
<path fill-rule="evenodd" d="M47,755l177,0l0,-24L47,731l0,24Z" class="g1_292" />
<g clip-path="url(#c5_292)">
<path fill-rule="evenodd" d="M55,755l162,0l0,-24L55,731l0,24Z" class="g1_292" />
</g>
<path fill-rule="evenodd" d="M226,755l162,0l0,-24l-162,0l0,24Z" class="g1_292" />
<g clip-path="url(#c6_292)">
<path fill-rule="evenodd" d="M233,755l148,0l0,-24l-148,0l0,24Z" class="g1_292" />
</g>
<path fill-rule="evenodd" d="M390,755l163,0l0,-24l-163,0l0,24Z" class="g1_292" />
<g clip-path="url(#c7_292)">
<path fill-rule="evenodd" d="M397,755l148,0l0,-24l-148,0l0,24Z" class="g1_292" />
</g>
<path fill-rule="evenodd" d="M554,755l163,0l0,-24l-163,0l0,24Z" class="g1_292" />
<g clip-path="url(#c8_292)">
<path fill-rule="evenodd" d="M562,755l148,0l0,-24l-148,0l0,24Z" class="g1_292" />
</g>
<path fill-rule="evenodd" d="M719,755l168,0l0,-24l-168,0l0,24Z" class="g1_292" />
<g clip-path="url(#c9_292)">
<path fill-rule="evenodd" d="M726,755l154,0l0,-24l-154,0l0,24Z" class="g1_292" />
</g>
<path d="M46.5,731.5l0,-1" class="g2_292" />
<path d="M47.5,731.5l177,0" class="g2_292" />
<path d="M224.5,731.5l0,-1" class="g2_292" />
<path d="M226.5,731.5l162,0" class="g2_292" />
<path d="M388.5,731.5l0,-1" class="g2_292" />
<path d="M390.5,731.5l163,0" class="g2_292" />
<path d="M553.5,731.5l0,-1" class="g2_292" />
<path d="M554.5,731.5l163,0" class="g2_292" />
<path d="M717.5,731.5l0,-1" class="g2_292" />
<path d="M719.5,731.5l168,0" class="g2_292" />
<path d="M887.5,731.5l0,-1" class="g2_292" />
<path d="M46.5,755.5l0,-24" class="g2_292" />
<path d="M46.5,757.5l0,-2" class="g2_292" />
<path d="M46.5,757.5l0,-2" class="g2_292" />
<path d="M47.5,757.5l177,0" class="g2_292" />
<path d="M224.5,755.5l0,-24" class="g2_292" />
<path d="M224.5,757.5l0,-2" class="g2_292" />
<path d="M226.5,757.5l162,0" class="g2_292" />
<path d="M388.5,755.5l0,-24" class="g2_292" />
<path d="M388.5,757.5l0,-2" class="g2_292" />
<path d="M390.5,757.5l163,0" class="g2_292" />
<path d="M553.5,755.5l0,-24" class="g2_292" />
<path d="M553.5,757.5l0,-2" class="g2_292" />
<path d="M554.5,757.5l163,0" class="g2_292" />
<path d="M717.5,755.5l0,-24" class="g2_292" />
<path d="M717.5,757.5l0,-2" class="g2_292" />
<path d="M719.5,757.5l168,0" class="g2_292" />
<path d="M887.5,755.5l0,-24" class="g2_292" />
<path d="M887.5,757.5l0,-2" class="g2_292" />
<path d="M887.5,757.5l0,-2" class="g2_292" />
<path fill-rule="evenodd" d="M47,867l282,0l0,-24L47,843l0,24Z" class="g3_292" />
<g clip-path="url(#c10_292)">
<path fill-rule="evenodd" d="M55,867l266,0l0,-24L55,843l0,24Z" class="g3_292" />
</g>
<path fill-rule="evenodd" d="M330,867l164,0l0,-24l-164,0l0,24Z" class="g3_292" />
<g clip-path="url(#c11_292)">
<path fill-rule="evenodd" d="M338,867l148,0l0,-24l-148,0l0,24Z" class="g3_292" />
</g>
<path fill-rule="evenodd" d="M495,867l68,0l0,-24l-68,0l0,24Z" class="g3_292" />
<g clip-path="url(#c12_292)">
<path fill-rule="evenodd" d="M503,867l52,0l0,-24l-52,0l0,24Z" class="g3_292" />
</g>
<path fill-rule="evenodd" d="M564,867l323,0l0,-24l-323,0l0,24Z" class="g3_292" />
<g clip-path="url(#c13_292)">
<path fill-rule="evenodd" d="M572,867l308,0l0,-24l-308,0l0,24Z" class="g3_292" />
</g>
<path d="M46.5,843.5l0,-2" class="g2_292" />
<path d="M46.5,843.5l0,-2" class="g2_292" />
<path d="M47.5,843.5l282,0" class="g2_292" />
<path d="M329.5,843.5l0,-2" class="g2_292" />
<path d="M330.5,843.5l164,0" class="g2_292" />
<path d="M494.5,843.5l0,-2" class="g2_292" />
<path d="M495.5,843.5l68,0" class="g2_292" />
<path d="M563.5,843.5l0,-2" class="g2_292" />
<path d="M564.5,843.5l323,0" class="g2_292" />
<path d="M887.5,843.5l0,-2" class="g2_292" />
<path d="M887.5,843.5l0,-2" class="g2_292" />
<path d="M46.5,867.5l0,-24" class="g2_292" />
<path d="M329.5,867.5l0,-24" class="g2_292" />
<path d="M494.5,867.5l0,-24" class="g2_292" />
<path d="M563.5,867.5l0,-24" class="g2_292" />
<path d="M887.5,867.5l0,-24" class="g2_292" />
<path fill-rule="evenodd" d="M47,1093l28,0L75,868l-28,0l0,225Z" class="g1_292" />
<g clip-path="url(#c14_292)">
<path fill-rule="evenodd" d="M55,1093l20,0L75,868l-20,0l0,225Z" class="g1_292" />
</g>
<path fill-rule="evenodd" d="M77,964l252,0l0,-96L77,868l0,96Z" class="g1_292" />
<g clip-path="url(#c15_292)">
<path fill-rule="evenodd" d="M84,892l237,0l0,-24L84,868l0,24Z" class="g1_292" />
</g>
<path fill-rule="evenodd" d="M330,964l164,0l0,-96l-164,0l0,96Z" class="g1_292" />
<g clip-path="url(#c16_292)">
<path fill-rule="evenodd" d="M338,892l148,0l0,-24l-148,0l0,24Z" class="g1_292" />
</g>
<path fill-rule="evenodd" d="M338,916l148,0l0,-24l-148,0l0,24Z" class="g1_292" />
<path fill-rule="evenodd" d="M495,964l68,0l0,-96l-68,0l0,96Z" class="g1_292" />
<g clip-path="url(#c17_292)">
<path fill-rule="evenodd" d="M503,892l52,0l0,-24l-52,0l0,24Z" class="g1_292" />
</g>
<path fill-rule="evenodd" d="M564,964l323,0l0,-96l-323,0l0,96Z" class="g1_292" />
<g clip-path="url(#c18_292)">
<path fill-rule="evenodd" d="M572,892l308,0l0,-24l-308,0l0,24Z" class="g1_292" />
</g>
<path fill-rule="evenodd" d="M572,916l308,0l0,-24l-308,0l0,24Z" class="g1_292" />
<path fill-rule="evenodd" d="M572,940l308,0l0,-24l-308,0l0,24Z" class="g1_292" />
<g clip-path="url(#c18_292)">
<path fill-rule="evenodd" d="M572,964l308,0l0,-24l-308,0l0,24Z" class="g1_292" />
</g>
<path d="M46.5,868.5l0,-1" class="g2_292" />
<path d="M47.5,868.5l28,0" class="g2_292" />
<path d="M75.5,868.5l0,-1" class="g2_292" />
<path d="M77.5,868.5l252,0" class="g2_292" />
<path d="M329.5,868.5l0,-1" class="g2_292" />
<path d="M330.5,868.5l164,0" class="g2_292" />
<path d="M494.5,868.5l0,-1" class="g2_292" />
<path d="M495.5,868.5l68,0" class="g2_292" />
<path d="M563.5,868.5l0,-1" class="g2_292" />
<path d="M564.5,868.5l323,0" class="g2_292" />
<path d="M887.5,868.5l0,-1" class="g2_292" />
<path d="M46.5,964.5l0,-96" class="g2_292" />
<path d="M75.5,964.5l0,-96" class="g2_292" />
<path d="M329.5,964.5l0,-96" class="g2_292" />
<path d="M494.5,964.5l0,-96" class="g2_292" />
<path d="M563.5,964.5l0,-96" class="g2_292" />
<path d="M887.5,964.5l0,-96" class="g2_292" />
<path fill-rule="evenodd" d="M77,989l252,0l0,-24L77,965l0,24Z" class="g1_292" />
<g clip-path="url(#c19_292)">
<path fill-rule="evenodd" d="M84,989l237,0l0,-24L84,965l0,24Z" class="g1_292" />
</g>
<path fill-rule="evenodd" d="M330,989l164,0l0,-24l-164,0l0,24Z" class="g1_292" />
<g clip-path="url(#c20_292)">
<path fill-rule="evenodd" d="M338,989l148,0l0,-24l-148,0l0,24Z" class="g1_292" />
</g>
<path fill-rule="evenodd" d="M495,989l68,0l0,-24l-68,0l0,24Z" class="g1_292" />
<g clip-path="url(#c21_292)">
<path fill-rule="evenodd" d="M503,989l52,0l0,-24l-52,0l0,24Z" class="g1_292" />
</g>
<path fill-rule="evenodd" d="M564,989l323,0l0,-24l-323,0l0,24Z" class="g1_292" />
<g clip-path="url(#c22_292)">
<path fill-rule="evenodd" d="M572,989l308,0l0,-24l-308,0l0,24Z" class="g1_292" />
</g>
<path d="M46.5,965.5l0,-1" class="g2_292" />
<path d="M75.5,965.5l0,-1" class="g2_292" />
<path d="M77.5,965.5l252,0" class="g2_292" />
<path d="M329.5,965.5l0,-1" class="g2_292" />
<path d="M330.5,965.5l164,0" class="g2_292" />
<path d="M494.5,965.5l0,-1" class="g2_292" />
<path d="M495.5,965.5l68,0" class="g2_292" />
<path d="M563.5,965.5l0,-1" class="g2_292" />
<path d="M564.5,965.5l323,0" class="g2_292" />
<path d="M887.5,965.5l0,-1" class="g2_292" />
<path d="M46.5,989.5l0,-24" class="g2_292" />
<path d="M75.5,989.5l0,-24" class="g2_292" />
<path d="M329.5,989.5l0,-24" class="g2_292" />
<path d="M494.5,989.5l0,-24" class="g2_292" />
<path d="M563.5,989.5l0,-24" class="g2_292" />
<path d="M887.5,989.5l0,-24" class="g2_292" />
<path fill-rule="evenodd" d="M77,1093l31,0l0,-102l-31,0l0,102Z" class="g1_292" />
<g clip-path="url(#c23_292)">
<path fill-rule="evenodd" d="M77,1093l24,0l0,-102l-24,0l0,102Z" class="g1_292" />
</g>
<path fill-rule="evenodd" d="M109,1093l42,0l0,-102l-42,0l0,102Z" class="g1_292" />
<g clip-path="url(#c24_292)">
<path fill-rule="evenodd" d="M109,1093l42,0l0,-102l-42,0l0,102Z" class="g1_292" />
</g>
<path fill-rule="evenodd" d="M153,1093l176,0l0,-102l-176,0l0,102Z" class="g1_292" />
<path fill-rule="evenodd" d="M160,1051l161,0l0,-60l-161,0l0,60Z" class="g1_292" />
<path fill-rule="evenodd" d="M330,1093l164,0l0,-102l-164,0l0,102Z" class="g1_292" />
<path fill-rule="evenodd" d="M338,1051l148,0l0,-60l-148,0l0,60Z" class="g1_292" />
<path fill-rule="evenodd" d="M495,1093l68,0l0,-102l-68,0l0,102Z" class="g1_292" />
<path fill-rule="evenodd" d="M503,1051l52,0l0,-60l-52,0l0,60Z" class="g1_292" />
<path fill-rule="evenodd" d="M564,1093l323,0l0,-102l-323,0l0,102Z" class="g1_292" />
<path fill-rule="evenodd" d="M572,1051l308,0l0,-60l-308,0l0,60Z" class="g1_292" />
<g clip-path="url(#c25_292)">
<path fill-rule="evenodd" d="M572,1093l308,0l0,-42l-308,0l0,42Z" class="g1_292" />
</g>
<path d="M46.5,990.5l0,-1" class="g2_292" />
<path d="M75.5,990.5l0,-1" class="g2_292" />
<path d="M77.5,990.5l31,0" class="g2_292" />
<path d="M108.5,990.5l0,-1" class="g2_292" />
<path d="M109.5,990.5l42,0" class="g2_292" />
<path d="M151.5,990.5l0,-1" class="g2_292" />
<path d="M153.5,990.5l176,0" class="g2_292" />
<path d="M329.5,990.5l0,-1" class="g2_292" />
<path d="M330.5,990.5l164,0" class="g2_292" />
<path d="M494.5,990.5l0,-1" class="g2_292" />
<path d="M495.5,990.5l68,0" class="g2_292" />
<path d="M563.5,990.5l0,-1" class="g2_292" />
<path d="M564.5,990.5l323,0" class="g2_292" />
<path d="M887.5,990.5l0,-1" class="g2_292" />
<path d="M46.5,1093.5l0,-103" class="g2_292" />
<path d="M46.5,1095.5l0,-2" class="g2_292" />
<path d="M46.5,1095.5l0,-2" class="g2_292" />
<path d="M47.5,1095.5l28,0" class="g2_292" />
<path d="M75.5,1093.5l0,-103" class="g2_292" />
<path d="M75.5,1095.5l0,-2" class="g2_292" />
<path d="M77.5,1095.5l31,0" class="g2_292" />
<path d="M108.5,1093.5l0,-103" class="g2_292" />
<path d="M108.5,1095.5l0,-2" class="g2_292" />
<path d="M109.5,1095.5l42,0" class="g2_292" />
<path d="M151.5,1093.5l0,-103" class="g2_292" />
<path d="M151.5,1095.5l0,-2" class="g2_292" />
<path d="M153.5,1095.5l176,0" class="g2_292" />
<path d="M329.5,1093.5l0,-103" class="g2_292" />
<path d="M329.5,1095.5l0,-2" class="g2_292" />
<path d="M330.5,1095.5l164,0" class="g2_292" />
<path d="M494.5,1093.5l0,-103" class="g2_292" />
<path d="M494.5,1095.5l0,-2" class="g2_292" />
<path d="M495.5,1095.5l68,0" class="g2_292" />
<path d="M563.5,1093.5l0,-103" class="g2_292" />
<path d="M563.5,1095.5l0,-2" class="g2_292" />
<path d="M564.5,1095.5l323,0" class="g2_292" />
<path d="M887.5,1093.5l0,-103" class="g2_292" />
<path d="M887.5,1095.5l0,-2" class="g2_292" />
<path d="M887.5,1095.5l0,-2" class="g2_292" />
</svg>