<?xml version="1.0" encoding="UTF-8" standalone="no"?>
<!DOCTYPE svg PUBLIC "-//W3C//DTD SVG 1.1//EN"
"http://www.w3.org/Graphics/SVG/1.1/DTD/svg11.dtd">
<svg version="1.1" xmlns="http://www.w3.org/2000/svg" xmlns:xlink="http://www.w3.org/1999/xlink">
<defs>
<clipPath id="c0_83"><path d="M47.5,246.5l0,-24l102,0l0,24Z" /></clipPath>
<clipPath id="c1_83"><path d="M151.5,246.5l0,-24l736,0l0,24Z" /></clipPath>
<clipPath id="c2_83"><path d="M47.5,271.5l0,-24l102,0l0,24Z" /></clipPath>
<clipPath id="c3_83"><path d="M151.5,271.5l0,-24l736,0l0,24Z" /></clipPath>
<clipPath id="c4_83"><path d="M47.5,297.5l0,-24l102,0l0,24Z" /></clipPath>
<clipPath id="c5_83"><path d="M151.5,297.5l0,-24l736,0l0,24Z" /></clipPath>
<clipPath id="c6_83"><path d="M47.5,322.5l0,-24l102,0l0,24Z" /></clipPath>
<clipPath id="c7_83"><path d="M151.5,322.5l0,-24l736,0l0,24Z" /></clipPath>
<clipPath id="c8_83"><path d="M47.5,347.5l0,-24l102,0l0,24Z" /></clipPath>
<clipPath id="c9_83"><path d="M151.5,347.5l0,-24l736,0l0,24Z" /></clipPath>
<clipPath id="c10_83"><path d="M47.5,603.5l0,-181l840,0l0,181Z" /></clipPath>
<clipPath id="c11_83"><path d="M47.5,773.5l0,-95l840,0l0,95Z" /></clipPath>
<style type="text/css"><![CDATA[
.g2_83{
fill: #DBE5F1;
}
.g5_83{
fill: none;
stroke: #F0F0E0;
stroke-width: 1;
stroke-linecap: butt;
stroke-linejoin: miter;
}
.g3_83{
fill: none;
stroke: #7E7E7E;
stroke-width: 1;
stroke-linecap: butt;
stroke-linejoin: miter;
}
.g4_83{
fill: #F1F1F1;
}
.g1_83{
fill: none;
stroke: #0000FF;
stroke-width: 1;
stroke-linecap: butt;
stroke-linejoin: miter;
}
]]></style>
</defs>
<path d="M371.5,192.5l163,0" class="g1_83" />
<path fill-rule="evenodd" d="M47,246l102,0l0,-24L47,222l0,24Z" class="g2_83" />
<g clip-path="url(#c0_83)">
<path fill-rule="evenodd" d="M55,246l87,0l0,-24l-87,0l0,24Z" class="g2_83" />
</g>
<path fill-rule="evenodd" d="M151,246l736,0l0,-24l-736,0l0,24Z" class="g2_83" />
<g clip-path="url(#c1_83)">
<path fill-rule="evenodd" d="M158,246l722,0l0,-24l-722,0l0,24Z" class="g2_83" />
</g>
<path d="M46.5,222.5l0,-1" class="g3_83" />
<path d="M46.5,222.5l0,-1" class="g3_83" />
<path d="M47.5,222.5l102,0" class="g3_83" />
<path d="M149.5,222.5l0,-1" class="g3_83" />
<path d="M151.5,222.5l736,0" class="g3_83" />
<path d="M887.5,222.5l0,-1" class="g3_83" />
<path d="M887.5,222.5l0,-1" class="g3_83" />
<path d="M46.5,246.5l0,-24" class="g3_83" />
<path d="M149.5,246.5l0,-24" class="g3_83" />
<path d="M887.5,246.5l0,-24" class="g3_83" />
<path fill-rule="evenodd" d="M47,271l102,0l0,-24L47,247l0,24Z" class="g4_83" />
<g clip-path="url(#c2_83)">
<path fill-rule="evenodd" d="M55,271l87,0l0,-24l-87,0l0,24Z" class="g4_83" />
</g>
<path fill-rule="evenodd" d="M151,271l736,0l0,-24l-736,0l0,24Z" class="g4_83" />
<g clip-path="url(#c3_83)">
<path fill-rule="evenodd" d="M158,271l722,0l0,-24l-722,0l0,24Z" class="g4_83" />
</g>
<path d="M46.5,247.5l0,-1" class="g3_83" />
<path d="M47.5,247.5l102,0" class="g3_83" />
<path d="M149.5,247.5l0,-1" class="g3_83" />
<path d="M151.5,247.5l736,0" class="g3_83" />
<path d="M887.5,247.5l0,-1" class="g3_83" />
<path d="M46.5,271.5l0,-24" class="g3_83" />
<path d="M149.5,271.5l0,-24" class="g3_83" />
<path d="M887.5,271.5l0,-24" class="g3_83" />
<path fill-rule="evenodd" d="M47,297l102,0l0,-24L47,273l0,24Z" class="g4_83" />
<g clip-path="url(#c4_83)">
<path fill-rule="evenodd" d="M55,297l87,0l0,-24l-87,0l0,24Z" class="g4_83" />
</g>
<path fill-rule="evenodd" d="M151,297l736,0l0,-24l-736,0l0,24Z" class="g4_83" />
<g clip-path="url(#c5_83)">
<path fill-rule="evenodd" d="M158,297l722,0l0,-24l-722,0l0,24Z" class="g4_83" />
</g>
<path d="M46.5,273.5l0,-2" class="g3_83" />
<path d="M47.5,273.5l102,0" class="g3_83" />
<path d="M149.5,273.5l0,-2" class="g3_83" />
<path d="M151.5,273.5l736,0" class="g3_83" />
<path d="M887.5,273.5l0,-2" class="g3_83" />
<path d="M46.5,297.5l0,-24" class="g3_83" />
<path d="M149.5,297.5l0,-24" class="g3_83" />
<path d="M887.5,297.5l0,-24" class="g3_83" />
<path fill-rule="evenodd" d="M47,322l102,0l0,-24L47,298l0,24Z" class="g4_83" />
<g clip-path="url(#c6_83)">
<path fill-rule="evenodd" d="M55,322l87,0l0,-24l-87,0l0,24Z" class="g4_83" />
</g>
<path fill-rule="evenodd" d="M151,322l736,0l0,-24l-736,0l0,24Z" class="g4_83" />
<g clip-path="url(#c7_83)">
<path fill-rule="evenodd" d="M158,322l722,0l0,-24l-722,0l0,24Z" class="g4_83" />
</g>
<path d="M46.5,298.5l0,-1" class="g3_83" />
<path d="M47.5,298.5l102,0" class="g3_83" />
<path d="M149.5,298.5l0,-1" class="g3_83" />
<path d="M151.5,298.5l736,0" class="g3_83" />
<path d="M887.5,298.5l0,-1" class="g3_83" />
<path d="M46.5,322.5l0,-24" class="g3_83" />
<path d="M149.5,322.5l0,-24" class="g3_83" />
<path d="M887.5,322.5l0,-24" class="g3_83" />
<path fill-rule="evenodd" d="M47,347l102,0l0,-24L47,323l0,24Z" class="g4_83" />
<g clip-path="url(#c8_83)">
<path fill-rule="evenodd" d="M55,347l87,0l0,-24l-87,0l0,24Z" class="g4_83" />
</g>
<path fill-rule="evenodd" d="M151,347l736,0l0,-24l-736,0l0,24Z" class="g4_83" />
<g clip-path="url(#c9_83)">
<path fill-rule="evenodd" d="M158,347l722,0l0,-24l-722,0l0,24Z" class="g4_83" />
</g>
<path d="M46.5,323.5l0,-1" class="g3_83" />
<path d="M47.5,323.5l102,0" class="g3_83" />
<path d="M149.5,323.5l0,-1" class="g3_83" />
<path d="M151.5,323.5l736,0" class="g3_83" />
<path d="M887.5,323.5l0,-1" class="g3_83" />
<path d="M46.5,347.5l0,-24" class="g3_83" />
<path d="M46.5,349.5l0,-2" class="g3_83" />
<path d="M46.5,349.5l0,-2" class="g3_83" />
<path d="M47.5,349.5l102,0" class="g3_83" />
<path d="M149.5,347.5l0,-24" class="g3_83" />
<path d="M149.5,349.5l0,-2" class="g3_83" />
<path d="M151.5,349.5l736,0" class="g3_83" />
<path d="M887.5,347.5l0,-24" class="g3_83" />
<path d="M887.5,349.5l0,-2" class="g3_83" />
<path d="M887.5,349.5l0,-2" class="g3_83" />
<path fill-rule="evenodd" d="M47,603l840,0l0,-181L47,422l0,181Z" class="g4_83" />
<path fill-rule="evenodd" d="M55,453l825,0l0,-31L55,422l0,31Z" class="g4_83" />
<g clip-path="url(#c10_83)">
<path d="M45.5,423.5l0,-1" class="g5_83" />
<path d="M45.5,423.5l0,-1" class="g5_83" />
<path d="M46.5,423.5l842,0" class="g5_83" />
<path d="M888.5,423.5l0,-1" class="g5_83" />
<path d="M888.5,423.5l0,-1" class="g5_83" />
<path d="M45.5,453.5l0,-30" class="g5_83" />
<path d="M888.5,453.5l0,-30" class="g5_83" />
</g>
<path fill-rule="evenodd" d="M55,477l825,0l0,-24L55,453l0,24Z" class="g4_83" />
<g clip-path="url(#c10_83)">
<path d="M45.5,477.5l0,-24" class="g5_83" />
<path d="M888.5,477.5l0,-24" class="g5_83" />
</g>
<path fill-rule="evenodd" d="M55,501l825,0l0,-24L55,477l0,24Z" class="g4_83" />
<g clip-path="url(#c10_83)">
<path d="M45.5,501.5l0,-24" class="g5_83" />
<path d="M888.5,501.5l0,-24" class="g5_83" />
</g>
<path fill-rule="evenodd" d="M55,525l825,0l0,-24L55,501l0,24Z" class="g4_83" />
<g clip-path="url(#c10_83)">
<path d="M45.5,525.5l0,-24" class="g5_83" />
<path d="M888.5,525.5l0,-24" class="g5_83" />
</g>
<path fill-rule="evenodd" d="M55,548l825,0l0,-23L55,525l0,23Z" class="g4_83" />
<g clip-path="url(#c10_83)">
<path d="M45.5,548.5l0,-23" class="g5_83" />
<path d="M888.5,548.5l0,-23" class="g5_83" />
</g>
<path fill-rule="evenodd" d="M55,572l825,0l0,-24L55,548l0,24Z" class="g4_83" />
<g clip-path="url(#c10_83)">
<path d="M45.5,572.5l0,-24" class="g5_83" />
<path d="M888.5,572.5l0,-24" class="g5_83" />
</g>
<path fill-rule="evenodd" d="M55,603l825,0l0,-31L55,572l0,31Z" class="g4_83" />
<g clip-path="url(#c10_83)">
<path d="M45.5,603.5l0,-1" class="g5_83" />
<path d="M45.5,603.5l0,-1" class="g5_83" />
<path d="M46.5,603.5l842,0" class="g5_83" />
<path d="M888.5,603.5l0,-1" class="g5_83" />
<path d="M888.5,603.5l0,-1" class="g5_83" />
<path d="M45.5,602.5l0,-30" class="g5_83" />
<path d="M888.5,602.5l0,-30" class="g5_83" />
</g>
<path d="M46.5,422.5l0,-1" class="g3_83" />
<path d="M46.5,422.5l0,-1" class="g3_83" />
<path d="M47.5,422.5l840,0" class="g3_83" />
<path d="M887.5,422.5l0,-1" class="g3_83" />
<path d="M887.5,422.5l0,-1" class="g3_83" />
<path d="M46.5,603.5l0,-181" class="g3_83" />
<path d="M46.5,605.5l0,-2" class="g3_83" />
<path d="M46.5,605.5l0,-2" class="g3_83" />
<path d="M47.5,605.5l840,0" class="g3_83" />
<path d="M887.5,603.5l0,-181" class="g3_83" />
<path d="M887.5,605.5l0,-2" class="g3_83" />
<path d="M887.5,605.5l0,-2" class="g3_83" />
<path fill-rule="evenodd" d="M47,773l840,0l0,-95L47,678l0,95Z" class="g4_83" />
<g clip-path="url(#c11_83)">
<path fill-rule="evenodd" d="M55,702l825,0l0,-24L55,678l0,24Z" class="g4_83" />
</g>
<path fill-rule="evenodd" d="M55,726l825,0l0,-24L55,702l0,24Z" class="g4_83" />
<path fill-rule="evenodd" d="M55,749l825,0l0,-23L55,726l0,23Z" class="g4_83" />
<path fill-rule="evenodd" d="M55,773l825,0l0,-24L55,749l0,24Z" class="g4_83" />
<path d="M46.5,678.5l0,-2" class="g3_83" />
<path d="M46.5,678.5l0,-2" class="g3_83" />
<path d="M47.5,678.5l840,0" class="g3_83" />
<path d="M887.5,678.5l0,-2" class="g3_83" />
<path d="M887.5,678.5l0,-2" class="g3_83" />
<path d="M46.5,773.5l0,-95" class="g3_83" />
<path d="M46.5,775.5l0,-2" class="g3_83" />
<path d="M46.5,775.5l0,-2" class="g3_83" />
<path d="M47.5,775.5l840,0" class="g3_83" />
<path d="M887.5,773.5l0,-95" class="g3_83" />
<path d="M887.5,775.5l0,-2" class="g3_83" />
<path d="M887.5,775.5l0,-2" class="g3_83" />
</svg>