<?xml version="1.0" encoding="UTF-8" standalone="no"?>
<!DOCTYPE svg PUBLIC "-//W3C//DTD SVG 1.1//EN"
"http://www.w3.org/Graphics/SVG/1.1/DTD/svg11.dtd">
<svg version="1.1" xmlns="http://www.w3.org/2000/svg" xmlns:xlink="http://www.w3.org/1999/xlink">
<defs>
<clipPath id="c0_291"><path d="M47.5,135.5l0,-24l102,0l0,24Z" /></clipPath>
<clipPath id="c1_291"><path d="M151.5,135.5l0,-24l736,0l0,24Z" /></clipPath>
<clipPath id="c2_291"><path d="M47.5,160.5l0,-24l102,0l0,24Z" /></clipPath>
<clipPath id="c3_291"><path d="M151.5,160.5l0,-24l736,0l0,24Z" /></clipPath>
<clipPath id="c4_291"><path d="M47.5,281.5l0,-119l102,0l0,119Z" /></clipPath>
<clipPath id="c5_291"><path d="M151.5,281.5l0,-119l736,0l0,119Z" /></clipPath>
<clipPath id="c6_291"><path d="M47.5,537.5l0,-181l840,0l0,181Z" /></clipPath>
<clipPath id="c7_291"><path d="M47.5,707.5l0,-96l840,0l0,96Z" /></clipPath>
<style type="text/css"><![CDATA[
.g2_291{
fill: none;
stroke: #7E7E7E;
stroke-width: 1;
stroke-linecap: butt;
stroke-linejoin: miter;
}
.g3_291{
fill: none;
stroke: #F0F0E0;
stroke-width: 1;
stroke-linecap: butt;
stroke-linejoin: miter;
}
.g1_291{
fill: #F1F1F1;
}
]]></style>
</defs>
<path fill-rule="evenodd" d="M47,135l102,0l0,-24L47,111l0,24Z" class="g1_291" />
<g clip-path="url(#c0_291)">
<path fill-rule="evenodd" d="M55,135l87,0l0,-24l-87,0l0,24Z" class="g1_291" />
</g>
<path fill-rule="evenodd" d="M151,135l736,0l0,-24l-736,0l0,24Z" class="g1_291" />
<g clip-path="url(#c1_291)">
<path fill-rule="evenodd" d="M158,135l722,0l0,-24l-722,0l0,24Z" class="g1_291" />
</g>
<path d="M46.5,111.5l0,-1" class="g2_291" />
<path d="M46.5,111.5l0,-1" class="g2_291" />
<path d="M47.5,111.5l102,0" class="g2_291" />
<path d="M149.5,111.5l0,-1" class="g2_291" />
<path d="M151.5,111.5l736,0" class="g2_291" />
<path d="M887.5,111.5l0,-1" class="g2_291" />
<path d="M887.5,111.5l0,-1" class="g2_291" />
<path d="M46.5,135.5l0,-24" class="g2_291" />
<path d="M149.5,135.5l0,-24" class="g2_291" />
<path d="M887.5,135.5l0,-24" class="g2_291" />
<path fill-rule="evenodd" d="M47,160l102,0l0,-24L47,136l0,24Z" class="g1_291" />
<g clip-path="url(#c2_291)">
<path fill-rule="evenodd" d="M55,160l87,0l0,-24l-87,0l0,24Z" class="g1_291" />
</g>
<path fill-rule="evenodd" d="M151,160l736,0l0,-24l-736,0l0,24Z" class="g1_291" />
<g clip-path="url(#c3_291)">
<path fill-rule="evenodd" d="M158,160l722,0l0,-24l-722,0l0,24Z" class="g1_291" />
</g>
<path d="M46.5,136.5l0,-1" class="g2_291" />
<path d="M47.5,136.5l102,0" class="g2_291" />
<path d="M149.5,136.5l0,-1" class="g2_291" />
<path d="M151.5,136.5l736,0" class="g2_291" />
<path d="M887.5,136.5l0,-1" class="g2_291" />
<path d="M46.5,160.5l0,-24" class="g2_291" />
<path d="M149.5,160.5l0,-24" class="g2_291" />
<path d="M887.5,160.5l0,-24" class="g2_291" />
<path fill-rule="evenodd" d="M47,281l102,0l0,-119L47,162l0,119Z" class="g1_291" />
<g clip-path="url(#c4_291)">
<path fill-rule="evenodd" d="M55,186l87,0l0,-24l-87,0l0,24Z" class="g1_291" />
</g>
<path fill-rule="evenodd" d="M151,281l736,0l0,-119l-736,0l0,119Z" class="g1_291" />
<g clip-path="url(#c5_291)">
<path fill-rule="evenodd" d="M158,186l722,0l0,-24l-722,0l0,24Z" class="g1_291" />
</g>
<path fill-rule="evenodd" d="M158,209l722,0l0,-23l-722,0l0,23Z" class="g1_291" />
<path fill-rule="evenodd" d="M158,233l722,0l0,-24l-722,0l0,24Z" class="g1_291" />
<path fill-rule="evenodd" d="M158,257l722,0l0,-24l-722,0l0,24Z" class="g1_291" />
<path fill-rule="evenodd" d="M158,281l722,0l0,-24l-722,0l0,24Z" class="g1_291" />
<path d="M46.5,162.5l0,-2" class="g2_291" />
<path d="M47.5,162.5l102,0" class="g2_291" />
<path d="M149.5,162.5l0,-2" class="g2_291" />
<path d="M151.5,162.5l736,0" class="g2_291" />
<path d="M887.5,162.5l0,-2" class="g2_291" />
<path d="M46.5,281.5l0,-119" class="g2_291" />
<path d="M46.5,282.5l0,-1" class="g2_291" />
<path d="M46.5,282.5l0,-1" class="g2_291" />
<path d="M47.5,282.5l102,0" class="g2_291" />
<path d="M149.5,281.5l0,-119" class="g2_291" />
<path d="M149.5,282.5l0,-1" class="g2_291" />
<path d="M151.5,282.5l736,0" class="g2_291" />
<path d="M887.5,281.5l0,-119" class="g2_291" />
<path d="M887.5,282.5l0,-1" class="g2_291" />
<path d="M887.5,282.5l0,-1" class="g2_291" />
<path fill-rule="evenodd" d="M47,537l840,0l0,-181L47,356l0,181Z" class="g1_291" />
<g clip-path="url(#c6_291)">
<path fill-rule="evenodd" d="M55,387l825,0l0,-31L55,356l0,31Z" class="g1_291" />
<path d="M45.5,357.5l0,-1" class="g3_291" />
<path d="M45.5,357.5l0,-1" class="g3_291" />
<path d="M46.5,357.5l842,0" class="g3_291" />
<path d="M888.5,357.5l0,-1" class="g3_291" />
<path d="M888.5,357.5l0,-1" class="g3_291" />
<path d="M45.5,387.5l0,-30" class="g3_291" />
<path d="M888.5,387.5l0,-30" class="g3_291" />
</g>
<path fill-rule="evenodd" d="M55,410l825,0l0,-23L55,387l0,23Z" class="g1_291" />
<g clip-path="url(#c6_291)">
<path d="M45.5,410.5l0,-23" class="g3_291" />
<path d="M888.5,410.5l0,-23" class="g3_291" />
</g>
<path fill-rule="evenodd" d="M55,434l825,0l0,-24L55,410l0,24Z" class="g1_291" />
<g clip-path="url(#c6_291)">
<path d="M45.5,434.5l0,-24" class="g3_291" />
<path d="M888.5,434.5l0,-24" class="g3_291" />
</g>
<path fill-rule="evenodd" d="M55,458l825,0l0,-24L55,434l0,24Z" class="g1_291" />
<g clip-path="url(#c6_291)">
<path d="M45.5,458.5l0,-24" class="g3_291" />
<path d="M888.5,458.5l0,-24" class="g3_291" />
</g>
<path fill-rule="evenodd" d="M55,482l825,0l0,-24L55,458l0,24Z" class="g1_291" />
<g clip-path="url(#c6_291)">
<path d="M45.5,482.5l0,-24" class="g3_291" />
<path d="M888.5,482.5l0,-24" class="g3_291" />
</g>
<path fill-rule="evenodd" d="M55,506l825,0l0,-24L55,482l0,24Z" class="g1_291" />
<g clip-path="url(#c6_291)">
<path d="M45.5,506.5l0,-24" class="g3_291" />
<path d="M888.5,506.5l0,-24" class="g3_291" />
</g>
<path fill-rule="evenodd" d="M55,537l825,0l0,-31L55,506l0,31Z" class="g1_291" />
<g clip-path="url(#c6_291)">
<path d="M45.5,537.5l0,-1" class="g3_291" />
<path d="M45.5,537.5l0,-1" class="g3_291" />
<path d="M46.5,537.5l842,0" class="g3_291" />
<path d="M888.5,537.5l0,-1" class="g3_291" />
<path d="M888.5,537.5l0,-1" class="g3_291" />
<path d="M45.5,536.5l0,-30" class="g3_291" />
<path d="M888.5,536.5l0,-30" class="g3_291" />
</g>
<path d="M46.5,355.5l0,-1" class="g2_291" />
<path d="M46.5,355.5l0,-1" class="g2_291" />
<path d="M47.5,355.5l840,0" class="g2_291" />
<path d="M887.5,355.5l0,-1" class="g2_291" />
<path d="M887.5,355.5l0,-1" class="g2_291" />
<path d="M46.5,537.5l0,-182" class="g2_291" />
<path d="M46.5,538.5l0,-1" class="g2_291" />
<path d="M46.5,538.5l0,-1" class="g2_291" />
<path d="M47.5,538.5l840,0" class="g2_291" />
<path d="M887.5,537.5l0,-182" class="g2_291" />
<path d="M887.5,538.5l0,-1" class="g2_291" />
<path d="M887.5,538.5l0,-1" class="g2_291" />
<path fill-rule="evenodd" d="M47,707l840,0l0,-96L47,611l0,96Z" class="g1_291" />
<g clip-path="url(#c7_291)">
<path fill-rule="evenodd" d="M55,635l825,0l0,-24L55,611l0,24Z" class="g1_291" />
</g>
<path fill-rule="evenodd" d="M55,659l825,0l0,-24L55,635l0,24Z" class="g1_291" />
<path fill-rule="evenodd" d="M55,683l825,0l0,-24L55,659l0,24Z" class="g1_291" />
<path fill-rule="evenodd" d="M55,707l825,0l0,-24L55,683l0,24Z" class="g1_291" />
<path d="M46.5,611.5l0,-1" class="g2_291" />
<path d="M46.5,611.5l0,-1" class="g2_291" />
<path d="M47.5,611.5l840,0" class="g2_291" />
<path d="M887.5,611.5l0,-1" class="g2_291" />
<path d="M887.5,611.5l0,-1" class="g2_291" />
<path d="M46.5,707.5l0,-96" class="g2_291" />
<path d="M46.5,708.5l0,-1" class="g2_291" />
<path d="M46.5,708.5l0,-1" class="g2_291" />
<path d="M47.5,708.5l840,0" class="g2_291" />
<path d="M887.5,707.5l0,-96" class="g2_291" />
<path d="M887.5,708.5l0,-1" class="g2_291" />
<path d="M887.5,708.5l0,-1" class="g2_291" />
</svg>