<?xml version="1.0" encoding="UTF-8" standalone="no"?>
<!DOCTYPE svg PUBLIC "-//W3C//DTD SVG 1.1//EN"
"http://www.w3.org/Graphics/SVG/1.1/DTD/svg11.dtd">
<svg version="1.1" xmlns="http://www.w3.org/2000/svg" xmlns:xlink="http://www.w3.org/1999/xlink">
<defs>
<clipPath id="c0_275"><path d="M47.5,516.5l0,-405l840,0l0,405Z" /></clipPath>
<clipPath id="c1_275"><path d="M47.5,720.5l0,-24l840,0l0,24Z" /></clipPath>
<clipPath id="c2_275"><path d="M47.5,1080.5l0,-334l840,0l0,334Z" /></clipPath>
<style type="text/css"><![CDATA[
.g2_275{
fill: #F5F5F5;
}
.g3_275{
fill: none;
stroke: #7E7E7E;
stroke-width: 1;
stroke-linecap: butt;
stroke-linejoin: miter;
}
.g1_275{
fill: #F1F1F1;
}
]]></style>
</defs>
<path fill-rule="evenodd" d="M47,516l840,0l0,-405L47,111l0,405Z" class="g1_275" />
<g clip-path="url(#c0_275)">
<path fill-rule="evenodd" d="M55,135l825,0l0,-24L55,111l0,24Z" class="g1_275" />
</g>
<path fill-rule="evenodd" d="M55,159l825,0l0,-24L55,135l0,24Z" class="g1_275" />
<path fill-rule="evenodd" d="M55,182l825,0l0,-23L55,159l0,23Z" class="g1_275" />
<path fill-rule="evenodd" d="M55,206l825,0l0,-24L55,182l0,24Z" class="g1_275" />
<path fill-rule="evenodd" d="M55,230l825,0l0,-24L55,206l0,24Z" class="g1_275" />
<path fill-rule="evenodd" d="M55,254l825,0l0,-24L55,230l0,24Z" class="g1_275" />
<path fill-rule="evenodd" d="M55,278l825,0l0,-24L55,254l0,24Z" class="g1_275" />
<path fill-rule="evenodd" d="M55,302l825,0l0,-24L55,278l0,24Z" class="g1_275" />
<path fill-rule="evenodd" d="M55,325l825,0l0,-23L55,302l0,23Z" class="g1_275" />
<path fill-rule="evenodd" d="M55,349l825,0l0,-24L55,325l0,24Z" class="g1_275" />
<path fill-rule="evenodd" d="M55,373l825,0l0,-24L55,349l0,24Z" class="g1_275" />
<path fill-rule="evenodd" d="M55,397l825,0l0,-24L55,373l0,24Z" class="g1_275" />
<path fill-rule="evenodd" d="M55,421l825,0l0,-24L55,397l0,24Z" class="g1_275" />
<path fill-rule="evenodd" d="M55,445l825,0l0,-24L55,421l0,24Z" class="g1_275" />
<path fill-rule="evenodd" d="M55,469l825,0l0,-24L55,445l0,24Z" class="g1_275" />
<path fill-rule="evenodd" d="M55,492l825,0l0,-23L55,469l0,23Z" class="g1_275" />
<path fill-rule="evenodd" d="M55,516l825,0l0,-24L55,492l0,24Z" class="g1_275" />
<path fill-rule="evenodd" d="M52,516l830,0l0,-24L52,492l0,24Z" class="g2_275" />
<path d="M46.5,111.5l0,-1" class="g3_275" />
<path d="M46.5,111.5l0,-1" class="g3_275" />
<path d="M47.5,111.5l840,0" class="g3_275" />
<path d="M887.5,111.5l0,-1" class="g3_275" />
<path d="M887.5,111.5l0,-1" class="g3_275" />
<path d="M46.5,516.5l0,-405" class="g3_275" />
<path d="M46.5,518.5l0,-2" class="g3_275" />
<path d="M46.5,518.5l0,-2" class="g3_275" />
<path d="M47.5,518.5l840,0" class="g3_275" />
<path d="M887.5,516.5l0,-405" class="g3_275" />
<path d="M887.5,518.5l0,-2" class="g3_275" />
<path d="M887.5,518.5l0,-2" class="g3_275" />
<path fill-rule="evenodd" d="M47,720l840,0l0,-24L47,696l0,24Z" class="g1_275" />
<g clip-path="url(#c1_275)">
<path fill-rule="evenodd" d="M55,720l825,0l0,-24L55,696l0,24Z" class="g1_275" />
</g>
<path d="M46.5,696.5l0,-2" class="g3_275" />
<path d="M46.5,696.5l0,-2" class="g3_275" />
<path d="M47.5,696.5l840,0" class="g3_275" />
<path d="M887.5,696.5l0,-2" class="g3_275" />
<path d="M887.5,696.5l0,-2" class="g3_275" />
<path d="M46.5,720.5l0,-24" class="g3_275" />
<path d="M46.5,721.5l0,-1" class="g3_275" />
<path d="M46.5,721.5l0,-1" class="g3_275" />
<path d="M47.5,721.5l840,0" class="g3_275" />
<path d="M887.5,720.5l0,-24" class="g3_275" />
<path d="M887.5,721.5l0,-1" class="g3_275" />
<path d="M887.5,721.5l0,-1" class="g3_275" />
<path fill-rule="evenodd" d="M47,1080l840,0l0,-334L47,746l0,334Z" class="g1_275" />
<g clip-path="url(#c2_275)">
<path fill-rule="evenodd" d="M55,770l825,0l0,-24L55,746l0,24Z" class="g1_275" />
</g>
<path fill-rule="evenodd" d="M55,794l825,0l0,-24L55,770l0,24Z" class="g1_275" />
<path fill-rule="evenodd" d="M55,818l825,0l0,-24L55,794l0,24Z" class="g1_275" />
<path fill-rule="evenodd" d="M55,842l825,0l0,-24L55,818l0,24Z" class="g1_275" />
<path fill-rule="evenodd" d="M55,865l825,0l0,-23L55,842l0,23Z" class="g1_275" />
<path fill-rule="evenodd" d="M55,889l825,0l0,-24L55,865l0,24Z" class="g1_275" />
<path fill-rule="evenodd" d="M55,913l825,0l0,-24L55,889l0,24Z" class="g1_275" />
<path fill-rule="evenodd" d="M55,937l825,0l0,-24L55,913l0,24Z" class="g1_275" />
<path fill-rule="evenodd" d="M55,961l825,0l0,-24L55,937l0,24Z" class="g1_275" />
<path fill-rule="evenodd" d="M55,985l825,0l0,-24L55,961l0,24Z" class="g1_275" />
<path fill-rule="evenodd" d="M55,1009l825,0l0,-24L55,985l0,24Z" class="g1_275" />
<path fill-rule="evenodd" d="M55,1032l825,0l0,-23l-825,0l0,23Z" class="g1_275" />
<path fill-rule="evenodd" d="M55,1056l825,0l0,-24l-825,0l0,24Z" class="g1_275" />
<g clip-path="url(#c2_275)">
<path fill-rule="evenodd" d="M55,1080l825,0l0,-24l-825,0l0,24Z" class="g1_275" />
</g>
<path d="M46.5,746.5l0,-1" class="g3_275" />
<path d="M46.5,746.5l0,-1" class="g3_275" />
<path d="M47.5,746.5l840,0" class="g3_275" />
<path d="M887.5,746.5l0,-1" class="g3_275" />
<path d="M887.5,746.5l0,-1" class="g3_275" />
<path d="M46.5,1080.5l0,-334" class="g3_275" />
<path d="M46.5,1082.5l0,-2" class="g3_275" />
<path d="M46.5,1082.5l0,-2" class="g3_275" />
<path d="M47.5,1082.5l840,0" class="g3_275" />
<path d="M887.5,1080.5l0,-334" class="g3_275" />
<path d="M887.5,1082.5l0,-2" class="g3_275" />
<path d="M887.5,1082.5l0,-2" class="g3_275" />
</svg>