<?xml version="1.0" encoding="UTF-8" standalone="no"?>
<!DOCTYPE svg PUBLIC "-//W3C//DTD SVG 1.1//EN"
"http://www.w3.org/Graphics/SVG/1.1/DTD/svg11.dtd">
<svg version="1.1" xmlns="http://www.w3.org/2000/svg" xmlns:xlink="http://www.w3.org/1999/xlink">
<defs>
<clipPath id="c0_271"><path d="M47.5,230.5l0,-95l840,0l0,95Z" /></clipPath>
<clipPath id="c1_271"><path d="M47.5,733.5l0,-24l177,0l0,24Z" /></clipPath>
<clipPath id="c2_271"><path d="M226.5,733.5l0,-24l162,0l0,24Z" /></clipPath>
<clipPath id="c3_271"><path d="M390.5,733.5l0,-24l163,0l0,24Z" /></clipPath>
<clipPath id="c4_271"><path d="M554.5,733.5l0,-24l163,0l0,24Z" /></clipPath>
<clipPath id="c5_271"><path d="M719.5,733.5l0,-24l168,0l0,24Z" /></clipPath>
<clipPath id="c6_271"><path d="M47.5,758.5l0,-24l177,0l0,24Z" /></clipPath>
<clipPath id="c7_271"><path d="M226.5,758.5l0,-24l162,0l0,24Z" /></clipPath>
<clipPath id="c8_271"><path d="M390.5,758.5l0,-24l163,0l0,24Z" /></clipPath>
<clipPath id="c9_271"><path d="M554.5,758.5l0,-24l163,0l0,24Z" /></clipPath>
<clipPath id="c10_271"><path d="M719.5,758.5l0,-24l168,0l0,24Z" /></clipPath>
<clipPath id="c11_271"><path d="M47.5,1013.5l0,-119l840,0l0,119Z" /></clipPath>
<style type="text/css"><![CDATA[
.g2_271{
fill: none;
stroke: #7E7E7E;
stroke-width: 1;
stroke-linecap: butt;
stroke-linejoin: miter;
}
.g3_271{
fill: #DBE5F1;
}
.g1_271{
fill: #F1F1F1;
}
]]></style>
</defs>
<path fill-rule="evenodd" d="M47,230l840,0l0,-95L47,135l0,95Z" class="g1_271" />
<g clip-path="url(#c0_271)">
<path fill-rule="evenodd" d="M55,159l825,0l0,-24L55,135l0,24Z" class="g1_271" />
</g>
<path fill-rule="evenodd" d="M55,182l825,0l0,-23L55,159l0,23Z" class="g1_271" />
<path fill-rule="evenodd" d="M55,206l825,0l0,-24L55,182l0,24Z" class="g1_271" />
<path fill-rule="evenodd" d="M55,230l825,0l0,-24L55,206l0,24Z" class="g1_271" />
<path d="M46.5,135.5l0,-2" class="g2_271" />
<path d="M46.5,135.5l0,-2" class="g2_271" />
<path d="M47.5,135.5l840,0" class="g2_271" />
<path d="M887.5,135.5l0,-2" class="g2_271" />
<path d="M887.5,135.5l0,-2" class="g2_271" />
<path d="M46.5,230.5l0,-95" class="g2_271" />
<path d="M46.5,232.5l0,-2" class="g2_271" />
<path d="M46.5,232.5l0,-2" class="g2_271" />
<path d="M47.5,232.5l840,0" class="g2_271" />
<path d="M887.5,230.5l0,-95" class="g2_271" />
<path d="M887.5,232.5l0,-2" class="g2_271" />
<path d="M887.5,232.5l0,-2" class="g2_271" />
<path fill-rule="evenodd" d="M47,501l840,0l0,-24L47,477l0,24Z" class="g1_271" />
<path fill-rule="evenodd" d="M55,501l825,0l0,-24L55,477l0,24Z" class="g1_271" />
<path d="M46.5,477.5l0,-1" class="g2_271" />
<path d="M46.5,477.5l0,-1" class="g2_271" />
<path d="M47.5,477.5l840,0" class="g2_271" />
<path d="M887.5,477.5l0,-1" class="g2_271" />
<path d="M887.5,477.5l0,-1" class="g2_271" />
<path d="M46.5,501.5l0,-24" class="g2_271" />
<path d="M46.5,502.5l0,-1" class="g2_271" />
<path d="M46.5,502.5l0,-1" class="g2_271" />
<path d="M47.5,502.5l840,0" class="g2_271" />
<path d="M887.5,501.5l0,-24" class="g2_271" />
<path d="M887.5,502.5l0,-1" class="g2_271" />
<path d="M887.5,502.5l0,-1" class="g2_271" />
<path fill-rule="evenodd" d="M47,607l178,0l0,-24L47,583l0,24Z" class="g3_271" />
<path fill-rule="evenodd" d="M55,607l162,0l0,-24L55,583l0,24Z" class="g3_271" />
<path fill-rule="evenodd" d="M226,607l163,0l0,-24l-163,0l0,24Z" class="g3_271" />
<path fill-rule="evenodd" d="M234,607l147,0l0,-24l-147,0l0,24Z" class="g3_271" />
<path fill-rule="evenodd" d="M390,607l497,0l0,-24l-497,0l0,24Z" class="g3_271" />
<path fill-rule="evenodd" d="M398,607l482,0l0,-24l-482,0l0,24Z" class="g3_271" />
<path d="M46.5,583.5l0,-1" class="g2_271" />
<path d="M46.5,583.5l0,-1" class="g2_271" />
<path d="M47.5,583.5l178,0" class="g2_271" />
<path d="M225.5,583.5l0,-1" class="g2_271" />
<path d="M226.5,583.5l163,0" class="g2_271" />
<path d="M389.5,583.5l0,-1" class="g2_271" />
<path d="M390.5,583.5l497,0" class="g2_271" />
<path d="M887.5,583.5l0,-1" class="g2_271" />
<path d="M887.5,583.5l0,-1" class="g2_271" />
<path d="M46.5,607.5l0,-24" class="g2_271" />
<path d="M225.5,607.5l0,-24" class="g2_271" />
<path d="M389.5,607.5l0,-24" class="g2_271" />
<path d="M887.5,607.5l0,-24" class="g2_271" />
<path fill-rule="evenodd" d="M47,633l178,0l0,-24L47,609l0,24Z" class="g1_271" />
<path fill-rule="evenodd" d="M55,633l162,0l0,-24L55,609l0,24Z" class="g1_271" />
<path fill-rule="evenodd" d="M226,633l163,0l0,-24l-163,0l0,24Z" class="g1_271" />
<path fill-rule="evenodd" d="M234,633l147,0l0,-24l-147,0l0,24Z" class="g1_271" />
<path fill-rule="evenodd" d="M390,633l497,0l0,-24l-497,0l0,24Z" class="g1_271" />
<path fill-rule="evenodd" d="M398,633l482,0l0,-24l-482,0l0,24Z" class="g1_271" />
<path d="M46.5,609.5l0,-2" class="g2_271" />
<path d="M47.5,609.5l178,0" class="g2_271" />
<path d="M225.5,609.5l0,-2" class="g2_271" />
<path d="M226.5,609.5l163,0" class="g2_271" />
<path d="M389.5,609.5l0,-2" class="g2_271" />
<path d="M390.5,609.5l497,0" class="g2_271" />
<path d="M887.5,609.5l0,-2" class="g2_271" />
<path d="M46.5,633.5l0,-24" class="g2_271" />
<path d="M225.5,633.5l0,-24" class="g2_271" />
<path d="M389.5,633.5l0,-24" class="g2_271" />
<path d="M887.5,633.5l0,-24" class="g2_271" />
<path fill-rule="evenodd" d="M47,658l178,0l0,-24L47,634l0,24Z" class="g1_271" />
<path fill-rule="evenodd" d="M55,658l162,0l0,-24L55,634l0,24Z" class="g1_271" />
<path fill-rule="evenodd" d="M226,658l163,0l0,-24l-163,0l0,24Z" class="g1_271" />
<path fill-rule="evenodd" d="M234,658l147,0l0,-24l-147,0l0,24Z" class="g1_271" />
<path fill-rule="evenodd" d="M390,658l497,0l0,-24l-497,0l0,24Z" class="g1_271" />
<path fill-rule="evenodd" d="M398,658l482,0l0,-24l-482,0l0,24Z" class="g1_271" />
<path d="M46.5,634.5l0,-1" class="g2_271" />
<path d="M47.5,634.5l178,0" class="g2_271" />
<path d="M225.5,634.5l0,-1" class="g2_271" />
<path d="M226.5,634.5l163,0" class="g2_271" />
<path d="M389.5,634.5l0,-1" class="g2_271" />
<path d="M390.5,634.5l497,0" class="g2_271" />
<path d="M887.5,634.5l0,-1" class="g2_271" />
<path d="M46.5,658.5l0,-24" class="g2_271" />
<path d="M46.5,660.5l0,-2" class="g2_271" />
<path d="M46.5,660.5l0,-2" class="g2_271" />
<path d="M47.5,660.5l178,0" class="g2_271" />
<path d="M225.5,658.5l0,-24" class="g2_271" />
<path d="M225.5,660.5l0,-2" class="g2_271" />
<path d="M226.5,660.5l163,0" class="g2_271" />
<path d="M389.5,658.5l0,-24" class="g2_271" />
<path d="M389.5,660.5l0,-2" class="g2_271" />
<path d="M390.5,660.5l497,0" class="g2_271" />
<path d="M887.5,658.5l0,-24" class="g2_271" />
<path d="M887.5,660.5l0,-2" class="g2_271" />
<path d="M887.5,660.5l0,-2" class="g2_271" />
<path fill-rule="evenodd" d="M47,733l177,0l0,-24L47,709l0,24Z" class="g3_271" />
<g clip-path="url(#c1_271)">
<path fill-rule="evenodd" d="M55,733l162,0l0,-24L55,709l0,24Z" class="g3_271" />
</g>
<path fill-rule="evenodd" d="M226,733l162,0l0,-24l-162,0l0,24Z" class="g3_271" />
<g clip-path="url(#c2_271)">
<path fill-rule="evenodd" d="M233,733l148,0l0,-24l-148,0l0,24Z" class="g3_271" />
</g>
<path fill-rule="evenodd" d="M390,733l163,0l0,-24l-163,0l0,24Z" class="g3_271" />
<g clip-path="url(#c3_271)">
<path fill-rule="evenodd" d="M397,733l148,0l0,-24l-148,0l0,24Z" class="g3_271" />
</g>
<path fill-rule="evenodd" d="M554,733l163,0l0,-24l-163,0l0,24Z" class="g3_271" />
<g clip-path="url(#c4_271)">
<path fill-rule="evenodd" d="M562,733l148,0l0,-24l-148,0l0,24Z" class="g3_271" />
</g>
<path fill-rule="evenodd" d="M719,733l168,0l0,-24l-168,0l0,24Z" class="g3_271" />
<g clip-path="url(#c5_271)">
<path fill-rule="evenodd" d="M726,733l154,0l0,-24l-154,0l0,24Z" class="g3_271" />
</g>
<path d="M46.5,709.5l0,-2" class="g2_271" />
<path d="M46.5,709.5l0,-2" class="g2_271" />
<path d="M47.5,709.5l177,0" class="g2_271" />
<path d="M224.5,709.5l0,-2" class="g2_271" />
<path d="M226.5,709.5l162,0" class="g2_271" />
<path d="M388.5,709.5l0,-2" class="g2_271" />
<path d="M390.5,709.5l163,0" class="g2_271" />
<path d="M553.5,709.5l0,-2" class="g2_271" />
<path d="M554.5,709.5l163,0" class="g2_271" />
<path d="M717.5,709.5l0,-2" class="g2_271" />
<path d="M719.5,709.5l168,0" class="g2_271" />
<path d="M887.5,709.5l0,-2" class="g2_271" />
<path d="M887.5,709.5l0,-2" class="g2_271" />
<path d="M46.5,733.5l0,-24" class="g2_271" />
<path d="M224.5,733.5l0,-24" class="g2_271" />
<path d="M388.5,733.5l0,-24" class="g2_271" />
<path d="M553.5,733.5l0,-24" class="g2_271" />
<path d="M717.5,733.5l0,-24" class="g2_271" />
<path d="M887.5,733.5l0,-24" class="g2_271" />
<path fill-rule="evenodd" d="M47,758l177,0l0,-24L47,734l0,24Z" class="g1_271" />
<g clip-path="url(#c6_271)">
<path fill-rule="evenodd" d="M55,758l162,0l0,-24L55,734l0,24Z" class="g1_271" />
</g>
<path fill-rule="evenodd" d="M226,758l162,0l0,-24l-162,0l0,24Z" class="g1_271" />
<g clip-path="url(#c7_271)">
<path fill-rule="evenodd" d="M233,758l148,0l0,-24l-148,0l0,24Z" class="g1_271" />
</g>
<path fill-rule="evenodd" d="M390,758l163,0l0,-24l-163,0l0,24Z" class="g1_271" />
<g clip-path="url(#c8_271)">
<path fill-rule="evenodd" d="M397,758l148,0l0,-24l-148,0l0,24Z" class="g1_271" />
</g>
<path fill-rule="evenodd" d="M554,758l163,0l0,-24l-163,0l0,24Z" class="g1_271" />
<g clip-path="url(#c9_271)">
<path fill-rule="evenodd" d="M562,758l148,0l0,-24l-148,0l0,24Z" class="g1_271" />
</g>
<path fill-rule="evenodd" d="M719,758l168,0l0,-24l-168,0l0,24Z" class="g1_271" />
<g clip-path="url(#c10_271)">
<path fill-rule="evenodd" d="M726,758l154,0l0,-24l-154,0l0,24Z" class="g1_271" />
</g>
<path d="M46.5,734.5l0,-1" class="g2_271" />
<path d="M47.5,734.5l177,0" class="g2_271" />
<path d="M224.5,734.5l0,-1" class="g2_271" />
<path d="M226.5,734.5l162,0" class="g2_271" />
<path d="M388.5,734.5l0,-1" class="g2_271" />
<path d="M390.5,734.5l163,0" class="g2_271" />
<path d="M553.5,734.5l0,-1" class="g2_271" />
<path d="M554.5,734.5l163,0" class="g2_271" />
<path d="M717.5,734.5l0,-1" class="g2_271" />
<path d="M719.5,734.5l168,0" class="g2_271" />
<path d="M887.5,734.5l0,-1" class="g2_271" />
<path d="M46.5,758.5l0,-24" class="g2_271" />
<path d="M46.5,760.5l0,-2" class="g2_271" />
<path d="M46.5,760.5l0,-2" class="g2_271" />
<path d="M47.5,760.5l177,0" class="g2_271" />
<path d="M224.5,758.5l0,-24" class="g2_271" />
<path d="M224.5,760.5l0,-2" class="g2_271" />
<path d="M226.5,760.5l162,0" class="g2_271" />
<path d="M388.5,758.5l0,-24" class="g2_271" />
<path d="M388.5,760.5l0,-2" class="g2_271" />
<path d="M390.5,760.5l163,0" class="g2_271" />
<path d="M553.5,758.5l0,-24" class="g2_271" />
<path d="M553.5,760.5l0,-2" class="g2_271" />
<path d="M554.5,760.5l163,0" class="g2_271" />
<path d="M717.5,758.5l0,-24" class="g2_271" />
<path d="M717.5,760.5l0,-2" class="g2_271" />
<path d="M719.5,760.5l168,0" class="g2_271" />
<path d="M887.5,758.5l0,-24" class="g2_271" />
<path d="M887.5,760.5l0,-2" class="g2_271" />
<path d="M887.5,760.5l0,-2" class="g2_271" />
<path fill-rule="evenodd" d="M47,1013l840,0l0,-119L47,894l0,119Z" class="g1_271" />
<g clip-path="url(#c11_271)">
<path fill-rule="evenodd" d="M55,917l825,0l0,-23L55,894l0,23Z" class="g1_271" />
</g>
<path fill-rule="evenodd" d="M55,941l825,0l0,-24L55,917l0,24Z" class="g1_271" />
<path fill-rule="evenodd" d="M55,965l825,0l0,-24L55,941l0,24Z" class="g1_271" />
<path fill-rule="evenodd" d="M55,989l825,0l0,-24L55,965l0,24Z" class="g1_271" />
<g clip-path="url(#c11_271)">
<path fill-rule="evenodd" d="M55,1013l825,0l0,-24L55,989l0,24Z" class="g1_271" />
</g>
<path d="M46.5,893.5l0,-1" class="g2_271" />
<path d="M46.5,893.5l0,-1" class="g2_271" />
<path d="M47.5,893.5l840,0" class="g2_271" />
<path d="M887.5,893.5l0,-1" class="g2_271" />
<path d="M887.5,893.5l0,-1" class="g2_271" />
<path d="M46.5,1013.5l0,-120" class="g2_271" />
<path d="M46.5,1014.5l0,-1" class="g2_271" />
<path d="M46.5,1014.5l0,-1" class="g2_271" />
<path d="M47.5,1014.5l840,0" class="g2_271" />
<path d="M887.5,1013.5l0,-120" class="g2_271" />
<path d="M887.5,1014.5l0,-1" class="g2_271" />
<path d="M887.5,1014.5l0,-1" class="g2_271" />
</svg>