<?xml version="1.0" encoding="UTF-8" standalone="no"?>
<!DOCTYPE svg PUBLIC "-//W3C//DTD SVG 1.1//EN"
"http://www.w3.org/Graphics/SVG/1.1/DTD/svg11.dtd">
<svg version="1.1" xmlns="http://www.w3.org/2000/svg" xmlns:xlink="http://www.w3.org/1999/xlink">
<defs>
<clipPath id="c0_237"><path d="M387.5,134.5l0,-24l121,0l0,24Z" /></clipPath>
<clipPath id="c1_237"><path d="M611.5,134.5l0,-24l76,0l0,24Z" /></clipPath>
<clipPath id="c2_237"><path d="M387.5,159.5l0,-24l121,0l0,24Z" /></clipPath>
<clipPath id="c3_237"><path d="M611.5,159.5l0,-24l76,0l0,24Z" /></clipPath>
<clipPath id="c4_237"><path d="M387.5,183.5l0,-24l121,0l0,24Z" /></clipPath>
<clipPath id="c5_237"><path d="M611.5,183.5l0,-24l76,0l0,24Z" /></clipPath>
<clipPath id="c6_237"><path d="M387.5,208.5l0,-24l121,0l0,24Z" /></clipPath>
<clipPath id="c7_237"><path d="M611.5,208.5l0,-24l76,0l0,24Z" /></clipPath>
<clipPath id="c8_237"><path d="M387.5,233.5l0,-24l121,0l0,24Z" /></clipPath>
<clipPath id="c9_237"><path d="M611.5,233.5l0,-24l76,0l0,24Z" /></clipPath>
<clipPath id="c10_237"><path d="M387.5,257.5l0,-24l121,0l0,24Z" /></clipPath>
<clipPath id="c11_237"><path d="M611.5,257.5l0,-24l76,0l0,24Z" /></clipPath>
<clipPath id="c12_237"><path d="M47.5,1004.5l0,-24l840,0l0,24Z" /></clipPath>
<clipPath id="c13_237"><path d="M47.5,1078.5l0,-47l840,0l0,47Z" /></clipPath>
<style type="text/css"><![CDATA[
.g5_237{
fill: none;
stroke: #7E7E7E;
stroke-width: 1;
stroke-linecap: butt;
stroke-linejoin: miter;
}
.g2_237{
fill: none;
stroke: #000000;
stroke-width: 1;
stroke-linecap: butt;
stroke-linejoin: miter;
}
.g3_237{
fill: none;
stroke: #0000FF;
stroke-width: 1;
stroke-linecap: butt;
stroke-linejoin: miter;
}
.g4_237{
fill: #F1F1F1;
}
.g1_237{
fill: #FFFFFF;
}
]]></style>
</defs>
<path fill-rule="evenodd" d="M387,134l121,0l0,-24l-121,0l0,24Z" class="g1_237" />
<g clip-path="url(#c0_237)">
<path fill-rule="evenodd" d="M395,134l105,0l0,-24l-105,0l0,24Z" class="g1_237" />
</g>
<path fill-rule="evenodd" d="M611,134l76,0l0,-24l-76,0l0,24Z" class="g1_237" />
<g clip-path="url(#c1_237)">
<path fill-rule="evenodd" d="M620,134l59,0l0,-24l-59,0l0,24Z" class="g1_237" />
</g>
<path d="M386.5,134.5l0,-24" class="g2_237" />
<path d="M508.5,134.5l0,-24" class="g2_237" />
<path d="M611.5,134.5l0,-24" class="g2_237" />
<path d="M687.5,134.5l0,-24" class="g2_237" />
<path fill-rule="evenodd" d="M387,159l121,0l0,-24l-121,0l0,24Z" class="g1_237" />
<g clip-path="url(#c2_237)">
<path fill-rule="evenodd" d="M395,159l105,0l0,-24l-105,0l0,24Z" class="g1_237" />
</g>
<path fill-rule="evenodd" d="M611,159l76,0l0,-24l-76,0l0,24Z" class="g1_237" />
<g clip-path="url(#c3_237)">
<path fill-rule="evenodd" d="M620,159l59,0l0,-24l-59,0l0,24Z" class="g1_237" />
</g>
<path d="M386.5,135.5l0,-1" class="g2_237" />
<path d="M387.5,135.5l121,0" class="g2_237" />
<path d="M508.5,135.5l0,-1" class="g2_237" />
<path d="M509.5,135.5l102,0" class="g2_237" />
<path d="M611.5,135.5l0,-1" class="g2_237" />
<path d="M612.5,135.5l75,0" class="g2_237" />
<path d="M687.5,135.5l0,-1" class="g2_237" />
<path d="M386.5,159.5l0,-24" class="g2_237" />
<path d="M508.5,159.5l0,-24" class="g2_237" />
<path d="M611.5,159.5l0,-24" class="g2_237" />
<path d="M687.5,159.5l0,-24" class="g2_237" />
<path fill-rule="evenodd" d="M387,183l121,0l0,-24l-121,0l0,24Z" class="g1_237" />
<g clip-path="url(#c4_237)">
<path fill-rule="evenodd" d="M395,183l105,0l0,-24l-105,0l0,24Z" class="g1_237" />
</g>
<path fill-rule="evenodd" d="M611,183l76,0l0,-24l-76,0l0,24Z" class="g1_237" />
<g clip-path="url(#c5_237)">
<path fill-rule="evenodd" d="M620,183l59,0l0,-24l-59,0l0,24Z" class="g1_237" />
</g>
<path d="M387.5,159.5l121,0" class="g2_237" />
<path d="M509.5,159.5l102,0" class="g2_237" />
<path d="M612.5,159.5l75,0" class="g2_237" />
<path d="M386.5,183.5l0,-24" class="g2_237" />
<path d="M508.5,183.5l0,-24" class="g2_237" />
<path d="M611.5,183.5l0,-24" class="g2_237" />
<path d="M687.5,183.5l0,-24" class="g2_237" />
<path fill-rule="evenodd" d="M387,208l121,0l0,-24l-121,0l0,24Z" class="g1_237" />
<g clip-path="url(#c6_237)">
<path fill-rule="evenodd" d="M395,208l105,0l0,-24l-105,0l0,24Z" class="g1_237" />
</g>
<path fill-rule="evenodd" d="M611,208l76,0l0,-24l-76,0l0,24Z" class="g1_237" />
<g clip-path="url(#c7_237)">
<path fill-rule="evenodd" d="M620,208l59,0l0,-24l-59,0l0,24Z" class="g1_237" />
</g>
<path d="M386.5,184.5l0,-1" class="g2_237" />
<path d="M387.5,184.5l121,0" class="g2_237" />
<path d="M508.5,184.5l0,-1" class="g2_237" />
<path d="M509.5,184.5l102,0" class="g2_237" />
<path d="M611.5,184.5l0,-1" class="g2_237" />
<path d="M612.5,184.5l75,0" class="g2_237" />
<path d="M687.5,184.5l0,-1" class="g2_237" />
<path d="M386.5,208.5l0,-24" class="g2_237" />
<path d="M508.5,208.5l0,-24" class="g2_237" />
<path d="M611.5,208.5l0,-24" class="g2_237" />
<path d="M687.5,208.5l0,-24" class="g2_237" />
<path fill-rule="evenodd" d="M387,233l121,0l0,-24l-121,0l0,24Z" class="g1_237" />
<g clip-path="url(#c8_237)">
<path fill-rule="evenodd" d="M395,233l105,0l0,-24l-105,0l0,24Z" class="g1_237" />
</g>
<path fill-rule="evenodd" d="M611,233l76,0l0,-24l-76,0l0,24Z" class="g1_237" />
<g clip-path="url(#c9_237)">
<path fill-rule="evenodd" d="M620,233l59,0l0,-24l-59,0l0,24Z" class="g1_237" />
</g>
<path d="M386.5,209.5l0,-1" class="g2_237" />
<path d="M387.5,209.5l121,0" class="g2_237" />
<path d="M508.5,209.5l0,-1" class="g2_237" />
<path d="M509.5,209.5l102,0" class="g2_237" />
<path d="M611.5,209.5l0,-1" class="g2_237" />
<path d="M612.5,209.5l75,0" class="g2_237" />
<path d="M687.5,209.5l0,-1" class="g2_237" />
<path d="M386.5,233.5l0,-24" class="g2_237" />
<path d="M508.5,233.5l0,-24" class="g2_237" />
<path d="M611.5,233.5l0,-24" class="g2_237" />
<path d="M687.5,233.5l0,-24" class="g2_237" />
<path fill-rule="evenodd" d="M387,257l121,0l0,-24l-121,0l0,24Z" class="g1_237" />
<g clip-path="url(#c10_237)">
<path fill-rule="evenodd" d="M395,257l105,0l0,-24l-105,0l0,24Z" class="g1_237" />
</g>
<path fill-rule="evenodd" d="M611,257l76,0l0,-24l-76,0l0,24Z" class="g1_237" />
<g clip-path="url(#c11_237)">
<path fill-rule="evenodd" d="M620,257l59,0l0,-24l-59,0l0,24Z" class="g1_237" />
</g>
<path d="M387.5,233.5l121,0" class="g2_237" />
<path d="M509.5,233.5l102,0" class="g2_237" />
<path d="M612.5,233.5l75,0" class="g2_237" />
<path d="M386.5,257.5l0,-24" class="g2_237" />
<path d="M386.5,258.5l0,-1" class="g2_237" />
<path d="M386.5,258.5l0,-1" class="g2_237" />
<path d="M387.5,258.5l121,0" class="g2_237" />
<path d="M508.5,257.5l0,-24" class="g2_237" />
<path d="M508.5,258.5l0,-1" class="g2_237" />
<path d="M509.5,258.5l102,0" class="g2_237" />
<path d="M611.5,257.5l0,-24" class="g2_237" />
<path d="M611.5,258.5l0,-1" class="g2_237" />
<path d="M612.5,258.5l75,0" class="g2_237" />
<path d="M687.5,257.5l0,-24" class="g2_237" />
<path d="M687.5,258.5l0,-1" class="g2_237" />
<path d="M687.5,258.5l0,-1" class="g2_237" />
<path d="M386.5,349.5l410,0" class="g3_237" />
<path d="M386.5,373.5l270,0" class="g3_237" />
<path d="M275.5,110.5l102,0" class="g2_237" />
<path d="M53.5,449.5l0,-339" class="g2_237" />
<path d="M87.5,449.5l0,-339" class="g2_237" />
<path d="M121.5,449.5l0,-339" class="g2_237" />
<path d="M154.5,449.5l0,-339" class="g2_237" />
<path d="M274.5,449.5l0,-339" class="g2_237" />
<path d="M377.5,449.5l0,-339" class="g2_237" />
<path d="M811.5,449.5l0,-339" class="g2_237" />
<path d="M888.5,449.5l0,-339" class="g2_237" />
<path d="M155.5,449.5l119,0" class="g2_237" />
<path d="M275.5,449.5l102,0" class="g2_237" />
<path d="M378.5,449.5l433,0" class="g2_237" />
<path d="M811.5,449.5l77,0" class="g2_237" />
<path d="M53.5,521.5l0,-72" class="g2_237" />
<path d="M87.5,521.5l0,-72" class="g2_237" />
<path d="M121.5,521.5l0,-72" class="g2_237" />
<path d="M154.5,521.5l0,-72" class="g2_237" />
<path d="M274.5,521.5l0,-72" class="g2_237" />
<path d="M377.5,521.5l0,-72" class="g2_237" />
<path d="M811.5,521.5l0,-72" class="g2_237" />
<path d="M888.5,521.5l0,-72" class="g2_237" />
<path d="M53.5,522.5l0,-1" class="g2_237" />
<path d="M87.5,522.5l0,-1" class="g2_237" />
<path d="M121.5,522.5l0,-1" class="g2_237" />
<path d="M154.5,522.5l0,-1" class="g2_237" />
<path d="M155.5,522.5l119,0" class="g2_237" />
<path d="M274.5,522.5l0,-1" class="g2_237" />
<path d="M275.5,522.5l102,0" class="g2_237" />
<path d="M377.5,522.5l0,-1" class="g2_237" />
<path d="M378.5,522.5l433,0" class="g2_237" />
<path d="M811.5,522.5l0,-1" class="g2_237" />
<path d="M811.5,522.5l77,0" class="g2_237" />
<path d="M888.5,522.5l0,-1" class="g2_237" />
<path d="M53.5,641.5l0,-119" class="g2_237" />
<path d="M87.5,641.5l0,-119" class="g2_237" />
<path d="M121.5,641.5l0,-119" class="g2_237" />
<path d="M154.5,641.5l0,-119" class="g2_237" />
<path d="M274.5,641.5l0,-119" class="g2_237" />
<path d="M377.5,641.5l0,-119" class="g2_237" />
<path d="M811.5,641.5l0,-119" class="g2_237" />
<path d="M888.5,641.5l0,-119" class="g2_237" />
<path d="M155.5,641.5l119,0" class="g2_237" />
<path d="M275.5,641.5l102,0" class="g2_237" />
<path d="M378.5,641.5l433,0" class="g2_237" />
<path d="M811.5,641.5l77,0" class="g2_237" />
<path d="M53.5,737.5l0,-96" class="g2_237" />
<path d="M87.5,737.5l0,-96" class="g2_237" />
<path d="M121.5,737.5l0,-96" class="g2_237" />
<path d="M154.5,737.5l0,-96" class="g2_237" />
<path d="M274.5,737.5l0,-96" class="g2_237" />
<path d="M377.5,737.5l0,-96" class="g2_237" />
<path d="M811.5,737.5l0,-96" class="g2_237" />
<path d="M888.5,737.5l0,-96" class="g2_237" />
<path d="M53.5,738.5l0,-1" class="g2_237" />
<path d="M87.5,738.5l0,-1" class="g2_237" />
<path d="M121.5,738.5l0,-1" class="g2_237" />
<path d="M154.5,738.5l0,-1" class="g2_237" />
<path d="M155.5,738.5l119,0" class="g2_237" />
<path d="M274.5,738.5l0,-1" class="g2_237" />
<path d="M275.5,738.5l102,0" class="g2_237" />
<path d="M377.5,738.5l0,-1" class="g2_237" />
<path d="M378.5,738.5l433,0" class="g2_237" />
<path d="M811.5,738.5l0,-1" class="g2_237" />
<path d="M811.5,738.5l77,0" class="g2_237" />
<path d="M888.5,738.5l0,-1" class="g2_237" />
<path d="M53.5,762.5l0,-24" class="g2_237" />
<path d="M87.5,762.5l0,-24" class="g2_237" />
<path d="M121.5,762.5l0,-24" class="g2_237" />
<path d="M154.5,762.5l0,-24" class="g2_237" />
<path d="M274.5,762.5l0,-24" class="g2_237" />
<path d="M377.5,762.5l0,-24" class="g2_237" />
<path d="M811.5,762.5l0,-24" class="g2_237" />
<path d="M888.5,762.5l0,-24" class="g2_237" />
<path d="M155.5,762.5l119,0" class="g2_237" />
<path d="M275.5,762.5l102,0" class="g2_237" />
<path d="M378.5,762.5l433,0" class="g2_237" />
<path d="M811.5,762.5l77,0" class="g2_237" />
<path d="M53.5,786.5l0,-24" class="g2_237" />
<path d="M87.5,786.5l0,-24" class="g2_237" />
<path d="M121.5,786.5l0,-24" class="g2_237" />
<path d="M154.5,786.5l0,-24" class="g2_237" />
<path d="M274.5,786.5l0,-24" class="g2_237" />
<path d="M377.5,786.5l0,-24" class="g2_237" />
<path d="M811.5,786.5l0,-24" class="g2_237" />
<path d="M888.5,786.5l0,-24" class="g2_237" />
<path d="M53.5,787.5l0,-1" class="g2_237" />
<path d="M87.5,787.5l0,-1" class="g2_237" />
<path d="M121.5,787.5l0,-1" class="g2_237" />
<path d="M154.5,787.5l0,-1" class="g2_237" />
<path d="M155.5,787.5l119,0" class="g2_237" />
<path d="M274.5,787.5l0,-1" class="g2_237" />
<path d="M275.5,787.5l102,0" class="g2_237" />
<path d="M377.5,787.5l0,-1" class="g2_237" />
<path d="M378.5,787.5l433,0" class="g2_237" />
<path d="M811.5,787.5l0,-1" class="g2_237" />
<path d="M811.5,787.5l77,0" class="g2_237" />
<path d="M888.5,787.5l0,-1" class="g2_237" />
<path d="M53.5,882.5l0,-95" class="g2_237" />
<path d="M53.5,883.5l0,-1" class="g2_237" />
<path d="M53.5,883.5l0,-1" class="g2_237" />
<path d="M54.5,883.5l33,0" class="g2_237" />
<path d="M87.5,882.5l0,-95" class="g2_237" />
<path d="M87.5,883.5l0,-1" class="g2_237" />
<path d="M87.5,883.5l34,0" class="g2_237" />
<path d="M121.5,882.5l0,-95" class="g2_237" />
<path d="M121.5,883.5l0,-1" class="g2_237" />
<path d="M121.5,883.5l33,0" class="g2_237" />
<path d="M154.5,882.5l0,-95" class="g2_237" />
<path d="M154.5,883.5l0,-1" class="g2_237" />
<path d="M155.5,883.5l119,0" class="g2_237" />
<path d="M274.5,882.5l0,-95" class="g2_237" />
<path d="M274.5,883.5l0,-1" class="g2_237" />
<path d="M275.5,883.5l102,0" class="g2_237" />
<path d="M377.5,882.5l0,-95" class="g2_237" />
<path d="M377.5,883.5l0,-1" class="g2_237" />
<path d="M378.5,883.5l433,0" class="g2_237" />
<path d="M811.5,882.5l0,-95" class="g2_237" />
<path d="M811.5,883.5l0,-1" class="g2_237" />
<path d="M811.5,883.5l77,0" class="g2_237" />
<path d="M888.5,882.5l0,-95" class="g2_237" />
<path d="M888.5,883.5l0,-1" class="g2_237" />
<path d="M888.5,883.5l0,-1" class="g2_237" />
<path fill-rule="evenodd" d="M47,1004l840,0l0,-24L47,980l0,24Z" class="g4_237" />
<g clip-path="url(#c12_237)">
<path fill-rule="evenodd" d="M55,1004l825,0l0,-24L55,980l0,24Z" class="g4_237" />
</g>
<path d="M46.5,980.5l0,-2" class="g5_237" />
<path d="M46.5,980.5l0,-2" class="g5_237" />
<path d="M47.5,980.5l840,0" class="g5_237" />
<path d="M887.5,980.5l0,-2" class="g5_237" />
<path d="M887.5,980.5l0,-2" class="g5_237" />
<path d="M46.5,1004.5l0,-24" class="g5_237" />
<path d="M46.5,1005.5l0,-1" class="g5_237" />
<path d="M46.5,1005.5l0,-1" class="g5_237" />
<path d="M47.5,1005.5l840,0" class="g5_237" />
<path d="M887.5,1004.5l0,-24" class="g5_237" />
<path d="M887.5,1005.5l0,-1" class="g5_237" />
<path d="M887.5,1005.5l0,-1" class="g5_237" />
<path fill-rule="evenodd" d="M47,1078l840,0l0,-47l-840,0l0,47Z" class="g4_237" />
<path fill-rule="evenodd" d="M55,1054l825,0l0,-23l-825,0l0,23Z" class="g4_237" />
<path d="M94.5,1049.5l687,0" class="g3_237" />
<g clip-path="url(#c13_237)">
<path fill-rule="evenodd" d="M55,1078l825,0l0,-24l-825,0l0,24Z" class="g4_237" />
</g>
<path d="M46.5,1031.5l0,-2" class="g5_237" />
<path d="M46.5,1031.5l0,-2" class="g5_237" />
<path d="M47.5,1031.5l840,0" class="g5_237" />
<path d="M887.5,1031.5l0,-2" class="g5_237" />
<path d="M887.5,1031.5l0,-2" class="g5_237" />
<path d="M46.5,1078.5l0,-47" class="g5_237" />
<path d="M46.5,1080.5l0,-2" class="g5_237" />
<path d="M46.5,1080.5l0,-2" class="g5_237" />
<path d="M47.5,1080.5l840,0" class="g5_237" />
<path d="M887.5,1078.5l0,-47" class="g5_237" />
<path d="M887.5,1080.5l0,-2" class="g5_237" />
<path d="M887.5,1080.5l0,-2" class="g5_237" />
</svg>