<?xml version="1.0" encoding="UTF-8" standalone="no"?>
<!DOCTYPE svg PUBLIC "-//W3C//DTD SVG 1.1//EN"
"http://www.w3.org/Graphics/SVG/1.1/DTD/svg11.dtd">
<svg version="1.1" xmlns="http://www.w3.org/2000/svg" xmlns:xlink="http://www.w3.org/1999/xlink">
<defs>
<clipPath id="c0_371"><path d="M47.5,206.5l0,-95l840,0l0,95Z" /></clipPath>
<clipPath id="c1_371"><path d="M47.5,677.5l0,-372l840,0l0,372Z" /></clipPath>
<clipPath id="c2_371"><path d="M47.5,836.5l0,-24l102,0l0,24Z" /></clipPath>
<clipPath id="c3_371"><path d="M151.5,836.5l0,-24l736,0l0,24Z" /></clipPath>
<clipPath id="c4_371"><path d="M47.5,861.5l0,-23l102,0l0,23Z" /></clipPath>
<clipPath id="c5_371"><path d="M151.5,861.5l0,-23l736,0l0,23Z" /></clipPath>
<clipPath id="c6_371"><path d="M47.5,887.5l0,-24l102,0l0,24Z" /></clipPath>
<clipPath id="c7_371"><path d="M151.5,887.5l0,-24l736,0l0,24Z" /></clipPath>
<clipPath id="c8_371"><path d="M47.5,912.5l0,-24l102,0l0,24Z" /></clipPath>
<clipPath id="c9_371"><path d="M151.5,912.5l0,-24l736,0l0,24Z" /></clipPath>
<clipPath id="c10_371"><path d="M151.5,961.5l0,-47l736,0l0,47Z" /></clipPath>
<clipPath id="c11_371"><path d="M47.5,987.5l0,-24l102,0l0,24Z" /></clipPath>
<clipPath id="c12_371"><path d="M151.5,987.5l0,-24l736,0l0,24Z" /></clipPath>
<clipPath id="c13_371"><path d="M151.5,1036.5l0,-48l736,0l0,48Z" /></clipPath>
<style type="text/css"><![CDATA[
.g4_371{
fill: none;
stroke: #0000FF;
stroke-width: 1;
stroke-linecap: butt;
stroke-linejoin: miter;
}
.g2_371{
fill: none;
stroke: #7E7E7E;
stroke-width: 1;
stroke-linecap: butt;
stroke-linejoin: miter;
}
.g3_371{
fill: none;
stroke: #F0F0E0;
stroke-width: 1;
stroke-linecap: butt;
stroke-linejoin: miter;
}
.g5_371{
fill: #DBE5F1;
}
.g1_371{
fill: #F1F1F1;
}
]]></style>
</defs>
<path fill-rule="evenodd" d="M47,206l840,0l0,-95L47,111l0,95Z" class="g1_371" />
<g clip-path="url(#c0_371)">
<path fill-rule="evenodd" d="M55,135l825,0l0,-24L55,111l0,24Z" class="g1_371" />
</g>
<path fill-rule="evenodd" d="M55,159l825,0l0,-24L55,135l0,24Z" class="g1_371" />
<path fill-rule="evenodd" d="M55,182l825,0l0,-23L55,159l0,23Z" class="g1_371" />
<path fill-rule="evenodd" d="M55,206l825,0l0,-24L55,182l0,24Z" class="g1_371" />
<path d="M46.5,111.5l0,-1" class="g2_371" />
<path d="M46.5,111.5l0,-1" class="g2_371" />
<path d="M47.5,111.5l840,0" class="g2_371" />
<path d="M887.5,111.5l0,-1" class="g2_371" />
<path d="M887.5,111.5l0,-1" class="g2_371" />
<path d="M46.5,207.5l0,-96" class="g2_371" />
<path d="M46.5,208.5l0,-1" class="g2_371" />
<path d="M46.5,208.5l0,-1" class="g2_371" />
<path d="M47.5,208.5l840,0" class="g2_371" />
<path d="M887.5,207.5l0,-96" class="g2_371" />
<path d="M887.5,208.5l0,-1" class="g2_371" />
<path d="M887.5,208.5l0,-1" class="g2_371" />
<path fill-rule="evenodd" d="M47,677l840,0l0,-372L47,305l0,372Z" class="g1_371" />
<g clip-path="url(#c1_371)">
<path fill-rule="evenodd" d="M55,336l825,0l0,-31L55,305l0,31Z" class="g1_371" />
<path d="M45.5,306.5l0,-1" class="g3_371" />
<path d="M45.5,306.5l0,-1" class="g3_371" />
<path d="M46.5,306.5l842,0" class="g3_371" />
<path d="M888.5,306.5l0,-1" class="g3_371" />
<path d="M888.5,306.5l0,-1" class="g3_371" />
<path d="M45.5,336.5l0,-30" class="g3_371" />
<path d="M888.5,336.5l0,-30" class="g3_371" />
</g>
<path fill-rule="evenodd" d="M55,360l825,0l0,-24L55,336l0,24Z" class="g1_371" />
<g clip-path="url(#c1_371)">
<path d="M45.5,360.5l0,-24" class="g3_371" />
<path d="M888.5,360.5l0,-24" class="g3_371" />
</g>
<path fill-rule="evenodd" d="M55,384l825,0l0,-24L55,360l0,24Z" class="g1_371" />
<g clip-path="url(#c1_371)">
<path d="M45.5,384.5l0,-24" class="g3_371" />
<path d="M888.5,384.5l0,-24" class="g3_371" />
</g>
<path fill-rule="evenodd" d="M55,407l825,0l0,-23L55,384l0,23Z" class="g1_371" />
<g clip-path="url(#c1_371)">
<path d="M45.5,407.5l0,-23" class="g3_371" />
<path d="M888.5,407.5l0,-23" class="g3_371" />
</g>
<path fill-rule="evenodd" d="M55,431l825,0l0,-24L55,407l0,24Z" class="g1_371" />
<g clip-path="url(#c1_371)">
<path d="M45.5,431.5l0,-24" class="g3_371" />
<path d="M888.5,431.5l0,-24" class="g3_371" />
</g>
<path fill-rule="evenodd" d="M55,455l825,0l0,-24L55,431l0,24Z" class="g1_371" />
<g clip-path="url(#c1_371)">
<path d="M45.5,455.5l0,-24" class="g3_371" />
<path d="M888.5,455.5l0,-24" class="g3_371" />
</g>
<path fill-rule="evenodd" d="M55,479l825,0l0,-24L55,455l0,24Z" class="g1_371" />
<g clip-path="url(#c1_371)">
<path d="M45.5,479.5l0,-24" class="g3_371" />
<path d="M888.5,479.5l0,-24" class="g3_371" />
</g>
<path fill-rule="evenodd" d="M55,503l825,0l0,-24L55,479l0,24Z" class="g1_371" />
<g clip-path="url(#c1_371)">
<path d="M45.5,503.5l0,-24" class="g3_371" />
<path d="M888.5,503.5l0,-24" class="g3_371" />
</g>
<path fill-rule="evenodd" d="M55,527l825,0l0,-24L55,503l0,24Z" class="g1_371" />
<g clip-path="url(#c1_371)">
<path d="M45.5,527.5l0,-24" class="g3_371" />
<path d="M888.5,527.5l0,-24" class="g3_371" />
</g>
<path fill-rule="evenodd" d="M55,550l825,0l0,-23L55,527l0,23Z" class="g1_371" />
<g clip-path="url(#c1_371)">
<path d="M45.5,550.5l0,-23" class="g3_371" />
<path d="M888.5,550.5l0,-23" class="g3_371" />
</g>
<path fill-rule="evenodd" d="M55,574l825,0l0,-24L55,550l0,24Z" class="g1_371" />
<g clip-path="url(#c1_371)">
<path d="M45.5,574.5l0,-24" class="g3_371" />
<path d="M888.5,574.5l0,-24" class="g3_371" />
</g>
<path fill-rule="evenodd" d="M55,598l825,0l0,-24L55,574l0,24Z" class="g1_371" />
<g clip-path="url(#c1_371)">
<path d="M45.5,598.5l0,-24" class="g3_371" />
<path d="M888.5,598.5l0,-24" class="g3_371" />
</g>
<path fill-rule="evenodd" d="M55,622l825,0l0,-24L55,598l0,24Z" class="g1_371" />
<g clip-path="url(#c1_371)">
<path d="M45.5,622.5l0,-24" class="g3_371" />
<path d="M888.5,622.5l0,-24" class="g3_371" />
</g>
<path fill-rule="evenodd" d="M55,653l825,0l0,-31L55,622l0,31Z" class="g1_371" />
<g clip-path="url(#c1_371)">
<path d="M45.5,653.5l0,-1" class="g3_371" />
<path d="M45.5,653.5l0,-1" class="g3_371" />
<path d="M46.5,653.5l842,0" class="g3_371" />
<path d="M888.5,653.5l0,-1" class="g3_371" />
<path d="M888.5,653.5l0,-1" class="g3_371" />
<path d="M45.5,652.5l0,-30" class="g3_371" />
<path d="M888.5,652.5l0,-30" class="g3_371" />
</g>
<path fill-rule="evenodd" d="M55,677l825,0l0,-24L55,653l0,24Z" class="g1_371" />
<path d="M46.5,305.5l0,-2" class="g2_371" />
<path d="M46.5,305.5l0,-2" class="g2_371" />
<path d="M47.5,305.5l840,0" class="g2_371" />
<path d="M887.5,305.5l0,-2" class="g2_371" />
<path d="M887.5,305.5l0,-2" class="g2_371" />
<path d="M46.5,677.5l0,-372" class="g2_371" />
<path d="M46.5,678.5l0,-1" class="g2_371" />
<path d="M46.5,678.5l0,-1" class="g2_371" />
<path d="M47.5,678.5l840,0" class="g2_371" />
<path d="M887.5,677.5l0,-372" class="g2_371" />
<path d="M887.5,678.5l0,-1" class="g2_371" />
<path d="M887.5,678.5l0,-1" class="g2_371" />
<path d="M371.5,782.5l163,0" class="g4_371" />
<path fill-rule="evenodd" d="M47,836l102,0l0,-24L47,812l0,24Z" class="g5_371" />
<g clip-path="url(#c2_371)">
<path fill-rule="evenodd" d="M55,836l87,0l0,-24l-87,0l0,24Z" class="g5_371" />
</g>
<path fill-rule="evenodd" d="M151,836l736,0l0,-24l-736,0l0,24Z" class="g5_371" />
<g clip-path="url(#c3_371)">
<path fill-rule="evenodd" d="M158,836l722,0l0,-24l-722,0l0,24Z" class="g5_371" />
</g>
<path d="M46.5,812.5l0,-1" class="g2_371" />
<path d="M46.5,812.5l0,-1" class="g2_371" />
<path d="M47.5,812.5l102,0" class="g2_371" />
<path d="M149.5,812.5l0,-1" class="g2_371" />
<path d="M151.5,812.5l736,0" class="g2_371" />
<path d="M887.5,812.5l0,-1" class="g2_371" />
<path d="M887.5,812.5l0,-1" class="g2_371" />
<path d="M46.5,836.5l0,-24" class="g2_371" />
<path d="M149.5,836.5l0,-24" class="g2_371" />
<path d="M887.5,836.5l0,-24" class="g2_371" />
<path fill-rule="evenodd" d="M47,861l102,0l0,-23L47,838l0,23Z" class="g1_371" />
<g clip-path="url(#c4_371)">
<path fill-rule="evenodd" d="M55,861l87,0l0,-23l-87,0l0,23Z" class="g1_371" />
</g>
<path fill-rule="evenodd" d="M151,861l736,0l0,-23l-736,0l0,23Z" class="g1_371" />
<g clip-path="url(#c5_371)">
<path fill-rule="evenodd" d="M158,861l722,0l0,-23l-722,0l0,23Z" class="g1_371" />
</g>
<path d="M46.5,838.5l0,-2" class="g2_371" />
<path d="M47.5,838.5l102,0" class="g2_371" />
<path d="M149.5,838.5l0,-2" class="g2_371" />
<path d="M151.5,838.5l736,0" class="g2_371" />
<path d="M887.5,838.5l0,-2" class="g2_371" />
<path d="M46.5,861.5l0,-23" class="g2_371" />
<path d="M149.5,861.5l0,-23" class="g2_371" />
<path d="M887.5,861.5l0,-23" class="g2_371" />
<path fill-rule="evenodd" d="M47,887l102,0l0,-24L47,863l0,24Z" class="g1_371" />
<g clip-path="url(#c6_371)">
<path fill-rule="evenodd" d="M55,887l87,0l0,-24l-87,0l0,24Z" class="g1_371" />
</g>
<path fill-rule="evenodd" d="M151,887l736,0l0,-24l-736,0l0,24Z" class="g1_371" />
<g clip-path="url(#c7_371)">
<path fill-rule="evenodd" d="M158,887l722,0l0,-24l-722,0l0,24Z" class="g1_371" />
</g>
<path d="M46.5,863.5l0,-2" class="g2_371" />
<path d="M47.5,863.5l102,0" class="g2_371" />
<path d="M149.5,863.5l0,-2" class="g2_371" />
<path d="M151.5,863.5l736,0" class="g2_371" />
<path d="M887.5,863.5l0,-2" class="g2_371" />
<path d="M46.5,887.5l0,-24" class="g2_371" />
<path d="M149.5,887.5l0,-24" class="g2_371" />
<path d="M887.5,887.5l0,-24" class="g2_371" />
<path fill-rule="evenodd" d="M47,912l102,0l0,-24L47,888l0,24Z" class="g1_371" />
<g clip-path="url(#c8_371)">
<path fill-rule="evenodd" d="M55,912l87,0l0,-24l-87,0l0,24Z" class="g1_371" />
</g>
<path fill-rule="evenodd" d="M151,912l736,0l0,-24l-736,0l0,24Z" class="g1_371" />
<g clip-path="url(#c9_371)">
<path fill-rule="evenodd" d="M158,912l722,0l0,-24l-722,0l0,24Z" class="g1_371" />
</g>
<path d="M46.5,888.5l0,-1" class="g2_371" />
<path d="M47.5,888.5l102,0" class="g2_371" />
<path d="M149.5,888.5l0,-1" class="g2_371" />
<path d="M151.5,888.5l736,0" class="g2_371" />
<path d="M887.5,888.5l0,-1" class="g2_371" />
<path d="M46.5,912.5l0,-24" class="g2_371" />
<path d="M149.5,912.5l0,-24" class="g2_371" />
<path d="M887.5,912.5l0,-24" class="g2_371" />
<path fill-rule="evenodd" d="M47,961l102,0l0,-47L47,914l0,47Z" class="g1_371" />
<path fill-rule="evenodd" d="M55,938l87,0l0,-24l-87,0l0,24Z" class="g1_371" />
<path fill-rule="evenodd" d="M151,961l736,0l0,-47l-736,0l0,47Z" class="g1_371" />
<path fill-rule="evenodd" d="M158,938l722,0l0,-24l-722,0l0,24Z" class="g1_371" />
<g clip-path="url(#c10_371)">
<path fill-rule="evenodd" d="M158,961l722,0l0,-23l-722,0l0,23Z" class="g1_371" />
</g>
<path d="M46.5,914.5l0,-2" class="g2_371" />
<path d="M47.5,914.5l102,0" class="g2_371" />
<path d="M149.5,914.5l0,-2" class="g2_371" />
<path d="M151.5,914.5l736,0" class="g2_371" />
<path d="M887.5,914.5l0,-2" class="g2_371" />
<path d="M46.5,961.5l0,-47" class="g2_371" />
<path d="M149.5,961.5l0,-47" class="g2_371" />
<path d="M887.5,961.5l0,-47" class="g2_371" />
<path fill-rule="evenodd" d="M47,987l102,0l0,-24L47,963l0,24Z" class="g1_371" />
<g clip-path="url(#c11_371)">
<path fill-rule="evenodd" d="M55,987l87,0l0,-24l-87,0l0,24Z" class="g1_371" />
</g>
<path fill-rule="evenodd" d="M151,987l736,0l0,-24l-736,0l0,24Z" class="g1_371" />
<g clip-path="url(#c12_371)">
<path fill-rule="evenodd" d="M158,987l722,0l0,-24l-722,0l0,24Z" class="g1_371" />
</g>
<path d="M46.5,963.5l0,-2" class="g2_371" />
<path d="M47.5,963.5l102,0" class="g2_371" />
<path d="M149.5,963.5l0,-2" class="g2_371" />
<path d="M151.5,963.5l736,0" class="g2_371" />
<path d="M887.5,963.5l0,-2" class="g2_371" />
<path d="M46.5,987.5l0,-24" class="g2_371" />
<path d="M149.5,987.5l0,-24" class="g2_371" />
<path d="M887.5,987.5l0,-24" class="g2_371" />
<path fill-rule="evenodd" d="M47,1036l102,0l0,-48L47,988l0,48Z" class="g1_371" />
<path fill-rule="evenodd" d="M55,1012l87,0l0,-24l-87,0l0,24Z" class="g1_371" />
<path fill-rule="evenodd" d="M151,1036l736,0l0,-48l-736,0l0,48Z" class="g1_371" />
<path fill-rule="evenodd" d="M158,1012l722,0l0,-24l-722,0l0,24Z" class="g1_371" />
<g clip-path="url(#c13_371)">
<path fill-rule="evenodd" d="M158,1036l722,0l0,-24l-722,0l0,24Z" class="g1_371" />
</g>
<path d="M46.5,988.5l0,-1" class="g2_371" />
<path d="M47.5,988.5l102,0" class="g2_371" />
<path d="M149.5,988.5l0,-1" class="g2_371" />
<path d="M151.5,988.5l736,0" class="g2_371" />
<path d="M887.5,988.5l0,-1" class="g2_371" />
<path d="M46.5,1036.5l0,-48" class="g2_371" />
<path d="M46.5,1038.5l0,-2" class="g2_371" />
<path d="M46.5,1038.5l0,-2" class="g2_371" />
<path d="M47.5,1038.5l102,0" class="g2_371" />
<path d="M149.5,1036.5l0,-48" class="g2_371" />
<path d="M149.5,1038.5l0,-2" class="g2_371" />
<path d="M151.5,1038.5l736,0" class="g2_371" />
<path d="M887.5,1036.5l0,-48" class="g2_371" />
<path d="M887.5,1038.5l0,-2" class="g2_371" />
<path d="M887.5,1038.5l0,-2" class="g2_371" />
</svg>