<?xml version="1.0" encoding="UTF-8" standalone="no"?>
<!DOCTYPE svg PUBLIC "-//W3C//DTD SVG 1.1//EN"
"http://www.w3.org/Graphics/SVG/1.1/DTD/svg11.dtd">
<svg version="1.1" xmlns="http://www.w3.org/2000/svg" xmlns:xlink="http://www.w3.org/1999/xlink">
<defs>
<clipPath id="c0_293"><path d="M564.5,219.5l0,-108l323,0l0,108Z" /></clipPath>
<clipPath id="c1_293"><path d="M153.5,245.5l0,-24l176,0l0,24Z" /></clipPath>
<clipPath id="c2_293"><path d="M330.5,245.5l0,-24l164,0l0,24Z" /></clipPath>
<clipPath id="c3_293"><path d="M495.5,245.5l0,-24l68,0l0,24Z" /></clipPath>
<clipPath id="c4_293"><path d="M564.5,245.5l0,-24l323,0l0,24Z" /></clipPath>
<clipPath id="c5_293"><path d="M153.5,437.5l0,-191l176,0l0,191Z" /></clipPath>
<clipPath id="c6_293"><path d="M330.5,437.5l0,-191l164,0l0,191Z" /></clipPath>
<clipPath id="c7_293"><path d="M495.5,437.5l0,-191l68,0l0,191Z" /></clipPath>
<clipPath id="c8_293"><path d="M564.5,437.5l0,-191l323,0l0,191Z" /></clipPath>
<clipPath id="c9_293"><path d="M564.5,1058.5l0,-620l323,0l0,620Z" /></clipPath>
<clipPath id="c10_293"><path d="M153.5,1084.5l0,-24l176,0l0,24Z" /></clipPath>
<clipPath id="c11_293"><path d="M330.5,1084.5l0,-24l164,0l0,24Z" /></clipPath>
<clipPath id="c12_293"><path d="M495.5,1084.5l0,-24l68,0l0,24Z" /></clipPath>
<clipPath id="c13_293"><path d="M564.5,1084.5l0,-24l323,0l0,24Z" /></clipPath>
<style type="text/css"><![CDATA[
.g2_293{
fill: none;
stroke: #7E7E7E;
stroke-width: 1;
stroke-linecap: butt;
stroke-linejoin: miter;
}
.g1_293{
fill: #F1F1F1;
}
]]></style>
</defs>
<path fill-rule="evenodd" d="M47,219l28,0L75,111l-28,0l0,108Z" class="g1_293" />
<path fill-rule="evenodd" d="M77,219l31,0l0,-108l-31,0l0,108Z" class="g1_293" />
<path fill-rule="evenodd" d="M109,219l42,0l0,-108l-42,0l0,108Z" class="g1_293" />
<path fill-rule="evenodd" d="M153,219l176,0l0,-108l-176,0l0,108Z" class="g1_293" />
<path fill-rule="evenodd" d="M330,219l164,0l0,-108l-164,0l0,108Z" class="g1_293" />
<path fill-rule="evenodd" d="M495,219l68,0l0,-108l-68,0l0,108Z" class="g1_293" />
<path fill-rule="evenodd" d="M564,219l323,0l0,-108l-323,0l0,108Z" class="g1_293" />
<g clip-path="url(#c0_293)">
<path fill-rule="evenodd" d="M572,153l308,0l0,-42l-308,0l0,42Z" class="g1_293" />
</g>
<path fill-rule="evenodd" d="M572,177l308,0l0,-24l-308,0l0,24Z" class="g1_293" />
<path fill-rule="evenodd" d="M572,219l308,0l0,-42l-308,0l0,42Z" class="g1_293" />
<path d="M46.5,111.5l0,-1" class="g2_293" />
<path d="M46.5,111.5l0,-1" class="g2_293" />
<path d="M47.5,111.5l28,0" class="g2_293" />
<path d="M75.5,111.5l0,-1" class="g2_293" />
<path d="M77.5,111.5l31,0" class="g2_293" />
<path d="M108.5,111.5l0,-1" class="g2_293" />
<path d="M109.5,111.5l42,0" class="g2_293" />
<path d="M151.5,111.5l0,-1" class="g2_293" />
<path d="M153.5,111.5l176,0" class="g2_293" />
<path d="M329.5,111.5l0,-1" class="g2_293" />
<path d="M330.5,111.5l164,0" class="g2_293" />
<path d="M494.5,111.5l0,-1" class="g2_293" />
<path d="M495.5,111.5l68,0" class="g2_293" />
<path d="M563.5,111.5l0,-1" class="g2_293" />
<path d="M564.5,111.5l323,0" class="g2_293" />
<path d="M887.5,111.5l0,-1" class="g2_293" />
<path d="M887.5,111.5l0,-1" class="g2_293" />
<path d="M46.5,219.5l0,-108" class="g2_293" />
<path d="M75.5,219.5l0,-108" class="g2_293" />
<path d="M108.5,219.5l0,-108" class="g2_293" />
<path d="M151.5,219.5l0,-108" class="g2_293" />
<path d="M329.5,219.5l0,-108" class="g2_293" />
<path d="M494.5,219.5l0,-108" class="g2_293" />
<path d="M563.5,219.5l0,-108" class="g2_293" />
<path d="M887.5,219.5l0,-108" class="g2_293" />
<path fill-rule="evenodd" d="M47,245l28,0l0,-26l-28,0l0,26Z" class="g1_293" />
<path fill-rule="evenodd" d="M77,245l31,0l0,-26l-31,0l0,26Z" class="g1_293" />
<path fill-rule="evenodd" d="M109,245l42,0l0,-26l-42,0l0,26Z" class="g1_293" />
<path fill-rule="evenodd" d="M153,245l176,0l0,-24l-176,0l0,24Z" class="g1_293" />
<g clip-path="url(#c1_293)">
<path fill-rule="evenodd" d="M160,245l161,0l0,-24l-161,0l0,24Z" class="g1_293" />
</g>
<path fill-rule="evenodd" d="M330,245l164,0l0,-24l-164,0l0,24Z" class="g1_293" />
<g clip-path="url(#c2_293)">
<path fill-rule="evenodd" d="M338,245l148,0l0,-24l-148,0l0,24Z" class="g1_293" />
</g>
<path fill-rule="evenodd" d="M495,245l68,0l0,-24l-68,0l0,24Z" class="g1_293" />
<g clip-path="url(#c3_293)">
<path fill-rule="evenodd" d="M503,245l52,0l0,-24l-52,0l0,24Z" class="g1_293" />
</g>
<path fill-rule="evenodd" d="M564,245l323,0l0,-24l-323,0l0,24Z" class="g1_293" />
<g clip-path="url(#c4_293)">
<path fill-rule="evenodd" d="M572,245l308,0l0,-24l-308,0l0,24Z" class="g1_293" />
</g>
<path d="M46.5,221.5l0,-2" class="g2_293" />
<path d="M75.5,221.5l0,-2" class="g2_293" />
<path d="M108.5,221.5l0,-2" class="g2_293" />
<path d="M151.5,221.5l0,-2" class="g2_293" />
<path d="M153.5,221.5l176,0" class="g2_293" />
<path d="M329.5,221.5l0,-2" class="g2_293" />
<path d="M330.5,221.5l164,0" class="g2_293" />
<path d="M494.5,221.5l0,-2" class="g2_293" />
<path d="M495.5,221.5l68,0" class="g2_293" />
<path d="M563.5,221.5l0,-2" class="g2_293" />
<path d="M564.5,221.5l323,0" class="g2_293" />
<path d="M887.5,221.5l0,-2" class="g2_293" />
<path d="M46.5,245.5l0,-24" class="g2_293" />
<path d="M75.5,245.5l0,-24" class="g2_293" />
<path d="M108.5,245.5l0,-24" class="g2_293" />
<path d="M151.5,245.5l0,-24" class="g2_293" />
<path d="M329.5,245.5l0,-24" class="g2_293" />
<path d="M494.5,245.5l0,-24" class="g2_293" />
<path d="M563.5,245.5l0,-24" class="g2_293" />
<path d="M887.5,245.5l0,-24" class="g2_293" />
<path fill-rule="evenodd" d="M47,437l28,0L75,245l-28,0l0,192Z" class="g1_293" />
<path fill-rule="evenodd" d="M77,437l31,0l0,-192l-31,0l0,192Z" class="g1_293" />
<path fill-rule="evenodd" d="M109,437l42,0l0,-192l-42,0l0,192Z" class="g1_293" />
<path fill-rule="evenodd" d="M153,437l176,0l0,-191l-176,0l0,191Z" class="g1_293" />
<g clip-path="url(#c5_293)">
<path fill-rule="evenodd" d="M160,270l161,0l0,-24l-161,0l0,24Z" class="g1_293" />
</g>
<path fill-rule="evenodd" d="M330,437l164,0l0,-191l-164,0l0,191Z" class="g1_293" />
<g clip-path="url(#c6_293)">
<path fill-rule="evenodd" d="M338,270l148,0l0,-24l-148,0l0,24Z" class="g1_293" />
</g>
<path fill-rule="evenodd" d="M338,294l148,0l0,-24l-148,0l0,24Z" class="g1_293" />
<path fill-rule="evenodd" d="M338,318l148,0l0,-24l-148,0l0,24Z" class="g1_293" />
<path fill-rule="evenodd" d="M338,341l148,0l0,-23l-148,0l0,23Z" class="g1_293" />
<path fill-rule="evenodd" d="M338,365l148,0l0,-24l-148,0l0,24Z" class="g1_293" />
<path fill-rule="evenodd" d="M338,389l148,0l0,-24l-148,0l0,24Z" class="g1_293" />
<path fill-rule="evenodd" d="M338,413l148,0l0,-24l-148,0l0,24Z" class="g1_293" />
<path fill-rule="evenodd" d="M495,437l68,0l0,-191l-68,0l0,191Z" class="g1_293" />
<g clip-path="url(#c7_293)">
<path fill-rule="evenodd" d="M503,270l52,0l0,-24l-52,0l0,24Z" class="g1_293" />
</g>
<path fill-rule="evenodd" d="M564,437l323,0l0,-191l-323,0l0,191Z" class="g1_293" />
<g clip-path="url(#c8_293)">
<path fill-rule="evenodd" d="M572,270l308,0l0,-24l-308,0l0,24Z" class="g1_293" />
</g>
<path fill-rule="evenodd" d="M572,294l308,0l0,-24l-308,0l0,24Z" class="g1_293" />
<path fill-rule="evenodd" d="M572,318l308,0l0,-24l-308,0l0,24Z" class="g1_293" />
<path fill-rule="evenodd" d="M572,341l308,0l0,-23l-308,0l0,23Z" class="g1_293" />
<path fill-rule="evenodd" d="M572,365l308,0l0,-24l-308,0l0,24Z" class="g1_293" />
<path fill-rule="evenodd" d="M572,389l308,0l0,-24l-308,0l0,24Z" class="g1_293" />
<path fill-rule="evenodd" d="M572,413l308,0l0,-24l-308,0l0,24Z" class="g1_293" />
<path fill-rule="evenodd" d="M572,437l308,0l0,-24l-308,0l0,24Z" class="g1_293" />
<path d="M46.5,246.5l0,-1" class="g2_293" />
<path d="M75.5,246.5l0,-1" class="g2_293" />
<path d="M108.5,246.5l0,-1" class="g2_293" />
<path d="M151.5,246.5l0,-1" class="g2_293" />
<path d="M153.5,246.5l176,0" class="g2_293" />
<path d="M329.5,246.5l0,-1" class="g2_293" />
<path d="M330.5,246.5l164,0" class="g2_293" />
<path d="M494.5,246.5l0,-1" class="g2_293" />
<path d="M495.5,246.5l68,0" class="g2_293" />
<path d="M563.5,246.5l0,-1" class="g2_293" />
<path d="M564.5,246.5l323,0" class="g2_293" />
<path d="M887.5,246.5l0,-1" class="g2_293" />
<path d="M46.5,437.5l0,-191" class="g2_293" />
<path d="M75.5,437.5l0,-191" class="g2_293" />
<path d="M108.5,437.5l0,-191" class="g2_293" />
<path d="M151.5,437.5l0,-191" class="g2_293" />
<path d="M329.5,437.5l0,-191" class="g2_293" />
<path d="M494.5,437.5l0,-191" class="g2_293" />
<path d="M563.5,437.5l0,-191" class="g2_293" />
<path d="M887.5,437.5l0,-191" class="g2_293" />
<path fill-rule="evenodd" d="M47,1058l28,0L75,437l-28,0l0,621Z" class="g1_293" />
<path fill-rule="evenodd" d="M77,1058l31,0l0,-621l-31,0l0,621Z" class="g1_293" />
<path fill-rule="evenodd" d="M109,1058l42,0l0,-621l-42,0l0,621Z" class="g1_293" />
<path fill-rule="evenodd" d="M153,1058l176,0l0,-620l-176,0l0,620Z" class="g1_293" />
<path fill-rule="evenodd" d="M160,462l161,0l0,-24l-161,0l0,24Z" class="g1_293" />
<path fill-rule="evenodd" d="M330,1058l164,0l0,-620l-164,0l0,620Z" class="g1_293" />
<path fill-rule="evenodd" d="M338,462l148,0l0,-24l-148,0l0,24Z" class="g1_293" />
<path fill-rule="evenodd" d="M495,1058l68,0l0,-620l-68,0l0,620Z" class="g1_293" />
<path fill-rule="evenodd" d="M503,462l52,0l0,-24l-52,0l0,24Z" class="g1_293" />
<path fill-rule="evenodd" d="M564,1058l323,0l0,-620l-323,0l0,620Z" class="g1_293" />
<path fill-rule="evenodd" d="M572,462l308,0l0,-24l-308,0l0,24Z" class="g1_293" />
<path fill-rule="evenodd" d="M572,486l308,0l0,-24l-308,0l0,24Z" class="g1_293" />
<path fill-rule="evenodd" d="M572,510l308,0l0,-24l-308,0l0,24Z" class="g1_293" />
<path fill-rule="evenodd" d="M572,534l308,0l0,-24l-308,0l0,24Z" class="g1_293" />
<path fill-rule="evenodd" d="M572,557l308,0l0,-23l-308,0l0,23Z" class="g1_293" />
<path fill-rule="evenodd" d="M572,581l308,0l0,-24l-308,0l0,24Z" class="g1_293" />
<path fill-rule="evenodd" d="M572,605l308,0l0,-24l-308,0l0,24Z" class="g1_293" />
<path fill-rule="evenodd" d="M572,629l308,0l0,-24l-308,0l0,24Z" class="g1_293" />
<path fill-rule="evenodd" d="M572,653l308,0l0,-24l-308,0l0,24Z" class="g1_293" />
<path fill-rule="evenodd" d="M572,677l308,0l0,-24l-308,0l0,24Z" class="g1_293" />
<path fill-rule="evenodd" d="M572,700l308,0l0,-23l-308,0l0,23Z" class="g1_293" />
<path fill-rule="evenodd" d="M572,724l308,0l0,-24l-308,0l0,24Z" class="g1_293" />
<path fill-rule="evenodd" d="M572,748l308,0l0,-24l-308,0l0,24Z" class="g1_293" />
<path fill-rule="evenodd" d="M572,772l308,0l0,-24l-308,0l0,24Z" class="g1_293" />
<path fill-rule="evenodd" d="M572,796l308,0l0,-24l-308,0l0,24Z" class="g1_293" />
<path fill-rule="evenodd" d="M572,820l308,0l0,-24l-308,0l0,24Z" class="g1_293" />
<path fill-rule="evenodd" d="M572,843l308,0l0,-23l-308,0l0,23Z" class="g1_293" />
<path fill-rule="evenodd" d="M572,867l308,0l0,-24l-308,0l0,24Z" class="g1_293" />
<path fill-rule="evenodd" d="M572,891l308,0l0,-24l-308,0l0,24Z" class="g1_293" />
<path fill-rule="evenodd" d="M572,915l308,0l0,-24l-308,0l0,24Z" class="g1_293" />
<path fill-rule="evenodd" d="M572,939l308,0l0,-24l-308,0l0,24Z" class="g1_293" />
<path fill-rule="evenodd" d="M572,963l308,0l0,-24l-308,0l0,24Z" class="g1_293" />
<path fill-rule="evenodd" d="M572,987l308,0l0,-24l-308,0l0,24Z" class="g1_293" />
<path fill-rule="evenodd" d="M572,1010l308,0l0,-23l-308,0l0,23Z" class="g1_293" />
<path fill-rule="evenodd" d="M572,1034l308,0l0,-24l-308,0l0,24Z" class="g1_293" />
<g clip-path="url(#c9_293)">
<path fill-rule="evenodd" d="M572,1058l308,0l0,-24l-308,0l0,24Z" class="g1_293" />
</g>
<path d="M46.5,438.5l0,-1" class="g2_293" />
<path d="M75.5,438.5l0,-1" class="g2_293" />
<path d="M108.5,438.5l0,-1" class="g2_293" />
<path d="M151.5,438.5l0,-1" class="g2_293" />
<path d="M153.5,438.5l176,0" class="g2_293" />
<path d="M329.5,438.5l0,-1" class="g2_293" />
<path d="M330.5,438.5l164,0" class="g2_293" />
<path d="M494.5,438.5l0,-1" class="g2_293" />
<path d="M495.5,438.5l68,0" class="g2_293" />
<path d="M563.5,438.5l0,-1" class="g2_293" />
<path d="M564.5,438.5l323,0" class="g2_293" />
<path d="M887.5,438.5l0,-1" class="g2_293" />
<path d="M46.5,1058.5l0,-620" class="g2_293" />
<path d="M75.5,1058.5l0,-620" class="g2_293" />
<path d="M108.5,1058.5l0,-620" class="g2_293" />
<path d="M151.5,1058.5l0,-620" class="g2_293" />
<path d="M329.5,1058.5l0,-620" class="g2_293" />
<path d="M494.5,1058.5l0,-620" class="g2_293" />
<path d="M563.5,1058.5l0,-620" class="g2_293" />
<path d="M887.5,1058.5l0,-620" class="g2_293" />
<path fill-rule="evenodd" d="M47,1084l28,0l0,-26l-28,0l0,26Z" class="g1_293" />
<path fill-rule="evenodd" d="M77,1084l31,0l0,-26l-31,0l0,26Z" class="g1_293" />
<path fill-rule="evenodd" d="M109,1084l42,0l0,-26l-42,0l0,26Z" class="g1_293" />
<path fill-rule="evenodd" d="M153,1084l176,0l0,-24l-176,0l0,24Z" class="g1_293" />
<g clip-path="url(#c10_293)">
<path fill-rule="evenodd" d="M160,1084l161,0l0,-24l-161,0l0,24Z" class="g1_293" />
</g>
<path fill-rule="evenodd" d="M330,1084l164,0l0,-24l-164,0l0,24Z" class="g1_293" />
<g clip-path="url(#c11_293)">
<path fill-rule="evenodd" d="M338,1084l148,0l0,-24l-148,0l0,24Z" class="g1_293" />
</g>
<path fill-rule="evenodd" d="M495,1084l68,0l0,-24l-68,0l0,24Z" class="g1_293" />
<g clip-path="url(#c12_293)">
<path fill-rule="evenodd" d="M503,1084l52,0l0,-24l-52,0l0,24Z" class="g1_293" />
</g>
<path fill-rule="evenodd" d="M564,1084l323,0l0,-24l-323,0l0,24Z" class="g1_293" />
<g clip-path="url(#c13_293)">
<path fill-rule="evenodd" d="M572,1084l308,0l0,-24l-308,0l0,24Z" class="g1_293" />
</g>
<path d="M46.5,1059.5l0,-1" class="g2_293" />
<path d="M75.5,1059.5l0,-1" class="g2_293" />
<path d="M108.5,1059.5l0,-1" class="g2_293" />
<path d="M151.5,1059.5l0,-1" class="g2_293" />
<path d="M153.5,1059.5l176,0" class="g2_293" />
<path d="M329.5,1059.5l0,-1" class="g2_293" />
<path d="M330.5,1059.5l164,0" class="g2_293" />
<path d="M494.5,1059.5l0,-1" class="g2_293" />
<path d="M495.5,1059.5l68,0" class="g2_293" />
<path d="M563.5,1059.5l0,-1" class="g2_293" />
<path d="M564.5,1059.5l323,0" class="g2_293" />
<path d="M887.5,1059.5l0,-1" class="g2_293" />
<path d="M46.5,1084.5l0,-25" class="g2_293" />
<path d="M46.5,1085.5l0,-1" class="g2_293" />
<path d="M46.5,1085.5l0,-1" class="g2_293" />
<path d="M47.5,1085.5l28,0" class="g2_293" />
<path d="M75.5,1084.5l0,-25" class="g2_293" />
<path d="M75.5,1085.5l0,-1" class="g2_293" />
<path d="M77.5,1085.5l31,0" class="g2_293" />
<path d="M108.5,1084.5l0,-25" class="g2_293" />
<path d="M108.5,1085.5l0,-1" class="g2_293" />
<path d="M109.5,1085.5l42,0" class="g2_293" />
<path d="M151.5,1084.5l0,-25" class="g2_293" />
<path d="M151.5,1085.5l0,-1" class="g2_293" />
<path d="M153.5,1085.5l176,0" class="g2_293" />
<path d="M329.5,1084.5l0,-25" class="g2_293" />
<path d="M329.5,1085.5l0,-1" class="g2_293" />
<path d="M330.5,1085.5l164,0" class="g2_293" />
<path d="M494.5,1084.5l0,-25" class="g2_293" />
<path d="M494.5,1085.5l0,-1" class="g2_293" />
<path d="M495.5,1085.5l68,0" class="g2_293" />
<path d="M563.5,1084.5l0,-25" class="g2_293" />
<path d="M563.5,1085.5l0,-1" class="g2_293" />
<path d="M564.5,1085.5l323,0" class="g2_293" />
<path d="M887.5,1084.5l0,-25" class="g2_293" />
<path d="M887.5,1085.5l0,-1" class="g2_293" />
<path d="M887.5,1085.5l0,-1" class="g2_293" />
</svg>