<?xml version="1.0" encoding="UTF-8" standalone="no"?>
<!DOCTYPE svg PUBLIC "-//W3C//DTD SVG 1.1//EN"
"http://www.w3.org/Graphics/SVG/1.1/DTD/svg11.dtd">
<svg version="1.1" xmlns="http://www.w3.org/2000/svg" xmlns:xlink="http://www.w3.org/1999/xlink">
<defs>
<clipPath id="c0_434"><path d="M47.5,230.5l0,-95l840,0l0,95Z" /></clipPath>
<clipPath id="c1_434"><path d="M47.5,684.5l0,-24l177,0l0,24Z" /></clipPath>
<clipPath id="c2_434"><path d="M226.5,684.5l0,-24l162,0l0,24Z" /></clipPath>
<clipPath id="c3_434"><path d="M390.5,684.5l0,-24l163,0l0,24Z" /></clipPath>
<clipPath id="c4_434"><path d="M554.5,684.5l0,-24l163,0l0,24Z" /></clipPath>
<clipPath id="c5_434"><path d="M719.5,684.5l0,-24l168,0l0,24Z" /></clipPath>
<clipPath id="c6_434"><path d="M47.5,709.5l0,-24l177,0l0,24Z" /></clipPath>
<clipPath id="c7_434"><path d="M226.5,709.5l0,-24l162,0l0,24Z" /></clipPath>
<clipPath id="c8_434"><path d="M390.5,709.5l0,-24l163,0l0,24Z" /></clipPath>
<clipPath id="c9_434"><path d="M554.5,709.5l0,-24l163,0l0,24Z" /></clipPath>
<clipPath id="c10_434"><path d="M719.5,709.5l0,-24l168,0l0,24Z" /></clipPath>
<clipPath id="c11_434"><path d="M47.5,1038.5l0,-24l39,0l0,24Z" /></clipPath>
<style type="text/css"><![CDATA[
.g2_434{
fill: none;
stroke: #7E7E7E;
stroke-width: 1;
stroke-linecap: butt;
stroke-linejoin: miter;
}
.g3_434{
fill: #DBE5F1;
}
.g1_434{
fill: #F1F1F1;
}
]]></style>
</defs>
<path fill-rule="evenodd" d="M47,230l840,0l0,-95L47,135l0,95Z" class="g1_434" />
<g clip-path="url(#c0_434)">
<path fill-rule="evenodd" d="M55,159l825,0l0,-24L55,135l0,24Z" class="g1_434" />
</g>
<path fill-rule="evenodd" d="M55,182l825,0l0,-23L55,159l0,23Z" class="g1_434" />
<path fill-rule="evenodd" d="M55,206l825,0l0,-24L55,182l0,24Z" class="g1_434" />
<path fill-rule="evenodd" d="M55,230l825,0l0,-24L55,206l0,24Z" class="g1_434" />
<path d="M46.5,135.5l0,-2" class="g2_434" />
<path d="M46.5,135.5l0,-2" class="g2_434" />
<path d="M47.5,135.5l840,0" class="g2_434" />
<path d="M887.5,135.5l0,-2" class="g2_434" />
<path d="M887.5,135.5l0,-2" class="g2_434" />
<path d="M46.5,230.5l0,-95" class="g2_434" />
<path d="M46.5,232.5l0,-2" class="g2_434" />
<path d="M46.5,232.5l0,-2" class="g2_434" />
<path d="M47.5,232.5l840,0" class="g2_434" />
<path d="M887.5,230.5l0,-95" class="g2_434" />
<path d="M887.5,232.5l0,-2" class="g2_434" />
<path d="M887.5,232.5l0,-2" class="g2_434" />
<path fill-rule="evenodd" d="M47,501l840,0l0,-24L47,477l0,24Z" class="g1_434" />
<path fill-rule="evenodd" d="M55,501l825,0l0,-24L55,477l0,24Z" class="g1_434" />
<path d="M46.5,477.5l0,-1" class="g2_434" />
<path d="M46.5,477.5l0,-1" class="g2_434" />
<path d="M47.5,477.5l840,0" class="g2_434" />
<path d="M887.5,477.5l0,-1" class="g2_434" />
<path d="M887.5,477.5l0,-1" class="g2_434" />
<path d="M46.5,501.5l0,-24" class="g2_434" />
<path d="M46.5,502.5l0,-1" class="g2_434" />
<path d="M46.5,502.5l0,-1" class="g2_434" />
<path d="M47.5,502.5l840,0" class="g2_434" />
<path d="M887.5,501.5l0,-24" class="g2_434" />
<path d="M887.5,502.5l0,-1" class="g2_434" />
<path d="M887.5,502.5l0,-1" class="g2_434" />
<path fill-rule="evenodd" d="M47,584l178,0l0,-24L47,560l0,24Z" class="g3_434" />
<path fill-rule="evenodd" d="M55,584l163,0l0,-24L55,560l0,24Z" class="g3_434" />
<path fill-rule="evenodd" d="M226,584l163,0l0,-24l-163,0l0,24Z" class="g3_434" />
<path fill-rule="evenodd" d="M234,584l148,0l0,-24l-148,0l0,24Z" class="g3_434" />
<path fill-rule="evenodd" d="M391,584l496,0l0,-24l-496,0l0,24Z" class="g3_434" />
<path fill-rule="evenodd" d="M398,584l482,0l0,-24l-482,0l0,24Z" class="g3_434" />
<path d="M46.5,560.5l0,-1" class="g2_434" />
<path d="M46.5,560.5l0,-1" class="g2_434" />
<path d="M47.5,560.5l178,0" class="g2_434" />
<path d="M225.5,560.5l0,-1" class="g2_434" />
<path d="M226.5,560.5l163,0" class="g2_434" />
<path d="M389.5,560.5l0,-1" class="g2_434" />
<path d="M391.5,560.5l496,0" class="g2_434" />
<path d="M887.5,560.5l0,-1" class="g2_434" />
<path d="M887.5,560.5l0,-1" class="g2_434" />
<path d="M46.5,584.5l0,-24" class="g2_434" />
<path d="M225.5,584.5l0,-24" class="g2_434" />
<path d="M389.5,584.5l0,-24" class="g2_434" />
<path d="M887.5,584.5l0,-24" class="g2_434" />
<path fill-rule="evenodd" d="M47,609l178,0l0,-23L47,586l0,23Z" class="g1_434" />
<path fill-rule="evenodd" d="M55,609l163,0l0,-23L55,586l0,23Z" class="g1_434" />
<path fill-rule="evenodd" d="M226,609l163,0l0,-23l-163,0l0,23Z" class="g1_434" />
<path fill-rule="evenodd" d="M234,609l148,0l0,-23l-148,0l0,23Z" class="g1_434" />
<path fill-rule="evenodd" d="M391,609l496,0l0,-23l-496,0l0,23Z" class="g1_434" />
<path fill-rule="evenodd" d="M398,609l482,0l0,-23l-482,0l0,23Z" class="g1_434" />
<path d="M46.5,586.5l0,-2" class="g2_434" />
<path d="M47.5,586.5l178,0" class="g2_434" />
<path d="M225.5,586.5l0,-2" class="g2_434" />
<path d="M226.5,586.5l163,0" class="g2_434" />
<path d="M389.5,586.5l0,-2" class="g2_434" />
<path d="M391.5,586.5l496,0" class="g2_434" />
<path d="M887.5,586.5l0,-2" class="g2_434" />
<path d="M46.5,609.5l0,-23" class="g2_434" />
<path d="M46.5,611.5l0,-2" class="g2_434" />
<path d="M46.5,611.5l0,-2" class="g2_434" />
<path d="M47.5,611.5l178,0" class="g2_434" />
<path d="M225.5,609.5l0,-23" class="g2_434" />
<path d="M225.5,611.5l0,-2" class="g2_434" />
<path d="M226.5,611.5l163,0" class="g2_434" />
<path d="M389.5,609.5l0,-23" class="g2_434" />
<path d="M389.5,611.5l0,-2" class="g2_434" />
<path d="M391.5,611.5l496,0" class="g2_434" />
<path d="M887.5,609.5l0,-23" class="g2_434" />
<path d="M887.5,611.5l0,-2" class="g2_434" />
<path d="M887.5,611.5l0,-2" class="g2_434" />
<path fill-rule="evenodd" d="M47,684l177,0l0,-24L47,660l0,24Z" class="g3_434" />
<g clip-path="url(#c1_434)">
<path fill-rule="evenodd" d="M55,684l162,0l0,-24L55,660l0,24Z" class="g3_434" />
</g>
<path fill-rule="evenodd" d="M226,684l162,0l0,-24l-162,0l0,24Z" class="g3_434" />
<g clip-path="url(#c2_434)">
<path fill-rule="evenodd" d="M233,684l148,0l0,-24l-148,0l0,24Z" class="g3_434" />
</g>
<path fill-rule="evenodd" d="M390,684l163,0l0,-24l-163,0l0,24Z" class="g3_434" />
<g clip-path="url(#c3_434)">
<path fill-rule="evenodd" d="M397,684l148,0l0,-24l-148,0l0,24Z" class="g3_434" />
</g>
<path fill-rule="evenodd" d="M554,684l163,0l0,-24l-163,0l0,24Z" class="g3_434" />
<g clip-path="url(#c4_434)">
<path fill-rule="evenodd" d="M562,684l148,0l0,-24l-148,0l0,24Z" class="g3_434" />
</g>
<path fill-rule="evenodd" d="M719,684l168,0l0,-24l-168,0l0,24Z" class="g3_434" />
<g clip-path="url(#c5_434)">
<path fill-rule="evenodd" d="M726,684l154,0l0,-24l-154,0l0,24Z" class="g3_434" />
</g>
<path d="M46.5,660.5l0,-2" class="g2_434" />
<path d="M46.5,660.5l0,-2" class="g2_434" />
<path d="M47.5,660.5l177,0" class="g2_434" />
<path d="M224.5,660.5l0,-2" class="g2_434" />
<path d="M226.5,660.5l162,0" class="g2_434" />
<path d="M388.5,660.5l0,-2" class="g2_434" />
<path d="M390.5,660.5l163,0" class="g2_434" />
<path d="M553.5,660.5l0,-2" class="g2_434" />
<path d="M554.5,660.5l163,0" class="g2_434" />
<path d="M717.5,660.5l0,-2" class="g2_434" />
<path d="M719.5,660.5l168,0" class="g2_434" />
<path d="M887.5,660.5l0,-2" class="g2_434" />
<path d="M887.5,660.5l0,-2" class="g2_434" />
<path d="M46.5,684.5l0,-24" class="g2_434" />
<path d="M224.5,684.5l0,-24" class="g2_434" />
<path d="M388.5,684.5l0,-24" class="g2_434" />
<path d="M553.5,684.5l0,-24" class="g2_434" />
<path d="M717.5,684.5l0,-24" class="g2_434" />
<path d="M887.5,684.5l0,-24" class="g2_434" />
<path fill-rule="evenodd" d="M47,709l177,0l0,-24L47,685l0,24Z" class="g1_434" />
<g clip-path="url(#c6_434)">
<path fill-rule="evenodd" d="M55,709l162,0l0,-24L55,685l0,24Z" class="g1_434" />
</g>
<path fill-rule="evenodd" d="M226,709l162,0l0,-24l-162,0l0,24Z" class="g1_434" />
<g clip-path="url(#c7_434)">
<path fill-rule="evenodd" d="M233,709l148,0l0,-24l-148,0l0,24Z" class="g1_434" />
</g>
<path fill-rule="evenodd" d="M390,709l163,0l0,-24l-163,0l0,24Z" class="g1_434" />
<g clip-path="url(#c8_434)">
<path fill-rule="evenodd" d="M397,709l148,0l0,-24l-148,0l0,24Z" class="g1_434" />
</g>
<path fill-rule="evenodd" d="M554,709l163,0l0,-24l-163,0l0,24Z" class="g1_434" />
<g clip-path="url(#c9_434)">
<path fill-rule="evenodd" d="M562,709l148,0l0,-24l-148,0l0,24Z" class="g1_434" />
</g>
<path fill-rule="evenodd" d="M719,709l168,0l0,-24l-168,0l0,24Z" class="g1_434" />
<g clip-path="url(#c10_434)">
<path fill-rule="evenodd" d="M726,709l154,0l0,-24l-154,0l0,24Z" class="g1_434" />
</g>
<path d="M46.5,685.5l0,-1" class="g2_434" />
<path d="M47.5,685.5l177,0" class="g2_434" />
<path d="M224.5,685.5l0,-1" class="g2_434" />
<path d="M226.5,685.5l162,0" class="g2_434" />
<path d="M388.5,685.5l0,-1" class="g2_434" />
<path d="M390.5,685.5l163,0" class="g2_434" />
<path d="M553.5,685.5l0,-1" class="g2_434" />
<path d="M554.5,685.5l163,0" class="g2_434" />
<path d="M717.5,685.5l0,-1" class="g2_434" />
<path d="M719.5,685.5l168,0" class="g2_434" />
<path d="M887.5,685.5l0,-1" class="g2_434" />
<path d="M46.5,709.5l0,-24" class="g2_434" />
<path d="M46.5,711.5l0,-2" class="g2_434" />
<path d="M46.5,711.5l0,-2" class="g2_434" />
<path d="M47.5,711.5l177,0" class="g2_434" />
<path d="M224.5,709.5l0,-24" class="g2_434" />
<path d="M224.5,711.5l0,-2" class="g2_434" />
<path d="M226.5,711.5l162,0" class="g2_434" />
<path d="M388.5,709.5l0,-24" class="g2_434" />
<path d="M388.5,711.5l0,-2" class="g2_434" />
<path d="M390.5,711.5l163,0" class="g2_434" />
<path d="M553.5,709.5l0,-24" class="g2_434" />
<path d="M553.5,711.5l0,-2" class="g2_434" />
<path d="M554.5,711.5l163,0" class="g2_434" />
<path d="M717.5,709.5l0,-24" class="g2_434" />
<path d="M717.5,711.5l0,-2" class="g2_434" />
<path d="M719.5,711.5l168,0" class="g2_434" />
<path d="M887.5,709.5l0,-24" class="g2_434" />
<path d="M887.5,711.5l0,-2" class="g2_434" />
<path d="M887.5,711.5l0,-2" class="g2_434" />
<path fill-rule="evenodd" d="M47,1012l234,0l0,-24L47,988l0,24Z" class="g3_434" />
<path fill-rule="evenodd" d="M55,1012l218,0l0,-24L55,988l0,24Z" class="g3_434" />
<path fill-rule="evenodd" d="M282,1012l115,0l0,-24l-115,0l0,24Z" class="g3_434" />
<path fill-rule="evenodd" d="M290,1012l99,0l0,-24l-99,0l0,24Z" class="g3_434" />
<path fill-rule="evenodd" d="M398,1012l75,0l0,-24l-75,0l0,24Z" class="g3_434" />
<path fill-rule="evenodd" d="M406,1012l60,0l0,-24l-60,0l0,24Z" class="g3_434" />
<path fill-rule="evenodd" d="M475,1012l412,0l0,-24l-412,0l0,24Z" class="g3_434" />
<path fill-rule="evenodd" d="M483,1012l397,0l0,-24l-397,0l0,24Z" class="g3_434" />
<path d="M46.5,988.5l0,-2" class="g2_434" />
<path d="M46.5,988.5l0,-2" class="g2_434" />
<path d="M47.5,988.5l234,0" class="g2_434" />
<path d="M281.5,988.5l0,-2" class="g2_434" />
<path d="M282.5,988.5l115,0" class="g2_434" />
<path d="M397.5,988.5l0,-2" class="g2_434" />
<path d="M398.5,988.5l76,0" class="g2_434" />
<path d="M474.5,988.5l0,-2" class="g2_434" />
<path d="M475.5,988.5l412,0" class="g2_434" />
<path d="M887.5,988.5l0,-2" class="g2_434" />
<path d="M887.5,988.5l0,-2" class="g2_434" />
<path d="M46.5,1012.5l0,-24" class="g2_434" />
<path d="M281.5,1012.5l0,-24" class="g2_434" />
<path d="M397.5,1012.5l0,-24" class="g2_434" />
<path d="M474.5,1012.5l0,-24" class="g2_434" />
<path d="M887.5,1012.5l0,-24" class="g2_434" />
<path fill-rule="evenodd" d="M47,1038l39,0l0,-24l-39,0l0,24Z" class="g1_434" />
<g clip-path="url(#c11_434)">
<path fill-rule="evenodd" d="M55,1038l23,0l0,-24l-23,0l0,24Z" class="g1_434" />
<path fill-rule="evenodd" d="M78,1038l8,0l0,-24l-8,0l0,24Z" class="g1_434" />
</g>
<path fill-rule="evenodd" d="M88,1038l193,0l0,-24l-193,0l0,24Z" class="g1_434" />
<path fill-rule="evenodd" d="M95,1038l178,0l0,-24l-178,0l0,24Z" class="g1_434" />
<path fill-rule="evenodd" d="M282,1038l115,0l0,-24l-115,0l0,24Z" class="g1_434" />
<path fill-rule="evenodd" d="M290,1038l99,0l0,-24l-99,0l0,24Z" class="g1_434" />
<path fill-rule="evenodd" d="M398,1038l75,0l0,-24l-75,0l0,24Z" class="g1_434" />
<path fill-rule="evenodd" d="M406,1038l60,0l0,-24l-60,0l0,24Z" class="g1_434" />
<path fill-rule="evenodd" d="M475,1038l412,0l0,-24l-412,0l0,24Z" class="g1_434" />
<path fill-rule="evenodd" d="M483,1038l397,0l0,-24l-397,0l0,24Z" class="g1_434" />
<path d="M46.5,1014.5l0,-2" class="g2_434" />
<path d="M47.5,1014.5l39,0" class="g2_434" />
<path d="M86.5,1014.5l0,-2" class="g2_434" />
<path d="M88.5,1014.5l193,0" class="g2_434" />
<path d="M281.5,1014.5l0,-2" class="g2_434" />
<path d="M282.5,1014.5l115,0" class="g2_434" />
<path d="M397.5,1014.5l0,-2" class="g2_434" />
<path d="M398.5,1014.5l76,0" class="g2_434" />
<path d="M474.5,1014.5l0,-2" class="g2_434" />
<path d="M475.5,1014.5l412,0" class="g2_434" />
<path d="M887.5,1014.5l0,-2" class="g2_434" />
<path d="M46.5,1038.5l0,-24" class="g2_434" />
<path d="M46.5,1040.5l0,-2" class="g2_434" />
<path d="M46.5,1040.5l0,-2" class="g2_434" />
<path d="M47.5,1040.5l39,0" class="g2_434" />
<path d="M86.5,1038.5l0,-24" class="g2_434" />
<path d="M86.5,1040.5l0,-2" class="g2_434" />
<path d="M88.5,1040.5l193,0" class="g2_434" />
<path d="M281.5,1038.5l0,-24" class="g2_434" />
<path d="M281.5,1040.5l0,-2" class="g2_434" />
<path d="M282.5,1040.5l115,0" class="g2_434" />
<path d="M397.5,1038.5l0,-24" class="g2_434" />
<path d="M397.5,1040.5l0,-2" class="g2_434" />
<path d="M398.5,1040.5l76,0" class="g2_434" />
<path d="M474.5,1038.5l0,-24" class="g2_434" />
<path d="M474.5,1040.5l0,-2" class="g2_434" />
<path d="M475.5,1040.5l412,0" class="g2_434" />
<path d="M887.5,1038.5l0,-24" class="g2_434" />
<path d="M887.5,1040.5l0,-2" class="g2_434" />
<path d="M887.5,1040.5l0,-2" class="g2_434" />
</svg>