<?xml version="1.0" encoding="UTF-8" standalone="no"?>
<!DOCTYPE svg PUBLIC "-//W3C//DTD SVG 1.1//EN"
"http://www.w3.org/Graphics/SVG/1.1/DTD/svg11.dtd">
<svg version="1.1" xmlns="http://www.w3.org/2000/svg" xmlns:xlink="http://www.w3.org/1999/xlink">
<defs>
<clipPath id="c0_313"><path d="M47.5,373.5l0,-262l840,0l0,262Z" /></clipPath>
<clipPath id="c1_313"><path d="M47.5,734.5l0,-286l840,0l0,286Z" /></clipPath>
<clipPath id="c2_313"><path d="M47.5,1087.5l0,-144l39,0l0,144Z" /></clipPath>
<clipPath id="c3_313"><path d="M516.5,991.5l0,-48l371,0l0,48Z" /></clipPath>
<clipPath id="c4_313"><path d="M516.5,1087.5l0,-95l371,0l0,95Z" /></clipPath>
<style type="text/css"><![CDATA[
.g2_313{
fill: none;
stroke: #7E7E7E;
stroke-width: 1;
stroke-linecap: butt;
stroke-linejoin: miter;
}
.g3_313{
fill: #DBE5F1;
}
.g1_313{
fill: #F1F1F1;
}
]]></style>
</defs>
<path fill-rule="evenodd" d="M47,373l840,0l0,-262L47,111l0,262Z" class="g1_313" />
<g clip-path="url(#c0_313)">
<path fill-rule="evenodd" d="M55,135l825,0l0,-24L55,111l0,24Z" class="g1_313" />
</g>
<path fill-rule="evenodd" d="M55,159l825,0l0,-24L55,135l0,24Z" class="g1_313" />
<path fill-rule="evenodd" d="M55,182l825,0l0,-23L55,159l0,23Z" class="g1_313" />
<path fill-rule="evenodd" d="M55,206l825,0l0,-24L55,182l0,24Z" class="g1_313" />
<path fill-rule="evenodd" d="M55,230l825,0l0,-24L55,206l0,24Z" class="g1_313" />
<path fill-rule="evenodd" d="M55,254l825,0l0,-24L55,230l0,24Z" class="g1_313" />
<path fill-rule="evenodd" d="M55,278l825,0l0,-24L55,254l0,24Z" class="g1_313" />
<path fill-rule="evenodd" d="M55,302l825,0l0,-24L55,278l0,24Z" class="g1_313" />
<path fill-rule="evenodd" d="M55,325l825,0l0,-23L55,302l0,23Z" class="g1_313" />
<path fill-rule="evenodd" d="M55,349l825,0l0,-24L55,325l0,24Z" class="g1_313" />
<path fill-rule="evenodd" d="M55,373l825,0l0,-24L55,349l0,24Z" class="g1_313" />
<path d="M46.5,111.5l0,-1" class="g2_313" />
<path d="M46.5,111.5l0,-1" class="g2_313" />
<path d="M47.5,111.5l840,0" class="g2_313" />
<path d="M887.5,111.5l0,-1" class="g2_313" />
<path d="M887.5,111.5l0,-1" class="g2_313" />
<path d="M46.5,373.5l0,-262" class="g2_313" />
<path d="M46.5,375.5l0,-2" class="g2_313" />
<path d="M46.5,375.5l0,-2" class="g2_313" />
<path d="M47.5,375.5l840,0" class="g2_313" />
<path d="M887.5,373.5l0,-262" class="g2_313" />
<path d="M887.5,375.5l0,-2" class="g2_313" />
<path d="M887.5,375.5l0,-2" class="g2_313" />
<path fill-rule="evenodd" d="M47,734l840,0l0,-286L47,448l0,286Z" class="g1_313" />
<g clip-path="url(#c1_313)">
<path fill-rule="evenodd" d="M55,472l825,0l0,-24L55,448l0,24Z" class="g1_313" />
</g>
<path fill-rule="evenodd" d="M55,495l825,0l0,-23L55,472l0,23Z" class="g1_313" />
<path fill-rule="evenodd" d="M55,519l825,0l0,-24L55,495l0,24Z" class="g1_313" />
<path fill-rule="evenodd" d="M55,543l825,0l0,-24L55,519l0,24Z" class="g1_313" />
<path fill-rule="evenodd" d="M55,567l825,0l0,-24L55,543l0,24Z" class="g1_313" />
<path fill-rule="evenodd" d="M55,591l825,0l0,-24L55,567l0,24Z" class="g1_313" />
<path fill-rule="evenodd" d="M55,615l825,0l0,-24L55,591l0,24Z" class="g1_313" />
<path fill-rule="evenodd" d="M55,638l825,0l0,-23L55,615l0,23Z" class="g1_313" />
<path fill-rule="evenodd" d="M55,662l825,0l0,-24L55,638l0,24Z" class="g1_313" />
<path fill-rule="evenodd" d="M55,686l825,0l0,-24L55,662l0,24Z" class="g1_313" />
<path fill-rule="evenodd" d="M55,710l825,0l0,-24L55,686l0,24Z" class="g1_313" />
<path fill-rule="evenodd" d="M55,734l825,0l0,-24L55,710l0,24Z" class="g1_313" />
<path d="M46.5,448.5l0,-2" class="g2_313" />
<path d="M46.5,448.5l0,-2" class="g2_313" />
<path d="M47.5,448.5l840,0" class="g2_313" />
<path d="M887.5,448.5l0,-2" class="g2_313" />
<path d="M887.5,448.5l0,-2" class="g2_313" />
<path d="M46.5,734.5l0,-286" class="g2_313" />
<path d="M46.5,735.5l0,-1" class="g2_313" />
<path d="M46.5,735.5l0,-1" class="g2_313" />
<path d="M47.5,735.5l840,0" class="g2_313" />
<path d="M887.5,734.5l0,-286" class="g2_313" />
<path d="M887.5,735.5l0,-1" class="g2_313" />
<path d="M887.5,735.5l0,-1" class="g2_313" />
<path fill-rule="evenodd" d="M47,941l366,0l0,-24L47,917l0,24Z" class="g3_313" />
<path fill-rule="evenodd" d="M55,941l350,0l0,-24L55,917l0,24Z" class="g3_313" />
<path fill-rule="evenodd" d="M414,941l100,0l0,-24l-100,0l0,24Z" class="g3_313" />
<path fill-rule="evenodd" d="M422,941l85,0l0,-24l-85,0l0,24Z" class="g3_313" />
<path fill-rule="evenodd" d="M516,941l371,0l0,-24l-371,0l0,24Z" class="g3_313" />
<path fill-rule="evenodd" d="M523,941l357,0l0,-24l-357,0l0,24Z" class="g3_313" />
<path d="M46.5,917.5l0,-1" class="g2_313" />
<path d="M46.5,917.5l0,-1" class="g2_313" />
<path d="M47.5,917.5l366,0" class="g2_313" />
<path d="M413.5,917.5l0,-1" class="g2_313" />
<path d="M414.5,917.5l101,0" class="g2_313" />
<path d="M515.5,917.5l0,-1" class="g2_313" />
<path d="M516.5,917.5l371,0" class="g2_313" />
<path d="M887.5,917.5l0,-1" class="g2_313" />
<path d="M887.5,917.5l0,-1" class="g2_313" />
<path d="M46.5,941.5l0,-24" class="g2_313" />
<path d="M413.5,941.5l0,-24" class="g2_313" />
<path d="M515.5,941.5l0,-24" class="g2_313" />
<path d="M887.5,941.5l0,-24" class="g2_313" />
<path fill-rule="evenodd" d="M47,1087l39,0L86,943l-39,0l0,144Z" class="g1_313" />
<g clip-path="url(#c2_313)">
<path fill-rule="evenodd" d="M55,1087l23,0L78,943l-23,0l0,144Z" class="g1_313" />
</g>
<path fill-rule="evenodd" d="M88,991l325,0l0,-48L88,943l0,48Z" class="g1_313" />
<path fill-rule="evenodd" d="M95,967l310,0l0,-24L95,943l0,24Z" class="g1_313" />
<path fill-rule="evenodd" d="M414,991l100,0l0,-48l-100,0l0,48Z" class="g1_313" />
<path fill-rule="evenodd" d="M422,967l85,0l0,-24l-85,0l0,24Z" class="g1_313" />
<path fill-rule="evenodd" d="M516,991l371,0l0,-48l-371,0l0,48Z" class="g1_313" />
<path fill-rule="evenodd" d="M523,967l357,0l0,-24l-357,0l0,24Z" class="g1_313" />
<g clip-path="url(#c3_313)">
<path fill-rule="evenodd" d="M523,991l357,0l0,-24l-357,0l0,24Z" class="g1_313" />
</g>
<path d="M46.5,943.5l0,-2" class="g2_313" />
<path d="M47.5,943.5l39,0" class="g2_313" />
<path d="M86.5,943.5l0,-2" class="g2_313" />
<path d="M88.5,943.5l325,0" class="g2_313" />
<path d="M413.5,943.5l0,-2" class="g2_313" />
<path d="M414.5,943.5l101,0" class="g2_313" />
<path d="M515.5,943.5l0,-2" class="g2_313" />
<path d="M516.5,943.5l371,0" class="g2_313" />
<path d="M887.5,943.5l0,-2" class="g2_313" />
<path d="M46.5,991.5l0,-48" class="g2_313" />
<path d="M86.5,991.5l0,-48" class="g2_313" />
<path d="M413.5,991.5l0,-48" class="g2_313" />
<path d="M515.5,991.5l0,-48" class="g2_313" />
<path d="M887.5,991.5l0,-48" class="g2_313" />
<path fill-rule="evenodd" d="M88,1087l325,0l0,-95L88,992l0,95Z" class="g1_313" />
<path fill-rule="evenodd" d="M95,1016l310,0l0,-24L95,992l0,24Z" class="g1_313" />
<path fill-rule="evenodd" d="M414,1087l100,0l0,-95l-100,0l0,95Z" class="g1_313" />
<path fill-rule="evenodd" d="M422,1016l85,0l0,-24l-85,0l0,24Z" class="g1_313" />
<path fill-rule="evenodd" d="M516,1087l371,0l0,-95l-371,0l0,95Z" class="g1_313" />
<path fill-rule="evenodd" d="M523,1016l357,0l0,-24l-357,0l0,24Z" class="g1_313" />
<path fill-rule="evenodd" d="M523,1040l357,0l0,-24l-357,0l0,24Z" class="g1_313" />
<path fill-rule="evenodd" d="M523,1064l357,0l0,-24l-357,0l0,24Z" class="g1_313" />
<g clip-path="url(#c4_313)">
<path fill-rule="evenodd" d="M523,1087l357,0l0,-23l-357,0l0,23Z" class="g1_313" />
</g>
<path d="M46.5,992.5l0,-1" class="g2_313" />
<path d="M86.5,992.5l0,-1" class="g2_313" />
<path d="M88.5,992.5l325,0" class="g2_313" />
<path d="M413.5,992.5l0,-1" class="g2_313" />
<path d="M414.5,992.5l101,0" class="g2_313" />
<path d="M515.5,992.5l0,-1" class="g2_313" />
<path d="M516.5,992.5l371,0" class="g2_313" />
<path d="M887.5,992.5l0,-1" class="g2_313" />
<path d="M46.5,1088.5l0,-96" class="g2_313" />
<path d="M46.5,1089.5l0,-1" class="g2_313" />
<path d="M46.5,1089.5l0,-1" class="g2_313" />
<path d="M47.5,1089.5l39,0" class="g2_313" />
<path d="M86.5,1088.5l0,-96" class="g2_313" />
<path d="M86.5,1089.5l0,-1" class="g2_313" />
<path d="M88.5,1089.5l325,0" class="g2_313" />
<path d="M413.5,1088.5l0,-96" class="g2_313" />
<path d="M413.5,1089.5l0,-1" class="g2_313" />
<path d="M414.5,1089.5l101,0" class="g2_313" />
<path d="M515.5,1088.5l0,-96" class="g2_313" />
<path d="M515.5,1089.5l0,-1" class="g2_313" />
<path d="M516.5,1089.5l371,0" class="g2_313" />
<path d="M887.5,1088.5l0,-96" class="g2_313" />
<path d="M887.5,1089.5l0,-1" class="g2_313" />
<path d="M887.5,1089.5l0,-1" class="g2_313" />
</svg>