<?xml version="1.0" encoding="UTF-8" standalone="no"?>
<!DOCTYPE svg PUBLIC "-//W3C//DTD SVG 1.1//EN"
"http://www.w3.org/Graphics/SVG/1.1/DTD/svg11.dtd">
<svg version="1.1" xmlns="http://www.w3.org/2000/svg" xmlns:xlink="http://www.w3.org/1999/xlink">
<defs>
<clipPath id="c0_12"><path d="M47.5,159.5l0,-24l178,0l0,24Z" /></clipPath>
<clipPath id="c1_12"><path d="M227.5,159.5l0,-24l660,0l0,24Z" /></clipPath>
<clipPath id="c2_12"><path d="M47.5,184.5l0,-24l178,0l0,24Z" /></clipPath>
<clipPath id="c3_12"><path d="M227.5,184.5l0,-24l660,0l0,24Z" /></clipPath>
<clipPath id="c4_12"><path d="M47.5,440.5l0,-181l840,0l0,181Z" /></clipPath>
<clipPath id="c5_12"><path d="M47.5,685.5l0,-24l178,0l0,24Z" /></clipPath>
<clipPath id="c6_12"><path d="M227.5,685.5l0,-24l660,0l0,24Z" /></clipPath>
<clipPath id="c7_12"><path d="M47.5,710.5l0,-24l178,0l0,24Z" /></clipPath>
<clipPath id="c8_12"><path d="M227.5,710.5l0,-24l660,0l0,24Z" /></clipPath>
<clipPath id="c9_12"><path d="M47.5,735.5l0,-24l178,0l0,24Z" /></clipPath>
<clipPath id="c10_12"><path d="M227.5,735.5l0,-24l660,0l0,24Z" /></clipPath>
<clipPath id="c11_12"><path d="M47.5,761.5l0,-24l178,0l0,24Z" /></clipPath>
<clipPath id="c12_12"><path d="M227.5,761.5l0,-24l660,0l0,24Z" /></clipPath>
<clipPath id="c13_12"><path d="M47.5,786.5l0,-24l178,0l0,24Z" /></clipPath>
<clipPath id="c14_12"><path d="M227.5,786.5l0,-24l660,0l0,24Z" /></clipPath>
<clipPath id="c15_12"><path d="M47.5,811.5l0,-24l178,0l0,24Z" /></clipPath>
<clipPath id="c16_12"><path d="M227.5,811.5l0,-24l660,0l0,24Z" /></clipPath>
<clipPath id="c17_12"><path d="M47.5,1067.5l0,-181l840,0l0,181Z" /></clipPath>
<style type="text/css"><![CDATA[
.g2_12{
fill: none;
stroke: #7E7E7E;
stroke-width: 1;
stroke-linecap: butt;
stroke-linejoin: miter;
}
.g4_12{
fill: none;
stroke: #F0F0E0;
stroke-width: 1;
stroke-linecap: butt;
stroke-linejoin: miter;
}
.g3_12{
fill: #F1F1F1;
}
.g1_12{
fill: #DBE5F1;
}
]]></style>
</defs>
<path fill-rule="evenodd" d="M47,159l178,0l0,-24L47,135l0,24Z" class="g1_12" />
<g clip-path="url(#c0_12)">
<path fill-rule="evenodd" d="M55,159l163,0l0,-24L55,135l0,24Z" class="g1_12" />
</g>
<path fill-rule="evenodd" d="M227,159l660,0l0,-24l-660,0l0,24Z" class="g1_12" />
<g clip-path="url(#c1_12)">
<path fill-rule="evenodd" d="M234,159l646,0l0,-24l-646,0l0,24Z" class="g1_12" />
</g>
<path d="M46.5,135.5l0,-2" class="g2_12" />
<path d="M46.5,135.5l0,-2" class="g2_12" />
<path d="M47.5,135.5l178,0" class="g2_12" />
<path d="M225.5,135.5l0,-2" class="g2_12" />
<path d="M227.5,135.5l660,0" class="g2_12" />
<path d="M887.5,135.5l0,-2" class="g2_12" />
<path d="M887.5,135.5l0,-2" class="g2_12" />
<path d="M46.5,159.5l0,-24" class="g2_12" />
<path d="M225.5,159.5l0,-24" class="g2_12" />
<path d="M887.5,159.5l0,-24" class="g2_12" />
<path fill-rule="evenodd" d="M47,184l178,0l0,-24L47,160l0,24Z" class="g3_12" />
<g clip-path="url(#c2_12)">
<path fill-rule="evenodd" d="M55,184l163,0l0,-24L55,160l0,24Z" class="g3_12" />
</g>
<path fill-rule="evenodd" d="M227,184l660,0l0,-24l-660,0l0,24Z" class="g3_12" />
<g clip-path="url(#c3_12)">
<path fill-rule="evenodd" d="M234,184l646,0l0,-24l-646,0l0,24Z" class="g3_12" />
</g>
<path d="M46.5,160.5l0,-1" class="g2_12" />
<path d="M47.5,160.5l178,0" class="g2_12" />
<path d="M225.5,160.5l0,-1" class="g2_12" />
<path d="M227.5,160.5l660,0" class="g2_12" />
<path d="M887.5,160.5l0,-1" class="g2_12" />
<path d="M46.5,184.5l0,-24" class="g2_12" />
<path d="M46.5,186.5l0,-2" class="g2_12" />
<path d="M46.5,186.5l0,-2" class="g2_12" />
<path d="M47.5,186.5l178,0" class="g2_12" />
<path d="M225.5,184.5l0,-24" class="g2_12" />
<path d="M225.5,186.5l0,-2" class="g2_12" />
<path d="M227.5,186.5l660,0" class="g2_12" />
<path d="M887.5,184.5l0,-24" class="g2_12" />
<path d="M887.5,186.5l0,-2" class="g2_12" />
<path d="M887.5,186.5l0,-2" class="g2_12" />
<path fill-rule="evenodd" d="M47,440l840,0l0,-181L47,259l0,181Z" class="g3_12" />
<g clip-path="url(#c4_12)">
<path fill-rule="evenodd" d="M55,290l825,0l0,-31L55,259l0,31Z" class="g3_12" />
<path d="M45.5,260.5l0,-1" class="g4_12" />
<path d="M45.5,260.5l0,-1" class="g4_12" />
<path d="M46.5,260.5l842,0" class="g4_12" />
<path d="M888.5,260.5l0,-1" class="g4_12" />
<path d="M888.5,260.5l0,-1" class="g4_12" />
<path d="M45.5,290.5l0,-30" class="g4_12" />
<path d="M888.5,290.5l0,-30" class="g4_12" />
</g>
<path fill-rule="evenodd" d="M55,314l825,0l0,-24L55,290l0,24Z" class="g3_12" />
<g clip-path="url(#c4_12)">
<path d="M45.5,314.5l0,-24" class="g4_12" />
<path d="M888.5,314.5l0,-24" class="g4_12" />
</g>
<path fill-rule="evenodd" d="M55,337l825,0l0,-23L55,314l0,23Z" class="g3_12" />
<g clip-path="url(#c4_12)">
<path d="M45.5,337.5l0,-23" class="g4_12" />
<path d="M888.5,337.5l0,-23" class="g4_12" />
</g>
<path fill-rule="evenodd" d="M55,361l825,0l0,-24L55,337l0,24Z" class="g3_12" />
<g clip-path="url(#c4_12)">
<path d="M45.5,361.5l0,-24" class="g4_12" />
<path d="M888.5,361.5l0,-24" class="g4_12" />
</g>
<path fill-rule="evenodd" d="M55,385l825,0l0,-24L55,361l0,24Z" class="g3_12" />
<g clip-path="url(#c4_12)">
<path d="M45.5,385.5l0,-24" class="g4_12" />
<path d="M888.5,385.5l0,-24" class="g4_12" />
</g>
<path fill-rule="evenodd" d="M55,409l825,0l0,-24L55,385l0,24Z" class="g3_12" />
<g clip-path="url(#c4_12)">
<path d="M45.5,409.5l0,-24" class="g4_12" />
<path d="M888.5,409.5l0,-24" class="g4_12" />
</g>
<path fill-rule="evenodd" d="M55,440l825,0l0,-31L55,409l0,31Z" class="g3_12" />
<g clip-path="url(#c4_12)">
<path d="M45.5,440.5l0,-1" class="g4_12" />
<path d="M45.5,440.5l0,-1" class="g4_12" />
<path d="M46.5,440.5l842,0" class="g4_12" />
<path d="M888.5,440.5l0,-1" class="g4_12" />
<path d="M888.5,440.5l0,-1" class="g4_12" />
<path d="M45.5,439.5l0,-30" class="g4_12" />
<path d="M888.5,439.5l0,-30" class="g4_12" />
</g>
<path d="M46.5,259.5l0,-2" class="g2_12" />
<path d="M46.5,259.5l0,-2" class="g2_12" />
<path d="M47.5,259.5l840,0" class="g2_12" />
<path d="M887.5,259.5l0,-2" class="g2_12" />
<path d="M887.5,259.5l0,-2" class="g2_12" />
<path d="M46.5,440.5l0,-181" class="g2_12" />
<path d="M46.5,442.5l0,-2" class="g2_12" />
<path d="M46.5,442.5l0,-2" class="g2_12" />
<path d="M47.5,442.5l840,0" class="g2_12" />
<path d="M887.5,440.5l0,-181" class="g2_12" />
<path d="M887.5,442.5l0,-2" class="g2_12" />
<path d="M887.5,442.5l0,-2" class="g2_12" />
<path fill-rule="evenodd" d="M47,610l840,0l0,-95L47,515l0,95Z" class="g3_12" />
<path fill-rule="evenodd" d="M55,538l825,0l0,-23L55,515l0,23Z" class="g3_12" />
<path fill-rule="evenodd" d="M55,562l825,0l0,-24L55,538l0,24Z" class="g3_12" />
<path fill-rule="evenodd" d="M55,586l825,0l0,-24L55,562l0,24Z" class="g3_12" />
<path fill-rule="evenodd" d="M55,610l825,0l0,-24L55,586l0,24Z" class="g3_12" />
<path d="M46.5,515.5l0,-2" class="g2_12" />
<path d="M46.5,515.5l0,-2" class="g2_12" />
<path d="M47.5,515.5l840,0" class="g2_12" />
<path d="M887.5,515.5l0,-2" class="g2_12" />
<path d="M887.5,515.5l0,-2" class="g2_12" />
<path d="M46.5,610.5l0,-95" class="g2_12" />
<path d="M46.5,611.5l0,-1" class="g2_12" />
<path d="M46.5,611.5l0,-1" class="g2_12" />
<path d="M47.5,611.5l840,0" class="g2_12" />
<path d="M887.5,610.5l0,-95" class="g2_12" />
<path d="M887.5,611.5l0,-1" class="g2_12" />
<path d="M887.5,611.5l0,-1" class="g2_12" />
<path fill-rule="evenodd" d="M47,685l178,0l0,-24L47,661l0,24Z" class="g1_12" />
<g clip-path="url(#c5_12)">
<path fill-rule="evenodd" d="M55,685l163,0l0,-24L55,661l0,24Z" class="g1_12" />
</g>
<path fill-rule="evenodd" d="M226,685l661,0l0,-24l-661,0l0,24Z" class="g1_12" />
<g clip-path="url(#c6_12)">
<path fill-rule="evenodd" d="M234,685l646,0l0,-24l-646,0l0,24Z" class="g1_12" />
</g>
<path d="M46.5,661.5l0,-2" class="g2_12" />
<path d="M46.5,661.5l0,-2" class="g2_12" />
<path d="M47.5,661.5l178,0" class="g2_12" />
<path d="M225.5,661.5l0,-2" class="g2_12" />
<path d="M226.5,661.5l661,0" class="g2_12" />
<path d="M887.5,661.5l0,-2" class="g2_12" />
<path d="M887.5,661.5l0,-2" class="g2_12" />
<path d="M46.5,685.5l0,-24" class="g2_12" />
<path d="M225.5,685.5l0,-24" class="g2_12" />
<path d="M887.5,685.5l0,-24" class="g2_12" />
<path fill-rule="evenodd" d="M47,710l178,0l0,-24L47,686l0,24Z" class="g3_12" />
<g clip-path="url(#c7_12)">
<path fill-rule="evenodd" d="M55,710l163,0l0,-24L55,686l0,24Z" class="g3_12" />
</g>
<path fill-rule="evenodd" d="M226,710l661,0l0,-24l-661,0l0,24Z" class="g3_12" />
<g clip-path="url(#c8_12)">
<path fill-rule="evenodd" d="M234,710l646,0l0,-24l-646,0l0,24Z" class="g3_12" />
</g>
<path d="M46.5,686.5l0,-1" class="g2_12" />
<path d="M47.5,686.5l178,0" class="g2_12" />
<path d="M225.5,686.5l0,-1" class="g2_12" />
<path d="M226.5,686.5l661,0" class="g2_12" />
<path d="M887.5,686.5l0,-1" class="g2_12" />
<path d="M46.5,710.5l0,-24" class="g2_12" />
<path d="M225.5,710.5l0,-24" class="g2_12" />
<path d="M887.5,710.5l0,-24" class="g2_12" />
<path fill-rule="evenodd" d="M47,735l178,0l0,-24L47,711l0,24Z" class="g3_12" />
<g clip-path="url(#c9_12)">
<path fill-rule="evenodd" d="M55,735l163,0l0,-24L55,711l0,24Z" class="g3_12" />
</g>
<path fill-rule="evenodd" d="M226,735l661,0l0,-24l-661,0l0,24Z" class="g3_12" />
<g clip-path="url(#c10_12)">
<path fill-rule="evenodd" d="M234,735l646,0l0,-24l-646,0l0,24Z" class="g3_12" />
</g>
<path d="M46.5,711.5l0,-1" class="g2_12" />
<path d="M47.5,711.5l178,0" class="g2_12" />
<path d="M225.5,711.5l0,-1" class="g2_12" />
<path d="M226.5,711.5l661,0" class="g2_12" />
<path d="M887.5,711.5l0,-1" class="g2_12" />
<path d="M46.5,735.5l0,-24" class="g2_12" />
<path d="M225.5,735.5l0,-24" class="g2_12" />
<path d="M887.5,735.5l0,-24" class="g2_12" />
<path fill-rule="evenodd" d="M47,761l178,0l0,-24L47,737l0,24Z" class="g3_12" />
<g clip-path="url(#c11_12)">
<path fill-rule="evenodd" d="M55,761l163,0l0,-24L55,737l0,24Z" class="g3_12" />
</g>
<path fill-rule="evenodd" d="M226,761l661,0l0,-24l-661,0l0,24Z" class="g3_12" />
<g clip-path="url(#c12_12)">
<path fill-rule="evenodd" d="M234,761l646,0l0,-24l-646,0l0,24Z" class="g3_12" />
</g>
<path d="M46.5,737.5l0,-2" class="g2_12" />
<path d="M47.5,737.5l178,0" class="g2_12" />
<path d="M225.5,737.5l0,-2" class="g2_12" />
<path d="M226.5,737.5l661,0" class="g2_12" />
<path d="M887.5,737.5l0,-2" class="g2_12" />
<path d="M46.5,761.5l0,-24" class="g2_12" />
<path d="M225.5,761.5l0,-24" class="g2_12" />
<path d="M887.5,761.5l0,-24" class="g2_12" />
<path fill-rule="evenodd" d="M47,786l178,0l0,-24L47,762l0,24Z" class="g3_12" />
<g clip-path="url(#c13_12)">
<path fill-rule="evenodd" d="M55,786l163,0l0,-24L55,762l0,24Z" class="g3_12" />
</g>
<path fill-rule="evenodd" d="M226,786l661,0l0,-24l-661,0l0,24Z" class="g3_12" />
<g clip-path="url(#c14_12)">
<path fill-rule="evenodd" d="M234,786l646,0l0,-24l-646,0l0,24Z" class="g3_12" />
</g>
<path d="M46.5,762.5l0,-1" class="g2_12" />
<path d="M47.5,762.5l178,0" class="g2_12" />
<path d="M225.5,762.5l0,-1" class="g2_12" />
<path d="M226.5,762.5l661,0" class="g2_12" />
<path d="M887.5,762.5l0,-1" class="g2_12" />
<path d="M46.5,786.5l0,-24" class="g2_12" />
<path d="M225.5,786.5l0,-24" class="g2_12" />
<path d="M887.5,786.5l0,-24" class="g2_12" />
<path fill-rule="evenodd" d="M47,811l178,0l0,-24L47,787l0,24Z" class="g3_12" />
<g clip-path="url(#c15_12)">
<path fill-rule="evenodd" d="M55,811l163,0l0,-24L55,787l0,24Z" class="g3_12" />
</g>
<path fill-rule="evenodd" d="M226,811l661,0l0,-24l-661,0l0,24Z" class="g3_12" />
<g clip-path="url(#c16_12)">
<path fill-rule="evenodd" d="M234,811l646,0l0,-24l-646,0l0,24Z" class="g3_12" />
</g>
<path d="M46.5,787.5l0,-1" class="g2_12" />
<path d="M47.5,787.5l178,0" class="g2_12" />
<path d="M225.5,787.5l0,-1" class="g2_12" />
<path d="M226.5,787.5l661,0" class="g2_12" />
<path d="M887.5,787.5l0,-1" class="g2_12" />
<path d="M46.5,811.5l0,-24" class="g2_12" />
<path d="M46.5,813.5l0,-2" class="g2_12" />
<path d="M46.5,813.5l0,-2" class="g2_12" />
<path d="M47.5,813.5l178,0" class="g2_12" />
<path d="M225.5,811.5l0,-24" class="g2_12" />
<path d="M225.5,813.5l0,-2" class="g2_12" />
<path d="M226.5,813.5l661,0" class="g2_12" />
<path d="M887.5,811.5l0,-24" class="g2_12" />
<path d="M887.5,813.5l0,-2" class="g2_12" />
<path d="M887.5,813.5l0,-2" class="g2_12" />
<path fill-rule="evenodd" d="M47,1067l840,0l0,-181L47,886l0,181Z" class="g3_12" />
<g clip-path="url(#c17_12)">
<path fill-rule="evenodd" d="M55,917l825,0l0,-31L55,886l0,31Z" class="g3_12" />
<path d="M45.5,887.5l0,-1" class="g4_12" />
<path d="M45.5,887.5l0,-1" class="g4_12" />
<path d="M46.5,887.5l842,0" class="g4_12" />
<path d="M888.5,887.5l0,-1" class="g4_12" />
<path d="M888.5,887.5l0,-1" class="g4_12" />
<path d="M45.5,917.5l0,-30" class="g4_12" />
<path d="M888.5,917.5l0,-30" class="g4_12" />
</g>
<path fill-rule="evenodd" d="M55,941l825,0l0,-24L55,917l0,24Z" class="g3_12" />
<g clip-path="url(#c17_12)">
<path d="M45.5,941.5l0,-24" class="g4_12" />
<path d="M888.5,941.5l0,-24" class="g4_12" />
</g>
<path fill-rule="evenodd" d="M55,965l825,0l0,-24L55,941l0,24Z" class="g3_12" />
<g clip-path="url(#c17_12)">
<path d="M45.5,965.5l0,-24" class="g4_12" />
<path d="M888.5,965.5l0,-24" class="g4_12" />
</g>
<path fill-rule="evenodd" d="M55,989l825,0l0,-24L55,965l0,24Z" class="g3_12" />
<g clip-path="url(#c17_12)">
<path d="M45.5,989.5l0,-24" class="g4_12" />
<path d="M888.5,989.5l0,-24" class="g4_12" />
</g>
<path fill-rule="evenodd" d="M55,1012l825,0l0,-23L55,989l0,23Z" class="g3_12" />
<g clip-path="url(#c17_12)">
<path d="M45.5,1012.5l0,-23" class="g4_12" />
<path d="M888.5,1012.5l0,-23" class="g4_12" />
</g>
<path fill-rule="evenodd" d="M55,1036l825,0l0,-24l-825,0l0,24Z" class="g3_12" />
<g clip-path="url(#c17_12)">
<path d="M45.5,1036.5l0,-24" class="g4_12" />
<path d="M888.5,1036.5l0,-24" class="g4_12" />
<path fill-rule="evenodd" d="M55,1067l825,0l0,-31l-825,0l0,31Z" class="g3_12" />
<path d="M45.5,1067.5l0,-1" class="g4_12" />
<path d="M45.5,1067.5l0,-1" class="g4_12" />
<path d="M46.5,1067.5l842,0" class="g4_12" />
<path d="M888.5,1067.5l0,-1" class="g4_12" />
<path d="M888.5,1067.5l0,-1" class="g4_12" />
<path d="M45.5,1066.5l0,-30" class="g4_12" />
<path d="M888.5,1066.5l0,-30" class="g4_12" />
</g>
<path d="M46.5,886.5l0,-2" class="g2_12" />
<path d="M46.5,886.5l0,-2" class="g2_12" />
<path d="M47.5,886.5l840,0" class="g2_12" />
<path d="M887.5,886.5l0,-2" class="g2_12" />
<path d="M887.5,886.5l0,-2" class="g2_12" />
<path d="M46.5,1067.5l0,-181" class="g2_12" />
<path d="M46.5,1069.5l0,-2" class="g2_12" />
<path d="M46.5,1069.5l0,-2" class="g2_12" />
<path d="M47.5,1069.5l840,0" class="g2_12" />
<path d="M887.5,1067.5l0,-181" class="g2_12" />
<path d="M887.5,1069.5l0,-2" class="g2_12" />
<path d="M887.5,1069.5l0,-2" class="g2_12" />
</svg>