<?xml version="1.0" encoding="UTF-8" standalone="no"?>
<!DOCTYPE svg PUBLIC "-//W3C//DTD SVG 1.1//EN"
"http://www.w3.org/Graphics/SVG/1.1/DTD/svg11.dtd">
<svg version="1.1" xmlns="http://www.w3.org/2000/svg" xmlns:xlink="http://www.w3.org/1999/xlink">
<defs>
<clipPath id="c0_385"><path d="M81.5,141.5l0,-30l212,0l0,30Z" /></clipPath>
<clipPath id="c1_385"><path d="M294.5,141.5l0,-30l214,0l0,30Z" /></clipPath>
<clipPath id="c2_385"><path d="M509.5,141.5l0,-30l280,0l0,30Z" /></clipPath>
<clipPath id="c3_385"><path d="M791.5,141.5l0,-30l81,0l0,30Z" /></clipPath>
<clipPath id="c4_385"><path d="M81.5,172.5l0,-30l212,0l0,30Z" /></clipPath>
<clipPath id="c5_385"><path d="M294.5,172.5l0,-30l214,0l0,30Z" /></clipPath>
<clipPath id="c6_385"><path d="M509.5,172.5l0,-30l280,0l0,30Z" /></clipPath>
<clipPath id="c7_385"><path d="M791.5,172.5l0,-30l81,0l0,30Z" /></clipPath>
<clipPath id="c8_385"><path d="M47.5,294.5l0,-24l840,0l0,24Z" /></clipPath>
<clipPath id="c9_385"><path d="M47.5,1083.5l0,-762l846,0l0,762Z" /></clipPath>
<style type="text/css"><![CDATA[
.g2_385{
fill: none;
stroke: #7E7E7E;
stroke-width: 1;
stroke-linecap: butt;
stroke-linejoin: miter;
}
.g1_385{
fill: #F1F1F1;
}
]]></style>
</defs>
<path fill-rule="evenodd" d="M47,141l32,0l0,-30l-32,0l0,30Z" class="g1_385" />
<path fill-rule="evenodd" d="M81,141l212,0l0,-30L81,111l0,30Z" class="g1_385" />
<g clip-path="url(#c0_385)">
<path fill-rule="evenodd" d="M88,135l197,0l0,-24L88,111l0,24Z" class="g1_385" />
</g>
<path fill-rule="evenodd" d="M294,141l214,0l0,-30l-214,0l0,30Z" class="g1_385" />
<g clip-path="url(#c1_385)">
<path fill-rule="evenodd" d="M302,135l198,0l0,-24l-198,0l0,24Z" class="g1_385" />
</g>
<path fill-rule="evenodd" d="M509,141l280,0l0,-30l-280,0l0,30Z" class="g1_385" />
<g clip-path="url(#c2_385)">
<path fill-rule="evenodd" d="M517,135l265,0l0,-24l-265,0l0,24Z" class="g1_385" />
</g>
<path fill-rule="evenodd" d="M791,141l81,0l0,-30l-81,0l0,30Z" class="g1_385" />
<g clip-path="url(#c3_385)">
<path fill-rule="evenodd" d="M798,135l66,0l0,-24l-66,0l0,24Z" class="g1_385" />
</g>
<path d="M46.5,111.5l0,-1" class="g2_385" />
<path d="M46.5,111.5l0,-1" class="g2_385" />
<path d="M47.5,111.5l32,0" class="g2_385" />
<path d="M79.5,111.5l0,-1" class="g2_385" />
<path d="M81.5,111.5l212,0" class="g2_385" />
<path d="M293.5,111.5l0,-1" class="g2_385" />
<path d="M294.5,111.5l214,0" class="g2_385" />
<path d="M508.5,111.5l0,-1" class="g2_385" />
<path d="M509.5,111.5l281,0" class="g2_385" />
<path d="M790.5,111.5l0,-1" class="g2_385" />
<path d="M791.5,111.5l81,0" class="g2_385" />
<path d="M872.5,111.5l0,-1" class="g2_385" />
<path d="M872.5,111.5l0,-1" class="g2_385" />
<path d="M46.5,141.5l0,-30" class="g2_385" />
<path d="M79.5,141.5l0,-30" class="g2_385" />
<path d="M293.5,141.5l0,-30" class="g2_385" />
<path d="M508.5,141.5l0,-30" class="g2_385" />
<path d="M790.5,141.5l0,-30" class="g2_385" />
<path d="M872.5,141.5l0,-30" class="g2_385" />
<path fill-rule="evenodd" d="M47,171l32,0l0,-30l-32,0l0,30Z" class="g1_385" />
<path fill-rule="evenodd" d="M81,171l212,0l0,-29L81,142l0,29Z" class="g1_385" />
<g clip-path="url(#c4_385)">
<path fill-rule="evenodd" d="M88,166l197,0l0,-24L88,142l0,24Z" class="g1_385" />
</g>
<path fill-rule="evenodd" d="M294,171l214,0l0,-29l-214,0l0,29Z" class="g1_385" />
<g clip-path="url(#c5_385)">
<path fill-rule="evenodd" d="M302,166l198,0l0,-24l-198,0l0,24Z" class="g1_385" />
</g>
<path fill-rule="evenodd" d="M509,171l280,0l0,-29l-280,0l0,29Z" class="g1_385" />
<g clip-path="url(#c6_385)">
<path fill-rule="evenodd" d="M517,166l265,0l0,-24l-265,0l0,24Z" class="g1_385" />
</g>
<path fill-rule="evenodd" d="M791,171l81,0l0,-29l-81,0l0,29Z" class="g1_385" />
<g clip-path="url(#c7_385)">
<path fill-rule="evenodd" d="M798,166l66,0l0,-24l-66,0l0,24Z" class="g1_385" />
</g>
<path d="M46.5,142.5l0,-1" class="g2_385" />
<path d="M79.5,142.5l0,-1" class="g2_385" />
<path d="M81.5,142.5l212,0" class="g2_385" />
<path d="M293.5,142.5l0,-1" class="g2_385" />
<path d="M294.5,142.5l214,0" class="g2_385" />
<path d="M508.5,142.5l0,-1" class="g2_385" />
<path d="M509.5,142.5l281,0" class="g2_385" />
<path d="M790.5,142.5l0,-1" class="g2_385" />
<path d="M791.5,142.5l81,0" class="g2_385" />
<path d="M872.5,142.5l0,-1" class="g2_385" />
<path d="M46.5,171.5l0,-29" class="g2_385" />
<path d="M46.5,173.5l0,-2" class="g2_385" />
<path d="M46.5,173.5l0,-2" class="g2_385" />
<path d="M47.5,173.5l32,0" class="g2_385" />
<path d="M79.5,171.5l0,-29" class="g2_385" />
<path d="M79.5,173.5l0,-2" class="g2_385" />
<path d="M81.5,173.5l212,0" class="g2_385" />
<path d="M293.5,171.5l0,-29" class="g2_385" />
<path d="M293.5,173.5l0,-2" class="g2_385" />
<path d="M294.5,173.5l214,0" class="g2_385" />
<path d="M508.5,171.5l0,-29" class="g2_385" />
<path d="M508.5,173.5l0,-2" class="g2_385" />
<path d="M509.5,173.5l281,0" class="g2_385" />
<path d="M790.5,171.5l0,-29" class="g2_385" />
<path d="M790.5,173.5l0,-2" class="g2_385" />
<path d="M791.5,173.5l81,0" class="g2_385" />
<path d="M872.5,171.5l0,-29" class="g2_385" />
<path d="M872.5,173.5l0,-2" class="g2_385" />
<path d="M872.5,173.5l0,-2" class="g2_385" />
<path fill-rule="evenodd" d="M47,294l840,0l0,-24L47,270l0,24Z" class="g1_385" />
<g clip-path="url(#c8_385)">
<path fill-rule="evenodd" d="M55,294l825,0l0,-24L55,270l0,24Z" class="g1_385" />
</g>
<path d="M46.5,270.5l0,-2" class="g2_385" />
<path d="M46.5,270.5l0,-2" class="g2_385" />
<path d="M47.5,270.5l840,0" class="g2_385" />
<path d="M887.5,270.5l0,-2" class="g2_385" />
<path d="M887.5,270.5l0,-2" class="g2_385" />
<path d="M46.5,294.5l0,-24" class="g2_385" />
<path d="M46.5,295.5l0,-1" class="g2_385" />
<path d="M46.5,295.5l0,-1" class="g2_385" />
<path d="M47.5,295.5l840,0" class="g2_385" />
<path d="M887.5,294.5l0,-24" class="g2_385" />
<path d="M887.5,295.5l0,-1" class="g2_385" />
<path d="M887.5,295.5l0,-1" class="g2_385" />
<path fill-rule="evenodd" d="M47,1083l846,0l0,-762L47,321l0,762Z" class="g1_385" />
<g clip-path="url(#c9_385)">
<path fill-rule="evenodd" d="M55,344l830,0l0,-23L55,321l0,23Z" class="g1_385" />
</g>
<path fill-rule="evenodd" d="M55,368l830,0l0,-24L55,344l0,24Z" class="g1_385" />
<path fill-rule="evenodd" d="M55,392l830,0l0,-24L55,368l0,24Z" class="g1_385" />
<path fill-rule="evenodd" d="M55,416l830,0l0,-24L55,392l0,24Z" class="g1_385" />
<path fill-rule="evenodd" d="M55,440l830,0l0,-24L55,416l0,24Z" class="g1_385" />
<path fill-rule="evenodd" d="M55,464l830,0l0,-24L55,440l0,24Z" class="g1_385" />
<path fill-rule="evenodd" d="M55,487l830,0l0,-23L55,464l0,23Z" class="g1_385" />
<path fill-rule="evenodd" d="M55,511l830,0l0,-24L55,487l0,24Z" class="g1_385" />
<path fill-rule="evenodd" d="M55,535l830,0l0,-24L55,511l0,24Z" class="g1_385" />
<path fill-rule="evenodd" d="M55,559l830,0l0,-24L55,535l0,24Z" class="g1_385" />
<path fill-rule="evenodd" d="M55,583l830,0l0,-24L55,559l0,24Z" class="g1_385" />
<path fill-rule="evenodd" d="M55,607l830,0l0,-24L55,583l0,24Z" class="g1_385" />
<path fill-rule="evenodd" d="M55,630l830,0l0,-23L55,607l0,23Z" class="g1_385" />
<path fill-rule="evenodd" d="M55,654l830,0l0,-24L55,630l0,24Z" class="g1_385" />
<path fill-rule="evenodd" d="M55,678l830,0l0,-24L55,654l0,24Z" class="g1_385" />
<path fill-rule="evenodd" d="M55,702l830,0l0,-24L55,678l0,24Z" class="g1_385" />
<path fill-rule="evenodd" d="M55,726l830,0l0,-24L55,702l0,24Z" class="g1_385" />
<path fill-rule="evenodd" d="M55,750l830,0l0,-24L55,726l0,24Z" class="g1_385" />
<path fill-rule="evenodd" d="M55,773l830,0l0,-23L55,750l0,23Z" class="g1_385" />
<path fill-rule="evenodd" d="M55,797l830,0l0,-24L55,773l0,24Z" class="g1_385" />
<path fill-rule="evenodd" d="M55,821l830,0l0,-24L55,797l0,24Z" class="g1_385" />
<path fill-rule="evenodd" d="M55,845l830,0l0,-24L55,821l0,24Z" class="g1_385" />
<path fill-rule="evenodd" d="M55,869l830,0l0,-24L55,845l0,24Z" class="g1_385" />
<path fill-rule="evenodd" d="M55,893l830,0l0,-24L55,869l0,24Z" class="g1_385" />
<path fill-rule="evenodd" d="M55,916l830,0l0,-23L55,893l0,23Z" class="g1_385" />
<path fill-rule="evenodd" d="M55,940l830,0l0,-24L55,916l0,24Z" class="g1_385" />
<path fill-rule="evenodd" d="M55,964l830,0l0,-24L55,940l0,24Z" class="g1_385" />
<path fill-rule="evenodd" d="M55,988l830,0l0,-24L55,964l0,24Z" class="g1_385" />
<path fill-rule="evenodd" d="M55,1012l830,0l0,-24L55,988l0,24Z" class="g1_385" />
<path fill-rule="evenodd" d="M55,1036l830,0l0,-24l-830,0l0,24Z" class="g1_385" />
<path fill-rule="evenodd" d="M55,1059l830,0l0,-23l-830,0l0,23Z" class="g1_385" />
<g clip-path="url(#c9_385)">
<path fill-rule="evenodd" d="M55,1083l830,0l0,-24l-830,0l0,24Z" class="g1_385" />
</g>
<path d="M46.5,320.5l0,-1" class="g2_385" />
<path d="M46.5,320.5l0,-1" class="g2_385" />
<path d="M47.5,320.5l846,0" class="g2_385" />
<path d="M893.5,320.5l0,-1" class="g2_385" />
<path d="M893.5,320.5l0,-1" class="g2_385" />
<path d="M46.5,1083.5l0,-763" class="g2_385" />
<path d="M46.5,1085.5l0,-2" class="g2_385" />
<path d="M46.5,1085.5l0,-2" class="g2_385" />
<path d="M47.5,1085.5l846,0" class="g2_385" />
<path d="M893.5,1083.5l0,-763" class="g2_385" />
<path d="M893.5,1085.5l0,-2" class="g2_385" />
<path d="M893.5,1085.5l0,-2" class="g2_385" />
</svg>