<?xml version="1.0" encoding="UTF-8" standalone="no"?>
<!DOCTYPE svg PUBLIC "-//W3C//DTD SVG 1.1//EN"
"http://www.w3.org/Graphics/SVG/1.1/DTD/svg11.dtd">
<svg version="1.1" xmlns="http://www.w3.org/2000/svg" xmlns:xlink="http://www.w3.org/1999/xlink">
<defs>
<clipPath id="c0_439"><path d="M47.5,135.5l0,-24l840,0l0,24Z" /></clipPath>
<clipPath id="c1_439"><path d="M47.5,673.5l0,-24l177,0l0,24Z" /></clipPath>
<clipPath id="c2_439"><path d="M226.5,673.5l0,-24l162,0l0,24Z" /></clipPath>
<clipPath id="c3_439"><path d="M390.5,673.5l0,-24l163,0l0,24Z" /></clipPath>
<clipPath id="c4_439"><path d="M554.5,673.5l0,-24l163,0l0,24Z" /></clipPath>
<clipPath id="c5_439"><path d="M719.5,673.5l0,-24l168,0l0,24Z" /></clipPath>
<clipPath id="c6_439"><path d="M47.5,699.5l0,-24l177,0l0,24Z" /></clipPath>
<clipPath id="c7_439"><path d="M226.5,699.5l0,-24l162,0l0,24Z" /></clipPath>
<clipPath id="c8_439"><path d="M390.5,699.5l0,-24l163,0l0,24Z" /></clipPath>
<clipPath id="c9_439"><path d="M554.5,699.5l0,-24l163,0l0,24Z" /></clipPath>
<clipPath id="c10_439"><path d="M719.5,699.5l0,-24l168,0l0,24Z" /></clipPath>
<clipPath id="c11_439"><path d="M47.5,1073.5l0,-120l840,0l0,120Z" /></clipPath>
<style type="text/css"><![CDATA[
.g2_439{
fill: none;
stroke: #7E7E7E;
stroke-width: 1;
stroke-linecap: butt;
stroke-linejoin: miter;
}
.g3_439{
fill: none;
stroke: #0000FF;
stroke-width: 1;
stroke-linecap: butt;
stroke-linejoin: miter;
}
.g4_439{
fill: #DBE5F1;
}
.g1_439{
fill: #F1F1F1;
}
]]></style>
</defs>
<path fill-rule="evenodd" d="M47,135l840,0l0,-24L47,111l0,24Z" class="g1_439" />
<g clip-path="url(#c0_439)">
<path fill-rule="evenodd" d="M55,135l825,0l0,-24L55,111l0,24Z" class="g1_439" />
</g>
<path d="M46.5,111.5l0,-1" class="g2_439" />
<path d="M46.5,111.5l0,-1" class="g2_439" />
<path d="M47.5,111.5l840,0" class="g2_439" />
<path d="M887.5,111.5l0,-1" class="g2_439" />
<path d="M887.5,111.5l0,-1" class="g2_439" />
<path d="M46.5,135.5l0,-24" class="g2_439" />
<path d="M46.5,136.5l0,-1" class="g2_439" />
<path d="M46.5,136.5l0,-1" class="g2_439" />
<path d="M47.5,136.5l840,0" class="g2_439" />
<path d="M887.5,135.5l0,-24" class="g2_439" />
<path d="M887.5,136.5l0,-1" class="g2_439" />
<path d="M887.5,136.5l0,-1" class="g2_439" />
<path d="M371.5,240.5l163,0" class="g3_439" />
<path fill-rule="evenodd" d="M47,490l840,0l0,-24L47,466l0,24Z" class="g1_439" />
<path fill-rule="evenodd" d="M55,490l825,0l0,-24L55,466l0,24Z" class="g1_439" />
<path d="M46.5,466.5l0,-1" class="g2_439" />
<path d="M46.5,466.5l0,-1" class="g2_439" />
<path d="M47.5,466.5l840,0" class="g2_439" />
<path d="M887.5,466.5l0,-1" class="g2_439" />
<path d="M887.5,466.5l0,-1" class="g2_439" />
<path d="M46.5,490.5l0,-24" class="g2_439" />
<path d="M46.5,492.5l0,-2" class="g2_439" />
<path d="M46.5,492.5l0,-2" class="g2_439" />
<path d="M47.5,492.5l840,0" class="g2_439" />
<path d="M887.5,490.5l0,-24" class="g2_439" />
<path d="M887.5,492.5l0,-2" class="g2_439" />
<path d="M887.5,492.5l0,-2" class="g2_439" />
<path fill-rule="evenodd" d="M47,573l178,0l0,-23L47,550l0,23Z" class="g4_439" />
<path fill-rule="evenodd" d="M55,573l163,0l0,-23L55,550l0,23Z" class="g4_439" />
<path fill-rule="evenodd" d="M226,573l163,0l0,-23l-163,0l0,23Z" class="g4_439" />
<path fill-rule="evenodd" d="M234,573l148,0l0,-23l-148,0l0,23Z" class="g4_439" />
<path fill-rule="evenodd" d="M391,573l496,0l0,-23l-496,0l0,23Z" class="g4_439" />
<path fill-rule="evenodd" d="M398,573l482,0l0,-23l-482,0l0,23Z" class="g4_439" />
<path d="M46.5,550.5l0,-2" class="g2_439" />
<path d="M46.5,550.5l0,-2" class="g2_439" />
<path d="M47.5,550.5l178,0" class="g2_439" />
<path d="M225.5,550.5l0,-2" class="g2_439" />
<path d="M226.5,550.5l163,0" class="g2_439" />
<path d="M389.5,550.5l0,-2" class="g2_439" />
<path d="M391.5,550.5l496,0" class="g2_439" />
<path d="M887.5,550.5l0,-2" class="g2_439" />
<path d="M887.5,550.5l0,-2" class="g2_439" />
<path d="M46.5,573.5l0,-23" class="g2_439" />
<path d="M225.5,573.5l0,-23" class="g2_439" />
<path d="M389.5,573.5l0,-23" class="g2_439" />
<path d="M887.5,573.5l0,-23" class="g2_439" />
<path fill-rule="evenodd" d="M47,599l178,0l0,-24L47,575l0,24Z" class="g1_439" />
<path fill-rule="evenodd" d="M55,599l163,0l0,-24L55,575l0,24Z" class="g1_439" />
<path fill-rule="evenodd" d="M226,599l163,0l0,-24l-163,0l0,24Z" class="g1_439" />
<path fill-rule="evenodd" d="M234,599l148,0l0,-24l-148,0l0,24Z" class="g1_439" />
<path fill-rule="evenodd" d="M391,599l496,0l0,-24l-496,0l0,24Z" class="g1_439" />
<path fill-rule="evenodd" d="M398,599l482,0l0,-24l-482,0l0,24Z" class="g1_439" />
<path d="M46.5,575.5l0,-2" class="g2_439" />
<path d="M47.5,575.5l178,0" class="g2_439" />
<path d="M225.5,575.5l0,-2" class="g2_439" />
<path d="M226.5,575.5l163,0" class="g2_439" />
<path d="M389.5,575.5l0,-2" class="g2_439" />
<path d="M391.5,575.5l496,0" class="g2_439" />
<path d="M887.5,575.5l0,-2" class="g2_439" />
<path d="M46.5,599.5l0,-24" class="g2_439" />
<path d="M46.5,600.5l0,-1" class="g2_439" />
<path d="M46.5,600.5l0,-1" class="g2_439" />
<path d="M47.5,600.5l178,0" class="g2_439" />
<path d="M225.5,599.5l0,-24" class="g2_439" />
<path d="M225.5,600.5l0,-1" class="g2_439" />
<path d="M226.5,600.5l163,0" class="g2_439" />
<path d="M389.5,599.5l0,-24" class="g2_439" />
<path d="M389.5,600.5l0,-1" class="g2_439" />
<path d="M391.5,600.5l496,0" class="g2_439" />
<path d="M887.5,599.5l0,-24" class="g2_439" />
<path d="M887.5,600.5l0,-1" class="g2_439" />
<path d="M887.5,600.5l0,-1" class="g2_439" />
<path fill-rule="evenodd" d="M47,673l177,0l0,-24L47,649l0,24Z" class="g4_439" />
<g clip-path="url(#c1_439)">
<path fill-rule="evenodd" d="M55,673l162,0l0,-24L55,649l0,24Z" class="g4_439" />
</g>
<path fill-rule="evenodd" d="M226,673l162,0l0,-24l-162,0l0,24Z" class="g4_439" />
<g clip-path="url(#c2_439)">
<path fill-rule="evenodd" d="M233,673l148,0l0,-24l-148,0l0,24Z" class="g4_439" />
</g>
<path fill-rule="evenodd" d="M390,673l163,0l0,-24l-163,0l0,24Z" class="g4_439" />
<g clip-path="url(#c3_439)">
<path fill-rule="evenodd" d="M397,673l148,0l0,-24l-148,0l0,24Z" class="g4_439" />
</g>
<path fill-rule="evenodd" d="M554,673l163,0l0,-24l-163,0l0,24Z" class="g4_439" />
<g clip-path="url(#c4_439)">
<path fill-rule="evenodd" d="M562,673l148,0l0,-24l-148,0l0,24Z" class="g4_439" />
</g>
<path fill-rule="evenodd" d="M719,673l168,0l0,-24l-168,0l0,24Z" class="g4_439" />
<g clip-path="url(#c5_439)">
<path fill-rule="evenodd" d="M726,673l154,0l0,-24l-154,0l0,24Z" class="g4_439" />
</g>
<path d="M46.5,649.5l0,-1" class="g2_439" />
<path d="M46.5,649.5l0,-1" class="g2_439" />
<path d="M47.5,649.5l177,0" class="g2_439" />
<path d="M224.5,649.5l0,-1" class="g2_439" />
<path d="M226.5,649.5l162,0" class="g2_439" />
<path d="M388.5,649.5l0,-1" class="g2_439" />
<path d="M390.5,649.5l163,0" class="g2_439" />
<path d="M553.5,649.5l0,-1" class="g2_439" />
<path d="M554.5,649.5l163,0" class="g2_439" />
<path d="M717.5,649.5l0,-1" class="g2_439" />
<path d="M719.5,649.5l168,0" class="g2_439" />
<path d="M887.5,649.5l0,-1" class="g2_439" />
<path d="M887.5,649.5l0,-1" class="g2_439" />
<path d="M46.5,673.5l0,-24" class="g2_439" />
<path d="M224.5,673.5l0,-24" class="g2_439" />
<path d="M388.5,673.5l0,-24" class="g2_439" />
<path d="M553.5,673.5l0,-24" class="g2_439" />
<path d="M717.5,673.5l0,-24" class="g2_439" />
<path d="M887.5,673.5l0,-24" class="g2_439" />
<path fill-rule="evenodd" d="M47,699l177,0l0,-24L47,675l0,24Z" class="g1_439" />
<g clip-path="url(#c6_439)">
<path fill-rule="evenodd" d="M55,699l162,0l0,-24L55,675l0,24Z" class="g1_439" />
</g>
<path fill-rule="evenodd" d="M226,699l162,0l0,-24l-162,0l0,24Z" class="g1_439" />
<g clip-path="url(#c7_439)">
<path fill-rule="evenodd" d="M233,699l148,0l0,-24l-148,0l0,24Z" class="g1_439" />
</g>
<path fill-rule="evenodd" d="M390,699l163,0l0,-24l-163,0l0,24Z" class="g1_439" />
<g clip-path="url(#c8_439)">
<path fill-rule="evenodd" d="M397,699l148,0l0,-24l-148,0l0,24Z" class="g1_439" />
</g>
<path fill-rule="evenodd" d="M554,699l163,0l0,-24l-163,0l0,24Z" class="g1_439" />
<g clip-path="url(#c9_439)">
<path fill-rule="evenodd" d="M562,699l148,0l0,-24l-148,0l0,24Z" class="g1_439" />
</g>
<path fill-rule="evenodd" d="M719,699l168,0l0,-24l-168,0l0,24Z" class="g1_439" />
<g clip-path="url(#c10_439)">
<path fill-rule="evenodd" d="M726,699l154,0l0,-24l-154,0l0,24Z" class="g1_439" />
</g>
<path d="M46.5,675.5l0,-2" class="g2_439" />
<path d="M47.5,675.5l177,0" class="g2_439" />
<path d="M224.5,675.5l0,-2" class="g2_439" />
<path d="M226.5,675.5l162,0" class="g2_439" />
<path d="M388.5,675.5l0,-2" class="g2_439" />
<path d="M390.5,675.5l163,0" class="g2_439" />
<path d="M553.5,675.5l0,-2" class="g2_439" />
<path d="M554.5,675.5l163,0" class="g2_439" />
<path d="M717.5,675.5l0,-2" class="g2_439" />
<path d="M719.5,675.5l168,0" class="g2_439" />
<path d="M887.5,675.5l0,-2" class="g2_439" />
<path d="M46.5,699.5l0,-24" class="g2_439" />
<path d="M46.5,700.5l0,-1" class="g2_439" />
<path d="M46.5,700.5l0,-1" class="g2_439" />
<path d="M47.5,700.5l177,0" class="g2_439" />
<path d="M224.5,699.5l0,-24" class="g2_439" />
<path d="M224.5,700.5l0,-1" class="g2_439" />
<path d="M226.5,700.5l162,0" class="g2_439" />
<path d="M388.5,699.5l0,-24" class="g2_439" />
<path d="M388.5,700.5l0,-1" class="g2_439" />
<path d="M390.5,700.5l163,0" class="g2_439" />
<path d="M553.5,699.5l0,-24" class="g2_439" />
<path d="M553.5,700.5l0,-1" class="g2_439" />
<path d="M554.5,700.5l163,0" class="g2_439" />
<path d="M717.5,699.5l0,-24" class="g2_439" />
<path d="M717.5,700.5l0,-1" class="g2_439" />
<path d="M719.5,700.5l168,0" class="g2_439" />
<path d="M887.5,699.5l0,-24" class="g2_439" />
<path d="M887.5,700.5l0,-1" class="g2_439" />
<path d="M887.5,700.5l0,-1" class="g2_439" />
<path fill-rule="evenodd" d="M47,1073l840,0l0,-120L47,953l0,120Z" class="g1_439" />
<path fill-rule="evenodd" d="M55,977l825,0l0,-24L55,953l0,24Z" class="g1_439" />
<path fill-rule="evenodd" d="M55,1001l825,0l0,-24L55,977l0,24Z" class="g1_439" />
<path fill-rule="evenodd" d="M55,1025l825,0l0,-24l-825,0l0,24Z" class="g1_439" />
<path fill-rule="evenodd" d="M55,1049l825,0l0,-24l-825,0l0,24Z" class="g1_439" />
<g clip-path="url(#c11_439)">
<path fill-rule="evenodd" d="M55,1073l825,0l0,-24l-825,0l0,24Z" class="g1_439" />
</g>
<path d="M46.5,953.5l0,-1" class="g2_439" />
<path d="M46.5,953.5l0,-1" class="g2_439" />
<path d="M47.5,953.5l840,0" class="g2_439" />
<path d="M887.5,953.5l0,-1" class="g2_439" />
<path d="M887.5,953.5l0,-1" class="g2_439" />
<path d="M46.5,1073.5l0,-120" class="g2_439" />
<path d="M46.5,1074.5l0,-1" class="g2_439" />
<path d="M46.5,1074.5l0,-1" class="g2_439" />
<path d="M47.5,1074.5l840,0" class="g2_439" />
<path d="M887.5,1073.5l0,-120" class="g2_439" />
<path d="M887.5,1074.5l0,-1" class="g2_439" />
<path d="M887.5,1074.5l0,-1" class="g2_439" />
</svg>