<?xml version="1.0" encoding="UTF-8" standalone="no"?>
<!DOCTYPE svg PUBLIC "-//W3C//DTD SVG 1.1//EN"
"http://www.w3.org/Graphics/SVG/1.1/DTD/svg11.dtd">
<svg version="1.1" xmlns="http://www.w3.org/2000/svg" xmlns:xlink="http://www.w3.org/1999/xlink">
<defs>
<clipPath id="c0_328"><path d="M292.5,397.5l0,-286l187,0l0,286Z" /></clipPath>
<clipPath id="c1_328"><path d="M481.5,397.5l0,-286l73,0l0,286Z" /></clipPath>
<clipPath id="c2_328"><path d="M555.5,397.5l0,-286l332,0l0,286Z" /></clipPath>
<clipPath id="c3_328"><path d="M47.5,713.5l0,-27l39,0l0,27Z" /></clipPath>
<clipPath id="c4_328"><path d="M88.5,713.5l0,-27l391,0l0,27Z" /></clipPath>
<clipPath id="c5_328"><path d="M481.5,713.5l0,-27l73,0l0,27Z" /></clipPath>
<clipPath id="c6_328"><path d="M555.5,713.5l0,-27l332,0l0,27Z" /></clipPath>
<clipPath id="c7_328"><path d="M47.5,742.5l0,-27l39,0l0,27Z" /></clipPath>
<clipPath id="c8_328"><path d="M88.5,742.5l0,-27l391,0l0,27Z" /></clipPath>
<clipPath id="c9_328"><path d="M481.5,742.5l0,-27l73,0l0,27Z" /></clipPath>
<clipPath id="c10_328"><path d="M555.5,742.5l0,-27l332,0l0,27Z" /></clipPath>
<clipPath id="c11_328"><path d="M47.5,864.5l0,-24l840,0l0,24Z" /></clipPath>
<clipPath id="c12_328"><path d="M47.5,1081.5l0,-167l840,0l0,167Z" /></clipPath>
<style type="text/css"><![CDATA[
.g2_328{
fill: none;
stroke: #7E7E7E;
stroke-width: 1;
stroke-linecap: butt;
stroke-linejoin: miter;
}
.g1_328{
fill: #F1F1F1;
}
]]></style>
</defs>
<path fill-rule="evenodd" d="M47,397l39,0L86,111l-39,0l0,286Z" class="g1_328" />
<path fill-rule="evenodd" d="M88,397l39,0l0,-286l-39,0l0,286Z" class="g1_328" />
<path fill-rule="evenodd" d="M129,397l39,0l0,-286l-39,0l0,286Z" class="g1_328" />
<path fill-rule="evenodd" d="M169,397l40,0l0,-286l-40,0l0,286Z" class="g1_328" />
<path fill-rule="evenodd" d="M210,397l39,0l0,-286l-39,0l0,286Z" class="g1_328" />
<path fill-rule="evenodd" d="M251,397l39,0l0,-286l-39,0l0,286Z" class="g1_328" />
<path fill-rule="evenodd" d="M292,397l187,0l0,-286l-187,0l0,286Z" class="g1_328" />
<g clip-path="url(#c0_328)">
<path fill-rule="evenodd" d="M299,135l173,0l0,-24l-173,0l0,24Z" class="g1_328" />
</g>
<path fill-rule="evenodd" d="M481,397l73,0l0,-286l-73,0l0,286Z" class="g1_328" />
<g clip-path="url(#c1_328)">
<path fill-rule="evenodd" d="M488,135l58,0l0,-24l-58,0l0,24Z" class="g1_328" />
</g>
<path fill-rule="evenodd" d="M555,397l332,0l0,-286l-332,0l0,286Z" class="g1_328" />
<g clip-path="url(#c2_328)">
<path fill-rule="evenodd" d="M563,135l317,0l0,-24l-317,0l0,24Z" class="g1_328" />
</g>
<path fill-rule="evenodd" d="M563,159l317,0l0,-24l-317,0l0,24Z" class="g1_328" />
<path fill-rule="evenodd" d="M563,182l317,0l0,-23l-317,0l0,23Z" class="g1_328" />
<path fill-rule="evenodd" d="M563,206l317,0l0,-24l-317,0l0,24Z" class="g1_328" />
<path fill-rule="evenodd" d="M563,230l317,0l0,-24l-317,0l0,24Z" class="g1_328" />
<path fill-rule="evenodd" d="M563,254l317,0l0,-24l-317,0l0,24Z" class="g1_328" />
<path fill-rule="evenodd" d="M563,278l317,0l0,-24l-317,0l0,24Z" class="g1_328" />
<path fill-rule="evenodd" d="M563,302l317,0l0,-24l-317,0l0,24Z" class="g1_328" />
<path fill-rule="evenodd" d="M563,325l317,0l0,-23l-317,0l0,23Z" class="g1_328" />
<path fill-rule="evenodd" d="M563,349l317,0l0,-24l-317,0l0,24Z" class="g1_328" />
<path fill-rule="evenodd" d="M563,373l317,0l0,-24l-317,0l0,24Z" class="g1_328" />
<path fill-rule="evenodd" d="M563,397l317,0l0,-24l-317,0l0,24Z" class="g1_328" />
<path d="M46.5,111.5l0,-1" class="g2_328" />
<path d="M46.5,111.5l0,-1" class="g2_328" />
<path d="M47.5,111.5l39,0" class="g2_328" />
<path d="M86.5,111.5l0,-1" class="g2_328" />
<path d="M88.5,111.5l39,0" class="g2_328" />
<path d="M127.5,111.5l0,-1" class="g2_328" />
<path d="M129.5,111.5l39,0" class="g2_328" />
<path d="M168.5,111.5l0,-1" class="g2_328" />
<path d="M169.5,111.5l40,0" class="g2_328" />
<path d="M209.5,111.5l0,-1" class="g2_328" />
<path d="M210.5,111.5l40,0" class="g2_328" />
<path d="M250.5,111.5l0,-1" class="g2_328" />
<path d="M251.5,111.5l39,0" class="g2_328" />
<path d="M290.5,111.5l0,-1" class="g2_328" />
<path d="M292.5,111.5l187,0" class="g2_328" />
<path d="M479.5,111.5l0,-1" class="g2_328" />
<path d="M481.5,111.5l73,0" class="g2_328" />
<path d="M554.5,111.5l0,-1" class="g2_328" />
<path d="M555.5,111.5l332,0" class="g2_328" />
<path d="M887.5,111.5l0,-1" class="g2_328" />
<path d="M887.5,111.5l0,-1" class="g2_328" />
<path d="M46.5,397.5l0,-286" class="g2_328" />
<path d="M86.5,397.5l0,-286" class="g2_328" />
<path d="M127.5,397.5l0,-286" class="g2_328" />
<path d="M168.5,397.5l0,-286" class="g2_328" />
<path d="M209.5,397.5l0,-286" class="g2_328" />
<path d="M250.5,397.5l0,-286" class="g2_328" />
<path d="M290.5,397.5l0,-286" class="g2_328" />
<path d="M479.5,397.5l0,-286" class="g2_328" />
<path d="M554.5,397.5l0,-286" class="g2_328" />
<path d="M887.5,397.5l0,-286" class="g2_328" />
<path fill-rule="evenodd" d="M47,685l39,0L86,397l-39,0l0,288Z" class="g1_328" />
<path fill-rule="evenodd" d="M88,685l39,0l0,-288l-39,0l0,288Z" class="g1_328" />
<path fill-rule="evenodd" d="M129,685l39,0l0,-288l-39,0l0,288Z" class="g1_328" />
<path fill-rule="evenodd" d="M169,685l40,0l0,-288l-40,0l0,288Z" class="g1_328" />
<path fill-rule="evenodd" d="M210,685l39,0l0,-288l-39,0l0,288Z" class="g1_328" />
<path fill-rule="evenodd" d="M251,685l39,0l0,-288l-39,0l0,288Z" class="g1_328" />
<path fill-rule="evenodd" d="M292,685l187,0l0,-286l-187,0l0,286Z" class="g1_328" />
<path fill-rule="evenodd" d="M299,423l173,0l0,-24l-173,0l0,24Z" class="g1_328" />
<path fill-rule="evenodd" d="M481,685l73,0l0,-286l-73,0l0,286Z" class="g1_328" />
<path fill-rule="evenodd" d="M488,423l58,0l0,-24l-58,0l0,24Z" class="g1_328" />
<path fill-rule="evenodd" d="M555,685l332,0l0,-286l-332,0l0,286Z" class="g1_328" />
<path fill-rule="evenodd" d="M563,423l317,0l0,-24l-317,0l0,24Z" class="g1_328" />
<path fill-rule="evenodd" d="M563,446l317,0l0,-23l-317,0l0,23Z" class="g1_328" />
<path fill-rule="evenodd" d="M563,470l317,0l0,-24l-317,0l0,24Z" class="g1_328" />
<path fill-rule="evenodd" d="M563,494l317,0l0,-24l-317,0l0,24Z" class="g1_328" />
<path fill-rule="evenodd" d="M563,518l317,0l0,-24l-317,0l0,24Z" class="g1_328" />
<path fill-rule="evenodd" d="M563,542l317,0l0,-24l-317,0l0,24Z" class="g1_328" />
<path fill-rule="evenodd" d="M563,566l317,0l0,-24l-317,0l0,24Z" class="g1_328" />
<path fill-rule="evenodd" d="M563,589l317,0l0,-23l-317,0l0,23Z" class="g1_328" />
<path fill-rule="evenodd" d="M563,613l317,0l0,-24l-317,0l0,24Z" class="g1_328" />
<path fill-rule="evenodd" d="M563,637l317,0l0,-24l-317,0l0,24Z" class="g1_328" />
<path fill-rule="evenodd" d="M563,661l317,0l0,-24l-317,0l0,24Z" class="g1_328" />
<path fill-rule="evenodd" d="M563,685l317,0l0,-24l-317,0l0,24Z" class="g1_328" />
<path d="M46.5,399.5l0,-2" class="g2_328" />
<path d="M86.5,399.5l0,-2" class="g2_328" />
<path d="M127.5,399.5l0,-2" class="g2_328" />
<path d="M168.5,399.5l0,-2" class="g2_328" />
<path d="M209.5,399.5l0,-2" class="g2_328" />
<path d="M250.5,399.5l0,-2" class="g2_328" />
<path d="M290.5,399.5l0,-2" class="g2_328" />
<path d="M292.5,399.5l187,0" class="g2_328" />
<path d="M479.5,399.5l0,-2" class="g2_328" />
<path d="M481.5,399.5l73,0" class="g2_328" />
<path d="M554.5,399.5l0,-2" class="g2_328" />
<path d="M555.5,399.5l332,0" class="g2_328" />
<path d="M887.5,399.5l0,-2" class="g2_328" />
<path d="M46.5,685.5l0,-286" class="g2_328" />
<path d="M86.5,685.5l0,-286" class="g2_328" />
<path d="M127.5,685.5l0,-286" class="g2_328" />
<path d="M168.5,685.5l0,-286" class="g2_328" />
<path d="M209.5,685.5l0,-286" class="g2_328" />
<path d="M250.5,685.5l0,-286" class="g2_328" />
<path d="M290.5,685.5l0,-286" class="g2_328" />
<path d="M479.5,685.5l0,-286" class="g2_328" />
<path d="M554.5,685.5l0,-286" class="g2_328" />
<path d="M887.5,685.5l0,-286" class="g2_328" />
<path fill-rule="evenodd" d="M47,713l39,0l0,-27l-39,0l0,27Z" class="g1_328" />
<g clip-path="url(#c3_328)">
<path fill-rule="evenodd" d="M55,713l23,0l0,-27l-23,0l0,27Z" class="g1_328" />
</g>
<path fill-rule="evenodd" d="M88,713l391,0l0,-27L88,686l0,27Z" class="g1_328" />
<g clip-path="url(#c4_328)">
<path fill-rule="evenodd" d="M95,710l377,0l0,-24L95,686l0,24Z" class="g1_328" />
</g>
<path fill-rule="evenodd" d="M481,713l73,0l0,-27l-73,0l0,27Z" class="g1_328" />
<g clip-path="url(#c5_328)">
<path fill-rule="evenodd" d="M488,710l58,0l0,-24l-58,0l0,24Z" class="g1_328" />
</g>
<path fill-rule="evenodd" d="M555,713l332,0l0,-27l-332,0l0,27Z" class="g1_328" />
<g clip-path="url(#c6_328)">
<path fill-rule="evenodd" d="M563,710l317,0l0,-24l-317,0l0,24Z" class="g1_328" />
</g>
<path d="M46.5,686.5l0,-1" class="g2_328" />
<path d="M47.5,686.5l39,0" class="g2_328" />
<path d="M86.5,686.5l0,-1" class="g2_328" />
<path d="M88.5,686.5l39,0" class="g2_328" />
<path d="M127.5,686.5l0,-1" class="g2_328" />
<path d="M129.5,686.5l39,0" class="g2_328" />
<path d="M168.5,686.5l0,-1" class="g2_328" />
<path d="M169.5,686.5l40,0" class="g2_328" />
<path d="M209.5,686.5l0,-1" class="g2_328" />
<path d="M210.5,686.5l40,0" class="g2_328" />
<path d="M250.5,686.5l0,-1" class="g2_328" />
<path d="M251.5,686.5l39,0" class="g2_328" />
<path d="M290.5,686.5l0,-1" class="g2_328" />
<path d="M292.5,686.5l187,0" class="g2_328" />
<path d="M479.5,686.5l0,-1" class="g2_328" />
<path d="M481.5,686.5l73,0" class="g2_328" />
<path d="M554.5,686.5l0,-1" class="g2_328" />
<path d="M555.5,686.5l332,0" class="g2_328" />
<path d="M887.5,686.5l0,-1" class="g2_328" />
<path d="M46.5,713.5l0,-27" class="g2_328" />
<path d="M86.5,713.5l0,-27" class="g2_328" />
<path d="M479.5,713.5l0,-27" class="g2_328" />
<path d="M554.5,713.5l0,-27" class="g2_328" />
<path d="M887.5,713.5l0,-27" class="g2_328" />
<path fill-rule="evenodd" d="M47,742l39,0l0,-27l-39,0l0,27Z" class="g1_328" />
<g clip-path="url(#c7_328)">
<path fill-rule="evenodd" d="M55,742l23,0l0,-27l-23,0l0,27Z" class="g1_328" />
</g>
<path fill-rule="evenodd" d="M88,742l391,0l0,-27L88,715l0,27Z" class="g1_328" />
<g clip-path="url(#c8_328)">
<path fill-rule="evenodd" d="M95,738l377,0l0,-23L95,715l0,23Z" class="g1_328" />
</g>
<path fill-rule="evenodd" d="M481,742l73,0l0,-27l-73,0l0,27Z" class="g1_328" />
<g clip-path="url(#c9_328)">
<path fill-rule="evenodd" d="M488,738l58,0l0,-23l-58,0l0,23Z" class="g1_328" />
</g>
<path fill-rule="evenodd" d="M555,742l332,0l0,-27l-332,0l0,27Z" class="g1_328" />
<g clip-path="url(#c10_328)">
<path fill-rule="evenodd" d="M563,738l317,0l0,-23l-317,0l0,23Z" class="g1_328" />
</g>
<path d="M46.5,715.5l0,-2" class="g2_328" />
<path d="M47.5,715.5l39,0" class="g2_328" />
<path d="M86.5,715.5l0,-2" class="g2_328" />
<path d="M88.5,715.5l391,0" class="g2_328" />
<path d="M479.5,715.5l0,-2" class="g2_328" />
<path d="M481.5,715.5l73,0" class="g2_328" />
<path d="M554.5,715.5l0,-2" class="g2_328" />
<path d="M555.5,715.5l332,0" class="g2_328" />
<path d="M887.5,715.5l0,-2" class="g2_328" />
<path d="M46.5,742.5l0,-27" class="g2_328" />
<path d="M46.5,743.5l0,-1" class="g2_328" />
<path d="M46.5,743.5l0,-1" class="g2_328" />
<path d="M47.5,743.5l39,0" class="g2_328" />
<path d="M86.5,742.5l0,-27" class="g2_328" />
<path d="M86.5,743.5l0,-1" class="g2_328" />
<path d="M88.5,743.5l391,0" class="g2_328" />
<path d="M479.5,742.5l0,-27" class="g2_328" />
<path d="M479.5,743.5l0,-1" class="g2_328" />
<path d="M481.5,743.5l73,0" class="g2_328" />
<path d="M554.5,742.5l0,-27" class="g2_328" />
<path d="M554.5,743.5l0,-1" class="g2_328" />
<path d="M555.5,743.5l332,0" class="g2_328" />
<path d="M887.5,742.5l0,-27" class="g2_328" />
<path d="M887.5,743.5l0,-1" class="g2_328" />
<path d="M887.5,743.5l0,-1" class="g2_328" />
<path fill-rule="evenodd" d="M47,864l840,0l0,-24L47,840l0,24Z" class="g1_328" />
<g clip-path="url(#c11_328)">
<path fill-rule="evenodd" d="M55,864l825,0l0,-24L55,840l0,24Z" class="g1_328" />
</g>
<path d="M46.5,840.5l0,-2" class="g2_328" />
<path d="M46.5,840.5l0,-2" class="g2_328" />
<path d="M47.5,840.5l840,0" class="g2_328" />
<path d="M887.5,840.5l0,-2" class="g2_328" />
<path d="M887.5,840.5l0,-2" class="g2_328" />
<path d="M46.5,864.5l0,-24" class="g2_328" />
<path d="M46.5,865.5l0,-1" class="g2_328" />
<path d="M46.5,865.5l0,-1" class="g2_328" />
<path d="M47.5,865.5l840,0" class="g2_328" />
<path d="M887.5,864.5l0,-24" class="g2_328" />
<path d="M887.5,865.5l0,-1" class="g2_328" />
<path d="M887.5,865.5l0,-1" class="g2_328" />
<path fill-rule="evenodd" d="M47,1081l840,0l0,-167L47,914l0,167Z" class="g1_328" />
<path fill-rule="evenodd" d="M55,938l825,0l0,-24L55,914l0,24Z" class="g1_328" />
<path fill-rule="evenodd" d="M55,962l825,0l0,-24L55,938l0,24Z" class="g1_328" />
<path fill-rule="evenodd" d="M55,986l825,0l0,-24L55,962l0,24Z" class="g1_328" />
<path fill-rule="evenodd" d="M55,1010l825,0l0,-24L55,986l0,24Z" class="g1_328" />
<path fill-rule="evenodd" d="M55,1034l825,0l0,-24l-825,0l0,24Z" class="g1_328" />
<path fill-rule="evenodd" d="M55,1057l825,0l0,-23l-825,0l0,23Z" class="g1_328" />
<g clip-path="url(#c12_328)">
<path fill-rule="evenodd" d="M55,1081l825,0l0,-24l-825,0l0,24Z" class="g1_328" />
</g>
<path d="M46.5,914.5l0,-1" class="g2_328" />
<path d="M46.5,914.5l0,-1" class="g2_328" />
<path d="M47.5,914.5l840,0" class="g2_328" />
<path d="M887.5,914.5l0,-1" class="g2_328" />
<path d="M887.5,914.5l0,-1" class="g2_328" />
<path d="M46.5,1081.5l0,-167" class="g2_328" />
<path d="M46.5,1083.5l0,-2" class="g2_328" />
<path d="M46.5,1083.5l0,-2" class="g2_328" />
<path d="M47.5,1083.5l840,0" class="g2_328" />
<path d="M887.5,1081.5l0,-167" class="g2_328" />
<path d="M887.5,1083.5l0,-2" class="g2_328" />
<path d="M887.5,1083.5l0,-2" class="g2_328" />
</svg>