<?xml version="1.0" encoding="UTF-8" standalone="no"?>
<!DOCTYPE svg PUBLIC "-//W3C//DTD SVG 1.1//EN"
"http://www.w3.org/Graphics/SVG/1.1/DTD/svg11.dtd">
<svg version="1.1" xmlns="http://www.w3.org/2000/svg" xmlns:xlink="http://www.w3.org/1999/xlink">
<defs>
<clipPath id="c0_396"><path d="M47.5,326.5l0,-215l840,0l0,215Z" /></clipPath>
<clipPath id="c1_396"><path d="M47.5,1065.5l0,-578l48,0l0,578Z" /></clipPath>
<clipPath id="c2_396"><path d="M96.5,1065.5l0,-453l45,0l0,453Z" /></clipPath>
<clipPath id="c3_396"><path d="M544.5,682.5l0,-34l343,0l0,34Z" /></clipPath>
<clipPath id="c4_396"><path d="M143.5,826.5l0,-142l32,0l0,142Z" /></clipPath>
<clipPath id="c5_396"><path d="M177.5,718.5l0,-34l281,0l0,34Z" /></clipPath>
<clipPath id="c6_396"><path d="M459.5,718.5l0,-34l83,0l0,34Z" /></clipPath>
<clipPath id="c7_396"><path d="M544.5,718.5l0,-34l343,0l0,34Z" /></clipPath>
<clipPath id="c8_396"><path d="M177.5,753.5l0,-33l281,0l0,33Z" /></clipPath>
<clipPath id="c9_396"><path d="M459.5,753.5l0,-33l83,0l0,33Z" /></clipPath>
<clipPath id="c10_396"><path d="M544.5,753.5l0,-33l343,0l0,33Z" /></clipPath>
<clipPath id="c11_396"><path d="M177.5,785.5l0,-31l281,0l0,31Z" /></clipPath>
<clipPath id="c12_396"><path d="M459.5,785.5l0,-31l83,0l0,31Z" /></clipPath>
<clipPath id="c13_396"><path d="M544.5,785.5l0,-31l343,0l0,31Z" /></clipPath>
<clipPath id="c14_396"><path d="M177.5,826.5l0,-40l281,0l0,40Z" /></clipPath>
<clipPath id="c15_396"><path d="M459.5,826.5l0,-40l83,0l0,40Z" /></clipPath>
<clipPath id="c16_396"><path d="M544.5,826.5l0,-40l343,0l0,40Z" /></clipPath>
<clipPath id="c17_396"><path d="M143.5,1065.5l0,-237l32,0l0,237Z" /></clipPath>
<clipPath id="c18_396"><path d="M177.5,1065.5l0,-237l32,0l0,237Z" /></clipPath>
<clipPath id="c19_396"><path d="M211.5,865.5l0,-37l247,0l0,37Z" /></clipPath>
<clipPath id="c20_396"><path d="M459.5,865.5l0,-37l83,0l0,37Z" /></clipPath>
<clipPath id="c21_396"><path d="M544.5,865.5l0,-37l343,0l0,37Z" /></clipPath>
<clipPath id="c22_396"><path d="M211.5,905.5l0,-38l247,0l0,38Z" /></clipPath>
<clipPath id="c23_396"><path d="M459.5,905.5l0,-38l83,0l0,38Z" /></clipPath>
<clipPath id="c24_396"><path d="M544.5,905.5l0,-38l343,0l0,38Z" /></clipPath>
<style type="text/css"><![CDATA[
.g2_396{
fill: none;
stroke: #7E7E7E;
stroke-width: 1;
stroke-linecap: butt;
stroke-linejoin: miter;
}
.g3_396{
fill: #DBE5F1;
}
.g1_396{
fill: #F1F1F1;
}
]]></style>
</defs>
<path fill-rule="evenodd" d="M47,325l840,0l0,-214L47,111l0,214Z" class="g1_396" />
<g clip-path="url(#c0_396)">
<path fill-rule="evenodd" d="M55,135l825,0l0,-24L55,111l0,24Z" class="g1_396" />
</g>
<path fill-rule="evenodd" d="M55,159l825,0l0,-24L55,135l0,24Z" class="g1_396" />
<path fill-rule="evenodd" d="M55,182l825,0l0,-23L55,159l0,23Z" class="g1_396" />
<path fill-rule="evenodd" d="M55,206l825,0l0,-24L55,182l0,24Z" class="g1_396" />
<path fill-rule="evenodd" d="M55,230l825,0l0,-24L55,206l0,24Z" class="g1_396" />
<path fill-rule="evenodd" d="M55,254l825,0l0,-24L55,230l0,24Z" class="g1_396" />
<path fill-rule="evenodd" d="M55,278l825,0l0,-24L55,254l0,24Z" class="g1_396" />
<path fill-rule="evenodd" d="M55,302l825,0l0,-24L55,278l0,24Z" class="g1_396" />
<path fill-rule="evenodd" d="M55,325l825,0l0,-23L55,302l0,23Z" class="g1_396" />
<path d="M46.5,111.5l0,-1" class="g2_396" />
<path d="M46.5,111.5l0,-1" class="g2_396" />
<path d="M47.5,111.5l840,0" class="g2_396" />
<path d="M887.5,111.5l0,-1" class="g2_396" />
<path d="M887.5,111.5l0,-1" class="g2_396" />
<path d="M46.5,326.5l0,-215" class="g2_396" />
<path d="M46.5,327.5l0,-1" class="g2_396" />
<path d="M46.5,327.5l0,-1" class="g2_396" />
<path d="M47.5,327.5l840,0" class="g2_396" />
<path d="M887.5,326.5l0,-215" class="g2_396" />
<path d="M887.5,327.5l0,-1" class="g2_396" />
<path d="M887.5,327.5l0,-1" class="g2_396" />
<path fill-rule="evenodd" d="M47,485l411,0l0,-24L47,461l0,24Z" class="g3_396" />
<path fill-rule="evenodd" d="M55,485l395,0l0,-24L55,461l0,24Z" class="g3_396" />
<path fill-rule="evenodd" d="M459,485l83,0l0,-24l-83,0l0,24Z" class="g3_396" />
<path fill-rule="evenodd" d="M467,485l68,0l0,-24l-68,0l0,24Z" class="g3_396" />
<path fill-rule="evenodd" d="M544,485l343,0l0,-24l-343,0l0,24Z" class="g3_396" />
<path fill-rule="evenodd" d="M551,485l329,0l0,-24l-329,0l0,24Z" class="g3_396" />
<path d="M46.5,461.5l0,-1" class="g2_396" />
<path d="M46.5,461.5l0,-1" class="g2_396" />
<path d="M47.5,461.5l411,0" class="g2_396" />
<path d="M458.5,461.5l0,-1" class="g2_396" />
<path d="M459.5,461.5l83,0" class="g2_396" />
<path d="M542.5,461.5l0,-1" class="g2_396" />
<path d="M544.5,461.5l343,0" class="g2_396" />
<path d="M887.5,461.5l0,-1" class="g2_396" />
<path d="M887.5,461.5l0,-1" class="g2_396" />
<path d="M46.5,485.5l0,-24" class="g2_396" />
<path d="M458.5,485.5l0,-24" class="g2_396" />
<path d="M542.5,485.5l0,-24" class="g2_396" />
<path d="M887.5,485.5l0,-24" class="g2_396" />
<path fill-rule="evenodd" d="M47,1065l48,0L95,487l-48,0l0,578Z" class="g1_396" />
<g clip-path="url(#c1_396)">
<path fill-rule="evenodd" d="M55,1065l23,0L78,487l-23,0l0,578Z" class="g1_396" />
</g>
<path fill-rule="evenodd" d="M96,535l362,0l0,-48L96,487l0,48Z" class="g1_396" />
<path fill-rule="evenodd" d="M104,511l346,0l0,-24l-346,0l0,24Z" class="g1_396" />
<path fill-rule="evenodd" d="M459,535l83,0l0,-48l-83,0l0,48Z" class="g1_396" />
<path fill-rule="evenodd" d="M467,511l68,0l0,-24l-68,0l0,24Z" class="g1_396" />
<path fill-rule="evenodd" d="M544,535l343,0l0,-48l-343,0l0,48Z" class="g1_396" />
<path fill-rule="evenodd" d="M551,511l329,0l0,-24l-329,0l0,24Z" class="g1_396" />
<path fill-rule="evenodd" d="M551,535l329,0l0,-24l-329,0l0,24Z" class="g1_396" />
<path d="M46.5,487.5l0,-2" class="g2_396" />
<path d="M47.5,487.5l48,0" class="g2_396" />
<path d="M95.5,487.5l0,-2" class="g2_396" />
<path d="M96.5,487.5l362,0" class="g2_396" />
<path d="M458.5,487.5l0,-2" class="g2_396" />
<path d="M459.5,487.5l83,0" class="g2_396" />
<path d="M542.5,487.5l0,-2" class="g2_396" />
<path d="M544.5,487.5l343,0" class="g2_396" />
<path d="M887.5,487.5l0,-2" class="g2_396" />
<path d="M46.5,535.5l0,-48" class="g2_396" />
<path d="M95.5,535.5l0,-48" class="g2_396" />
<path d="M458.5,535.5l0,-48" class="g2_396" />
<path d="M542.5,535.5l0,-48" class="g2_396" />
<path d="M887.5,535.5l0,-48" class="g2_396" />
<path fill-rule="evenodd" d="M96,562l362,0l0,-26L96,536l0,26Z" class="g1_396" />
<path fill-rule="evenodd" d="M104,560l346,0l0,-24l-346,0l0,24Z" class="g1_396" />
<path fill-rule="evenodd" d="M459,562l83,0l0,-26l-83,0l0,26Z" class="g1_396" />
<path fill-rule="evenodd" d="M467,560l68,0l0,-24l-68,0l0,24Z" class="g1_396" />
<path fill-rule="evenodd" d="M544,562l343,0l0,-26l-343,0l0,26Z" class="g1_396" />
<path fill-rule="evenodd" d="M551,560l329,0l0,-24l-329,0l0,24Z" class="g1_396" />
<path d="M46.5,536.5l0,-1" class="g2_396" />
<path d="M95.5,536.5l0,-1" class="g2_396" />
<path d="M96.5,536.5l362,0" class="g2_396" />
<path d="M458.5,536.5l0,-1" class="g2_396" />
<path d="M459.5,536.5l83,0" class="g2_396" />
<path d="M542.5,536.5l0,-1" class="g2_396" />
<path d="M544.5,536.5l343,0" class="g2_396" />
<path d="M887.5,536.5l0,-1" class="g2_396" />
<path d="M46.5,562.5l0,-26" class="g2_396" />
<path d="M95.5,562.5l0,-26" class="g2_396" />
<path d="M458.5,562.5l0,-26" class="g2_396" />
<path d="M542.5,562.5l0,-26" class="g2_396" />
<path d="M887.5,562.5l0,-26" class="g2_396" />
<path fill-rule="evenodd" d="M96,611l362,0l0,-48L96,563l0,48Z" class="g1_396" />
<path fill-rule="evenodd" d="M104,587l346,0l0,-24l-346,0l0,24Z" class="g1_396" />
<path fill-rule="evenodd" d="M459,611l83,0l0,-48l-83,0l0,48Z" class="g1_396" />
<path fill-rule="evenodd" d="M467,587l68,0l0,-24l-68,0l0,24Z" class="g1_396" />
<path fill-rule="evenodd" d="M544,611l343,0l0,-48l-343,0l0,48Z" class="g1_396" />
<path fill-rule="evenodd" d="M551,587l329,0l0,-24l-329,0l0,24Z" class="g1_396" />
<path fill-rule="evenodd" d="M551,611l329,0l0,-24l-329,0l0,24Z" class="g1_396" />
<path d="M46.5,563.5l0,-1" class="g2_396" />
<path d="M95.5,563.5l0,-1" class="g2_396" />
<path d="M96.5,563.5l362,0" class="g2_396" />
<path d="M458.5,563.5l0,-1" class="g2_396" />
<path d="M459.5,563.5l83,0" class="g2_396" />
<path d="M542.5,563.5l0,-1" class="g2_396" />
<path d="M544.5,563.5l343,0" class="g2_396" />
<path d="M887.5,563.5l0,-1" class="g2_396" />
<path d="M46.5,611.5l0,-48" class="g2_396" />
<path d="M95.5,611.5l0,-48" class="g2_396" />
<path d="M458.5,611.5l0,-48" class="g2_396" />
<path d="M542.5,611.5l0,-48" class="g2_396" />
<path d="M887.5,611.5l0,-48" class="g2_396" />
<path fill-rule="evenodd" d="M96,1065l45,0l0,-453l-45,0l0,453Z" class="g1_396" />
<g clip-path="url(#c2_396)">
<path fill-rule="evenodd" d="M104,1065l24,0l0,-453l-24,0l0,453Z" class="g1_396" />
</g>
<path fill-rule="evenodd" d="M143,647l315,0l0,-35l-315,0l0,35Z" class="g1_396" />
<path fill-rule="evenodd" d="M150,641l300,0l0,-23l-300,0l0,23Z" class="g1_396" />
<path fill-rule="evenodd" d="M459,647l83,0l0,-35l-83,0l0,35Z" class="g1_396" />
<path fill-rule="evenodd" d="M467,641l68,0l0,-23l-68,0l0,23Z" class="g1_396" />
<path fill-rule="evenodd" d="M544,647l343,0l0,-35l-343,0l0,35Z" class="g1_396" />
<path fill-rule="evenodd" d="M551,636l329,0l0,-24l-329,0l0,24Z" class="g1_396" />
<path d="M46.5,612.5l0,-1" class="g2_396" />
<path d="M95.5,612.5l0,-1" class="g2_396" />
<path d="M96.5,612.5l45,0" class="g2_396" />
<path d="M141.5,612.5l0,-1" class="g2_396" />
<path d="M143.5,612.5l315,0" class="g2_396" />
<path d="M458.5,612.5l0,-1" class="g2_396" />
<path d="M459.5,612.5l83,0" class="g2_396" />
<path d="M542.5,612.5l0,-1" class="g2_396" />
<path d="M544.5,612.5l343,0" class="g2_396" />
<path d="M887.5,612.5l0,-1" class="g2_396" />
<path d="M46.5,647.5l0,-35" class="g2_396" />
<path d="M95.5,647.5l0,-35" class="g2_396" />
<path d="M141.5,647.5l0,-35" class="g2_396" />
<path d="M458.5,647.5l0,-35" class="g2_396" />
<path d="M542.5,647.5l0,-35" class="g2_396" />
<path d="M887.5,647.5l0,-35" class="g2_396" />
<path fill-rule="evenodd" d="M143,682l315,0l0,-34l-315,0l0,34Z" class="g1_396" />
<path fill-rule="evenodd" d="M150,677l300,0l0,-24l-300,0l0,24Z" class="g1_396" />
<path fill-rule="evenodd" d="M459,682l83,0l0,-34l-83,0l0,34Z" class="g1_396" />
<path fill-rule="evenodd" d="M467,677l68,0l0,-24l-68,0l0,24Z" class="g1_396" />
<path fill-rule="evenodd" d="M544,682l343,0l0,-34l-343,0l0,34Z" class="g1_396" />
<g clip-path="url(#c3_396)">
<path fill-rule="evenodd" d="M551,672l329,0l0,-24l-329,0l0,24Z" class="g1_396" />
</g>
<path d="M46.5,648.5l0,-1" class="g2_396" />
<path d="M95.5,648.5l0,-1" class="g2_396" />
<path d="M141.5,648.5l0,-1" class="g2_396" />
<path d="M143.5,648.5l315,0" class="g2_396" />
<path d="M458.5,648.5l0,-1" class="g2_396" />
<path d="M459.5,648.5l83,0" class="g2_396" />
<path d="M542.5,648.5l0,-1" class="g2_396" />
<path d="M544.5,648.5l343,0" class="g2_396" />
<path d="M887.5,648.5l0,-1" class="g2_396" />
<path d="M46.5,682.5l0,-34" class="g2_396" />
<path d="M95.5,682.5l0,-34" class="g2_396" />
<path d="M141.5,682.5l0,-34" class="g2_396" />
<path d="M458.5,682.5l0,-34" class="g2_396" />
<path d="M542.5,682.5l0,-34" class="g2_396" />
<path d="M887.5,682.5l0,-34" class="g2_396" />
<path fill-rule="evenodd" d="M143,826l32,0l0,-142l-32,0l0,142Z" class="g1_396" />
<g clip-path="url(#c4_396)">
<path fill-rule="evenodd" d="M150,826l24,0l0,-142l-24,0l0,142Z" class="g1_396" />
</g>
<path fill-rule="evenodd" d="M177,718l281,0l0,-34l-281,0l0,34Z" class="g1_396" />
<g clip-path="url(#c5_396)">
<path fill-rule="evenodd" d="M184,708l266,0l0,-24l-266,0l0,24Z" class="g1_396" />
</g>
<path fill-rule="evenodd" d="M459,718l83,0l0,-34l-83,0l0,34Z" class="g1_396" />
<g clip-path="url(#c6_396)">
<path fill-rule="evenodd" d="M467,708l68,0l0,-24l-68,0l0,24Z" class="g1_396" />
</g>
<path fill-rule="evenodd" d="M544,718l343,0l0,-34l-343,0l0,34Z" class="g1_396" />
<g clip-path="url(#c7_396)">
<path fill-rule="evenodd" d="M551,708l329,0l0,-24l-329,0l0,24Z" class="g1_396" />
</g>
<path d="M46.5,684.5l0,-2" class="g2_396" />
<path d="M95.5,684.5l0,-2" class="g2_396" />
<path d="M141.5,684.5l0,-2" class="g2_396" />
<path d="M143.5,684.5l32,0" class="g2_396" />
<path d="M175.5,684.5l0,-2" class="g2_396" />
<path d="M177.5,684.5l281,0" class="g2_396" />
<path d="M458.5,684.5l0,-2" class="g2_396" />
<path d="M459.5,684.5l83,0" class="g2_396" />
<path d="M542.5,684.5l0,-2" class="g2_396" />
<path d="M544.5,684.5l343,0" class="g2_396" />
<path d="M887.5,684.5l0,-2" class="g2_396" />
<path d="M46.5,718.5l0,-34" class="g2_396" />
<path d="M95.5,718.5l0,-34" class="g2_396" />
<path d="M141.5,718.5l0,-34" class="g2_396" />
<path d="M175.5,718.5l0,-34" class="g2_396" />
<path d="M458.5,718.5l0,-34" class="g2_396" />
<path d="M542.5,718.5l0,-34" class="g2_396" />
<path d="M887.5,718.5l0,-34" class="g2_396" />
<path fill-rule="evenodd" d="M177,753l281,0l0,-33l-281,0l0,33Z" class="g1_396" />
<g clip-path="url(#c8_396)">
<path fill-rule="evenodd" d="M184,744l266,0l0,-24l-266,0l0,24Z" class="g1_396" />
</g>
<path fill-rule="evenodd" d="M459,753l83,0l0,-33l-83,0l0,33Z" class="g1_396" />
<g clip-path="url(#c9_396)">
<path fill-rule="evenodd" d="M467,744l68,0l0,-24l-68,0l0,24Z" class="g1_396" />
</g>
<path fill-rule="evenodd" d="M544,753l343,0l0,-33l-343,0l0,33Z" class="g1_396" />
<g clip-path="url(#c10_396)">
<path fill-rule="evenodd" d="M551,744l329,0l0,-24l-329,0l0,24Z" class="g1_396" />
</g>
<path d="M46.5,720.5l0,-2" class="g2_396" />
<path d="M95.5,720.5l0,-2" class="g2_396" />
<path d="M141.5,720.5l0,-2" class="g2_396" />
<path d="M175.5,720.5l0,-2" class="g2_396" />
<path d="M177.5,720.5l281,0" class="g2_396" />
<path d="M458.5,720.5l0,-2" class="g2_396" />
<path d="M459.5,720.5l83,0" class="g2_396" />
<path d="M542.5,720.5l0,-2" class="g2_396" />
<path d="M544.5,720.5l343,0" class="g2_396" />
<path d="M887.5,720.5l0,-2" class="g2_396" />
<path d="M46.5,753.5l0,-33" class="g2_396" />
<path d="M95.5,753.5l0,-33" class="g2_396" />
<path d="M141.5,753.5l0,-33" class="g2_396" />
<path d="M175.5,753.5l0,-33" class="g2_396" />
<path d="M458.5,753.5l0,-33" class="g2_396" />
<path d="M542.5,753.5l0,-33" class="g2_396" />
<path d="M887.5,753.5l0,-33" class="g2_396" />
<path fill-rule="evenodd" d="M177,785l281,0l0,-31l-281,0l0,31Z" class="g1_396" />
<g clip-path="url(#c11_396)">
<path fill-rule="evenodd" d="M184,778l266,0l0,-24l-266,0l0,24Z" class="g1_396" />
</g>
<path fill-rule="evenodd" d="M459,785l83,0l0,-31l-83,0l0,31Z" class="g1_396" />
<g clip-path="url(#c12_396)">
<path fill-rule="evenodd" d="M467,778l68,0l0,-24l-68,0l0,24Z" class="g1_396" />
</g>
<path fill-rule="evenodd" d="M544,785l343,0l0,-31l-343,0l0,31Z" class="g1_396" />
<g clip-path="url(#c13_396)">
<path fill-rule="evenodd" d="M551,778l329,0l0,-24l-329,0l0,24Z" class="g1_396" />
</g>
<path d="M46.5,754.5l0,-1" class="g2_396" />
<path d="M95.5,754.5l0,-1" class="g2_396" />
<path d="M141.5,754.5l0,-1" class="g2_396" />
<path d="M175.5,754.5l0,-1" class="g2_396" />
<path d="M177.5,754.5l281,0" class="g2_396" />
<path d="M458.5,754.5l0,-1" class="g2_396" />
<path d="M459.5,754.5l83,0" class="g2_396" />
<path d="M542.5,754.5l0,-1" class="g2_396" />
<path d="M544.5,754.5l343,0" class="g2_396" />
<path d="M887.5,754.5l0,-1" class="g2_396" />
<path d="M46.5,785.5l0,-31" class="g2_396" />
<path d="M95.5,785.5l0,-31" class="g2_396" />
<path d="M141.5,785.5l0,-31" class="g2_396" />
<path d="M175.5,785.5l0,-31" class="g2_396" />
<path d="M458.5,785.5l0,-31" class="g2_396" />
<path d="M542.5,785.5l0,-31" class="g2_396" />
<path d="M887.5,785.5l0,-31" class="g2_396" />
<path fill-rule="evenodd" d="M177,826l281,0l0,-40l-281,0l0,40Z" class="g1_396" />
<g clip-path="url(#c14_396)">
<path fill-rule="evenodd" d="M184,810l266,0l0,-24l-266,0l0,24Z" class="g1_396" />
</g>
<path fill-rule="evenodd" d="M459,826l83,0l0,-40l-83,0l0,40Z" class="g1_396" />
<g clip-path="url(#c15_396)">
<path fill-rule="evenodd" d="M467,810l68,0l0,-24l-68,0l0,24Z" class="g1_396" />
</g>
<path fill-rule="evenodd" d="M544,826l343,0l0,-40l-343,0l0,40Z" class="g1_396" />
<g clip-path="url(#c16_396)">
<path fill-rule="evenodd" d="M551,810l329,0l0,-24l-329,0l0,24Z" class="g1_396" />
</g>
<path d="M46.5,786.5l0,-1" class="g2_396" />
<path d="M95.5,786.5l0,-1" class="g2_396" />
<path d="M141.5,786.5l0,-1" class="g2_396" />
<path d="M175.5,786.5l0,-1" class="g2_396" />
<path d="M177.5,786.5l281,0" class="g2_396" />
<path d="M458.5,786.5l0,-1" class="g2_396" />
<path d="M459.5,786.5l83,0" class="g2_396" />
<path d="M542.5,786.5l0,-1" class="g2_396" />
<path d="M544.5,786.5l343,0" class="g2_396" />
<path d="M887.5,786.5l0,-1" class="g2_396" />
<path d="M46.5,826.5l0,-40" class="g2_396" />
<path d="M95.5,826.5l0,-40" class="g2_396" />
<path d="M141.5,826.5l0,-40" class="g2_396" />
<path d="M175.5,826.5l0,-40" class="g2_396" />
<path d="M458.5,826.5l0,-40" class="g2_396" />
<path d="M542.5,826.5l0,-40" class="g2_396" />
<path d="M887.5,826.5l0,-40" class="g2_396" />
<path fill-rule="evenodd" d="M143,1065l32,0l0,-237l-32,0l0,237Z" class="g1_396" />
<g clip-path="url(#c17_396)">
<path fill-rule="evenodd" d="M150,1065l24,0l0,-237l-24,0l0,237Z" class="g1_396" />
</g>
<path fill-rule="evenodd" d="M177,1065l32,0l0,-237l-32,0l0,237Z" class="g1_396" />
<g clip-path="url(#c18_396)">
<path fill-rule="evenodd" d="M184,1065l24,0l0,-237l-24,0l0,237Z" class="g1_396" />
</g>
<path fill-rule="evenodd" d="M211,865l247,0l0,-37l-247,0l0,37Z" class="g1_396" />
<g clip-path="url(#c19_396)">
<path fill-rule="evenodd" d="M218,851l232,0l0,-23l-232,0l0,23Z" class="g1_396" />
</g>
<path fill-rule="evenodd" d="M459,865l83,0l0,-37l-83,0l0,37Z" class="g1_396" />
<g clip-path="url(#c20_396)">
<path fill-rule="evenodd" d="M467,851l68,0l0,-23l-68,0l0,23Z" class="g1_396" />
</g>
<path fill-rule="evenodd" d="M544,865l343,0l0,-37l-343,0l0,37Z" class="g1_396" />
<g clip-path="url(#c21_396)">
<path fill-rule="evenodd" d="M551,851l329,0l0,-23l-329,0l0,23Z" class="g1_396" />
</g>
<path d="M46.5,828.5l0,-2" class="g2_396" />
<path d="M95.5,828.5l0,-2" class="g2_396" />
<path d="M141.5,828.5l0,-2" class="g2_396" />
<path d="M143.5,828.5l32,0" class="g2_396" />
<path d="M175.5,828.5l0,-2" class="g2_396" />
<path d="M177.5,828.5l32,0" class="g2_396" />
<path d="M209.5,828.5l0,-2" class="g2_396" />
<path d="M211.5,828.5l247,0" class="g2_396" />
<path d="M458.5,828.5l0,-2" class="g2_396" />
<path d="M459.5,828.5l83,0" class="g2_396" />
<path d="M542.5,828.5l0,-2" class="g2_396" />
<path d="M544.5,828.5l343,0" class="g2_396" />
<path d="M887.5,828.5l0,-2" class="g2_396" />
<path d="M46.5,865.5l0,-37" class="g2_396" />
<path d="M95.5,865.5l0,-37" class="g2_396" />
<path d="M141.5,865.5l0,-37" class="g2_396" />
<path d="M175.5,865.5l0,-37" class="g2_396" />
<path d="M209.5,865.5l0,-37" class="g2_396" />
<path d="M458.5,865.5l0,-37" class="g2_396" />
<path d="M542.5,865.5l0,-37" class="g2_396" />
<path d="M887.5,865.5l0,-37" class="g2_396" />
<path fill-rule="evenodd" d="M211,905l247,0l0,-38l-247,0l0,38Z" class="g1_396" />
<g clip-path="url(#c22_396)">
<path fill-rule="evenodd" d="M218,891l232,0l0,-24l-232,0l0,24Z" class="g1_396" />
</g>
<path fill-rule="evenodd" d="M459,905l83,0l0,-38l-83,0l0,38Z" class="g1_396" />
<g clip-path="url(#c23_396)">
<path fill-rule="evenodd" d="M467,891l68,0l0,-24l-68,0l0,24Z" class="g1_396" />
</g>
<path fill-rule="evenodd" d="M544,905l343,0l0,-38l-343,0l0,38Z" class="g1_396" />
<g clip-path="url(#c24_396)">
<path fill-rule="evenodd" d="M551,891l329,0l0,-24l-329,0l0,24Z" class="g1_396" />
</g>
<path d="M46.5,867.5l0,-2" class="g2_396" />
<path d="M95.5,867.5l0,-2" class="g2_396" />
<path d="M141.5,867.5l0,-2" class="g2_396" />
<path d="M175.5,867.5l0,-2" class="g2_396" />
<path d="M209.5,867.5l0,-2" class="g2_396" />
<path d="M211.5,867.5l247,0" class="g2_396" />
<path d="M458.5,867.5l0,-2" class="g2_396" />
<path d="M459.5,867.5l83,0" class="g2_396" />
<path d="M542.5,867.5l0,-2" class="g2_396" />
<path d="M544.5,867.5l343,0" class="g2_396" />
<path d="M887.5,867.5l0,-2" class="g2_396" />
<path d="M46.5,905.5l0,-38" class="g2_396" />
<path d="M95.5,905.5l0,-38" class="g2_396" />
<path d="M141.5,905.5l0,-38" class="g2_396" />
<path d="M175.5,905.5l0,-38" class="g2_396" />
<path d="M209.5,905.5l0,-38" class="g2_396" />
<path d="M458.5,905.5l0,-38" class="g2_396" />
<path d="M542.5,905.5l0,-38" class="g2_396" />
<path d="M887.5,905.5l0,-38" class="g2_396" />
<path fill-rule="evenodd" d="M211,946l247,0l0,-40l-247,0l0,40Z" class="g1_396" />
<path fill-rule="evenodd" d="M218,930l232,0l0,-24l-232,0l0,24Z" class="g1_396" />
<path fill-rule="evenodd" d="M459,946l83,0l0,-40l-83,0l0,40Z" class="g1_396" />
<path fill-rule="evenodd" d="M467,930l68,0l0,-24l-68,0l0,24Z" class="g1_396" />
<path fill-rule="evenodd" d="M544,946l343,0l0,-40l-343,0l0,40Z" class="g1_396" />
<path fill-rule="evenodd" d="M551,930l329,0l0,-24l-329,0l0,24Z" class="g1_396" />
<path d="M46.5,906.5l0,-1" class="g2_396" />
<path d="M95.5,906.5l0,-1" class="g2_396" />
<path d="M141.5,906.5l0,-1" class="g2_396" />
<path d="M175.5,906.5l0,-1" class="g2_396" />
<path d="M209.5,906.5l0,-1" class="g2_396" />
<path d="M211.5,906.5l247,0" class="g2_396" />
<path d="M458.5,906.5l0,-1" class="g2_396" />
<path d="M459.5,906.5l83,0" class="g2_396" />
<path d="M542.5,906.5l0,-1" class="g2_396" />
<path d="M544.5,906.5l343,0" class="g2_396" />
<path d="M887.5,906.5l0,-1" class="g2_396" />
<path d="M46.5,946.5l0,-40" class="g2_396" />
<path d="M95.5,946.5l0,-40" class="g2_396" />
<path d="M141.5,946.5l0,-40" class="g2_396" />
<path d="M175.5,946.5l0,-40" class="g2_396" />
<path d="M209.5,946.5l0,-40" class="g2_396" />
<path d="M458.5,946.5l0,-40" class="g2_396" />
<path d="M542.5,946.5l0,-40" class="g2_396" />
<path d="M887.5,946.5l0,-40" class="g2_396" />
<path fill-rule="evenodd" d="M211,986l247,0l0,-39l-247,0l0,39Z" class="g1_396" />
<path fill-rule="evenodd" d="M218,971l232,0l0,-24l-232,0l0,24Z" class="g1_396" />
<path fill-rule="evenodd" d="M459,986l83,0l0,-39l-83,0l0,39Z" class="g1_396" />
<path fill-rule="evenodd" d="M467,971l68,0l0,-24l-68,0l0,24Z" class="g1_396" />
<path fill-rule="evenodd" d="M544,986l343,0l0,-39l-343,0l0,39Z" class="g1_396" />
<path fill-rule="evenodd" d="M551,971l329,0l0,-24l-329,0l0,24Z" class="g1_396" />
<path d="M46.5,947.5l0,-1" class="g2_396" />
<path d="M95.5,947.5l0,-1" class="g2_396" />
<path d="M141.5,947.5l0,-1" class="g2_396" />
<path d="M175.5,947.5l0,-1" class="g2_396" />
<path d="M209.5,947.5l0,-1" class="g2_396" />
<path d="M211.5,947.5l247,0" class="g2_396" />
<path d="M458.5,947.5l0,-1" class="g2_396" />
<path d="M459.5,947.5l83,0" class="g2_396" />
<path d="M542.5,947.5l0,-1" class="g2_396" />
<path d="M544.5,947.5l343,0" class="g2_396" />
<path d="M887.5,947.5l0,-1" class="g2_396" />
<path d="M46.5,986.5l0,-39" class="g2_396" />
<path d="M95.5,986.5l0,-39" class="g2_396" />
<path d="M141.5,986.5l0,-39" class="g2_396" />
<path d="M175.5,986.5l0,-39" class="g2_396" />
<path d="M209.5,986.5l0,-39" class="g2_396" />
<path d="M458.5,986.5l0,-39" class="g2_396" />
<path d="M542.5,986.5l0,-39" class="g2_396" />
<path d="M887.5,986.5l0,-39" class="g2_396" />
<path fill-rule="evenodd" d="M211,1026l247,0l0,-39l-247,0l0,39Z" class="g1_396" />
<path fill-rule="evenodd" d="M218,1011l232,0l0,-24l-232,0l0,24Z" class="g1_396" />
<path fill-rule="evenodd" d="M459,1026l83,0l0,-39l-83,0l0,39Z" class="g1_396" />
<path fill-rule="evenodd" d="M467,1011l68,0l0,-24l-68,0l0,24Z" class="g1_396" />
<path fill-rule="evenodd" d="M544,1026l343,0l0,-39l-343,0l0,39Z" class="g1_396" />
<path fill-rule="evenodd" d="M551,1011l329,0l0,-24l-329,0l0,24Z" class="g1_396" />
<path d="M46.5,987.5l0,-1" class="g2_396" />
<path d="M95.5,987.5l0,-1" class="g2_396" />
<path d="M141.5,987.5l0,-1" class="g2_396" />
<path d="M175.5,987.5l0,-1" class="g2_396" />
<path d="M209.5,987.5l0,-1" class="g2_396" />
<path d="M211.5,987.5l247,0" class="g2_396" />
<path d="M458.5,987.5l0,-1" class="g2_396" />
<path d="M459.5,987.5l83,0" class="g2_396" />
<path d="M542.5,987.5l0,-1" class="g2_396" />
<path d="M544.5,987.5l343,0" class="g2_396" />
<path d="M887.5,987.5l0,-1" class="g2_396" />
<path d="M46.5,1026.5l0,-39" class="g2_396" />
<path d="M95.5,1026.5l0,-39" class="g2_396" />
<path d="M141.5,1026.5l0,-39" class="g2_396" />
<path d="M175.5,1026.5l0,-39" class="g2_396" />
<path d="M209.5,1026.5l0,-39" class="g2_396" />
<path d="M458.5,1026.5l0,-39" class="g2_396" />
<path d="M542.5,1026.5l0,-39" class="g2_396" />
<path d="M887.5,1026.5l0,-39" class="g2_396" />
<path fill-rule="evenodd" d="M211,1065l247,0l0,-38l-247,0l0,38Z" class="g1_396" />
<path fill-rule="evenodd" d="M218,1051l232,0l0,-24l-232,0l0,24Z" class="g1_396" />
<path fill-rule="evenodd" d="M459,1065l83,0l0,-38l-83,0l0,38Z" class="g1_396" />
<path fill-rule="evenodd" d="M467,1051l68,0l0,-24l-68,0l0,24Z" class="g1_396" />
<path fill-rule="evenodd" d="M544,1065l343,0l0,-38l-343,0l0,38Z" class="g1_396" />
<path fill-rule="evenodd" d="M551,1051l329,0l0,-24l-329,0l0,24Z" class="g1_396" />
<path d="M46.5,1027.5l0,-1" class="g2_396" />
<path d="M95.5,1027.5l0,-1" class="g2_396" />
<path d="M141.5,1027.5l0,-1" class="g2_396" />
<path d="M175.5,1027.5l0,-1" class="g2_396" />
<path d="M209.5,1027.5l0,-1" class="g2_396" />
<path d="M211.5,1027.5l247,0" class="g2_396" />
<path d="M458.5,1027.5l0,-1" class="g2_396" />
<path d="M459.5,1027.5l83,0" class="g2_396" />
<path d="M542.5,1027.5l0,-1" class="g2_396" />
<path d="M544.5,1027.5l343,0" class="g2_396" />
<path d="M887.5,1027.5l0,-1" class="g2_396" />
<path d="M46.5,1065.5l0,-38" class="g2_396" />
<path d="M46.5,1067.5l0,-2" class="g2_396" />
<path d="M46.5,1067.5l0,-2" class="g2_396" />
<path d="M47.5,1067.5l48,0" class="g2_396" />
<path d="M95.5,1065.5l0,-38" class="g2_396" />
<path d="M95.5,1067.5l0,-2" class="g2_396" />
<path d="M96.5,1067.5l45,0" class="g2_396" />
<path d="M141.5,1065.5l0,-38" class="g2_396" />
<path d="M141.5,1067.5l0,-2" class="g2_396" />
<path d="M143.5,1067.5l32,0" class="g2_396" />
<path d="M175.5,1065.5l0,-38" class="g2_396" />
<path d="M175.5,1067.5l0,-2" class="g2_396" />
<path d="M177.5,1067.5l32,0" class="g2_396" />
<path d="M209.5,1065.5l0,-38" class="g2_396" />
<path d="M209.5,1067.5l0,-2" class="g2_396" />
<path d="M211.5,1067.5l247,0" class="g2_396" />
<path d="M458.5,1065.5l0,-38" class="g2_396" />
<path d="M458.5,1067.5l0,-2" class="g2_396" />
<path d="M459.5,1067.5l83,0" class="g2_396" />
<path d="M542.5,1065.5l0,-38" class="g2_396" />
<path d="M542.5,1067.5l0,-2" class="g2_396" />
<path d="M544.5,1067.5l343,0" class="g2_396" />
<path d="M887.5,1065.5l0,-38" class="g2_396" />
<path d="M887.5,1067.5l0,-2" class="g2_396" />
<path d="M887.5,1067.5l0,-2" class="g2_396" />
</svg>