<?xml version="1.0" encoding="UTF-8" standalone="no"?>
<!DOCTYPE svg PUBLIC "-//W3C//DTD SVG 1.1//EN"
"http://www.w3.org/Graphics/SVG/1.1/DTD/svg11.dtd">
<svg version="1.1" xmlns="http://www.w3.org/2000/svg" xmlns:xlink="http://www.w3.org/1999/xlink">
<defs>
<clipPath id="c0_57"><path d="M47.5,285.5l0,-174l840,0l0,174Z" /></clipPath>
<clipPath id="c1_57"><path d="M47.5,455.5l0,-95l840,0l0,95Z" /></clipPath>
<clipPath id="c2_57"><path d="M47.5,773.5l0,-24l840,0l0,24Z" /></clipPath>
<clipPath id="c3_57"><path d="M47.5,880.5l0,-23l179,0l0,23Z" /></clipPath>
<clipPath id="c4_57"><path d="M227.5,880.5l0,-23l163,0l0,23Z" /></clipPath>
<clipPath id="c5_57"><path d="M392.5,880.5l0,-23l495,0l0,23Z" /></clipPath>
<clipPath id="c6_57"><path d="M47.5,906.5l0,-24l179,0l0,24Z" /></clipPath>
<clipPath id="c7_57"><path d="M227.5,906.5l0,-24l163,0l0,24Z" /></clipPath>
<clipPath id="c8_57"><path d="M392.5,906.5l0,-24l495,0l0,24Z" /></clipPath>
<clipPath id="c9_57"><path d="M47.5,980.5l0,-24l178,0l0,24Z" /></clipPath>
<clipPath id="c10_57"><path d="M227.5,980.5l0,-24l163,0l0,24Z" /></clipPath>
<clipPath id="c11_57"><path d="M392.5,980.5l0,-24l164,0l0,24Z" /></clipPath>
<clipPath id="c12_57"><path d="M558.5,980.5l0,-24l163,0l0,24Z" /></clipPath>
<clipPath id="c13_57"><path d="M723.5,980.5l0,-24l164,0l0,24Z" /></clipPath>
<clipPath id="c14_57"><path d="M47.5,1006.5l0,-24l178,0l0,24Z" /></clipPath>
<clipPath id="c15_57"><path d="M227.5,1006.5l0,-24l163,0l0,24Z" /></clipPath>
<clipPath id="c16_57"><path d="M392.5,1006.5l0,-24l164,0l0,24Z" /></clipPath>
<clipPath id="c17_57"><path d="M558.5,1006.5l0,-24l163,0l0,24Z" /></clipPath>
<clipPath id="c18_57"><path d="M723.5,1006.5l0,-24l164,0l0,24Z" /></clipPath>
<style type="text/css"><![CDATA[
.g2_57{
fill: none;
stroke: #F0F0E0;
stroke-width: 1;
stroke-linecap: butt;
stroke-linejoin: miter;
}
.g3_57{
fill: none;
stroke: #7E7E7E;
stroke-width: 1;
stroke-linecap: butt;
stroke-linejoin: miter;
}
.g4_57{
fill: #DBE5F1;
}
.g1_57{
fill: #F1F1F1;
}
]]></style>
</defs>
<path fill-rule="evenodd" d="M47,285l840,0l0,-174L47,111l0,174Z" class="g1_57" />
<g clip-path="url(#c0_57)">
<path fill-rule="evenodd" d="M55,135l825,0l0,-24L55,111l0,24Z" class="g1_57" />
<path d="M45.5,135.5l0,-24" class="g2_57" />
<path d="M888.5,135.5l0,-24" class="g2_57" />
</g>
<path fill-rule="evenodd" d="M55,159l825,0l0,-24L55,135l0,24Z" class="g1_57" />
<g clip-path="url(#c0_57)">
<path d="M45.5,159.5l0,-24" class="g2_57" />
<path d="M888.5,159.5l0,-24" class="g2_57" />
</g>
<path fill-rule="evenodd" d="M55,182l825,0l0,-23L55,159l0,23Z" class="g1_57" />
<g clip-path="url(#c0_57)">
<path d="M45.5,182.5l0,-23" class="g2_57" />
<path d="M888.5,182.5l0,-23" class="g2_57" />
</g>
<path fill-rule="evenodd" d="M55,206l825,0l0,-24L55,182l0,24Z" class="g1_57" />
<g clip-path="url(#c0_57)">
<path d="M45.5,206.5l0,-24" class="g2_57" />
<path d="M888.5,206.5l0,-24" class="g2_57" />
</g>
<path fill-rule="evenodd" d="M55,230l825,0l0,-24L55,206l0,24Z" class="g1_57" />
<g clip-path="url(#c0_57)">
<path d="M45.5,230.5l0,-24" class="g2_57" />
<path d="M888.5,230.5l0,-24" class="g2_57" />
</g>
<path fill-rule="evenodd" d="M55,254l825,0l0,-24L55,230l0,24Z" class="g1_57" />
<g clip-path="url(#c0_57)">
<path d="M45.5,254.5l0,-24" class="g2_57" />
<path d="M888.5,254.5l0,-24" class="g2_57" />
</g>
<path fill-rule="evenodd" d="M55,285l825,0l0,-31L55,254l0,31Z" class="g1_57" />
<g clip-path="url(#c0_57)">
<path d="M45.5,285.5l0,-1" class="g2_57" />
<path d="M45.5,285.5l0,-1" class="g2_57" />
<path d="M46.5,285.5l842,0" class="g2_57" />
<path d="M888.5,285.5l0,-1" class="g2_57" />
<path d="M888.5,285.5l0,-1" class="g2_57" />
<path d="M45.5,284.5l0,-30" class="g2_57" />
<path d="M888.5,284.5l0,-30" class="g2_57" />
</g>
<path d="M46.5,111.5l0,-1" class="g3_57" />
<path d="M46.5,111.5l0,-1" class="g3_57" />
<path d="M47.5,111.5l840,0" class="g3_57" />
<path d="M887.5,111.5l0,-1" class="g3_57" />
<path d="M887.5,111.5l0,-1" class="g3_57" />
<path d="M46.5,285.5l0,-174" class="g3_57" />
<path d="M46.5,287.5l0,-2" class="g3_57" />
<path d="M46.5,287.5l0,-2" class="g3_57" />
<path d="M47.5,287.5l840,0" class="g3_57" />
<path d="M887.5,285.5l0,-174" class="g3_57" />
<path d="M887.5,287.5l0,-2" class="g3_57" />
<path d="M887.5,287.5l0,-2" class="g3_57" />
<path fill-rule="evenodd" d="M47,455l840,0l0,-95L47,360l0,95Z" class="g1_57" />
<g clip-path="url(#c1_57)">
<path fill-rule="evenodd" d="M55,384l825,0l0,-24L55,360l0,24Z" class="g1_57" />
</g>
<path fill-rule="evenodd" d="M55,407l825,0l0,-23L55,384l0,23Z" class="g1_57" />
<path fill-rule="evenodd" d="M55,431l825,0l0,-24L55,407l0,24Z" class="g1_57" />
<path fill-rule="evenodd" d="M55,455l825,0l0,-24L55,431l0,24Z" class="g1_57" />
<path d="M46.5,360.5l0,-2" class="g3_57" />
<path d="M46.5,360.5l0,-2" class="g3_57" />
<path d="M47.5,360.5l840,0" class="g3_57" />
<path d="M887.5,360.5l0,-2" class="g3_57" />
<path d="M887.5,360.5l0,-2" class="g3_57" />
<path d="M46.5,455.5l0,-95" class="g3_57" />
<path d="M46.5,457.5l0,-2" class="g3_57" />
<path d="M46.5,457.5l0,-2" class="g3_57" />
<path d="M47.5,457.5l840,0" class="g3_57" />
<path d="M887.5,455.5l0,-95" class="g3_57" />
<path d="M887.5,457.5l0,-2" class="g3_57" />
<path d="M887.5,457.5l0,-2" class="g3_57" />
<path fill-rule="evenodd" d="M47,773l840,0l0,-24L47,749l0,24Z" class="g1_57" />
<g clip-path="url(#c2_57)">
<path fill-rule="evenodd" d="M55,773l825,0l0,-24L55,749l0,24Z" class="g1_57" />
</g>
<path d="M46.5,749.5l0,-1" class="g3_57" />
<path d="M46.5,749.5l0,-1" class="g3_57" />
<path d="M47.5,749.5l840,0" class="g3_57" />
<path d="M887.5,749.5l0,-1" class="g3_57" />
<path d="M887.5,749.5l0,-1" class="g3_57" />
<path d="M46.5,773.5l0,-24" class="g3_57" />
<path d="M46.5,775.5l0,-2" class="g3_57" />
<path d="M46.5,775.5l0,-2" class="g3_57" />
<path d="M47.5,775.5l840,0" class="g3_57" />
<path d="M887.5,773.5l0,-24" class="g3_57" />
<path d="M887.5,775.5l0,-2" class="g3_57" />
<path d="M887.5,775.5l0,-2" class="g3_57" />
<path fill-rule="evenodd" d="M47,880l179,0l0,-23L47,857l0,23Z" class="g4_57" />
<g clip-path="url(#c3_57)">
<path fill-rule="evenodd" d="M55,880l163,0l0,-23L55,857l0,23Z" class="g4_57" />
</g>
<path fill-rule="evenodd" d="M227,880l163,0l0,-23l-163,0l0,23Z" class="g4_57" />
<g clip-path="url(#c4_57)">
<path fill-rule="evenodd" d="M235,880l148,0l0,-23l-148,0l0,23Z" class="g4_57" />
</g>
<path fill-rule="evenodd" d="M392,880l495,0l0,-23l-495,0l0,23Z" class="g4_57" />
<g clip-path="url(#c5_57)">
<path fill-rule="evenodd" d="M400,880l480,0l0,-23l-480,0l0,23Z" class="g4_57" />
</g>
<path d="M46.5,857.5l0,-2" class="g3_57" />
<path d="M46.5,857.5l0,-2" class="g3_57" />
<path d="M47.5,857.5l179,0" class="g3_57" />
<path d="M226.5,857.5l0,-2" class="g3_57" />
<path d="M227.5,857.5l164,0" class="g3_57" />
<path d="M391.5,857.5l0,-2" class="g3_57" />
<path d="M392.5,857.5l495,0" class="g3_57" />
<path d="M887.5,857.5l0,-2" class="g3_57" />
<path d="M887.5,857.5l0,-2" class="g3_57" />
<path d="M46.5,880.5l0,-23" class="g3_57" />
<path d="M226.5,880.5l0,-23" class="g3_57" />
<path d="M391.5,880.5l0,-23" class="g3_57" />
<path d="M887.5,880.5l0,-23" class="g3_57" />
<path fill-rule="evenodd" d="M47,906l179,0l0,-24L47,882l0,24Z" class="g1_57" />
<g clip-path="url(#c6_57)">
<path fill-rule="evenodd" d="M55,906l163,0l0,-24L55,882l0,24Z" class="g1_57" />
</g>
<path fill-rule="evenodd" d="M227,906l163,0l0,-24l-163,0l0,24Z" class="g1_57" />
<g clip-path="url(#c7_57)">
<path fill-rule="evenodd" d="M235,906l148,0l0,-24l-148,0l0,24Z" class="g1_57" />
</g>
<path fill-rule="evenodd" d="M392,906l495,0l0,-24l-495,0l0,24Z" class="g1_57" />
<g clip-path="url(#c8_57)">
<path fill-rule="evenodd" d="M400,906l480,0l0,-24l-480,0l0,24Z" class="g1_57" />
</g>
<path d="M46.5,882.5l0,-2" class="g3_57" />
<path d="M47.5,882.5l179,0" class="g3_57" />
<path d="M226.5,882.5l0,-2" class="g3_57" />
<path d="M227.5,882.5l164,0" class="g3_57" />
<path d="M391.5,882.5l0,-2" class="g3_57" />
<path d="M392.5,882.5l495,0" class="g3_57" />
<path d="M887.5,882.5l0,-2" class="g3_57" />
<path d="M46.5,906.5l0,-24" class="g3_57" />
<path d="M46.5,907.5l0,-1" class="g3_57" />
<path d="M46.5,907.5l0,-1" class="g3_57" />
<path d="M47.5,907.5l179,0" class="g3_57" />
<path d="M226.5,906.5l0,-24" class="g3_57" />
<path d="M226.5,907.5l0,-1" class="g3_57" />
<path d="M227.5,907.5l164,0" class="g3_57" />
<path d="M391.5,906.5l0,-24" class="g3_57" />
<path d="M391.5,907.5l0,-1" class="g3_57" />
<path d="M392.5,907.5l495,0" class="g3_57" />
<path d="M887.5,906.5l0,-24" class="g3_57" />
<path d="M887.5,907.5l0,-1" class="g3_57" />
<path d="M887.5,907.5l0,-1" class="g3_57" />
<path fill-rule="evenodd" d="M47,980l178,0l0,-24L47,956l0,24Z" class="g4_57" />
<g clip-path="url(#c9_57)">
<path fill-rule="evenodd" d="M55,980l163,0l0,-24L55,956l0,24Z" class="g4_57" />
</g>
<path fill-rule="evenodd" d="M227,980l163,0l0,-24l-163,0l0,24Z" class="g4_57" />
<g clip-path="url(#c10_57)">
<path fill-rule="evenodd" d="M234,980l149,0l0,-24l-149,0l0,24Z" class="g4_57" />
</g>
<path fill-rule="evenodd" d="M392,980l164,0l0,-24l-164,0l0,24Z" class="g4_57" />
<g clip-path="url(#c11_57)">
<path fill-rule="evenodd" d="M399,980l149,0l0,-24l-149,0l0,24Z" class="g4_57" />
</g>
<path fill-rule="evenodd" d="M557,980l164,0l0,-24l-164,0l0,24Z" class="g4_57" />
<g clip-path="url(#c12_57)">
<path fill-rule="evenodd" d="M565,980l149,0l0,-24l-149,0l0,24Z" class="g4_57" />
</g>
<path fill-rule="evenodd" d="M723,980l164,0l0,-24l-164,0l0,24Z" class="g4_57" />
<g clip-path="url(#c13_57)">
<path fill-rule="evenodd" d="M730,980l150,0l0,-24l-150,0l0,24Z" class="g4_57" />
</g>
<path d="M46.5,956.5l0,-1" class="g3_57" />
<path d="M46.5,956.5l0,-1" class="g3_57" />
<path d="M47.5,956.5l178,0" class="g3_57" />
<path d="M225.5,956.5l0,-1" class="g3_57" />
<path d="M227.5,956.5l163,0" class="g3_57" />
<path d="M390.5,956.5l0,-1" class="g3_57" />
<path d="M392.5,956.5l164,0" class="g3_57" />
<path d="M556.5,956.5l0,-1" class="g3_57" />
<path d="M557.5,956.5l164,0" class="g3_57" />
<path d="M721.5,956.5l0,-1" class="g3_57" />
<path d="M723.5,956.5l164,0" class="g3_57" />
<path d="M887.5,956.5l0,-1" class="g3_57" />
<path d="M887.5,956.5l0,-1" class="g3_57" />
<path d="M46.5,980.5l0,-24" class="g3_57" />
<path d="M225.5,980.5l0,-24" class="g3_57" />
<path d="M390.5,980.5l0,-24" class="g3_57" />
<path d="M556.5,980.5l0,-24" class="g3_57" />
<path d="M721.5,980.5l0,-24" class="g3_57" />
<path d="M887.5,980.5l0,-24" class="g3_57" />
<path fill-rule="evenodd" d="M47,1006l178,0l0,-24L47,982l0,24Z" class="g1_57" />
<g clip-path="url(#c14_57)">
<path fill-rule="evenodd" d="M55,1006l163,0l0,-24L55,982l0,24Z" class="g1_57" />
</g>
<path fill-rule="evenodd" d="M227,1006l163,0l0,-24l-163,0l0,24Z" class="g1_57" />
<g clip-path="url(#c15_57)">
<path fill-rule="evenodd" d="M234,1006l149,0l0,-24l-149,0l0,24Z" class="g1_57" />
</g>
<path fill-rule="evenodd" d="M392,1006l164,0l0,-24l-164,0l0,24Z" class="g1_57" />
<g clip-path="url(#c16_57)">
<path fill-rule="evenodd" d="M399,1006l149,0l0,-24l-149,0l0,24Z" class="g1_57" />
</g>
<path fill-rule="evenodd" d="M557,1006l164,0l0,-24l-164,0l0,24Z" class="g1_57" />
<g clip-path="url(#c17_57)">
<path fill-rule="evenodd" d="M565,1006l149,0l0,-24l-149,0l0,24Z" class="g1_57" />
</g>
<path fill-rule="evenodd" d="M723,1006l164,0l0,-24l-164,0l0,24Z" class="g1_57" />
<g clip-path="url(#c18_57)">
<path fill-rule="evenodd" d="M730,1006l150,0l0,-24l-150,0l0,24Z" class="g1_57" />
</g>
<path d="M46.5,982.5l0,-2" class="g3_57" />
<path d="M47.5,982.5l178,0" class="g3_57" />
<path d="M225.5,982.5l0,-2" class="g3_57" />
<path d="M227.5,982.5l163,0" class="g3_57" />
<path d="M390.5,982.5l0,-2" class="g3_57" />
<path d="M392.5,982.5l164,0" class="g3_57" />
<path d="M556.5,982.5l0,-2" class="g3_57" />
<path d="M557.5,982.5l164,0" class="g3_57" />
<path d="M721.5,982.5l0,-2" class="g3_57" />
<path d="M723.5,982.5l164,0" class="g3_57" />
<path d="M887.5,982.5l0,-2" class="g3_57" />
<path d="M46.5,1006.5l0,-24" class="g3_57" />
<path d="M46.5,1007.5l0,-1" class="g3_57" />
<path d="M46.5,1007.5l0,-1" class="g3_57" />
<path d="M47.5,1007.5l178,0" class="g3_57" />
<path d="M225.5,1006.5l0,-24" class="g3_57" />
<path d="M225.5,1007.5l0,-1" class="g3_57" />
<path d="M227.5,1007.5l163,0" class="g3_57" />
<path d="M390.5,1006.5l0,-24" class="g3_57" />
<path d="M390.5,1007.5l0,-1" class="g3_57" />
<path d="M392.5,1007.5l164,0" class="g3_57" />
<path d="M556.5,1006.5l0,-24" class="g3_57" />
<path d="M556.5,1007.5l0,-1" class="g3_57" />
<path d="M557.5,1007.5l164,0" class="g3_57" />
<path d="M721.5,1006.5l0,-24" class="g3_57" />
<path d="M721.5,1007.5l0,-1" class="g3_57" />
<path d="M723.5,1007.5l164,0" class="g3_57" />
<path d="M887.5,1006.5l0,-24" class="g3_57" />
<path d="M887.5,1007.5l0,-1" class="g3_57" />
<path d="M887.5,1007.5l0,-1" class="g3_57" />
</svg>