<?xml version="1.0" encoding="UTF-8" standalone="no"?>
<!DOCTYPE svg PUBLIC "-//W3C//DTD SVG 1.1//EN"
"http://www.w3.org/Graphics/SVG/1.1/DTD/svg11.dtd">
<svg version="1.1" xmlns="http://www.w3.org/2000/svg" xmlns:xlink="http://www.w3.org/1999/xlink">
<defs>
<clipPath id="c0_125"><path d="M47.5,135.5l0,-24l102,0l0,24Z" /></clipPath>
<clipPath id="c1_125"><path d="M151.5,135.5l0,-24l736,0l0,24Z" /></clipPath>
<clipPath id="c2_125"><path d="M47.5,160.5l0,-24l102,0l0,24Z" /></clipPath>
<clipPath id="c3_125"><path d="M151.5,160.5l0,-24l736,0l0,24Z" /></clipPath>
<clipPath id="c4_125"><path d="M47.5,186.5l0,-24l102,0l0,24Z" /></clipPath>
<clipPath id="c5_125"><path d="M151.5,186.5l0,-24l736,0l0,24Z" /></clipPath>
<clipPath id="c6_125"><path d="M47.5,211.5l0,-24l102,0l0,24Z" /></clipPath>
<clipPath id="c7_125"><path d="M151.5,211.5l0,-24l736,0l0,24Z" /></clipPath>
<clipPath id="c8_125"><path d="M47.5,236.5l0,-23l102,0l0,23Z" /></clipPath>
<clipPath id="c9_125"><path d="M151.5,236.5l0,-23l736,0l0,23Z" /></clipPath>
<clipPath id="c10_125"><path d="M47.5,286.5l0,-48l102,0l0,48Z" /></clipPath>
<clipPath id="c11_125"><path d="M151.5,286.5l0,-48l736,0l0,48Z" /></clipPath>
<clipPath id="c12_125"><path d="M47.5,542.5l0,-182l840,0l0,182Z" /></clipPath>
<clipPath id="c13_125"><path d="M47.5,711.5l0,-95l840,0l0,95Z" /></clipPath>
<clipPath id="c14_125"><path d="M47.5,1006.5l0,-24l840,0l0,24Z" /></clipPath>
<style type="text/css"><![CDATA[
.g4_125{
fill: none;
stroke: #0000FF;
stroke-width: 1;
stroke-linecap: butt;
stroke-linejoin: miter;
}
.g2_125{
fill: none;
stroke: #7E7E7E;
stroke-width: 1;
stroke-linecap: butt;
stroke-linejoin: miter;
}
.g3_125{
fill: none;
stroke: #F0F0E0;
stroke-width: 1;
stroke-linecap: butt;
stroke-linejoin: miter;
}
.g1_125{
fill: #F1F1F1;
}
]]></style>
</defs>
<path fill-rule="evenodd" d="M47,135l102,0l0,-24L47,111l0,24Z" class="g1_125" />
<g clip-path="url(#c0_125)">
<path fill-rule="evenodd" d="M55,135l87,0l0,-24l-87,0l0,24Z" class="g1_125" />
</g>
<path fill-rule="evenodd" d="M151,135l736,0l0,-24l-736,0l0,24Z" class="g1_125" />
<g clip-path="url(#c1_125)">
<path fill-rule="evenodd" d="M158,135l722,0l0,-24l-722,0l0,24Z" class="g1_125" />
</g>
<path d="M46.5,111.5l0,-1" class="g2_125" />
<path d="M46.5,111.5l0,-1" class="g2_125" />
<path d="M47.5,111.5l102,0" class="g2_125" />
<path d="M149.5,111.5l0,-1" class="g2_125" />
<path d="M151.5,111.5l736,0" class="g2_125" />
<path d="M887.5,111.5l0,-1" class="g2_125" />
<path d="M887.5,111.5l0,-1" class="g2_125" />
<path d="M46.5,135.5l0,-24" class="g2_125" />
<path d="M149.5,135.5l0,-24" class="g2_125" />
<path d="M887.5,135.5l0,-24" class="g2_125" />
<path fill-rule="evenodd" d="M47,160l102,0l0,-24L47,136l0,24Z" class="g1_125" />
<g clip-path="url(#c2_125)">
<path fill-rule="evenodd" d="M55,160l87,0l0,-24l-87,0l0,24Z" class="g1_125" />
</g>
<path fill-rule="evenodd" d="M151,160l736,0l0,-24l-736,0l0,24Z" class="g1_125" />
<g clip-path="url(#c3_125)">
<path fill-rule="evenodd" d="M158,160l722,0l0,-24l-722,0l0,24Z" class="g1_125" />
</g>
<path d="M46.5,136.5l0,-1" class="g2_125" />
<path d="M47.5,136.5l102,0" class="g2_125" />
<path d="M149.5,136.5l0,-1" class="g2_125" />
<path d="M151.5,136.5l736,0" class="g2_125" />
<path d="M887.5,136.5l0,-1" class="g2_125" />
<path d="M46.5,160.5l0,-24" class="g2_125" />
<path d="M149.5,160.5l0,-24" class="g2_125" />
<path d="M887.5,160.5l0,-24" class="g2_125" />
<path fill-rule="evenodd" d="M47,186l102,0l0,-24L47,162l0,24Z" class="g1_125" />
<g clip-path="url(#c4_125)">
<path fill-rule="evenodd" d="M55,186l87,0l0,-24l-87,0l0,24Z" class="g1_125" />
</g>
<path fill-rule="evenodd" d="M151,186l736,0l0,-24l-736,0l0,24Z" class="g1_125" />
<g clip-path="url(#c5_125)">
<path fill-rule="evenodd" d="M158,186l722,0l0,-24l-722,0l0,24Z" class="g1_125" />
</g>
<path d="M46.5,162.5l0,-2" class="g2_125" />
<path d="M47.5,162.5l102,0" class="g2_125" />
<path d="M149.5,162.5l0,-2" class="g2_125" />
<path d="M151.5,162.5l736,0" class="g2_125" />
<path d="M887.5,162.5l0,-2" class="g2_125" />
<path d="M46.5,186.5l0,-24" class="g2_125" />
<path d="M149.5,186.5l0,-24" class="g2_125" />
<path d="M887.5,186.5l0,-24" class="g2_125" />
<path fill-rule="evenodd" d="M47,211l102,0l0,-24L47,187l0,24Z" class="g1_125" />
<g clip-path="url(#c6_125)">
<path fill-rule="evenodd" d="M55,211l87,0l0,-24l-87,0l0,24Z" class="g1_125" />
</g>
<path fill-rule="evenodd" d="M151,211l736,0l0,-24l-736,0l0,24Z" class="g1_125" />
<g clip-path="url(#c7_125)">
<path fill-rule="evenodd" d="M158,211l722,0l0,-24l-722,0l0,24Z" class="g1_125" />
</g>
<path d="M46.5,187.5l0,-1" class="g2_125" />
<path d="M47.5,187.5l102,0" class="g2_125" />
<path d="M149.5,187.5l0,-1" class="g2_125" />
<path d="M151.5,187.5l736,0" class="g2_125" />
<path d="M887.5,187.5l0,-1" class="g2_125" />
<path d="M46.5,211.5l0,-24" class="g2_125" />
<path d="M149.5,211.5l0,-24" class="g2_125" />
<path d="M887.5,211.5l0,-24" class="g2_125" />
<path fill-rule="evenodd" d="M47,236l102,0l0,-23L47,213l0,23Z" class="g1_125" />
<g clip-path="url(#c8_125)">
<path fill-rule="evenodd" d="M55,236l87,0l0,-23l-87,0l0,23Z" class="g1_125" />
</g>
<path fill-rule="evenodd" d="M151,236l736,0l0,-23l-736,0l0,23Z" class="g1_125" />
<g clip-path="url(#c9_125)">
<path fill-rule="evenodd" d="M158,236l722,0l0,-23l-722,0l0,23Z" class="g1_125" />
</g>
<path d="M46.5,212.5l0,-1" class="g2_125" />
<path d="M47.5,212.5l102,0" class="g2_125" />
<path d="M149.5,212.5l0,-1" class="g2_125" />
<path d="M151.5,212.5l736,0" class="g2_125" />
<path d="M887.5,212.5l0,-1" class="g2_125" />
<path d="M46.5,236.5l0,-24" class="g2_125" />
<path d="M149.5,236.5l0,-24" class="g2_125" />
<path d="M887.5,236.5l0,-24" class="g2_125" />
<path fill-rule="evenodd" d="M47,286l102,0l0,-48L47,238l0,48Z" class="g1_125" />
<g clip-path="url(#c10_125)">
<path fill-rule="evenodd" d="M55,262l87,0l0,-24l-87,0l0,24Z" class="g1_125" />
</g>
<path fill-rule="evenodd" d="M151,286l736,0l0,-48l-736,0l0,48Z" class="g1_125" />
<g clip-path="url(#c11_125)">
<path fill-rule="evenodd" d="M158,262l722,0l0,-24l-722,0l0,24Z" class="g1_125" />
</g>
<path fill-rule="evenodd" d="M158,286l722,0l0,-24l-722,0l0,24Z" class="g1_125" />
<path d="M46.5,238.5l0,-2" class="g2_125" />
<path d="M47.5,238.5l102,0" class="g2_125" />
<path d="M149.5,238.5l0,-2" class="g2_125" />
<path d="M151.5,238.5l736,0" class="g2_125" />
<path d="M887.5,238.5l0,-2" class="g2_125" />
<path d="M46.5,286.5l0,-48" class="g2_125" />
<path d="M46.5,287.5l0,-1" class="g2_125" />
<path d="M46.5,287.5l0,-1" class="g2_125" />
<path d="M47.5,287.5l102,0" class="g2_125" />
<path d="M149.5,286.5l0,-48" class="g2_125" />
<path d="M149.5,287.5l0,-1" class="g2_125" />
<path d="M151.5,287.5l736,0" class="g2_125" />
<path d="M887.5,286.5l0,-48" class="g2_125" />
<path d="M887.5,287.5l0,-1" class="g2_125" />
<path d="M887.5,287.5l0,-1" class="g2_125" />
<path fill-rule="evenodd" d="M47,542l840,0l0,-182L47,360l0,182Z" class="g1_125" />
<g clip-path="url(#c12_125)">
<path fill-rule="evenodd" d="M55,391l825,0l0,-31L55,360l0,31Z" class="g1_125" />
<path d="M45.5,361.5l0,-1" class="g3_125" />
<path d="M45.5,361.5l0,-1" class="g3_125" />
<path d="M46.5,361.5l842,0" class="g3_125" />
<path d="M888.5,361.5l0,-1" class="g3_125" />
<path d="M888.5,361.5l0,-1" class="g3_125" />
<path d="M45.5,391.5l0,-30" class="g3_125" />
<path d="M888.5,391.5l0,-30" class="g3_125" />
</g>
<path fill-rule="evenodd" d="M55,415l825,0l0,-24L55,391l0,24Z" class="g1_125" />
<g clip-path="url(#c12_125)">
<path d="M45.5,415.5l0,-24" class="g3_125" />
<path d="M888.5,415.5l0,-24" class="g3_125" />
</g>
<path fill-rule="evenodd" d="M55,439l825,0l0,-24L55,415l0,24Z" class="g1_125" />
<g clip-path="url(#c12_125)">
<path d="M45.5,439.5l0,-24" class="g3_125" />
<path d="M888.5,439.5l0,-24" class="g3_125" />
</g>
<path fill-rule="evenodd" d="M55,463l825,0l0,-24L55,439l0,24Z" class="g1_125" />
<g clip-path="url(#c12_125)">
<path d="M45.5,463.5l0,-24" class="g3_125" />
<path d="M888.5,463.5l0,-24" class="g3_125" />
</g>
<path fill-rule="evenodd" d="M55,487l825,0l0,-24L55,463l0,24Z" class="g1_125" />
<g clip-path="url(#c12_125)">
<path d="M45.5,487.5l0,-24" class="g3_125" />
<path d="M888.5,487.5l0,-24" class="g3_125" />
</g>
<path fill-rule="evenodd" d="M55,510l825,0l0,-23L55,487l0,23Z" class="g1_125" />
<g clip-path="url(#c12_125)">
<path d="M45.5,510.5l0,-23" class="g3_125" />
<path d="M888.5,510.5l0,-23" class="g3_125" />
</g>
<path fill-rule="evenodd" d="M55,542l825,0l0,-32L55,510l0,32Z" class="g1_125" />
<g clip-path="url(#c12_125)">
<path d="M45.5,542.5l0,-2" class="g3_125" />
<path d="M45.5,542.5l0,-2" class="g3_125" />
<path d="M46.5,542.5l842,0" class="g3_125" />
<path d="M888.5,542.5l0,-2" class="g3_125" />
<path d="M888.5,542.5l0,-2" class="g3_125" />
<path d="M45.5,540.5l0,-30" class="g3_125" />
<path d="M888.5,540.5l0,-30" class="g3_125" />
</g>
<path d="M46.5,360.5l0,-2" class="g2_125" />
<path d="M46.5,360.5l0,-2" class="g2_125" />
<path d="M47.5,360.5l840,0" class="g2_125" />
<path d="M887.5,360.5l0,-2" class="g2_125" />
<path d="M887.5,360.5l0,-2" class="g2_125" />
<path d="M46.5,542.5l0,-182" class="g2_125" />
<path d="M46.5,543.5l0,-1" class="g2_125" />
<path d="M46.5,543.5l0,-1" class="g2_125" />
<path d="M47.5,543.5l840,0" class="g2_125" />
<path d="M887.5,542.5l0,-182" class="g2_125" />
<path d="M887.5,543.5l0,-1" class="g2_125" />
<path d="M887.5,543.5l0,-1" class="g2_125" />
<path fill-rule="evenodd" d="M47,711l840,0l0,-95L47,616l0,95Z" class="g1_125" />
<g clip-path="url(#c13_125)">
<path fill-rule="evenodd" d="M55,640l825,0l0,-24L55,616l0,24Z" class="g1_125" />
</g>
<path fill-rule="evenodd" d="M55,664l825,0l0,-24L55,640l0,24Z" class="g1_125" />
<path fill-rule="evenodd" d="M55,687l825,0l0,-23L55,664l0,23Z" class="g1_125" />
<path fill-rule="evenodd" d="M55,711l825,0l0,-24L55,687l0,24Z" class="g1_125" />
<path d="M46.5,616.5l0,-2" class="g2_125" />
<path d="M46.5,616.5l0,-2" class="g2_125" />
<path d="M47.5,616.5l840,0" class="g2_125" />
<path d="M887.5,616.5l0,-2" class="g2_125" />
<path d="M887.5,616.5l0,-2" class="g2_125" />
<path d="M46.5,711.5l0,-95" class="g2_125" />
<path d="M46.5,713.5l0,-2" class="g2_125" />
<path d="M46.5,713.5l0,-2" class="g2_125" />
<path d="M47.5,713.5l840,0" class="g2_125" />
<path d="M887.5,711.5l0,-95" class="g2_125" />
<path d="M887.5,713.5l0,-2" class="g2_125" />
<path d="M887.5,713.5l0,-2" class="g2_125" />
<path fill-rule="evenodd" d="M47,1006l840,0l0,-24L47,982l0,24Z" class="g1_125" />
<g clip-path="url(#c14_125)">
<path fill-rule="evenodd" d="M55,1006l825,0l0,-24L55,982l0,24Z" class="g1_125" />
</g>
<path d="M55.5,1002.5l634,0" class="g4_125" />
<path d="M46.5,982.5l0,-2" class="g2_125" />
<path d="M46.5,982.5l0,-2" class="g2_125" />
<path d="M47.5,982.5l840,0" class="g2_125" />
<path d="M887.5,982.5l0,-2" class="g2_125" />
<path d="M887.5,982.5l0,-2" class="g2_125" />
<path d="M46.5,1006.5l0,-24" class="g2_125" />
<path d="M46.5,1007.5l0,-1" class="g2_125" />
<path d="M46.5,1007.5l0,-1" class="g2_125" />
<path d="M47.5,1007.5l840,0" class="g2_125" />
<path d="M887.5,1006.5l0,-24" class="g2_125" />
<path d="M887.5,1007.5l0,-1" class="g2_125" />
<path d="M887.5,1007.5l0,-1" class="g2_125" />
</svg>