<?xml version="1.0" encoding="UTF-8" standalone="no"?>
<!DOCTYPE svg PUBLIC "-//W3C//DTD SVG 1.1//EN"
"http://www.w3.org/Graphics/SVG/1.1/DTD/svg11.dtd">
<svg version="1.1" xmlns="http://www.w3.org/2000/svg" xmlns:xlink="http://www.w3.org/1999/xlink">
<defs>
<clipPath id="c0_365"><path d="M145.5,230.5l0,-119l170,0l0,119Z" /></clipPath>
<clipPath id="c1_365"><path d="M468.5,230.5l0,-119l419,0l0,119Z" /></clipPath>
<clipPath id="c2_365"><path d="M47.5,352.5l0,-23l840,0l0,23Z" /></clipPath>
<clipPath id="c3_365"><path d="M47.5,856.5l0,-477l840,0l0,477Z" /></clipPath>
<clipPath id="c4_365"><path d="M47.5,1074.5l0,-143l840,0l0,143Z" /></clipPath>
<style type="text/css"><![CDATA[
.g2_365{
fill: none;
stroke: #7E7E7E;
stroke-width: 1;
stroke-linecap: butt;
stroke-linejoin: miter;
}
.g1_365{
fill: #F1F1F1;
}
]]></style>
</defs>
<path fill-rule="evenodd" d="M47,230l27,0L74,111l-27,0l0,119Z" class="g1_365" />
<path fill-rule="evenodd" d="M76,230l28,0l0,-119l-28,0l0,119Z" class="g1_365" />
<path fill-rule="evenodd" d="M106,230l37,0l0,-119l-37,0l0,119Z" class="g1_365" />
<path fill-rule="evenodd" d="M145,230l170,0l0,-119l-170,0l0,119Z" class="g1_365" />
<g clip-path="url(#c0_365)">
<path fill-rule="evenodd" d="M152,135l156,0l0,-24l-156,0l0,24Z" class="g1_365" />
</g>
<path fill-rule="evenodd" d="M317,230l81,0l0,-119l-81,0l0,119Z" class="g1_365" />
<path fill-rule="evenodd" d="M399,230l68,0l0,-119l-68,0l0,119Z" class="g1_365" />
<path fill-rule="evenodd" d="M468,230l419,0l0,-119l-419,0l0,119Z" class="g1_365" />
<g clip-path="url(#c1_365)">
<path fill-rule="evenodd" d="M476,135l404,0l0,-24l-404,0l0,24Z" class="g1_365" />
</g>
<path fill-rule="evenodd" d="M476,159l404,0l0,-24l-404,0l0,24Z" class="g1_365" />
<path fill-rule="evenodd" d="M476,182l404,0l0,-23l-404,0l0,23Z" class="g1_365" />
<path fill-rule="evenodd" d="M476,206l404,0l0,-24l-404,0l0,24Z" class="g1_365" />
<path fill-rule="evenodd" d="M476,230l404,0l0,-24l-404,0l0,24Z" class="g1_365" />
<path d="M46.5,111.5l0,-1" class="g2_365" />
<path d="M46.5,111.5l0,-1" class="g2_365" />
<path d="M47.5,111.5l27,0" class="g2_365" />
<path d="M74.5,111.5l0,-1" class="g2_365" />
<path d="M76.5,111.5l28,0" class="g2_365" />
<path d="M104.5,111.5l0,-1" class="g2_365" />
<path d="M106.5,111.5l37,0" class="g2_365" />
<path d="M143.5,111.5l0,-1" class="g2_365" />
<path d="M145.5,111.5l170,0" class="g2_365" />
<path d="M315.5,111.5l0,-1" class="g2_365" />
<path d="M317.5,111.5l81,0" class="g2_365" />
<path d="M398.5,111.5l0,-1" class="g2_365" />
<path d="M399.5,111.5l68,0" class="g2_365" />
<path d="M467.5,111.5l0,-1" class="g2_365" />
<path d="M468.5,111.5l419,0" class="g2_365" />
<path d="M887.5,111.5l0,-1" class="g2_365" />
<path d="M887.5,111.5l0,-1" class="g2_365" />
<path d="M46.5,230.5l0,-119" class="g2_365" />
<path d="M46.5,232.5l0,-2" class="g2_365" />
<path d="M46.5,232.5l0,-2" class="g2_365" />
<path d="M47.5,232.5l27,0" class="g2_365" />
<path d="M74.5,230.5l0,-119" class="g2_365" />
<path d="M74.5,232.5l0,-2" class="g2_365" />
<path d="M76.5,232.5l28,0" class="g2_365" />
<path d="M104.5,230.5l0,-119" class="g2_365" />
<path d="M104.5,232.5l0,-2" class="g2_365" />
<path d="M106.5,232.5l37,0" class="g2_365" />
<path d="M143.5,230.5l0,-119" class="g2_365" />
<path d="M143.5,232.5l0,-2" class="g2_365" />
<path d="M145.5,232.5l170,0" class="g2_365" />
<path d="M315.5,230.5l0,-119" class="g2_365" />
<path d="M315.5,232.5l0,-2" class="g2_365" />
<path d="M317.5,232.5l81,0" class="g2_365" />
<path d="M398.5,230.5l0,-119" class="g2_365" />
<path d="M398.5,232.5l0,-2" class="g2_365" />
<path d="M399.5,232.5l68,0" class="g2_365" />
<path d="M467.5,230.5l0,-119" class="g2_365" />
<path d="M467.5,232.5l0,-2" class="g2_365" />
<path d="M468.5,232.5l419,0" class="g2_365" />
<path d="M887.5,230.5l0,-119" class="g2_365" />
<path d="M887.5,232.5l0,-2" class="g2_365" />
<path d="M887.5,232.5l0,-2" class="g2_365" />
<path fill-rule="evenodd" d="M47,352l840,0l0,-23L47,329l0,23Z" class="g1_365" />
<g clip-path="url(#c2_365)">
<path fill-rule="evenodd" d="M55,352l825,0l0,-23L55,329l0,23Z" class="g1_365" />
</g>
<path d="M46.5,329.5l0,-2" class="g2_365" />
<path d="M46.5,329.5l0,-2" class="g2_365" />
<path d="M47.5,329.5l840,0" class="g2_365" />
<path d="M887.5,329.5l0,-2" class="g2_365" />
<path d="M887.5,329.5l0,-2" class="g2_365" />
<path d="M46.5,352.5l0,-23" class="g2_365" />
<path d="M46.5,354.5l0,-2" class="g2_365" />
<path d="M46.5,354.5l0,-2" class="g2_365" />
<path d="M47.5,354.5l840,0" class="g2_365" />
<path d="M887.5,352.5l0,-23" class="g2_365" />
<path d="M887.5,354.5l0,-2" class="g2_365" />
<path d="M887.5,354.5l0,-2" class="g2_365" />
<path fill-rule="evenodd" d="M47,856l840,0l0,-477L47,379l0,477Z" class="g1_365" />
<g clip-path="url(#c3_365)">
<path fill-rule="evenodd" d="M55,403l825,0l0,-24L55,379l0,24Z" class="g1_365" />
</g>
<path fill-rule="evenodd" d="M55,427l825,0l0,-24L55,403l0,24Z" class="g1_365" />
<path fill-rule="evenodd" d="M55,451l825,0l0,-24L55,427l0,24Z" class="g1_365" />
<path fill-rule="evenodd" d="M55,475l825,0l0,-24L55,451l0,24Z" class="g1_365" />
<path fill-rule="evenodd" d="M55,499l825,0l0,-24L55,475l0,24Z" class="g1_365" />
<path fill-rule="evenodd" d="M55,522l825,0l0,-23L55,499l0,23Z" class="g1_365" />
<path fill-rule="evenodd" d="M55,546l825,0l0,-24L55,522l0,24Z" class="g1_365" />
<path fill-rule="evenodd" d="M55,570l825,0l0,-24L55,546l0,24Z" class="g1_365" />
<path fill-rule="evenodd" d="M55,594l825,0l0,-24L55,570l0,24Z" class="g1_365" />
<path fill-rule="evenodd" d="M55,618l825,0l0,-24L55,594l0,24Z" class="g1_365" />
<path fill-rule="evenodd" d="M55,642l825,0l0,-24L55,618l0,24Z" class="g1_365" />
<path fill-rule="evenodd" d="M55,665l825,0l0,-23L55,642l0,23Z" class="g1_365" />
<path fill-rule="evenodd" d="M55,689l825,0l0,-24L55,665l0,24Z" class="g1_365" />
<path fill-rule="evenodd" d="M55,713l825,0l0,-24L55,689l0,24Z" class="g1_365" />
<path fill-rule="evenodd" d="M55,737l825,0l0,-24L55,713l0,24Z" class="g1_365" />
<path fill-rule="evenodd" d="M55,761l825,0l0,-24L55,737l0,24Z" class="g1_365" />
<path fill-rule="evenodd" d="M55,785l825,0l0,-24L55,761l0,24Z" class="g1_365" />
<path fill-rule="evenodd" d="M55,808l825,0l0,-23L55,785l0,23Z" class="g1_365" />
<path fill-rule="evenodd" d="M55,832l825,0l0,-24L55,808l0,24Z" class="g1_365" />
<path fill-rule="evenodd" d="M55,856l825,0l0,-24L55,832l0,24Z" class="g1_365" />
<path d="M46.5,379.5l0,-1" class="g2_365" />
<path d="M46.5,379.5l0,-1" class="g2_365" />
<path d="M47.5,379.5l840,0" class="g2_365" />
<path d="M887.5,379.5l0,-1" class="g2_365" />
<path d="M887.5,379.5l0,-1" class="g2_365" />
<path d="M46.5,856.5l0,-477" class="g2_365" />
<path d="M46.5,858.5l0,-2" class="g2_365" />
<path d="M46.5,858.5l0,-2" class="g2_365" />
<path d="M47.5,858.5l840,0" class="g2_365" />
<path d="M887.5,856.5l0,-477" class="g2_365" />
<path d="M887.5,858.5l0,-2" class="g2_365" />
<path d="M887.5,858.5l0,-2" class="g2_365" />
<path fill-rule="evenodd" d="M47,1074l840,0l0,-143L47,931l0,143Z" class="g1_365" />
<path fill-rule="evenodd" d="M55,954l825,0l0,-23L55,931l0,23Z" class="g1_365" />
<path fill-rule="evenodd" d="M55,978l825,0l0,-24L55,954l0,24Z" class="g1_365" />
<path fill-rule="evenodd" d="M55,1002l825,0l0,-24L55,978l0,24Z" class="g1_365" />
<path fill-rule="evenodd" d="M55,1026l825,0l0,-24l-825,0l0,24Z" class="g1_365" />
<path fill-rule="evenodd" d="M55,1050l825,0l0,-24l-825,0l0,24Z" class="g1_365" />
<g clip-path="url(#c4_365)">
<path fill-rule="evenodd" d="M55,1074l825,0l0,-24l-825,0l0,24Z" class="g1_365" />
</g>
<path d="M46.5,931.5l0,-2" class="g2_365" />
<path d="M46.5,931.5l0,-2" class="g2_365" />
<path d="M47.5,931.5l840,0" class="g2_365" />
<path d="M887.5,931.5l0,-2" class="g2_365" />
<path d="M887.5,931.5l0,-2" class="g2_365" />
<path d="M46.5,1074.5l0,-143" class="g2_365" />
<path d="M46.5,1075.5l0,-1" class="g2_365" />
<path d="M46.5,1075.5l0,-1" class="g2_365" />
<path d="M47.5,1075.5l840,0" class="g2_365" />
<path d="M887.5,1074.5l0,-143" class="g2_365" />
<path d="M887.5,1075.5l0,-1" class="g2_365" />
<path d="M887.5,1075.5l0,-1" class="g2_365" />
</svg>