<?xml version="1.0" encoding="UTF-8" standalone="no"?>
<!DOCTYPE svg PUBLIC "-//W3C//DTD SVG 1.1//EN"
"http://www.w3.org/Graphics/SVG/1.1/DTD/svg11.dtd">
<svg version="1.1" xmlns="http://www.w3.org/2000/svg" xmlns:xlink="http://www.w3.org/1999/xlink">
<defs>
<clipPath id="c0_64"><path d="M47.5,261.5l0,-150l840,0l0,150Z" /></clipPath>
<clipPath id="c1_64"><path d="M47.5,431.5l0,-95l840,0l0,95Z" /></clipPath>
<clipPath id="c2_64"><path d="M47.5,797.5l0,-24l840,0l0,24Z" /></clipPath>
<clipPath id="c3_64"><path d="M47.5,904.5l0,-24l179,0l0,24Z" /></clipPath>
<clipPath id="c4_64"><path d="M227.5,904.5l0,-24l163,0l0,24Z" /></clipPath>
<clipPath id="c5_64"><path d="M392.5,904.5l0,-24l495,0l0,24Z" /></clipPath>
<clipPath id="c6_64"><path d="M47.5,930.5l0,-24l179,0l0,24Z" /></clipPath>
<clipPath id="c7_64"><path d="M227.5,930.5l0,-24l163,0l0,24Z" /></clipPath>
<clipPath id="c8_64"><path d="M392.5,930.5l0,-24l495,0l0,24Z" /></clipPath>
<clipPath id="c9_64"><path d="M47.5,1004.5l0,-24l178,0l0,24Z" /></clipPath>
<clipPath id="c10_64"><path d="M227.5,1004.5l0,-24l163,0l0,24Z" /></clipPath>
<clipPath id="c11_64"><path d="M392.5,1004.5l0,-24l164,0l0,24Z" /></clipPath>
<clipPath id="c12_64"><path d="M558.5,1004.5l0,-24l163,0l0,24Z" /></clipPath>
<clipPath id="c13_64"><path d="M723.5,1004.5l0,-24l164,0l0,24Z" /></clipPath>
<clipPath id="c14_64"><path d="M47.5,1029.5l0,-23l178,0l0,23Z" /></clipPath>
<clipPath id="c15_64"><path d="M227.5,1029.5l0,-23l163,0l0,23Z" /></clipPath>
<clipPath id="c16_64"><path d="M392.5,1029.5l0,-23l164,0l0,23Z" /></clipPath>
<clipPath id="c17_64"><path d="M558.5,1029.5l0,-23l163,0l0,23Z" /></clipPath>
<clipPath id="c18_64"><path d="M723.5,1029.5l0,-23l164,0l0,23Z" /></clipPath>
<style type="text/css"><![CDATA[
.g4_64{
fill: none;
stroke: #0000FF;
stroke-width: 1;
stroke-linecap: butt;
stroke-linejoin: miter;
}
.g2_64{
fill: none;
stroke: #F0F0E0;
stroke-width: 1;
stroke-linecap: butt;
stroke-linejoin: miter;
}
.g3_64{
fill: none;
stroke: #7E7E7E;
stroke-width: 1;
stroke-linecap: butt;
stroke-linejoin: miter;
}
.g5_64{
fill: #DBE5F1;
}
.g1_64{
fill: #F1F1F1;
}
]]></style>
</defs>
<path fill-rule="evenodd" d="M47,261l840,0l0,-150L47,111l0,150Z" class="g1_64" />
<g clip-path="url(#c0_64)">
<path fill-rule="evenodd" d="M55,135l825,0l0,-24L55,111l0,24Z" class="g1_64" />
<path d="M45.5,135.5l0,-24" class="g2_64" />
<path d="M888.5,135.5l0,-24" class="g2_64" />
</g>
<path fill-rule="evenodd" d="M55,159l825,0l0,-24L55,135l0,24Z" class="g1_64" />
<g clip-path="url(#c0_64)">
<path d="M45.5,159.5l0,-24" class="g2_64" />
<path d="M888.5,159.5l0,-24" class="g2_64" />
</g>
<path fill-rule="evenodd" d="M55,182l825,0l0,-23L55,159l0,23Z" class="g1_64" />
<g clip-path="url(#c0_64)">
<path d="M45.5,182.5l0,-23" class="g2_64" />
<path d="M888.5,182.5l0,-23" class="g2_64" />
</g>
<path fill-rule="evenodd" d="M55,206l825,0l0,-24L55,182l0,24Z" class="g1_64" />
<g clip-path="url(#c0_64)">
<path d="M45.5,206.5l0,-24" class="g2_64" />
<path d="M888.5,206.5l0,-24" class="g2_64" />
</g>
<path fill-rule="evenodd" d="M55,230l825,0l0,-24L55,206l0,24Z" class="g1_64" />
<g clip-path="url(#c0_64)">
<path d="M45.5,230.5l0,-24" class="g2_64" />
<path d="M888.5,230.5l0,-24" class="g2_64" />
</g>
<path fill-rule="evenodd" d="M55,261l825,0l0,-31L55,230l0,31Z" class="g1_64" />
<g clip-path="url(#c0_64)">
<path d="M45.5,261.5l0,-1" class="g2_64" />
<path d="M45.5,261.5l0,-1" class="g2_64" />
<path d="M46.5,261.5l842,0" class="g2_64" />
<path d="M888.5,261.5l0,-1" class="g2_64" />
<path d="M888.5,261.5l0,-1" class="g2_64" />
<path d="M45.5,260.5l0,-30" class="g2_64" />
<path d="M888.5,260.5l0,-30" class="g2_64" />
</g>
<path d="M46.5,111.5l0,-1" class="g3_64" />
<path d="M46.5,111.5l0,-1" class="g3_64" />
<path d="M47.5,111.5l840,0" class="g3_64" />
<path d="M887.5,111.5l0,-1" class="g3_64" />
<path d="M887.5,111.5l0,-1" class="g3_64" />
<path d="M46.5,261.5l0,-150" class="g3_64" />
<path d="M46.5,263.5l0,-2" class="g3_64" />
<path d="M46.5,263.5l0,-2" class="g3_64" />
<path d="M47.5,263.5l840,0" class="g3_64" />
<path d="M887.5,261.5l0,-150" class="g3_64" />
<path d="M887.5,263.5l0,-2" class="g3_64" />
<path d="M887.5,263.5l0,-2" class="g3_64" />
<path fill-rule="evenodd" d="M47,431l840,0l0,-95L47,336l0,95Z" class="g1_64" />
<g clip-path="url(#c1_64)">
<path fill-rule="evenodd" d="M55,360l825,0l0,-24L55,336l0,24Z" class="g1_64" />
</g>
<path fill-rule="evenodd" d="M55,384l825,0l0,-24L55,360l0,24Z" class="g1_64" />
<path fill-rule="evenodd" d="M55,407l825,0l0,-23L55,384l0,23Z" class="g1_64" />
<path fill-rule="evenodd" d="M55,431l825,0l0,-24L55,407l0,24Z" class="g1_64" />
<path d="M46.5,336.5l0,-2" class="g3_64" />
<path d="M46.5,336.5l0,-2" class="g3_64" />
<path d="M47.5,336.5l840,0" class="g3_64" />
<path d="M887.5,336.5l0,-2" class="g3_64" />
<path d="M887.5,336.5l0,-2" class="g3_64" />
<path d="M46.5,431.5l0,-95" class="g3_64" />
<path d="M46.5,433.5l0,-2" class="g3_64" />
<path d="M46.5,433.5l0,-2" class="g3_64" />
<path d="M47.5,433.5l840,0" class="g3_64" />
<path d="M887.5,431.5l0,-95" class="g3_64" />
<path d="M887.5,433.5l0,-2" class="g3_64" />
<path d="M887.5,433.5l0,-2" class="g3_64" />
<path d="M610.5,588.5l227,0" class="g4_64" />
<path fill-rule="evenodd" d="M47,797l840,0l0,-24L47,773l0,24Z" class="g1_64" />
<g clip-path="url(#c2_64)">
<path fill-rule="evenodd" d="M55,797l825,0l0,-24L55,773l0,24Z" class="g1_64" />
</g>
<path d="M46.5,773.5l0,-1" class="g3_64" />
<path d="M46.5,773.5l0,-1" class="g3_64" />
<path d="M47.5,773.5l840,0" class="g3_64" />
<path d="M887.5,773.5l0,-1" class="g3_64" />
<path d="M887.5,773.5l0,-1" class="g3_64" />
<path d="M46.5,797.5l0,-24" class="g3_64" />
<path d="M46.5,799.5l0,-2" class="g3_64" />
<path d="M46.5,799.5l0,-2" class="g3_64" />
<path d="M47.5,799.5l840,0" class="g3_64" />
<path d="M887.5,797.5l0,-24" class="g3_64" />
<path d="M887.5,799.5l0,-2" class="g3_64" />
<path d="M887.5,799.5l0,-2" class="g3_64" />
<path fill-rule="evenodd" d="M47,904l179,0l0,-24L47,880l0,24Z" class="g5_64" />
<g clip-path="url(#c3_64)">
<path fill-rule="evenodd" d="M55,904l163,0l0,-24L55,880l0,24Z" class="g5_64" />
</g>
<path fill-rule="evenodd" d="M227,904l163,0l0,-24l-163,0l0,24Z" class="g5_64" />
<g clip-path="url(#c4_64)">
<path fill-rule="evenodd" d="M235,904l148,0l0,-24l-148,0l0,24Z" class="g5_64" />
</g>
<path fill-rule="evenodd" d="M392,904l495,0l0,-24l-495,0l0,24Z" class="g5_64" />
<g clip-path="url(#c5_64)">
<path fill-rule="evenodd" d="M400,904l480,0l0,-24l-480,0l0,24Z" class="g5_64" />
</g>
<path d="M46.5,880.5l0,-1" class="g3_64" />
<path d="M46.5,880.5l0,-1" class="g3_64" />
<path d="M47.5,880.5l179,0" class="g3_64" />
<path d="M226.5,880.5l0,-1" class="g3_64" />
<path d="M227.5,880.5l164,0" class="g3_64" />
<path d="M391.5,880.5l0,-1" class="g3_64" />
<path d="M392.5,880.5l495,0" class="g3_64" />
<path d="M887.5,880.5l0,-1" class="g3_64" />
<path d="M887.5,880.5l0,-1" class="g3_64" />
<path d="M46.5,904.5l0,-24" class="g3_64" />
<path d="M226.5,904.5l0,-24" class="g3_64" />
<path d="M391.5,904.5l0,-24" class="g3_64" />
<path d="M887.5,904.5l0,-24" class="g3_64" />
<path fill-rule="evenodd" d="M47,930l179,0l0,-24L47,906l0,24Z" class="g1_64" />
<g clip-path="url(#c6_64)">
<path fill-rule="evenodd" d="M55,930l163,0l0,-24L55,906l0,24Z" class="g1_64" />
</g>
<path fill-rule="evenodd" d="M227,930l163,0l0,-24l-163,0l0,24Z" class="g1_64" />
<g clip-path="url(#c7_64)">
<path fill-rule="evenodd" d="M235,930l148,0l0,-24l-148,0l0,24Z" class="g1_64" />
</g>
<path fill-rule="evenodd" d="M392,930l495,0l0,-24l-495,0l0,24Z" class="g1_64" />
<g clip-path="url(#c8_64)">
<path fill-rule="evenodd" d="M400,930l480,0l0,-24l-480,0l0,24Z" class="g1_64" />
</g>
<path d="M46.5,906.5l0,-2" class="g3_64" />
<path d="M47.5,906.5l179,0" class="g3_64" />
<path d="M226.5,906.5l0,-2" class="g3_64" />
<path d="M227.5,906.5l164,0" class="g3_64" />
<path d="M391.5,906.5l0,-2" class="g3_64" />
<path d="M392.5,906.5l495,0" class="g3_64" />
<path d="M887.5,906.5l0,-2" class="g3_64" />
<path d="M46.5,930.5l0,-24" class="g3_64" />
<path d="M46.5,931.5l0,-1" class="g3_64" />
<path d="M46.5,931.5l0,-1" class="g3_64" />
<path d="M47.5,931.5l179,0" class="g3_64" />
<path d="M226.5,930.5l0,-24" class="g3_64" />
<path d="M226.5,931.5l0,-1" class="g3_64" />
<path d="M227.5,931.5l164,0" class="g3_64" />
<path d="M391.5,930.5l0,-24" class="g3_64" />
<path d="M391.5,931.5l0,-1" class="g3_64" />
<path d="M392.5,931.5l495,0" class="g3_64" />
<path d="M887.5,930.5l0,-24" class="g3_64" />
<path d="M887.5,931.5l0,-1" class="g3_64" />
<path d="M887.5,931.5l0,-1" class="g3_64" />
<path fill-rule="evenodd" d="M47,1004l178,0l0,-24L47,980l0,24Z" class="g5_64" />
<g clip-path="url(#c9_64)">
<path fill-rule="evenodd" d="M55,1004l163,0l0,-24L55,980l0,24Z" class="g5_64" />
</g>
<path fill-rule="evenodd" d="M227,1004l163,0l0,-24l-163,0l0,24Z" class="g5_64" />
<g clip-path="url(#c10_64)">
<path fill-rule="evenodd" d="M234,1004l149,0l0,-24l-149,0l0,24Z" class="g5_64" />
</g>
<path fill-rule="evenodd" d="M392,1004l164,0l0,-24l-164,0l0,24Z" class="g5_64" />
<g clip-path="url(#c11_64)">
<path fill-rule="evenodd" d="M399,1004l149,0l0,-24l-149,0l0,24Z" class="g5_64" />
</g>
<path fill-rule="evenodd" d="M557,1004l164,0l0,-24l-164,0l0,24Z" class="g5_64" />
<g clip-path="url(#c12_64)">
<path fill-rule="evenodd" d="M565,1004l149,0l0,-24l-149,0l0,24Z" class="g5_64" />
</g>
<path fill-rule="evenodd" d="M723,1004l164,0l0,-24l-164,0l0,24Z" class="g5_64" />
<g clip-path="url(#c13_64)">
<path fill-rule="evenodd" d="M730,1004l150,0l0,-24l-150,0l0,24Z" class="g5_64" />
</g>
<path d="M46.5,980.5l0,-1" class="g3_64" />
<path d="M46.5,980.5l0,-1" class="g3_64" />
<path d="M47.5,980.5l178,0" class="g3_64" />
<path d="M225.5,980.5l0,-1" class="g3_64" />
<path d="M227.5,980.5l163,0" class="g3_64" />
<path d="M390.5,980.5l0,-1" class="g3_64" />
<path d="M392.5,980.5l164,0" class="g3_64" />
<path d="M556.5,980.5l0,-1" class="g3_64" />
<path d="M557.5,980.5l164,0" class="g3_64" />
<path d="M721.5,980.5l0,-1" class="g3_64" />
<path d="M723.5,980.5l164,0" class="g3_64" />
<path d="M887.5,980.5l0,-1" class="g3_64" />
<path d="M887.5,980.5l0,-1" class="g3_64" />
<path d="M46.5,1004.5l0,-24" class="g3_64" />
<path d="M225.5,1004.5l0,-24" class="g3_64" />
<path d="M390.5,1004.5l0,-24" class="g3_64" />
<path d="M556.5,1004.5l0,-24" class="g3_64" />
<path d="M721.5,1004.5l0,-24" class="g3_64" />
<path d="M887.5,1004.5l0,-24" class="g3_64" />
<path fill-rule="evenodd" d="M47,1029l178,0l0,-23l-178,0l0,23Z" class="g1_64" />
<g clip-path="url(#c14_64)">
<path fill-rule="evenodd" d="M55,1029l163,0l0,-23l-163,0l0,23Z" class="g1_64" />
</g>
<path fill-rule="evenodd" d="M227,1029l163,0l0,-23l-163,0l0,23Z" class="g1_64" />
<g clip-path="url(#c15_64)">
<path fill-rule="evenodd" d="M234,1029l149,0l0,-23l-149,0l0,23Z" class="g1_64" />
</g>
<path fill-rule="evenodd" d="M392,1029l164,0l0,-23l-164,0l0,23Z" class="g1_64" />
<g clip-path="url(#c16_64)">
<path fill-rule="evenodd" d="M399,1029l149,0l0,-23l-149,0l0,23Z" class="g1_64" />
</g>
<path fill-rule="evenodd" d="M557,1029l164,0l0,-23l-164,0l0,23Z" class="g1_64" />
<g clip-path="url(#c17_64)">
<path fill-rule="evenodd" d="M565,1029l149,0l0,-23l-149,0l0,23Z" class="g1_64" />
</g>
<path fill-rule="evenodd" d="M723,1029l164,0l0,-23l-164,0l0,23Z" class="g1_64" />
<g clip-path="url(#c18_64)">
<path fill-rule="evenodd" d="M730,1029l150,0l0,-23l-150,0l0,23Z" class="g1_64" />
</g>
<path d="M46.5,1006.5l0,-2" class="g3_64" />
<path d="M47.5,1006.5l178,0" class="g3_64" />
<path d="M225.5,1006.5l0,-2" class="g3_64" />
<path d="M227.5,1006.5l163,0" class="g3_64" />
<path d="M390.5,1006.5l0,-2" class="g3_64" />
<path d="M392.5,1006.5l164,0" class="g3_64" />
<path d="M556.5,1006.5l0,-2" class="g3_64" />
<path d="M557.5,1006.5l164,0" class="g3_64" />
<path d="M721.5,1006.5l0,-2" class="g3_64" />
<path d="M723.5,1006.5l164,0" class="g3_64" />
<path d="M887.5,1006.5l0,-2" class="g3_64" />
<path d="M46.5,1030.5l0,-24" class="g3_64" />
<path d="M46.5,1031.5l0,-1" class="g3_64" />
<path d="M46.5,1031.5l0,-1" class="g3_64" />
<path d="M47.5,1031.5l178,0" class="g3_64" />
<path d="M225.5,1030.5l0,-24" class="g3_64" />
<path d="M225.5,1031.5l0,-1" class="g3_64" />
<path d="M227.5,1031.5l163,0" class="g3_64" />
<path d="M390.5,1030.5l0,-24" class="g3_64" />
<path d="M390.5,1031.5l0,-1" class="g3_64" />
<path d="M392.5,1031.5l164,0" class="g3_64" />
<path d="M556.5,1030.5l0,-24" class="g3_64" />
<path d="M556.5,1031.5l0,-1" class="g3_64" />
<path d="M557.5,1031.5l164,0" class="g3_64" />
<path d="M721.5,1030.5l0,-24" class="g3_64" />
<path d="M721.5,1031.5l0,-1" class="g3_64" />
<path d="M723.5,1031.5l164,0" class="g3_64" />
<path d="M887.5,1030.5l0,-24" class="g3_64" />
<path d="M887.5,1031.5l0,-1" class="g3_64" />
<path d="M887.5,1031.5l0,-1" class="g3_64" />
</svg>