<?xml version="1.0" encoding="UTF-8" standalone="no"?>
<!DOCTYPE svg PUBLIC "-//W3C//DTD SVG 1.1//EN"
"http://www.w3.org/Graphics/SVG/1.1/DTD/svg11.dtd">
<svg version="1.1" xmlns="http://www.w3.org/2000/svg" xmlns:xlink="http://www.w3.org/1999/xlink">
<defs>
<clipPath id="c0_404"><path d="M275.5,564.5l0,-453l143,0l0,453Z" /></clipPath>
<clipPath id="c1_404"><path d="M420.5,564.5l0,-453l95,0l0,453Z" /></clipPath>
<clipPath id="c2_404"><path d="M516.5,564.5l0,-453l371,0l0,453Z" /></clipPath>
<clipPath id="c3_404"><path d="M83.5,767.5l0,-33l335,0l0,33Z" /></clipPath>
<clipPath id="c4_404"><path d="M420.5,767.5l0,-33l95,0l0,33Z" /></clipPath>
<clipPath id="c5_404"><path d="M516.5,767.5l0,-33l371,0l0,33Z" /></clipPath>
<clipPath id="c6_404"><path d="M83.5,798.5l0,-30l335,0l0,30Z" /></clipPath>
<clipPath id="c7_404"><path d="M420.5,798.5l0,-30l95,0l0,30Z" /></clipPath>
<clipPath id="c8_404"><path d="M516.5,798.5l0,-30l371,0l0,30Z" /></clipPath>
<clipPath id="c9_404"><path d="M47.5,920.5l0,-24l840,0l0,24Z" /></clipPath>
<clipPath id="c10_404"><path d="M47.5,1090.5l0,-143l840,0l0,143Z" /></clipPath>
<style type="text/css"><![CDATA[
.g2_404{
fill: none;
stroke: #7E7E7E;
stroke-width: 1;
stroke-linecap: butt;
stroke-linejoin: miter;
}
.g1_404{
fill: #F1F1F1;
}
]]></style>
</defs>
<path fill-rule="evenodd" d="M47,564l34,0L81,111l-34,0l0,453Z" class="g1_404" />
<path fill-rule="evenodd" d="M83,564l40,0l0,-453l-40,0l0,453Z" class="g1_404" />
<path fill-rule="evenodd" d="M124,564l33,0l0,-453l-33,0l0,453Z" class="g1_404" />
<path fill-rule="evenodd" d="M159,564l39,0l0,-453l-39,0l0,453Z" class="g1_404" />
<path fill-rule="evenodd" d="M200,564l74,0l0,-453l-74,0l0,453Z" class="g1_404" />
<path fill-rule="evenodd" d="M275,564l143,0l0,-453l-143,0l0,453Z" class="g1_404" />
<g clip-path="url(#c0_404)">
<path fill-rule="evenodd" d="M283,135l128,0l0,-24l-128,0l0,24Z" class="g1_404" />
</g>
<path fill-rule="evenodd" d="M283,159l128,0l0,-24l-128,0l0,24Z" class="g1_404" />
<path fill-rule="evenodd" d="M420,564l95,0l0,-453l-95,0l0,453Z" class="g1_404" />
<g clip-path="url(#c1_404)">
<path fill-rule="evenodd" d="M427,135l80,0l0,-24l-80,0l0,24Z" class="g1_404" />
</g>
<path fill-rule="evenodd" d="M516,564l371,0l0,-453l-371,0l0,453Z" class="g1_404" />
<g clip-path="url(#c2_404)">
<path fill-rule="evenodd" d="M524,135l356,0l0,-24l-356,0l0,24Z" class="g1_404" />
</g>
<path fill-rule="evenodd" d="M524,159l356,0l0,-24l-356,0l0,24Z" class="g1_404" />
<path fill-rule="evenodd" d="M524,182l356,0l0,-23l-356,0l0,23Z" class="g1_404" />
<path fill-rule="evenodd" d="M524,206l356,0l0,-24l-356,0l0,24Z" class="g1_404" />
<path fill-rule="evenodd" d="M524,230l356,0l0,-24l-356,0l0,24Z" class="g1_404" />
<path fill-rule="evenodd" d="M524,254l356,0l0,-24l-356,0l0,24Z" class="g1_404" />
<path fill-rule="evenodd" d="M524,278l356,0l0,-24l-356,0l0,24Z" class="g1_404" />
<path fill-rule="evenodd" d="M524,302l356,0l0,-24l-356,0l0,24Z" class="g1_404" />
<path fill-rule="evenodd" d="M524,325l356,0l0,-23l-356,0l0,23Z" class="g1_404" />
<path fill-rule="evenodd" d="M524,349l356,0l0,-24l-356,0l0,24Z" class="g1_404" />
<path fill-rule="evenodd" d="M524,373l356,0l0,-24l-356,0l0,24Z" class="g1_404" />
<path fill-rule="evenodd" d="M524,397l356,0l0,-24l-356,0l0,24Z" class="g1_404" />
<path fill-rule="evenodd" d="M524,421l356,0l0,-24l-356,0l0,24Z" class="g1_404" />
<path fill-rule="evenodd" d="M524,445l356,0l0,-24l-356,0l0,24Z" class="g1_404" />
<path fill-rule="evenodd" d="M524,469l356,0l0,-24l-356,0l0,24Z" class="g1_404" />
<path fill-rule="evenodd" d="M524,492l356,0l0,-23l-356,0l0,23Z" class="g1_404" />
<path fill-rule="evenodd" d="M524,516l356,0l0,-24l-356,0l0,24Z" class="g1_404" />
<path fill-rule="evenodd" d="M524,540l356,0l0,-24l-356,0l0,24Z" class="g1_404" />
<path fill-rule="evenodd" d="M524,564l356,0l0,-24l-356,0l0,24Z" class="g1_404" />
<path d="M46.5,111.5l0,-1" class="g2_404" />
<path d="M46.5,111.5l0,-1" class="g2_404" />
<path d="M47.5,111.5l34,0" class="g2_404" />
<path d="M81.5,111.5l0,-1" class="g2_404" />
<path d="M83.5,111.5l40,0" class="g2_404" />
<path d="M123.5,111.5l0,-1" class="g2_404" />
<path d="M124.5,111.5l33,0" class="g2_404" />
<path d="M157.5,111.5l0,-1" class="g2_404" />
<path d="M159.5,111.5l39,0" class="g2_404" />
<path d="M198.5,111.5l0,-1" class="g2_404" />
<path d="M200.5,111.5l74,0" class="g2_404" />
<path d="M274.5,111.5l0,-1" class="g2_404" />
<path d="M275.5,111.5l143,0" class="g2_404" />
<path d="M418.5,111.5l0,-1" class="g2_404" />
<path d="M420.5,111.5l95,0" class="g2_404" />
<path d="M515.5,111.5l0,-1" class="g2_404" />
<path d="M516.5,111.5l371,0" class="g2_404" />
<path d="M887.5,111.5l0,-1" class="g2_404" />
<path d="M887.5,111.5l0,-1" class="g2_404" />
<path d="M46.5,564.5l0,-453" class="g2_404" />
<path d="M81.5,564.5l0,-453" class="g2_404" />
<path d="M123.5,564.5l0,-453" class="g2_404" />
<path d="M157.5,564.5l0,-453" class="g2_404" />
<path d="M198.5,564.5l0,-453" class="g2_404" />
<path d="M274.5,564.5l0,-453" class="g2_404" />
<path d="M418.5,564.5l0,-453" class="g2_404" />
<path d="M515.5,564.5l0,-453" class="g2_404" />
<path d="M887.5,564.5l0,-453" class="g2_404" />
<path fill-rule="evenodd" d="M47,732l34,0L81,564l-34,0l0,168Z" class="g1_404" />
<path fill-rule="evenodd" d="M83,732l40,0l0,-168l-40,0l0,168Z" class="g1_404" />
<path fill-rule="evenodd" d="M124,732l33,0l0,-168l-33,0l0,168Z" class="g1_404" />
<path fill-rule="evenodd" d="M159,732l39,0l0,-168l-39,0l0,168Z" class="g1_404" />
<path fill-rule="evenodd" d="M200,732l74,0l0,-168l-74,0l0,168Z" class="g1_404" />
<path fill-rule="evenodd" d="M275,732l143,0l0,-166l-143,0l0,166Z" class="g1_404" />
<path fill-rule="evenodd" d="M283,589l128,0l0,-23l-128,0l0,23Z" class="g1_404" />
<path fill-rule="evenodd" d="M420,732l95,0l0,-166l-95,0l0,166Z" class="g1_404" />
<path fill-rule="evenodd" d="M427,589l80,0l0,-23l-80,0l0,23Z" class="g1_404" />
<path fill-rule="evenodd" d="M516,732l371,0l0,-166l-371,0l0,166Z" class="g1_404" />
<path fill-rule="evenodd" d="M524,589l356,0l0,-23l-356,0l0,23Z" class="g1_404" />
<path fill-rule="evenodd" d="M524,613l356,0l0,-24l-356,0l0,24Z" class="g1_404" />
<path fill-rule="evenodd" d="M524,637l356,0l0,-24l-356,0l0,24Z" class="g1_404" />
<path fill-rule="evenodd" d="M524,661l356,0l0,-24l-356,0l0,24Z" class="g1_404" />
<path fill-rule="evenodd" d="M524,685l356,0l0,-24l-356,0l0,24Z" class="g1_404" />
<path fill-rule="evenodd" d="M524,709l356,0l0,-24l-356,0l0,24Z" class="g1_404" />
<path fill-rule="evenodd" d="M524,732l356,0l0,-23l-356,0l0,23Z" class="g1_404" />
<path d="M46.5,565.5l0,-1" class="g2_404" />
<path d="M81.5,565.5l0,-1" class="g2_404" />
<path d="M123.5,565.5l0,-1" class="g2_404" />
<path d="M157.5,565.5l0,-1" class="g2_404" />
<path d="M198.5,565.5l0,-1" class="g2_404" />
<path d="M274.5,565.5l0,-1" class="g2_404" />
<path d="M275.5,565.5l143,0" class="g2_404" />
<path d="M418.5,565.5l0,-1" class="g2_404" />
<path d="M420.5,565.5l95,0" class="g2_404" />
<path d="M515.5,565.5l0,-1" class="g2_404" />
<path d="M516.5,565.5l371,0" class="g2_404" />
<path d="M887.5,565.5l0,-1" class="g2_404" />
<path d="M46.5,732.5l0,-167" class="g2_404" />
<path d="M81.5,732.5l0,-167" class="g2_404" />
<path d="M123.5,732.5l0,-167" class="g2_404" />
<path d="M157.5,732.5l0,-167" class="g2_404" />
<path d="M198.5,732.5l0,-167" class="g2_404" />
<path d="M274.5,732.5l0,-167" class="g2_404" />
<path d="M418.5,732.5l0,-167" class="g2_404" />
<path d="M515.5,732.5l0,-167" class="g2_404" />
<path d="M887.5,732.5l0,-167" class="g2_404" />
<path fill-rule="evenodd" d="M47,767l34,0l0,-35l-34,0l0,35Z" class="g1_404" />
<path fill-rule="evenodd" d="M83,767l335,0l0,-33L83,734l0,33Z" class="g1_404" />
<g clip-path="url(#c3_404)">
<path fill-rule="evenodd" d="M90,758l321,0l0,-24L90,734l0,24Z" class="g1_404" />
</g>
<path fill-rule="evenodd" d="M420,767l95,0l0,-33l-95,0l0,33Z" class="g1_404" />
<g clip-path="url(#c4_404)">
<path fill-rule="evenodd" d="M427,758l80,0l0,-24l-80,0l0,24Z" class="g1_404" />
</g>
<path fill-rule="evenodd" d="M516,767l371,0l0,-33l-371,0l0,33Z" class="g1_404" />
<g clip-path="url(#c5_404)">
<path fill-rule="evenodd" d="M524,758l356,0l0,-24l-356,0l0,24Z" class="g1_404" />
</g>
<path d="M46.5,734.5l0,-2" class="g2_404" />
<path d="M81.5,734.5l0,-2" class="g2_404" />
<path d="M83.5,734.5l40,0" class="g2_404" />
<path d="M123.5,734.5l0,-2" class="g2_404" />
<path d="M124.5,734.5l33,0" class="g2_404" />
<path d="M157.5,734.5l0,-2" class="g2_404" />
<path d="M159.5,734.5l39,0" class="g2_404" />
<path d="M198.5,734.5l0,-2" class="g2_404" />
<path d="M200.5,734.5l74,0" class="g2_404" />
<path d="M274.5,734.5l0,-2" class="g2_404" />
<path d="M275.5,734.5l143,0" class="g2_404" />
<path d="M418.5,734.5l0,-2" class="g2_404" />
<path d="M420.5,734.5l95,0" class="g2_404" />
<path d="M515.5,734.5l0,-2" class="g2_404" />
<path d="M516.5,734.5l371,0" class="g2_404" />
<path d="M887.5,734.5l0,-2" class="g2_404" />
<path d="M46.5,767.5l0,-33" class="g2_404" />
<path d="M81.5,767.5l0,-33" class="g2_404" />
<path d="M418.5,767.5l0,-33" class="g2_404" />
<path d="M515.5,767.5l0,-33" class="g2_404" />
<path d="M887.5,767.5l0,-33" class="g2_404" />
<path fill-rule="evenodd" d="M47,798l34,0l0,-31l-34,0l0,31Z" class="g1_404" />
<path fill-rule="evenodd" d="M83,798l335,0l0,-30L83,768l0,30Z" class="g1_404" />
<g clip-path="url(#c6_404)">
<path fill-rule="evenodd" d="M90,792l321,0l0,-24L90,768l0,24Z" class="g1_404" />
</g>
<path fill-rule="evenodd" d="M420,798l95,0l0,-30l-95,0l0,30Z" class="g1_404" />
<g clip-path="url(#c7_404)">
<path fill-rule="evenodd" d="M427,792l80,0l0,-24l-80,0l0,24Z" class="g1_404" />
</g>
<path fill-rule="evenodd" d="M516,798l371,0l0,-30l-371,0l0,30Z" class="g1_404" />
<g clip-path="url(#c8_404)">
<path fill-rule="evenodd" d="M524,792l356,0l0,-24l-356,0l0,24Z" class="g1_404" />
</g>
<path d="M46.5,768.5l0,-1" class="g2_404" />
<path d="M81.5,768.5l0,-1" class="g2_404" />
<path d="M83.5,768.5l335,0" class="g2_404" />
<path d="M418.5,768.5l0,-1" class="g2_404" />
<path d="M420.5,768.5l95,0" class="g2_404" />
<path d="M515.5,768.5l0,-1" class="g2_404" />
<path d="M516.5,768.5l371,0" class="g2_404" />
<path d="M887.5,768.5l0,-1" class="g2_404" />
<path d="M46.5,798.5l0,-30" class="g2_404" />
<path d="M46.5,799.5l0,-1" class="g2_404" />
<path d="M46.5,799.5l0,-1" class="g2_404" />
<path d="M47.5,799.5l34,0" class="g2_404" />
<path d="M81.5,798.5l0,-30" class="g2_404" />
<path d="M81.5,799.5l0,-1" class="g2_404" />
<path d="M83.5,799.5l335,0" class="g2_404" />
<path d="M418.5,798.5l0,-30" class="g2_404" />
<path d="M418.5,799.5l0,-1" class="g2_404" />
<path d="M420.5,799.5l95,0" class="g2_404" />
<path d="M515.5,798.5l0,-30" class="g2_404" />
<path d="M515.5,799.5l0,-1" class="g2_404" />
<path d="M516.5,799.5l371,0" class="g2_404" />
<path d="M887.5,798.5l0,-30" class="g2_404" />
<path d="M887.5,799.5l0,-1" class="g2_404" />
<path d="M887.5,799.5l0,-1" class="g2_404" />
<path fill-rule="evenodd" d="M47,920l840,0l0,-24L47,896l0,24Z" class="g1_404" />
<g clip-path="url(#c9_404)">
<path fill-rule="evenodd" d="M55,920l825,0l0,-24L55,896l0,24Z" class="g1_404" />
</g>
<path d="M46.5,896.5l0,-2" class="g2_404" />
<path d="M46.5,896.5l0,-2" class="g2_404" />
<path d="M47.5,896.5l840,0" class="g2_404" />
<path d="M887.5,896.5l0,-2" class="g2_404" />
<path d="M887.5,896.5l0,-2" class="g2_404" />
<path d="M46.5,920.5l0,-24" class="g2_404" />
<path d="M46.5,921.5l0,-1" class="g2_404" />
<path d="M46.5,921.5l0,-1" class="g2_404" />
<path d="M47.5,921.5l840,0" class="g2_404" />
<path d="M887.5,920.5l0,-24" class="g2_404" />
<path d="M887.5,921.5l0,-1" class="g2_404" />
<path d="M887.5,921.5l0,-1" class="g2_404" />
<path fill-rule="evenodd" d="M47,1090l840,0l0,-143L47,947l0,143Z" class="g1_404" />
<path fill-rule="evenodd" d="M55,971l825,0l0,-24L55,947l0,24Z" class="g1_404" />
<path fill-rule="evenodd" d="M55,994l825,0l0,-23L55,971l0,23Z" class="g1_404" />
<path fill-rule="evenodd" d="M55,1018l825,0l0,-24L55,994l0,24Z" class="g1_404" />
<path fill-rule="evenodd" d="M55,1042l825,0l0,-24l-825,0l0,24Z" class="g1_404" />
<path fill-rule="evenodd" d="M55,1066l825,0l0,-24l-825,0l0,24Z" class="g1_404" />
<g clip-path="url(#c10_404)">
<path fill-rule="evenodd" d="M55,1090l825,0l0,-24l-825,0l0,24Z" class="g1_404" />
</g>
<path d="M46.5,947.5l0,-2" class="g2_404" />
<path d="M46.5,947.5l0,-2" class="g2_404" />
<path d="M47.5,947.5l840,0" class="g2_404" />
<path d="M887.5,947.5l0,-2" class="g2_404" />
<path d="M887.5,947.5l0,-2" class="g2_404" />
<path d="M46.5,1090.5l0,-143" class="g2_404" />
<path d="M46.5,1091.5l0,-1" class="g2_404" />
<path d="M46.5,1091.5l0,-1" class="g2_404" />
<path d="M47.5,1091.5l840,0" class="g2_404" />
<path d="M887.5,1090.5l0,-143" class="g2_404" />
<path d="M887.5,1091.5l0,-1" class="g2_404" />
<path d="M887.5,1091.5l0,-1" class="g2_404" />
</svg>