<?xml version="1.0" encoding="UTF-8" standalone="no"?>
<!DOCTYPE svg PUBLIC "-//W3C//DTD SVG 1.1//EN"
"http://www.w3.org/Graphics/SVG/1.1/DTD/svg11.dtd">
<svg version="1.1" xmlns="http://www.w3.org/2000/svg" xmlns:xlink="http://www.w3.org/1999/xlink">
<defs>
<clipPath id="c0_79"><path d="M47.5,340.5l0,-181l840,0l0,181Z" /></clipPath>
<clipPath id="c1_79"><path d="M47.5,713.5l0,-24l840,0l0,24Z" /></clipPath>
<clipPath id="c2_79"><path d="M47.5,820.5l0,-24l179,0l0,24Z" /></clipPath>
<clipPath id="c3_79"><path d="M227.5,820.5l0,-24l163,0l0,24Z" /></clipPath>
<clipPath id="c4_79"><path d="M392.5,820.5l0,-24l495,0l0,24Z" /></clipPath>
<clipPath id="c5_79"><path d="M47.5,846.5l0,-24l179,0l0,24Z" /></clipPath>
<clipPath id="c6_79"><path d="M227.5,846.5l0,-24l163,0l0,24Z" /></clipPath>
<clipPath id="c7_79"><path d="M392.5,846.5l0,-24l495,0l0,24Z" /></clipPath>
<clipPath id="c8_79"><path d="M47.5,920.5l0,-24l178,0l0,24Z" /></clipPath>
<clipPath id="c9_79"><path d="M227.5,920.5l0,-24l163,0l0,24Z" /></clipPath>
<clipPath id="c10_79"><path d="M392.5,920.5l0,-24l164,0l0,24Z" /></clipPath>
<clipPath id="c11_79"><path d="M558.5,920.5l0,-24l163,0l0,24Z" /></clipPath>
<clipPath id="c12_79"><path d="M723.5,920.5l0,-24l164,0l0,24Z" /></clipPath>
<clipPath id="c13_79"><path d="M47.5,945.5l0,-23l178,0l0,23Z" /></clipPath>
<clipPath id="c14_79"><path d="M227.5,945.5l0,-23l163,0l0,23Z" /></clipPath>
<clipPath id="c15_79"><path d="M392.5,945.5l0,-23l164,0l0,23Z" /></clipPath>
<clipPath id="c16_79"><path d="M558.5,945.5l0,-23l163,0l0,23Z" /></clipPath>
<clipPath id="c17_79"><path d="M723.5,945.5l0,-23l164,0l0,23Z" /></clipPath>
<style type="text/css"><![CDATA[
.g2_79{
fill: none;
stroke: #F0F0E0;
stroke-width: 1;
stroke-linecap: butt;
stroke-linejoin: miter;
}
.g3_79{
fill: none;
stroke: #7E7E7E;
stroke-width: 1;
stroke-linecap: butt;
stroke-linejoin: miter;
}
.g4_79{
fill: #DBE5F1;
}
.g1_79{
fill: #F1F1F1;
}
]]></style>
</defs>
<path fill-rule="evenodd" d="M47,340l840,0l0,-181L47,159l0,181Z" class="g1_79" />
<g clip-path="url(#c0_79)">
<path fill-rule="evenodd" d="M55,190l825,0l0,-31L55,159l0,31Z" class="g1_79" />
<path d="M45.5,160.5l0,-1" class="g2_79" />
<path d="M45.5,160.5l0,-1" class="g2_79" />
<path d="M46.5,160.5l842,0" class="g2_79" />
<path d="M888.5,160.5l0,-1" class="g2_79" />
<path d="M888.5,160.5l0,-1" class="g2_79" />
<path d="M45.5,190.5l0,-30" class="g2_79" />
<path d="M888.5,190.5l0,-30" class="g2_79" />
</g>
<path fill-rule="evenodd" d="M55,214l825,0l0,-24L55,190l0,24Z" class="g1_79" />
<g clip-path="url(#c0_79)">
<path d="M45.5,214.5l0,-24" class="g2_79" />
<path d="M888.5,214.5l0,-24" class="g2_79" />
</g>
<path fill-rule="evenodd" d="M55,237l825,0l0,-23L55,214l0,23Z" class="g1_79" />
<g clip-path="url(#c0_79)">
<path d="M45.5,237.5l0,-23" class="g2_79" />
<path d="M888.5,237.5l0,-23" class="g2_79" />
</g>
<path fill-rule="evenodd" d="M55,261l825,0l0,-24L55,237l0,24Z" class="g1_79" />
<g clip-path="url(#c0_79)">
<path d="M45.5,261.5l0,-24" class="g2_79" />
<path d="M888.5,261.5l0,-24" class="g2_79" />
</g>
<path fill-rule="evenodd" d="M55,285l825,0l0,-24L55,261l0,24Z" class="g1_79" />
<g clip-path="url(#c0_79)">
<path d="M45.5,285.5l0,-24" class="g2_79" />
<path d="M888.5,285.5l0,-24" class="g2_79" />
</g>
<path fill-rule="evenodd" d="M55,309l825,0l0,-24L55,285l0,24Z" class="g1_79" />
<g clip-path="url(#c0_79)">
<path d="M45.5,309.5l0,-24" class="g2_79" />
<path d="M888.5,309.5l0,-24" class="g2_79" />
</g>
<path fill-rule="evenodd" d="M55,340l825,0l0,-31L55,309l0,31Z" class="g1_79" />
<g clip-path="url(#c0_79)">
<path d="M45.5,340.5l0,-1" class="g2_79" />
<path d="M45.5,340.5l0,-1" class="g2_79" />
<path d="M46.5,340.5l842,0" class="g2_79" />
<path d="M888.5,340.5l0,-1" class="g2_79" />
<path d="M888.5,340.5l0,-1" class="g2_79" />
<path d="M45.5,339.5l0,-30" class="g2_79" />
<path d="M888.5,339.5l0,-30" class="g2_79" />
</g>
<path d="M46.5,159.5l0,-2" class="g3_79" />
<path d="M46.5,159.5l0,-2" class="g3_79" />
<path d="M47.5,159.5l840,0" class="g3_79" />
<path d="M887.5,159.5l0,-2" class="g3_79" />
<path d="M887.5,159.5l0,-2" class="g3_79" />
<path d="M46.5,340.5l0,-181" class="g3_79" />
<path d="M46.5,342.5l0,-2" class="g3_79" />
<path d="M46.5,342.5l0,-2" class="g3_79" />
<path d="M47.5,342.5l840,0" class="g3_79" />
<path d="M887.5,340.5l0,-181" class="g3_79" />
<path d="M887.5,342.5l0,-2" class="g3_79" />
<path d="M887.5,342.5l0,-2" class="g3_79" />
<path fill-rule="evenodd" d="M47,510l840,0l0,-95L47,415l0,95Z" class="g1_79" />
<path fill-rule="evenodd" d="M55,438l825,0l0,-23L55,415l0,23Z" class="g1_79" />
<path fill-rule="evenodd" d="M55,462l825,0l0,-24L55,438l0,24Z" class="g1_79" />
<path fill-rule="evenodd" d="M55,486l825,0l0,-24L55,462l0,24Z" class="g1_79" />
<path fill-rule="evenodd" d="M55,510l825,0l0,-24L55,486l0,24Z" class="g1_79" />
<path d="M46.5,415.5l0,-2" class="g3_79" />
<path d="M46.5,415.5l0,-2" class="g3_79" />
<path d="M47.5,415.5l840,0" class="g3_79" />
<path d="M887.5,415.5l0,-2" class="g3_79" />
<path d="M887.5,415.5l0,-2" class="g3_79" />
<path d="M46.5,510.5l0,-95" class="g3_79" />
<path d="M46.5,511.5l0,-1" class="g3_79" />
<path d="M46.5,511.5l0,-1" class="g3_79" />
<path d="M47.5,511.5l840,0" class="g3_79" />
<path d="M887.5,510.5l0,-95" class="g3_79" />
<path d="M887.5,511.5l0,-1" class="g3_79" />
<path d="M887.5,511.5l0,-1" class="g3_79" />
<path fill-rule="evenodd" d="M47,713l840,0l0,-24L47,689l0,24Z" class="g1_79" />
<g clip-path="url(#c1_79)">
<path fill-rule="evenodd" d="M55,713l825,0l0,-24L55,689l0,24Z" class="g1_79" />
</g>
<path d="M46.5,689.5l0,-1" class="g3_79" />
<path d="M46.5,689.5l0,-1" class="g3_79" />
<path d="M47.5,689.5l840,0" class="g3_79" />
<path d="M887.5,689.5l0,-1" class="g3_79" />
<path d="M887.5,689.5l0,-1" class="g3_79" />
<path d="M46.5,713.5l0,-24" class="g3_79" />
<path d="M46.5,715.5l0,-2" class="g3_79" />
<path d="M46.5,715.5l0,-2" class="g3_79" />
<path d="M47.5,715.5l840,0" class="g3_79" />
<path d="M887.5,713.5l0,-24" class="g3_79" />
<path d="M887.5,715.5l0,-2" class="g3_79" />
<path d="M887.5,715.5l0,-2" class="g3_79" />
<path fill-rule="evenodd" d="M47,820l179,0l0,-24L47,796l0,24Z" class="g4_79" />
<g clip-path="url(#c2_79)">
<path fill-rule="evenodd" d="M55,820l163,0l0,-24L55,796l0,24Z" class="g4_79" />
</g>
<path fill-rule="evenodd" d="M227,820l163,0l0,-24l-163,0l0,24Z" class="g4_79" />
<g clip-path="url(#c3_79)">
<path fill-rule="evenodd" d="M235,820l148,0l0,-24l-148,0l0,24Z" class="g4_79" />
</g>
<path fill-rule="evenodd" d="M392,820l495,0l0,-24l-495,0l0,24Z" class="g4_79" />
<g clip-path="url(#c4_79)">
<path fill-rule="evenodd" d="M400,820l480,0l0,-24l-480,0l0,24Z" class="g4_79" />
</g>
<path d="M46.5,796.5l0,-1" class="g3_79" />
<path d="M46.5,796.5l0,-1" class="g3_79" />
<path d="M47.5,796.5l179,0" class="g3_79" />
<path d="M226.5,796.5l0,-1" class="g3_79" />
<path d="M227.5,796.5l164,0" class="g3_79" />
<path d="M391.5,796.5l0,-1" class="g3_79" />
<path d="M392.5,796.5l495,0" class="g3_79" />
<path d="M887.5,796.5l0,-1" class="g3_79" />
<path d="M887.5,796.5l0,-1" class="g3_79" />
<path d="M46.5,820.5l0,-24" class="g3_79" />
<path d="M226.5,820.5l0,-24" class="g3_79" />
<path d="M391.5,820.5l0,-24" class="g3_79" />
<path d="M887.5,820.5l0,-24" class="g3_79" />
<path fill-rule="evenodd" d="M47,846l179,0l0,-24L47,822l0,24Z" class="g1_79" />
<g clip-path="url(#c5_79)">
<path fill-rule="evenodd" d="M55,846l163,0l0,-24L55,822l0,24Z" class="g1_79" />
</g>
<path fill-rule="evenodd" d="M227,846l163,0l0,-24l-163,0l0,24Z" class="g1_79" />
<g clip-path="url(#c6_79)">
<path fill-rule="evenodd" d="M235,846l148,0l0,-24l-148,0l0,24Z" class="g1_79" />
</g>
<path fill-rule="evenodd" d="M392,846l495,0l0,-24l-495,0l0,24Z" class="g1_79" />
<g clip-path="url(#c7_79)">
<path fill-rule="evenodd" d="M400,846l480,0l0,-24l-480,0l0,24Z" class="g1_79" />
</g>
<path d="M46.5,821.5l0,-1" class="g3_79" />
<path d="M47.5,821.5l179,0" class="g3_79" />
<path d="M226.5,821.5l0,-1" class="g3_79" />
<path d="M227.5,821.5l164,0" class="g3_79" />
<path d="M391.5,821.5l0,-1" class="g3_79" />
<path d="M392.5,821.5l495,0" class="g3_79" />
<path d="M887.5,821.5l0,-1" class="g3_79" />
<path d="M46.5,846.5l0,-25" class="g3_79" />
<path d="M46.5,847.5l0,-1" class="g3_79" />
<path d="M46.5,847.5l0,-1" class="g3_79" />
<path d="M47.5,847.5l179,0" class="g3_79" />
<path d="M226.5,846.5l0,-25" class="g3_79" />
<path d="M226.5,847.5l0,-1" class="g3_79" />
<path d="M227.5,847.5l164,0" class="g3_79" />
<path d="M391.5,846.5l0,-25" class="g3_79" />
<path d="M391.5,847.5l0,-1" class="g3_79" />
<path d="M392.5,847.5l495,0" class="g3_79" />
<path d="M887.5,846.5l0,-25" class="g3_79" />
<path d="M887.5,847.5l0,-1" class="g3_79" />
<path d="M887.5,847.5l0,-1" class="g3_79" />
<path fill-rule="evenodd" d="M47,920l178,0l0,-24L47,896l0,24Z" class="g4_79" />
<g clip-path="url(#c8_79)">
<path fill-rule="evenodd" d="M55,920l163,0l0,-24L55,896l0,24Z" class="g4_79" />
</g>
<path fill-rule="evenodd" d="M227,920l163,0l0,-24l-163,0l0,24Z" class="g4_79" />
<g clip-path="url(#c9_79)">
<path fill-rule="evenodd" d="M234,920l149,0l0,-24l-149,0l0,24Z" class="g4_79" />
</g>
<path fill-rule="evenodd" d="M392,920l164,0l0,-24l-164,0l0,24Z" class="g4_79" />
<g clip-path="url(#c10_79)">
<path fill-rule="evenodd" d="M399,920l149,0l0,-24l-149,0l0,24Z" class="g4_79" />
</g>
<path fill-rule="evenodd" d="M557,920l164,0l0,-24l-164,0l0,24Z" class="g4_79" />
<g clip-path="url(#c11_79)">
<path fill-rule="evenodd" d="M565,920l149,0l0,-24l-149,0l0,24Z" class="g4_79" />
</g>
<path fill-rule="evenodd" d="M723,920l164,0l0,-24l-164,0l0,24Z" class="g4_79" />
<g clip-path="url(#c12_79)">
<path fill-rule="evenodd" d="M730,920l150,0l0,-24l-150,0l0,24Z" class="g4_79" />
</g>
<path d="M46.5,896.5l0,-1" class="g3_79" />
<path d="M46.5,896.5l0,-1" class="g3_79" />
<path d="M47.5,896.5l178,0" class="g3_79" />
<path d="M225.5,896.5l0,-1" class="g3_79" />
<path d="M227.5,896.5l163,0" class="g3_79" />
<path d="M390.5,896.5l0,-1" class="g3_79" />
<path d="M392.5,896.5l164,0" class="g3_79" />
<path d="M556.5,896.5l0,-1" class="g3_79" />
<path d="M557.5,896.5l164,0" class="g3_79" />
<path d="M721.5,896.5l0,-1" class="g3_79" />
<path d="M723.5,896.5l164,0" class="g3_79" />
<path d="M887.5,896.5l0,-1" class="g3_79" />
<path d="M887.5,896.5l0,-1" class="g3_79" />
<path d="M46.5,920.5l0,-24" class="g3_79" />
<path d="M225.5,920.5l0,-24" class="g3_79" />
<path d="M390.5,920.5l0,-24" class="g3_79" />
<path d="M556.5,920.5l0,-24" class="g3_79" />
<path d="M721.5,920.5l0,-24" class="g3_79" />
<path d="M887.5,920.5l0,-24" class="g3_79" />
<path fill-rule="evenodd" d="M47,945l178,0l0,-23L47,922l0,23Z" class="g1_79" />
<g clip-path="url(#c13_79)">
<path fill-rule="evenodd" d="M55,945l163,0l0,-23L55,922l0,23Z" class="g1_79" />
</g>
<path fill-rule="evenodd" d="M227,945l163,0l0,-23l-163,0l0,23Z" class="g1_79" />
<g clip-path="url(#c14_79)">
<path fill-rule="evenodd" d="M234,945l149,0l0,-23l-149,0l0,23Z" class="g1_79" />
</g>
<path fill-rule="evenodd" d="M392,945l164,0l0,-23l-164,0l0,23Z" class="g1_79" />
<g clip-path="url(#c15_79)">
<path fill-rule="evenodd" d="M399,945l149,0l0,-23l-149,0l0,23Z" class="g1_79" />
</g>
<path fill-rule="evenodd" d="M557,945l164,0l0,-23l-164,0l0,23Z" class="g1_79" />
<g clip-path="url(#c16_79)">
<path fill-rule="evenodd" d="M565,945l149,0l0,-23l-149,0l0,23Z" class="g1_79" />
</g>
<path fill-rule="evenodd" d="M723,945l164,0l0,-23l-164,0l0,23Z" class="g1_79" />
<g clip-path="url(#c17_79)">
<path fill-rule="evenodd" d="M730,945l150,0l0,-23l-150,0l0,23Z" class="g1_79" />
</g>
<path d="M46.5,921.5l0,-1" class="g3_79" />
<path d="M47.5,921.5l178,0" class="g3_79" />
<path d="M225.5,921.5l0,-1" class="g3_79" />
<path d="M227.5,921.5l163,0" class="g3_79" />
<path d="M390.5,921.5l0,-1" class="g3_79" />
<path d="M392.5,921.5l164,0" class="g3_79" />
<path d="M556.5,921.5l0,-1" class="g3_79" />
<path d="M557.5,921.5l164,0" class="g3_79" />
<path d="M721.5,921.5l0,-1" class="g3_79" />
<path d="M723.5,921.5l164,0" class="g3_79" />
<path d="M887.5,921.5l0,-1" class="g3_79" />
<path d="M46.5,945.5l0,-24" class="g3_79" />
<path d="M46.5,947.5l0,-2" class="g3_79" />
<path d="M46.5,947.5l0,-2" class="g3_79" />
<path d="M47.5,947.5l178,0" class="g3_79" />
<path d="M225.5,945.5l0,-24" class="g3_79" />
<path d="M225.5,947.5l0,-2" class="g3_79" />
<path d="M227.5,947.5l163,0" class="g3_79" />
<path d="M390.5,945.5l0,-24" class="g3_79" />
<path d="M390.5,947.5l0,-2" class="g3_79" />
<path d="M392.5,947.5l164,0" class="g3_79" />
<path d="M556.5,945.5l0,-24" class="g3_79" />
<path d="M556.5,947.5l0,-2" class="g3_79" />
<path d="M557.5,947.5l164,0" class="g3_79" />
<path d="M721.5,945.5l0,-24" class="g3_79" />
<path d="M721.5,947.5l0,-2" class="g3_79" />
<path d="M723.5,947.5l164,0" class="g3_79" />
<path d="M887.5,945.5l0,-24" class="g3_79" />
<path d="M887.5,947.5l0,-2" class="g3_79" />
<path d="M887.5,947.5l0,-2" class="g3_79" />
</svg>