<?xml version="1.0" encoding="UTF-8" standalone="no"?>
<!DOCTYPE svg PUBLIC "-//W3C//DTD SVG 1.1//EN"
"http://www.w3.org/Graphics/SVG/1.1/DTD/svg11.dtd">
<svg version="1.1" xmlns="http://www.w3.org/2000/svg" xmlns:xlink="http://www.w3.org/1999/xlink">
<defs>
<clipPath id="c0_355"><path d="M47.5,206.5l0,-23l840,0l0,23Z" /></clipPath>
<clipPath id="c1_355"><path d="M47.5,615.5l0,-382l840,0l0,382Z" /></clipPath>
<clipPath id="c2_355"><path d="M47.5,1085.5l0,-396l840,0l0,396Z" /></clipPath>
<style type="text/css"><![CDATA[
.g2_355{
fill: none;
stroke: #7E7E7E;
stroke-width: 1;
stroke-linecap: butt;
stroke-linejoin: miter;
}
.g3_355{
fill: none;
stroke: #F0F0E0;
stroke-width: 1;
stroke-linecap: butt;
stroke-linejoin: miter;
}
.g1_355{
fill: #F1F1F1;
}
]]></style>
</defs>
<path fill-rule="evenodd" d="M47,206l840,0l0,-24L47,182l0,24Z" class="g1_355" />
<g clip-path="url(#c0_355)">
<path fill-rule="evenodd" d="M55,206l825,0l0,-24L55,182l0,24Z" class="g1_355" />
</g>
<path d="M46.5,182.5l0,-1" class="g2_355" />
<path d="M46.5,182.5l0,-1" class="g2_355" />
<path d="M47.5,182.5l840,0" class="g2_355" />
<path d="M887.5,182.5l0,-1" class="g2_355" />
<path d="M887.5,182.5l0,-1" class="g2_355" />
<path d="M46.5,207.5l0,-25" class="g2_355" />
<path d="M46.5,208.5l0,-1" class="g2_355" />
<path d="M46.5,208.5l0,-1" class="g2_355" />
<path d="M47.5,208.5l840,0" class="g2_355" />
<path d="M887.5,207.5l0,-25" class="g2_355" />
<path d="M887.5,208.5l0,-1" class="g2_355" />
<path d="M887.5,208.5l0,-1" class="g2_355" />
<path fill-rule="evenodd" d="M47,615l840,0l0,-382L47,233l0,382Z" class="g1_355" />
<g clip-path="url(#c1_355)">
<path fill-rule="evenodd" d="M55,257l825,0l0,-24L55,233l0,24Z" class="g1_355" />
</g>
<path fill-rule="evenodd" d="M55,281l825,0l0,-24L55,257l0,24Z" class="g1_355" />
<path fill-rule="evenodd" d="M55,305l825,0l0,-24L55,281l0,24Z" class="g1_355" />
<path fill-rule="evenodd" d="M55,329l825,0l0,-24L55,305l0,24Z" class="g1_355" />
<path fill-rule="evenodd" d="M55,352l825,0l0,-23L55,329l0,23Z" class="g1_355" />
<path fill-rule="evenodd" d="M55,376l825,0l0,-24L55,352l0,24Z" class="g1_355" />
<path fill-rule="evenodd" d="M55,400l825,0l0,-24L55,376l0,24Z" class="g1_355" />
<path fill-rule="evenodd" d="M55,424l825,0l0,-24L55,400l0,24Z" class="g1_355" />
<path fill-rule="evenodd" d="M55,448l825,0l0,-24L55,424l0,24Z" class="g1_355" />
<path fill-rule="evenodd" d="M55,472l825,0l0,-24L55,448l0,24Z" class="g1_355" />
<path fill-rule="evenodd" d="M55,495l825,0l0,-23L55,472l0,23Z" class="g1_355" />
<path fill-rule="evenodd" d="M55,519l825,0l0,-24L55,495l0,24Z" class="g1_355" />
<path fill-rule="evenodd" d="M55,543l825,0l0,-24L55,519l0,24Z" class="g1_355" />
<path fill-rule="evenodd" d="M55,567l825,0l0,-24L55,543l0,24Z" class="g1_355" />
<path fill-rule="evenodd" d="M55,591l825,0l0,-24L55,567l0,24Z" class="g1_355" />
<path fill-rule="evenodd" d="M55,615l825,0l0,-24L55,591l0,24Z" class="g1_355" />
<path d="M46.5,233.5l0,-1" class="g2_355" />
<path d="M46.5,233.5l0,-1" class="g2_355" />
<path d="M47.5,233.5l840,0" class="g2_355" />
<path d="M887.5,233.5l0,-1" class="g2_355" />
<path d="M887.5,233.5l0,-1" class="g2_355" />
<path d="M46.5,615.5l0,-382" class="g2_355" />
<path d="M46.5,616.5l0,-1" class="g2_355" />
<path d="M46.5,616.5l0,-1" class="g2_355" />
<path d="M47.5,616.5l840,0" class="g2_355" />
<path d="M887.5,615.5l0,-382" class="g2_355" />
<path d="M887.5,616.5l0,-1" class="g2_355" />
<path d="M887.5,616.5l0,-1" class="g2_355" />
<path fill-rule="evenodd" d="M47,1085l840,0l0,-396L47,689l0,396Z" class="g1_355" />
<g clip-path="url(#c2_355)">
<path fill-rule="evenodd" d="M55,713l825,0l0,-24L55,689l0,24Z" class="g1_355" />
</g>
<path fill-rule="evenodd" d="M55,737l825,0l0,-24L55,713l0,24Z" class="g1_355" />
<path fill-rule="evenodd" d="M55,761l825,0l0,-24L55,737l0,24Z" class="g1_355" />
<path fill-rule="evenodd" d="M55,785l825,0l0,-24L55,761l0,24Z" class="g1_355" />
<path fill-rule="evenodd" d="M55,808l825,0l0,-23L55,785l0,23Z" class="g1_355" />
<path fill-rule="evenodd" d="M55,832l825,0l0,-24L55,808l0,24Z" class="g1_355" />
<path fill-rule="evenodd" d="M55,863l825,0l0,-31L55,832l0,31Z" class="g1_355" />
<g clip-path="url(#c2_355)">
<path d="M45.5,833.5l0,-1" class="g3_355" />
<path d="M45.5,833.5l0,-1" class="g3_355" />
<path d="M46.5,833.5l842,0" class="g3_355" />
<path d="M888.5,833.5l0,-1" class="g3_355" />
<path d="M888.5,833.5l0,-1" class="g3_355" />
<path d="M45.5,863.5l0,-30" class="g3_355" />
<path d="M888.5,863.5l0,-30" class="g3_355" />
</g>
<path fill-rule="evenodd" d="M55,887l825,0l0,-24L55,863l0,24Z" class="g1_355" />
<g clip-path="url(#c2_355)">
<path d="M45.5,887.5l0,-24" class="g3_355" />
<path d="M888.5,887.5l0,-24" class="g3_355" />
</g>
<path fill-rule="evenodd" d="M55,911l825,0l0,-24L55,887l0,24Z" class="g1_355" />
<g clip-path="url(#c2_355)">
<path d="M45.5,911.5l0,-24" class="g3_355" />
<path d="M888.5,911.5l0,-24" class="g3_355" />
</g>
<path fill-rule="evenodd" d="M55,935l825,0l0,-24L55,911l0,24Z" class="g1_355" />
<g clip-path="url(#c2_355)">
<path d="M45.5,935.5l0,-24" class="g3_355" />
<path d="M888.5,935.5l0,-24" class="g3_355" />
</g>
<path fill-rule="evenodd" d="M55,959l825,0l0,-24L55,935l0,24Z" class="g1_355" />
<g clip-path="url(#c2_355)">
<path d="M45.5,959.5l0,-24" class="g3_355" />
<path d="M888.5,959.5l0,-24" class="g3_355" />
</g>
<path fill-rule="evenodd" d="M55,983l825,0l0,-24L55,959l0,24Z" class="g1_355" />
<g clip-path="url(#c2_355)">
<path d="M45.5,983.5l0,-24" class="g3_355" />
<path d="M888.5,983.5l0,-24" class="g3_355" />
</g>
<path fill-rule="evenodd" d="M55,1006l825,0l0,-23L55,983l0,23Z" class="g1_355" />
<g clip-path="url(#c2_355)">
<path d="M45.5,1006.5l0,-23" class="g3_355" />
<path d="M888.5,1006.5l0,-23" class="g3_355" />
</g>
<path fill-rule="evenodd" d="M55,1030l825,0l0,-24l-825,0l0,24Z" class="g1_355" />
<g clip-path="url(#c2_355)">
<path d="M45.5,1030.5l0,-24" class="g3_355" />
<path d="M888.5,1030.5l0,-24" class="g3_355" />
</g>
<path fill-rule="evenodd" d="M55,1061l825,0l0,-31l-825,0l0,31Z" class="g1_355" />
<g clip-path="url(#c2_355)">
<path d="M45.5,1061.5l0,-1" class="g3_355" />
<path d="M45.5,1061.5l0,-1" class="g3_355" />
<path d="M46.5,1061.5l842,0" class="g3_355" />
<path d="M888.5,1061.5l0,-1" class="g3_355" />
<path d="M888.5,1061.5l0,-1" class="g3_355" />
<path d="M45.5,1060.5l0,-30" class="g3_355" />
<path d="M888.5,1060.5l0,-30" class="g3_355" />
<path fill-rule="evenodd" d="M55,1085l825,0l0,-24l-825,0l0,24Z" class="g1_355" />
</g>
<path d="M46.5,689.5l0,-1" class="g2_355" />
<path d="M46.5,689.5l0,-1" class="g2_355" />
<path d="M47.5,689.5l840,0" class="g2_355" />
<path d="M887.5,689.5l0,-1" class="g2_355" />
<path d="M887.5,689.5l0,-1" class="g2_355" />
<path d="M46.5,1085.5l0,-396" class="g2_355" />
<path d="M46.5,1087.5l0,-2" class="g2_355" />
<path d="M46.5,1087.5l0,-2" class="g2_355" />
<path d="M47.5,1087.5l840,0" class="g2_355" />
<path d="M887.5,1085.5l0,-396" class="g2_355" />
<path d="M887.5,1087.5l0,-2" class="g2_355" />
<path d="M887.5,1087.5l0,-2" class="g2_355" />
</svg>