<?xml version="1.0" encoding="UTF-8" standalone="no"?>
<!DOCTYPE svg PUBLIC "-//W3C//DTD SVG 1.1//EN"
"http://www.w3.org/Graphics/SVG/1.1/DTD/svg11.dtd">
<svg version="1.1" xmlns="http://www.w3.org/2000/svg" xmlns:xlink="http://www.w3.org/1999/xlink">
<defs>
<clipPath id="c0_393"><path d="M193.5,159.5l0,-48l211,0l0,48Z" /></clipPath>
<clipPath id="c1_393"><path d="M406.5,159.5l0,-48l74,0l0,48Z" /></clipPath>
<clipPath id="c2_393"><path d="M482.5,159.5l0,-48l405,0l0,48Z" /></clipPath>
<clipPath id="c3_393"><path d="M193.5,208.5l0,-48l211,0l0,48Z" /></clipPath>
<clipPath id="c4_393"><path d="M406.5,208.5l0,-48l74,0l0,48Z" /></clipPath>
<clipPath id="c5_393"><path d="M482.5,208.5l0,-48l405,0l0,48Z" /></clipPath>
<clipPath id="c6_393"><path d="M193.5,257.5l0,-48l211,0l0,48Z" /></clipPath>
<clipPath id="c7_393"><path d="M406.5,257.5l0,-48l74,0l0,48Z" /></clipPath>
<clipPath id="c8_393"><path d="M482.5,257.5l0,-48l405,0l0,48Z" /></clipPath>
<clipPath id="c9_393"><path d="M193.5,306.5l0,-47l211,0l0,47Z" /></clipPath>
<clipPath id="c10_393"><path d="M406.5,306.5l0,-47l74,0l0,47Z" /></clipPath>
<clipPath id="c11_393"><path d="M482.5,306.5l0,-47l405,0l0,47Z" /></clipPath>
<clipPath id="c12_393"><path d="M193.5,356.5l0,-48l211,0l0,48Z" /></clipPath>
<clipPath id="c13_393"><path d="M406.5,356.5l0,-48l74,0l0,48Z" /></clipPath>
<clipPath id="c14_393"><path d="M482.5,356.5l0,-48l405,0l0,48Z" /></clipPath>
<clipPath id="c15_393"><path d="M193.5,405.5l0,-48l211,0l0,48Z" /></clipPath>
<clipPath id="c16_393"><path d="M406.5,405.5l0,-48l74,0l0,48Z" /></clipPath>
<clipPath id="c17_393"><path d="M482.5,405.5l0,-48l405,0l0,48Z" /></clipPath>
<clipPath id="c18_393"><path d="M193.5,700.5l0,-48l211,0l0,48Z" /></clipPath>
<clipPath id="c19_393"><path d="M406.5,700.5l0,-48l74,0l0,48Z" /></clipPath>
<clipPath id="c20_393"><path d="M482.5,700.5l0,-48l405,0l0,48Z" /></clipPath>
<clipPath id="c21_393"><path d="M193.5,749.5l0,-48l211,0l0,48Z" /></clipPath>
<clipPath id="c22_393"><path d="M406.5,749.5l0,-48l74,0l0,48Z" /></clipPath>
<clipPath id="c23_393"><path d="M482.5,749.5l0,-48l405,0l0,48Z" /></clipPath>
<clipPath id="c24_393"><path d="M193.5,798.5l0,-47l211,0l0,47Z" /></clipPath>
<clipPath id="c25_393"><path d="M406.5,798.5l0,-47l74,0l0,47Z" /></clipPath>
<clipPath id="c26_393"><path d="M482.5,798.5l0,-47l405,0l0,47Z" /></clipPath>
<clipPath id="c27_393"><path d="M193.5,848.5l0,-48l211,0l0,48Z" /></clipPath>
<clipPath id="c28_393"><path d="M406.5,848.5l0,-48l74,0l0,48Z" /></clipPath>
<clipPath id="c29_393"><path d="M482.5,848.5l0,-48l405,0l0,48Z" /></clipPath>
<clipPath id="c30_393"><path d="M193.5,897.5l0,-48l211,0l0,48Z" /></clipPath>
<clipPath id="c31_393"><path d="M406.5,897.5l0,-48l74,0l0,48Z" /></clipPath>
<clipPath id="c32_393"><path d="M482.5,897.5l0,-48l405,0l0,48Z" /></clipPath>
<clipPath id="c33_393"><path d="M83.5,928.5l0,-30l321,0l0,30Z" /></clipPath>
<clipPath id="c34_393"><path d="M406.5,928.5l0,-30l74,0l0,30Z" /></clipPath>
<clipPath id="c35_393"><path d="M482.5,928.5l0,-30l405,0l0,30Z" /></clipPath>
<clipPath id="c36_393"><path d="M47.5,1081.5l0,-24l840,0l0,24Z" /></clipPath>
<style type="text/css"><![CDATA[
.g2_393{
fill: none;
stroke: #7E7E7E;
stroke-width: 1;
stroke-linecap: butt;
stroke-linejoin: miter;
}
.g1_393{
fill: #F1F1F1;
}
]]></style>
</defs>
<path fill-rule="evenodd" d="M47,159l34,0l0,-48l-34,0l0,48Z" class="g1_393" />
<path fill-rule="evenodd" d="M83,159l33,0l0,-48l-33,0l0,48Z" class="g1_393" />
<path fill-rule="evenodd" d="M117,159l40,0l0,-48l-40,0l0,48Z" class="g1_393" />
<path fill-rule="evenodd" d="M159,159l32,0l0,-48l-32,0l0,48Z" class="g1_393" />
<path fill-rule="evenodd" d="M193,159l211,0l0,-48l-211,0l0,48Z" class="g1_393" />
<g clip-path="url(#c0_393)">
<path fill-rule="evenodd" d="M200,135l197,0l0,-24l-197,0l0,24Z" class="g1_393" />
</g>
<path fill-rule="evenodd" d="M406,159l74,0l0,-48l-74,0l0,48Z" class="g1_393" />
<g clip-path="url(#c1_393)">
<path fill-rule="evenodd" d="M413,135l60,0l0,-24l-60,0l0,24Z" class="g1_393" />
</g>
<path fill-rule="evenodd" d="M482,159l405,0l0,-48l-405,0l0,48Z" class="g1_393" />
<g clip-path="url(#c2_393)">
<path fill-rule="evenodd" d="M489,135l391,0l0,-24l-391,0l0,24Z" class="g1_393" />
</g>
<path fill-rule="evenodd" d="M489,159l391,0l0,-24l-391,0l0,24Z" class="g1_393" />
<path d="M46.5,111.5l0,-1" class="g2_393" />
<path d="M46.5,111.5l0,-1" class="g2_393" />
<path d="M47.5,111.5l34,0" class="g2_393" />
<path d="M81.5,111.5l0,-1" class="g2_393" />
<path d="M83.5,111.5l33,0" class="g2_393" />
<path d="M116.5,111.5l0,-1" class="g2_393" />
<path d="M117.5,111.5l40,0" class="g2_393" />
<path d="M157.5,111.5l0,-1" class="g2_393" />
<path d="M158.5,111.5l33,0" class="g2_393" />
<path d="M191.5,111.5l0,-1" class="g2_393" />
<path d="M193.5,111.5l212,0" class="g2_393" />
<path d="M405.5,111.5l0,-1" class="g2_393" />
<path d="M406.5,111.5l74,0" class="g2_393" />
<path d="M480.5,111.5l0,-1" class="g2_393" />
<path d="M482.5,111.5l405,0" class="g2_393" />
<path d="M887.5,111.5l0,-1" class="g2_393" />
<path d="M887.5,111.5l0,-1" class="g2_393" />
<path d="M46.5,159.5l0,-48" class="g2_393" />
<path d="M81.5,159.5l0,-48" class="g2_393" />
<path d="M116.5,159.5l0,-48" class="g2_393" />
<path d="M157.5,159.5l0,-48" class="g2_393" />
<path d="M191.5,159.5l0,-48" class="g2_393" />
<path d="M405.5,159.5l0,-48" class="g2_393" />
<path d="M480.5,159.5l0,-48" class="g2_393" />
<path d="M887.5,159.5l0,-48" class="g2_393" />
<path fill-rule="evenodd" d="M47,208l34,0l0,-49l-34,0l0,49Z" class="g1_393" />
<path fill-rule="evenodd" d="M83,208l33,0l0,-49l-33,0l0,49Z" class="g1_393" />
<path fill-rule="evenodd" d="M117,208l40,0l0,-49l-40,0l0,49Z" class="g1_393" />
<path fill-rule="evenodd" d="M159,208l32,0l0,-49l-32,0l0,49Z" class="g1_393" />
<path fill-rule="evenodd" d="M193,208l211,0l0,-48l-211,0l0,48Z" class="g1_393" />
<g clip-path="url(#c3_393)">
<path fill-rule="evenodd" d="M200,184l197,0l0,-24l-197,0l0,24Z" class="g1_393" />
</g>
<path fill-rule="evenodd" d="M406,208l74,0l0,-48l-74,0l0,48Z" class="g1_393" />
<g clip-path="url(#c4_393)">
<path fill-rule="evenodd" d="M413,184l60,0l0,-24l-60,0l0,24Z" class="g1_393" />
</g>
<path fill-rule="evenodd" d="M482,208l405,0l0,-48l-405,0l0,48Z" class="g1_393" />
<g clip-path="url(#c5_393)">
<path fill-rule="evenodd" d="M489,184l391,0l0,-24l-391,0l0,24Z" class="g1_393" />
</g>
<path fill-rule="evenodd" d="M489,208l391,0l0,-24l-391,0l0,24Z" class="g1_393" />
<path d="M46.5,160.5l0,-1" class="g2_393" />
<path d="M81.5,160.5l0,-1" class="g2_393" />
<path d="M116.5,160.5l0,-1" class="g2_393" />
<path d="M157.5,160.5l0,-1" class="g2_393" />
<path d="M191.5,160.5l0,-1" class="g2_393" />
<path d="M193.5,160.5l212,0" class="g2_393" />
<path d="M405.5,160.5l0,-1" class="g2_393" />
<path d="M406.5,160.5l74,0" class="g2_393" />
<path d="M480.5,160.5l0,-1" class="g2_393" />
<path d="M482.5,160.5l405,0" class="g2_393" />
<path d="M887.5,160.5l0,-1" class="g2_393" />
<path d="M46.5,208.5l0,-48" class="g2_393" />
<path d="M81.5,208.5l0,-48" class="g2_393" />
<path d="M116.5,208.5l0,-48" class="g2_393" />
<path d="M157.5,208.5l0,-48" class="g2_393" />
<path d="M191.5,208.5l0,-48" class="g2_393" />
<path d="M405.5,208.5l0,-48" class="g2_393" />
<path d="M480.5,208.5l0,-48" class="g2_393" />
<path d="M887.5,208.5l0,-48" class="g2_393" />
<path fill-rule="evenodd" d="M47,257l34,0l0,-49l-34,0l0,49Z" class="g1_393" />
<path fill-rule="evenodd" d="M83,257l33,0l0,-49l-33,0l0,49Z" class="g1_393" />
<path fill-rule="evenodd" d="M117,257l40,0l0,-49l-40,0l0,49Z" class="g1_393" />
<path fill-rule="evenodd" d="M159,257l32,0l0,-49l-32,0l0,49Z" class="g1_393" />
<path fill-rule="evenodd" d="M193,257l211,0l0,-48l-211,0l0,48Z" class="g1_393" />
<g clip-path="url(#c6_393)">
<path fill-rule="evenodd" d="M200,233l197,0l0,-24l-197,0l0,24Z" class="g1_393" />
</g>
<path fill-rule="evenodd" d="M406,257l74,0l0,-48l-74,0l0,48Z" class="g1_393" />
<g clip-path="url(#c7_393)">
<path fill-rule="evenodd" d="M413,233l60,0l0,-24l-60,0l0,24Z" class="g1_393" />
</g>
<path fill-rule="evenodd" d="M482,257l405,0l0,-48l-405,0l0,48Z" class="g1_393" />
<g clip-path="url(#c8_393)">
<path fill-rule="evenodd" d="M489,233l391,0l0,-24l-391,0l0,24Z" class="g1_393" />
</g>
<path fill-rule="evenodd" d="M489,257l391,0l0,-24l-391,0l0,24Z" class="g1_393" />
<path d="M46.5,209.5l0,-1" class="g2_393" />
<path d="M81.5,209.5l0,-1" class="g2_393" />
<path d="M116.5,209.5l0,-1" class="g2_393" />
<path d="M157.5,209.5l0,-1" class="g2_393" />
<path d="M191.5,209.5l0,-1" class="g2_393" />
<path d="M193.5,209.5l212,0" class="g2_393" />
<path d="M405.5,209.5l0,-1" class="g2_393" />
<path d="M406.5,209.5l74,0" class="g2_393" />
<path d="M480.5,209.5l0,-1" class="g2_393" />
<path d="M482.5,209.5l405,0" class="g2_393" />
<path d="M887.5,209.5l0,-1" class="g2_393" />
<path d="M46.5,257.5l0,-48" class="g2_393" />
<path d="M81.5,257.5l0,-48" class="g2_393" />
<path d="M116.5,257.5l0,-48" class="g2_393" />
<path d="M157.5,257.5l0,-48" class="g2_393" />
<path d="M191.5,257.5l0,-48" class="g2_393" />
<path d="M405.5,257.5l0,-48" class="g2_393" />
<path d="M480.5,257.5l0,-48" class="g2_393" />
<path d="M887.5,257.5l0,-48" class="g2_393" />
<path fill-rule="evenodd" d="M47,306l34,0l0,-49l-34,0l0,49Z" class="g1_393" />
<path fill-rule="evenodd" d="M83,306l33,0l0,-49l-33,0l0,49Z" class="g1_393" />
<path fill-rule="evenodd" d="M117,306l40,0l0,-49l-40,0l0,49Z" class="g1_393" />
<path fill-rule="evenodd" d="M159,306l32,0l0,-49l-32,0l0,49Z" class="g1_393" />
<path fill-rule="evenodd" d="M193,306l211,0l0,-47l-211,0l0,47Z" class="g1_393" />
<g clip-path="url(#c9_393)">
<path fill-rule="evenodd" d="M200,282l197,0l0,-23l-197,0l0,23Z" class="g1_393" />
</g>
<path fill-rule="evenodd" d="M406,306l74,0l0,-47l-74,0l0,47Z" class="g1_393" />
<g clip-path="url(#c10_393)">
<path fill-rule="evenodd" d="M413,282l60,0l0,-23l-60,0l0,23Z" class="g1_393" />
</g>
<path fill-rule="evenodd" d="M482,306l405,0l0,-47l-405,0l0,47Z" class="g1_393" />
<g clip-path="url(#c11_393)">
<path fill-rule="evenodd" d="M489,282l391,0l0,-23l-391,0l0,23Z" class="g1_393" />
</g>
<path fill-rule="evenodd" d="M489,306l391,0l0,-24l-391,0l0,24Z" class="g1_393" />
<path d="M46.5,259.5l0,-2" class="g2_393" />
<path d="M81.5,259.5l0,-2" class="g2_393" />
<path d="M116.5,259.5l0,-2" class="g2_393" />
<path d="M157.5,259.5l0,-2" class="g2_393" />
<path d="M191.5,259.5l0,-2" class="g2_393" />
<path d="M193.5,259.5l212,0" class="g2_393" />
<path d="M405.5,259.5l0,-2" class="g2_393" />
<path d="M406.5,259.5l74,0" class="g2_393" />
<path d="M480.5,259.5l0,-2" class="g2_393" />
<path d="M482.5,259.5l405,0" class="g2_393" />
<path d="M887.5,259.5l0,-2" class="g2_393" />
<path d="M46.5,306.5l0,-47" class="g2_393" />
<path d="M81.5,306.5l0,-47" class="g2_393" />
<path d="M116.5,306.5l0,-47" class="g2_393" />
<path d="M157.5,306.5l0,-47" class="g2_393" />
<path d="M191.5,306.5l0,-47" class="g2_393" />
<path d="M405.5,306.5l0,-47" class="g2_393" />
<path d="M480.5,306.5l0,-47" class="g2_393" />
<path d="M887.5,306.5l0,-47" class="g2_393" />
<path fill-rule="evenodd" d="M47,356l34,0l0,-50l-34,0l0,50Z" class="g1_393" />
<path fill-rule="evenodd" d="M83,356l33,0l0,-50l-33,0l0,50Z" class="g1_393" />
<path fill-rule="evenodd" d="M117,356l40,0l0,-50l-40,0l0,50Z" class="g1_393" />
<path fill-rule="evenodd" d="M159,356l32,0l0,-50l-32,0l0,50Z" class="g1_393" />
<path fill-rule="evenodd" d="M193,356l211,0l0,-48l-211,0l0,48Z" class="g1_393" />
<g clip-path="url(#c12_393)">
<path fill-rule="evenodd" d="M200,332l197,0l0,-24l-197,0l0,24Z" class="g1_393" />
</g>
<path fill-rule="evenodd" d="M406,356l74,0l0,-48l-74,0l0,48Z" class="g1_393" />
<g clip-path="url(#c13_393)">
<path fill-rule="evenodd" d="M413,332l60,0l0,-24l-60,0l0,24Z" class="g1_393" />
</g>
<path fill-rule="evenodd" d="M482,356l405,0l0,-48l-405,0l0,48Z" class="g1_393" />
<g clip-path="url(#c14_393)">
<path fill-rule="evenodd" d="M489,332l391,0l0,-24l-391,0l0,24Z" class="g1_393" />
</g>
<path fill-rule="evenodd" d="M489,356l391,0l0,-24l-391,0l0,24Z" class="g1_393" />
<path d="M46.5,308.5l0,-2" class="g2_393" />
<path d="M81.5,308.5l0,-2" class="g2_393" />
<path d="M116.5,308.5l0,-2" class="g2_393" />
<path d="M157.5,308.5l0,-2" class="g2_393" />
<path d="M191.5,308.5l0,-2" class="g2_393" />
<path d="M193.5,308.5l212,0" class="g2_393" />
<path d="M405.5,308.5l0,-2" class="g2_393" />
<path d="M406.5,308.5l74,0" class="g2_393" />
<path d="M480.5,308.5l0,-2" class="g2_393" />
<path d="M482.5,308.5l405,0" class="g2_393" />
<path d="M887.5,308.5l0,-2" class="g2_393" />
<path d="M46.5,356.5l0,-48" class="g2_393" />
<path d="M81.5,356.5l0,-48" class="g2_393" />
<path d="M116.5,356.5l0,-48" class="g2_393" />
<path d="M157.5,356.5l0,-48" class="g2_393" />
<path d="M191.5,356.5l0,-48" class="g2_393" />
<path d="M405.5,356.5l0,-48" class="g2_393" />
<path d="M480.5,356.5l0,-48" class="g2_393" />
<path d="M887.5,356.5l0,-48" class="g2_393" />
<path fill-rule="evenodd" d="M47,405l34,0l0,-49l-34,0l0,49Z" class="g1_393" />
<path fill-rule="evenodd" d="M83,405l33,0l0,-49l-33,0l0,49Z" class="g1_393" />
<path fill-rule="evenodd" d="M117,405l40,0l0,-49l-40,0l0,49Z" class="g1_393" />
<path fill-rule="evenodd" d="M159,405l32,0l0,-49l-32,0l0,49Z" class="g1_393" />
<path fill-rule="evenodd" d="M193,405l211,0l0,-48l-211,0l0,48Z" class="g1_393" />
<g clip-path="url(#c15_393)">
<path fill-rule="evenodd" d="M200,381l197,0l0,-24l-197,0l0,24Z" class="g1_393" />
</g>
<path fill-rule="evenodd" d="M406,405l74,0l0,-48l-74,0l0,48Z" class="g1_393" />
<g clip-path="url(#c16_393)">
<path fill-rule="evenodd" d="M413,381l60,0l0,-24l-60,0l0,24Z" class="g1_393" />
</g>
<path fill-rule="evenodd" d="M482,405l405,0l0,-48l-405,0l0,48Z" class="g1_393" />
<g clip-path="url(#c17_393)">
<path fill-rule="evenodd" d="M489,381l391,0l0,-24l-391,0l0,24Z" class="g1_393" />
</g>
<path fill-rule="evenodd" d="M489,405l391,0l0,-24l-391,0l0,24Z" class="g1_393" />
<path d="M46.5,357.5l0,-1" class="g2_393" />
<path d="M81.5,357.5l0,-1" class="g2_393" />
<path d="M116.5,357.5l0,-1" class="g2_393" />
<path d="M157.5,357.5l0,-1" class="g2_393" />
<path d="M191.5,357.5l0,-1" class="g2_393" />
<path d="M193.5,357.5l212,0" class="g2_393" />
<path d="M405.5,357.5l0,-1" class="g2_393" />
<path d="M406.5,357.5l74,0" class="g2_393" />
<path d="M480.5,357.5l0,-1" class="g2_393" />
<path d="M482.5,357.5l405,0" class="g2_393" />
<path d="M887.5,357.5l0,-1" class="g2_393" />
<path d="M46.5,405.5l0,-48" class="g2_393" />
<path d="M81.5,405.5l0,-48" class="g2_393" />
<path d="M116.5,405.5l0,-48" class="g2_393" />
<path d="M157.5,405.5l0,-48" class="g2_393" />
<path d="M191.5,405.5l0,-48" class="g2_393" />
<path d="M405.5,405.5l0,-48" class="g2_393" />
<path d="M480.5,405.5l0,-48" class="g2_393" />
<path d="M887.5,405.5l0,-48" class="g2_393" />
<path fill-rule="evenodd" d="M47,454l34,0l0,-49l-34,0l0,49Z" class="g1_393" />
<path fill-rule="evenodd" d="M83,454l33,0l0,-49l-33,0l0,49Z" class="g1_393" />
<path fill-rule="evenodd" d="M117,454l40,0l0,-49l-40,0l0,49Z" class="g1_393" />
<path fill-rule="evenodd" d="M159,454l32,0l0,-49l-32,0l0,49Z" class="g1_393" />
<path fill-rule="evenodd" d="M193,454l211,0l0,-48l-211,0l0,48Z" class="g1_393" />
<path fill-rule="evenodd" d="M200,430l197,0l0,-24l-197,0l0,24Z" class="g1_393" />
<path fill-rule="evenodd" d="M406,454l74,0l0,-48l-74,0l0,48Z" class="g1_393" />
<path fill-rule="evenodd" d="M413,430l60,0l0,-24l-60,0l0,24Z" class="g1_393" />
<path fill-rule="evenodd" d="M482,454l405,0l0,-48l-405,0l0,48Z" class="g1_393" />
<path fill-rule="evenodd" d="M489,430l391,0l0,-24l-391,0l0,24Z" class="g1_393" />
<path fill-rule="evenodd" d="M489,454l391,0l0,-24l-391,0l0,24Z" class="g1_393" />
<path d="M46.5,406.5l0,-1" class="g2_393" />
<path d="M81.5,406.5l0,-1" class="g2_393" />
<path d="M116.5,406.5l0,-1" class="g2_393" />
<path d="M157.5,406.5l0,-1" class="g2_393" />
<path d="M191.5,406.5l0,-1" class="g2_393" />
<path d="M193.5,406.5l212,0" class="g2_393" />
<path d="M405.5,406.5l0,-1" class="g2_393" />
<path d="M406.5,406.5l74,0" class="g2_393" />
<path d="M480.5,406.5l0,-1" class="g2_393" />
<path d="M482.5,406.5l405,0" class="g2_393" />
<path d="M887.5,406.5l0,-1" class="g2_393" />
<path d="M46.5,454.5l0,-48" class="g2_393" />
<path d="M81.5,454.5l0,-48" class="g2_393" />
<path d="M116.5,454.5l0,-48" class="g2_393" />
<path d="M157.5,454.5l0,-48" class="g2_393" />
<path d="M191.5,454.5l0,-48" class="g2_393" />
<path d="M405.5,454.5l0,-48" class="g2_393" />
<path d="M480.5,454.5l0,-48" class="g2_393" />
<path d="M887.5,454.5l0,-48" class="g2_393" />
<path fill-rule="evenodd" d="M47,503l34,0l0,-49l-34,0l0,49Z" class="g1_393" />
<path fill-rule="evenodd" d="M83,503l33,0l0,-49l-33,0l0,49Z" class="g1_393" />
<path fill-rule="evenodd" d="M117,503l40,0l0,-49l-40,0l0,49Z" class="g1_393" />
<path fill-rule="evenodd" d="M159,503l32,0l0,-49l-32,0l0,49Z" class="g1_393" />
<path fill-rule="evenodd" d="M193,503l211,0l0,-47l-211,0l0,47Z" class="g1_393" />
<path fill-rule="evenodd" d="M200,479l197,0l0,-23l-197,0l0,23Z" class="g1_393" />
<path fill-rule="evenodd" d="M406,503l74,0l0,-47l-74,0l0,47Z" class="g1_393" />
<path fill-rule="evenodd" d="M413,479l60,0l0,-23l-60,0l0,23Z" class="g1_393" />
<path fill-rule="evenodd" d="M482,503l405,0l0,-47l-405,0l0,47Z" class="g1_393" />
<path fill-rule="evenodd" d="M489,479l391,0l0,-23l-391,0l0,23Z" class="g1_393" />
<path fill-rule="evenodd" d="M489,503l391,0l0,-24l-391,0l0,24Z" class="g1_393" />
<path d="M46.5,455.5l0,-1" class="g2_393" />
<path d="M81.5,455.5l0,-1" class="g2_393" />
<path d="M116.5,455.5l0,-1" class="g2_393" />
<path d="M157.5,455.5l0,-1" class="g2_393" />
<path d="M191.5,455.5l0,-1" class="g2_393" />
<path d="M193.5,455.5l212,0" class="g2_393" />
<path d="M405.5,455.5l0,-1" class="g2_393" />
<path d="M406.5,455.5l74,0" class="g2_393" />
<path d="M480.5,455.5l0,-1" class="g2_393" />
<path d="M482.5,455.5l405,0" class="g2_393" />
<path d="M887.5,455.5l0,-1" class="g2_393" />
<path d="M46.5,503.5l0,-48" class="g2_393" />
<path d="M81.5,503.5l0,-48" class="g2_393" />
<path d="M116.5,503.5l0,-48" class="g2_393" />
<path d="M157.5,503.5l0,-48" class="g2_393" />
<path d="M191.5,503.5l0,-48" class="g2_393" />
<path d="M405.5,503.5l0,-48" class="g2_393" />
<path d="M480.5,503.5l0,-48" class="g2_393" />
<path d="M887.5,503.5l0,-48" class="g2_393" />
<path fill-rule="evenodd" d="M47,552l34,0l0,-49l-34,0l0,49Z" class="g1_393" />
<path fill-rule="evenodd" d="M83,552l33,0l0,-49l-33,0l0,49Z" class="g1_393" />
<path fill-rule="evenodd" d="M117,552l40,0l0,-49l-40,0l0,49Z" class="g1_393" />
<path fill-rule="evenodd" d="M159,552l32,0l0,-49l-32,0l0,49Z" class="g1_393" />
<path fill-rule="evenodd" d="M193,552l211,0l0,-47l-211,0l0,47Z" class="g1_393" />
<path fill-rule="evenodd" d="M200,528l197,0l0,-23l-197,0l0,23Z" class="g1_393" />
<path fill-rule="evenodd" d="M406,552l74,0l0,-47l-74,0l0,47Z" class="g1_393" />
<path fill-rule="evenodd" d="M413,528l60,0l0,-23l-60,0l0,23Z" class="g1_393" />
<path fill-rule="evenodd" d="M482,552l405,0l0,-47l-405,0l0,47Z" class="g1_393" />
<path fill-rule="evenodd" d="M489,528l391,0l0,-23l-391,0l0,23Z" class="g1_393" />
<path fill-rule="evenodd" d="M489,552l391,0l0,-24l-391,0l0,24Z" class="g1_393" />
<path d="M46.5,505.5l0,-2" class="g2_393" />
<path d="M81.5,505.5l0,-2" class="g2_393" />
<path d="M116.5,505.5l0,-2" class="g2_393" />
<path d="M157.5,505.5l0,-2" class="g2_393" />
<path d="M191.5,505.5l0,-2" class="g2_393" />
<path d="M193.5,505.5l212,0" class="g2_393" />
<path d="M405.5,505.5l0,-2" class="g2_393" />
<path d="M406.5,505.5l74,0" class="g2_393" />
<path d="M480.5,505.5l0,-2" class="g2_393" />
<path d="M482.5,505.5l405,0" class="g2_393" />
<path d="M887.5,505.5l0,-2" class="g2_393" />
<path d="M46.5,552.5l0,-47" class="g2_393" />
<path d="M81.5,552.5l0,-47" class="g2_393" />
<path d="M116.5,552.5l0,-47" class="g2_393" />
<path d="M157.5,552.5l0,-47" class="g2_393" />
<path d="M191.5,552.5l0,-47" class="g2_393" />
<path d="M405.5,552.5l0,-47" class="g2_393" />
<path d="M480.5,552.5l0,-47" class="g2_393" />
<path d="M887.5,552.5l0,-47" class="g2_393" />
<path fill-rule="evenodd" d="M47,601l34,0l0,-49l-34,0l0,49Z" class="g1_393" />
<path fill-rule="evenodd" d="M83,601l33,0l0,-49l-33,0l0,49Z" class="g1_393" />
<path fill-rule="evenodd" d="M117,601l40,0l0,-49l-40,0l0,49Z" class="g1_393" />
<path fill-rule="evenodd" d="M159,601l32,0l0,-49l-32,0l0,49Z" class="g1_393" />
<path fill-rule="evenodd" d="M193,601l211,0l0,-47l-211,0l0,47Z" class="g1_393" />
<path fill-rule="evenodd" d="M200,578l197,0l0,-24l-197,0l0,24Z" class="g1_393" />
<path fill-rule="evenodd" d="M406,601l74,0l0,-47l-74,0l0,47Z" class="g1_393" />
<path fill-rule="evenodd" d="M413,578l60,0l0,-24l-60,0l0,24Z" class="g1_393" />
<path fill-rule="evenodd" d="M482,601l405,0l0,-47l-405,0l0,47Z" class="g1_393" />
<path fill-rule="evenodd" d="M489,578l391,0l0,-24l-391,0l0,24Z" class="g1_393" />
<path fill-rule="evenodd" d="M489,601l391,0l0,-23l-391,0l0,23Z" class="g1_393" />
<path d="M46.5,554.5l0,-2" class="g2_393" />
<path d="M81.5,554.5l0,-2" class="g2_393" />
<path d="M116.5,554.5l0,-2" class="g2_393" />
<path d="M157.5,554.5l0,-2" class="g2_393" />
<path d="M191.5,554.5l0,-2" class="g2_393" />
<path d="M193.5,554.5l212,0" class="g2_393" />
<path d="M405.5,554.5l0,-2" class="g2_393" />
<path d="M406.5,554.5l74,0" class="g2_393" />
<path d="M480.5,554.5l0,-2" class="g2_393" />
<path d="M482.5,554.5l405,0" class="g2_393" />
<path d="M887.5,554.5l0,-2" class="g2_393" />
<path d="M46.5,601.5l0,-47" class="g2_393" />
<path d="M81.5,601.5l0,-47" class="g2_393" />
<path d="M116.5,601.5l0,-47" class="g2_393" />
<path d="M157.5,601.5l0,-47" class="g2_393" />
<path d="M191.5,601.5l0,-47" class="g2_393" />
<path d="M405.5,601.5l0,-47" class="g2_393" />
<path d="M480.5,601.5l0,-47" class="g2_393" />
<path d="M887.5,601.5l0,-47" class="g2_393" />
<path fill-rule="evenodd" d="M47,651l34,0l0,-49l-34,0l0,49Z" class="g1_393" />
<path fill-rule="evenodd" d="M83,651l33,0l0,-49l-33,0l0,49Z" class="g1_393" />
<path fill-rule="evenodd" d="M117,651l40,0l0,-49l-40,0l0,49Z" class="g1_393" />
<path fill-rule="evenodd" d="M159,651l32,0l0,-49l-32,0l0,49Z" class="g1_393" />
<path fill-rule="evenodd" d="M193,651l211,0l0,-48l-211,0l0,48Z" class="g1_393" />
<path fill-rule="evenodd" d="M200,627l197,0l0,-24l-197,0l0,24Z" class="g1_393" />
<path fill-rule="evenodd" d="M406,651l74,0l0,-48l-74,0l0,48Z" class="g1_393" />
<path fill-rule="evenodd" d="M413,627l60,0l0,-24l-60,0l0,24Z" class="g1_393" />
<path fill-rule="evenodd" d="M482,651l405,0l0,-48l-405,0l0,48Z" class="g1_393" />
<path fill-rule="evenodd" d="M489,627l391,0l0,-24l-391,0l0,24Z" class="g1_393" />
<path fill-rule="evenodd" d="M489,651l391,0l0,-24l-391,0l0,24Z" class="g1_393" />
<path d="M46.5,603.5l0,-2" class="g2_393" />
<path d="M81.5,603.5l0,-2" class="g2_393" />
<path d="M116.5,603.5l0,-2" class="g2_393" />
<path d="M157.5,603.5l0,-2" class="g2_393" />
<path d="M191.5,603.5l0,-2" class="g2_393" />
<path d="M193.5,603.5l212,0" class="g2_393" />
<path d="M405.5,603.5l0,-2" class="g2_393" />
<path d="M406.5,603.5l74,0" class="g2_393" />
<path d="M480.5,603.5l0,-2" class="g2_393" />
<path d="M482.5,603.5l405,0" class="g2_393" />
<path d="M887.5,603.5l0,-2" class="g2_393" />
<path d="M46.5,651.5l0,-48" class="g2_393" />
<path d="M81.5,651.5l0,-48" class="g2_393" />
<path d="M116.5,651.5l0,-48" class="g2_393" />
<path d="M157.5,651.5l0,-48" class="g2_393" />
<path d="M191.5,651.5l0,-48" class="g2_393" />
<path d="M405.5,651.5l0,-48" class="g2_393" />
<path d="M480.5,651.5l0,-48" class="g2_393" />
<path d="M887.5,651.5l0,-48" class="g2_393" />
<path fill-rule="evenodd" d="M47,700l34,0l0,-49l-34,0l0,49Z" class="g1_393" />
<path fill-rule="evenodd" d="M83,700l33,0l0,-49l-33,0l0,49Z" class="g1_393" />
<path fill-rule="evenodd" d="M117,700l40,0l0,-49l-40,0l0,49Z" class="g1_393" />
<path fill-rule="evenodd" d="M159,700l32,0l0,-49l-32,0l0,49Z" class="g1_393" />
<path fill-rule="evenodd" d="M193,700l211,0l0,-48l-211,0l0,48Z" class="g1_393" />
<g clip-path="url(#c18_393)">
<path fill-rule="evenodd" d="M200,676l197,0l0,-24l-197,0l0,24Z" class="g1_393" />
</g>
<path fill-rule="evenodd" d="M406,700l74,0l0,-48l-74,0l0,48Z" class="g1_393" />
<g clip-path="url(#c19_393)">
<path fill-rule="evenodd" d="M413,676l60,0l0,-24l-60,0l0,24Z" class="g1_393" />
</g>
<path fill-rule="evenodd" d="M482,700l405,0l0,-48l-405,0l0,48Z" class="g1_393" />
<g clip-path="url(#c20_393)">
<path fill-rule="evenodd" d="M489,676l391,0l0,-24l-391,0l0,24Z" class="g1_393" />
</g>
<path fill-rule="evenodd" d="M489,700l391,0l0,-24l-391,0l0,24Z" class="g1_393" />
<path d="M46.5,652.5l0,-1" class="g2_393" />
<path d="M81.5,652.5l0,-1" class="g2_393" />
<path d="M116.5,652.5l0,-1" class="g2_393" />
<path d="M157.5,652.5l0,-1" class="g2_393" />
<path d="M191.5,652.5l0,-1" class="g2_393" />
<path d="M193.5,652.5l212,0" class="g2_393" />
<path d="M405.5,652.5l0,-1" class="g2_393" />
<path d="M406.5,652.5l74,0" class="g2_393" />
<path d="M480.5,652.5l0,-1" class="g2_393" />
<path d="M482.5,652.5l405,0" class="g2_393" />
<path d="M887.5,652.5l0,-1" class="g2_393" />
<path d="M46.5,700.5l0,-48" class="g2_393" />
<path d="M81.5,700.5l0,-48" class="g2_393" />
<path d="M116.5,700.5l0,-48" class="g2_393" />
<path d="M157.5,700.5l0,-48" class="g2_393" />
<path d="M191.5,700.5l0,-48" class="g2_393" />
<path d="M405.5,700.5l0,-48" class="g2_393" />
<path d="M480.5,700.5l0,-48" class="g2_393" />
<path d="M887.5,700.5l0,-48" class="g2_393" />
<path fill-rule="evenodd" d="M47,749l34,0l0,-49l-34,0l0,49Z" class="g1_393" />
<path fill-rule="evenodd" d="M83,749l33,0l0,-49l-33,0l0,49Z" class="g1_393" />
<path fill-rule="evenodd" d="M117,749l40,0l0,-49l-40,0l0,49Z" class="g1_393" />
<path fill-rule="evenodd" d="M159,749l32,0l0,-49l-32,0l0,49Z" class="g1_393" />
<path fill-rule="evenodd" d="M193,749l211,0l0,-48l-211,0l0,48Z" class="g1_393" />
<g clip-path="url(#c21_393)">
<path fill-rule="evenodd" d="M200,725l197,0l0,-24l-197,0l0,24Z" class="g1_393" />
</g>
<path fill-rule="evenodd" d="M406,749l74,0l0,-48l-74,0l0,48Z" class="g1_393" />
<g clip-path="url(#c22_393)">
<path fill-rule="evenodd" d="M413,725l60,0l0,-24l-60,0l0,24Z" class="g1_393" />
</g>
<path fill-rule="evenodd" d="M482,749l405,0l0,-48l-405,0l0,48Z" class="g1_393" />
<g clip-path="url(#c23_393)">
<path fill-rule="evenodd" d="M489,725l391,0l0,-24l-391,0l0,24Z" class="g1_393" />
</g>
<path fill-rule="evenodd" d="M489,749l391,0l0,-24l-391,0l0,24Z" class="g1_393" />
<path d="M46.5,701.5l0,-1" class="g2_393" />
<path d="M81.5,701.5l0,-1" class="g2_393" />
<path d="M116.5,701.5l0,-1" class="g2_393" />
<path d="M157.5,701.5l0,-1" class="g2_393" />
<path d="M191.5,701.5l0,-1" class="g2_393" />
<path d="M193.5,701.5l212,0" class="g2_393" />
<path d="M405.5,701.5l0,-1" class="g2_393" />
<path d="M406.5,701.5l74,0" class="g2_393" />
<path d="M480.5,701.5l0,-1" class="g2_393" />
<path d="M482.5,701.5l405,0" class="g2_393" />
<path d="M887.5,701.5l0,-1" class="g2_393" />
<path d="M46.5,749.5l0,-48" class="g2_393" />
<path d="M81.5,749.5l0,-48" class="g2_393" />
<path d="M116.5,749.5l0,-48" class="g2_393" />
<path d="M157.5,749.5l0,-48" class="g2_393" />
<path d="M191.5,749.5l0,-48" class="g2_393" />
<path d="M405.5,749.5l0,-48" class="g2_393" />
<path d="M480.5,749.5l0,-48" class="g2_393" />
<path d="M887.5,749.5l0,-48" class="g2_393" />
<path fill-rule="evenodd" d="M47,798l34,0l0,-49l-34,0l0,49Z" class="g1_393" />
<path fill-rule="evenodd" d="M83,798l33,0l0,-49l-33,0l0,49Z" class="g1_393" />
<path fill-rule="evenodd" d="M117,798l40,0l0,-49l-40,0l0,49Z" class="g1_393" />
<path fill-rule="evenodd" d="M159,798l32,0l0,-49l-32,0l0,49Z" class="g1_393" />
<path fill-rule="evenodd" d="M193,798l211,0l0,-47l-211,0l0,47Z" class="g1_393" />
<g clip-path="url(#c24_393)">
<path fill-rule="evenodd" d="M200,775l197,0l0,-24l-197,0l0,24Z" class="g1_393" />
</g>
<path fill-rule="evenodd" d="M406,798l74,0l0,-47l-74,0l0,47Z" class="g1_393" />
<g clip-path="url(#c25_393)">
<path fill-rule="evenodd" d="M413,775l60,0l0,-24l-60,0l0,24Z" class="g1_393" />
</g>
<path fill-rule="evenodd" d="M482,798l405,0l0,-47l-405,0l0,47Z" class="g1_393" />
<g clip-path="url(#c26_393)">
<path fill-rule="evenodd" d="M489,775l391,0l0,-24l-391,0l0,24Z" class="g1_393" />
</g>
<path fill-rule="evenodd" d="M489,798l391,0l0,-23l-391,0l0,23Z" class="g1_393" />
<path d="M46.5,751.5l0,-2" class="g2_393" />
<path d="M81.5,751.5l0,-2" class="g2_393" />
<path d="M116.5,751.5l0,-2" class="g2_393" />
<path d="M157.5,751.5l0,-2" class="g2_393" />
<path d="M191.5,751.5l0,-2" class="g2_393" />
<path d="M193.5,751.5l212,0" class="g2_393" />
<path d="M405.5,751.5l0,-2" class="g2_393" />
<path d="M406.5,751.5l74,0" class="g2_393" />
<path d="M480.5,751.5l0,-2" class="g2_393" />
<path d="M482.5,751.5l405,0" class="g2_393" />
<path d="M887.5,751.5l0,-2" class="g2_393" />
<path d="M46.5,798.5l0,-47" class="g2_393" />
<path d="M81.5,798.5l0,-47" class="g2_393" />
<path d="M116.5,798.5l0,-47" class="g2_393" />
<path d="M157.5,798.5l0,-47" class="g2_393" />
<path d="M191.5,798.5l0,-47" class="g2_393" />
<path d="M405.5,798.5l0,-47" class="g2_393" />
<path d="M480.5,798.5l0,-47" class="g2_393" />
<path d="M887.5,798.5l0,-47" class="g2_393" />
<path fill-rule="evenodd" d="M47,848l34,0l0,-50l-34,0l0,50Z" class="g1_393" />
<path fill-rule="evenodd" d="M83,848l33,0l0,-50l-33,0l0,50Z" class="g1_393" />
<path fill-rule="evenodd" d="M117,848l40,0l0,-50l-40,0l0,50Z" class="g1_393" />
<path fill-rule="evenodd" d="M159,848l32,0l0,-50l-32,0l0,50Z" class="g1_393" />
<path fill-rule="evenodd" d="M193,848l211,0l0,-48l-211,0l0,48Z" class="g1_393" />
<g clip-path="url(#c27_393)">
<path fill-rule="evenodd" d="M200,824l197,0l0,-24l-197,0l0,24Z" class="g1_393" />
</g>
<path fill-rule="evenodd" d="M406,848l74,0l0,-48l-74,0l0,48Z" class="g1_393" />
<g clip-path="url(#c28_393)">
<path fill-rule="evenodd" d="M413,824l60,0l0,-24l-60,0l0,24Z" class="g1_393" />
</g>
<path fill-rule="evenodd" d="M482,848l405,0l0,-48l-405,0l0,48Z" class="g1_393" />
<g clip-path="url(#c29_393)">
<path fill-rule="evenodd" d="M489,824l391,0l0,-24l-391,0l0,24Z" class="g1_393" />
</g>
<path fill-rule="evenodd" d="M489,848l391,0l0,-24l-391,0l0,24Z" class="g1_393" />
<path d="M46.5,800.5l0,-2" class="g2_393" />
<path d="M81.5,800.5l0,-2" class="g2_393" />
<path d="M116.5,800.5l0,-2" class="g2_393" />
<path d="M157.5,800.5l0,-2" class="g2_393" />
<path d="M191.5,800.5l0,-2" class="g2_393" />
<path d="M193.5,800.5l212,0" class="g2_393" />
<path d="M405.5,800.5l0,-2" class="g2_393" />
<path d="M406.5,800.5l74,0" class="g2_393" />
<path d="M480.5,800.5l0,-2" class="g2_393" />
<path d="M482.5,800.5l405,0" class="g2_393" />
<path d="M887.5,800.5l0,-2" class="g2_393" />
<path d="M46.5,848.5l0,-48" class="g2_393" />
<path d="M81.5,848.5l0,-48" class="g2_393" />
<path d="M116.5,848.5l0,-48" class="g2_393" />
<path d="M157.5,848.5l0,-48" class="g2_393" />
<path d="M191.5,848.5l0,-48" class="g2_393" />
<path d="M405.5,848.5l0,-48" class="g2_393" />
<path d="M480.5,848.5l0,-48" class="g2_393" />
<path d="M887.5,848.5l0,-48" class="g2_393" />
<path fill-rule="evenodd" d="M47,897l34,0l0,-49l-34,0l0,49Z" class="g1_393" />
<path fill-rule="evenodd" d="M83,897l33,0l0,-49l-33,0l0,49Z" class="g1_393" />
<path fill-rule="evenodd" d="M117,897l40,0l0,-49l-40,0l0,49Z" class="g1_393" />
<path fill-rule="evenodd" d="M159,897l32,0l0,-49l-32,0l0,49Z" class="g1_393" />
<path fill-rule="evenodd" d="M193,897l211,0l0,-48l-211,0l0,48Z" class="g1_393" />
<g clip-path="url(#c30_393)">
<path fill-rule="evenodd" d="M200,873l197,0l0,-24l-197,0l0,24Z" class="g1_393" />
</g>
<path fill-rule="evenodd" d="M406,897l74,0l0,-48l-74,0l0,48Z" class="g1_393" />
<g clip-path="url(#c31_393)">
<path fill-rule="evenodd" d="M413,873l60,0l0,-24l-60,0l0,24Z" class="g1_393" />
</g>
<path fill-rule="evenodd" d="M482,897l405,0l0,-48l-405,0l0,48Z" class="g1_393" />
<g clip-path="url(#c32_393)">
<path fill-rule="evenodd" d="M489,873l391,0l0,-24l-391,0l0,24Z" class="g1_393" />
</g>
<path fill-rule="evenodd" d="M489,897l391,0l0,-24l-391,0l0,24Z" class="g1_393" />
<path d="M46.5,849.5l0,-1" class="g2_393" />
<path d="M81.5,849.5l0,-1" class="g2_393" />
<path d="M116.5,849.5l0,-1" class="g2_393" />
<path d="M157.5,849.5l0,-1" class="g2_393" />
<path d="M191.5,849.5l0,-1" class="g2_393" />
<path d="M193.5,849.5l212,0" class="g2_393" />
<path d="M405.5,849.5l0,-1" class="g2_393" />
<path d="M406.5,849.5l74,0" class="g2_393" />
<path d="M480.5,849.5l0,-1" class="g2_393" />
<path d="M482.5,849.5l405,0" class="g2_393" />
<path d="M887.5,849.5l0,-1" class="g2_393" />
<path d="M46.5,897.5l0,-48" class="g2_393" />
<path d="M81.5,897.5l0,-48" class="g2_393" />
<path d="M116.5,897.5l0,-48" class="g2_393" />
<path d="M157.5,897.5l0,-48" class="g2_393" />
<path d="M191.5,897.5l0,-48" class="g2_393" />
<path d="M405.5,897.5l0,-48" class="g2_393" />
<path d="M480.5,897.5l0,-48" class="g2_393" />
<path d="M887.5,897.5l0,-48" class="g2_393" />
<path fill-rule="evenodd" d="M47,928l34,0l0,-31l-34,0l0,31Z" class="g1_393" />
<path fill-rule="evenodd" d="M83,928l321,0l0,-30L83,898l0,30Z" class="g1_393" />
<g clip-path="url(#c33_393)">
<path fill-rule="evenodd" d="M90,922l307,0l0,-24L90,898l0,24Z" class="g1_393" />
</g>
<path fill-rule="evenodd" d="M406,928l74,0l0,-30l-74,0l0,30Z" class="g1_393" />
<g clip-path="url(#c34_393)">
<path fill-rule="evenodd" d="M413,922l60,0l0,-24l-60,0l0,24Z" class="g1_393" />
</g>
<path fill-rule="evenodd" d="M482,928l405,0l0,-30l-405,0l0,30Z" class="g1_393" />
<g clip-path="url(#c35_393)">
<path fill-rule="evenodd" d="M489,922l391,0l0,-24l-391,0l0,24Z" class="g1_393" />
</g>
<path d="M46.5,898.5l0,-1" class="g2_393" />
<path d="M81.5,898.5l0,-1" class="g2_393" />
<path d="M83.5,898.5l33,0" class="g2_393" />
<path d="M116.5,898.5l0,-1" class="g2_393" />
<path d="M117.5,898.5l40,0" class="g2_393" />
<path d="M157.5,898.5l0,-1" class="g2_393" />
<path d="M158.5,898.5l33,0" class="g2_393" />
<path d="M191.5,898.5l0,-1" class="g2_393" />
<path d="M193.5,898.5l212,0" class="g2_393" />
<path d="M405.5,898.5l0,-1" class="g2_393" />
<path d="M406.5,898.5l74,0" class="g2_393" />
<path d="M480.5,898.5l0,-1" class="g2_393" />
<path d="M482.5,898.5l405,0" class="g2_393" />
<path d="M887.5,898.5l0,-1" class="g2_393" />
<path d="M46.5,928.5l0,-30" class="g2_393" />
<path d="M81.5,928.5l0,-30" class="g2_393" />
<path d="M405.5,928.5l0,-30" class="g2_393" />
<path d="M480.5,928.5l0,-30" class="g2_393" />
<path d="M887.5,928.5l0,-30" class="g2_393" />
<path fill-rule="evenodd" d="M47,959l34,0l0,-31l-34,0l0,31Z" class="g1_393" />
<path fill-rule="evenodd" d="M83,959l321,0l0,-30L83,929l0,30Z" class="g1_393" />
<path fill-rule="evenodd" d="M90,953l307,0l0,-24L90,929l0,24Z" class="g1_393" />
<path fill-rule="evenodd" d="M406,959l74,0l0,-30l-74,0l0,30Z" class="g1_393" />
<path fill-rule="evenodd" d="M413,953l60,0l0,-24l-60,0l0,24Z" class="g1_393" />
<path fill-rule="evenodd" d="M482,959l405,0l0,-30l-405,0l0,30Z" class="g1_393" />
<path fill-rule="evenodd" d="M489,953l391,0l0,-24l-391,0l0,24Z" class="g1_393" />
<path d="M46.5,929.5l0,-1" class="g2_393" />
<path d="M81.5,929.5l0,-1" class="g2_393" />
<path d="M83.5,929.5l322,0" class="g2_393" />
<path d="M405.5,929.5l0,-1" class="g2_393" />
<path d="M406.5,929.5l74,0" class="g2_393" />
<path d="M480.5,929.5l0,-1" class="g2_393" />
<path d="M482.5,929.5l405,0" class="g2_393" />
<path d="M887.5,929.5l0,-1" class="g2_393" />
<path d="M46.5,959.5l0,-30" class="g2_393" />
<path d="M46.5,960.5l0,-1" class="g2_393" />
<path d="M46.5,960.5l0,-1" class="g2_393" />
<path d="M47.5,960.5l34,0" class="g2_393" />
<path d="M81.5,959.5l0,-30" class="g2_393" />
<path d="M81.5,960.5l0,-1" class="g2_393" />
<path d="M83.5,960.5l322,0" class="g2_393" />
<path d="M405.5,959.5l0,-30" class="g2_393" />
<path d="M405.5,960.5l0,-1" class="g2_393" />
<path d="M406.5,960.5l74,0" class="g2_393" />
<path d="M480.5,959.5l0,-30" class="g2_393" />
<path d="M480.5,960.5l0,-1" class="g2_393" />
<path d="M482.5,960.5l405,0" class="g2_393" />
<path d="M887.5,959.5l0,-30" class="g2_393" />
<path d="M887.5,960.5l0,-1" class="g2_393" />
<path d="M887.5,960.5l0,-1" class="g2_393" />
<path fill-rule="evenodd" d="M47,1081l840,0l0,-24l-840,0l0,24Z" class="g1_393" />
<g clip-path="url(#c36_393)">
<path fill-rule="evenodd" d="M55,1081l825,0l0,-24l-825,0l0,24Z" class="g1_393" />
</g>
<path d="M46.5,1057.5l0,-2" class="g2_393" />
<path d="M46.5,1057.5l0,-2" class="g2_393" />
<path d="M47.5,1057.5l840,0" class="g2_393" />
<path d="M887.5,1057.5l0,-2" class="g2_393" />
<path d="M887.5,1057.5l0,-2" class="g2_393" />
<path d="M46.5,1081.5l0,-24" class="g2_393" />
<path d="M46.5,1082.5l0,-1" class="g2_393" />
<path d="M46.5,1082.5l0,-1" class="g2_393" />
<path d="M47.5,1082.5l840,0" class="g2_393" />
<path d="M887.5,1081.5l0,-24" class="g2_393" />
<path d="M887.5,1082.5l0,-1" class="g2_393" />
<path d="M887.5,1082.5l0,-1" class="g2_393" />
</svg>