<?xml version="1.0" encoding="UTF-8" standalone="no"?>
<!DOCTYPE svg PUBLIC "-//W3C//DTD SVG 1.1//EN"
"http://www.w3.org/Graphics/SVG/1.1/DTD/svg11.dtd">
<svg version="1.1" xmlns="http://www.w3.org/2000/svg" xmlns:xlink="http://www.w3.org/1999/xlink">
<defs>
<clipPath id="c0_350"><path d="M47.5,875.5l0,-24l840,0l0,24Z" /></clipPath>
<clipPath id="c1_350"><path d="M47.5,982.5l0,-24l178,0l0,24Z" /></clipPath>
<clipPath id="c2_350"><path d="M226.5,982.5l0,-24l163,0l0,24Z" /></clipPath>
<clipPath id="c3_350"><path d="M390.5,982.5l0,-24l497,0l0,24Z" /></clipPath>
<clipPath id="c4_350"><path d="M47.5,1008.5l0,-24l178,0l0,24Z" /></clipPath>
<clipPath id="c5_350"><path d="M226.5,1008.5l0,-24l163,0l0,24Z" /></clipPath>
<clipPath id="c6_350"><path d="M390.5,1008.5l0,-24l497,0l0,24Z" /></clipPath>
<clipPath id="c7_350"><path d="M47.5,1082.5l0,-24l177,0l0,24Z" /></clipPath>
<clipPath id="c8_350"><path d="M226.5,1082.5l0,-24l162,0l0,24Z" /></clipPath>
<clipPath id="c9_350"><path d="M390.5,1082.5l0,-24l163,0l0,24Z" /></clipPath>
<clipPath id="c10_350"><path d="M554.5,1082.5l0,-24l163,0l0,24Z" /></clipPath>
<clipPath id="c11_350"><path d="M719.5,1082.5l0,-24l168,0l0,24Z" /></clipPath>
<style type="text/css"><![CDATA[
.g2_350{
fill: #F1F1F1;
}
.g3_350{
fill: none;
stroke: #7E7E7E;
stroke-width: 1;
stroke-linecap: butt;
stroke-linejoin: miter;
}
.g4_350{
fill: #DBE5F1;
}
.g1_350{
fill: none;
stroke: #0000FF;
stroke-width: 1;
stroke-linecap: butt;
stroke-linejoin: miter;
}
]]></style>
</defs>
<path d="M110.5,547.5l117,0" class="g1_350" />
<path d="M110.5,571.5l192,0" class="g1_350" />
<path d="M110.5,595.5l207,0" class="g1_350" />
<path d="M110.5,618.5l163,0" class="g1_350" />
<path d="M110.5,643.5l112,0" class="g1_350" />
<path d="M110.5,666.5l134,0" class="g1_350" />
<path d="M110.5,690.5l307,0" class="g1_350" />
<path d="M110.5,714.5l288,0" class="g1_350" />
<path d="M110.5,738.5l197,0" class="g1_350" />
<path fill-rule="evenodd" d="M47,875l840,0l0,-24L47,851l0,24Z" class="g2_350" />
<g clip-path="url(#c0_350)">
<path fill-rule="evenodd" d="M55,875l825,0l0,-24L55,851l0,24Z" class="g2_350" />
</g>
<path d="M46.5,851.5l0,-1" class="g3_350" />
<path d="M46.5,851.5l0,-1" class="g3_350" />
<path d="M47.5,851.5l840,0" class="g3_350" />
<path d="M887.5,851.5l0,-1" class="g3_350" />
<path d="M887.5,851.5l0,-1" class="g3_350" />
<path d="M46.5,875.5l0,-24" class="g3_350" />
<path d="M46.5,877.5l0,-2" class="g3_350" />
<path d="M46.5,877.5l0,-2" class="g3_350" />
<path d="M47.5,877.5l840,0" class="g3_350" />
<path d="M887.5,875.5l0,-24" class="g3_350" />
<path d="M887.5,877.5l0,-2" class="g3_350" />
<path d="M887.5,877.5l0,-2" class="g3_350" />
<path fill-rule="evenodd" d="M47,982l178,0l0,-24L47,958l0,24Z" class="g4_350" />
<g clip-path="url(#c1_350)">
<path fill-rule="evenodd" d="M55,982l162,0l0,-24L55,958l0,24Z" class="g4_350" />
</g>
<path fill-rule="evenodd" d="M226,982l163,0l0,-24l-163,0l0,24Z" class="g4_350" />
<g clip-path="url(#c2_350)">
<path fill-rule="evenodd" d="M234,982l147,0l0,-24l-147,0l0,24Z" class="g4_350" />
</g>
<path fill-rule="evenodd" d="M390,982l497,0l0,-24l-497,0l0,24Z" class="g4_350" />
<g clip-path="url(#c3_350)">
<path fill-rule="evenodd" d="M398,982l482,0l0,-24l-482,0l0,24Z" class="g4_350" />
</g>
<path d="M46.5,958.5l0,-1" class="g3_350" />
<path d="M46.5,958.5l0,-1" class="g3_350" />
<path d="M47.5,958.5l178,0" class="g3_350" />
<path d="M225.5,958.5l0,-1" class="g3_350" />
<path d="M226.5,958.5l163,0" class="g3_350" />
<path d="M389.5,958.5l0,-1" class="g3_350" />
<path d="M390.5,958.5l497,0" class="g3_350" />
<path d="M887.5,958.5l0,-1" class="g3_350" />
<path d="M887.5,958.5l0,-1" class="g3_350" />
<path d="M46.5,982.5l0,-24" class="g3_350" />
<path d="M225.5,982.5l0,-24" class="g3_350" />
<path d="M389.5,982.5l0,-24" class="g3_350" />
<path d="M887.5,982.5l0,-24" class="g3_350" />
<path fill-rule="evenodd" d="M47,1008l178,0l0,-24L47,984l0,24Z" class="g2_350" />
<g clip-path="url(#c4_350)">
<path fill-rule="evenodd" d="M55,1008l162,0l0,-24L55,984l0,24Z" class="g2_350" />
</g>
<path fill-rule="evenodd" d="M226,1008l163,0l0,-24l-163,0l0,24Z" class="g2_350" />
<g clip-path="url(#c5_350)">
<path fill-rule="evenodd" d="M234,1008l147,0l0,-24l-147,0l0,24Z" class="g2_350" />
</g>
<path fill-rule="evenodd" d="M390,1008l497,0l0,-24l-497,0l0,24Z" class="g2_350" />
<g clip-path="url(#c6_350)">
<path fill-rule="evenodd" d="M398,1008l482,0l0,-24l-482,0l0,24Z" class="g2_350" />
</g>
<path d="M46.5,984.5l0,-2" class="g3_350" />
<path d="M47.5,984.5l178,0" class="g3_350" />
<path d="M225.5,984.5l0,-2" class="g3_350" />
<path d="M226.5,984.5l163,0" class="g3_350" />
<path d="M389.5,984.5l0,-2" class="g3_350" />
<path d="M390.5,984.5l497,0" class="g3_350" />
<path d="M887.5,984.5l0,-2" class="g3_350" />
<path d="M46.5,1008.5l0,-24" class="g3_350" />
<path d="M46.5,1009.5l0,-1" class="g3_350" />
<path d="M46.5,1009.5l0,-1" class="g3_350" />
<path d="M47.5,1009.5l178,0" class="g3_350" />
<path d="M225.5,1008.5l0,-24" class="g3_350" />
<path d="M225.5,1009.5l0,-1" class="g3_350" />
<path d="M226.5,1009.5l163,0" class="g3_350" />
<path d="M389.5,1008.5l0,-24" class="g3_350" />
<path d="M389.5,1009.5l0,-1" class="g3_350" />
<path d="M390.5,1009.5l497,0" class="g3_350" />
<path d="M887.5,1008.5l0,-24" class="g3_350" />
<path d="M887.5,1009.5l0,-1" class="g3_350" />
<path d="M887.5,1009.5l0,-1" class="g3_350" />
<path fill-rule="evenodd" d="M47,1082l177,0l0,-24l-177,0l0,24Z" class="g4_350" />
<g clip-path="url(#c7_350)">
<path fill-rule="evenodd" d="M55,1082l162,0l0,-24l-162,0l0,24Z" class="g4_350" />
</g>
<path fill-rule="evenodd" d="M226,1082l162,0l0,-24l-162,0l0,24Z" class="g4_350" />
<g clip-path="url(#c8_350)">
<path fill-rule="evenodd" d="M233,1082l148,0l0,-24l-148,0l0,24Z" class="g4_350" />
</g>
<path fill-rule="evenodd" d="M390,1082l163,0l0,-24l-163,0l0,24Z" class="g4_350" />
<g clip-path="url(#c9_350)">
<path fill-rule="evenodd" d="M397,1082l148,0l0,-24l-148,0l0,24Z" class="g4_350" />
</g>
<path fill-rule="evenodd" d="M554,1082l163,0l0,-24l-163,0l0,24Z" class="g4_350" />
<g clip-path="url(#c10_350)">
<path fill-rule="evenodd" d="M562,1082l148,0l0,-24l-148,0l0,24Z" class="g4_350" />
</g>
<path fill-rule="evenodd" d="M719,1082l168,0l0,-24l-168,0l0,24Z" class="g4_350" />
<g clip-path="url(#c11_350)">
<path fill-rule="evenodd" d="M726,1082l154,0l0,-24l-154,0l0,24Z" class="g4_350" />
</g>
<path d="M46.5,1058.5l0,-1" class="g3_350" />
<path d="M46.5,1058.5l0,-1" class="g3_350" />
<path d="M47.5,1058.5l177,0" class="g3_350" />
<path d="M224.5,1058.5l0,-1" class="g3_350" />
<path d="M226.5,1058.5l162,0" class="g3_350" />
<path d="M388.5,1058.5l0,-1" class="g3_350" />
<path d="M390.5,1058.5l163,0" class="g3_350" />
<path d="M553.5,1058.5l0,-1" class="g3_350" />
<path d="M554.5,1058.5l163,0" class="g3_350" />
<path d="M717.5,1058.5l0,-1" class="g3_350" />
<path d="M719.5,1058.5l168,0" class="g3_350" />
<path d="M887.5,1058.5l0,-1" class="g3_350" />
<path d="M887.5,1058.5l0,-1" class="g3_350" />
<path d="M46.5,1082.5l0,-24" class="g3_350" />
<path d="M46.5,1084.5l0,-2" class="g3_350" />
<path d="M46.5,1084.5l0,-2" class="g3_350" />
<path d="M47.5,1084.5l177,0" class="g3_350" />
<path d="M224.5,1082.5l0,-24" class="g3_350" />
<path d="M224.5,1084.5l0,-2" class="g3_350" />
<path d="M226.5,1084.5l162,0" class="g3_350" />
<path d="M388.5,1082.5l0,-24" class="g3_350" />
<path d="M388.5,1084.5l0,-2" class="g3_350" />
<path d="M390.5,1084.5l163,0" class="g3_350" />
<path d="M553.5,1082.5l0,-24" class="g3_350" />
<path d="M553.5,1084.5l0,-2" class="g3_350" />
<path d="M554.5,1084.5l163,0" class="g3_350" />
<path d="M717.5,1082.5l0,-24" class="g3_350" />
<path d="M717.5,1084.5l0,-2" class="g3_350" />
<path d="M719.5,1084.5l168,0" class="g3_350" />
<path d="M887.5,1082.5l0,-24" class="g3_350" />
<path d="M887.5,1084.5l0,-2" class="g3_350" />
<path d="M887.5,1084.5l0,-2" class="g3_350" />
</svg>