<?xml version="1.0" encoding="UTF-8" standalone="no"?>
<!DOCTYPE svg PUBLIC "-//W3C//DTD SVG 1.1//EN"
"http://www.w3.org/Graphics/SVG/1.1/DTD/svg11.dtd">
<svg version="1.1" xmlns="http://www.w3.org/2000/svg" xmlns:xlink="http://www.w3.org/1999/xlink">
<defs>
<clipPath id="c0_240"><path d="M54.5,134.5l0,-24l303,0l0,24Z" /></clipPath>
<clipPath id="c1_240"><path d="M357.5,134.5l0,-24l96,0l0,24Z" /></clipPath>
<clipPath id="c2_240"><path d="M454.5,134.5l0,-24l343,0l0,24Z" /></clipPath>
<clipPath id="c3_240"><path d="M798.5,134.5l0,-24l90,0l0,24Z" /></clipPath>
<clipPath id="c4_240"><path d="M47.5,736.5l0,-24l840,0l0,24Z" /></clipPath>
<clipPath id="c5_240"><path d="M47.5,1082.5l0,-319l840,0l0,319Z" /></clipPath>
<style type="text/css"><![CDATA[
.g2_240{
fill: none;
stroke: #000000;
stroke-width: 1;
stroke-linecap: butt;
stroke-linejoin: miter;
}
.g4_240{
fill: none;
stroke: #7E7E7E;
stroke-width: 1;
stroke-linecap: butt;
stroke-linejoin: miter;
}
.g3_240{
fill: #F1F1F1;
}
.g1_240{
fill: #D7D7D7;
}
]]></style>
</defs>
<path fill-rule="evenodd" d="M54,134l303,0l0,-24L54,110l0,24Z" class="g1_240" />
<g clip-path="url(#c0_240)">
<path fill-rule="evenodd" d="M62,134l287,0l0,-24L62,110l0,24Z" class="g1_240" />
</g>
<path fill-rule="evenodd" d="M357,134l96,0l0,-24l-96,0l0,24Z" class="g1_240" />
<g clip-path="url(#c1_240)">
<path fill-rule="evenodd" d="M365,134l80,0l0,-24l-80,0l0,24Z" class="g1_240" />
</g>
<path fill-rule="evenodd" d="M454,134l343,0l0,-24l-343,0l0,24Z" class="g1_240" />
<g clip-path="url(#c2_240)">
<path fill-rule="evenodd" d="M462,134l327,0l0,-24l-327,0l0,24Z" class="g1_240" />
</g>
<path fill-rule="evenodd" d="M798,134l90,0l0,-24l-90,0l0,24Z" class="g1_240" />
<g clip-path="url(#c3_240)">
<path fill-rule="evenodd" d="M805,134l75,0l0,-24l-75,0l0,24Z" class="g1_240" />
</g>
<path d="M54.5,110.5l303,0" class="g2_240" />
<path d="M357.5,110.5l96,0" class="g2_240" />
<path d="M454.5,110.5l343,0" class="g2_240" />
<path d="M798.5,110.5l90,0" class="g2_240" />
<path d="M53.5,134.5l0,-24" class="g2_240" />
<path d="M357.5,134.5l0,-24" class="g2_240" />
<path d="M453.5,134.5l0,-24" class="g2_240" />
<path d="M797.5,134.5l0,-24" class="g2_240" />
<path d="M888.5,134.5l0,-24" class="g2_240" />
<path d="M53.5,135.5l0,-1" class="g2_240" />
<path d="M54.5,135.5l303,0" class="g2_240" />
<path d="M357.5,135.5l0,-1" class="g2_240" />
<path d="M357.5,135.5l96,0" class="g2_240" />
<path d="M453.5,135.5l0,-1" class="g2_240" />
<path d="M454.5,135.5l343,0" class="g2_240" />
<path d="M797.5,135.5l0,-1" class="g2_240" />
<path d="M798.5,135.5l90,0" class="g2_240" />
<path d="M888.5,135.5l0,-1" class="g2_240" />
<path d="M53.5,182.5l0,-47" class="g2_240" />
<path d="M357.5,182.5l0,-47" class="g2_240" />
<path d="M453.5,182.5l0,-47" class="g2_240" />
<path d="M797.5,182.5l0,-47" class="g2_240" />
<path d="M888.5,182.5l0,-47" class="g2_240" />
<path d="M53.5,183.5l0,-1" class="g2_240" />
<path d="M54.5,183.5l303,0" class="g2_240" />
<path d="M357.5,183.5l0,-1" class="g2_240" />
<path d="M357.5,183.5l96,0" class="g2_240" />
<path d="M453.5,183.5l0,-1" class="g2_240" />
<path d="M454.5,183.5l343,0" class="g2_240" />
<path d="M797.5,183.5l0,-1" class="g2_240" />
<path d="M798.5,183.5l90,0" class="g2_240" />
<path d="M888.5,183.5l0,-1" class="g2_240" />
<path d="M53.5,207.5l0,-24" class="g2_240" />
<path d="M357.5,207.5l0,-24" class="g2_240" />
<path d="M453.5,207.5l0,-24" class="g2_240" />
<path d="M797.5,207.5l0,-24" class="g2_240" />
<path d="M888.5,207.5l0,-24" class="g2_240" />
<path d="M53.5,208.5l0,-1" class="g2_240" />
<path d="M54.5,208.5l40,0" class="g2_240" />
<path d="M94.5,208.5l0,-1" class="g2_240" />
<path d="M94.5,208.5l40,0" class="g2_240" />
<path d="M134.5,208.5l0,-1" class="g2_240" />
<path d="M135.5,208.5l40,0" class="g2_240" />
<path d="M175.5,208.5l0,-1" class="g2_240" />
<path d="M175.5,208.5l182,0" class="g2_240" />
<path d="M357.5,208.5l0,-1" class="g2_240" />
<path d="M357.5,208.5l96,0" class="g2_240" />
<path d="M453.5,208.5l0,-1" class="g2_240" />
<path d="M454.5,208.5l343,0" class="g2_240" />
<path d="M797.5,208.5l0,-1" class="g2_240" />
<path d="M798.5,208.5l90,0" class="g2_240" />
<path d="M888.5,208.5l0,-1" class="g2_240" />
<path d="M53.5,279.5l0,-71" class="g2_240" />
<path d="M94.5,279.5l0,-71" class="g2_240" />
<path d="M134.5,279.5l0,-71" class="g2_240" />
<path d="M175.5,279.5l0,-71" class="g2_240" />
<path d="M357.5,279.5l0,-71" class="g2_240" />
<path d="M453.5,279.5l0,-71" class="g2_240" />
<path d="M797.5,279.5l0,-71" class="g2_240" />
<path d="M888.5,279.5l0,-71" class="g2_240" />
<path d="M53.5,280.5l0,-1" class="g2_240" />
<path d="M94.5,280.5l0,-1" class="g2_240" />
<path d="M134.5,280.5l0,-1" class="g2_240" />
<path d="M175.5,280.5l0,-1" class="g2_240" />
<path d="M175.5,280.5l182,0" class="g2_240" />
<path d="M357.5,280.5l0,-1" class="g2_240" />
<path d="M357.5,280.5l96,0" class="g2_240" />
<path d="M453.5,280.5l0,-1" class="g2_240" />
<path d="M454.5,280.5l343,0" class="g2_240" />
<path d="M797.5,280.5l0,-1" class="g2_240" />
<path d="M798.5,280.5l90,0" class="g2_240" />
<path d="M888.5,280.5l0,-1" class="g2_240" />
<path d="M53.5,304.5l0,-24" class="g2_240" />
<path d="M94.5,304.5l0,-24" class="g2_240" />
<path d="M134.5,304.5l0,-24" class="g2_240" />
<path d="M175.5,304.5l0,-24" class="g2_240" />
<path d="M357.5,304.5l0,-24" class="g2_240" />
<path d="M453.5,304.5l0,-24" class="g2_240" />
<path d="M797.5,304.5l0,-24" class="g2_240" />
<path d="M888.5,304.5l0,-24" class="g2_240" />
<path d="M53.5,305.5l0,-1" class="g2_240" />
<path d="M94.5,305.5l0,-1" class="g2_240" />
<path d="M134.5,305.5l0,-1" class="g2_240" />
<path d="M175.5,305.5l0,-1" class="g2_240" />
<path d="M175.5,305.5l79,0" class="g2_240" />
<path d="M254.5,305.5l0,-1" class="g2_240" />
<path d="M254.5,305.5l103,0" class="g2_240" />
<path d="M357.5,305.5l0,-1" class="g2_240" />
<path d="M357.5,305.5l96,0" class="g2_240" />
<path d="M453.5,305.5l0,-1" class="g2_240" />
<path d="M454.5,305.5l343,0" class="g2_240" />
<path d="M797.5,305.5l0,-1" class="g2_240" />
<path d="M798.5,305.5l90,0" class="g2_240" />
<path d="M888.5,305.5l0,-1" class="g2_240" />
<path d="M53.5,638.5l0,-333" class="g2_240" />
<path d="M53.5,639.5l0,-1" class="g2_240" />
<path d="M53.5,639.5l0,-1" class="g2_240" />
<path d="M54.5,639.5l40,0" class="g2_240" />
<path d="M94.5,638.5l0,-333" class="g2_240" />
<path d="M94.5,639.5l0,-1" class="g2_240" />
<path d="M94.5,639.5l40,0" class="g2_240" />
<path d="M134.5,638.5l0,-333" class="g2_240" />
<path d="M134.5,639.5l0,-1" class="g2_240" />
<path d="M135.5,639.5l40,0" class="g2_240" />
<path d="M175.5,638.5l0,-333" class="g2_240" />
<path d="M175.5,639.5l0,-1" class="g2_240" />
<path d="M175.5,639.5l79,0" class="g2_240" />
<path d="M254.5,638.5l0,-333" class="g2_240" />
<path d="M254.5,639.5l0,-1" class="g2_240" />
<path d="M254.5,639.5l103,0" class="g2_240" />
<path d="M357.5,638.5l0,-333" class="g2_240" />
<path d="M357.5,639.5l0,-1" class="g2_240" />
<path d="M357.5,639.5l96,0" class="g2_240" />
<path d="M453.5,638.5l0,-333" class="g2_240" />
<path d="M453.5,639.5l0,-1" class="g2_240" />
<path d="M454.5,639.5l343,0" class="g2_240" />
<path d="M797.5,638.5l0,-333" class="g2_240" />
<path d="M797.5,639.5l0,-1" class="g2_240" />
<path d="M798.5,639.5l90,0" class="g2_240" />
<path d="M888.5,638.5l0,-333" class="g2_240" />
<path d="M888.5,639.5l0,-1" class="g2_240" />
<path d="M888.5,639.5l0,-1" class="g2_240" />
<path fill-rule="evenodd" d="M47,736l840,0l0,-24L47,712l0,24Z" class="g3_240" />
<g clip-path="url(#c4_240)">
<path fill-rule="evenodd" d="M55,736l825,0l0,-24L55,712l0,24Z" class="g3_240" />
</g>
<path d="M46.5,712.5l0,-1" class="g4_240" />
<path d="M46.5,712.5l0,-1" class="g4_240" />
<path d="M47.5,712.5l840,0" class="g4_240" />
<path d="M887.5,712.5l0,-1" class="g4_240" />
<path d="M887.5,712.5l0,-1" class="g4_240" />
<path d="M46.5,736.5l0,-24" class="g4_240" />
<path d="M46.5,738.5l0,-2" class="g4_240" />
<path d="M46.5,738.5l0,-2" class="g4_240" />
<path d="M47.5,738.5l840,0" class="g4_240" />
<path d="M887.5,736.5l0,-24" class="g4_240" />
<path d="M887.5,738.5l0,-2" class="g4_240" />
<path d="M887.5,738.5l0,-2" class="g4_240" />
<path fill-rule="evenodd" d="M47,1082l840,0l0,-319L47,763l0,319Z" class="g3_240" />
<g clip-path="url(#c5_240)">
<path fill-rule="evenodd" d="M55,780l825,0l0,-17L55,763l0,17Z" class="g3_240" />
</g>
<path fill-rule="evenodd" d="M55,797l825,0l0,-17L55,780l0,17Z" class="g3_240" />
<path fill-rule="evenodd" d="M55,813l825,0l0,-16L55,797l0,16Z" class="g3_240" />
<path fill-rule="evenodd" d="M55,830l825,0l0,-17L55,813l0,17Z" class="g3_240" />
<path fill-rule="evenodd" d="M55,847l825,0l0,-17L55,830l0,17Z" class="g3_240" />
<path fill-rule="evenodd" d="M55,864l825,0l0,-17L55,847l0,17Z" class="g3_240" />
<path fill-rule="evenodd" d="M55,881l825,0l0,-17L55,864l0,17Z" class="g3_240" />
<path fill-rule="evenodd" d="M55,897l825,0l0,-16L55,881l0,16Z" class="g3_240" />
<path fill-rule="evenodd" d="M55,914l825,0l0,-17L55,897l0,17Z" class="g3_240" />
<path fill-rule="evenodd" d="M55,931l825,0l0,-17L55,914l0,17Z" class="g3_240" />
<path fill-rule="evenodd" d="M55,948l825,0l0,-17L55,931l0,17Z" class="g3_240" />
<path fill-rule="evenodd" d="M55,965l825,0l0,-17L55,948l0,17Z" class="g3_240" />
<path fill-rule="evenodd" d="M55,982l825,0l0,-17L55,965l0,17Z" class="g3_240" />
<path fill-rule="evenodd" d="M55,998l825,0l0,-16L55,982l0,16Z" class="g3_240" />
<path fill-rule="evenodd" d="M55,1015l825,0l0,-17L55,998l0,17Z" class="g3_240" />
<path fill-rule="evenodd" d="M55,1032l825,0l0,-17l-825,0l0,17Z" class="g3_240" />
<path fill-rule="evenodd" d="M55,1049l825,0l0,-17l-825,0l0,17Z" class="g3_240" />
<path fill-rule="evenodd" d="M55,1066l825,0l0,-17l-825,0l0,17Z" class="g3_240" />
<g clip-path="url(#c5_240)">
<path fill-rule="evenodd" d="M55,1082l825,0l0,-16l-825,0l0,16Z" class="g3_240" />
</g>
<path d="M46.5,763.5l0,-1" class="g4_240" />
<path d="M46.5,763.5l0,-1" class="g4_240" />
<path d="M47.5,763.5l840,0" class="g4_240" />
<path d="M887.5,763.5l0,-1" class="g4_240" />
<path d="M887.5,763.5l0,-1" class="g4_240" />
<path d="M46.5,1082.5l0,-319" class="g4_240" />
<path d="M46.5,1084.5l0,-2" class="g4_240" />
<path d="M46.5,1084.5l0,-2" class="g4_240" />
<path d="M47.5,1084.5l840,0" class="g4_240" />
<path d="M887.5,1082.5l0,-319" class="g4_240" />
<path d="M887.5,1084.5l0,-2" class="g4_240" />
<path d="M887.5,1084.5l0,-2" class="g4_240" />
</svg>