<?xml version="1.0" encoding="UTF-8" standalone="no"?>
<!DOCTYPE svg PUBLIC "-//W3C//DTD SVG 1.1//EN"
"http://www.w3.org/Graphics/SVG/1.1/DTD/svg11.dtd">
<svg version="1.1" xmlns="http://www.w3.org/2000/svg" xmlns:xlink="http://www.w3.org/1999/xlink">
<defs>
<clipPath id="c0_384"><path d="M247.5,144.5l0,-33l192,0l0,33Z" /></clipPath>
<clipPath id="c1_384"><path d="M441.5,144.5l0,-33l67,0l0,33Z" /></clipPath>
<clipPath id="c2_384"><path d="M509.5,144.5l0,-33l280,0l0,33Z" /></clipPath>
<clipPath id="c3_384"><path d="M791.5,144.5l0,-33l81,0l0,33Z" /></clipPath>
<clipPath id="c4_384"><path d="M247.5,241.5l0,-96l192,0l0,96Z" /></clipPath>
<clipPath id="c5_384"><path d="M441.5,241.5l0,-96l67,0l0,96Z" /></clipPath>
<clipPath id="c6_384"><path d="M509.5,241.5l0,-96l280,0l0,96Z" /></clipPath>
<clipPath id="c7_384"><path d="M791.5,241.5l0,-96l81,0l0,96Z" /></clipPath>
<clipPath id="c8_384"><path d="M247.5,338.5l0,-96l192,0l0,96Z" /></clipPath>
<clipPath id="c9_384"><path d="M441.5,338.5l0,-96l67,0l0,96Z" /></clipPath>
<clipPath id="c10_384"><path d="M509.5,338.5l0,-96l280,0l0,96Z" /></clipPath>
<clipPath id="c11_384"><path d="M791.5,338.5l0,-96l81,0l0,96Z" /></clipPath>
<clipPath id="c12_384"><path d="M247.5,434.5l0,-95l192,0l0,95Z" /></clipPath>
<clipPath id="c13_384"><path d="M441.5,434.5l0,-95l67,0l0,95Z" /></clipPath>
<clipPath id="c14_384"><path d="M509.5,434.5l0,-95l280,0l0,95Z" /></clipPath>
<clipPath id="c15_384"><path d="M791.5,434.5l0,-95l81,0l0,95Z" /></clipPath>
<clipPath id="c16_384"><path d="M247.5,508.5l0,-72l192,0l0,72Z" /></clipPath>
<clipPath id="c17_384"><path d="M441.5,508.5l0,-72l67,0l0,72Z" /></clipPath>
<clipPath id="c18_384"><path d="M509.5,508.5l0,-72l280,0l0,72Z" /></clipPath>
<clipPath id="c19_384"><path d="M791.5,508.5l0,-72l81,0l0,72Z" /></clipPath>
<clipPath id="c20_384"><path d="M247.5,727.5l0,-72l192,0l0,72Z" /></clipPath>
<clipPath id="c21_384"><path d="M441.5,727.5l0,-72l67,0l0,72Z" /></clipPath>
<clipPath id="c22_384"><path d="M509.5,727.5l0,-72l280,0l0,72Z" /></clipPath>
<clipPath id="c23_384"><path d="M791.5,727.5l0,-72l81,0l0,72Z" /></clipPath>
<clipPath id="c24_384"><path d="M247.5,800.5l0,-72l192,0l0,72Z" /></clipPath>
<clipPath id="c25_384"><path d="M441.5,800.5l0,-72l67,0l0,72Z" /></clipPath>
<clipPath id="c26_384"><path d="M509.5,800.5l0,-72l280,0l0,72Z" /></clipPath>
<clipPath id="c27_384"><path d="M791.5,800.5l0,-72l81,0l0,72Z" /></clipPath>
<clipPath id="c28_384"><path d="M180.5,1071.5l0,-270l32,0l0,270Z" /></clipPath>
<clipPath id="c29_384"><path d="M214.5,1071.5l0,-270l31,0l0,270Z" /></clipPath>
<clipPath id="c30_384"><path d="M247.5,833.5l0,-32l192,0l0,32Z" /></clipPath>
<clipPath id="c31_384"><path d="M441.5,833.5l0,-32l67,0l0,32Z" /></clipPath>
<clipPath id="c32_384"><path d="M509.5,833.5l0,-32l280,0l0,32Z" /></clipPath>
<clipPath id="c33_384"><path d="M791.5,833.5l0,-32l81,0l0,32Z" /></clipPath>
<clipPath id="c34_384"><path d="M247.5,858.5l0,-24l192,0l0,24Z" /></clipPath>
<clipPath id="c35_384"><path d="M441.5,858.5l0,-24l67,0l0,24Z" /></clipPath>
<clipPath id="c36_384"><path d="M509.5,858.5l0,-24l280,0l0,24Z" /></clipPath>
<clipPath id="c37_384"><path d="M791.5,858.5l0,-24l81,0l0,24Z" /></clipPath>
<clipPath id="c38_384"><path d="M247.5,883.5l0,-23l192,0l0,23Z" /></clipPath>
<clipPath id="c39_384"><path d="M441.5,883.5l0,-23l67,0l0,23Z" /></clipPath>
<clipPath id="c40_384"><path d="M509.5,883.5l0,-23l280,0l0,23Z" /></clipPath>
<clipPath id="c41_384"><path d="M791.5,883.5l0,-23l81,0l0,23Z" /></clipPath>
<clipPath id="c42_384"><path d="M247.5,909.5l0,-24l192,0l0,24Z" /></clipPath>
<clipPath id="c43_384"><path d="M441.5,909.5l0,-24l67,0l0,24Z" /></clipPath>
<clipPath id="c44_384"><path d="M509.5,909.5l0,-24l280,0l0,24Z" /></clipPath>
<clipPath id="c45_384"><path d="M791.5,909.5l0,-24l81,0l0,24Z" /></clipPath>
<clipPath id="c46_384"><path d="M509.5,958.5l0,-48l280,0l0,48Z" /></clipPath>
<clipPath id="c47_384"><path d="M247.5,1071.5l0,-111l31,0l0,111Z" /></clipPath>
<clipPath id="c48_384"><path d="M280.5,1071.5l0,-111l31,0l0,111Z" /></clipPath>
<style type="text/css"><![CDATA[
.g2_384{
fill: none;
stroke: #7E7E7E;
stroke-width: 1;
stroke-linecap: butt;
stroke-linejoin: miter;
}
.g1_384{
fill: #F1F1F1;
}
]]></style>
</defs>
<path fill-rule="evenodd" d="M47,144l32,0l0,-33l-32,0l0,33Z" class="g1_384" />
<path fill-rule="evenodd" d="M81,144l32,0l0,-33l-32,0l0,33Z" class="g1_384" />
<path fill-rule="evenodd" d="M114,144l32,0l0,-33l-32,0l0,33Z" class="g1_384" />
<path fill-rule="evenodd" d="M147,144l32,0l0,-33l-32,0l0,33Z" class="g1_384" />
<path fill-rule="evenodd" d="M180,144l32,0l0,-33l-32,0l0,33Z" class="g1_384" />
<path fill-rule="evenodd" d="M214,144l31,0l0,-33l-31,0l0,33Z" class="g1_384" />
<path fill-rule="evenodd" d="M247,144l192,0l0,-33l-192,0l0,33Z" class="g1_384" />
<g clip-path="url(#c0_384)">
<path fill-rule="evenodd" d="M254,135l178,0l0,-24l-178,0l0,24Z" class="g1_384" />
</g>
<path fill-rule="evenodd" d="M441,144l67,0l0,-33l-67,0l0,33Z" class="g1_384" />
<g clip-path="url(#c1_384)">
<path fill-rule="evenodd" d="M448,135l52,0l0,-24l-52,0l0,24Z" class="g1_384" />
</g>
<path fill-rule="evenodd" d="M509,144l280,0l0,-33l-280,0l0,33Z" class="g1_384" />
<g clip-path="url(#c2_384)">
<path fill-rule="evenodd" d="M517,135l265,0l0,-24l-265,0l0,24Z" class="g1_384" />
</g>
<path fill-rule="evenodd" d="M791,144l81,0l0,-33l-81,0l0,33Z" class="g1_384" />
<g clip-path="url(#c3_384)">
<path fill-rule="evenodd" d="M798,135l66,0l0,-24l-66,0l0,24Z" class="g1_384" />
</g>
<path d="M46.5,111.5l0,-1" class="g2_384" />
<path d="M46.5,111.5l0,-1" class="g2_384" />
<path d="M47.5,111.5l32,0" class="g2_384" />
<path d="M79.5,111.5l0,-1" class="g2_384" />
<path d="M81.5,111.5l32,0" class="g2_384" />
<path d="M113.5,111.5l0,-1" class="g2_384" />
<path d="M114.5,111.5l32,0" class="g2_384" />
<path d="M146.5,111.5l0,-1" class="g2_384" />
<path d="M147.5,111.5l32,0" class="g2_384" />
<path d="M179.5,111.5l0,-1" class="g2_384" />
<path d="M180.5,111.5l32,0" class="g2_384" />
<path d="M212.5,111.5l0,-1" class="g2_384" />
<path d="M213.5,111.5l32,0" class="g2_384" />
<path d="M245.5,111.5l0,-1" class="g2_384" />
<path d="M247.5,111.5l192,0" class="g2_384" />
<path d="M439.5,111.5l0,-1" class="g2_384" />
<path d="M441.5,111.5l67,0" class="g2_384" />
<path d="M508.5,111.5l0,-1" class="g2_384" />
<path d="M509.5,111.5l281,0" class="g2_384" />
<path d="M790.5,111.5l0,-1" class="g2_384" />
<path d="M791.5,111.5l81,0" class="g2_384" />
<path d="M872.5,111.5l0,-1" class="g2_384" />
<path d="M872.5,111.5l0,-1" class="g2_384" />
<path d="M46.5,144.5l0,-33" class="g2_384" />
<path d="M79.5,144.5l0,-33" class="g2_384" />
<path d="M113.5,144.5l0,-33" class="g2_384" />
<path d="M146.5,144.5l0,-33" class="g2_384" />
<path d="M179.5,144.5l0,-33" class="g2_384" />
<path d="M212.5,144.5l0,-33" class="g2_384" />
<path d="M245.5,144.5l0,-33" class="g2_384" />
<path d="M439.5,144.5l0,-33" class="g2_384" />
<path d="M508.5,144.5l0,-33" class="g2_384" />
<path d="M790.5,144.5l0,-33" class="g2_384" />
<path d="M872.5,144.5l0,-33" class="g2_384" />
<path fill-rule="evenodd" d="M47,241l32,0l0,-97l-32,0l0,97Z" class="g1_384" />
<path fill-rule="evenodd" d="M81,241l32,0l0,-97l-32,0l0,97Z" class="g1_384" />
<path fill-rule="evenodd" d="M114,241l32,0l0,-97l-32,0l0,97Z" class="g1_384" />
<path fill-rule="evenodd" d="M147,241l32,0l0,-97l-32,0l0,97Z" class="g1_384" />
<path fill-rule="evenodd" d="M180,241l32,0l0,-97l-32,0l0,97Z" class="g1_384" />
<path fill-rule="evenodd" d="M214,241l31,0l0,-97l-31,0l0,97Z" class="g1_384" />
<path fill-rule="evenodd" d="M247,241l192,0l0,-96l-192,0l0,96Z" class="g1_384" />
<g clip-path="url(#c4_384)">
<path fill-rule="evenodd" d="M254,169l178,0l0,-24l-178,0l0,24Z" class="g1_384" />
</g>
<path fill-rule="evenodd" d="M441,241l67,0l0,-96l-67,0l0,96Z" class="g1_384" />
<g clip-path="url(#c5_384)">
<path fill-rule="evenodd" d="M448,169l52,0l0,-24l-52,0l0,24Z" class="g1_384" />
</g>
<path fill-rule="evenodd" d="M509,241l280,0l0,-96l-280,0l0,96Z" class="g1_384" />
<g clip-path="url(#c6_384)">
<path fill-rule="evenodd" d="M517,169l265,0l0,-24l-265,0l0,24Z" class="g1_384" />
</g>
<path fill-rule="evenodd" d="M517,193l265,0l0,-24l-265,0l0,24Z" class="g1_384" />
<path fill-rule="evenodd" d="M517,217l265,0l0,-24l-265,0l0,24Z" class="g1_384" />
<path fill-rule="evenodd" d="M517,241l265,0l0,-24l-265,0l0,24Z" class="g1_384" />
<path fill-rule="evenodd" d="M791,241l81,0l0,-96l-81,0l0,96Z" class="g1_384" />
<g clip-path="url(#c7_384)">
<path fill-rule="evenodd" d="M798,169l66,0l0,-24l-66,0l0,24Z" class="g1_384" />
</g>
<path d="M46.5,145.5l0,-1" class="g2_384" />
<path d="M79.5,145.5l0,-1" class="g2_384" />
<path d="M113.5,145.5l0,-1" class="g2_384" />
<path d="M146.5,145.5l0,-1" class="g2_384" />
<path d="M179.5,145.5l0,-1" class="g2_384" />
<path d="M212.5,145.5l0,-1" class="g2_384" />
<path d="M245.5,145.5l0,-1" class="g2_384" />
<path d="M247.5,145.5l192,0" class="g2_384" />
<path d="M439.5,145.5l0,-1" class="g2_384" />
<path d="M441.5,145.5l67,0" class="g2_384" />
<path d="M508.5,145.5l0,-1" class="g2_384" />
<path d="M509.5,145.5l281,0" class="g2_384" />
<path d="M790.5,145.5l0,-1" class="g2_384" />
<path d="M791.5,145.5l81,0" class="g2_384" />
<path d="M872.5,145.5l0,-1" class="g2_384" />
<path d="M46.5,241.5l0,-96" class="g2_384" />
<path d="M79.5,241.5l0,-96" class="g2_384" />
<path d="M113.5,241.5l0,-96" class="g2_384" />
<path d="M146.5,241.5l0,-96" class="g2_384" />
<path d="M179.5,241.5l0,-96" class="g2_384" />
<path d="M212.5,241.5l0,-96" class="g2_384" />
<path d="M245.5,241.5l0,-96" class="g2_384" />
<path d="M439.5,241.5l0,-96" class="g2_384" />
<path d="M508.5,241.5l0,-96" class="g2_384" />
<path d="M790.5,241.5l0,-96" class="g2_384" />
<path d="M872.5,241.5l0,-96" class="g2_384" />
<path fill-rule="evenodd" d="M47,338l32,0l0,-97l-32,0l0,97Z" class="g1_384" />
<path fill-rule="evenodd" d="M81,338l32,0l0,-97l-32,0l0,97Z" class="g1_384" />
<path fill-rule="evenodd" d="M114,338l32,0l0,-97l-32,0l0,97Z" class="g1_384" />
<path fill-rule="evenodd" d="M147,338l32,0l0,-97l-32,0l0,97Z" class="g1_384" />
<path fill-rule="evenodd" d="M180,338l32,0l0,-97l-32,0l0,97Z" class="g1_384" />
<path fill-rule="evenodd" d="M214,338l31,0l0,-97l-31,0l0,97Z" class="g1_384" />
<path fill-rule="evenodd" d="M247,338l192,0l0,-96l-192,0l0,96Z" class="g1_384" />
<g clip-path="url(#c8_384)">
<path fill-rule="evenodd" d="M254,266l178,0l0,-24l-178,0l0,24Z" class="g1_384" />
</g>
<path fill-rule="evenodd" d="M441,338l67,0l0,-96l-67,0l0,96Z" class="g1_384" />
<g clip-path="url(#c9_384)">
<path fill-rule="evenodd" d="M448,266l52,0l0,-24l-52,0l0,24Z" class="g1_384" />
</g>
<path fill-rule="evenodd" d="M509,338l280,0l0,-96l-280,0l0,96Z" class="g1_384" />
<g clip-path="url(#c10_384)">
<path fill-rule="evenodd" d="M517,266l265,0l0,-24l-265,0l0,24Z" class="g1_384" />
</g>
<path fill-rule="evenodd" d="M517,290l265,0l0,-24l-265,0l0,24Z" class="g1_384" />
<path fill-rule="evenodd" d="M517,314l265,0l0,-24l-265,0l0,24Z" class="g1_384" />
<path fill-rule="evenodd" d="M517,338l265,0l0,-24l-265,0l0,24Z" class="g1_384" />
<path fill-rule="evenodd" d="M791,338l81,0l0,-96l-81,0l0,96Z" class="g1_384" />
<g clip-path="url(#c11_384)">
<path fill-rule="evenodd" d="M798,266l66,0l0,-24l-66,0l0,24Z" class="g1_384" />
</g>
<path d="M46.5,242.5l0,-1" class="g2_384" />
<path d="M79.5,242.5l0,-1" class="g2_384" />
<path d="M113.5,242.5l0,-1" class="g2_384" />
<path d="M146.5,242.5l0,-1" class="g2_384" />
<path d="M179.5,242.5l0,-1" class="g2_384" />
<path d="M212.5,242.5l0,-1" class="g2_384" />
<path d="M245.5,242.5l0,-1" class="g2_384" />
<path d="M247.5,242.5l192,0" class="g2_384" />
<path d="M439.5,242.5l0,-1" class="g2_384" />
<path d="M441.5,242.5l67,0" class="g2_384" />
<path d="M508.5,242.5l0,-1" class="g2_384" />
<path d="M509.5,242.5l281,0" class="g2_384" />
<path d="M790.5,242.5l0,-1" class="g2_384" />
<path d="M791.5,242.5l81,0" class="g2_384" />
<path d="M872.5,242.5l0,-1" class="g2_384" />
<path d="M46.5,338.5l0,-96" class="g2_384" />
<path d="M79.5,338.5l0,-96" class="g2_384" />
<path d="M113.5,338.5l0,-96" class="g2_384" />
<path d="M146.5,338.5l0,-96" class="g2_384" />
<path d="M179.5,338.5l0,-96" class="g2_384" />
<path d="M212.5,338.5l0,-96" class="g2_384" />
<path d="M245.5,338.5l0,-96" class="g2_384" />
<path d="M439.5,338.5l0,-96" class="g2_384" />
<path d="M508.5,338.5l0,-96" class="g2_384" />
<path d="M790.5,338.5l0,-96" class="g2_384" />
<path d="M872.5,338.5l0,-96" class="g2_384" />
<path fill-rule="evenodd" d="M47,434l32,0l0,-96l-32,0l0,96Z" class="g1_384" />
<path fill-rule="evenodd" d="M81,434l32,0l0,-96l-32,0l0,96Z" class="g1_384" />
<path fill-rule="evenodd" d="M114,434l32,0l0,-96l-32,0l0,96Z" class="g1_384" />
<path fill-rule="evenodd" d="M147,434l32,0l0,-96l-32,0l0,96Z" class="g1_384" />
<path fill-rule="evenodd" d="M180,434l32,0l0,-96l-32,0l0,96Z" class="g1_384" />
<path fill-rule="evenodd" d="M214,434l31,0l0,-96l-31,0l0,96Z" class="g1_384" />
<path fill-rule="evenodd" d="M247,434l192,0l0,-95l-192,0l0,95Z" class="g1_384" />
<g clip-path="url(#c12_384)">
<path fill-rule="evenodd" d="M254,363l178,0l0,-24l-178,0l0,24Z" class="g1_384" />
</g>
<path fill-rule="evenodd" d="M441,434l67,0l0,-95l-67,0l0,95Z" class="g1_384" />
<g clip-path="url(#c13_384)">
<path fill-rule="evenodd" d="M448,363l52,0l0,-24l-52,0l0,24Z" class="g1_384" />
</g>
<path fill-rule="evenodd" d="M509,434l280,0l0,-95l-280,0l0,95Z" class="g1_384" />
<g clip-path="url(#c14_384)">
<path fill-rule="evenodd" d="M517,363l265,0l0,-24l-265,0l0,24Z" class="g1_384" />
</g>
<path fill-rule="evenodd" d="M517,387l265,0l0,-24l-265,0l0,24Z" class="g1_384" />
<path fill-rule="evenodd" d="M517,411l265,0l0,-24l-265,0l0,24Z" class="g1_384" />
<path fill-rule="evenodd" d="M517,434l265,0l0,-23l-265,0l0,23Z" class="g1_384" />
<path fill-rule="evenodd" d="M791,434l81,0l0,-95l-81,0l0,95Z" class="g1_384" />
<g clip-path="url(#c15_384)">
<path fill-rule="evenodd" d="M798,363l66,0l0,-24l-66,0l0,24Z" class="g1_384" />
</g>
<path d="M46.5,339.5l0,-1" class="g2_384" />
<path d="M79.5,339.5l0,-1" class="g2_384" />
<path d="M113.5,339.5l0,-1" class="g2_384" />
<path d="M146.5,339.5l0,-1" class="g2_384" />
<path d="M179.5,339.5l0,-1" class="g2_384" />
<path d="M212.5,339.5l0,-1" class="g2_384" />
<path d="M245.5,339.5l0,-1" class="g2_384" />
<path d="M247.5,339.5l192,0" class="g2_384" />
<path d="M439.5,339.5l0,-1" class="g2_384" />
<path d="M441.5,339.5l67,0" class="g2_384" />
<path d="M508.5,339.5l0,-1" class="g2_384" />
<path d="M509.5,339.5l281,0" class="g2_384" />
<path d="M790.5,339.5l0,-1" class="g2_384" />
<path d="M791.5,339.5l81,0" class="g2_384" />
<path d="M872.5,339.5l0,-1" class="g2_384" />
<path d="M46.5,434.5l0,-95" class="g2_384" />
<path d="M79.5,434.5l0,-95" class="g2_384" />
<path d="M113.5,434.5l0,-95" class="g2_384" />
<path d="M146.5,434.5l0,-95" class="g2_384" />
<path d="M179.5,434.5l0,-95" class="g2_384" />
<path d="M212.5,434.5l0,-95" class="g2_384" />
<path d="M245.5,434.5l0,-95" class="g2_384" />
<path d="M439.5,434.5l0,-95" class="g2_384" />
<path d="M508.5,434.5l0,-95" class="g2_384" />
<path d="M790.5,434.5l0,-95" class="g2_384" />
<path d="M872.5,434.5l0,-95" class="g2_384" />
<path fill-rule="evenodd" d="M47,508l32,0l0,-73l-32,0l0,73Z" class="g1_384" />
<path fill-rule="evenodd" d="M81,508l32,0l0,-73l-32,0l0,73Z" class="g1_384" />
<path fill-rule="evenodd" d="M114,508l32,0l0,-73l-32,0l0,73Z" class="g1_384" />
<path fill-rule="evenodd" d="M147,508l32,0l0,-73l-32,0l0,73Z" class="g1_384" />
<path fill-rule="evenodd" d="M180,508l32,0l0,-73l-32,0l0,73Z" class="g1_384" />
<path fill-rule="evenodd" d="M214,508l31,0l0,-73l-31,0l0,73Z" class="g1_384" />
<path fill-rule="evenodd" d="M247,508l192,0l0,-72l-192,0l0,72Z" class="g1_384" />
<g clip-path="url(#c16_384)">
<path fill-rule="evenodd" d="M254,460l178,0l0,-24l-178,0l0,24Z" class="g1_384" />
</g>
<path fill-rule="evenodd" d="M441,508l67,0l0,-72l-67,0l0,72Z" class="g1_384" />
<g clip-path="url(#c17_384)">
<path fill-rule="evenodd" d="M448,460l52,0l0,-24l-52,0l0,24Z" class="g1_384" />
</g>
<path fill-rule="evenodd" d="M509,508l280,0l0,-72l-280,0l0,72Z" class="g1_384" />
<g clip-path="url(#c18_384)">
<path fill-rule="evenodd" d="M517,460l265,0l0,-24l-265,0l0,24Z" class="g1_384" />
</g>
<path fill-rule="evenodd" d="M517,484l265,0l0,-24l-265,0l0,24Z" class="g1_384" />
<path fill-rule="evenodd" d="M517,508l265,0l0,-24l-265,0l0,24Z" class="g1_384" />
<path fill-rule="evenodd" d="M791,508l81,0l0,-72l-81,0l0,72Z" class="g1_384" />
<g clip-path="url(#c19_384)">
<path fill-rule="evenodd" d="M798,460l66,0l0,-24l-66,0l0,24Z" class="g1_384" />
</g>
<path d="M46.5,436.5l0,-2" class="g2_384" />
<path d="M79.5,436.5l0,-2" class="g2_384" />
<path d="M113.5,436.5l0,-2" class="g2_384" />
<path d="M146.5,436.5l0,-2" class="g2_384" />
<path d="M179.5,436.5l0,-2" class="g2_384" />
<path d="M212.5,436.5l0,-2" class="g2_384" />
<path d="M245.5,436.5l0,-2" class="g2_384" />
<path d="M247.5,436.5l192,0" class="g2_384" />
<path d="M439.5,436.5l0,-2" class="g2_384" />
<path d="M441.5,436.5l67,0" class="g2_384" />
<path d="M508.5,436.5l0,-2" class="g2_384" />
<path d="M509.5,436.5l281,0" class="g2_384" />
<path d="M790.5,436.5l0,-2" class="g2_384" />
<path d="M791.5,436.5l81,0" class="g2_384" />
<path d="M872.5,436.5l0,-2" class="g2_384" />
<path d="M46.5,508.5l0,-72" class="g2_384" />
<path d="M79.5,508.5l0,-72" class="g2_384" />
<path d="M113.5,508.5l0,-72" class="g2_384" />
<path d="M146.5,508.5l0,-72" class="g2_384" />
<path d="M179.5,508.5l0,-72" class="g2_384" />
<path d="M212.5,508.5l0,-72" class="g2_384" />
<path d="M245.5,508.5l0,-72" class="g2_384" />
<path d="M439.5,508.5l0,-72" class="g2_384" />
<path d="M508.5,508.5l0,-72" class="g2_384" />
<path d="M790.5,508.5l0,-72" class="g2_384" />
<path d="M872.5,508.5l0,-72" class="g2_384" />
<path fill-rule="evenodd" d="M47,581l32,0l0,-73l-32,0l0,73Z" class="g1_384" />
<path fill-rule="evenodd" d="M81,581l32,0l0,-73l-32,0l0,73Z" class="g1_384" />
<path fill-rule="evenodd" d="M114,581l32,0l0,-73l-32,0l0,73Z" class="g1_384" />
<path fill-rule="evenodd" d="M147,581l32,0l0,-73l-32,0l0,73Z" class="g1_384" />
<path fill-rule="evenodd" d="M180,581l32,0l0,-73l-32,0l0,73Z" class="g1_384" />
<path fill-rule="evenodd" d="M214,581l31,0l0,-73l-31,0l0,73Z" class="g1_384" />
<path fill-rule="evenodd" d="M247,581l192,0l0,-72l-192,0l0,72Z" class="g1_384" />
<path fill-rule="evenodd" d="M254,533l178,0l0,-24l-178,0l0,24Z" class="g1_384" />
<path fill-rule="evenodd" d="M441,581l67,0l0,-72l-67,0l0,72Z" class="g1_384" />
<path fill-rule="evenodd" d="M448,533l52,0l0,-24l-52,0l0,24Z" class="g1_384" />
<path fill-rule="evenodd" d="M509,581l280,0l0,-72l-280,0l0,72Z" class="g1_384" />
<path fill-rule="evenodd" d="M517,533l265,0l0,-24l-265,0l0,24Z" class="g1_384" />
<path fill-rule="evenodd" d="M517,557l265,0l0,-24l-265,0l0,24Z" class="g1_384" />
<path fill-rule="evenodd" d="M517,581l265,0l0,-24l-265,0l0,24Z" class="g1_384" />
<path fill-rule="evenodd" d="M791,581l81,0l0,-72l-81,0l0,72Z" class="g1_384" />
<path fill-rule="evenodd" d="M798,533l66,0l0,-24l-66,0l0,24Z" class="g1_384" />
<path d="M46.5,509.5l0,-1" class="g2_384" />
<path d="M79.5,509.5l0,-1" class="g2_384" />
<path d="M113.5,509.5l0,-1" class="g2_384" />
<path d="M146.5,509.5l0,-1" class="g2_384" />
<path d="M179.5,509.5l0,-1" class="g2_384" />
<path d="M212.5,509.5l0,-1" class="g2_384" />
<path d="M245.5,509.5l0,-1" class="g2_384" />
<path d="M247.5,509.5l192,0" class="g2_384" />
<path d="M439.5,509.5l0,-1" class="g2_384" />
<path d="M441.5,509.5l67,0" class="g2_384" />
<path d="M508.5,509.5l0,-1" class="g2_384" />
<path d="M509.5,509.5l281,0" class="g2_384" />
<path d="M790.5,509.5l0,-1" class="g2_384" />
<path d="M791.5,509.5l81,0" class="g2_384" />
<path d="M872.5,509.5l0,-1" class="g2_384" />
<path d="M46.5,581.5l0,-72" class="g2_384" />
<path d="M79.5,581.5l0,-72" class="g2_384" />
<path d="M113.5,581.5l0,-72" class="g2_384" />
<path d="M146.5,581.5l0,-72" class="g2_384" />
<path d="M179.5,581.5l0,-72" class="g2_384" />
<path d="M212.5,581.5l0,-72" class="g2_384" />
<path d="M245.5,581.5l0,-72" class="g2_384" />
<path d="M439.5,581.5l0,-72" class="g2_384" />
<path d="M508.5,581.5l0,-72" class="g2_384" />
<path d="M790.5,581.5l0,-72" class="g2_384" />
<path d="M872.5,581.5l0,-72" class="g2_384" />
<path fill-rule="evenodd" d="M47,654l32,0l0,-73l-32,0l0,73Z" class="g1_384" />
<path fill-rule="evenodd" d="M81,654l32,0l0,-73l-32,0l0,73Z" class="g1_384" />
<path fill-rule="evenodd" d="M114,654l32,0l0,-73l-32,0l0,73Z" class="g1_384" />
<path fill-rule="evenodd" d="M147,654l32,0l0,-73l-32,0l0,73Z" class="g1_384" />
<path fill-rule="evenodd" d="M180,654l32,0l0,-73l-32,0l0,73Z" class="g1_384" />
<path fill-rule="evenodd" d="M214,654l31,0l0,-73l-31,0l0,73Z" class="g1_384" />
<path fill-rule="evenodd" d="M247,654l192,0l0,-72l-192,0l0,72Z" class="g1_384" />
<path fill-rule="evenodd" d="M254,606l178,0l0,-24l-178,0l0,24Z" class="g1_384" />
<path fill-rule="evenodd" d="M441,654l67,0l0,-72l-67,0l0,72Z" class="g1_384" />
<path fill-rule="evenodd" d="M448,606l52,0l0,-24l-52,0l0,24Z" class="g1_384" />
<path fill-rule="evenodd" d="M509,654l280,0l0,-72l-280,0l0,72Z" class="g1_384" />
<path fill-rule="evenodd" d="M517,606l265,0l0,-24l-265,0l0,24Z" class="g1_384" />
<path fill-rule="evenodd" d="M517,630l265,0l0,-24l-265,0l0,24Z" class="g1_384" />
<path fill-rule="evenodd" d="M517,654l265,0l0,-24l-265,0l0,24Z" class="g1_384" />
<path fill-rule="evenodd" d="M791,654l81,0l0,-72l-81,0l0,72Z" class="g1_384" />
<path fill-rule="evenodd" d="M798,606l66,0l0,-24l-66,0l0,24Z" class="g1_384" />
<path d="M46.5,582.5l0,-1" class="g2_384" />
<path d="M79.5,582.5l0,-1" class="g2_384" />
<path d="M113.5,582.5l0,-1" class="g2_384" />
<path d="M146.5,582.5l0,-1" class="g2_384" />
<path d="M179.5,582.5l0,-1" class="g2_384" />
<path d="M212.5,582.5l0,-1" class="g2_384" />
<path d="M245.5,582.5l0,-1" class="g2_384" />
<path d="M247.5,582.5l192,0" class="g2_384" />
<path d="M439.5,582.5l0,-1" class="g2_384" />
<path d="M441.5,582.5l67,0" class="g2_384" />
<path d="M508.5,582.5l0,-1" class="g2_384" />
<path d="M509.5,582.5l281,0" class="g2_384" />
<path d="M790.5,582.5l0,-1" class="g2_384" />
<path d="M791.5,582.5l81,0" class="g2_384" />
<path d="M872.5,582.5l0,-1" class="g2_384" />
<path d="M46.5,654.5l0,-72" class="g2_384" />
<path d="M79.5,654.5l0,-72" class="g2_384" />
<path d="M113.5,654.5l0,-72" class="g2_384" />
<path d="M146.5,654.5l0,-72" class="g2_384" />
<path d="M179.5,654.5l0,-72" class="g2_384" />
<path d="M212.5,654.5l0,-72" class="g2_384" />
<path d="M245.5,654.5l0,-72" class="g2_384" />
<path d="M439.5,654.5l0,-72" class="g2_384" />
<path d="M508.5,654.5l0,-72" class="g2_384" />
<path d="M790.5,654.5l0,-72" class="g2_384" />
<path d="M872.5,654.5l0,-72" class="g2_384" />
<path fill-rule="evenodd" d="M47,727l32,0l0,-73l-32,0l0,73Z" class="g1_384" />
<path fill-rule="evenodd" d="M81,727l32,0l0,-73l-32,0l0,73Z" class="g1_384" />
<path fill-rule="evenodd" d="M114,727l32,0l0,-73l-32,0l0,73Z" class="g1_384" />
<path fill-rule="evenodd" d="M147,727l32,0l0,-73l-32,0l0,73Z" class="g1_384" />
<path fill-rule="evenodd" d="M180,727l32,0l0,-73l-32,0l0,73Z" class="g1_384" />
<path fill-rule="evenodd" d="M214,727l31,0l0,-73l-31,0l0,73Z" class="g1_384" />
<path fill-rule="evenodd" d="M247,727l192,0l0,-72l-192,0l0,72Z" class="g1_384" />
<g clip-path="url(#c20_384)">
<path fill-rule="evenodd" d="M254,679l178,0l0,-24l-178,0l0,24Z" class="g1_384" />
</g>
<path fill-rule="evenodd" d="M441,727l67,0l0,-72l-67,0l0,72Z" class="g1_384" />
<g clip-path="url(#c21_384)">
<path fill-rule="evenodd" d="M448,679l52,0l0,-24l-52,0l0,24Z" class="g1_384" />
</g>
<path fill-rule="evenodd" d="M509,727l280,0l0,-72l-280,0l0,72Z" class="g1_384" />
<g clip-path="url(#c22_384)">
<path fill-rule="evenodd" d="M517,679l265,0l0,-24l-265,0l0,24Z" class="g1_384" />
</g>
<path fill-rule="evenodd" d="M517,703l265,0l0,-24l-265,0l0,24Z" class="g1_384" />
<path fill-rule="evenodd" d="M517,727l265,0l0,-24l-265,0l0,24Z" class="g1_384" />
<path fill-rule="evenodd" d="M791,727l81,0l0,-72l-81,0l0,72Z" class="g1_384" />
<g clip-path="url(#c23_384)">
<path fill-rule="evenodd" d="M798,679l66,0l0,-24l-66,0l0,24Z" class="g1_384" />
</g>
<path d="M46.5,655.5l0,-1" class="g2_384" />
<path d="M79.5,655.5l0,-1" class="g2_384" />
<path d="M113.5,655.5l0,-1" class="g2_384" />
<path d="M146.5,655.5l0,-1" class="g2_384" />
<path d="M179.5,655.5l0,-1" class="g2_384" />
<path d="M212.5,655.5l0,-1" class="g2_384" />
<path d="M245.5,655.5l0,-1" class="g2_384" />
<path d="M247.5,655.5l192,0" class="g2_384" />
<path d="M439.5,655.5l0,-1" class="g2_384" />
<path d="M441.5,655.5l67,0" class="g2_384" />
<path d="M508.5,655.5l0,-1" class="g2_384" />
<path d="M509.5,655.5l281,0" class="g2_384" />
<path d="M790.5,655.5l0,-1" class="g2_384" />
<path d="M791.5,655.5l81,0" class="g2_384" />
<path d="M872.5,655.5l0,-1" class="g2_384" />
<path d="M46.5,727.5l0,-72" class="g2_384" />
<path d="M79.5,727.5l0,-72" class="g2_384" />
<path d="M113.5,727.5l0,-72" class="g2_384" />
<path d="M146.5,727.5l0,-72" class="g2_384" />
<path d="M179.5,727.5l0,-72" class="g2_384" />
<path d="M212.5,727.5l0,-72" class="g2_384" />
<path d="M245.5,727.5l0,-72" class="g2_384" />
<path d="M439.5,727.5l0,-72" class="g2_384" />
<path d="M508.5,727.5l0,-72" class="g2_384" />
<path d="M790.5,727.5l0,-72" class="g2_384" />
<path d="M872.5,727.5l0,-72" class="g2_384" />
<path fill-rule="evenodd" d="M47,800l32,0l0,-73l-32,0l0,73Z" class="g1_384" />
<path fill-rule="evenodd" d="M81,800l32,0l0,-73l-32,0l0,73Z" class="g1_384" />
<path fill-rule="evenodd" d="M114,800l32,0l0,-73l-32,0l0,73Z" class="g1_384" />
<path fill-rule="evenodd" d="M147,800l32,0l0,-73l-32,0l0,73Z" class="g1_384" />
<path fill-rule="evenodd" d="M180,800l32,0l0,-73l-32,0l0,73Z" class="g1_384" />
<path fill-rule="evenodd" d="M214,800l31,0l0,-73l-31,0l0,73Z" class="g1_384" />
<path fill-rule="evenodd" d="M247,800l192,0l0,-72l-192,0l0,72Z" class="g1_384" />
<g clip-path="url(#c24_384)">
<path fill-rule="evenodd" d="M254,752l178,0l0,-24l-178,0l0,24Z" class="g1_384" />
</g>
<path fill-rule="evenodd" d="M441,800l67,0l0,-72l-67,0l0,72Z" class="g1_384" />
<g clip-path="url(#c25_384)">
<path fill-rule="evenodd" d="M448,752l52,0l0,-24l-52,0l0,24Z" class="g1_384" />
</g>
<path fill-rule="evenodd" d="M509,800l280,0l0,-72l-280,0l0,72Z" class="g1_384" />
<g clip-path="url(#c26_384)">
<path fill-rule="evenodd" d="M517,752l265,0l0,-24l-265,0l0,24Z" class="g1_384" />
</g>
<path fill-rule="evenodd" d="M517,776l265,0l0,-24l-265,0l0,24Z" class="g1_384" />
<path fill-rule="evenodd" d="M517,800l265,0l0,-24l-265,0l0,24Z" class="g1_384" />
<path fill-rule="evenodd" d="M791,800l81,0l0,-72l-81,0l0,72Z" class="g1_384" />
<g clip-path="url(#c27_384)">
<path fill-rule="evenodd" d="M798,752l66,0l0,-24l-66,0l0,24Z" class="g1_384" />
</g>
<path d="M46.5,728.5l0,-1" class="g2_384" />
<path d="M79.5,728.5l0,-1" class="g2_384" />
<path d="M113.5,728.5l0,-1" class="g2_384" />
<path d="M146.5,728.5l0,-1" class="g2_384" />
<path d="M179.5,728.5l0,-1" class="g2_384" />
<path d="M212.5,728.5l0,-1" class="g2_384" />
<path d="M245.5,728.5l0,-1" class="g2_384" />
<path d="M247.5,728.5l192,0" class="g2_384" />
<path d="M439.5,728.5l0,-1" class="g2_384" />
<path d="M441.5,728.5l67,0" class="g2_384" />
<path d="M508.5,728.5l0,-1" class="g2_384" />
<path d="M509.5,728.5l281,0" class="g2_384" />
<path d="M790.5,728.5l0,-1" class="g2_384" />
<path d="M791.5,728.5l81,0" class="g2_384" />
<path d="M872.5,728.5l0,-1" class="g2_384" />
<path d="M46.5,800.5l0,-72" class="g2_384" />
<path d="M79.5,800.5l0,-72" class="g2_384" />
<path d="M113.5,800.5l0,-72" class="g2_384" />
<path d="M146.5,800.5l0,-72" class="g2_384" />
<path d="M179.5,800.5l0,-72" class="g2_384" />
<path d="M212.5,800.5l0,-72" class="g2_384" />
<path d="M245.5,800.5l0,-72" class="g2_384" />
<path d="M439.5,800.5l0,-72" class="g2_384" />
<path d="M508.5,800.5l0,-72" class="g2_384" />
<path d="M790.5,800.5l0,-72" class="g2_384" />
<path d="M872.5,800.5l0,-72" class="g2_384" />
<path fill-rule="evenodd" d="M47,833l32,0l0,-33l-32,0l0,33Z" class="g1_384" />
<path fill-rule="evenodd" d="M81,833l32,0l0,-33l-32,0l0,33Z" class="g1_384" />
<path fill-rule="evenodd" d="M114,833l32,0l0,-33l-32,0l0,33Z" class="g1_384" />
<path fill-rule="evenodd" d="M147,833l32,0l0,-33l-32,0l0,33Z" class="g1_384" />
<path fill-rule="evenodd" d="M180,1071l32,0l0,-270l-32,0l0,270Z" class="g1_384" />
<g clip-path="url(#c28_384)">
<path fill-rule="evenodd" d="M188,1071l24,0l0,-270l-24,0l0,270Z" class="g1_384" />
</g>
<path fill-rule="evenodd" d="M214,1071l31,0l0,-270l-31,0l0,270Z" class="g1_384" />
<g clip-path="url(#c29_384)">
<path fill-rule="evenodd" d="M221,1071l24,0l0,-270l-24,0l0,270Z" class="g1_384" />
</g>
<path fill-rule="evenodd" d="M247,833l192,0l0,-32l-192,0l0,32Z" class="g1_384" />
<g clip-path="url(#c30_384)">
<path fill-rule="evenodd" d="M254,825l178,0l0,-24l-178,0l0,24Z" class="g1_384" />
</g>
<path fill-rule="evenodd" d="M441,833l67,0l0,-32l-67,0l0,32Z" class="g1_384" />
<g clip-path="url(#c31_384)">
<path fill-rule="evenodd" d="M448,825l52,0l0,-24l-52,0l0,24Z" class="g1_384" />
</g>
<path fill-rule="evenodd" d="M509,833l280,0l0,-32l-280,0l0,32Z" class="g1_384" />
<g clip-path="url(#c32_384)">
<path fill-rule="evenodd" d="M517,825l265,0l0,-24l-265,0l0,24Z" class="g1_384" />
</g>
<path fill-rule="evenodd" d="M791,833l81,0l0,-32l-81,0l0,32Z" class="g1_384" />
<g clip-path="url(#c33_384)">
<path fill-rule="evenodd" d="M798,825l66,0l0,-24l-66,0l0,24Z" class="g1_384" />
</g>
<path d="M46.5,801.5l0,-1" class="g2_384" />
<path d="M79.5,801.5l0,-1" class="g2_384" />
<path d="M113.5,801.5l0,-1" class="g2_384" />
<path d="M146.5,801.5l0,-1" class="g2_384" />
<path d="M179.5,801.5l0,-1" class="g2_384" />
<path d="M180.5,801.5l32,0" class="g2_384" />
<path d="M212.5,801.5l0,-1" class="g2_384" />
<path d="M213.5,801.5l32,0" class="g2_384" />
<path d="M245.5,801.5l0,-1" class="g2_384" />
<path d="M247.5,801.5l192,0" class="g2_384" />
<path d="M439.5,801.5l0,-1" class="g2_384" />
<path d="M441.5,801.5l67,0" class="g2_384" />
<path d="M508.5,801.5l0,-1" class="g2_384" />
<path d="M509.5,801.5l281,0" class="g2_384" />
<path d="M790.5,801.5l0,-1" class="g2_384" />
<path d="M791.5,801.5l81,0" class="g2_384" />
<path d="M872.5,801.5l0,-1" class="g2_384" />
<path d="M46.5,833.5l0,-32" class="g2_384" />
<path d="M79.5,833.5l0,-32" class="g2_384" />
<path d="M113.5,833.5l0,-32" class="g2_384" />
<path d="M146.5,833.5l0,-32" class="g2_384" />
<path d="M179.5,833.5l0,-32" class="g2_384" />
<path d="M212.5,833.5l0,-32" class="g2_384" />
<path d="M245.5,833.5l0,-32" class="g2_384" />
<path d="M439.5,833.5l0,-32" class="g2_384" />
<path d="M508.5,833.5l0,-32" class="g2_384" />
<path d="M790.5,833.5l0,-32" class="g2_384" />
<path d="M872.5,833.5l0,-32" class="g2_384" />
<path fill-rule="evenodd" d="M47,858l32,0l0,-25l-32,0l0,25Z" class="g1_384" />
<path fill-rule="evenodd" d="M81,858l32,0l0,-25l-32,0l0,25Z" class="g1_384" />
<path fill-rule="evenodd" d="M114,858l32,0l0,-25l-32,0l0,25Z" class="g1_384" />
<path fill-rule="evenodd" d="M147,858l32,0l0,-25l-32,0l0,25Z" class="g1_384" />
<path fill-rule="evenodd" d="M247,858l192,0l0,-24l-192,0l0,24Z" class="g1_384" />
<g clip-path="url(#c34_384)">
<path fill-rule="evenodd" d="M254,858l178,0l0,-24l-178,0l0,24Z" class="g1_384" />
</g>
<path fill-rule="evenodd" d="M441,858l67,0l0,-24l-67,0l0,24Z" class="g1_384" />
<g clip-path="url(#c35_384)">
<path fill-rule="evenodd" d="M448,858l52,0l0,-24l-52,0l0,24Z" class="g1_384" />
</g>
<path fill-rule="evenodd" d="M509,858l280,0l0,-24l-280,0l0,24Z" class="g1_384" />
<g clip-path="url(#c36_384)">
<path fill-rule="evenodd" d="M517,858l265,0l0,-24l-265,0l0,24Z" class="g1_384" />
</g>
<path fill-rule="evenodd" d="M791,858l81,0l0,-24l-81,0l0,24Z" class="g1_384" />
<g clip-path="url(#c37_384)">
<path fill-rule="evenodd" d="M798,858l66,0l0,-24l-66,0l0,24Z" class="g1_384" />
</g>
<path d="M46.5,834.5l0,-1" class="g2_384" />
<path d="M79.5,834.5l0,-1" class="g2_384" />
<path d="M113.5,834.5l0,-1" class="g2_384" />
<path d="M146.5,834.5l0,-1" class="g2_384" />
<path d="M179.5,834.5l0,-1" class="g2_384" />
<path d="M212.5,834.5l0,-1" class="g2_384" />
<path d="M245.5,834.5l0,-1" class="g2_384" />
<path d="M247.5,834.5l192,0" class="g2_384" />
<path d="M439.5,834.5l0,-1" class="g2_384" />
<path d="M441.5,834.5l67,0" class="g2_384" />
<path d="M508.5,834.5l0,-1" class="g2_384" />
<path d="M509.5,834.5l281,0" class="g2_384" />
<path d="M790.5,834.5l0,-1" class="g2_384" />
<path d="M791.5,834.5l81,0" class="g2_384" />
<path d="M872.5,834.5l0,-1" class="g2_384" />
<path d="M46.5,858.5l0,-24" class="g2_384" />
<path d="M79.5,858.5l0,-24" class="g2_384" />
<path d="M113.5,858.5l0,-24" class="g2_384" />
<path d="M146.5,858.5l0,-24" class="g2_384" />
<path d="M179.5,858.5l0,-24" class="g2_384" />
<path d="M212.5,858.5l0,-24" class="g2_384" />
<path d="M245.5,858.5l0,-24" class="g2_384" />
<path d="M439.5,858.5l0,-24" class="g2_384" />
<path d="M508.5,858.5l0,-24" class="g2_384" />
<path d="M790.5,858.5l0,-24" class="g2_384" />
<path d="M872.5,858.5l0,-24" class="g2_384" />
<path fill-rule="evenodd" d="M47,883l32,0l0,-25l-32,0l0,25Z" class="g1_384" />
<path fill-rule="evenodd" d="M81,883l32,0l0,-25l-32,0l0,25Z" class="g1_384" />
<path fill-rule="evenodd" d="M114,883l32,0l0,-25l-32,0l0,25Z" class="g1_384" />
<path fill-rule="evenodd" d="M147,883l32,0l0,-25l-32,0l0,25Z" class="g1_384" />
<path fill-rule="evenodd" d="M247,883l192,0l0,-23l-192,0l0,23Z" class="g1_384" />
<g clip-path="url(#c38_384)">
<path fill-rule="evenodd" d="M254,883l178,0l0,-23l-178,0l0,23Z" class="g1_384" />
</g>
<path fill-rule="evenodd" d="M441,883l67,0l0,-23l-67,0l0,23Z" class="g1_384" />
<g clip-path="url(#c39_384)">
<path fill-rule="evenodd" d="M448,883l52,0l0,-23l-52,0l0,23Z" class="g1_384" />
</g>
<path fill-rule="evenodd" d="M509,883l280,0l0,-23l-280,0l0,23Z" class="g1_384" />
<g clip-path="url(#c40_384)">
<path fill-rule="evenodd" d="M517,883l265,0l0,-23l-265,0l0,23Z" class="g1_384" />
</g>
<path fill-rule="evenodd" d="M791,883l81,0l0,-23l-81,0l0,23Z" class="g1_384" />
<g clip-path="url(#c41_384)">
<path fill-rule="evenodd" d="M798,883l66,0l0,-23l-66,0l0,23Z" class="g1_384" />
</g>
<path d="M46.5,859.5l0,-1" class="g2_384" />
<path d="M79.5,859.5l0,-1" class="g2_384" />
<path d="M113.5,859.5l0,-1" class="g2_384" />
<path d="M146.5,859.5l0,-1" class="g2_384" />
<path d="M179.5,859.5l0,-1" class="g2_384" />
<path d="M212.5,859.5l0,-1" class="g2_384" />
<path d="M245.5,859.5l0,-1" class="g2_384" />
<path d="M247.5,859.5l192,0" class="g2_384" />
<path d="M439.5,859.5l0,-1" class="g2_384" />
<path d="M441.5,859.5l67,0" class="g2_384" />
<path d="M508.5,859.5l0,-1" class="g2_384" />
<path d="M509.5,859.5l281,0" class="g2_384" />
<path d="M790.5,859.5l0,-1" class="g2_384" />
<path d="M791.5,859.5l81,0" class="g2_384" />
<path d="M872.5,859.5l0,-1" class="g2_384" />
<path d="M46.5,883.5l0,-24" class="g2_384" />
<path d="M79.5,883.5l0,-24" class="g2_384" />
<path d="M113.5,883.5l0,-24" class="g2_384" />
<path d="M146.5,883.5l0,-24" class="g2_384" />
<path d="M179.5,883.5l0,-24" class="g2_384" />
<path d="M212.5,883.5l0,-24" class="g2_384" />
<path d="M245.5,883.5l0,-24" class="g2_384" />
<path d="M439.5,883.5l0,-24" class="g2_384" />
<path d="M508.5,883.5l0,-24" class="g2_384" />
<path d="M790.5,883.5l0,-24" class="g2_384" />
<path d="M872.5,883.5l0,-24" class="g2_384" />
<path fill-rule="evenodd" d="M47,909l32,0l0,-26l-32,0l0,26Z" class="g1_384" />
<path fill-rule="evenodd" d="M81,909l32,0l0,-26l-32,0l0,26Z" class="g1_384" />
<path fill-rule="evenodd" d="M114,909l32,0l0,-26l-32,0l0,26Z" class="g1_384" />
<path fill-rule="evenodd" d="M147,909l32,0l0,-26l-32,0l0,26Z" class="g1_384" />
<path fill-rule="evenodd" d="M247,909l192,0l0,-24l-192,0l0,24Z" class="g1_384" />
<g clip-path="url(#c42_384)">
<path fill-rule="evenodd" d="M254,909l178,0l0,-24l-178,0l0,24Z" class="g1_384" />
</g>
<path fill-rule="evenodd" d="M441,909l67,0l0,-24l-67,0l0,24Z" class="g1_384" />
<g clip-path="url(#c43_384)">
<path fill-rule="evenodd" d="M448,909l52,0l0,-24l-52,0l0,24Z" class="g1_384" />
</g>
<path fill-rule="evenodd" d="M509,909l280,0l0,-24l-280,0l0,24Z" class="g1_384" />
<g clip-path="url(#c44_384)">
<path fill-rule="evenodd" d="M517,909l265,0l0,-24l-265,0l0,24Z" class="g1_384" />
</g>
<path fill-rule="evenodd" d="M791,909l81,0l0,-24l-81,0l0,24Z" class="g1_384" />
<g clip-path="url(#c45_384)">
<path fill-rule="evenodd" d="M798,909l66,0l0,-24l-66,0l0,24Z" class="g1_384" />
</g>
<path d="M46.5,885.5l0,-2" class="g2_384" />
<path d="M79.5,885.5l0,-2" class="g2_384" />
<path d="M113.5,885.5l0,-2" class="g2_384" />
<path d="M146.5,885.5l0,-2" class="g2_384" />
<path d="M179.5,885.5l0,-2" class="g2_384" />
<path d="M212.5,885.5l0,-2" class="g2_384" />
<path d="M245.5,885.5l0,-2" class="g2_384" />
<path d="M247.5,885.5l192,0" class="g2_384" />
<path d="M439.5,885.5l0,-2" class="g2_384" />
<path d="M441.5,885.5l67,0" class="g2_384" />
<path d="M508.5,885.5l0,-2" class="g2_384" />
<path d="M509.5,885.5l281,0" class="g2_384" />
<path d="M790.5,885.5l0,-2" class="g2_384" />
<path d="M791.5,885.5l81,0" class="g2_384" />
<path d="M872.5,885.5l0,-2" class="g2_384" />
<path d="M46.5,909.5l0,-24" class="g2_384" />
<path d="M79.5,909.5l0,-24" class="g2_384" />
<path d="M113.5,909.5l0,-24" class="g2_384" />
<path d="M146.5,909.5l0,-24" class="g2_384" />
<path d="M179.5,909.5l0,-24" class="g2_384" />
<path d="M212.5,909.5l0,-24" class="g2_384" />
<path d="M245.5,909.5l0,-24" class="g2_384" />
<path d="M439.5,909.5l0,-24" class="g2_384" />
<path d="M508.5,909.5l0,-24" class="g2_384" />
<path d="M790.5,909.5l0,-24" class="g2_384" />
<path d="M872.5,909.5l0,-24" class="g2_384" />
<path fill-rule="evenodd" d="M47,958l32,0l0,-49l-32,0l0,49Z" class="g1_384" />
<path fill-rule="evenodd" d="M81,958l32,0l0,-49l-32,0l0,49Z" class="g1_384" />
<path fill-rule="evenodd" d="M114,958l32,0l0,-49l-32,0l0,49Z" class="g1_384" />
<path fill-rule="evenodd" d="M147,958l32,0l0,-49l-32,0l0,49Z" class="g1_384" />
<path fill-rule="evenodd" d="M247,958l192,0l0,-48l-192,0l0,48Z" class="g1_384" />
<path fill-rule="evenodd" d="M254,934l178,0l0,-24l-178,0l0,24Z" class="g1_384" />
<path fill-rule="evenodd" d="M441,958l67,0l0,-48l-67,0l0,48Z" class="g1_384" />
<path fill-rule="evenodd" d="M448,934l52,0l0,-24l-52,0l0,24Z" class="g1_384" />
<path fill-rule="evenodd" d="M509,958l280,0l0,-48l-280,0l0,48Z" class="g1_384" />
<path fill-rule="evenodd" d="M517,934l265,0l0,-24l-265,0l0,24Z" class="g1_384" />
<g clip-path="url(#c46_384)">
<path fill-rule="evenodd" d="M517,958l265,0l0,-24l-265,0l0,24Z" class="g1_384" />
</g>
<path fill-rule="evenodd" d="M791,958l81,0l0,-48l-81,0l0,48Z" class="g1_384" />
<path fill-rule="evenodd" d="M798,934l66,0l0,-24l-66,0l0,24Z" class="g1_384" />
<path d="M46.5,910.5l0,-1" class="g2_384" />
<path d="M79.5,910.5l0,-1" class="g2_384" />
<path d="M113.5,910.5l0,-1" class="g2_384" />
<path d="M146.5,910.5l0,-1" class="g2_384" />
<path d="M179.5,910.5l0,-1" class="g2_384" />
<path d="M212.5,910.5l0,-1" class="g2_384" />
<path d="M245.5,910.5l0,-1" class="g2_384" />
<path d="M247.5,910.5l192,0" class="g2_384" />
<path d="M439.5,910.5l0,-1" class="g2_384" />
<path d="M441.5,910.5l67,0" class="g2_384" />
<path d="M508.5,910.5l0,-1" class="g2_384" />
<path d="M509.5,910.5l281,0" class="g2_384" />
<path d="M790.5,910.5l0,-1" class="g2_384" />
<path d="M791.5,910.5l81,0" class="g2_384" />
<path d="M872.5,910.5l0,-1" class="g2_384" />
<path d="M46.5,958.5l0,-48" class="g2_384" />
<path d="M79.5,958.5l0,-48" class="g2_384" />
<path d="M113.5,958.5l0,-48" class="g2_384" />
<path d="M146.5,958.5l0,-48" class="g2_384" />
<path d="M179.5,958.5l0,-48" class="g2_384" />
<path d="M212.5,958.5l0,-48" class="g2_384" />
<path d="M245.5,958.5l0,-48" class="g2_384" />
<path d="M439.5,958.5l0,-48" class="g2_384" />
<path d="M508.5,958.5l0,-48" class="g2_384" />
<path d="M790.5,958.5l0,-48" class="g2_384" />
<path d="M872.5,958.5l0,-48" class="g2_384" />
<path fill-rule="evenodd" d="M47,998l32,0l0,-40l-32,0l0,40Z" class="g1_384" />
<path fill-rule="evenodd" d="M81,998l32,0l0,-40l-32,0l0,40Z" class="g1_384" />
<path fill-rule="evenodd" d="M114,998l32,0l0,-40l-32,0l0,40Z" class="g1_384" />
<path fill-rule="evenodd" d="M147,998l32,0l0,-40l-32,0l0,40Z" class="g1_384" />
<path fill-rule="evenodd" d="M247,1071l31,0l0,-111l-31,0l0,111Z" class="g1_384" />
<g clip-path="url(#c47_384)">
<path fill-rule="evenodd" d="M254,1071l24,0l0,-111l-24,0l0,111Z" class="g1_384" />
</g>
<path fill-rule="evenodd" d="M280,1071l31,0l0,-111l-31,0l0,111Z" class="g1_384" />
<g clip-path="url(#c48_384)">
<path fill-rule="evenodd" d="M287,1071l24,0l0,-111l-24,0l0,111Z" class="g1_384" />
</g>
<path fill-rule="evenodd" d="M313,998l126,0l0,-38l-126,0l0,38Z" class="g1_384" />
<path fill-rule="evenodd" d="M320,983l112,0l0,-23l-112,0l0,23Z" class="g1_384" />
<path fill-rule="evenodd" d="M441,998l67,0l0,-38l-67,0l0,38Z" class="g1_384" />
<path fill-rule="evenodd" d="M448,983l52,0l0,-23l-52,0l0,23Z" class="g1_384" />
<path fill-rule="evenodd" d="M509,998l280,0l0,-38l-280,0l0,38Z" class="g1_384" />
<path fill-rule="evenodd" d="M517,983l265,0l0,-23l-265,0l0,23Z" class="g1_384" />
<path fill-rule="evenodd" d="M791,998l81,0l0,-38l-81,0l0,38Z" class="g1_384" />
<path fill-rule="evenodd" d="M798,983l66,0l0,-23l-66,0l0,23Z" class="g1_384" />
<path d="M46.5,959.5l0,-1" class="g2_384" />
<path d="M79.5,959.5l0,-1" class="g2_384" />
<path d="M113.5,959.5l0,-1" class="g2_384" />
<path d="M146.5,959.5l0,-1" class="g2_384" />
<path d="M179.5,959.5l0,-1" class="g2_384" />
<path d="M212.5,959.5l0,-1" class="g2_384" />
<path d="M245.5,959.5l0,-1" class="g2_384" />
<path d="M247.5,959.5l31,0" class="g2_384" />
<path d="M278.5,959.5l0,-1" class="g2_384" />
<path d="M280.5,959.5l31,0" class="g2_384" />
<path d="M311.5,959.5l0,-1" class="g2_384" />
<path d="M313.5,959.5l126,0" class="g2_384" />
<path d="M439.5,959.5l0,-1" class="g2_384" />
<path d="M441.5,959.5l67,0" class="g2_384" />
<path d="M508.5,959.5l0,-1" class="g2_384" />
<path d="M509.5,959.5l281,0" class="g2_384" />
<path d="M790.5,959.5l0,-1" class="g2_384" />
<path d="M791.5,959.5l81,0" class="g2_384" />
<path d="M872.5,959.5l0,-1" class="g2_384" />
<path d="M46.5,998.5l0,-39" class="g2_384" />
<path d="M79.5,998.5l0,-39" class="g2_384" />
<path d="M113.5,998.5l0,-39" class="g2_384" />
<path d="M146.5,998.5l0,-39" class="g2_384" />
<path d="M179.5,998.5l0,-39" class="g2_384" />
<path d="M212.5,998.5l0,-39" class="g2_384" />
<path d="M245.5,998.5l0,-39" class="g2_384" />
<path d="M278.5,998.5l0,-39" class="g2_384" />
<path d="M311.5,998.5l0,-39" class="g2_384" />
<path d="M439.5,998.5l0,-39" class="g2_384" />
<path d="M508.5,998.5l0,-39" class="g2_384" />
<path d="M790.5,998.5l0,-39" class="g2_384" />
<path d="M872.5,998.5l0,-39" class="g2_384" />
<path fill-rule="evenodd" d="M47,1038l32,0l0,-40l-32,0l0,40Z" class="g1_384" />
<path fill-rule="evenodd" d="M81,1038l32,0l0,-40l-32,0l0,40Z" class="g1_384" />
<path fill-rule="evenodd" d="M114,1038l32,0l0,-40l-32,0l0,40Z" class="g1_384" />
<path fill-rule="evenodd" d="M147,1038l32,0l0,-40l-32,0l0,40Z" class="g1_384" />
<path fill-rule="evenodd" d="M313,1038l126,0l0,-38l-126,0l0,38Z" class="g1_384" />
<path fill-rule="evenodd" d="M320,1024l112,0l0,-24l-112,0l0,24Z" class="g1_384" />
<path fill-rule="evenodd" d="M441,1038l67,0l0,-38l-67,0l0,38Z" class="g1_384" />
<path fill-rule="evenodd" d="M448,1024l52,0l0,-24l-52,0l0,24Z" class="g1_384" />
<path fill-rule="evenodd" d="M509,1038l280,0l0,-38l-280,0l0,38Z" class="g1_384" />
<path fill-rule="evenodd" d="M517,1024l265,0l0,-24l-265,0l0,24Z" class="g1_384" />
<path fill-rule="evenodd" d="M791,1038l81,0l0,-38l-81,0l0,38Z" class="g1_384" />
<path fill-rule="evenodd" d="M798,1024l66,0l0,-24l-66,0l0,24Z" class="g1_384" />
<path d="M46.5,1000.5l0,-2" class="g2_384" />
<path d="M79.5,1000.5l0,-2" class="g2_384" />
<path d="M113.5,1000.5l0,-2" class="g2_384" />
<path d="M146.5,1000.5l0,-2" class="g2_384" />
<path d="M179.5,1000.5l0,-2" class="g2_384" />
<path d="M212.5,1000.5l0,-2" class="g2_384" />
<path d="M245.5,1000.5l0,-2" class="g2_384" />
<path d="M278.5,1000.5l0,-2" class="g2_384" />
<path d="M311.5,1000.5l0,-2" class="g2_384" />
<path d="M313.5,1000.5l126,0" class="g2_384" />
<path d="M439.5,1000.5l0,-2" class="g2_384" />
<path d="M441.5,1000.5l67,0" class="g2_384" />
<path d="M508.5,1000.5l0,-2" class="g2_384" />
<path d="M509.5,1000.5l281,0" class="g2_384" />
<path d="M790.5,1000.5l0,-2" class="g2_384" />
<path d="M791.5,1000.5l81,0" class="g2_384" />
<path d="M872.5,1000.5l0,-2" class="g2_384" />
<path d="M46.5,1038.5l0,-38" class="g2_384" />
<path d="M79.5,1038.5l0,-38" class="g2_384" />
<path d="M113.5,1038.5l0,-38" class="g2_384" />
<path d="M146.5,1038.5l0,-38" class="g2_384" />
<path d="M179.5,1038.5l0,-38" class="g2_384" />
<path d="M212.5,1038.5l0,-38" class="g2_384" />
<path d="M245.5,1038.5l0,-38" class="g2_384" />
<path d="M278.5,1038.5l0,-38" class="g2_384" />
<path d="M311.5,1038.5l0,-38" class="g2_384" />
<path d="M439.5,1038.5l0,-38" class="g2_384" />
<path d="M508.5,1038.5l0,-38" class="g2_384" />
<path d="M790.5,1038.5l0,-38" class="g2_384" />
<path d="M872.5,1038.5l0,-38" class="g2_384" />
<path fill-rule="evenodd" d="M47,1071l32,0l0,-33l-32,0l0,33Z" class="g1_384" />
<path fill-rule="evenodd" d="M81,1071l32,0l0,-33l-32,0l0,33Z" class="g1_384" />
<path fill-rule="evenodd" d="M114,1071l32,0l0,-33l-32,0l0,33Z" class="g1_384" />
<path fill-rule="evenodd" d="M147,1071l32,0l0,-33l-32,0l0,33Z" class="g1_384" />
<path fill-rule="evenodd" d="M313,1071l126,0l0,-31l-126,0l0,31Z" class="g1_384" />
<path fill-rule="evenodd" d="M320,1064l112,0l0,-24l-112,0l0,24Z" class="g1_384" />
<path fill-rule="evenodd" d="M441,1071l67,0l0,-31l-67,0l0,31Z" class="g1_384" />
<path fill-rule="evenodd" d="M448,1064l52,0l0,-24l-52,0l0,24Z" class="g1_384" />
<path fill-rule="evenodd" d="M509,1071l280,0l0,-31l-280,0l0,31Z" class="g1_384" />
<path fill-rule="evenodd" d="M517,1064l265,0l0,-24l-265,0l0,24Z" class="g1_384" />
<path fill-rule="evenodd" d="M791,1071l81,0l0,-31l-81,0l0,31Z" class="g1_384" />
<path fill-rule="evenodd" d="M798,1064l66,0l0,-24l-66,0l0,24Z" class="g1_384" />
<path d="M46.5,1040.5l0,-2" class="g2_384" />
<path d="M79.5,1040.5l0,-2" class="g2_384" />
<path d="M113.5,1040.5l0,-2" class="g2_384" />
<path d="M146.5,1040.5l0,-2" class="g2_384" />
<path d="M179.5,1040.5l0,-2" class="g2_384" />
<path d="M212.5,1040.5l0,-2" class="g2_384" />
<path d="M245.5,1040.5l0,-2" class="g2_384" />
<path d="M278.5,1040.5l0,-2" class="g2_384" />
<path d="M311.5,1040.5l0,-2" class="g2_384" />
<path d="M313.5,1040.5l126,0" class="g2_384" />
<path d="M439.5,1040.5l0,-2" class="g2_384" />
<path d="M441.5,1040.5l67,0" class="g2_384" />
<path d="M508.5,1040.5l0,-2" class="g2_384" />
<path d="M509.5,1040.5l281,0" class="g2_384" />
<path d="M790.5,1040.5l0,-2" class="g2_384" />
<path d="M791.5,1040.5l81,0" class="g2_384" />
<path d="M872.5,1040.5l0,-2" class="g2_384" />
<path d="M46.5,1071.5l0,-31" class="g2_384" />
<path d="M46.5,1073.5l0,-2" class="g2_384" />
<path d="M46.5,1073.5l0,-2" class="g2_384" />
<path d="M47.5,1073.5l32,0" class="g2_384" />
<path d="M79.5,1071.5l0,-31" class="g2_384" />
<path d="M79.5,1073.5l0,-2" class="g2_384" />
<path d="M81.5,1073.5l32,0" class="g2_384" />
<path d="M113.5,1071.5l0,-31" class="g2_384" />
<path d="M113.5,1073.5l0,-2" class="g2_384" />
<path d="M114.5,1073.5l32,0" class="g2_384" />
<path d="M146.5,1071.5l0,-31" class="g2_384" />
<path d="M146.5,1073.5l0,-2" class="g2_384" />
<path d="M147.5,1073.5l32,0" class="g2_384" />
<path d="M179.5,1071.5l0,-31" class="g2_384" />
<path d="M179.5,1073.5l0,-2" class="g2_384" />
<path d="M180.5,1073.5l32,0" class="g2_384" />
<path d="M212.5,1071.5l0,-31" class="g2_384" />
<path d="M212.5,1073.5l0,-2" class="g2_384" />
<path d="M213.5,1073.5l32,0" class="g2_384" />
<path d="M245.5,1071.5l0,-31" class="g2_384" />
<path d="M245.5,1073.5l0,-2" class="g2_384" />
<path d="M247.5,1073.5l31,0" class="g2_384" />
<path d="M278.5,1071.5l0,-31" class="g2_384" />
<path d="M278.5,1073.5l0,-2" class="g2_384" />
<path d="M280.5,1073.5l31,0" class="g2_384" />
<path d="M311.5,1071.5l0,-31" class="g2_384" />
<path d="M311.5,1073.5l0,-2" class="g2_384" />
<path d="M313.5,1073.5l126,0" class="g2_384" />
<path d="M439.5,1071.5l0,-31" class="g2_384" />
<path d="M439.5,1073.5l0,-2" class="g2_384" />
<path d="M441.5,1073.5l67,0" class="g2_384" />
<path d="M508.5,1071.5l0,-31" class="g2_384" />
<path d="M508.5,1073.5l0,-2" class="g2_384" />
<path d="M509.5,1073.5l281,0" class="g2_384" />
<path d="M790.5,1071.5l0,-31" class="g2_384" />
<path d="M790.5,1073.5l0,-2" class="g2_384" />
<path d="M791.5,1073.5l81,0" class="g2_384" />
<path d="M872.5,1071.5l0,-31" class="g2_384" />
<path d="M872.5,1073.5l0,-2" class="g2_384" />
<path d="M872.5,1073.5l0,-2" class="g2_384" />
</svg>