<?xml version="1.0" encoding="UTF-8" standalone="no"?>
<!DOCTYPE svg PUBLIC "-//W3C//DTD SVG 1.1//EN"
"http://www.w3.org/Graphics/SVG/1.1/DTD/svg11.dtd">
<svg version="1.1" xmlns="http://www.w3.org/2000/svg" xmlns:xlink="http://www.w3.org/1999/xlink">
<defs>
<clipPath id="c0_433"><path d="M47.5,612.5l0,-501l840,0l0,501Z" /></clipPath>
<clipPath id="c1_433"><path d="M47.5,771.5l0,-24l102,0l0,24Z" /></clipPath>
<clipPath id="c2_433"><path d="M151.5,771.5l0,-24l736,0l0,24Z" /></clipPath>
<clipPath id="c3_433"><path d="M47.5,796.5l0,-23l102,0l0,23Z" /></clipPath>
<clipPath id="c4_433"><path d="M151.5,796.5l0,-23l736,0l0,23Z" /></clipPath>
<clipPath id="c5_433"><path d="M47.5,1052.5l0,-181l840,0l0,181Z" /></clipPath>
<style type="text/css"><![CDATA[
.g4_433{
fill: none;
stroke: #F0F0E0;
stroke-width: 1;
stroke-linecap: butt;
stroke-linejoin: miter;
}
.g2_433{
fill: none;
stroke: #7E7E7E;
stroke-width: 1;
stroke-linecap: butt;
stroke-linejoin: miter;
}
.g3_433{
fill: none;
stroke: #0000FF;
stroke-width: 1;
stroke-linecap: butt;
stroke-linejoin: miter;
}
.g1_433{
fill: #F1F1F1;
}
]]></style>
</defs>
<path fill-rule="evenodd" d="M47,612l840,0l0,-501L47,111l0,501Z" class="g1_433" />
<g clip-path="url(#c0_433)">
<path fill-rule="evenodd" d="M55,135l825,0l0,-24L55,111l0,24Z" class="g1_433" />
</g>
<path fill-rule="evenodd" d="M55,159l825,0l0,-24L55,135l0,24Z" class="g1_433" />
<path fill-rule="evenodd" d="M55,182l825,0l0,-23L55,159l0,23Z" class="g1_433" />
<path fill-rule="evenodd" d="M55,206l825,0l0,-24L55,182l0,24Z" class="g1_433" />
<path fill-rule="evenodd" d="M55,230l825,0l0,-24L55,206l0,24Z" class="g1_433" />
<path fill-rule="evenodd" d="M55,254l825,0l0,-24L55,230l0,24Z" class="g1_433" />
<path fill-rule="evenodd" d="M55,278l825,0l0,-24L55,254l0,24Z" class="g1_433" />
<path fill-rule="evenodd" d="M55,302l825,0l0,-24L55,278l0,24Z" class="g1_433" />
<path fill-rule="evenodd" d="M55,325l825,0l0,-23L55,302l0,23Z" class="g1_433" />
<path fill-rule="evenodd" d="M55,349l825,0l0,-24L55,325l0,24Z" class="g1_433" />
<path fill-rule="evenodd" d="M55,373l825,0l0,-24L55,349l0,24Z" class="g1_433" />
<path fill-rule="evenodd" d="M55,397l825,0l0,-24L55,373l0,24Z" class="g1_433" />
<path fill-rule="evenodd" d="M55,421l825,0l0,-24L55,397l0,24Z" class="g1_433" />
<path fill-rule="evenodd" d="M55,445l825,0l0,-24L55,421l0,24Z" class="g1_433" />
<path fill-rule="evenodd" d="M55,469l825,0l0,-24L55,445l0,24Z" class="g1_433" />
<path fill-rule="evenodd" d="M55,492l825,0l0,-23L55,469l0,23Z" class="g1_433" />
<path fill-rule="evenodd" d="M55,516l825,0l0,-24L55,492l0,24Z" class="g1_433" />
<path fill-rule="evenodd" d="M55,540l825,0l0,-24L55,516l0,24Z" class="g1_433" />
<path fill-rule="evenodd" d="M55,564l825,0l0,-24L55,540l0,24Z" class="g1_433" />
<path fill-rule="evenodd" d="M55,588l825,0l0,-24L55,564l0,24Z" class="g1_433" />
<path fill-rule="evenodd" d="M55,612l825,0l0,-24L55,588l0,24Z" class="g1_433" />
<path d="M46.5,111.5l0,-1" class="g2_433" />
<path d="M46.5,111.5l0,-1" class="g2_433" />
<path d="M47.5,111.5l840,0" class="g2_433" />
<path d="M887.5,111.5l0,-1" class="g2_433" />
<path d="M887.5,111.5l0,-1" class="g2_433" />
<path d="M46.5,612.5l0,-501" class="g2_433" />
<path d="M46.5,613.5l0,-1" class="g2_433" />
<path d="M46.5,613.5l0,-1" class="g2_433" />
<path d="M47.5,613.5l840,0" class="g2_433" />
<path d="M887.5,612.5l0,-501" class="g2_433" />
<path d="M887.5,613.5l0,-1" class="g2_433" />
<path d="M887.5,613.5l0,-1" class="g2_433" />
<path d="M371.5,717.5l163,0" class="g3_433" />
<path fill-rule="evenodd" d="M47,771l102,0l0,-24L47,747l0,24Z" class="g1_433" />
<g clip-path="url(#c1_433)">
<path fill-rule="evenodd" d="M55,771l87,0l0,-24l-87,0l0,24Z" class="g1_433" />
</g>
<path fill-rule="evenodd" d="M151,771l736,0l0,-24l-736,0l0,24Z" class="g1_433" />
<g clip-path="url(#c2_433)">
<path fill-rule="evenodd" d="M158,771l722,0l0,-24l-722,0l0,24Z" class="g1_433" />
</g>
<path d="M46.5,747.5l0,-1" class="g2_433" />
<path d="M46.5,747.5l0,-1" class="g2_433" />
<path d="M47.5,747.5l102,0" class="g2_433" />
<path d="M149.5,747.5l0,-1" class="g2_433" />
<path d="M151.5,747.5l736,0" class="g2_433" />
<path d="M887.5,747.5l0,-1" class="g2_433" />
<path d="M887.5,747.5l0,-1" class="g2_433" />
<path d="M46.5,771.5l0,-24" class="g2_433" />
<path d="M149.5,771.5l0,-24" class="g2_433" />
<path d="M887.5,771.5l0,-24" class="g2_433" />
<path fill-rule="evenodd" d="M47,796l102,0l0,-23L47,773l0,23Z" class="g1_433" />
<g clip-path="url(#c3_433)">
<path fill-rule="evenodd" d="M55,796l87,0l0,-23l-87,0l0,23Z" class="g1_433" />
</g>
<path fill-rule="evenodd" d="M151,796l736,0l0,-23l-736,0l0,23Z" class="g1_433" />
<g clip-path="url(#c4_433)">
<path fill-rule="evenodd" d="M158,796l722,0l0,-23l-722,0l0,23Z" class="g1_433" />
</g>
<path d="M46.5,772.5l0,-1" class="g2_433" />
<path d="M47.5,772.5l102,0" class="g2_433" />
<path d="M149.5,772.5l0,-1" class="g2_433" />
<path d="M151.5,772.5l736,0" class="g2_433" />
<path d="M887.5,772.5l0,-1" class="g2_433" />
<path d="M46.5,796.5l0,-24" class="g2_433" />
<path d="M46.5,798.5l0,-2" class="g2_433" />
<path d="M46.5,798.5l0,-2" class="g2_433" />
<path d="M47.5,798.5l102,0" class="g2_433" />
<path d="M149.5,796.5l0,-24" class="g2_433" />
<path d="M149.5,798.5l0,-2" class="g2_433" />
<path d="M151.5,798.5l736,0" class="g2_433" />
<path d="M887.5,796.5l0,-24" class="g2_433" />
<path d="M887.5,798.5l0,-2" class="g2_433" />
<path d="M887.5,798.5l0,-2" class="g2_433" />
<path fill-rule="evenodd" d="M47,1052l840,0l0,-181L47,871l0,181Z" class="g1_433" />
<path fill-rule="evenodd" d="M55,902l825,0l0,-31L55,871l0,31Z" class="g1_433" />
<g clip-path="url(#c5_433)">
<path d="M45.5,872.5l0,-1" class="g4_433" />
<path d="M45.5,872.5l0,-1" class="g4_433" />
<path d="M46.5,872.5l842,0" class="g4_433" />
<path d="M888.5,872.5l0,-1" class="g4_433" />
<path d="M888.5,872.5l0,-1" class="g4_433" />
<path d="M45.5,902.5l0,-30" class="g4_433" />
<path d="M888.5,902.5l0,-30" class="g4_433" />
</g>
<path fill-rule="evenodd" d="M55,926l825,0l0,-24L55,902l0,24Z" class="g1_433" />
<g clip-path="url(#c5_433)">
<path d="M45.5,926.5l0,-24" class="g4_433" />
<path d="M888.5,926.5l0,-24" class="g4_433" />
</g>
<path fill-rule="evenodd" d="M55,950l825,0l0,-24L55,926l0,24Z" class="g1_433" />
<g clip-path="url(#c5_433)">
<path d="M45.5,950.5l0,-24" class="g4_433" />
<path d="M888.5,950.5l0,-24" class="g4_433" />
</g>
<path fill-rule="evenodd" d="M55,974l825,0l0,-24L55,950l0,24Z" class="g1_433" />
<g clip-path="url(#c5_433)">
<path d="M45.5,974.5l0,-24" class="g4_433" />
<path d="M888.5,974.5l0,-24" class="g4_433" />
</g>
<path fill-rule="evenodd" d="M55,997l825,0l0,-23L55,974l0,23Z" class="g1_433" />
<g clip-path="url(#c5_433)">
<path d="M45.5,997.5l0,-23" class="g4_433" />
<path d="M888.5,997.5l0,-23" class="g4_433" />
</g>
<path fill-rule="evenodd" d="M55,1021l825,0l0,-24L55,997l0,24Z" class="g1_433" />
<g clip-path="url(#c5_433)">
<path d="M45.5,1021.5l0,-24" class="g4_433" />
<path d="M888.5,1021.5l0,-24" class="g4_433" />
<path fill-rule="evenodd" d="M55,1052l825,0l0,-31l-825,0l0,31Z" class="g1_433" />
<path d="M45.5,1052.5l0,-1" class="g4_433" />
<path d="M45.5,1052.5l0,-1" class="g4_433" />
<path d="M46.5,1052.5l842,0" class="g4_433" />
<path d="M888.5,1052.5l0,-1" class="g4_433" />
<path d="M888.5,1052.5l0,-1" class="g4_433" />
<path d="M45.5,1051.5l0,-30" class="g4_433" />
<path d="M888.5,1051.5l0,-30" class="g4_433" />
</g>
<path d="M46.5,871.5l0,-2" class="g2_433" />
<path d="M46.5,871.5l0,-2" class="g2_433" />
<path d="M47.5,871.5l840,0" class="g2_433" />
<path d="M887.5,871.5l0,-2" class="g2_433" />
<path d="M887.5,871.5l0,-2" class="g2_433" />
<path d="M46.5,1052.5l0,-181" class="g2_433" />
<path d="M46.5,1054.5l0,-2" class="g2_433" />
<path d="M46.5,1054.5l0,-2" class="g2_433" />
<path d="M47.5,1054.5l840,0" class="g2_433" />
<path d="M887.5,1052.5l0,-181" class="g2_433" />
<path d="M887.5,1054.5l0,-2" class="g2_433" />
<path d="M887.5,1054.5l0,-2" class="g2_433" />
</svg>