<?xml version="1.0" encoding="UTF-8" standalone="no"?>
<!DOCTYPE svg PUBLIC "-//W3C//DTD SVG 1.1//EN"
"http://www.w3.org/Graphics/SVG/1.1/DTD/svg11.dtd">
<svg version="1.1" xmlns="http://www.w3.org/2000/svg" xmlns:xlink="http://www.w3.org/1999/xlink">
<defs>
<clipPath id="c0_457"><path d="M47.5,397.5l0,-262l840,0l0,262Z" /></clipPath>
<clipPath id="c1_457"><path d="M47.5,846.5l0,-24l102,0l0,24Z" /></clipPath>
<clipPath id="c2_457"><path d="M151.5,846.5l0,-24l736,0l0,24Z" /></clipPath>
<clipPath id="c3_457"><path d="M47.5,895.5l0,-48l102,0l0,48Z" /></clipPath>
<clipPath id="c4_457"><path d="M151.5,895.5l0,-48l736,0l0,48Z" /></clipPath>
<clipPath id="c5_457"><path d="M47.5,920.5l0,-24l102,0l0,24Z" /></clipPath>
<clipPath id="c6_457"><path d="M151.5,920.5l0,-24l736,0l0,24Z" /></clipPath>
<clipPath id="c7_457"><path d="M151.5,969.5l0,-47l736,0l0,47Z" /></clipPath>
<clipPath id="c8_457"><path d="M47.5,995.5l0,-24l102,0l0,24Z" /></clipPath>
<clipPath id="c9_457"><path d="M151.5,995.5l0,-24l736,0l0,24Z" /></clipPath>
<clipPath id="c10_457"><path d="M151.5,1044.5l0,-48l736,0l0,48Z" /></clipPath>
<clipPath id="c11_457"><path d="M151.5,1093.5l0,-48l736,0l0,48Z" /></clipPath>
<style type="text/css"><![CDATA[
.g2_457{
fill: none;
stroke: #7E7E7E;
stroke-width: 1;
stroke-linecap: butt;
stroke-linejoin: miter;
}
.g3_457{
fill: none;
stroke: #0000FF;
stroke-width: 1;
stroke-linecap: butt;
stroke-linejoin: miter;
}
.g1_457{
fill: #F1F1F1;
}
]]></style>
</defs>
<path fill-rule="evenodd" d="M47,397l840,0l0,-262L47,135l0,262Z" class="g1_457" />
<g clip-path="url(#c0_457)">
<path fill-rule="evenodd" d="M55,159l825,0l0,-24L55,135l0,24Z" class="g1_457" />
</g>
<path fill-rule="evenodd" d="M55,182l825,0l0,-23L55,159l0,23Z" class="g1_457" />
<path fill-rule="evenodd" d="M55,206l825,0l0,-24L55,182l0,24Z" class="g1_457" />
<path fill-rule="evenodd" d="M55,230l825,0l0,-24L55,206l0,24Z" class="g1_457" />
<path fill-rule="evenodd" d="M55,254l825,0l0,-24L55,230l0,24Z" class="g1_457" />
<path fill-rule="evenodd" d="M55,278l825,0l0,-24L55,254l0,24Z" class="g1_457" />
<path fill-rule="evenodd" d="M55,302l825,0l0,-24L55,278l0,24Z" class="g1_457" />
<path fill-rule="evenodd" d="M55,325l825,0l0,-23L55,302l0,23Z" class="g1_457" />
<path fill-rule="evenodd" d="M55,349l825,0l0,-24L55,325l0,24Z" class="g1_457" />
<path fill-rule="evenodd" d="M55,373l825,0l0,-24L55,349l0,24Z" class="g1_457" />
<path fill-rule="evenodd" d="M55,397l825,0l0,-24L55,373l0,24Z" class="g1_457" />
<path d="M46.5,135.5l0,-2" class="g2_457" />
<path d="M46.5,135.5l0,-2" class="g2_457" />
<path d="M47.5,135.5l840,0" class="g2_457" />
<path d="M887.5,135.5l0,-2" class="g2_457" />
<path d="M887.5,135.5l0,-2" class="g2_457" />
<path d="M46.5,397.5l0,-262" class="g2_457" />
<path d="M46.5,399.5l0,-2" class="g2_457" />
<path d="M46.5,399.5l0,-2" class="g2_457" />
<path d="M47.5,399.5l840,0" class="g2_457" />
<path d="M887.5,397.5l0,-262" class="g2_457" />
<path d="M887.5,399.5l0,-2" class="g2_457" />
<path d="M887.5,399.5l0,-2" class="g2_457" />
<path fill-rule="evenodd" d="M47,710l840,0l0,-238L47,472l0,238Z" class="g1_457" />
<path fill-rule="evenodd" d="M55,495l825,0l0,-23L55,472l0,23Z" class="g1_457" />
<path fill-rule="evenodd" d="M55,519l825,0l0,-24L55,495l0,24Z" class="g1_457" />
<path fill-rule="evenodd" d="M55,543l825,0l0,-24L55,519l0,24Z" class="g1_457" />
<path fill-rule="evenodd" d="M55,567l825,0l0,-24L55,543l0,24Z" class="g1_457" />
<path fill-rule="evenodd" d="M55,591l825,0l0,-24L55,567l0,24Z" class="g1_457" />
<path fill-rule="evenodd" d="M55,615l825,0l0,-24L55,591l0,24Z" class="g1_457" />
<path fill-rule="evenodd" d="M55,638l825,0l0,-23L55,615l0,23Z" class="g1_457" />
<path fill-rule="evenodd" d="M55,662l825,0l0,-24L55,638l0,24Z" class="g1_457" />
<path fill-rule="evenodd" d="M55,686l825,0l0,-24L55,662l0,24Z" class="g1_457" />
<path fill-rule="evenodd" d="M55,710l825,0l0,-24L55,686l0,24Z" class="g1_457" />
<path d="M46.5,472.5l0,-2" class="g2_457" />
<path d="M46.5,472.5l0,-2" class="g2_457" />
<path d="M47.5,472.5l840,0" class="g2_457" />
<path d="M887.5,472.5l0,-2" class="g2_457" />
<path d="M887.5,472.5l0,-2" class="g2_457" />
<path d="M46.5,710.5l0,-238" class="g2_457" />
<path d="M46.5,711.5l0,-1" class="g2_457" />
<path d="M46.5,711.5l0,-1" class="g2_457" />
<path d="M47.5,711.5l840,0" class="g2_457" />
<path d="M887.5,710.5l0,-238" class="g2_457" />
<path d="M887.5,711.5l0,-1" class="g2_457" />
<path d="M887.5,711.5l0,-1" class="g2_457" />
<path d="M371.5,815.5l163,0" class="g3_457" />
<path fill-rule="evenodd" d="M47,846l102,0l0,-24L47,822l0,24Z" class="g1_457" />
<g clip-path="url(#c1_457)">
<path fill-rule="evenodd" d="M55,846l87,0l0,-24l-87,0l0,24Z" class="g1_457" />
</g>
<path fill-rule="evenodd" d="M151,846l736,0l0,-24l-736,0l0,24Z" class="g1_457" />
<g clip-path="url(#c2_457)">
<path fill-rule="evenodd" d="M158,846l722,0l0,-24l-722,0l0,24Z" class="g1_457" />
</g>
<path d="M46.5,822.5l0,-2" class="g2_457" />
<path d="M46.5,822.5l0,-2" class="g2_457" />
<path d="M47.5,822.5l102,0" class="g2_457" />
<path d="M149.5,822.5l0,-2" class="g2_457" />
<path d="M151.5,822.5l736,0" class="g2_457" />
<path d="M887.5,822.5l0,-2" class="g2_457" />
<path d="M887.5,822.5l0,-2" class="g2_457" />
<path d="M46.5,846.5l0,-24" class="g2_457" />
<path d="M149.5,846.5l0,-24" class="g2_457" />
<path d="M887.5,846.5l0,-24" class="g2_457" />
<path fill-rule="evenodd" d="M47,895l102,0l0,-48L47,847l0,48Z" class="g1_457" />
<g clip-path="url(#c3_457)">
<path fill-rule="evenodd" d="M55,871l87,0l0,-24l-87,0l0,24Z" class="g1_457" />
</g>
<path fill-rule="evenodd" d="M151,895l736,0l0,-48l-736,0l0,48Z" class="g1_457" />
<g clip-path="url(#c4_457)">
<path fill-rule="evenodd" d="M158,871l722,0l0,-24l-722,0l0,24Z" class="g1_457" />
</g>
<path fill-rule="evenodd" d="M158,895l722,0l0,-24l-722,0l0,24Z" class="g1_457" />
<path d="M46.5,847.5l0,-1" class="g2_457" />
<path d="M47.5,847.5l102,0" class="g2_457" />
<path d="M149.5,847.5l0,-1" class="g2_457" />
<path d="M151.5,847.5l736,0" class="g2_457" />
<path d="M887.5,847.5l0,-1" class="g2_457" />
<path d="M46.5,895.5l0,-48" class="g2_457" />
<path d="M149.5,895.5l0,-48" class="g2_457" />
<path d="M887.5,895.5l0,-48" class="g2_457" />
<path fill-rule="evenodd" d="M47,920l102,0l0,-24L47,896l0,24Z" class="g1_457" />
<g clip-path="url(#c5_457)">
<path fill-rule="evenodd" d="M55,920l87,0l0,-24l-87,0l0,24Z" class="g1_457" />
</g>
<path fill-rule="evenodd" d="M151,920l736,0l0,-24l-736,0l0,24Z" class="g1_457" />
<g clip-path="url(#c6_457)">
<path fill-rule="evenodd" d="M158,920l722,0l0,-24l-722,0l0,24Z" class="g1_457" />
</g>
<path d="M46.5,896.5l0,-1" class="g2_457" />
<path d="M47.5,896.5l102,0" class="g2_457" />
<path d="M149.5,896.5l0,-1" class="g2_457" />
<path d="M151.5,896.5l736,0" class="g2_457" />
<path d="M887.5,896.5l0,-1" class="g2_457" />
<path d="M46.5,920.5l0,-24" class="g2_457" />
<path d="M149.5,920.5l0,-24" class="g2_457" />
<path d="M887.5,920.5l0,-24" class="g2_457" />
<path fill-rule="evenodd" d="M47,969l102,0l0,-47L47,922l0,47Z" class="g1_457" />
<path fill-rule="evenodd" d="M55,945l87,0l0,-23l-87,0l0,23Z" class="g1_457" />
<path fill-rule="evenodd" d="M151,969l736,0l0,-47l-736,0l0,47Z" class="g1_457" />
<path fill-rule="evenodd" d="M158,945l722,0l0,-23l-722,0l0,23Z" class="g1_457" />
<g clip-path="url(#c7_457)">
<path fill-rule="evenodd" d="M158,969l722,0l0,-24l-722,0l0,24Z" class="g1_457" />
</g>
<path d="M46.5,922.5l0,-2" class="g2_457" />
<path d="M47.5,922.5l102,0" class="g2_457" />
<path d="M149.5,922.5l0,-2" class="g2_457" />
<path d="M151.5,922.5l736,0" class="g2_457" />
<path d="M887.5,922.5l0,-2" class="g2_457" />
<path d="M46.5,969.5l0,-47" class="g2_457" />
<path d="M149.5,969.5l0,-47" class="g2_457" />
<path d="M887.5,969.5l0,-47" class="g2_457" />
<path fill-rule="evenodd" d="M47,995l102,0l0,-24L47,971l0,24Z" class="g1_457" />
<g clip-path="url(#c8_457)">
<path fill-rule="evenodd" d="M55,995l87,0l0,-24l-87,0l0,24Z" class="g1_457" />
</g>
<path fill-rule="evenodd" d="M151,995l736,0l0,-24l-736,0l0,24Z" class="g1_457" />
<g clip-path="url(#c9_457)">
<path fill-rule="evenodd" d="M158,995l722,0l0,-24l-722,0l0,24Z" class="g1_457" />
</g>
<path d="M46.5,971.5l0,-2" class="g2_457" />
<path d="M47.5,971.5l102,0" class="g2_457" />
<path d="M149.5,971.5l0,-2" class="g2_457" />
<path d="M151.5,971.5l736,0" class="g2_457" />
<path d="M887.5,971.5l0,-2" class="g2_457" />
<path d="M46.5,995.5l0,-24" class="g2_457" />
<path d="M149.5,995.5l0,-24" class="g2_457" />
<path d="M887.5,995.5l0,-24" class="g2_457" />
<path fill-rule="evenodd" d="M47,1044l102,0l0,-48L47,996l0,48Z" class="g1_457" />
<path fill-rule="evenodd" d="M55,1020l87,0l0,-24l-87,0l0,24Z" class="g1_457" />
<path fill-rule="evenodd" d="M151,1044l736,0l0,-48l-736,0l0,48Z" class="g1_457" />
<path fill-rule="evenodd" d="M158,1020l722,0l0,-24l-722,0l0,24Z" class="g1_457" />
<g clip-path="url(#c10_457)">
<path fill-rule="evenodd" d="M158,1044l722,0l0,-24l-722,0l0,24Z" class="g1_457" />
</g>
<path d="M46.5,996.5l0,-1" class="g2_457" />
<path d="M47.5,996.5l102,0" class="g2_457" />
<path d="M149.5,996.5l0,-1" class="g2_457" />
<path d="M151.5,996.5l736,0" class="g2_457" />
<path d="M887.5,996.5l0,-1" class="g2_457" />
<path d="M46.5,1044.5l0,-48" class="g2_457" />
<path d="M149.5,1044.5l0,-48" class="g2_457" />
<path d="M887.5,1044.5l0,-48" class="g2_457" />
<path fill-rule="evenodd" d="M47,1093l102,0l0,-48l-102,0l0,48Z" class="g1_457" />
<path fill-rule="evenodd" d="M55,1069l87,0l0,-24l-87,0l0,24Z" class="g1_457" />
<path fill-rule="evenodd" d="M151,1093l736,0l0,-48l-736,0l0,48Z" class="g1_457" />
<path fill-rule="evenodd" d="M158,1069l722,0l0,-24l-722,0l0,24Z" class="g1_457" />
<g clip-path="url(#c11_457)">
<path fill-rule="evenodd" d="M158,1093l722,0l0,-24l-722,0l0,24Z" class="g1_457" />
</g>
<path d="M46.5,1045.5l0,-1" class="g2_457" />
<path d="M47.5,1045.5l102,0" class="g2_457" />
<path d="M149.5,1045.5l0,-1" class="g2_457" />
<path d="M151.5,1045.5l736,0" class="g2_457" />
<path d="M887.5,1045.5l0,-1" class="g2_457" />
<path d="M46.5,1093.5l0,-48" class="g2_457" />
<path d="M46.5,1095.5l0,-2" class="g2_457" />
<path d="M46.5,1095.5l0,-2" class="g2_457" />
<path d="M47.5,1095.5l102,0" class="g2_457" />
<path d="M149.5,1093.5l0,-48" class="g2_457" />
<path d="M149.5,1095.5l0,-2" class="g2_457" />
<path d="M151.5,1095.5l736,0" class="g2_457" />
<path d="M887.5,1093.5l0,-48" class="g2_457" />
<path d="M887.5,1095.5l0,-2" class="g2_457" />
<path d="M887.5,1095.5l0,-2" class="g2_457" />
</svg>