<?xml version="1.0" encoding="UTF-8" standalone="no"?>
<!DOCTYPE svg PUBLIC "-//W3C//DTD SVG 1.1//EN"
"http://www.w3.org/Graphics/SVG/1.1/DTD/svg11.dtd">
<svg version="1.1" xmlns="http://www.w3.org/2000/svg" xmlns:xlink="http://www.w3.org/1999/xlink">
<defs>
<clipPath id="c0_383"><path d="M180.5,183.5l0,-72l259,0l0,72Z" /></clipPath>
<clipPath id="c1_383"><path d="M441.5,183.5l0,-72l67,0l0,72Z" /></clipPath>
<clipPath id="c2_383"><path d="M509.5,183.5l0,-72l280,0l0,72Z" /></clipPath>
<clipPath id="c3_383"><path d="M791.5,183.5l0,-72l81,0l0,72Z" /></clipPath>
<clipPath id="c4_383"><path d="M180.5,256.5l0,-72l259,0l0,72Z" /></clipPath>
<clipPath id="c5_383"><path d="M441.5,256.5l0,-72l67,0l0,72Z" /></clipPath>
<clipPath id="c6_383"><path d="M509.5,256.5l0,-72l280,0l0,72Z" /></clipPath>
<clipPath id="c7_383"><path d="M791.5,256.5l0,-72l81,0l0,72Z" /></clipPath>
<clipPath id="c8_383"><path d="M180.5,295.5l0,-38l259,0l0,38Z" /></clipPath>
<clipPath id="c9_383"><path d="M441.5,295.5l0,-38l67,0l0,38Z" /></clipPath>
<clipPath id="c10_383"><path d="M509.5,295.5l0,-38l280,0l0,38Z" /></clipPath>
<clipPath id="c11_383"><path d="M791.5,295.5l0,-38l81,0l0,38Z" /></clipPath>
<clipPath id="c12_383"><path d="M180.5,368.5l0,-71l259,0l0,71Z" /></clipPath>
<clipPath id="c13_383"><path d="M441.5,368.5l0,-71l67,0l0,71Z" /></clipPath>
<clipPath id="c14_383"><path d="M509.5,368.5l0,-71l280,0l0,71Z" /></clipPath>
<clipPath id="c15_383"><path d="M791.5,368.5l0,-71l81,0l0,71Z" /></clipPath>
<clipPath id="c16_383"><path d="M180.5,442.5l0,-72l259,0l0,72Z" /></clipPath>
<clipPath id="c17_383"><path d="M441.5,442.5l0,-72l67,0l0,72Z" /></clipPath>
<clipPath id="c18_383"><path d="M509.5,442.5l0,-72l280,0l0,72Z" /></clipPath>
<clipPath id="c19_383"><path d="M791.5,442.5l0,-72l81,0l0,72Z" /></clipPath>
<clipPath id="c20_383"><path d="M180.5,515.5l0,-72l259,0l0,72Z" /></clipPath>
<clipPath id="c21_383"><path d="M441.5,515.5l0,-72l67,0l0,72Z" /></clipPath>
<clipPath id="c22_383"><path d="M509.5,515.5l0,-72l280,0l0,72Z" /></clipPath>
<clipPath id="c23_383"><path d="M791.5,515.5l0,-72l81,0l0,72Z" /></clipPath>
<clipPath id="c24_383"><path d="M180.5,588.5l0,-72l259,0l0,72Z" /></clipPath>
<clipPath id="c25_383"><path d="M441.5,588.5l0,-72l67,0l0,72Z" /></clipPath>
<clipPath id="c26_383"><path d="M509.5,588.5l0,-72l280,0l0,72Z" /></clipPath>
<clipPath id="c27_383"><path d="M791.5,588.5l0,-72l81,0l0,72Z" /></clipPath>
<clipPath id="c28_383"><path d="M180.5,701.5l0,-72l259,0l0,72Z" /></clipPath>
<clipPath id="c29_383"><path d="M441.5,701.5l0,-72l67,0l0,72Z" /></clipPath>
<clipPath id="c30_383"><path d="M509.5,701.5l0,-72l280,0l0,72Z" /></clipPath>
<clipPath id="c31_383"><path d="M791.5,701.5l0,-72l81,0l0,72Z" /></clipPath>
<clipPath id="c32_383"><path d="M180.5,774.5l0,-72l259,0l0,72Z" /></clipPath>
<clipPath id="c33_383"><path d="M441.5,774.5l0,-72l67,0l0,72Z" /></clipPath>
<clipPath id="c34_383"><path d="M509.5,774.5l0,-72l280,0l0,72Z" /></clipPath>
<clipPath id="c35_383"><path d="M791.5,774.5l0,-72l81,0l0,72Z" /></clipPath>
<clipPath id="c36_383"><path d="M180.5,847.5l0,-72l259,0l0,72Z" /></clipPath>
<clipPath id="c37_383"><path d="M441.5,847.5l0,-72l67,0l0,72Z" /></clipPath>
<clipPath id="c38_383"><path d="M509.5,847.5l0,-72l280,0l0,72Z" /></clipPath>
<clipPath id="c39_383"><path d="M791.5,847.5l0,-72l81,0l0,72Z" /></clipPath>
<clipPath id="c40_383"><path d="M180.5,1079.5l0,-231l32,0l0,231Z" /></clipPath>
<clipPath id="c41_383"><path d="M214.5,1079.5l0,-231l31,0l0,231Z" /></clipPath>
<clipPath id="c42_383"><path d="M247.5,886.5l0,-38l192,0l0,38Z" /></clipPath>
<clipPath id="c43_383"><path d="M441.5,886.5l0,-38l67,0l0,38Z" /></clipPath>
<clipPath id="c44_383"><path d="M509.5,886.5l0,-38l280,0l0,38Z" /></clipPath>
<clipPath id="c45_383"><path d="M791.5,886.5l0,-38l81,0l0,38Z" /></clipPath>
<clipPath id="c46_383"><path d="M247.5,928.5l0,-40l192,0l0,40Z" /></clipPath>
<clipPath id="c47_383"><path d="M441.5,928.5l0,-40l67,0l0,40Z" /></clipPath>
<clipPath id="c48_383"><path d="M509.5,928.5l0,-40l280,0l0,40Z" /></clipPath>
<clipPath id="c49_383"><path d="M791.5,928.5l0,-40l81,0l0,40Z" /></clipPath>
<style type="text/css"><![CDATA[
.g2_383{
fill: none;
stroke: #7E7E7E;
stroke-width: 1;
stroke-linecap: butt;
stroke-linejoin: miter;
}
.g1_383{
fill: #F1F1F1;
}
]]></style>
</defs>
<path fill-rule="evenodd" d="M47,182l32,0l0,-71l-32,0l0,71Z" class="g1_383" />
<path fill-rule="evenodd" d="M81,182l32,0l0,-71l-32,0l0,71Z" class="g1_383" />
<path fill-rule="evenodd" d="M114,182l32,0l0,-71l-32,0l0,71Z" class="g1_383" />
<path fill-rule="evenodd" d="M147,182l32,0l0,-71l-32,0l0,71Z" class="g1_383" />
<path fill-rule="evenodd" d="M180,182l259,0l0,-71l-259,0l0,71Z" class="g1_383" />
<g clip-path="url(#c0_383)">
<path fill-rule="evenodd" d="M188,135l244,0l0,-24l-244,0l0,24Z" class="g1_383" />
</g>
<path fill-rule="evenodd" d="M441,182l67,0l0,-71l-67,0l0,71Z" class="g1_383" />
<g clip-path="url(#c1_383)">
<path fill-rule="evenodd" d="M448,135l52,0l0,-24l-52,0l0,24Z" class="g1_383" />
</g>
<path fill-rule="evenodd" d="M509,182l280,0l0,-71l-280,0l0,71Z" class="g1_383" />
<g clip-path="url(#c2_383)">
<path fill-rule="evenodd" d="M517,135l265,0l0,-24l-265,0l0,24Z" class="g1_383" />
</g>
<path fill-rule="evenodd" d="M517,159l265,0l0,-24l-265,0l0,24Z" class="g1_383" />
<path fill-rule="evenodd" d="M517,182l265,0l0,-23l-265,0l0,23Z" class="g1_383" />
<path fill-rule="evenodd" d="M791,182l81,0l0,-71l-81,0l0,71Z" class="g1_383" />
<g clip-path="url(#c3_383)">
<path fill-rule="evenodd" d="M798,135l66,0l0,-24l-66,0l0,24Z" class="g1_383" />
</g>
<path d="M46.5,111.5l0,-1" class="g2_383" />
<path d="M46.5,111.5l0,-1" class="g2_383" />
<path d="M47.5,111.5l32,0" class="g2_383" />
<path d="M79.5,111.5l0,-1" class="g2_383" />
<path d="M81.5,111.5l32,0" class="g2_383" />
<path d="M113.5,111.5l0,-1" class="g2_383" />
<path d="M114.5,111.5l32,0" class="g2_383" />
<path d="M146.5,111.5l0,-1" class="g2_383" />
<path d="M147.5,111.5l32,0" class="g2_383" />
<path d="M179.5,111.5l0,-1" class="g2_383" />
<path d="M180.5,111.5l259,0" class="g2_383" />
<path d="M439.5,111.5l0,-1" class="g2_383" />
<path d="M441.5,111.5l67,0" class="g2_383" />
<path d="M508.5,111.5l0,-1" class="g2_383" />
<path d="M509.5,111.5l281,0" class="g2_383" />
<path d="M790.5,111.5l0,-1" class="g2_383" />
<path d="M791.5,111.5l81,0" class="g2_383" />
<path d="M872.5,111.5l0,-1" class="g2_383" />
<path d="M872.5,111.5l0,-1" class="g2_383" />
<path d="M46.5,182.5l0,-71" class="g2_383" />
<path d="M79.5,182.5l0,-71" class="g2_383" />
<path d="M113.5,182.5l0,-71" class="g2_383" />
<path d="M146.5,182.5l0,-71" class="g2_383" />
<path d="M179.5,182.5l0,-71" class="g2_383" />
<path d="M439.5,182.5l0,-71" class="g2_383" />
<path d="M508.5,182.5l0,-71" class="g2_383" />
<path d="M790.5,182.5l0,-71" class="g2_383" />
<path d="M872.5,182.5l0,-71" class="g2_383" />
<path fill-rule="evenodd" d="M47,256l32,0l0,-73l-32,0l0,73Z" class="g1_383" />
<path fill-rule="evenodd" d="M81,256l32,0l0,-73l-32,0l0,73Z" class="g1_383" />
<path fill-rule="evenodd" d="M114,256l32,0l0,-73l-32,0l0,73Z" class="g1_383" />
<path fill-rule="evenodd" d="M147,256l32,0l0,-73l-32,0l0,73Z" class="g1_383" />
<path fill-rule="evenodd" d="M180,256l259,0l0,-72l-259,0l0,72Z" class="g1_383" />
<g clip-path="url(#c4_383)">
<path fill-rule="evenodd" d="M188,208l244,0l0,-24l-244,0l0,24Z" class="g1_383" />
</g>
<path fill-rule="evenodd" d="M441,256l67,0l0,-72l-67,0l0,72Z" class="g1_383" />
<g clip-path="url(#c5_383)">
<path fill-rule="evenodd" d="M448,208l52,0l0,-24l-52,0l0,24Z" class="g1_383" />
</g>
<path fill-rule="evenodd" d="M509,256l280,0l0,-72l-280,0l0,72Z" class="g1_383" />
<g clip-path="url(#c6_383)">
<path fill-rule="evenodd" d="M517,208l265,0l0,-24l-265,0l0,24Z" class="g1_383" />
</g>
<path fill-rule="evenodd" d="M517,232l265,0l0,-24l-265,0l0,24Z" class="g1_383" />
<path fill-rule="evenodd" d="M517,256l265,0l0,-24l-265,0l0,24Z" class="g1_383" />
<path fill-rule="evenodd" d="M791,256l81,0l0,-72l-81,0l0,72Z" class="g1_383" />
<g clip-path="url(#c7_383)">
<path fill-rule="evenodd" d="M798,208l66,0l0,-24l-66,0l0,24Z" class="g1_383" />
</g>
<path d="M46.5,184.5l0,-2" class="g2_383" />
<path d="M79.5,184.5l0,-2" class="g2_383" />
<path d="M113.5,184.5l0,-2" class="g2_383" />
<path d="M146.5,184.5l0,-2" class="g2_383" />
<path d="M179.5,184.5l0,-2" class="g2_383" />
<path d="M180.5,184.5l259,0" class="g2_383" />
<path d="M439.5,184.5l0,-2" class="g2_383" />
<path d="M441.5,184.5l67,0" class="g2_383" />
<path d="M508.5,184.5l0,-2" class="g2_383" />
<path d="M509.5,184.5l281,0" class="g2_383" />
<path d="M790.5,184.5l0,-2" class="g2_383" />
<path d="M791.5,184.5l81,0" class="g2_383" />
<path d="M872.5,184.5l0,-2" class="g2_383" />
<path d="M46.5,256.5l0,-72" class="g2_383" />
<path d="M79.5,256.5l0,-72" class="g2_383" />
<path d="M113.5,256.5l0,-72" class="g2_383" />
<path d="M146.5,256.5l0,-72" class="g2_383" />
<path d="M179.5,256.5l0,-72" class="g2_383" />
<path d="M439.5,256.5l0,-72" class="g2_383" />
<path d="M508.5,256.5l0,-72" class="g2_383" />
<path d="M790.5,256.5l0,-72" class="g2_383" />
<path d="M872.5,256.5l0,-72" class="g2_383" />
<path fill-rule="evenodd" d="M47,295l32,0l0,-39l-32,0l0,39Z" class="g1_383" />
<path fill-rule="evenodd" d="M81,295l32,0l0,-39l-32,0l0,39Z" class="g1_383" />
<path fill-rule="evenodd" d="M114,295l32,0l0,-39l-32,0l0,39Z" class="g1_383" />
<path fill-rule="evenodd" d="M147,295l32,0l0,-39l-32,0l0,39Z" class="g1_383" />
<path fill-rule="evenodd" d="M180,295l259,0l0,-38l-259,0l0,38Z" class="g1_383" />
<g clip-path="url(#c8_383)">
<path fill-rule="evenodd" d="M188,281l244,0l0,-24l-244,0l0,24Z" class="g1_383" />
</g>
<path fill-rule="evenodd" d="M441,295l67,0l0,-38l-67,0l0,38Z" class="g1_383" />
<g clip-path="url(#c9_383)">
<path fill-rule="evenodd" d="M448,281l52,0l0,-24l-52,0l0,24Z" class="g1_383" />
</g>
<path fill-rule="evenodd" d="M509,295l280,0l0,-38l-280,0l0,38Z" class="g1_383" />
<g clip-path="url(#c10_383)">
<path fill-rule="evenodd" d="M517,281l265,0l0,-24l-265,0l0,24Z" class="g1_383" />
</g>
<path fill-rule="evenodd" d="M791,295l81,0l0,-38l-81,0l0,38Z" class="g1_383" />
<g clip-path="url(#c11_383)">
<path fill-rule="evenodd" d="M798,281l66,0l0,-24l-66,0l0,24Z" class="g1_383" />
</g>
<path d="M46.5,257.5l0,-1" class="g2_383" />
<path d="M79.5,257.5l0,-1" class="g2_383" />
<path d="M113.5,257.5l0,-1" class="g2_383" />
<path d="M146.5,257.5l0,-1" class="g2_383" />
<path d="M179.5,257.5l0,-1" class="g2_383" />
<path d="M180.5,257.5l259,0" class="g2_383" />
<path d="M439.5,257.5l0,-1" class="g2_383" />
<path d="M441.5,257.5l67,0" class="g2_383" />
<path d="M508.5,257.5l0,-1" class="g2_383" />
<path d="M509.5,257.5l281,0" class="g2_383" />
<path d="M790.5,257.5l0,-1" class="g2_383" />
<path d="M791.5,257.5l81,0" class="g2_383" />
<path d="M872.5,257.5l0,-1" class="g2_383" />
<path d="M46.5,295.5l0,-38" class="g2_383" />
<path d="M79.5,295.5l0,-38" class="g2_383" />
<path d="M113.5,295.5l0,-38" class="g2_383" />
<path d="M146.5,295.5l0,-38" class="g2_383" />
<path d="M179.5,295.5l0,-38" class="g2_383" />
<path d="M439.5,295.5l0,-38" class="g2_383" />
<path d="M508.5,295.5l0,-38" class="g2_383" />
<path d="M790.5,295.5l0,-38" class="g2_383" />
<path d="M872.5,295.5l0,-38" class="g2_383" />
<path fill-rule="evenodd" d="M47,368l32,0l0,-73l-32,0l0,73Z" class="g1_383" />
<path fill-rule="evenodd" d="M81,368l32,0l0,-73l-32,0l0,73Z" class="g1_383" />
<path fill-rule="evenodd" d="M114,368l32,0l0,-73l-32,0l0,73Z" class="g1_383" />
<path fill-rule="evenodd" d="M147,368l32,0l0,-73l-32,0l0,73Z" class="g1_383" />
<path fill-rule="evenodd" d="M180,368l259,0l0,-71l-259,0l0,71Z" class="g1_383" />
<g clip-path="url(#c12_383)">
<path fill-rule="evenodd" d="M188,321l244,0l0,-24l-244,0l0,24Z" class="g1_383" />
</g>
<path fill-rule="evenodd" d="M441,368l67,0l0,-71l-67,0l0,71Z" class="g1_383" />
<g clip-path="url(#c13_383)">
<path fill-rule="evenodd" d="M448,321l52,0l0,-24l-52,0l0,24Z" class="g1_383" />
</g>
<path fill-rule="evenodd" d="M509,368l280,0l0,-71l-280,0l0,71Z" class="g1_383" />
<g clip-path="url(#c14_383)">
<path fill-rule="evenodd" d="M517,321l265,0l0,-24l-265,0l0,24Z" class="g1_383" />
</g>
<path fill-rule="evenodd" d="M517,345l265,0l0,-24l-265,0l0,24Z" class="g1_383" />
<path fill-rule="evenodd" d="M517,368l265,0l0,-23l-265,0l0,23Z" class="g1_383" />
<path fill-rule="evenodd" d="M791,368l81,0l0,-71l-81,0l0,71Z" class="g1_383" />
<g clip-path="url(#c15_383)">
<path fill-rule="evenodd" d="M798,321l66,0l0,-24l-66,0l0,24Z" class="g1_383" />
</g>
<path d="M46.5,297.5l0,-2" class="g2_383" />
<path d="M79.5,297.5l0,-2" class="g2_383" />
<path d="M113.5,297.5l0,-2" class="g2_383" />
<path d="M146.5,297.5l0,-2" class="g2_383" />
<path d="M179.5,297.5l0,-2" class="g2_383" />
<path d="M180.5,297.5l259,0" class="g2_383" />
<path d="M439.5,297.5l0,-2" class="g2_383" />
<path d="M441.5,297.5l67,0" class="g2_383" />
<path d="M508.5,297.5l0,-2" class="g2_383" />
<path d="M509.5,297.5l281,0" class="g2_383" />
<path d="M790.5,297.5l0,-2" class="g2_383" />
<path d="M791.5,297.5l81,0" class="g2_383" />
<path d="M872.5,297.5l0,-2" class="g2_383" />
<path d="M46.5,368.5l0,-71" class="g2_383" />
<path d="M79.5,368.5l0,-71" class="g2_383" />
<path d="M113.5,368.5l0,-71" class="g2_383" />
<path d="M146.5,368.5l0,-71" class="g2_383" />
<path d="M179.5,368.5l0,-71" class="g2_383" />
<path d="M439.5,368.5l0,-71" class="g2_383" />
<path d="M508.5,368.5l0,-71" class="g2_383" />
<path d="M790.5,368.5l0,-71" class="g2_383" />
<path d="M872.5,368.5l0,-71" class="g2_383" />
<path fill-rule="evenodd" d="M47,442l32,0l0,-73l-32,0l0,73Z" class="g1_383" />
<path fill-rule="evenodd" d="M81,442l32,0l0,-73l-32,0l0,73Z" class="g1_383" />
<path fill-rule="evenodd" d="M114,442l32,0l0,-73l-32,0l0,73Z" class="g1_383" />
<path fill-rule="evenodd" d="M147,442l32,0l0,-73l-32,0l0,73Z" class="g1_383" />
<path fill-rule="evenodd" d="M180,442l259,0l0,-72l-259,0l0,72Z" class="g1_383" />
<g clip-path="url(#c16_383)">
<path fill-rule="evenodd" d="M188,394l244,0l0,-24l-244,0l0,24Z" class="g1_383" />
</g>
<path fill-rule="evenodd" d="M441,442l67,0l0,-72l-67,0l0,72Z" class="g1_383" />
<g clip-path="url(#c17_383)">
<path fill-rule="evenodd" d="M448,394l52,0l0,-24l-52,0l0,24Z" class="g1_383" />
</g>
<path fill-rule="evenodd" d="M509,442l280,0l0,-72l-280,0l0,72Z" class="g1_383" />
<g clip-path="url(#c18_383)">
<path fill-rule="evenodd" d="M517,394l265,0l0,-24l-265,0l0,24Z" class="g1_383" />
</g>
<path fill-rule="evenodd" d="M517,418l265,0l0,-24l-265,0l0,24Z" class="g1_383" />
<path fill-rule="evenodd" d="M517,442l265,0l0,-24l-265,0l0,24Z" class="g1_383" />
<path fill-rule="evenodd" d="M791,442l81,0l0,-72l-81,0l0,72Z" class="g1_383" />
<g clip-path="url(#c19_383)">
<path fill-rule="evenodd" d="M798,394l66,0l0,-24l-66,0l0,24Z" class="g1_383" />
</g>
<path d="M46.5,370.5l0,-2" class="g2_383" />
<path d="M79.5,370.5l0,-2" class="g2_383" />
<path d="M113.5,370.5l0,-2" class="g2_383" />
<path d="M146.5,370.5l0,-2" class="g2_383" />
<path d="M179.5,370.5l0,-2" class="g2_383" />
<path d="M180.5,370.5l259,0" class="g2_383" />
<path d="M439.5,370.5l0,-2" class="g2_383" />
<path d="M441.5,370.5l67,0" class="g2_383" />
<path d="M508.5,370.5l0,-2" class="g2_383" />
<path d="M509.5,370.5l281,0" class="g2_383" />
<path d="M790.5,370.5l0,-2" class="g2_383" />
<path d="M791.5,370.5l81,0" class="g2_383" />
<path d="M872.5,370.5l0,-2" class="g2_383" />
<path d="M46.5,442.5l0,-72" class="g2_383" />
<path d="M79.5,442.5l0,-72" class="g2_383" />
<path d="M113.5,442.5l0,-72" class="g2_383" />
<path d="M146.5,442.5l0,-72" class="g2_383" />
<path d="M179.5,442.5l0,-72" class="g2_383" />
<path d="M439.5,442.5l0,-72" class="g2_383" />
<path d="M508.5,442.5l0,-72" class="g2_383" />
<path d="M790.5,442.5l0,-72" class="g2_383" />
<path d="M872.5,442.5l0,-72" class="g2_383" />
<path fill-rule="evenodd" d="M47,515l32,0l0,-73l-32,0l0,73Z" class="g1_383" />
<path fill-rule="evenodd" d="M81,515l32,0l0,-73l-32,0l0,73Z" class="g1_383" />
<path fill-rule="evenodd" d="M114,515l32,0l0,-73l-32,0l0,73Z" class="g1_383" />
<path fill-rule="evenodd" d="M147,515l32,0l0,-73l-32,0l0,73Z" class="g1_383" />
<path fill-rule="evenodd" d="M180,515l259,0l0,-72l-259,0l0,72Z" class="g1_383" />
<g clip-path="url(#c20_383)">
<path fill-rule="evenodd" d="M188,467l244,0l0,-24l-244,0l0,24Z" class="g1_383" />
</g>
<path fill-rule="evenodd" d="M441,515l67,0l0,-72l-67,0l0,72Z" class="g1_383" />
<g clip-path="url(#c21_383)">
<path fill-rule="evenodd" d="M448,467l52,0l0,-24l-52,0l0,24Z" class="g1_383" />
</g>
<path fill-rule="evenodd" d="M509,515l280,0l0,-72l-280,0l0,72Z" class="g1_383" />
<g clip-path="url(#c22_383)">
<path fill-rule="evenodd" d="M517,467l265,0l0,-24l-265,0l0,24Z" class="g1_383" />
</g>
<path fill-rule="evenodd" d="M517,491l265,0l0,-24l-265,0l0,24Z" class="g1_383" />
<path fill-rule="evenodd" d="M517,515l265,0l0,-24l-265,0l0,24Z" class="g1_383" />
<path fill-rule="evenodd" d="M791,515l81,0l0,-72l-81,0l0,72Z" class="g1_383" />
<g clip-path="url(#c23_383)">
<path fill-rule="evenodd" d="M798,467l66,0l0,-24l-66,0l0,24Z" class="g1_383" />
</g>
<path d="M46.5,443.5l0,-1" class="g2_383" />
<path d="M79.5,443.5l0,-1" class="g2_383" />
<path d="M113.5,443.5l0,-1" class="g2_383" />
<path d="M146.5,443.5l0,-1" class="g2_383" />
<path d="M179.5,443.5l0,-1" class="g2_383" />
<path d="M180.5,443.5l259,0" class="g2_383" />
<path d="M439.5,443.5l0,-1" class="g2_383" />
<path d="M441.5,443.5l67,0" class="g2_383" />
<path d="M508.5,443.5l0,-1" class="g2_383" />
<path d="M509.5,443.5l281,0" class="g2_383" />
<path d="M790.5,443.5l0,-1" class="g2_383" />
<path d="M791.5,443.5l81,0" class="g2_383" />
<path d="M872.5,443.5l0,-1" class="g2_383" />
<path d="M46.5,515.5l0,-72" class="g2_383" />
<path d="M79.5,515.5l0,-72" class="g2_383" />
<path d="M113.5,515.5l0,-72" class="g2_383" />
<path d="M146.5,515.5l0,-72" class="g2_383" />
<path d="M179.5,515.5l0,-72" class="g2_383" />
<path d="M439.5,515.5l0,-72" class="g2_383" />
<path d="M508.5,515.5l0,-72" class="g2_383" />
<path d="M790.5,515.5l0,-72" class="g2_383" />
<path d="M872.5,515.5l0,-72" class="g2_383" />
<path fill-rule="evenodd" d="M47,588l32,0l0,-73l-32,0l0,73Z" class="g1_383" />
<path fill-rule="evenodd" d="M81,588l32,0l0,-73l-32,0l0,73Z" class="g1_383" />
<path fill-rule="evenodd" d="M114,588l32,0l0,-73l-32,0l0,73Z" class="g1_383" />
<path fill-rule="evenodd" d="M147,588l32,0l0,-73l-32,0l0,73Z" class="g1_383" />
<path fill-rule="evenodd" d="M180,588l259,0l0,-72l-259,0l0,72Z" class="g1_383" />
<g clip-path="url(#c24_383)">
<path fill-rule="evenodd" d="M188,540l244,0l0,-24l-244,0l0,24Z" class="g1_383" />
</g>
<path fill-rule="evenodd" d="M441,588l67,0l0,-72l-67,0l0,72Z" class="g1_383" />
<g clip-path="url(#c25_383)">
<path fill-rule="evenodd" d="M448,540l52,0l0,-24l-52,0l0,24Z" class="g1_383" />
</g>
<path fill-rule="evenodd" d="M509,588l280,0l0,-72l-280,0l0,72Z" class="g1_383" />
<g clip-path="url(#c26_383)">
<path fill-rule="evenodd" d="M517,540l265,0l0,-24l-265,0l0,24Z" class="g1_383" />
</g>
<path fill-rule="evenodd" d="M517,564l265,0l0,-24l-265,0l0,24Z" class="g1_383" />
<path fill-rule="evenodd" d="M517,588l265,0l0,-24l-265,0l0,24Z" class="g1_383" />
<path fill-rule="evenodd" d="M791,588l81,0l0,-72l-81,0l0,72Z" class="g1_383" />
<g clip-path="url(#c27_383)">
<path fill-rule="evenodd" d="M798,540l66,0l0,-24l-66,0l0,24Z" class="g1_383" />
</g>
<path d="M46.5,516.5l0,-1" class="g2_383" />
<path d="M79.5,516.5l0,-1" class="g2_383" />
<path d="M113.5,516.5l0,-1" class="g2_383" />
<path d="M146.5,516.5l0,-1" class="g2_383" />
<path d="M179.5,516.5l0,-1" class="g2_383" />
<path d="M180.5,516.5l259,0" class="g2_383" />
<path d="M439.5,516.5l0,-1" class="g2_383" />
<path d="M441.5,516.5l67,0" class="g2_383" />
<path d="M508.5,516.5l0,-1" class="g2_383" />
<path d="M509.5,516.5l281,0" class="g2_383" />
<path d="M790.5,516.5l0,-1" class="g2_383" />
<path d="M791.5,516.5l81,0" class="g2_383" />
<path d="M872.5,516.5l0,-1" class="g2_383" />
<path d="M46.5,588.5l0,-72" class="g2_383" />
<path d="M79.5,588.5l0,-72" class="g2_383" />
<path d="M113.5,588.5l0,-72" class="g2_383" />
<path d="M146.5,588.5l0,-72" class="g2_383" />
<path d="M179.5,588.5l0,-72" class="g2_383" />
<path d="M439.5,588.5l0,-72" class="g2_383" />
<path d="M508.5,588.5l0,-72" class="g2_383" />
<path d="M790.5,588.5l0,-72" class="g2_383" />
<path d="M872.5,588.5l0,-72" class="g2_383" />
<path fill-rule="evenodd" d="M47,627l32,0l0,-39l-32,0l0,39Z" class="g1_383" />
<path fill-rule="evenodd" d="M81,627l32,0l0,-39l-32,0l0,39Z" class="g1_383" />
<path fill-rule="evenodd" d="M114,627l32,0l0,-39l-32,0l0,39Z" class="g1_383" />
<path fill-rule="evenodd" d="M147,627l32,0l0,-39l-32,0l0,39Z" class="g1_383" />
<path fill-rule="evenodd" d="M180,627l259,0l0,-38l-259,0l0,38Z" class="g1_383" />
<path fill-rule="evenodd" d="M188,613l244,0l0,-24l-244,0l0,24Z" class="g1_383" />
<path fill-rule="evenodd" d="M441,627l67,0l0,-38l-67,0l0,38Z" class="g1_383" />
<path fill-rule="evenodd" d="M448,613l52,0l0,-24l-52,0l0,24Z" class="g1_383" />
<path fill-rule="evenodd" d="M509,627l280,0l0,-38l-280,0l0,38Z" class="g1_383" />
<path fill-rule="evenodd" d="M517,613l265,0l0,-24l-265,0l0,24Z" class="g1_383" />
<path fill-rule="evenodd" d="M791,627l81,0l0,-38l-81,0l0,38Z" class="g1_383" />
<path fill-rule="evenodd" d="M798,613l66,0l0,-24l-66,0l0,24Z" class="g1_383" />
<path d="M46.5,589.5l0,-1" class="g2_383" />
<path d="M79.5,589.5l0,-1" class="g2_383" />
<path d="M113.5,589.5l0,-1" class="g2_383" />
<path d="M146.5,589.5l0,-1" class="g2_383" />
<path d="M179.5,589.5l0,-1" class="g2_383" />
<path d="M180.5,589.5l259,0" class="g2_383" />
<path d="M439.5,589.5l0,-1" class="g2_383" />
<path d="M441.5,589.5l67,0" class="g2_383" />
<path d="M508.5,589.5l0,-1" class="g2_383" />
<path d="M509.5,589.5l281,0" class="g2_383" />
<path d="M790.5,589.5l0,-1" class="g2_383" />
<path d="M791.5,589.5l81,0" class="g2_383" />
<path d="M872.5,589.5l0,-1" class="g2_383" />
<path d="M46.5,627.5l0,-38" class="g2_383" />
<path d="M79.5,627.5l0,-38" class="g2_383" />
<path d="M113.5,627.5l0,-38" class="g2_383" />
<path d="M146.5,627.5l0,-38" class="g2_383" />
<path d="M179.5,627.5l0,-38" class="g2_383" />
<path d="M439.5,627.5l0,-38" class="g2_383" />
<path d="M508.5,627.5l0,-38" class="g2_383" />
<path d="M790.5,627.5l0,-38" class="g2_383" />
<path d="M872.5,627.5l0,-38" class="g2_383" />
<path fill-rule="evenodd" d="M47,700l32,0l0,-73l-32,0l0,73Z" class="g1_383" />
<path fill-rule="evenodd" d="M81,700l32,0l0,-73l-32,0l0,73Z" class="g1_383" />
<path fill-rule="evenodd" d="M114,700l32,0l0,-73l-32,0l0,73Z" class="g1_383" />
<path fill-rule="evenodd" d="M147,700l32,0l0,-73l-32,0l0,73Z" class="g1_383" />
<path fill-rule="evenodd" d="M180,700l259,0l0,-71l-259,0l0,71Z" class="g1_383" />
<g clip-path="url(#c28_383)">
<path fill-rule="evenodd" d="M188,653l244,0l0,-24l-244,0l0,24Z" class="g1_383" />
</g>
<path fill-rule="evenodd" d="M441,700l67,0l0,-71l-67,0l0,71Z" class="g1_383" />
<g clip-path="url(#c29_383)">
<path fill-rule="evenodd" d="M448,653l52,0l0,-24l-52,0l0,24Z" class="g1_383" />
</g>
<path fill-rule="evenodd" d="M509,700l280,0l0,-71l-280,0l0,71Z" class="g1_383" />
<g clip-path="url(#c30_383)">
<path fill-rule="evenodd" d="M517,653l265,0l0,-24l-265,0l0,24Z" class="g1_383" />
</g>
<path fill-rule="evenodd" d="M517,677l265,0l0,-24l-265,0l0,24Z" class="g1_383" />
<path fill-rule="evenodd" d="M517,700l265,0l0,-23l-265,0l0,23Z" class="g1_383" />
<path fill-rule="evenodd" d="M791,700l81,0l0,-71l-81,0l0,71Z" class="g1_383" />
<g clip-path="url(#c31_383)">
<path fill-rule="evenodd" d="M798,653l66,0l0,-24l-66,0l0,24Z" class="g1_383" />
</g>
<path d="M46.5,629.5l0,-2" class="g2_383" />
<path d="M79.5,629.5l0,-2" class="g2_383" />
<path d="M113.5,629.5l0,-2" class="g2_383" />
<path d="M146.5,629.5l0,-2" class="g2_383" />
<path d="M179.5,629.5l0,-2" class="g2_383" />
<path d="M180.5,629.5l259,0" class="g2_383" />
<path d="M439.5,629.5l0,-2" class="g2_383" />
<path d="M441.5,629.5l67,0" class="g2_383" />
<path d="M508.5,629.5l0,-2" class="g2_383" />
<path d="M509.5,629.5l281,0" class="g2_383" />
<path d="M790.5,629.5l0,-2" class="g2_383" />
<path d="M791.5,629.5l81,0" class="g2_383" />
<path d="M872.5,629.5l0,-2" class="g2_383" />
<path d="M46.5,700.5l0,-71" class="g2_383" />
<path d="M79.5,700.5l0,-71" class="g2_383" />
<path d="M113.5,700.5l0,-71" class="g2_383" />
<path d="M146.5,700.5l0,-71" class="g2_383" />
<path d="M179.5,700.5l0,-71" class="g2_383" />
<path d="M439.5,700.5l0,-71" class="g2_383" />
<path d="M508.5,700.5l0,-71" class="g2_383" />
<path d="M790.5,700.5l0,-71" class="g2_383" />
<path d="M872.5,700.5l0,-71" class="g2_383" />
<path fill-rule="evenodd" d="M47,774l32,0l0,-73l-32,0l0,73Z" class="g1_383" />
<path fill-rule="evenodd" d="M81,774l32,0l0,-73l-32,0l0,73Z" class="g1_383" />
<path fill-rule="evenodd" d="M114,774l32,0l0,-73l-32,0l0,73Z" class="g1_383" />
<path fill-rule="evenodd" d="M147,774l32,0l0,-73l-32,0l0,73Z" class="g1_383" />
<path fill-rule="evenodd" d="M180,774l259,0l0,-72l-259,0l0,72Z" class="g1_383" />
<g clip-path="url(#c32_383)">
<path fill-rule="evenodd" d="M188,726l244,0l0,-24l-244,0l0,24Z" class="g1_383" />
</g>
<path fill-rule="evenodd" d="M441,774l67,0l0,-72l-67,0l0,72Z" class="g1_383" />
<g clip-path="url(#c33_383)">
<path fill-rule="evenodd" d="M448,726l52,0l0,-24l-52,0l0,24Z" class="g1_383" />
</g>
<path fill-rule="evenodd" d="M509,774l280,0l0,-72l-280,0l0,72Z" class="g1_383" />
<g clip-path="url(#c34_383)">
<path fill-rule="evenodd" d="M517,726l265,0l0,-24l-265,0l0,24Z" class="g1_383" />
</g>
<path fill-rule="evenodd" d="M517,750l265,0l0,-24l-265,0l0,24Z" class="g1_383" />
<path fill-rule="evenodd" d="M517,774l265,0l0,-24l-265,0l0,24Z" class="g1_383" />
<path fill-rule="evenodd" d="M791,774l81,0l0,-72l-81,0l0,72Z" class="g1_383" />
<g clip-path="url(#c35_383)">
<path fill-rule="evenodd" d="M798,726l66,0l0,-24l-66,0l0,24Z" class="g1_383" />
</g>
<path d="M46.5,702.5l0,-2" class="g2_383" />
<path d="M79.5,702.5l0,-2" class="g2_383" />
<path d="M113.5,702.5l0,-2" class="g2_383" />
<path d="M146.5,702.5l0,-2" class="g2_383" />
<path d="M179.5,702.5l0,-2" class="g2_383" />
<path d="M180.5,702.5l259,0" class="g2_383" />
<path d="M439.5,702.5l0,-2" class="g2_383" />
<path d="M441.5,702.5l67,0" class="g2_383" />
<path d="M508.5,702.5l0,-2" class="g2_383" />
<path d="M509.5,702.5l281,0" class="g2_383" />
<path d="M790.5,702.5l0,-2" class="g2_383" />
<path d="M791.5,702.5l81,0" class="g2_383" />
<path d="M872.5,702.5l0,-2" class="g2_383" />
<path d="M46.5,774.5l0,-72" class="g2_383" />
<path d="M79.5,774.5l0,-72" class="g2_383" />
<path d="M113.5,774.5l0,-72" class="g2_383" />
<path d="M146.5,774.5l0,-72" class="g2_383" />
<path d="M179.5,774.5l0,-72" class="g2_383" />
<path d="M439.5,774.5l0,-72" class="g2_383" />
<path d="M508.5,774.5l0,-72" class="g2_383" />
<path d="M790.5,774.5l0,-72" class="g2_383" />
<path d="M872.5,774.5l0,-72" class="g2_383" />
<path fill-rule="evenodd" d="M47,847l32,0l0,-73l-32,0l0,73Z" class="g1_383" />
<path fill-rule="evenodd" d="M81,847l32,0l0,-73l-32,0l0,73Z" class="g1_383" />
<path fill-rule="evenodd" d="M114,847l32,0l0,-73l-32,0l0,73Z" class="g1_383" />
<path fill-rule="evenodd" d="M147,847l32,0l0,-73l-32,0l0,73Z" class="g1_383" />
<path fill-rule="evenodd" d="M180,847l259,0l0,-72l-259,0l0,72Z" class="g1_383" />
<g clip-path="url(#c36_383)">
<path fill-rule="evenodd" d="M188,799l244,0l0,-24l-244,0l0,24Z" class="g1_383" />
</g>
<path fill-rule="evenodd" d="M441,847l67,0l0,-72l-67,0l0,72Z" class="g1_383" />
<g clip-path="url(#c37_383)">
<path fill-rule="evenodd" d="M448,799l52,0l0,-24l-52,0l0,24Z" class="g1_383" />
</g>
<path fill-rule="evenodd" d="M509,847l280,0l0,-72l-280,0l0,72Z" class="g1_383" />
<g clip-path="url(#c38_383)">
<path fill-rule="evenodd" d="M517,799l265,0l0,-24l-265,0l0,24Z" class="g1_383" />
</g>
<path fill-rule="evenodd" d="M517,823l265,0l0,-24l-265,0l0,24Z" class="g1_383" />
<path fill-rule="evenodd" d="M517,847l265,0l0,-24l-265,0l0,24Z" class="g1_383" />
<path fill-rule="evenodd" d="M791,847l81,0l0,-72l-81,0l0,72Z" class="g1_383" />
<g clip-path="url(#c39_383)">
<path fill-rule="evenodd" d="M798,799l66,0l0,-24l-66,0l0,24Z" class="g1_383" />
</g>
<path d="M46.5,775.5l0,-1" class="g2_383" />
<path d="M79.5,775.5l0,-1" class="g2_383" />
<path d="M113.5,775.5l0,-1" class="g2_383" />
<path d="M146.5,775.5l0,-1" class="g2_383" />
<path d="M179.5,775.5l0,-1" class="g2_383" />
<path d="M180.5,775.5l259,0" class="g2_383" />
<path d="M439.5,775.5l0,-1" class="g2_383" />
<path d="M441.5,775.5l67,0" class="g2_383" />
<path d="M508.5,775.5l0,-1" class="g2_383" />
<path d="M509.5,775.5l281,0" class="g2_383" />
<path d="M790.5,775.5l0,-1" class="g2_383" />
<path d="M791.5,775.5l81,0" class="g2_383" />
<path d="M872.5,775.5l0,-1" class="g2_383" />
<path d="M46.5,847.5l0,-72" class="g2_383" />
<path d="M79.5,847.5l0,-72" class="g2_383" />
<path d="M113.5,847.5l0,-72" class="g2_383" />
<path d="M146.5,847.5l0,-72" class="g2_383" />
<path d="M179.5,847.5l0,-72" class="g2_383" />
<path d="M439.5,847.5l0,-72" class="g2_383" />
<path d="M508.5,847.5l0,-72" class="g2_383" />
<path d="M790.5,847.5l0,-72" class="g2_383" />
<path d="M872.5,847.5l0,-72" class="g2_383" />
<path fill-rule="evenodd" d="M47,886l32,0l0,-39l-32,0l0,39Z" class="g1_383" />
<path fill-rule="evenodd" d="M81,886l32,0l0,-39l-32,0l0,39Z" class="g1_383" />
<path fill-rule="evenodd" d="M114,886l32,0l0,-39l-32,0l0,39Z" class="g1_383" />
<path fill-rule="evenodd" d="M147,886l32,0l0,-39l-32,0l0,39Z" class="g1_383" />
<path fill-rule="evenodd" d="M180,1079l32,0l0,-231l-32,0l0,231Z" class="g1_383" />
<g clip-path="url(#c40_383)">
<path fill-rule="evenodd" d="M188,1079l24,0l0,-231l-24,0l0,231Z" class="g1_383" />
</g>
<path fill-rule="evenodd" d="M214,1079l31,0l0,-231l-31,0l0,231Z" class="g1_383" />
<g clip-path="url(#c41_383)">
<path fill-rule="evenodd" d="M221,1079l24,0l0,-231l-24,0l0,231Z" class="g1_383" />
</g>
<path fill-rule="evenodd" d="M247,886l192,0l0,-38l-192,0l0,38Z" class="g1_383" />
<g clip-path="url(#c42_383)">
<path fill-rule="evenodd" d="M254,872l178,0l0,-24l-178,0l0,24Z" class="g1_383" />
</g>
<path fill-rule="evenodd" d="M441,886l67,0l0,-38l-67,0l0,38Z" class="g1_383" />
<g clip-path="url(#c43_383)">
<path fill-rule="evenodd" d="M448,872l52,0l0,-24l-52,0l0,24Z" class="g1_383" />
</g>
<path fill-rule="evenodd" d="M509,886l280,0l0,-38l-280,0l0,38Z" class="g1_383" />
<g clip-path="url(#c44_383)">
<path fill-rule="evenodd" d="M517,872l265,0l0,-24l-265,0l0,24Z" class="g1_383" />
</g>
<path fill-rule="evenodd" d="M791,886l81,0l0,-38l-81,0l0,38Z" class="g1_383" />
<g clip-path="url(#c45_383)">
<path fill-rule="evenodd" d="M798,872l66,0l0,-24l-66,0l0,24Z" class="g1_383" />
</g>
<path d="M46.5,848.5l0,-1" class="g2_383" />
<path d="M79.5,848.5l0,-1" class="g2_383" />
<path d="M113.5,848.5l0,-1" class="g2_383" />
<path d="M146.5,848.5l0,-1" class="g2_383" />
<path d="M179.5,848.5l0,-1" class="g2_383" />
<path d="M180.5,848.5l32,0" class="g2_383" />
<path d="M212.5,848.5l0,-1" class="g2_383" />
<path d="M213.5,848.5l32,0" class="g2_383" />
<path d="M245.5,848.5l0,-1" class="g2_383" />
<path d="M247.5,848.5l192,0" class="g2_383" />
<path d="M439.5,848.5l0,-1" class="g2_383" />
<path d="M441.5,848.5l67,0" class="g2_383" />
<path d="M508.5,848.5l0,-1" class="g2_383" />
<path d="M509.5,848.5l281,0" class="g2_383" />
<path d="M790.5,848.5l0,-1" class="g2_383" />
<path d="M791.5,848.5l81,0" class="g2_383" />
<path d="M872.5,848.5l0,-1" class="g2_383" />
<path d="M46.5,886.5l0,-38" class="g2_383" />
<path d="M79.5,886.5l0,-38" class="g2_383" />
<path d="M113.5,886.5l0,-38" class="g2_383" />
<path d="M146.5,886.5l0,-38" class="g2_383" />
<path d="M179.5,886.5l0,-38" class="g2_383" />
<path d="M212.5,886.5l0,-38" class="g2_383" />
<path d="M245.5,886.5l0,-38" class="g2_383" />
<path d="M439.5,886.5l0,-38" class="g2_383" />
<path d="M508.5,886.5l0,-38" class="g2_383" />
<path d="M790.5,886.5l0,-38" class="g2_383" />
<path d="M872.5,886.5l0,-38" class="g2_383" />
<path fill-rule="evenodd" d="M47,928l32,0l0,-41l-32,0l0,41Z" class="g1_383" />
<path fill-rule="evenodd" d="M81,928l32,0l0,-41l-32,0l0,41Z" class="g1_383" />
<path fill-rule="evenodd" d="M114,928l32,0l0,-41l-32,0l0,41Z" class="g1_383" />
<path fill-rule="evenodd" d="M147,928l32,0l0,-41l-32,0l0,41Z" class="g1_383" />
<path fill-rule="evenodd" d="M247,928l192,0l0,-40l-192,0l0,40Z" class="g1_383" />
<g clip-path="url(#c46_383)">
<path fill-rule="evenodd" d="M254,912l178,0l0,-24l-178,0l0,24Z" class="g1_383" />
</g>
<path fill-rule="evenodd" d="M441,928l67,0l0,-40l-67,0l0,40Z" class="g1_383" />
<g clip-path="url(#c47_383)">
<path fill-rule="evenodd" d="M448,912l52,0l0,-24l-52,0l0,24Z" class="g1_383" />
</g>
<path fill-rule="evenodd" d="M509,928l280,0l0,-40l-280,0l0,40Z" class="g1_383" />
<g clip-path="url(#c48_383)">
<path fill-rule="evenodd" d="M517,912l265,0l0,-24l-265,0l0,24Z" class="g1_383" />
</g>
<path fill-rule="evenodd" d="M791,928l81,0l0,-40l-81,0l0,40Z" class="g1_383" />
<g clip-path="url(#c49_383)">
<path fill-rule="evenodd" d="M798,912l66,0l0,-24l-66,0l0,24Z" class="g1_383" />
</g>
<path d="M46.5,888.5l0,-2" class="g2_383" />
<path d="M79.5,888.5l0,-2" class="g2_383" />
<path d="M113.5,888.5l0,-2" class="g2_383" />
<path d="M146.5,888.5l0,-2" class="g2_383" />
<path d="M179.5,888.5l0,-2" class="g2_383" />
<path d="M212.5,888.5l0,-2" class="g2_383" />
<path d="M245.5,888.5l0,-2" class="g2_383" />
<path d="M247.5,888.5l192,0" class="g2_383" />
<path d="M439.5,888.5l0,-2" class="g2_383" />
<path d="M441.5,888.5l67,0" class="g2_383" />
<path d="M508.5,888.5l0,-2" class="g2_383" />
<path d="M509.5,888.5l281,0" class="g2_383" />
<path d="M790.5,888.5l0,-2" class="g2_383" />
<path d="M791.5,888.5l81,0" class="g2_383" />
<path d="M872.5,888.5l0,-2" class="g2_383" />
<path d="M46.5,928.5l0,-40" class="g2_383" />
<path d="M79.5,928.5l0,-40" class="g2_383" />
<path d="M113.5,928.5l0,-40" class="g2_383" />
<path d="M146.5,928.5l0,-40" class="g2_383" />
<path d="M179.5,928.5l0,-40" class="g2_383" />
<path d="M212.5,928.5l0,-40" class="g2_383" />
<path d="M245.5,928.5l0,-40" class="g2_383" />
<path d="M439.5,928.5l0,-40" class="g2_383" />
<path d="M508.5,928.5l0,-40" class="g2_383" />
<path d="M790.5,928.5l0,-40" class="g2_383" />
<path d="M872.5,928.5l0,-40" class="g2_383" />
<path fill-rule="evenodd" d="M47,969l32,0l0,-41l-32,0l0,41Z" class="g1_383" />
<path fill-rule="evenodd" d="M81,969l32,0l0,-41l-32,0l0,41Z" class="g1_383" />
<path fill-rule="evenodd" d="M114,969l32,0l0,-41l-32,0l0,41Z" class="g1_383" />
<path fill-rule="evenodd" d="M147,969l32,0l0,-41l-32,0l0,41Z" class="g1_383" />
<path fill-rule="evenodd" d="M247,969l192,0l0,-40l-192,0l0,40Z" class="g1_383" />
<path fill-rule="evenodd" d="M254,953l178,0l0,-24l-178,0l0,24Z" class="g1_383" />
<path fill-rule="evenodd" d="M441,969l67,0l0,-40l-67,0l0,40Z" class="g1_383" />
<path fill-rule="evenodd" d="M448,953l52,0l0,-24l-52,0l0,24Z" class="g1_383" />
<path fill-rule="evenodd" d="M509,969l280,0l0,-40l-280,0l0,40Z" class="g1_383" />
<path fill-rule="evenodd" d="M517,953l265,0l0,-24l-265,0l0,24Z" class="g1_383" />
<path fill-rule="evenodd" d="M791,969l81,0l0,-40l-81,0l0,40Z" class="g1_383" />
<path fill-rule="evenodd" d="M798,953l66,0l0,-24l-66,0l0,24Z" class="g1_383" />
<path d="M46.5,929.5l0,-1" class="g2_383" />
<path d="M79.5,929.5l0,-1" class="g2_383" />
<path d="M113.5,929.5l0,-1" class="g2_383" />
<path d="M146.5,929.5l0,-1" class="g2_383" />
<path d="M179.5,929.5l0,-1" class="g2_383" />
<path d="M212.5,929.5l0,-1" class="g2_383" />
<path d="M245.5,929.5l0,-1" class="g2_383" />
<path d="M247.5,929.5l192,0" class="g2_383" />
<path d="M439.5,929.5l0,-1" class="g2_383" />
<path d="M441.5,929.5l67,0" class="g2_383" />
<path d="M508.5,929.5l0,-1" class="g2_383" />
<path d="M509.5,929.5l281,0" class="g2_383" />
<path d="M790.5,929.5l0,-1" class="g2_383" />
<path d="M791.5,929.5l81,0" class="g2_383" />
<path d="M872.5,929.5l0,-1" class="g2_383" />
<path d="M46.5,969.5l0,-40" class="g2_383" />
<path d="M79.5,969.5l0,-40" class="g2_383" />
<path d="M113.5,969.5l0,-40" class="g2_383" />
<path d="M146.5,969.5l0,-40" class="g2_383" />
<path d="M179.5,969.5l0,-40" class="g2_383" />
<path d="M212.5,969.5l0,-40" class="g2_383" />
<path d="M245.5,969.5l0,-40" class="g2_383" />
<path d="M439.5,969.5l0,-40" class="g2_383" />
<path d="M508.5,969.5l0,-40" class="g2_383" />
<path d="M790.5,969.5l0,-40" class="g2_383" />
<path d="M872.5,969.5l0,-40" class="g2_383" />
<path fill-rule="evenodd" d="M47,1003l32,0l0,-34l-32,0l0,34Z" class="g1_383" />
<path fill-rule="evenodd" d="M81,1003l32,0l0,-34l-32,0l0,34Z" class="g1_383" />
<path fill-rule="evenodd" d="M114,1003l32,0l0,-34l-32,0l0,34Z" class="g1_383" />
<path fill-rule="evenodd" d="M147,1003l32,0l0,-34l-32,0l0,34Z" class="g1_383" />
<path fill-rule="evenodd" d="M247,1003l192,0l0,-32l-192,0l0,32Z" class="g1_383" />
<path fill-rule="evenodd" d="M254,994l178,0l0,-23l-178,0l0,23Z" class="g1_383" />
<path fill-rule="evenodd" d="M441,1003l67,0l0,-32l-67,0l0,32Z" class="g1_383" />
<path fill-rule="evenodd" d="M448,994l52,0l0,-23l-52,0l0,23Z" class="g1_383" />
<path fill-rule="evenodd" d="M509,1003l280,0l0,-32l-280,0l0,32Z" class="g1_383" />
<path fill-rule="evenodd" d="M517,994l265,0l0,-23l-265,0l0,23Z" class="g1_383" />
<path fill-rule="evenodd" d="M791,1003l81,0l0,-32l-81,0l0,32Z" class="g1_383" />
<path fill-rule="evenodd" d="M798,994l66,0l0,-23l-66,0l0,23Z" class="g1_383" />
<path d="M46.5,970.5l0,-1" class="g2_383" />
<path d="M79.5,970.5l0,-1" class="g2_383" />
<path d="M113.5,970.5l0,-1" class="g2_383" />
<path d="M146.5,970.5l0,-1" class="g2_383" />
<path d="M179.5,970.5l0,-1" class="g2_383" />
<path d="M212.5,970.5l0,-1" class="g2_383" />
<path d="M245.5,970.5l0,-1" class="g2_383" />
<path d="M247.5,970.5l192,0" class="g2_383" />
<path d="M439.5,970.5l0,-1" class="g2_383" />
<path d="M441.5,970.5l67,0" class="g2_383" />
<path d="M508.5,970.5l0,-1" class="g2_383" />
<path d="M509.5,970.5l281,0" class="g2_383" />
<path d="M790.5,970.5l0,-1" class="g2_383" />
<path d="M791.5,970.5l81,0" class="g2_383" />
<path d="M872.5,970.5l0,-1" class="g2_383" />
<path d="M46.5,1003.5l0,-33" class="g2_383" />
<path d="M79.5,1003.5l0,-33" class="g2_383" />
<path d="M113.5,1003.5l0,-33" class="g2_383" />
<path d="M146.5,1003.5l0,-33" class="g2_383" />
<path d="M179.5,1003.5l0,-33" class="g2_383" />
<path d="M212.5,1003.5l0,-33" class="g2_383" />
<path d="M245.5,1003.5l0,-33" class="g2_383" />
<path d="M439.5,1003.5l0,-33" class="g2_383" />
<path d="M508.5,1003.5l0,-33" class="g2_383" />
<path d="M790.5,1003.5l0,-33" class="g2_383" />
<path d="M872.5,1003.5l0,-33" class="g2_383" />
<path fill-rule="evenodd" d="M47,1045l32,0l0,-42l-32,0l0,42Z" class="g1_383" />
<path fill-rule="evenodd" d="M81,1045l32,0l0,-42l-32,0l0,42Z" class="g1_383" />
<path fill-rule="evenodd" d="M114,1045l32,0l0,-42l-32,0l0,42Z" class="g1_383" />
<path fill-rule="evenodd" d="M147,1045l32,0l0,-42l-32,0l0,42Z" class="g1_383" />
<path fill-rule="evenodd" d="M247,1045l192,0l0,-40l-192,0l0,40Z" class="g1_383" />
<path fill-rule="evenodd" d="M254,1029l178,0l0,-24l-178,0l0,24Z" class="g1_383" />
<path fill-rule="evenodd" d="M441,1045l67,0l0,-40l-67,0l0,40Z" class="g1_383" />
<path fill-rule="evenodd" d="M448,1029l52,0l0,-24l-52,0l0,24Z" class="g1_383" />
<path fill-rule="evenodd" d="M509,1045l280,0l0,-40l-280,0l0,40Z" class="g1_383" />
<path fill-rule="evenodd" d="M517,1029l265,0l0,-24l-265,0l0,24Z" class="g1_383" />
<path fill-rule="evenodd" d="M791,1045l81,0l0,-40l-81,0l0,40Z" class="g1_383" />
<path fill-rule="evenodd" d="M798,1029l66,0l0,-24l-66,0l0,24Z" class="g1_383" />
<path d="M46.5,1005.5l0,-2" class="g2_383" />
<path d="M79.5,1005.5l0,-2" class="g2_383" />
<path d="M113.5,1005.5l0,-2" class="g2_383" />
<path d="M146.5,1005.5l0,-2" class="g2_383" />
<path d="M179.5,1005.5l0,-2" class="g2_383" />
<path d="M212.5,1005.5l0,-2" class="g2_383" />
<path d="M245.5,1005.5l0,-2" class="g2_383" />
<path d="M247.5,1005.5l192,0" class="g2_383" />
<path d="M439.5,1005.5l0,-2" class="g2_383" />
<path d="M441.5,1005.5l67,0" class="g2_383" />
<path d="M508.5,1005.5l0,-2" class="g2_383" />
<path d="M509.5,1005.5l281,0" class="g2_383" />
<path d="M790.5,1005.5l0,-2" class="g2_383" />
<path d="M791.5,1005.5l81,0" class="g2_383" />
<path d="M872.5,1005.5l0,-2" class="g2_383" />
<path d="M46.5,1045.5l0,-40" class="g2_383" />
<path d="M79.5,1045.5l0,-40" class="g2_383" />
<path d="M113.5,1045.5l0,-40" class="g2_383" />
<path d="M146.5,1045.5l0,-40" class="g2_383" />
<path d="M179.5,1045.5l0,-40" class="g2_383" />
<path d="M212.5,1045.5l0,-40" class="g2_383" />
<path d="M245.5,1045.5l0,-40" class="g2_383" />
<path d="M439.5,1045.5l0,-40" class="g2_383" />
<path d="M508.5,1045.5l0,-40" class="g2_383" />
<path d="M790.5,1045.5l0,-40" class="g2_383" />
<path d="M872.5,1045.5l0,-40" class="g2_383" />
<path fill-rule="evenodd" d="M47,1079l32,0l0,-34l-32,0l0,34Z" class="g1_383" />
<path fill-rule="evenodd" d="M81,1079l32,0l0,-34l-32,0l0,34Z" class="g1_383" />
<path fill-rule="evenodd" d="M114,1079l32,0l0,-34l-32,0l0,34Z" class="g1_383" />
<path fill-rule="evenodd" d="M147,1079l32,0l0,-34l-32,0l0,34Z" class="g1_383" />
<path fill-rule="evenodd" d="M247,1079l192,0l0,-33l-192,0l0,33Z" class="g1_383" />
<path fill-rule="evenodd" d="M254,1070l178,0l0,-24l-178,0l0,24Z" class="g1_383" />
<path fill-rule="evenodd" d="M441,1079l67,0l0,-33l-67,0l0,33Z" class="g1_383" />
<path fill-rule="evenodd" d="M448,1070l52,0l0,-24l-52,0l0,24Z" class="g1_383" />
<path fill-rule="evenodd" d="M509,1079l280,0l0,-33l-280,0l0,33Z" class="g1_383" />
<path fill-rule="evenodd" d="M517,1070l265,0l0,-24l-265,0l0,24Z" class="g1_383" />
<path fill-rule="evenodd" d="M791,1079l81,0l0,-33l-81,0l0,33Z" class="g1_383" />
<path fill-rule="evenodd" d="M798,1070l66,0l0,-24l-66,0l0,24Z" class="g1_383" />
<path d="M46.5,1046.5l0,-1" class="g2_383" />
<path d="M79.5,1046.5l0,-1" class="g2_383" />
<path d="M113.5,1046.5l0,-1" class="g2_383" />
<path d="M146.5,1046.5l0,-1" class="g2_383" />
<path d="M179.5,1046.5l0,-1" class="g2_383" />
<path d="M212.5,1046.5l0,-1" class="g2_383" />
<path d="M245.5,1046.5l0,-1" class="g2_383" />
<path d="M247.5,1046.5l192,0" class="g2_383" />
<path d="M439.5,1046.5l0,-1" class="g2_383" />
<path d="M441.5,1046.5l67,0" class="g2_383" />
<path d="M508.5,1046.5l0,-1" class="g2_383" />
<path d="M509.5,1046.5l281,0" class="g2_383" />
<path d="M790.5,1046.5l0,-1" class="g2_383" />
<path d="M791.5,1046.5l81,0" class="g2_383" />
<path d="M872.5,1046.5l0,-1" class="g2_383" />
<path d="M46.5,1079.5l0,-33" class="g2_383" />
<path d="M46.5,1081.5l0,-2" class="g2_383" />
<path d="M46.5,1081.5l0,-2" class="g2_383" />
<path d="M47.5,1081.5l32,0" class="g2_383" />
<path d="M79.5,1079.5l0,-33" class="g2_383" />
<path d="M79.5,1081.5l0,-2" class="g2_383" />
<path d="M81.5,1081.5l32,0" class="g2_383" />
<path d="M113.5,1079.5l0,-33" class="g2_383" />
<path d="M113.5,1081.5l0,-2" class="g2_383" />
<path d="M114.5,1081.5l32,0" class="g2_383" />
<path d="M146.5,1079.5l0,-33" class="g2_383" />
<path d="M146.5,1081.5l0,-2" class="g2_383" />
<path d="M147.5,1081.5l32,0" class="g2_383" />
<path d="M179.5,1079.5l0,-33" class="g2_383" />
<path d="M179.5,1081.5l0,-2" class="g2_383" />
<path d="M180.5,1081.5l32,0" class="g2_383" />
<path d="M212.5,1079.5l0,-33" class="g2_383" />
<path d="M212.5,1081.5l0,-2" class="g2_383" />
<path d="M213.5,1081.5l32,0" class="g2_383" />
<path d="M245.5,1079.5l0,-33" class="g2_383" />
<path d="M245.5,1081.5l0,-2" class="g2_383" />
<path d="M247.5,1081.5l192,0" class="g2_383" />
<path d="M439.5,1079.5l0,-33" class="g2_383" />
<path d="M439.5,1081.5l0,-2" class="g2_383" />
<path d="M441.5,1081.5l67,0" class="g2_383" />
<path d="M508.5,1079.5l0,-33" class="g2_383" />
<path d="M508.5,1081.5l0,-2" class="g2_383" />
<path d="M509.5,1081.5l281,0" class="g2_383" />
<path d="M790.5,1079.5l0,-33" class="g2_383" />
<path d="M790.5,1081.5l0,-2" class="g2_383" />
<path d="M791.5,1081.5l81,0" class="g2_383" />
<path d="M872.5,1079.5l0,-33" class="g2_383" />
<path d="M872.5,1081.5l0,-2" class="g2_383" />
<path d="M872.5,1081.5l0,-2" class="g2_383" />
</svg>