<?xml version="1.0" encoding="UTF-8" standalone="no"?>
<!DOCTYPE svg PUBLIC "-//W3C//DTD SVG 1.1//EN"
"http://www.w3.org/Graphics/SVG/1.1/DTD/svg11.dtd">
<svg version="1.1" xmlns="http://www.w3.org/2000/svg" xmlns:xlink="http://www.w3.org/1999/xlink">
<defs>
<clipPath id="c0_187"><path d="M47.5,397.5l0,-286l840,0l0,286Z" /></clipPath>
<clipPath id="c1_187"><path d="M47.5,870.5l0,-24l296,0l0,24Z" /></clipPath>
<clipPath id="c2_187"><path d="M344.5,870.5l0,-24l81,0l0,24Z" /></clipPath>
<clipPath id="c3_187"><path d="M427.5,870.5l0,-24l460,0l0,24Z" /></clipPath>
<clipPath id="c4_187"><path d="M47.5,1020.5l0,-149l39,0l0,149Z" /></clipPath>
<clipPath id="c5_187"><path d="M88.5,919.5l0,-48l255,0l0,48Z" /></clipPath>
<clipPath id="c6_187"><path d="M344.5,919.5l0,-48l81,0l0,48Z" /></clipPath>
<clipPath id="c7_187"><path d="M427.5,919.5l0,-48l460,0l0,48Z" /></clipPath>
<clipPath id="c8_187"><path d="M88.5,945.5l0,-24l255,0l0,24Z" /></clipPath>
<clipPath id="c9_187"><path d="M344.5,945.5l0,-24l81,0l0,24Z" /></clipPath>
<clipPath id="c10_187"><path d="M427.5,945.5l0,-24l460,0l0,24Z" /></clipPath>
<clipPath id="c11_187"><path d="M88.5,970.5l0,-24l255,0l0,24Z" /></clipPath>
<clipPath id="c12_187"><path d="M344.5,970.5l0,-24l81,0l0,24Z" /></clipPath>
<clipPath id="c13_187"><path d="M427.5,970.5l0,-24l460,0l0,24Z" /></clipPath>
<clipPath id="c14_187"><path d="M88.5,1020.5l0,-49l35,0l0,49Z" /></clipPath>
<clipPath id="c15_187"><path d="M124.5,995.5l0,-24l219,0l0,24Z" /></clipPath>
<clipPath id="c16_187"><path d="M344.5,995.5l0,-24l81,0l0,24Z" /></clipPath>
<clipPath id="c17_187"><path d="M427.5,995.5l0,-24l460,0l0,24Z" /></clipPath>
<clipPath id="c18_187"><path d="M124.5,1020.5l0,-23l33,0l0,23Z" /></clipPath>
<clipPath id="c19_187"><path d="M158.5,1020.5l0,-23l33,0l0,23Z" /></clipPath>
<clipPath id="c20_187"><path d="M193.5,1020.5l0,-23l150,0l0,23Z" /></clipPath>
<clipPath id="c21_187"><path d="M344.5,1020.5l0,-23l81,0l0,23Z" /></clipPath>
<clipPath id="c22_187"><path d="M427.5,1020.5l0,-23l460,0l0,23Z" /></clipPath>
<style type="text/css"><![CDATA[
.g2_187{
fill: none;
stroke: #7E7E7E;
stroke-width: 1;
stroke-linecap: butt;
stroke-linejoin: miter;
}
.g4_187{
fill: none;
stroke: #F1F1F1;
stroke-width: 1;
stroke-linecap: butt;
stroke-linejoin: miter;
}
.g3_187{
fill: #DBE5F1;
}
.g1_187{
fill: #F1F1F1;
}
]]></style>
</defs>
<path fill-rule="evenodd" d="M47,397l840,0l0,-286L47,111l0,286Z" class="g1_187" />
<g clip-path="url(#c0_187)">
<path fill-rule="evenodd" d="M55,135l825,0l0,-24L55,111l0,24Z" class="g1_187" />
</g>
<path fill-rule="evenodd" d="M55,159l825,0l0,-24L55,135l0,24Z" class="g1_187" />
<path fill-rule="evenodd" d="M55,182l825,0l0,-23L55,159l0,23Z" class="g1_187" />
<path fill-rule="evenodd" d="M55,206l825,0l0,-24L55,182l0,24Z" class="g1_187" />
<path fill-rule="evenodd" d="M55,230l825,0l0,-24L55,206l0,24Z" class="g1_187" />
<path fill-rule="evenodd" d="M55,254l825,0l0,-24L55,230l0,24Z" class="g1_187" />
<path fill-rule="evenodd" d="M55,278l825,0l0,-24L55,254l0,24Z" class="g1_187" />
<path fill-rule="evenodd" d="M55,302l825,0l0,-24L55,278l0,24Z" class="g1_187" />
<path fill-rule="evenodd" d="M55,325l825,0l0,-23L55,302l0,23Z" class="g1_187" />
<path fill-rule="evenodd" d="M55,349l825,0l0,-24L55,325l0,24Z" class="g1_187" />
<path fill-rule="evenodd" d="M55,373l825,0l0,-24L55,349l0,24Z" class="g1_187" />
<path fill-rule="evenodd" d="M55,397l825,0l0,-24L55,373l0,24Z" class="g1_187" />
<path d="M46.5,111.5l0,-1" class="g2_187" />
<path d="M46.5,111.5l0,-1" class="g2_187" />
<path d="M47.5,111.5l840,0" class="g2_187" />
<path d="M887.5,111.5l0,-1" class="g2_187" />
<path d="M887.5,111.5l0,-1" class="g2_187" />
<path d="M46.5,397.5l0,-286" class="g2_187" />
<path d="M46.5,399.5l0,-2" class="g2_187" />
<path d="M46.5,399.5l0,-2" class="g2_187" />
<path d="M47.5,399.5l840,0" class="g2_187" />
<path d="M887.5,397.5l0,-286" class="g2_187" />
<path d="M887.5,399.5l0,-2" class="g2_187" />
<path d="M887.5,399.5l0,-2" class="g2_187" />
<path fill-rule="evenodd" d="M47,758l840,0l0,-286L47,472l0,286Z" class="g1_187" />
<path fill-rule="evenodd" d="M55,495l825,0l0,-23L55,472l0,23Z" class="g1_187" />
<path fill-rule="evenodd" d="M55,519l825,0l0,-24L55,495l0,24Z" class="g1_187" />
<path fill-rule="evenodd" d="M55,543l825,0l0,-24L55,519l0,24Z" class="g1_187" />
<path fill-rule="evenodd" d="M55,567l825,0l0,-24L55,543l0,24Z" class="g1_187" />
<path fill-rule="evenodd" d="M55,591l825,0l0,-24L55,567l0,24Z" class="g1_187" />
<path fill-rule="evenodd" d="M55,615l825,0l0,-24L55,591l0,24Z" class="g1_187" />
<path fill-rule="evenodd" d="M55,638l825,0l0,-23L55,615l0,23Z" class="g1_187" />
<path fill-rule="evenodd" d="M55,662l825,0l0,-24L55,638l0,24Z" class="g1_187" />
<path fill-rule="evenodd" d="M55,686l825,0l0,-24L55,662l0,24Z" class="g1_187" />
<path fill-rule="evenodd" d="M55,710l825,0l0,-24L55,686l0,24Z" class="g1_187" />
<path fill-rule="evenodd" d="M55,734l825,0l0,-24L55,710l0,24Z" class="g1_187" />
<path fill-rule="evenodd" d="M55,758l825,0l0,-24L55,734l0,24Z" class="g1_187" />
<path d="M46.5,472.5l0,-2" class="g2_187" />
<path d="M46.5,472.5l0,-2" class="g2_187" />
<path d="M47.5,472.5l840,0" class="g2_187" />
<path d="M887.5,472.5l0,-2" class="g2_187" />
<path d="M887.5,472.5l0,-2" class="g2_187" />
<path d="M46.5,758.5l0,-286" class="g2_187" />
<path d="M46.5,759.5l0,-1" class="g2_187" />
<path d="M46.5,759.5l0,-1" class="g2_187" />
<path d="M47.5,759.5l840,0" class="g2_187" />
<path d="M887.5,758.5l0,-286" class="g2_187" />
<path d="M887.5,759.5l0,-1" class="g2_187" />
<path d="M887.5,759.5l0,-1" class="g2_187" />
<path fill-rule="evenodd" d="M47,870l296,0l0,-24L47,846l0,24Z" class="g3_187" />
<g clip-path="url(#c1_187)">
<path fill-rule="evenodd" d="M55,869l280,0l0,-23L55,846l0,23Z" class="g3_187" />
</g>
<path fill-rule="evenodd" d="M344,870l81,0l0,-24l-81,0l0,24Z" class="g3_187" />
<g clip-path="url(#c2_187)">
<path fill-rule="evenodd" d="M352,869l66,0l0,-23l-66,0l0,23Z" class="g3_187" />
</g>
<path fill-rule="evenodd" d="M427,870l460,0l0,-24l-460,0l0,24Z" class="g3_187" />
<g clip-path="url(#c3_187)">
<path fill-rule="evenodd" d="M434,869l446,0l0,-23l-446,0l0,23Z" class="g3_187" />
</g>
<path d="M46.5,846.5l0,-2" class="g2_187" />
<path d="M46.5,846.5l0,-2" class="g2_187" />
<path d="M47.5,846.5l296,0" class="g2_187" />
<path d="M343.5,846.5l0,-2" class="g2_187" />
<path d="M344.5,846.5l81,0" class="g2_187" />
<path d="M425.5,846.5l0,-2" class="g2_187" />
<path d="M427.5,846.5l460,0" class="g2_187" />
<path d="M887.5,846.5l0,-2" class="g2_187" />
<path d="M887.5,846.5l0,-2" class="g2_187" />
<path d="M46.5,870.5l0,-24" class="g2_187" />
<path d="M343.5,870.5l0,-24" class="g2_187" />
<path d="M425.5,870.5l0,-24" class="g2_187" />
<path d="M887.5,870.5l0,-24" class="g2_187" />
<path fill-rule="evenodd" d="M47,1020l39,0L86,871l-39,0l0,149Z" class="g1_187" />
<g clip-path="url(#c4_187)">
<path fill-rule="evenodd" d="M55,1020l23,0L78,871l-23,0l0,149Z" class="g1_187" />
</g>
<path fill-rule="evenodd" d="M88,919l255,0l0,-48L88,871l0,48Z" class="g1_187" />
<g clip-path="url(#c5_187)">
<path fill-rule="evenodd" d="M95,895l240,0l0,-24L95,871l0,24Z" class="g1_187" />
</g>
<path fill-rule="evenodd" d="M344,919l81,0l0,-48l-81,0l0,48Z" class="g1_187" />
<g clip-path="url(#c6_187)">
<path fill-rule="evenodd" d="M352,895l66,0l0,-24l-66,0l0,24Z" class="g1_187" />
</g>
<path fill-rule="evenodd" d="M427,919l460,0l0,-48l-460,0l0,48Z" class="g1_187" />
<g clip-path="url(#c7_187)">
<path fill-rule="evenodd" d="M434,895l446,0l0,-24l-446,0l0,24Z" class="g1_187" />
</g>
<path fill-rule="evenodd" d="M434,919l446,0l0,-24l-446,0l0,24Z" class="g1_187" />
<path d="M46.5,871.5l0,-1" class="g2_187" />
<path d="M47.5,871.5l39,0" class="g2_187" />
<path d="M86.5,871.5l0,-1" class="g2_187" />
<path d="M88.5,871.5l255,0" class="g2_187" />
<path d="M343.5,871.5l0,-1" class="g2_187" />
<path d="M344.5,871.5l81,0" class="g2_187" />
<path d="M425.5,871.5l0,-1" class="g2_187" />
<path d="M427.5,871.5l460,0" class="g2_187" />
<path d="M887.5,871.5l0,-1" class="g2_187" />
<path d="M46.5,919.5l0,-48" class="g2_187" />
<path d="M86.5,919.5l0,-48" class="g2_187" />
<path d="M343.5,919.5l0,-48" class="g2_187" />
<path d="M425.5,919.5l0,-48" class="g2_187" />
<path d="M887.5,919.5l0,-48" class="g2_187" />
<path fill-rule="evenodd" d="M88,945l255,0l0,-24L88,921l0,24Z" class="g1_187" />
<g clip-path="url(#c8_187)">
<path fill-rule="evenodd" d="M95,945l240,0l0,-24L95,921l0,24Z" class="g1_187" />
</g>
<path fill-rule="evenodd" d="M344,945l81,0l0,-24l-81,0l0,24Z" class="g1_187" />
<g clip-path="url(#c9_187)">
<path fill-rule="evenodd" d="M352,945l66,0l0,-24l-66,0l0,24Z" class="g1_187" />
</g>
<path fill-rule="evenodd" d="M427,945l460,0l0,-24l-460,0l0,24Z" class="g1_187" />
<g clip-path="url(#c10_187)">
<path fill-rule="evenodd" d="M434,945l446,0l0,-24l-446,0l0,24Z" class="g1_187" />
</g>
<path d="M46.5,920.5l0,-1" class="g2_187" />
<path d="M86.5,920.5l0,-1" class="g2_187" />
<path d="M88.5,920.5l255,0" class="g2_187" />
<path d="M343.5,920.5l0,-1" class="g2_187" />
<path d="M344.5,920.5l81,0" class="g2_187" />
<path d="M425.5,920.5l0,-1" class="g2_187" />
<path d="M427.5,920.5l460,0" class="g2_187" />
<path d="M887.5,920.5l0,-1" class="g2_187" />
<path d="M46.5,945.5l0,-25" class="g2_187" />
<path d="M86.5,945.5l0,-25" class="g2_187" />
<path d="M343.5,945.5l0,-25" class="g2_187" />
<path d="M425.5,945.5l0,-25" class="g2_187" />
<path d="M887.5,945.5l0,-25" class="g2_187" />
<path fill-rule="evenodd" d="M88,970l255,0l0,-24L88,946l0,24Z" class="g1_187" />
<g clip-path="url(#c11_187)">
<path fill-rule="evenodd" d="M95,970l240,0l0,-24L95,946l0,24Z" class="g1_187" />
</g>
<path fill-rule="evenodd" d="M344,970l81,0l0,-24l-81,0l0,24Z" class="g1_187" />
<g clip-path="url(#c12_187)">
<path fill-rule="evenodd" d="M352,970l66,0l0,-24l-66,0l0,24Z" class="g1_187" />
</g>
<path fill-rule="evenodd" d="M427,970l460,0l0,-24l-460,0l0,24Z" class="g1_187" />
<g clip-path="url(#c13_187)">
<path fill-rule="evenodd" d="M434,970l446,0l0,-24l-446,0l0,24Z" class="g1_187" />
</g>
<path d="M46.5,946.5l0,-1" class="g2_187" />
<path d="M86.5,946.5l0,-1" class="g2_187" />
<path d="M88.5,946.5l255,0" class="g2_187" />
<path d="M343.5,946.5l0,-1" class="g2_187" />
<path d="M344.5,946.5l81,0" class="g2_187" />
<path d="M425.5,946.5l0,-1" class="g2_187" />
<path d="M427.5,946.5l460,0" class="g2_187" />
<path d="M887.5,946.5l0,-1" class="g2_187" />
<path d="M46.5,970.5l0,-24" class="g2_187" />
<path d="M86.5,970.5l0,-24" class="g2_187" />
<path d="M343.5,970.5l0,-24" class="g2_187" />
<path d="M425.5,970.5l0,-24" class="g2_187" />
<path d="M887.5,970.5l0,-24" class="g2_187" />
<path fill-rule="evenodd" d="M88,1020l35,0l0,-49l-35,0l0,49Z" class="g1_187" />
<g clip-path="url(#c14_187)">
<path fill-rule="evenodd" d="M95,1020l24,0l0,-49l-24,0l0,49Z" class="g1_187" />
<path fill-rule="evenodd" d="M119,1020l4,0l0,-49l-4,0l0,49Z" class="g1_187" />
</g>
<path fill-rule="evenodd" d="M124,995l219,0l0,-24l-219,0l0,24Z" class="g1_187" />
<g clip-path="url(#c15_187)">
<path fill-rule="evenodd" d="M132,995l203,0l0,-24l-203,0l0,24Z" class="g1_187" />
</g>
<path fill-rule="evenodd" d="M344,995l81,0l0,-24l-81,0l0,24Z" class="g1_187" />
<g clip-path="url(#c16_187)">
<path fill-rule="evenodd" d="M352,995l66,0l0,-24l-66,0l0,24Z" class="g1_187" />
</g>
<path fill-rule="evenodd" d="M427,995l460,0l0,-24l-460,0l0,24Z" class="g1_187" />
<g clip-path="url(#c17_187)">
<path fill-rule="evenodd" d="M434,995l446,0l0,-24l-446,0l0,24Z" class="g1_187" />
</g>
<path d="M46.5,971.5l0,-1" class="g2_187" />
<path d="M86.5,971.5l0,-1" class="g2_187" />
<path d="M88.5,971.5l35,0" class="g2_187" />
<path d="M123.5,971.5l0,-1" class="g2_187" />
<path d="M124.5,971.5l219,0" class="g2_187" />
<path d="M343.5,971.5l0,-1" class="g2_187" />
<path d="M344.5,971.5l81,0" class="g2_187" />
<path d="M425.5,971.5l0,-1" class="g2_187" />
<path d="M427.5,971.5l460,0" class="g2_187" />
<path d="M887.5,971.5l0,-1" class="g2_187" />
<path d="M46.5,995.5l0,-24" class="g2_187" />
<path d="M86.5,995.5l0,-24" class="g2_187" />
<path d="M123.5,995.5l0,-24" class="g2_187" />
<path d="M343.5,995.5l0,-24" class="g2_187" />
<path d="M425.5,995.5l0,-24" class="g2_187" />
<path d="M887.5,995.5l0,-24" class="g2_187" />
<path fill-rule="evenodd" d="M124,1020l33,0l0,-23l-33,0l0,23Z" class="g1_187" />
<g clip-path="url(#c18_187)">
<path fill-rule="evenodd" d="M132,1020l24,0l0,-23l-24,0l0,23Z" class="g1_187" />
<path d="M156.5,1020.5l0,-23" class="g4_187" />
</g>
<path fill-rule="evenodd" d="M158,1020l33,0l0,-23l-33,0l0,23Z" class="g1_187" />
<g clip-path="url(#c19_187)">
<path fill-rule="evenodd" d="M166,1020l24,0l0,-23l-24,0l0,23Z" class="g1_187" />
<path d="M190.5,1020.5l0,-23" class="g4_187" />
</g>
<path fill-rule="evenodd" d="M193,1020l150,0l0,-23l-150,0l0,23Z" class="g1_187" />
<g clip-path="url(#c20_187)">
<path fill-rule="evenodd" d="M200,1020l135,0l0,-23l-135,0l0,23Z" class="g1_187" />
</g>
<path fill-rule="evenodd" d="M344,1020l81,0l0,-23l-81,0l0,23Z" class="g1_187" />
<g clip-path="url(#c21_187)">
<path fill-rule="evenodd" d="M352,1020l66,0l0,-23l-66,0l0,23Z" class="g1_187" />
</g>
<path fill-rule="evenodd" d="M427,1020l460,0l0,-23l-460,0l0,23Z" class="g1_187" />
<g clip-path="url(#c22_187)">
<path fill-rule="evenodd" d="M434,1020l446,0l0,-23l-446,0l0,23Z" class="g1_187" />
</g>
<path d="M46.5,997.5l0,-2" class="g2_187" />
<path d="M86.5,997.5l0,-2" class="g2_187" />
<path d="M123.5,997.5l0,-2" class="g2_187" />
<path d="M124.5,997.5l33,0" class="g2_187" />
<path d="M157.5,997.5l0,-2" class="g2_187" />
<path d="M158.5,997.5l33,0" class="g2_187" />
<path d="M191.5,997.5l0,-2" class="g2_187" />
<path d="M193.5,997.5l150,0" class="g2_187" />
<path d="M343.5,997.5l0,-2" class="g2_187" />
<path d="M344.5,997.5l81,0" class="g2_187" />
<path d="M425.5,997.5l0,-2" class="g2_187" />
<path d="M427.5,997.5l460,0" class="g2_187" />
<path d="M887.5,997.5l0,-2" class="g2_187" />
<path d="M46.5,1021.5l0,-24" class="g2_187" />
<path d="M46.5,1022.5l0,-1" class="g2_187" />
<path d="M46.5,1022.5l0,-1" class="g2_187" />
<path d="M47.5,1022.5l39,0" class="g2_187" />
<path d="M86.5,1021.5l0,-24" class="g2_187" />
<path d="M86.5,1022.5l0,-1" class="g2_187" />
<path d="M88.5,1022.5l35,0" class="g2_187" />
<path d="M123.5,1021.5l0,-24" class="g2_187" />
<path d="M123.5,1022.5l0,-1" class="g2_187" />
<path d="M124.5,1022.5l33,0" class="g2_187" />
<path d="M157.5,1021.5l0,-24" class="g2_187" />
<path d="M157.5,1022.5l0,-1" class="g2_187" />
<path d="M158.5,1022.5l33,0" class="g2_187" />
<path d="M191.5,1021.5l0,-24" class="g2_187" />
<path d="M191.5,1022.5l0,-1" class="g2_187" />
<path d="M193.5,1022.5l150,0" class="g2_187" />
<path d="M343.5,1021.5l0,-24" class="g2_187" />
<path d="M343.5,1022.5l0,-1" class="g2_187" />
<path d="M344.5,1022.5l81,0" class="g2_187" />
<path d="M425.5,1021.5l0,-24" class="g2_187" />
<path d="M425.5,1022.5l0,-1" class="g2_187" />
<path d="M427.5,1022.5l460,0" class="g2_187" />
<path d="M887.5,1021.5l0,-24" class="g2_187" />
<path d="M887.5,1022.5l0,-1" class="g2_187" />
<path d="M887.5,1022.5l0,-1" class="g2_187" />
</svg>