<?xml version="1.0" encoding="UTF-8" standalone="no"?>
<!DOCTYPE svg PUBLIC "-//W3C//DTD SVG 1.1//EN"
"http://www.w3.org/Graphics/SVG/1.1/DTD/svg11.dtd">
<svg version="1.1" xmlns="http://www.w3.org/2000/svg" xmlns:xlink="http://www.w3.org/1999/xlink">
<defs>
<style type="text/css"><![CDATA[
.g1_202{
fill: none;
stroke: #000000;
stroke-width: 1;
stroke-linecap: butt;
stroke-linejoin: miter;
}
]]></style>
</defs>
<path d="M433.5,110.5l82,0" class="g1_202" />
<path d="M516.5,110.5l295,0" class="g1_202" />
<path d="M53.5,277.5l0,-167" class="g1_202" />
<path d="M92.5,277.5l0,-167" class="g1_202" />
<path d="M131.5,277.5l0,-167" class="g1_202" />
<path d="M171.5,277.5l0,-167" class="g1_202" />
<path d="M210.5,277.5l0,-167" class="g1_202" />
<path d="M432.5,277.5l0,-167" class="g1_202" />
<path d="M515.5,277.5l0,-167" class="g1_202" />
<path d="M811.5,277.5l0,-167" class="g1_202" />
<path d="M888.5,277.5l0,-167" class="g1_202" />
<path d="M53.5,278.5l0,-1" class="g1_202" />
<path d="M92.5,278.5l0,-1" class="g1_202" />
<path d="M131.5,278.5l0,-1" class="g1_202" />
<path d="M171.5,278.5l0,-1" class="g1_202" />
<path d="M210.5,278.5l0,-1" class="g1_202" />
<path d="M211.5,278.5l221,0" class="g1_202" />
<path d="M432.5,278.5l0,-1" class="g1_202" />
<path d="M433.5,278.5l82,0" class="g1_202" />
<path d="M515.5,278.5l0,-1" class="g1_202" />
<path d="M516.5,278.5l295,0" class="g1_202" />
<path d="M811.5,278.5l0,-1" class="g1_202" />
<path d="M811.5,278.5l77,0" class="g1_202" />
<path d="M888.5,278.5l0,-1" class="g1_202" />
<path d="M53.5,325.5l0,-47" class="g1_202" />
<path d="M92.5,325.5l0,-47" class="g1_202" />
<path d="M131.5,325.5l0,-47" class="g1_202" />
<path d="M171.5,325.5l0,-47" class="g1_202" />
<path d="M210.5,325.5l0,-47" class="g1_202" />
<path d="M432.5,325.5l0,-47" class="g1_202" />
<path d="M515.5,325.5l0,-47" class="g1_202" />
<path d="M811.5,325.5l0,-47" class="g1_202" />
<path d="M888.5,325.5l0,-47" class="g1_202" />
<path d="M53.5,326.5l0,-1" class="g1_202" />
<path d="M92.5,326.5l0,-1" class="g1_202" />
<path d="M131.5,326.5l0,-1" class="g1_202" />
<path d="M171.5,326.5l0,-1" class="g1_202" />
<path d="M210.5,326.5l0,-1" class="g1_202" />
<path d="M211.5,326.5l221,0" class="g1_202" />
<path d="M432.5,326.5l0,-1" class="g1_202" />
<path d="M433.5,326.5l82,0" class="g1_202" />
<path d="M515.5,326.5l0,-1" class="g1_202" />
<path d="M516.5,326.5l295,0" class="g1_202" />
<path d="M811.5,326.5l0,-1" class="g1_202" />
<path d="M811.5,326.5l77,0" class="g1_202" />
<path d="M888.5,326.5l0,-1" class="g1_202" />
<path d="M53.5,374.5l0,-48" class="g1_202" />
<path d="M92.5,374.5l0,-48" class="g1_202" />
<path d="M131.5,374.5l0,-48" class="g1_202" />
<path d="M171.5,374.5l0,-48" class="g1_202" />
<path d="M210.5,374.5l0,-48" class="g1_202" />
<path d="M432.5,374.5l0,-48" class="g1_202" />
<path d="M515.5,374.5l0,-48" class="g1_202" />
<path d="M811.5,374.5l0,-48" class="g1_202" />
<path d="M888.5,374.5l0,-48" class="g1_202" />
<path d="M53.5,375.5l0,-1" class="g1_202" />
<path d="M92.5,375.5l0,-1" class="g1_202" />
<path d="M131.5,375.5l0,-1" class="g1_202" />
<path d="M171.5,375.5l0,-1" class="g1_202" />
<path d="M210.5,375.5l0,-1" class="g1_202" />
<path d="M211.5,375.5l221,0" class="g1_202" />
<path d="M432.5,375.5l0,-1" class="g1_202" />
<path d="M433.5,375.5l82,0" class="g1_202" />
<path d="M515.5,375.5l0,-1" class="g1_202" />
<path d="M516.5,375.5l295,0" class="g1_202" />
<path d="M811.5,375.5l0,-1" class="g1_202" />
<path d="M811.5,375.5l77,0" class="g1_202" />
<path d="M888.5,375.5l0,-1" class="g1_202" />
<path d="M53.5,518.5l0,-143" class="g1_202" />
<path d="M92.5,518.5l0,-143" class="g1_202" />
<path d="M131.5,518.5l0,-143" class="g1_202" />
<path d="M171.5,518.5l0,-143" class="g1_202" />
<path d="M210.5,518.5l0,-143" class="g1_202" />
<path d="M432.5,518.5l0,-143" class="g1_202" />
<path d="M515.5,518.5l0,-143" class="g1_202" />
<path d="M811.5,518.5l0,-143" class="g1_202" />
<path d="M888.5,518.5l0,-143" class="g1_202" />
<path d="M53.5,519.5l0,-1" class="g1_202" />
<path d="M92.5,519.5l0,-1" class="g1_202" />
<path d="M131.5,519.5l0,-1" class="g1_202" />
<path d="M171.5,519.5l0,-1" class="g1_202" />
<path d="M210.5,519.5l0,-1" class="g1_202" />
<path d="M211.5,519.5l221,0" class="g1_202" />
<path d="M432.5,519.5l0,-1" class="g1_202" />
<path d="M433.5,519.5l82,0" class="g1_202" />
<path d="M515.5,519.5l0,-1" class="g1_202" />
<path d="M516.5,519.5l295,0" class="g1_202" />
<path d="M811.5,519.5l0,-1" class="g1_202" />
<path d="M811.5,519.5l77,0" class="g1_202" />
<path d="M888.5,519.5l0,-1" class="g1_202" />
<path d="M53.5,662.5l0,-143" class="g1_202" />
<path d="M92.5,662.5l0,-143" class="g1_202" />
<path d="M131.5,662.5l0,-143" class="g1_202" />
<path d="M171.5,662.5l0,-143" class="g1_202" />
<path d="M210.5,662.5l0,-143" class="g1_202" />
<path d="M432.5,662.5l0,-143" class="g1_202" />
<path d="M515.5,662.5l0,-143" class="g1_202" />
<path d="M811.5,662.5l0,-143" class="g1_202" />
<path d="M888.5,662.5l0,-143" class="g1_202" />
<path d="M211.5,662.5l59,0" class="g1_202" />
<path d="M271.5,662.5l67,0" class="g1_202" />
<path d="M339.5,662.5l93,0" class="g1_202" />
<path d="M433.5,662.5l82,0" class="g1_202" />
<path d="M516.5,662.5l295,0" class="g1_202" />
<path d="M811.5,662.5l77,0" class="g1_202" />
<path d="M53.5,972.5l0,-310" class="g1_202" />
<path d="M92.5,972.5l0,-310" class="g1_202" />
<path d="M131.5,972.5l0,-310" class="g1_202" />
<path d="M171.5,972.5l0,-310" class="g1_202" />
<path d="M210.5,972.5l0,-310" class="g1_202" />
<path d="M270.5,972.5l0,-310" class="g1_202" />
<path d="M338.5,972.5l0,-310" class="g1_202" />
<path d="M432.5,972.5l0,-310" class="g1_202" />
<path d="M515.5,972.5l0,-310" class="g1_202" />
<path d="M811.5,972.5l0,-310" class="g1_202" />
<path d="M888.5,972.5l0,-310" class="g1_202" />
<path d="M53.5,973.5l0,-1" class="g1_202" />
<path d="M92.5,973.5l0,-1" class="g1_202" />
<path d="M131.5,973.5l0,-1" class="g1_202" />
<path d="M171.5,973.5l0,-1" class="g1_202" />
<path d="M210.5,973.5l0,-1" class="g1_202" />
<path d="M270.5,973.5l0,-1" class="g1_202" />
<path d="M338.5,973.5l0,-1" class="g1_202" />
<path d="M339.5,973.5l93,0" class="g1_202" />
<path d="M432.5,973.5l0,-1" class="g1_202" />
<path d="M433.5,973.5l82,0" class="g1_202" />
<path d="M515.5,973.5l0,-1" class="g1_202" />
<path d="M516.5,973.5l295,0" class="g1_202" />
<path d="M811.5,973.5l0,-1" class="g1_202" />
<path d="M811.5,973.5l77,0" class="g1_202" />
<path d="M888.5,973.5l0,-1" class="g1_202" />
<path d="M53.5,1060.5l0,-87" class="g1_202" />
<path d="M92.5,1060.5l0,-87" class="g1_202" />
<path d="M131.5,1060.5l0,-87" class="g1_202" />
<path d="M171.5,1060.5l0,-87" class="g1_202" />
<path d="M210.5,1060.5l0,-87" class="g1_202" />
<path d="M211.5,1060.5l59,0" class="g1_202" />
<path d="M270.5,1060.5l0,-87" class="g1_202" />
<path d="M271.5,1060.5l67,0" class="g1_202" />
<path d="M338.5,1060.5l0,-87" class="g1_202" />
<path d="M339.5,1060.5l93,0" class="g1_202" />
<path d="M432.5,1060.5l0,-87" class="g1_202" />
<path d="M433.5,1060.5l82,0" class="g1_202" />
<path d="M515.5,1060.5l0,-87" class="g1_202" />
<path d="M516.5,1060.5l295,0" class="g1_202" />
<path d="M811.5,1060.5l0,-87" class="g1_202" />
<path d="M811.5,1060.5l77,0" class="g1_202" />
<path d="M888.5,1060.5l0,-87" class="g1_202" />
</svg>