<?xml version="1.0" encoding="UTF-8" standalone="no"?>
<!DOCTYPE svg PUBLIC "-//W3C//DTD SVG 1.1//EN"
"http://www.w3.org/Graphics/SVG/1.1/DTD/svg11.dtd">
<svg version="1.1" xmlns="http://www.w3.org/2000/svg" xmlns:xlink="http://www.w3.org/1999/xlink">
<defs>
<clipPath id="c0_337"><path d="M47.5,335.5l0,-24l840,0l0,24Z" /></clipPath>
<clipPath id="c1_337"><path d="M47.5,679.5l0,-24l268,0l0,24Z" /></clipPath>
<clipPath id="c2_337"><path d="M317.5,679.5l0,-24l78,0l0,24Z" /></clipPath>
<clipPath id="c3_337"><path d="M397.5,679.5l0,-24l81,0l0,24Z" /></clipPath>
<clipPath id="c4_337"><path d="M480.5,679.5l0,-24l407,0l0,24Z" /></clipPath>
<clipPath id="c5_337"><path d="M47.5,921.5l0,-240l48,0l0,240Z" /></clipPath>
<clipPath id="c6_337"><path d="M96.5,729.5l0,-48l219,0l0,48Z" /></clipPath>
<clipPath id="c7_337"><path d="M317.5,729.5l0,-48l78,0l0,48Z" /></clipPath>
<clipPath id="c8_337"><path d="M397.5,729.5l0,-48l81,0l0,48Z" /></clipPath>
<clipPath id="c9_337"><path d="M480.5,729.5l0,-48l407,0l0,48Z" /></clipPath>
<clipPath id="c10_337"><path d="M96.5,755.5l0,-25l219,0l0,25Z" /></clipPath>
<clipPath id="c11_337"><path d="M317.5,755.5l0,-25l78,0l0,25Z" /></clipPath>
<clipPath id="c12_337"><path d="M397.5,755.5l0,-25l81,0l0,25Z" /></clipPath>
<clipPath id="c13_337"><path d="M480.5,755.5l0,-25l407,0l0,25Z" /></clipPath>
<clipPath id="c14_337"><path d="M96.5,921.5l0,-165l40,0l0,165Z" /></clipPath>
<clipPath id="c15_337"><path d="M137.5,921.5l0,-165l39,0l0,165Z" /></clipPath>
<clipPath id="c16_337"><path d="M178.5,866.5l0,-110l39,0l0,110Z" /></clipPath>
<clipPath id="c17_337"><path d="M219.5,866.5l0,-110l96,0l0,110Z" /></clipPath>
<clipPath id="c18_337"><path d="M317.5,866.5l0,-110l78,0l0,110Z" /></clipPath>
<clipPath id="c19_337"><path d="M397.5,866.5l0,-110l81,0l0,110Z" /></clipPath>
<clipPath id="c20_337"><path d="M480.5,866.5l0,-110l407,0l0,110Z" /></clipPath>
<clipPath id="c21_337"><path d="M178.5,921.5l0,-54l137,0l0,54Z" /></clipPath>
<clipPath id="c22_337"><path d="M317.5,921.5l0,-54l78,0l0,54Z" /></clipPath>
<clipPath id="c23_337"><path d="M397.5,921.5l0,-54l81,0l0,54Z" /></clipPath>
<clipPath id="c24_337"><path d="M480.5,921.5l0,-54l407,0l0,54Z" /></clipPath>
<style type="text/css"><![CDATA[
.g2_337{
fill: none;
stroke: #7E7E7E;
stroke-width: 1;
stroke-linecap: butt;
stroke-linejoin: miter;
}
.g3_337{
fill: #DBE5F1;
}
.g1_337{
fill: #F1F1F1;
}
]]></style>
</defs>
<path fill-rule="evenodd" d="M47,335l840,0l0,-24L47,311l0,24Z" class="g1_337" />
<g clip-path="url(#c0_337)">
<path fill-rule="evenodd" d="M55,335l825,0l0,-24L55,311l0,24Z" class="g1_337" />
</g>
<path d="M46.5,311.5l0,-1" class="g2_337" />
<path d="M46.5,311.5l0,-1" class="g2_337" />
<path d="M47.5,311.5l840,0" class="g2_337" />
<path d="M887.5,311.5l0,-1" class="g2_337" />
<path d="M887.5,311.5l0,-1" class="g2_337" />
<path d="M46.5,335.5l0,-24" class="g2_337" />
<path d="M46.5,336.5l0,-1" class="g2_337" />
<path d="M46.5,336.5l0,-1" class="g2_337" />
<path d="M47.5,336.5l840,0" class="g2_337" />
<path d="M887.5,335.5l0,-24" class="g2_337" />
<path d="M887.5,336.5l0,-1" class="g2_337" />
<path d="M887.5,336.5l0,-1" class="g2_337" />
<path fill-rule="evenodd" d="M47,442l178,0l0,-24L47,418l0,24Z" class="g3_337" />
<path fill-rule="evenodd" d="M55,442l162,0l0,-24L55,418l0,24Z" class="g3_337" />
<path fill-rule="evenodd" d="M226,442l163,0l0,-24l-163,0l0,24Z" class="g3_337" />
<path fill-rule="evenodd" d="M234,442l147,0l0,-24l-147,0l0,24Z" class="g3_337" />
<path fill-rule="evenodd" d="M390,442l497,0l0,-24l-497,0l0,24Z" class="g3_337" />
<path fill-rule="evenodd" d="M398,442l482,0l0,-24l-482,0l0,24Z" class="g3_337" />
<path d="M46.5,418.5l0,-2" class="g2_337" />
<path d="M46.5,418.5l0,-2" class="g2_337" />
<path d="M47.5,418.5l178,0" class="g2_337" />
<path d="M225.5,418.5l0,-2" class="g2_337" />
<path d="M226.5,418.5l163,0" class="g2_337" />
<path d="M389.5,418.5l0,-2" class="g2_337" />
<path d="M390.5,418.5l497,0" class="g2_337" />
<path d="M887.5,418.5l0,-2" class="g2_337" />
<path d="M887.5,418.5l0,-2" class="g2_337" />
<path d="M46.5,442.5l0,-24" class="g2_337" />
<path d="M225.5,442.5l0,-24" class="g2_337" />
<path d="M389.5,442.5l0,-24" class="g2_337" />
<path d="M887.5,442.5l0,-24" class="g2_337" />
<path fill-rule="evenodd" d="M47,467l178,0l0,-24L47,443l0,24Z" class="g1_337" />
<path fill-rule="evenodd" d="M55,467l162,0l0,-24L55,443l0,24Z" class="g1_337" />
<path fill-rule="evenodd" d="M226,467l163,0l0,-24l-163,0l0,24Z" class="g1_337" />
<path fill-rule="evenodd" d="M234,467l147,0l0,-24l-147,0l0,24Z" class="g1_337" />
<path fill-rule="evenodd" d="M390,467l497,0l0,-24l-497,0l0,24Z" class="g1_337" />
<path fill-rule="evenodd" d="M398,467l482,0l0,-24l-482,0l0,24Z" class="g1_337" />
<path d="M46.5,443.5l0,-1" class="g2_337" />
<path d="M47.5,443.5l178,0" class="g2_337" />
<path d="M225.5,443.5l0,-1" class="g2_337" />
<path d="M226.5,443.5l163,0" class="g2_337" />
<path d="M389.5,443.5l0,-1" class="g2_337" />
<path d="M390.5,443.5l497,0" class="g2_337" />
<path d="M887.5,443.5l0,-1" class="g2_337" />
<path d="M46.5,467.5l0,-24" class="g2_337" />
<path d="M46.5,469.5l0,-2" class="g2_337" />
<path d="M46.5,469.5l0,-2" class="g2_337" />
<path d="M47.5,469.5l178,0" class="g2_337" />
<path d="M225.5,467.5l0,-24" class="g2_337" />
<path d="M225.5,469.5l0,-2" class="g2_337" />
<path d="M226.5,469.5l163,0" class="g2_337" />
<path d="M389.5,467.5l0,-24" class="g2_337" />
<path d="M389.5,469.5l0,-2" class="g2_337" />
<path d="M390.5,469.5l497,0" class="g2_337" />
<path d="M887.5,467.5l0,-24" class="g2_337" />
<path d="M887.5,469.5l0,-2" class="g2_337" />
<path d="M887.5,469.5l0,-2" class="g2_337" />
<path fill-rule="evenodd" d="M47,542l177,0l0,-24L47,518l0,24Z" class="g3_337" />
<path fill-rule="evenodd" d="M55,542l162,0l0,-24L55,518l0,24Z" class="g3_337" />
<path fill-rule="evenodd" d="M226,542l162,0l0,-24l-162,0l0,24Z" class="g3_337" />
<path fill-rule="evenodd" d="M233,542l148,0l0,-24l-148,0l0,24Z" class="g3_337" />
<path fill-rule="evenodd" d="M390,542l163,0l0,-24l-163,0l0,24Z" class="g3_337" />
<path fill-rule="evenodd" d="M397,542l148,0l0,-24l-148,0l0,24Z" class="g3_337" />
<path fill-rule="evenodd" d="M554,542l163,0l0,-24l-163,0l0,24Z" class="g3_337" />
<path fill-rule="evenodd" d="M562,542l148,0l0,-24l-148,0l0,24Z" class="g3_337" />
<path fill-rule="evenodd" d="M719,542l168,0l0,-24l-168,0l0,24Z" class="g3_337" />
<path fill-rule="evenodd" d="M726,542l154,0l0,-24l-154,0l0,24Z" class="g3_337" />
<path d="M46.5,518.5l0,-2" class="g2_337" />
<path d="M46.5,518.5l0,-2" class="g2_337" />
<path d="M47.5,518.5l177,0" class="g2_337" />
<path d="M224.5,518.5l0,-2" class="g2_337" />
<path d="M226.5,518.5l162,0" class="g2_337" />
<path d="M388.5,518.5l0,-2" class="g2_337" />
<path d="M390.5,518.5l163,0" class="g2_337" />
<path d="M553.5,518.5l0,-2" class="g2_337" />
<path d="M554.5,518.5l163,0" class="g2_337" />
<path d="M717.5,518.5l0,-2" class="g2_337" />
<path d="M719.5,518.5l168,0" class="g2_337" />
<path d="M887.5,518.5l0,-2" class="g2_337" />
<path d="M887.5,518.5l0,-2" class="g2_337" />
<path d="M46.5,542.5l0,-24" class="g2_337" />
<path d="M224.5,542.5l0,-24" class="g2_337" />
<path d="M388.5,542.5l0,-24" class="g2_337" />
<path d="M553.5,542.5l0,-24" class="g2_337" />
<path d="M717.5,542.5l0,-24" class="g2_337" />
<path d="M887.5,542.5l0,-24" class="g2_337" />
<path fill-rule="evenodd" d="M47,567l177,0l0,-24L47,543l0,24Z" class="g1_337" />
<path fill-rule="evenodd" d="M55,567l162,0l0,-24L55,543l0,24Z" class="g1_337" />
<path fill-rule="evenodd" d="M226,567l162,0l0,-24l-162,0l0,24Z" class="g1_337" />
<path fill-rule="evenodd" d="M233,567l148,0l0,-24l-148,0l0,24Z" class="g1_337" />
<path fill-rule="evenodd" d="M390,567l163,0l0,-24l-163,0l0,24Z" class="g1_337" />
<path fill-rule="evenodd" d="M397,567l148,0l0,-24l-148,0l0,24Z" class="g1_337" />
<path fill-rule="evenodd" d="M554,567l163,0l0,-24l-163,0l0,24Z" class="g1_337" />
<path fill-rule="evenodd" d="M562,567l148,0l0,-24l-148,0l0,24Z" class="g1_337" />
<path fill-rule="evenodd" d="M719,567l168,0l0,-24l-168,0l0,24Z" class="g1_337" />
<path fill-rule="evenodd" d="M726,567l154,0l0,-24l-154,0l0,24Z" class="g1_337" />
<path d="M46.5,543.5l0,-1" class="g2_337" />
<path d="M47.5,543.5l177,0" class="g2_337" />
<path d="M224.5,543.5l0,-1" class="g2_337" />
<path d="M226.5,543.5l162,0" class="g2_337" />
<path d="M388.5,543.5l0,-1" class="g2_337" />
<path d="M390.5,543.5l163,0" class="g2_337" />
<path d="M553.5,543.5l0,-1" class="g2_337" />
<path d="M554.5,543.5l163,0" class="g2_337" />
<path d="M717.5,543.5l0,-1" class="g2_337" />
<path d="M719.5,543.5l168,0" class="g2_337" />
<path d="M887.5,543.5l0,-1" class="g2_337" />
<path d="M46.5,567.5l0,-24" class="g2_337" />
<path d="M46.5,569.5l0,-2" class="g2_337" />
<path d="M46.5,569.5l0,-2" class="g2_337" />
<path d="M47.5,569.5l177,0" class="g2_337" />
<path d="M224.5,567.5l0,-24" class="g2_337" />
<path d="M224.5,569.5l0,-2" class="g2_337" />
<path d="M226.5,569.5l162,0" class="g2_337" />
<path d="M388.5,567.5l0,-24" class="g2_337" />
<path d="M388.5,569.5l0,-2" class="g2_337" />
<path d="M390.5,569.5l163,0" class="g2_337" />
<path d="M553.5,567.5l0,-24" class="g2_337" />
<path d="M553.5,569.5l0,-2" class="g2_337" />
<path d="M554.5,569.5l163,0" class="g2_337" />
<path d="M717.5,567.5l0,-24" class="g2_337" />
<path d="M717.5,569.5l0,-2" class="g2_337" />
<path d="M719.5,569.5l168,0" class="g2_337" />
<path d="M887.5,567.5l0,-24" class="g2_337" />
<path d="M887.5,569.5l0,-2" class="g2_337" />
<path d="M887.5,569.5l0,-2" class="g2_337" />
<path fill-rule="evenodd" d="M47,679l268,0l0,-24L47,655l0,24Z" class="g3_337" />
<g clip-path="url(#c1_337)">
<path fill-rule="evenodd" d="M55,679l253,0l0,-24L55,655l0,24Z" class="g3_337" />
</g>
<path fill-rule="evenodd" d="M317,679l78,0l0,-24l-78,0l0,24Z" class="g3_337" />
<g clip-path="url(#c2_337)">
<path fill-rule="evenodd" d="M324,679l64,0l0,-24l-64,0l0,24Z" class="g3_337" />
</g>
<path fill-rule="evenodd" d="M397,679l81,0l0,-24l-81,0l0,24Z" class="g3_337" />
<g clip-path="url(#c3_337)">
<path fill-rule="evenodd" d="M404,679l67,0l0,-24l-67,0l0,24Z" class="g3_337" />
</g>
<path fill-rule="evenodd" d="M480,679l407,0l0,-24l-407,0l0,24Z" class="g3_337" />
<g clip-path="url(#c4_337)">
<path fill-rule="evenodd" d="M487,679l393,0l0,-24l-393,0l0,24Z" class="g3_337" />
</g>
<path d="M46.5,655.5l0,-1" class="g2_337" />
<path d="M46.5,655.5l0,-1" class="g2_337" />
<path d="M47.5,655.5l268,0" class="g2_337" />
<path d="M315.5,655.5l0,-1" class="g2_337" />
<path d="M317.5,655.5l78,0" class="g2_337" />
<path d="M395.5,655.5l0,-1" class="g2_337" />
<path d="M397.5,655.5l81,0" class="g2_337" />
<path d="M478.5,655.5l0,-1" class="g2_337" />
<path d="M480.5,655.5l407,0" class="g2_337" />
<path d="M887.5,655.5l0,-1" class="g2_337" />
<path d="M887.5,655.5l0,-1" class="g2_337" />
<path d="M46.5,679.5l0,-24" class="g2_337" />
<path d="M315.5,679.5l0,-24" class="g2_337" />
<path d="M395.5,679.5l0,-24" class="g2_337" />
<path d="M478.5,679.5l0,-24" class="g2_337" />
<path d="M887.5,679.5l0,-24" class="g2_337" />
<path fill-rule="evenodd" d="M47,921l48,0L95,681l-48,0l0,240Z" class="g1_337" />
<g clip-path="url(#c5_337)">
<path fill-rule="evenodd" d="M55,921l23,0L78,681l-23,0l0,240Z" class="g1_337" />
</g>
<path fill-rule="evenodd" d="M96,729l219,0l0,-48L96,681l0,48Z" class="g1_337" />
<g clip-path="url(#c6_337)">
<path fill-rule="evenodd" d="M104,705l204,0l0,-24l-204,0l0,24Z" class="g1_337" />
</g>
<path fill-rule="evenodd" d="M317,729l78,0l0,-48l-78,0l0,48Z" class="g1_337" />
<g clip-path="url(#c7_337)">
<path fill-rule="evenodd" d="M324,705l64,0l0,-24l-64,0l0,24Z" class="g1_337" />
</g>
<path fill-rule="evenodd" d="M397,729l81,0l0,-48l-81,0l0,48Z" class="g1_337" />
<g clip-path="url(#c8_337)">
<path fill-rule="evenodd" d="M404,705l67,0l0,-24l-67,0l0,24Z" class="g1_337" />
</g>
<path fill-rule="evenodd" d="M480,729l407,0l0,-48l-407,0l0,48Z" class="g1_337" />
<g clip-path="url(#c9_337)">
<path fill-rule="evenodd" d="M487,705l393,0l0,-24l-393,0l0,24Z" class="g1_337" />
</g>
<path fill-rule="evenodd" d="M487,729l393,0l0,-24l-393,0l0,24Z" class="g1_337" />
<path d="M46.5,681.5l0,-2" class="g2_337" />
<path d="M47.5,681.5l48,0" class="g2_337" />
<path d="M95.5,681.5l0,-2" class="g2_337" />
<path d="M96.5,681.5l219,0" class="g2_337" />
<path d="M315.5,681.5l0,-2" class="g2_337" />
<path d="M317.5,681.5l78,0" class="g2_337" />
<path d="M395.5,681.5l0,-2" class="g2_337" />
<path d="M397.5,681.5l81,0" class="g2_337" />
<path d="M478.5,681.5l0,-2" class="g2_337" />
<path d="M480.5,681.5l407,0" class="g2_337" />
<path d="M887.5,681.5l0,-2" class="g2_337" />
<path d="M46.5,729.5l0,-48" class="g2_337" />
<path d="M95.5,729.5l0,-48" class="g2_337" />
<path d="M315.5,729.5l0,-48" class="g2_337" />
<path d="M395.5,729.5l0,-48" class="g2_337" />
<path d="M478.5,729.5l0,-48" class="g2_337" />
<path d="M887.5,729.5l0,-48" class="g2_337" />
<path fill-rule="evenodd" d="M96,755l219,0l0,-25L96,730l0,25Z" class="g1_337" />
<g clip-path="url(#c10_337)">
<path fill-rule="evenodd" d="M104,754l204,0l0,-24l-204,0l0,24Z" class="g1_337" />
</g>
<path fill-rule="evenodd" d="M317,755l78,0l0,-25l-78,0l0,25Z" class="g1_337" />
<g clip-path="url(#c11_337)">
<path fill-rule="evenodd" d="M324,754l64,0l0,-24l-64,0l0,24Z" class="g1_337" />
</g>
<path fill-rule="evenodd" d="M397,755l81,0l0,-25l-81,0l0,25Z" class="g1_337" />
<g clip-path="url(#c12_337)">
<path fill-rule="evenodd" d="M404,754l67,0l0,-24l-67,0l0,24Z" class="g1_337" />
</g>
<path fill-rule="evenodd" d="M480,755l407,0l0,-25l-407,0l0,25Z" class="g1_337" />
<g clip-path="url(#c13_337)">
<path fill-rule="evenodd" d="M487,754l393,0l0,-24l-393,0l0,24Z" class="g1_337" />
</g>
<path d="M46.5,730.5l0,-1" class="g2_337" />
<path d="M95.5,730.5l0,-1" class="g2_337" />
<path d="M96.5,730.5l219,0" class="g2_337" />
<path d="M315.5,730.5l0,-1" class="g2_337" />
<path d="M317.5,730.5l78,0" class="g2_337" />
<path d="M395.5,730.5l0,-1" class="g2_337" />
<path d="M397.5,730.5l81,0" class="g2_337" />
<path d="M478.5,730.5l0,-1" class="g2_337" />
<path d="M480.5,730.5l407,0" class="g2_337" />
<path d="M887.5,730.5l0,-1" class="g2_337" />
<path d="M46.5,755.5l0,-25" class="g2_337" />
<path d="M95.5,755.5l0,-25" class="g2_337" />
<path d="M315.5,755.5l0,-25" class="g2_337" />
<path d="M395.5,755.5l0,-25" class="g2_337" />
<path d="M478.5,755.5l0,-25" class="g2_337" />
<path d="M887.5,755.5l0,-25" class="g2_337" />
<path fill-rule="evenodd" d="M96,921l40,0l0,-165l-40,0l0,165Z" class="g1_337" />
<g clip-path="url(#c14_337)">
<path fill-rule="evenodd" d="M104,921l24,0l0,-165l-24,0l0,165Z" class="g1_337" />
</g>
<path fill-rule="evenodd" d="M137,921l39,0l0,-165l-39,0l0,165Z" class="g1_337" />
<g clip-path="url(#c15_337)">
<path fill-rule="evenodd" d="M145,921l23,0l0,-165l-23,0l0,165Z" class="g1_337" />
</g>
<path fill-rule="evenodd" d="M178,866l39,0l0,-110l-39,0l0,110Z" class="g1_337" />
<g clip-path="url(#c16_337)">
<path fill-rule="evenodd" d="M185,866l24,0l0,-110l-24,0l0,110Z" class="g1_337" />
</g>
<path fill-rule="evenodd" d="M219,866l96,0l0,-110l-96,0l0,110Z" class="g1_337" />
<g clip-path="url(#c17_337)">
<path fill-rule="evenodd" d="M226,780l82,0l0,-24l-82,0l0,24Z" class="g1_337" />
</g>
<path fill-rule="evenodd" d="M317,866l78,0l0,-110l-78,0l0,110Z" class="g1_337" />
<g clip-path="url(#c18_337)">
<path fill-rule="evenodd" d="M324,780l64,0l0,-24l-64,0l0,24Z" class="g1_337" />
</g>
<path fill-rule="evenodd" d="M397,866l81,0l0,-110l-81,0l0,110Z" class="g1_337" />
<g clip-path="url(#c19_337)">
<path fill-rule="evenodd" d="M404,780l67,0l0,-24l-67,0l0,24Z" class="g1_337" />
</g>
<path fill-rule="evenodd" d="M480,866l407,0l0,-110l-407,0l0,110Z" class="g1_337" />
<g clip-path="url(#c20_337)">
<path fill-rule="evenodd" d="M487,780l393,0l0,-24l-393,0l0,24Z" class="g1_337" />
</g>
<path fill-rule="evenodd" d="M487,804l393,0l0,-24l-393,0l0,24Z" class="g1_337" />
<path d="M46.5,756.5l0,-1" class="g2_337" />
<path d="M95.5,756.5l0,-1" class="g2_337" />
<path d="M96.5,756.5l40,0" class="g2_337" />
<path d="M136.5,756.5l0,-1" class="g2_337" />
<path d="M137.5,756.5l39,0" class="g2_337" />
<path d="M176.5,756.5l0,-1" class="g2_337" />
<path d="M178.5,756.5l39,0" class="g2_337" />
<path d="M217.5,756.5l0,-1" class="g2_337" />
<path d="M219.5,756.5l96,0" class="g2_337" />
<path d="M315.5,756.5l0,-1" class="g2_337" />
<path d="M317.5,756.5l78,0" class="g2_337" />
<path d="M395.5,756.5l0,-1" class="g2_337" />
<path d="M397.5,756.5l81,0" class="g2_337" />
<path d="M478.5,756.5l0,-1" class="g2_337" />
<path d="M480.5,756.5l407,0" class="g2_337" />
<path d="M887.5,756.5l0,-1" class="g2_337" />
<path d="M46.5,866.5l0,-110" class="g2_337" />
<path d="M95.5,866.5l0,-110" class="g2_337" />
<path d="M136.5,866.5l0,-110" class="g2_337" />
<path d="M176.5,866.5l0,-110" class="g2_337" />
<path d="M217.5,866.5l0,-110" class="g2_337" />
<path d="M315.5,866.5l0,-110" class="g2_337" />
<path d="M395.5,866.5l0,-110" class="g2_337" />
<path d="M478.5,866.5l0,-110" class="g2_337" />
<path d="M887.5,866.5l0,-110" class="g2_337" />
<path fill-rule="evenodd" d="M178,921l137,0l0,-54l-137,0l0,54Z" class="g1_337" />
<g clip-path="url(#c21_337)">
<path fill-rule="evenodd" d="M185,891l123,0l0,-24l-123,0l0,24Z" class="g1_337" />
</g>
<path fill-rule="evenodd" d="M317,921l78,0l0,-54l-78,0l0,54Z" class="g1_337" />
<g clip-path="url(#c22_337)">
<path fill-rule="evenodd" d="M324,891l64,0l0,-24l-64,0l0,24Z" class="g1_337" />
</g>
<path fill-rule="evenodd" d="M397,921l81,0l0,-54l-81,0l0,54Z" class="g1_337" />
<g clip-path="url(#c23_337)">
<path fill-rule="evenodd" d="M404,891l67,0l0,-24l-67,0l0,24Z" class="g1_337" />
</g>
<path fill-rule="evenodd" d="M480,921l407,0l0,-54l-407,0l0,54Z" class="g1_337" />
<g clip-path="url(#c24_337)">
<path fill-rule="evenodd" d="M487,891l393,0l0,-24l-393,0l0,24Z" class="g1_337" />
</g>
<path fill-rule="evenodd" d="M487,915l393,0l0,-24l-393,0l0,24Z" class="g1_337" />
<path d="M46.5,867.5l0,-1" class="g2_337" />
<path d="M95.5,867.5l0,-1" class="g2_337" />
<path d="M136.5,867.5l0,-1" class="g2_337" />
<path d="M176.5,867.5l0,-1" class="g2_337" />
<path d="M178.5,867.5l39,0" class="g2_337" />
<path d="M217.5,867.5l0,-1" class="g2_337" />
<path d="M219.5,867.5l96,0" class="g2_337" />
<path d="M315.5,867.5l0,-1" class="g2_337" />
<path d="M317.5,867.5l78,0" class="g2_337" />
<path d="M395.5,867.5l0,-1" class="g2_337" />
<path d="M397.5,867.5l81,0" class="g2_337" />
<path d="M478.5,867.5l0,-1" class="g2_337" />
<path d="M480.5,867.5l407,0" class="g2_337" />
<path d="M887.5,867.5l0,-1" class="g2_337" />
<path d="M46.5,921.5l0,-54" class="g2_337" />
<path d="M46.5,922.5l0,-1" class="g2_337" />
<path d="M46.5,922.5l0,-1" class="g2_337" />
<path d="M47.5,922.5l48,0" class="g2_337" />
<path d="M95.5,921.5l0,-54" class="g2_337" />
<path d="M95.5,922.5l0,-1" class="g2_337" />
<path d="M96.5,922.5l40,0" class="g2_337" />
<path d="M136.5,921.5l0,-54" class="g2_337" />
<path d="M136.5,922.5l0,-1" class="g2_337" />
<path d="M137.5,922.5l39,0" class="g2_337" />
<path d="M176.5,921.5l0,-54" class="g2_337" />
<path d="M176.5,922.5l0,-1" class="g2_337" />
<path d="M178.5,922.5l137,0" class="g2_337" />
<path d="M315.5,921.5l0,-54" class="g2_337" />
<path d="M315.5,922.5l0,-1" class="g2_337" />
<path d="M317.5,922.5l78,0" class="g2_337" />
<path d="M395.5,921.5l0,-54" class="g2_337" />
<path d="M395.5,922.5l0,-1" class="g2_337" />
<path d="M397.5,922.5l81,0" class="g2_337" />
<path d="M478.5,921.5l0,-54" class="g2_337" />
<path d="M478.5,922.5l0,-1" class="g2_337" />
<path d="M480.5,922.5l407,0" class="g2_337" />
<path d="M887.5,921.5l0,-54" class="g2_337" />
<path d="M887.5,922.5l0,-1" class="g2_337" />
<path d="M887.5,922.5l0,-1" class="g2_337" />
</svg>