<?xml version="1.0" encoding="UTF-8" standalone="no"?>
<!DOCTYPE svg PUBLIC "-//W3C//DTD SVG 1.1//EN"
"http://www.w3.org/Graphics/SVG/1.1/DTD/svg11.dtd">
<svg version="1.1" xmlns="http://www.w3.org/2000/svg" xmlns:xlink="http://www.w3.org/1999/xlink">
<defs>
<clipPath id="c0_264"><path d="M47.5,135.5l0,-24l411,0l0,24Z" /></clipPath>
<clipPath id="c1_264"><path d="M460.5,135.5l0,-24l90,0l0,24Z" /></clipPath>
<clipPath id="c2_264"><path d="M551.5,135.5l0,-24l339,0l0,24Z" /></clipPath>
<clipPath id="c3_264"><path d="M47.5,769.5l0,-632l73,0l0,632Z" /></clipPath>
<clipPath id="c4_264"><path d="M121.5,209.5l0,-72l337,0l0,72Z" /></clipPath>
<clipPath id="c5_264"><path d="M460.5,209.5l0,-72l90,0l0,72Z" /></clipPath>
<clipPath id="c6_264"><path d="M551.5,209.5l0,-72l339,0l0,72Z" /></clipPath>
<clipPath id="c7_264"><path d="M121.5,234.5l0,-24l337,0l0,24Z" /></clipPath>
<clipPath id="c8_264"><path d="M460.5,234.5l0,-24l90,0l0,24Z" /></clipPath>
<clipPath id="c9_264"><path d="M551.5,234.5l0,-24l339,0l0,24Z" /></clipPath>
<clipPath id="c10_264"><path d="M121.5,260.5l0,-24l337,0l0,24Z" /></clipPath>
<clipPath id="c11_264"><path d="M460.5,260.5l0,-24l90,0l0,24Z" /></clipPath>
<clipPath id="c12_264"><path d="M551.5,260.5l0,-24l339,0l0,24Z" /></clipPath>
<clipPath id="c13_264"><path d="M121.5,743.5l0,-481l40,0l0,481Z" /></clipPath>
<clipPath id="c14_264"><path d="M162.5,743.5l0,-481l39,0l0,481Z" /></clipPath>
<clipPath id="c15_264"><path d="M203.5,743.5l0,-481l39,0l0,481Z" /></clipPath>
<clipPath id="c16_264"><path d="M244.5,286.5l0,-24l214,0l0,24Z" /></clipPath>
<clipPath id="c17_264"><path d="M460.5,286.5l0,-24l90,0l0,24Z" /></clipPath>
<clipPath id="c18_264"><path d="M551.5,286.5l0,-24l339,0l0,24Z" /></clipPath>
<clipPath id="c19_264"><path d="M244.5,549.5l0,-262l214,0l0,262Z" /></clipPath>
<clipPath id="c20_264"><path d="M460.5,549.5l0,-262l90,0l0,262Z" /></clipPath>
<clipPath id="c21_264"><path d="M551.5,549.5l0,-262l339,0l0,262Z" /></clipPath>
<clipPath id="c22_264"><path d="M121.5,769.5l0,-24l337,0l0,24Z" /></clipPath>
<clipPath id="c23_264"><path d="M460.5,769.5l0,-24l90,0l0,24Z" /></clipPath>
<clipPath id="c24_264"><path d="M551.5,769.5l0,-24l339,0l0,24Z" /></clipPath>
<clipPath id="c25_264"><path d="M47.5,891.5l0,-24l840,0l0,24Z" /></clipPath>
<clipPath id="c26_264"><path d="M47.5,1084.5l0,-166l840,0l0,166Z" /></clipPath>
<style type="text/css"><![CDATA[
.g2_264{
fill: none;
stroke: #7E7E7E;
stroke-width: 1;
stroke-linecap: butt;
stroke-linejoin: miter;
}
.g3_264{
fill: #F1F1F1;
}
.g1_264{
fill: #DBE5F1;
}
]]></style>
</defs>
<path fill-rule="evenodd" d="M47,135l411,0l0,-24L47,111l0,24Z" class="g1_264" />
<g clip-path="url(#c0_264)">
<path fill-rule="evenodd" d="M55,135l396,0l0,-24L55,111l0,24Z" class="g1_264" />
</g>
<path fill-rule="evenodd" d="M460,135l90,0l0,-24l-90,0l0,24Z" class="g1_264" />
<g clip-path="url(#c1_264)">
<path fill-rule="evenodd" d="M467,135l75,0l0,-24l-75,0l0,24Z" class="g1_264" />
</g>
<path fill-rule="evenodd" d="M551,135l339,0l0,-24l-339,0l0,24Z" class="g1_264" />
<g clip-path="url(#c2_264)">
<path fill-rule="evenodd" d="M559,135l323,0l0,-24l-323,0l0,24Z" class="g1_264" />
</g>
<path d="M46.5,111.5l0,-1" class="g2_264" />
<path d="M46.5,111.5l0,-1" class="g2_264" />
<path d="M47.5,111.5l412,0" class="g2_264" />
<path d="M459.5,111.5l0,-1" class="g2_264" />
<path d="M460.5,111.5l90,0" class="g2_264" />
<path d="M550.5,111.5l0,-1" class="g2_264" />
<path d="M551.5,111.5l339,0" class="g2_264" />
<path d="M890.5,111.5l0,-1" class="g2_264" />
<path d="M890.5,111.5l0,-1" class="g2_264" />
<path d="M46.5,135.5l0,-24" class="g2_264" />
<path d="M459.5,135.5l0,-24" class="g2_264" />
<path d="M550.5,135.5l0,-24" class="g2_264" />
<path d="M890.5,135.5l0,-24" class="g2_264" />
<path fill-rule="evenodd" d="M47,769l73,0l0,-632l-73,0l0,632Z" class="g3_264" />
<g clip-path="url(#c3_264)">
<path fill-rule="evenodd" d="M55,769l23,0L78,137l-23,0l0,632Z" class="g3_264" />
</g>
<path fill-rule="evenodd" d="M121,209l337,0l0,-72l-337,0l0,72Z" class="g3_264" />
<g clip-path="url(#c4_264)">
<path fill-rule="evenodd" d="M129,161l322,0l0,-24l-322,0l0,24Z" class="g3_264" />
</g>
<path fill-rule="evenodd" d="M460,209l90,0l0,-72l-90,0l0,72Z" class="g3_264" />
<g clip-path="url(#c5_264)">
<path fill-rule="evenodd" d="M467,161l75,0l0,-24l-75,0l0,24Z" class="g3_264" />
</g>
<path fill-rule="evenodd" d="M551,209l339,0l0,-72l-339,0l0,72Z" class="g3_264" />
<g clip-path="url(#c6_264)">
<path fill-rule="evenodd" d="M559,161l323,0l0,-24l-323,0l0,24Z" class="g3_264" />
</g>
<path fill-rule="evenodd" d="M559,185l323,0l0,-24l-323,0l0,24Z" class="g3_264" />
<path fill-rule="evenodd" d="M559,209l323,0l0,-24l-323,0l0,24Z" class="g3_264" />
<path d="M46.5,137.5l0,-2" class="g2_264" />
<path d="M47.5,137.5l73,0" class="g2_264" />
<path d="M120.5,137.5l0,-2" class="g2_264" />
<path d="M121.5,137.5l338,0" class="g2_264" />
<path d="M459.5,137.5l0,-2" class="g2_264" />
<path d="M460.5,137.5l90,0" class="g2_264" />
<path d="M550.5,137.5l0,-2" class="g2_264" />
<path d="M551.5,137.5l339,0" class="g2_264" />
<path d="M890.5,137.5l0,-2" class="g2_264" />
<path d="M46.5,209.5l0,-72" class="g2_264" />
<path d="M120.5,209.5l0,-72" class="g2_264" />
<path d="M459.5,209.5l0,-72" class="g2_264" />
<path d="M550.5,209.5l0,-72" class="g2_264" />
<path d="M890.5,209.5l0,-72" class="g2_264" />
<path fill-rule="evenodd" d="M121,234l337,0l0,-24l-337,0l0,24Z" class="g3_264" />
<g clip-path="url(#c7_264)">
<path fill-rule="evenodd" d="M129,234l322,0l0,-24l-322,0l0,24Z" class="g3_264" />
</g>
<path fill-rule="evenodd" d="M460,234l90,0l0,-24l-90,0l0,24Z" class="g3_264" />
<g clip-path="url(#c8_264)">
<path fill-rule="evenodd" d="M467,234l75,0l0,-24l-75,0l0,24Z" class="g3_264" />
</g>
<path fill-rule="evenodd" d="M551,234l339,0l0,-24l-339,0l0,24Z" class="g3_264" />
<g clip-path="url(#c9_264)">
<path fill-rule="evenodd" d="M559,234l323,0l0,-24l-323,0l0,24Z" class="g3_264" />
</g>
<path d="M46.5,210.5l0,-1" class="g2_264" />
<path d="M120.5,210.5l0,-1" class="g2_264" />
<path d="M121.5,210.5l338,0" class="g2_264" />
<path d="M459.5,210.5l0,-1" class="g2_264" />
<path d="M460.5,210.5l90,0" class="g2_264" />
<path d="M550.5,210.5l0,-1" class="g2_264" />
<path d="M551.5,210.5l339,0" class="g2_264" />
<path d="M890.5,210.5l0,-1" class="g2_264" />
<path d="M46.5,234.5l0,-24" class="g2_264" />
<path d="M120.5,234.5l0,-24" class="g2_264" />
<path d="M459.5,234.5l0,-24" class="g2_264" />
<path d="M550.5,234.5l0,-24" class="g2_264" />
<path d="M890.5,234.5l0,-24" class="g2_264" />
<path fill-rule="evenodd" d="M121,260l337,0l0,-24l-337,0l0,24Z" class="g3_264" />
<g clip-path="url(#c10_264)">
<path fill-rule="evenodd" d="M129,260l322,0l0,-24l-322,0l0,24Z" class="g3_264" />
</g>
<path fill-rule="evenodd" d="M460,260l90,0l0,-24l-90,0l0,24Z" class="g3_264" />
<g clip-path="url(#c11_264)">
<path fill-rule="evenodd" d="M467,260l75,0l0,-24l-75,0l0,24Z" class="g3_264" />
</g>
<path fill-rule="evenodd" d="M551,260l339,0l0,-24l-339,0l0,24Z" class="g3_264" />
<g clip-path="url(#c12_264)">
<path fill-rule="evenodd" d="M559,260l323,0l0,-24l-323,0l0,24Z" class="g3_264" />
</g>
<path d="M46.5,236.5l0,-2" class="g2_264" />
<path d="M120.5,236.5l0,-2" class="g2_264" />
<path d="M121.5,236.5l338,0" class="g2_264" />
<path d="M459.5,236.5l0,-2" class="g2_264" />
<path d="M460.5,236.5l90,0" class="g2_264" />
<path d="M550.5,236.5l0,-2" class="g2_264" />
<path d="M551.5,236.5l339,0" class="g2_264" />
<path d="M890.5,236.5l0,-2" class="g2_264" />
<path d="M46.5,260.5l0,-24" class="g2_264" />
<path d="M120.5,260.5l0,-24" class="g2_264" />
<path d="M459.5,260.5l0,-24" class="g2_264" />
<path d="M550.5,260.5l0,-24" class="g2_264" />
<path d="M890.5,260.5l0,-24" class="g2_264" />
<path fill-rule="evenodd" d="M121,743l40,0l0,-481l-40,0l0,481Z" class="g3_264" />
<g clip-path="url(#c13_264)">
<path fill-rule="evenodd" d="M129,743l23,0l0,-481l-23,0l0,481Z" class="g3_264" />
</g>
<path fill-rule="evenodd" d="M162,743l39,0l0,-481l-39,0l0,481Z" class="g3_264" />
<g clip-path="url(#c14_264)">
<path fill-rule="evenodd" d="M169,743l24,0l0,-481l-24,0l0,481Z" class="g3_264" />
</g>
<path fill-rule="evenodd" d="M203,743l39,0l0,-481l-39,0l0,481Z" class="g3_264" />
<g clip-path="url(#c15_264)">
<path fill-rule="evenodd" d="M210,743l24,0l0,-481l-24,0l0,481Z" class="g3_264" />
</g>
<path fill-rule="evenodd" d="M244,286l214,0l0,-24l-214,0l0,24Z" class="g3_264" />
<g clip-path="url(#c16_264)">
<path fill-rule="evenodd" d="M251,286l200,0l0,-24l-200,0l0,24Z" class="g3_264" />
</g>
<path fill-rule="evenodd" d="M460,286l90,0l0,-24l-90,0l0,24Z" class="g3_264" />
<g clip-path="url(#c17_264)">
<path fill-rule="evenodd" d="M467,286l75,0l0,-24l-75,0l0,24Z" class="g3_264" />
</g>
<path fill-rule="evenodd" d="M551,286l339,0l0,-24l-339,0l0,24Z" class="g3_264" />
<g clip-path="url(#c18_264)">
<path fill-rule="evenodd" d="M559,286l323,0l0,-24l-323,0l0,24Z" class="g3_264" />
</g>
<path d="M46.5,262.5l0,-2" class="g2_264" />
<path d="M120.5,262.5l0,-2" class="g2_264" />
<path d="M121.5,262.5l40,0" class="g2_264" />
<path d="M160.5,262.5l0,-2" class="g2_264" />
<path d="M162.5,262.5l39,0" class="g2_264" />
<path d="M201.5,262.5l0,-2" class="g2_264" />
<path d="M203.5,262.5l39,0" class="g2_264" />
<path d="M242.5,262.5l0,-2" class="g2_264" />
<path d="M244.5,262.5l215,0" class="g2_264" />
<path d="M459.5,262.5l0,-2" class="g2_264" />
<path d="M460.5,262.5l90,0" class="g2_264" />
<path d="M550.5,262.5l0,-2" class="g2_264" />
<path d="M551.5,262.5l339,0" class="g2_264" />
<path d="M890.5,262.5l0,-2" class="g2_264" />
<path d="M46.5,286.5l0,-24" class="g2_264" />
<path d="M120.5,286.5l0,-24" class="g2_264" />
<path d="M160.5,286.5l0,-24" class="g2_264" />
<path d="M201.5,286.5l0,-24" class="g2_264" />
<path d="M242.5,286.5l0,-24" class="g2_264" />
<path d="M459.5,286.5l0,-24" class="g2_264" />
<path d="M550.5,286.5l0,-24" class="g2_264" />
<path d="M890.5,286.5l0,-24" class="g2_264" />
<path fill-rule="evenodd" d="M244,549l214,0l0,-262l-214,0l0,262Z" class="g3_264" />
<g clip-path="url(#c19_264)">
<path fill-rule="evenodd" d="M251,311l200,0l0,-24l-200,0l0,24Z" class="g3_264" />
</g>
<path fill-rule="evenodd" d="M460,549l90,0l0,-262l-90,0l0,262Z" class="g3_264" />
<g clip-path="url(#c20_264)">
<path fill-rule="evenodd" d="M467,311l75,0l0,-24l-75,0l0,24Z" class="g3_264" />
</g>
<path fill-rule="evenodd" d="M551,549l339,0l0,-262l-339,0l0,262Z" class="g3_264" />
<g clip-path="url(#c21_264)">
<path fill-rule="evenodd" d="M559,311l323,0l0,-24l-323,0l0,24Z" class="g3_264" />
</g>
<path fill-rule="evenodd" d="M559,335l323,0l0,-24l-323,0l0,24Z" class="g3_264" />
<path fill-rule="evenodd" d="M559,359l323,0l0,-24l-323,0l0,24Z" class="g3_264" />
<path fill-rule="evenodd" d="M559,383l323,0l0,-24l-323,0l0,24Z" class="g3_264" />
<path fill-rule="evenodd" d="M559,406l323,0l0,-23l-323,0l0,23Z" class="g3_264" />
<path fill-rule="evenodd" d="M559,430l323,0l0,-24l-323,0l0,24Z" class="g3_264" />
<path fill-rule="evenodd" d="M559,454l323,0l0,-24l-323,0l0,24Z" class="g3_264" />
<path fill-rule="evenodd" d="M559,478l323,0l0,-24l-323,0l0,24Z" class="g3_264" />
<path fill-rule="evenodd" d="M559,502l323,0l0,-24l-323,0l0,24Z" class="g3_264" />
<path fill-rule="evenodd" d="M559,526l323,0l0,-24l-323,0l0,24Z" class="g3_264" />
<path fill-rule="evenodd" d="M559,549l323,0l0,-23l-323,0l0,23Z" class="g3_264" />
<path d="M46.5,287.5l0,-1" class="g2_264" />
<path d="M120.5,287.5l0,-1" class="g2_264" />
<path d="M160.5,287.5l0,-1" class="g2_264" />
<path d="M201.5,287.5l0,-1" class="g2_264" />
<path d="M242.5,287.5l0,-1" class="g2_264" />
<path d="M244.5,287.5l215,0" class="g2_264" />
<path d="M459.5,287.5l0,-1" class="g2_264" />
<path d="M460.5,287.5l90,0" class="g2_264" />
<path d="M550.5,287.5l0,-1" class="g2_264" />
<path d="M551.5,287.5l339,0" class="g2_264" />
<path d="M890.5,287.5l0,-1" class="g2_264" />
<path d="M46.5,549.5l0,-262" class="g2_264" />
<path d="M120.5,549.5l0,-262" class="g2_264" />
<path d="M160.5,549.5l0,-262" class="g2_264" />
<path d="M201.5,549.5l0,-262" class="g2_264" />
<path d="M242.5,549.5l0,-262" class="g2_264" />
<path d="M459.5,549.5l0,-262" class="g2_264" />
<path d="M550.5,549.5l0,-262" class="g2_264" />
<path d="M890.5,549.5l0,-262" class="g2_264" />
<path fill-rule="evenodd" d="M244,599l214,0l0,-48l-214,0l0,48Z" class="g3_264" />
<path fill-rule="evenodd" d="M251,575l200,0l0,-24l-200,0l0,24Z" class="g3_264" />
<path fill-rule="evenodd" d="M460,599l90,0l0,-48l-90,0l0,48Z" class="g3_264" />
<path fill-rule="evenodd" d="M467,575l75,0l0,-24l-75,0l0,24Z" class="g3_264" />
<path fill-rule="evenodd" d="M551,599l339,0l0,-48l-339,0l0,48Z" class="g3_264" />
<path fill-rule="evenodd" d="M559,575l323,0l0,-24l-323,0l0,24Z" class="g3_264" />
<path fill-rule="evenodd" d="M559,599l323,0l0,-24l-323,0l0,24Z" class="g3_264" />
<path d="M46.5,551.5l0,-2" class="g2_264" />
<path d="M120.5,551.5l0,-2" class="g2_264" />
<path d="M160.5,551.5l0,-2" class="g2_264" />
<path d="M201.5,551.5l0,-2" class="g2_264" />
<path d="M242.5,551.5l0,-2" class="g2_264" />
<path d="M244.5,551.5l215,0" class="g2_264" />
<path d="M459.5,551.5l0,-2" class="g2_264" />
<path d="M460.5,551.5l90,0" class="g2_264" />
<path d="M550.5,551.5l0,-2" class="g2_264" />
<path d="M551.5,551.5l339,0" class="g2_264" />
<path d="M890.5,551.5l0,-2" class="g2_264" />
<path d="M46.5,599.5l0,-48" class="g2_264" />
<path d="M120.5,599.5l0,-48" class="g2_264" />
<path d="M160.5,599.5l0,-48" class="g2_264" />
<path d="M201.5,599.5l0,-48" class="g2_264" />
<path d="M242.5,599.5l0,-48" class="g2_264" />
<path d="M459.5,599.5l0,-48" class="g2_264" />
<path d="M550.5,599.5l0,-48" class="g2_264" />
<path d="M890.5,599.5l0,-48" class="g2_264" />
<path fill-rule="evenodd" d="M244,743l214,0l0,-143l-214,0l0,143Z" class="g3_264" />
<path fill-rule="evenodd" d="M251,624l200,0l0,-24l-200,0l0,24Z" class="g3_264" />
<path fill-rule="evenodd" d="M460,743l90,0l0,-143l-90,0l0,143Z" class="g3_264" />
<path fill-rule="evenodd" d="M467,624l75,0l0,-24l-75,0l0,24Z" class="g3_264" />
<path fill-rule="evenodd" d="M551,743l339,0l0,-143l-339,0l0,143Z" class="g3_264" />
<path fill-rule="evenodd" d="M559,624l323,0l0,-24l-323,0l0,24Z" class="g3_264" />
<path fill-rule="evenodd" d="M559,648l323,0l0,-24l-323,0l0,24Z" class="g3_264" />
<path fill-rule="evenodd" d="M559,672l323,0l0,-24l-323,0l0,24Z" class="g3_264" />
<path fill-rule="evenodd" d="M559,695l323,0l0,-23l-323,0l0,23Z" class="g3_264" />
<path fill-rule="evenodd" d="M559,719l323,0l0,-24l-323,0l0,24Z" class="g3_264" />
<path fill-rule="evenodd" d="M559,743l323,0l0,-24l-323,0l0,24Z" class="g3_264" />
<path d="M46.5,600.5l0,-1" class="g2_264" />
<path d="M120.5,600.5l0,-1" class="g2_264" />
<path d="M160.5,600.5l0,-1" class="g2_264" />
<path d="M201.5,600.5l0,-1" class="g2_264" />
<path d="M242.5,600.5l0,-1" class="g2_264" />
<path d="M244.5,600.5l215,0" class="g2_264" />
<path d="M459.5,600.5l0,-1" class="g2_264" />
<path d="M460.5,600.5l90,0" class="g2_264" />
<path d="M550.5,600.5l0,-1" class="g2_264" />
<path d="M551.5,600.5l339,0" class="g2_264" />
<path d="M890.5,600.5l0,-1" class="g2_264" />
<path d="M46.5,743.5l0,-143" class="g2_264" />
<path d="M120.5,743.5l0,-143" class="g2_264" />
<path d="M160.5,743.5l0,-143" class="g2_264" />
<path d="M201.5,743.5l0,-143" class="g2_264" />
<path d="M242.5,743.5l0,-143" class="g2_264" />
<path d="M459.5,743.5l0,-143" class="g2_264" />
<path d="M550.5,743.5l0,-143" class="g2_264" />
<path d="M890.5,743.5l0,-143" class="g2_264" />
<path fill-rule="evenodd" d="M121,769l337,0l0,-24l-337,0l0,24Z" class="g3_264" />
<g clip-path="url(#c22_264)">
<path fill-rule="evenodd" d="M129,769l322,0l0,-24l-322,0l0,24Z" class="g3_264" />
</g>
<path fill-rule="evenodd" d="M460,769l90,0l0,-24l-90,0l0,24Z" class="g3_264" />
<g clip-path="url(#c23_264)">
<path fill-rule="evenodd" d="M467,769l75,0l0,-24l-75,0l0,24Z" class="g3_264" />
</g>
<path fill-rule="evenodd" d="M551,769l339,0l0,-24l-339,0l0,24Z" class="g3_264" />
<g clip-path="url(#c24_264)">
<path fill-rule="evenodd" d="M559,769l323,0l0,-24l-323,0l0,24Z" class="g3_264" />
</g>
<path d="M46.5,744.5l0,-1" class="g2_264" />
<path d="M120.5,744.5l0,-1" class="g2_264" />
<path d="M121.5,744.5l40,0" class="g2_264" />
<path d="M160.5,744.5l0,-1" class="g2_264" />
<path d="M162.5,744.5l39,0" class="g2_264" />
<path d="M201.5,744.5l0,-1" class="g2_264" />
<path d="M203.5,744.5l39,0" class="g2_264" />
<path d="M242.5,744.5l0,-1" class="g2_264" />
<path d="M244.5,744.5l215,0" class="g2_264" />
<path d="M459.5,744.5l0,-1" class="g2_264" />
<path d="M460.5,744.5l90,0" class="g2_264" />
<path d="M550.5,744.5l0,-1" class="g2_264" />
<path d="M551.5,744.5l339,0" class="g2_264" />
<path d="M890.5,744.5l0,-1" class="g2_264" />
<path d="M46.5,769.5l0,-25" class="g2_264" />
<path d="M46.5,770.5l0,-1" class="g2_264" />
<path d="M46.5,770.5l0,-1" class="g2_264" />
<path d="M47.5,770.5l73,0" class="g2_264" />
<path d="M120.5,769.5l0,-25" class="g2_264" />
<path d="M120.5,770.5l0,-1" class="g2_264" />
<path d="M121.5,770.5l338,0" class="g2_264" />
<path d="M459.5,769.5l0,-25" class="g2_264" />
<path d="M459.5,770.5l0,-1" class="g2_264" />
<path d="M460.5,770.5l90,0" class="g2_264" />
<path d="M550.5,769.5l0,-25" class="g2_264" />
<path d="M550.5,770.5l0,-1" class="g2_264" />
<path d="M551.5,770.5l339,0" class="g2_264" />
<path d="M890.5,769.5l0,-25" class="g2_264" />
<path d="M890.5,770.5l0,-1" class="g2_264" />
<path d="M890.5,770.5l0,-1" class="g2_264" />
<path fill-rule="evenodd" d="M47,891l840,0l0,-24L47,867l0,24Z" class="g3_264" />
<g clip-path="url(#c25_264)">
<path fill-rule="evenodd" d="M55,891l825,0l0,-24L55,867l0,24Z" class="g3_264" />
</g>
<path d="M46.5,867.5l0,-2" class="g2_264" />
<path d="M46.5,867.5l0,-2" class="g2_264" />
<path d="M47.5,867.5l840,0" class="g2_264" />
<path d="M887.5,867.5l0,-2" class="g2_264" />
<path d="M887.5,867.5l0,-2" class="g2_264" />
<path d="M46.5,891.5l0,-24" class="g2_264" />
<path d="M46.5,892.5l0,-1" class="g2_264" />
<path d="M46.5,892.5l0,-1" class="g2_264" />
<path d="M47.5,892.5l840,0" class="g2_264" />
<path d="M887.5,891.5l0,-24" class="g2_264" />
<path d="M887.5,892.5l0,-1" class="g2_264" />
<path d="M887.5,892.5l0,-1" class="g2_264" />
<path fill-rule="evenodd" d="M47,1084l840,0l0,-166L47,918l0,166Z" class="g3_264" />
<path fill-rule="evenodd" d="M55,941l825,0l0,-23L55,918l0,23Z" class="g3_264" />
<path fill-rule="evenodd" d="M55,965l825,0l0,-24L55,941l0,24Z" class="g3_264" />
<path fill-rule="evenodd" d="M55,989l825,0l0,-24L55,965l0,24Z" class="g3_264" />
<path fill-rule="evenodd" d="M55,1013l825,0l0,-24L55,989l0,24Z" class="g3_264" />
<path fill-rule="evenodd" d="M55,1037l825,0l0,-24l-825,0l0,24Z" class="g3_264" />
<path fill-rule="evenodd" d="M55,1061l825,0l0,-24l-825,0l0,24Z" class="g3_264" />
<g clip-path="url(#c26_264)">
<path fill-rule="evenodd" d="M55,1084l825,0l0,-23l-825,0l0,23Z" class="g3_264" />
</g>
<path d="M46.5,918.5l0,-2" class="g2_264" />
<path d="M46.5,918.5l0,-2" class="g2_264" />
<path d="M47.5,918.5l840,0" class="g2_264" />
<path d="M887.5,918.5l0,-2" class="g2_264" />
<path d="M887.5,918.5l0,-2" class="g2_264" />
<path d="M46.5,1084.5l0,-166" class="g2_264" />
<path d="M46.5,1086.5l0,-2" class="g2_264" />
<path d="M46.5,1086.5l0,-2" class="g2_264" />
<path d="M47.5,1086.5l840,0" class="g2_264" />
<path d="M887.5,1084.5l0,-166" class="g2_264" />
<path d="M887.5,1086.5l0,-2" class="g2_264" />
<path d="M887.5,1086.5l0,-2" class="g2_264" />
</svg>