<?xml version="1.0" encoding="UTF-8" standalone="no"?>
<!DOCTYPE svg PUBLIC "-//W3C//DTD SVG 1.1//EN"
"http://www.w3.org/Graphics/SVG/1.1/DTD/svg11.dtd">
<svg version="1.1" xmlns="http://www.w3.org/2000/svg" xmlns:xlink="http://www.w3.org/1999/xlink">
<defs>
<clipPath id="c0_332"><path d="M47.5,340.5l0,-181l840,0l0,181Z" /></clipPath>
<clipPath id="c1_332"><path d="M47.5,852.5l0,-24l840,0l0,24Z" /></clipPath>
<clipPath id="c2_332"><path d="M47.5,963.5l0,-24l178,0l0,24Z" /></clipPath>
<clipPath id="c3_332"><path d="M226.5,963.5l0,-24l163,0l0,24Z" /></clipPath>
<clipPath id="c4_332"><path d="M390.5,963.5l0,-24l497,0l0,24Z" /></clipPath>
<clipPath id="c5_332"><path d="M47.5,988.5l0,-23l178,0l0,23Z" /></clipPath>
<clipPath id="c6_332"><path d="M226.5,988.5l0,-23l163,0l0,23Z" /></clipPath>
<clipPath id="c7_332"><path d="M390.5,988.5l0,-23l497,0l0,23Z" /></clipPath>
<clipPath id="c8_332"><path d="M47.5,1063.5l0,-24l177,0l0,24Z" /></clipPath>
<clipPath id="c9_332"><path d="M226.5,1063.5l0,-24l162,0l0,24Z" /></clipPath>
<clipPath id="c10_332"><path d="M390.5,1063.5l0,-24l163,0l0,24Z" /></clipPath>
<clipPath id="c11_332"><path d="M554.5,1063.5l0,-24l163,0l0,24Z" /></clipPath>
<clipPath id="c12_332"><path d="M719.5,1063.5l0,-24l168,0l0,24Z" /></clipPath>
<clipPath id="c13_332"><path d="M47.5,1088.5l0,-24l177,0l0,24Z" /></clipPath>
<clipPath id="c14_332"><path d="M226.5,1088.5l0,-24l162,0l0,24Z" /></clipPath>
<clipPath id="c15_332"><path d="M390.5,1088.5l0,-24l163,0l0,24Z" /></clipPath>
<clipPath id="c16_332"><path d="M554.5,1088.5l0,-24l163,0l0,24Z" /></clipPath>
<clipPath id="c17_332"><path d="M719.5,1088.5l0,-24l168,0l0,24Z" /></clipPath>
<style type="text/css"><![CDATA[
.g2_332{
fill: none;
stroke: #F0F0E0;
stroke-width: 1;
stroke-linecap: butt;
stroke-linejoin: miter;
}
.g3_332{
fill: none;
stroke: #7E7E7E;
stroke-width: 1;
stroke-linecap: butt;
stroke-linejoin: miter;
}
.g4_332{
fill: #DBE5F1;
}
.g1_332{
fill: #F1F1F1;
}
]]></style>
</defs>
<path fill-rule="evenodd" d="M47,340l840,0l0,-181L47,159l0,181Z" class="g1_332" />
<g clip-path="url(#c0_332)">
<path fill-rule="evenodd" d="M55,190l825,0l0,-31L55,159l0,31Z" class="g1_332" />
<path d="M45.5,160.5l0,-1" class="g2_332" />
<path d="M45.5,160.5l0,-1" class="g2_332" />
<path d="M46.5,160.5l842,0" class="g2_332" />
<path d="M888.5,160.5l0,-1" class="g2_332" />
<path d="M888.5,160.5l0,-1" class="g2_332" />
<path d="M45.5,190.5l0,-30" class="g2_332" />
<path d="M888.5,190.5l0,-30" class="g2_332" />
</g>
<path fill-rule="evenodd" d="M55,214l825,0l0,-24L55,190l0,24Z" class="g1_332" />
<g clip-path="url(#c0_332)">
<path d="M45.5,214.5l0,-24" class="g2_332" />
<path d="M888.5,214.5l0,-24" class="g2_332" />
</g>
<path fill-rule="evenodd" d="M55,237l825,0l0,-23L55,214l0,23Z" class="g1_332" />
<g clip-path="url(#c0_332)">
<path d="M45.5,237.5l0,-23" class="g2_332" />
<path d="M888.5,237.5l0,-23" class="g2_332" />
</g>
<path fill-rule="evenodd" d="M55,261l825,0l0,-24L55,237l0,24Z" class="g1_332" />
<g clip-path="url(#c0_332)">
<path d="M45.5,261.5l0,-24" class="g2_332" />
<path d="M888.5,261.5l0,-24" class="g2_332" />
</g>
<path fill-rule="evenodd" d="M55,285l825,0l0,-24L55,261l0,24Z" class="g1_332" />
<g clip-path="url(#c0_332)">
<path d="M45.5,285.5l0,-24" class="g2_332" />
<path d="M888.5,285.5l0,-24" class="g2_332" />
</g>
<path fill-rule="evenodd" d="M55,309l825,0l0,-24L55,285l0,24Z" class="g1_332" />
<g clip-path="url(#c0_332)">
<path d="M45.5,309.5l0,-24" class="g2_332" />
<path d="M888.5,309.5l0,-24" class="g2_332" />
</g>
<path fill-rule="evenodd" d="M55,340l825,0l0,-31L55,309l0,31Z" class="g1_332" />
<g clip-path="url(#c0_332)">
<path d="M45.5,340.5l0,-1" class="g2_332" />
<path d="M45.5,340.5l0,-1" class="g2_332" />
<path d="M46.5,340.5l842,0" class="g2_332" />
<path d="M888.5,340.5l0,-1" class="g2_332" />
<path d="M888.5,340.5l0,-1" class="g2_332" />
<path d="M45.5,339.5l0,-30" class="g2_332" />
<path d="M888.5,339.5l0,-30" class="g2_332" />
</g>
<path d="M46.5,159.5l0,-2" class="g3_332" />
<path d="M46.5,159.5l0,-2" class="g3_332" />
<path d="M47.5,159.5l840,0" class="g3_332" />
<path d="M887.5,159.5l0,-2" class="g3_332" />
<path d="M887.5,159.5l0,-2" class="g3_332" />
<path d="M46.5,340.5l0,-181" class="g3_332" />
<path d="M46.5,342.5l0,-2" class="g3_332" />
<path d="M46.5,342.5l0,-2" class="g3_332" />
<path d="M47.5,342.5l840,0" class="g3_332" />
<path d="M887.5,340.5l0,-181" class="g3_332" />
<path d="M887.5,342.5l0,-2" class="g3_332" />
<path d="M887.5,342.5l0,-2" class="g3_332" />
<path fill-rule="evenodd" d="M47,510l840,0l0,-95L47,415l0,95Z" class="g1_332" />
<path fill-rule="evenodd" d="M55,438l825,0l0,-23L55,415l0,23Z" class="g1_332" />
<path fill-rule="evenodd" d="M55,462l825,0l0,-24L55,438l0,24Z" class="g1_332" />
<path fill-rule="evenodd" d="M55,486l825,0l0,-24L55,462l0,24Z" class="g1_332" />
<path fill-rule="evenodd" d="M55,510l825,0l0,-24L55,486l0,24Z" class="g1_332" />
<path d="M46.5,415.5l0,-2" class="g3_332" />
<path d="M46.5,415.5l0,-2" class="g3_332" />
<path d="M47.5,415.5l840,0" class="g3_332" />
<path d="M887.5,415.5l0,-2" class="g3_332" />
<path d="M887.5,415.5l0,-2" class="g3_332" />
<path d="M46.5,510.5l0,-95" class="g3_332" />
<path d="M46.5,511.5l0,-1" class="g3_332" />
<path d="M46.5,511.5l0,-1" class="g3_332" />
<path d="M47.5,511.5l840,0" class="g3_332" />
<path d="M887.5,510.5l0,-95" class="g3_332" />
<path d="M887.5,511.5l0,-1" class="g3_332" />
<path d="M887.5,511.5l0,-1" class="g3_332" />
<path fill-rule="evenodd" d="M47,852l840,0l0,-24L47,828l0,24Z" class="g1_332" />
<g clip-path="url(#c1_332)">
<path fill-rule="evenodd" d="M55,852l825,0l0,-24L55,828l0,24Z" class="g1_332" />
</g>
<path d="M46.5,828.5l0,-1" class="g3_332" />
<path d="M46.5,828.5l0,-1" class="g3_332" />
<path d="M47.5,828.5l840,0" class="g3_332" />
<path d="M887.5,828.5l0,-1" class="g3_332" />
<path d="M887.5,828.5l0,-1" class="g3_332" />
<path d="M46.5,852.5l0,-24" class="g3_332" />
<path d="M46.5,854.5l0,-2" class="g3_332" />
<path d="M46.5,854.5l0,-2" class="g3_332" />
<path d="M47.5,854.5l840,0" class="g3_332" />
<path d="M887.5,852.5l0,-24" class="g3_332" />
<path d="M887.5,854.5l0,-2" class="g3_332" />
<path d="M887.5,854.5l0,-2" class="g3_332" />
<path fill-rule="evenodd" d="M47,963l178,0l0,-24L47,939l0,24Z" class="g4_332" />
<g clip-path="url(#c2_332)">
<path fill-rule="evenodd" d="M55,963l162,0l0,-24L55,939l0,24Z" class="g4_332" />
</g>
<path fill-rule="evenodd" d="M226,963l163,0l0,-24l-163,0l0,24Z" class="g4_332" />
<g clip-path="url(#c3_332)">
<path fill-rule="evenodd" d="M234,963l147,0l0,-24l-147,0l0,24Z" class="g4_332" />
</g>
<path fill-rule="evenodd" d="M390,963l497,0l0,-24l-497,0l0,24Z" class="g4_332" />
<g clip-path="url(#c4_332)">
<path fill-rule="evenodd" d="M398,963l482,0l0,-24l-482,0l0,24Z" class="g4_332" />
</g>
<path d="M46.5,939.5l0,-1" class="g3_332" />
<path d="M46.5,939.5l0,-1" class="g3_332" />
<path d="M47.5,939.5l178,0" class="g3_332" />
<path d="M225.5,939.5l0,-1" class="g3_332" />
<path d="M226.5,939.5l163,0" class="g3_332" />
<path d="M389.5,939.5l0,-1" class="g3_332" />
<path d="M390.5,939.5l497,0" class="g3_332" />
<path d="M887.5,939.5l0,-1" class="g3_332" />
<path d="M887.5,939.5l0,-1" class="g3_332" />
<path d="M46.5,963.5l0,-24" class="g3_332" />
<path d="M225.5,963.5l0,-24" class="g3_332" />
<path d="M389.5,963.5l0,-24" class="g3_332" />
<path d="M887.5,963.5l0,-24" class="g3_332" />
<path fill-rule="evenodd" d="M47,988l178,0l0,-23L47,965l0,23Z" class="g1_332" />
<g clip-path="url(#c5_332)">
<path fill-rule="evenodd" d="M55,988l162,0l0,-23L55,965l0,23Z" class="g1_332" />
</g>
<path fill-rule="evenodd" d="M226,988l163,0l0,-23l-163,0l0,23Z" class="g1_332" />
<g clip-path="url(#c6_332)">
<path fill-rule="evenodd" d="M234,988l147,0l0,-23l-147,0l0,23Z" class="g1_332" />
</g>
<path fill-rule="evenodd" d="M390,988l497,0l0,-23l-497,0l0,23Z" class="g1_332" />
<g clip-path="url(#c7_332)">
<path fill-rule="evenodd" d="M398,988l482,0l0,-23l-482,0l0,23Z" class="g1_332" />
</g>
<path d="M46.5,964.5l0,-1" class="g3_332" />
<path d="M47.5,964.5l178,0" class="g3_332" />
<path d="M225.5,964.5l0,-1" class="g3_332" />
<path d="M226.5,964.5l163,0" class="g3_332" />
<path d="M389.5,964.5l0,-1" class="g3_332" />
<path d="M390.5,964.5l497,0" class="g3_332" />
<path d="M887.5,964.5l0,-1" class="g3_332" />
<path d="M46.5,988.5l0,-24" class="g3_332" />
<path d="M46.5,990.5l0,-2" class="g3_332" />
<path d="M46.5,990.5l0,-2" class="g3_332" />
<path d="M47.5,990.5l178,0" class="g3_332" />
<path d="M225.5,988.5l0,-24" class="g3_332" />
<path d="M225.5,990.5l0,-2" class="g3_332" />
<path d="M226.5,990.5l163,0" class="g3_332" />
<path d="M389.5,988.5l0,-24" class="g3_332" />
<path d="M389.5,990.5l0,-2" class="g3_332" />
<path d="M390.5,990.5l497,0" class="g3_332" />
<path d="M887.5,988.5l0,-24" class="g3_332" />
<path d="M887.5,990.5l0,-2" class="g3_332" />
<path d="M887.5,990.5l0,-2" class="g3_332" />
<path fill-rule="evenodd" d="M47,1063l177,0l0,-24l-177,0l0,24Z" class="g4_332" />
<g clip-path="url(#c8_332)">
<path fill-rule="evenodd" d="M55,1063l162,0l0,-24l-162,0l0,24Z" class="g4_332" />
</g>
<path fill-rule="evenodd" d="M226,1063l162,0l0,-24l-162,0l0,24Z" class="g4_332" />
<g clip-path="url(#c9_332)">
<path fill-rule="evenodd" d="M233,1063l148,0l0,-24l-148,0l0,24Z" class="g4_332" />
</g>
<path fill-rule="evenodd" d="M390,1063l163,0l0,-24l-163,0l0,24Z" class="g4_332" />
<g clip-path="url(#c10_332)">
<path fill-rule="evenodd" d="M397,1063l148,0l0,-24l-148,0l0,24Z" class="g4_332" />
</g>
<path fill-rule="evenodd" d="M554,1063l163,0l0,-24l-163,0l0,24Z" class="g4_332" />
<g clip-path="url(#c11_332)">
<path fill-rule="evenodd" d="M562,1063l148,0l0,-24l-148,0l0,24Z" class="g4_332" />
</g>
<path fill-rule="evenodd" d="M719,1063l168,0l0,-24l-168,0l0,24Z" class="g4_332" />
<g clip-path="url(#c12_332)">
<path fill-rule="evenodd" d="M726,1063l154,0l0,-24l-154,0l0,24Z" class="g4_332" />
</g>
<path d="M46.5,1039.5l0,-1" class="g3_332" />
<path d="M46.5,1039.5l0,-1" class="g3_332" />
<path d="M47.5,1039.5l177,0" class="g3_332" />
<path d="M224.5,1039.5l0,-1" class="g3_332" />
<path d="M226.5,1039.5l162,0" class="g3_332" />
<path d="M388.5,1039.5l0,-1" class="g3_332" />
<path d="M390.5,1039.5l163,0" class="g3_332" />
<path d="M553.5,1039.5l0,-1" class="g3_332" />
<path d="M554.5,1039.5l163,0" class="g3_332" />
<path d="M717.5,1039.5l0,-1" class="g3_332" />
<path d="M719.5,1039.5l168,0" class="g3_332" />
<path d="M887.5,1039.5l0,-1" class="g3_332" />
<path d="M887.5,1039.5l0,-1" class="g3_332" />
<path d="M46.5,1063.5l0,-24" class="g3_332" />
<path d="M224.5,1063.5l0,-24" class="g3_332" />
<path d="M388.5,1063.5l0,-24" class="g3_332" />
<path d="M553.5,1063.5l0,-24" class="g3_332" />
<path d="M717.5,1063.5l0,-24" class="g3_332" />
<path d="M887.5,1063.5l0,-24" class="g3_332" />
<path fill-rule="evenodd" d="M47,1088l177,0l0,-24l-177,0l0,24Z" class="g1_332" />
<g clip-path="url(#c13_332)">
<path fill-rule="evenodd" d="M55,1088l162,0l0,-24l-162,0l0,24Z" class="g1_332" />
</g>
<path fill-rule="evenodd" d="M226,1088l162,0l0,-24l-162,0l0,24Z" class="g1_332" />
<g clip-path="url(#c14_332)">
<path fill-rule="evenodd" d="M233,1088l148,0l0,-24l-148,0l0,24Z" class="g1_332" />
</g>
<path fill-rule="evenodd" d="M390,1088l163,0l0,-24l-163,0l0,24Z" class="g1_332" />
<g clip-path="url(#c15_332)">
<path fill-rule="evenodd" d="M397,1088l148,0l0,-24l-148,0l0,24Z" class="g1_332" />
</g>
<path fill-rule="evenodd" d="M554,1088l163,0l0,-24l-163,0l0,24Z" class="g1_332" />
<g clip-path="url(#c16_332)">
<path fill-rule="evenodd" d="M562,1088l148,0l0,-24l-148,0l0,24Z" class="g1_332" />
</g>
<path fill-rule="evenodd" d="M719,1088l168,0l0,-24l-168,0l0,24Z" class="g1_332" />
<g clip-path="url(#c17_332)">
<path fill-rule="evenodd" d="M726,1088l154,0l0,-24l-154,0l0,24Z" class="g1_332" />
</g>
<path d="M46.5,1064.5l0,-1" class="g3_332" />
<path d="M47.5,1064.5l177,0" class="g3_332" />
<path d="M224.5,1064.5l0,-1" class="g3_332" />
<path d="M226.5,1064.5l162,0" class="g3_332" />
<path d="M388.5,1064.5l0,-1" class="g3_332" />
<path d="M390.5,1064.5l163,0" class="g3_332" />
<path d="M553.5,1064.5l0,-1" class="g3_332" />
<path d="M554.5,1064.5l163,0" class="g3_332" />
<path d="M717.5,1064.5l0,-1" class="g3_332" />
<path d="M719.5,1064.5l168,0" class="g3_332" />
<path d="M887.5,1064.5l0,-1" class="g3_332" />
<path d="M46.5,1088.5l0,-24" class="g3_332" />
<path d="M46.5,1090.5l0,-2" class="g3_332" />
<path d="M46.5,1090.5l0,-2" class="g3_332" />
<path d="M47.5,1090.5l177,0" class="g3_332" />
<path d="M224.5,1088.5l0,-24" class="g3_332" />
<path d="M224.5,1090.5l0,-2" class="g3_332" />
<path d="M226.5,1090.5l162,0" class="g3_332" />
<path d="M388.5,1088.5l0,-24" class="g3_332" />
<path d="M388.5,1090.5l0,-2" class="g3_332" />
<path d="M390.5,1090.5l163,0" class="g3_332" />
<path d="M553.5,1088.5l0,-24" class="g3_332" />
<path d="M553.5,1090.5l0,-2" class="g3_332" />
<path d="M554.5,1090.5l163,0" class="g3_332" />
<path d="M717.5,1088.5l0,-24" class="g3_332" />
<path d="M717.5,1090.5l0,-2" class="g3_332" />
<path d="M719.5,1090.5l168,0" class="g3_332" />
<path d="M887.5,1088.5l0,-24" class="g3_332" />
<path d="M887.5,1090.5l0,-2" class="g3_332" />
<path d="M887.5,1090.5l0,-2" class="g3_332" />
</svg>