<?xml version="1.0" encoding="UTF-8" standalone="no"?>
<!DOCTYPE svg PUBLIC "-//W3C//DTD SVG 1.1//EN"
"http://www.w3.org/Graphics/SVG/1.1/DTD/svg11.dtd">
<svg version="1.1" xmlns="http://www.w3.org/2000/svg" xmlns:xlink="http://www.w3.org/1999/xlink">
<defs>
<clipPath id="c0_55"><path d="M47.5,540.5l0,-334l840,0l0,334Z" /></clipPath>
<clipPath id="c1_55"><path d="M47.5,699.5l0,-23l102,0l0,23Z" /></clipPath>
<clipPath id="c2_55"><path d="M151.5,699.5l0,-23l736,0l0,23Z" /></clipPath>
<clipPath id="c3_55"><path d="M47.5,725.5l0,-24l102,0l0,24Z" /></clipPath>
<clipPath id="c4_55"><path d="M151.5,725.5l0,-24l736,0l0,24Z" /></clipPath>
<clipPath id="c5_55"><path d="M47.5,750.5l0,-24l102,0l0,24Z" /></clipPath>
<clipPath id="c6_55"><path d="M151.5,750.5l0,-24l736,0l0,24Z" /></clipPath>
<clipPath id="c7_55"><path d="M47.5,775.5l0,-23l102,0l0,23Z" /></clipPath>
<clipPath id="c8_55"><path d="M151.5,775.5l0,-23l736,0l0,23Z" /></clipPath>
<clipPath id="c9_55"><path d="M47.5,801.5l0,-24l102,0l0,24Z" /></clipPath>
<clipPath id="c10_55"><path d="M151.5,801.5l0,-24l736,0l0,24Z" /></clipPath>
<clipPath id="c11_55"><path d="M47.5,826.5l0,-24l102,0l0,24Z" /></clipPath>
<clipPath id="c12_55"><path d="M151.5,826.5l0,-24l736,0l0,24Z" /></clipPath>
<clipPath id="c13_55"><path d="M47.5,852.5l0,-24l102,0l0,24Z" /></clipPath>
<clipPath id="c14_55"><path d="M151.5,852.5l0,-24l736,0l0,24Z" /></clipPath>
<clipPath id="c15_55"><path d="M47.5,877.5l0,-24l102,0l0,24Z" /></clipPath>
<clipPath id="c16_55"><path d="M151.5,877.5l0,-24l736,0l0,24Z" /></clipPath>
<clipPath id="c17_55"><path d="M47.5,902.5l0,-23l102,0l0,23Z" /></clipPath>
<clipPath id="c18_55"><path d="M151.5,902.5l0,-23l736,0l0,23Z" /></clipPath>
<clipPath id="c19_55"><path d="M47.5,928.5l0,-24l102,0l0,24Z" /></clipPath>
<clipPath id="c20_55"><path d="M151.5,928.5l0,-24l736,0l0,24Z" /></clipPath>
<clipPath id="c21_55"><path d="M47.5,953.5l0,-24l102,0l0,24Z" /></clipPath>
<clipPath id="c22_55"><path d="M151.5,953.5l0,-24l736,0l0,24Z" /></clipPath>
<clipPath id="c23_55"><path d="M47.5,978.5l0,-23l102,0l0,23Z" /></clipPath>
<clipPath id="c24_55"><path d="M151.5,978.5l0,-23l736,0l0,23Z" /></clipPath>
<clipPath id="c25_55"><path d="M47.5,1004.5l0,-24l102,0l0,24Z" /></clipPath>
<clipPath id="c26_55"><path d="M151.5,1004.5l0,-24l736,0l0,24Z" /></clipPath>
<clipPath id="c27_55"><path d="M151.5,1053.5l0,-48l736,0l0,48Z" /></clipPath>
<clipPath id="c28_55"><path d="M47.5,1078.5l0,-23l102,0l0,23Z" /></clipPath>
<clipPath id="c29_55"><path d="M151.5,1078.5l0,-23l736,0l0,23Z" /></clipPath>
<style type="text/css"><![CDATA[
.g2_55{
fill: none;
stroke: #7E7E7E;
stroke-width: 1;
stroke-linecap: butt;
stroke-linejoin: miter;
}
.g3_55{
fill: none;
stroke: #0000FF;
stroke-width: 1;
stroke-linecap: butt;
stroke-linejoin: miter;
}
.g4_55{
fill: #DBE5F1;
}
.g1_55{
fill: #F1F1F1;
}
]]></style>
</defs>
<path fill-rule="evenodd" d="M47,540l840,0l0,-334L47,206l0,334Z" class="g1_55" />
<g clip-path="url(#c0_55)">
<path fill-rule="evenodd" d="M55,230l825,0l0,-24L55,206l0,24Z" class="g1_55" />
</g>
<path fill-rule="evenodd" d="M55,254l825,0l0,-24L55,230l0,24Z" class="g1_55" />
<path fill-rule="evenodd" d="M55,278l825,0l0,-24L55,254l0,24Z" class="g1_55" />
<path fill-rule="evenodd" d="M55,302l825,0l0,-24L55,278l0,24Z" class="g1_55" />
<path fill-rule="evenodd" d="M55,325l825,0l0,-23L55,302l0,23Z" class="g1_55" />
<path fill-rule="evenodd" d="M55,349l825,0l0,-24L55,325l0,24Z" class="g1_55" />
<path fill-rule="evenodd" d="M55,373l825,0l0,-24L55,349l0,24Z" class="g1_55" />
<path fill-rule="evenodd" d="M55,397l825,0l0,-24L55,373l0,24Z" class="g1_55" />
<path fill-rule="evenodd" d="M55,421l825,0l0,-24L55,397l0,24Z" class="g1_55" />
<path fill-rule="evenodd" d="M55,445l825,0l0,-24L55,421l0,24Z" class="g1_55" />
<path fill-rule="evenodd" d="M55,469l825,0l0,-24L55,445l0,24Z" class="g1_55" />
<path fill-rule="evenodd" d="M55,492l825,0l0,-23L55,469l0,23Z" class="g1_55" />
<path fill-rule="evenodd" d="M55,516l825,0l0,-24L55,492l0,24Z" class="g1_55" />
<path fill-rule="evenodd" d="M55,540l825,0l0,-24L55,516l0,24Z" class="g1_55" />
<path d="M46.5,206.5l0,-1" class="g2_55" />
<path d="M46.5,206.5l0,-1" class="g2_55" />
<path d="M47.5,206.5l840,0" class="g2_55" />
<path d="M887.5,206.5l0,-1" class="g2_55" />
<path d="M887.5,206.5l0,-1" class="g2_55" />
<path d="M46.5,540.5l0,-334" class="g2_55" />
<path d="M46.5,542.5l0,-2" class="g2_55" />
<path d="M46.5,542.5l0,-2" class="g2_55" />
<path d="M47.5,542.5l840,0" class="g2_55" />
<path d="M887.5,540.5l0,-334" class="g2_55" />
<path d="M887.5,542.5l0,-2" class="g2_55" />
<path d="M887.5,542.5l0,-2" class="g2_55" />
<path d="M371.5,645.5l163,0" class="g3_55" />
<path fill-rule="evenodd" d="M47,699l102,0l0,-23L47,676l0,23Z" class="g4_55" />
<g clip-path="url(#c1_55)">
<path fill-rule="evenodd" d="M55,699l87,0l0,-23l-87,0l0,23Z" class="g4_55" />
</g>
<path fill-rule="evenodd" d="M151,699l736,0l0,-23l-736,0l0,23Z" class="g4_55" />
<g clip-path="url(#c2_55)">
<path fill-rule="evenodd" d="M158,699l722,0l0,-23l-722,0l0,23Z" class="g4_55" />
</g>
<path d="M46.5,676.5l0,-2" class="g2_55" />
<path d="M46.5,676.5l0,-2" class="g2_55" />
<path d="M47.5,676.5l102,0" class="g2_55" />
<path d="M149.5,676.5l0,-2" class="g2_55" />
<path d="M151.5,676.5l736,0" class="g2_55" />
<path d="M887.5,676.5l0,-2" class="g2_55" />
<path d="M887.5,676.5l0,-2" class="g2_55" />
<path d="M46.5,699.5l0,-23" class="g2_55" />
<path d="M149.5,699.5l0,-23" class="g2_55" />
<path d="M887.5,699.5l0,-23" class="g2_55" />
<path fill-rule="evenodd" d="M47,725l102,0l0,-24L47,701l0,24Z" class="g1_55" />
<g clip-path="url(#c3_55)">
<path fill-rule="evenodd" d="M55,725l87,0l0,-24l-87,0l0,24Z" class="g1_55" />
</g>
<path fill-rule="evenodd" d="M151,725l736,0l0,-24l-736,0l0,24Z" class="g1_55" />
<g clip-path="url(#c4_55)">
<path fill-rule="evenodd" d="M158,725l722,0l0,-24l-722,0l0,24Z" class="g1_55" />
</g>
<path d="M46.5,701.5l0,-2" class="g2_55" />
<path d="M47.5,701.5l102,0" class="g2_55" />
<path d="M149.5,701.5l0,-2" class="g2_55" />
<path d="M151.5,701.5l736,0" class="g2_55" />
<path d="M887.5,701.5l0,-2" class="g2_55" />
<path d="M46.5,725.5l0,-24" class="g2_55" />
<path d="M149.5,725.5l0,-24" class="g2_55" />
<path d="M887.5,725.5l0,-24" class="g2_55" />
<path fill-rule="evenodd" d="M47,750l102,0l0,-24L47,726l0,24Z" class="g1_55" />
<g clip-path="url(#c5_55)">
<path fill-rule="evenodd" d="M55,750l87,0l0,-24l-87,0l0,24Z" class="g1_55" />
</g>
<path fill-rule="evenodd" d="M151,750l736,0l0,-24l-736,0l0,24Z" class="g1_55" />
<g clip-path="url(#c6_55)">
<path fill-rule="evenodd" d="M158,750l722,0l0,-24l-722,0l0,24Z" class="g1_55" />
</g>
<path d="M46.5,726.5l0,-1" class="g2_55" />
<path d="M47.5,726.5l102,0" class="g2_55" />
<path d="M149.5,726.5l0,-1" class="g2_55" />
<path d="M151.5,726.5l736,0" class="g2_55" />
<path d="M887.5,726.5l0,-1" class="g2_55" />
<path d="M46.5,750.5l0,-24" class="g2_55" />
<path d="M149.5,750.5l0,-24" class="g2_55" />
<path d="M887.5,750.5l0,-24" class="g2_55" />
<path fill-rule="evenodd" d="M47,775l102,0l0,-23L47,752l0,23Z" class="g1_55" />
<g clip-path="url(#c7_55)">
<path fill-rule="evenodd" d="M55,775l87,0l0,-23l-87,0l0,23Z" class="g1_55" />
</g>
<path fill-rule="evenodd" d="M151,775l736,0l0,-23l-736,0l0,23Z" class="g1_55" />
<g clip-path="url(#c8_55)">
<path fill-rule="evenodd" d="M158,775l722,0l0,-23l-722,0l0,23Z" class="g1_55" />
</g>
<path d="M46.5,752.5l0,-2" class="g2_55" />
<path d="M47.5,752.5l102,0" class="g2_55" />
<path d="M149.5,752.5l0,-2" class="g2_55" />
<path d="M151.5,752.5l736,0" class="g2_55" />
<path d="M887.5,752.5l0,-2" class="g2_55" />
<path d="M46.5,775.5l0,-23" class="g2_55" />
<path d="M149.5,775.5l0,-23" class="g2_55" />
<path d="M887.5,775.5l0,-23" class="g2_55" />
<path fill-rule="evenodd" d="M47,801l102,0l0,-24L47,777l0,24Z" class="g1_55" />
<g clip-path="url(#c9_55)">
<path fill-rule="evenodd" d="M55,801l87,0l0,-24l-87,0l0,24Z" class="g1_55" />
</g>
<path fill-rule="evenodd" d="M151,801l736,0l0,-24l-736,0l0,24Z" class="g1_55" />
<g clip-path="url(#c10_55)">
<path fill-rule="evenodd" d="M158,801l722,0l0,-24l-722,0l0,24Z" class="g1_55" />
</g>
<path d="M46.5,777.5l0,-2" class="g2_55" />
<path d="M47.5,777.5l102,0" class="g2_55" />
<path d="M149.5,777.5l0,-2" class="g2_55" />
<path d="M151.5,777.5l736,0" class="g2_55" />
<path d="M887.5,777.5l0,-2" class="g2_55" />
<path d="M46.5,801.5l0,-24" class="g2_55" />
<path d="M149.5,801.5l0,-24" class="g2_55" />
<path d="M887.5,801.5l0,-24" class="g2_55" />
<path fill-rule="evenodd" d="M47,826l102,0l0,-24L47,802l0,24Z" class="g1_55" />
<g clip-path="url(#c11_55)">
<path fill-rule="evenodd" d="M55,826l87,0l0,-24l-87,0l0,24Z" class="g1_55" />
</g>
<path fill-rule="evenodd" d="M151,826l736,0l0,-24l-736,0l0,24Z" class="g1_55" />
<g clip-path="url(#c12_55)">
<path fill-rule="evenodd" d="M158,826l722,0l0,-24l-722,0l0,24Z" class="g1_55" />
</g>
<path d="M46.5,802.5l0,-1" class="g2_55" />
<path d="M47.5,802.5l102,0" class="g2_55" />
<path d="M149.5,802.5l0,-1" class="g2_55" />
<path d="M151.5,802.5l736,0" class="g2_55" />
<path d="M887.5,802.5l0,-1" class="g2_55" />
<path d="M46.5,826.5l0,-24" class="g2_55" />
<path d="M149.5,826.5l0,-24" class="g2_55" />
<path d="M887.5,826.5l0,-24" class="g2_55" />
<path fill-rule="evenodd" d="M47,852l102,0l0,-24L47,828l0,24Z" class="g1_55" />
<g clip-path="url(#c13_55)">
<path fill-rule="evenodd" d="M55,852l87,0l0,-24l-87,0l0,24Z" class="g1_55" />
</g>
<path fill-rule="evenodd" d="M151,852l736,0l0,-24l-736,0l0,24Z" class="g1_55" />
<g clip-path="url(#c14_55)">
<path fill-rule="evenodd" d="M158,852l722,0l0,-24l-722,0l0,24Z" class="g1_55" />
</g>
<path d="M46.5,828.5l0,-2" class="g2_55" />
<path d="M47.5,828.5l102,0" class="g2_55" />
<path d="M149.5,828.5l0,-2" class="g2_55" />
<path d="M151.5,828.5l736,0" class="g2_55" />
<path d="M887.5,828.5l0,-2" class="g2_55" />
<path d="M46.5,852.5l0,-24" class="g2_55" />
<path d="M149.5,852.5l0,-24" class="g2_55" />
<path d="M887.5,852.5l0,-24" class="g2_55" />
<path fill-rule="evenodd" d="M47,877l102,0l0,-24L47,853l0,24Z" class="g1_55" />
<g clip-path="url(#c15_55)">
<path fill-rule="evenodd" d="M55,877l87,0l0,-24l-87,0l0,24Z" class="g1_55" />
</g>
<path fill-rule="evenodd" d="M151,877l736,0l0,-24l-736,0l0,24Z" class="g1_55" />
<g clip-path="url(#c16_55)">
<path fill-rule="evenodd" d="M158,877l722,0l0,-24l-722,0l0,24Z" class="g1_55" />
</g>
<path d="M46.5,853.5l0,-1" class="g2_55" />
<path d="M47.5,853.5l102,0" class="g2_55" />
<path d="M149.5,853.5l0,-1" class="g2_55" />
<path d="M151.5,853.5l736,0" class="g2_55" />
<path d="M887.5,853.5l0,-1" class="g2_55" />
<path d="M46.5,877.5l0,-24" class="g2_55" />
<path d="M149.5,877.5l0,-24" class="g2_55" />
<path d="M887.5,877.5l0,-24" class="g2_55" />
<path fill-rule="evenodd" d="M47,902l102,0l0,-23L47,879l0,23Z" class="g1_55" />
<g clip-path="url(#c17_55)">
<path fill-rule="evenodd" d="M55,902l87,0l0,-23l-87,0l0,23Z" class="g1_55" />
</g>
<path fill-rule="evenodd" d="M151,902l736,0l0,-23l-736,0l0,23Z" class="g1_55" />
<g clip-path="url(#c18_55)">
<path fill-rule="evenodd" d="M158,902l722,0l0,-23l-722,0l0,23Z" class="g1_55" />
</g>
<path d="M46.5,879.5l0,-2" class="g2_55" />
<path d="M47.5,879.5l102,0" class="g2_55" />
<path d="M149.5,879.5l0,-2" class="g2_55" />
<path d="M151.5,879.5l736,0" class="g2_55" />
<path d="M887.5,879.5l0,-2" class="g2_55" />
<path d="M46.5,902.5l0,-23" class="g2_55" />
<path d="M149.5,902.5l0,-23" class="g2_55" />
<path d="M887.5,902.5l0,-23" class="g2_55" />
<path fill-rule="evenodd" d="M47,928l102,0l0,-24L47,904l0,24Z" class="g1_55" />
<g clip-path="url(#c19_55)">
<path fill-rule="evenodd" d="M55,928l87,0l0,-24l-87,0l0,24Z" class="g1_55" />
</g>
<path fill-rule="evenodd" d="M151,928l736,0l0,-24l-736,0l0,24Z" class="g1_55" />
<g clip-path="url(#c20_55)">
<path fill-rule="evenodd" d="M158,928l722,0l0,-24l-722,0l0,24Z" class="g1_55" />
</g>
<path d="M46.5,904.5l0,-2" class="g2_55" />
<path d="M47.5,904.5l102,0" class="g2_55" />
<path d="M149.5,904.5l0,-2" class="g2_55" />
<path d="M151.5,904.5l736,0" class="g2_55" />
<path d="M887.5,904.5l0,-2" class="g2_55" />
<path d="M46.5,928.5l0,-24" class="g2_55" />
<path d="M149.5,928.5l0,-24" class="g2_55" />
<path d="M887.5,928.5l0,-24" class="g2_55" />
<path fill-rule="evenodd" d="M47,953l102,0l0,-24L47,929l0,24Z" class="g1_55" />
<g clip-path="url(#c21_55)">
<path fill-rule="evenodd" d="M55,953l87,0l0,-24l-87,0l0,24Z" class="g1_55" />
</g>
<path fill-rule="evenodd" d="M151,953l736,0l0,-24l-736,0l0,24Z" class="g1_55" />
<g clip-path="url(#c22_55)">
<path fill-rule="evenodd" d="M158,953l722,0l0,-24l-722,0l0,24Z" class="g1_55" />
</g>
<path d="M46.5,929.5l0,-1" class="g2_55" />
<path d="M47.5,929.5l102,0" class="g2_55" />
<path d="M149.5,929.5l0,-1" class="g2_55" />
<path d="M151.5,929.5l736,0" class="g2_55" />
<path d="M887.5,929.5l0,-1" class="g2_55" />
<path d="M46.5,953.5l0,-24" class="g2_55" />
<path d="M149.5,953.5l0,-24" class="g2_55" />
<path d="M887.5,953.5l0,-24" class="g2_55" />
<path fill-rule="evenodd" d="M47,978l102,0l0,-23L47,955l0,23Z" class="g1_55" />
<g clip-path="url(#c23_55)">
<path fill-rule="evenodd" d="M55,978l87,0l0,-23l-87,0l0,23Z" class="g1_55" />
</g>
<path fill-rule="evenodd" d="M151,978l736,0l0,-23l-736,0l0,23Z" class="g1_55" />
<g clip-path="url(#c24_55)">
<path fill-rule="evenodd" d="M158,978l722,0l0,-23l-722,0l0,23Z" class="g1_55" />
</g>
<path d="M46.5,955.5l0,-2" class="g2_55" />
<path d="M47.5,955.5l102,0" class="g2_55" />
<path d="M149.5,955.5l0,-2" class="g2_55" />
<path d="M151.5,955.5l736,0" class="g2_55" />
<path d="M887.5,955.5l0,-2" class="g2_55" />
<path d="M46.5,978.5l0,-23" class="g2_55" />
<path d="M149.5,978.5l0,-23" class="g2_55" />
<path d="M887.5,978.5l0,-23" class="g2_55" />
<path fill-rule="evenodd" d="M47,1004l102,0l0,-24L47,980l0,24Z" class="g1_55" />
<g clip-path="url(#c25_55)">
<path fill-rule="evenodd" d="M55,1004l87,0l0,-24l-87,0l0,24Z" class="g1_55" />
</g>
<path fill-rule="evenodd" d="M151,1004l736,0l0,-24l-736,0l0,24Z" class="g1_55" />
<g clip-path="url(#c26_55)">
<path fill-rule="evenodd" d="M158,1004l722,0l0,-24l-722,0l0,24Z" class="g1_55" />
</g>
<path d="M46.5,980.5l0,-2" class="g2_55" />
<path d="M47.5,980.5l102,0" class="g2_55" />
<path d="M149.5,980.5l0,-2" class="g2_55" />
<path d="M151.5,980.5l736,0" class="g2_55" />
<path d="M887.5,980.5l0,-2" class="g2_55" />
<path d="M46.5,1004.5l0,-24" class="g2_55" />
<path d="M149.5,1004.5l0,-24" class="g2_55" />
<path d="M887.5,1004.5l0,-24" class="g2_55" />
<path fill-rule="evenodd" d="M47,1053l102,0l0,-48l-102,0l0,48Z" class="g1_55" />
<path fill-rule="evenodd" d="M55,1029l87,0l0,-24l-87,0l0,24Z" class="g1_55" />
<path fill-rule="evenodd" d="M151,1053l736,0l0,-48l-736,0l0,48Z" class="g1_55" />
<path fill-rule="evenodd" d="M158,1029l722,0l0,-24l-722,0l0,24Z" class="g1_55" />
<g clip-path="url(#c27_55)">
<path fill-rule="evenodd" d="M158,1053l722,0l0,-24l-722,0l0,24Z" class="g1_55" />
</g>
<path d="M46.5,1005.5l0,-1" class="g2_55" />
<path d="M47.5,1005.5l102,0" class="g2_55" />
<path d="M149.5,1005.5l0,-1" class="g2_55" />
<path d="M151.5,1005.5l736,0" class="g2_55" />
<path d="M887.5,1005.5l0,-1" class="g2_55" />
<path d="M46.5,1053.5l0,-48" class="g2_55" />
<path d="M149.5,1053.5l0,-48" class="g2_55" />
<path d="M887.5,1053.5l0,-48" class="g2_55" />
<path fill-rule="evenodd" d="M47,1078l102,0l0,-23l-102,0l0,23Z" class="g1_55" />
<g clip-path="url(#c28_55)">
<path fill-rule="evenodd" d="M55,1078l87,0l0,-23l-87,0l0,23Z" class="g1_55" />
</g>
<path fill-rule="evenodd" d="M151,1078l736,0l0,-23l-736,0l0,23Z" class="g1_55" />
<g clip-path="url(#c29_55)">
<path fill-rule="evenodd" d="M158,1078l722,0l0,-23l-722,0l0,23Z" class="g1_55" />
</g>
<path d="M46.5,1055.5l0,-2" class="g2_55" />
<path d="M47.5,1055.5l102,0" class="g2_55" />
<path d="M149.5,1055.5l0,-2" class="g2_55" />
<path d="M151.5,1055.5l736,0" class="g2_55" />
<path d="M887.5,1055.5l0,-2" class="g2_55" />
<path d="M46.5,1078.5l0,-23" class="g2_55" />
<path d="M46.5,1080.5l0,-2" class="g2_55" />
<path d="M46.5,1080.5l0,-2" class="g2_55" />
<path d="M47.5,1080.5l102,0" class="g2_55" />
<path d="M149.5,1078.5l0,-23" class="g2_55" />
<path d="M149.5,1080.5l0,-2" class="g2_55" />
<path d="M151.5,1080.5l736,0" class="g2_55" />
<path d="M887.5,1078.5l0,-23" class="g2_55" />
<path d="M887.5,1080.5l0,-2" class="g2_55" />
<path d="M887.5,1080.5l0,-2" class="g2_55" />
</svg>