<?xml version="1.0" encoding="UTF-8" standalone="no"?>
<!DOCTYPE svg PUBLIC "-//W3C//DTD SVG 1.1//EN"
"http://www.w3.org/Graphics/SVG/1.1/DTD/svg11.dtd">
<svg version="1.1" xmlns="http://www.w3.org/2000/svg" xmlns:xlink="http://www.w3.org/1999/xlink">
<defs>
<clipPath id="c0_305"><path d="M47.5,135.5l0,-24l102,0l0,24Z" /></clipPath>
<clipPath id="c1_305"><path d="M151.5,135.5l0,-24l736,0l0,24Z" /></clipPath>
<clipPath id="c2_305"><path d="M47.5,160.5l0,-24l102,0l0,24Z" /></clipPath>
<clipPath id="c3_305"><path d="M151.5,160.5l0,-24l736,0l0,24Z" /></clipPath>
<clipPath id="c4_305"><path d="M47.5,186.5l0,-24l102,0l0,24Z" /></clipPath>
<clipPath id="c5_305"><path d="M151.5,186.5l0,-24l736,0l0,24Z" /></clipPath>
<clipPath id="c6_305"><path d="M47.5,211.5l0,-24l102,0l0,24Z" /></clipPath>
<clipPath id="c7_305"><path d="M151.5,211.5l0,-24l736,0l0,24Z" /></clipPath>
<clipPath id="c8_305"><path d="M47.5,236.5l0,-23l102,0l0,23Z" /></clipPath>
<clipPath id="c9_305"><path d="M151.5,236.5l0,-23l736,0l0,23Z" /></clipPath>
<clipPath id="c10_305"><path d="M47.5,262.5l0,-24l102,0l0,24Z" /></clipPath>
<clipPath id="c11_305"><path d="M151.5,262.5l0,-24l736,0l0,24Z" /></clipPath>
<clipPath id="c12_305"><path d="M47.5,287.5l0,-24l102,0l0,24Z" /></clipPath>
<clipPath id="c13_305"><path d="M151.5,287.5l0,-24l736,0l0,24Z" /></clipPath>
<clipPath id="c14_305"><path d="M47.5,336.5l0,-47l102,0l0,47Z" /></clipPath>
<clipPath id="c15_305"><path d="M151.5,336.5l0,-47l736,0l0,47Z" /></clipPath>
<clipPath id="c16_305"><path d="M47.5,385.5l0,-47l102,0l0,47Z" /></clipPath>
<clipPath id="c17_305"><path d="M151.5,385.5l0,-47l736,0l0,47Z" /></clipPath>
<clipPath id="c18_305"><path d="M47.5,435.5l0,-48l102,0l0,48Z" /></clipPath>
<clipPath id="c19_305"><path d="M151.5,435.5l0,-48l736,0l0,48Z" /></clipPath>
<clipPath id="c20_305"><path d="M47.5,691.5l0,-182l840,0l0,182Z" /></clipPath>
<clipPath id="c21_305"><path d="M47.5,861.5l0,-96l840,0l0,96Z" /></clipPath>
<style type="text/css"><![CDATA[
.g2_305{
fill: none;
stroke: #7E7E7E;
stroke-width: 1;
stroke-linecap: butt;
stroke-linejoin: miter;
}
.g3_305{
fill: none;
stroke: #F0F0E0;
stroke-width: 1;
stroke-linecap: butt;
stroke-linejoin: miter;
}
.g1_305{
fill: #F1F1F1;
}
]]></style>
</defs>
<path fill-rule="evenodd" d="M47,135l102,0l0,-24L47,111l0,24Z" class="g1_305" />
<g clip-path="url(#c0_305)">
<path fill-rule="evenodd" d="M55,135l87,0l0,-24l-87,0l0,24Z" class="g1_305" />
</g>
<path fill-rule="evenodd" d="M151,135l736,0l0,-24l-736,0l0,24Z" class="g1_305" />
<g clip-path="url(#c1_305)">
<path fill-rule="evenodd" d="M158,135l722,0l0,-24l-722,0l0,24Z" class="g1_305" />
</g>
<path d="M46.5,111.5l0,-1" class="g2_305" />
<path d="M46.5,111.5l0,-1" class="g2_305" />
<path d="M47.5,111.5l102,0" class="g2_305" />
<path d="M149.5,111.5l0,-1" class="g2_305" />
<path d="M151.5,111.5l736,0" class="g2_305" />
<path d="M887.5,111.5l0,-1" class="g2_305" />
<path d="M887.5,111.5l0,-1" class="g2_305" />
<path d="M46.5,135.5l0,-24" class="g2_305" />
<path d="M149.5,135.5l0,-24" class="g2_305" />
<path d="M887.5,135.5l0,-24" class="g2_305" />
<path fill-rule="evenodd" d="M47,160l102,0l0,-24L47,136l0,24Z" class="g1_305" />
<g clip-path="url(#c2_305)">
<path fill-rule="evenodd" d="M55,160l87,0l0,-24l-87,0l0,24Z" class="g1_305" />
</g>
<path fill-rule="evenodd" d="M151,160l736,0l0,-24l-736,0l0,24Z" class="g1_305" />
<g clip-path="url(#c3_305)">
<path fill-rule="evenodd" d="M158,160l722,0l0,-24l-722,0l0,24Z" class="g1_305" />
</g>
<path d="M46.5,136.5l0,-1" class="g2_305" />
<path d="M47.5,136.5l102,0" class="g2_305" />
<path d="M149.5,136.5l0,-1" class="g2_305" />
<path d="M151.5,136.5l736,0" class="g2_305" />
<path d="M887.5,136.5l0,-1" class="g2_305" />
<path d="M46.5,160.5l0,-24" class="g2_305" />
<path d="M149.5,160.5l0,-24" class="g2_305" />
<path d="M887.5,160.5l0,-24" class="g2_305" />
<path fill-rule="evenodd" d="M47,186l102,0l0,-24L47,162l0,24Z" class="g1_305" />
<g clip-path="url(#c4_305)">
<path fill-rule="evenodd" d="M55,186l87,0l0,-24l-87,0l0,24Z" class="g1_305" />
</g>
<path fill-rule="evenodd" d="M151,186l736,0l0,-24l-736,0l0,24Z" class="g1_305" />
<g clip-path="url(#c5_305)">
<path fill-rule="evenodd" d="M158,186l722,0l0,-24l-722,0l0,24Z" class="g1_305" />
</g>
<path d="M46.5,162.5l0,-2" class="g2_305" />
<path d="M47.5,162.5l102,0" class="g2_305" />
<path d="M149.5,162.5l0,-2" class="g2_305" />
<path d="M151.5,162.5l736,0" class="g2_305" />
<path d="M887.5,162.5l0,-2" class="g2_305" />
<path d="M46.5,186.5l0,-24" class="g2_305" />
<path d="M149.5,186.5l0,-24" class="g2_305" />
<path d="M887.5,186.5l0,-24" class="g2_305" />
<path fill-rule="evenodd" d="M47,211l102,0l0,-24L47,187l0,24Z" class="g1_305" />
<g clip-path="url(#c6_305)">
<path fill-rule="evenodd" d="M55,211l87,0l0,-24l-87,0l0,24Z" class="g1_305" />
</g>
<path fill-rule="evenodd" d="M151,211l736,0l0,-24l-736,0l0,24Z" class="g1_305" />
<g clip-path="url(#c7_305)">
<path fill-rule="evenodd" d="M158,211l722,0l0,-24l-722,0l0,24Z" class="g1_305" />
</g>
<path d="M46.5,187.5l0,-1" class="g2_305" />
<path d="M47.5,187.5l102,0" class="g2_305" />
<path d="M149.5,187.5l0,-1" class="g2_305" />
<path d="M151.5,187.5l736,0" class="g2_305" />
<path d="M887.5,187.5l0,-1" class="g2_305" />
<path d="M46.5,211.5l0,-24" class="g2_305" />
<path d="M149.5,211.5l0,-24" class="g2_305" />
<path d="M887.5,211.5l0,-24" class="g2_305" />
<path fill-rule="evenodd" d="M47,236l102,0l0,-23L47,213l0,23Z" class="g1_305" />
<g clip-path="url(#c8_305)">
<path fill-rule="evenodd" d="M55,236l87,0l0,-23l-87,0l0,23Z" class="g1_305" />
</g>
<path fill-rule="evenodd" d="M151,236l736,0l0,-23l-736,0l0,23Z" class="g1_305" />
<g clip-path="url(#c9_305)">
<path fill-rule="evenodd" d="M158,236l722,0l0,-23l-722,0l0,23Z" class="g1_305" />
</g>
<path d="M46.5,212.5l0,-1" class="g2_305" />
<path d="M47.5,212.5l102,0" class="g2_305" />
<path d="M149.5,212.5l0,-1" class="g2_305" />
<path d="M151.5,212.5l736,0" class="g2_305" />
<path d="M887.5,212.5l0,-1" class="g2_305" />
<path d="M46.5,236.5l0,-24" class="g2_305" />
<path d="M149.5,236.5l0,-24" class="g2_305" />
<path d="M887.5,236.5l0,-24" class="g2_305" />
<path fill-rule="evenodd" d="M47,262l102,0l0,-24L47,238l0,24Z" class="g1_305" />
<g clip-path="url(#c10_305)">
<path fill-rule="evenodd" d="M55,262l87,0l0,-24l-87,0l0,24Z" class="g1_305" />
</g>
<path fill-rule="evenodd" d="M151,262l736,0l0,-24l-736,0l0,24Z" class="g1_305" />
<g clip-path="url(#c11_305)">
<path fill-rule="evenodd" d="M158,262l722,0l0,-24l-722,0l0,24Z" class="g1_305" />
</g>
<path d="M46.5,238.5l0,-2" class="g2_305" />
<path d="M47.5,238.5l102,0" class="g2_305" />
<path d="M149.5,238.5l0,-2" class="g2_305" />
<path d="M151.5,238.5l736,0" class="g2_305" />
<path d="M887.5,238.5l0,-2" class="g2_305" />
<path d="M46.5,262.5l0,-24" class="g2_305" />
<path d="M149.5,262.5l0,-24" class="g2_305" />
<path d="M887.5,262.5l0,-24" class="g2_305" />
<path fill-rule="evenodd" d="M47,287l102,0l0,-24L47,263l0,24Z" class="g1_305" />
<g clip-path="url(#c12_305)">
<path fill-rule="evenodd" d="M55,287l87,0l0,-24l-87,0l0,24Z" class="g1_305" />
</g>
<path fill-rule="evenodd" d="M151,287l736,0l0,-24l-736,0l0,24Z" class="g1_305" />
<g clip-path="url(#c13_305)">
<path fill-rule="evenodd" d="M158,287l722,0l0,-24l-722,0l0,24Z" class="g1_305" />
</g>
<path d="M46.5,263.5l0,-1" class="g2_305" />
<path d="M47.5,263.5l102,0" class="g2_305" />
<path d="M149.5,263.5l0,-1" class="g2_305" />
<path d="M151.5,263.5l736,0" class="g2_305" />
<path d="M887.5,263.5l0,-1" class="g2_305" />
<path d="M46.5,287.5l0,-24" class="g2_305" />
<path d="M149.5,287.5l0,-24" class="g2_305" />
<path d="M887.5,287.5l0,-24" class="g2_305" />
<path fill-rule="evenodd" d="M47,336l102,0l0,-47L47,289l0,47Z" class="g1_305" />
<g clip-path="url(#c14_305)">
<path fill-rule="evenodd" d="M55,312l87,0l0,-23l-87,0l0,23Z" class="g1_305" />
</g>
<path fill-rule="evenodd" d="M151,336l736,0l0,-47l-736,0l0,47Z" class="g1_305" />
<g clip-path="url(#c15_305)">
<path fill-rule="evenodd" d="M158,312l722,0l0,-23l-722,0l0,23Z" class="g1_305" />
</g>
<path fill-rule="evenodd" d="M158,336l722,0l0,-24l-722,0l0,24Z" class="g1_305" />
<path d="M46.5,288.5l0,-1" class="g2_305" />
<path d="M47.5,288.5l102,0" class="g2_305" />
<path d="M149.5,288.5l0,-1" class="g2_305" />
<path d="M151.5,288.5l736,0" class="g2_305" />
<path d="M887.5,288.5l0,-1" class="g2_305" />
<path d="M46.5,336.5l0,-48" class="g2_305" />
<path d="M149.5,336.5l0,-48" class="g2_305" />
<path d="M887.5,336.5l0,-48" class="g2_305" />
<path fill-rule="evenodd" d="M47,385l102,0l0,-47L47,338l0,47Z" class="g1_305" />
<g clip-path="url(#c16_305)">
<path fill-rule="evenodd" d="M55,362l87,0l0,-24l-87,0l0,24Z" class="g1_305" />
</g>
<path fill-rule="evenodd" d="M151,385l736,0l0,-47l-736,0l0,47Z" class="g1_305" />
<g clip-path="url(#c17_305)">
<path fill-rule="evenodd" d="M158,362l722,0l0,-24l-722,0l0,24Z" class="g1_305" />
</g>
<path fill-rule="evenodd" d="M158,385l722,0l0,-23l-722,0l0,23Z" class="g1_305" />
<path d="M46.5,338.5l0,-2" class="g2_305" />
<path d="M47.5,338.5l102,0" class="g2_305" />
<path d="M149.5,338.5l0,-2" class="g2_305" />
<path d="M151.5,338.5l736,0" class="g2_305" />
<path d="M887.5,338.5l0,-2" class="g2_305" />
<path d="M46.5,385.5l0,-47" class="g2_305" />
<path d="M149.5,385.5l0,-47" class="g2_305" />
<path d="M887.5,385.5l0,-47" class="g2_305" />
<path fill-rule="evenodd" d="M47,435l102,0l0,-48L47,387l0,48Z" class="g1_305" />
<g clip-path="url(#c18_305)">
<path fill-rule="evenodd" d="M55,411l87,0l0,-24l-87,0l0,24Z" class="g1_305" />
</g>
<path fill-rule="evenodd" d="M151,435l736,0l0,-48l-736,0l0,48Z" class="g1_305" />
<g clip-path="url(#c19_305)">
<path fill-rule="evenodd" d="M158,411l722,0l0,-24l-722,0l0,24Z" class="g1_305" />
</g>
<path fill-rule="evenodd" d="M158,435l722,0l0,-24l-722,0l0,24Z" class="g1_305" />
<path d="M46.5,387.5l0,-2" class="g2_305" />
<path d="M47.5,387.5l102,0" class="g2_305" />
<path d="M149.5,387.5l0,-2" class="g2_305" />
<path d="M151.5,387.5l736,0" class="g2_305" />
<path d="M887.5,387.5l0,-2" class="g2_305" />
<path d="M46.5,435.5l0,-48" class="g2_305" />
<path d="M46.5,436.5l0,-1" class="g2_305" />
<path d="M46.5,436.5l0,-1" class="g2_305" />
<path d="M47.5,436.5l102,0" class="g2_305" />
<path d="M149.5,435.5l0,-48" class="g2_305" />
<path d="M149.5,436.5l0,-1" class="g2_305" />
<path d="M151.5,436.5l736,0" class="g2_305" />
<path d="M887.5,435.5l0,-48" class="g2_305" />
<path d="M887.5,436.5l0,-1" class="g2_305" />
<path d="M887.5,436.5l0,-1" class="g2_305" />
<path fill-rule="evenodd" d="M47,691l840,0l0,-182L47,509l0,182Z" class="g1_305" />
<path fill-rule="evenodd" d="M55,540l825,0l0,-31L55,509l0,31Z" class="g1_305" />
<g clip-path="url(#c20_305)">
<path d="M45.5,510.5l0,-1" class="g3_305" />
<path d="M45.5,510.5l0,-1" class="g3_305" />
<path d="M46.5,510.5l842,0" class="g3_305" />
<path d="M888.5,510.5l0,-1" class="g3_305" />
<path d="M888.5,510.5l0,-1" class="g3_305" />
<path d="M45.5,540.5l0,-30" class="g3_305" />
<path d="M888.5,540.5l0,-30" class="g3_305" />
</g>
<path fill-rule="evenodd" d="M55,564l825,0l0,-24L55,540l0,24Z" class="g1_305" />
<g clip-path="url(#c20_305)">
<path d="M45.5,564.5l0,-24" class="g3_305" />
<path d="M888.5,564.5l0,-24" class="g3_305" />
</g>
<path fill-rule="evenodd" d="M55,588l825,0l0,-24L55,564l0,24Z" class="g1_305" />
<g clip-path="url(#c20_305)">
<path d="M45.5,588.5l0,-24" class="g3_305" />
<path d="M888.5,588.5l0,-24" class="g3_305" />
</g>
<path fill-rule="evenodd" d="M55,612l825,0l0,-24L55,588l0,24Z" class="g1_305" />
<g clip-path="url(#c20_305)">
<path d="M45.5,612.5l0,-24" class="g3_305" />
<path d="M888.5,612.5l0,-24" class="g3_305" />
</g>
<path fill-rule="evenodd" d="M55,636l825,0l0,-24L55,612l0,24Z" class="g1_305" />
<g clip-path="url(#c20_305)">
<path d="M45.5,636.5l0,-24" class="g3_305" />
<path d="M888.5,636.5l0,-24" class="g3_305" />
</g>
<path fill-rule="evenodd" d="M55,660l825,0l0,-24L55,636l0,24Z" class="g1_305" />
<g clip-path="url(#c20_305)">
<path d="M45.5,660.5l0,-24" class="g3_305" />
<path d="M888.5,660.5l0,-24" class="g3_305" />
</g>
<path fill-rule="evenodd" d="M55,691l825,0l0,-31L55,660l0,31Z" class="g1_305" />
<g clip-path="url(#c20_305)">
<path d="M45.5,691.5l0,-2" class="g3_305" />
<path d="M45.5,691.5l0,-2" class="g3_305" />
<path d="M46.5,691.5l842,0" class="g3_305" />
<path d="M888.5,691.5l0,-2" class="g3_305" />
<path d="M888.5,691.5l0,-2" class="g3_305" />
<path d="M45.5,689.5l0,-29" class="g3_305" />
<path d="M888.5,689.5l0,-29" class="g3_305" />
</g>
<path d="M46.5,509.5l0,-1" class="g2_305" />
<path d="M46.5,509.5l0,-1" class="g2_305" />
<path d="M47.5,509.5l840,0" class="g2_305" />
<path d="M887.5,509.5l0,-1" class="g2_305" />
<path d="M887.5,509.5l0,-1" class="g2_305" />
<path d="M46.5,691.5l0,-182" class="g2_305" />
<path d="M46.5,692.5l0,-1" class="g2_305" />
<path d="M46.5,692.5l0,-1" class="g2_305" />
<path d="M47.5,692.5l840,0" class="g2_305" />
<path d="M887.5,691.5l0,-182" class="g2_305" />
<path d="M887.5,692.5l0,-1" class="g2_305" />
<path d="M887.5,692.5l0,-1" class="g2_305" />
<path fill-rule="evenodd" d="M47,861l840,0l0,-96L47,765l0,96Z" class="g1_305" />
<g clip-path="url(#c21_305)">
<path fill-rule="evenodd" d="M55,789l825,0l0,-24L55,765l0,24Z" class="g1_305" />
</g>
<path fill-rule="evenodd" d="M55,813l825,0l0,-24L55,789l0,24Z" class="g1_305" />
<path fill-rule="evenodd" d="M55,837l825,0l0,-24L55,813l0,24Z" class="g1_305" />
<path fill-rule="evenodd" d="M55,861l825,0l0,-24L55,837l0,24Z" class="g1_305" />
<path d="M46.5,765.5l0,-1" class="g2_305" />
<path d="M46.5,765.5l0,-1" class="g2_305" />
<path d="M47.5,765.5l840,0" class="g2_305" />
<path d="M887.5,765.5l0,-1" class="g2_305" />
<path d="M887.5,765.5l0,-1" class="g2_305" />
<path d="M46.5,861.5l0,-96" class="g2_305" />
<path d="M46.5,862.5l0,-1" class="g2_305" />
<path d="M46.5,862.5l0,-1" class="g2_305" />
<path d="M47.5,862.5l840,0" class="g2_305" />
<path d="M887.5,861.5l0,-96" class="g2_305" />
<path d="M887.5,862.5l0,-1" class="g2_305" />
<path d="M887.5,862.5l0,-1" class="g2_305" />
</svg>