<?xml version="1.0" encoding="UTF-8" standalone="no"?>
<!DOCTYPE svg PUBLIC "-//W3C//DTD SVG 1.1//EN"
"http://www.w3.org/Graphics/SVG/1.1/DTD/svg11.dtd">
<svg version="1.1" xmlns="http://www.w3.org/2000/svg" xmlns:xlink="http://www.w3.org/1999/xlink">
<defs>
<clipPath id="c0_359"><path d="M47.5,326.5l0,-215l840,0l0,215Z" /></clipPath>
<clipPath id="c1_359"><path d="M47.5,796.5l0,-396l840,0l0,396Z" /></clipPath>
<clipPath id="c2_359"><path d="M47.5,908.5l0,-24l227,0l0,24Z" /></clipPath>
<clipPath id="c3_359"><path d="M275.5,908.5l0,-24l81,0l0,24Z" /></clipPath>
<clipPath id="c4_359"><path d="M358.5,908.5l0,-24l67,0l0,24Z" /></clipPath>
<clipPath id="c5_359"><path d="M427.5,908.5l0,-24l460,0l0,24Z" /></clipPath>
<clipPath id="c6_359"><path d="M47.5,1083.5l0,-173l27,0l0,173Z" /></clipPath>
<clipPath id="c7_359"><path d="M76.5,934.5l0,-24l198,0l0,24Z" /></clipPath>
<clipPath id="c8_359"><path d="M275.5,934.5l0,-24l81,0l0,24Z" /></clipPath>
<clipPath id="c9_359"><path d="M358.5,934.5l0,-24l67,0l0,24Z" /></clipPath>
<clipPath id="c10_359"><path d="M427.5,934.5l0,-24l460,0l0,24Z" /></clipPath>
<clipPath id="c11_359"><path d="M76.5,959.5l0,-24l198,0l0,24Z" /></clipPath>
<clipPath id="c12_359"><path d="M275.5,959.5l0,-24l81,0l0,24Z" /></clipPath>
<clipPath id="c13_359"><path d="M358.5,959.5l0,-24l67,0l0,24Z" /></clipPath>
<clipPath id="c14_359"><path d="M427.5,959.5l0,-24l460,0l0,24Z" /></clipPath>
<clipPath id="c15_359"><path d="M76.5,1083.5l0,-123l27,0l0,123Z" /></clipPath>
<clipPath id="c16_359"><path d="M105.5,1083.5l0,-123l31,0l0,123Z" /></clipPath>
<clipPath id="c17_359"><path d="M427.5,1083.5l0,-95l460,0l0,95Z" /></clipPath>
<style type="text/css"><![CDATA[
.g2_359{
fill: none;
stroke: #7E7E7E;
stroke-width: 1;
stroke-linecap: butt;
stroke-linejoin: miter;
}
.g3_359{
fill: none;
stroke: #F0F0E0;
stroke-width: 1;
stroke-linecap: butt;
stroke-linejoin: miter;
}
.g4_359{
fill: #DBE5F1;
}
.g1_359{
fill: #F1F1F1;
}
]]></style>
</defs>
<path fill-rule="evenodd" d="M47,325l840,0l0,-214L47,111l0,214Z" class="g1_359" />
<g clip-path="url(#c0_359)">
<path fill-rule="evenodd" d="M55,135l825,0l0,-24L55,111l0,24Z" class="g1_359" />
</g>
<path fill-rule="evenodd" d="M55,159l825,0l0,-24L55,135l0,24Z" class="g1_359" />
<path fill-rule="evenodd" d="M55,182l825,0l0,-23L55,159l0,23Z" class="g1_359" />
<path fill-rule="evenodd" d="M55,206l825,0l0,-24L55,182l0,24Z" class="g1_359" />
<path fill-rule="evenodd" d="M55,230l825,0l0,-24L55,206l0,24Z" class="g1_359" />
<path fill-rule="evenodd" d="M55,254l825,0l0,-24L55,230l0,24Z" class="g1_359" />
<path fill-rule="evenodd" d="M55,278l825,0l0,-24L55,254l0,24Z" class="g1_359" />
<path fill-rule="evenodd" d="M55,302l825,0l0,-24L55,278l0,24Z" class="g1_359" />
<path fill-rule="evenodd" d="M55,325l825,0l0,-23L55,302l0,23Z" class="g1_359" />
<path d="M46.5,111.5l0,-1" class="g2_359" />
<path d="M46.5,111.5l0,-1" class="g2_359" />
<path d="M47.5,111.5l840,0" class="g2_359" />
<path d="M887.5,111.5l0,-1" class="g2_359" />
<path d="M887.5,111.5l0,-1" class="g2_359" />
<path d="M46.5,326.5l0,-215" class="g2_359" />
<path d="M46.5,327.5l0,-1" class="g2_359" />
<path d="M46.5,327.5l0,-1" class="g2_359" />
<path d="M47.5,327.5l840,0" class="g2_359" />
<path d="M887.5,326.5l0,-215" class="g2_359" />
<path d="M887.5,327.5l0,-1" class="g2_359" />
<path d="M887.5,327.5l0,-1" class="g2_359" />
<path fill-rule="evenodd" d="M47,796l840,0l0,-396L47,400l0,396Z" class="g1_359" />
<path fill-rule="evenodd" d="M55,424l825,0l0,-24L55,400l0,24Z" class="g1_359" />
<path fill-rule="evenodd" d="M55,448l825,0l0,-24L55,424l0,24Z" class="g1_359" />
<path fill-rule="evenodd" d="M55,472l825,0l0,-24L55,448l0,24Z" class="g1_359" />
<path fill-rule="evenodd" d="M55,495l825,0l0,-23L55,472l0,23Z" class="g1_359" />
<path fill-rule="evenodd" d="M55,519l825,0l0,-24L55,495l0,24Z" class="g1_359" />
<path fill-rule="evenodd" d="M55,543l825,0l0,-24L55,519l0,24Z" class="g1_359" />
<path fill-rule="evenodd" d="M55,574l825,0l0,-31L55,543l0,31Z" class="g1_359" />
<g clip-path="url(#c1_359)">
<path d="M45.5,544.5l0,-1" class="g3_359" />
<path d="M45.5,544.5l0,-1" class="g3_359" />
<path d="M46.5,544.5l842,0" class="g3_359" />
<path d="M888.5,544.5l0,-1" class="g3_359" />
<path d="M888.5,544.5l0,-1" class="g3_359" />
<path d="M45.5,574.5l0,-30" class="g3_359" />
<path d="M888.5,574.5l0,-30" class="g3_359" />
</g>
<path fill-rule="evenodd" d="M55,598l825,0l0,-24L55,574l0,24Z" class="g1_359" />
<g clip-path="url(#c1_359)">
<path d="M45.5,598.5l0,-24" class="g3_359" />
<path d="M888.5,598.5l0,-24" class="g3_359" />
</g>
<path fill-rule="evenodd" d="M55,622l825,0l0,-24L55,598l0,24Z" class="g1_359" />
<g clip-path="url(#c1_359)">
<path d="M45.5,622.5l0,-24" class="g3_359" />
<path d="M888.5,622.5l0,-24" class="g3_359" />
</g>
<path fill-rule="evenodd" d="M55,646l825,0l0,-24L55,622l0,24Z" class="g1_359" />
<g clip-path="url(#c1_359)">
<path d="M45.5,646.5l0,-24" class="g3_359" />
<path d="M888.5,646.5l0,-24" class="g3_359" />
</g>
<path fill-rule="evenodd" d="M55,670l825,0l0,-24L55,646l0,24Z" class="g1_359" />
<g clip-path="url(#c1_359)">
<path d="M45.5,670.5l0,-24" class="g3_359" />
<path d="M888.5,670.5l0,-24" class="g3_359" />
</g>
<path fill-rule="evenodd" d="M55,694l825,0l0,-24L55,670l0,24Z" class="g1_359" />
<g clip-path="url(#c1_359)">
<path d="M45.5,694.5l0,-24" class="g3_359" />
<path d="M888.5,694.5l0,-24" class="g3_359" />
</g>
<path fill-rule="evenodd" d="M55,717l825,0l0,-23L55,694l0,23Z" class="g1_359" />
<g clip-path="url(#c1_359)">
<path d="M45.5,717.5l0,-23" class="g3_359" />
<path d="M888.5,717.5l0,-23" class="g3_359" />
</g>
<path fill-rule="evenodd" d="M55,741l825,0l0,-24L55,717l0,24Z" class="g1_359" />
<g clip-path="url(#c1_359)">
<path d="M45.5,741.5l0,-24" class="g3_359" />
<path d="M888.5,741.5l0,-24" class="g3_359" />
</g>
<path fill-rule="evenodd" d="M55,765l825,0l0,-24L55,741l0,24Z" class="g1_359" />
<g clip-path="url(#c1_359)">
<path d="M45.5,765.5l0,-24" class="g3_359" />
<path d="M888.5,765.5l0,-24" class="g3_359" />
</g>
<path fill-rule="evenodd" d="M55,796l825,0l0,-31L55,765l0,31Z" class="g1_359" />
<g clip-path="url(#c1_359)">
<path d="M45.5,796.5l0,-1" class="g3_359" />
<path d="M45.5,796.5l0,-1" class="g3_359" />
<path d="M46.5,796.5l842,0" class="g3_359" />
<path d="M888.5,796.5l0,-1" class="g3_359" />
<path d="M888.5,796.5l0,-1" class="g3_359" />
<path d="M45.5,795.5l0,-30" class="g3_359" />
<path d="M888.5,795.5l0,-30" class="g3_359" />
</g>
<path d="M46.5,400.5l0,-1" class="g2_359" />
<path d="M46.5,400.5l0,-1" class="g2_359" />
<path d="M47.5,400.5l840,0" class="g2_359" />
<path d="M887.5,400.5l0,-1" class="g2_359" />
<path d="M887.5,400.5l0,-1" class="g2_359" />
<path d="M46.5,796.5l0,-396" class="g2_359" />
<path d="M46.5,797.5l0,-1" class="g2_359" />
<path d="M46.5,797.5l0,-1" class="g2_359" />
<path d="M47.5,797.5l840,0" class="g2_359" />
<path d="M887.5,796.5l0,-396" class="g2_359" />
<path d="M887.5,797.5l0,-1" class="g2_359" />
<path d="M887.5,797.5l0,-1" class="g2_359" />
<path fill-rule="evenodd" d="M47,908l227,0l0,-24L47,884l0,24Z" class="g4_359" />
<g clip-path="url(#c2_359)">
<path fill-rule="evenodd" d="M55,908l211,0l0,-24L55,884l0,24Z" class="g4_359" />
</g>
<path fill-rule="evenodd" d="M275,908l81,0l0,-24l-81,0l0,24Z" class="g4_359" />
<g clip-path="url(#c3_359)">
<path fill-rule="evenodd" d="M283,908l66,0l0,-24l-66,0l0,24Z" class="g4_359" />
</g>
<path fill-rule="evenodd" d="M358,908l67,0l0,-24l-67,0l0,24Z" class="g4_359" />
<g clip-path="url(#c4_359)">
<path fill-rule="evenodd" d="M365,908l53,0l0,-24l-53,0l0,24Z" class="g4_359" />
</g>
<path fill-rule="evenodd" d="M427,908l460,0l0,-24l-460,0l0,24Z" class="g4_359" />
<g clip-path="url(#c5_359)">
<path fill-rule="evenodd" d="M434,908l446,0l0,-24l-446,0l0,24Z" class="g4_359" />
</g>
<path d="M46.5,884.5l0,-2" class="g2_359" />
<path d="M46.5,884.5l0,-2" class="g2_359" />
<path d="M47.5,884.5l227,0" class="g2_359" />
<path d="M274.5,884.5l0,-2" class="g2_359" />
<path d="M275.5,884.5l81,0" class="g2_359" />
<path d="M356.5,884.5l0,-2" class="g2_359" />
<path d="M358.5,884.5l67,0" class="g2_359" />
<path d="M425.5,884.5l0,-2" class="g2_359" />
<path d="M427.5,884.5l460,0" class="g2_359" />
<path d="M887.5,884.5l0,-2" class="g2_359" />
<path d="M887.5,884.5l0,-2" class="g2_359" />
<path d="M46.5,908.5l0,-24" class="g2_359" />
<path d="M274.5,908.5l0,-24" class="g2_359" />
<path d="M356.5,908.5l0,-24" class="g2_359" />
<path d="M425.5,908.5l0,-24" class="g2_359" />
<path d="M887.5,908.5l0,-24" class="g2_359" />
<path fill-rule="evenodd" d="M47,1083l27,0L74,910l-27,0l0,173Z" class="g1_359" />
<g clip-path="url(#c6_359)">
<path fill-rule="evenodd" d="M55,1083l19,0L74,910l-19,0l0,173Z" class="g1_359" />
</g>
<path fill-rule="evenodd" d="M76,934l198,0l0,-24L76,910l0,24Z" class="g1_359" />
<g clip-path="url(#c7_359)">
<path fill-rule="evenodd" d="M83,934l183,0l0,-24L83,910l0,24Z" class="g1_359" />
</g>
<path fill-rule="evenodd" d="M275,934l81,0l0,-24l-81,0l0,24Z" class="g1_359" />
<g clip-path="url(#c8_359)">
<path fill-rule="evenodd" d="M283,934l66,0l0,-24l-66,0l0,24Z" class="g1_359" />
</g>
<path fill-rule="evenodd" d="M358,934l67,0l0,-24l-67,0l0,24Z" class="g1_359" />
<g clip-path="url(#c9_359)">
<path fill-rule="evenodd" d="M365,934l53,0l0,-24l-53,0l0,24Z" class="g1_359" />
</g>
<path fill-rule="evenodd" d="M427,934l460,0l0,-24l-460,0l0,24Z" class="g1_359" />
<g clip-path="url(#c10_359)">
<path fill-rule="evenodd" d="M434,934l446,0l0,-24l-446,0l0,24Z" class="g1_359" />
</g>
<path d="M46.5,910.5l0,-2" class="g2_359" />
<path d="M47.5,910.5l27,0" class="g2_359" />
<path d="M74.5,910.5l0,-2" class="g2_359" />
<path d="M76.5,910.5l198,0" class="g2_359" />
<path d="M274.5,910.5l0,-2" class="g2_359" />
<path d="M275.5,910.5l81,0" class="g2_359" />
<path d="M356.5,910.5l0,-2" class="g2_359" />
<path d="M358.5,910.5l67,0" class="g2_359" />
<path d="M425.5,910.5l0,-2" class="g2_359" />
<path d="M427.5,910.5l460,0" class="g2_359" />
<path d="M887.5,910.5l0,-2" class="g2_359" />
<path d="M46.5,934.5l0,-24" class="g2_359" />
<path d="M74.5,934.5l0,-24" class="g2_359" />
<path d="M274.5,934.5l0,-24" class="g2_359" />
<path d="M356.5,934.5l0,-24" class="g2_359" />
<path d="M425.5,934.5l0,-24" class="g2_359" />
<path d="M887.5,934.5l0,-24" class="g2_359" />
<path fill-rule="evenodd" d="M76,959l198,0l0,-24L76,935l0,24Z" class="g1_359" />
<g clip-path="url(#c11_359)">
<path fill-rule="evenodd" d="M83,959l183,0l0,-24L83,935l0,24Z" class="g1_359" />
</g>
<path fill-rule="evenodd" d="M275,959l81,0l0,-24l-81,0l0,24Z" class="g1_359" />
<g clip-path="url(#c12_359)">
<path fill-rule="evenodd" d="M283,959l66,0l0,-24l-66,0l0,24Z" class="g1_359" />
</g>
<path fill-rule="evenodd" d="M358,959l67,0l0,-24l-67,0l0,24Z" class="g1_359" />
<g clip-path="url(#c13_359)">
<path fill-rule="evenodd" d="M365,959l53,0l0,-24l-53,0l0,24Z" class="g1_359" />
</g>
<path fill-rule="evenodd" d="M427,959l460,0l0,-24l-460,0l0,24Z" class="g1_359" />
<g clip-path="url(#c14_359)">
<path fill-rule="evenodd" d="M434,959l446,0l0,-24l-446,0l0,24Z" class="g1_359" />
</g>
<path d="M46.5,935.5l0,-1" class="g2_359" />
<path d="M74.5,935.5l0,-1" class="g2_359" />
<path d="M76.5,935.5l198,0" class="g2_359" />
<path d="M274.5,935.5l0,-1" class="g2_359" />
<path d="M275.5,935.5l81,0" class="g2_359" />
<path d="M356.5,935.5l0,-1" class="g2_359" />
<path d="M358.5,935.5l67,0" class="g2_359" />
<path d="M425.5,935.5l0,-1" class="g2_359" />
<path d="M427.5,935.5l460,0" class="g2_359" />
<path d="M887.5,935.5l0,-1" class="g2_359" />
<path d="M46.5,959.5l0,-24" class="g2_359" />
<path d="M74.5,959.5l0,-24" class="g2_359" />
<path d="M274.5,959.5l0,-24" class="g2_359" />
<path d="M356.5,959.5l0,-24" class="g2_359" />
<path d="M425.5,959.5l0,-24" class="g2_359" />
<path d="M887.5,959.5l0,-24" class="g2_359" />
<path fill-rule="evenodd" d="M76,1083l27,0l0,-123l-27,0l0,123Z" class="g1_359" />
<g clip-path="url(#c15_359)">
<path fill-rule="evenodd" d="M83,1083l20,0l0,-123l-20,0l0,123Z" class="g1_359" />
</g>
<path fill-rule="evenodd" d="M105,1083l31,0l0,-123l-31,0l0,123Z" class="g1_359" />
<g clip-path="url(#c16_359)">
<path fill-rule="evenodd" d="M112,1083l24,0l0,-123l-24,0l0,123Z" class="g1_359" />
</g>
<path fill-rule="evenodd" d="M138,987l136,0l0,-26l-136,0l0,26Z" class="g1_359" />
<path fill-rule="evenodd" d="M145,984l121,0l0,-23l-121,0l0,23Z" class="g1_359" />
<path fill-rule="evenodd" d="M275,987l81,0l0,-26l-81,0l0,26Z" class="g1_359" />
<path fill-rule="evenodd" d="M283,984l66,0l0,-23l-66,0l0,23Z" class="g1_359" />
<path fill-rule="evenodd" d="M358,987l67,0l0,-26l-67,0l0,26Z" class="g1_359" />
<path fill-rule="evenodd" d="M365,984l53,0l0,-23l-53,0l0,23Z" class="g1_359" />
<path fill-rule="evenodd" d="M427,987l460,0l0,-26l-460,0l0,26Z" class="g1_359" />
<path fill-rule="evenodd" d="M434,984l446,0l0,-23l-446,0l0,23Z" class="g1_359" />
<path d="M46.5,961.5l0,-2" class="g2_359" />
<path d="M74.5,961.5l0,-2" class="g2_359" />
<path d="M76.5,961.5l27,0" class="g2_359" />
<path d="M103.5,961.5l0,-2" class="g2_359" />
<path d="M105.5,961.5l31,0" class="g2_359" />
<path d="M136.5,961.5l0,-2" class="g2_359" />
<path d="M138.5,961.5l136,0" class="g2_359" />
<path d="M274.5,961.5l0,-2" class="g2_359" />
<path d="M275.5,961.5l81,0" class="g2_359" />
<path d="M356.5,961.5l0,-2" class="g2_359" />
<path d="M358.5,961.5l67,0" class="g2_359" />
<path d="M425.5,961.5l0,-2" class="g2_359" />
<path d="M427.5,961.5l460,0" class="g2_359" />
<path d="M887.5,961.5l0,-2" class="g2_359" />
<path d="M46.5,987.5l0,-26" class="g2_359" />
<path d="M74.5,987.5l0,-26" class="g2_359" />
<path d="M103.5,987.5l0,-26" class="g2_359" />
<path d="M136.5,987.5l0,-26" class="g2_359" />
<path d="M274.5,987.5l0,-26" class="g2_359" />
<path d="M356.5,987.5l0,-26" class="g2_359" />
<path d="M425.5,987.5l0,-26" class="g2_359" />
<path d="M887.5,987.5l0,-26" class="g2_359" />
<path fill-rule="evenodd" d="M138,1083l136,0l0,-95l-136,0l0,95Z" class="g1_359" />
<path fill-rule="evenodd" d="M145,1012l121,0l0,-24l-121,0l0,24Z" class="g1_359" />
<path fill-rule="evenodd" d="M275,1083l81,0l0,-95l-81,0l0,95Z" class="g1_359" />
<path fill-rule="evenodd" d="M283,1012l66,0l0,-24l-66,0l0,24Z" class="g1_359" />
<path fill-rule="evenodd" d="M358,1083l67,0l0,-95l-67,0l0,95Z" class="g1_359" />
<path fill-rule="evenodd" d="M365,1012l53,0l0,-24l-53,0l0,24Z" class="g1_359" />
<path fill-rule="evenodd" d="M427,1083l460,0l0,-95l-460,0l0,95Z" class="g1_359" />
<path fill-rule="evenodd" d="M434,1012l446,0l0,-24l-446,0l0,24Z" class="g1_359" />
<path fill-rule="evenodd" d="M434,1036l446,0l0,-24l-446,0l0,24Z" class="g1_359" />
<path fill-rule="evenodd" d="M434,1059l446,0l0,-23l-446,0l0,23Z" class="g1_359" />
<g clip-path="url(#c17_359)">
<path fill-rule="evenodd" d="M434,1083l446,0l0,-24l-446,0l0,24Z" class="g1_359" />
</g>
<path d="M46.5,988.5l0,-1" class="g2_359" />
<path d="M74.5,988.5l0,-1" class="g2_359" />
<path d="M103.5,988.5l0,-1" class="g2_359" />
<path d="M136.5,988.5l0,-1" class="g2_359" />
<path d="M138.5,988.5l136,0" class="g2_359" />
<path d="M274.5,988.5l0,-1" class="g2_359" />
<path d="M275.5,988.5l81,0" class="g2_359" />
<path d="M356.5,988.5l0,-1" class="g2_359" />
<path d="M358.5,988.5l67,0" class="g2_359" />
<path d="M425.5,988.5l0,-1" class="g2_359" />
<path d="M427.5,988.5l460,0" class="g2_359" />
<path d="M887.5,988.5l0,-1" class="g2_359" />
<path d="M46.5,1083.5l0,-95" class="g2_359" />
<path d="M46.5,1085.5l0,-2" class="g2_359" />
<path d="M46.5,1085.5l0,-2" class="g2_359" />
<path d="M47.5,1085.5l27,0" class="g2_359" />
<path d="M74.5,1083.5l0,-95" class="g2_359" />
<path d="M74.5,1085.5l0,-2" class="g2_359" />
<path d="M76.5,1085.5l27,0" class="g2_359" />
<path d="M103.5,1083.5l0,-95" class="g2_359" />
<path d="M103.5,1085.5l0,-2" class="g2_359" />
<path d="M105.5,1085.5l31,0" class="g2_359" />
<path d="M136.5,1083.5l0,-95" class="g2_359" />
<path d="M136.5,1085.5l0,-2" class="g2_359" />
<path d="M138.5,1085.5l136,0" class="g2_359" />
<path d="M274.5,1083.5l0,-95" class="g2_359" />
<path d="M274.5,1085.5l0,-2" class="g2_359" />
<path d="M275.5,1085.5l81,0" class="g2_359" />
<path d="M356.5,1083.5l0,-95" class="g2_359" />
<path d="M356.5,1085.5l0,-2" class="g2_359" />
<path d="M358.5,1085.5l67,0" class="g2_359" />
<path d="M425.5,1083.5l0,-95" class="g2_359" />
<path d="M425.5,1085.5l0,-2" class="g2_359" />
<path d="M427.5,1085.5l460,0" class="g2_359" />
<path d="M887.5,1083.5l0,-95" class="g2_359" />
<path d="M887.5,1085.5l0,-2" class="g2_359" />
<path d="M887.5,1085.5l0,-2" class="g2_359" />
</svg>