<?xml version="1.0" encoding="UTF-8" standalone="no"?>
<!DOCTYPE svg PUBLIC "-//W3C//DTD SVG 1.1//EN"
"http://www.w3.org/Graphics/SVG/1.1/DTD/svg11.dtd">
<svg version="1.1" xmlns="http://www.w3.org/2000/svg" xmlns:xlink="http://www.w3.org/1999/xlink">
<defs>
<clipPath id="c0_442"><path d="M47.5,187.5l0,-24l178,0l0,24Z" /></clipPath>
<clipPath id="c1_442"><path d="M227.5,187.5l0,-24l162,0l0,24Z" /></clipPath>
<clipPath id="c2_442"><path d="M391.5,187.5l0,-24l496,0l0,24Z" /></clipPath>
<clipPath id="c3_442"><path d="M47.5,212.5l0,-24l178,0l0,24Z" /></clipPath>
<clipPath id="c4_442"><path d="M227.5,212.5l0,-24l162,0l0,24Z" /></clipPath>
<clipPath id="c5_442"><path d="M391.5,212.5l0,-24l496,0l0,24Z" /></clipPath>
<clipPath id="c6_442"><path d="M47.5,286.5l0,-23l177,0l0,23Z" /></clipPath>
<clipPath id="c7_442"><path d="M226.5,286.5l0,-23l162,0l0,23Z" /></clipPath>
<clipPath id="c8_442"><path d="M390.5,286.5l0,-23l163,0l0,23Z" /></clipPath>
<clipPath id="c9_442"><path d="M554.5,286.5l0,-23l163,0l0,23Z" /></clipPath>
<clipPath id="c10_442"><path d="M719.5,286.5l0,-23l168,0l0,23Z" /></clipPath>
<clipPath id="c11_442"><path d="M47.5,312.5l0,-24l177,0l0,24Z" /></clipPath>
<clipPath id="c12_442"><path d="M226.5,312.5l0,-24l162,0l0,24Z" /></clipPath>
<clipPath id="c13_442"><path d="M390.5,312.5l0,-24l163,0l0,24Z" /></clipPath>
<clipPath id="c14_442"><path d="M554.5,312.5l0,-24l163,0l0,24Z" /></clipPath>
<clipPath id="c15_442"><path d="M719.5,312.5l0,-24l168,0l0,24Z" /></clipPath>
<clipPath id="c16_442"><path d="M213.5,694.5l0,-95l137,0l0,95Z" /></clipPath>
<clipPath id="c17_442"><path d="M351.5,694.5l0,-95l88,0l0,95Z" /></clipPath>
<clipPath id="c18_442"><path d="M440.5,694.5l0,-95l68,0l0,95Z" /></clipPath>
<clipPath id="c19_442"><path d="M509.5,694.5l0,-95l378,0l0,95Z" /></clipPath>
<clipPath id="c20_442"><path d="M47.5,817.5l0,-24l840,0l0,24Z" /></clipPath>
<clipPath id="c21_442"><path d="M47.5,1082.5l0,-239l840,0l0,239Z" /></clipPath>
<style type="text/css"><![CDATA[
.g2_442{
fill: none;
stroke: #7E7E7E;
stroke-width: 1;
stroke-linecap: butt;
stroke-linejoin: miter;
}
.g3_442{
fill: #F1F1F1;
}
.g1_442{
fill: #DBE5F1;
}
]]></style>
</defs>
<path fill-rule="evenodd" d="M47,187l178,0l0,-24L47,163l0,24Z" class="g1_442" />
<g clip-path="url(#c0_442)">
<path fill-rule="evenodd" d="M55,187l162,0l0,-24L55,163l0,24Z" class="g1_442" />
</g>
<path fill-rule="evenodd" d="M226,187l163,0l0,-24l-163,0l0,24Z" class="g1_442" />
<g clip-path="url(#c1_442)">
<path fill-rule="evenodd" d="M234,187l148,0l0,-24l-148,0l0,24Z" class="g1_442" />
</g>
<path fill-rule="evenodd" d="M391,187l496,0l0,-24l-496,0l0,24Z" class="g1_442" />
<g clip-path="url(#c2_442)">
<path fill-rule="evenodd" d="M398,187l482,0l0,-24l-482,0l0,24Z" class="g1_442" />
</g>
<path d="M46.5,163.5l0,-2" class="g2_442" />
<path d="M46.5,163.5l0,-2" class="g2_442" />
<path d="M47.5,163.5l178,0" class="g2_442" />
<path d="M225.5,163.5l0,-2" class="g2_442" />
<path d="M226.5,163.5l163,0" class="g2_442" />
<path d="M389.5,163.5l0,-2" class="g2_442" />
<path d="M391.5,163.5l496,0" class="g2_442" />
<path d="M887.5,163.5l0,-2" class="g2_442" />
<path d="M887.5,163.5l0,-2" class="g2_442" />
<path d="M46.5,187.5l0,-24" class="g2_442" />
<path d="M225.5,187.5l0,-24" class="g2_442" />
<path d="M389.5,187.5l0,-24" class="g2_442" />
<path d="M887.5,187.5l0,-24" class="g2_442" />
<path fill-rule="evenodd" d="M47,212l178,0l0,-24L47,188l0,24Z" class="g3_442" />
<g clip-path="url(#c3_442)">
<path fill-rule="evenodd" d="M55,212l162,0l0,-24L55,188l0,24Z" class="g3_442" />
</g>
<path fill-rule="evenodd" d="M226,212l163,0l0,-24l-163,0l0,24Z" class="g3_442" />
<g clip-path="url(#c4_442)">
<path fill-rule="evenodd" d="M234,212l148,0l0,-24l-148,0l0,24Z" class="g3_442" />
</g>
<path fill-rule="evenodd" d="M391,212l496,0l0,-24l-496,0l0,24Z" class="g3_442" />
<g clip-path="url(#c5_442)">
<path fill-rule="evenodd" d="M398,212l482,0l0,-24l-482,0l0,24Z" class="g3_442" />
</g>
<path d="M46.5,188.5l0,-1" class="g2_442" />
<path d="M47.5,188.5l178,0" class="g2_442" />
<path d="M225.5,188.5l0,-1" class="g2_442" />
<path d="M226.5,188.5l163,0" class="g2_442" />
<path d="M389.5,188.5l0,-1" class="g2_442" />
<path d="M391.5,188.5l496,0" class="g2_442" />
<path d="M887.5,188.5l0,-1" class="g2_442" />
<path d="M46.5,212.5l0,-24" class="g2_442" />
<path d="M46.5,213.5l0,-1" class="g2_442" />
<path d="M46.5,213.5l0,-1" class="g2_442" />
<path d="M47.5,213.5l178,0" class="g2_442" />
<path d="M225.5,212.5l0,-24" class="g2_442" />
<path d="M225.5,213.5l0,-1" class="g2_442" />
<path d="M226.5,213.5l163,0" class="g2_442" />
<path d="M389.5,212.5l0,-24" class="g2_442" />
<path d="M389.5,213.5l0,-1" class="g2_442" />
<path d="M391.5,213.5l496,0" class="g2_442" />
<path d="M887.5,212.5l0,-24" class="g2_442" />
<path d="M887.5,213.5l0,-1" class="g2_442" />
<path d="M887.5,213.5l0,-1" class="g2_442" />
<path fill-rule="evenodd" d="M47,286l177,0l0,-23L47,263l0,23Z" class="g1_442" />
<g clip-path="url(#c6_442)">
<path fill-rule="evenodd" d="M55,286l162,0l0,-23L55,263l0,23Z" class="g1_442" />
</g>
<path fill-rule="evenodd" d="M226,286l162,0l0,-23l-162,0l0,23Z" class="g1_442" />
<g clip-path="url(#c7_442)">
<path fill-rule="evenodd" d="M233,286l148,0l0,-23l-148,0l0,23Z" class="g1_442" />
</g>
<path fill-rule="evenodd" d="M390,286l163,0l0,-23l-163,0l0,23Z" class="g1_442" />
<g clip-path="url(#c8_442)">
<path fill-rule="evenodd" d="M397,286l148,0l0,-23l-148,0l0,23Z" class="g1_442" />
</g>
<path fill-rule="evenodd" d="M554,286l163,0l0,-23l-163,0l0,23Z" class="g1_442" />
<g clip-path="url(#c9_442)">
<path fill-rule="evenodd" d="M562,286l148,0l0,-23l-148,0l0,23Z" class="g1_442" />
</g>
<path fill-rule="evenodd" d="M719,286l168,0l0,-23l-168,0l0,23Z" class="g1_442" />
<g clip-path="url(#c10_442)">
<path fill-rule="evenodd" d="M726,286l154,0l0,-23l-154,0l0,23Z" class="g1_442" />
</g>
<path d="M46.5,263.5l0,-2" class="g2_442" />
<path d="M46.5,263.5l0,-2" class="g2_442" />
<path d="M47.5,263.5l177,0" class="g2_442" />
<path d="M224.5,263.5l0,-2" class="g2_442" />
<path d="M226.5,263.5l162,0" class="g2_442" />
<path d="M388.5,263.5l0,-2" class="g2_442" />
<path d="M390.5,263.5l163,0" class="g2_442" />
<path d="M553.5,263.5l0,-2" class="g2_442" />
<path d="M554.5,263.5l163,0" class="g2_442" />
<path d="M717.5,263.5l0,-2" class="g2_442" />
<path d="M719.5,263.5l168,0" class="g2_442" />
<path d="M887.5,263.5l0,-2" class="g2_442" />
<path d="M887.5,263.5l0,-2" class="g2_442" />
<path d="M46.5,286.5l0,-23" class="g2_442" />
<path d="M224.5,286.5l0,-23" class="g2_442" />
<path d="M388.5,286.5l0,-23" class="g2_442" />
<path d="M553.5,286.5l0,-23" class="g2_442" />
<path d="M717.5,286.5l0,-23" class="g2_442" />
<path d="M887.5,286.5l0,-23" class="g2_442" />
<path fill-rule="evenodd" d="M47,312l177,0l0,-24L47,288l0,24Z" class="g3_442" />
<g clip-path="url(#c11_442)">
<path fill-rule="evenodd" d="M55,312l162,0l0,-24L55,288l0,24Z" class="g3_442" />
</g>
<path fill-rule="evenodd" d="M226,312l162,0l0,-24l-162,0l0,24Z" class="g3_442" />
<g clip-path="url(#c12_442)">
<path fill-rule="evenodd" d="M233,312l148,0l0,-24l-148,0l0,24Z" class="g3_442" />
</g>
<path fill-rule="evenodd" d="M390,312l163,0l0,-24l-163,0l0,24Z" class="g3_442" />
<g clip-path="url(#c13_442)">
<path fill-rule="evenodd" d="M397,312l148,0l0,-24l-148,0l0,24Z" class="g3_442" />
</g>
<path fill-rule="evenodd" d="M554,312l163,0l0,-24l-163,0l0,24Z" class="g3_442" />
<g clip-path="url(#c14_442)">
<path fill-rule="evenodd" d="M562,312l148,0l0,-24l-148,0l0,24Z" class="g3_442" />
</g>
<path fill-rule="evenodd" d="M719,312l168,0l0,-24l-168,0l0,24Z" class="g3_442" />
<g clip-path="url(#c15_442)">
<path fill-rule="evenodd" d="M726,312l154,0l0,-24l-154,0l0,24Z" class="g3_442" />
</g>
<path d="M46.5,288.5l0,-2" class="g2_442" />
<path d="M47.5,288.5l177,0" class="g2_442" />
<path d="M224.5,288.5l0,-2" class="g2_442" />
<path d="M226.5,288.5l162,0" class="g2_442" />
<path d="M388.5,288.5l0,-2" class="g2_442" />
<path d="M390.5,288.5l163,0" class="g2_442" />
<path d="M553.5,288.5l0,-2" class="g2_442" />
<path d="M554.5,288.5l163,0" class="g2_442" />
<path d="M717.5,288.5l0,-2" class="g2_442" />
<path d="M719.5,288.5l168,0" class="g2_442" />
<path d="M887.5,288.5l0,-2" class="g2_442" />
<path d="M46.5,312.5l0,-24" class="g2_442" />
<path d="M46.5,313.5l0,-1" class="g2_442" />
<path d="M46.5,313.5l0,-1" class="g2_442" />
<path d="M47.5,313.5l177,0" class="g2_442" />
<path d="M224.5,312.5l0,-24" class="g2_442" />
<path d="M224.5,313.5l0,-1" class="g2_442" />
<path d="M226.5,313.5l162,0" class="g2_442" />
<path d="M388.5,312.5l0,-24" class="g2_442" />
<path d="M388.5,313.5l0,-1" class="g2_442" />
<path d="M390.5,313.5l163,0" class="g2_442" />
<path d="M553.5,312.5l0,-24" class="g2_442" />
<path d="M553.5,313.5l0,-1" class="g2_442" />
<path d="M554.5,313.5l163,0" class="g2_442" />
<path d="M717.5,312.5l0,-24" class="g2_442" />
<path d="M717.5,313.5l0,-1" class="g2_442" />
<path d="M719.5,313.5l168,0" class="g2_442" />
<path d="M887.5,312.5l0,-24" class="g2_442" />
<path d="M887.5,313.5l0,-1" class="g2_442" />
<path d="M887.5,313.5l0,-1" class="g2_442" />
<path fill-rule="evenodd" d="M47,424l303,0l0,-24L47,400l0,24Z" class="g1_442" />
<path fill-rule="evenodd" d="M55,424l287,0l0,-24L55,400l0,24Z" class="g1_442" />
<path fill-rule="evenodd" d="M351,424l88,0l0,-24l-88,0l0,24Z" class="g1_442" />
<path fill-rule="evenodd" d="M359,424l72,0l0,-24l-72,0l0,24Z" class="g1_442" />
<path fill-rule="evenodd" d="M440,424l68,0l0,-24l-68,0l0,24Z" class="g1_442" />
<path fill-rule="evenodd" d="M448,424l52,0l0,-24l-52,0l0,24Z" class="g1_442" />
<path fill-rule="evenodd" d="M509,424l378,0l0,-24l-378,0l0,24Z" class="g1_442" />
<path fill-rule="evenodd" d="M517,424l363,0l0,-24l-363,0l0,24Z" class="g1_442" />
<path d="M46.5,400.5l0,-2" class="g2_442" />
<path d="M46.5,400.5l0,-2" class="g2_442" />
<path d="M47.5,400.5l303,0" class="g2_442" />
<path d="M350.5,400.5l0,-2" class="g2_442" />
<path d="M351.5,400.5l88,0" class="g2_442" />
<path d="M439.5,400.5l0,-2" class="g2_442" />
<path d="M440.5,400.5l68,0" class="g2_442" />
<path d="M508.5,400.5l0,-2" class="g2_442" />
<path d="M509.5,400.5l378,0" class="g2_442" />
<path d="M887.5,400.5l0,-2" class="g2_442" />
<path d="M887.5,400.5l0,-2" class="g2_442" />
<path d="M46.5,424.5l0,-24" class="g2_442" />
<path d="M350.5,424.5l0,-24" class="g2_442" />
<path d="M439.5,424.5l0,-24" class="g2_442" />
<path d="M508.5,424.5l0,-24" class="g2_442" />
<path d="M887.5,424.5l0,-24" class="g2_442" />
<path fill-rule="evenodd" d="M47,694l39,0L86,426l-39,0l0,268Z" class="g3_442" />
<path fill-rule="evenodd" d="M55,694l23,0L78,426l-23,0l0,268Z" class="g3_442" />
<path fill-rule="evenodd" d="M87,450l263,0l0,-24L87,426l0,24Z" class="g3_442" />
<path fill-rule="evenodd" d="M95,449l247,0l0,-23L95,426l0,23Z" class="g3_442" />
<path fill-rule="evenodd" d="M351,450l88,0l0,-24l-88,0l0,24Z" class="g3_442" />
<path fill-rule="evenodd" d="M359,449l72,0l0,-23l-72,0l0,23Z" class="g3_442" />
<path fill-rule="evenodd" d="M440,450l68,0l0,-24l-68,0l0,24Z" class="g3_442" />
<path fill-rule="evenodd" d="M448,449l52,0l0,-23l-52,0l0,23Z" class="g3_442" />
<path fill-rule="evenodd" d="M509,450l378,0l0,-24l-378,0l0,24Z" class="g3_442" />
<path fill-rule="evenodd" d="M517,449l363,0l0,-23l-363,0l0,23Z" class="g3_442" />
<path d="M46.5,426.5l0,-2" class="g2_442" />
<path d="M47.5,426.5l39,0" class="g2_442" />
<path d="M86.5,426.5l0,-2" class="g2_442" />
<path d="M87.5,426.5l263,0" class="g2_442" />
<path d="M350.5,426.5l0,-2" class="g2_442" />
<path d="M351.5,426.5l88,0" class="g2_442" />
<path d="M439.5,426.5l0,-2" class="g2_442" />
<path d="M440.5,426.5l68,0" class="g2_442" />
<path d="M508.5,426.5l0,-2" class="g2_442" />
<path d="M509.5,426.5l378,0" class="g2_442" />
<path d="M887.5,426.5l0,-2" class="g2_442" />
<path d="M46.5,450.5l0,-24" class="g2_442" />
<path d="M86.5,450.5l0,-24" class="g2_442" />
<path d="M350.5,450.5l0,-24" class="g2_442" />
<path d="M439.5,450.5l0,-24" class="g2_442" />
<path d="M508.5,450.5l0,-24" class="g2_442" />
<path d="M887.5,450.5l0,-24" class="g2_442" />
<path fill-rule="evenodd" d="M87,694l40,0l0,-243l-40,0l0,243Z" class="g3_442" />
<path fill-rule="evenodd" d="M95,694l24,0l0,-243l-24,0l0,243Z" class="g3_442" />
<path fill-rule="evenodd" d="M128,694l28,0l0,-243l-28,0l0,243Z" class="g3_442" />
<path fill-rule="evenodd" d="M136,694l20,0l0,-243l-20,0l0,243Z" class="g3_442" />
<path fill-rule="evenodd" d="M158,694l26,0l0,-243l-26,0l0,243Z" class="g3_442" />
<path fill-rule="evenodd" d="M165,694l19,0l0,-243l-19,0l0,243Z" class="g3_442" />
<path fill-rule="evenodd" d="M186,694l26,0l0,-243l-26,0l0,243Z" class="g3_442" />
<path fill-rule="evenodd" d="M193,694l19,0l0,-243l-19,0l0,243Z" class="g3_442" />
<path fill-rule="evenodd" d="M213,524l137,0l0,-73l-137,0l0,73Z" class="g3_442" />
<path fill-rule="evenodd" d="M221,475l121,0l0,-24l-121,0l0,24Z" class="g3_442" />
<path fill-rule="evenodd" d="M351,524l88,0l0,-73l-88,0l0,73Z" class="g3_442" />
<path fill-rule="evenodd" d="M359,475l72,0l0,-24l-72,0l0,24Z" class="g3_442" />
<path fill-rule="evenodd" d="M440,524l68,0l0,-73l-68,0l0,73Z" class="g3_442" />
<path fill-rule="evenodd" d="M448,475l52,0l0,-24l-52,0l0,24Z" class="g3_442" />
<path fill-rule="evenodd" d="M509,524l378,0l0,-73l-378,0l0,73Z" class="g3_442" />
<path fill-rule="evenodd" d="M517,475l363,0l0,-24l-363,0l0,24Z" class="g3_442" />
<path d="M46.5,451.5l0,-1" class="g2_442" />
<path d="M86.5,451.5l0,-1" class="g2_442" />
<path d="M87.5,451.5l40,0" class="g2_442" />
<path d="M127.5,451.5l0,-1" class="g2_442" />
<path d="M128.5,451.5l28,0" class="g2_442" />
<path d="M156.5,451.5l0,-1" class="g2_442" />
<path d="M158.5,451.5l26,0" class="g2_442" />
<path d="M184.5,451.5l0,-1" class="g2_442" />
<path d="M186.5,451.5l26,0" class="g2_442" />
<path d="M212.5,451.5l0,-1" class="g2_442" />
<path d="M213.5,451.5l137,0" class="g2_442" />
<path d="M350.5,451.5l0,-1" class="g2_442" />
<path d="M351.5,451.5l88,0" class="g2_442" />
<path d="M439.5,451.5l0,-1" class="g2_442" />
<path d="M440.5,451.5l68,0" class="g2_442" />
<path d="M508.5,451.5l0,-1" class="g2_442" />
<path d="M509.5,451.5l378,0" class="g2_442" />
<path d="M887.5,451.5l0,-1" class="g2_442" />
<path d="M46.5,524.5l0,-73" class="g2_442" />
<path d="M86.5,524.5l0,-73" class="g2_442" />
<path d="M127.5,524.5l0,-73" class="g2_442" />
<path d="M156.5,524.5l0,-73" class="g2_442" />
<path d="M184.5,524.5l0,-73" class="g2_442" />
<path d="M212.5,524.5l0,-73" class="g2_442" />
<path d="M350.5,524.5l0,-73" class="g2_442" />
<path d="M439.5,524.5l0,-73" class="g2_442" />
<path d="M508.5,524.5l0,-73" class="g2_442" />
<path d="M887.5,524.5l0,-73" class="g2_442" />
<path fill-rule="evenodd" d="M213,597l137,0l0,-72l-137,0l0,72Z" class="g3_442" />
<path fill-rule="evenodd" d="M221,549l121,0l0,-24l-121,0l0,24Z" class="g3_442" />
<path fill-rule="evenodd" d="M351,597l88,0l0,-72l-88,0l0,72Z" class="g3_442" />
<path fill-rule="evenodd" d="M359,549l72,0l0,-24l-72,0l0,24Z" class="g3_442" />
<path fill-rule="evenodd" d="M440,597l68,0l0,-72l-68,0l0,72Z" class="g3_442" />
<path fill-rule="evenodd" d="M448,549l52,0l0,-24l-52,0l0,24Z" class="g3_442" />
<path fill-rule="evenodd" d="M509,597l378,0l0,-72l-378,0l0,72Z" class="g3_442" />
<path fill-rule="evenodd" d="M517,549l363,0l0,-24l-363,0l0,24Z" class="g3_442" />
<path fill-rule="evenodd" d="M517,573l363,0l0,-24l-363,0l0,24Z" class="g3_442" />
<path d="M46.5,525.5l0,-1" class="g2_442" />
<path d="M86.5,525.5l0,-1" class="g2_442" />
<path d="M127.5,525.5l0,-1" class="g2_442" />
<path d="M156.5,525.5l0,-1" class="g2_442" />
<path d="M184.5,525.5l0,-1" class="g2_442" />
<path d="M212.5,525.5l0,-1" class="g2_442" />
<path d="M213.5,525.5l137,0" class="g2_442" />
<path d="M350.5,525.5l0,-1" class="g2_442" />
<path d="M351.5,525.5l88,0" class="g2_442" />
<path d="M439.5,525.5l0,-1" class="g2_442" />
<path d="M440.5,525.5l68,0" class="g2_442" />
<path d="M508.5,525.5l0,-1" class="g2_442" />
<path d="M509.5,525.5l378,0" class="g2_442" />
<path d="M887.5,525.5l0,-1" class="g2_442" />
<path d="M46.5,597.5l0,-72" class="g2_442" />
<path d="M86.5,597.5l0,-72" class="g2_442" />
<path d="M127.5,597.5l0,-72" class="g2_442" />
<path d="M156.5,597.5l0,-72" class="g2_442" />
<path d="M184.5,597.5l0,-72" class="g2_442" />
<path d="M212.5,597.5l0,-72" class="g2_442" />
<path d="M350.5,597.5l0,-72" class="g2_442" />
<path d="M439.5,597.5l0,-72" class="g2_442" />
<path d="M508.5,597.5l0,-72" class="g2_442" />
<path d="M887.5,597.5l0,-72" class="g2_442" />
<path fill-rule="evenodd" d="M213,694l137,0l0,-95l-137,0l0,95Z" class="g3_442" />
<g clip-path="url(#c16_442)">
<path fill-rule="evenodd" d="M221,623l121,0l0,-24l-121,0l0,24Z" class="g3_442" />
</g>
<path fill-rule="evenodd" d="M351,694l88,0l0,-95l-88,0l0,95Z" class="g3_442" />
<g clip-path="url(#c17_442)">
<path fill-rule="evenodd" d="M359,623l72,0l0,-24l-72,0l0,24Z" class="g3_442" />
</g>
<path fill-rule="evenodd" d="M440,694l68,0l0,-95l-68,0l0,95Z" class="g3_442" />
<g clip-path="url(#c18_442)">
<path fill-rule="evenodd" d="M448,623l52,0l0,-24l-52,0l0,24Z" class="g3_442" />
</g>
<path fill-rule="evenodd" d="M509,694l378,0l0,-95l-378,0l0,95Z" class="g3_442" />
<g clip-path="url(#c19_442)">
<path fill-rule="evenodd" d="M517,623l363,0l0,-24l-363,0l0,24Z" class="g3_442" />
</g>
<path fill-rule="evenodd" d="M517,647l363,0l0,-24l-363,0l0,24Z" class="g3_442" />
<path fill-rule="evenodd" d="M517,670l363,0l0,-23l-363,0l0,23Z" class="g3_442" />
<path fill-rule="evenodd" d="M517,694l363,0l0,-24l-363,0l0,24Z" class="g3_442" />
<path d="M46.5,599.5l0,-2" class="g2_442" />
<path d="M86.5,599.5l0,-2" class="g2_442" />
<path d="M127.5,599.5l0,-2" class="g2_442" />
<path d="M156.5,599.5l0,-2" class="g2_442" />
<path d="M184.5,599.5l0,-2" class="g2_442" />
<path d="M212.5,599.5l0,-2" class="g2_442" />
<path d="M213.5,599.5l137,0" class="g2_442" />
<path d="M350.5,599.5l0,-2" class="g2_442" />
<path d="M351.5,599.5l88,0" class="g2_442" />
<path d="M439.5,599.5l0,-2" class="g2_442" />
<path d="M440.5,599.5l68,0" class="g2_442" />
<path d="M508.5,599.5l0,-2" class="g2_442" />
<path d="M509.5,599.5l378,0" class="g2_442" />
<path d="M887.5,599.5l0,-2" class="g2_442" />
<path d="M46.5,694.5l0,-95" class="g2_442" />
<path d="M46.5,696.5l0,-2" class="g2_442" />
<path d="M46.5,696.5l0,-2" class="g2_442" />
<path d="M47.5,696.5l39,0" class="g2_442" />
<path d="M86.5,694.5l0,-95" class="g2_442" />
<path d="M86.5,696.5l0,-2" class="g2_442" />
<path d="M87.5,696.5l40,0" class="g2_442" />
<path d="M127.5,694.5l0,-95" class="g2_442" />
<path d="M127.5,696.5l0,-2" class="g2_442" />
<path d="M128.5,696.5l28,0" class="g2_442" />
<path d="M156.5,694.5l0,-95" class="g2_442" />
<path d="M156.5,696.5l0,-2" class="g2_442" />
<path d="M158.5,696.5l26,0" class="g2_442" />
<path d="M184.5,694.5l0,-95" class="g2_442" />
<path d="M184.5,696.5l0,-2" class="g2_442" />
<path d="M186.5,696.5l26,0" class="g2_442" />
<path d="M212.5,694.5l0,-95" class="g2_442" />
<path d="M212.5,696.5l0,-2" class="g2_442" />
<path d="M213.5,696.5l137,0" class="g2_442" />
<path d="M350.5,694.5l0,-95" class="g2_442" />
<path d="M350.5,696.5l0,-2" class="g2_442" />
<path d="M351.5,696.5l88,0" class="g2_442" />
<path d="M439.5,694.5l0,-95" class="g2_442" />
<path d="M439.5,696.5l0,-2" class="g2_442" />
<path d="M440.5,696.5l68,0" class="g2_442" />
<path d="M508.5,694.5l0,-95" class="g2_442" />
<path d="M508.5,696.5l0,-2" class="g2_442" />
<path d="M509.5,696.5l378,0" class="g2_442" />
<path d="M887.5,694.5l0,-95" class="g2_442" />
<path d="M887.5,696.5l0,-2" class="g2_442" />
<path d="M887.5,696.5l0,-2" class="g2_442" />
<path fill-rule="evenodd" d="M47,817l840,0l0,-24L47,793l0,24Z" class="g3_442" />
<g clip-path="url(#c20_442)">
<path fill-rule="evenodd" d="M55,817l825,0l0,-24L55,793l0,24Z" class="g3_442" />
</g>
<path d="M46.5,793.5l0,-2" class="g2_442" />
<path d="M46.5,793.5l0,-2" class="g2_442" />
<path d="M47.5,793.5l840,0" class="g2_442" />
<path d="M887.5,793.5l0,-2" class="g2_442" />
<path d="M887.5,793.5l0,-2" class="g2_442" />
<path d="M46.5,817.5l0,-24" class="g2_442" />
<path d="M46.5,818.5l0,-1" class="g2_442" />
<path d="M46.5,818.5l0,-1" class="g2_442" />
<path d="M47.5,818.5l840,0" class="g2_442" />
<path d="M887.5,817.5l0,-24" class="g2_442" />
<path d="M887.5,818.5l0,-1" class="g2_442" />
<path d="M887.5,818.5l0,-1" class="g2_442" />
<path fill-rule="evenodd" d="M47,1082l840,0l0,-239L47,843l0,239Z" class="g3_442" />
<g clip-path="url(#c21_442)">
<path fill-rule="evenodd" d="M55,867l825,0l0,-24L55,843l0,24Z" class="g3_442" />
</g>
<path fill-rule="evenodd" d="M55,891l825,0l0,-24L55,867l0,24Z" class="g3_442" />
<path fill-rule="evenodd" d="M55,915l825,0l0,-24L55,891l0,24Z" class="g3_442" />
<path fill-rule="evenodd" d="M55,939l825,0l0,-24L55,915l0,24Z" class="g3_442" />
<path fill-rule="evenodd" d="M55,963l825,0l0,-24L55,939l0,24Z" class="g3_442" />
<path fill-rule="evenodd" d="M55,987l825,0l0,-24L55,963l0,24Z" class="g3_442" />
<path fill-rule="evenodd" d="M55,1010l825,0l0,-23L55,987l0,23Z" class="g3_442" />
<path fill-rule="evenodd" d="M55,1034l825,0l0,-24l-825,0l0,24Z" class="g3_442" />
<path fill-rule="evenodd" d="M55,1058l825,0l0,-24l-825,0l0,24Z" class="g3_442" />
<g clip-path="url(#c21_442)">
<path fill-rule="evenodd" d="M55,1082l825,0l0,-24l-825,0l0,24Z" class="g3_442" />
</g>
<path d="M46.5,843.5l0,-1" class="g2_442" />
<path d="M46.5,843.5l0,-1" class="g2_442" />
<path d="M47.5,843.5l840,0" class="g2_442" />
<path d="M887.5,843.5l0,-1" class="g2_442" />
<path d="M887.5,843.5l0,-1" class="g2_442" />
<path d="M46.5,1082.5l0,-239" class="g2_442" />
<path d="M46.5,1083.5l0,-1" class="g2_442" />
<path d="M46.5,1083.5l0,-1" class="g2_442" />
<path d="M47.5,1083.5l840,0" class="g2_442" />
<path d="M887.5,1082.5l0,-239" class="g2_442" />
<path d="M887.5,1083.5l0,-1" class="g2_442" />
<path d="M887.5,1083.5l0,-1" class="g2_442" />
</svg>