<?xml version="1.0" encoding="UTF-8" standalone="no"?>
<!DOCTYPE svg PUBLIC "-//W3C//DTD SVG 1.1//EN"
"http://www.w3.org/Graphics/SVG/1.1/DTD/svg11.dtd">
<svg version="1.1" xmlns="http://www.w3.org/2000/svg" xmlns:xlink="http://www.w3.org/1999/xlink">
<defs>
<clipPath id="c0_74"><path d="M47.5,159.5l0,-24l179,0l0,24Z" /></clipPath>
<clipPath id="c1_74"><path d="M227.5,159.5l0,-24l163,0l0,24Z" /></clipPath>
<clipPath id="c2_74"><path d="M392.5,159.5l0,-24l495,0l0,24Z" /></clipPath>
<clipPath id="c3_74"><path d="M47.5,184.5l0,-24l179,0l0,24Z" /></clipPath>
<clipPath id="c4_74"><path d="M227.5,184.5l0,-24l163,0l0,24Z" /></clipPath>
<clipPath id="c5_74"><path d="M392.5,184.5l0,-24l495,0l0,24Z" /></clipPath>
<clipPath id="c6_74"><path d="M47.5,259.5l0,-24l178,0l0,24Z" /></clipPath>
<clipPath id="c7_74"><path d="M227.5,259.5l0,-24l163,0l0,24Z" /></clipPath>
<clipPath id="c8_74"><path d="M392.5,259.5l0,-24l164,0l0,24Z" /></clipPath>
<clipPath id="c9_74"><path d="M558.5,259.5l0,-24l163,0l0,24Z" /></clipPath>
<clipPath id="c10_74"><path d="M723.5,259.5l0,-24l164,0l0,24Z" /></clipPath>
<clipPath id="c11_74"><path d="M47.5,284.5l0,-24l178,0l0,24Z" /></clipPath>
<clipPath id="c12_74"><path d="M227.5,284.5l0,-24l163,0l0,24Z" /></clipPath>
<clipPath id="c13_74"><path d="M392.5,284.5l0,-24l164,0l0,24Z" /></clipPath>
<clipPath id="c14_74"><path d="M558.5,284.5l0,-24l163,0l0,24Z" /></clipPath>
<clipPath id="c15_74"><path d="M723.5,284.5l0,-24l164,0l0,24Z" /></clipPath>
<clipPath id="c16_74"><path d="M47.5,396.5l0,-24l415,0l0,24Z" /></clipPath>
<clipPath id="c17_74"><path d="M464.5,396.5l0,-24l78,0l0,24Z" /></clipPath>
<clipPath id="c18_74"><path d="M544.5,396.5l0,-24l64,0l0,24Z" /></clipPath>
<clipPath id="c19_74"><path d="M609.5,396.5l0,-24l278,0l0,24Z" /></clipPath>
<clipPath id="c20_74"><path d="M88.5,890.5l0,-443l39,0l0,443Z" /></clipPath>
<clipPath id="c21_74"><path d="M129.5,890.5l0,-443l39,0l0,443Z" /></clipPath>
<clipPath id="c22_74"><path d="M169.5,500.5l0,-24l293,0l0,24Z" /></clipPath>
<clipPath id="c23_74"><path d="M464.5,500.5l0,-24l78,0l0,24Z" /></clipPath>
<clipPath id="c24_74"><path d="M544.5,500.5l0,-24l64,0l0,24Z" /></clipPath>
<clipPath id="c25_74"><path d="M609.5,500.5l0,-24l278,0l0,24Z" /></clipPath>
<clipPath id="c26_74"><path d="M169.5,890.5l0,-243l114,0l0,243Z" /></clipPath>
<clipPath id="c27_74"><path d="M284.5,890.5l0,-243l39,0l0,243Z" /></clipPath>
<clipPath id="c28_74"><path d="M324.5,670.5l0,-23l138,0l0,23Z" /></clipPath>
<clipPath id="c29_74"><path d="M464.5,670.5l0,-23l78,0l0,23Z" /></clipPath>
<clipPath id="c30_74"><path d="M544.5,670.5l0,-23l64,0l0,23Z" /></clipPath>
<clipPath id="c31_74"><path d="M609.5,670.5l0,-23l278,0l0,23Z" /></clipPath>
<clipPath id="c32_74"><path d="M324.5,720.5l0,-48l138,0l0,48Z" /></clipPath>
<clipPath id="c33_74"><path d="M464.5,720.5l0,-48l78,0l0,48Z" /></clipPath>
<clipPath id="c34_74"><path d="M544.5,720.5l0,-48l64,0l0,48Z" /></clipPath>
<clipPath id="c35_74"><path d="M609.5,720.5l0,-48l278,0l0,48Z" /></clipPath>
<clipPath id="c36_74"><path d="M324.5,769.5l0,-48l138,0l0,48Z" /></clipPath>
<clipPath id="c37_74"><path d="M464.5,769.5l0,-48l78,0l0,48Z" /></clipPath>
<clipPath id="c38_74"><path d="M544.5,769.5l0,-48l64,0l0,48Z" /></clipPath>
<clipPath id="c39_74"><path d="M609.5,769.5l0,-48l278,0l0,48Z" /></clipPath>
<clipPath id="c40_74"><path d="M324.5,890.5l0,-120l138,0l0,120Z" /></clipPath>
<clipPath id="c41_74"><path d="M464.5,890.5l0,-120l78,0l0,120Z" /></clipPath>
<clipPath id="c42_74"><path d="M544.5,890.5l0,-120l64,0l0,120Z" /></clipPath>
<clipPath id="c43_74"><path d="M609.5,890.5l0,-120l278,0l0,120Z" /></clipPath>
<clipPath id="c44_74"><path d="M47.5,1012.5l0,-24l840,0l0,24Z" /></clipPath>
<clipPath id="c45_74"><path d="M47.5,1086.5l0,-47l840,0l0,47Z" /></clipPath>
<style type="text/css"><![CDATA[
.g2_74{
fill: none;
stroke: #7E7E7E;
stroke-width: 1;
stroke-linecap: butt;
stroke-linejoin: miter;
}
.g3_74{
fill: #F1F1F1;
}
.g1_74{
fill: #DBE5F1;
}
]]></style>
</defs>
<path fill-rule="evenodd" d="M47,159l179,0l0,-24L47,135l0,24Z" class="g1_74" />
<g clip-path="url(#c0_74)">
<path fill-rule="evenodd" d="M55,159l163,0l0,-24L55,135l0,24Z" class="g1_74" />
</g>
<path fill-rule="evenodd" d="M227,159l163,0l0,-24l-163,0l0,24Z" class="g1_74" />
<g clip-path="url(#c1_74)">
<path fill-rule="evenodd" d="M235,159l148,0l0,-24l-148,0l0,24Z" class="g1_74" />
</g>
<path fill-rule="evenodd" d="M392,159l495,0l0,-24l-495,0l0,24Z" class="g1_74" />
<g clip-path="url(#c2_74)">
<path fill-rule="evenodd" d="M400,159l480,0l0,-24l-480,0l0,24Z" class="g1_74" />
</g>
<path d="M46.5,135.5l0,-2" class="g2_74" />
<path d="M46.5,135.5l0,-2" class="g2_74" />
<path d="M47.5,135.5l179,0" class="g2_74" />
<path d="M226.5,135.5l0,-2" class="g2_74" />
<path d="M227.5,135.5l164,0" class="g2_74" />
<path d="M391.5,135.5l0,-2" class="g2_74" />
<path d="M392.5,135.5l495,0" class="g2_74" />
<path d="M887.5,135.5l0,-2" class="g2_74" />
<path d="M887.5,135.5l0,-2" class="g2_74" />
<path d="M46.5,159.5l0,-24" class="g2_74" />
<path d="M226.5,159.5l0,-24" class="g2_74" />
<path d="M391.5,159.5l0,-24" class="g2_74" />
<path d="M887.5,159.5l0,-24" class="g2_74" />
<path fill-rule="evenodd" d="M47,184l179,0l0,-24L47,160l0,24Z" class="g3_74" />
<g clip-path="url(#c3_74)">
<path fill-rule="evenodd" d="M55,184l163,0l0,-24L55,160l0,24Z" class="g3_74" />
</g>
<path fill-rule="evenodd" d="M227,184l163,0l0,-24l-163,0l0,24Z" class="g3_74" />
<g clip-path="url(#c4_74)">
<path fill-rule="evenodd" d="M235,184l148,0l0,-24l-148,0l0,24Z" class="g3_74" />
</g>
<path fill-rule="evenodd" d="M392,184l495,0l0,-24l-495,0l0,24Z" class="g3_74" />
<g clip-path="url(#c5_74)">
<path fill-rule="evenodd" d="M400,184l480,0l0,-24l-480,0l0,24Z" class="g3_74" />
</g>
<path d="M46.5,160.5l0,-1" class="g2_74" />
<path d="M47.5,160.5l179,0" class="g2_74" />
<path d="M226.5,160.5l0,-1" class="g2_74" />
<path d="M227.5,160.5l164,0" class="g2_74" />
<path d="M391.5,160.5l0,-1" class="g2_74" />
<path d="M392.5,160.5l495,0" class="g2_74" />
<path d="M887.5,160.5l0,-1" class="g2_74" />
<path d="M46.5,184.5l0,-24" class="g2_74" />
<path d="M46.5,186.5l0,-2" class="g2_74" />
<path d="M46.5,186.5l0,-2" class="g2_74" />
<path d="M47.5,186.5l179,0" class="g2_74" />
<path d="M226.5,184.5l0,-24" class="g2_74" />
<path d="M226.5,186.5l0,-2" class="g2_74" />
<path d="M227.5,186.5l164,0" class="g2_74" />
<path d="M391.5,184.5l0,-24" class="g2_74" />
<path d="M391.5,186.5l0,-2" class="g2_74" />
<path d="M392.5,186.5l495,0" class="g2_74" />
<path d="M887.5,184.5l0,-24" class="g2_74" />
<path d="M887.5,186.5l0,-2" class="g2_74" />
<path d="M887.5,186.5l0,-2" class="g2_74" />
<path fill-rule="evenodd" d="M47,259l178,0l0,-24L47,235l0,24Z" class="g1_74" />
<g clip-path="url(#c6_74)">
<path fill-rule="evenodd" d="M55,259l163,0l0,-24L55,235l0,24Z" class="g1_74" />
</g>
<path fill-rule="evenodd" d="M227,259l163,0l0,-24l-163,0l0,24Z" class="g1_74" />
<g clip-path="url(#c7_74)">
<path fill-rule="evenodd" d="M234,259l149,0l0,-24l-149,0l0,24Z" class="g1_74" />
</g>
<path fill-rule="evenodd" d="M392,259l164,0l0,-24l-164,0l0,24Z" class="g1_74" />
<g clip-path="url(#c8_74)">
<path fill-rule="evenodd" d="M399,259l149,0l0,-24l-149,0l0,24Z" class="g1_74" />
</g>
<path fill-rule="evenodd" d="M557,259l164,0l0,-24l-164,0l0,24Z" class="g1_74" />
<g clip-path="url(#c9_74)">
<path fill-rule="evenodd" d="M565,259l149,0l0,-24l-149,0l0,24Z" class="g1_74" />
</g>
<path fill-rule="evenodd" d="M723,259l164,0l0,-24l-164,0l0,24Z" class="g1_74" />
<g clip-path="url(#c10_74)">
<path fill-rule="evenodd" d="M730,259l150,0l0,-24l-150,0l0,24Z" class="g1_74" />
</g>
<path d="M46.5,235.5l0,-2" class="g2_74" />
<path d="M46.5,235.5l0,-2" class="g2_74" />
<path d="M47.5,235.5l178,0" class="g2_74" />
<path d="M225.5,235.5l0,-2" class="g2_74" />
<path d="M227.5,235.5l163,0" class="g2_74" />
<path d="M390.5,235.5l0,-2" class="g2_74" />
<path d="M392.5,235.5l164,0" class="g2_74" />
<path d="M556.5,235.5l0,-2" class="g2_74" />
<path d="M557.5,235.5l164,0" class="g2_74" />
<path d="M721.5,235.5l0,-2" class="g2_74" />
<path d="M723.5,235.5l164,0" class="g2_74" />
<path d="M887.5,235.5l0,-2" class="g2_74" />
<path d="M887.5,235.5l0,-2" class="g2_74" />
<path d="M46.5,259.5l0,-24" class="g2_74" />
<path d="M225.5,259.5l0,-24" class="g2_74" />
<path d="M390.5,259.5l0,-24" class="g2_74" />
<path d="M556.5,259.5l0,-24" class="g2_74" />
<path d="M721.5,259.5l0,-24" class="g2_74" />
<path d="M887.5,259.5l0,-24" class="g2_74" />
<path fill-rule="evenodd" d="M47,284l178,0l0,-24L47,260l0,24Z" class="g3_74" />
<g clip-path="url(#c11_74)">
<path fill-rule="evenodd" d="M55,284l163,0l0,-24L55,260l0,24Z" class="g3_74" />
</g>
<path fill-rule="evenodd" d="M227,284l163,0l0,-24l-163,0l0,24Z" class="g3_74" />
<g clip-path="url(#c12_74)">
<path fill-rule="evenodd" d="M234,284l149,0l0,-24l-149,0l0,24Z" class="g3_74" />
</g>
<path fill-rule="evenodd" d="M392,284l164,0l0,-24l-164,0l0,24Z" class="g3_74" />
<g clip-path="url(#c13_74)">
<path fill-rule="evenodd" d="M399,284l149,0l0,-24l-149,0l0,24Z" class="g3_74" />
</g>
<path fill-rule="evenodd" d="M557,284l164,0l0,-24l-164,0l0,24Z" class="g3_74" />
<g clip-path="url(#c14_74)">
<path fill-rule="evenodd" d="M565,284l149,0l0,-24l-149,0l0,24Z" class="g3_74" />
</g>
<path fill-rule="evenodd" d="M723,284l164,0l0,-24l-164,0l0,24Z" class="g3_74" />
<g clip-path="url(#c15_74)">
<path fill-rule="evenodd" d="M730,284l150,0l0,-24l-150,0l0,24Z" class="g3_74" />
</g>
<path d="M46.5,260.5l0,-1" class="g2_74" />
<path d="M47.5,260.5l178,0" class="g2_74" />
<path d="M225.5,260.5l0,-1" class="g2_74" />
<path d="M227.5,260.5l163,0" class="g2_74" />
<path d="M390.5,260.5l0,-1" class="g2_74" />
<path d="M392.5,260.5l164,0" class="g2_74" />
<path d="M556.5,260.5l0,-1" class="g2_74" />
<path d="M557.5,260.5l164,0" class="g2_74" />
<path d="M721.5,260.5l0,-1" class="g2_74" />
<path d="M723.5,260.5l164,0" class="g2_74" />
<path d="M887.5,260.5l0,-1" class="g2_74" />
<path d="M46.5,284.5l0,-24" class="g2_74" />
<path d="M46.5,286.5l0,-2" class="g2_74" />
<path d="M46.5,286.5l0,-2" class="g2_74" />
<path d="M47.5,286.5l178,0" class="g2_74" />
<path d="M225.5,284.5l0,-24" class="g2_74" />
<path d="M225.5,286.5l0,-2" class="g2_74" />
<path d="M227.5,286.5l163,0" class="g2_74" />
<path d="M390.5,284.5l0,-24" class="g2_74" />
<path d="M390.5,286.5l0,-2" class="g2_74" />
<path d="M392.5,286.5l164,0" class="g2_74" />
<path d="M556.5,284.5l0,-24" class="g2_74" />
<path d="M556.5,286.5l0,-2" class="g2_74" />
<path d="M557.5,286.5l164,0" class="g2_74" />
<path d="M721.5,284.5l0,-24" class="g2_74" />
<path d="M721.5,286.5l0,-2" class="g2_74" />
<path d="M723.5,286.5l164,0" class="g2_74" />
<path d="M887.5,284.5l0,-24" class="g2_74" />
<path d="M887.5,286.5l0,-2" class="g2_74" />
<path d="M887.5,286.5l0,-2" class="g2_74" />
<path fill-rule="evenodd" d="M47,396l415,0l0,-24L47,372l0,24Z" class="g1_74" />
<g clip-path="url(#c16_74)">
<path fill-rule="evenodd" d="M55,396l400,0l0,-24L55,372l0,24Z" class="g1_74" />
</g>
<path fill-rule="evenodd" d="M464,396l78,0l0,-24l-78,0l0,24Z" class="g1_74" />
<g clip-path="url(#c17_74)">
<path fill-rule="evenodd" d="M471,396l64,0l0,-24l-64,0l0,24Z" class="g1_74" />
</g>
<path fill-rule="evenodd" d="M544,396l64,0l0,-24l-64,0l0,24Z" class="g1_74" />
<g clip-path="url(#c18_74)">
<path fill-rule="evenodd" d="M551,396l49,0l0,-24l-49,0l0,24Z" class="g1_74" />
</g>
<path fill-rule="evenodd" d="M609,396l278,0l0,-24l-278,0l0,24Z" class="g1_74" />
<g clip-path="url(#c19_74)">
<path fill-rule="evenodd" d="M617,396l263,0l0,-24l-263,0l0,24Z" class="g1_74" />
</g>
<path d="M46.5,372.5l0,-2" class="g2_74" />
<path d="M46.5,372.5l0,-2" class="g2_74" />
<path d="M47.5,372.5l415,0" class="g2_74" />
<path d="M462.5,372.5l0,-2" class="g2_74" />
<path d="M464.5,372.5l78,0" class="g2_74" />
<path d="M542.5,372.5l0,-2" class="g2_74" />
<path d="M544.5,372.5l64,0" class="g2_74" />
<path d="M608.5,372.5l0,-2" class="g2_74" />
<path d="M609.5,372.5l278,0" class="g2_74" />
<path d="M887.5,372.5l0,-2" class="g2_74" />
<path d="M887.5,372.5l0,-2" class="g2_74" />
<path d="M46.5,396.5l0,-24" class="g2_74" />
<path d="M462.5,396.5l0,-24" class="g2_74" />
<path d="M542.5,396.5l0,-24" class="g2_74" />
<path d="M608.5,396.5l0,-24" class="g2_74" />
<path d="M887.5,396.5l0,-24" class="g2_74" />
<path fill-rule="evenodd" d="M47,890l39,0L86,398l-39,0l0,492Z" class="g3_74" />
<path fill-rule="evenodd" d="M55,890l23,0L78,398l-23,0l0,492Z" class="g3_74" />
<path fill-rule="evenodd" d="M88,445l374,0l0,-47L88,398l0,47Z" class="g3_74" />
<path fill-rule="evenodd" d="M95,422l360,0l0,-24L95,398l0,24Z" class="g3_74" />
<path fill-rule="evenodd" d="M464,445l78,0l0,-47l-78,0l0,47Z" class="g3_74" />
<path fill-rule="evenodd" d="M471,422l64,0l0,-24l-64,0l0,24Z" class="g3_74" />
<path fill-rule="evenodd" d="M544,445l64,0l0,-47l-64,0l0,47Z" class="g3_74" />
<path fill-rule="evenodd" d="M551,422l49,0l0,-24l-49,0l0,24Z" class="g3_74" />
<path fill-rule="evenodd" d="M609,445l278,0l0,-47l-278,0l0,47Z" class="g3_74" />
<path fill-rule="evenodd" d="M617,422l263,0l0,-24l-263,0l0,24Z" class="g3_74" />
<path fill-rule="evenodd" d="M617,445l263,0l0,-23l-263,0l0,23Z" class="g3_74" />
<path d="M46.5,398.5l0,-2" class="g2_74" />
<path d="M47.5,398.5l39,0" class="g2_74" />
<path d="M86.5,398.5l0,-2" class="g2_74" />
<path d="M88.5,398.5l374,0" class="g2_74" />
<path d="M462.5,398.5l0,-2" class="g2_74" />
<path d="M464.5,398.5l78,0" class="g2_74" />
<path d="M542.5,398.5l0,-2" class="g2_74" />
<path d="M544.5,398.5l64,0" class="g2_74" />
<path d="M608.5,398.5l0,-2" class="g2_74" />
<path d="M609.5,398.5l278,0" class="g2_74" />
<path d="M887.5,398.5l0,-2" class="g2_74" />
<path d="M46.5,445.5l0,-47" class="g2_74" />
<path d="M86.5,445.5l0,-47" class="g2_74" />
<path d="M462.5,445.5l0,-47" class="g2_74" />
<path d="M542.5,445.5l0,-47" class="g2_74" />
<path d="M608.5,445.5l0,-47" class="g2_74" />
<path d="M887.5,445.5l0,-47" class="g2_74" />
<path fill-rule="evenodd" d="M88,890l39,0l0,-443l-39,0l0,443Z" class="g3_74" />
<g clip-path="url(#c20_74)">
<path fill-rule="evenodd" d="M95,890l24,0l0,-443l-24,0l0,443Z" class="g3_74" />
</g>
<path fill-rule="evenodd" d="M129,890l39,0l0,-443l-39,0l0,443Z" class="g3_74" />
<g clip-path="url(#c21_74)">
<path fill-rule="evenodd" d="M136,890l24,0l0,-443l-24,0l0,443Z" class="g3_74" />
</g>
<path fill-rule="evenodd" d="M169,474l293,0l0,-27l-293,0l0,27Z" class="g3_74" />
<path fill-rule="evenodd" d="M177,471l278,0l0,-24l-278,0l0,24Z" class="g3_74" />
<path fill-rule="evenodd" d="M464,474l78,0l0,-27l-78,0l0,27Z" class="g3_74" />
<path fill-rule="evenodd" d="M471,471l64,0l0,-24l-64,0l0,24Z" class="g3_74" />
<path fill-rule="evenodd" d="M544,474l64,0l0,-27l-64,0l0,27Z" class="g3_74" />
<path fill-rule="evenodd" d="M551,471l49,0l0,-24l-49,0l0,24Z" class="g3_74" />
<path fill-rule="evenodd" d="M609,474l278,0l0,-27l-278,0l0,27Z" class="g3_74" />
<path fill-rule="evenodd" d="M617,471l263,0l0,-24l-263,0l0,24Z" class="g3_74" />
<path d="M46.5,447.5l0,-2" class="g2_74" />
<path d="M86.5,447.5l0,-2" class="g2_74" />
<path d="M88.5,447.5l39,0" class="g2_74" />
<path d="M127.5,447.5l0,-2" class="g2_74" />
<path d="M129.5,447.5l39,0" class="g2_74" />
<path d="M168.5,447.5l0,-2" class="g2_74" />
<path d="M169.5,447.5l293,0" class="g2_74" />
<path d="M462.5,447.5l0,-2" class="g2_74" />
<path d="M464.5,447.5l78,0" class="g2_74" />
<path d="M542.5,447.5l0,-2" class="g2_74" />
<path d="M544.5,447.5l64,0" class="g2_74" />
<path d="M608.5,447.5l0,-2" class="g2_74" />
<path d="M609.5,447.5l278,0" class="g2_74" />
<path d="M887.5,447.5l0,-2" class="g2_74" />
<path d="M46.5,474.5l0,-27" class="g2_74" />
<path d="M86.5,474.5l0,-27" class="g2_74" />
<path d="M127.5,474.5l0,-27" class="g2_74" />
<path d="M168.5,474.5l0,-27" class="g2_74" />
<path d="M462.5,474.5l0,-27" class="g2_74" />
<path d="M542.5,474.5l0,-27" class="g2_74" />
<path d="M608.5,474.5l0,-27" class="g2_74" />
<path d="M887.5,474.5l0,-27" class="g2_74" />
<path fill-rule="evenodd" d="M169,500l293,0l0,-24l-293,0l0,24Z" class="g3_74" />
<g clip-path="url(#c22_74)">
<path fill-rule="evenodd" d="M177,500l278,0l0,-24l-278,0l0,24Z" class="g3_74" />
</g>
<path fill-rule="evenodd" d="M464,500l78,0l0,-24l-78,0l0,24Z" class="g3_74" />
<g clip-path="url(#c23_74)">
<path fill-rule="evenodd" d="M471,500l64,0l0,-24l-64,0l0,24Z" class="g3_74" />
</g>
<path fill-rule="evenodd" d="M544,500l64,0l0,-24l-64,0l0,24Z" class="g3_74" />
<g clip-path="url(#c24_74)">
<path fill-rule="evenodd" d="M551,500l49,0l0,-24l-49,0l0,24Z" class="g3_74" />
</g>
<path fill-rule="evenodd" d="M609,500l278,0l0,-24l-278,0l0,24Z" class="g3_74" />
<g clip-path="url(#c25_74)">
<path fill-rule="evenodd" d="M617,500l263,0l0,-24l-263,0l0,24Z" class="g3_74" />
</g>
<path d="M46.5,476.5l0,-2" class="g2_74" />
<path d="M86.5,476.5l0,-2" class="g2_74" />
<path d="M127.5,476.5l0,-2" class="g2_74" />
<path d="M168.5,476.5l0,-2" class="g2_74" />
<path d="M169.5,476.5l293,0" class="g2_74" />
<path d="M462.5,476.5l0,-2" class="g2_74" />
<path d="M464.5,476.5l78,0" class="g2_74" />
<path d="M542.5,476.5l0,-2" class="g2_74" />
<path d="M544.5,476.5l64,0" class="g2_74" />
<path d="M608.5,476.5l0,-2" class="g2_74" />
<path d="M609.5,476.5l278,0" class="g2_74" />
<path d="M887.5,476.5l0,-2" class="g2_74" />
<path d="M46.5,500.5l0,-24" class="g2_74" />
<path d="M86.5,500.5l0,-24" class="g2_74" />
<path d="M127.5,500.5l0,-24" class="g2_74" />
<path d="M168.5,500.5l0,-24" class="g2_74" />
<path d="M462.5,500.5l0,-24" class="g2_74" />
<path d="M542.5,500.5l0,-24" class="g2_74" />
<path d="M608.5,500.5l0,-24" class="g2_74" />
<path d="M887.5,500.5l0,-24" class="g2_74" />
<path fill-rule="evenodd" d="M169,645l293,0l0,-143l-293,0l0,143Z" class="g3_74" />
<path fill-rule="evenodd" d="M177,526l278,0l0,-24l-278,0l0,24Z" class="g3_74" />
<path fill-rule="evenodd" d="M464,645l78,0l0,-143l-78,0l0,143Z" class="g3_74" />
<path fill-rule="evenodd" d="M471,526l64,0l0,-24l-64,0l0,24Z" class="g3_74" />
<path fill-rule="evenodd" d="M544,645l64,0l0,-143l-64,0l0,143Z" class="g3_74" />
<path fill-rule="evenodd" d="M551,526l49,0l0,-24l-49,0l0,24Z" class="g3_74" />
<path fill-rule="evenodd" d="M609,645l278,0l0,-143l-278,0l0,143Z" class="g3_74" />
<path fill-rule="evenodd" d="M617,526l263,0l0,-24l-263,0l0,24Z" class="g3_74" />
<path fill-rule="evenodd" d="M617,550l263,0l0,-24l-263,0l0,24Z" class="g3_74" />
<path fill-rule="evenodd" d="M617,573l263,0l0,-23l-263,0l0,23Z" class="g3_74" />
<path fill-rule="evenodd" d="M617,597l263,0l0,-24l-263,0l0,24Z" class="g3_74" />
<path fill-rule="evenodd" d="M617,621l263,0l0,-24l-263,0l0,24Z" class="g3_74" />
<path fill-rule="evenodd" d="M617,645l263,0l0,-24l-263,0l0,24Z" class="g3_74" />
<path d="M46.5,502.5l0,-2" class="g2_74" />
<path d="M86.5,502.5l0,-2" class="g2_74" />
<path d="M127.5,502.5l0,-2" class="g2_74" />
<path d="M168.5,502.5l0,-2" class="g2_74" />
<path d="M169.5,502.5l293,0" class="g2_74" />
<path d="M462.5,502.5l0,-2" class="g2_74" />
<path d="M464.5,502.5l78,0" class="g2_74" />
<path d="M542.5,502.5l0,-2" class="g2_74" />
<path d="M544.5,502.5l64,0" class="g2_74" />
<path d="M608.5,502.5l0,-2" class="g2_74" />
<path d="M609.5,502.5l278,0" class="g2_74" />
<path d="M887.5,502.5l0,-2" class="g2_74" />
<path d="M46.5,645.5l0,-143" class="g2_74" />
<path d="M86.5,645.5l0,-143" class="g2_74" />
<path d="M127.5,645.5l0,-143" class="g2_74" />
<path d="M168.5,645.5l0,-143" class="g2_74" />
<path d="M462.5,645.5l0,-143" class="g2_74" />
<path d="M542.5,645.5l0,-143" class="g2_74" />
<path d="M608.5,645.5l0,-143" class="g2_74" />
<path d="M887.5,645.5l0,-143" class="g2_74" />
<path fill-rule="evenodd" d="M169,890l114,0l0,-243l-114,0l0,243Z" class="g3_74" />
<g clip-path="url(#c26_74)">
<path fill-rule="evenodd" d="M177,670l98,0l0,-23l-98,0l0,23Z" class="g3_74" />
</g>
<path fill-rule="evenodd" d="M284,890l39,0l0,-243l-39,0l0,243Z" class="g3_74" />
<g clip-path="url(#c27_74)">
<path fill-rule="evenodd" d="M292,670l23,0l0,-23l-23,0l0,23Z" class="g3_74" />
</g>
<path fill-rule="evenodd" d="M324,670l138,0l0,-23l-138,0l0,23Z" class="g3_74" />
<g clip-path="url(#c28_74)">
<path fill-rule="evenodd" d="M332,670l123,0l0,-23l-123,0l0,23Z" class="g3_74" />
</g>
<path fill-rule="evenodd" d="M464,670l78,0l0,-23l-78,0l0,23Z" class="g3_74" />
<g clip-path="url(#c29_74)">
<path fill-rule="evenodd" d="M471,670l64,0l0,-23l-64,0l0,23Z" class="g3_74" />
</g>
<path fill-rule="evenodd" d="M544,670l64,0l0,-23l-64,0l0,23Z" class="g3_74" />
<g clip-path="url(#c30_74)">
<path fill-rule="evenodd" d="M551,670l49,0l0,-23l-49,0l0,23Z" class="g3_74" />
</g>
<path fill-rule="evenodd" d="M609,670l278,0l0,-23l-278,0l0,23Z" class="g3_74" />
<g clip-path="url(#c31_74)">
<path fill-rule="evenodd" d="M617,670l263,0l0,-23l-263,0l0,23Z" class="g3_74" />
</g>
<path d="M46.5,646.5l0,-1" class="g2_74" />
<path d="M86.5,646.5l0,-1" class="g2_74" />
<path d="M127.5,646.5l0,-1" class="g2_74" />
<path d="M168.5,646.5l0,-1" class="g2_74" />
<path d="M169.5,646.5l114,0" class="g2_74" />
<path d="M283.5,646.5l0,-1" class="g2_74" />
<path d="M284.5,646.5l39,0" class="g2_74" />
<path d="M323.5,646.5l0,-1" class="g2_74" />
<path d="M324.5,646.5l138,0" class="g2_74" />
<path d="M462.5,646.5l0,-1" class="g2_74" />
<path d="M464.5,646.5l78,0" class="g2_74" />
<path d="M542.5,646.5l0,-1" class="g2_74" />
<path d="M544.5,646.5l64,0" class="g2_74" />
<path d="M608.5,646.5l0,-1" class="g2_74" />
<path d="M609.5,646.5l278,0" class="g2_74" />
<path d="M887.5,646.5l0,-1" class="g2_74" />
<path d="M46.5,670.5l0,-24" class="g2_74" />
<path d="M86.5,670.5l0,-24" class="g2_74" />
<path d="M127.5,670.5l0,-24" class="g2_74" />
<path d="M168.5,670.5l0,-24" class="g2_74" />
<path d="M283.5,670.5l0,-24" class="g2_74" />
<path d="M323.5,670.5l0,-24" class="g2_74" />
<path d="M462.5,670.5l0,-24" class="g2_74" />
<path d="M542.5,670.5l0,-24" class="g2_74" />
<path d="M608.5,670.5l0,-24" class="g2_74" />
<path d="M887.5,670.5l0,-24" class="g2_74" />
<path fill-rule="evenodd" d="M324,720l138,0l0,-48l-138,0l0,48Z" class="g3_74" />
<g clip-path="url(#c32_74)">
<path fill-rule="evenodd" d="M332,696l123,0l0,-24l-123,0l0,24Z" class="g3_74" />
</g>
<path fill-rule="evenodd" d="M464,720l78,0l0,-48l-78,0l0,48Z" class="g3_74" />
<g clip-path="url(#c33_74)">
<path fill-rule="evenodd" d="M471,696l64,0l0,-24l-64,0l0,24Z" class="g3_74" />
</g>
<path fill-rule="evenodd" d="M544,720l64,0l0,-48l-64,0l0,48Z" class="g3_74" />
<g clip-path="url(#c34_74)">
<path fill-rule="evenodd" d="M551,696l49,0l0,-24l-49,0l0,24Z" class="g3_74" />
</g>
<path fill-rule="evenodd" d="M609,720l278,0l0,-48l-278,0l0,48Z" class="g3_74" />
<g clip-path="url(#c35_74)">
<path fill-rule="evenodd" d="M617,696l263,0l0,-24l-263,0l0,24Z" class="g3_74" />
</g>
<path fill-rule="evenodd" d="M617,720l263,0l0,-24l-263,0l0,24Z" class="g3_74" />
<path d="M46.5,672.5l0,-2" class="g2_74" />
<path d="M86.5,672.5l0,-2" class="g2_74" />
<path d="M127.5,672.5l0,-2" class="g2_74" />
<path d="M168.5,672.5l0,-2" class="g2_74" />
<path d="M283.5,672.5l0,-2" class="g2_74" />
<path d="M323.5,672.5l0,-2" class="g2_74" />
<path d="M324.5,672.5l138,0" class="g2_74" />
<path d="M462.5,672.5l0,-2" class="g2_74" />
<path d="M464.5,672.5l78,0" class="g2_74" />
<path d="M542.5,672.5l0,-2" class="g2_74" />
<path d="M544.5,672.5l64,0" class="g2_74" />
<path d="M608.5,672.5l0,-2" class="g2_74" />
<path d="M609.5,672.5l278,0" class="g2_74" />
<path d="M887.5,672.5l0,-2" class="g2_74" />
<path d="M46.5,720.5l0,-48" class="g2_74" />
<path d="M86.5,720.5l0,-48" class="g2_74" />
<path d="M127.5,720.5l0,-48" class="g2_74" />
<path d="M168.5,720.5l0,-48" class="g2_74" />
<path d="M283.5,720.5l0,-48" class="g2_74" />
<path d="M323.5,720.5l0,-48" class="g2_74" />
<path d="M462.5,720.5l0,-48" class="g2_74" />
<path d="M542.5,720.5l0,-48" class="g2_74" />
<path d="M608.5,720.5l0,-48" class="g2_74" />
<path d="M887.5,720.5l0,-48" class="g2_74" />
<path fill-rule="evenodd" d="M324,769l138,0l0,-48l-138,0l0,48Z" class="g3_74" />
<g clip-path="url(#c36_74)">
<path fill-rule="evenodd" d="M332,745l123,0l0,-24l-123,0l0,24Z" class="g3_74" />
</g>
<path fill-rule="evenodd" d="M464,769l78,0l0,-48l-78,0l0,48Z" class="g3_74" />
<g clip-path="url(#c37_74)">
<path fill-rule="evenodd" d="M471,745l64,0l0,-24l-64,0l0,24Z" class="g3_74" />
</g>
<path fill-rule="evenodd" d="M544,769l64,0l0,-48l-64,0l0,48Z" class="g3_74" />
<g clip-path="url(#c38_74)">
<path fill-rule="evenodd" d="M551,745l49,0l0,-24l-49,0l0,24Z" class="g3_74" />
</g>
<path fill-rule="evenodd" d="M609,769l278,0l0,-48l-278,0l0,48Z" class="g3_74" />
<g clip-path="url(#c39_74)">
<path fill-rule="evenodd" d="M617,745l263,0l0,-24l-263,0l0,24Z" class="g3_74" />
</g>
<path fill-rule="evenodd" d="M617,769l263,0l0,-24l-263,0l0,24Z" class="g3_74" />
<path d="M46.5,721.5l0,-1" class="g2_74" />
<path d="M86.5,721.5l0,-1" class="g2_74" />
<path d="M127.5,721.5l0,-1" class="g2_74" />
<path d="M168.5,721.5l0,-1" class="g2_74" />
<path d="M283.5,721.5l0,-1" class="g2_74" />
<path d="M323.5,721.5l0,-1" class="g2_74" />
<path d="M324.5,721.5l138,0" class="g2_74" />
<path d="M462.5,721.5l0,-1" class="g2_74" />
<path d="M464.5,721.5l78,0" class="g2_74" />
<path d="M542.5,721.5l0,-1" class="g2_74" />
<path d="M544.5,721.5l64,0" class="g2_74" />
<path d="M608.5,721.5l0,-1" class="g2_74" />
<path d="M609.5,721.5l278,0" class="g2_74" />
<path d="M887.5,721.5l0,-1" class="g2_74" />
<path d="M46.5,769.5l0,-48" class="g2_74" />
<path d="M86.5,769.5l0,-48" class="g2_74" />
<path d="M127.5,769.5l0,-48" class="g2_74" />
<path d="M168.5,769.5l0,-48" class="g2_74" />
<path d="M283.5,769.5l0,-48" class="g2_74" />
<path d="M323.5,769.5l0,-48" class="g2_74" />
<path d="M462.5,769.5l0,-48" class="g2_74" />
<path d="M542.5,769.5l0,-48" class="g2_74" />
<path d="M608.5,769.5l0,-48" class="g2_74" />
<path d="M887.5,769.5l0,-48" class="g2_74" />
<path fill-rule="evenodd" d="M324,890l138,0l0,-120l-138,0l0,120Z" class="g3_74" />
<g clip-path="url(#c40_74)">
<path fill-rule="evenodd" d="M332,794l123,0l0,-24l-123,0l0,24Z" class="g3_74" />
</g>
<path fill-rule="evenodd" d="M332,818l123,0l0,-24l-123,0l0,24Z" class="g3_74" />
<path fill-rule="evenodd" d="M464,890l78,0l0,-120l-78,0l0,120Z" class="g3_74" />
<g clip-path="url(#c41_74)">
<path fill-rule="evenodd" d="M471,794l64,0l0,-24l-64,0l0,24Z" class="g3_74" />
</g>
<path fill-rule="evenodd" d="M544,890l64,0l0,-120l-64,0l0,120Z" class="g3_74" />
<g clip-path="url(#c42_74)">
<path fill-rule="evenodd" d="M551,794l49,0l0,-24l-49,0l0,24Z" class="g3_74" />
</g>
<path fill-rule="evenodd" d="M609,890l278,0l0,-120l-278,0l0,120Z" class="g3_74" />
<g clip-path="url(#c43_74)">
<path fill-rule="evenodd" d="M617,794l263,0l0,-24l-263,0l0,24Z" class="g3_74" />
</g>
<path fill-rule="evenodd" d="M617,818l263,0l0,-24l-263,0l0,24Z" class="g3_74" />
<path fill-rule="evenodd" d="M617,842l263,0l0,-24l-263,0l0,24Z" class="g3_74" />
<path fill-rule="evenodd" d="M617,866l263,0l0,-24l-263,0l0,24Z" class="g3_74" />
<path fill-rule="evenodd" d="M617,890l263,0l0,-24l-263,0l0,24Z" class="g3_74" />
<path d="M46.5,770.5l0,-1" class="g2_74" />
<path d="M86.5,770.5l0,-1" class="g2_74" />
<path d="M127.5,770.5l0,-1" class="g2_74" />
<path d="M168.5,770.5l0,-1" class="g2_74" />
<path d="M283.5,770.5l0,-1" class="g2_74" />
<path d="M323.5,770.5l0,-1" class="g2_74" />
<path d="M324.5,770.5l138,0" class="g2_74" />
<path d="M462.5,770.5l0,-1" class="g2_74" />
<path d="M464.5,770.5l78,0" class="g2_74" />
<path d="M542.5,770.5l0,-1" class="g2_74" />
<path d="M544.5,770.5l64,0" class="g2_74" />
<path d="M608.5,770.5l0,-1" class="g2_74" />
<path d="M609.5,770.5l278,0" class="g2_74" />
<path d="M887.5,770.5l0,-1" class="g2_74" />
<path d="M46.5,890.5l0,-120" class="g2_74" />
<path d="M46.5,891.5l0,-1" class="g2_74" />
<path d="M46.5,891.5l0,-1" class="g2_74" />
<path d="M47.5,891.5l39,0" class="g2_74" />
<path d="M86.5,890.5l0,-120" class="g2_74" />
<path d="M86.5,891.5l0,-1" class="g2_74" />
<path d="M88.5,891.5l39,0" class="g2_74" />
<path d="M127.5,890.5l0,-120" class="g2_74" />
<path d="M127.5,891.5l0,-1" class="g2_74" />
<path d="M129.5,891.5l39,0" class="g2_74" />
<path d="M168.5,890.5l0,-120" class="g2_74" />
<path d="M168.5,891.5l0,-1" class="g2_74" />
<path d="M169.5,891.5l114,0" class="g2_74" />
<path d="M283.5,890.5l0,-120" class="g2_74" />
<path d="M283.5,891.5l0,-1" class="g2_74" />
<path d="M284.5,891.5l39,0" class="g2_74" />
<path d="M323.5,890.5l0,-120" class="g2_74" />
<path d="M323.5,891.5l0,-1" class="g2_74" />
<path d="M324.5,891.5l138,0" class="g2_74" />
<path d="M462.5,890.5l0,-120" class="g2_74" />
<path d="M462.5,891.5l0,-1" class="g2_74" />
<path d="M464.5,891.5l78,0" class="g2_74" />
<path d="M542.5,890.5l0,-120" class="g2_74" />
<path d="M542.5,891.5l0,-1" class="g2_74" />
<path d="M544.5,891.5l64,0" class="g2_74" />
<path d="M608.5,890.5l0,-120" class="g2_74" />
<path d="M608.5,891.5l0,-1" class="g2_74" />
<path d="M609.5,891.5l278,0" class="g2_74" />
<path d="M887.5,890.5l0,-120" class="g2_74" />
<path d="M887.5,891.5l0,-1" class="g2_74" />
<path d="M887.5,891.5l0,-1" class="g2_74" />
<path fill-rule="evenodd" d="M47,1012l840,0l0,-24L47,988l0,24Z" class="g3_74" />
<g clip-path="url(#c44_74)">
<path fill-rule="evenodd" d="M55,1012l825,0l0,-24L55,988l0,24Z" class="g3_74" />
</g>
<path d="M46.5,988.5l0,-2" class="g2_74" />
<path d="M46.5,988.5l0,-2" class="g2_74" />
<path d="M47.5,988.5l840,0" class="g2_74" />
<path d="M887.5,988.5l0,-2" class="g2_74" />
<path d="M887.5,988.5l0,-2" class="g2_74" />
<path d="M46.5,1012.5l0,-24" class="g2_74" />
<path d="M46.5,1013.5l0,-1" class="g2_74" />
<path d="M46.5,1013.5l0,-1" class="g2_74" />
<path d="M47.5,1013.5l840,0" class="g2_74" />
<path d="M887.5,1012.5l0,-24" class="g2_74" />
<path d="M887.5,1013.5l0,-1" class="g2_74" />
<path d="M887.5,1013.5l0,-1" class="g2_74" />
<path fill-rule="evenodd" d="M47,1086l840,0l0,-47l-840,0l0,47Z" class="g3_74" />
<path fill-rule="evenodd" d="M55,1062l825,0l0,-23l-825,0l0,23Z" class="g3_74" />
<g clip-path="url(#c45_74)">
<path fill-rule="evenodd" d="M55,1086l825,0l0,-24l-825,0l0,24Z" class="g3_74" />
</g>
<path d="M46.5,1039.5l0,-2" class="g2_74" />
<path d="M46.5,1039.5l0,-2" class="g2_74" />
<path d="M47.5,1039.5l840,0" class="g2_74" />
<path d="M887.5,1039.5l0,-2" class="g2_74" />
<path d="M887.5,1039.5l0,-2" class="g2_74" />
<path d="M46.5,1086.5l0,-47" class="g2_74" />
<path d="M46.5,1088.5l0,-2" class="g2_74" />
<path d="M46.5,1088.5l0,-2" class="g2_74" />
<path d="M47.5,1088.5l840,0" class="g2_74" />
<path d="M887.5,1086.5l0,-47" class="g2_74" />
<path d="M887.5,1088.5l0,-2" class="g2_74" />
<path d="M887.5,1088.5l0,-2" class="g2_74" />
</svg>