<?xml version="1.0" encoding="UTF-8" standalone="no"?>
<!DOCTYPE svg PUBLIC "-//W3C//DTD SVG 1.1//EN"
"http://www.w3.org/Graphics/SVG/1.1/DTD/svg11.dtd">
<svg version="1.1" xmlns="http://www.w3.org/2000/svg" xmlns:xlink="http://www.w3.org/1999/xlink">
<defs>
<clipPath id="c0_343"><path d="M47.5,364.5l0,-181l840,0l0,181Z" /></clipPath>
<clipPath id="c1_343"><path d="M47.5,534.5l0,-96l840,0l0,96Z" /></clipPath>
<clipPath id="c2_343"><path d="M47.5,804.5l0,-23l840,0l0,23Z" /></clipPath>
<clipPath id="c3_343"><path d="M47.5,912.5l0,-24l178,0l0,24Z" /></clipPath>
<clipPath id="c4_343"><path d="M226.5,912.5l0,-24l163,0l0,24Z" /></clipPath>
<clipPath id="c5_343"><path d="M390.5,912.5l0,-24l497,0l0,24Z" /></clipPath>
<clipPath id="c6_343"><path d="M47.5,937.5l0,-24l178,0l0,24Z" /></clipPath>
<clipPath id="c7_343"><path d="M226.5,937.5l0,-24l163,0l0,24Z" /></clipPath>
<clipPath id="c8_343"><path d="M390.5,937.5l0,-24l497,0l0,24Z" /></clipPath>
<clipPath id="c9_343"><path d="M47.5,1011.5l0,-23l177,0l0,23Z" /></clipPath>
<clipPath id="c10_343"><path d="M226.5,1011.5l0,-23l162,0l0,23Z" /></clipPath>
<clipPath id="c11_343"><path d="M390.5,1011.5l0,-23l163,0l0,23Z" /></clipPath>
<clipPath id="c12_343"><path d="M554.5,1011.5l0,-23l163,0l0,23Z" /></clipPath>
<clipPath id="c13_343"><path d="M719.5,1011.5l0,-23l168,0l0,23Z" /></clipPath>
<clipPath id="c14_343"><path d="M47.5,1037.5l0,-24l177,0l0,24Z" /></clipPath>
<clipPath id="c15_343"><path d="M226.5,1037.5l0,-24l162,0l0,24Z" /></clipPath>
<clipPath id="c16_343"><path d="M390.5,1037.5l0,-24l163,0l0,24Z" /></clipPath>
<clipPath id="c17_343"><path d="M554.5,1037.5l0,-24l163,0l0,24Z" /></clipPath>
<clipPath id="c18_343"><path d="M719.5,1037.5l0,-24l168,0l0,24Z" /></clipPath>
<style type="text/css"><![CDATA[
.g2_343{
fill: none;
stroke: #F0F0E0;
stroke-width: 1;
stroke-linecap: butt;
stroke-linejoin: miter;
}
.g3_343{
fill: none;
stroke: #7E7E7E;
stroke-width: 1;
stroke-linecap: butt;
stroke-linejoin: miter;
}
.g4_343{
fill: #DBE5F1;
}
.g1_343{
fill: #F1F1F1;
}
]]></style>
</defs>
<path fill-rule="evenodd" d="M47,364l840,0l0,-182L47,182l0,182Z" class="g1_343" />
<g clip-path="url(#c0_343)">
<path fill-rule="evenodd" d="M55,214l825,0l0,-32L55,182l0,32Z" class="g1_343" />
<path d="M45.5,184.5l0,-2" class="g2_343" />
<path d="M45.5,184.5l0,-2" class="g2_343" />
<path d="M46.5,184.5l842,0" class="g2_343" />
<path d="M888.5,184.5l0,-2" class="g2_343" />
<path d="M888.5,184.5l0,-2" class="g2_343" />
<path d="M45.5,214.5l0,-30" class="g2_343" />
<path d="M888.5,214.5l0,-30" class="g2_343" />
</g>
<path fill-rule="evenodd" d="M55,237l825,0l0,-23L55,214l0,23Z" class="g1_343" />
<g clip-path="url(#c0_343)">
<path d="M45.5,237.5l0,-23" class="g2_343" />
<path d="M888.5,237.5l0,-23" class="g2_343" />
</g>
<path fill-rule="evenodd" d="M55,261l825,0l0,-24L55,237l0,24Z" class="g1_343" />
<g clip-path="url(#c0_343)">
<path d="M45.5,261.5l0,-24" class="g2_343" />
<path d="M888.5,261.5l0,-24" class="g2_343" />
</g>
<path fill-rule="evenodd" d="M55,285l825,0l0,-24L55,261l0,24Z" class="g1_343" />
<g clip-path="url(#c0_343)">
<path d="M45.5,285.5l0,-24" class="g2_343" />
<path d="M888.5,285.5l0,-24" class="g2_343" />
</g>
<path fill-rule="evenodd" d="M55,309l825,0l0,-24L55,285l0,24Z" class="g1_343" />
<g clip-path="url(#c0_343)">
<path d="M45.5,309.5l0,-24" class="g2_343" />
<path d="M888.5,309.5l0,-24" class="g2_343" />
</g>
<path fill-rule="evenodd" d="M55,333l825,0l0,-24L55,309l0,24Z" class="g1_343" />
<g clip-path="url(#c0_343)">
<path d="M45.5,333.5l0,-24" class="g2_343" />
<path d="M888.5,333.5l0,-24" class="g2_343" />
</g>
<path fill-rule="evenodd" d="M55,364l825,0l0,-31L55,333l0,31Z" class="g1_343" />
<g clip-path="url(#c0_343)">
<path d="M45.5,364.5l0,-1" class="g2_343" />
<path d="M45.5,364.5l0,-1" class="g2_343" />
<path d="M46.5,364.5l842,0" class="g2_343" />
<path d="M888.5,364.5l0,-1" class="g2_343" />
<path d="M888.5,364.5l0,-1" class="g2_343" />
<path d="M45.5,363.5l0,-30" class="g2_343" />
<path d="M888.5,363.5l0,-30" class="g2_343" />
</g>
<path d="M46.5,182.5l0,-1" class="g3_343" />
<path d="M46.5,182.5l0,-1" class="g3_343" />
<path d="M47.5,182.5l840,0" class="g3_343" />
<path d="M887.5,182.5l0,-1" class="g3_343" />
<path d="M887.5,182.5l0,-1" class="g3_343" />
<path d="M46.5,364.5l0,-182" class="g3_343" />
<path d="M46.5,365.5l0,-1" class="g3_343" />
<path d="M46.5,365.5l0,-1" class="g3_343" />
<path d="M47.5,365.5l840,0" class="g3_343" />
<path d="M887.5,364.5l0,-182" class="g3_343" />
<path d="M887.5,365.5l0,-1" class="g3_343" />
<path d="M887.5,365.5l0,-1" class="g3_343" />
<path fill-rule="evenodd" d="M47,534l840,0l0,-96L47,438l0,96Z" class="g1_343" />
<g clip-path="url(#c1_343)">
<path fill-rule="evenodd" d="M55,462l825,0l0,-24L55,438l0,24Z" class="g1_343" />
</g>
<path fill-rule="evenodd" d="M55,486l825,0l0,-24L55,462l0,24Z" class="g1_343" />
<path fill-rule="evenodd" d="M55,510l825,0l0,-24L55,486l0,24Z" class="g1_343" />
<path fill-rule="evenodd" d="M55,534l825,0l0,-24L55,510l0,24Z" class="g1_343" />
<path d="M46.5,438.5l0,-1" class="g3_343" />
<path d="M46.5,438.5l0,-1" class="g3_343" />
<path d="M47.5,438.5l840,0" class="g3_343" />
<path d="M887.5,438.5l0,-1" class="g3_343" />
<path d="M887.5,438.5l0,-1" class="g3_343" />
<path d="M46.5,534.5l0,-96" class="g3_343" />
<path d="M46.5,535.5l0,-1" class="g3_343" />
<path d="M46.5,535.5l0,-1" class="g3_343" />
<path d="M47.5,535.5l840,0" class="g3_343" />
<path d="M887.5,534.5l0,-96" class="g3_343" />
<path d="M887.5,535.5l0,-1" class="g3_343" />
<path d="M887.5,535.5l0,-1" class="g3_343" />
<path fill-rule="evenodd" d="M47,804l840,0l0,-23L47,781l0,23Z" class="g1_343" />
<g clip-path="url(#c2_343)">
<path fill-rule="evenodd" d="M55,804l825,0l0,-23L55,781l0,23Z" class="g1_343" />
</g>
<path d="M46.5,780.5l0,-1" class="g3_343" />
<path d="M46.5,780.5l0,-1" class="g3_343" />
<path d="M47.5,780.5l840,0" class="g3_343" />
<path d="M887.5,780.5l0,-1" class="g3_343" />
<path d="M887.5,780.5l0,-1" class="g3_343" />
<path d="M46.5,804.5l0,-24" class="g3_343" />
<path d="M46.5,806.5l0,-2" class="g3_343" />
<path d="M46.5,806.5l0,-2" class="g3_343" />
<path d="M47.5,806.5l840,0" class="g3_343" />
<path d="M887.5,804.5l0,-24" class="g3_343" />
<path d="M887.5,806.5l0,-2" class="g3_343" />
<path d="M887.5,806.5l0,-2" class="g3_343" />
<path fill-rule="evenodd" d="M47,912l178,0l0,-24L47,888l0,24Z" class="g4_343" />
<g clip-path="url(#c3_343)">
<path fill-rule="evenodd" d="M55,912l162,0l0,-24L55,888l0,24Z" class="g4_343" />
</g>
<path fill-rule="evenodd" d="M226,912l163,0l0,-24l-163,0l0,24Z" class="g4_343" />
<g clip-path="url(#c4_343)">
<path fill-rule="evenodd" d="M234,912l147,0l0,-24l-147,0l0,24Z" class="g4_343" />
</g>
<path fill-rule="evenodd" d="M390,912l497,0l0,-24l-497,0l0,24Z" class="g4_343" />
<g clip-path="url(#c5_343)">
<path fill-rule="evenodd" d="M398,912l482,0l0,-24l-482,0l0,24Z" class="g4_343" />
</g>
<path d="M46.5,887.5l0,-1" class="g3_343" />
<path d="M46.5,887.5l0,-1" class="g3_343" />
<path d="M47.5,887.5l178,0" class="g3_343" />
<path d="M225.5,887.5l0,-1" class="g3_343" />
<path d="M226.5,887.5l163,0" class="g3_343" />
<path d="M389.5,887.5l0,-1" class="g3_343" />
<path d="M390.5,887.5l497,0" class="g3_343" />
<path d="M887.5,887.5l0,-1" class="g3_343" />
<path d="M887.5,887.5l0,-1" class="g3_343" />
<path d="M46.5,912.5l0,-25" class="g3_343" />
<path d="M225.5,912.5l0,-25" class="g3_343" />
<path d="M389.5,912.5l0,-25" class="g3_343" />
<path d="M887.5,912.5l0,-25" class="g3_343" />
<path fill-rule="evenodd" d="M47,937l178,0l0,-24L47,913l0,24Z" class="g1_343" />
<g clip-path="url(#c6_343)">
<path fill-rule="evenodd" d="M55,937l162,0l0,-24L55,913l0,24Z" class="g1_343" />
</g>
<path fill-rule="evenodd" d="M226,937l163,0l0,-24l-163,0l0,24Z" class="g1_343" />
<g clip-path="url(#c7_343)">
<path fill-rule="evenodd" d="M234,937l147,0l0,-24l-147,0l0,24Z" class="g1_343" />
</g>
<path fill-rule="evenodd" d="M390,937l497,0l0,-24l-497,0l0,24Z" class="g1_343" />
<g clip-path="url(#c8_343)">
<path fill-rule="evenodd" d="M398,937l482,0l0,-24l-482,0l0,24Z" class="g1_343" />
</g>
<path d="M46.5,913.5l0,-1" class="g3_343" />
<path d="M47.5,913.5l178,0" class="g3_343" />
<path d="M225.5,913.5l0,-1" class="g3_343" />
<path d="M226.5,913.5l163,0" class="g3_343" />
<path d="M389.5,913.5l0,-1" class="g3_343" />
<path d="M390.5,913.5l497,0" class="g3_343" />
<path d="M887.5,913.5l0,-1" class="g3_343" />
<path d="M46.5,937.5l0,-24" class="g3_343" />
<path d="M46.5,938.5l0,-1" class="g3_343" />
<path d="M46.5,938.5l0,-1" class="g3_343" />
<path d="M47.5,938.5l178,0" class="g3_343" />
<path d="M225.5,937.5l0,-24" class="g3_343" />
<path d="M225.5,938.5l0,-1" class="g3_343" />
<path d="M226.5,938.5l163,0" class="g3_343" />
<path d="M389.5,937.5l0,-24" class="g3_343" />
<path d="M389.5,938.5l0,-1" class="g3_343" />
<path d="M390.5,938.5l497,0" class="g3_343" />
<path d="M887.5,937.5l0,-24" class="g3_343" />
<path d="M887.5,938.5l0,-1" class="g3_343" />
<path d="M887.5,938.5l0,-1" class="g3_343" />
<path fill-rule="evenodd" d="M47,1011l177,0l0,-23L47,988l0,23Z" class="g4_343" />
<g clip-path="url(#c9_343)">
<path fill-rule="evenodd" d="M55,1011l162,0l0,-23L55,988l0,23Z" class="g4_343" />
</g>
<path fill-rule="evenodd" d="M226,1011l162,0l0,-23l-162,0l0,23Z" class="g4_343" />
<g clip-path="url(#c10_343)">
<path fill-rule="evenodd" d="M233,1011l148,0l0,-23l-148,0l0,23Z" class="g4_343" />
</g>
<path fill-rule="evenodd" d="M390,1011l163,0l0,-23l-163,0l0,23Z" class="g4_343" />
<g clip-path="url(#c11_343)">
<path fill-rule="evenodd" d="M397,1011l148,0l0,-23l-148,0l0,23Z" class="g4_343" />
</g>
<path fill-rule="evenodd" d="M554,1011l163,0l0,-23l-163,0l0,23Z" class="g4_343" />
<g clip-path="url(#c12_343)">
<path fill-rule="evenodd" d="M562,1011l148,0l0,-23l-148,0l0,23Z" class="g4_343" />
</g>
<path fill-rule="evenodd" d="M719,1011l168,0l0,-23l-168,0l0,23Z" class="g4_343" />
<g clip-path="url(#c13_343)">
<path fill-rule="evenodd" d="M726,1011l154,0l0,-23l-154,0l0,23Z" class="g4_343" />
</g>
<path d="M46.5,987.5l0,-1" class="g3_343" />
<path d="M46.5,987.5l0,-1" class="g3_343" />
<path d="M47.5,987.5l177,0" class="g3_343" />
<path d="M224.5,987.5l0,-1" class="g3_343" />
<path d="M226.5,987.5l162,0" class="g3_343" />
<path d="M388.5,987.5l0,-1" class="g3_343" />
<path d="M390.5,987.5l163,0" class="g3_343" />
<path d="M553.5,987.5l0,-1" class="g3_343" />
<path d="M554.5,987.5l163,0" class="g3_343" />
<path d="M717.5,987.5l0,-1" class="g3_343" />
<path d="M719.5,987.5l168,0" class="g3_343" />
<path d="M887.5,987.5l0,-1" class="g3_343" />
<path d="M887.5,987.5l0,-1" class="g3_343" />
<path d="M46.5,1011.5l0,-24" class="g3_343" />
<path d="M224.5,1011.5l0,-24" class="g3_343" />
<path d="M388.5,1011.5l0,-24" class="g3_343" />
<path d="M553.5,1011.5l0,-24" class="g3_343" />
<path d="M717.5,1011.5l0,-24" class="g3_343" />
<path d="M887.5,1011.5l0,-24" class="g3_343" />
<path fill-rule="evenodd" d="M47,1037l177,0l0,-24l-177,0l0,24Z" class="g1_343" />
<g clip-path="url(#c14_343)">
<path fill-rule="evenodd" d="M55,1037l162,0l0,-24l-162,0l0,24Z" class="g1_343" />
</g>
<path fill-rule="evenodd" d="M226,1037l162,0l0,-24l-162,0l0,24Z" class="g1_343" />
<g clip-path="url(#c15_343)">
<path fill-rule="evenodd" d="M233,1037l148,0l0,-24l-148,0l0,24Z" class="g1_343" />
</g>
<path fill-rule="evenodd" d="M390,1037l163,0l0,-24l-163,0l0,24Z" class="g1_343" />
<g clip-path="url(#c16_343)">
<path fill-rule="evenodd" d="M397,1037l148,0l0,-24l-148,0l0,24Z" class="g1_343" />
</g>
<path fill-rule="evenodd" d="M554,1037l163,0l0,-24l-163,0l0,24Z" class="g1_343" />
<g clip-path="url(#c17_343)">
<path fill-rule="evenodd" d="M562,1037l148,0l0,-24l-148,0l0,24Z" class="g1_343" />
</g>
<path fill-rule="evenodd" d="M719,1037l168,0l0,-24l-168,0l0,24Z" class="g1_343" />
<g clip-path="url(#c18_343)">
<path fill-rule="evenodd" d="M726,1037l154,0l0,-24l-154,0l0,24Z" class="g1_343" />
</g>
<path d="M46.5,1013.5l0,-2" class="g3_343" />
<path d="M47.5,1013.5l177,0" class="g3_343" />
<path d="M224.5,1013.5l0,-2" class="g3_343" />
<path d="M226.5,1013.5l162,0" class="g3_343" />
<path d="M388.5,1013.5l0,-2" class="g3_343" />
<path d="M390.5,1013.5l163,0" class="g3_343" />
<path d="M553.5,1013.5l0,-2" class="g3_343" />
<path d="M554.5,1013.5l163,0" class="g3_343" />
<path d="M717.5,1013.5l0,-2" class="g3_343" />
<path d="M719.5,1013.5l168,0" class="g3_343" />
<path d="M887.5,1013.5l0,-2" class="g3_343" />
<path d="M46.5,1037.5l0,-24" class="g3_343" />
<path d="M46.5,1038.5l0,-1" class="g3_343" />
<path d="M46.5,1038.5l0,-1" class="g3_343" />
<path d="M47.5,1038.5l177,0" class="g3_343" />
<path d="M224.5,1037.5l0,-24" class="g3_343" />
<path d="M224.5,1038.5l0,-1" class="g3_343" />
<path d="M226.5,1038.5l162,0" class="g3_343" />
<path d="M388.5,1037.5l0,-24" class="g3_343" />
<path d="M388.5,1038.5l0,-1" class="g3_343" />
<path d="M390.5,1038.5l163,0" class="g3_343" />
<path d="M553.5,1037.5l0,-24" class="g3_343" />
<path d="M553.5,1038.5l0,-1" class="g3_343" />
<path d="M554.5,1038.5l163,0" class="g3_343" />
<path d="M717.5,1037.5l0,-24" class="g3_343" />
<path d="M717.5,1038.5l0,-1" class="g3_343" />
<path d="M719.5,1038.5l168,0" class="g3_343" />
<path d="M887.5,1037.5l0,-24" class="g3_343" />
<path d="M887.5,1038.5l0,-1" class="g3_343" />
<path d="M887.5,1038.5l0,-1" class="g3_343" />
</svg>