<?xml version="1.0" encoding="UTF-8" standalone="no"?>
<!DOCTYPE svg PUBLIC "-//W3C//DTD SVG 1.1//EN"
"http://www.w3.org/Graphics/SVG/1.1/DTD/svg11.dtd">
<svg version="1.1" xmlns="http://www.w3.org/2000/svg" xmlns:xlink="http://www.w3.org/1999/xlink">
<defs>
<clipPath id="c0_92"><path d="M47.5,198.5l0,-24l247,0l0,24Z" /></clipPath>
<clipPath id="c1_92"><path d="M296.5,198.5l0,-24l88,0l0,24Z" /></clipPath>
<clipPath id="c2_92"><path d="M385.5,198.5l0,-24l502,0l0,24Z" /></clipPath>
<clipPath id="c3_92"><path d="M47.5,1075.5l0,-875l36,0l0,875Z" /></clipPath>
<clipPath id="c4_92"><path d="M85.5,224.5l0,-24l209,0l0,24Z" /></clipPath>
<clipPath id="c5_92"><path d="M296.5,224.5l0,-24l88,0l0,24Z" /></clipPath>
<clipPath id="c6_92"><path d="M385.5,224.5l0,-24l502,0l0,24Z" /></clipPath>
<clipPath id="c7_92"><path d="M85.5,249.5l0,-24l209,0l0,24Z" /></clipPath>
<clipPath id="c8_92"><path d="M296.5,249.5l0,-24l88,0l0,24Z" /></clipPath>
<clipPath id="c9_92"><path d="M385.5,249.5l0,-24l502,0l0,24Z" /></clipPath>
<clipPath id="c10_92"><path d="M85.5,274.5l0,-23l209,0l0,23Z" /></clipPath>
<clipPath id="c11_92"><path d="M296.5,274.5l0,-23l88,0l0,23Z" /></clipPath>
<clipPath id="c12_92"><path d="M385.5,274.5l0,-23l502,0l0,23Z" /></clipPath>
<clipPath id="c13_92"><path d="M85.5,1075.5l0,-799l30,0l0,799Z" /></clipPath>
<clipPath id="c14_92"><path d="M117.5,1075.5l0,-799l33,0l0,799Z" /></clipPath>
<clipPath id="c15_92"><path d="M152.5,371.5l0,-95l142,0l0,95Z" /></clipPath>
<clipPath id="c16_92"><path d="M296.5,371.5l0,-95l88,0l0,95Z" /></clipPath>
<clipPath id="c17_92"><path d="M385.5,371.5l0,-95l502,0l0,95Z" /></clipPath>
<clipPath id="c18_92"><path d="M152.5,492.5l0,-119l142,0l0,119Z" /></clipPath>
<clipPath id="c19_92"><path d="M296.5,492.5l0,-119l88,0l0,119Z" /></clipPath>
<clipPath id="c20_92"><path d="M385.5,492.5l0,-119l502,0l0,119Z" /></clipPath>
<clipPath id="c21_92"><path d="M152.5,856.5l0,-239l142,0l0,239Z" /></clipPath>
<clipPath id="c22_92"><path d="M296.5,856.5l0,-239l88,0l0,239Z" /></clipPath>
<clipPath id="c23_92"><path d="M385.5,856.5l0,-239l502,0l0,239Z" /></clipPath>
<clipPath id="c24_92"><path d="M152.5,881.5l0,-24l142,0l0,24Z" /></clipPath>
<clipPath id="c25_92"><path d="M296.5,881.5l0,-24l88,0l0,24Z" /></clipPath>
<clipPath id="c26_92"><path d="M385.5,881.5l0,-24l502,0l0,24Z" /></clipPath>
<clipPath id="c27_92"><path d="M152.5,930.5l0,-47l142,0l0,47Z" /></clipPath>
<clipPath id="c28_92"><path d="M296.5,930.5l0,-47l88,0l0,47Z" /></clipPath>
<clipPath id="c29_92"><path d="M385.5,930.5l0,-47l502,0l0,47Z" /></clipPath>
<clipPath id="c30_92"><path d="M385.5,1075.5l0,-143l502,0l0,143Z" /></clipPath>
<style type="text/css"><![CDATA[
.g2_92{
fill: none;
stroke: #7E7E7E;
stroke-width: 1;
stroke-linecap: butt;
stroke-linejoin: miter;
}
.g3_92{
fill: #F1F1F1;
}
.g1_92{
fill: #DBE5F1;
}
]]></style>
</defs>
<path fill-rule="evenodd" d="M47,198l247,0l0,-24L47,174l0,24Z" class="g1_92" />
<g clip-path="url(#c0_92)">
<path fill-rule="evenodd" d="M55,198l232,0l0,-24L55,174l0,24Z" class="g1_92" />
</g>
<path fill-rule="evenodd" d="M296,198l88,0l0,-24l-88,0l0,24Z" class="g1_92" />
<g clip-path="url(#c1_92)">
<path fill-rule="evenodd" d="M303,198l73,0l0,-24l-73,0l0,24Z" class="g1_92" />
</g>
<path fill-rule="evenodd" d="M385,198l502,0l0,-24l-502,0l0,24Z" class="g1_92" />
<g clip-path="url(#c2_92)">
<path fill-rule="evenodd" d="M393,198l487,0l0,-24l-487,0l0,24Z" class="g1_92" />
</g>
<path d="M46.5,174.5l0,-1" class="g2_92" />
<path d="M46.5,174.5l0,-1" class="g2_92" />
<path d="M47.5,174.5l248,0" class="g2_92" />
<path d="M295.5,174.5l0,-1" class="g2_92" />
<path d="M296.5,174.5l88,0" class="g2_92" />
<path d="M384.5,174.5l0,-1" class="g2_92" />
<path d="M385.5,174.5l502,0" class="g2_92" />
<path d="M887.5,174.5l0,-1" class="g2_92" />
<path d="M887.5,174.5l0,-1" class="g2_92" />
<path d="M46.5,198.5l0,-24" class="g2_92" />
<path d="M295.5,198.5l0,-24" class="g2_92" />
<path d="M384.5,198.5l0,-24" class="g2_92" />
<path d="M887.5,198.5l0,-24" class="g2_92" />
<path fill-rule="evenodd" d="M47,1075l36,0L83,200l-36,0l0,875Z" class="g3_92" />
<g clip-path="url(#c3_92)">
<path fill-rule="evenodd" d="M55,1075l23,0L78,200l-23,0l0,875Z" class="g3_92" />
</g>
<path fill-rule="evenodd" d="M85,224l209,0l0,-24L85,200l0,24Z" class="g3_92" />
<g clip-path="url(#c4_92)">
<path fill-rule="evenodd" d="M92,224l195,0l0,-24L92,200l0,24Z" class="g3_92" />
</g>
<path fill-rule="evenodd" d="M296,224l88,0l0,-24l-88,0l0,24Z" class="g3_92" />
<g clip-path="url(#c5_92)">
<path fill-rule="evenodd" d="M303,224l73,0l0,-24l-73,0l0,24Z" class="g3_92" />
</g>
<path fill-rule="evenodd" d="M385,224l502,0l0,-24l-502,0l0,24Z" class="g3_92" />
<g clip-path="url(#c6_92)">
<path fill-rule="evenodd" d="M393,224l487,0l0,-24l-487,0l0,24Z" class="g3_92" />
</g>
<path d="M46.5,200.5l0,-2" class="g2_92" />
<path d="M47.5,200.5l36,0" class="g2_92" />
<path d="M83.5,200.5l0,-2" class="g2_92" />
<path d="M85.5,200.5l210,0" class="g2_92" />
<path d="M295.5,200.5l0,-2" class="g2_92" />
<path d="M296.5,200.5l88,0" class="g2_92" />
<path d="M384.5,200.5l0,-2" class="g2_92" />
<path d="M385.5,200.5l502,0" class="g2_92" />
<path d="M887.5,200.5l0,-2" class="g2_92" />
<path d="M46.5,224.5l0,-24" class="g2_92" />
<path d="M83.5,224.5l0,-24" class="g2_92" />
<path d="M295.5,224.5l0,-24" class="g2_92" />
<path d="M384.5,224.5l0,-24" class="g2_92" />
<path d="M887.5,224.5l0,-24" class="g2_92" />
<path fill-rule="evenodd" d="M85,249l209,0l0,-24L85,225l0,24Z" class="g3_92" />
<g clip-path="url(#c7_92)">
<path fill-rule="evenodd" d="M92,249l195,0l0,-24L92,225l0,24Z" class="g3_92" />
</g>
<path fill-rule="evenodd" d="M296,249l88,0l0,-24l-88,0l0,24Z" class="g3_92" />
<g clip-path="url(#c8_92)">
<path fill-rule="evenodd" d="M303,249l73,0l0,-24l-73,0l0,24Z" class="g3_92" />
</g>
<path fill-rule="evenodd" d="M385,249l502,0l0,-24l-502,0l0,24Z" class="g3_92" />
<g clip-path="url(#c9_92)">
<path fill-rule="evenodd" d="M393,249l487,0l0,-24l-487,0l0,24Z" class="g3_92" />
</g>
<path d="M46.5,225.5l0,-1" class="g2_92" />
<path d="M83.5,225.5l0,-1" class="g2_92" />
<path d="M85.5,225.5l210,0" class="g2_92" />
<path d="M295.5,225.5l0,-1" class="g2_92" />
<path d="M296.5,225.5l88,0" class="g2_92" />
<path d="M384.5,225.5l0,-1" class="g2_92" />
<path d="M385.5,225.5l502,0" class="g2_92" />
<path d="M887.5,225.5l0,-1" class="g2_92" />
<path d="M46.5,249.5l0,-24" class="g2_92" />
<path d="M83.5,249.5l0,-24" class="g2_92" />
<path d="M295.5,249.5l0,-24" class="g2_92" />
<path d="M384.5,249.5l0,-24" class="g2_92" />
<path d="M887.5,249.5l0,-24" class="g2_92" />
<path fill-rule="evenodd" d="M85,274l209,0l0,-23L85,251l0,23Z" class="g3_92" />
<g clip-path="url(#c10_92)">
<path fill-rule="evenodd" d="M92,274l195,0l0,-23L92,251l0,23Z" class="g3_92" />
</g>
<path fill-rule="evenodd" d="M296,274l88,0l0,-23l-88,0l0,23Z" class="g3_92" />
<g clip-path="url(#c11_92)">
<path fill-rule="evenodd" d="M303,274l73,0l0,-23l-73,0l0,23Z" class="g3_92" />
</g>
<path fill-rule="evenodd" d="M385,274l502,0l0,-23l-502,0l0,23Z" class="g3_92" />
<g clip-path="url(#c12_92)">
<path fill-rule="evenodd" d="M393,274l487,0l0,-23l-487,0l0,23Z" class="g3_92" />
</g>
<path d="M46.5,251.5l0,-2" class="g2_92" />
<path d="M83.5,251.5l0,-2" class="g2_92" />
<path d="M85.5,251.5l210,0" class="g2_92" />
<path d="M295.5,251.5l0,-2" class="g2_92" />
<path d="M296.5,251.5l88,0" class="g2_92" />
<path d="M384.5,251.5l0,-2" class="g2_92" />
<path d="M385.5,251.5l502,0" class="g2_92" />
<path d="M887.5,251.5l0,-2" class="g2_92" />
<path d="M46.5,274.5l0,-23" class="g2_92" />
<path d="M83.5,274.5l0,-23" class="g2_92" />
<path d="M295.5,274.5l0,-23" class="g2_92" />
<path d="M384.5,274.5l0,-23" class="g2_92" />
<path d="M887.5,274.5l0,-23" class="g2_92" />
<path fill-rule="evenodd" d="M85,1075l30,0l0,-799l-30,0l0,799Z" class="g3_92" />
<g clip-path="url(#c13_92)">
<path fill-rule="evenodd" d="M92,1075l23,0l0,-799l-23,0l0,799Z" class="g3_92" />
</g>
<path fill-rule="evenodd" d="M117,1075l33,0l0,-799l-33,0l0,799Z" class="g3_92" />
<g clip-path="url(#c14_92)">
<path fill-rule="evenodd" d="M125,1075l23,0l0,-799l-23,0l0,799Z" class="g3_92" />
</g>
<path fill-rule="evenodd" d="M152,371l142,0l0,-95l-142,0l0,95Z" class="g3_92" />
<g clip-path="url(#c15_92)">
<path fill-rule="evenodd" d="M159,300l128,0l0,-24l-128,0l0,24Z" class="g3_92" />
</g>
<path fill-rule="evenodd" d="M296,371l88,0l0,-95l-88,0l0,95Z" class="g3_92" />
<g clip-path="url(#c16_92)">
<path fill-rule="evenodd" d="M303,300l73,0l0,-24l-73,0l0,24Z" class="g3_92" />
</g>
<path fill-rule="evenodd" d="M385,371l502,0l0,-95l-502,0l0,95Z" class="g3_92" />
<g clip-path="url(#c17_92)">
<path fill-rule="evenodd" d="M393,300l487,0l0,-24l-487,0l0,24Z" class="g3_92" />
</g>
<path fill-rule="evenodd" d="M393,323l487,0l0,-23l-487,0l0,23Z" class="g3_92" />
<path fill-rule="evenodd" d="M393,347l487,0l0,-24l-487,0l0,24Z" class="g3_92" />
<path fill-rule="evenodd" d="M393,371l487,0l0,-24l-487,0l0,24Z" class="g3_92" />
<path d="M46.5,276.5l0,-2" class="g2_92" />
<path d="M83.5,276.5l0,-2" class="g2_92" />
<path d="M85.5,276.5l31,0" class="g2_92" />
<path d="M116.5,276.5l0,-2" class="g2_92" />
<path d="M117.5,276.5l33,0" class="g2_92" />
<path d="M150.5,276.5l0,-2" class="g2_92" />
<path d="M152.5,276.5l143,0" class="g2_92" />
<path d="M295.5,276.5l0,-2" class="g2_92" />
<path d="M296.5,276.5l88,0" class="g2_92" />
<path d="M384.5,276.5l0,-2" class="g2_92" />
<path d="M385.5,276.5l502,0" class="g2_92" />
<path d="M887.5,276.5l0,-2" class="g2_92" />
<path d="M46.5,371.5l0,-95" class="g2_92" />
<path d="M83.5,371.5l0,-95" class="g2_92" />
<path d="M116.5,371.5l0,-95" class="g2_92" />
<path d="M150.5,371.5l0,-95" class="g2_92" />
<path d="M295.5,371.5l0,-95" class="g2_92" />
<path d="M384.5,371.5l0,-95" class="g2_92" />
<path d="M887.5,371.5l0,-95" class="g2_92" />
<path fill-rule="evenodd" d="M152,492l142,0l0,-119l-142,0l0,119Z" class="g3_92" />
<g clip-path="url(#c18_92)">
<path fill-rule="evenodd" d="M159,397l128,0l0,-24l-128,0l0,24Z" class="g3_92" />
</g>
<path fill-rule="evenodd" d="M296,492l88,0l0,-119l-88,0l0,119Z" class="g3_92" />
<g clip-path="url(#c19_92)">
<path fill-rule="evenodd" d="M303,397l73,0l0,-24l-73,0l0,24Z" class="g3_92" />
</g>
<path fill-rule="evenodd" d="M385,492l502,0l0,-119l-502,0l0,119Z" class="g3_92" />
<g clip-path="url(#c20_92)">
<path fill-rule="evenodd" d="M393,397l487,0l0,-24l-487,0l0,24Z" class="g3_92" />
</g>
<path fill-rule="evenodd" d="M393,421l487,0l0,-24l-487,0l0,24Z" class="g3_92" />
<path fill-rule="evenodd" d="M393,444l487,0l0,-23l-487,0l0,23Z" class="g3_92" />
<path fill-rule="evenodd" d="M393,468l487,0l0,-24l-487,0l0,24Z" class="g3_92" />
<path fill-rule="evenodd" d="M393,492l487,0l0,-24l-487,0l0,24Z" class="g3_92" />
<path d="M46.5,373.5l0,-2" class="g2_92" />
<path d="M83.5,373.5l0,-2" class="g2_92" />
<path d="M116.5,373.5l0,-2" class="g2_92" />
<path d="M150.5,373.5l0,-2" class="g2_92" />
<path d="M152.5,373.5l143,0" class="g2_92" />
<path d="M295.5,373.5l0,-2" class="g2_92" />
<path d="M296.5,373.5l88,0" class="g2_92" />
<path d="M384.5,373.5l0,-2" class="g2_92" />
<path d="M385.5,373.5l502,0" class="g2_92" />
<path d="M887.5,373.5l0,-2" class="g2_92" />
<path d="M46.5,492.5l0,-119" class="g2_92" />
<path d="M83.5,492.5l0,-119" class="g2_92" />
<path d="M116.5,492.5l0,-119" class="g2_92" />
<path d="M150.5,492.5l0,-119" class="g2_92" />
<path d="M295.5,492.5l0,-119" class="g2_92" />
<path d="M384.5,492.5l0,-119" class="g2_92" />
<path d="M887.5,492.5l0,-119" class="g2_92" />
<path fill-rule="evenodd" d="M152,541l142,0l0,-48l-142,0l0,48Z" class="g3_92" />
<path fill-rule="evenodd" d="M159,517l128,0l0,-24l-128,0l0,24Z" class="g3_92" />
<path fill-rule="evenodd" d="M296,541l88,0l0,-48l-88,0l0,48Z" class="g3_92" />
<path fill-rule="evenodd" d="M303,517l73,0l0,-24l-73,0l0,24Z" class="g3_92" />
<path fill-rule="evenodd" d="M385,541l502,0l0,-48l-502,0l0,48Z" class="g3_92" />
<path fill-rule="evenodd" d="M393,517l487,0l0,-24l-487,0l0,24Z" class="g3_92" />
<path fill-rule="evenodd" d="M393,541l487,0l0,-24l-487,0l0,24Z" class="g3_92" />
<path d="M46.5,493.5l0,-1" class="g2_92" />
<path d="M83.5,493.5l0,-1" class="g2_92" />
<path d="M116.5,493.5l0,-1" class="g2_92" />
<path d="M150.5,493.5l0,-1" class="g2_92" />
<path d="M152.5,493.5l143,0" class="g2_92" />
<path d="M295.5,493.5l0,-1" class="g2_92" />
<path d="M296.5,493.5l88,0" class="g2_92" />
<path d="M384.5,493.5l0,-1" class="g2_92" />
<path d="M385.5,493.5l502,0" class="g2_92" />
<path d="M887.5,493.5l0,-1" class="g2_92" />
<path d="M46.5,541.5l0,-48" class="g2_92" />
<path d="M83.5,541.5l0,-48" class="g2_92" />
<path d="M116.5,541.5l0,-48" class="g2_92" />
<path d="M150.5,541.5l0,-48" class="g2_92" />
<path d="M295.5,541.5l0,-48" class="g2_92" />
<path d="M384.5,541.5l0,-48" class="g2_92" />
<path d="M887.5,541.5l0,-48" class="g2_92" />
<path fill-rule="evenodd" d="M152,566l142,0l0,-23l-142,0l0,23Z" class="g3_92" />
<path fill-rule="evenodd" d="M159,566l128,0l0,-23l-128,0l0,23Z" class="g3_92" />
<path fill-rule="evenodd" d="M296,566l88,0l0,-23l-88,0l0,23Z" class="g3_92" />
<path fill-rule="evenodd" d="M303,566l73,0l0,-23l-73,0l0,23Z" class="g3_92" />
<path fill-rule="evenodd" d="M385,566l502,0l0,-23l-502,0l0,23Z" class="g3_92" />
<path fill-rule="evenodd" d="M393,566l487,0l0,-23l-487,0l0,23Z" class="g3_92" />
<path d="M46.5,543.5l0,-2" class="g2_92" />
<path d="M83.5,543.5l0,-2" class="g2_92" />
<path d="M116.5,543.5l0,-2" class="g2_92" />
<path d="M150.5,543.5l0,-2" class="g2_92" />
<path d="M152.5,543.5l143,0" class="g2_92" />
<path d="M295.5,543.5l0,-2" class="g2_92" />
<path d="M296.5,543.5l88,0" class="g2_92" />
<path d="M384.5,543.5l0,-2" class="g2_92" />
<path d="M385.5,543.5l502,0" class="g2_92" />
<path d="M887.5,543.5l0,-2" class="g2_92" />
<path d="M46.5,566.5l0,-23" class="g2_92" />
<path d="M83.5,566.5l0,-23" class="g2_92" />
<path d="M116.5,566.5l0,-23" class="g2_92" />
<path d="M150.5,566.5l0,-23" class="g2_92" />
<path d="M295.5,566.5l0,-23" class="g2_92" />
<path d="M384.5,566.5l0,-23" class="g2_92" />
<path d="M887.5,566.5l0,-23" class="g2_92" />
<path fill-rule="evenodd" d="M152,616l142,0l0,-48l-142,0l0,48Z" class="g3_92" />
<path fill-rule="evenodd" d="M159,592l128,0l0,-24l-128,0l0,24Z" class="g3_92" />
<path fill-rule="evenodd" d="M296,616l88,0l0,-48l-88,0l0,48Z" class="g3_92" />
<path fill-rule="evenodd" d="M303,592l73,0l0,-24l-73,0l0,24Z" class="g3_92" />
<path fill-rule="evenodd" d="M385,616l502,0l0,-48l-502,0l0,48Z" class="g3_92" />
<path fill-rule="evenodd" d="M393,592l487,0l0,-24l-487,0l0,24Z" class="g3_92" />
<path fill-rule="evenodd" d="M393,616l487,0l0,-24l-487,0l0,24Z" class="g3_92" />
<path d="M46.5,568.5l0,-2" class="g2_92" />
<path d="M83.5,568.5l0,-2" class="g2_92" />
<path d="M116.5,568.5l0,-2" class="g2_92" />
<path d="M150.5,568.5l0,-2" class="g2_92" />
<path d="M152.5,568.5l143,0" class="g2_92" />
<path d="M295.5,568.5l0,-2" class="g2_92" />
<path d="M296.5,568.5l88,0" class="g2_92" />
<path d="M384.5,568.5l0,-2" class="g2_92" />
<path d="M385.5,568.5l502,0" class="g2_92" />
<path d="M887.5,568.5l0,-2" class="g2_92" />
<path d="M46.5,616.5l0,-48" class="g2_92" />
<path d="M83.5,616.5l0,-48" class="g2_92" />
<path d="M116.5,616.5l0,-48" class="g2_92" />
<path d="M150.5,616.5l0,-48" class="g2_92" />
<path d="M295.5,616.5l0,-48" class="g2_92" />
<path d="M384.5,616.5l0,-48" class="g2_92" />
<path d="M887.5,616.5l0,-48" class="g2_92" />
<path fill-rule="evenodd" d="M152,856l142,0l0,-239l-142,0l0,239Z" class="g3_92" />
<g clip-path="url(#c21_92)">
<path fill-rule="evenodd" d="M159,641l128,0l0,-24l-128,0l0,24Z" class="g3_92" />
</g>
<path fill-rule="evenodd" d="M296,856l88,0l0,-239l-88,0l0,239Z" class="g3_92" />
<g clip-path="url(#c22_92)">
<path fill-rule="evenodd" d="M303,641l73,0l0,-24l-73,0l0,24Z" class="g3_92" />
</g>
<path fill-rule="evenodd" d="M385,856l502,0l0,-239l-502,0l0,239Z" class="g3_92" />
<g clip-path="url(#c23_92)">
<path fill-rule="evenodd" d="M393,641l487,0l0,-24l-487,0l0,24Z" class="g3_92" />
</g>
<path fill-rule="evenodd" d="M393,665l487,0l0,-24l-487,0l0,24Z" class="g3_92" />
<path fill-rule="evenodd" d="M393,689l487,0l0,-24l-487,0l0,24Z" class="g3_92" />
<path fill-rule="evenodd" d="M393,713l487,0l0,-24l-487,0l0,24Z" class="g3_92" />
<path fill-rule="evenodd" d="M393,736l487,0l0,-23l-487,0l0,23Z" class="g3_92" />
<path fill-rule="evenodd" d="M393,760l487,0l0,-24l-487,0l0,24Z" class="g3_92" />
<path fill-rule="evenodd" d="M393,784l487,0l0,-24l-487,0l0,24Z" class="g3_92" />
<path fill-rule="evenodd" d="M393,808l487,0l0,-24l-487,0l0,24Z" class="g3_92" />
<path fill-rule="evenodd" d="M393,832l487,0l0,-24l-487,0l0,24Z" class="g3_92" />
<path fill-rule="evenodd" d="M393,856l487,0l0,-24l-487,0l0,24Z" class="g3_92" />
<path d="M46.5,617.5l0,-1" class="g2_92" />
<path d="M83.5,617.5l0,-1" class="g2_92" />
<path d="M116.5,617.5l0,-1" class="g2_92" />
<path d="M150.5,617.5l0,-1" class="g2_92" />
<path d="M152.5,617.5l143,0" class="g2_92" />
<path d="M295.5,617.5l0,-1" class="g2_92" />
<path d="M296.5,617.5l88,0" class="g2_92" />
<path d="M384.5,617.5l0,-1" class="g2_92" />
<path d="M385.5,617.5l502,0" class="g2_92" />
<path d="M887.5,617.5l0,-1" class="g2_92" />
<path d="M46.5,856.5l0,-239" class="g2_92" />
<path d="M83.5,856.5l0,-239" class="g2_92" />
<path d="M116.5,856.5l0,-239" class="g2_92" />
<path d="M150.5,856.5l0,-239" class="g2_92" />
<path d="M295.5,856.5l0,-239" class="g2_92" />
<path d="M384.5,856.5l0,-239" class="g2_92" />
<path d="M887.5,856.5l0,-239" class="g2_92" />
<path fill-rule="evenodd" d="M152,881l142,0l0,-24l-142,0l0,24Z" class="g3_92" />
<g clip-path="url(#c24_92)">
<path fill-rule="evenodd" d="M159,881l128,0l0,-24l-128,0l0,24Z" class="g3_92" />
</g>
<path fill-rule="evenodd" d="M296,881l88,0l0,-24l-88,0l0,24Z" class="g3_92" />
<g clip-path="url(#c25_92)">
<path fill-rule="evenodd" d="M303,881l73,0l0,-24l-73,0l0,24Z" class="g3_92" />
</g>
<path fill-rule="evenodd" d="M385,881l502,0l0,-24l-502,0l0,24Z" class="g3_92" />
<g clip-path="url(#c26_92)">
<path fill-rule="evenodd" d="M393,881l487,0l0,-24l-487,0l0,24Z" class="g3_92" />
</g>
<path d="M46.5,857.5l0,-1" class="g2_92" />
<path d="M83.5,857.5l0,-1" class="g2_92" />
<path d="M116.5,857.5l0,-1" class="g2_92" />
<path d="M150.5,857.5l0,-1" class="g2_92" />
<path d="M152.5,857.5l143,0" class="g2_92" />
<path d="M295.5,857.5l0,-1" class="g2_92" />
<path d="M296.5,857.5l88,0" class="g2_92" />
<path d="M384.5,857.5l0,-1" class="g2_92" />
<path d="M385.5,857.5l502,0" class="g2_92" />
<path d="M887.5,857.5l0,-1" class="g2_92" />
<path d="M46.5,881.5l0,-24" class="g2_92" />
<path d="M83.5,881.5l0,-24" class="g2_92" />
<path d="M116.5,881.5l0,-24" class="g2_92" />
<path d="M150.5,881.5l0,-24" class="g2_92" />
<path d="M295.5,881.5l0,-24" class="g2_92" />
<path d="M384.5,881.5l0,-24" class="g2_92" />
<path d="M887.5,881.5l0,-24" class="g2_92" />
<path fill-rule="evenodd" d="M152,930l142,0l0,-47l-142,0l0,47Z" class="g3_92" />
<g clip-path="url(#c27_92)">
<path fill-rule="evenodd" d="M159,906l128,0l0,-23l-128,0l0,23Z" class="g3_92" />
</g>
<path fill-rule="evenodd" d="M296,930l88,0l0,-47l-88,0l0,47Z" class="g3_92" />
<g clip-path="url(#c28_92)">
<path fill-rule="evenodd" d="M303,906l73,0l0,-23l-73,0l0,23Z" class="g3_92" />
</g>
<path fill-rule="evenodd" d="M385,930l502,0l0,-47l-502,0l0,47Z" class="g3_92" />
<g clip-path="url(#c29_92)">
<path fill-rule="evenodd" d="M393,906l487,0l0,-23l-487,0l0,23Z" class="g3_92" />
<path fill-rule="evenodd" d="M393,930l487,0l0,-24l-487,0l0,24Z" class="g3_92" />
</g>
<path d="M46.5,882.5l0,-1" class="g2_92" />
<path d="M83.5,882.5l0,-1" class="g2_92" />
<path d="M116.5,882.5l0,-1" class="g2_92" />
<path d="M150.5,882.5l0,-1" class="g2_92" />
<path d="M152.5,882.5l143,0" class="g2_92" />
<path d="M295.5,882.5l0,-1" class="g2_92" />
<path d="M296.5,882.5l88,0" class="g2_92" />
<path d="M384.5,882.5l0,-1" class="g2_92" />
<path d="M385.5,882.5l502,0" class="g2_92" />
<path d="M887.5,882.5l0,-1" class="g2_92" />
<path d="M46.5,930.5l0,-48" class="g2_92" />
<path d="M83.5,930.5l0,-48" class="g2_92" />
<path d="M116.5,930.5l0,-48" class="g2_92" />
<path d="M150.5,930.5l0,-48" class="g2_92" />
<path d="M295.5,930.5l0,-48" class="g2_92" />
<path d="M384.5,930.5l0,-48" class="g2_92" />
<path d="M887.5,930.5l0,-48" class="g2_92" />
<path fill-rule="evenodd" d="M152,1075l142,0l0,-143l-142,0l0,143Z" class="g3_92" />
<path fill-rule="evenodd" d="M159,956l128,0l0,-24l-128,0l0,24Z" class="g3_92" />
<path fill-rule="evenodd" d="M296,1075l88,0l0,-143l-88,0l0,143Z" class="g3_92" />
<path fill-rule="evenodd" d="M303,956l73,0l0,-24l-73,0l0,24Z" class="g3_92" />
<path fill-rule="evenodd" d="M303,979l73,0l0,-23l-73,0l0,23Z" class="g3_92" />
<path fill-rule="evenodd" d="M303,1003l73,0l0,-24l-73,0l0,24Z" class="g3_92" />
<path fill-rule="evenodd" d="M385,1075l502,0l0,-143l-502,0l0,143Z" class="g3_92" />
<path fill-rule="evenodd" d="M393,956l487,0l0,-24l-487,0l0,24Z" class="g3_92" />
<path fill-rule="evenodd" d="M393,979l487,0l0,-23l-487,0l0,23Z" class="g3_92" />
<path fill-rule="evenodd" d="M393,1003l487,0l0,-24l-487,0l0,24Z" class="g3_92" />
<path fill-rule="evenodd" d="M393,1027l487,0l0,-24l-487,0l0,24Z" class="g3_92" />
<path fill-rule="evenodd" d="M393,1051l487,0l0,-24l-487,0l0,24Z" class="g3_92" />
<g clip-path="url(#c30_92)">
<path fill-rule="evenodd" d="M393,1075l487,0l0,-24l-487,0l0,24Z" class="g3_92" />
</g>
<path d="M46.5,932.5l0,-2" class="g2_92" />
<path d="M83.5,932.5l0,-2" class="g2_92" />
<path d="M116.5,932.5l0,-2" class="g2_92" />
<path d="M150.5,932.5l0,-2" class="g2_92" />
<path d="M152.5,932.5l143,0" class="g2_92" />
<path d="M295.5,932.5l0,-2" class="g2_92" />
<path d="M296.5,932.5l88,0" class="g2_92" />
<path d="M384.5,932.5l0,-2" class="g2_92" />
<path d="M385.5,932.5l502,0" class="g2_92" />
<path d="M887.5,932.5l0,-2" class="g2_92" />
<path d="M46.5,1075.5l0,-143" class="g2_92" />
<path d="M46.5,1076.5l0,-1" class="g2_92" />
<path d="M46.5,1076.5l0,-1" class="g2_92" />
<path d="M47.5,1076.5l36,0" class="g2_92" />
<path d="M83.5,1075.5l0,-143" class="g2_92" />
<path d="M83.5,1076.5l0,-1" class="g2_92" />
<path d="M85.5,1076.5l31,0" class="g2_92" />
<path d="M116.5,1075.5l0,-143" class="g2_92" />
<path d="M116.5,1076.5l0,-1" class="g2_92" />
<path d="M117.5,1076.5l33,0" class="g2_92" />
<path d="M150.5,1075.5l0,-143" class="g2_92" />
<path d="M150.5,1076.5l0,-1" class="g2_92" />
<path d="M152.5,1076.5l143,0" class="g2_92" />
<path d="M295.5,1075.5l0,-143" class="g2_92" />
<path d="M295.5,1076.5l0,-1" class="g2_92" />
<path d="M296.5,1076.5l88,0" class="g2_92" />
<path d="M384.5,1075.5l0,-143" class="g2_92" />
<path d="M384.5,1076.5l0,-1" class="g2_92" />
<path d="M385.5,1076.5l502,0" class="g2_92" />
<path d="M887.5,1075.5l0,-143" class="g2_92" />
<path d="M887.5,1076.5l0,-1" class="g2_92" />
<path d="M887.5,1076.5l0,-1" class="g2_92" />
</svg>