<?xml version="1.0" encoding="UTF-8" standalone="no"?>
<!DOCTYPE svg PUBLIC "-//W3C//DTD SVG 1.1//EN"
"http://www.w3.org/Graphics/SVG/1.1/DTD/svg11.dtd">
<svg version="1.1" xmlns="http://www.w3.org/2000/svg" xmlns:xlink="http://www.w3.org/1999/xlink">
<defs>
<clipPath id="c0_80"><path d="M47.5,199.5l0,-25l400,0l0,25Z" /></clipPath>
<clipPath id="c1_80"><path d="M449.5,199.5l0,-25l78,0l0,25Z" /></clipPath>
<clipPath id="c2_80"><path d="M529.5,199.5l0,-25l63,0l0,25Z" /></clipPath>
<clipPath id="c3_80"><path d="M594.5,199.5l0,-25l293,0l0,25Z" /></clipPath>
<clipPath id="c4_80"><path d="M47.5,326.5l0,-126l39,0l0,126Z" /></clipPath>
<clipPath id="c5_80"><path d="M88.5,225.5l0,-25l359,0l0,25Z" /></clipPath>
<clipPath id="c6_80"><path d="M449.5,225.5l0,-25l78,0l0,25Z" /></clipPath>
<clipPath id="c7_80"><path d="M529.5,225.5l0,-25l63,0l0,25Z" /></clipPath>
<clipPath id="c8_80"><path d="M594.5,225.5l0,-25l293,0l0,25Z" /></clipPath>
<clipPath id="c9_80"><path d="M88.5,326.5l0,-100l55,0l0,100Z" /></clipPath>
<clipPath id="c10_80"><path d="M145.5,254.5l0,-28l302,0l0,28Z" /></clipPath>
<clipPath id="c11_80"><path d="M449.5,254.5l0,-28l78,0l0,28Z" /></clipPath>
<clipPath id="c12_80"><path d="M529.5,254.5l0,-28l63,0l0,28Z" /></clipPath>
<clipPath id="c13_80"><path d="M594.5,254.5l0,-28l293,0l0,28Z" /></clipPath>
<clipPath id="c14_80"><path d="M145.5,326.5l0,-71l302,0l0,71Z" /></clipPath>
<clipPath id="c15_80"><path d="M449.5,326.5l0,-71l78,0l0,71Z" /></clipPath>
<clipPath id="c16_80"><path d="M529.5,326.5l0,-71l63,0l0,71Z" /></clipPath>
<clipPath id="c17_80"><path d="M594.5,326.5l0,-71l293,0l0,71Z" /></clipPath>
<clipPath id="c18_80"><path d="M47.5,761.5l0,-286l840,0l0,286Z" /></clipPath>
<clipPath id="c19_80"><path d="M47.5,1098.5l0,-263l840,0l0,263Z" /></clipPath>
<style type="text/css"><![CDATA[
.g2_80{
fill: none;
stroke: #7E7E7E;
stroke-width: 1;
stroke-linecap: butt;
stroke-linejoin: miter;
}
.g3_80{
fill: #F1F1F1;
}
.g1_80{
fill: #DBE5F1;
}
]]></style>
</defs>
<path fill-rule="evenodd" d="M47,199l400,0l0,-25L47,174l0,25Z" class="g1_80" />
<g clip-path="url(#c0_80)">
<path fill-rule="evenodd" d="M55,198l385,0l0,-24L55,174l0,24Z" class="g1_80" />
</g>
<path fill-rule="evenodd" d="M449,199l78,0l0,-25l-78,0l0,25Z" class="g1_80" />
<g clip-path="url(#c1_80)">
<path fill-rule="evenodd" d="M456,198l64,0l0,-24l-64,0l0,24Z" class="g1_80" />
</g>
<path fill-rule="evenodd" d="M529,199l63,0l0,-25l-63,0l0,25Z" class="g1_80" />
<g clip-path="url(#c2_80)">
<path fill-rule="evenodd" d="M536,198l49,0l0,-24l-49,0l0,24Z" class="g1_80" />
</g>
<path fill-rule="evenodd" d="M594,199l293,0l0,-25l-293,0l0,25Z" class="g1_80" />
<g clip-path="url(#c3_80)">
<path fill-rule="evenodd" d="M601,198l279,0l0,-24l-279,0l0,24Z" class="g1_80" />
</g>
<path d="M46.5,174.5l0,-1" class="g2_80" />
<path d="M46.5,174.5l0,-1" class="g2_80" />
<path d="M47.5,174.5l400,0" class="g2_80" />
<path d="M447.5,174.5l0,-1" class="g2_80" />
<path d="M449.5,174.5l78,0" class="g2_80" />
<path d="M527.5,174.5l0,-1" class="g2_80" />
<path d="M529.5,174.5l64,0" class="g2_80" />
<path d="M593.5,174.5l0,-1" class="g2_80" />
<path d="M594.5,174.5l293,0" class="g2_80" />
<path d="M887.5,174.5l0,-1" class="g2_80" />
<path d="M887.5,174.5l0,-1" class="g2_80" />
<path d="M46.5,199.5l0,-25" class="g2_80" />
<path d="M447.5,199.5l0,-25" class="g2_80" />
<path d="M527.5,199.5l0,-25" class="g2_80" />
<path d="M593.5,199.5l0,-25" class="g2_80" />
<path d="M887.5,199.5l0,-25" class="g2_80" />
<path fill-rule="evenodd" d="M47,326l39,0L86,200l-39,0l0,126Z" class="g3_80" />
<g clip-path="url(#c4_80)">
<path fill-rule="evenodd" d="M55,326l23,0L78,200l-23,0l0,126Z" class="g3_80" />
<path fill-rule="evenodd" d="M78,326l8,0L86,200l-8,0l0,126Z" class="g3_80" />
</g>
<path fill-rule="evenodd" d="M88,225l359,0l0,-25L88,200l0,25Z" class="g3_80" />
<g clip-path="url(#c5_80)">
<path fill-rule="evenodd" d="M95,224l345,0l0,-24L95,200l0,24Z" class="g3_80" />
</g>
<path fill-rule="evenodd" d="M449,225l78,0l0,-25l-78,0l0,25Z" class="g3_80" />
<g clip-path="url(#c6_80)">
<path fill-rule="evenodd" d="M456,224l64,0l0,-24l-64,0l0,24Z" class="g3_80" />
</g>
<path fill-rule="evenodd" d="M529,225l63,0l0,-25l-63,0l0,25Z" class="g3_80" />
<g clip-path="url(#c7_80)">
<path fill-rule="evenodd" d="M536,224l49,0l0,-24l-49,0l0,24Z" class="g3_80" />
</g>
<path fill-rule="evenodd" d="M594,225l293,0l0,-25l-293,0l0,25Z" class="g3_80" />
<g clip-path="url(#c8_80)">
<path fill-rule="evenodd" d="M601,224l279,0l0,-24l-279,0l0,24Z" class="g3_80" />
</g>
<path d="M46.5,200.5l0,-1" class="g2_80" />
<path d="M47.5,200.5l39,0" class="g2_80" />
<path d="M86.5,200.5l0,-1" class="g2_80" />
<path d="M88.5,200.5l359,0" class="g2_80" />
<path d="M447.5,200.5l0,-1" class="g2_80" />
<path d="M449.5,200.5l78,0" class="g2_80" />
<path d="M527.5,200.5l0,-1" class="g2_80" />
<path d="M529.5,200.5l64,0" class="g2_80" />
<path d="M593.5,200.5l0,-1" class="g2_80" />
<path d="M594.5,200.5l293,0" class="g2_80" />
<path d="M887.5,200.5l0,-1" class="g2_80" />
<path d="M46.5,225.5l0,-25" class="g2_80" />
<path d="M86.5,225.5l0,-25" class="g2_80" />
<path d="M447.5,225.5l0,-25" class="g2_80" />
<path d="M527.5,225.5l0,-25" class="g2_80" />
<path d="M593.5,225.5l0,-25" class="g2_80" />
<path d="M887.5,225.5l0,-25" class="g2_80" />
<path fill-rule="evenodd" d="M88,326l55,0l0,-100l-55,0l0,100Z" class="g3_80" />
<g clip-path="url(#c9_80)">
<path fill-rule="evenodd" d="M95,326l24,0l0,-100l-24,0l0,100Z" class="g3_80" />
</g>
<path fill-rule="evenodd" d="M145,254l302,0l0,-28l-302,0l0,28Z" class="g3_80" />
<g clip-path="url(#c10_80)">
<path fill-rule="evenodd" d="M152,250l288,0l0,-24l-288,0l0,24Z" class="g3_80" />
</g>
<path fill-rule="evenodd" d="M449,254l78,0l0,-28l-78,0l0,28Z" class="g3_80" />
<g clip-path="url(#c11_80)">
<path fill-rule="evenodd" d="M456,250l64,0l0,-24l-64,0l0,24Z" class="g3_80" />
</g>
<path fill-rule="evenodd" d="M529,254l63,0l0,-28l-63,0l0,28Z" class="g3_80" />
<g clip-path="url(#c12_80)">
<path fill-rule="evenodd" d="M536,250l49,0l0,-24l-49,0l0,24Z" class="g3_80" />
</g>
<path fill-rule="evenodd" d="M594,254l293,0l0,-28l-293,0l0,28Z" class="g3_80" />
<g clip-path="url(#c13_80)">
<path fill-rule="evenodd" d="M601,250l279,0l0,-24l-279,0l0,24Z" class="g3_80" />
</g>
<path d="M46.5,226.5l0,-1" class="g2_80" />
<path d="M86.5,226.5l0,-1" class="g2_80" />
<path d="M88.5,226.5l55,0" class="g2_80" />
<path d="M143.5,226.5l0,-1" class="g2_80" />
<path d="M145.5,226.5l302,0" class="g2_80" />
<path d="M447.5,226.5l0,-1" class="g2_80" />
<path d="M449.5,226.5l78,0" class="g2_80" />
<path d="M527.5,226.5l0,-1" class="g2_80" />
<path d="M529.5,226.5l64,0" class="g2_80" />
<path d="M593.5,226.5l0,-1" class="g2_80" />
<path d="M594.5,226.5l293,0" class="g2_80" />
<path d="M887.5,226.5l0,-1" class="g2_80" />
<path d="M46.5,254.5l0,-28" class="g2_80" />
<path d="M86.5,254.5l0,-28" class="g2_80" />
<path d="M143.5,254.5l0,-28" class="g2_80" />
<path d="M447.5,254.5l0,-28" class="g2_80" />
<path d="M527.5,254.5l0,-28" class="g2_80" />
<path d="M593.5,254.5l0,-28" class="g2_80" />
<path d="M887.5,254.5l0,-28" class="g2_80" />
<path fill-rule="evenodd" d="M145,326l302,0l0,-71l-302,0l0,71Z" class="g3_80" />
<g clip-path="url(#c14_80)">
<path fill-rule="evenodd" d="M152,279l288,0l0,-24l-288,0l0,24Z" class="g3_80" />
</g>
<path fill-rule="evenodd" d="M449,326l78,0l0,-71l-78,0l0,71Z" class="g3_80" />
<g clip-path="url(#c15_80)">
<path fill-rule="evenodd" d="M456,279l64,0l0,-24l-64,0l0,24Z" class="g3_80" />
</g>
<path fill-rule="evenodd" d="M529,326l63,0l0,-71l-63,0l0,71Z" class="g3_80" />
<g clip-path="url(#c16_80)">
<path fill-rule="evenodd" d="M536,279l49,0l0,-24l-49,0l0,24Z" class="g3_80" />
</g>
<path fill-rule="evenodd" d="M594,326l293,0l0,-71l-293,0l0,71Z" class="g3_80" />
<g clip-path="url(#c17_80)">
<path fill-rule="evenodd" d="M601,279l279,0l0,-24l-279,0l0,24Z" class="g3_80" />
</g>
<path d="M46.5,255.5l0,-1" class="g2_80" />
<path d="M86.5,255.5l0,-1" class="g2_80" />
<path d="M143.5,255.5l0,-1" class="g2_80" />
<path d="M145.5,255.5l302,0" class="g2_80" />
<path d="M447.5,255.5l0,-1" class="g2_80" />
<path d="M449.5,255.5l78,0" class="g2_80" />
<path d="M527.5,255.5l0,-1" class="g2_80" />
<path d="M529.5,255.5l64,0" class="g2_80" />
<path d="M593.5,255.5l0,-1" class="g2_80" />
<path d="M594.5,255.5l293,0" class="g2_80" />
<path d="M887.5,255.5l0,-1" class="g2_80" />
<path d="M46.5,326.5l0,-71" class="g2_80" />
<path d="M46.5,327.5l0,-1" class="g2_80" />
<path d="M46.5,327.5l0,-1" class="g2_80" />
<path d="M47.5,327.5l39,0" class="g2_80" />
<path d="M86.5,326.5l0,-71" class="g2_80" />
<path d="M86.5,327.5l0,-1" class="g2_80" />
<path d="M88.5,327.5l55,0" class="g2_80" />
<path d="M143.5,326.5l0,-71" class="g2_80" />
<path d="M143.5,327.5l0,-1" class="g2_80" />
<path d="M145.5,327.5l302,0" class="g2_80" />
<path d="M447.5,326.5l0,-71" class="g2_80" />
<path d="M447.5,327.5l0,-1" class="g2_80" />
<path d="M449.5,327.5l78,0" class="g2_80" />
<path d="M527.5,326.5l0,-71" class="g2_80" />
<path d="M527.5,327.5l0,-1" class="g2_80" />
<path d="M529.5,327.5l64,0" class="g2_80" />
<path d="M593.5,326.5l0,-71" class="g2_80" />
<path d="M593.5,327.5l0,-1" class="g2_80" />
<path d="M594.5,327.5l293,0" class="g2_80" />
<path d="M887.5,326.5l0,-71" class="g2_80" />
<path d="M887.5,327.5l0,-1" class="g2_80" />
<path d="M887.5,327.5l0,-1" class="g2_80" />
<path fill-rule="evenodd" d="M47,448l840,0l0,-24L47,424l0,24Z" class="g3_80" />
<path fill-rule="evenodd" d="M55,448l825,0l0,-24L55,424l0,24Z" class="g3_80" />
<path d="M46.5,424.5l0,-1" class="g2_80" />
<path d="M46.5,424.5l0,-1" class="g2_80" />
<path d="M47.5,424.5l840,0" class="g2_80" />
<path d="M887.5,424.5l0,-1" class="g2_80" />
<path d="M887.5,424.5l0,-1" class="g2_80" />
<path d="M46.5,448.5l0,-24" class="g2_80" />
<path d="M46.5,449.5l0,-1" class="g2_80" />
<path d="M46.5,449.5l0,-1" class="g2_80" />
<path d="M47.5,449.5l840,0" class="g2_80" />
<path d="M887.5,448.5l0,-24" class="g2_80" />
<path d="M887.5,449.5l0,-1" class="g2_80" />
<path d="M887.5,449.5l0,-1" class="g2_80" />
<path fill-rule="evenodd" d="M47,761l840,0l0,-286L47,475l0,286Z" class="g3_80" />
<g clip-path="url(#c18_80)">
<path fill-rule="evenodd" d="M55,499l825,0l0,-24L55,475l0,24Z" class="g3_80" />
</g>
<path fill-rule="evenodd" d="M55,523l825,0l0,-24L55,499l0,24Z" class="g3_80" />
<path fill-rule="evenodd" d="M55,546l825,0l0,-23L55,523l0,23Z" class="g3_80" />
<path fill-rule="evenodd" d="M55,570l825,0l0,-24L55,546l0,24Z" class="g3_80" />
<path fill-rule="evenodd" d="M55,594l825,0l0,-24L55,570l0,24Z" class="g3_80" />
<path fill-rule="evenodd" d="M55,618l825,0l0,-24L55,594l0,24Z" class="g3_80" />
<path fill-rule="evenodd" d="M55,642l825,0l0,-24L55,618l0,24Z" class="g3_80" />
<path fill-rule="evenodd" d="M55,666l825,0l0,-24L55,642l0,24Z" class="g3_80" />
<path fill-rule="evenodd" d="M55,689l825,0l0,-23L55,666l0,23Z" class="g3_80" />
<path fill-rule="evenodd" d="M55,713l825,0l0,-24L55,689l0,24Z" class="g3_80" />
<path fill-rule="evenodd" d="M55,737l825,0l0,-24L55,713l0,24Z" class="g3_80" />
<path fill-rule="evenodd" d="M55,761l825,0l0,-24L55,737l0,24Z" class="g3_80" />
<path d="M46.5,475.5l0,-2" class="g2_80" />
<path d="M46.5,475.5l0,-2" class="g2_80" />
<path d="M47.5,475.5l840,0" class="g2_80" />
<path d="M887.5,475.5l0,-2" class="g2_80" />
<path d="M887.5,475.5l0,-2" class="g2_80" />
<path d="M46.5,761.5l0,-286" class="g2_80" />
<path d="M46.5,762.5l0,-1" class="g2_80" />
<path d="M46.5,762.5l0,-1" class="g2_80" />
<path d="M47.5,762.5l840,0" class="g2_80" />
<path d="M887.5,761.5l0,-286" class="g2_80" />
<path d="M887.5,762.5l0,-1" class="g2_80" />
<path d="M887.5,762.5l0,-1" class="g2_80" />
<path fill-rule="evenodd" d="M47,1098l840,0l0,-263L47,835l0,263Z" class="g3_80" />
<g clip-path="url(#c19_80)">
<path fill-rule="evenodd" d="M55,859l825,0l0,-24L55,835l0,24Z" class="g3_80" />
</g>
<path fill-rule="evenodd" d="M55,883l825,0l0,-24L55,859l0,24Z" class="g3_80" />
<path fill-rule="evenodd" d="M55,907l825,0l0,-24L55,883l0,24Z" class="g3_80" />
<path fill-rule="evenodd" d="M55,931l825,0l0,-24L55,907l0,24Z" class="g3_80" />
<path fill-rule="evenodd" d="M55,955l825,0l0,-24L55,931l0,24Z" class="g3_80" />
<path fill-rule="evenodd" d="M55,978l825,0l0,-23L55,955l0,23Z" class="g3_80" />
<path fill-rule="evenodd" d="M55,1002l825,0l0,-24L55,978l0,24Z" class="g3_80" />
<path fill-rule="evenodd" d="M55,1026l825,0l0,-24l-825,0l0,24Z" class="g3_80" />
<path fill-rule="evenodd" d="M55,1050l825,0l0,-24l-825,0l0,24Z" class="g3_80" />
<path fill-rule="evenodd" d="M55,1074l825,0l0,-24l-825,0l0,24Z" class="g3_80" />
<g clip-path="url(#c19_80)">
<path fill-rule="evenodd" d="M55,1098l825,0l0,-24l-825,0l0,24Z" class="g3_80" />
</g>
<path d="M46.5,835.5l0,-1" class="g2_80" />
<path d="M46.5,835.5l0,-1" class="g2_80" />
<path d="M47.5,835.5l840,0" class="g2_80" />
<path d="M887.5,835.5l0,-1" class="g2_80" />
<path d="M887.5,835.5l0,-1" class="g2_80" />
<path d="M46.5,1098.5l0,-263" class="g2_80" />
<path d="M46.5,1099.5l0,-1" class="g2_80" />
<path d="M46.5,1099.5l0,-1" class="g2_80" />
<path d="M47.5,1099.5l840,0" class="g2_80" />
<path d="M887.5,1098.5l0,-263" class="g2_80" />
<path d="M887.5,1099.5l0,-1" class="g2_80" />
<path d="M887.5,1099.5l0,-1" class="g2_80" />
</svg>