<?xml version="1.0" encoding="UTF-8" standalone="no"?>
<!DOCTYPE svg PUBLIC "-//W3C//DTD SVG 1.1//EN"
"http://www.w3.org/Graphics/SVG/1.1/DTD/svg11.dtd">
<svg version="1.1" xmlns="http://www.w3.org/2000/svg" xmlns:xlink="http://www.w3.org/1999/xlink">
<defs>
<clipPath id="c0_440"><path d="M47.5,278.5l0,-119l840,0l0,119Z" /></clipPath>
<clipPath id="c1_440"><path d="M47.5,414.5l0,-24l378,0l0,24Z" /></clipPath>
<clipPath id="c2_440"><path d="M427.5,414.5l0,-24l81,0l0,24Z" /></clipPath>
<clipPath id="c3_440"><path d="M509.5,414.5l0,-24l378,0l0,24Z" /></clipPath>
<clipPath id="c4_440"><path d="M47.5,733.5l0,-317l41,0l0,317Z" /></clipPath>
<clipPath id="c5_440"><path d="M90.5,539.5l0,-25l335,0l0,25Z" /></clipPath>
<clipPath id="c6_440"><path d="M427.5,539.5l0,-25l81,0l0,25Z" /></clipPath>
<clipPath id="c7_440"><path d="M509.5,539.5l0,-25l378,0l0,25Z" /></clipPath>
<clipPath id="c8_440"><path d="M47.5,855.5l0,-24l840,0l0,24Z" /></clipPath>
<clipPath id="c9_440"><path d="M47.5,1096.5l0,-214l840,0l0,214Z" /></clipPath>
<style type="text/css"><![CDATA[
.g2_440{
fill: none;
stroke: #7E7E7E;
stroke-width: 1;
stroke-linecap: butt;
stroke-linejoin: miter;
}
.g3_440{
fill: #DBE5F1;
}
.g1_440{
fill: #F1F1F1;
}
]]></style>
</defs>
<path fill-rule="evenodd" d="M47,278l840,0l0,-119L47,159l0,119Z" class="g1_440" />
<g clip-path="url(#c0_440)">
<path fill-rule="evenodd" d="M55,182l825,0l0,-23L55,159l0,23Z" class="g1_440" />
</g>
<path fill-rule="evenodd" d="M55,206l825,0l0,-24L55,182l0,24Z" class="g1_440" />
<path fill-rule="evenodd" d="M55,230l825,0l0,-24L55,206l0,24Z" class="g1_440" />
<path fill-rule="evenodd" d="M55,254l825,0l0,-24L55,230l0,24Z" class="g1_440" />
<path fill-rule="evenodd" d="M55,278l825,0l0,-24L55,254l0,24Z" class="g1_440" />
<path d="M46.5,159.5l0,-2" class="g2_440" />
<path d="M46.5,159.5l0,-2" class="g2_440" />
<path d="M47.5,159.5l840,0" class="g2_440" />
<path d="M887.5,159.5l0,-2" class="g2_440" />
<path d="M887.5,159.5l0,-2" class="g2_440" />
<path d="M46.5,278.5l0,-119" class="g2_440" />
<path d="M46.5,279.5l0,-1" class="g2_440" />
<path d="M46.5,279.5l0,-1" class="g2_440" />
<path d="M47.5,279.5l840,0" class="g2_440" />
<path d="M887.5,278.5l0,-119" class="g2_440" />
<path d="M887.5,279.5l0,-1" class="g2_440" />
<path d="M887.5,279.5l0,-1" class="g2_440" />
<path fill-rule="evenodd" d="M47,414l378,0l0,-25L47,389l0,25Z" class="g3_440" />
<g clip-path="url(#c1_440)">
<path fill-rule="evenodd" d="M55,413l363,0l0,-24L55,389l0,24Z" class="g3_440" />
</g>
<path fill-rule="evenodd" d="M427,414l81,0l0,-25l-81,0l0,25Z" class="g3_440" />
<g clip-path="url(#c2_440)">
<path fill-rule="evenodd" d="M434,413l66,0l0,-24l-66,0l0,24Z" class="g3_440" />
</g>
<path fill-rule="evenodd" d="M509,414l378,0l0,-25l-378,0l0,25Z" class="g3_440" />
<g clip-path="url(#c3_440)">
<path fill-rule="evenodd" d="M517,413l363,0l0,-24l-363,0l0,24Z" class="g3_440" />
</g>
<path d="M46.5,389.5l0,-1" class="g2_440" />
<path d="M46.5,389.5l0,-1" class="g2_440" />
<path d="M47.5,389.5l378,0" class="g2_440" />
<path d="M425.5,389.5l0,-1" class="g2_440" />
<path d="M427.5,389.5l81,0" class="g2_440" />
<path d="M508.5,389.5l0,-1" class="g2_440" />
<path d="M509.5,389.5l378,0" class="g2_440" />
<path d="M887.5,389.5l0,-1" class="g2_440" />
<path d="M887.5,389.5l0,-1" class="g2_440" />
<path d="M46.5,414.5l0,-25" class="g2_440" />
<path d="M425.5,414.5l0,-25" class="g2_440" />
<path d="M508.5,414.5l0,-25" class="g2_440" />
<path d="M887.5,414.5l0,-25" class="g2_440" />
<path fill-rule="evenodd" d="M47,733l41,0L88,416l-41,0l0,317Z" class="g1_440" />
<g clip-path="url(#c4_440)">
<path fill-rule="evenodd" d="M55,733l23,0L78,416l-23,0l0,317Z" class="g1_440" />
</g>
<path fill-rule="evenodd" d="M90,487l335,0l0,-71L90,416l0,71Z" class="g1_440" />
<path fill-rule="evenodd" d="M97,439l321,0l0,-23L97,416l0,23Z" class="g1_440" />
<path fill-rule="evenodd" d="M427,487l81,0l0,-71l-81,0l0,71Z" class="g1_440" />
<path fill-rule="evenodd" d="M434,439l66,0l0,-23l-66,0l0,23Z" class="g1_440" />
<path fill-rule="evenodd" d="M509,487l378,0l0,-71l-378,0l0,71Z" class="g1_440" />
<path fill-rule="evenodd" d="M517,439l363,0l0,-23l-363,0l0,23Z" class="g1_440" />
<path fill-rule="evenodd" d="M517,463l363,0l0,-24l-363,0l0,24Z" class="g1_440" />
<path fill-rule="evenodd" d="M517,487l363,0l0,-24l-363,0l0,24Z" class="g1_440" />
<path d="M46.5,415.5l0,-1" class="g2_440" />
<path d="M47.5,415.5l41,0" class="g2_440" />
<path d="M88.5,415.5l0,-1" class="g2_440" />
<path d="M90.5,415.5l335,0" class="g2_440" />
<path d="M425.5,415.5l0,-1" class="g2_440" />
<path d="M427.5,415.5l81,0" class="g2_440" />
<path d="M508.5,415.5l0,-1" class="g2_440" />
<path d="M509.5,415.5l378,0" class="g2_440" />
<path d="M887.5,415.5l0,-1" class="g2_440" />
<path d="M46.5,487.5l0,-72" class="g2_440" />
<path d="M88.5,487.5l0,-72" class="g2_440" />
<path d="M425.5,487.5l0,-72" class="g2_440" />
<path d="M508.5,487.5l0,-72" class="g2_440" />
<path d="M887.5,487.5l0,-72" class="g2_440" />
<path fill-rule="evenodd" d="M90,513l335,0l0,-24L90,489l0,24Z" class="g1_440" />
<path fill-rule="evenodd" d="M97,512l321,0l0,-23L97,489l0,23Z" class="g1_440" />
<path fill-rule="evenodd" d="M427,513l81,0l0,-24l-81,0l0,24Z" class="g1_440" />
<path fill-rule="evenodd" d="M434,512l66,0l0,-23l-66,0l0,23Z" class="g1_440" />
<path fill-rule="evenodd" d="M509,513l378,0l0,-24l-378,0l0,24Z" class="g1_440" />
<path fill-rule="evenodd" d="M517,512l363,0l0,-23l-363,0l0,23Z" class="g1_440" />
<path d="M46.5,489.5l0,-2" class="g2_440" />
<path d="M88.5,489.5l0,-2" class="g2_440" />
<path d="M90.5,489.5l335,0" class="g2_440" />
<path d="M425.5,489.5l0,-2" class="g2_440" />
<path d="M427.5,489.5l81,0" class="g2_440" />
<path d="M508.5,489.5l0,-2" class="g2_440" />
<path d="M509.5,489.5l378,0" class="g2_440" />
<path d="M887.5,489.5l0,-2" class="g2_440" />
<path d="M46.5,513.5l0,-24" class="g2_440" />
<path d="M88.5,513.5l0,-24" class="g2_440" />
<path d="M425.5,513.5l0,-24" class="g2_440" />
<path d="M508.5,513.5l0,-24" class="g2_440" />
<path d="M887.5,513.5l0,-24" class="g2_440" />
<path fill-rule="evenodd" d="M90,539l335,0l0,-25L90,514l0,25Z" class="g1_440" />
<g clip-path="url(#c5_440)">
<path fill-rule="evenodd" d="M97,538l321,0l0,-24L97,514l0,24Z" class="g1_440" />
</g>
<path fill-rule="evenodd" d="M427,539l81,0l0,-25l-81,0l0,25Z" class="g1_440" />
<g clip-path="url(#c6_440)">
<path fill-rule="evenodd" d="M434,538l66,0l0,-24l-66,0l0,24Z" class="g1_440" />
</g>
<path fill-rule="evenodd" d="M509,539l378,0l0,-25l-378,0l0,25Z" class="g1_440" />
<g clip-path="url(#c7_440)">
<path fill-rule="evenodd" d="M517,538l363,0l0,-24l-363,0l0,24Z" class="g1_440" />
</g>
<path d="M46.5,514.5l0,-1" class="g2_440" />
<path d="M88.5,514.5l0,-1" class="g2_440" />
<path d="M90.5,514.5l335,0" class="g2_440" />
<path d="M425.5,514.5l0,-1" class="g2_440" />
<path d="M427.5,514.5l81,0" class="g2_440" />
<path d="M508.5,514.5l0,-1" class="g2_440" />
<path d="M509.5,514.5l378,0" class="g2_440" />
<path d="M887.5,514.5l0,-1" class="g2_440" />
<path d="M46.5,539.5l0,-25" class="g2_440" />
<path d="M88.5,539.5l0,-25" class="g2_440" />
<path d="M425.5,539.5l0,-25" class="g2_440" />
<path d="M508.5,539.5l0,-25" class="g2_440" />
<path d="M887.5,539.5l0,-25" class="g2_440" />
<path fill-rule="evenodd" d="M90,733l46,0l0,-193l-46,0l0,193Z" class="g1_440" />
<path fill-rule="evenodd" d="M97,733l24,0l0,-193l-24,0l0,193Z" class="g1_440" />
<path fill-rule="evenodd" d="M138,564l287,0l0,-24l-287,0l0,24Z" class="g1_440" />
<path fill-rule="evenodd" d="M145,564l273,0l0,-24l-273,0l0,24Z" class="g1_440" />
<path fill-rule="evenodd" d="M427,564l81,0l0,-24l-81,0l0,24Z" class="g1_440" />
<path fill-rule="evenodd" d="M434,564l66,0l0,-24l-66,0l0,24Z" class="g1_440" />
<path fill-rule="evenodd" d="M509,564l378,0l0,-24l-378,0l0,24Z" class="g1_440" />
<path fill-rule="evenodd" d="M517,564l363,0l0,-24l-363,0l0,24Z" class="g1_440" />
<path d="M46.5,540.5l0,-1" class="g2_440" />
<path d="M88.5,540.5l0,-1" class="g2_440" />
<path d="M90.5,540.5l46,0" class="g2_440" />
<path d="M136.5,540.5l0,-1" class="g2_440" />
<path d="M138.5,540.5l287,0" class="g2_440" />
<path d="M425.5,540.5l0,-1" class="g2_440" />
<path d="M427.5,540.5l81,0" class="g2_440" />
<path d="M508.5,540.5l0,-1" class="g2_440" />
<path d="M509.5,540.5l378,0" class="g2_440" />
<path d="M887.5,540.5l0,-1" class="g2_440" />
<path d="M46.5,564.5l0,-24" class="g2_440" />
<path d="M88.5,564.5l0,-24" class="g2_440" />
<path d="M136.5,564.5l0,-24" class="g2_440" />
<path d="M425.5,564.5l0,-24" class="g2_440" />
<path d="M508.5,564.5l0,-24" class="g2_440" />
<path d="M887.5,564.5l0,-24" class="g2_440" />
<path fill-rule="evenodd" d="M138,733l287,0l0,-167l-287,0l0,167Z" class="g1_440" />
<path fill-rule="evenodd" d="M145,590l273,0l0,-24l-273,0l0,24Z" class="g1_440" />
<path fill-rule="evenodd" d="M427,733l81,0l0,-167l-81,0l0,167Z" class="g1_440" />
<path fill-rule="evenodd" d="M434,590l66,0l0,-24l-66,0l0,24Z" class="g1_440" />
<path fill-rule="evenodd" d="M509,733l378,0l0,-167l-378,0l0,167Z" class="g1_440" />
<path fill-rule="evenodd" d="M517,590l363,0l0,-24l-363,0l0,24Z" class="g1_440" />
<path fill-rule="evenodd" d="M517,613l363,0l0,-23l-363,0l0,23Z" class="g1_440" />
<path fill-rule="evenodd" d="M517,637l363,0l0,-24l-363,0l0,24Z" class="g1_440" />
<path fill-rule="evenodd" d="M517,661l363,0l0,-24l-363,0l0,24Z" class="g1_440" />
<path fill-rule="evenodd" d="M517,685l363,0l0,-24l-363,0l0,24Z" class="g1_440" />
<path fill-rule="evenodd" d="M517,709l363,0l0,-24l-363,0l0,24Z" class="g1_440" />
<path fill-rule="evenodd" d="M517,733l363,0l0,-24l-363,0l0,24Z" class="g1_440" />
<path d="M46.5,566.5l0,-2" class="g2_440" />
<path d="M88.5,566.5l0,-2" class="g2_440" />
<path d="M136.5,566.5l0,-2" class="g2_440" />
<path d="M138.5,566.5l287,0" class="g2_440" />
<path d="M425.5,566.5l0,-2" class="g2_440" />
<path d="M427.5,566.5l81,0" class="g2_440" />
<path d="M508.5,566.5l0,-2" class="g2_440" />
<path d="M509.5,566.5l378,0" class="g2_440" />
<path d="M887.5,566.5l0,-2" class="g2_440" />
<path d="M46.5,733.5l0,-167" class="g2_440" />
<path d="M46.5,734.5l0,-1" class="g2_440" />
<path d="M46.5,734.5l0,-1" class="g2_440" />
<path d="M47.5,734.5l41,0" class="g2_440" />
<path d="M88.5,733.5l0,-167" class="g2_440" />
<path d="M88.5,734.5l0,-1" class="g2_440" />
<path d="M90.5,734.5l46,0" class="g2_440" />
<path d="M136.5,733.5l0,-167" class="g2_440" />
<path d="M136.5,734.5l0,-1" class="g2_440" />
<path d="M138.5,734.5l287,0" class="g2_440" />
<path d="M425.5,733.5l0,-167" class="g2_440" />
<path d="M425.5,734.5l0,-1" class="g2_440" />
<path d="M427.5,734.5l81,0" class="g2_440" />
<path d="M508.5,733.5l0,-167" class="g2_440" />
<path d="M508.5,734.5l0,-1" class="g2_440" />
<path d="M509.5,734.5l378,0" class="g2_440" />
<path d="M887.5,733.5l0,-167" class="g2_440" />
<path d="M887.5,734.5l0,-1" class="g2_440" />
<path d="M887.5,734.5l0,-1" class="g2_440" />
<path fill-rule="evenodd" d="M47,855l840,0l0,-24L47,831l0,24Z" class="g1_440" />
<g clip-path="url(#c8_440)">
<path fill-rule="evenodd" d="M55,855l825,0l0,-24L55,831l0,24Z" class="g1_440" />
</g>
<path d="M46.5,831.5l0,-2" class="g2_440" />
<path d="M46.5,831.5l0,-2" class="g2_440" />
<path d="M47.5,831.5l840,0" class="g2_440" />
<path d="M887.5,831.5l0,-2" class="g2_440" />
<path d="M887.5,831.5l0,-2" class="g2_440" />
<path d="M46.5,855.5l0,-24" class="g2_440" />
<path d="M46.5,856.5l0,-1" class="g2_440" />
<path d="M46.5,856.5l0,-1" class="g2_440" />
<path d="M47.5,856.5l840,0" class="g2_440" />
<path d="M887.5,855.5l0,-24" class="g2_440" />
<path d="M887.5,856.5l0,-1" class="g2_440" />
<path d="M887.5,856.5l0,-1" class="g2_440" />
<path fill-rule="evenodd" d="M47,1096l840,0l0,-214L47,882l0,214Z" class="g1_440" />
<g clip-path="url(#c9_440)">
<path fill-rule="evenodd" d="M55,905l825,0l0,-23L55,882l0,23Z" class="g1_440" />
</g>
<path fill-rule="evenodd" d="M55,929l825,0l0,-24L55,905l0,24Z" class="g1_440" />
<path fill-rule="evenodd" d="M55,953l825,0l0,-24L55,929l0,24Z" class="g1_440" />
<path fill-rule="evenodd" d="M55,977l825,0l0,-24L55,953l0,24Z" class="g1_440" />
<path fill-rule="evenodd" d="M55,1001l825,0l0,-24L55,977l0,24Z" class="g1_440" />
<path fill-rule="evenodd" d="M55,1025l825,0l0,-24l-825,0l0,24Z" class="g1_440" />
<path fill-rule="evenodd" d="M55,1049l825,0l0,-24l-825,0l0,24Z" class="g1_440" />
<path fill-rule="evenodd" d="M55,1072l825,0l0,-24l-825,0l0,24Z" class="g1_440" />
<g clip-path="url(#c9_440)">
<path fill-rule="evenodd" d="M55,1096l825,0l0,-24l-825,0l0,24Z" class="g1_440" />
</g>
<path d="M46.5,882.5l0,-2" class="g2_440" />
<path d="M46.5,882.5l0,-2" class="g2_440" />
<path d="M47.5,882.5l840,0" class="g2_440" />
<path d="M887.5,882.5l0,-2" class="g2_440" />
<path d="M887.5,882.5l0,-2" class="g2_440" />
<path d="M46.5,1096.5l0,-214" class="g2_440" />
<path d="M46.5,1098.5l0,-2" class="g2_440" />
<path d="M46.5,1098.5l0,-2" class="g2_440" />
<path d="M47.5,1098.5l840,0" class="g2_440" />
<path d="M887.5,1096.5l0,-214" class="g2_440" />
<path d="M887.5,1098.5l0,-2" class="g2_440" />
<path d="M887.5,1098.5l0,-2" class="g2_440" />
</svg>