<?xml version="1.0" encoding="UTF-8" standalone="no"?>
<!DOCTYPE svg PUBLIC "-//W3C//DTD SVG 1.1//EN"
"http://www.w3.org/Graphics/SVG/1.1/DTD/svg11.dtd">
<svg version="1.1" xmlns="http://www.w3.org/2000/svg" xmlns:xlink="http://www.w3.org/1999/xlink">
<defs>
<clipPath id="c0_266"><path d="M47.5,292.5l0,-181l840,0l0,181Z" /></clipPath>
<clipPath id="c1_266"><path d="M47.5,757.5l0,-24l840,0l0,24Z" /></clipPath>
<clipPath id="c2_266"><path d="M47.5,840.5l0,-24l178,0l0,24Z" /></clipPath>
<clipPath id="c3_266"><path d="M226.5,840.5l0,-24l163,0l0,24Z" /></clipPath>
<clipPath id="c4_266"><path d="M390.5,840.5l0,-24l497,0l0,24Z" /></clipPath>
<clipPath id="c5_266"><path d="M47.5,865.5l0,-24l178,0l0,24Z" /></clipPath>
<clipPath id="c6_266"><path d="M226.5,865.5l0,-24l163,0l0,24Z" /></clipPath>
<clipPath id="c7_266"><path d="M390.5,865.5l0,-24l497,0l0,24Z" /></clipPath>
<clipPath id="c8_266"><path d="M47.5,940.5l0,-24l177,0l0,24Z" /></clipPath>
<clipPath id="c9_266"><path d="M226.5,940.5l0,-24l162,0l0,24Z" /></clipPath>
<clipPath id="c10_266"><path d="M390.5,940.5l0,-24l163,0l0,24Z" /></clipPath>
<clipPath id="c11_266"><path d="M554.5,940.5l0,-24l163,0l0,24Z" /></clipPath>
<clipPath id="c12_266"><path d="M719.5,940.5l0,-24l168,0l0,24Z" /></clipPath>
<clipPath id="c13_266"><path d="M47.5,965.5l0,-24l177,0l0,24Z" /></clipPath>
<clipPath id="c14_266"><path d="M226.5,965.5l0,-24l162,0l0,24Z" /></clipPath>
<clipPath id="c15_266"><path d="M390.5,965.5l0,-24l163,0l0,24Z" /></clipPath>
<clipPath id="c16_266"><path d="M554.5,965.5l0,-24l163,0l0,24Z" /></clipPath>
<clipPath id="c17_266"><path d="M719.5,965.5l0,-24l168,0l0,24Z" /></clipPath>
<style type="text/css"><![CDATA[
.g2_266{
fill: none;
stroke: #F0F0E0;
stroke-width: 1;
stroke-linecap: butt;
stroke-linejoin: miter;
}
.g3_266{
fill: none;
stroke: #7E7E7E;
stroke-width: 1;
stroke-linecap: butt;
stroke-linejoin: miter;
}
.g4_266{
fill: #DBE5F1;
}
.g1_266{
fill: #F1F1F1;
}
]]></style>
</defs>
<path fill-rule="evenodd" d="M47,292l840,0l0,-181L47,111l0,181Z" class="g1_266" />
<g clip-path="url(#c0_266)">
<path fill-rule="evenodd" d="M55,142l825,0l0,-31L55,111l0,31Z" class="g1_266" />
<path d="M45.5,112.5l0,-1" class="g2_266" />
<path d="M45.5,112.5l0,-1" class="g2_266" />
<path d="M46.5,112.5l842,0" class="g2_266" />
<path d="M888.5,112.5l0,-1" class="g2_266" />
<path d="M888.5,112.5l0,-1" class="g2_266" />
<path d="M45.5,142.5l0,-30" class="g2_266" />
<path d="M888.5,142.5l0,-30" class="g2_266" />
</g>
<path fill-rule="evenodd" d="M55,166l825,0l0,-24L55,142l0,24Z" class="g1_266" />
<g clip-path="url(#c0_266)">
<path d="M45.5,166.5l0,-24" class="g2_266" />
<path d="M888.5,166.5l0,-24" class="g2_266" />
</g>
<path fill-rule="evenodd" d="M55,190l825,0l0,-24L55,166l0,24Z" class="g1_266" />
<g clip-path="url(#c0_266)">
<path d="M45.5,190.5l0,-24" class="g2_266" />
<path d="M888.5,190.5l0,-24" class="g2_266" />
</g>
<path fill-rule="evenodd" d="M55,214l825,0l0,-24L55,190l0,24Z" class="g1_266" />
<g clip-path="url(#c0_266)">
<path d="M45.5,214.5l0,-24" class="g2_266" />
<path d="M888.5,214.5l0,-24" class="g2_266" />
</g>
<path fill-rule="evenodd" d="M55,237l825,0l0,-23L55,214l0,23Z" class="g1_266" />
<g clip-path="url(#c0_266)">
<path d="M45.5,237.5l0,-23" class="g2_266" />
<path d="M888.5,237.5l0,-23" class="g2_266" />
</g>
<path fill-rule="evenodd" d="M55,261l825,0l0,-24L55,237l0,24Z" class="g1_266" />
<g clip-path="url(#c0_266)">
<path d="M45.5,261.5l0,-24" class="g2_266" />
<path d="M888.5,261.5l0,-24" class="g2_266" />
</g>
<path fill-rule="evenodd" d="M55,292l825,0l0,-31L55,261l0,31Z" class="g1_266" />
<g clip-path="url(#c0_266)">
<path d="M45.5,292.5l0,-1" class="g2_266" />
<path d="M45.5,292.5l0,-1" class="g2_266" />
<path d="M46.5,292.5l842,0" class="g2_266" />
<path d="M888.5,292.5l0,-1" class="g2_266" />
<path d="M888.5,292.5l0,-1" class="g2_266" />
<path d="M45.5,291.5l0,-30" class="g2_266" />
<path d="M888.5,291.5l0,-30" class="g2_266" />
</g>
<path d="M46.5,111.5l0,-1" class="g3_266" />
<path d="M46.5,111.5l0,-1" class="g3_266" />
<path d="M47.5,111.5l840,0" class="g3_266" />
<path d="M887.5,111.5l0,-1" class="g3_266" />
<path d="M887.5,111.5l0,-1" class="g3_266" />
<path d="M46.5,292.5l0,-181" class="g3_266" />
<path d="M46.5,294.5l0,-2" class="g3_266" />
<path d="M46.5,294.5l0,-2" class="g3_266" />
<path d="M47.5,294.5l840,0" class="g3_266" />
<path d="M887.5,292.5l0,-181" class="g3_266" />
<path d="M887.5,294.5l0,-2" class="g3_266" />
<path d="M887.5,294.5l0,-2" class="g3_266" />
<path fill-rule="evenodd" d="M47,510l840,0l0,-95L47,415l0,95Z" class="g1_266" />
<path fill-rule="evenodd" d="M55,438l825,0l0,-23L55,415l0,23Z" class="g1_266" />
<path fill-rule="evenodd" d="M55,462l825,0l0,-24L55,438l0,24Z" class="g1_266" />
<path fill-rule="evenodd" d="M55,486l825,0l0,-24L55,462l0,24Z" class="g1_266" />
<path fill-rule="evenodd" d="M55,510l825,0l0,-24L55,486l0,24Z" class="g1_266" />
<path d="M46.5,415.5l0,-2" class="g3_266" />
<path d="M46.5,415.5l0,-2" class="g3_266" />
<path d="M47.5,415.5l840,0" class="g3_266" />
<path d="M887.5,415.5l0,-2" class="g3_266" />
<path d="M887.5,415.5l0,-2" class="g3_266" />
<path d="M46.5,510.5l0,-95" class="g3_266" />
<path d="M46.5,511.5l0,-1" class="g3_266" />
<path d="M46.5,511.5l0,-1" class="g3_266" />
<path d="M47.5,511.5l840,0" class="g3_266" />
<path d="M887.5,510.5l0,-95" class="g3_266" />
<path d="M887.5,511.5l0,-1" class="g3_266" />
<path d="M887.5,511.5l0,-1" class="g3_266" />
<path fill-rule="evenodd" d="M47,757l840,0l0,-24L47,733l0,24Z" class="g1_266" />
<g clip-path="url(#c1_266)">
<path fill-rule="evenodd" d="M55,757l825,0l0,-24L55,733l0,24Z" class="g1_266" />
</g>
<path d="M46.5,733.5l0,-2" class="g3_266" />
<path d="M46.5,733.5l0,-2" class="g3_266" />
<path d="M47.5,733.5l840,0" class="g3_266" />
<path d="M887.5,733.5l0,-2" class="g3_266" />
<path d="M887.5,733.5l0,-2" class="g3_266" />
<path d="M46.5,757.5l0,-24" class="g3_266" />
<path d="M46.5,758.5l0,-1" class="g3_266" />
<path d="M46.5,758.5l0,-1" class="g3_266" />
<path d="M47.5,758.5l840,0" class="g3_266" />
<path d="M887.5,757.5l0,-24" class="g3_266" />
<path d="M887.5,758.5l0,-1" class="g3_266" />
<path d="M887.5,758.5l0,-1" class="g3_266" />
<path fill-rule="evenodd" d="M47,840l178,0l0,-24L47,816l0,24Z" class="g4_266" />
<g clip-path="url(#c2_266)">
<path fill-rule="evenodd" d="M55,840l162,0l0,-24L55,816l0,24Z" class="g4_266" />
</g>
<path fill-rule="evenodd" d="M226,840l163,0l0,-24l-163,0l0,24Z" class="g4_266" />
<g clip-path="url(#c3_266)">
<path fill-rule="evenodd" d="M234,840l147,0l0,-24l-147,0l0,24Z" class="g4_266" />
</g>
<path fill-rule="evenodd" d="M390,840l497,0l0,-24l-497,0l0,24Z" class="g4_266" />
<g clip-path="url(#c4_266)">
<path fill-rule="evenodd" d="M398,840l482,0l0,-24l-482,0l0,24Z" class="g4_266" />
</g>
<path d="M46.5,816.5l0,-1" class="g3_266" />
<path d="M46.5,816.5l0,-1" class="g3_266" />
<path d="M47.5,816.5l178,0" class="g3_266" />
<path d="M225.5,816.5l0,-1" class="g3_266" />
<path d="M226.5,816.5l163,0" class="g3_266" />
<path d="M389.5,816.5l0,-1" class="g3_266" />
<path d="M390.5,816.5l497,0" class="g3_266" />
<path d="M887.5,816.5l0,-1" class="g3_266" />
<path d="M887.5,816.5l0,-1" class="g3_266" />
<path d="M46.5,840.5l0,-24" class="g3_266" />
<path d="M225.5,840.5l0,-24" class="g3_266" />
<path d="M389.5,840.5l0,-24" class="g3_266" />
<path d="M887.5,840.5l0,-24" class="g3_266" />
<path fill-rule="evenodd" d="M47,865l178,0l0,-24L47,841l0,24Z" class="g1_266" />
<g clip-path="url(#c5_266)">
<path fill-rule="evenodd" d="M55,865l162,0l0,-24L55,841l0,24Z" class="g1_266" />
</g>
<path fill-rule="evenodd" d="M226,865l163,0l0,-24l-163,0l0,24Z" class="g1_266" />
<g clip-path="url(#c6_266)">
<path fill-rule="evenodd" d="M234,865l147,0l0,-24l-147,0l0,24Z" class="g1_266" />
</g>
<path fill-rule="evenodd" d="M390,865l497,0l0,-24l-497,0l0,24Z" class="g1_266" />
<g clip-path="url(#c7_266)">
<path fill-rule="evenodd" d="M398,865l482,0l0,-24l-482,0l0,24Z" class="g1_266" />
</g>
<path d="M46.5,841.5l0,-1" class="g3_266" />
<path d="M47.5,841.5l178,0" class="g3_266" />
<path d="M225.5,841.5l0,-1" class="g3_266" />
<path d="M226.5,841.5l163,0" class="g3_266" />
<path d="M389.5,841.5l0,-1" class="g3_266" />
<path d="M390.5,841.5l497,0" class="g3_266" />
<path d="M887.5,841.5l0,-1" class="g3_266" />
<path d="M46.5,865.5l0,-24" class="g3_266" />
<path d="M46.5,867.5l0,-2" class="g3_266" />
<path d="M46.5,867.5l0,-2" class="g3_266" />
<path d="M47.5,867.5l178,0" class="g3_266" />
<path d="M225.5,865.5l0,-24" class="g3_266" />
<path d="M225.5,867.5l0,-2" class="g3_266" />
<path d="M226.5,867.5l163,0" class="g3_266" />
<path d="M389.5,865.5l0,-24" class="g3_266" />
<path d="M389.5,867.5l0,-2" class="g3_266" />
<path d="M390.5,867.5l497,0" class="g3_266" />
<path d="M887.5,865.5l0,-24" class="g3_266" />
<path d="M887.5,867.5l0,-2" class="g3_266" />
<path d="M887.5,867.5l0,-2" class="g3_266" />
<path fill-rule="evenodd" d="M47,940l177,0l0,-24L47,916l0,24Z" class="g4_266" />
<g clip-path="url(#c8_266)">
<path fill-rule="evenodd" d="M55,940l162,0l0,-24L55,916l0,24Z" class="g4_266" />
</g>
<path fill-rule="evenodd" d="M226,940l162,0l0,-24l-162,0l0,24Z" class="g4_266" />
<g clip-path="url(#c9_266)">
<path fill-rule="evenodd" d="M233,940l148,0l0,-24l-148,0l0,24Z" class="g4_266" />
</g>
<path fill-rule="evenodd" d="M390,940l163,0l0,-24l-163,0l0,24Z" class="g4_266" />
<g clip-path="url(#c10_266)">
<path fill-rule="evenodd" d="M397,940l148,0l0,-24l-148,0l0,24Z" class="g4_266" />
</g>
<path fill-rule="evenodd" d="M554,940l163,0l0,-24l-163,0l0,24Z" class="g4_266" />
<g clip-path="url(#c11_266)">
<path fill-rule="evenodd" d="M562,940l148,0l0,-24l-148,0l0,24Z" class="g4_266" />
</g>
<path fill-rule="evenodd" d="M719,940l168,0l0,-24l-168,0l0,24Z" class="g4_266" />
<g clip-path="url(#c12_266)">
<path fill-rule="evenodd" d="M726,940l154,0l0,-24l-154,0l0,24Z" class="g4_266" />
</g>
<path d="M46.5,916.5l0,-2" class="g3_266" />
<path d="M46.5,916.5l0,-2" class="g3_266" />
<path d="M47.5,916.5l177,0" class="g3_266" />
<path d="M224.5,916.5l0,-2" class="g3_266" />
<path d="M226.5,916.5l162,0" class="g3_266" />
<path d="M388.5,916.5l0,-2" class="g3_266" />
<path d="M390.5,916.5l163,0" class="g3_266" />
<path d="M553.5,916.5l0,-2" class="g3_266" />
<path d="M554.5,916.5l163,0" class="g3_266" />
<path d="M717.5,916.5l0,-2" class="g3_266" />
<path d="M719.5,916.5l168,0" class="g3_266" />
<path d="M887.5,916.5l0,-2" class="g3_266" />
<path d="M887.5,916.5l0,-2" class="g3_266" />
<path d="M46.5,940.5l0,-24" class="g3_266" />
<path d="M224.5,940.5l0,-24" class="g3_266" />
<path d="M388.5,940.5l0,-24" class="g3_266" />
<path d="M553.5,940.5l0,-24" class="g3_266" />
<path d="M717.5,940.5l0,-24" class="g3_266" />
<path d="M887.5,940.5l0,-24" class="g3_266" />
<path fill-rule="evenodd" d="M47,965l177,0l0,-24L47,941l0,24Z" class="g1_266" />
<g clip-path="url(#c13_266)">
<path fill-rule="evenodd" d="M55,965l162,0l0,-24L55,941l0,24Z" class="g1_266" />
</g>
<path fill-rule="evenodd" d="M226,965l162,0l0,-24l-162,0l0,24Z" class="g1_266" />
<g clip-path="url(#c14_266)">
<path fill-rule="evenodd" d="M233,965l148,0l0,-24l-148,0l0,24Z" class="g1_266" />
</g>
<path fill-rule="evenodd" d="M390,965l163,0l0,-24l-163,0l0,24Z" class="g1_266" />
<g clip-path="url(#c15_266)">
<path fill-rule="evenodd" d="M397,965l148,0l0,-24l-148,0l0,24Z" class="g1_266" />
</g>
<path fill-rule="evenodd" d="M554,965l163,0l0,-24l-163,0l0,24Z" class="g1_266" />
<g clip-path="url(#c16_266)">
<path fill-rule="evenodd" d="M562,965l148,0l0,-24l-148,0l0,24Z" class="g1_266" />
</g>
<path fill-rule="evenodd" d="M719,965l168,0l0,-24l-168,0l0,24Z" class="g1_266" />
<g clip-path="url(#c17_266)">
<path fill-rule="evenodd" d="M726,965l154,0l0,-24l-154,0l0,24Z" class="g1_266" />
</g>
<path d="M46.5,941.5l0,-1" class="g3_266" />
<path d="M47.5,941.5l177,0" class="g3_266" />
<path d="M224.5,941.5l0,-1" class="g3_266" />
<path d="M226.5,941.5l162,0" class="g3_266" />
<path d="M388.5,941.5l0,-1" class="g3_266" />
<path d="M390.5,941.5l163,0" class="g3_266" />
<path d="M553.5,941.5l0,-1" class="g3_266" />
<path d="M554.5,941.5l163,0" class="g3_266" />
<path d="M717.5,941.5l0,-1" class="g3_266" />
<path d="M719.5,941.5l168,0" class="g3_266" />
<path d="M887.5,941.5l0,-1" class="g3_266" />
<path d="M46.5,965.5l0,-24" class="g3_266" />
<path d="M46.5,967.5l0,-2" class="g3_266" />
<path d="M46.5,967.5l0,-2" class="g3_266" />
<path d="M47.5,967.5l177,0" class="g3_266" />
<path d="M224.5,965.5l0,-24" class="g3_266" />
<path d="M224.5,967.5l0,-2" class="g3_266" />
<path d="M226.5,967.5l162,0" class="g3_266" />
<path d="M388.5,965.5l0,-24" class="g3_266" />
<path d="M388.5,967.5l0,-2" class="g3_266" />
<path d="M390.5,967.5l163,0" class="g3_266" />
<path d="M553.5,965.5l0,-24" class="g3_266" />
<path d="M553.5,967.5l0,-2" class="g3_266" />
<path d="M554.5,967.5l163,0" class="g3_266" />
<path d="M717.5,965.5l0,-24" class="g3_266" />
<path d="M717.5,967.5l0,-2" class="g3_266" />
<path d="M719.5,967.5l168,0" class="g3_266" />
<path d="M887.5,965.5l0,-24" class="g3_266" />
<path d="M887.5,967.5l0,-2" class="g3_266" />
<path d="M887.5,967.5l0,-2" class="g3_266" />
<path fill-rule="evenodd" d="M47,1077l259,0l0,-24l-259,0l0,24Z" class="g4_266" />
<path fill-rule="evenodd" d="M55,1077l243,0l0,-24l-243,0l0,24Z" class="g4_266" />
<path fill-rule="evenodd" d="M307,1077l79,0l0,-24l-79,0l0,24Z" class="g4_266" />
<path fill-rule="evenodd" d="M315,1077l64,0l0,-24l-64,0l0,24Z" class="g4_266" />
<path fill-rule="evenodd" d="M388,1077l75,0l0,-24l-75,0l0,24Z" class="g4_266" />
<path fill-rule="evenodd" d="M395,1077l60,0l0,-24l-60,0l0,24Z" class="g4_266" />
<path fill-rule="evenodd" d="M464,1077l423,0l0,-24l-423,0l0,24Z" class="g4_266" />
<path fill-rule="evenodd" d="M472,1077l408,0l0,-24l-408,0l0,24Z" class="g4_266" />
<path d="M46.5,1053.5l0,-1" class="g3_266" />
<path d="M46.5,1053.5l0,-1" class="g3_266" />
<path d="M47.5,1053.5l259,0" class="g3_266" />
<path d="M306.5,1053.5l0,-1" class="g3_266" />
<path d="M307.5,1053.5l79,0" class="g3_266" />
<path d="M386.5,1053.5l0,-1" class="g3_266" />
<path d="M388.5,1053.5l75,0" class="g3_266" />
<path d="M463.5,1053.5l0,-1" class="g3_266" />
<path d="M464.5,1053.5l423,0" class="g3_266" />
<path d="M887.5,1053.5l0,-1" class="g3_266" />
<path d="M887.5,1053.5l0,-1" class="g3_266" />
<path d="M46.5,1077.5l0,-24" class="g3_266" />
<path d="M46.5,1079.5l0,-2" class="g3_266" />
<path d="M46.5,1079.5l0,-2" class="g3_266" />
<path d="M47.5,1079.5l259,0" class="g3_266" />
<path d="M306.5,1077.5l0,-24" class="g3_266" />
<path d="M306.5,1079.5l0,-2" class="g3_266" />
<path d="M307.5,1079.5l79,0" class="g3_266" />
<path d="M386.5,1077.5l0,-24" class="g3_266" />
<path d="M386.5,1079.5l0,-2" class="g3_266" />
<path d="M388.5,1079.5l75,0" class="g3_266" />
<path d="M463.5,1077.5l0,-24" class="g3_266" />
<path d="M463.5,1079.5l0,-2" class="g3_266" />
<path d="M464.5,1079.5l423,0" class="g3_266" />
<path d="M887.5,1077.5l0,-24" class="g3_266" />
<path d="M887.5,1079.5l0,-2" class="g3_266" />
<path d="M887.5,1079.5l0,-2" class="g3_266" />
</svg>