<?xml version="1.0" encoding="UTF-8" standalone="no"?>
<!DOCTYPE svg PUBLIC "-//W3C//DTD SVG 1.1//EN"
"http://www.w3.org/Graphics/SVG/1.1/DTD/svg11.dtd">
<svg version="1.1" xmlns="http://www.w3.org/2000/svg" xmlns:xlink="http://www.w3.org/1999/xlink">
<defs>
<clipPath id="c0_132"><path d="M47.5,244.5l0,-24l399,0l0,24Z" /></clipPath>
<clipPath id="c1_132"><path d="M447.5,244.5l0,-24l102,0l0,24Z" /></clipPath>
<clipPath id="c2_132"><path d="M550.5,244.5l0,-24l337,0l0,24Z" /></clipPath>
<clipPath id="c3_132"><path d="M89.5,293.5l0,-47l357,0l0,47Z" /></clipPath>
<clipPath id="c4_132"><path d="M447.5,293.5l0,-47l102,0l0,47Z" /></clipPath>
<clipPath id="c5_132"><path d="M550.5,293.5l0,-47l337,0l0,47Z" /></clipPath>
<clipPath id="c6_132"><path d="M89.5,319.5l0,-24l357,0l0,24Z" /></clipPath>
<clipPath id="c7_132"><path d="M447.5,319.5l0,-24l102,0l0,24Z" /></clipPath>
<clipPath id="c8_132"><path d="M550.5,319.5l0,-24l337,0l0,24Z" /></clipPath>
<clipPath id="c9_132"><path d="M89.5,345.5l0,-24l357,0l0,24Z" /></clipPath>
<clipPath id="c10_132"><path d="M447.5,345.5l0,-24l102,0l0,24Z" /></clipPath>
<clipPath id="c11_132"><path d="M550.5,345.5l0,-24l337,0l0,24Z" /></clipPath>
<clipPath id="c12_132"><path d="M89.5,371.5l0,-24l357,0l0,24Z" /></clipPath>
<clipPath id="c13_132"><path d="M447.5,371.5l0,-24l102,0l0,24Z" /></clipPath>
<clipPath id="c14_132"><path d="M550.5,371.5l0,-24l337,0l0,24Z" /></clipPath>
<clipPath id="c15_132"><path d="M131.5,531.5l0,-159l40,0l0,159Z" /></clipPath>
<clipPath id="c16_132"><path d="M172.5,403.5l0,-31l274,0l0,31Z" /></clipPath>
<clipPath id="c17_132"><path d="M447.5,403.5l0,-31l102,0l0,31Z" /></clipPath>
<clipPath id="c18_132"><path d="M550.5,403.5l0,-31l337,0l0,31Z" /></clipPath>
<clipPath id="c19_132"><path d="M47.5,733.5l0,-24l840,0l0,24Z" /></clipPath>
<clipPath id="c20_132"><path d="M47.5,1093.5l0,-333l840,0l0,333Z" /></clipPath>
<style type="text/css"><![CDATA[
.g2_132{
fill: none;
stroke: #7E7E7E;
stroke-width: 1;
stroke-linecap: butt;
stroke-linejoin: miter;
}
.g3_132{
fill: #F1F1F1;
}
.g1_132{
fill: #DBE5F1;
}
]]></style>
</defs>
<path fill-rule="evenodd" d="M47,244l399,0l0,-24L47,220l0,24Z" class="g1_132" />
<g clip-path="url(#c0_132)">
<path fill-rule="evenodd" d="M55,244l383,0l0,-24L55,220l0,24Z" class="g1_132" />
</g>
<path fill-rule="evenodd" d="M447,244l102,0l0,-24l-102,0l0,24Z" class="g1_132" />
<g clip-path="url(#c1_132)">
<path fill-rule="evenodd" d="M455,244l86,0l0,-24l-86,0l0,24Z" class="g1_132" />
</g>
<path fill-rule="evenodd" d="M550,244l337,0l0,-24l-337,0l0,24Z" class="g1_132" />
<g clip-path="url(#c2_132)">
<path fill-rule="evenodd" d="M558,244l322,0l0,-24l-322,0l0,24Z" class="g1_132" />
</g>
<path d="M46.5,220.5l0,-2" class="g2_132" />
<path d="M46.5,220.5l0,-2" class="g2_132" />
<path d="M47.5,220.5l399,0" class="g2_132" />
<path d="M446.5,220.5l0,-2" class="g2_132" />
<path d="M447.5,220.5l102,0" class="g2_132" />
<path d="M549.5,220.5l0,-2" class="g2_132" />
<path d="M550.5,220.5l337,0" class="g2_132" />
<path d="M887.5,220.5l0,-2" class="g2_132" />
<path d="M887.5,220.5l0,-2" class="g2_132" />
<path d="M46.5,244.5l0,-24" class="g2_132" />
<path d="M446.5,244.5l0,-24" class="g2_132" />
<path d="M549.5,244.5l0,-24" class="g2_132" />
<path d="M887.5,244.5l0,-24" class="g2_132" />
<path fill-rule="evenodd" d="M47,561l41,0L88,246l-41,0l0,315Z" class="g3_132" />
<path fill-rule="evenodd" d="M55,561l23,0L78,246l-23,0l0,315Z" class="g3_132" />
<path fill-rule="evenodd" d="M89,293l357,0l0,-47L89,246l0,47Z" class="g3_132" />
<g clip-path="url(#c3_132)">
<path fill-rule="evenodd" d="M97,269l341,0l0,-23L97,246l0,23Z" class="g3_132" />
</g>
<path fill-rule="evenodd" d="M447,293l102,0l0,-47l-102,0l0,47Z" class="g3_132" />
<g clip-path="url(#c4_132)">
<path fill-rule="evenodd" d="M455,269l86,0l0,-23l-86,0l0,23Z" class="g3_132" />
</g>
<path fill-rule="evenodd" d="M550,293l337,0l0,-47l-337,0l0,47Z" class="g3_132" />
<g clip-path="url(#c5_132)">
<path fill-rule="evenodd" d="M558,269l322,0l0,-23l-322,0l0,23Z" class="g3_132" />
</g>
<path fill-rule="evenodd" d="M558,293l322,0l0,-24l-322,0l0,24Z" class="g3_132" />
<path d="M46.5,246.5l0,-2" class="g2_132" />
<path d="M47.5,246.5l41,0" class="g2_132" />
<path d="M88.5,246.5l0,-2" class="g2_132" />
<path d="M89.5,246.5l357,0" class="g2_132" />
<path d="M446.5,246.5l0,-2" class="g2_132" />
<path d="M447.5,246.5l102,0" class="g2_132" />
<path d="M549.5,246.5l0,-2" class="g2_132" />
<path d="M550.5,246.5l337,0" class="g2_132" />
<path d="M887.5,246.5l0,-2" class="g2_132" />
<path d="M46.5,293.5l0,-47" class="g2_132" />
<path d="M88.5,293.5l0,-47" class="g2_132" />
<path d="M446.5,293.5l0,-47" class="g2_132" />
<path d="M549.5,293.5l0,-47" class="g2_132" />
<path d="M887.5,293.5l0,-47" class="g2_132" />
<path fill-rule="evenodd" d="M89,319l357,0l0,-24L89,295l0,24Z" class="g3_132" />
<g clip-path="url(#c6_132)">
<path fill-rule="evenodd" d="M97,319l341,0l0,-24L97,295l0,24Z" class="g3_132" />
</g>
<path fill-rule="evenodd" d="M447,319l102,0l0,-24l-102,0l0,24Z" class="g3_132" />
<g clip-path="url(#c7_132)">
<path fill-rule="evenodd" d="M455,319l86,0l0,-24l-86,0l0,24Z" class="g3_132" />
</g>
<path fill-rule="evenodd" d="M550,319l337,0l0,-24l-337,0l0,24Z" class="g3_132" />
<g clip-path="url(#c8_132)">
<path fill-rule="evenodd" d="M558,319l322,0l0,-24l-322,0l0,24Z" class="g3_132" />
</g>
<path d="M46.5,295.5l0,-2" class="g2_132" />
<path d="M88.5,295.5l0,-2" class="g2_132" />
<path d="M89.5,295.5l357,0" class="g2_132" />
<path d="M446.5,295.5l0,-2" class="g2_132" />
<path d="M447.5,295.5l102,0" class="g2_132" />
<path d="M549.5,295.5l0,-2" class="g2_132" />
<path d="M550.5,295.5l337,0" class="g2_132" />
<path d="M887.5,295.5l0,-2" class="g2_132" />
<path d="M46.5,319.5l0,-24" class="g2_132" />
<path d="M88.5,319.5l0,-24" class="g2_132" />
<path d="M446.5,319.5l0,-24" class="g2_132" />
<path d="M549.5,319.5l0,-24" class="g2_132" />
<path d="M887.5,319.5l0,-24" class="g2_132" />
<path fill-rule="evenodd" d="M89,345l357,0l0,-24L89,321l0,24Z" class="g3_132" />
<g clip-path="url(#c9_132)">
<path fill-rule="evenodd" d="M97,344l341,0l0,-23L97,321l0,23Z" class="g3_132" />
</g>
<path fill-rule="evenodd" d="M447,345l102,0l0,-24l-102,0l0,24Z" class="g3_132" />
<g clip-path="url(#c10_132)">
<path fill-rule="evenodd" d="M455,344l86,0l0,-23l-86,0l0,23Z" class="g3_132" />
</g>
<path fill-rule="evenodd" d="M550,345l337,0l0,-24l-337,0l0,24Z" class="g3_132" />
<g clip-path="url(#c11_132)">
<path fill-rule="evenodd" d="M558,344l322,0l0,-23l-322,0l0,23Z" class="g3_132" />
</g>
<path d="M46.5,321.5l0,-2" class="g2_132" />
<path d="M88.5,321.5l0,-2" class="g2_132" />
<path d="M89.5,321.5l357,0" class="g2_132" />
<path d="M446.5,321.5l0,-2" class="g2_132" />
<path d="M447.5,321.5l102,0" class="g2_132" />
<path d="M549.5,321.5l0,-2" class="g2_132" />
<path d="M550.5,321.5l337,0" class="g2_132" />
<path d="M887.5,321.5l0,-2" class="g2_132" />
<path d="M46.5,345.5l0,-24" class="g2_132" />
<path d="M88.5,345.5l0,-24" class="g2_132" />
<path d="M446.5,345.5l0,-24" class="g2_132" />
<path d="M549.5,345.5l0,-24" class="g2_132" />
<path d="M887.5,345.5l0,-24" class="g2_132" />
<path fill-rule="evenodd" d="M89,371l357,0l0,-24L89,347l0,24Z" class="g3_132" />
<g clip-path="url(#c12_132)">
<path fill-rule="evenodd" d="M97,370l341,0l0,-23L97,347l0,23Z" class="g3_132" />
</g>
<path fill-rule="evenodd" d="M447,371l102,0l0,-24l-102,0l0,24Z" class="g3_132" />
<g clip-path="url(#c13_132)">
<path fill-rule="evenodd" d="M455,370l86,0l0,-23l-86,0l0,23Z" class="g3_132" />
</g>
<path fill-rule="evenodd" d="M550,371l337,0l0,-24l-337,0l0,24Z" class="g3_132" />
<g clip-path="url(#c14_132)">
<path fill-rule="evenodd" d="M558,370l322,0l0,-23l-322,0l0,23Z" class="g3_132" />
</g>
<path d="M46.5,346.5l0,-1" class="g2_132" />
<path d="M88.5,346.5l0,-1" class="g2_132" />
<path d="M89.5,346.5l357,0" class="g2_132" />
<path d="M446.5,346.5l0,-1" class="g2_132" />
<path d="M447.5,346.5l102,0" class="g2_132" />
<path d="M549.5,346.5l0,-1" class="g2_132" />
<path d="M550.5,346.5l337,0" class="g2_132" />
<path d="M887.5,346.5l0,-1" class="g2_132" />
<path d="M46.5,371.5l0,-25" class="g2_132" />
<path d="M88.5,371.5l0,-25" class="g2_132" />
<path d="M446.5,371.5l0,-25" class="g2_132" />
<path d="M549.5,371.5l0,-25" class="g2_132" />
<path d="M887.5,371.5l0,-25" class="g2_132" />
<path fill-rule="evenodd" d="M89,561l40,0l0,-189l-40,0l0,189Z" class="g3_132" />
<path fill-rule="evenodd" d="M97,561l24,0l0,-189l-24,0l0,189Z" class="g3_132" />
<path fill-rule="evenodd" d="M131,531l40,0l0,-159l-40,0l0,159Z" class="g3_132" />
<g clip-path="url(#c15_132)">
<path fill-rule="evenodd" d="M138,531l24,0l0,-159l-24,0l0,159Z" class="g3_132" />
</g>
<path fill-rule="evenodd" d="M172,403l274,0l0,-31l-274,0l0,31Z" class="g3_132" />
<g clip-path="url(#c16_132)">
<path fill-rule="evenodd" d="M180,396l258,0l0,-24l-258,0l0,24Z" class="g3_132" />
</g>
<path fill-rule="evenodd" d="M447,403l102,0l0,-31l-102,0l0,31Z" class="g3_132" />
<g clip-path="url(#c17_132)">
<path fill-rule="evenodd" d="M455,396l86,0l0,-24l-86,0l0,24Z" class="g3_132" />
</g>
<path fill-rule="evenodd" d="M550,403l337,0l0,-31l-337,0l0,31Z" class="g3_132" />
<g clip-path="url(#c18_132)">
<path fill-rule="evenodd" d="M558,396l322,0l0,-24l-322,0l0,24Z" class="g3_132" />
</g>
<path d="M46.5,372.5l0,-1" class="g2_132" />
<path d="M88.5,372.5l0,-1" class="g2_132" />
<path d="M89.5,372.5l40,0" class="g2_132" />
<path d="M129.5,372.5l0,-1" class="g2_132" />
<path d="M131.5,372.5l40,0" class="g2_132" />
<path d="M171.5,372.5l0,-1" class="g2_132" />
<path d="M172.5,372.5l274,0" class="g2_132" />
<path d="M446.5,372.5l0,-1" class="g2_132" />
<path d="M447.5,372.5l102,0" class="g2_132" />
<path d="M549.5,372.5l0,-1" class="g2_132" />
<path d="M550.5,372.5l337,0" class="g2_132" />
<path d="M887.5,372.5l0,-1" class="g2_132" />
<path d="M46.5,403.5l0,-31" class="g2_132" />
<path d="M88.5,403.5l0,-31" class="g2_132" />
<path d="M129.5,403.5l0,-31" class="g2_132" />
<path d="M171.5,403.5l0,-31" class="g2_132" />
<path d="M446.5,403.5l0,-31" class="g2_132" />
<path d="M549.5,403.5l0,-31" class="g2_132" />
<path d="M887.5,403.5l0,-31" class="g2_132" />
<path fill-rule="evenodd" d="M172,531l40,0l0,-126l-40,0l0,126Z" class="g3_132" />
<path fill-rule="evenodd" d="M180,531l23,0l0,-126l-23,0l0,126Z" class="g3_132" />
<path fill-rule="evenodd" d="M213,531l40,0l0,-126l-40,0l0,126Z" class="g3_132" />
<path fill-rule="evenodd" d="M221,531l24,0l0,-126l-24,0l0,126Z" class="g3_132" />
<path fill-rule="evenodd" d="M255,531l40,0l0,-126l-40,0l0,126Z" class="g3_132" />
<path fill-rule="evenodd" d="M262,531l24,0l0,-126l-24,0l0,126Z" class="g3_132" />
<path fill-rule="evenodd" d="M296,531l150,0l0,-126l-150,0l0,126Z" class="g3_132" />
<path fill-rule="evenodd" d="M304,429l134,0l0,-24l-134,0l0,24Z" class="g3_132" />
<path fill-rule="evenodd" d="M447,531l102,0l0,-126l-102,0l0,126Z" class="g3_132" />
<path fill-rule="evenodd" d="M455,429l86,0l0,-24l-86,0l0,24Z" class="g3_132" />
<path fill-rule="evenodd" d="M550,531l337,0l0,-126l-337,0l0,126Z" class="g3_132" />
<path fill-rule="evenodd" d="M558,429l322,0l0,-24l-322,0l0,24Z" class="g3_132" />
<path d="M46.5,405.5l0,-2" class="g2_132" />
<path d="M88.5,405.5l0,-2" class="g2_132" />
<path d="M129.5,405.5l0,-2" class="g2_132" />
<path d="M171.5,405.5l0,-2" class="g2_132" />
<path d="M172.5,405.5l40,0" class="g2_132" />
<path d="M212.5,405.5l0,-2" class="g2_132" />
<path d="M213.5,405.5l40,0" class="g2_132" />
<path d="M253.5,405.5l0,-2" class="g2_132" />
<path d="M255.5,405.5l40,0" class="g2_132" />
<path d="M295.5,405.5l0,-2" class="g2_132" />
<path d="M296.5,405.5l150,0" class="g2_132" />
<path d="M446.5,405.5l0,-2" class="g2_132" />
<path d="M447.5,405.5l102,0" class="g2_132" />
<path d="M549.5,405.5l0,-2" class="g2_132" />
<path d="M550.5,405.5l337,0" class="g2_132" />
<path d="M887.5,405.5l0,-2" class="g2_132" />
<path d="M46.5,531.5l0,-126" class="g2_132" />
<path d="M88.5,531.5l0,-126" class="g2_132" />
<path d="M129.5,531.5l0,-126" class="g2_132" />
<path d="M171.5,531.5l0,-126" class="g2_132" />
<path d="M212.5,531.5l0,-126" class="g2_132" />
<path d="M253.5,531.5l0,-126" class="g2_132" />
<path d="M295.5,531.5l0,-126" class="g2_132" />
<path d="M446.5,531.5l0,-126" class="g2_132" />
<path d="M549.5,531.5l0,-126" class="g2_132" />
<path d="M887.5,531.5l0,-126" class="g2_132" />
<path fill-rule="evenodd" d="M131,561l315,0l0,-29l-315,0l0,29Z" class="g3_132" />
<path fill-rule="evenodd" d="M138,556l300,0l0,-24l-300,0l0,24Z" class="g3_132" />
<path fill-rule="evenodd" d="M447,561l102,0l0,-29l-102,0l0,29Z" class="g3_132" />
<path fill-rule="evenodd" d="M455,556l86,0l0,-24l-86,0l0,24Z" class="g3_132" />
<path fill-rule="evenodd" d="M550,561l337,0l0,-29l-337,0l0,29Z" class="g3_132" />
<path fill-rule="evenodd" d="M558,556l322,0l0,-24l-322,0l0,24Z" class="g3_132" />
<path d="M46.5,532.5l0,-1" class="g2_132" />
<path d="M88.5,532.5l0,-1" class="g2_132" />
<path d="M129.5,532.5l0,-1" class="g2_132" />
<path d="M131.5,532.5l40,0" class="g2_132" />
<path d="M171.5,532.5l0,-1" class="g2_132" />
<path d="M172.5,532.5l40,0" class="g2_132" />
<path d="M212.5,532.5l0,-1" class="g2_132" />
<path d="M213.5,532.5l40,0" class="g2_132" />
<path d="M253.5,532.5l0,-1" class="g2_132" />
<path d="M255.5,532.5l40,0" class="g2_132" />
<path d="M295.5,532.5l0,-1" class="g2_132" />
<path d="M296.5,532.5l150,0" class="g2_132" />
<path d="M446.5,532.5l0,-1" class="g2_132" />
<path d="M447.5,532.5l102,0" class="g2_132" />
<path d="M549.5,532.5l0,-1" class="g2_132" />
<path d="M550.5,532.5l337,0" class="g2_132" />
<path d="M887.5,532.5l0,-1" class="g2_132" />
<path d="M46.5,561.5l0,-29" class="g2_132" />
<path d="M88.5,561.5l0,-29" class="g2_132" />
<path d="M129.5,561.5l0,-29" class="g2_132" />
<path d="M446.5,561.5l0,-29" class="g2_132" />
<path d="M549.5,561.5l0,-29" class="g2_132" />
<path d="M887.5,561.5l0,-29" class="g2_132" />
<path fill-rule="evenodd" d="M47,611l41,0l0,-48l-41,0l0,48Z" class="g3_132" />
<path fill-rule="evenodd" d="M55,611l23,0l0,-48l-23,0l0,48Z" class="g3_132" />
<path fill-rule="evenodd" d="M89,611l357,0l0,-48L89,563l0,48Z" class="g3_132" />
<path fill-rule="evenodd" d="M97,611l24,0l0,-48l-24,0l0,48Z" class="g3_132" />
<path fill-rule="evenodd" d="M447,611l102,0l0,-48l-102,0l0,48Z" class="g3_132" />
<path fill-rule="evenodd" d="M455,587l86,0l0,-24l-86,0l0,24Z" class="g3_132" />
<path fill-rule="evenodd" d="M550,611l337,0l0,-48l-337,0l0,48Z" class="g3_132" />
<path fill-rule="evenodd" d="M558,587l322,0l0,-24l-322,0l0,24Z" class="g3_132" />
<path fill-rule="evenodd" d="M558,611l322,0l0,-24l-322,0l0,24Z" class="g3_132" />
<path d="M46.5,563.5l0,-2" class="g2_132" />
<path d="M47.5,563.5l41,0" class="g2_132" />
<path d="M88.5,563.5l0,-2" class="g2_132" />
<path d="M89.5,563.5l40,0" class="g2_132" />
<path d="M129.5,563.5l0,-2" class="g2_132" />
<path d="M131.5,563.5l315,0" class="g2_132" />
<path d="M446.5,563.5l0,-2" class="g2_132" />
<path d="M447.5,563.5l102,0" class="g2_132" />
<path d="M549.5,563.5l0,-2" class="g2_132" />
<path d="M550.5,563.5l337,0" class="g2_132" />
<path d="M887.5,563.5l0,-2" class="g2_132" />
<path d="M46.5,611.5l0,-48" class="g2_132" />
<path d="M46.5,612.5l0,-1" class="g2_132" />
<path d="M46.5,612.5l0,-1" class="g2_132" />
<path d="M47.5,612.5l41,0" class="g2_132" />
<path d="M88.5,611.5l0,-48" class="g2_132" />
<path d="M88.5,612.5l0,-1" class="g2_132" />
<path d="M89.5,612.5l357,0" class="g2_132" />
<path d="M446.5,611.5l0,-48" class="g2_132" />
<path d="M446.5,612.5l0,-1" class="g2_132" />
<path d="M447.5,612.5l102,0" class="g2_132" />
<path d="M549.5,611.5l0,-48" class="g2_132" />
<path d="M549.5,612.5l0,-1" class="g2_132" />
<path d="M550.5,612.5l337,0" class="g2_132" />
<path d="M887.5,611.5l0,-48" class="g2_132" />
<path d="M887.5,612.5l0,-1" class="g2_132" />
<path d="M887.5,612.5l0,-1" class="g2_132" />
<path fill-rule="evenodd" d="M47,733l840,0l0,-24L47,709l0,24Z" class="g3_132" />
<g clip-path="url(#c19_132)">
<path fill-rule="evenodd" d="M55,733l825,0l0,-24L55,709l0,24Z" class="g3_132" />
</g>
<path d="M46.5,709.5l0,-2" class="g2_132" />
<path d="M46.5,709.5l0,-2" class="g2_132" />
<path d="M47.5,709.5l840,0" class="g2_132" />
<path d="M887.5,709.5l0,-2" class="g2_132" />
<path d="M887.5,709.5l0,-2" class="g2_132" />
<path d="M46.5,733.5l0,-24" class="g2_132" />
<path d="M46.5,734.5l0,-1" class="g2_132" />
<path d="M46.5,734.5l0,-1" class="g2_132" />
<path d="M47.5,734.5l840,0" class="g2_132" />
<path d="M887.5,733.5l0,-24" class="g2_132" />
<path d="M887.5,734.5l0,-1" class="g2_132" />
<path d="M887.5,734.5l0,-1" class="g2_132" />
<path fill-rule="evenodd" d="M47,1093l840,0l0,-333L47,760l0,333Z" class="g3_132" />
<g clip-path="url(#c20_132)">
<path fill-rule="evenodd" d="M55,784l825,0l0,-24L55,760l0,24Z" class="g3_132" />
</g>
<path fill-rule="evenodd" d="M55,807l825,0l0,-23L55,784l0,23Z" class="g3_132" />
<path fill-rule="evenodd" d="M55,831l825,0l0,-24L55,807l0,24Z" class="g3_132" />
<path fill-rule="evenodd" d="M55,855l825,0l0,-24L55,831l0,24Z" class="g3_132" />
<path fill-rule="evenodd" d="M55,879l825,0l0,-24L55,855l0,24Z" class="g3_132" />
<path fill-rule="evenodd" d="M55,903l825,0l0,-24L55,879l0,24Z" class="g3_132" />
<path fill-rule="evenodd" d="M55,927l825,0l0,-24L55,903l0,24Z" class="g3_132" />
<path fill-rule="evenodd" d="M55,950l825,0l0,-23L55,927l0,23Z" class="g3_132" />
<path fill-rule="evenodd" d="M55,974l825,0l0,-24L55,950l0,24Z" class="g3_132" />
<path fill-rule="evenodd" d="M55,998l825,0l0,-24L55,974l0,24Z" class="g3_132" />
<path fill-rule="evenodd" d="M55,1022l825,0l0,-24L55,998l0,24Z" class="g3_132" />
<path fill-rule="evenodd" d="M55,1046l825,0l0,-24l-825,0l0,24Z" class="g3_132" />
<path fill-rule="evenodd" d="M55,1070l825,0l0,-24l-825,0l0,24Z" class="g3_132" />
<g clip-path="url(#c20_132)">
<path fill-rule="evenodd" d="M55,1093l825,0l0,-23l-825,0l0,23Z" class="g3_132" />
</g>
<path d="M46.5,760.5l0,-2" class="g2_132" />
<path d="M46.5,760.5l0,-2" class="g2_132" />
<path d="M47.5,760.5l840,0" class="g2_132" />
<path d="M887.5,760.5l0,-2" class="g2_132" />
<path d="M887.5,760.5l0,-2" class="g2_132" />
<path d="M46.5,1093.5l0,-333" class="g2_132" />
<path d="M46.5,1095.5l0,-2" class="g2_132" />
<path d="M46.5,1095.5l0,-2" class="g2_132" />
<path d="M47.5,1095.5l840,0" class="g2_132" />
<path d="M887.5,1093.5l0,-333" class="g2_132" />
<path d="M887.5,1095.5l0,-2" class="g2_132" />
<path d="M887.5,1095.5l0,-2" class="g2_132" />
</svg>