<?xml version="1.0" encoding="UTF-8" standalone="no"?>
<!DOCTYPE svg PUBLIC "-//W3C//DTD SVG 1.1//EN"
"http://www.w3.org/Graphics/SVG/1.1/DTD/svg11.dtd">
<svg version="1.1" xmlns="http://www.w3.org/2000/svg" xmlns:xlink="http://www.w3.org/1999/xlink">
<defs>
<style type="text/css"><![CDATA[
.g1_223{
fill: none;
stroke: #000000;
stroke-width: 1;
stroke-linecap: butt;
stroke-linejoin: miter;
}
]]></style>
</defs>
<path d="M54.5,110.5l38,0" class="g1_223" />
<path d="M93.5,110.5l39,0" class="g1_223" />
<path d="M133.5,110.5l39,0" class="g1_223" />
<path d="M172.5,110.5l39,0" class="g1_223" />
<path d="M212.5,110.5l189,0" class="g1_223" />
<path d="M401.5,110.5l79,0" class="g1_223" />
<path d="M481.5,110.5l335,0" class="g1_223" />
<path d="M817.5,110.5l71,0" class="g1_223" />
<path d="M53.5,182.5l0,-72" class="g1_223" />
<path d="M92.5,182.5l0,-72" class="g1_223" />
<path d="M132.5,182.5l0,-72" class="g1_223" />
<path d="M171.5,182.5l0,-72" class="g1_223" />
<path d="M211.5,182.5l0,-72" class="g1_223" />
<path d="M401.5,182.5l0,-72" class="g1_223" />
<path d="M480.5,182.5l0,-72" class="g1_223" />
<path d="M816.5,182.5l0,-72" class="g1_223" />
<path d="M888.5,182.5l0,-72" class="g1_223" />
<path d="M53.5,183.5l0,-1" class="g1_223" />
<path d="M92.5,183.5l0,-1" class="g1_223" />
<path d="M132.5,183.5l0,-1" class="g1_223" />
<path d="M171.5,183.5l0,-1" class="g1_223" />
<path d="M211.5,183.5l0,-1" class="g1_223" />
<path d="M212.5,183.5l39,0" class="g1_223" />
<path d="M251.5,183.5l0,-1" class="g1_223" />
<path d="M252.5,183.5l74,0" class="g1_223" />
<path d="M326.5,183.5l0,-1" class="g1_223" />
<path d="M327.5,183.5l74,0" class="g1_223" />
<path d="M401.5,183.5l0,-1" class="g1_223" />
<path d="M402.5,183.5l78,0" class="g1_223" />
<path d="M480.5,183.5l0,-1" class="g1_223" />
<path d="M481.5,183.5l335,0" class="g1_223" />
<path d="M816.5,183.5l0,-1" class="g1_223" />
<path d="M818.5,183.5l70,0" class="g1_223" />
<path d="M888.5,183.5l0,-1" class="g1_223" />
<path d="M53.5,421.5l0,-238" class="g1_223" />
<path d="M92.5,421.5l0,-238" class="g1_223" />
<path d="M132.5,421.5l0,-238" class="g1_223" />
<path d="M171.5,421.5l0,-238" class="g1_223" />
<path d="M211.5,421.5l0,-238" class="g1_223" />
<path d="M251.5,421.5l0,-238" class="g1_223" />
<path d="M326.5,421.5l0,-238" class="g1_223" />
<path d="M401.5,421.5l0,-238" class="g1_223" />
<path d="M480.5,421.5l0,-238" class="g1_223" />
<path d="M816.5,421.5l0,-238" class="g1_223" />
<path d="M888.5,421.5l0,-238" class="g1_223" />
<path d="M53.5,422.5l0,-1" class="g1_223" />
<path d="M92.5,422.5l0,-1" class="g1_223" />
<path d="M132.5,422.5l0,-1" class="g1_223" />
<path d="M171.5,422.5l0,-1" class="g1_223" />
<path d="M211.5,422.5l0,-1" class="g1_223" />
<path d="M251.5,422.5l0,-1" class="g1_223" />
<path d="M326.5,422.5l0,-1" class="g1_223" />
<path d="M327.5,422.5l74,0" class="g1_223" />
<path d="M401.5,422.5l0,-1" class="g1_223" />
<path d="M402.5,422.5l78,0" class="g1_223" />
<path d="M480.5,422.5l0,-1" class="g1_223" />
<path d="M481.5,422.5l335,0" class="g1_223" />
<path d="M816.5,422.5l0,-1" class="g1_223" />
<path d="M818.5,422.5l70,0" class="g1_223" />
<path d="M888.5,422.5l0,-1" class="g1_223" />
<path d="M53.5,470.5l0,-48" class="g1_223" />
<path d="M92.5,470.5l0,-48" class="g1_223" />
<path d="M132.5,470.5l0,-48" class="g1_223" />
<path d="M171.5,470.5l0,-48" class="g1_223" />
<path d="M211.5,470.5l0,-48" class="g1_223" />
<path d="M251.5,470.5l0,-48" class="g1_223" />
<path d="M326.5,470.5l0,-48" class="g1_223" />
<path d="M401.5,470.5l0,-48" class="g1_223" />
<path d="M480.5,470.5l0,-48" class="g1_223" />
<path d="M816.5,470.5l0,-48" class="g1_223" />
<path d="M888.5,470.5l0,-48" class="g1_223" />
<path d="M53.5,471.5l0,-1" class="g1_223" />
<path d="M92.5,471.5l0,-1" class="g1_223" />
<path d="M132.5,471.5l0,-1" class="g1_223" />
<path d="M171.5,471.5l0,-1" class="g1_223" />
<path d="M211.5,471.5l0,-1" class="g1_223" />
<path d="M212.5,471.5l39,0" class="g1_223" />
<path d="M251.5,471.5l0,-1" class="g1_223" />
<path d="M252.5,471.5l74,0" class="g1_223" />
<path d="M326.5,471.5l0,-1" class="g1_223" />
<path d="M327.5,471.5l74,0" class="g1_223" />
<path d="M401.5,471.5l0,-1" class="g1_223" />
<path d="M402.5,471.5l78,0" class="g1_223" />
<path d="M480.5,471.5l0,-1" class="g1_223" />
<path d="M481.5,471.5l335,0" class="g1_223" />
<path d="M816.5,471.5l0,-1" class="g1_223" />
<path d="M818.5,471.5l70,0" class="g1_223" />
<path d="M888.5,471.5l0,-1" class="g1_223" />
<path d="M53.5,519.5l0,-48" class="g1_223" />
<path d="M92.5,519.5l0,-48" class="g1_223" />
<path d="M132.5,519.5l0,-48" class="g1_223" />
<path d="M171.5,519.5l0,-48" class="g1_223" />
<path d="M211.5,519.5l0,-48" class="g1_223" />
<path d="M251.5,519.5l0,-48" class="g1_223" />
<path d="M401.5,519.5l0,-48" class="g1_223" />
<path d="M480.5,519.5l0,-48" class="g1_223" />
<path d="M816.5,519.5l0,-48" class="g1_223" />
<path d="M888.5,519.5l0,-48" class="g1_223" />
<path d="M53.5,520.5l0,-1" class="g1_223" />
<path d="M92.5,520.5l0,-1" class="g1_223" />
<path d="M132.5,520.5l0,-1" class="g1_223" />
<path d="M171.5,520.5l0,-1" class="g1_223" />
<path d="M211.5,520.5l0,-1" class="g1_223" />
<path d="M251.5,520.5l0,-1" class="g1_223" />
<path d="M252.5,520.5l149,0" class="g1_223" />
<path d="M401.5,520.5l0,-1" class="g1_223" />
<path d="M402.5,520.5l78,0" class="g1_223" />
<path d="M480.5,520.5l0,-1" class="g1_223" />
<path d="M481.5,520.5l335,0" class="g1_223" />
<path d="M816.5,520.5l0,-1" class="g1_223" />
<path d="M818.5,520.5l70,0" class="g1_223" />
<path d="M888.5,520.5l0,-1" class="g1_223" />
<path d="M53.5,568.5l0,-48" class="g1_223" />
<path d="M92.5,568.5l0,-48" class="g1_223" />
<path d="M132.5,568.5l0,-48" class="g1_223" />
<path d="M171.5,568.5l0,-48" class="g1_223" />
<path d="M211.5,568.5l0,-48" class="g1_223" />
<path d="M251.5,568.5l0,-48" class="g1_223" />
<path d="M401.5,568.5l0,-48" class="g1_223" />
<path d="M480.5,568.5l0,-48" class="g1_223" />
<path d="M816.5,568.5l0,-48" class="g1_223" />
<path d="M888.5,568.5l0,-48" class="g1_223" />
<path d="M53.5,569.5l0,-1" class="g1_223" />
<path d="M92.5,569.5l0,-1" class="g1_223" />
<path d="M132.5,569.5l0,-1" class="g1_223" />
<path d="M171.5,569.5l0,-1" class="g1_223" />
<path d="M211.5,569.5l0,-1" class="g1_223" />
<path d="M251.5,569.5l0,-1" class="g1_223" />
<path d="M252.5,569.5l149,0" class="g1_223" />
<path d="M401.5,569.5l0,-1" class="g1_223" />
<path d="M402.5,569.5l78,0" class="g1_223" />
<path d="M480.5,569.5l0,-1" class="g1_223" />
<path d="M481.5,569.5l335,0" class="g1_223" />
<path d="M816.5,569.5l0,-1" class="g1_223" />
<path d="M818.5,569.5l70,0" class="g1_223" />
<path d="M888.5,569.5l0,-1" class="g1_223" />
<path d="M53.5,760.5l0,-191" class="g1_223" />
<path d="M92.5,760.5l0,-191" class="g1_223" />
<path d="M132.5,760.5l0,-191" class="g1_223" />
<path d="M171.5,760.5l0,-191" class="g1_223" />
<path d="M211.5,760.5l0,-191" class="g1_223" />
<path d="M251.5,760.5l0,-191" class="g1_223" />
<path d="M401.5,760.5l0,-191" class="g1_223" />
<path d="M480.5,760.5l0,-191" class="g1_223" />
<path d="M816.5,760.5l0,-191" class="g1_223" />
<path d="M888.5,760.5l0,-191" class="g1_223" />
<path d="M53.5,761.5l0,-1" class="g1_223" />
<path d="M92.5,761.5l0,-1" class="g1_223" />
<path d="M132.5,761.5l0,-1" class="g1_223" />
<path d="M171.5,761.5l0,-1" class="g1_223" />
<path d="M211.5,761.5l0,-1" class="g1_223" />
<path d="M251.5,761.5l0,-1" class="g1_223" />
<path d="M252.5,761.5l149,0" class="g1_223" />
<path d="M401.5,761.5l0,-1" class="g1_223" />
<path d="M402.5,761.5l78,0" class="g1_223" />
<path d="M480.5,761.5l0,-1" class="g1_223" />
<path d="M481.5,761.5l335,0" class="g1_223" />
<path d="M816.5,761.5l0,-1" class="g1_223" />
<path d="M818.5,761.5l70,0" class="g1_223" />
<path d="M888.5,761.5l0,-1" class="g1_223" />
<path d="M53.5,832.5l0,-71" class="g1_223" />
<path d="M92.5,832.5l0,-71" class="g1_223" />
<path d="M132.5,832.5l0,-71" class="g1_223" />
<path d="M171.5,832.5l0,-71" class="g1_223" />
<path d="M211.5,832.5l0,-71" class="g1_223" />
<path d="M251.5,832.5l0,-71" class="g1_223" />
<path d="M401.5,832.5l0,-71" class="g1_223" />
<path d="M480.5,832.5l0,-71" class="g1_223" />
<path d="M816.5,832.5l0,-71" class="g1_223" />
<path d="M888.5,832.5l0,-71" class="g1_223" />
<path d="M53.5,833.5l0,-1" class="g1_223" />
<path d="M92.5,833.5l0,-1" class="g1_223" />
<path d="M132.5,833.5l0,-1" class="g1_223" />
<path d="M171.5,833.5l0,-1" class="g1_223" />
<path d="M211.5,833.5l0,-1" class="g1_223" />
<path d="M251.5,833.5l0,-1" class="g1_223" />
<path d="M252.5,833.5l149,0" class="g1_223" />
<path d="M401.5,833.5l0,-1" class="g1_223" />
<path d="M402.5,833.5l78,0" class="g1_223" />
<path d="M480.5,833.5l0,-1" class="g1_223" />
<path d="M481.5,833.5l335,0" class="g1_223" />
<path d="M816.5,833.5l0,-1" class="g1_223" />
<path d="M818.5,833.5l70,0" class="g1_223" />
<path d="M888.5,833.5l0,-1" class="g1_223" />
<path d="M53.5,1096.5l0,-263" class="g1_223" />
<path d="M54.5,1096.5l38,0" class="g1_223" />
<path d="M92.5,1096.5l0,-263" class="g1_223" />
<path d="M93.5,1096.5l39,0" class="g1_223" />
<path d="M132.5,1096.5l0,-263" class="g1_223" />
<path d="M133.5,1096.5l39,0" class="g1_223" />
<path d="M171.5,1096.5l0,-263" class="g1_223" />
<path d="M172.5,1096.5l39,0" class="g1_223" />
<path d="M211.5,1096.5l0,-263" class="g1_223" />
<path d="M212.5,1096.5l39,0" class="g1_223" />
<path d="M251.5,1096.5l0,-263" class="g1_223" />
<path d="M251.5,1096.5l150,0" class="g1_223" />
<path d="M401.5,1096.5l0,-263" class="g1_223" />
<path d="M401.5,1096.5l79,0" class="g1_223" />
<path d="M480.5,1096.5l0,-263" class="g1_223" />
<path d="M481.5,1096.5l335,0" class="g1_223" />
<path d="M816.5,1096.5l0,-263" class="g1_223" />
<path d="M817.5,1096.5l71,0" class="g1_223" />
<path d="M888.5,1096.5l0,-263" class="g1_223" />
</svg>