<?xml version="1.0" encoding="UTF-8" standalone="no"?>
<!DOCTYPE svg PUBLIC "-//W3C//DTD SVG 1.1//EN"
"http://www.w3.org/Graphics/SVG/1.1/DTD/svg11.dtd">
<svg version="1.1" xmlns="http://www.w3.org/2000/svg" xmlns:xlink="http://www.w3.org/1999/xlink">
<defs>
<clipPath id="c0_327"><path d="M210.5,206.5l0,-95l269,0l0,95Z" /></clipPath>
<clipPath id="c1_327"><path d="M481.5,206.5l0,-95l73,0l0,95Z" /></clipPath>
<clipPath id="c2_327"><path d="M555.5,206.5l0,-95l332,0l0,95Z" /></clipPath>
<clipPath id="c3_327"><path d="M210.5,232.5l0,-24l269,0l0,24Z" /></clipPath>
<clipPath id="c4_327"><path d="M481.5,232.5l0,-24l73,0l0,24Z" /></clipPath>
<clipPath id="c5_327"><path d="M555.5,232.5l0,-24l332,0l0,24Z" /></clipPath>
<clipPath id="c6_327"><path d="M210.5,257.5l0,-24l269,0l0,24Z" /></clipPath>
<clipPath id="c7_327"><path d="M481.5,257.5l0,-24l73,0l0,24Z" /></clipPath>
<clipPath id="c8_327"><path d="M555.5,257.5l0,-24l332,0l0,24Z" /></clipPath>
<clipPath id="c9_327"><path d="M210.5,282.5l0,-23l269,0l0,23Z" /></clipPath>
<clipPath id="c10_327"><path d="M481.5,282.5l0,-23l73,0l0,23Z" /></clipPath>
<clipPath id="c11_327"><path d="M555.5,282.5l0,-23l332,0l0,23Z" /></clipPath>
<clipPath id="c12_327"><path d="M210.5,308.5l0,-24l269,0l0,24Z" /></clipPath>
<clipPath id="c13_327"><path d="M481.5,308.5l0,-24l73,0l0,24Z" /></clipPath>
<clipPath id="c14_327"><path d="M555.5,308.5l0,-24l332,0l0,24Z" /></clipPath>
<clipPath id="c15_327"><path d="M210.5,333.5l0,-24l269,0l0,24Z" /></clipPath>
<clipPath id="c16_327"><path d="M481.5,333.5l0,-24l73,0l0,24Z" /></clipPath>
<clipPath id="c17_327"><path d="M555.5,333.5l0,-24l332,0l0,24Z" /></clipPath>
<clipPath id="c18_327"><path d="M210.5,406.5l0,-71l269,0l0,71Z" /></clipPath>
<clipPath id="c19_327"><path d="M481.5,406.5l0,-71l73,0l0,71Z" /></clipPath>
<clipPath id="c20_327"><path d="M555.5,406.5l0,-71l332,0l0,71Z" /></clipPath>
<clipPath id="c21_327"><path d="M210.5,1036.5l0,-552l39,0l0,552Z" /></clipPath>
<clipPath id="c22_327"><path d="M251.5,1036.5l0,-552l39,0l0,552Z" /></clipPath>
<clipPath id="c23_327"><path d="M292.5,597.5l0,-28l187,0l0,28Z" /></clipPath>
<clipPath id="c24_327"><path d="M481.5,597.5l0,-28l73,0l0,28Z" /></clipPath>
<clipPath id="c25_327"><path d="M555.5,597.5l0,-28l332,0l0,28Z" /></clipPath>
<clipPath id="c26_327"><path d="M292.5,674.5l0,-27l187,0l0,27Z" /></clipPath>
<clipPath id="c27_327"><path d="M481.5,674.5l0,-27l73,0l0,27Z" /></clipPath>
<clipPath id="c28_327"><path d="M555.5,674.5l0,-27l332,0l0,27Z" /></clipPath>
<clipPath id="c29_327"><path d="M292.5,795.5l0,-119l187,0l0,119Z" /></clipPath>
<clipPath id="c30_327"><path d="M481.5,795.5l0,-119l73,0l0,119Z" /></clipPath>
<clipPath id="c31_327"><path d="M555.5,795.5l0,-119l332,0l0,119Z" /></clipPath>
<clipPath id="c32_327"><path d="M292.5,892.5l0,-95l187,0l0,95Z" /></clipPath>
<clipPath id="c33_327"><path d="M481.5,892.5l0,-95l73,0l0,95Z" /></clipPath>
<clipPath id="c34_327"><path d="M555.5,892.5l0,-95l332,0l0,95Z" /></clipPath>
<clipPath id="c35_327"><path d="M292.5,1036.5l0,-143l187,0l0,143Z" /></clipPath>
<clipPath id="c36_327"><path d="M481.5,1036.5l0,-143l73,0l0,143Z" /></clipPath>
<clipPath id="c37_327"><path d="M555.5,1036.5l0,-143l332,0l0,143Z" /></clipPath>
<style type="text/css"><![CDATA[
.g2_327{
fill: none;
stroke: #7E7E7E;
stroke-width: 1;
stroke-linecap: butt;
stroke-linejoin: miter;
}
.g1_327{
fill: #F1F1F1;
}
]]></style>
</defs>
<path fill-rule="evenodd" d="M47,206l39,0l0,-95l-39,0l0,95Z" class="g1_327" />
<path fill-rule="evenodd" d="M88,206l39,0l0,-95l-39,0l0,95Z" class="g1_327" />
<path fill-rule="evenodd" d="M129,206l39,0l0,-95l-39,0l0,95Z" class="g1_327" />
<path fill-rule="evenodd" d="M169,206l40,0l0,-95l-40,0l0,95Z" class="g1_327" />
<path fill-rule="evenodd" d="M210,206l269,0l0,-95l-269,0l0,95Z" class="g1_327" />
<g clip-path="url(#c0_327)">
<path fill-rule="evenodd" d="M218,135l254,0l0,-24l-254,0l0,24Z" class="g1_327" />
</g>
<path fill-rule="evenodd" d="M481,206l73,0l0,-95l-73,0l0,95Z" class="g1_327" />
<g clip-path="url(#c1_327)">
<path fill-rule="evenodd" d="M488,135l58,0l0,-24l-58,0l0,24Z" class="g1_327" />
</g>
<path fill-rule="evenodd" d="M555,206l332,0l0,-95l-332,0l0,95Z" class="g1_327" />
<g clip-path="url(#c2_327)">
<path fill-rule="evenodd" d="M563,135l317,0l0,-24l-317,0l0,24Z" class="g1_327" />
</g>
<path fill-rule="evenodd" d="M563,159l317,0l0,-24l-317,0l0,24Z" class="g1_327" />
<path fill-rule="evenodd" d="M563,182l317,0l0,-23l-317,0l0,23Z" class="g1_327" />
<path fill-rule="evenodd" d="M563,206l317,0l0,-24l-317,0l0,24Z" class="g1_327" />
<path d="M46.5,111.5l0,-1" class="g2_327" />
<path d="M46.5,111.5l0,-1" class="g2_327" />
<path d="M47.5,111.5l39,0" class="g2_327" />
<path d="M86.5,111.5l0,-1" class="g2_327" />
<path d="M88.5,111.5l39,0" class="g2_327" />
<path d="M127.5,111.5l0,-1" class="g2_327" />
<path d="M129.5,111.5l39,0" class="g2_327" />
<path d="M168.5,111.5l0,-1" class="g2_327" />
<path d="M169.5,111.5l40,0" class="g2_327" />
<path d="M209.5,111.5l0,-1" class="g2_327" />
<path d="M210.5,111.5l269,0" class="g2_327" />
<path d="M479.5,111.5l0,-1" class="g2_327" />
<path d="M481.5,111.5l73,0" class="g2_327" />
<path d="M554.5,111.5l0,-1" class="g2_327" />
<path d="M555.5,111.5l332,0" class="g2_327" />
<path d="M887.5,111.5l0,-1" class="g2_327" />
<path d="M887.5,111.5l0,-1" class="g2_327" />
<path d="M46.5,206.5l0,-95" class="g2_327" />
<path d="M86.5,206.5l0,-95" class="g2_327" />
<path d="M127.5,206.5l0,-95" class="g2_327" />
<path d="M168.5,206.5l0,-95" class="g2_327" />
<path d="M209.5,206.5l0,-95" class="g2_327" />
<path d="M479.5,206.5l0,-95" class="g2_327" />
<path d="M554.5,206.5l0,-95" class="g2_327" />
<path d="M887.5,206.5l0,-95" class="g2_327" />
<path fill-rule="evenodd" d="M47,232l39,0l0,-25l-39,0l0,25Z" class="g1_327" />
<path fill-rule="evenodd" d="M88,232l39,0l0,-25l-39,0l0,25Z" class="g1_327" />
<path fill-rule="evenodd" d="M129,232l39,0l0,-25l-39,0l0,25Z" class="g1_327" />
<path fill-rule="evenodd" d="M169,232l40,0l0,-25l-40,0l0,25Z" class="g1_327" />
<path fill-rule="evenodd" d="M210,232l269,0l0,-24l-269,0l0,24Z" class="g1_327" />
<g clip-path="url(#c3_327)">
<path fill-rule="evenodd" d="M218,232l254,0l0,-24l-254,0l0,24Z" class="g1_327" />
</g>
<path fill-rule="evenodd" d="M481,232l73,0l0,-24l-73,0l0,24Z" class="g1_327" />
<g clip-path="url(#c4_327)">
<path fill-rule="evenodd" d="M488,232l58,0l0,-24l-58,0l0,24Z" class="g1_327" />
</g>
<path fill-rule="evenodd" d="M555,232l332,0l0,-24l-332,0l0,24Z" class="g1_327" />
<g clip-path="url(#c5_327)">
<path fill-rule="evenodd" d="M563,232l317,0l0,-24l-317,0l0,24Z" class="g1_327" />
</g>
<path d="M46.5,208.5l0,-2" class="g2_327" />
<path d="M86.5,208.5l0,-2" class="g2_327" />
<path d="M127.5,208.5l0,-2" class="g2_327" />
<path d="M168.5,208.5l0,-2" class="g2_327" />
<path d="M209.5,208.5l0,-2" class="g2_327" />
<path d="M210.5,208.5l269,0" class="g2_327" />
<path d="M479.5,208.5l0,-2" class="g2_327" />
<path d="M481.5,208.5l73,0" class="g2_327" />
<path d="M554.5,208.5l0,-2" class="g2_327" />
<path d="M555.5,208.5l332,0" class="g2_327" />
<path d="M887.5,208.5l0,-2" class="g2_327" />
<path d="M46.5,232.5l0,-24" class="g2_327" />
<path d="M86.5,232.5l0,-24" class="g2_327" />
<path d="M127.5,232.5l0,-24" class="g2_327" />
<path d="M168.5,232.5l0,-24" class="g2_327" />
<path d="M209.5,232.5l0,-24" class="g2_327" />
<path d="M479.5,232.5l0,-24" class="g2_327" />
<path d="M554.5,232.5l0,-24" class="g2_327" />
<path d="M887.5,232.5l0,-24" class="g2_327" />
<path fill-rule="evenodd" d="M47,257l39,0l0,-25l-39,0l0,25Z" class="g1_327" />
<path fill-rule="evenodd" d="M88,257l39,0l0,-25l-39,0l0,25Z" class="g1_327" />
<path fill-rule="evenodd" d="M129,257l39,0l0,-25l-39,0l0,25Z" class="g1_327" />
<path fill-rule="evenodd" d="M169,257l40,0l0,-25l-40,0l0,25Z" class="g1_327" />
<path fill-rule="evenodd" d="M210,257l269,0l0,-24l-269,0l0,24Z" class="g1_327" />
<g clip-path="url(#c6_327)">
<path fill-rule="evenodd" d="M218,257l254,0l0,-24l-254,0l0,24Z" class="g1_327" />
</g>
<path fill-rule="evenodd" d="M481,257l73,0l0,-24l-73,0l0,24Z" class="g1_327" />
<g clip-path="url(#c7_327)">
<path fill-rule="evenodd" d="M488,257l58,0l0,-24l-58,0l0,24Z" class="g1_327" />
</g>
<path fill-rule="evenodd" d="M555,257l332,0l0,-24l-332,0l0,24Z" class="g1_327" />
<g clip-path="url(#c8_327)">
<path fill-rule="evenodd" d="M563,257l317,0l0,-24l-317,0l0,24Z" class="g1_327" />
</g>
<path d="M46.5,233.5l0,-1" class="g2_327" />
<path d="M86.5,233.5l0,-1" class="g2_327" />
<path d="M127.5,233.5l0,-1" class="g2_327" />
<path d="M168.5,233.5l0,-1" class="g2_327" />
<path d="M209.5,233.5l0,-1" class="g2_327" />
<path d="M210.5,233.5l269,0" class="g2_327" />
<path d="M479.5,233.5l0,-1" class="g2_327" />
<path d="M481.5,233.5l73,0" class="g2_327" />
<path d="M554.5,233.5l0,-1" class="g2_327" />
<path d="M555.5,233.5l332,0" class="g2_327" />
<path d="M887.5,233.5l0,-1" class="g2_327" />
<path d="M46.5,257.5l0,-24" class="g2_327" />
<path d="M86.5,257.5l0,-24" class="g2_327" />
<path d="M127.5,257.5l0,-24" class="g2_327" />
<path d="M168.5,257.5l0,-24" class="g2_327" />
<path d="M209.5,257.5l0,-24" class="g2_327" />
<path d="M479.5,257.5l0,-24" class="g2_327" />
<path d="M554.5,257.5l0,-24" class="g2_327" />
<path d="M887.5,257.5l0,-24" class="g2_327" />
<path fill-rule="evenodd" d="M47,282l39,0l0,-25l-39,0l0,25Z" class="g1_327" />
<path fill-rule="evenodd" d="M88,282l39,0l0,-25l-39,0l0,25Z" class="g1_327" />
<path fill-rule="evenodd" d="M129,282l39,0l0,-25l-39,0l0,25Z" class="g1_327" />
<path fill-rule="evenodd" d="M169,282l40,0l0,-25l-40,0l0,25Z" class="g1_327" />
<path fill-rule="evenodd" d="M210,282l269,0l0,-23l-269,0l0,23Z" class="g1_327" />
<g clip-path="url(#c9_327)">
<path fill-rule="evenodd" d="M218,282l254,0l0,-23l-254,0l0,23Z" class="g1_327" />
</g>
<path fill-rule="evenodd" d="M481,282l73,0l0,-23l-73,0l0,23Z" class="g1_327" />
<g clip-path="url(#c10_327)">
<path fill-rule="evenodd" d="M488,282l58,0l0,-23l-58,0l0,23Z" class="g1_327" />
</g>
<path fill-rule="evenodd" d="M555,282l332,0l0,-23l-332,0l0,23Z" class="g1_327" />
<g clip-path="url(#c11_327)">
<path fill-rule="evenodd" d="M563,282l317,0l0,-23l-317,0l0,23Z" class="g1_327" />
</g>
<path d="M46.5,259.5l0,-2" class="g2_327" />
<path d="M86.5,259.5l0,-2" class="g2_327" />
<path d="M127.5,259.5l0,-2" class="g2_327" />
<path d="M168.5,259.5l0,-2" class="g2_327" />
<path d="M209.5,259.5l0,-2" class="g2_327" />
<path d="M210.5,259.5l269,0" class="g2_327" />
<path d="M479.5,259.5l0,-2" class="g2_327" />
<path d="M481.5,259.5l73,0" class="g2_327" />
<path d="M554.5,259.5l0,-2" class="g2_327" />
<path d="M555.5,259.5l332,0" class="g2_327" />
<path d="M887.5,259.5l0,-2" class="g2_327" />
<path d="M46.5,282.5l0,-23" class="g2_327" />
<path d="M86.5,282.5l0,-23" class="g2_327" />
<path d="M127.5,282.5l0,-23" class="g2_327" />
<path d="M168.5,282.5l0,-23" class="g2_327" />
<path d="M209.5,282.5l0,-23" class="g2_327" />
<path d="M479.5,282.5l0,-23" class="g2_327" />
<path d="M554.5,282.5l0,-23" class="g2_327" />
<path d="M887.5,282.5l0,-23" class="g2_327" />
<path fill-rule="evenodd" d="M47,308l39,0l0,-25l-39,0l0,25Z" class="g1_327" />
<path fill-rule="evenodd" d="M88,308l39,0l0,-25l-39,0l0,25Z" class="g1_327" />
<path fill-rule="evenodd" d="M129,308l39,0l0,-25l-39,0l0,25Z" class="g1_327" />
<path fill-rule="evenodd" d="M169,308l40,0l0,-25l-40,0l0,25Z" class="g1_327" />
<path fill-rule="evenodd" d="M210,308l269,0l0,-24l-269,0l0,24Z" class="g1_327" />
<g clip-path="url(#c12_327)">
<path fill-rule="evenodd" d="M218,308l254,0l0,-24l-254,0l0,24Z" class="g1_327" />
</g>
<path fill-rule="evenodd" d="M481,308l73,0l0,-24l-73,0l0,24Z" class="g1_327" />
<g clip-path="url(#c13_327)">
<path fill-rule="evenodd" d="M488,308l58,0l0,-24l-58,0l0,24Z" class="g1_327" />
</g>
<path fill-rule="evenodd" d="M555,308l332,0l0,-24l-332,0l0,24Z" class="g1_327" />
<g clip-path="url(#c14_327)">
<path fill-rule="evenodd" d="M563,308l317,0l0,-24l-317,0l0,24Z" class="g1_327" />
</g>
<path d="M46.5,284.5l0,-2" class="g2_327" />
<path d="M86.5,284.5l0,-2" class="g2_327" />
<path d="M127.5,284.5l0,-2" class="g2_327" />
<path d="M168.5,284.5l0,-2" class="g2_327" />
<path d="M209.5,284.5l0,-2" class="g2_327" />
<path d="M210.5,284.5l269,0" class="g2_327" />
<path d="M479.5,284.5l0,-2" class="g2_327" />
<path d="M481.5,284.5l73,0" class="g2_327" />
<path d="M554.5,284.5l0,-2" class="g2_327" />
<path d="M555.5,284.5l332,0" class="g2_327" />
<path d="M887.5,284.5l0,-2" class="g2_327" />
<path d="M46.5,308.5l0,-24" class="g2_327" />
<path d="M86.5,308.5l0,-24" class="g2_327" />
<path d="M127.5,308.5l0,-24" class="g2_327" />
<path d="M168.5,308.5l0,-24" class="g2_327" />
<path d="M209.5,308.5l0,-24" class="g2_327" />
<path d="M479.5,308.5l0,-24" class="g2_327" />
<path d="M554.5,308.5l0,-24" class="g2_327" />
<path d="M887.5,308.5l0,-24" class="g2_327" />
<path fill-rule="evenodd" d="M47,333l39,0l0,-25l-39,0l0,25Z" class="g1_327" />
<path fill-rule="evenodd" d="M88,333l39,0l0,-25l-39,0l0,25Z" class="g1_327" />
<path fill-rule="evenodd" d="M129,333l39,0l0,-25l-39,0l0,25Z" class="g1_327" />
<path fill-rule="evenodd" d="M169,333l40,0l0,-25l-40,0l0,25Z" class="g1_327" />
<path fill-rule="evenodd" d="M210,333l269,0l0,-24l-269,0l0,24Z" class="g1_327" />
<g clip-path="url(#c15_327)">
<path fill-rule="evenodd" d="M218,333l254,0l0,-24l-254,0l0,24Z" class="g1_327" />
</g>
<path fill-rule="evenodd" d="M481,333l73,0l0,-24l-73,0l0,24Z" class="g1_327" />
<g clip-path="url(#c16_327)">
<path fill-rule="evenodd" d="M488,333l58,0l0,-24l-58,0l0,24Z" class="g1_327" />
</g>
<path fill-rule="evenodd" d="M555,333l332,0l0,-24l-332,0l0,24Z" class="g1_327" />
<g clip-path="url(#c17_327)">
<path fill-rule="evenodd" d="M563,333l317,0l0,-24l-317,0l0,24Z" class="g1_327" />
</g>
<path d="M46.5,309.5l0,-1" class="g2_327" />
<path d="M86.5,309.5l0,-1" class="g2_327" />
<path d="M127.5,309.5l0,-1" class="g2_327" />
<path d="M168.5,309.5l0,-1" class="g2_327" />
<path d="M209.5,309.5l0,-1" class="g2_327" />
<path d="M210.5,309.5l269,0" class="g2_327" />
<path d="M479.5,309.5l0,-1" class="g2_327" />
<path d="M481.5,309.5l73,0" class="g2_327" />
<path d="M554.5,309.5l0,-1" class="g2_327" />
<path d="M555.5,309.5l332,0" class="g2_327" />
<path d="M887.5,309.5l0,-1" class="g2_327" />
<path d="M46.5,333.5l0,-24" class="g2_327" />
<path d="M86.5,333.5l0,-24" class="g2_327" />
<path d="M127.5,333.5l0,-24" class="g2_327" />
<path d="M168.5,333.5l0,-24" class="g2_327" />
<path d="M209.5,333.5l0,-24" class="g2_327" />
<path d="M479.5,333.5l0,-24" class="g2_327" />
<path d="M554.5,333.5l0,-24" class="g2_327" />
<path d="M887.5,333.5l0,-24" class="g2_327" />
<path fill-rule="evenodd" d="M47,406l39,0l0,-73l-39,0l0,73Z" class="g1_327" />
<path fill-rule="evenodd" d="M88,406l39,0l0,-73l-39,0l0,73Z" class="g1_327" />
<path fill-rule="evenodd" d="M129,406l39,0l0,-73l-39,0l0,73Z" class="g1_327" />
<path fill-rule="evenodd" d="M169,406l40,0l0,-73l-40,0l0,73Z" class="g1_327" />
<path fill-rule="evenodd" d="M210,406l269,0l0,-71l-269,0l0,71Z" class="g1_327" />
<g clip-path="url(#c18_327)">
<path fill-rule="evenodd" d="M218,358l254,0l0,-23l-254,0l0,23Z" class="g1_327" />
</g>
<path fill-rule="evenodd" d="M481,406l73,0l0,-71l-73,0l0,71Z" class="g1_327" />
<g clip-path="url(#c19_327)">
<path fill-rule="evenodd" d="M488,358l58,0l0,-23l-58,0l0,23Z" class="g1_327" />
</g>
<path fill-rule="evenodd" d="M555,406l332,0l0,-71l-332,0l0,71Z" class="g1_327" />
<g clip-path="url(#c20_327)">
<path fill-rule="evenodd" d="M563,358l317,0l0,-23l-317,0l0,23Z" class="g1_327" />
</g>
<path fill-rule="evenodd" d="M563,382l317,0l0,-24l-317,0l0,24Z" class="g1_327" />
<path fill-rule="evenodd" d="M563,406l317,0l0,-24l-317,0l0,24Z" class="g1_327" />
<path d="M46.5,335.5l0,-2" class="g2_327" />
<path d="M86.5,335.5l0,-2" class="g2_327" />
<path d="M127.5,335.5l0,-2" class="g2_327" />
<path d="M168.5,335.5l0,-2" class="g2_327" />
<path d="M209.5,335.5l0,-2" class="g2_327" />
<path d="M210.5,335.5l269,0" class="g2_327" />
<path d="M479.5,335.5l0,-2" class="g2_327" />
<path d="M481.5,335.5l73,0" class="g2_327" />
<path d="M554.5,335.5l0,-2" class="g2_327" />
<path d="M555.5,335.5l332,0" class="g2_327" />
<path d="M887.5,335.5l0,-2" class="g2_327" />
<path d="M46.5,406.5l0,-71" class="g2_327" />
<path d="M86.5,406.5l0,-71" class="g2_327" />
<path d="M127.5,406.5l0,-71" class="g2_327" />
<path d="M168.5,406.5l0,-71" class="g2_327" />
<path d="M209.5,406.5l0,-71" class="g2_327" />
<path d="M479.5,406.5l0,-71" class="g2_327" />
<path d="M554.5,406.5l0,-71" class="g2_327" />
<path d="M887.5,406.5l0,-71" class="g2_327" />
<path fill-rule="evenodd" d="M47,432l39,0l0,-26l-39,0l0,26Z" class="g1_327" />
<path fill-rule="evenodd" d="M88,432l39,0l0,-26l-39,0l0,26Z" class="g1_327" />
<path fill-rule="evenodd" d="M129,432l39,0l0,-26l-39,0l0,26Z" class="g1_327" />
<path fill-rule="evenodd" d="M169,432l40,0l0,-26l-40,0l0,26Z" class="g1_327" />
<path fill-rule="evenodd" d="M210,432l269,0l0,-24l-269,0l0,24Z" class="g1_327" />
<path fill-rule="evenodd" d="M218,432l254,0l0,-24l-254,0l0,24Z" class="g1_327" />
<path fill-rule="evenodd" d="M481,432l73,0l0,-24l-73,0l0,24Z" class="g1_327" />
<path fill-rule="evenodd" d="M488,432l58,0l0,-24l-58,0l0,24Z" class="g1_327" />
<path fill-rule="evenodd" d="M555,432l332,0l0,-24l-332,0l0,24Z" class="g1_327" />
<path fill-rule="evenodd" d="M563,432l317,0l0,-24l-317,0l0,24Z" class="g1_327" />
<path d="M46.5,408.5l0,-2" class="g2_327" />
<path d="M86.5,408.5l0,-2" class="g2_327" />
<path d="M127.5,408.5l0,-2" class="g2_327" />
<path d="M168.5,408.5l0,-2" class="g2_327" />
<path d="M209.5,408.5l0,-2" class="g2_327" />
<path d="M210.5,408.5l269,0" class="g2_327" />
<path d="M479.5,408.5l0,-2" class="g2_327" />
<path d="M481.5,408.5l73,0" class="g2_327" />
<path d="M554.5,408.5l0,-2" class="g2_327" />
<path d="M555.5,408.5l332,0" class="g2_327" />
<path d="M887.5,408.5l0,-2" class="g2_327" />
<path d="M46.5,432.5l0,-24" class="g2_327" />
<path d="M86.5,432.5l0,-24" class="g2_327" />
<path d="M127.5,432.5l0,-24" class="g2_327" />
<path d="M168.5,432.5l0,-24" class="g2_327" />
<path d="M209.5,432.5l0,-24" class="g2_327" />
<path d="M479.5,432.5l0,-24" class="g2_327" />
<path d="M554.5,432.5l0,-24" class="g2_327" />
<path d="M887.5,432.5l0,-24" class="g2_327" />
<path fill-rule="evenodd" d="M47,457l39,0l0,-25l-39,0l0,25Z" class="g1_327" />
<path fill-rule="evenodd" d="M88,457l39,0l0,-25l-39,0l0,25Z" class="g1_327" />
<path fill-rule="evenodd" d="M129,457l39,0l0,-25l-39,0l0,25Z" class="g1_327" />
<path fill-rule="evenodd" d="M169,457l40,0l0,-25l-40,0l0,25Z" class="g1_327" />
<path fill-rule="evenodd" d="M210,457l269,0l0,-24l-269,0l0,24Z" class="g1_327" />
<path fill-rule="evenodd" d="M218,457l254,0l0,-24l-254,0l0,24Z" class="g1_327" />
<path fill-rule="evenodd" d="M481,457l73,0l0,-24l-73,0l0,24Z" class="g1_327" />
<path fill-rule="evenodd" d="M488,457l58,0l0,-24l-58,0l0,24Z" class="g1_327" />
<path fill-rule="evenodd" d="M555,457l332,0l0,-24l-332,0l0,24Z" class="g1_327" />
<path fill-rule="evenodd" d="M563,457l317,0l0,-24l-317,0l0,24Z" class="g1_327" />
<path d="M46.5,433.5l0,-1" class="g2_327" />
<path d="M86.5,433.5l0,-1" class="g2_327" />
<path d="M127.5,433.5l0,-1" class="g2_327" />
<path d="M168.5,433.5l0,-1" class="g2_327" />
<path d="M209.5,433.5l0,-1" class="g2_327" />
<path d="M210.5,433.5l269,0" class="g2_327" />
<path d="M479.5,433.5l0,-1" class="g2_327" />
<path d="M481.5,433.5l73,0" class="g2_327" />
<path d="M554.5,433.5l0,-1" class="g2_327" />
<path d="M555.5,433.5l332,0" class="g2_327" />
<path d="M887.5,433.5l0,-1" class="g2_327" />
<path d="M46.5,457.5l0,-24" class="g2_327" />
<path d="M86.5,457.5l0,-24" class="g2_327" />
<path d="M127.5,457.5l0,-24" class="g2_327" />
<path d="M168.5,457.5l0,-24" class="g2_327" />
<path d="M209.5,457.5l0,-24" class="g2_327" />
<path d="M479.5,457.5l0,-24" class="g2_327" />
<path d="M554.5,457.5l0,-24" class="g2_327" />
<path d="M887.5,457.5l0,-24" class="g2_327" />
<path fill-rule="evenodd" d="M47,482l39,0l0,-25l-39,0l0,25Z" class="g1_327" />
<path fill-rule="evenodd" d="M88,482l39,0l0,-25l-39,0l0,25Z" class="g1_327" />
<path fill-rule="evenodd" d="M129,482l39,0l0,-25l-39,0l0,25Z" class="g1_327" />
<path fill-rule="evenodd" d="M169,482l40,0l0,-25l-40,0l0,25Z" class="g1_327" />
<path fill-rule="evenodd" d="M210,482l269,0l0,-24l-269,0l0,24Z" class="g1_327" />
<path fill-rule="evenodd" d="M218,482l254,0l0,-24l-254,0l0,24Z" class="g1_327" />
<path fill-rule="evenodd" d="M481,482l73,0l0,-24l-73,0l0,24Z" class="g1_327" />
<path fill-rule="evenodd" d="M488,482l58,0l0,-24l-58,0l0,24Z" class="g1_327" />
<path fill-rule="evenodd" d="M555,482l332,0l0,-24l-332,0l0,24Z" class="g1_327" />
<path fill-rule="evenodd" d="M563,482l317,0l0,-24l-317,0l0,24Z" class="g1_327" />
<path d="M46.5,458.5l0,-1" class="g2_327" />
<path d="M86.5,458.5l0,-1" class="g2_327" />
<path d="M127.5,458.5l0,-1" class="g2_327" />
<path d="M168.5,458.5l0,-1" class="g2_327" />
<path d="M209.5,458.5l0,-1" class="g2_327" />
<path d="M210.5,458.5l269,0" class="g2_327" />
<path d="M479.5,458.5l0,-1" class="g2_327" />
<path d="M481.5,458.5l73,0" class="g2_327" />
<path d="M554.5,458.5l0,-1" class="g2_327" />
<path d="M555.5,458.5l332,0" class="g2_327" />
<path d="M887.5,458.5l0,-1" class="g2_327" />
<path d="M46.5,482.5l0,-24" class="g2_327" />
<path d="M86.5,482.5l0,-24" class="g2_327" />
<path d="M127.5,482.5l0,-24" class="g2_327" />
<path d="M168.5,482.5l0,-24" class="g2_327" />
<path d="M209.5,482.5l0,-24" class="g2_327" />
<path d="M479.5,482.5l0,-24" class="g2_327" />
<path d="M554.5,482.5l0,-24" class="g2_327" />
<path d="M887.5,482.5l0,-24" class="g2_327" />
<path fill-rule="evenodd" d="M47,511l39,0l0,-29l-39,0l0,29Z" class="g1_327" />
<path fill-rule="evenodd" d="M88,511l39,0l0,-29l-39,0l0,29Z" class="g1_327" />
<path fill-rule="evenodd" d="M129,511l39,0l0,-29l-39,0l0,29Z" class="g1_327" />
<path fill-rule="evenodd" d="M169,511l40,0l0,-29l-40,0l0,29Z" class="g1_327" />
<path fill-rule="evenodd" d="M210,1036l39,0l0,-552l-39,0l0,552Z" class="g1_327" />
<g clip-path="url(#c21_327)">
<path fill-rule="evenodd" d="M218,1036l24,0l0,-552l-24,0l0,552Z" class="g1_327" />
</g>
<path fill-rule="evenodd" d="M251,1036l39,0l0,-552l-39,0l0,552Z" class="g1_327" />
<g clip-path="url(#c22_327)">
<path fill-rule="evenodd" d="M259,1036l23,0l0,-552l-23,0l0,552Z" class="g1_327" />
</g>
<path fill-rule="evenodd" d="M292,511l187,0l0,-27l-187,0l0,27Z" class="g1_327" />
<path fill-rule="evenodd" d="M299,508l173,0l0,-24l-173,0l0,24Z" class="g1_327" />
<path fill-rule="evenodd" d="M481,511l73,0l0,-27l-73,0l0,27Z" class="g1_327" />
<path fill-rule="evenodd" d="M488,508l58,0l0,-24l-58,0l0,24Z" class="g1_327" />
<path fill-rule="evenodd" d="M555,511l332,0l0,-27l-332,0l0,27Z" class="g1_327" />
<path fill-rule="evenodd" d="M563,508l317,0l0,-24l-317,0l0,24Z" class="g1_327" />
<path d="M46.5,484.5l0,-2" class="g2_327" />
<path d="M86.5,484.5l0,-2" class="g2_327" />
<path d="M127.5,484.5l0,-2" class="g2_327" />
<path d="M168.5,484.5l0,-2" class="g2_327" />
<path d="M209.5,484.5l0,-2" class="g2_327" />
<path d="M210.5,484.5l40,0" class="g2_327" />
<path d="M250.5,484.5l0,-2" class="g2_327" />
<path d="M251.5,484.5l39,0" class="g2_327" />
<path d="M290.5,484.5l0,-2" class="g2_327" />
<path d="M292.5,484.5l187,0" class="g2_327" />
<path d="M479.5,484.5l0,-2" class="g2_327" />
<path d="M481.5,484.5l73,0" class="g2_327" />
<path d="M554.5,484.5l0,-2" class="g2_327" />
<path d="M555.5,484.5l332,0" class="g2_327" />
<path d="M887.5,484.5l0,-2" class="g2_327" />
<path d="M46.5,511.5l0,-27" class="g2_327" />
<path d="M86.5,511.5l0,-27" class="g2_327" />
<path d="M127.5,511.5l0,-27" class="g2_327" />
<path d="M168.5,511.5l0,-27" class="g2_327" />
<path d="M209.5,511.5l0,-27" class="g2_327" />
<path d="M250.5,511.5l0,-27" class="g2_327" />
<path d="M290.5,511.5l0,-27" class="g2_327" />
<path d="M479.5,511.5l0,-27" class="g2_327" />
<path d="M554.5,511.5l0,-27" class="g2_327" />
<path d="M887.5,511.5l0,-27" class="g2_327" />
<path fill-rule="evenodd" d="M47,539l39,0l0,-28l-39,0l0,28Z" class="g1_327" />
<path fill-rule="evenodd" d="M88,539l39,0l0,-28l-39,0l0,28Z" class="g1_327" />
<path fill-rule="evenodd" d="M129,539l39,0l0,-28l-39,0l0,28Z" class="g1_327" />
<path fill-rule="evenodd" d="M169,539l40,0l0,-28l-40,0l0,28Z" class="g1_327" />
<path fill-rule="evenodd" d="M292,539l187,0l0,-26l-187,0l0,26Z" class="g1_327" />
<path fill-rule="evenodd" d="M299,536l173,0l0,-23l-173,0l0,23Z" class="g1_327" />
<path fill-rule="evenodd" d="M481,539l73,0l0,-26l-73,0l0,26Z" class="g1_327" />
<path fill-rule="evenodd" d="M488,536l58,0l0,-23l-58,0l0,23Z" class="g1_327" />
<path fill-rule="evenodd" d="M555,539l332,0l0,-26l-332,0l0,26Z" class="g1_327" />
<path fill-rule="evenodd" d="M563,536l317,0l0,-23l-317,0l0,23Z" class="g1_327" />
<path d="M46.5,513.5l0,-2" class="g2_327" />
<path d="M86.5,513.5l0,-2" class="g2_327" />
<path d="M127.5,513.5l0,-2" class="g2_327" />
<path d="M168.5,513.5l0,-2" class="g2_327" />
<path d="M209.5,513.5l0,-2" class="g2_327" />
<path d="M250.5,513.5l0,-2" class="g2_327" />
<path d="M290.5,513.5l0,-2" class="g2_327" />
<path d="M292.5,513.5l187,0" class="g2_327" />
<path d="M479.5,513.5l0,-2" class="g2_327" />
<path d="M481.5,513.5l73,0" class="g2_327" />
<path d="M554.5,513.5l0,-2" class="g2_327" />
<path d="M555.5,513.5l332,0" class="g2_327" />
<path d="M887.5,513.5l0,-2" class="g2_327" />
<path d="M46.5,539.5l0,-26" class="g2_327" />
<path d="M86.5,539.5l0,-26" class="g2_327" />
<path d="M127.5,539.5l0,-26" class="g2_327" />
<path d="M168.5,539.5l0,-26" class="g2_327" />
<path d="M209.5,539.5l0,-26" class="g2_327" />
<path d="M250.5,539.5l0,-26" class="g2_327" />
<path d="M290.5,539.5l0,-26" class="g2_327" />
<path d="M479.5,539.5l0,-26" class="g2_327" />
<path d="M554.5,539.5l0,-26" class="g2_327" />
<path d="M887.5,539.5l0,-26" class="g2_327" />
<path fill-rule="evenodd" d="M47,568l39,0l0,-29l-39,0l0,29Z" class="g1_327" />
<path fill-rule="evenodd" d="M88,568l39,0l0,-29l-39,0l0,29Z" class="g1_327" />
<path fill-rule="evenodd" d="M129,568l39,0l0,-29l-39,0l0,29Z" class="g1_327" />
<path fill-rule="evenodd" d="M169,568l40,0l0,-29l-40,0l0,29Z" class="g1_327" />
<path fill-rule="evenodd" d="M292,568l187,0l0,-27l-187,0l0,27Z" class="g1_327" />
<path fill-rule="evenodd" d="M299,565l173,0l0,-24l-173,0l0,24Z" class="g1_327" />
<path fill-rule="evenodd" d="M481,568l73,0l0,-27l-73,0l0,27Z" class="g1_327" />
<path fill-rule="evenodd" d="M488,565l58,0l0,-24l-58,0l0,24Z" class="g1_327" />
<path fill-rule="evenodd" d="M555,568l332,0l0,-27l-332,0l0,27Z" class="g1_327" />
<path fill-rule="evenodd" d="M563,565l317,0l0,-24l-317,0l0,24Z" class="g1_327" />
<path d="M46.5,541.5l0,-2" class="g2_327" />
<path d="M86.5,541.5l0,-2" class="g2_327" />
<path d="M127.5,541.5l0,-2" class="g2_327" />
<path d="M168.5,541.5l0,-2" class="g2_327" />
<path d="M209.5,541.5l0,-2" class="g2_327" />
<path d="M250.5,541.5l0,-2" class="g2_327" />
<path d="M290.5,541.5l0,-2" class="g2_327" />
<path d="M292.5,541.5l187,0" class="g2_327" />
<path d="M479.5,541.5l0,-2" class="g2_327" />
<path d="M481.5,541.5l73,0" class="g2_327" />
<path d="M554.5,541.5l0,-2" class="g2_327" />
<path d="M555.5,541.5l332,0" class="g2_327" />
<path d="M887.5,541.5l0,-2" class="g2_327" />
<path d="M46.5,568.5l0,-27" class="g2_327" />
<path d="M86.5,568.5l0,-27" class="g2_327" />
<path d="M127.5,568.5l0,-27" class="g2_327" />
<path d="M168.5,568.5l0,-27" class="g2_327" />
<path d="M209.5,568.5l0,-27" class="g2_327" />
<path d="M250.5,568.5l0,-27" class="g2_327" />
<path d="M290.5,568.5l0,-27" class="g2_327" />
<path d="M479.5,568.5l0,-27" class="g2_327" />
<path d="M554.5,568.5l0,-27" class="g2_327" />
<path d="M887.5,568.5l0,-27" class="g2_327" />
<path fill-rule="evenodd" d="M47,597l39,0l0,-29l-39,0l0,29Z" class="g1_327" />
<path fill-rule="evenodd" d="M88,597l39,0l0,-29l-39,0l0,29Z" class="g1_327" />
<path fill-rule="evenodd" d="M129,597l39,0l0,-29l-39,0l0,29Z" class="g1_327" />
<path fill-rule="evenodd" d="M169,597l40,0l0,-29l-40,0l0,29Z" class="g1_327" />
<path fill-rule="evenodd" d="M292,597l187,0l0,-28l-187,0l0,28Z" class="g1_327" />
<g clip-path="url(#c23_327)">
<path fill-rule="evenodd" d="M299,593l173,0l0,-24l-173,0l0,24Z" class="g1_327" />
</g>
<path fill-rule="evenodd" d="M481,597l73,0l0,-28l-73,0l0,28Z" class="g1_327" />
<g clip-path="url(#c24_327)">
<path fill-rule="evenodd" d="M488,593l58,0l0,-24l-58,0l0,24Z" class="g1_327" />
</g>
<path fill-rule="evenodd" d="M555,597l332,0l0,-28l-332,0l0,28Z" class="g1_327" />
<g clip-path="url(#c25_327)">
<path fill-rule="evenodd" d="M563,593l317,0l0,-24l-317,0l0,24Z" class="g1_327" />
</g>
<path d="M46.5,569.5l0,-1" class="g2_327" />
<path d="M86.5,569.5l0,-1" class="g2_327" />
<path d="M127.5,569.5l0,-1" class="g2_327" />
<path d="M168.5,569.5l0,-1" class="g2_327" />
<path d="M209.5,569.5l0,-1" class="g2_327" />
<path d="M250.5,569.5l0,-1" class="g2_327" />
<path d="M290.5,569.5l0,-1" class="g2_327" />
<path d="M292.5,569.5l187,0" class="g2_327" />
<path d="M479.5,569.5l0,-1" class="g2_327" />
<path d="M481.5,569.5l73,0" class="g2_327" />
<path d="M554.5,569.5l0,-1" class="g2_327" />
<path d="M555.5,569.5l332,0" class="g2_327" />
<path d="M887.5,569.5l0,-1" class="g2_327" />
<path d="M46.5,597.5l0,-28" class="g2_327" />
<path d="M86.5,597.5l0,-28" class="g2_327" />
<path d="M127.5,597.5l0,-28" class="g2_327" />
<path d="M168.5,597.5l0,-28" class="g2_327" />
<path d="M209.5,597.5l0,-28" class="g2_327" />
<path d="M250.5,597.5l0,-28" class="g2_327" />
<path d="M290.5,597.5l0,-28" class="g2_327" />
<path d="M479.5,597.5l0,-28" class="g2_327" />
<path d="M554.5,597.5l0,-28" class="g2_327" />
<path d="M887.5,597.5l0,-28" class="g2_327" />
<path fill-rule="evenodd" d="M47,646l39,0l0,-49l-39,0l0,49Z" class="g1_327" />
<path fill-rule="evenodd" d="M88,646l39,0l0,-49l-39,0l0,49Z" class="g1_327" />
<path fill-rule="evenodd" d="M129,646l39,0l0,-49l-39,0l0,49Z" class="g1_327" />
<path fill-rule="evenodd" d="M169,646l40,0l0,-49l-40,0l0,49Z" class="g1_327" />
<path fill-rule="evenodd" d="M292,646l187,0l0,-48l-187,0l0,48Z" class="g1_327" />
<path fill-rule="evenodd" d="M299,622l173,0l0,-24l-173,0l0,24Z" class="g1_327" />
<path fill-rule="evenodd" d="M481,646l73,0l0,-48l-73,0l0,48Z" class="g1_327" />
<path fill-rule="evenodd" d="M488,622l58,0l0,-24l-58,0l0,24Z" class="g1_327" />
<path fill-rule="evenodd" d="M555,646l332,0l0,-48l-332,0l0,48Z" class="g1_327" />
<path fill-rule="evenodd" d="M563,622l317,0l0,-24l-317,0l0,24Z" class="g1_327" />
<path fill-rule="evenodd" d="M563,646l317,0l0,-24l-317,0l0,24Z" class="g1_327" />
<path d="M46.5,598.5l0,-1" class="g2_327" />
<path d="M86.5,598.5l0,-1" class="g2_327" />
<path d="M127.5,598.5l0,-1" class="g2_327" />
<path d="M168.5,598.5l0,-1" class="g2_327" />
<path d="M209.5,598.5l0,-1" class="g2_327" />
<path d="M250.5,598.5l0,-1" class="g2_327" />
<path d="M290.5,598.5l0,-1" class="g2_327" />
<path d="M292.5,598.5l187,0" class="g2_327" />
<path d="M479.5,598.5l0,-1" class="g2_327" />
<path d="M481.5,598.5l73,0" class="g2_327" />
<path d="M554.5,598.5l0,-1" class="g2_327" />
<path d="M555.5,598.5l332,0" class="g2_327" />
<path d="M887.5,598.5l0,-1" class="g2_327" />
<path d="M46.5,646.5l0,-48" class="g2_327" />
<path d="M86.5,646.5l0,-48" class="g2_327" />
<path d="M127.5,646.5l0,-48" class="g2_327" />
<path d="M168.5,646.5l0,-48" class="g2_327" />
<path d="M209.5,646.5l0,-48" class="g2_327" />
<path d="M250.5,646.5l0,-48" class="g2_327" />
<path d="M290.5,646.5l0,-48" class="g2_327" />
<path d="M479.5,646.5l0,-48" class="g2_327" />
<path d="M554.5,646.5l0,-48" class="g2_327" />
<path d="M887.5,646.5l0,-48" class="g2_327" />
<path fill-rule="evenodd" d="M47,674l39,0l0,-28l-39,0l0,28Z" class="g1_327" />
<path fill-rule="evenodd" d="M88,674l39,0l0,-28l-39,0l0,28Z" class="g1_327" />
<path fill-rule="evenodd" d="M129,674l39,0l0,-28l-39,0l0,28Z" class="g1_327" />
<path fill-rule="evenodd" d="M169,674l40,0l0,-28l-40,0l0,28Z" class="g1_327" />
<path fill-rule="evenodd" d="M292,674l187,0l0,-27l-187,0l0,27Z" class="g1_327" />
<g clip-path="url(#c26_327)">
<path fill-rule="evenodd" d="M299,671l173,0l0,-24l-173,0l0,24Z" class="g1_327" />
</g>
<path fill-rule="evenodd" d="M481,674l73,0l0,-27l-73,0l0,27Z" class="g1_327" />
<g clip-path="url(#c27_327)">
<path fill-rule="evenodd" d="M488,671l58,0l0,-24l-58,0l0,24Z" class="g1_327" />
</g>
<path fill-rule="evenodd" d="M555,674l332,0l0,-27l-332,0l0,27Z" class="g1_327" />
<g clip-path="url(#c28_327)">
<path fill-rule="evenodd" d="M563,671l317,0l0,-24l-317,0l0,24Z" class="g1_327" />
</g>
<path d="M46.5,647.5l0,-1" class="g2_327" />
<path d="M86.5,647.5l0,-1" class="g2_327" />
<path d="M127.5,647.5l0,-1" class="g2_327" />
<path d="M168.5,647.5l0,-1" class="g2_327" />
<path d="M209.5,647.5l0,-1" class="g2_327" />
<path d="M250.5,647.5l0,-1" class="g2_327" />
<path d="M290.5,647.5l0,-1" class="g2_327" />
<path d="M292.5,647.5l187,0" class="g2_327" />
<path d="M479.5,647.5l0,-1" class="g2_327" />
<path d="M481.5,647.5l73,0" class="g2_327" />
<path d="M554.5,647.5l0,-1" class="g2_327" />
<path d="M555.5,647.5l332,0" class="g2_327" />
<path d="M887.5,647.5l0,-1" class="g2_327" />
<path d="M46.5,674.5l0,-27" class="g2_327" />
<path d="M86.5,674.5l0,-27" class="g2_327" />
<path d="M127.5,674.5l0,-27" class="g2_327" />
<path d="M168.5,674.5l0,-27" class="g2_327" />
<path d="M209.5,674.5l0,-27" class="g2_327" />
<path d="M250.5,674.5l0,-27" class="g2_327" />
<path d="M290.5,674.5l0,-27" class="g2_327" />
<path d="M479.5,674.5l0,-27" class="g2_327" />
<path d="M554.5,674.5l0,-27" class="g2_327" />
<path d="M887.5,674.5l0,-27" class="g2_327" />
<path fill-rule="evenodd" d="M47,795l39,0L86,674l-39,0l0,121Z" class="g1_327" />
<path fill-rule="evenodd" d="M88,795l39,0l0,-121l-39,0l0,121Z" class="g1_327" />
<path fill-rule="evenodd" d="M129,795l39,0l0,-121l-39,0l0,121Z" class="g1_327" />
<path fill-rule="evenodd" d="M169,795l40,0l0,-121l-40,0l0,121Z" class="g1_327" />
<path fill-rule="evenodd" d="M292,795l187,0l0,-119l-187,0l0,119Z" class="g1_327" />
<g clip-path="url(#c29_327)">
<path fill-rule="evenodd" d="M299,700l173,0l0,-24l-173,0l0,24Z" class="g1_327" />
</g>
<path fill-rule="evenodd" d="M481,795l73,0l0,-119l-73,0l0,119Z" class="g1_327" />
<g clip-path="url(#c30_327)">
<path fill-rule="evenodd" d="M488,700l58,0l0,-24l-58,0l0,24Z" class="g1_327" />
</g>
<path fill-rule="evenodd" d="M555,795l332,0l0,-119l-332,0l0,119Z" class="g1_327" />
<g clip-path="url(#c31_327)">
<path fill-rule="evenodd" d="M563,700l317,0l0,-24l-317,0l0,24Z" class="g1_327" />
</g>
<path fill-rule="evenodd" d="M563,724l317,0l0,-24l-317,0l0,24Z" class="g1_327" />
<path fill-rule="evenodd" d="M563,747l317,0l0,-23l-317,0l0,23Z" class="g1_327" />
<path fill-rule="evenodd" d="M563,771l317,0l0,-24l-317,0l0,24Z" class="g1_327" />
<path fill-rule="evenodd" d="M563,795l317,0l0,-24l-317,0l0,24Z" class="g1_327" />
<path d="M46.5,676.5l0,-2" class="g2_327" />
<path d="M86.5,676.5l0,-2" class="g2_327" />
<path d="M127.5,676.5l0,-2" class="g2_327" />
<path d="M168.5,676.5l0,-2" class="g2_327" />
<path d="M209.5,676.5l0,-2" class="g2_327" />
<path d="M250.5,676.5l0,-2" class="g2_327" />
<path d="M290.5,676.5l0,-2" class="g2_327" />
<path d="M292.5,676.5l187,0" class="g2_327" />
<path d="M479.5,676.5l0,-2" class="g2_327" />
<path d="M481.5,676.5l73,0" class="g2_327" />
<path d="M554.5,676.5l0,-2" class="g2_327" />
<path d="M555.5,676.5l332,0" class="g2_327" />
<path d="M887.5,676.5l0,-2" class="g2_327" />
<path d="M46.5,795.5l0,-119" class="g2_327" />
<path d="M86.5,795.5l0,-119" class="g2_327" />
<path d="M127.5,795.5l0,-119" class="g2_327" />
<path d="M168.5,795.5l0,-119" class="g2_327" />
<path d="M209.5,795.5l0,-119" class="g2_327" />
<path d="M250.5,795.5l0,-119" class="g2_327" />
<path d="M290.5,795.5l0,-119" class="g2_327" />
<path d="M479.5,795.5l0,-119" class="g2_327" />
<path d="M554.5,795.5l0,-119" class="g2_327" />
<path d="M887.5,795.5l0,-119" class="g2_327" />
<path fill-rule="evenodd" d="M47,892l39,0l0,-97l-39,0l0,97Z" class="g1_327" />
<path fill-rule="evenodd" d="M88,892l39,0l0,-97l-39,0l0,97Z" class="g1_327" />
<path fill-rule="evenodd" d="M129,892l39,0l0,-97l-39,0l0,97Z" class="g1_327" />
<path fill-rule="evenodd" d="M169,892l40,0l0,-97l-40,0l0,97Z" class="g1_327" />
<path fill-rule="evenodd" d="M292,892l187,0l0,-95l-187,0l0,95Z" class="g1_327" />
<g clip-path="url(#c32_327)">
<path fill-rule="evenodd" d="M299,820l173,0l0,-23l-173,0l0,23Z" class="g1_327" />
</g>
<path fill-rule="evenodd" d="M481,892l73,0l0,-95l-73,0l0,95Z" class="g1_327" />
<g clip-path="url(#c33_327)">
<path fill-rule="evenodd" d="M488,820l58,0l0,-23l-58,0l0,23Z" class="g1_327" />
</g>
<path fill-rule="evenodd" d="M555,892l332,0l0,-95l-332,0l0,95Z" class="g1_327" />
<g clip-path="url(#c34_327)">
<path fill-rule="evenodd" d="M563,820l317,0l0,-23l-317,0l0,23Z" class="g1_327" />
</g>
<path fill-rule="evenodd" d="M563,844l317,0l0,-24l-317,0l0,24Z" class="g1_327" />
<path fill-rule="evenodd" d="M563,868l317,0l0,-24l-317,0l0,24Z" class="g1_327" />
<path fill-rule="evenodd" d="M563,892l317,0l0,-24l-317,0l0,24Z" class="g1_327" />
<path d="M46.5,797.5l0,-2" class="g2_327" />
<path d="M86.5,797.5l0,-2" class="g2_327" />
<path d="M127.5,797.5l0,-2" class="g2_327" />
<path d="M168.5,797.5l0,-2" class="g2_327" />
<path d="M209.5,797.5l0,-2" class="g2_327" />
<path d="M250.5,797.5l0,-2" class="g2_327" />
<path d="M290.5,797.5l0,-2" class="g2_327" />
<path d="M292.5,797.5l187,0" class="g2_327" />
<path d="M479.5,797.5l0,-2" class="g2_327" />
<path d="M481.5,797.5l73,0" class="g2_327" />
<path d="M554.5,797.5l0,-2" class="g2_327" />
<path d="M555.5,797.5l332,0" class="g2_327" />
<path d="M887.5,797.5l0,-2" class="g2_327" />
<path d="M46.5,892.5l0,-95" class="g2_327" />
<path d="M86.5,892.5l0,-95" class="g2_327" />
<path d="M127.5,892.5l0,-95" class="g2_327" />
<path d="M168.5,892.5l0,-95" class="g2_327" />
<path d="M209.5,892.5l0,-95" class="g2_327" />
<path d="M250.5,892.5l0,-95" class="g2_327" />
<path d="M290.5,892.5l0,-95" class="g2_327" />
<path d="M479.5,892.5l0,-95" class="g2_327" />
<path d="M554.5,892.5l0,-95" class="g2_327" />
<path d="M887.5,892.5l0,-95" class="g2_327" />
<path fill-rule="evenodd" d="M47,1036l39,0L86,892l-39,0l0,144Z" class="g1_327" />
<path fill-rule="evenodd" d="M88,1036l39,0l0,-144l-39,0l0,144Z" class="g1_327" />
<path fill-rule="evenodd" d="M129,1036l39,0l0,-144l-39,0l0,144Z" class="g1_327" />
<path fill-rule="evenodd" d="M169,1036l40,0l0,-144l-40,0l0,144Z" class="g1_327" />
<path fill-rule="evenodd" d="M292,1036l187,0l0,-143l-187,0l0,143Z" class="g1_327" />
<g clip-path="url(#c35_327)">
<path fill-rule="evenodd" d="M299,917l173,0l0,-24l-173,0l0,24Z" class="g1_327" />
</g>
<path fill-rule="evenodd" d="M481,1036l73,0l0,-143l-73,0l0,143Z" class="g1_327" />
<g clip-path="url(#c36_327)">
<path fill-rule="evenodd" d="M488,917l58,0l0,-24l-58,0l0,24Z" class="g1_327" />
</g>
<path fill-rule="evenodd" d="M555,1036l332,0l0,-143l-332,0l0,143Z" class="g1_327" />
<g clip-path="url(#c37_327)">
<path fill-rule="evenodd" d="M563,917l317,0l0,-24l-317,0l0,24Z" class="g1_327" />
</g>
<path fill-rule="evenodd" d="M563,941l317,0l0,-24l-317,0l0,24Z" class="g1_327" />
<path fill-rule="evenodd" d="M563,965l317,0l0,-24l-317,0l0,24Z" class="g1_327" />
<path fill-rule="evenodd" d="M563,989l317,0l0,-24l-317,0l0,24Z" class="g1_327" />
<path fill-rule="evenodd" d="M563,1013l317,0l0,-24l-317,0l0,24Z" class="g1_327" />
<g clip-path="url(#c37_327)">
<path fill-rule="evenodd" d="M563,1036l317,0l0,-23l-317,0l0,23Z" class="g1_327" />
</g>
<path d="M46.5,893.5l0,-1" class="g2_327" />
<path d="M86.5,893.5l0,-1" class="g2_327" />
<path d="M127.5,893.5l0,-1" class="g2_327" />
<path d="M168.5,893.5l0,-1" class="g2_327" />
<path d="M209.5,893.5l0,-1" class="g2_327" />
<path d="M250.5,893.5l0,-1" class="g2_327" />
<path d="M290.5,893.5l0,-1" class="g2_327" />
<path d="M292.5,893.5l187,0" class="g2_327" />
<path d="M479.5,893.5l0,-1" class="g2_327" />
<path d="M481.5,893.5l73,0" class="g2_327" />
<path d="M554.5,893.5l0,-1" class="g2_327" />
<path d="M555.5,893.5l332,0" class="g2_327" />
<path d="M887.5,893.5l0,-1" class="g2_327" />
<path d="M46.5,1037.5l0,-144" class="g2_327" />
<path d="M46.5,1038.5l0,-1" class="g2_327" />
<path d="M46.5,1038.5l0,-1" class="g2_327" />
<path d="M47.5,1038.5l39,0" class="g2_327" />
<path d="M86.5,1037.5l0,-144" class="g2_327" />
<path d="M86.5,1038.5l0,-1" class="g2_327" />
<path d="M88.5,1038.5l39,0" class="g2_327" />
<path d="M127.5,1037.5l0,-144" class="g2_327" />
<path d="M127.5,1038.5l0,-1" class="g2_327" />
<path d="M129.5,1038.5l39,0" class="g2_327" />
<path d="M168.5,1037.5l0,-144" class="g2_327" />
<path d="M168.5,1038.5l0,-1" class="g2_327" />
<path d="M169.5,1038.5l40,0" class="g2_327" />
<path d="M209.5,1037.5l0,-144" class="g2_327" />
<path d="M209.5,1038.5l0,-1" class="g2_327" />
<path d="M210.5,1038.5l40,0" class="g2_327" />
<path d="M250.5,1037.5l0,-144" class="g2_327" />
<path d="M250.5,1038.5l0,-1" class="g2_327" />
<path d="M251.5,1038.5l39,0" class="g2_327" />
<path d="M290.5,1037.5l0,-144" class="g2_327" />
<path d="M290.5,1038.5l0,-1" class="g2_327" />
<path d="M292.5,1038.5l187,0" class="g2_327" />
<path d="M479.5,1037.5l0,-144" class="g2_327" />
<path d="M479.5,1038.5l0,-1" class="g2_327" />
<path d="M481.5,1038.5l73,0" class="g2_327" />
<path d="M554.5,1037.5l0,-144" class="g2_327" />
<path d="M554.5,1038.5l0,-1" class="g2_327" />
<path d="M555.5,1038.5l332,0" class="g2_327" />
<path d="M887.5,1037.5l0,-144" class="g2_327" />
<path d="M887.5,1038.5l0,-1" class="g2_327" />
<path d="M887.5,1038.5l0,-1" class="g2_327" />
</svg>