<?xml version="1.0" encoding="UTF-8" standalone="no"?>
<!DOCTYPE svg PUBLIC "-//W3C//DTD SVG 1.1//EN"
"http://www.w3.org/Graphics/SVG/1.1/DTD/svg11.dtd">
<svg version="1.1" xmlns="http://www.w3.org/2000/svg" xmlns:xlink="http://www.w3.org/1999/xlink">
<defs>
<clipPath id="c0_184"><path d="M47.5,199.5l0,-25l39,0l0,25Z" /></clipPath>
<clipPath id="c1_184"><path d="M87.5,199.5l0,-25l232,0l0,25Z" /></clipPath>
<clipPath id="c2_184"><path d="M321.5,199.5l0,-25l60,0l0,25Z" /></clipPath>
<clipPath id="c3_184"><path d="M383.5,199.5l0,-25l468,0l0,25Z" /></clipPath>
<clipPath id="c4_184"><path d="M88.5,248.5l0,-48l232,0l0,48Z" /></clipPath>
<clipPath id="c5_184"><path d="M322.5,248.5l0,-48l59,0l0,48Z" /></clipPath>
<clipPath id="c6_184"><path d="M383.5,248.5l0,-48l469,0l0,48Z" /></clipPath>
<clipPath id="c7_184"><path d="M88.5,274.5l0,-24l232,0l0,24Z" /></clipPath>
<clipPath id="c8_184"><path d="M322.5,274.5l0,-24l59,0l0,24Z" /></clipPath>
<clipPath id="c9_184"><path d="M383.5,274.5l0,-24l469,0l0,24Z" /></clipPath>
<clipPath id="c10_184"><path d="M88.5,300.5l0,-25l232,0l0,25Z" /></clipPath>
<clipPath id="c11_184"><path d="M322.5,300.5l0,-25l59,0l0,25Z" /></clipPath>
<clipPath id="c12_184"><path d="M383.5,300.5l0,-25l469,0l0,25Z" /></clipPath>
<clipPath id="c13_184"><path d="M88.5,424.5l0,-123l39,0l0,123Z" /></clipPath>
<clipPath id="c14_184"><path d="M129.5,424.5l0,-123l39,0l0,123Z" /></clipPath>
<clipPath id="c15_184"><path d="M170.5,325.5l0,-24l150,0l0,24Z" /></clipPath>
<clipPath id="c16_184"><path d="M322.5,325.5l0,-24l59,0l0,24Z" /></clipPath>
<clipPath id="c17_184"><path d="M383.5,325.5l0,-24l469,0l0,24Z" /></clipPath>
<clipPath id="c18_184"><path d="M170.5,350.5l0,-23l150,0l0,23Z" /></clipPath>
<clipPath id="c19_184"><path d="M322.5,350.5l0,-23l59,0l0,23Z" /></clipPath>
<clipPath id="c20_184"><path d="M383.5,350.5l0,-23l469,0l0,23Z" /></clipPath>
<clipPath id="c21_184"><path d="M170.5,424.5l0,-72l150,0l0,72Z" /></clipPath>
<clipPath id="c22_184"><path d="M322.5,424.5l0,-72l59,0l0,72Z" /></clipPath>
<clipPath id="c23_184"><path d="M383.5,424.5l0,-72l469,0l0,72Z" /></clipPath>
<clipPath id="c24_184"><path d="M47.5,906.5l0,-333l840,0l0,333Z" /></clipPath>
<clipPath id="c25_184"><path d="M47.5,1076.5l0,-95l840,0l0,95Z" /></clipPath>
<style type="text/css"><![CDATA[
.g2_184{
fill: none;
stroke: #7E7E7E;
stroke-width: 1;
stroke-linecap: butt;
stroke-linejoin: miter;
}
.g3_184{
fill: #F1F1F1;
}
.g1_184{
fill: #DBE5F1;
}
]]></style>
</defs>
<path fill-rule="evenodd" d="M47,199l39,0l0,-25l-39,0l0,25Z" class="g1_184" />
<g clip-path="url(#c0_184)">
<path fill-rule="evenodd" d="M55,198l23,0l0,-24l-23,0l0,24Z" class="g1_184" />
</g>
<path fill-rule="evenodd" d="M87,199l232,0l0,-25L87,174l0,25Z" class="g1_184" />
<g clip-path="url(#c1_184)">
<path fill-rule="evenodd" d="M95,198l217,0l0,-24L95,174l0,24Z" class="g1_184" />
</g>
<path fill-rule="evenodd" d="M321,199l60,0l0,-25l-60,0l0,25Z" class="g1_184" />
<g clip-path="url(#c2_184)">
<path fill-rule="evenodd" d="M328,198l46,0l0,-24l-46,0l0,24Z" class="g1_184" />
</g>
<path fill-rule="evenodd" d="M383,199l468,0l0,-25l-468,0l0,25Z" class="g1_184" />
<g clip-path="url(#c3_184)">
<path fill-rule="evenodd" d="M390,198l454,0l0,-24l-454,0l0,24Z" class="g1_184" />
</g>
<path d="M46.5,174.5l0,-1" class="g2_184" />
<path d="M46.5,174.5l0,-1" class="g2_184" />
<path d="M47.5,174.5l39,0" class="g2_184" />
<path d="M86.5,174.5l0,-1" class="g2_184" />
<path d="M87.5,174.5l232,0" class="g2_184" />
<path d="M319.5,174.5l0,-1" class="g2_184" />
<path d="M321.5,174.5l60,0" class="g2_184" />
<path d="M381.5,174.5l0,-1" class="g2_184" />
<path d="M383.5,174.5l468,0" class="g2_184" />
<path d="M851.5,174.5l0,-1" class="g2_184" />
<path d="M851.5,174.5l0,-1" class="g2_184" />
<path d="M46.5,199.5l0,-25" class="g2_184" />
<path d="M86.5,199.5l0,-25" class="g2_184" />
<path d="M319.5,199.5l0,-25" class="g2_184" />
<path d="M381.5,199.5l0,-25" class="g2_184" />
<path d="M851.5,199.5l0,-25" class="g2_184" />
<path fill-rule="evenodd" d="M47,424l39,0L86,200l-39,0l0,224Z" class="g3_184" />
<path fill-rule="evenodd" d="M55,424l23,0L78,200l-23,0l0,224Z" class="g3_184" />
<path fill-rule="evenodd" d="M88,248l232,0l0,-48L88,200l0,48Z" class="g3_184" />
<g clip-path="url(#c4_184)">
<path fill-rule="evenodd" d="M95,224l218,0l0,-24L95,200l0,24Z" class="g3_184" />
</g>
<path fill-rule="evenodd" d="M322,248l59,0l0,-48l-59,0l0,48Z" class="g3_184" />
<g clip-path="url(#c5_184)">
<path fill-rule="evenodd" d="M329,224l45,0l0,-24l-45,0l0,24Z" class="g3_184" />
</g>
<path fill-rule="evenodd" d="M383,248l469,0l0,-48l-469,0l0,48Z" class="g3_184" />
<g clip-path="url(#c6_184)">
<path fill-rule="evenodd" d="M390,224l454,0l0,-24l-454,0l0,24Z" class="g3_184" />
</g>
<path fill-rule="evenodd" d="M390,248l454,0l0,-24l-454,0l0,24Z" class="g3_184" />
<path d="M46.5,200.5l0,-1" class="g2_184" />
<path d="M47.5,200.5l39,0" class="g2_184" />
<path d="M86.5,200.5l0,-1" class="g2_184" />
<path d="M87.5,200.5l0,-1" class="g2_184" />
<path d="M89.5,200.5l230,0" class="g2_184" />
<path d="M319.5,200.5l0,-1" class="g2_184" />
<path d="M321.5,200.5l0,-1" class="g2_184" />
<path d="M322.5,200.5l59,0" class="g2_184" />
<path d="M381.5,200.5l0,-1" class="g2_184" />
<path d="M383.5,200.5l0,-1" class="g2_184" />
<path d="M384.5,200.5l467,0" class="g2_184" />
<path d="M851.5,200.5l0,-1" class="g2_184" />
<path d="M46.5,248.5l0,-48" class="g2_184" />
<path d="M86.5,248.5l0,-48" class="g2_184" />
<path d="M320.5,248.5l0,-48" class="g2_184" />
<path d="M382.5,248.5l0,-48" class="g2_184" />
<path d="M852.5,248.5l0,-48" class="g2_184" />
<path fill-rule="evenodd" d="M88,274l232,0l0,-24L88,250l0,24Z" class="g3_184" />
<g clip-path="url(#c7_184)">
<path fill-rule="evenodd" d="M95,273l218,0l0,-23L95,250l0,23Z" class="g3_184" />
</g>
<path fill-rule="evenodd" d="M322,274l59,0l0,-24l-59,0l0,24Z" class="g3_184" />
<g clip-path="url(#c8_184)">
<path fill-rule="evenodd" d="M329,273l45,0l0,-23l-45,0l0,23Z" class="g3_184" />
</g>
<path fill-rule="evenodd" d="M383,274l469,0l0,-24l-469,0l0,24Z" class="g3_184" />
<g clip-path="url(#c9_184)">
<path fill-rule="evenodd" d="M390,273l454,0l0,-23l-454,0l0,23Z" class="g3_184" />
</g>
<path d="M46.5,249.5l0,-1" class="g2_184" />
<path d="M86.5,249.5l0,-1" class="g2_184" />
<path d="M88.5,249.5l232,0" class="g2_184" />
<path d="M320.5,249.5l0,-1" class="g2_184" />
<path d="M322.5,249.5l60,0" class="g2_184" />
<path d="M382.5,249.5l0,-1" class="g2_184" />
<path d="M383.5,249.5l469,0" class="g2_184" />
<path d="M852.5,249.5l0,-1" class="g2_184" />
<path d="M46.5,274.5l0,-25" class="g2_184" />
<path d="M86.5,274.5l0,-25" class="g2_184" />
<path d="M320.5,274.5l0,-25" class="g2_184" />
<path d="M382.5,274.5l0,-25" class="g2_184" />
<path d="M852.5,274.5l0,-25" class="g2_184" />
<path fill-rule="evenodd" d="M88,300l232,0l0,-25L88,275l0,25Z" class="g3_184" />
<g clip-path="url(#c10_184)">
<path fill-rule="evenodd" d="M95,299l218,0l0,-24L95,275l0,24Z" class="g3_184" />
</g>
<path fill-rule="evenodd" d="M322,300l59,0l0,-25l-59,0l0,25Z" class="g3_184" />
<g clip-path="url(#c11_184)">
<path fill-rule="evenodd" d="M329,299l45,0l0,-24l-45,0l0,24Z" class="g3_184" />
</g>
<path fill-rule="evenodd" d="M383,300l469,0l0,-25l-469,0l0,25Z" class="g3_184" />
<g clip-path="url(#c12_184)">
<path fill-rule="evenodd" d="M390,299l454,0l0,-24l-454,0l0,24Z" class="g3_184" />
</g>
<path d="M46.5,275.5l0,-1" class="g2_184" />
<path d="M86.5,275.5l0,-1" class="g2_184" />
<path d="M88.5,275.5l232,0" class="g2_184" />
<path d="M320.5,275.5l0,-1" class="g2_184" />
<path d="M322.5,275.5l60,0" class="g2_184" />
<path d="M382.5,275.5l0,-1" class="g2_184" />
<path d="M383.5,275.5l469,0" class="g2_184" />
<path d="M852.5,275.5l0,-1" class="g2_184" />
<path d="M46.5,300.5l0,-25" class="g2_184" />
<path d="M86.5,300.5l0,-25" class="g2_184" />
<path d="M320.5,300.5l0,-25" class="g2_184" />
<path d="M382.5,300.5l0,-25" class="g2_184" />
<path d="M852.5,300.5l0,-25" class="g2_184" />
<path fill-rule="evenodd" d="M88,424l39,0l0,-123l-39,0l0,123Z" class="g3_184" />
<g clip-path="url(#c13_184)">
<path fill-rule="evenodd" d="M95,424l24,0l0,-123l-24,0l0,123Z" class="g3_184" />
</g>
<path fill-rule="evenodd" d="M129,424l39,0l0,-123l-39,0l0,123Z" class="g3_184" />
<g clip-path="url(#c14_184)">
<path fill-rule="evenodd" d="M136,424l24,0l0,-123l-24,0l0,123Z" class="g3_184" />
</g>
<path fill-rule="evenodd" d="M170,325l150,0l0,-24l-150,0l0,24Z" class="g3_184" />
<g clip-path="url(#c15_184)">
<path fill-rule="evenodd" d="M177,325l136,0l0,-24l-136,0l0,24Z" class="g3_184" />
</g>
<path fill-rule="evenodd" d="M322,325l59,0l0,-24l-59,0l0,24Z" class="g3_184" />
<g clip-path="url(#c16_184)">
<path fill-rule="evenodd" d="M329,325l45,0l0,-24l-45,0l0,24Z" class="g3_184" />
</g>
<path fill-rule="evenodd" d="M383,325l469,0l0,-24l-469,0l0,24Z" class="g3_184" />
<g clip-path="url(#c17_184)">
<path fill-rule="evenodd" d="M390,325l454,0l0,-24l-454,0l0,24Z" class="g3_184" />
</g>
<path d="M46.5,301.5l0,-1" class="g2_184" />
<path d="M86.5,301.5l0,-1" class="g2_184" />
<path d="M88.5,301.5l39,0" class="g2_184" />
<path d="M127.5,301.5l0,-1" class="g2_184" />
<path d="M129.5,301.5l39,0" class="g2_184" />
<path d="M168.5,301.5l0,-1" class="g2_184" />
<path d="M169.5,301.5l151,0" class="g2_184" />
<path d="M320.5,301.5l0,-1" class="g2_184" />
<path d="M322.5,301.5l60,0" class="g2_184" />
<path d="M382.5,301.5l0,-1" class="g2_184" />
<path d="M383.5,301.5l469,0" class="g2_184" />
<path d="M852.5,301.5l0,-1" class="g2_184" />
<path d="M46.5,325.5l0,-24" class="g2_184" />
<path d="M86.5,325.5l0,-24" class="g2_184" />
<path d="M127.5,325.5l0,-24" class="g2_184" />
<path d="M168.5,325.5l0,-24" class="g2_184" />
<path d="M320.5,325.5l0,-24" class="g2_184" />
<path d="M382.5,325.5l0,-24" class="g2_184" />
<path d="M852.5,325.5l0,-24" class="g2_184" />
<path fill-rule="evenodd" d="M170,350l150,0l0,-23l-150,0l0,23Z" class="g3_184" />
<g clip-path="url(#c18_184)">
<path fill-rule="evenodd" d="M177,350l136,0l0,-23l-136,0l0,23Z" class="g3_184" />
</g>
<path fill-rule="evenodd" d="M322,350l59,0l0,-23l-59,0l0,23Z" class="g3_184" />
<g clip-path="url(#c19_184)">
<path fill-rule="evenodd" d="M329,350l45,0l0,-23l-45,0l0,23Z" class="g3_184" />
</g>
<path fill-rule="evenodd" d="M383,350l469,0l0,-23l-469,0l0,23Z" class="g3_184" />
<g clip-path="url(#c20_184)">
<path fill-rule="evenodd" d="M390,350l454,0l0,-23l-454,0l0,23Z" class="g3_184" />
</g>
<path d="M46.5,327.5l0,-2" class="g2_184" />
<path d="M86.5,327.5l0,-2" class="g2_184" />
<path d="M127.5,327.5l0,-2" class="g2_184" />
<path d="M168.5,327.5l0,-2" class="g2_184" />
<path d="M169.5,327.5l151,0" class="g2_184" />
<path d="M320.5,327.5l0,-2" class="g2_184" />
<path d="M322.5,327.5l60,0" class="g2_184" />
<path d="M382.5,327.5l0,-2" class="g2_184" />
<path d="M383.5,327.5l469,0" class="g2_184" />
<path d="M852.5,327.5l0,-2" class="g2_184" />
<path d="M46.5,350.5l0,-23" class="g2_184" />
<path d="M86.5,350.5l0,-23" class="g2_184" />
<path d="M127.5,350.5l0,-23" class="g2_184" />
<path d="M168.5,350.5l0,-23" class="g2_184" />
<path d="M320.5,350.5l0,-23" class="g2_184" />
<path d="M382.5,350.5l0,-23" class="g2_184" />
<path d="M852.5,350.5l0,-23" class="g2_184" />
<path fill-rule="evenodd" d="M170,424l150,0l0,-72l-150,0l0,72Z" class="g3_184" />
<g clip-path="url(#c21_184)">
<path fill-rule="evenodd" d="M177,376l136,0l0,-24l-136,0l0,24Z" class="g3_184" />
</g>
<path fill-rule="evenodd" d="M322,424l59,0l0,-72l-59,0l0,72Z" class="g3_184" />
<g clip-path="url(#c22_184)">
<path fill-rule="evenodd" d="M329,376l45,0l0,-24l-45,0l0,24Z" class="g3_184" />
</g>
<path fill-rule="evenodd" d="M383,424l469,0l0,-72l-469,0l0,72Z" class="g3_184" />
<g clip-path="url(#c23_184)">
<path fill-rule="evenodd" d="M390,376l454,0l0,-24l-454,0l0,24Z" class="g3_184" />
</g>
<path fill-rule="evenodd" d="M390,400l454,0l0,-24l-454,0l0,24Z" class="g3_184" />
<path fill-rule="evenodd" d="M390,424l454,0l0,-24l-454,0l0,24Z" class="g3_184" />
<path d="M46.5,352.5l0,-2" class="g2_184" />
<path d="M86.5,352.5l0,-2" class="g2_184" />
<path d="M127.5,352.5l0,-2" class="g2_184" />
<path d="M168.5,352.5l0,-2" class="g2_184" />
<path d="M169.5,352.5l151,0" class="g2_184" />
<path d="M320.5,352.5l0,-2" class="g2_184" />
<path d="M322.5,352.5l60,0" class="g2_184" />
<path d="M382.5,352.5l0,-2" class="g2_184" />
<path d="M383.5,352.5l469,0" class="g2_184" />
<path d="M852.5,352.5l0,-2" class="g2_184" />
<path d="M46.5,424.5l0,-72" class="g2_184" />
<path d="M46.5,425.5l0,-1" class="g2_184" />
<path d="M46.5,425.5l0,-1" class="g2_184" />
<path d="M47.5,425.5l39,0" class="g2_184" />
<path d="M86.5,424.5l0,-72" class="g2_184" />
<path d="M86.5,425.5l0,-1" class="g2_184" />
<path d="M88.5,425.5l39,0" class="g2_184" />
<path d="M127.5,424.5l0,-72" class="g2_184" />
<path d="M127.5,425.5l0,-1" class="g2_184" />
<path d="M129.5,425.5l39,0" class="g2_184" />
<path d="M168.5,424.5l0,-72" class="g2_184" />
<path d="M168.5,425.5l0,-1" class="g2_184" />
<path d="M169.5,425.5l151,0" class="g2_184" />
<path d="M320.5,424.5l0,-72" class="g2_184" />
<path d="M320.5,425.5l0,-1" class="g2_184" />
<path d="M322.5,425.5l60,0" class="g2_184" />
<path d="M382.5,424.5l0,-72" class="g2_184" />
<path d="M382.5,425.5l0,-1" class="g2_184" />
<path d="M383.5,425.5l469,0" class="g2_184" />
<path d="M852.5,424.5l0,-72" class="g2_184" />
<path d="M852.5,425.5l0,-1" class="g2_184" />
<path d="M852.5,425.5l0,-1" class="g2_184" />
<path fill-rule="evenodd" d="M47,546l840,0l0,-24L47,522l0,24Z" class="g3_184" />
<path fill-rule="evenodd" d="M55,546l825,0l0,-24L55,522l0,24Z" class="g3_184" />
<path d="M46.5,522.5l0,-2" class="g2_184" />
<path d="M46.5,522.5l0,-2" class="g2_184" />
<path d="M47.5,522.5l840,0" class="g2_184" />
<path d="M887.5,522.5l0,-2" class="g2_184" />
<path d="M887.5,522.5l0,-2" class="g2_184" />
<path d="M46.5,546.5l0,-24" class="g2_184" />
<path d="M46.5,547.5l0,-1" class="g2_184" />
<path d="M46.5,547.5l0,-1" class="g2_184" />
<path d="M47.5,547.5l840,0" class="g2_184" />
<path d="M887.5,546.5l0,-24" class="g2_184" />
<path d="M887.5,547.5l0,-1" class="g2_184" />
<path d="M887.5,547.5l0,-1" class="g2_184" />
<path fill-rule="evenodd" d="M47,906l840,0l0,-333L47,573l0,333Z" class="g3_184" />
<g clip-path="url(#c24_184)">
<path fill-rule="evenodd" d="M55,597l825,0l0,-24L55,573l0,24Z" class="g3_184" />
</g>
<path fill-rule="evenodd" d="M55,620l825,0l0,-23L55,597l0,23Z" class="g3_184" />
<path fill-rule="evenodd" d="M55,644l825,0l0,-24L55,620l0,24Z" class="g3_184" />
<path fill-rule="evenodd" d="M55,668l825,0l0,-24L55,644l0,24Z" class="g3_184" />
<path fill-rule="evenodd" d="M55,692l825,0l0,-24L55,668l0,24Z" class="g3_184" />
<path fill-rule="evenodd" d="M55,716l825,0l0,-24L55,692l0,24Z" class="g3_184" />
<path fill-rule="evenodd" d="M55,740l825,0l0,-24L55,716l0,24Z" class="g3_184" />
<path fill-rule="evenodd" d="M55,763l825,0l0,-23L55,740l0,23Z" class="g3_184" />
<path fill-rule="evenodd" d="M55,787l825,0l0,-24L55,763l0,24Z" class="g3_184" />
<path fill-rule="evenodd" d="M55,811l825,0l0,-24L55,787l0,24Z" class="g3_184" />
<path fill-rule="evenodd" d="M55,835l825,0l0,-24L55,811l0,24Z" class="g3_184" />
<path fill-rule="evenodd" d="M55,859l825,0l0,-24L55,835l0,24Z" class="g3_184" />
<path fill-rule="evenodd" d="M55,883l825,0l0,-24L55,859l0,24Z" class="g3_184" />
<path fill-rule="evenodd" d="M55,906l825,0l0,-23L55,883l0,23Z" class="g3_184" />
<path d="M46.5,573.5l0,-2" class="g2_184" />
<path d="M46.5,573.5l0,-2" class="g2_184" />
<path d="M47.5,573.5l840,0" class="g2_184" />
<path d="M887.5,573.5l0,-2" class="g2_184" />
<path d="M887.5,573.5l0,-2" class="g2_184" />
<path d="M46.5,906.5l0,-333" class="g2_184" />
<path d="M46.5,908.5l0,-2" class="g2_184" />
<path d="M46.5,908.5l0,-2" class="g2_184" />
<path d="M47.5,908.5l840,0" class="g2_184" />
<path d="M887.5,906.5l0,-333" class="g2_184" />
<path d="M887.5,908.5l0,-2" class="g2_184" />
<path d="M887.5,908.5l0,-2" class="g2_184" />
<path fill-rule="evenodd" d="M47,1076l840,0l0,-95L47,981l0,95Z" class="g3_184" />
<path fill-rule="evenodd" d="M55,1005l825,0l0,-24L55,981l0,24Z" class="g3_184" />
<path fill-rule="evenodd" d="M55,1029l825,0l0,-24l-825,0l0,24Z" class="g3_184" />
<path fill-rule="evenodd" d="M55,1053l825,0l0,-24l-825,0l0,24Z" class="g3_184" />
<g clip-path="url(#c25_184)">
<path fill-rule="evenodd" d="M55,1076l825,0l0,-23l-825,0l0,23Z" class="g3_184" />
</g>
<path d="M46.5,981.5l0,-2" class="g2_184" />
<path d="M46.5,981.5l0,-2" class="g2_184" />
<path d="M47.5,981.5l840,0" class="g2_184" />
<path d="M887.5,981.5l0,-2" class="g2_184" />
<path d="M887.5,981.5l0,-2" class="g2_184" />
<path d="M46.5,1076.5l0,-95" class="g2_184" />
<path d="M46.5,1078.5l0,-2" class="g2_184" />
<path d="M46.5,1078.5l0,-2" class="g2_184" />
<path d="M47.5,1078.5l840,0" class="g2_184" />
<path d="M887.5,1076.5l0,-95" class="g2_184" />
<path d="M887.5,1078.5l0,-2" class="g2_184" />
<path d="M887.5,1078.5l0,-2" class="g2_184" />
</svg>