<?xml version="1.0" encoding="UTF-8" standalone="no"?>
<!DOCTYPE svg PUBLIC "-//W3C//DTD SVG 1.1//EN"
"http://www.w3.org/Graphics/SVG/1.1/DTD/svg11.dtd">
<svg version="1.1" xmlns="http://www.w3.org/2000/svg" xmlns:xlink="http://www.w3.org/1999/xlink">
<defs>
<clipPath id="c0_47"><path d="M47.5,206.5l0,-23l840,0l0,23Z" /></clipPath>
<clipPath id="c1_47"><path d="M47.5,472.5l0,-239l840,0l0,239Z" /></clipPath>
<clipPath id="c2_47"><path d="M47.5,785.5l0,-239l840,0l0,239Z" /></clipPath>
<clipPath id="c3_47"><path d="M47.5,920.5l0,-24l430,0l0,24Z" /></clipPath>
<clipPath id="c4_47"><path d="M479.5,920.5l0,-24l91,0l0,24Z" /></clipPath>
<clipPath id="c5_47"><path d="M571.5,920.5l0,-24l316,0l0,24Z" /></clipPath>
<clipPath id="c6_47"><path d="M47.5,1095.5l0,-173l63,0l0,173Z" /></clipPath>
<clipPath id="c7_47"><path d="M111.5,945.5l0,-23l366,0l0,23Z" /></clipPath>
<clipPath id="c8_47"><path d="M479.5,945.5l0,-23l91,0l0,23Z" /></clipPath>
<clipPath id="c9_47"><path d="M571.5,945.5l0,-23l316,0l0,23Z" /></clipPath>
<clipPath id="c10_47"><path d="M111.5,971.5l0,-24l366,0l0,24Z" /></clipPath>
<clipPath id="c11_47"><path d="M479.5,971.5l0,-24l91,0l0,24Z" /></clipPath>
<clipPath id="c12_47"><path d="M571.5,971.5l0,-24l316,0l0,24Z" /></clipPath>
<clipPath id="c13_47"><path d="M111.5,996.5l0,-24l366,0l0,24Z" /></clipPath>
<clipPath id="c14_47"><path d="M479.5,996.5l0,-24l91,0l0,24Z" /></clipPath>
<clipPath id="c15_47"><path d="M571.5,996.5l0,-24l316,0l0,24Z" /></clipPath>
<clipPath id="c16_47"><path d="M111.5,1022.5l0,-24l366,0l0,24Z" /></clipPath>
<clipPath id="c17_47"><path d="M479.5,1022.5l0,-24l91,0l0,24Z" /></clipPath>
<clipPath id="c18_47"><path d="M571.5,1022.5l0,-24l316,0l0,24Z" /></clipPath>
<clipPath id="c19_47"><path d="M571.5,1095.5l0,-72l316,0l0,72Z" /></clipPath>
<style type="text/css"><![CDATA[
.g2_47{
fill: none;
stroke: #7E7E7E;
stroke-width: 1;
stroke-linecap: butt;
stroke-linejoin: miter;
}
.g3_47{
fill: #DBE5F1;
}
.g1_47{
fill: #F1F1F1;
}
]]></style>
</defs>
<path fill-rule="evenodd" d="M47,206l840,0l0,-24L47,182l0,24Z" class="g1_47" />
<g clip-path="url(#c0_47)">
<path fill-rule="evenodd" d="M55,206l825,0l0,-24L55,182l0,24Z" class="g1_47" />
</g>
<path d="M46.5,182.5l0,-1" class="g2_47" />
<path d="M46.5,182.5l0,-1" class="g2_47" />
<path d="M47.5,182.5l840,0" class="g2_47" />
<path d="M887.5,182.5l0,-1" class="g2_47" />
<path d="M887.5,182.5l0,-1" class="g2_47" />
<path d="M46.5,207.5l0,-25" class="g2_47" />
<path d="M46.5,208.5l0,-1" class="g2_47" />
<path d="M46.5,208.5l0,-1" class="g2_47" />
<path d="M47.5,208.5l840,0" class="g2_47" />
<path d="M887.5,207.5l0,-25" class="g2_47" />
<path d="M887.5,208.5l0,-1" class="g2_47" />
<path d="M887.5,208.5l0,-1" class="g2_47" />
<path fill-rule="evenodd" d="M47,472l840,0l0,-239L47,233l0,239Z" class="g1_47" />
<g clip-path="url(#c1_47)">
<path fill-rule="evenodd" d="M55,257l825,0l0,-24L55,233l0,24Z" class="g1_47" />
</g>
<path fill-rule="evenodd" d="M55,281l825,0l0,-24L55,257l0,24Z" class="g1_47" />
<path fill-rule="evenodd" d="M55,305l825,0l0,-24L55,281l0,24Z" class="g1_47" />
<path fill-rule="evenodd" d="M55,329l825,0l0,-24L55,305l0,24Z" class="g1_47" />
<path fill-rule="evenodd" d="M55,352l825,0l0,-23L55,329l0,23Z" class="g1_47" />
<path fill-rule="evenodd" d="M55,376l825,0l0,-24L55,352l0,24Z" class="g1_47" />
<path fill-rule="evenodd" d="M55,400l825,0l0,-24L55,376l0,24Z" class="g1_47" />
<path fill-rule="evenodd" d="M55,424l825,0l0,-24L55,400l0,24Z" class="g1_47" />
<path fill-rule="evenodd" d="M55,448l825,0l0,-24L55,424l0,24Z" class="g1_47" />
<path fill-rule="evenodd" d="M55,472l825,0l0,-24L55,448l0,24Z" class="g1_47" />
<path d="M46.5,233.5l0,-1" class="g2_47" />
<path d="M46.5,233.5l0,-1" class="g2_47" />
<path d="M47.5,233.5l840,0" class="g2_47" />
<path d="M887.5,233.5l0,-1" class="g2_47" />
<path d="M887.5,233.5l0,-1" class="g2_47" />
<path d="M46.5,472.5l0,-239" class="g2_47" />
<path d="M46.5,473.5l0,-1" class="g2_47" />
<path d="M46.5,473.5l0,-1" class="g2_47" />
<path d="M47.5,473.5l840,0" class="g2_47" />
<path d="M887.5,472.5l0,-239" class="g2_47" />
<path d="M887.5,473.5l0,-1" class="g2_47" />
<path d="M887.5,473.5l0,-1" class="g2_47" />
<path fill-rule="evenodd" d="M47,785l840,0l0,-239L47,546l0,239Z" class="g1_47" />
<g clip-path="url(#c2_47)">
<path fill-rule="evenodd" d="M55,570l825,0l0,-24L55,546l0,24Z" class="g1_47" />
</g>
<path fill-rule="evenodd" d="M55,594l825,0l0,-24L55,570l0,24Z" class="g1_47" />
<path fill-rule="evenodd" d="M55,618l825,0l0,-24L55,594l0,24Z" class="g1_47" />
<path fill-rule="evenodd" d="M55,642l825,0l0,-24L55,618l0,24Z" class="g1_47" />
<path fill-rule="evenodd" d="M55,665l825,0l0,-23L55,642l0,23Z" class="g1_47" />
<path fill-rule="evenodd" d="M55,689l825,0l0,-24L55,665l0,24Z" class="g1_47" />
<path fill-rule="evenodd" d="M55,713l825,0l0,-24L55,689l0,24Z" class="g1_47" />
<path fill-rule="evenodd" d="M55,737l825,0l0,-24L55,713l0,24Z" class="g1_47" />
<path fill-rule="evenodd" d="M55,761l825,0l0,-24L55,737l0,24Z" class="g1_47" />
<path fill-rule="evenodd" d="M55,785l825,0l0,-24L55,761l0,24Z" class="g1_47" />
<path d="M46.5,546.5l0,-1" class="g2_47" />
<path d="M46.5,546.5l0,-1" class="g2_47" />
<path d="M47.5,546.5l840,0" class="g2_47" />
<path d="M887.5,546.5l0,-1" class="g2_47" />
<path d="M887.5,546.5l0,-1" class="g2_47" />
<path d="M46.5,785.5l0,-239" class="g2_47" />
<path d="M46.5,786.5l0,-1" class="g2_47" />
<path d="M46.5,786.5l0,-1" class="g2_47" />
<path d="M47.5,786.5l840,0" class="g2_47" />
<path d="M887.5,785.5l0,-239" class="g2_47" />
<path d="M887.5,786.5l0,-1" class="g2_47" />
<path d="M887.5,786.5l0,-1" class="g2_47" />
<path fill-rule="evenodd" d="M47,920l430,0l0,-24L47,896l0,24Z" class="g3_47" />
<g clip-path="url(#c3_47)">
<path fill-rule="evenodd" d="M55,920l415,0l0,-24L55,896l0,24Z" class="g3_47" />
</g>
<path fill-rule="evenodd" d="M479,920l91,0l0,-24l-91,0l0,24Z" class="g3_47" />
<g clip-path="url(#c4_47)">
<path fill-rule="evenodd" d="M486,920l76,0l0,-24l-76,0l0,24Z" class="g3_47" />
</g>
<path fill-rule="evenodd" d="M571,920l316,0l0,-24l-316,0l0,24Z" class="g3_47" />
<g clip-path="url(#c5_47)">
<path fill-rule="evenodd" d="M579,920l301,0l0,-24l-301,0l0,24Z" class="g3_47" />
</g>
<path d="M46.5,896.5l0,-1" class="g2_47" />
<path d="M46.5,896.5l0,-1" class="g2_47" />
<path d="M47.5,896.5l430,0" class="g2_47" />
<path d="M477.5,896.5l0,-1" class="g2_47" />
<path d="M479.5,896.5l91,0" class="g2_47" />
<path d="M570.5,896.5l0,-1" class="g2_47" />
<path d="M571.5,896.5l316,0" class="g2_47" />
<path d="M887.5,896.5l0,-1" class="g2_47" />
<path d="M887.5,896.5l0,-1" class="g2_47" />
<path d="M46.5,920.5l0,-24" class="g2_47" />
<path d="M477.5,920.5l0,-24" class="g2_47" />
<path d="M570.5,920.5l0,-24" class="g2_47" />
<path d="M887.5,920.5l0,-24" class="g2_47" />
<path fill-rule="evenodd" d="M47,1095l63,0l0,-173l-63,0l0,173Z" class="g1_47" />
<g clip-path="url(#c6_47)">
<path fill-rule="evenodd" d="M55,1095l23,0L78,922l-23,0l0,173Z" class="g1_47" />
</g>
<path fill-rule="evenodd" d="M111,945l366,0l0,-23l-366,0l0,23Z" class="g1_47" />
<g clip-path="url(#c7_47)">
<path fill-rule="evenodd" d="M119,945l351,0l0,-23l-351,0l0,23Z" class="g1_47" />
</g>
<path fill-rule="evenodd" d="M479,945l91,0l0,-23l-91,0l0,23Z" class="g1_47" />
<g clip-path="url(#c8_47)">
<path fill-rule="evenodd" d="M486,945l76,0l0,-23l-76,0l0,23Z" class="g1_47" />
</g>
<path fill-rule="evenodd" d="M571,945l316,0l0,-23l-316,0l0,23Z" class="g1_47" />
<g clip-path="url(#c9_47)">
<path fill-rule="evenodd" d="M579,945l301,0l0,-23l-301,0l0,23Z" class="g1_47" />
</g>
<path d="M46.5,922.5l0,-2" class="g2_47" />
<path d="M47.5,922.5l63,0" class="g2_47" />
<path d="M110.5,922.5l0,-2" class="g2_47" />
<path d="M111.5,922.5l366,0" class="g2_47" />
<path d="M477.5,922.5l0,-2" class="g2_47" />
<path d="M479.5,922.5l91,0" class="g2_47" />
<path d="M570.5,922.5l0,-2" class="g2_47" />
<path d="M571.5,922.5l316,0" class="g2_47" />
<path d="M887.5,922.5l0,-2" class="g2_47" />
<path d="M46.5,945.5l0,-23" class="g2_47" />
<path d="M110.5,945.5l0,-23" class="g2_47" />
<path d="M477.5,945.5l0,-23" class="g2_47" />
<path d="M570.5,945.5l0,-23" class="g2_47" />
<path d="M887.5,945.5l0,-23" class="g2_47" />
<path fill-rule="evenodd" d="M111,971l366,0l0,-24l-366,0l0,24Z" class="g1_47" />
<g clip-path="url(#c10_47)">
<path fill-rule="evenodd" d="M119,971l351,0l0,-24l-351,0l0,24Z" class="g1_47" />
</g>
<path fill-rule="evenodd" d="M479,971l91,0l0,-24l-91,0l0,24Z" class="g1_47" />
<g clip-path="url(#c11_47)">
<path fill-rule="evenodd" d="M486,971l76,0l0,-24l-76,0l0,24Z" class="g1_47" />
</g>
<path fill-rule="evenodd" d="M571,971l316,0l0,-24l-316,0l0,24Z" class="g1_47" />
<g clip-path="url(#c12_47)">
<path fill-rule="evenodd" d="M579,971l301,0l0,-24l-301,0l0,24Z" class="g1_47" />
</g>
<path d="M46.5,947.5l0,-2" class="g2_47" />
<path d="M110.5,947.5l0,-2" class="g2_47" />
<path d="M111.5,947.5l366,0" class="g2_47" />
<path d="M477.5,947.5l0,-2" class="g2_47" />
<path d="M479.5,947.5l91,0" class="g2_47" />
<path d="M570.5,947.5l0,-2" class="g2_47" />
<path d="M571.5,947.5l316,0" class="g2_47" />
<path d="M887.5,947.5l0,-2" class="g2_47" />
<path d="M46.5,971.5l0,-24" class="g2_47" />
<path d="M110.5,971.5l0,-24" class="g2_47" />
<path d="M477.5,971.5l0,-24" class="g2_47" />
<path d="M570.5,971.5l0,-24" class="g2_47" />
<path d="M887.5,971.5l0,-24" class="g2_47" />
<path fill-rule="evenodd" d="M111,996l366,0l0,-24l-366,0l0,24Z" class="g1_47" />
<g clip-path="url(#c13_47)">
<path fill-rule="evenodd" d="M119,996l351,0l0,-24l-351,0l0,24Z" class="g1_47" />
</g>
<path fill-rule="evenodd" d="M479,996l91,0l0,-24l-91,0l0,24Z" class="g1_47" />
<g clip-path="url(#c14_47)">
<path fill-rule="evenodd" d="M486,996l76,0l0,-24l-76,0l0,24Z" class="g1_47" />
</g>
<path fill-rule="evenodd" d="M571,996l316,0l0,-24l-316,0l0,24Z" class="g1_47" />
<g clip-path="url(#c15_47)">
<path fill-rule="evenodd" d="M579,996l301,0l0,-24l-301,0l0,24Z" class="g1_47" />
</g>
<path d="M46.5,972.5l0,-1" class="g2_47" />
<path d="M110.5,972.5l0,-1" class="g2_47" />
<path d="M111.5,972.5l366,0" class="g2_47" />
<path d="M477.5,972.5l0,-1" class="g2_47" />
<path d="M479.5,972.5l91,0" class="g2_47" />
<path d="M570.5,972.5l0,-1" class="g2_47" />
<path d="M571.5,972.5l316,0" class="g2_47" />
<path d="M887.5,972.5l0,-1" class="g2_47" />
<path d="M46.5,996.5l0,-24" class="g2_47" />
<path d="M110.5,996.5l0,-24" class="g2_47" />
<path d="M477.5,996.5l0,-24" class="g2_47" />
<path d="M570.5,996.5l0,-24" class="g2_47" />
<path d="M887.5,996.5l0,-24" class="g2_47" />
<path fill-rule="evenodd" d="M111,1022l366,0l0,-24l-366,0l0,24Z" class="g1_47" />
<g clip-path="url(#c16_47)">
<path fill-rule="evenodd" d="M119,1022l351,0l0,-24l-351,0l0,24Z" class="g1_47" />
</g>
<path fill-rule="evenodd" d="M479,1022l91,0l0,-24l-91,0l0,24Z" class="g1_47" />
<g clip-path="url(#c17_47)">
<path fill-rule="evenodd" d="M486,1022l76,0l0,-24l-76,0l0,24Z" class="g1_47" />
</g>
<path fill-rule="evenodd" d="M571,1022l316,0l0,-24l-316,0l0,24Z" class="g1_47" />
<g clip-path="url(#c18_47)">
<path fill-rule="evenodd" d="M579,1022l301,0l0,-24l-301,0l0,24Z" class="g1_47" />
</g>
<path d="M46.5,998.5l0,-2" class="g2_47" />
<path d="M110.5,998.5l0,-2" class="g2_47" />
<path d="M111.5,998.5l366,0" class="g2_47" />
<path d="M477.5,998.5l0,-2" class="g2_47" />
<path d="M479.5,998.5l91,0" class="g2_47" />
<path d="M570.5,998.5l0,-2" class="g2_47" />
<path d="M571.5,998.5l316,0" class="g2_47" />
<path d="M887.5,998.5l0,-2" class="g2_47" />
<path d="M46.5,1022.5l0,-24" class="g2_47" />
<path d="M110.5,1022.5l0,-24" class="g2_47" />
<path d="M477.5,1022.5l0,-24" class="g2_47" />
<path d="M570.5,1022.5l0,-24" class="g2_47" />
<path d="M887.5,1022.5l0,-24" class="g2_47" />
<path fill-rule="evenodd" d="M111,1095l366,0l0,-72l-366,0l0,72Z" class="g1_47" />
<path fill-rule="evenodd" d="M119,1047l351,0l0,-24l-351,0l0,24Z" class="g1_47" />
<path fill-rule="evenodd" d="M479,1095l91,0l0,-72l-91,0l0,72Z" class="g1_47" />
<path fill-rule="evenodd" d="M486,1047l76,0l0,-24l-76,0l0,24Z" class="g1_47" />
<path fill-rule="evenodd" d="M571,1095l316,0l0,-72l-316,0l0,72Z" class="g1_47" />
<path fill-rule="evenodd" d="M579,1047l301,0l0,-24l-301,0l0,24Z" class="g1_47" />
<path fill-rule="evenodd" d="M579,1071l301,0l0,-24l-301,0l0,24Z" class="g1_47" />
<g clip-path="url(#c19_47)">
<path fill-rule="evenodd" d="M579,1095l301,0l0,-24l-301,0l0,24Z" class="g1_47" />
</g>
<path d="M46.5,1023.5l0,-1" class="g2_47" />
<path d="M110.5,1023.5l0,-1" class="g2_47" />
<path d="M111.5,1023.5l366,0" class="g2_47" />
<path d="M477.5,1023.5l0,-1" class="g2_47" />
<path d="M479.5,1023.5l91,0" class="g2_47" />
<path d="M570.5,1023.5l0,-1" class="g2_47" />
<path d="M571.5,1023.5l316,0" class="g2_47" />
<path d="M887.5,1023.5l0,-1" class="g2_47" />
<path d="M46.5,1095.5l0,-72" class="g2_47" />
<path d="M46.5,1096.5l0,-1" class="g2_47" />
<path d="M46.5,1096.5l0,-1" class="g2_47" />
<path d="M47.5,1096.5l63,0" class="g2_47" />
<path d="M110.5,1095.5l0,-72" class="g2_47" />
<path d="M110.5,1096.5l0,-1" class="g2_47" />
<path d="M111.5,1096.5l366,0" class="g2_47" />
<path d="M477.5,1095.5l0,-72" class="g2_47" />
<path d="M477.5,1096.5l0,-1" class="g2_47" />
<path d="M479.5,1096.5l91,0" class="g2_47" />
<path d="M570.5,1095.5l0,-72" class="g2_47" />
<path d="M570.5,1096.5l0,-1" class="g2_47" />
<path d="M571.5,1096.5l316,0" class="g2_47" />
<path d="M887.5,1095.5l0,-72" class="g2_47" />
<path d="M887.5,1096.5l0,-1" class="g2_47" />
<path d="M887.5,1096.5l0,-1" class="g2_47" />
</svg>