<?xml version="1.0" encoding="UTF-8" standalone="no"?>
<!DOCTYPE svg PUBLIC "-//W3C//DTD SVG 1.1//EN"
"http://www.w3.org/Graphics/SVG/1.1/DTD/svg11.dtd">
<svg version="1.1" xmlns="http://www.w3.org/2000/svg" xmlns:xlink="http://www.w3.org/1999/xlink">
<defs>
<clipPath id="c0_50"><path d="M47.5,340.5l0,-181l840,0l0,181Z" /></clipPath>
<clipPath id="c1_50"><path d="M47.5,828.5l0,-24l840,0l0,24Z" /></clipPath>
<clipPath id="c2_50"><path d="M47.5,935.5l0,-23l179,0l0,23Z" /></clipPath>
<clipPath id="c3_50"><path d="M227.5,935.5l0,-23l163,0l0,23Z" /></clipPath>
<clipPath id="c4_50"><path d="M392.5,935.5l0,-23l495,0l0,23Z" /></clipPath>
<clipPath id="c5_50"><path d="M47.5,961.5l0,-24l179,0l0,24Z" /></clipPath>
<clipPath id="c6_50"><path d="M227.5,961.5l0,-24l163,0l0,24Z" /></clipPath>
<clipPath id="c7_50"><path d="M392.5,961.5l0,-24l495,0l0,24Z" /></clipPath>
<clipPath id="c8_50"><path d="M47.5,986.5l0,-24l179,0l0,24Z" /></clipPath>
<clipPath id="c9_50"><path d="M227.5,986.5l0,-24l163,0l0,24Z" /></clipPath>
<clipPath id="c10_50"><path d="M392.5,986.5l0,-24l495,0l0,24Z" /></clipPath>
<clipPath id="c11_50"><path d="M47.5,1061.5l0,-24l178,0l0,24Z" /></clipPath>
<clipPath id="c12_50"><path d="M227.5,1061.5l0,-24l163,0l0,24Z" /></clipPath>
<clipPath id="c13_50"><path d="M392.5,1061.5l0,-24l164,0l0,24Z" /></clipPath>
<clipPath id="c14_50"><path d="M558.5,1061.5l0,-24l163,0l0,24Z" /></clipPath>
<clipPath id="c15_50"><path d="M723.5,1061.5l0,-24l164,0l0,24Z" /></clipPath>
<clipPath id="c16_50"><path d="M47.5,1086.5l0,-24l178,0l0,24Z" /></clipPath>
<clipPath id="c17_50"><path d="M227.5,1086.5l0,-24l163,0l0,24Z" /></clipPath>
<clipPath id="c18_50"><path d="M392.5,1086.5l0,-24l164,0l0,24Z" /></clipPath>
<clipPath id="c19_50"><path d="M558.5,1086.5l0,-24l163,0l0,24Z" /></clipPath>
<clipPath id="c20_50"><path d="M723.5,1086.5l0,-24l164,0l0,24Z" /></clipPath>
<style type="text/css"><![CDATA[
.g2_50{
fill: none;
stroke: #F0F0E0;
stroke-width: 1;
stroke-linecap: butt;
stroke-linejoin: miter;
}
.g3_50{
fill: none;
stroke: #7E7E7E;
stroke-width: 1;
stroke-linecap: butt;
stroke-linejoin: miter;
}
.g4_50{
fill: #0000FF;
}
.g5_50{
fill: #DBE5F1;
}
.g1_50{
fill: #F1F1F1;
}
]]></style>
</defs>
<path fill-rule="evenodd" d="M47,340l840,0l0,-181L47,159l0,181Z" class="g1_50" />
<g clip-path="url(#c0_50)">
<path fill-rule="evenodd" d="M55,190l825,0l0,-31L55,159l0,31Z" class="g1_50" />
<path d="M45.5,160.5l0,-1" class="g2_50" />
<path d="M45.5,160.5l0,-1" class="g2_50" />
<path d="M46.5,160.5l842,0" class="g2_50" />
<path d="M888.5,160.5l0,-1" class="g2_50" />
<path d="M888.5,160.5l0,-1" class="g2_50" />
<path d="M45.5,190.5l0,-30" class="g2_50" />
<path d="M888.5,190.5l0,-30" class="g2_50" />
</g>
<path fill-rule="evenodd" d="M55,214l825,0l0,-24L55,190l0,24Z" class="g1_50" />
<g clip-path="url(#c0_50)">
<path d="M45.5,214.5l0,-24" class="g2_50" />
<path d="M888.5,214.5l0,-24" class="g2_50" />
</g>
<path fill-rule="evenodd" d="M55,237l825,0l0,-23L55,214l0,23Z" class="g1_50" />
<g clip-path="url(#c0_50)">
<path d="M45.5,237.5l0,-23" class="g2_50" />
<path d="M888.5,237.5l0,-23" class="g2_50" />
</g>
<path fill-rule="evenodd" d="M55,261l825,0l0,-24L55,237l0,24Z" class="g1_50" />
<g clip-path="url(#c0_50)">
<path d="M45.5,261.5l0,-24" class="g2_50" />
<path d="M888.5,261.5l0,-24" class="g2_50" />
</g>
<path fill-rule="evenodd" d="M55,285l825,0l0,-24L55,261l0,24Z" class="g1_50" />
<g clip-path="url(#c0_50)">
<path d="M45.5,285.5l0,-24" class="g2_50" />
<path d="M888.5,285.5l0,-24" class="g2_50" />
</g>
<path fill-rule="evenodd" d="M55,309l825,0l0,-24L55,285l0,24Z" class="g1_50" />
<g clip-path="url(#c0_50)">
<path d="M45.5,309.5l0,-24" class="g2_50" />
<path d="M888.5,309.5l0,-24" class="g2_50" />
</g>
<path fill-rule="evenodd" d="M55,340l825,0l0,-31L55,309l0,31Z" class="g1_50" />
<g clip-path="url(#c0_50)">
<path d="M45.5,340.5l0,-1" class="g2_50" />
<path d="M45.5,340.5l0,-1" class="g2_50" />
<path d="M46.5,340.5l842,0" class="g2_50" />
<path d="M888.5,340.5l0,-1" class="g2_50" />
<path d="M888.5,340.5l0,-1" class="g2_50" />
<path d="M45.5,339.5l0,-30" class="g2_50" />
<path d="M888.5,339.5l0,-30" class="g2_50" />
</g>
<path d="M46.5,159.5l0,-2" class="g3_50" />
<path d="M46.5,159.5l0,-2" class="g3_50" />
<path d="M47.5,159.5l840,0" class="g3_50" />
<path d="M887.5,159.5l0,-2" class="g3_50" />
<path d="M887.5,159.5l0,-2" class="g3_50" />
<path d="M46.5,340.5l0,-181" class="g3_50" />
<path d="M46.5,342.5l0,-2" class="g3_50" />
<path d="M46.5,342.5l0,-2" class="g3_50" />
<path d="M47.5,342.5l840,0" class="g3_50" />
<path d="M887.5,340.5l0,-181" class="g3_50" />
<path d="M887.5,342.5l0,-2" class="g3_50" />
<path d="M887.5,342.5l0,-2" class="g3_50" />
<path fill-rule="evenodd" d="M47,510l840,0l0,-95L47,415l0,95Z" class="g1_50" />
<path fill-rule="evenodd" d="M55,438l825,0l0,-23L55,415l0,23Z" class="g1_50" />
<path fill-rule="evenodd" d="M55,462l825,0l0,-24L55,438l0,24Z" class="g1_50" />
<path fill-rule="evenodd" d="M55,486l825,0l0,-24L55,462l0,24Z" class="g1_50" />
<path fill-rule="evenodd" d="M55,510l825,0l0,-24L55,486l0,24Z" class="g1_50" />
<path d="M46.5,415.5l0,-2" class="g3_50" />
<path d="M46.5,415.5l0,-2" class="g3_50" />
<path d="M47.5,415.5l840,0" class="g3_50" />
<path d="M887.5,415.5l0,-2" class="g3_50" />
<path d="M887.5,415.5l0,-2" class="g3_50" />
<path d="M46.5,510.5l0,-95" class="g3_50" />
<path d="M46.5,511.5l0,-1" class="g3_50" />
<path d="M46.5,511.5l0,-1" class="g3_50" />
<path d="M47.5,511.5l840,0" class="g3_50" />
<path d="M887.5,510.5l0,-95" class="g3_50" />
<path d="M887.5,511.5l0,-1" class="g3_50" />
<path d="M887.5,511.5l0,-1" class="g3_50" />
<path fill-rule="evenodd" d="M244,691l343,0l0,-2l-343,0l0,2Z" class="g4_50" />
<path fill-rule="evenodd" d="M47,828l840,0l0,-24L47,804l0,24Z" class="g1_50" />
<g clip-path="url(#c1_50)">
<path fill-rule="evenodd" d="M55,828l825,0l0,-24L55,804l0,24Z" class="g1_50" />
</g>
<path d="M46.5,804.5l0,-1" class="g3_50" />
<path d="M46.5,804.5l0,-1" class="g3_50" />
<path d="M47.5,804.5l840,0" class="g3_50" />
<path d="M887.5,804.5l0,-1" class="g3_50" />
<path d="M887.5,804.5l0,-1" class="g3_50" />
<path d="M46.5,828.5l0,-24" class="g3_50" />
<path d="M46.5,830.5l0,-2" class="g3_50" />
<path d="M46.5,830.5l0,-2" class="g3_50" />
<path d="M47.5,830.5l840,0" class="g3_50" />
<path d="M887.5,828.5l0,-24" class="g3_50" />
<path d="M887.5,830.5l0,-2" class="g3_50" />
<path d="M887.5,830.5l0,-2" class="g3_50" />
<path fill-rule="evenodd" d="M47,935l179,0l0,-23L47,912l0,23Z" class="g5_50" />
<g clip-path="url(#c2_50)">
<path fill-rule="evenodd" d="M55,935l163,0l0,-23L55,912l0,23Z" class="g5_50" />
</g>
<path fill-rule="evenodd" d="M227,935l163,0l0,-23l-163,0l0,23Z" class="g5_50" />
<g clip-path="url(#c3_50)">
<path fill-rule="evenodd" d="M235,935l148,0l0,-23l-148,0l0,23Z" class="g5_50" />
</g>
<path fill-rule="evenodd" d="M392,935l495,0l0,-23l-495,0l0,23Z" class="g5_50" />
<g clip-path="url(#c4_50)">
<path fill-rule="evenodd" d="M400,935l480,0l0,-23l-480,0l0,23Z" class="g5_50" />
</g>
<path d="M46.5,911.5l0,-1" class="g3_50" />
<path d="M46.5,911.5l0,-1" class="g3_50" />
<path d="M47.5,911.5l179,0" class="g3_50" />
<path d="M226.5,911.5l0,-1" class="g3_50" />
<path d="M227.5,911.5l164,0" class="g3_50" />
<path d="M391.5,911.5l0,-1" class="g3_50" />
<path d="M392.5,911.5l495,0" class="g3_50" />
<path d="M887.5,911.5l0,-1" class="g3_50" />
<path d="M887.5,911.5l0,-1" class="g3_50" />
<path d="M46.5,935.5l0,-24" class="g3_50" />
<path d="M226.5,935.5l0,-24" class="g3_50" />
<path d="M391.5,935.5l0,-24" class="g3_50" />
<path d="M887.5,935.5l0,-24" class="g3_50" />
<path fill-rule="evenodd" d="M47,961l179,0l0,-24L47,937l0,24Z" class="g1_50" />
<g clip-path="url(#c5_50)">
<path fill-rule="evenodd" d="M55,961l163,0l0,-24L55,937l0,24Z" class="g1_50" />
</g>
<path fill-rule="evenodd" d="M227,961l163,0l0,-24l-163,0l0,24Z" class="g1_50" />
<g clip-path="url(#c6_50)">
<path fill-rule="evenodd" d="M235,961l148,0l0,-24l-148,0l0,24Z" class="g1_50" />
</g>
<path fill-rule="evenodd" d="M392,961l495,0l0,-24l-495,0l0,24Z" class="g1_50" />
<g clip-path="url(#c7_50)">
<path fill-rule="evenodd" d="M400,961l480,0l0,-24l-480,0l0,24Z" class="g1_50" />
</g>
<path d="M46.5,937.5l0,-2" class="g3_50" />
<path d="M47.5,937.5l179,0" class="g3_50" />
<path d="M226.5,937.5l0,-2" class="g3_50" />
<path d="M227.5,937.5l164,0" class="g3_50" />
<path d="M391.5,937.5l0,-2" class="g3_50" />
<path d="M392.5,937.5l495,0" class="g3_50" />
<path d="M887.5,937.5l0,-2" class="g3_50" />
<path d="M46.5,961.5l0,-24" class="g3_50" />
<path d="M226.5,961.5l0,-24" class="g3_50" />
<path d="M391.5,961.5l0,-24" class="g3_50" />
<path d="M887.5,961.5l0,-24" class="g3_50" />
<path fill-rule="evenodd" d="M47,986l179,0l0,-24L47,962l0,24Z" class="g1_50" />
<g clip-path="url(#c8_50)">
<path fill-rule="evenodd" d="M55,986l163,0l0,-24L55,962l0,24Z" class="g1_50" />
</g>
<path fill-rule="evenodd" d="M227,986l163,0l0,-24l-163,0l0,24Z" class="g1_50" />
<g clip-path="url(#c9_50)">
<path fill-rule="evenodd" d="M235,986l148,0l0,-24l-148,0l0,24Z" class="g1_50" />
</g>
<path fill-rule="evenodd" d="M392,986l495,0l0,-24l-495,0l0,24Z" class="g1_50" />
<g clip-path="url(#c10_50)">
<path fill-rule="evenodd" d="M400,986l480,0l0,-24l-480,0l0,24Z" class="g1_50" />
</g>
<path d="M46.5,962.5l0,-1" class="g3_50" />
<path d="M47.5,962.5l179,0" class="g3_50" />
<path d="M226.5,962.5l0,-1" class="g3_50" />
<path d="M227.5,962.5l164,0" class="g3_50" />
<path d="M391.5,962.5l0,-1" class="g3_50" />
<path d="M392.5,962.5l495,0" class="g3_50" />
<path d="M887.5,962.5l0,-1" class="g3_50" />
<path d="M46.5,986.5l0,-24" class="g3_50" />
<path d="M46.5,988.5l0,-2" class="g3_50" />
<path d="M46.5,988.5l0,-2" class="g3_50" />
<path d="M47.5,988.5l179,0" class="g3_50" />
<path d="M226.5,986.5l0,-24" class="g3_50" />
<path d="M226.5,988.5l0,-2" class="g3_50" />
<path d="M227.5,988.5l164,0" class="g3_50" />
<path d="M391.5,986.5l0,-24" class="g3_50" />
<path d="M391.5,988.5l0,-2" class="g3_50" />
<path d="M392.5,988.5l495,0" class="g3_50" />
<path d="M887.5,986.5l0,-24" class="g3_50" />
<path d="M887.5,988.5l0,-2" class="g3_50" />
<path d="M887.5,988.5l0,-2" class="g3_50" />
<path fill-rule="evenodd" d="M47,1061l178,0l0,-24l-178,0l0,24Z" class="g5_50" />
<g clip-path="url(#c11_50)">
<path fill-rule="evenodd" d="M55,1061l163,0l0,-24l-163,0l0,24Z" class="g5_50" />
</g>
<path fill-rule="evenodd" d="M227,1061l163,0l0,-24l-163,0l0,24Z" class="g5_50" />
<g clip-path="url(#c12_50)">
<path fill-rule="evenodd" d="M234,1061l149,0l0,-24l-149,0l0,24Z" class="g5_50" />
</g>
<path fill-rule="evenodd" d="M392,1061l164,0l0,-24l-164,0l0,24Z" class="g5_50" />
<g clip-path="url(#c13_50)">
<path fill-rule="evenodd" d="M399,1061l149,0l0,-24l-149,0l0,24Z" class="g5_50" />
</g>
<path fill-rule="evenodd" d="M557,1061l164,0l0,-24l-164,0l0,24Z" class="g5_50" />
<g clip-path="url(#c14_50)">
<path fill-rule="evenodd" d="M565,1061l149,0l0,-24l-149,0l0,24Z" class="g5_50" />
</g>
<path fill-rule="evenodd" d="M723,1061l164,0l0,-24l-164,0l0,24Z" class="g5_50" />
<g clip-path="url(#c15_50)">
<path fill-rule="evenodd" d="M730,1061l150,0l0,-24l-150,0l0,24Z" class="g5_50" />
</g>
<path d="M46.5,1037.5l0,-2" class="g3_50" />
<path d="M46.5,1037.5l0,-2" class="g3_50" />
<path d="M47.5,1037.5l178,0" class="g3_50" />
<path d="M225.5,1037.5l0,-2" class="g3_50" />
<path d="M227.5,1037.5l163,0" class="g3_50" />
<path d="M390.5,1037.5l0,-2" class="g3_50" />
<path d="M392.5,1037.5l164,0" class="g3_50" />
<path d="M556.5,1037.5l0,-2" class="g3_50" />
<path d="M557.5,1037.5l164,0" class="g3_50" />
<path d="M721.5,1037.5l0,-2" class="g3_50" />
<path d="M723.5,1037.5l164,0" class="g3_50" />
<path d="M887.5,1037.5l0,-2" class="g3_50" />
<path d="M887.5,1037.5l0,-2" class="g3_50" />
<path d="M46.5,1061.5l0,-24" class="g3_50" />
<path d="M225.5,1061.5l0,-24" class="g3_50" />
<path d="M390.5,1061.5l0,-24" class="g3_50" />
<path d="M556.5,1061.5l0,-24" class="g3_50" />
<path d="M721.5,1061.5l0,-24" class="g3_50" />
<path d="M887.5,1061.5l0,-24" class="g3_50" />
<path fill-rule="evenodd" d="M47,1086l178,0l0,-24l-178,0l0,24Z" class="g1_50" />
<g clip-path="url(#c16_50)">
<path fill-rule="evenodd" d="M55,1086l163,0l0,-24l-163,0l0,24Z" class="g1_50" />
</g>
<path fill-rule="evenodd" d="M227,1086l163,0l0,-24l-163,0l0,24Z" class="g1_50" />
<g clip-path="url(#c17_50)">
<path fill-rule="evenodd" d="M234,1086l149,0l0,-24l-149,0l0,24Z" class="g1_50" />
</g>
<path fill-rule="evenodd" d="M392,1086l164,0l0,-24l-164,0l0,24Z" class="g1_50" />
<g clip-path="url(#c18_50)">
<path fill-rule="evenodd" d="M399,1086l149,0l0,-24l-149,0l0,24Z" class="g1_50" />
</g>
<path fill-rule="evenodd" d="M557,1086l164,0l0,-24l-164,0l0,24Z" class="g1_50" />
<g clip-path="url(#c19_50)">
<path fill-rule="evenodd" d="M565,1086l149,0l0,-24l-149,0l0,24Z" class="g1_50" />
</g>
<path fill-rule="evenodd" d="M723,1086l164,0l0,-24l-164,0l0,24Z" class="g1_50" />
<g clip-path="url(#c20_50)">
<path fill-rule="evenodd" d="M730,1086l150,0l0,-24l-150,0l0,24Z" class="g1_50" />
</g>
<path d="M46.5,1062.5l0,-1" class="g3_50" />
<path d="M47.5,1062.5l178,0" class="g3_50" />
<path d="M225.5,1062.5l0,-1" class="g3_50" />
<path d="M227.5,1062.5l163,0" class="g3_50" />
<path d="M390.5,1062.5l0,-1" class="g3_50" />
<path d="M392.5,1062.5l164,0" class="g3_50" />
<path d="M556.5,1062.5l0,-1" class="g3_50" />
<path d="M557.5,1062.5l164,0" class="g3_50" />
<path d="M721.5,1062.5l0,-1" class="g3_50" />
<path d="M723.5,1062.5l164,0" class="g3_50" />
<path d="M887.5,1062.5l0,-1" class="g3_50" />
<path d="M46.5,1086.5l0,-24" class="g3_50" />
<path d="M46.5,1088.5l0,-2" class="g3_50" />
<path d="M46.5,1088.5l0,-2" class="g3_50" />
<path d="M47.5,1088.5l178,0" class="g3_50" />
<path d="M225.5,1086.5l0,-24" class="g3_50" />
<path d="M225.5,1088.5l0,-2" class="g3_50" />
<path d="M227.5,1088.5l163,0" class="g3_50" />
<path d="M390.5,1086.5l0,-24" class="g3_50" />
<path d="M390.5,1088.5l0,-2" class="g3_50" />
<path d="M392.5,1088.5l164,0" class="g3_50" />
<path d="M556.5,1086.5l0,-24" class="g3_50" />
<path d="M556.5,1088.5l0,-2" class="g3_50" />
<path d="M557.5,1088.5l164,0" class="g3_50" />
<path d="M721.5,1086.5l0,-24" class="g3_50" />
<path d="M721.5,1088.5l0,-2" class="g3_50" />
<path d="M723.5,1088.5l164,0" class="g3_50" />
<path d="M887.5,1086.5l0,-24" class="g3_50" />
<path d="M887.5,1088.5l0,-2" class="g3_50" />
<path d="M887.5,1088.5l0,-2" class="g3_50" />
</svg>