<?xml version="1.0" encoding="UTF-8" standalone="no"?>
<!DOCTYPE svg PUBLIC "-//W3C//DTD SVG 1.1//EN"
"http://www.w3.org/Graphics/SVG/1.1/DTD/svg11.dtd">
<svg version="1.1" xmlns="http://www.w3.org/2000/svg" xmlns:xlink="http://www.w3.org/1999/xlink">
<defs>
<clipPath id="c0_251"><path d="M47.5,421.5l0,-310l840,0l0,310Z" /></clipPath>
<clipPath id="c1_251"><path d="M815.5,767.5l0,-48l73,0l0,48Z" /></clipPath>
<style type="text/css"><![CDATA[
.g5_251{
fill: none;
stroke: #000000;
stroke-width: 1;
stroke-linecap: butt;
stroke-linejoin: miter;
}
.g2_251{
fill: none;
stroke: #7E7E7E;
stroke-width: 1;
stroke-linecap: butt;
stroke-linejoin: miter;
}
.g3_251{
fill: none;
stroke: #0000FF;
stroke-width: 1;
stroke-linecap: butt;
stroke-linejoin: miter;
}
.g4_251{
fill: #D7D7D7;
}
.g1_251{
fill: #F1F1F1;
}
]]></style>
</defs>
<path fill-rule="evenodd" d="M47,421l840,0l0,-310L47,111l0,310Z" class="g1_251" />
<g clip-path="url(#c0_251)">
<path fill-rule="evenodd" d="M55,135l825,0l0,-24L55,111l0,24Z" class="g1_251" />
</g>
<path fill-rule="evenodd" d="M55,159l825,0l0,-24L55,135l0,24Z" class="g1_251" />
<path fill-rule="evenodd" d="M55,182l825,0l0,-23L55,159l0,23Z" class="g1_251" />
<path fill-rule="evenodd" d="M55,206l825,0l0,-24L55,182l0,24Z" class="g1_251" />
<path fill-rule="evenodd" d="M55,230l825,0l0,-24L55,206l0,24Z" class="g1_251" />
<path fill-rule="evenodd" d="M55,254l825,0l0,-24L55,230l0,24Z" class="g1_251" />
<path fill-rule="evenodd" d="M55,278l825,0l0,-24L55,254l0,24Z" class="g1_251" />
<path fill-rule="evenodd" d="M55,302l825,0l0,-24L55,278l0,24Z" class="g1_251" />
<path fill-rule="evenodd" d="M55,325l825,0l0,-23L55,302l0,23Z" class="g1_251" />
<path fill-rule="evenodd" d="M55,349l825,0l0,-24L55,325l0,24Z" class="g1_251" />
<path fill-rule="evenodd" d="M55,373l825,0l0,-24L55,349l0,24Z" class="g1_251" />
<path fill-rule="evenodd" d="M55,397l825,0l0,-24L55,373l0,24Z" class="g1_251" />
<path fill-rule="evenodd" d="M55,421l825,0l0,-24L55,397l0,24Z" class="g1_251" />
<path d="M46.5,111.5l0,-1" class="g2_251" />
<path d="M46.5,111.5l0,-1" class="g2_251" />
<path d="M47.5,111.5l840,0" class="g2_251" />
<path d="M887.5,111.5l0,-1" class="g2_251" />
<path d="M887.5,111.5l0,-1" class="g2_251" />
<path d="M46.5,421.5l0,-310" class="g2_251" />
<path d="M46.5,423.5l0,-2" class="g2_251" />
<path d="M46.5,423.5l0,-2" class="g2_251" />
<path d="M47.5,423.5l840,0" class="g2_251" />
<path d="M887.5,421.5l0,-310" class="g2_251" />
<path d="M887.5,423.5l0,-2" class="g2_251" />
<path d="M887.5,423.5l0,-2" class="g2_251" />
<path d="M55.5,618.5l567,0" class="g3_251" />
<path fill-rule="evenodd" d="M54,766l346,0l0,-47L54,719l0,47Z" class="g4_251" />
<path fill-rule="evenodd" d="M62,755l330,0l0,-24L62,731l0,24Z" class="g4_251" />
<path fill-rule="evenodd" d="M401,766l102,0l0,-47l-102,0l0,47Z" class="g4_251" />
<path fill-rule="evenodd" d="M409,755l86,0l0,-24l-86,0l0,24Z" class="g4_251" />
<path fill-rule="evenodd" d="M504,766l310,0l0,-47l-310,0l0,47Z" class="g4_251" />
<path fill-rule="evenodd" d="M511,766l295,0l0,-23l-295,0l0,23Z" class="g4_251" />
<path fill-rule="evenodd" d="M815,766l73,0l0,-47l-73,0l0,47Z" class="g4_251" />
<g clip-path="url(#c1_251)">
<path fill-rule="evenodd" d="M823,743l57,0l0,-24l-57,0l0,24Z" class="g4_251" />
</g>
<path fill-rule="evenodd" d="M823,766l57,0l0,-23l-57,0l0,23Z" class="g4_251" />
<path d="M53.5,719.5l0,-1" class="g5_251" />
<path d="M53.5,719.5l0,-1" class="g5_251" />
<path d="M54.5,719.5l346,0" class="g5_251" />
<path d="M400.5,719.5l0,-1" class="g5_251" />
<path d="M401.5,719.5l102,0" class="g5_251" />
<path d="M503.5,719.5l0,-1" class="g5_251" />
<path d="M504.5,719.5l310,0" class="g5_251" />
<path d="M814.5,719.5l0,-1" class="g5_251" />
<path d="M815.5,719.5l73,0" class="g5_251" />
<path d="M888.5,719.5l0,-1" class="g5_251" />
<path d="M888.5,719.5l0,-1" class="g5_251" />
<path d="M53.5,766.5l0,-47" class="g5_251" />
<path d="M400.5,766.5l0,-47" class="g5_251" />
<path d="M503.5,766.5l0,-47" class="g5_251" />
<path d="M814.5,766.5l0,-47" class="g5_251" />
<path d="M888.5,766.5l0,-47" class="g5_251" />
<path d="M53.5,767.5l0,-1" class="g5_251" />
<path d="M54.5,767.5l346,0" class="g5_251" />
<path d="M400.5,767.5l0,-1" class="g5_251" />
<path d="M401.5,767.5l102,0" class="g5_251" />
<path d="M503.5,767.5l0,-1" class="g5_251" />
<path d="M504.5,767.5l310,0" class="g5_251" />
<path d="M814.5,767.5l0,-1" class="g5_251" />
<path d="M815.5,767.5l73,0" class="g5_251" />
<path d="M888.5,767.5l0,-1" class="g5_251" />
<path d="M53.5,815.5l0,-48" class="g5_251" />
<path d="M400.5,815.5l0,-48" class="g5_251" />
<path d="M503.5,815.5l0,-48" class="g5_251" />
<path d="M814.5,815.5l0,-48" class="g5_251" />
<path d="M888.5,815.5l0,-48" class="g5_251" />
<path d="M53.5,816.5l0,-1" class="g5_251" />
<path d="M54.5,816.5l346,0" class="g5_251" />
<path d="M400.5,816.5l0,-1" class="g5_251" />
<path d="M401.5,816.5l102,0" class="g5_251" />
<path d="M503.5,816.5l0,-1" class="g5_251" />
<path d="M504.5,816.5l310,0" class="g5_251" />
<path d="M814.5,816.5l0,-1" class="g5_251" />
<path d="M815.5,816.5l73,0" class="g5_251" />
<path d="M888.5,816.5l0,-1" class="g5_251" />
<path d="M53.5,839.5l0,-23" class="g5_251" />
<path d="M400.5,839.5l0,-23" class="g5_251" />
<path d="M503.5,839.5l0,-23" class="g5_251" />
<path d="M814.5,839.5l0,-23" class="g5_251" />
<path d="M888.5,839.5l0,-23" class="g5_251" />
<path d="M53.5,840.5l0,-1" class="g5_251" />
<path d="M54.5,840.5l40,0" class="g5_251" />
<path d="M94.5,840.5l0,-1" class="g5_251" />
<path d="M94.5,840.5l40,0" class="g5_251" />
<path d="M134.5,840.5l0,-1" class="g5_251" />
<path d="M135.5,840.5l40,0" class="g5_251" />
<path d="M175.5,840.5l0,-1" class="g5_251" />
<path d="M175.5,840.5l225,0" class="g5_251" />
<path d="M400.5,840.5l0,-1" class="g5_251" />
<path d="M401.5,840.5l102,0" class="g5_251" />
<path d="M503.5,840.5l0,-1" class="g5_251" />
<path d="M504.5,840.5l310,0" class="g5_251" />
<path d="M814.5,840.5l0,-1" class="g5_251" />
<path d="M815.5,840.5l73,0" class="g5_251" />
<path d="M888.5,840.5l0,-1" class="g5_251" />
<path d="M53.5,912.5l0,-72" class="g5_251" />
<path d="M94.5,912.5l0,-72" class="g5_251" />
<path d="M134.5,912.5l0,-72" class="g5_251" />
<path d="M175.5,912.5l0,-72" class="g5_251" />
<path d="M400.5,912.5l0,-72" class="g5_251" />
<path d="M503.5,912.5l0,-72" class="g5_251" />
<path d="M814.5,912.5l0,-72" class="g5_251" />
<path d="M888.5,912.5l0,-72" class="g5_251" />
<path d="M175.5,912.5l225,0" class="g5_251" />
<path d="M401.5,912.5l102,0" class="g5_251" />
<path d="M504.5,912.5l310,0" class="g5_251" />
<path d="M815.5,912.5l73,0" class="g5_251" />
<path d="M53.5,936.5l0,-24" class="g5_251" />
<path d="M94.5,936.5l0,-24" class="g5_251" />
<path d="M134.5,936.5l0,-24" class="g5_251" />
<path d="M175.5,936.5l0,-24" class="g5_251" />
<path d="M400.5,936.5l0,-24" class="g5_251" />
<path d="M503.5,936.5l0,-24" class="g5_251" />
<path d="M814.5,936.5l0,-24" class="g5_251" />
<path d="M888.5,936.5l0,-24" class="g5_251" />
<path d="M53.5,937.5l0,-1" class="g5_251" />
<path d="M94.5,937.5l0,-1" class="g5_251" />
<path d="M134.5,937.5l0,-1" class="g5_251" />
<path d="M175.5,937.5l0,-1" class="g5_251" />
<path d="M175.5,937.5l225,0" class="g5_251" />
<path d="M400.5,937.5l0,-1" class="g5_251" />
<path d="M401.5,937.5l102,0" class="g5_251" />
<path d="M503.5,937.5l0,-1" class="g5_251" />
<path d="M504.5,937.5l310,0" class="g5_251" />
<path d="M814.5,937.5l0,-1" class="g5_251" />
<path d="M815.5,937.5l73,0" class="g5_251" />
<path d="M888.5,937.5l0,-1" class="g5_251" />
<path d="M53.5,1080.5l0,-143" class="g5_251" />
<path d="M53.5,1081.5l0,-1" class="g5_251" />
<path d="M53.5,1081.5l0,-1" class="g5_251" />
<path d="M54.5,1081.5l40,0" class="g5_251" />
<path d="M94.5,1080.5l0,-143" class="g5_251" />
<path d="M94.5,1081.5l0,-1" class="g5_251" />
<path d="M94.5,1081.5l40,0" class="g5_251" />
<path d="M134.5,1080.5l0,-143" class="g5_251" />
<path d="M134.5,1081.5l0,-1" class="g5_251" />
<path d="M135.5,1081.5l40,0" class="g5_251" />
<path d="M175.5,1080.5l0,-143" class="g5_251" />
<path d="M175.5,1081.5l0,-1" class="g5_251" />
<path d="M175.5,1081.5l225,0" class="g5_251" />
<path d="M400.5,1080.5l0,-143" class="g5_251" />
<path d="M400.5,1081.5l0,-1" class="g5_251" />
<path d="M401.5,1081.5l102,0" class="g5_251" />
<path d="M503.5,1080.5l0,-143" class="g5_251" />
<path d="M503.5,1081.5l0,-1" class="g5_251" />
<path d="M504.5,1081.5l310,0" class="g5_251" />
<path d="M814.5,1080.5l0,-143" class="g5_251" />
<path d="M814.5,1081.5l0,-1" class="g5_251" />
<path d="M815.5,1081.5l73,0" class="g5_251" />
<path d="M888.5,1080.5l0,-143" class="g5_251" />
<path d="M888.5,1081.5l0,-1" class="g5_251" />
<path d="M888.5,1081.5l0,-1" class="g5_251" />
</svg>