<?xml version="1.0" encoding="UTF-8" standalone="no"?>
<!DOCTYPE svg PUBLIC "-//W3C//DTD SVG 1.1//EN"
"http://www.w3.org/Graphics/SVG/1.1/DTD/svg11.dtd">
<svg version="1.1" xmlns="http://www.w3.org/2000/svg" xmlns:xlink="http://www.w3.org/1999/xlink">
<defs>
<style type="text/css"><![CDATA[
.g1_222{
fill: none;
stroke: #000000;
stroke-width: 1;
stroke-linecap: butt;
stroke-linejoin: miter;
}
]]></style>
</defs>
<path d="M54.5,110.5l38,0" class="g1_222" />
<path d="M93.5,110.5l39,0" class="g1_222" />
<path d="M133.5,110.5l39,0" class="g1_222" />
<path d="M172.5,110.5l229,0" class="g1_222" />
<path d="M401.5,110.5l79,0" class="g1_222" />
<path d="M481.5,110.5l335,0" class="g1_222" />
<path d="M817.5,110.5l71,0" class="g1_222" />
<path d="M53.5,310.5l0,-200" class="g1_222" />
<path d="M92.5,310.5l0,-200" class="g1_222" />
<path d="M132.5,310.5l0,-200" class="g1_222" />
<path d="M171.5,310.5l0,-200" class="g1_222" />
<path d="M401.5,310.5l0,-200" class="g1_222" />
<path d="M480.5,310.5l0,-200" class="g1_222" />
<path d="M816.5,310.5l0,-200" class="g1_222" />
<path d="M888.5,310.5l0,-200" class="g1_222" />
<path d="M53.5,311.5l0,-1" class="g1_222" />
<path d="M92.5,311.5l0,-1" class="g1_222" />
<path d="M132.5,311.5l0,-1" class="g1_222" />
<path d="M171.5,311.5l0,-1" class="g1_222" />
<path d="M173.5,311.5l38,0" class="g1_222" />
<path d="M211.5,311.5l0,-1" class="g1_222" />
<path d="M212.5,311.5l189,0" class="g1_222" />
<path d="M401.5,311.5l0,-1" class="g1_222" />
<path d="M402.5,311.5l78,0" class="g1_222" />
<path d="M480.5,311.5l0,-1" class="g1_222" />
<path d="M481.5,311.5l335,0" class="g1_222" />
<path d="M816.5,311.5l0,-1" class="g1_222" />
<path d="M818.5,311.5l70,0" class="g1_222" />
<path d="M888.5,311.5l0,-1" class="g1_222" />
<path d="M53.5,383.5l0,-72" class="g1_222" />
<path d="M92.5,383.5l0,-72" class="g1_222" />
<path d="M132.5,383.5l0,-72" class="g1_222" />
<path d="M171.5,383.5l0,-72" class="g1_222" />
<path d="M211.5,383.5l0,-72" class="g1_222" />
<path d="M401.5,383.5l0,-72" class="g1_222" />
<path d="M480.5,383.5l0,-72" class="g1_222" />
<path d="M816.5,383.5l0,-72" class="g1_222" />
<path d="M888.5,383.5l0,-72" class="g1_222" />
<path d="M53.5,384.5l0,-1" class="g1_222" />
<path d="M92.5,384.5l0,-1" class="g1_222" />
<path d="M132.5,384.5l0,-1" class="g1_222" />
<path d="M171.5,384.5l0,-1" class="g1_222" />
<path d="M211.5,384.5l0,-1" class="g1_222" />
<path d="M212.5,384.5l189,0" class="g1_222" />
<path d="M401.5,384.5l0,-1" class="g1_222" />
<path d="M402.5,384.5l78,0" class="g1_222" />
<path d="M480.5,384.5l0,-1" class="g1_222" />
<path d="M481.5,384.5l335,0" class="g1_222" />
<path d="M816.5,384.5l0,-1" class="g1_222" />
<path d="M818.5,384.5l70,0" class="g1_222" />
<path d="M888.5,384.5l0,-1" class="g1_222" />
<path d="M53.5,503.5l0,-119" class="g1_222" />
<path d="M92.5,503.5l0,-119" class="g1_222" />
<path d="M132.5,503.5l0,-119" class="g1_222" />
<path d="M171.5,503.5l0,-119" class="g1_222" />
<path d="M211.5,503.5l0,-119" class="g1_222" />
<path d="M401.5,503.5l0,-119" class="g1_222" />
<path d="M480.5,503.5l0,-119" class="g1_222" />
<path d="M816.5,503.5l0,-119" class="g1_222" />
<path d="M888.5,503.5l0,-119" class="g1_222" />
<path d="M53.5,504.5l0,-1" class="g1_222" />
<path d="M92.5,504.5l0,-1" class="g1_222" />
<path d="M132.5,504.5l0,-1" class="g1_222" />
<path d="M171.5,504.5l0,-1" class="g1_222" />
<path d="M211.5,504.5l0,-1" class="g1_222" />
<path d="M212.5,504.5l189,0" class="g1_222" />
<path d="M401.5,504.5l0,-1" class="g1_222" />
<path d="M402.5,504.5l78,0" class="g1_222" />
<path d="M480.5,504.5l0,-1" class="g1_222" />
<path d="M481.5,504.5l335,0" class="g1_222" />
<path d="M816.5,504.5l0,-1" class="g1_222" />
<path d="M818.5,504.5l70,0" class="g1_222" />
<path d="M888.5,504.5l0,-1" class="g1_222" />
<path d="M53.5,695.5l0,-191" class="g1_222" />
<path d="M92.5,695.5l0,-191" class="g1_222" />
<path d="M132.5,695.5l0,-191" class="g1_222" />
<path d="M171.5,695.5l0,-191" class="g1_222" />
<path d="M211.5,695.5l0,-191" class="g1_222" />
<path d="M401.5,695.5l0,-191" class="g1_222" />
<path d="M480.5,695.5l0,-191" class="g1_222" />
<path d="M816.5,695.5l0,-191" class="g1_222" />
<path d="M888.5,695.5l0,-191" class="g1_222" />
<path d="M53.5,696.5l0,-1" class="g1_222" />
<path d="M92.5,696.5l0,-1" class="g1_222" />
<path d="M132.5,696.5l0,-1" class="g1_222" />
<path d="M171.5,696.5l0,-1" class="g1_222" />
<path d="M211.5,696.5l0,-1" class="g1_222" />
<path d="M212.5,696.5l189,0" class="g1_222" />
<path d="M401.5,696.5l0,-1" class="g1_222" />
<path d="M402.5,696.5l78,0" class="g1_222" />
<path d="M480.5,696.5l0,-1" class="g1_222" />
<path d="M481.5,696.5l335,0" class="g1_222" />
<path d="M816.5,696.5l0,-1" class="g1_222" />
<path d="M818.5,696.5l70,0" class="g1_222" />
<path d="M888.5,696.5l0,-1" class="g1_222" />
<path d="M53.5,887.5l0,-191" class="g1_222" />
<path d="M92.5,887.5l0,-191" class="g1_222" />
<path d="M132.5,887.5l0,-191" class="g1_222" />
<path d="M171.5,887.5l0,-191" class="g1_222" />
<path d="M211.5,887.5l0,-191" class="g1_222" />
<path d="M401.5,887.5l0,-191" class="g1_222" />
<path d="M480.5,887.5l0,-191" class="g1_222" />
<path d="M816.5,887.5l0,-191" class="g1_222" />
<path d="M888.5,887.5l0,-191" class="g1_222" />
<path d="M53.5,888.5l0,-1" class="g1_222" />
<path d="M92.5,888.5l0,-1" class="g1_222" />
<path d="M132.5,888.5l0,-1" class="g1_222" />
<path d="M171.5,888.5l0,-1" class="g1_222" />
<path d="M211.5,888.5l0,-1" class="g1_222" />
<path d="M212.5,888.5l84,0" class="g1_222" />
<path d="M296.5,888.5l0,-1" class="g1_222" />
<path d="M297.5,888.5l104,0" class="g1_222" />
<path d="M401.5,888.5l0,-1" class="g1_222" />
<path d="M402.5,888.5l78,0" class="g1_222" />
<path d="M480.5,888.5l0,-1" class="g1_222" />
<path d="M481.5,888.5l335,0" class="g1_222" />
<path d="M816.5,888.5l0,-1" class="g1_222" />
<path d="M818.5,888.5l70,0" class="g1_222" />
<path d="M888.5,888.5l0,-1" class="g1_222" />
<path d="M53.5,927.5l0,-39" class="g1_222" />
<path d="M92.5,927.5l0,-39" class="g1_222" />
<path d="M132.5,927.5l0,-39" class="g1_222" />
<path d="M171.5,927.5l0,-39" class="g1_222" />
<path d="M211.5,927.5l0,-39" class="g1_222" />
<path d="M296.5,927.5l0,-39" class="g1_222" />
<path d="M401.5,927.5l0,-39" class="g1_222" />
<path d="M480.5,927.5l0,-39" class="g1_222" />
<path d="M816.5,927.5l0,-39" class="g1_222" />
<path d="M888.5,927.5l0,-39" class="g1_222" />
<path d="M53.5,928.5l0,-1" class="g1_222" />
<path d="M92.5,928.5l0,-1" class="g1_222" />
<path d="M132.5,928.5l0,-1" class="g1_222" />
<path d="M171.5,928.5l0,-1" class="g1_222" />
<path d="M211.5,928.5l0,-1" class="g1_222" />
<path d="M296.5,928.5l0,-1" class="g1_222" />
<path d="M297.5,928.5l104,0" class="g1_222" />
<path d="M401.5,928.5l0,-1" class="g1_222" />
<path d="M402.5,928.5l78,0" class="g1_222" />
<path d="M480.5,928.5l0,-1" class="g1_222" />
<path d="M481.5,928.5l335,0" class="g1_222" />
<path d="M816.5,928.5l0,-1" class="g1_222" />
<path d="M818.5,928.5l70,0" class="g1_222" />
<path d="M888.5,928.5l0,-1" class="g1_222" />
<path d="M53.5,969.5l0,-41" class="g1_222" />
<path d="M92.5,969.5l0,-41" class="g1_222" />
<path d="M132.5,969.5l0,-41" class="g1_222" />
<path d="M171.5,969.5l0,-41" class="g1_222" />
<path d="M211.5,969.5l0,-41" class="g1_222" />
<path d="M296.5,969.5l0,-41" class="g1_222" />
<path d="M401.5,969.5l0,-41" class="g1_222" />
<path d="M480.5,969.5l0,-41" class="g1_222" />
<path d="M816.5,969.5l0,-41" class="g1_222" />
<path d="M888.5,969.5l0,-41" class="g1_222" />
<path d="M53.5,971.5l0,-2" class="g1_222" />
<path d="M92.5,971.5l0,-2" class="g1_222" />
<path d="M132.5,971.5l0,-2" class="g1_222" />
<path d="M171.5,971.5l0,-2" class="g1_222" />
<path d="M211.5,971.5l0,-2" class="g1_222" />
<path d="M296.5,971.5l0,-2" class="g1_222" />
<path d="M297.5,971.5l104,0" class="g1_222" />
<path d="M401.5,971.5l0,-2" class="g1_222" />
<path d="M402.5,971.5l78,0" class="g1_222" />
<path d="M480.5,971.5l0,-2" class="g1_222" />
<path d="M481.5,971.5l335,0" class="g1_222" />
<path d="M816.5,971.5l0,-2" class="g1_222" />
<path d="M818.5,971.5l70,0" class="g1_222" />
<path d="M888.5,971.5l0,-2" class="g1_222" />
<path d="M53.5,1002.5l0,-31" class="g1_222" />
<path d="M92.5,1002.5l0,-31" class="g1_222" />
<path d="M132.5,1002.5l0,-31" class="g1_222" />
<path d="M171.5,1002.5l0,-31" class="g1_222" />
<path d="M211.5,1002.5l0,-31" class="g1_222" />
<path d="M296.5,1002.5l0,-31" class="g1_222" />
<path d="M401.5,1002.5l0,-31" class="g1_222" />
<path d="M480.5,1002.5l0,-31" class="g1_222" />
<path d="M816.5,1002.5l0,-31" class="g1_222" />
<path d="M888.5,1002.5l0,-31" class="g1_222" />
<path d="M53.5,1003.5l0,-1" class="g1_222" />
<path d="M92.5,1003.5l0,-1" class="g1_222" />
<path d="M132.5,1003.5l0,-1" class="g1_222" />
<path d="M171.5,1003.5l0,-1" class="g1_222" />
<path d="M211.5,1003.5l0,-1" class="g1_222" />
<path d="M212.5,1003.5l84,0" class="g1_222" />
<path d="M296.5,1003.5l0,-1" class="g1_222" />
<path d="M297.5,1003.5l104,0" class="g1_222" />
<path d="M401.5,1003.5l0,-1" class="g1_222" />
<path d="M402.5,1003.5l78,0" class="g1_222" />
<path d="M480.5,1003.5l0,-1" class="g1_222" />
<path d="M481.5,1003.5l335,0" class="g1_222" />
<path d="M816.5,1003.5l0,-1" class="g1_222" />
<path d="M818.5,1003.5l70,0" class="g1_222" />
<path d="M888.5,1003.5l0,-1" class="g1_222" />
<path d="M53.5,1027.5l0,-24" class="g1_222" />
<path d="M92.5,1027.5l0,-24" class="g1_222" />
<path d="M132.5,1027.5l0,-24" class="g1_222" />
<path d="M171.5,1027.5l0,-24" class="g1_222" />
<path d="M211.5,1027.5l0,-24" class="g1_222" />
<path d="M401.5,1027.5l0,-24" class="g1_222" />
<path d="M480.5,1027.5l0,-24" class="g1_222" />
<path d="M816.5,1027.5l0,-24" class="g1_222" />
<path d="M888.5,1027.5l0,-24" class="g1_222" />
<path d="M53.5,1028.5l0,-1" class="g1_222" />
<path d="M92.5,1028.5l0,-1" class="g1_222" />
<path d="M132.5,1028.5l0,-1" class="g1_222" />
<path d="M171.5,1028.5l0,-1" class="g1_222" />
<path d="M211.5,1028.5l0,-1" class="g1_222" />
<path d="M212.5,1028.5l189,0" class="g1_222" />
<path d="M401.5,1028.5l0,-1" class="g1_222" />
<path d="M402.5,1028.5l78,0" class="g1_222" />
<path d="M480.5,1028.5l0,-1" class="g1_222" />
<path d="M481.5,1028.5l335,0" class="g1_222" />
<path d="M816.5,1028.5l0,-1" class="g1_222" />
<path d="M818.5,1028.5l70,0" class="g1_222" />
<path d="M888.5,1028.5l0,-1" class="g1_222" />
<path d="M53.5,1094.5l0,-66" class="g1_222" />
<path d="M53.5,1095.5l0,-1" class="g1_222" />
<path d="M53.5,1095.5l0,-1" class="g1_222" />
<path d="M54.5,1095.5l38,0" class="g1_222" />
<path d="M92.5,1094.5l0,-66" class="g1_222" />
<path d="M92.5,1095.5l0,-1" class="g1_222" />
<path d="M93.5,1095.5l39,0" class="g1_222" />
<path d="M132.5,1094.5l0,-66" class="g1_222" />
<path d="M132.5,1095.5l0,-1" class="g1_222" />
<path d="M133.5,1095.5l39,0" class="g1_222" />
<path d="M171.5,1094.5l0,-66" class="g1_222" />
<path d="M171.5,1095.5l0,-1" class="g1_222" />
<path d="M172.5,1095.5l39,0" class="g1_222" />
<path d="M211.5,1094.5l0,-66" class="g1_222" />
<path d="M211.5,1095.5l0,-1" class="g1_222" />
<path d="M212.5,1095.5l189,0" class="g1_222" />
<path d="M401.5,1094.5l0,-66" class="g1_222" />
<path d="M401.5,1095.5l0,-1" class="g1_222" />
<path d="M401.5,1095.5l79,0" class="g1_222" />
<path d="M480.5,1094.5l0,-66" class="g1_222" />
<path d="M480.5,1095.5l0,-1" class="g1_222" />
<path d="M481.5,1095.5l335,0" class="g1_222" />
<path d="M816.5,1094.5l0,-66" class="g1_222" />
<path d="M816.5,1095.5l0,-1" class="g1_222" />
<path d="M817.5,1095.5l71,0" class="g1_222" />
<path d="M888.5,1094.5l0,-66" class="g1_222" />
<path d="M888.5,1095.5l0,-1" class="g1_222" />
<path d="M888.5,1095.5l0,-1" class="g1_222" />
</svg>