<?xml version="1.0" encoding="UTF-8" standalone="no"?>
<!DOCTYPE svg PUBLIC "-//W3C//DTD SVG 1.1//EN"
"http://www.w3.org/Graphics/SVG/1.1/DTD/svg11.dtd">
<svg version="1.1" xmlns="http://www.w3.org/2000/svg" xmlns:xlink="http://www.w3.org/1999/xlink">
<defs>
<clipPath id="c0_155"><path d="M47.5,222.5l0,-48l31,0l0,48Z" /></clipPath>
<clipPath id="c1_155"><path d="M79.5,222.5l0,-48l261,0l0,48Z" /></clipPath>
<clipPath id="c2_155"><path d="M342.5,222.5l0,-48l68,0l0,48Z" /></clipPath>
<clipPath id="c3_155"><path d="M412.5,222.5l0,-48l55,0l0,48Z" /></clipPath>
<clipPath id="c4_155"><path d="M469.5,222.5l0,-48l386,0l0,48Z" /></clipPath>
<clipPath id="c5_155"><path d="M111.5,249.5l0,-25l229,0l0,25Z" /></clipPath>
<clipPath id="c6_155"><path d="M342.5,249.5l0,-25l68,0l0,25Z" /></clipPath>
<clipPath id="c7_155"><path d="M412.5,249.5l0,-25l55,0l0,25Z" /></clipPath>
<clipPath id="c8_155"><path d="M469.5,249.5l0,-25l386,0l0,25Z" /></clipPath>
<clipPath id="c9_155"><path d="M144.5,275.5l0,-24l196,0l0,24Z" /></clipPath>
<clipPath id="c10_155"><path d="M342.5,275.5l0,-24l68,0l0,24Z" /></clipPath>
<clipPath id="c11_155"><path d="M412.5,275.5l0,-24l55,0l0,24Z" /></clipPath>
<clipPath id="c12_155"><path d="M469.5,275.5l0,-24l386,0l0,24Z" /></clipPath>
<clipPath id="c13_155"><path d="M144.5,491.5l0,-215l196,0l0,215Z" /></clipPath>
<clipPath id="c14_155"><path d="M342.5,491.5l0,-215l68,0l0,215Z" /></clipPath>
<clipPath id="c15_155"><path d="M412.5,491.5l0,-215l55,0l0,215Z" /></clipPath>
<clipPath id="c16_155"><path d="M469.5,491.5l0,-215l386,0l0,215Z" /></clipPath>
<style type="text/css"><![CDATA[
.g2_155{
fill: none;
stroke: #7E7E7E;
stroke-width: 1;
stroke-linecap: butt;
stroke-linejoin: miter;
}
.g4_155{
fill: none;
stroke: #0000FF;
stroke-width: 1;
stroke-linecap: butt;
stroke-linejoin: miter;
}
.g3_155{
fill: #F1F1F1;
}
.g1_155{
fill: #DBE5F1;
}
]]></style>
</defs>
<path fill-rule="evenodd" d="M47,222l31,0l0,-48l-31,0l0,48Z" class="g1_155" />
<g clip-path="url(#c0_155)">
<path fill-rule="evenodd" d="M55,198l15,0l0,-24l-15,0l0,24Z" class="g1_155" />
</g>
<path fill-rule="evenodd" d="M79,222l261,0l0,-48L79,174l0,48Z" class="g1_155" />
<g clip-path="url(#c1_155)">
<path fill-rule="evenodd" d="M87,198l246,0l0,-24L87,174l0,24Z" class="g1_155" />
</g>
<path fill-rule="evenodd" d="M342,222l68,0l0,-48l-68,0l0,48Z" class="g1_155" />
<g clip-path="url(#c2_155)">
<path fill-rule="evenodd" d="M349,198l53,0l0,-24l-53,0l0,24Z" class="g1_155" />
</g>
<path fill-rule="evenodd" d="M349,222l53,0l0,-24l-53,0l0,24Z" class="g1_155" />
<path fill-rule="evenodd" d="M412,222l55,0l0,-48l-55,0l0,48Z" class="g1_155" />
<g clip-path="url(#c3_155)">
<path fill-rule="evenodd" d="M419,198l41,0l0,-24l-41,0l0,24Z" class="g1_155" />
</g>
<path fill-rule="evenodd" d="M469,222l386,0l0,-48l-386,0l0,48Z" class="g1_155" />
<g clip-path="url(#c4_155)">
<path fill-rule="evenodd" d="M476,198l372,0l0,-24l-372,0l0,24Z" class="g1_155" />
</g>
<path d="M46.5,174.5l0,-1" class="g2_155" />
<path d="M46.5,174.5l0,-1" class="g2_155" />
<path d="M47.5,174.5l31,0" class="g2_155" />
<path d="M78.5,174.5l0,-1" class="g2_155" />
<path d="M79.5,174.5l261,0" class="g2_155" />
<path d="M340.5,174.5l0,-1" class="g2_155" />
<path d="M342.5,174.5l68,0" class="g2_155" />
<path d="M410.5,174.5l0,-1" class="g2_155" />
<path d="M412.5,174.5l55,0" class="g2_155" />
<path d="M467.5,174.5l0,-1" class="g2_155" />
<path d="M469.5,174.5l386,0" class="g2_155" />
<path d="M855.5,174.5l0,-1" class="g2_155" />
<path d="M855.5,174.5l0,-1" class="g2_155" />
<path d="M46.5,222.5l0,-48" class="g2_155" />
<path d="M78.5,222.5l0,-48" class="g2_155" />
<path d="M340.5,222.5l0,-48" class="g2_155" />
<path d="M410.5,222.5l0,-48" class="g2_155" />
<path d="M467.5,222.5l0,-48" class="g2_155" />
<path d="M855.5,222.5l0,-48" class="g2_155" />
<path fill-rule="evenodd" d="M47,491l31,0L78,224l-31,0l0,267Z" class="g3_155" />
<path fill-rule="evenodd" d="M55,491l23,0L78,224l-23,0l0,267Z" class="g3_155" />
<path fill-rule="evenodd" d="M79,491l31,0l0,-267l-31,0l0,267Z" class="g3_155" />
<path fill-rule="evenodd" d="M87,491l23,0l0,-267l-23,0l0,267Z" class="g3_155" />
<path fill-rule="evenodd" d="M111,249l229,0l0,-25l-229,0l0,25Z" class="g3_155" />
<g clip-path="url(#c5_155)">
<path fill-rule="evenodd" d="M119,247l214,0l0,-23l-214,0l0,23Z" class="g3_155" />
</g>
<path fill-rule="evenodd" d="M342,249l68,0l0,-25l-68,0l0,25Z" class="g3_155" />
<g clip-path="url(#c6_155)">
<path fill-rule="evenodd" d="M349,247l53,0l0,-23l-53,0l0,23Z" class="g3_155" />
</g>
<path fill-rule="evenodd" d="M412,249l55,0l0,-25l-55,0l0,25Z" class="g3_155" />
<g clip-path="url(#c7_155)">
<path fill-rule="evenodd" d="M419,247l41,0l0,-23l-41,0l0,23Z" class="g3_155" />
</g>
<path fill-rule="evenodd" d="M469,249l386,0l0,-25l-386,0l0,25Z" class="g3_155" />
<g clip-path="url(#c8_155)">
<path fill-rule="evenodd" d="M476,247l372,0l0,-23l-372,0l0,23Z" class="g3_155" />
</g>
<path d="M46.5,224.5l0,-2" class="g2_155" />
<path d="M47.5,224.5l31,0" class="g2_155" />
<path d="M78.5,224.5l0,-2" class="g2_155" />
<path d="M79.5,224.5l31,0" class="g2_155" />
<path d="M110.5,224.5l0,-2" class="g2_155" />
<path d="M111.5,224.5l229,0" class="g2_155" />
<path d="M340.5,224.5l0,-2" class="g2_155" />
<path d="M342.5,224.5l68,0" class="g2_155" />
<path d="M410.5,224.5l0,-2" class="g2_155" />
<path d="M412.5,224.5l55,0" class="g2_155" />
<path d="M467.5,224.5l0,-2" class="g2_155" />
<path d="M469.5,224.5l386,0" class="g2_155" />
<path d="M855.5,224.5l0,-2" class="g2_155" />
<path d="M46.5,249.5l0,-25" class="g2_155" />
<path d="M78.5,249.5l0,-25" class="g2_155" />
<path d="M110.5,249.5l0,-25" class="g2_155" />
<path d="M340.5,249.5l0,-25" class="g2_155" />
<path d="M410.5,249.5l0,-25" class="g2_155" />
<path d="M467.5,249.5l0,-25" class="g2_155" />
<path d="M855.5,249.5l0,-25" class="g2_155" />
<path fill-rule="evenodd" d="M111,491l31,0l0,-240l-31,0l0,240Z" class="g3_155" />
<path fill-rule="evenodd" d="M119,491l23,0l0,-240l-23,0l0,240Z" class="g3_155" />
<path fill-rule="evenodd" d="M144,275l196,0l0,-24l-196,0l0,24Z" class="g3_155" />
<g clip-path="url(#c9_155)">
<path fill-rule="evenodd" d="M151,275l182,0l0,-24l-182,0l0,24Z" class="g3_155" />
</g>
<path fill-rule="evenodd" d="M342,275l68,0l0,-24l-68,0l0,24Z" class="g3_155" />
<g clip-path="url(#c10_155)">
<path fill-rule="evenodd" d="M349,275l53,0l0,-24l-53,0l0,24Z" class="g3_155" />
</g>
<path fill-rule="evenodd" d="M412,275l55,0l0,-24l-55,0l0,24Z" class="g3_155" />
<g clip-path="url(#c11_155)">
<path fill-rule="evenodd" d="M419,275l41,0l0,-24l-41,0l0,24Z" class="g3_155" />
</g>
<path fill-rule="evenodd" d="M469,275l386,0l0,-24l-386,0l0,24Z" class="g3_155" />
<g clip-path="url(#c12_155)">
<path fill-rule="evenodd" d="M476,275l372,0l0,-24l-372,0l0,24Z" class="g3_155" />
</g>
<path d="M46.5,251.5l0,-2" class="g2_155" />
<path d="M78.5,251.5l0,-2" class="g2_155" />
<path d="M110.5,251.5l0,-2" class="g2_155" />
<path d="M111.5,251.5l31,0" class="g2_155" />
<path d="M142.5,251.5l0,-2" class="g2_155" />
<path d="M144.5,251.5l196,0" class="g2_155" />
<path d="M340.5,251.5l0,-2" class="g2_155" />
<path d="M342.5,251.5l68,0" class="g2_155" />
<path d="M410.5,251.5l0,-2" class="g2_155" />
<path d="M412.5,251.5l55,0" class="g2_155" />
<path d="M467.5,251.5l0,-2" class="g2_155" />
<path d="M469.5,251.5l386,0" class="g2_155" />
<path d="M855.5,251.5l0,-2" class="g2_155" />
<path d="M46.5,275.5l0,-24" class="g2_155" />
<path d="M78.5,275.5l0,-24" class="g2_155" />
<path d="M110.5,275.5l0,-24" class="g2_155" />
<path d="M142.5,275.5l0,-24" class="g2_155" />
<path d="M340.5,275.5l0,-24" class="g2_155" />
<path d="M410.5,275.5l0,-24" class="g2_155" />
<path d="M467.5,275.5l0,-24" class="g2_155" />
<path d="M855.5,275.5l0,-24" class="g2_155" />
<path fill-rule="evenodd" d="M144,491l196,0l0,-215l-196,0l0,215Z" class="g3_155" />
<g clip-path="url(#c13_155)">
<path fill-rule="evenodd" d="M151,300l182,0l0,-24l-182,0l0,24Z" class="g3_155" />
</g>
<path fill-rule="evenodd" d="M342,491l68,0l0,-215l-68,0l0,215Z" class="g3_155" />
<g clip-path="url(#c14_155)">
<path fill-rule="evenodd" d="M349,300l53,0l0,-24l-53,0l0,24Z" class="g3_155" />
</g>
<path fill-rule="evenodd" d="M412,491l55,0l0,-215l-55,0l0,215Z" class="g3_155" />
<g clip-path="url(#c15_155)">
<path fill-rule="evenodd" d="M419,300l41,0l0,-24l-41,0l0,24Z" class="g3_155" />
</g>
<path fill-rule="evenodd" d="M469,491l386,0l0,-215l-386,0l0,215Z" class="g3_155" />
<g clip-path="url(#c16_155)">
<path fill-rule="evenodd" d="M476,300l372,0l0,-24l-372,0l0,24Z" class="g3_155" />
</g>
<path fill-rule="evenodd" d="M476,324l372,0l0,-24l-372,0l0,24Z" class="g3_155" />
<path fill-rule="evenodd" d="M476,347l372,0l0,-23l-372,0l0,23Z" class="g3_155" />
<path fill-rule="evenodd" d="M476,371l372,0l0,-24l-372,0l0,24Z" class="g3_155" />
<path fill-rule="evenodd" d="M476,395l372,0l0,-24l-372,0l0,24Z" class="g3_155" />
<path d="M712.5,391.5l94,0" class="g4_155" />
<path fill-rule="evenodd" d="M476,419l372,0l0,-24l-372,0l0,24Z" class="g3_155" />
<path d="M476.5,415.5l199,0" class="g4_155" />
<path fill-rule="evenodd" d="M476,443l372,0l0,-24l-372,0l0,24Z" class="g3_155" />
<path fill-rule="evenodd" d="M476,467l372,0l0,-24l-372,0l0,24Z" class="g3_155" />
<path d="M710.5,462.5l94,0" class="g4_155" />
<path fill-rule="evenodd" d="M476,491l372,0l0,-24l-372,0l0,24Z" class="g3_155" />
<path d="M476.5,486.5l210,0" class="g4_155" />
<path d="M46.5,276.5l0,-1" class="g2_155" />
<path d="M78.5,276.5l0,-1" class="g2_155" />
<path d="M110.5,276.5l0,-1" class="g2_155" />
<path d="M142.5,276.5l0,-1" class="g2_155" />
<path d="M144.5,276.5l196,0" class="g2_155" />
<path d="M340.5,276.5l0,-1" class="g2_155" />
<path d="M342.5,276.5l68,0" class="g2_155" />
<path d="M410.5,276.5l0,-1" class="g2_155" />
<path d="M412.5,276.5l55,0" class="g2_155" />
<path d="M467.5,276.5l0,-1" class="g2_155" />
<path d="M469.5,276.5l386,0" class="g2_155" />
<path d="M855.5,276.5l0,-1" class="g2_155" />
<path d="M46.5,491.5l0,-215" class="g2_155" />
<path d="M46.5,492.5l0,-1" class="g2_155" />
<path d="M46.5,492.5l0,-1" class="g2_155" />
<path d="M47.5,492.5l31,0" class="g2_155" />
<path d="M78.5,491.5l0,-215" class="g2_155" />
<path d="M78.5,492.5l0,-1" class="g2_155" />
<path d="M79.5,492.5l31,0" class="g2_155" />
<path d="M110.5,491.5l0,-215" class="g2_155" />
<path d="M110.5,492.5l0,-1" class="g2_155" />
<path d="M111.5,492.5l31,0" class="g2_155" />
<path d="M142.5,491.5l0,-215" class="g2_155" />
<path d="M142.5,492.5l0,-1" class="g2_155" />
<path d="M144.5,492.5l196,0" class="g2_155" />
<path d="M340.5,491.5l0,-215" class="g2_155" />
<path d="M340.5,492.5l0,-1" class="g2_155" />
<path d="M342.5,492.5l68,0" class="g2_155" />
<path d="M410.5,491.5l0,-215" class="g2_155" />
<path d="M410.5,492.5l0,-1" class="g2_155" />
<path d="M412.5,492.5l55,0" class="g2_155" />
<path d="M467.5,491.5l0,-215" class="g2_155" />
<path d="M467.5,492.5l0,-1" class="g2_155" />
<path d="M469.5,492.5l386,0" class="g2_155" />
<path d="M855.5,491.5l0,-215" class="g2_155" />
<path d="M855.5,492.5l0,-1" class="g2_155" />
<path d="M855.5,492.5l0,-1" class="g2_155" />
</svg>