<?xml version="1.0" encoding="UTF-8" standalone="no"?>
<!DOCTYPE svg PUBLIC "-//W3C//DTD SVG 1.1//EN"
"http://www.w3.org/Graphics/SVG/1.1/DTD/svg11.dtd">
<svg version="1.1" xmlns="http://www.w3.org/2000/svg" xmlns:xlink="http://www.w3.org/1999/xlink">
<defs>
<clipPath id="c0_352"><path d="M537.5,183.5l0,-72l350,0l0,72Z" /></clipPath>
<clipPath id="c1_352"><path d="M154.5,232.5l0,-48l225,0l0,48Z" /></clipPath>
<clipPath id="c2_352"><path d="M380.5,232.5l0,-48l88,0l0,48Z" /></clipPath>
<clipPath id="c3_352"><path d="M469.5,232.5l0,-48l66,0l0,48Z" /></clipPath>
<clipPath id="c4_352"><path d="M537.5,232.5l0,-48l350,0l0,48Z" /></clipPath>
<clipPath id="c5_352"><path d="M154.5,686.5l0,-453l225,0l0,453Z" /></clipPath>
<clipPath id="c6_352"><path d="M380.5,686.5l0,-453l88,0l0,453Z" /></clipPath>
<clipPath id="c7_352"><path d="M469.5,686.5l0,-453l66,0l0,453Z" /></clipPath>
<clipPath id="c8_352"><path d="M537.5,686.5l0,-453l350,0l0,453Z" /></clipPath>
<clipPath id="c9_352"><path d="M154.5,759.5l0,-71l225,0l0,71Z" /></clipPath>
<clipPath id="c10_352"><path d="M380.5,759.5l0,-71l88,0l0,71Z" /></clipPath>
<clipPath id="c11_352"><path d="M469.5,759.5l0,-71l66,0l0,71Z" /></clipPath>
<clipPath id="c12_352"><path d="M537.5,759.5l0,-71l350,0l0,71Z" /></clipPath>
<style type="text/css"><![CDATA[
.g2_352{
fill: none;
stroke: #7E7E7E;
stroke-width: 1;
stroke-linecap: butt;
stroke-linejoin: miter;
}
.g3_352{
fill: none;
stroke: #0000FF;
stroke-width: 1;
stroke-linecap: butt;
stroke-linejoin: miter;
}
.g1_352{
fill: #F1F1F1;
}
]]></style>
</defs>
<path fill-rule="evenodd" d="M47,182l38,0l0,-71l-38,0l0,71Z" class="g1_352" />
<path fill-rule="evenodd" d="M86,182l33,0l0,-71l-33,0l0,71Z" class="g1_352" />
<path fill-rule="evenodd" d="M120,182l33,0l0,-71l-33,0l0,71Z" class="g1_352" />
<path fill-rule="evenodd" d="M154,182l225,0l0,-71l-225,0l0,71Z" class="g1_352" />
<path fill-rule="evenodd" d="M380,182l88,0l0,-71l-88,0l0,71Z" class="g1_352" />
<path fill-rule="evenodd" d="M469,182l66,0l0,-71l-66,0l0,71Z" class="g1_352" />
<path fill-rule="evenodd" d="M537,182l350,0l0,-71l-350,0l0,71Z" class="g1_352" />
<g clip-path="url(#c0_352)">
<path fill-rule="evenodd" d="M544,135l336,0l0,-24l-336,0l0,24Z" class="g1_352" />
</g>
<path fill-rule="evenodd" d="M544,159l336,0l0,-24l-336,0l0,24Z" class="g1_352" />
<path fill-rule="evenodd" d="M544,182l336,0l0,-23l-336,0l0,23Z" class="g1_352" />
<path d="M46.5,111.5l0,-1" class="g2_352" />
<path d="M46.5,111.5l0,-1" class="g2_352" />
<path d="M47.5,111.5l38,0" class="g2_352" />
<path d="M85.5,111.5l0,-1" class="g2_352" />
<path d="M86.5,111.5l33,0" class="g2_352" />
<path d="M119.5,111.5l0,-1" class="g2_352" />
<path d="M120.5,111.5l33,0" class="g2_352" />
<path d="M153.5,111.5l0,-1" class="g2_352" />
<path d="M154.5,111.5l225,0" class="g2_352" />
<path d="M379.5,111.5l0,-1" class="g2_352" />
<path d="M380.5,111.5l88,0" class="g2_352" />
<path d="M468.5,111.5l0,-1" class="g2_352" />
<path d="M469.5,111.5l66,0" class="g2_352" />
<path d="M535.5,111.5l0,-1" class="g2_352" />
<path d="M537.5,111.5l350,0" class="g2_352" />
<path d="M887.5,111.5l0,-1" class="g2_352" />
<path d="M887.5,111.5l0,-1" class="g2_352" />
<path d="M46.5,182.5l0,-71" class="g2_352" />
<path d="M85.5,182.5l0,-71" class="g2_352" />
<path d="M119.5,182.5l0,-71" class="g2_352" />
<path d="M153.5,182.5l0,-71" class="g2_352" />
<path d="M379.5,182.5l0,-71" class="g2_352" />
<path d="M468.5,182.5l0,-71" class="g2_352" />
<path d="M535.5,182.5l0,-71" class="g2_352" />
<path d="M887.5,182.5l0,-71" class="g2_352" />
<path fill-rule="evenodd" d="M47,232l38,0l0,-49l-38,0l0,49Z" class="g1_352" />
<path fill-rule="evenodd" d="M86,232l33,0l0,-49l-33,0l0,49Z" class="g1_352" />
<path fill-rule="evenodd" d="M120,232l33,0l0,-49l-33,0l0,49Z" class="g1_352" />
<path fill-rule="evenodd" d="M154,232l225,0l0,-48l-225,0l0,48Z" class="g1_352" />
<g clip-path="url(#c1_352)">
<path fill-rule="evenodd" d="M162,208l209,0l0,-24l-209,0l0,24Z" class="g1_352" />
</g>
<path fill-rule="evenodd" d="M380,232l88,0l0,-48l-88,0l0,48Z" class="g1_352" />
<g clip-path="url(#c2_352)">
<path fill-rule="evenodd" d="M388,208l72,0l0,-24l-72,0l0,24Z" class="g1_352" />
</g>
<path fill-rule="evenodd" d="M469,232l66,0l0,-48l-66,0l0,48Z" class="g1_352" />
<g clip-path="url(#c3_352)">
<path fill-rule="evenodd" d="M477,208l51,0l0,-24l-51,0l0,24Z" class="g1_352" />
</g>
<path fill-rule="evenodd" d="M537,232l350,0l0,-48l-350,0l0,48Z" class="g1_352" />
<g clip-path="url(#c4_352)">
<path fill-rule="evenodd" d="M544,208l336,0l0,-24l-336,0l0,24Z" class="g1_352" />
</g>
<path fill-rule="evenodd" d="M544,232l336,0l0,-24l-336,0l0,24Z" class="g1_352" />
<path d="M46.5,184.5l0,-2" class="g2_352" />
<path d="M85.5,184.5l0,-2" class="g2_352" />
<path d="M119.5,184.5l0,-2" class="g2_352" />
<path d="M153.5,184.5l0,-2" class="g2_352" />
<path d="M154.5,184.5l225,0" class="g2_352" />
<path d="M379.5,184.5l0,-2" class="g2_352" />
<path d="M380.5,184.5l88,0" class="g2_352" />
<path d="M468.5,184.5l0,-2" class="g2_352" />
<path d="M469.5,184.5l66,0" class="g2_352" />
<path d="M535.5,184.5l0,-2" class="g2_352" />
<path d="M537.5,184.5l350,0" class="g2_352" />
<path d="M887.5,184.5l0,-2" class="g2_352" />
<path d="M46.5,232.5l0,-48" class="g2_352" />
<path d="M85.5,232.5l0,-48" class="g2_352" />
<path d="M119.5,232.5l0,-48" class="g2_352" />
<path d="M153.5,232.5l0,-48" class="g2_352" />
<path d="M379.5,232.5l0,-48" class="g2_352" />
<path d="M468.5,232.5l0,-48" class="g2_352" />
<path d="M535.5,232.5l0,-48" class="g2_352" />
<path d="M887.5,232.5l0,-48" class="g2_352" />
<path fill-rule="evenodd" d="M47,686l38,0L85,232l-38,0l0,454Z" class="g1_352" />
<path fill-rule="evenodd" d="M86,686l33,0l0,-454l-33,0l0,454Z" class="g1_352" />
<path fill-rule="evenodd" d="M120,686l33,0l0,-454l-33,0l0,454Z" class="g1_352" />
<path fill-rule="evenodd" d="M154,686l225,0l0,-453l-225,0l0,453Z" class="g1_352" />
<g clip-path="url(#c5_352)">
<path fill-rule="evenodd" d="M162,257l209,0l0,-24l-209,0l0,24Z" class="g1_352" />
</g>
<path fill-rule="evenodd" d="M380,686l88,0l0,-453l-88,0l0,453Z" class="g1_352" />
<g clip-path="url(#c6_352)">
<path fill-rule="evenodd" d="M388,257l72,0l0,-24l-72,0l0,24Z" class="g1_352" />
</g>
<path fill-rule="evenodd" d="M469,686l66,0l0,-453l-66,0l0,453Z" class="g1_352" />
<g clip-path="url(#c7_352)">
<path fill-rule="evenodd" d="M477,257l51,0l0,-24l-51,0l0,24Z" class="g1_352" />
</g>
<path fill-rule="evenodd" d="M537,686l350,0l0,-453l-350,0l0,453Z" class="g1_352" />
<g clip-path="url(#c8_352)">
<path fill-rule="evenodd" d="M544,257l336,0l0,-24l-336,0l0,24Z" class="g1_352" />
</g>
<path fill-rule="evenodd" d="M544,281l336,0l0,-24l-336,0l0,24Z" class="g1_352" />
<path fill-rule="evenodd" d="M544,305l336,0l0,-24l-336,0l0,24Z" class="g1_352" />
<path fill-rule="evenodd" d="M544,329l336,0l0,-24l-336,0l0,24Z" class="g1_352" />
<path fill-rule="evenodd" d="M544,352l336,0l0,-23l-336,0l0,23Z" class="g1_352" />
<path fill-rule="evenodd" d="M544,376l336,0l0,-24l-336,0l0,24Z" class="g1_352" />
<path fill-rule="evenodd" d="M544,400l336,0l0,-24l-336,0l0,24Z" class="g1_352" />
<path fill-rule="evenodd" d="M544,424l336,0l0,-24l-336,0l0,24Z" class="g1_352" />
<path fill-rule="evenodd" d="M544,448l336,0l0,-24l-336,0l0,24Z" class="g1_352" />
<path fill-rule="evenodd" d="M544,472l336,0l0,-24l-336,0l0,24Z" class="g1_352" />
<path fill-rule="evenodd" d="M544,495l336,0l0,-23l-336,0l0,23Z" class="g1_352" />
<path fill-rule="evenodd" d="M544,519l336,0l0,-24l-336,0l0,24Z" class="g1_352" />
<path fill-rule="evenodd" d="M544,543l336,0l0,-24l-336,0l0,24Z" class="g1_352" />
<path fill-rule="evenodd" d="M544,567l336,0l0,-24l-336,0l0,24Z" class="g1_352" />
<path fill-rule="evenodd" d="M544,591l336,0l0,-24l-336,0l0,24Z" class="g1_352" />
<path fill-rule="evenodd" d="M544,615l336,0l0,-24l-336,0l0,24Z" class="g1_352" />
<path d="M544.5,610.5l332,0" class="g3_352" />
<path fill-rule="evenodd" d="M544,638l336,0l0,-23l-336,0l0,23Z" class="g1_352" />
<path d="M544.5,634.5l335,0" class="g3_352" />
<path fill-rule="evenodd" d="M544,662l336,0l0,-24l-336,0l0,24Z" class="g1_352" />
<path d="M544.5,658.5l13,0" class="g3_352" />
<path fill-rule="evenodd" d="M544,686l336,0l0,-24l-336,0l0,24Z" class="g1_352" />
<path d="M46.5,233.5l0,-1" class="g2_352" />
<path d="M85.5,233.5l0,-1" class="g2_352" />
<path d="M119.5,233.5l0,-1" class="g2_352" />
<path d="M153.5,233.5l0,-1" class="g2_352" />
<path d="M154.5,233.5l225,0" class="g2_352" />
<path d="M379.5,233.5l0,-1" class="g2_352" />
<path d="M380.5,233.5l88,0" class="g2_352" />
<path d="M468.5,233.5l0,-1" class="g2_352" />
<path d="M469.5,233.5l66,0" class="g2_352" />
<path d="M535.5,233.5l0,-1" class="g2_352" />
<path d="M537.5,233.5l350,0" class="g2_352" />
<path d="M887.5,233.5l0,-1" class="g2_352" />
<path d="M46.5,686.5l0,-453" class="g2_352" />
<path d="M85.5,686.5l0,-453" class="g2_352" />
<path d="M119.5,686.5l0,-453" class="g2_352" />
<path d="M153.5,686.5l0,-453" class="g2_352" />
<path d="M379.5,686.5l0,-453" class="g2_352" />
<path d="M468.5,686.5l0,-453" class="g2_352" />
<path d="M535.5,686.5l0,-453" class="g2_352" />
<path d="M887.5,686.5l0,-453" class="g2_352" />
<path fill-rule="evenodd" d="M47,759l38,0l0,-73l-38,0l0,73Z" class="g1_352" />
<path fill-rule="evenodd" d="M86,759l33,0l0,-73l-33,0l0,73Z" class="g1_352" />
<path fill-rule="evenodd" d="M120,759l33,0l0,-73l-33,0l0,73Z" class="g1_352" />
<path fill-rule="evenodd" d="M154,759l225,0l0,-71l-225,0l0,71Z" class="g1_352" />
<g clip-path="url(#c9_352)">
<path fill-rule="evenodd" d="M162,711l209,0l0,-23l-209,0l0,23Z" class="g1_352" />
</g>
<path fill-rule="evenodd" d="M380,759l88,0l0,-71l-88,0l0,71Z" class="g1_352" />
<g clip-path="url(#c10_352)">
<path fill-rule="evenodd" d="M388,711l72,0l0,-23l-72,0l0,23Z" class="g1_352" />
</g>
<path fill-rule="evenodd" d="M469,759l66,0l0,-71l-66,0l0,71Z" class="g1_352" />
<g clip-path="url(#c11_352)">
<path fill-rule="evenodd" d="M477,711l51,0l0,-23l-51,0l0,23Z" class="g1_352" />
</g>
<path fill-rule="evenodd" d="M537,759l350,0l0,-71l-350,0l0,71Z" class="g1_352" />
<g clip-path="url(#c12_352)">
<path fill-rule="evenodd" d="M544,711l336,0l0,-23l-336,0l0,23Z" class="g1_352" />
</g>
<path fill-rule="evenodd" d="M544,735l336,0l0,-24l-336,0l0,24Z" class="g1_352" />
<path fill-rule="evenodd" d="M544,759l336,0l0,-24l-336,0l0,24Z" class="g1_352" />
<path d="M46.5,688.5l0,-2" class="g2_352" />
<path d="M85.5,688.5l0,-2" class="g2_352" />
<path d="M119.5,688.5l0,-2" class="g2_352" />
<path d="M153.5,688.5l0,-2" class="g2_352" />
<path d="M154.5,688.5l225,0" class="g2_352" />
<path d="M379.5,688.5l0,-2" class="g2_352" />
<path d="M380.5,688.5l88,0" class="g2_352" />
<path d="M468.5,688.5l0,-2" class="g2_352" />
<path d="M469.5,688.5l66,0" class="g2_352" />
<path d="M535.5,688.5l0,-2" class="g2_352" />
<path d="M537.5,688.5l350,0" class="g2_352" />
<path d="M887.5,688.5l0,-2" class="g2_352" />
<path d="M46.5,759.5l0,-71" class="g2_352" />
<path d="M46.5,761.5l0,-2" class="g2_352" />
<path d="M46.5,761.5l0,-2" class="g2_352" />
<path d="M47.5,761.5l38,0" class="g2_352" />
<path d="M85.5,759.5l0,-71" class="g2_352" />
<path d="M85.5,761.5l0,-2" class="g2_352" />
<path d="M86.5,761.5l33,0" class="g2_352" />
<path d="M119.5,759.5l0,-71" class="g2_352" />
<path d="M119.5,761.5l0,-2" class="g2_352" />
<path d="M120.5,761.5l33,0" class="g2_352" />
<path d="M153.5,759.5l0,-71" class="g2_352" />
<path d="M153.5,761.5l0,-2" class="g2_352" />
<path d="M154.5,761.5l225,0" class="g2_352" />
<path d="M379.5,759.5l0,-71" class="g2_352" />
<path d="M379.5,761.5l0,-2" class="g2_352" />
<path d="M380.5,761.5l88,0" class="g2_352" />
<path d="M468.5,759.5l0,-71" class="g2_352" />
<path d="M468.5,761.5l0,-2" class="g2_352" />
<path d="M469.5,761.5l66,0" class="g2_352" />
<path d="M535.5,759.5l0,-71" class="g2_352" />
<path d="M535.5,761.5l0,-2" class="g2_352" />
<path d="M537.5,761.5l350,0" class="g2_352" />
<path d="M887.5,759.5l0,-71" class="g2_352" />
<path d="M887.5,761.5l0,-2" class="g2_352" />
<path d="M887.5,761.5l0,-2" class="g2_352" />
</svg>