<?xml version="1.0" encoding="UTF-8" standalone="no"?>
<!DOCTYPE svg PUBLIC "-//W3C//DTD SVG 1.1//EN"
"http://www.w3.org/Graphics/SVG/1.1/DTD/svg11.dtd">
<svg version="1.1" xmlns="http://www.w3.org/2000/svg" xmlns:xlink="http://www.w3.org/1999/xlink">
<defs>
<clipPath id="c0_373"><path d="M47.5,135.5l0,-24l294,0l0,24Z" /></clipPath>
<clipPath id="c1_373"><path d="M342.5,135.5l0,-24l79,0l0,24Z" /></clipPath>
<clipPath id="c2_373"><path d="M422.5,135.5l0,-24l60,0l0,24Z" /></clipPath>
<clipPath id="c3_373"><path d="M484.5,135.5l0,-24l403,0l0,24Z" /></clipPath>
<clipPath id="c4_373"><path d="M47.5,857.5l0,-720l39,0l0,720Z" /></clipPath>
<clipPath id="c5_373"><path d="M88.5,161.5l0,-24l253,0l0,24Z" /></clipPath>
<clipPath id="c6_373"><path d="M342.5,161.5l0,-24l79,0l0,24Z" /></clipPath>
<clipPath id="c7_373"><path d="M422.5,161.5l0,-24l60,0l0,24Z" /></clipPath>
<clipPath id="c8_373"><path d="M484.5,161.5l0,-24l403,0l0,24Z" /></clipPath>
<clipPath id="c9_373"><path d="M88.5,186.5l0,-24l253,0l0,24Z" /></clipPath>
<clipPath id="c10_373"><path d="M342.5,186.5l0,-24l79,0l0,24Z" /></clipPath>
<clipPath id="c11_373"><path d="M422.5,186.5l0,-24l60,0l0,24Z" /></clipPath>
<clipPath id="c12_373"><path d="M484.5,186.5l0,-24l403,0l0,24Z" /></clipPath>
<clipPath id="c13_373"><path d="M88.5,857.5l0,-669l40,0l0,669Z" /></clipPath>
<clipPath id="c14_373"><path d="M129.5,857.5l0,-669l39,0l0,669Z" /></clipPath>
<clipPath id="c15_373"><path d="M169.5,301.5l0,-113l40,0l0,113Z" /></clipPath>
<clipPath id="c16_373"><path d="M210.5,301.5l0,-113l131,0l0,113Z" /></clipPath>
<clipPath id="c17_373"><path d="M342.5,301.5l0,-113l79,0l0,113Z" /></clipPath>
<clipPath id="c18_373"><path d="M422.5,301.5l0,-113l60,0l0,113Z" /></clipPath>
<clipPath id="c19_373"><path d="M484.5,301.5l0,-113l403,0l0,113Z" /></clipPath>
<clipPath id="c20_373"><path d="M210.5,541.5l0,-239l131,0l0,239Z" /></clipPath>
<clipPath id="c21_373"><path d="M342.5,541.5l0,-239l79,0l0,239Z" /></clipPath>
<clipPath id="c22_373"><path d="M422.5,541.5l0,-239l60,0l0,239Z" /></clipPath>
<clipPath id="c23_373"><path d="M484.5,541.5l0,-239l403,0l0,239Z" /></clipPath>
<clipPath id="c24_373"><path d="M169.5,758.5l0,-143l172,0l0,143Z" /></clipPath>
<clipPath id="c25_373"><path d="M342.5,758.5l0,-143l79,0l0,143Z" /></clipPath>
<clipPath id="c26_373"><path d="M422.5,758.5l0,-143l60,0l0,143Z" /></clipPath>
<clipPath id="c27_373"><path d="M484.5,758.5l0,-143l403,0l0,143Z" /></clipPath>
<clipPath id="c28_373"><path d="M169.5,808.5l0,-48l172,0l0,48Z" /></clipPath>
<clipPath id="c29_373"><path d="M342.5,808.5l0,-48l79,0l0,48Z" /></clipPath>
<clipPath id="c30_373"><path d="M422.5,808.5l0,-48l60,0l0,48Z" /></clipPath>
<clipPath id="c31_373"><path d="M484.5,808.5l0,-48l403,0l0,48Z" /></clipPath>
<clipPath id="c32_373"><path d="M169.5,857.5l0,-48l172,0l0,48Z" /></clipPath>
<clipPath id="c33_373"><path d="M342.5,857.5l0,-48l79,0l0,48Z" /></clipPath>
<clipPath id="c34_373"><path d="M422.5,857.5l0,-48l60,0l0,48Z" /></clipPath>
<clipPath id="c35_373"><path d="M484.5,857.5l0,-48l403,0l0,48Z" /></clipPath>
<clipPath id="c36_373"><path d="M47.5,979.5l0,-24l840,0l0,24Z" /></clipPath>
<clipPath id="c37_373"><path d="M47.5,1077.5l0,-71l840,0l0,71Z" /></clipPath>
<style type="text/css"><![CDATA[
.g2_373{
fill: none;
stroke: #7E7E7E;
stroke-width: 1;
stroke-linecap: butt;
stroke-linejoin: miter;
}
.g4_373{
fill: none;
stroke: #000000;
stroke-width: 1;
stroke-linecap: butt;
stroke-linejoin: miter;
}
.g3_373{
fill: #F1F1F1;
}
.g1_373{
fill: #DBE5F1;
}
]]></style>
</defs>
<path fill-rule="evenodd" d="M47,135l294,0l0,-24L47,111l0,24Z" class="g1_373" />
<g clip-path="url(#c0_373)">
<path fill-rule="evenodd" d="M55,135l278,0l0,-24L55,111l0,24Z" class="g1_373" />
</g>
<path fill-rule="evenodd" d="M342,135l79,0l0,-24l-79,0l0,24Z" class="g1_373" />
<g clip-path="url(#c1_373)">
<path fill-rule="evenodd" d="M350,135l63,0l0,-24l-63,0l0,24Z" class="g1_373" />
</g>
<path fill-rule="evenodd" d="M422,135l60,0l0,-24l-60,0l0,24Z" class="g1_373" />
<g clip-path="url(#c2_373)">
<path fill-rule="evenodd" d="M430,135l45,0l0,-24l-45,0l0,24Z" class="g1_373" />
</g>
<path fill-rule="evenodd" d="M484,135l403,0l0,-24l-403,0l0,24Z" class="g1_373" />
<g clip-path="url(#c3_373)">
<path fill-rule="evenodd" d="M491,135l389,0l0,-24l-389,0l0,24Z" class="g1_373" />
</g>
<path d="M46.5,111.5l0,-1" class="g2_373" />
<path d="M46.5,111.5l0,-1" class="g2_373" />
<path d="M47.5,111.5l294,0" class="g2_373" />
<path d="M341.5,111.5l0,-1" class="g2_373" />
<path d="M342.5,111.5l79,0" class="g2_373" />
<path d="M421.5,111.5l0,-1" class="g2_373" />
<path d="M422.5,111.5l60,0" class="g2_373" />
<path d="M482.5,111.5l0,-1" class="g2_373" />
<path d="M484.5,111.5l403,0" class="g2_373" />
<path d="M887.5,111.5l0,-1" class="g2_373" />
<path d="M887.5,111.5l0,-1" class="g2_373" />
<path d="M46.5,135.5l0,-24" class="g2_373" />
<path d="M341.5,135.5l0,-24" class="g2_373" />
<path d="M421.5,135.5l0,-24" class="g2_373" />
<path d="M482.5,135.5l0,-24" class="g2_373" />
<path d="M887.5,135.5l0,-24" class="g2_373" />
<path fill-rule="evenodd" d="M47,857l39,0L86,137l-39,0l0,720Z" class="g3_373" />
<g clip-path="url(#c4_373)">
<path fill-rule="evenodd" d="M55,857l23,0L78,137l-23,0l0,720Z" class="g3_373" />
</g>
<path fill-rule="evenodd" d="M88,161l253,0l0,-24L88,137l0,24Z" class="g3_373" />
<g clip-path="url(#c5_373)">
<path fill-rule="evenodd" d="M95,161l238,0l0,-24L95,137l0,24Z" class="g3_373" />
</g>
<path fill-rule="evenodd" d="M342,161l79,0l0,-24l-79,0l0,24Z" class="g3_373" />
<g clip-path="url(#c6_373)">
<path fill-rule="evenodd" d="M350,161l63,0l0,-24l-63,0l0,24Z" class="g3_373" />
</g>
<path fill-rule="evenodd" d="M422,161l60,0l0,-24l-60,0l0,24Z" class="g3_373" />
<g clip-path="url(#c7_373)">
<path fill-rule="evenodd" d="M430,161l45,0l0,-24l-45,0l0,24Z" class="g3_373" />
</g>
<path fill-rule="evenodd" d="M484,161l403,0l0,-24l-403,0l0,24Z" class="g3_373" />
<g clip-path="url(#c8_373)">
<path fill-rule="evenodd" d="M491,161l389,0l0,-24l-389,0l0,24Z" class="g3_373" />
</g>
<path d="M46.5,137.5l0,-2" class="g2_373" />
<path d="M47.5,137.5l39,0" class="g2_373" />
<path d="M86.5,137.5l0,-2" class="g2_373" />
<path d="M88.5,137.5l253,0" class="g2_373" />
<path d="M341.5,137.5l0,-2" class="g2_373" />
<path d="M342.5,137.5l79,0" class="g2_373" />
<path d="M421.5,137.5l0,-2" class="g2_373" />
<path d="M422.5,137.5l60,0" class="g2_373" />
<path d="M482.5,137.5l0,-2" class="g2_373" />
<path d="M484.5,137.5l403,0" class="g2_373" />
<path d="M887.5,137.5l0,-2" class="g2_373" />
<path d="M46.5,161.5l0,-24" class="g2_373" />
<path d="M86.5,161.5l0,-24" class="g2_373" />
<path d="M341.5,161.5l0,-24" class="g2_373" />
<path d="M421.5,161.5l0,-24" class="g2_373" />
<path d="M482.5,161.5l0,-24" class="g2_373" />
<path d="M887.5,161.5l0,-24" class="g2_373" />
<path fill-rule="evenodd" d="M88,186l253,0l0,-24L88,162l0,24Z" class="g3_373" />
<g clip-path="url(#c9_373)">
<path fill-rule="evenodd" d="M95,186l238,0l0,-24L95,162l0,24Z" class="g3_373" />
</g>
<path fill-rule="evenodd" d="M342,186l79,0l0,-24l-79,0l0,24Z" class="g3_373" />
<g clip-path="url(#c10_373)">
<path fill-rule="evenodd" d="M350,186l63,0l0,-24l-63,0l0,24Z" class="g3_373" />
</g>
<path fill-rule="evenodd" d="M422,186l60,0l0,-24l-60,0l0,24Z" class="g3_373" />
<g clip-path="url(#c11_373)">
<path fill-rule="evenodd" d="M430,186l45,0l0,-24l-45,0l0,24Z" class="g3_373" />
</g>
<path fill-rule="evenodd" d="M484,186l403,0l0,-24l-403,0l0,24Z" class="g3_373" />
<g clip-path="url(#c12_373)">
<path fill-rule="evenodd" d="M491,186l389,0l0,-24l-389,0l0,24Z" class="g3_373" />
</g>
<path d="M46.5,162.5l0,-1" class="g2_373" />
<path d="M86.5,162.5l0,-1" class="g2_373" />
<path d="M88.5,162.5l253,0" class="g2_373" />
<path d="M341.5,162.5l0,-1" class="g2_373" />
<path d="M342.5,162.5l79,0" class="g2_373" />
<path d="M421.5,162.5l0,-1" class="g2_373" />
<path d="M422.5,162.5l60,0" class="g2_373" />
<path d="M482.5,162.5l0,-1" class="g2_373" />
<path d="M484.5,162.5l403,0" class="g2_373" />
<path d="M887.5,162.5l0,-1" class="g2_373" />
<path d="M46.5,186.5l0,-24" class="g2_373" />
<path d="M86.5,186.5l0,-24" class="g2_373" />
<path d="M341.5,186.5l0,-24" class="g2_373" />
<path d="M421.5,186.5l0,-24" class="g2_373" />
<path d="M482.5,186.5l0,-24" class="g2_373" />
<path d="M887.5,186.5l0,-24" class="g2_373" />
<path fill-rule="evenodd" d="M88,857l40,0l0,-669l-40,0l0,669Z" class="g3_373" />
<g clip-path="url(#c13_373)">
<path fill-rule="evenodd" d="M95,857l24,0l0,-669l-24,0l0,669Z" class="g3_373" />
</g>
<path fill-rule="evenodd" d="M129,857l39,0l0,-669l-39,0l0,669Z" class="g3_373" />
<g clip-path="url(#c14_373)">
<path fill-rule="evenodd" d="M136,857l24,0l0,-669l-24,0l0,669Z" class="g3_373" />
</g>
<path fill-rule="evenodd" d="M169,301l40,0l0,-113l-40,0l0,113Z" class="g3_373" />
<g clip-path="url(#c15_373)">
<path fill-rule="evenodd" d="M177,301l24,0l0,-113l-24,0l0,113Z" class="g3_373" />
</g>
<path fill-rule="evenodd" d="M210,301l131,0l0,-113l-131,0l0,113Z" class="g3_373" />
<g clip-path="url(#c16_373)">
<path fill-rule="evenodd" d="M218,211l115,0l0,-23l-115,0l0,23Z" class="g3_373" />
</g>
<path fill-rule="evenodd" d="M342,301l79,0l0,-113l-79,0l0,113Z" class="g3_373" />
<g clip-path="url(#c17_373)">
<path fill-rule="evenodd" d="M350,211l63,0l0,-23l-63,0l0,23Z" class="g3_373" />
</g>
<path fill-rule="evenodd" d="M422,301l60,0l0,-113l-60,0l0,113Z" class="g3_373" />
<g clip-path="url(#c18_373)">
<path fill-rule="evenodd" d="M430,211l45,0l0,-23l-45,0l0,23Z" class="g3_373" />
</g>
<path fill-rule="evenodd" d="M484,301l403,0l0,-113l-403,0l0,113Z" class="g3_373" />
<g clip-path="url(#c19_373)">
<path fill-rule="evenodd" d="M491,211l389,0l0,-23l-389,0l0,23Z" class="g3_373" />
</g>
<path fill-rule="evenodd" d="M491,235l389,0l0,-24l-389,0l0,24Z" class="g3_373" />
<path d="M46.5,188.5l0,-2" class="g2_373" />
<path d="M86.5,188.5l0,-2" class="g2_373" />
<path d="M88.5,188.5l39,0" class="g2_373" />
<path d="M127.5,188.5l0,-2" class="g2_373" />
<path d="M129.5,188.5l39,0" class="g2_373" />
<path d="M168.5,188.5l0,-2" class="g2_373" />
<path d="M170.5,188.5l39,0" class="g2_373" />
<path d="M209.5,188.5l0,-2" class="g2_373" />
<path d="M211.5,188.5l130,0" class="g2_373" />
<path d="M341.5,188.5l0,-2" class="g2_373" />
<path d="M342.5,188.5l79,0" class="g2_373" />
<path d="M421.5,188.5l0,-2" class="g2_373" />
<path d="M422.5,188.5l60,0" class="g2_373" />
<path d="M482.5,188.5l0,-2" class="g2_373" />
<path d="M484.5,188.5l403,0" class="g2_373" />
<path d="M887.5,188.5l0,-2" class="g2_373" />
<path d="M46.5,301.5l0,-113" class="g2_373" />
<path d="M86.5,301.5l0,-113" class="g2_373" />
<path d="M127.5,301.5l0,-113" class="g2_373" />
<path d="M168.5,301.5l0,-113" class="g2_373" />
<path d="M209.5,301.5l0,-113" class="g4_373" />
<path d="M341.5,301.5l0,-113" class="g2_373" />
<path d="M421.5,301.5l0,-113" class="g2_373" />
<path d="M482.5,301.5l0,-113" class="g2_373" />
<path d="M887.5,301.5l0,-113" class="g2_373" />
<path fill-rule="evenodd" d="M169,541l40,0l0,-239l-40,0l0,239Z" class="g3_373" />
<path fill-rule="evenodd" d="M177,541l24,0l0,-239l-24,0l0,239Z" class="g3_373" />
<path fill-rule="evenodd" d="M210,541l131,0l0,-239l-131,0l0,239Z" class="g3_373" />
<g clip-path="url(#c20_373)">
<path fill-rule="evenodd" d="M218,326l115,0l0,-24l-115,0l0,24Z" class="g3_373" />
</g>
<path fill-rule="evenodd" d="M342,541l79,0l0,-239l-79,0l0,239Z" class="g3_373" />
<g clip-path="url(#c21_373)">
<path fill-rule="evenodd" d="M350,326l63,0l0,-24l-63,0l0,24Z" class="g3_373" />
</g>
<path fill-rule="evenodd" d="M422,541l60,0l0,-239l-60,0l0,239Z" class="g3_373" />
<g clip-path="url(#c22_373)">
<path fill-rule="evenodd" d="M430,326l45,0l0,-24l-45,0l0,24Z" class="g3_373" />
</g>
<path fill-rule="evenodd" d="M484,541l403,0l0,-239l-403,0l0,239Z" class="g3_373" />
<g clip-path="url(#c23_373)">
<path fill-rule="evenodd" d="M491,326l389,0l0,-24l-389,0l0,24Z" class="g3_373" />
</g>
<path fill-rule="evenodd" d="M491,350l389,0l0,-24l-389,0l0,24Z" class="g3_373" />
<path fill-rule="evenodd" d="M491,374l389,0l0,-24l-389,0l0,24Z" class="g3_373" />
<path fill-rule="evenodd" d="M491,398l389,0l0,-24l-389,0l0,24Z" class="g3_373" />
<path fill-rule="evenodd" d="M491,422l389,0l0,-24l-389,0l0,24Z" class="g3_373" />
<path fill-rule="evenodd" d="M491,445l389,0l0,-23l-389,0l0,23Z" class="g3_373" />
<path fill-rule="evenodd" d="M491,469l389,0l0,-24l-389,0l0,24Z" class="g3_373" />
<path fill-rule="evenodd" d="M491,493l389,0l0,-24l-389,0l0,24Z" class="g3_373" />
<path fill-rule="evenodd" d="M491,517l389,0l0,-24l-389,0l0,24Z" class="g3_373" />
<path fill-rule="evenodd" d="M491,541l389,0l0,-24l-389,0l0,24Z" class="g3_373" />
<path d="M46.5,302.5l0,-1" class="g2_373" />
<path d="M86.5,302.5l0,-1" class="g2_373" />
<path d="M127.5,302.5l0,-1" class="g2_373" />
<path d="M168.5,302.5l0,-1" class="g2_373" />
<path d="M170.5,302.5l39,0" class="g2_373" />
<path d="M209.5,302.5l0,-1" class="g2_373" />
<path d="M211.5,302.5l130,0" class="g2_373" />
<path d="M341.5,302.5l0,-1" class="g2_373" />
<path d="M342.5,302.5l79,0" class="g2_373" />
<path d="M421.5,302.5l0,-1" class="g2_373" />
<path d="M422.5,302.5l60,0" class="g2_373" />
<path d="M482.5,302.5l0,-1" class="g2_373" />
<path d="M484.5,302.5l403,0" class="g2_373" />
<path d="M887.5,302.5l0,-1" class="g2_373" />
<path d="M46.5,541.5l0,-239" class="g2_373" />
<path d="M86.5,541.5l0,-239" class="g2_373" />
<path d="M127.5,541.5l0,-239" class="g2_373" />
<path d="M168.5,541.5l0,-239" class="g2_373" />
<path d="M209.5,541.5l0,-239" class="g4_373" />
<path d="M341.5,541.5l0,-239" class="g2_373" />
<path d="M421.5,541.5l0,-239" class="g2_373" />
<path d="M482.5,541.5l0,-239" class="g2_373" />
<path d="M887.5,541.5l0,-239" class="g2_373" />
<path fill-rule="evenodd" d="M169,614l172,0l0,-72l-172,0l0,72Z" class="g3_373" />
<path fill-rule="evenodd" d="M177,566l156,0l0,-24l-156,0l0,24Z" class="g3_373" />
<path fill-rule="evenodd" d="M342,614l79,0l0,-72l-79,0l0,72Z" class="g3_373" />
<path fill-rule="evenodd" d="M350,566l63,0l0,-24l-63,0l0,24Z" class="g3_373" />
<path fill-rule="evenodd" d="M422,614l60,0l0,-72l-60,0l0,72Z" class="g3_373" />
<path fill-rule="evenodd" d="M430,566l45,0l0,-24l-45,0l0,24Z" class="g3_373" />
<path fill-rule="evenodd" d="M484,614l403,0l0,-72l-403,0l0,72Z" class="g3_373" />
<path fill-rule="evenodd" d="M491,566l389,0l0,-24l-389,0l0,24Z" class="g3_373" />
<path fill-rule="evenodd" d="M491,590l389,0l0,-24l-389,0l0,24Z" class="g3_373" />
<path fill-rule="evenodd" d="M491,614l389,0l0,-24l-389,0l0,24Z" class="g3_373" />
<path d="M46.5,542.5l0,-1" class="g2_373" />
<path d="M86.5,542.5l0,-1" class="g2_373" />
<path d="M127.5,542.5l0,-1" class="g2_373" />
<path d="M168.5,542.5l0,-1" class="g2_373" />
<path d="M168.5,542.5l0,-1" class="g2_373" />
<path d="M170.5,542.5l39,0" class="g2_373" />
<path d="M209.5,542.5l0,-1" class="g2_373" />
<path d="M211.5,542.5l130,0" class="g2_373" />
<path d="M341.5,542.5l0,-1" class="g2_373" />
<path d="M342.5,542.5l79,0" class="g2_373" />
<path d="M421.5,542.5l0,-1" class="g2_373" />
<path d="M422.5,542.5l60,0" class="g2_373" />
<path d="M482.5,542.5l0,-1" class="g2_373" />
<path d="M484.5,542.5l403,0" class="g2_373" />
<path d="M887.5,542.5l0,-1" class="g2_373" />
<path d="M46.5,614.5l0,-72" class="g2_373" />
<path d="M86.5,614.5l0,-72" class="g2_373" />
<path d="M127.5,614.5l0,-72" class="g2_373" />
<path d="M168.5,614.5l0,-72" class="g4_373" />
<path d="M341.5,614.5l0,-72" class="g2_373" />
<path d="M421.5,614.5l0,-72" class="g2_373" />
<path d="M482.5,614.5l0,-72" class="g2_373" />
<path d="M887.5,614.5l0,-72" class="g2_373" />
<path fill-rule="evenodd" d="M169,758l172,0l0,-143l-172,0l0,143Z" class="g3_373" />
<g clip-path="url(#c24_373)">
<path fill-rule="evenodd" d="M177,639l156,0l0,-24l-156,0l0,24Z" class="g3_373" />
</g>
<path fill-rule="evenodd" d="M342,758l79,0l0,-143l-79,0l0,143Z" class="g3_373" />
<g clip-path="url(#c25_373)">
<path fill-rule="evenodd" d="M350,639l63,0l0,-24l-63,0l0,24Z" class="g3_373" />
</g>
<path fill-rule="evenodd" d="M422,758l60,0l0,-143l-60,0l0,143Z" class="g3_373" />
<g clip-path="url(#c26_373)">
<path fill-rule="evenodd" d="M430,639l45,0l0,-24l-45,0l0,24Z" class="g3_373" />
</g>
<path fill-rule="evenodd" d="M484,758l403,0l0,-143l-403,0l0,143Z" class="g3_373" />
<g clip-path="url(#c27_373)">
<path fill-rule="evenodd" d="M491,639l389,0l0,-24l-389,0l0,24Z" class="g3_373" />
</g>
<path fill-rule="evenodd" d="M491,663l389,0l0,-24l-389,0l0,24Z" class="g3_373" />
<path fill-rule="evenodd" d="M491,687l389,0l0,-24l-389,0l0,24Z" class="g3_373" />
<path fill-rule="evenodd" d="M491,711l389,0l0,-24l-389,0l0,24Z" class="g3_373" />
<path fill-rule="evenodd" d="M491,734l389,0l0,-23l-389,0l0,23Z" class="g3_373" />
<path fill-rule="evenodd" d="M491,758l389,0l0,-24l-389,0l0,24Z" class="g3_373" />
<path d="M46.5,615.5l0,-1" class="g2_373" />
<path d="M86.5,615.5l0,-1" class="g2_373" />
<path d="M127.5,615.5l0,-1" class="g2_373" />
<path d="M168.5,615.5l0,-1" class="g4_373" />
<path d="M169.5,615.5l172,0" class="g2_373" />
<path d="M341.5,615.5l0,-1" class="g2_373" />
<path d="M342.5,615.5l79,0" class="g2_373" />
<path d="M421.5,615.5l0,-1" class="g2_373" />
<path d="M422.5,615.5l60,0" class="g2_373" />
<path d="M482.5,615.5l0,-1" class="g2_373" />
<path d="M484.5,615.5l403,0" class="g2_373" />
<path d="M887.5,615.5l0,-1" class="g2_373" />
<path d="M46.5,758.5l0,-143" class="g2_373" />
<path d="M86.5,758.5l0,-143" class="g2_373" />
<path d="M127.5,758.5l0,-143" class="g2_373" />
<path d="M168.5,758.5l0,-143" class="g4_373" />
<path d="M341.5,758.5l0,-143" class="g2_373" />
<path d="M421.5,758.5l0,-143" class="g2_373" />
<path d="M482.5,758.5l0,-143" class="g2_373" />
<path d="M887.5,758.5l0,-143" class="g2_373" />
<path fill-rule="evenodd" d="M169,808l172,0l0,-48l-172,0l0,48Z" class="g3_373" />
<g clip-path="url(#c28_373)">
<path fill-rule="evenodd" d="M177,784l156,0l0,-24l-156,0l0,24Z" class="g3_373" />
</g>
<path fill-rule="evenodd" d="M342,808l79,0l0,-48l-79,0l0,48Z" class="g3_373" />
<g clip-path="url(#c29_373)">
<path fill-rule="evenodd" d="M350,784l63,0l0,-24l-63,0l0,24Z" class="g3_373" />
</g>
<path fill-rule="evenodd" d="M422,808l60,0l0,-48l-60,0l0,48Z" class="g3_373" />
<g clip-path="url(#c30_373)">
<path fill-rule="evenodd" d="M430,784l45,0l0,-24l-45,0l0,24Z" class="g3_373" />
</g>
<path fill-rule="evenodd" d="M484,808l403,0l0,-48l-403,0l0,48Z" class="g3_373" />
<g clip-path="url(#c31_373)">
<path fill-rule="evenodd" d="M491,784l389,0l0,-24l-389,0l0,24Z" class="g3_373" />
</g>
<path fill-rule="evenodd" d="M491,808l389,0l0,-24l-389,0l0,24Z" class="g3_373" />
<path d="M46.5,760.5l0,-2" class="g2_373" />
<path d="M86.5,760.5l0,-2" class="g2_373" />
<path d="M127.5,760.5l0,-2" class="g2_373" />
<path d="M168.5,760.5l0,-2" class="g4_373" />
<path d="M169.5,760.5l172,0" class="g2_373" />
<path d="M341.5,760.5l0,-2" class="g2_373" />
<path d="M342.5,760.5l79,0" class="g2_373" />
<path d="M421.5,760.5l0,-2" class="g2_373" />
<path d="M422.5,760.5l60,0" class="g2_373" />
<path d="M482.5,760.5l0,-2" class="g2_373" />
<path d="M484.5,760.5l403,0" class="g2_373" />
<path d="M887.5,760.5l0,-2" class="g2_373" />
<path d="M46.5,808.5l0,-48" class="g2_373" />
<path d="M86.5,808.5l0,-48" class="g2_373" />
<path d="M127.5,808.5l0,-48" class="g2_373" />
<path d="M168.5,808.5l0,-48" class="g4_373" />
<path d="M341.5,808.5l0,-48" class="g2_373" />
<path d="M421.5,808.5l0,-48" class="g2_373" />
<path d="M482.5,808.5l0,-48" class="g2_373" />
<path d="M887.5,808.5l0,-48" class="g2_373" />
<path fill-rule="evenodd" d="M169,857l172,0l0,-48l-172,0l0,48Z" class="g3_373" />
<g clip-path="url(#c32_373)">
<path fill-rule="evenodd" d="M177,833l156,0l0,-24l-156,0l0,24Z" class="g3_373" />
</g>
<path fill-rule="evenodd" d="M342,857l79,0l0,-48l-79,0l0,48Z" class="g3_373" />
<g clip-path="url(#c33_373)">
<path fill-rule="evenodd" d="M350,833l63,0l0,-24l-63,0l0,24Z" class="g3_373" />
</g>
<path fill-rule="evenodd" d="M422,857l60,0l0,-48l-60,0l0,48Z" class="g3_373" />
<g clip-path="url(#c34_373)">
<path fill-rule="evenodd" d="M430,833l45,0l0,-24l-45,0l0,24Z" class="g3_373" />
</g>
<path fill-rule="evenodd" d="M484,857l403,0l0,-48l-403,0l0,48Z" class="g3_373" />
<g clip-path="url(#c35_373)">
<path fill-rule="evenodd" d="M491,833l389,0l0,-24l-389,0l0,24Z" class="g3_373" />
</g>
<path fill-rule="evenodd" d="M491,857l389,0l0,-24l-389,0l0,24Z" class="g3_373" />
<path d="M46.5,809.5l0,-1" class="g2_373" />
<path d="M86.5,809.5l0,-1" class="g2_373" />
<path d="M127.5,809.5l0,-1" class="g2_373" />
<path d="M168.5,809.5l0,-1" class="g4_373" />
<path d="M169.5,809.5l172,0" class="g2_373" />
<path d="M341.5,809.5l0,-1" class="g2_373" />
<path d="M342.5,809.5l79,0" class="g2_373" />
<path d="M421.5,809.5l0,-1" class="g2_373" />
<path d="M422.5,809.5l60,0" class="g2_373" />
<path d="M482.5,809.5l0,-1" class="g2_373" />
<path d="M484.5,809.5l403,0" class="g2_373" />
<path d="M887.5,809.5l0,-1" class="g2_373" />
<path d="M46.5,857.5l0,-48" class="g2_373" />
<path d="M46.5,858.5l0,-1" class="g2_373" />
<path d="M46.5,858.5l0,-1" class="g2_373" />
<path d="M47.5,858.5l39,0" class="g2_373" />
<path d="M86.5,857.5l0,-48" class="g2_373" />
<path d="M86.5,858.5l0,-1" class="g2_373" />
<path d="M88.5,858.5l39,0" class="g2_373" />
<path d="M127.5,857.5l0,-48" class="g2_373" />
<path d="M127.5,858.5l0,-1" class="g2_373" />
<path d="M129.5,858.5l39,0" class="g2_373" />
<path d="M168.5,857.5l0,-48" class="g4_373" />
<path d="M168.5,858.5l0,-1" class="g2_373" />
<path d="M170.5,858.5l171,0" class="g2_373" />
<path d="M341.5,857.5l0,-48" class="g2_373" />
<path d="M341.5,858.5l0,-1" class="g2_373" />
<path d="M342.5,858.5l79,0" class="g2_373" />
<path d="M421.5,857.5l0,-48" class="g2_373" />
<path d="M421.5,858.5l0,-1" class="g2_373" />
<path d="M422.5,858.5l60,0" class="g2_373" />
<path d="M482.5,857.5l0,-48" class="g2_373" />
<path d="M482.5,858.5l0,-1" class="g2_373" />
<path d="M484.5,858.5l403,0" class="g2_373" />
<path d="M887.5,857.5l0,-48" class="g2_373" />
<path d="M887.5,858.5l0,-1" class="g2_373" />
<path d="M887.5,858.5l0,-1" class="g2_373" />
<path fill-rule="evenodd" d="M47,979l840,0l0,-24L47,955l0,24Z" class="g3_373" />
<g clip-path="url(#c36_373)">
<path fill-rule="evenodd" d="M55,979l825,0l0,-24L55,955l0,24Z" class="g3_373" />
</g>
<path d="M46.5,955.5l0,-1" class="g2_373" />
<path d="M46.5,955.5l0,-1" class="g2_373" />
<path d="M47.5,955.5l840,0" class="g2_373" />
<path d="M887.5,955.5l0,-1" class="g2_373" />
<path d="M887.5,955.5l0,-1" class="g2_373" />
<path d="M46.5,979.5l0,-24" class="g2_373" />
<path d="M46.5,980.5l0,-1" class="g2_373" />
<path d="M46.5,980.5l0,-1" class="g2_373" />
<path d="M47.5,980.5l840,0" class="g2_373" />
<path d="M887.5,979.5l0,-24" class="g2_373" />
<path d="M887.5,980.5l0,-1" class="g2_373" />
<path d="M887.5,980.5l0,-1" class="g2_373" />
<path fill-rule="evenodd" d="M47,1077l840,0l0,-71l-840,0l0,71Z" class="g3_373" />
<path fill-rule="evenodd" d="M55,1030l825,0l0,-24l-825,0l0,24Z" class="g3_373" />
<path fill-rule="evenodd" d="M55,1053l825,0l0,-23l-825,0l0,23Z" class="g3_373" />
<g clip-path="url(#c37_373)">
<path fill-rule="evenodd" d="M55,1077l825,0l0,-24l-825,0l0,24Z" class="g3_373" />
</g>
<path d="M46.5,1006.5l0,-2" class="g2_373" />
<path d="M46.5,1006.5l0,-2" class="g2_373" />
<path d="M47.5,1006.5l840,0" class="g2_373" />
<path d="M887.5,1006.5l0,-2" class="g2_373" />
<path d="M887.5,1006.5l0,-2" class="g2_373" />
<path d="M46.5,1077.5l0,-71" class="g2_373" />
<path d="M46.5,1079.5l0,-2" class="g2_373" />
<path d="M46.5,1079.5l0,-2" class="g2_373" />
<path d="M47.5,1079.5l840,0" class="g2_373" />
<path d="M887.5,1077.5l0,-71" class="g2_373" />
<path d="M887.5,1079.5l0,-2" class="g2_373" />
<path d="M887.5,1079.5l0,-2" class="g2_373" />
</svg>