<?xml version="1.0" encoding="UTF-8" standalone="no"?>
<!DOCTYPE svg PUBLIC "-//W3C//DTD SVG 1.1//EN"
"http://www.w3.org/Graphics/SVG/1.1/DTD/svg11.dtd">
<svg version="1.1" xmlns="http://www.w3.org/2000/svg" xmlns:xlink="http://www.w3.org/1999/xlink">
<defs>
<clipPath id="c0_480"><path d="M47.5,230.5l0,-119l840,0l0,119Z" /></clipPath>
<clipPath id="c1_480"><path d="M47.5,567.5l0,-262l840,0l0,262Z" /></clipPath>
<clipPath id="c2_480"><path d="M47.5,699.5l0,-24l378,0l0,24Z" /></clipPath>
<clipPath id="c3_480"><path d="M427.5,699.5l0,-24l81,0l0,24Z" /></clipPath>
<clipPath id="c4_480"><path d="M509.5,699.5l0,-24l378,0l0,24Z" /></clipPath>
<clipPath id="c5_480"><path d="M47.5,1063.5l0,-362l41,0l0,362Z" /></clipPath>
<clipPath id="c6_480"><path d="M89.5,772.5l0,-71l336,0l0,71Z" /></clipPath>
<clipPath id="c7_480"><path d="M427.5,772.5l0,-71l81,0l0,71Z" /></clipPath>
<clipPath id="c8_480"><path d="M509.5,772.5l0,-71l378,0l0,71Z" /></clipPath>
<clipPath id="c9_480"><path d="M89.5,821.5l0,-47l336,0l0,47Z" /></clipPath>
<clipPath id="c10_480"><path d="M427.5,821.5l0,-47l81,0l0,47Z" /></clipPath>
<clipPath id="c11_480"><path d="M509.5,821.5l0,-47l378,0l0,47Z" /></clipPath>
<clipPath id="c12_480"><path d="M89.5,847.5l0,-24l336,0l0,24Z" /></clipPath>
<clipPath id="c13_480"><path d="M427.5,847.5l0,-24l81,0l0,24Z" /></clipPath>
<clipPath id="c14_480"><path d="M509.5,847.5l0,-24l378,0l0,24Z" /></clipPath>
<clipPath id="c15_480"><path d="M89.5,1063.5l0,-214l40,0l0,214Z" /></clipPath>
<clipPath id="c16_480"><path d="M131.5,1063.5l0,-214l39,0l0,214Z" /></clipPath>
<clipPath id="c17_480"><path d="M172.5,1063.5l0,-214l40,0l0,214Z" /></clipPath>
<clipPath id="c18_480"><path d="M213.5,1063.5l0,-214l212,0l0,214Z" /></clipPath>
<clipPath id="c19_480"><path d="M427.5,1063.5l0,-214l81,0l0,214Z" /></clipPath>
<clipPath id="c20_480"><path d="M509.5,1063.5l0,-214l378,0l0,214Z" /></clipPath>
<style type="text/css"><![CDATA[
.g2_480{
fill: none;
stroke: #7E7E7E;
stroke-width: 1;
stroke-linecap: butt;
stroke-linejoin: miter;
}
.g3_480{
fill: none;
stroke: #0000FF;
stroke-width: 1;
stroke-linecap: butt;
stroke-linejoin: miter;
}
.g4_480{
fill: #DBE5F1;
}
.g1_480{
fill: #F1F1F1;
}
]]></style>
</defs>
<path fill-rule="evenodd" d="M47,230l840,0l0,-119L47,111l0,119Z" class="g1_480" />
<g clip-path="url(#c0_480)">
<path fill-rule="evenodd" d="M55,135l825,0l0,-24L55,111l0,24Z" class="g1_480" />
</g>
<path fill-rule="evenodd" d="M55,159l825,0l0,-24L55,135l0,24Z" class="g1_480" />
<path fill-rule="evenodd" d="M55,182l825,0l0,-23L55,159l0,23Z" class="g1_480" />
<path fill-rule="evenodd" d="M55,206l825,0l0,-24L55,182l0,24Z" class="g1_480" />
<path fill-rule="evenodd" d="M55,230l825,0l0,-24L55,206l0,24Z" class="g1_480" />
<path d="M46.5,111.5l0,-1" class="g2_480" />
<path d="M46.5,111.5l0,-1" class="g2_480" />
<path d="M47.5,111.5l840,0" class="g2_480" />
<path d="M887.5,111.5l0,-1" class="g2_480" />
<path d="M887.5,111.5l0,-1" class="g2_480" />
<path d="M46.5,230.5l0,-119" class="g2_480" />
<path d="M46.5,232.5l0,-2" class="g2_480" />
<path d="M46.5,232.5l0,-2" class="g2_480" />
<path d="M47.5,232.5l840,0" class="g2_480" />
<path d="M887.5,230.5l0,-119" class="g2_480" />
<path d="M887.5,232.5l0,-2" class="g2_480" />
<path d="M887.5,232.5l0,-2" class="g2_480" />
<path fill-rule="evenodd" d="M47,567l840,0l0,-262L47,305l0,262Z" class="g1_480" />
<g clip-path="url(#c1_480)">
<path fill-rule="evenodd" d="M55,329l825,0l0,-24L55,305l0,24Z" class="g1_480" />
</g>
<path d="M87.5,324.5l751,0" class="g3_480" />
<path fill-rule="evenodd" d="M55,352l825,0l0,-23L55,329l0,23Z" class="g1_480" />
<path fill-rule="evenodd" d="M55,376l825,0l0,-24L55,352l0,24Z" class="g1_480" />
<path fill-rule="evenodd" d="M55,400l825,0l0,-24L55,376l0,24Z" class="g1_480" />
<path fill-rule="evenodd" d="M55,424l825,0l0,-24L55,400l0,24Z" class="g1_480" />
<path fill-rule="evenodd" d="M55,448l825,0l0,-24L55,424l0,24Z" class="g1_480" />
<path fill-rule="evenodd" d="M55,472l825,0l0,-24L55,448l0,24Z" class="g1_480" />
<path fill-rule="evenodd" d="M55,495l825,0l0,-23L55,472l0,23Z" class="g1_480" />
<path fill-rule="evenodd" d="M55,519l825,0l0,-24L55,495l0,24Z" class="g1_480" />
<path fill-rule="evenodd" d="M55,543l825,0l0,-24L55,519l0,24Z" class="g1_480" />
<path fill-rule="evenodd" d="M55,567l825,0l0,-24L55,543l0,24Z" class="g1_480" />
<path d="M46.5,305.5l0,-2" class="g2_480" />
<path d="M46.5,305.5l0,-2" class="g2_480" />
<path d="M47.5,305.5l840,0" class="g2_480" />
<path d="M887.5,305.5l0,-2" class="g2_480" />
<path d="M887.5,305.5l0,-2" class="g2_480" />
<path d="M46.5,567.5l0,-262" class="g2_480" />
<path d="M46.5,568.5l0,-1" class="g2_480" />
<path d="M46.5,568.5l0,-1" class="g2_480" />
<path d="M47.5,568.5l840,0" class="g2_480" />
<path d="M887.5,567.5l0,-262" class="g2_480" />
<path d="M887.5,568.5l0,-1" class="g2_480" />
<path d="M887.5,568.5l0,-1" class="g2_480" />
<path fill-rule="evenodd" d="M47,699l378,0l0,-24L47,675l0,24Z" class="g4_480" />
<g clip-path="url(#c2_480)">
<path fill-rule="evenodd" d="M55,699l363,0l0,-24L55,675l0,24Z" class="g4_480" />
</g>
<path fill-rule="evenodd" d="M427,699l81,0l0,-24l-81,0l0,24Z" class="g4_480" />
<g clip-path="url(#c3_480)">
<path fill-rule="evenodd" d="M434,699l66,0l0,-24l-66,0l0,24Z" class="g4_480" />
</g>
<path fill-rule="evenodd" d="M509,699l378,0l0,-24l-378,0l0,24Z" class="g4_480" />
<g clip-path="url(#c4_480)">
<path fill-rule="evenodd" d="M517,699l363,0l0,-24l-363,0l0,24Z" class="g4_480" />
</g>
<path d="M46.5,675.5l0,-2" class="g2_480" />
<path d="M46.5,675.5l0,-2" class="g2_480" />
<path d="M47.5,675.5l378,0" class="g2_480" />
<path d="M425.5,675.5l0,-2" class="g2_480" />
<path d="M427.5,675.5l81,0" class="g2_480" />
<path d="M508.5,675.5l0,-2" class="g2_480" />
<path d="M509.5,675.5l378,0" class="g2_480" />
<path d="M887.5,675.5l0,-2" class="g2_480" />
<path d="M887.5,675.5l0,-2" class="g2_480" />
<path d="M46.5,699.5l0,-24" class="g2_480" />
<path d="M425.5,699.5l0,-24" class="g2_480" />
<path d="M508.5,699.5l0,-24" class="g2_480" />
<path d="M887.5,699.5l0,-24" class="g2_480" />
<path fill-rule="evenodd" d="M47,1063l41,0L88,701l-41,0l0,362Z" class="g1_480" />
<g clip-path="url(#c5_480)">
<path fill-rule="evenodd" d="M55,1063l23,0L78,701l-23,0l0,362Z" class="g1_480" />
</g>
<path fill-rule="evenodd" d="M89,772l336,0l0,-71L89,701l0,71Z" class="g1_480" />
<g clip-path="url(#c6_480)">
<path fill-rule="evenodd" d="M97,725l321,0l0,-24L97,701l0,24Z" class="g1_480" />
</g>
<path fill-rule="evenodd" d="M427,772l81,0l0,-71l-81,0l0,71Z" class="g1_480" />
<g clip-path="url(#c7_480)">
<path fill-rule="evenodd" d="M434,725l66,0l0,-24l-66,0l0,24Z" class="g1_480" />
</g>
<path fill-rule="evenodd" d="M509,772l378,0l0,-71l-378,0l0,71Z" class="g1_480" />
<g clip-path="url(#c8_480)">
<path fill-rule="evenodd" d="M517,725l363,0l0,-24l-363,0l0,24Z" class="g1_480" />
</g>
<path fill-rule="evenodd" d="M517,748l363,0l0,-23l-363,0l0,23Z" class="g1_480" />
<path fill-rule="evenodd" d="M517,772l363,0l0,-24l-363,0l0,24Z" class="g1_480" />
<path d="M46.5,701.5l0,-2" class="g2_480" />
<path d="M47.5,701.5l41,0" class="g2_480" />
<path d="M88.5,701.5l0,-2" class="g2_480" />
<path d="M89.5,701.5l336,0" class="g2_480" />
<path d="M425.5,701.5l0,-2" class="g2_480" />
<path d="M427.5,701.5l81,0" class="g2_480" />
<path d="M508.5,701.5l0,-2" class="g2_480" />
<path d="M509.5,701.5l378,0" class="g2_480" />
<path d="M887.5,701.5l0,-2" class="g2_480" />
<path d="M46.5,772.5l0,-71" class="g2_480" />
<path d="M88.5,772.5l0,-71" class="g2_480" />
<path d="M425.5,772.5l0,-71" class="g2_480" />
<path d="M508.5,772.5l0,-71" class="g2_480" />
<path d="M887.5,772.5l0,-71" class="g2_480" />
<path fill-rule="evenodd" d="M89,821l336,0l0,-47L89,774l0,47Z" class="g1_480" />
<g clip-path="url(#c9_480)">
<path fill-rule="evenodd" d="M97,797l321,0l0,-23L97,774l0,23Z" class="g1_480" />
</g>
<path fill-rule="evenodd" d="M427,821l81,0l0,-47l-81,0l0,47Z" class="g1_480" />
<g clip-path="url(#c10_480)">
<path fill-rule="evenodd" d="M434,797l66,0l0,-23l-66,0l0,23Z" class="g1_480" />
</g>
<path fill-rule="evenodd" d="M509,821l378,0l0,-47l-378,0l0,47Z" class="g1_480" />
<g clip-path="url(#c11_480)">
<path fill-rule="evenodd" d="M517,797l363,0l0,-23l-363,0l0,23Z" class="g1_480" />
</g>
<path fill-rule="evenodd" d="M517,821l363,0l0,-24l-363,0l0,24Z" class="g1_480" />
<path d="M46.5,774.5l0,-2" class="g2_480" />
<path d="M88.5,774.5l0,-2" class="g2_480" />
<path d="M89.5,774.5l336,0" class="g2_480" />
<path d="M425.5,774.5l0,-2" class="g2_480" />
<path d="M427.5,774.5l81,0" class="g2_480" />
<path d="M508.5,774.5l0,-2" class="g2_480" />
<path d="M509.5,774.5l378,0" class="g2_480" />
<path d="M887.5,774.5l0,-2" class="g2_480" />
<path d="M46.5,821.5l0,-47" class="g2_480" />
<path d="M88.5,821.5l0,-47" class="g2_480" />
<path d="M425.5,821.5l0,-47" class="g2_480" />
<path d="M508.5,821.5l0,-47" class="g2_480" />
<path d="M887.5,821.5l0,-47" class="g2_480" />
<path fill-rule="evenodd" d="M89,847l336,0l0,-24L89,823l0,24Z" class="g1_480" />
<g clip-path="url(#c12_480)">
<path fill-rule="evenodd" d="M97,847l321,0l0,-24L97,823l0,24Z" class="g1_480" />
</g>
<path fill-rule="evenodd" d="M427,847l81,0l0,-24l-81,0l0,24Z" class="g1_480" />
<g clip-path="url(#c13_480)">
<path fill-rule="evenodd" d="M434,847l66,0l0,-24l-66,0l0,24Z" class="g1_480" />
</g>
<path fill-rule="evenodd" d="M509,847l378,0l0,-24l-378,0l0,24Z" class="g1_480" />
<g clip-path="url(#c14_480)">
<path fill-rule="evenodd" d="M517,847l363,0l0,-24l-363,0l0,24Z" class="g1_480" />
</g>
<path d="M46.5,823.5l0,-2" class="g2_480" />
<path d="M88.5,823.5l0,-2" class="g2_480" />
<path d="M89.5,823.5l336,0" class="g2_480" />
<path d="M425.5,823.5l0,-2" class="g2_480" />
<path d="M427.5,823.5l81,0" class="g2_480" />
<path d="M508.5,823.5l0,-2" class="g2_480" />
<path d="M509.5,823.5l378,0" class="g2_480" />
<path d="M887.5,823.5l0,-2" class="g2_480" />
<path d="M46.5,847.5l0,-24" class="g2_480" />
<path d="M88.5,847.5l0,-24" class="g2_480" />
<path d="M425.5,847.5l0,-24" class="g2_480" />
<path d="M508.5,847.5l0,-24" class="g2_480" />
<path d="M887.5,847.5l0,-24" class="g2_480" />
<path fill-rule="evenodd" d="M89,1063l40,0l0,-214l-40,0l0,214Z" class="g1_480" />
<g clip-path="url(#c15_480)">
<path fill-rule="evenodd" d="M97,1063l24,0l0,-214l-24,0l0,214Z" class="g1_480" />
</g>
<path fill-rule="evenodd" d="M131,1063l39,0l0,-214l-39,0l0,214Z" class="g1_480" />
<g clip-path="url(#c16_480)">
<path fill-rule="evenodd" d="M138,1063l24,0l0,-214l-24,0l0,214Z" class="g1_480" />
</g>
<path fill-rule="evenodd" d="M172,1063l40,0l0,-214l-40,0l0,214Z" class="g1_480" />
<g clip-path="url(#c17_480)">
<path fill-rule="evenodd" d="M179,1063l24,0l0,-214l-24,0l0,214Z" class="g1_480" />
</g>
<path fill-rule="evenodd" d="M213,1063l212,0l0,-214l-212,0l0,214Z" class="g1_480" />
<g clip-path="url(#c18_480)">
<path fill-rule="evenodd" d="M221,873l197,0l0,-24l-197,0l0,24Z" class="g1_480" />
</g>
<path fill-rule="evenodd" d="M427,1063l81,0l0,-214l-81,0l0,214Z" class="g1_480" />
<g clip-path="url(#c19_480)">
<path fill-rule="evenodd" d="M434,873l66,0l0,-24l-66,0l0,24Z" class="g1_480" />
</g>
<path fill-rule="evenodd" d="M509,1063l378,0l0,-214l-378,0l0,214Z" class="g1_480" />
<g clip-path="url(#c20_480)">
<path fill-rule="evenodd" d="M517,873l363,0l0,-24l-363,0l0,24Z" class="g1_480" />
</g>
<path fill-rule="evenodd" d="M517,896l363,0l0,-23l-363,0l0,23Z" class="g1_480" />
<path fill-rule="evenodd" d="M517,920l363,0l0,-24l-363,0l0,24Z" class="g1_480" />
<path fill-rule="evenodd" d="M517,944l363,0l0,-24l-363,0l0,24Z" class="g1_480" />
<path fill-rule="evenodd" d="M517,968l363,0l0,-24l-363,0l0,24Z" class="g1_480" />
<path fill-rule="evenodd" d="M517,992l363,0l0,-24l-363,0l0,24Z" class="g1_480" />
<path fill-rule="evenodd" d="M517,1016l363,0l0,-24l-363,0l0,24Z" class="g1_480" />
<path fill-rule="evenodd" d="M517,1040l363,0l0,-24l-363,0l0,24Z" class="g1_480" />
<g clip-path="url(#c20_480)">
<path fill-rule="evenodd" d="M517,1063l363,0l0,-23l-363,0l0,23Z" class="g1_480" />
</g>
<path d="M46.5,849.5l0,-2" class="g2_480" />
<path d="M88.5,849.5l0,-2" class="g2_480" />
<path d="M89.5,849.5l40,0" class="g2_480" />
<path d="M129.5,849.5l0,-2" class="g2_480" />
<path d="M131.5,849.5l39,0" class="g2_480" />
<path d="M170.5,849.5l0,-2" class="g2_480" />
<path d="M172.5,849.5l40,0" class="g2_480" />
<path d="M212.5,849.5l0,-2" class="g2_480" />
<path d="M213.5,849.5l212,0" class="g2_480" />
<path d="M425.5,849.5l0,-2" class="g2_480" />
<path d="M427.5,849.5l81,0" class="g2_480" />
<path d="M508.5,849.5l0,-2" class="g2_480" />
<path d="M509.5,849.5l378,0" class="g2_480" />
<path d="M887.5,849.5l0,-2" class="g2_480" />
<path d="M46.5,1063.5l0,-214" class="g2_480" />
<path d="M46.5,1065.5l0,-2" class="g2_480" />
<path d="M46.5,1065.5l0,-2" class="g2_480" />
<path d="M47.5,1065.5l41,0" class="g2_480" />
<path d="M88.5,1063.5l0,-214" class="g2_480" />
<path d="M88.5,1065.5l0,-2" class="g2_480" />
<path d="M89.5,1065.5l40,0" class="g2_480" />
<path d="M129.5,1063.5l0,-214" class="g2_480" />
<path d="M129.5,1065.5l0,-2" class="g2_480" />
<path d="M131.5,1065.5l39,0" class="g2_480" />
<path d="M170.5,1063.5l0,-214" class="g2_480" />
<path d="M170.5,1065.5l0,-2" class="g2_480" />
<path d="M172.5,1065.5l40,0" class="g2_480" />
<path d="M212.5,1063.5l0,-214" class="g2_480" />
<path d="M212.5,1065.5l0,-2" class="g2_480" />
<path d="M213.5,1065.5l212,0" class="g2_480" />
<path d="M425.5,1063.5l0,-214" class="g2_480" />
<path d="M425.5,1065.5l0,-2" class="g2_480" />
<path d="M427.5,1065.5l81,0" class="g2_480" />
<path d="M508.5,1063.5l0,-214" class="g2_480" />
<path d="M508.5,1065.5l0,-2" class="g2_480" />
<path d="M509.5,1065.5l378,0" class="g2_480" />
<path d="M887.5,1063.5l0,-214" class="g2_480" />
<path d="M887.5,1065.5l0,-2" class="g2_480" />
<path d="M887.5,1065.5l0,-2" class="g2_480" />
</svg>