<?xml version="1.0" encoding="UTF-8" standalone="no"?>
<!DOCTYPE svg PUBLIC "-//W3C//DTD SVG 1.1//EN"
"http://www.w3.org/Graphics/SVG/1.1/DTD/svg11.dtd">
<svg version="1.1" xmlns="http://www.w3.org/2000/svg" xmlns:xlink="http://www.w3.org/1999/xlink">
<defs>
<clipPath id="c0_335"><path d="M210.5,199.5l0,-88l133,0l0,88Z" /></clipPath>
<clipPath id="c1_335"><path d="M345.5,199.5l0,-88l115,0l0,88Z" /></clipPath>
<clipPath id="c2_335"><path d="M462.5,199.5l0,-88l425,0l0,88Z" /></clipPath>
<clipPath id="c3_335"><path d="M47.5,224.5l0,-24l296,0l0,24Z" /></clipPath>
<clipPath id="c4_335"><path d="M345.5,224.5l0,-24l115,0l0,24Z" /></clipPath>
<clipPath id="c5_335"><path d="M462.5,224.5l0,-24l425,0l0,24Z" /></clipPath>
<clipPath id="c6_335"><path d="M47.5,346.5l0,-23l840,0l0,23Z" /></clipPath>
<clipPath id="c7_335"><path d="M47.5,731.5l0,-358l840,0l0,358Z" /></clipPath>
<clipPath id="c8_335"><path d="M47.5,1092.5l0,-286l840,0l0,286Z" /></clipPath>
<style type="text/css"><![CDATA[
.g2_335{
fill: none;
stroke: #7E7E7E;
stroke-width: 1;
stroke-linecap: butt;
stroke-linejoin: miter;
}
.g1_335{
fill: #F1F1F1;
}
]]></style>
</defs>
<path fill-rule="evenodd" d="M47,199l39,0l0,-88l-39,0l0,88Z" class="g1_335" />
<path fill-rule="evenodd" d="M88,199l39,0l0,-88l-39,0l0,88Z" class="g1_335" />
<path fill-rule="evenodd" d="M129,199l39,0l0,-88l-39,0l0,88Z" class="g1_335" />
<path fill-rule="evenodd" d="M169,199l40,0l0,-88l-40,0l0,88Z" class="g1_335" />
<path fill-rule="evenodd" d="M210,199l133,0l0,-88l-133,0l0,88Z" class="g1_335" />
<g clip-path="url(#c0_335)">
<path fill-rule="evenodd" d="M218,135l118,0l0,-24l-118,0l0,24Z" class="g1_335" />
</g>
<path fill-rule="evenodd" d="M345,199l115,0l0,-88l-115,0l0,88Z" class="g1_335" />
<g clip-path="url(#c1_335)">
<path fill-rule="evenodd" d="M352,135l101,0l0,-24l-101,0l0,24Z" class="g1_335" />
</g>
<path fill-rule="evenodd" d="M462,199l425,0l0,-88l-425,0l0,88Z" class="g1_335" />
<g clip-path="url(#c2_335)">
<path fill-rule="evenodd" d="M469,135l411,0l0,-24l-411,0l0,24Z" class="g1_335" />
</g>
<path fill-rule="evenodd" d="M469,159l411,0l0,-24l-411,0l0,24Z" class="g1_335" />
<path d="M46.5,111.5l0,-1" class="g2_335" />
<path d="M46.5,111.5l0,-1" class="g2_335" />
<path d="M47.5,111.5l39,0" class="g2_335" />
<path d="M86.5,111.5l0,-1" class="g2_335" />
<path d="M88.5,111.5l39,0" class="g2_335" />
<path d="M127.5,111.5l0,-1" class="g2_335" />
<path d="M129.5,111.5l39,0" class="g2_335" />
<path d="M168.5,111.5l0,-1" class="g2_335" />
<path d="M169.5,111.5l40,0" class="g2_335" />
<path d="M209.5,111.5l0,-1" class="g2_335" />
<path d="M210.5,111.5l134,0" class="g2_335" />
<path d="M344.5,111.5l0,-1" class="g2_335" />
<path d="M345.5,111.5l115,0" class="g2_335" />
<path d="M460.5,111.5l0,-1" class="g2_335" />
<path d="M462.5,111.5l425,0" class="g2_335" />
<path d="M887.5,111.5l0,-1" class="g2_335" />
<path d="M887.5,111.5l0,-1" class="g2_335" />
<path d="M46.5,199.5l0,-88" class="g2_335" />
<path d="M86.5,199.5l0,-88" class="g2_335" />
<path d="M127.5,199.5l0,-88" class="g2_335" />
<path d="M168.5,199.5l0,-88" class="g2_335" />
<path d="M209.5,199.5l0,-88" class="g2_335" />
<path d="M344.5,199.5l0,-88" class="g2_335" />
<path d="M460.5,199.5l0,-88" class="g2_335" />
<path d="M887.5,199.5l0,-88" class="g2_335" />
<path fill-rule="evenodd" d="M47,224l296,0l0,-24L47,200l0,24Z" class="g1_335" />
<g clip-path="url(#c3_335)">
<path fill-rule="evenodd" d="M55,224l281,0l0,-24L55,200l0,24Z" class="g1_335" />
</g>
<path fill-rule="evenodd" d="M345,224l115,0l0,-24l-115,0l0,24Z" class="g1_335" />
<g clip-path="url(#c4_335)">
<path fill-rule="evenodd" d="M352,224l101,0l0,-24l-101,0l0,24Z" class="g1_335" />
</g>
<path fill-rule="evenodd" d="M462,224l425,0l0,-24l-425,0l0,24Z" class="g1_335" />
<g clip-path="url(#c5_335)">
<path fill-rule="evenodd" d="M469,224l411,0l0,-24l-411,0l0,24Z" class="g1_335" />
</g>
<path d="M46.5,200.5l0,-1" class="g2_335" />
<path d="M47.5,200.5l39,0" class="g2_335" />
<path d="M86.5,200.5l0,-1" class="g2_335" />
<path d="M88.5,200.5l39,0" class="g2_335" />
<path d="M127.5,200.5l0,-1" class="g2_335" />
<path d="M129.5,200.5l39,0" class="g2_335" />
<path d="M168.5,200.5l0,-1" class="g2_335" />
<path d="M169.5,200.5l40,0" class="g2_335" />
<path d="M209.5,200.5l0,-1" class="g2_335" />
<path d="M210.5,200.5l134,0" class="g2_335" />
<path d="M344.5,200.5l0,-1" class="g2_335" />
<path d="M345.5,200.5l115,0" class="g2_335" />
<path d="M460.5,200.5l0,-1" class="g2_335" />
<path d="M462.5,200.5l425,0" class="g2_335" />
<path d="M887.5,200.5l0,-1" class="g2_335" />
<path d="M46.5,224.5l0,-24" class="g2_335" />
<path d="M46.5,226.5l0,-2" class="g2_335" />
<path d="M46.5,226.5l0,-2" class="g2_335" />
<path d="M47.5,226.5l297,0" class="g2_335" />
<path d="M344.5,224.5l0,-24" class="g2_335" />
<path d="M344.5,226.5l0,-2" class="g2_335" />
<path d="M345.5,226.5l115,0" class="g2_335" />
<path d="M460.5,224.5l0,-24" class="g2_335" />
<path d="M460.5,226.5l0,-2" class="g2_335" />
<path d="M462.5,226.5l425,0" class="g2_335" />
<path d="M887.5,224.5l0,-24" class="g2_335" />
<path d="M887.5,226.5l0,-2" class="g2_335" />
<path d="M887.5,226.5l0,-2" class="g2_335" />
<path fill-rule="evenodd" d="M47,346l840,0l0,-23L47,323l0,23Z" class="g1_335" />
<g clip-path="url(#c6_335)">
<path fill-rule="evenodd" d="M55,346l825,0l0,-23L55,323l0,23Z" class="g1_335" />
</g>
<path d="M46.5,323.5l0,-2" class="g2_335" />
<path d="M46.5,323.5l0,-2" class="g2_335" />
<path d="M47.5,323.5l840,0" class="g2_335" />
<path d="M887.5,323.5l0,-2" class="g2_335" />
<path d="M887.5,323.5l0,-2" class="g2_335" />
<path d="M46.5,347.5l0,-24" class="g2_335" />
<path d="M46.5,348.5l0,-1" class="g2_335" />
<path d="M46.5,348.5l0,-1" class="g2_335" />
<path d="M47.5,348.5l840,0" class="g2_335" />
<path d="M887.5,347.5l0,-24" class="g2_335" />
<path d="M887.5,348.5l0,-1" class="g2_335" />
<path d="M887.5,348.5l0,-1" class="g2_335" />
<path fill-rule="evenodd" d="M47,731l840,0l0,-358L47,373l0,358Z" class="g1_335" />
<g clip-path="url(#c7_335)">
<path fill-rule="evenodd" d="M55,397l825,0l0,-24L55,373l0,24Z" class="g1_335" />
</g>
<path fill-rule="evenodd" d="M55,421l825,0l0,-24L55,397l0,24Z" class="g1_335" />
<path fill-rule="evenodd" d="M55,445l825,0l0,-24L55,421l0,24Z" class="g1_335" />
<path fill-rule="evenodd" d="M55,469l825,0l0,-24L55,445l0,24Z" class="g1_335" />
<path fill-rule="evenodd" d="M55,493l825,0l0,-24L55,469l0,24Z" class="g1_335" />
<path fill-rule="evenodd" d="M55,516l825,0l0,-23L55,493l0,23Z" class="g1_335" />
<path fill-rule="evenodd" d="M55,540l825,0l0,-24L55,516l0,24Z" class="g1_335" />
<path fill-rule="evenodd" d="M55,564l825,0l0,-24L55,540l0,24Z" class="g1_335" />
<path fill-rule="evenodd" d="M55,588l825,0l0,-24L55,564l0,24Z" class="g1_335" />
<path fill-rule="evenodd" d="M55,612l825,0l0,-24L55,588l0,24Z" class="g1_335" />
<path fill-rule="evenodd" d="M55,636l825,0l0,-24L55,612l0,24Z" class="g1_335" />
<path fill-rule="evenodd" d="M55,659l825,0l0,-23L55,636l0,23Z" class="g1_335" />
<path fill-rule="evenodd" d="M55,683l825,0l0,-24L55,659l0,24Z" class="g1_335" />
<path fill-rule="evenodd" d="M55,707l825,0l0,-24L55,683l0,24Z" class="g1_335" />
<path fill-rule="evenodd" d="M55,731l825,0l0,-24L55,707l0,24Z" class="g1_335" />
<path d="M46.5,373.5l0,-1" class="g2_335" />
<path d="M46.5,373.5l0,-1" class="g2_335" />
<path d="M47.5,373.5l840,0" class="g2_335" />
<path d="M887.5,373.5l0,-1" class="g2_335" />
<path d="M887.5,373.5l0,-1" class="g2_335" />
<path d="M46.5,731.5l0,-358" class="g2_335" />
<path d="M46.5,732.5l0,-1" class="g2_335" />
<path d="M46.5,732.5l0,-1" class="g2_335" />
<path d="M47.5,732.5l840,0" class="g2_335" />
<path d="M887.5,731.5l0,-358" class="g2_335" />
<path d="M887.5,732.5l0,-1" class="g2_335" />
<path d="M887.5,732.5l0,-1" class="g2_335" />
<path fill-rule="evenodd" d="M47,1092l840,0l0,-286L47,806l0,286Z" class="g1_335" />
<g clip-path="url(#c8_335)">
<path fill-rule="evenodd" d="M55,829l825,0l0,-23L55,806l0,23Z" class="g1_335" />
</g>
<path fill-rule="evenodd" d="M55,853l825,0l0,-24L55,829l0,24Z" class="g1_335" />
<path fill-rule="evenodd" d="M55,877l825,0l0,-24L55,853l0,24Z" class="g1_335" />
<path fill-rule="evenodd" d="M55,901l825,0l0,-24L55,877l0,24Z" class="g1_335" />
<path fill-rule="evenodd" d="M55,925l825,0l0,-24L55,901l0,24Z" class="g1_335" />
<path fill-rule="evenodd" d="M55,949l825,0l0,-24L55,925l0,24Z" class="g1_335" />
<path fill-rule="evenodd" d="M55,972l825,0l0,-23L55,949l0,23Z" class="g1_335" />
<path fill-rule="evenodd" d="M55,996l825,0l0,-24L55,972l0,24Z" class="g1_335" />
<path fill-rule="evenodd" d="M55,1020l825,0l0,-24L55,996l0,24Z" class="g1_335" />
<path fill-rule="evenodd" d="M55,1044l825,0l0,-24l-825,0l0,24Z" class="g1_335" />
<path fill-rule="evenodd" d="M55,1068l825,0l0,-24l-825,0l0,24Z" class="g1_335" />
<g clip-path="url(#c8_335)">
<path fill-rule="evenodd" d="M55,1092l825,0l0,-24l-825,0l0,24Z" class="g1_335" />
</g>
<path d="M46.5,805.5l0,-1" class="g2_335" />
<path d="M46.5,805.5l0,-1" class="g2_335" />
<path d="M47.5,805.5l840,0" class="g2_335" />
<path d="M887.5,805.5l0,-1" class="g2_335" />
<path d="M887.5,805.5l0,-1" class="g2_335" />
<path d="M46.5,1092.5l0,-287" class="g2_335" />
<path d="M46.5,1093.5l0,-1" class="g2_335" />
<path d="M46.5,1093.5l0,-1" class="g2_335" />
<path d="M47.5,1093.5l840,0" class="g2_335" />
<path d="M887.5,1092.5l0,-287" class="g2_335" />
<path d="M887.5,1093.5l0,-1" class="g2_335" />
<path d="M887.5,1093.5l0,-1" class="g2_335" />
</svg>