<?xml version="1.0" encoding="UTF-8" standalone="no"?>
<!DOCTYPE svg PUBLIC "-//W3C//DTD SVG 1.1//EN"
"http://www.w3.org/Graphics/SVG/1.1/DTD/svg11.dtd">
<svg version="1.1" xmlns="http://www.w3.org/2000/svg" xmlns:xlink="http://www.w3.org/1999/xlink">
<defs>
<clipPath id="c0_462"><path d="M47.5,421.5l0,-310l840,0l0,310Z" /></clipPath>
<clipPath id="c1_462"><path d="M47.5,557.5l0,-24l378,0l0,24Z" /></clipPath>
<clipPath id="c2_462"><path d="M427.5,557.5l0,-24l81,0l0,24Z" /></clipPath>
<clipPath id="c3_462"><path d="M509.5,557.5l0,-24l378,0l0,24Z" /></clipPath>
<clipPath id="c4_462"><path d="M47.5,976.5l0,-417l41,0l0,417Z" /></clipPath>
<clipPath id="c5_462"><path d="M90.5,630.5l0,-71l335,0l0,71Z" /></clipPath>
<clipPath id="c6_462"><path d="M427.5,630.5l0,-71l81,0l0,71Z" /></clipPath>
<clipPath id="c7_462"><path d="M509.5,630.5l0,-71l378,0l0,71Z" /></clipPath>
<clipPath id="c8_462"><path d="M90.5,682.5l0,-25l335,0l0,25Z" /></clipPath>
<clipPath id="c9_462"><path d="M427.5,682.5l0,-25l81,0l0,25Z" /></clipPath>
<clipPath id="c10_462"><path d="M509.5,682.5l0,-25l378,0l0,25Z" /></clipPath>
<clipPath id="c11_462"><path d="M90.5,950.5l0,-267l40,0l0,267Z" /></clipPath>
<clipPath id="c12_462"><path d="M131.5,950.5l0,-267l40,0l0,267Z" /></clipPath>
<clipPath id="c13_462"><path d="M172.5,950.5l0,-267l40,0l0,267Z" /></clipPath>
<clipPath id="c14_462"><path d="M213.5,707.5l0,-24l212,0l0,24Z" /></clipPath>
<clipPath id="c15_462"><path d="M427.5,707.5l0,-24l81,0l0,24Z" /></clipPath>
<clipPath id="c16_462"><path d="M509.5,707.5l0,-24l378,0l0,24Z" /></clipPath>
<clipPath id="c17_462"><path d="M213.5,780.5l0,-71l212,0l0,71Z" /></clipPath>
<clipPath id="c18_462"><path d="M427.5,780.5l0,-71l81,0l0,71Z" /></clipPath>
<clipPath id="c19_462"><path d="M509.5,780.5l0,-71l378,0l0,71Z" /></clipPath>
<clipPath id="c20_462"><path d="M213.5,829.5l0,-47l212,0l0,47Z" /></clipPath>
<clipPath id="c21_462"><path d="M427.5,829.5l0,-47l81,0l0,47Z" /></clipPath>
<clipPath id="c22_462"><path d="M509.5,829.5l0,-47l378,0l0,47Z" /></clipPath>
<clipPath id="c23_462"><path d="M213.5,950.5l0,-119l212,0l0,119Z" /></clipPath>
<clipPath id="c24_462"><path d="M427.5,950.5l0,-119l81,0l0,119Z" /></clipPath>
<clipPath id="c25_462"><path d="M509.5,950.5l0,-119l378,0l0,119Z" /></clipPath>
<clipPath id="c26_462"><path d="M90.5,976.5l0,-24l335,0l0,24Z" /></clipPath>
<clipPath id="c27_462"><path d="M427.5,976.5l0,-24l81,0l0,24Z" /></clipPath>
<clipPath id="c28_462"><path d="M509.5,976.5l0,-24l378,0l0,24Z" /></clipPath>
<clipPath id="c29_462"><path d="M47.5,1098.5l0,-24l840,0l0,24Z" /></clipPath>
<style type="text/css"><![CDATA[
.g2_462{
fill: none;
stroke: #7E7E7E;
stroke-width: 1;
stroke-linecap: butt;
stroke-linejoin: miter;
}
.g3_462{
fill: #DBE5F1;
}
.g1_462{
fill: #F1F1F1;
}
]]></style>
</defs>
<path fill-rule="evenodd" d="M47,421l840,0l0,-310L47,111l0,310Z" class="g1_462" />
<g clip-path="url(#c0_462)">
<path fill-rule="evenodd" d="M55,135l825,0l0,-24L55,111l0,24Z" class="g1_462" />
</g>
<path fill-rule="evenodd" d="M55,159l825,0l0,-24L55,135l0,24Z" class="g1_462" />
<path fill-rule="evenodd" d="M55,182l825,0l0,-23L55,159l0,23Z" class="g1_462" />
<path fill-rule="evenodd" d="M55,206l825,0l0,-24L55,182l0,24Z" class="g1_462" />
<path fill-rule="evenodd" d="M55,230l825,0l0,-24L55,206l0,24Z" class="g1_462" />
<path fill-rule="evenodd" d="M55,254l825,0l0,-24L55,230l0,24Z" class="g1_462" />
<path fill-rule="evenodd" d="M55,278l825,0l0,-24L55,254l0,24Z" class="g1_462" />
<path fill-rule="evenodd" d="M55,302l825,0l0,-24L55,278l0,24Z" class="g1_462" />
<path fill-rule="evenodd" d="M55,325l825,0l0,-23L55,302l0,23Z" class="g1_462" />
<path fill-rule="evenodd" d="M55,349l825,0l0,-24L55,325l0,24Z" class="g1_462" />
<path fill-rule="evenodd" d="M55,373l825,0l0,-24L55,349l0,24Z" class="g1_462" />
<path fill-rule="evenodd" d="M55,397l825,0l0,-24L55,373l0,24Z" class="g1_462" />
<path fill-rule="evenodd" d="M55,421l825,0l0,-24L55,397l0,24Z" class="g1_462" />
<path d="M46.5,111.5l0,-1" class="g2_462" />
<path d="M46.5,111.5l0,-1" class="g2_462" />
<path d="M47.5,111.5l840,0" class="g2_462" />
<path d="M887.5,111.5l0,-1" class="g2_462" />
<path d="M887.5,111.5l0,-1" class="g2_462" />
<path d="M46.5,421.5l0,-310" class="g2_462" />
<path d="M46.5,423.5l0,-2" class="g2_462" />
<path d="M46.5,423.5l0,-2" class="g2_462" />
<path d="M47.5,423.5l840,0" class="g2_462" />
<path d="M887.5,421.5l0,-310" class="g2_462" />
<path d="M887.5,423.5l0,-2" class="g2_462" />
<path d="M887.5,423.5l0,-2" class="g2_462" />
<path fill-rule="evenodd" d="M47,557l378,0l0,-24L47,533l0,24Z" class="g3_462" />
<g clip-path="url(#c1_462)">
<path fill-rule="evenodd" d="M55,556l363,0l0,-23L55,533l0,23Z" class="g3_462" />
</g>
<path fill-rule="evenodd" d="M427,557l81,0l0,-24l-81,0l0,24Z" class="g3_462" />
<g clip-path="url(#c2_462)">
<path fill-rule="evenodd" d="M434,556l66,0l0,-23l-66,0l0,23Z" class="g3_462" />
</g>
<path fill-rule="evenodd" d="M509,557l378,0l0,-24l-378,0l0,24Z" class="g3_462" />
<g clip-path="url(#c3_462)">
<path fill-rule="evenodd" d="M517,556l363,0l0,-23l-363,0l0,23Z" class="g3_462" />
</g>
<path d="M46.5,533.5l0,-2" class="g2_462" />
<path d="M46.5,533.5l0,-2" class="g2_462" />
<path d="M47.5,533.5l378,0" class="g2_462" />
<path d="M425.5,533.5l0,-2" class="g2_462" />
<path d="M427.5,533.5l81,0" class="g2_462" />
<path d="M508.5,533.5l0,-2" class="g2_462" />
<path d="M509.5,533.5l378,0" class="g2_462" />
<path d="M887.5,533.5l0,-2" class="g2_462" />
<path d="M887.5,533.5l0,-2" class="g2_462" />
<path d="M46.5,557.5l0,-24" class="g2_462" />
<path d="M425.5,557.5l0,-24" class="g2_462" />
<path d="M508.5,557.5l0,-24" class="g2_462" />
<path d="M887.5,557.5l0,-24" class="g2_462" />
<path fill-rule="evenodd" d="M47,976l41,0L88,559l-41,0l0,417Z" class="g1_462" />
<g clip-path="url(#c4_462)">
<path fill-rule="evenodd" d="M55,976l23,0L78,559l-23,0l0,417Z" class="g1_462" />
</g>
<path fill-rule="evenodd" d="M90,630l335,0l0,-71L90,559l0,71Z" class="g1_462" />
<g clip-path="url(#c5_462)">
<path fill-rule="evenodd" d="M97,582l321,0l0,-23L97,559l0,23Z" class="g1_462" />
</g>
<path fill-rule="evenodd" d="M427,630l81,0l0,-71l-81,0l0,71Z" class="g1_462" />
<g clip-path="url(#c6_462)">
<path fill-rule="evenodd" d="M434,582l66,0l0,-23l-66,0l0,23Z" class="g1_462" />
</g>
<path fill-rule="evenodd" d="M509,630l378,0l0,-71l-378,0l0,71Z" class="g1_462" />
<g clip-path="url(#c7_462)">
<path fill-rule="evenodd" d="M517,582l363,0l0,-23l-363,0l0,23Z" class="g1_462" />
</g>
<path fill-rule="evenodd" d="M517,606l363,0l0,-24l-363,0l0,24Z" class="g1_462" />
<path fill-rule="evenodd" d="M517,630l363,0l0,-24l-363,0l0,24Z" class="g1_462" />
<path d="M46.5,558.5l0,-1" class="g2_462" />
<path d="M47.5,558.5l41,0" class="g2_462" />
<path d="M88.5,558.5l0,-1" class="g2_462" />
<path d="M90.5,558.5l335,0" class="g2_462" />
<path d="M425.5,558.5l0,-1" class="g2_462" />
<path d="M427.5,558.5l81,0" class="g2_462" />
<path d="M508.5,558.5l0,-1" class="g2_462" />
<path d="M509.5,558.5l378,0" class="g2_462" />
<path d="M887.5,558.5l0,-1" class="g2_462" />
<path d="M46.5,630.5l0,-72" class="g2_462" />
<path d="M88.5,630.5l0,-72" class="g2_462" />
<path d="M425.5,630.5l0,-72" class="g2_462" />
<path d="M508.5,630.5l0,-72" class="g2_462" />
<path d="M887.5,630.5l0,-72" class="g2_462" />
<path fill-rule="evenodd" d="M90,656l335,0l0,-24L90,632l0,24Z" class="g1_462" />
<path fill-rule="evenodd" d="M97,655l321,0l0,-23L97,632l0,23Z" class="g1_462" />
<path fill-rule="evenodd" d="M427,656l81,0l0,-24l-81,0l0,24Z" class="g1_462" />
<path fill-rule="evenodd" d="M434,655l66,0l0,-23l-66,0l0,23Z" class="g1_462" />
<path fill-rule="evenodd" d="M509,656l378,0l0,-24l-378,0l0,24Z" class="g1_462" />
<path fill-rule="evenodd" d="M517,655l363,0l0,-23l-363,0l0,23Z" class="g1_462" />
<path d="M46.5,632.5l0,-2" class="g2_462" />
<path d="M88.5,632.5l0,-2" class="g2_462" />
<path d="M90.5,632.5l335,0" class="g2_462" />
<path d="M425.5,632.5l0,-2" class="g2_462" />
<path d="M427.5,632.5l81,0" class="g2_462" />
<path d="M508.5,632.5l0,-2" class="g2_462" />
<path d="M509.5,632.5l378,0" class="g2_462" />
<path d="M887.5,632.5l0,-2" class="g2_462" />
<path d="M46.5,656.5l0,-24" class="g2_462" />
<path d="M88.5,656.5l0,-24" class="g2_462" />
<path d="M425.5,656.5l0,-24" class="g2_462" />
<path d="M508.5,656.5l0,-24" class="g2_462" />
<path d="M887.5,656.5l0,-24" class="g2_462" />
<path fill-rule="evenodd" d="M90,682l335,0l0,-25L90,657l0,25Z" class="g1_462" />
<g clip-path="url(#c8_462)">
<path fill-rule="evenodd" d="M97,681l321,0l0,-24L97,657l0,24Z" class="g1_462" />
</g>
<path fill-rule="evenodd" d="M427,682l81,0l0,-25l-81,0l0,25Z" class="g1_462" />
<g clip-path="url(#c9_462)">
<path fill-rule="evenodd" d="M434,681l66,0l0,-24l-66,0l0,24Z" class="g1_462" />
</g>
<path fill-rule="evenodd" d="M509,682l378,0l0,-25l-378,0l0,25Z" class="g1_462" />
<g clip-path="url(#c10_462)">
<path fill-rule="evenodd" d="M517,681l363,0l0,-24l-363,0l0,24Z" class="g1_462" />
</g>
<path d="M46.5,657.5l0,-1" class="g2_462" />
<path d="M88.5,657.5l0,-1" class="g2_462" />
<path d="M90.5,657.5l335,0" class="g2_462" />
<path d="M425.5,657.5l0,-1" class="g2_462" />
<path d="M427.5,657.5l81,0" class="g2_462" />
<path d="M508.5,657.5l0,-1" class="g2_462" />
<path d="M509.5,657.5l378,0" class="g2_462" />
<path d="M887.5,657.5l0,-1" class="g2_462" />
<path d="M46.5,682.5l0,-25" class="g2_462" />
<path d="M88.5,682.5l0,-25" class="g2_462" />
<path d="M425.5,682.5l0,-25" class="g2_462" />
<path d="M508.5,682.5l0,-25" class="g2_462" />
<path d="M887.5,682.5l0,-25" class="g2_462" />
<path fill-rule="evenodd" d="M90,950l40,0l0,-267l-40,0l0,267Z" class="g1_462" />
<g clip-path="url(#c11_462)">
<path fill-rule="evenodd" d="M97,950l24,0l0,-267l-24,0l0,267Z" class="g1_462" />
</g>
<path fill-rule="evenodd" d="M131,950l40,0l0,-267l-40,0l0,267Z" class="g1_462" />
<g clip-path="url(#c12_462)">
<path fill-rule="evenodd" d="M139,950l23,0l0,-267l-23,0l0,267Z" class="g1_462" />
</g>
<path fill-rule="evenodd" d="M172,950l40,0l0,-267l-40,0l0,267Z" class="g1_462" />
<g clip-path="url(#c13_462)">
<path fill-rule="evenodd" d="M180,950l24,0l0,-267l-24,0l0,267Z" class="g1_462" />
</g>
<path fill-rule="evenodd" d="M213,707l212,0l0,-24l-212,0l0,24Z" class="g1_462" />
<g clip-path="url(#c14_462)">
<path fill-rule="evenodd" d="M221,707l197,0l0,-24l-197,0l0,24Z" class="g1_462" />
</g>
<path fill-rule="evenodd" d="M427,707l81,0l0,-24l-81,0l0,24Z" class="g1_462" />
<g clip-path="url(#c15_462)">
<path fill-rule="evenodd" d="M434,707l66,0l0,-24l-66,0l0,24Z" class="g1_462" />
</g>
<path fill-rule="evenodd" d="M509,707l378,0l0,-24l-378,0l0,24Z" class="g1_462" />
<g clip-path="url(#c16_462)">
<path fill-rule="evenodd" d="M517,707l363,0l0,-24l-363,0l0,24Z" class="g1_462" />
</g>
<path d="M46.5,683.5l0,-1" class="g2_462" />
<path d="M88.5,683.5l0,-1" class="g2_462" />
<path d="M90.5,683.5l40,0" class="g2_462" />
<path d="M130.5,683.5l0,-1" class="g2_462" />
<path d="M131.5,683.5l40,0" class="g2_462" />
<path d="M171.5,683.5l0,-1" class="g2_462" />
<path d="M172.5,683.5l40,0" class="g2_462" />
<path d="M212.5,683.5l0,-1" class="g2_462" />
<path d="M213.5,683.5l212,0" class="g2_462" />
<path d="M425.5,683.5l0,-1" class="g2_462" />
<path d="M427.5,683.5l81,0" class="g2_462" />
<path d="M508.5,683.5l0,-1" class="g2_462" />
<path d="M509.5,683.5l378,0" class="g2_462" />
<path d="M887.5,683.5l0,-1" class="g2_462" />
<path d="M46.5,707.5l0,-24" class="g2_462" />
<path d="M88.5,707.5l0,-24" class="g2_462" />
<path d="M130.5,707.5l0,-24" class="g2_462" />
<path d="M171.5,707.5l0,-24" class="g2_462" />
<path d="M212.5,707.5l0,-24" class="g2_462" />
<path d="M425.5,707.5l0,-24" class="g2_462" />
<path d="M508.5,707.5l0,-24" class="g2_462" />
<path d="M887.5,707.5l0,-24" class="g2_462" />
<path fill-rule="evenodd" d="M213,780l212,0l0,-71l-212,0l0,71Z" class="g1_462" />
<g clip-path="url(#c17_462)">
<path fill-rule="evenodd" d="M221,733l197,0l0,-24l-197,0l0,24Z" class="g1_462" />
</g>
<path fill-rule="evenodd" d="M427,780l81,0l0,-71l-81,0l0,71Z" class="g1_462" />
<g clip-path="url(#c18_462)">
<path fill-rule="evenodd" d="M434,733l66,0l0,-24l-66,0l0,24Z" class="g1_462" />
</g>
<path fill-rule="evenodd" d="M509,780l378,0l0,-71l-378,0l0,71Z" class="g1_462" />
<g clip-path="url(#c19_462)">
<path fill-rule="evenodd" d="M517,733l363,0l0,-24l-363,0l0,24Z" class="g1_462" />
</g>
<path fill-rule="evenodd" d="M517,756l363,0l0,-23l-363,0l0,23Z" class="g1_462" />
<path fill-rule="evenodd" d="M517,780l363,0l0,-24l-363,0l0,24Z" class="g1_462" />
<path d="M46.5,709.5l0,-2" class="g2_462" />
<path d="M88.5,709.5l0,-2" class="g2_462" />
<path d="M130.5,709.5l0,-2" class="g2_462" />
<path d="M171.5,709.5l0,-2" class="g2_462" />
<path d="M212.5,709.5l0,-2" class="g2_462" />
<path d="M213.5,709.5l212,0" class="g2_462" />
<path d="M425.5,709.5l0,-2" class="g2_462" />
<path d="M427.5,709.5l81,0" class="g2_462" />
<path d="M508.5,709.5l0,-2" class="g2_462" />
<path d="M509.5,709.5l378,0" class="g2_462" />
<path d="M887.5,709.5l0,-2" class="g2_462" />
<path d="M46.5,780.5l0,-71" class="g2_462" />
<path d="M88.5,780.5l0,-71" class="g2_462" />
<path d="M130.5,780.5l0,-71" class="g2_462" />
<path d="M171.5,780.5l0,-71" class="g2_462" />
<path d="M212.5,780.5l0,-71" class="g2_462" />
<path d="M425.5,780.5l0,-71" class="g2_462" />
<path d="M508.5,780.5l0,-71" class="g2_462" />
<path d="M887.5,780.5l0,-71" class="g2_462" />
<path fill-rule="evenodd" d="M213,829l212,0l0,-47l-212,0l0,47Z" class="g1_462" />
<g clip-path="url(#c20_462)">
<path fill-rule="evenodd" d="M221,806l197,0l0,-24l-197,0l0,24Z" class="g1_462" />
</g>
<path fill-rule="evenodd" d="M427,829l81,0l0,-47l-81,0l0,47Z" class="g1_462" />
<g clip-path="url(#c21_462)">
<path fill-rule="evenodd" d="M434,806l66,0l0,-24l-66,0l0,24Z" class="g1_462" />
</g>
<path fill-rule="evenodd" d="M509,829l378,0l0,-47l-378,0l0,47Z" class="g1_462" />
<g clip-path="url(#c22_462)">
<path fill-rule="evenodd" d="M517,806l363,0l0,-24l-363,0l0,24Z" class="g1_462" />
</g>
<path fill-rule="evenodd" d="M517,829l363,0l0,-23l-363,0l0,23Z" class="g1_462" />
<path d="M46.5,782.5l0,-2" class="g2_462" />
<path d="M88.5,782.5l0,-2" class="g2_462" />
<path d="M130.5,782.5l0,-2" class="g2_462" />
<path d="M171.5,782.5l0,-2" class="g2_462" />
<path d="M212.5,782.5l0,-2" class="g2_462" />
<path d="M213.5,782.5l212,0" class="g2_462" />
<path d="M425.5,782.5l0,-2" class="g2_462" />
<path d="M427.5,782.5l81,0" class="g2_462" />
<path d="M508.5,782.5l0,-2" class="g2_462" />
<path d="M509.5,782.5l378,0" class="g2_462" />
<path d="M887.5,782.5l0,-2" class="g2_462" />
<path d="M46.5,829.5l0,-47" class="g2_462" />
<path d="M88.5,829.5l0,-47" class="g2_462" />
<path d="M130.5,829.5l0,-47" class="g2_462" />
<path d="M171.5,829.5l0,-47" class="g2_462" />
<path d="M212.5,829.5l0,-47" class="g2_462" />
<path d="M425.5,829.5l0,-47" class="g2_462" />
<path d="M508.5,829.5l0,-47" class="g2_462" />
<path d="M887.5,829.5l0,-47" class="g2_462" />
<path fill-rule="evenodd" d="M213,950l212,0l0,-119l-212,0l0,119Z" class="g1_462" />
<g clip-path="url(#c23_462)">
<path fill-rule="evenodd" d="M221,855l197,0l0,-24l-197,0l0,24Z" class="g1_462" />
</g>
<path fill-rule="evenodd" d="M427,950l81,0l0,-119l-81,0l0,119Z" class="g1_462" />
<g clip-path="url(#c24_462)">
<path fill-rule="evenodd" d="M434,855l66,0l0,-24l-66,0l0,24Z" class="g1_462" />
</g>
<path fill-rule="evenodd" d="M509,950l378,0l0,-119l-378,0l0,119Z" class="g1_462" />
<g clip-path="url(#c25_462)">
<path fill-rule="evenodd" d="M517,855l363,0l0,-24l-363,0l0,24Z" class="g1_462" />
</g>
<path fill-rule="evenodd" d="M517,879l363,0l0,-24l-363,0l0,24Z" class="g1_462" />
<path fill-rule="evenodd" d="M517,902l363,0l0,-23l-363,0l0,23Z" class="g1_462" />
<path fill-rule="evenodd" d="M517,926l363,0l0,-24l-363,0l0,24Z" class="g1_462" />
<g clip-path="url(#c25_462)">
<path fill-rule="evenodd" d="M517,950l363,0l0,-24l-363,0l0,24Z" class="g1_462" />
</g>
<path d="M46.5,831.5l0,-2" class="g2_462" />
<path d="M88.5,831.5l0,-2" class="g2_462" />
<path d="M130.5,831.5l0,-2" class="g2_462" />
<path d="M171.5,831.5l0,-2" class="g2_462" />
<path d="M212.5,831.5l0,-2" class="g2_462" />
<path d="M213.5,831.5l212,0" class="g2_462" />
<path d="M425.5,831.5l0,-2" class="g2_462" />
<path d="M427.5,831.5l81,0" class="g2_462" />
<path d="M508.5,831.5l0,-2" class="g2_462" />
<path d="M509.5,831.5l378,0" class="g2_462" />
<path d="M887.5,831.5l0,-2" class="g2_462" />
<path d="M46.5,950.5l0,-119" class="g2_462" />
<path d="M88.5,950.5l0,-119" class="g2_462" />
<path d="M130.5,950.5l0,-119" class="g2_462" />
<path d="M171.5,950.5l0,-119" class="g2_462" />
<path d="M212.5,950.5l0,-119" class="g2_462" />
<path d="M425.5,950.5l0,-119" class="g2_462" />
<path d="M508.5,950.5l0,-119" class="g2_462" />
<path d="M887.5,950.5l0,-119" class="g2_462" />
<path fill-rule="evenodd" d="M90,976l335,0l0,-24L90,952l0,24Z" class="g1_462" />
<g clip-path="url(#c26_462)">
<path fill-rule="evenodd" d="M97,976l321,0l0,-24L97,952l0,24Z" class="g1_462" />
</g>
<path fill-rule="evenodd" d="M427,976l81,0l0,-24l-81,0l0,24Z" class="g1_462" />
<g clip-path="url(#c27_462)">
<path fill-rule="evenodd" d="M434,976l66,0l0,-24l-66,0l0,24Z" class="g1_462" />
</g>
<path fill-rule="evenodd" d="M509,976l378,0l0,-24l-378,0l0,24Z" class="g1_462" />
<g clip-path="url(#c28_462)">
<path fill-rule="evenodd" d="M517,976l363,0l0,-24l-363,0l0,24Z" class="g1_462" />
</g>
<path d="M46.5,952.5l0,-2" class="g2_462" />
<path d="M88.5,952.5l0,-2" class="g2_462" />
<path d="M90.5,952.5l40,0" class="g2_462" />
<path d="M130.5,952.5l0,-2" class="g2_462" />
<path d="M131.5,952.5l40,0" class="g2_462" />
<path d="M171.5,952.5l0,-2" class="g2_462" />
<path d="M172.5,952.5l40,0" class="g2_462" />
<path d="M212.5,952.5l0,-2" class="g2_462" />
<path d="M213.5,952.5l212,0" class="g2_462" />
<path d="M425.5,952.5l0,-2" class="g2_462" />
<path d="M427.5,952.5l81,0" class="g2_462" />
<path d="M508.5,952.5l0,-2" class="g2_462" />
<path d="M509.5,952.5l378,0" class="g2_462" />
<path d="M887.5,952.5l0,-2" class="g2_462" />
<path d="M46.5,976.5l0,-24" class="g2_462" />
<path d="M46.5,977.5l0,-1" class="g2_462" />
<path d="M46.5,977.5l0,-1" class="g2_462" />
<path d="M47.5,977.5l41,0" class="g2_462" />
<path d="M88.5,976.5l0,-24" class="g2_462" />
<path d="M88.5,977.5l0,-1" class="g2_462" />
<path d="M90.5,977.5l335,0" class="g2_462" />
<path d="M425.5,976.5l0,-24" class="g2_462" />
<path d="M425.5,977.5l0,-1" class="g2_462" />
<path d="M427.5,977.5l81,0" class="g2_462" />
<path d="M508.5,976.5l0,-24" class="g2_462" />
<path d="M508.5,977.5l0,-1" class="g2_462" />
<path d="M509.5,977.5l378,0" class="g2_462" />
<path d="M887.5,976.5l0,-24" class="g2_462" />
<path d="M887.5,977.5l0,-1" class="g2_462" />
<path d="M887.5,977.5l0,-1" class="g2_462" />
<path fill-rule="evenodd" d="M47,1098l840,0l0,-24l-840,0l0,24Z" class="g1_462" />
<g clip-path="url(#c29_462)">
<path fill-rule="evenodd" d="M55,1098l825,0l0,-24l-825,0l0,24Z" class="g1_462" />
</g>
<path d="M46.5,1074.5l0,-2" class="g2_462" />
<path d="M46.5,1074.5l0,-2" class="g2_462" />
<path d="M47.5,1074.5l840,0" class="g2_462" />
<path d="M887.5,1074.5l0,-2" class="g2_462" />
<path d="M887.5,1074.5l0,-2" class="g2_462" />
<path d="M46.5,1098.5l0,-24" class="g2_462" />
<path d="M46.5,1099.5l0,-1" class="g2_462" />
<path d="M46.5,1099.5l0,-1" class="g2_462" />
<path d="M47.5,1099.5l840,0" class="g2_462" />
<path d="M887.5,1098.5l0,-24" class="g2_462" />
<path d="M887.5,1099.5l0,-1" class="g2_462" />
<path d="M887.5,1099.5l0,-1" class="g2_462" />
</svg>