<?xml version="1.0" encoding="UTF-8" standalone="no"?>
<!DOCTYPE svg PUBLIC "-//W3C//DTD SVG 1.1//EN"
"http://www.w3.org/Graphics/SVG/1.1/DTD/svg11.dtd">
<svg version="1.1" xmlns="http://www.w3.org/2000/svg" xmlns:xlink="http://www.w3.org/1999/xlink">
<defs>
<clipPath id="c0_140"><path d="M181.5,135.5l0,-24l217,0l0,24Z" /></clipPath>
<clipPath id="c1_140"><path d="M399.5,135.5l0,-24l68,0l0,24Z" /></clipPath>
<clipPath id="c2_140"><path d="M468.5,135.5l0,-24l342,0l0,24Z" /></clipPath>
<clipPath id="c3_140"><path d="M812.5,135.5l0,-24l60,0l0,24Z" /></clipPath>
<clipPath id="c4_140"><path d="M181.5,160.5l0,-24l217,0l0,24Z" /></clipPath>
<clipPath id="c5_140"><path d="M399.5,160.5l0,-24l68,0l0,24Z" /></clipPath>
<clipPath id="c6_140"><path d="M468.5,160.5l0,-24l342,0l0,24Z" /></clipPath>
<clipPath id="c7_140"><path d="M812.5,160.5l0,-24l60,0l0,24Z" /></clipPath>
<clipPath id="c8_140"><path d="M181.5,257.5l0,-95l217,0l0,95Z" /></clipPath>
<clipPath id="c9_140"><path d="M399.5,257.5l0,-95l68,0l0,95Z" /></clipPath>
<clipPath id="c10_140"><path d="M468.5,257.5l0,-95l342,0l0,95Z" /></clipPath>
<clipPath id="c11_140"><path d="M812.5,257.5l0,-95l60,0l0,95Z" /></clipPath>
<clipPath id="c12_140"><path d="M181.5,286.5l0,-27l217,0l0,27Z" /></clipPath>
<clipPath id="c13_140"><path d="M399.5,286.5l0,-27l68,0l0,27Z" /></clipPath>
<clipPath id="c14_140"><path d="M468.5,286.5l0,-27l342,0l0,27Z" /></clipPath>
<clipPath id="c15_140"><path d="M812.5,286.5l0,-27l60,0l0,27Z" /></clipPath>
<clipPath id="c16_140"><path d="M181.5,311.5l0,-23l217,0l0,23Z" /></clipPath>
<clipPath id="c17_140"><path d="M399.5,311.5l0,-23l68,0l0,23Z" /></clipPath>
<clipPath id="c18_140"><path d="M468.5,311.5l0,-23l342,0l0,23Z" /></clipPath>
<clipPath id="c19_140"><path d="M812.5,311.5l0,-23l60,0l0,23Z" /></clipPath>
<clipPath id="c20_140"><path d="M181.5,337.5l0,-24l217,0l0,24Z" /></clipPath>
<clipPath id="c21_140"><path d="M399.5,337.5l0,-24l68,0l0,24Z" /></clipPath>
<clipPath id="c22_140"><path d="M468.5,337.5l0,-24l342,0l0,24Z" /></clipPath>
<clipPath id="c23_140"><path d="M812.5,337.5l0,-24l60,0l0,24Z" /></clipPath>
<clipPath id="c24_140"><path d="M181.5,362.5l0,-24l217,0l0,24Z" /></clipPath>
<clipPath id="c25_140"><path d="M399.5,362.5l0,-24l68,0l0,24Z" /></clipPath>
<clipPath id="c26_140"><path d="M468.5,362.5l0,-24l342,0l0,24Z" /></clipPath>
<clipPath id="c27_140"><path d="M812.5,362.5l0,-24l60,0l0,24Z" /></clipPath>
<clipPath id="c28_140"><path d="M181.5,387.5l0,-23l217,0l0,23Z" /></clipPath>
<clipPath id="c29_140"><path d="M399.5,387.5l0,-23l68,0l0,23Z" /></clipPath>
<clipPath id="c30_140"><path d="M468.5,387.5l0,-23l342,0l0,23Z" /></clipPath>
<clipPath id="c31_140"><path d="M812.5,387.5l0,-23l60,0l0,23Z" /></clipPath>
<clipPath id="c32_140"><path d="M181.5,747.5l0,-358l217,0l0,358Z" /></clipPath>
<clipPath id="c33_140"><path d="M399.5,747.5l0,-358l68,0l0,358Z" /></clipPath>
<clipPath id="c34_140"><path d="M468.5,747.5l0,-358l342,0l0,358Z" /></clipPath>
<clipPath id="c35_140"><path d="M812.5,747.5l0,-358l60,0l0,358Z" /></clipPath>
<style type="text/css"><![CDATA[
.g2_140{
fill: none;
stroke: #7E7E7E;
stroke-width: 1;
stroke-linecap: butt;
stroke-linejoin: miter;
}
.g3_140{
fill: none;
stroke: #0000FF;
stroke-width: 1;
stroke-linecap: butt;
stroke-linejoin: miter;
}
.g1_140{
fill: #F1F1F1;
}
]]></style>
</defs>
<path fill-rule="evenodd" d="M47,135l33,0l0,-24l-33,0l0,24Z" class="g1_140" />
<path fill-rule="evenodd" d="M81,135l32,0l0,-24l-32,0l0,24Z" class="g1_140" />
<path fill-rule="evenodd" d="M115,135l31,0l0,-24l-31,0l0,24Z" class="g1_140" />
<path fill-rule="evenodd" d="M148,135l31,0l0,-24l-31,0l0,24Z" class="g1_140" />
<path fill-rule="evenodd" d="M181,135l217,0l0,-24l-217,0l0,24Z" class="g1_140" />
<g clip-path="url(#c0_140)">
<path fill-rule="evenodd" d="M188,135l202,0l0,-24l-202,0l0,24Z" class="g1_140" />
</g>
<path fill-rule="evenodd" d="M399,135l68,0l0,-24l-68,0l0,24Z" class="g1_140" />
<g clip-path="url(#c1_140)">
<path fill-rule="evenodd" d="M407,135l52,0l0,-24l-52,0l0,24Z" class="g1_140" />
</g>
<path fill-rule="evenodd" d="M468,135l342,0l0,-24l-342,0l0,24Z" class="g1_140" />
<g clip-path="url(#c2_140)">
<path fill-rule="evenodd" d="M476,135l327,0l0,-24l-327,0l0,24Z" class="g1_140" />
</g>
<path fill-rule="evenodd" d="M812,135l60,0l0,-24l-60,0l0,24Z" class="g1_140" />
<g clip-path="url(#c3_140)">
<path fill-rule="evenodd" d="M819,135l45,0l0,-24l-45,0l0,24Z" class="g1_140" />
</g>
<path d="M46.5,111.5l0,-1" class="g2_140" />
<path d="M46.5,111.5l0,-1" class="g2_140" />
<path d="M47.5,111.5l33,0" class="g2_140" />
<path d="M80.5,111.5l0,-1" class="g2_140" />
<path d="M81.5,111.5l32,0" class="g2_140" />
<path d="M113.5,111.5l0,-1" class="g2_140" />
<path d="M114.5,111.5l32,0" class="g2_140" />
<path d="M146.5,111.5l0,-1" class="g2_140" />
<path d="M148.5,111.5l31,0" class="g2_140" />
<path d="M179.5,111.5l0,-1" class="g2_140" />
<path d="M181.5,111.5l217,0" class="g2_140" />
<path d="M398.5,111.5l0,-1" class="g2_140" />
<path d="M399.5,111.5l68,0" class="g2_140" />
<path d="M467.5,111.5l0,-1" class="g2_140" />
<path d="M468.5,111.5l342,0" class="g2_140" />
<path d="M810.5,111.5l0,-1" class="g2_140" />
<path d="M812.5,111.5l60,0" class="g2_140" />
<path d="M872.5,111.5l0,-1" class="g2_140" />
<path d="M872.5,111.5l0,-1" class="g2_140" />
<path d="M46.5,135.5l0,-24" class="g2_140" />
<path d="M80.5,135.5l0,-24" class="g2_140" />
<path d="M113.5,135.5l0,-24" class="g2_140" />
<path d="M146.5,135.5l0,-24" class="g2_140" />
<path d="M179.5,135.5l0,-24" class="g2_140" />
<path d="M398.5,135.5l0,-24" class="g2_140" />
<path d="M467.5,135.5l0,-24" class="g2_140" />
<path d="M810.5,135.5l0,-24" class="g2_140" />
<path d="M872.5,135.5l0,-24" class="g2_140" />
<path fill-rule="evenodd" d="M47,160l33,0l0,-25l-33,0l0,25Z" class="g1_140" />
<path fill-rule="evenodd" d="M81,160l32,0l0,-25l-32,0l0,25Z" class="g1_140" />
<path fill-rule="evenodd" d="M115,160l31,0l0,-25l-31,0l0,25Z" class="g1_140" />
<path fill-rule="evenodd" d="M148,160l31,0l0,-25l-31,0l0,25Z" class="g1_140" />
<path fill-rule="evenodd" d="M181,160l217,0l0,-24l-217,0l0,24Z" class="g1_140" />
<g clip-path="url(#c4_140)">
<path fill-rule="evenodd" d="M188,160l202,0l0,-24l-202,0l0,24Z" class="g1_140" />
</g>
<path fill-rule="evenodd" d="M399,160l68,0l0,-24l-68,0l0,24Z" class="g1_140" />
<g clip-path="url(#c5_140)">
<path fill-rule="evenodd" d="M407,160l52,0l0,-24l-52,0l0,24Z" class="g1_140" />
</g>
<path fill-rule="evenodd" d="M468,160l342,0l0,-24l-342,0l0,24Z" class="g1_140" />
<g clip-path="url(#c6_140)">
<path fill-rule="evenodd" d="M476,160l327,0l0,-24l-327,0l0,24Z" class="g1_140" />
</g>
<path fill-rule="evenodd" d="M812,160l60,0l0,-24l-60,0l0,24Z" class="g1_140" />
<g clip-path="url(#c7_140)">
<path fill-rule="evenodd" d="M819,160l45,0l0,-24l-45,0l0,24Z" class="g1_140" />
</g>
<path d="M46.5,136.5l0,-1" class="g2_140" />
<path d="M80.5,136.5l0,-1" class="g2_140" />
<path d="M113.5,136.5l0,-1" class="g2_140" />
<path d="M146.5,136.5l0,-1" class="g2_140" />
<path d="M179.5,136.5l0,-1" class="g2_140" />
<path d="M181.5,136.5l217,0" class="g2_140" />
<path d="M398.5,136.5l0,-1" class="g2_140" />
<path d="M399.5,136.5l68,0" class="g2_140" />
<path d="M467.5,136.5l0,-1" class="g2_140" />
<path d="M468.5,136.5l342,0" class="g2_140" />
<path d="M810.5,136.5l0,-1" class="g2_140" />
<path d="M812.5,136.5l60,0" class="g2_140" />
<path d="M872.5,136.5l0,-1" class="g2_140" />
<path d="M46.5,160.5l0,-24" class="g2_140" />
<path d="M80.5,160.5l0,-24" class="g2_140" />
<path d="M113.5,160.5l0,-24" class="g2_140" />
<path d="M146.5,160.5l0,-24" class="g2_140" />
<path d="M179.5,160.5l0,-24" class="g2_140" />
<path d="M398.5,160.5l0,-24" class="g2_140" />
<path d="M467.5,160.5l0,-24" class="g2_140" />
<path d="M810.5,160.5l0,-24" class="g2_140" />
<path d="M872.5,160.5l0,-24" class="g2_140" />
<path fill-rule="evenodd" d="M47,257l33,0l0,-97l-33,0l0,97Z" class="g1_140" />
<path fill-rule="evenodd" d="M81,257l32,0l0,-97l-32,0l0,97Z" class="g1_140" />
<path fill-rule="evenodd" d="M115,257l31,0l0,-97l-31,0l0,97Z" class="g1_140" />
<path fill-rule="evenodd" d="M148,257l31,0l0,-97l-31,0l0,97Z" class="g1_140" />
<path fill-rule="evenodd" d="M181,257l217,0l0,-95l-217,0l0,95Z" class="g1_140" />
<g clip-path="url(#c8_140)">
<path fill-rule="evenodd" d="M188,186l202,0l0,-24l-202,0l0,24Z" class="g1_140" />
</g>
<path fill-rule="evenodd" d="M399,257l68,0l0,-95l-68,0l0,95Z" class="g1_140" />
<g clip-path="url(#c9_140)">
<path fill-rule="evenodd" d="M407,186l52,0l0,-24l-52,0l0,24Z" class="g1_140" />
</g>
<path fill-rule="evenodd" d="M468,257l342,0l0,-95l-342,0l0,95Z" class="g1_140" />
<g clip-path="url(#c10_140)">
<path fill-rule="evenodd" d="M476,186l327,0l0,-24l-327,0l0,24Z" class="g1_140" />
</g>
<path fill-rule="evenodd" d="M476,209l327,0l0,-23l-327,0l0,23Z" class="g1_140" />
<path fill-rule="evenodd" d="M476,233l327,0l0,-24l-327,0l0,24Z" class="g1_140" />
<path fill-rule="evenodd" d="M476,257l327,0l0,-24l-327,0l0,24Z" class="g1_140" />
<path fill-rule="evenodd" d="M812,257l60,0l0,-95l-60,0l0,95Z" class="g1_140" />
<g clip-path="url(#c11_140)">
<path fill-rule="evenodd" d="M819,186l45,0l0,-24l-45,0l0,24Z" class="g1_140" />
</g>
<path d="M46.5,162.5l0,-2" class="g2_140" />
<path d="M80.5,162.5l0,-2" class="g2_140" />
<path d="M113.5,162.5l0,-2" class="g2_140" />
<path d="M146.5,162.5l0,-2" class="g2_140" />
<path d="M179.5,162.5l0,-2" class="g2_140" />
<path d="M181.5,162.5l217,0" class="g2_140" />
<path d="M398.5,162.5l0,-2" class="g2_140" />
<path d="M399.5,162.5l68,0" class="g2_140" />
<path d="M467.5,162.5l0,-2" class="g2_140" />
<path d="M468.5,162.5l342,0" class="g2_140" />
<path d="M810.5,162.5l0,-2" class="g2_140" />
<path d="M812.5,162.5l60,0" class="g2_140" />
<path d="M872.5,162.5l0,-2" class="g2_140" />
<path d="M46.5,257.5l0,-95" class="g2_140" />
<path d="M80.5,257.5l0,-95" class="g2_140" />
<path d="M113.5,257.5l0,-95" class="g2_140" />
<path d="M146.5,257.5l0,-95" class="g2_140" />
<path d="M179.5,257.5l0,-95" class="g2_140" />
<path d="M398.5,257.5l0,-95" class="g2_140" />
<path d="M467.5,257.5l0,-95" class="g2_140" />
<path d="M810.5,257.5l0,-95" class="g2_140" />
<path d="M872.5,257.5l0,-95" class="g2_140" />
<path fill-rule="evenodd" d="M47,286l33,0l0,-29l-33,0l0,29Z" class="g1_140" />
<path fill-rule="evenodd" d="M81,286l32,0l0,-29l-32,0l0,29Z" class="g1_140" />
<path fill-rule="evenodd" d="M115,286l31,0l0,-29l-31,0l0,29Z" class="g1_140" />
<path fill-rule="evenodd" d="M148,286l31,0l0,-29l-31,0l0,29Z" class="g1_140" />
<path fill-rule="evenodd" d="M181,286l217,0l0,-27l-217,0l0,27Z" class="g1_140" />
<g clip-path="url(#c12_140)">
<path fill-rule="evenodd" d="M188,282l202,0l0,-23l-202,0l0,23Z" class="g1_140" />
</g>
<path fill-rule="evenodd" d="M399,286l68,0l0,-27l-68,0l0,27Z" class="g1_140" />
<g clip-path="url(#c13_140)">
<path fill-rule="evenodd" d="M407,282l52,0l0,-23l-52,0l0,23Z" class="g1_140" />
</g>
<path fill-rule="evenodd" d="M468,286l342,0l0,-27l-342,0l0,27Z" class="g1_140" />
<g clip-path="url(#c14_140)">
<path fill-rule="evenodd" d="M476,282l327,0l0,-23l-327,0l0,23Z" class="g1_140" />
</g>
<path fill-rule="evenodd" d="M812,286l60,0l0,-27l-60,0l0,27Z" class="g1_140" />
<g clip-path="url(#c15_140)">
<path fill-rule="evenodd" d="M819,282l45,0l0,-23l-45,0l0,23Z" class="g1_140" />
</g>
<path d="M46.5,259.5l0,-2" class="g2_140" />
<path d="M80.5,259.5l0,-2" class="g2_140" />
<path d="M113.5,259.5l0,-2" class="g2_140" />
<path d="M146.5,259.5l0,-2" class="g2_140" />
<path d="M179.5,259.5l0,-2" class="g2_140" />
<path d="M181.5,259.5l217,0" class="g2_140" />
<path d="M398.5,259.5l0,-2" class="g2_140" />
<path d="M399.5,259.5l68,0" class="g2_140" />
<path d="M467.5,259.5l0,-2" class="g2_140" />
<path d="M468.5,259.5l342,0" class="g2_140" />
<path d="M810.5,259.5l0,-2" class="g2_140" />
<path d="M812.5,259.5l60,0" class="g2_140" />
<path d="M872.5,259.5l0,-2" class="g2_140" />
<path d="M46.5,286.5l0,-27" class="g2_140" />
<path d="M80.5,286.5l0,-27" class="g2_140" />
<path d="M113.5,286.5l0,-27" class="g2_140" />
<path d="M146.5,286.5l0,-27" class="g2_140" />
<path d="M179.5,286.5l0,-27" class="g2_140" />
<path d="M398.5,286.5l0,-27" class="g2_140" />
<path d="M467.5,286.5l0,-27" class="g2_140" />
<path d="M810.5,286.5l0,-27" class="g2_140" />
<path d="M872.5,286.5l0,-27" class="g2_140" />
<path fill-rule="evenodd" d="M47,311l33,0l0,-25l-33,0l0,25Z" class="g1_140" />
<path fill-rule="evenodd" d="M81,311l32,0l0,-25l-32,0l0,25Z" class="g1_140" />
<path fill-rule="evenodd" d="M115,311l31,0l0,-25l-31,0l0,25Z" class="g1_140" />
<path fill-rule="evenodd" d="M148,311l31,0l0,-25l-31,0l0,25Z" class="g1_140" />
<path fill-rule="evenodd" d="M181,311l217,0l0,-23l-217,0l0,23Z" class="g1_140" />
<g clip-path="url(#c16_140)">
<path fill-rule="evenodd" d="M188,311l202,0l0,-23l-202,0l0,23Z" class="g1_140" />
</g>
<path fill-rule="evenodd" d="M399,311l68,0l0,-23l-68,0l0,23Z" class="g1_140" />
<g clip-path="url(#c17_140)">
<path fill-rule="evenodd" d="M407,311l52,0l0,-23l-52,0l0,23Z" class="g1_140" />
</g>
<path fill-rule="evenodd" d="M468,311l342,0l0,-23l-342,0l0,23Z" class="g1_140" />
<g clip-path="url(#c18_140)">
<path fill-rule="evenodd" d="M476,311l327,0l0,-23l-327,0l0,23Z" class="g1_140" />
</g>
<path fill-rule="evenodd" d="M812,311l60,0l0,-23l-60,0l0,23Z" class="g1_140" />
<g clip-path="url(#c19_140)">
<path fill-rule="evenodd" d="M819,311l45,0l0,-23l-45,0l0,23Z" class="g1_140" />
</g>
<path d="M46.5,287.5l0,-1" class="g2_140" />
<path d="M80.5,287.5l0,-1" class="g2_140" />
<path d="M113.5,287.5l0,-1" class="g2_140" />
<path d="M146.5,287.5l0,-1" class="g2_140" />
<path d="M179.5,287.5l0,-1" class="g2_140" />
<path d="M181.5,287.5l217,0" class="g2_140" />
<path d="M398.5,287.5l0,-1" class="g2_140" />
<path d="M399.5,287.5l68,0" class="g2_140" />
<path d="M467.5,287.5l0,-1" class="g2_140" />
<path d="M468.5,287.5l342,0" class="g2_140" />
<path d="M810.5,287.5l0,-1" class="g2_140" />
<path d="M812.5,287.5l60,0" class="g2_140" />
<path d="M872.5,287.5l0,-1" class="g2_140" />
<path d="M46.5,311.5l0,-24" class="g2_140" />
<path d="M80.5,311.5l0,-24" class="g2_140" />
<path d="M113.5,311.5l0,-24" class="g2_140" />
<path d="M146.5,311.5l0,-24" class="g2_140" />
<path d="M179.5,311.5l0,-24" class="g2_140" />
<path d="M398.5,311.5l0,-24" class="g2_140" />
<path d="M467.5,311.5l0,-24" class="g2_140" />
<path d="M810.5,311.5l0,-24" class="g2_140" />
<path d="M872.5,311.5l0,-24" class="g2_140" />
<path fill-rule="evenodd" d="M47,337l33,0l0,-26l-33,0l0,26Z" class="g1_140" />
<path fill-rule="evenodd" d="M81,337l32,0l0,-26l-32,0l0,26Z" class="g1_140" />
<path fill-rule="evenodd" d="M115,337l31,0l0,-26l-31,0l0,26Z" class="g1_140" />
<path fill-rule="evenodd" d="M148,337l31,0l0,-26l-31,0l0,26Z" class="g1_140" />
<path fill-rule="evenodd" d="M181,337l217,0l0,-24l-217,0l0,24Z" class="g1_140" />
<g clip-path="url(#c20_140)">
<path fill-rule="evenodd" d="M188,337l202,0l0,-24l-202,0l0,24Z" class="g1_140" />
</g>
<path fill-rule="evenodd" d="M399,337l68,0l0,-24l-68,0l0,24Z" class="g1_140" />
<g clip-path="url(#c21_140)">
<path fill-rule="evenodd" d="M407,337l52,0l0,-24l-52,0l0,24Z" class="g1_140" />
</g>
<path fill-rule="evenodd" d="M468,337l342,0l0,-24l-342,0l0,24Z" class="g1_140" />
<g clip-path="url(#c22_140)">
<path fill-rule="evenodd" d="M476,337l327,0l0,-24l-327,0l0,24Z" class="g1_140" />
</g>
<path fill-rule="evenodd" d="M812,337l60,0l0,-24l-60,0l0,24Z" class="g1_140" />
<g clip-path="url(#c23_140)">
<path fill-rule="evenodd" d="M819,337l45,0l0,-24l-45,0l0,24Z" class="g1_140" />
</g>
<path d="M46.5,313.5l0,-2" class="g2_140" />
<path d="M80.5,313.5l0,-2" class="g2_140" />
<path d="M113.5,313.5l0,-2" class="g2_140" />
<path d="M146.5,313.5l0,-2" class="g2_140" />
<path d="M179.5,313.5l0,-2" class="g2_140" />
<path d="M181.5,313.5l217,0" class="g2_140" />
<path d="M398.5,313.5l0,-2" class="g2_140" />
<path d="M399.5,313.5l68,0" class="g2_140" />
<path d="M467.5,313.5l0,-2" class="g2_140" />
<path d="M468.5,313.5l342,0" class="g2_140" />
<path d="M810.5,313.5l0,-2" class="g2_140" />
<path d="M812.5,313.5l60,0" class="g2_140" />
<path d="M872.5,313.5l0,-2" class="g2_140" />
<path d="M46.5,337.5l0,-24" class="g2_140" />
<path d="M80.5,337.5l0,-24" class="g2_140" />
<path d="M113.5,337.5l0,-24" class="g2_140" />
<path d="M146.5,337.5l0,-24" class="g2_140" />
<path d="M179.5,337.5l0,-24" class="g2_140" />
<path d="M398.5,337.5l0,-24" class="g2_140" />
<path d="M467.5,337.5l0,-24" class="g2_140" />
<path d="M810.5,337.5l0,-24" class="g2_140" />
<path d="M872.5,337.5l0,-24" class="g2_140" />
<path fill-rule="evenodd" d="M47,362l33,0l0,-25l-33,0l0,25Z" class="g1_140" />
<path fill-rule="evenodd" d="M81,362l32,0l0,-25l-32,0l0,25Z" class="g1_140" />
<path fill-rule="evenodd" d="M115,362l31,0l0,-25l-31,0l0,25Z" class="g1_140" />
<path fill-rule="evenodd" d="M148,362l31,0l0,-25l-31,0l0,25Z" class="g1_140" />
<path fill-rule="evenodd" d="M181,362l217,0l0,-24l-217,0l0,24Z" class="g1_140" />
<g clip-path="url(#c24_140)">
<path fill-rule="evenodd" d="M188,362l202,0l0,-24l-202,0l0,24Z" class="g1_140" />
</g>
<path fill-rule="evenodd" d="M399,362l68,0l0,-24l-68,0l0,24Z" class="g1_140" />
<g clip-path="url(#c25_140)">
<path fill-rule="evenodd" d="M407,362l52,0l0,-24l-52,0l0,24Z" class="g1_140" />
</g>
<path fill-rule="evenodd" d="M468,362l342,0l0,-24l-342,0l0,24Z" class="g1_140" />
<g clip-path="url(#c26_140)">
<path fill-rule="evenodd" d="M476,362l327,0l0,-24l-327,0l0,24Z" class="g1_140" />
</g>
<path fill-rule="evenodd" d="M812,362l60,0l0,-24l-60,0l0,24Z" class="g1_140" />
<g clip-path="url(#c27_140)">
<path fill-rule="evenodd" d="M819,362l45,0l0,-24l-45,0l0,24Z" class="g1_140" />
</g>
<path d="M46.5,338.5l0,-1" class="g2_140" />
<path d="M80.5,338.5l0,-1" class="g2_140" />
<path d="M113.5,338.5l0,-1" class="g2_140" />
<path d="M146.5,338.5l0,-1" class="g2_140" />
<path d="M179.5,338.5l0,-1" class="g2_140" />
<path d="M181.5,338.5l217,0" class="g2_140" />
<path d="M398.5,338.5l0,-1" class="g2_140" />
<path d="M399.5,338.5l68,0" class="g2_140" />
<path d="M467.5,338.5l0,-1" class="g2_140" />
<path d="M468.5,338.5l342,0" class="g2_140" />
<path d="M810.5,338.5l0,-1" class="g2_140" />
<path d="M812.5,338.5l60,0" class="g2_140" />
<path d="M872.5,338.5l0,-1" class="g2_140" />
<path d="M46.5,362.5l0,-24" class="g2_140" />
<path d="M80.5,362.5l0,-24" class="g2_140" />
<path d="M113.5,362.5l0,-24" class="g2_140" />
<path d="M146.5,362.5l0,-24" class="g2_140" />
<path d="M179.5,362.5l0,-24" class="g2_140" />
<path d="M398.5,362.5l0,-24" class="g2_140" />
<path d="M467.5,362.5l0,-24" class="g2_140" />
<path d="M810.5,362.5l0,-24" class="g2_140" />
<path d="M872.5,362.5l0,-24" class="g2_140" />
<path fill-rule="evenodd" d="M47,387l33,0l0,-25l-33,0l0,25Z" class="g1_140" />
<path fill-rule="evenodd" d="M81,387l32,0l0,-25l-32,0l0,25Z" class="g1_140" />
<path fill-rule="evenodd" d="M115,387l31,0l0,-25l-31,0l0,25Z" class="g1_140" />
<path fill-rule="evenodd" d="M148,387l31,0l0,-25l-31,0l0,25Z" class="g1_140" />
<path fill-rule="evenodd" d="M181,387l217,0l0,-23l-217,0l0,23Z" class="g1_140" />
<g clip-path="url(#c28_140)">
<path fill-rule="evenodd" d="M188,387l202,0l0,-23l-202,0l0,23Z" class="g1_140" />
</g>
<path fill-rule="evenodd" d="M399,387l68,0l0,-23l-68,0l0,23Z" class="g1_140" />
<g clip-path="url(#c29_140)">
<path fill-rule="evenodd" d="M407,387l52,0l0,-23l-52,0l0,23Z" class="g1_140" />
</g>
<path fill-rule="evenodd" d="M468,387l342,0l0,-23l-342,0l0,23Z" class="g1_140" />
<g clip-path="url(#c30_140)">
<path fill-rule="evenodd" d="M476,387l327,0l0,-23l-327,0l0,23Z" class="g1_140" />
</g>
<path fill-rule="evenodd" d="M812,387l60,0l0,-23l-60,0l0,23Z" class="g1_140" />
<g clip-path="url(#c31_140)">
<path fill-rule="evenodd" d="M819,387l45,0l0,-23l-45,0l0,23Z" class="g1_140" />
</g>
<path d="M46.5,363.5l0,-1" class="g2_140" />
<path d="M80.5,363.5l0,-1" class="g2_140" />
<path d="M113.5,363.5l0,-1" class="g2_140" />
<path d="M146.5,363.5l0,-1" class="g2_140" />
<path d="M179.5,363.5l0,-1" class="g2_140" />
<path d="M181.5,363.5l217,0" class="g2_140" />
<path d="M398.5,363.5l0,-1" class="g2_140" />
<path d="M399.5,363.5l68,0" class="g2_140" />
<path d="M467.5,363.5l0,-1" class="g2_140" />
<path d="M468.5,363.5l342,0" class="g2_140" />
<path d="M810.5,363.5l0,-1" class="g2_140" />
<path d="M812.5,363.5l60,0" class="g2_140" />
<path d="M872.5,363.5l0,-1" class="g2_140" />
<path d="M46.5,387.5l0,-24" class="g2_140" />
<path d="M80.5,387.5l0,-24" class="g2_140" />
<path d="M113.5,387.5l0,-24" class="g2_140" />
<path d="M146.5,387.5l0,-24" class="g2_140" />
<path d="M179.5,387.5l0,-24" class="g2_140" />
<path d="M398.5,387.5l0,-24" class="g2_140" />
<path d="M467.5,387.5l0,-24" class="g2_140" />
<path d="M810.5,387.5l0,-24" class="g2_140" />
<path d="M872.5,387.5l0,-24" class="g2_140" />
<path fill-rule="evenodd" d="M47,747l33,0L80,387l-33,0l0,360Z" class="g1_140" />
<path fill-rule="evenodd" d="M81,747l32,0l0,-360l-32,0l0,360Z" class="g1_140" />
<path fill-rule="evenodd" d="M115,747l31,0l0,-360l-31,0l0,360Z" class="g1_140" />
<path fill-rule="evenodd" d="M148,747l31,0l0,-360l-31,0l0,360Z" class="g1_140" />
<path fill-rule="evenodd" d="M181,747l217,0l0,-358l-217,0l0,358Z" class="g1_140" />
<g clip-path="url(#c32_140)">
<path fill-rule="evenodd" d="M188,413l202,0l0,-24l-202,0l0,24Z" class="g1_140" />
</g>
<path fill-rule="evenodd" d="M399,747l68,0l0,-358l-68,0l0,358Z" class="g1_140" />
<g clip-path="url(#c33_140)">
<path fill-rule="evenodd" d="M407,413l52,0l0,-24l-52,0l0,24Z" class="g1_140" />
</g>
<path fill-rule="evenodd" d="M468,747l342,0l0,-358l-342,0l0,358Z" class="g1_140" />
<g clip-path="url(#c34_140)">
<path fill-rule="evenodd" d="M476,413l327,0l0,-24l-327,0l0,24Z" class="g1_140" />
</g>
<path fill-rule="evenodd" d="M476,437l327,0l0,-24l-327,0l0,24Z" class="g1_140" />
<path fill-rule="evenodd" d="M476,460l327,0l0,-23l-327,0l0,23Z" class="g1_140" />
<path fill-rule="evenodd" d="M476,484l327,0l0,-24l-327,0l0,24Z" class="g1_140" />
<path fill-rule="evenodd" d="M476,508l327,0l0,-24l-327,0l0,24Z" class="g1_140" />
<path fill-rule="evenodd" d="M476,532l327,0l0,-24l-327,0l0,24Z" class="g1_140" />
<path fill-rule="evenodd" d="M476,556l327,0l0,-24l-327,0l0,24Z" class="g1_140" />
<path fill-rule="evenodd" d="M476,580l327,0l0,-24l-327,0l0,24Z" class="g1_140" />
<path fill-rule="evenodd" d="M476,603l327,0l0,-23l-327,0l0,23Z" class="g1_140" />
<path fill-rule="evenodd" d="M476,627l327,0l0,-24l-327,0l0,24Z" class="g1_140" />
<path fill-rule="evenodd" d="M476,651l327,0l0,-24l-327,0l0,24Z" class="g1_140" />
<path fill-rule="evenodd" d="M476,675l327,0l0,-24l-327,0l0,24Z" class="g1_140" />
<path fill-rule="evenodd" d="M476,699l327,0l0,-24l-327,0l0,24Z" class="g1_140" />
<path d="M476.5,695.5l324,0" class="g3_140" />
<path fill-rule="evenodd" d="M476,723l327,0l0,-24l-327,0l0,24Z" class="g1_140" />
<path d="M476.5,718.5l320,0" class="g3_140" />
<path fill-rule="evenodd" d="M476,747l327,0l0,-24l-327,0l0,24Z" class="g1_140" />
<path d="M476.5,742.5l32,0" class="g3_140" />
<path fill-rule="evenodd" d="M812,747l60,0l0,-358l-60,0l0,358Z" class="g1_140" />
<g clip-path="url(#c35_140)">
<path fill-rule="evenodd" d="M819,413l45,0l0,-24l-45,0l0,24Z" class="g1_140" />
</g>
<path d="M46.5,389.5l0,-2" class="g2_140" />
<path d="M80.5,389.5l0,-2" class="g2_140" />
<path d="M113.5,389.5l0,-2" class="g2_140" />
<path d="M146.5,389.5l0,-2" class="g2_140" />
<path d="M179.5,389.5l0,-2" class="g2_140" />
<path d="M181.5,389.5l217,0" class="g2_140" />
<path d="M398.5,389.5l0,-2" class="g2_140" />
<path d="M399.5,389.5l68,0" class="g2_140" />
<path d="M467.5,389.5l0,-2" class="g2_140" />
<path d="M468.5,389.5l342,0" class="g2_140" />
<path d="M810.5,389.5l0,-2" class="g2_140" />
<path d="M812.5,389.5l60,0" class="g2_140" />
<path d="M872.5,389.5l0,-2" class="g2_140" />
<path d="M46.5,747.5l0,-358" class="g2_140" />
<path d="M46.5,748.5l0,-1" class="g2_140" />
<path d="M46.5,748.5l0,-1" class="g2_140" />
<path d="M47.5,748.5l33,0" class="g2_140" />
<path d="M80.5,747.5l0,-358" class="g2_140" />
<path d="M80.5,748.5l0,-1" class="g2_140" />
<path d="M81.5,748.5l32,0" class="g2_140" />
<path d="M113.5,747.5l0,-358" class="g2_140" />
<path d="M113.5,748.5l0,-1" class="g2_140" />
<path d="M114.5,748.5l32,0" class="g2_140" />
<path d="M146.5,747.5l0,-358" class="g2_140" />
<path d="M146.5,748.5l0,-1" class="g2_140" />
<path d="M148.5,748.5l31,0" class="g2_140" />
<path d="M179.5,747.5l0,-358" class="g2_140" />
<path d="M179.5,748.5l0,-1" class="g2_140" />
<path d="M181.5,748.5l217,0" class="g2_140" />
<path d="M398.5,747.5l0,-358" class="g2_140" />
<path d="M398.5,748.5l0,-1" class="g2_140" />
<path d="M399.5,748.5l68,0" class="g2_140" />
<path d="M467.5,747.5l0,-358" class="g2_140" />
<path d="M467.5,748.5l0,-1" class="g2_140" />
<path d="M468.5,748.5l342,0" class="g2_140" />
<path d="M810.5,747.5l0,-358" class="g2_140" />
<path d="M810.5,748.5l0,-1" class="g2_140" />
<path d="M812.5,748.5l60,0" class="g2_140" />
<path d="M872.5,747.5l0,-358" class="g2_140" />
<path d="M872.5,748.5l0,-1" class="g2_140" />
<path d="M872.5,748.5l0,-1" class="g2_140" />
</svg>