<?xml version="1.0" encoding="UTF-8" standalone="no"?>
<!DOCTYPE svg PUBLIC "-//W3C//DTD SVG 1.1//EN"
"http://www.w3.org/Graphics/SVG/1.1/DTD/svg11.dtd">
<svg version="1.1" xmlns="http://www.w3.org/2000/svg" xmlns:xlink="http://www.w3.org/1999/xlink">
<defs>
<clipPath id="c0_339"><path d="M47.5,635.5l0,-476l840,0l0,476Z" /></clipPath>
<clipPath id="c1_339"><path d="M47.5,748.5l0,-25l389,0l0,25Z" /></clipPath>
<clipPath id="c2_339"><path d="M438.5,748.5l0,-25l70,0l0,25Z" /></clipPath>
<clipPath id="c3_339"><path d="M509.5,748.5l0,-25l378,0l0,25Z" /></clipPath>
<clipPath id="c4_339"><path d="M47.5,1093.5l0,-344l38,0l0,344Z" /></clipPath>
<clipPath id="c5_339"><path d="M87.5,797.5l0,-48l349,0l0,48Z" /></clipPath>
<clipPath id="c6_339"><path d="M438.5,797.5l0,-48l70,0l0,48Z" /></clipPath>
<clipPath id="c7_339"><path d="M509.5,797.5l0,-48l378,0l0,48Z" /></clipPath>
<clipPath id="c8_339"><path d="M87.5,823.5l0,-25l349,0l0,25Z" /></clipPath>
<clipPath id="c9_339"><path d="M438.5,823.5l0,-25l70,0l0,25Z" /></clipPath>
<clipPath id="c10_339"><path d="M509.5,823.5l0,-25l378,0l0,25Z" /></clipPath>
<clipPath id="c11_339"><path d="M87.5,849.5l0,-25l349,0l0,25Z" /></clipPath>
<clipPath id="c12_339"><path d="M438.5,849.5l0,-25l70,0l0,25Z" /></clipPath>
<clipPath id="c13_339"><path d="M509.5,849.5l0,-25l378,0l0,25Z" /></clipPath>
<clipPath id="c14_339"><path d="M87.5,1093.5l0,-243l39,0l0,243Z" /></clipPath>
<clipPath id="c15_339"><path d="M127.5,1093.5l0,-243l40,0l0,243Z" /></clipPath>
<clipPath id="c16_339"><path d="M168.5,1093.5l0,-243l39,0l0,243Z" /></clipPath>
<clipPath id="c17_339"><path d="M209.5,874.5l0,-24l227,0l0,24Z" /></clipPath>
<clipPath id="c18_339"><path d="M438.5,874.5l0,-24l70,0l0,24Z" /></clipPath>
<clipPath id="c19_339"><path d="M509.5,874.5l0,-24l378,0l0,24Z" /></clipPath>
<clipPath id="c20_339"><path d="M209.5,899.5l0,-23l227,0l0,23Z" /></clipPath>
<clipPath id="c21_339"><path d="M438.5,899.5l0,-23l70,0l0,23Z" /></clipPath>
<clipPath id="c22_339"><path d="M509.5,899.5l0,-23l378,0l0,23Z" /></clipPath>
<clipPath id="c23_339"><path d="M209.5,949.5l0,-48l227,0l0,48Z" /></clipPath>
<clipPath id="c24_339"><path d="M438.5,949.5l0,-48l70,0l0,48Z" /></clipPath>
<clipPath id="c25_339"><path d="M509.5,949.5l0,-48l378,0l0,48Z" /></clipPath>
<clipPath id="c26_339"><path d="M509.5,1093.5l0,-143l378,0l0,143Z" /></clipPath>
<style type="text/css"><![CDATA[
.g2_339{
fill: none;
stroke: #7E7E7E;
stroke-width: 1;
stroke-linecap: butt;
stroke-linejoin: miter;
}
.g3_339{
fill: #DBE5F1;
}
.g1_339{
fill: #F1F1F1;
}
]]></style>
</defs>
<path fill-rule="evenodd" d="M47,635l840,0l0,-476L47,159l0,476Z" class="g1_339" />
<g clip-path="url(#c0_339)">
<path fill-rule="evenodd" d="M55,182l825,0l0,-23L55,159l0,23Z" class="g1_339" />
</g>
<path fill-rule="evenodd" d="M55,206l825,0l0,-24L55,182l0,24Z" class="g1_339" />
<path fill-rule="evenodd" d="M55,230l825,0l0,-24L55,206l0,24Z" class="g1_339" />
<path fill-rule="evenodd" d="M55,254l825,0l0,-24L55,230l0,24Z" class="g1_339" />
<path fill-rule="evenodd" d="M55,278l825,0l0,-24L55,254l0,24Z" class="g1_339" />
<path fill-rule="evenodd" d="M55,302l825,0l0,-24L55,278l0,24Z" class="g1_339" />
<path fill-rule="evenodd" d="M55,325l825,0l0,-23L55,302l0,23Z" class="g1_339" />
<path fill-rule="evenodd" d="M55,349l825,0l0,-24L55,325l0,24Z" class="g1_339" />
<path fill-rule="evenodd" d="M55,373l825,0l0,-24L55,349l0,24Z" class="g1_339" />
<path fill-rule="evenodd" d="M55,397l825,0l0,-24L55,373l0,24Z" class="g1_339" />
<path fill-rule="evenodd" d="M55,421l825,0l0,-24L55,397l0,24Z" class="g1_339" />
<path fill-rule="evenodd" d="M55,445l825,0l0,-24L55,421l0,24Z" class="g1_339" />
<path fill-rule="evenodd" d="M55,469l825,0l0,-24L55,445l0,24Z" class="g1_339" />
<path fill-rule="evenodd" d="M55,492l825,0l0,-23L55,469l0,23Z" class="g1_339" />
<path fill-rule="evenodd" d="M55,516l825,0l0,-24L55,492l0,24Z" class="g1_339" />
<path fill-rule="evenodd" d="M55,540l825,0l0,-24L55,516l0,24Z" class="g1_339" />
<path fill-rule="evenodd" d="M55,564l825,0l0,-24L55,540l0,24Z" class="g1_339" />
<path fill-rule="evenodd" d="M55,588l825,0l0,-24L55,564l0,24Z" class="g1_339" />
<path fill-rule="evenodd" d="M55,612l825,0l0,-24L55,588l0,24Z" class="g1_339" />
<path fill-rule="evenodd" d="M55,635l825,0l0,-23L55,612l0,23Z" class="g1_339" />
<path d="M46.5,159.5l0,-2" class="g2_339" />
<path d="M46.5,159.5l0,-2" class="g2_339" />
<path d="M47.5,159.5l840,0" class="g2_339" />
<path d="M887.5,159.5l0,-2" class="g2_339" />
<path d="M887.5,159.5l0,-2" class="g2_339" />
<path d="M46.5,636.5l0,-477" class="g2_339" />
<path d="M46.5,637.5l0,-1" class="g2_339" />
<path d="M46.5,637.5l0,-1" class="g2_339" />
<path d="M47.5,637.5l840,0" class="g2_339" />
<path d="M887.5,636.5l0,-477" class="g2_339" />
<path d="M887.5,637.5l0,-1" class="g2_339" />
<path d="M887.5,637.5l0,-1" class="g2_339" />
<path fill-rule="evenodd" d="M47,748l389,0l0,-25L47,723l0,25Z" class="g3_339" />
<g clip-path="url(#c1_339)">
<path fill-rule="evenodd" d="M55,747l374,0l0,-24L55,723l0,24Z" class="g3_339" />
</g>
<path fill-rule="evenodd" d="M438,748l70,0l0,-25l-70,0l0,25Z" class="g3_339" />
<g clip-path="url(#c2_339)">
<path fill-rule="evenodd" d="M445,747l55,0l0,-24l-55,0l0,24Z" class="g3_339" />
</g>
<path fill-rule="evenodd" d="M509,748l378,0l0,-25l-378,0l0,25Z" class="g3_339" />
<g clip-path="url(#c3_339)">
<path fill-rule="evenodd" d="M517,747l363,0l0,-24l-363,0l0,24Z" class="g3_339" />
</g>
<path d="M46.5,723.5l0,-1" class="g2_339" />
<path d="M46.5,723.5l0,-1" class="g2_339" />
<path d="M47.5,723.5l389,0" class="g2_339" />
<path d="M436.5,723.5l0,-1" class="g2_339" />
<path d="M438.5,723.5l70,0" class="g2_339" />
<path d="M508.5,723.5l0,-1" class="g2_339" />
<path d="M509.5,723.5l378,0" class="g2_339" />
<path d="M887.5,723.5l0,-1" class="g2_339" />
<path d="M887.5,723.5l0,-1" class="g2_339" />
<path d="M46.5,748.5l0,-25" class="g2_339" />
<path d="M436.5,748.5l0,-25" class="g2_339" />
<path d="M508.5,748.5l0,-25" class="g2_339" />
<path d="M887.5,748.5l0,-25" class="g2_339" />
<path fill-rule="evenodd" d="M47,1093l38,0L85,749l-38,0l0,344Z" class="g1_339" />
<g clip-path="url(#c4_339)">
<path fill-rule="evenodd" d="M55,773l22,0l0,-24l-22,0l0,24Z" class="g1_339" />
</g>
<path fill-rule="evenodd" d="M87,797l349,0l0,-48L87,749l0,48Z" class="g1_339" />
<g clip-path="url(#c5_339)">
<path fill-rule="evenodd" d="M94,773l335,0l0,-24L94,749l0,24Z" class="g1_339" />
</g>
<path fill-rule="evenodd" d="M438,797l70,0l0,-48l-70,0l0,48Z" class="g1_339" />
<g clip-path="url(#c6_339)">
<path fill-rule="evenodd" d="M445,773l55,0l0,-24l-55,0l0,24Z" class="g1_339" />
</g>
<path fill-rule="evenodd" d="M509,797l378,0l0,-48l-378,0l0,48Z" class="g1_339" />
<g clip-path="url(#c7_339)">
<path fill-rule="evenodd" d="M517,773l363,0l0,-24l-363,0l0,24Z" class="g1_339" />
</g>
<path fill-rule="evenodd" d="M517,797l363,0l0,-24l-363,0l0,24Z" class="g1_339" />
<path d="M46.5,749.5l0,-1" class="g2_339" />
<path d="M47.5,749.5l38,0" class="g2_339" />
<path d="M85.5,749.5l0,-1" class="g2_339" />
<path d="M86.5,749.5l350,0" class="g2_339" />
<path d="M436.5,749.5l0,-1" class="g2_339" />
<path d="M438.5,749.5l70,0" class="g2_339" />
<path d="M508.5,749.5l0,-1" class="g2_339" />
<path d="M509.5,749.5l378,0" class="g2_339" />
<path d="M887.5,749.5l0,-1" class="g2_339" />
<path d="M46.5,797.5l0,-48" class="g2_339" />
<path d="M85.5,797.5l0,-48" class="g2_339" />
<path d="M436.5,797.5l0,-48" class="g2_339" />
<path d="M508.5,797.5l0,-48" class="g2_339" />
<path d="M887.5,797.5l0,-48" class="g2_339" />
<path fill-rule="evenodd" d="M87,823l349,0l0,-25L87,798l0,25Z" class="g1_339" />
<g clip-path="url(#c8_339)">
<path fill-rule="evenodd" d="M94,822l335,0l0,-24L94,798l0,24Z" class="g1_339" />
</g>
<path fill-rule="evenodd" d="M438,823l70,0l0,-25l-70,0l0,25Z" class="g1_339" />
<g clip-path="url(#c9_339)">
<path fill-rule="evenodd" d="M445,822l55,0l0,-24l-55,0l0,24Z" class="g1_339" />
</g>
<path fill-rule="evenodd" d="M509,823l378,0l0,-25l-378,0l0,25Z" class="g1_339" />
<g clip-path="url(#c10_339)">
<path fill-rule="evenodd" d="M517,822l363,0l0,-24l-363,0l0,24Z" class="g1_339" />
</g>
<path d="M46.5,798.5l0,-1" class="g2_339" />
<path d="M85.5,798.5l0,-1" class="g2_339" />
<path d="M86.5,798.5l350,0" class="g2_339" />
<path d="M436.5,798.5l0,-1" class="g2_339" />
<path d="M438.5,798.5l70,0" class="g2_339" />
<path d="M508.5,798.5l0,-1" class="g2_339" />
<path d="M509.5,798.5l378,0" class="g2_339" />
<path d="M887.5,798.5l0,-1" class="g2_339" />
<path d="M46.5,823.5l0,-25" class="g2_339" />
<path d="M85.5,823.5l0,-25" class="g2_339" />
<path d="M436.5,823.5l0,-25" class="g2_339" />
<path d="M508.5,823.5l0,-25" class="g2_339" />
<path d="M887.5,823.5l0,-25" class="g2_339" />
<path fill-rule="evenodd" d="M87,849l349,0l0,-25L87,824l0,25Z" class="g1_339" />
<g clip-path="url(#c11_339)">
<path fill-rule="evenodd" d="M94,848l335,0l0,-24L94,824l0,24Z" class="g1_339" />
</g>
<path fill-rule="evenodd" d="M438,849l70,0l0,-25l-70,0l0,25Z" class="g1_339" />
<g clip-path="url(#c12_339)">
<path fill-rule="evenodd" d="M445,848l55,0l0,-24l-55,0l0,24Z" class="g1_339" />
</g>
<path fill-rule="evenodd" d="M509,849l378,0l0,-25l-378,0l0,25Z" class="g1_339" />
<g clip-path="url(#c13_339)">
<path fill-rule="evenodd" d="M517,848l363,0l0,-24l-363,0l0,24Z" class="g1_339" />
</g>
<path d="M46.5,824.5l0,-1" class="g2_339" />
<path d="M85.5,824.5l0,-1" class="g2_339" />
<path d="M86.5,824.5l350,0" class="g2_339" />
<path d="M436.5,824.5l0,-1" class="g2_339" />
<path d="M438.5,824.5l70,0" class="g2_339" />
<path d="M508.5,824.5l0,-1" class="g2_339" />
<path d="M509.5,824.5l378,0" class="g2_339" />
<path d="M887.5,824.5l0,-1" class="g2_339" />
<path d="M46.5,849.5l0,-25" class="g2_339" />
<path d="M85.5,849.5l0,-25" class="g2_339" />
<path d="M436.5,849.5l0,-25" class="g2_339" />
<path d="M508.5,849.5l0,-25" class="g2_339" />
<path d="M887.5,849.5l0,-25" class="g2_339" />
<path fill-rule="evenodd" d="M87,1093l39,0l0,-243l-39,0l0,243Z" class="g1_339" />
<g clip-path="url(#c14_339)">
<path fill-rule="evenodd" d="M94,1093l24,0l0,-243l-24,0l0,243Z" class="g1_339" />
</g>
<path fill-rule="evenodd" d="M127,1093l40,0l0,-243l-40,0l0,243Z" class="g1_339" />
<g clip-path="url(#c15_339)">
<path fill-rule="evenodd" d="M135,1093l24,0l0,-243l-24,0l0,243Z" class="g1_339" />
</g>
<path fill-rule="evenodd" d="M168,1093l39,0l0,-243l-39,0l0,243Z" class="g1_339" />
<g clip-path="url(#c16_339)">
<path fill-rule="evenodd" d="M176,1093l23,0l0,-243l-23,0l0,243Z" class="g1_339" />
</g>
<path fill-rule="evenodd" d="M209,874l227,0l0,-24l-227,0l0,24Z" class="g1_339" />
<g clip-path="url(#c17_339)">
<path fill-rule="evenodd" d="M216,874l213,0l0,-24l-213,0l0,24Z" class="g1_339" />
</g>
<path fill-rule="evenodd" d="M438,874l70,0l0,-24l-70,0l0,24Z" class="g1_339" />
<g clip-path="url(#c18_339)">
<path fill-rule="evenodd" d="M445,874l55,0l0,-24l-55,0l0,24Z" class="g1_339" />
</g>
<path fill-rule="evenodd" d="M509,874l378,0l0,-24l-378,0l0,24Z" class="g1_339" />
<g clip-path="url(#c19_339)">
<path fill-rule="evenodd" d="M517,874l363,0l0,-24l-363,0l0,24Z" class="g1_339" />
</g>
<path d="M46.5,850.5l0,-1" class="g2_339" />
<path d="M85.5,850.5l0,-1" class="g2_339" />
<path d="M86.5,850.5l40,0" class="g2_339" />
<path d="M126.5,850.5l0,-1" class="g2_339" />
<path d="M127.5,850.5l40,0" class="g2_339" />
<path d="M167.5,850.5l0,-1" class="g2_339" />
<path d="M168.5,850.5l39,0" class="g2_339" />
<path d="M207.5,850.5l0,-1" class="g2_339" />
<path d="M209.5,850.5l227,0" class="g2_339" />
<path d="M436.5,850.5l0,-1" class="g2_339" />
<path d="M438.5,850.5l70,0" class="g2_339" />
<path d="M508.5,850.5l0,-1" class="g2_339" />
<path d="M509.5,850.5l378,0" class="g2_339" />
<path d="M887.5,850.5l0,-1" class="g2_339" />
<path d="M46.5,874.5l0,-24" class="g2_339" />
<path d="M85.5,874.5l0,-24" class="g2_339" />
<path d="M126.5,874.5l0,-24" class="g2_339" />
<path d="M167.5,874.5l0,-24" class="g2_339" />
<path d="M207.5,874.5l0,-24" class="g2_339" />
<path d="M436.5,874.5l0,-24" class="g2_339" />
<path d="M508.5,874.5l0,-24" class="g2_339" />
<path d="M887.5,874.5l0,-24" class="g2_339" />
<path fill-rule="evenodd" d="M209,899l227,0l0,-23l-227,0l0,23Z" class="g1_339" />
<g clip-path="url(#c20_339)">
<path fill-rule="evenodd" d="M216,899l213,0l0,-23l-213,0l0,23Z" class="g1_339" />
</g>
<path fill-rule="evenodd" d="M438,899l70,0l0,-23l-70,0l0,23Z" class="g1_339" />
<g clip-path="url(#c21_339)">
<path fill-rule="evenodd" d="M445,899l55,0l0,-23l-55,0l0,23Z" class="g1_339" />
</g>
<path fill-rule="evenodd" d="M509,899l378,0l0,-23l-378,0l0,23Z" class="g1_339" />
<g clip-path="url(#c22_339)">
<path fill-rule="evenodd" d="M517,899l363,0l0,-23l-363,0l0,23Z" class="g1_339" />
</g>
<path d="M46.5,875.5l0,-1" class="g2_339" />
<path d="M85.5,875.5l0,-1" class="g2_339" />
<path d="M126.5,875.5l0,-1" class="g2_339" />
<path d="M167.5,875.5l0,-1" class="g2_339" />
<path d="M207.5,875.5l0,-1" class="g2_339" />
<path d="M209.5,875.5l227,0" class="g2_339" />
<path d="M436.5,875.5l0,-1" class="g2_339" />
<path d="M438.5,875.5l70,0" class="g2_339" />
<path d="M508.5,875.5l0,-1" class="g2_339" />
<path d="M509.5,875.5l378,0" class="g2_339" />
<path d="M887.5,875.5l0,-1" class="g2_339" />
<path d="M46.5,899.5l0,-24" class="g2_339" />
<path d="M85.5,899.5l0,-24" class="g2_339" />
<path d="M126.5,899.5l0,-24" class="g2_339" />
<path d="M167.5,899.5l0,-24" class="g2_339" />
<path d="M207.5,899.5l0,-24" class="g2_339" />
<path d="M436.5,899.5l0,-24" class="g2_339" />
<path d="M508.5,899.5l0,-24" class="g2_339" />
<path d="M887.5,899.5l0,-24" class="g2_339" />
<path fill-rule="evenodd" d="M209,949l227,0l0,-48l-227,0l0,48Z" class="g1_339" />
<g clip-path="url(#c23_339)">
<path fill-rule="evenodd" d="M216,925l213,0l0,-24l-213,0l0,24Z" class="g1_339" />
</g>
<path fill-rule="evenodd" d="M438,949l70,0l0,-48l-70,0l0,48Z" class="g1_339" />
<g clip-path="url(#c24_339)">
<path fill-rule="evenodd" d="M445,925l55,0l0,-24l-55,0l0,24Z" class="g1_339" />
</g>
<path fill-rule="evenodd" d="M509,949l378,0l0,-48l-378,0l0,48Z" class="g1_339" />
<g clip-path="url(#c25_339)">
<path fill-rule="evenodd" d="M517,925l363,0l0,-24l-363,0l0,24Z" class="g1_339" />
<path fill-rule="evenodd" d="M517,949l363,0l0,-24l-363,0l0,24Z" class="g1_339" />
</g>
<path d="M46.5,901.5l0,-2" class="g2_339" />
<path d="M85.5,901.5l0,-2" class="g2_339" />
<path d="M126.5,901.5l0,-2" class="g2_339" />
<path d="M167.5,901.5l0,-2" class="g2_339" />
<path d="M207.5,901.5l0,-2" class="g2_339" />
<path d="M209.5,901.5l227,0" class="g2_339" />
<path d="M436.5,901.5l0,-2" class="g2_339" />
<path d="M438.5,901.5l70,0" class="g2_339" />
<path d="M508.5,901.5l0,-2" class="g2_339" />
<path d="M509.5,901.5l378,0" class="g2_339" />
<path d="M887.5,901.5l0,-2" class="g2_339" />
<path d="M46.5,949.5l0,-48" class="g2_339" />
<path d="M85.5,949.5l0,-48" class="g2_339" />
<path d="M126.5,949.5l0,-48" class="g2_339" />
<path d="M167.5,949.5l0,-48" class="g2_339" />
<path d="M207.5,949.5l0,-48" class="g2_339" />
<path d="M436.5,949.5l0,-48" class="g2_339" />
<path d="M508.5,949.5l0,-48" class="g2_339" />
<path d="M887.5,949.5l0,-48" class="g2_339" />
<path fill-rule="evenodd" d="M209,1093l227,0l0,-143l-227,0l0,143Z" class="g1_339" />
<path fill-rule="evenodd" d="M216,974l213,0l0,-24l-213,0l0,24Z" class="g1_339" />
<path fill-rule="evenodd" d="M438,1093l70,0l0,-143l-70,0l0,143Z" class="g1_339" />
<path fill-rule="evenodd" d="M445,974l55,0l0,-24l-55,0l0,24Z" class="g1_339" />
<path fill-rule="evenodd" d="M509,1093l378,0l0,-143l-378,0l0,143Z" class="g1_339" />
<path fill-rule="evenodd" d="M517,974l363,0l0,-24l-363,0l0,24Z" class="g1_339" />
<path fill-rule="evenodd" d="M517,998l363,0l0,-24l-363,0l0,24Z" class="g1_339" />
<path fill-rule="evenodd" d="M517,1022l363,0l0,-24l-363,0l0,24Z" class="g1_339" />
<path fill-rule="evenodd" d="M517,1045l363,0l0,-23l-363,0l0,23Z" class="g1_339" />
<path fill-rule="evenodd" d="M517,1069l363,0l0,-24l-363,0l0,24Z" class="g1_339" />
<g clip-path="url(#c26_339)">
<path fill-rule="evenodd" d="M517,1093l363,0l0,-24l-363,0l0,24Z" class="g1_339" />
</g>
<path d="M46.5,950.5l0,-1" class="g2_339" />
<path d="M85.5,950.5l0,-1" class="g2_339" />
<path d="M126.5,950.5l0,-1" class="g2_339" />
<path d="M167.5,950.5l0,-1" class="g2_339" />
<path d="M207.5,950.5l0,-1" class="g2_339" />
<path d="M209.5,950.5l227,0" class="g2_339" />
<path d="M436.5,950.5l0,-1" class="g2_339" />
<path d="M438.5,950.5l70,0" class="g2_339" />
<path d="M508.5,950.5l0,-1" class="g2_339" />
<path d="M509.5,950.5l378,0" class="g2_339" />
<path d="M887.5,950.5l0,-1" class="g2_339" />
<path d="M46.5,1093.5l0,-143" class="g2_339" />
<path d="M46.5,1095.5l0,-2" class="g2_339" />
<path d="M46.5,1095.5l0,-2" class="g2_339" />
<path d="M47.5,1095.5l38,0" class="g2_339" />
<path d="M85.5,1093.5l0,-143" class="g2_339" />
<path d="M85.5,1095.5l0,-2" class="g2_339" />
<path d="M86.5,1095.5l40,0" class="g2_339" />
<path d="M126.5,1093.5l0,-143" class="g2_339" />
<path d="M126.5,1095.5l0,-2" class="g2_339" />
<path d="M127.5,1095.5l40,0" class="g2_339" />
<path d="M167.5,1093.5l0,-143" class="g2_339" />
<path d="M167.5,1095.5l0,-2" class="g2_339" />
<path d="M168.5,1095.5l39,0" class="g2_339" />
<path d="M207.5,1093.5l0,-143" class="g2_339" />
<path d="M207.5,1095.5l0,-2" class="g2_339" />
<path d="M209.5,1095.5l227,0" class="g2_339" />
<path d="M436.5,1093.5l0,-143" class="g2_339" />
<path d="M436.5,1095.5l0,-2" class="g2_339" />
<path d="M438.5,1095.5l70,0" class="g2_339" />
<path d="M508.5,1093.5l0,-143" class="g2_339" />
<path d="M508.5,1095.5l0,-2" class="g2_339" />
<path d="M509.5,1095.5l378,0" class="g2_339" />
<path d="M887.5,1093.5l0,-143" class="g2_339" />
<path d="M887.5,1095.5l0,-2" class="g2_339" />
<path d="M887.5,1095.5l0,-2" class="g2_339" />
</svg>