<?xml version="1.0" encoding="UTF-8" standalone="no"?>
<!DOCTYPE svg PUBLIC "-//W3C//DTD SVG 1.1//EN"
"http://www.w3.org/Graphics/SVG/1.1/DTD/svg11.dtd">
<svg version="1.1" xmlns="http://www.w3.org/2000/svg" xmlns:xlink="http://www.w3.org/1999/xlink">
<defs>
<style type="text/css"><![CDATA[
.g1_201{
fill: none;
stroke: #000000;
stroke-width: 1;
stroke-linecap: butt;
stroke-linejoin: miter;
}
]]></style>
</defs>
<path d="M433.5,110.5l82,0" class="g1_201" />
<path d="M516.5,110.5l295,0" class="g1_201" />
<path d="M53.5,325.5l0,-215" class="g1_201" />
<path d="M92.5,325.5l0,-215" class="g1_201" />
<path d="M131.5,325.5l0,-215" class="g1_201" />
<path d="M171.5,325.5l0,-215" class="g1_201" />
<path d="M210.5,325.5l0,-215" class="g1_201" />
<path d="M432.5,325.5l0,-215" class="g1_201" />
<path d="M515.5,325.5l0,-215" class="g1_201" />
<path d="M811.5,325.5l0,-215" class="g1_201" />
<path d="M888.5,325.5l0,-215" class="g1_201" />
<path d="M211.5,325.5l93,0" class="g1_201" />
<path d="M305.5,325.5l127,0" class="g1_201" />
<path d="M433.5,325.5l82,0" class="g1_201" />
<path d="M516.5,325.5l295,0" class="g1_201" />
<path d="M811.5,325.5l77,0" class="g1_201" />
<path d="M53.5,364.5l0,-39" class="g1_201" />
<path d="M92.5,364.5l0,-39" class="g1_201" />
<path d="M131.5,364.5l0,-39" class="g1_201" />
<path d="M171.5,364.5l0,-39" class="g1_201" />
<path d="M210.5,364.5l0,-39" class="g1_201" />
<path d="M304.5,364.5l0,-39" class="g1_201" />
<path d="M432.5,364.5l0,-39" class="g1_201" />
<path d="M515.5,364.5l0,-39" class="g1_201" />
<path d="M811.5,364.5l0,-39" class="g1_201" />
<path d="M888.5,364.5l0,-39" class="g1_201" />
<path d="M53.5,365.5l0,-1" class="g1_201" />
<path d="M92.5,365.5l0,-1" class="g1_201" />
<path d="M131.5,365.5l0,-1" class="g1_201" />
<path d="M171.5,365.5l0,-1" class="g1_201" />
<path d="M210.5,365.5l0,-1" class="g1_201" />
<path d="M304.5,365.5l0,-1" class="g1_201" />
<path d="M305.5,365.5l127,0" class="g1_201" />
<path d="M432.5,365.5l0,-1" class="g1_201" />
<path d="M433.5,365.5l82,0" class="g1_201" />
<path d="M515.5,365.5l0,-1" class="g1_201" />
<path d="M516.5,365.5l295,0" class="g1_201" />
<path d="M811.5,365.5l0,-1" class="g1_201" />
<path d="M811.5,365.5l77,0" class="g1_201" />
<path d="M888.5,365.5l0,-1" class="g1_201" />
<path d="M53.5,407.5l0,-42" class="g1_201" />
<path d="M92.5,407.5l0,-42" class="g1_201" />
<path d="M131.5,407.5l0,-42" class="g1_201" />
<path d="M171.5,407.5l0,-42" class="g1_201" />
<path d="M210.5,407.5l0,-42" class="g1_201" />
<path d="M304.5,407.5l0,-42" class="g1_201" />
<path d="M432.5,407.5l0,-42" class="g1_201" />
<path d="M515.5,407.5l0,-42" class="g1_201" />
<path d="M811.5,407.5l0,-42" class="g1_201" />
<path d="M888.5,407.5l0,-42" class="g1_201" />
<path d="M305.5,407.5l127,0" class="g1_201" />
<path d="M433.5,407.5l82,0" class="g1_201" />
<path d="M516.5,407.5l295,0" class="g1_201" />
<path d="M811.5,407.5l77,0" class="g1_201" />
<path d="M53.5,439.5l0,-32" class="g1_201" />
<path d="M92.5,439.5l0,-32" class="g1_201" />
<path d="M131.5,439.5l0,-32" class="g1_201" />
<path d="M171.5,439.5l0,-32" class="g1_201" />
<path d="M210.5,439.5l0,-32" class="g1_201" />
<path d="M304.5,439.5l0,-32" class="g1_201" />
<path d="M432.5,439.5l0,-32" class="g1_201" />
<path d="M515.5,439.5l0,-32" class="g1_201" />
<path d="M811.5,439.5l0,-32" class="g1_201" />
<path d="M888.5,439.5l0,-32" class="g1_201" />
<path d="M53.5,440.5l0,-1" class="g1_201" />
<path d="M92.5,440.5l0,-1" class="g1_201" />
<path d="M131.5,440.5l0,-1" class="g1_201" />
<path d="M171.5,440.5l0,-1" class="g1_201" />
<path d="M210.5,440.5l0,-1" class="g1_201" />
<path d="M211.5,440.5l93,0" class="g1_201" />
<path d="M304.5,440.5l0,-1" class="g1_201" />
<path d="M305.5,440.5l127,0" class="g1_201" />
<path d="M432.5,440.5l0,-1" class="g1_201" />
<path d="M433.5,440.5l82,0" class="g1_201" />
<path d="M515.5,440.5l0,-1" class="g1_201" />
<path d="M516.5,440.5l295,0" class="g1_201" />
<path d="M811.5,440.5l0,-1" class="g1_201" />
<path d="M811.5,440.5l77,0" class="g1_201" />
<path d="M888.5,440.5l0,-1" class="g1_201" />
<path d="M53.5,464.5l0,-24" class="g1_201" />
<path d="M92.5,464.5l0,-24" class="g1_201" />
<path d="M131.5,464.5l0,-24" class="g1_201" />
<path d="M171.5,464.5l0,-24" class="g1_201" />
<path d="M210.5,464.5l0,-24" class="g1_201" />
<path d="M432.5,464.5l0,-24" class="g1_201" />
<path d="M515.5,464.5l0,-24" class="g1_201" />
<path d="M811.5,464.5l0,-24" class="g1_201" />
<path d="M888.5,464.5l0,-24" class="g1_201" />
<path d="M211.5,464.5l221,0" class="g1_201" />
<path d="M433.5,464.5l82,0" class="g1_201" />
<path d="M516.5,464.5l295,0" class="g1_201" />
<path d="M811.5,464.5l77,0" class="g1_201" />
<path d="M53.5,536.5l0,-72" class="g1_201" />
<path d="M92.5,536.5l0,-72" class="g1_201" />
<path d="M131.5,536.5l0,-72" class="g1_201" />
<path d="M171.5,536.5l0,-72" class="g1_201" />
<path d="M210.5,536.5l0,-72" class="g1_201" />
<path d="M432.5,536.5l0,-72" class="g1_201" />
<path d="M515.5,536.5l0,-72" class="g1_201" />
<path d="M811.5,536.5l0,-72" class="g1_201" />
<path d="M888.5,536.5l0,-72" class="g1_201" />
<path d="M53.5,537.5l0,-1" class="g1_201" />
<path d="M92.5,537.5l0,-1" class="g1_201" />
<path d="M131.5,537.5l0,-1" class="g1_201" />
<path d="M171.5,537.5l0,-1" class="g1_201" />
<path d="M210.5,537.5l0,-1" class="g1_201" />
<path d="M211.5,537.5l221,0" class="g1_201" />
<path d="M432.5,537.5l0,-1" class="g1_201" />
<path d="M433.5,537.5l82,0" class="g1_201" />
<path d="M515.5,537.5l0,-1" class="g1_201" />
<path d="M516.5,537.5l295,0" class="g1_201" />
<path d="M811.5,537.5l0,-1" class="g1_201" />
<path d="M811.5,537.5l77,0" class="g1_201" />
<path d="M888.5,537.5l0,-1" class="g1_201" />
<path d="M53.5,632.5l0,-95" class="g1_201" />
<path d="M92.5,632.5l0,-95" class="g1_201" />
<path d="M131.5,632.5l0,-95" class="g1_201" />
<path d="M171.5,632.5l0,-95" class="g1_201" />
<path d="M210.5,632.5l0,-95" class="g1_201" />
<path d="M432.5,632.5l0,-95" class="g1_201" />
<path d="M515.5,632.5l0,-95" class="g1_201" />
<path d="M811.5,632.5l0,-95" class="g1_201" />
<path d="M888.5,632.5l0,-95" class="g1_201" />
<path d="M53.5,633.5l0,-1" class="g1_201" />
<path d="M92.5,633.5l0,-1" class="g1_201" />
<path d="M131.5,633.5l0,-1" class="g1_201" />
<path d="M171.5,633.5l0,-1" class="g1_201" />
<path d="M210.5,633.5l0,-1" class="g1_201" />
<path d="M211.5,633.5l221,0" class="g1_201" />
<path d="M432.5,633.5l0,-1" class="g1_201" />
<path d="M433.5,633.5l82,0" class="g1_201" />
<path d="M515.5,633.5l0,-1" class="g1_201" />
<path d="M516.5,633.5l295,0" class="g1_201" />
<path d="M811.5,633.5l0,-1" class="g1_201" />
<path d="M811.5,633.5l77,0" class="g1_201" />
<path d="M888.5,633.5l0,-1" class="g1_201" />
<path d="M53.5,680.5l0,-47" class="g1_201" />
<path d="M92.5,680.5l0,-47" class="g1_201" />
<path d="M131.5,680.5l0,-47" class="g1_201" />
<path d="M171.5,680.5l0,-47" class="g1_201" />
<path d="M210.5,680.5l0,-47" class="g1_201" />
<path d="M432.5,680.5l0,-47" class="g1_201" />
<path d="M515.5,680.5l0,-47" class="g1_201" />
<path d="M811.5,680.5l0,-47" class="g1_201" />
<path d="M888.5,680.5l0,-47" class="g1_201" />
<path d="M53.5,681.5l0,-1" class="g1_201" />
<path d="M92.5,681.5l0,-1" class="g1_201" />
<path d="M131.5,681.5l0,-1" class="g1_201" />
<path d="M171.5,681.5l0,-1" class="g1_201" />
<path d="M210.5,681.5l0,-1" class="g1_201" />
<path d="M211.5,681.5l221,0" class="g1_201" />
<path d="M432.5,681.5l0,-1" class="g1_201" />
<path d="M433.5,681.5l82,0" class="g1_201" />
<path d="M515.5,681.5l0,-1" class="g1_201" />
<path d="M516.5,681.5l295,0" class="g1_201" />
<path d="M811.5,681.5l0,-1" class="g1_201" />
<path d="M811.5,681.5l77,0" class="g1_201" />
<path d="M888.5,681.5l0,-1" class="g1_201" />
<path d="M53.5,729.5l0,-48" class="g1_201" />
<path d="M92.5,729.5l0,-48" class="g1_201" />
<path d="M131.5,729.5l0,-48" class="g1_201" />
<path d="M171.5,729.5l0,-48" class="g1_201" />
<path d="M210.5,729.5l0,-48" class="g1_201" />
<path d="M432.5,729.5l0,-48" class="g1_201" />
<path d="M515.5,729.5l0,-48" class="g1_201" />
<path d="M811.5,729.5l0,-48" class="g1_201" />
<path d="M888.5,729.5l0,-48" class="g1_201" />
<path d="M211.5,729.5l221,0" class="g1_201" />
<path d="M433.5,729.5l82,0" class="g1_201" />
<path d="M516.5,729.5l295,0" class="g1_201" />
<path d="M811.5,729.5l77,0" class="g1_201" />
<path d="M53.5,777.5l0,-48" class="g1_201" />
<path d="M92.5,777.5l0,-48" class="g1_201" />
<path d="M131.5,777.5l0,-48" class="g1_201" />
<path d="M171.5,777.5l0,-48" class="g1_201" />
<path d="M210.5,777.5l0,-48" class="g1_201" />
<path d="M432.5,777.5l0,-48" class="g1_201" />
<path d="M515.5,777.5l0,-48" class="g1_201" />
<path d="M811.5,777.5l0,-48" class="g1_201" />
<path d="M888.5,777.5l0,-48" class="g1_201" />
<path d="M53.5,778.5l0,-1" class="g1_201" />
<path d="M92.5,778.5l0,-1" class="g1_201" />
<path d="M131.5,778.5l0,-1" class="g1_201" />
<path d="M171.5,778.5l0,-1" class="g1_201" />
<path d="M210.5,778.5l0,-1" class="g1_201" />
<path d="M211.5,778.5l221,0" class="g1_201" />
<path d="M432.5,778.5l0,-1" class="g1_201" />
<path d="M433.5,778.5l82,0" class="g1_201" />
<path d="M515.5,778.5l0,-1" class="g1_201" />
<path d="M516.5,778.5l295,0" class="g1_201" />
<path d="M811.5,778.5l0,-1" class="g1_201" />
<path d="M811.5,778.5l77,0" class="g1_201" />
<path d="M888.5,778.5l0,-1" class="g1_201" />
<path d="M53.5,897.5l0,-119" class="g1_201" />
<path d="M92.5,897.5l0,-119" class="g1_201" />
<path d="M131.5,897.5l0,-119" class="g1_201" />
<path d="M171.5,897.5l0,-119" class="g1_201" />
<path d="M210.5,897.5l0,-119" class="g1_201" />
<path d="M432.5,897.5l0,-119" class="g1_201" />
<path d="M515.5,897.5l0,-119" class="g1_201" />
<path d="M811.5,897.5l0,-119" class="g1_201" />
<path d="M888.5,897.5l0,-119" class="g1_201" />
<path d="M53.5,898.5l0,-1" class="g1_201" />
<path d="M92.5,898.5l0,-1" class="g1_201" />
<path d="M131.5,898.5l0,-1" class="g1_201" />
<path d="M171.5,898.5l0,-1" class="g1_201" />
<path d="M210.5,898.5l0,-1" class="g1_201" />
<path d="M211.5,898.5l221,0" class="g1_201" />
<path d="M432.5,898.5l0,-1" class="g1_201" />
<path d="M433.5,898.5l82,0" class="g1_201" />
<path d="M515.5,898.5l0,-1" class="g1_201" />
<path d="M516.5,898.5l295,0" class="g1_201" />
<path d="M811.5,898.5l0,-1" class="g1_201" />
<path d="M811.5,898.5l77,0" class="g1_201" />
<path d="M888.5,898.5l0,-1" class="g1_201" />
<path d="M53.5,1089.5l0,-191" class="g1_201" />
<path d="M92.5,1089.5l0,-191" class="g1_201" />
<path d="M131.5,1089.5l0,-191" class="g1_201" />
<path d="M171.5,1089.5l0,-191" class="g1_201" />
<path d="M210.5,1089.5l0,-191" class="g1_201" />
<path d="M211.5,1089.5l221,0" class="g1_201" />
<path d="M432.5,1089.5l0,-191" class="g1_201" />
<path d="M433.5,1089.5l82,0" class="g1_201" />
<path d="M515.5,1089.5l0,-191" class="g1_201" />
<path d="M516.5,1089.5l295,0" class="g1_201" />
<path d="M811.5,1089.5l0,-191" class="g1_201" />
<path d="M811.5,1089.5l77,0" class="g1_201" />
<path d="M888.5,1089.5l0,-191" class="g1_201" />
</svg>