<?xml version="1.0" encoding="UTF-8" standalone="no"?>
<!DOCTYPE svg PUBLIC "-//W3C//DTD SVG 1.1//EN"
"http://www.w3.org/Graphics/SVG/1.1/DTD/svg11.dtd">
<svg version="1.1" xmlns="http://www.w3.org/2000/svg" xmlns:xlink="http://www.w3.org/1999/xlink">
<defs>
<clipPath id="c0_38"><path d="M361.5,135.5l0,-24l526,0l0,24Z" /></clipPath>
<clipPath id="c1_38"><path d="M90.5,160.5l0,-24l204,0l0,24Z" /></clipPath>
<clipPath id="c2_38"><path d="M295.5,160.5l0,-24l64,0l0,24Z" /></clipPath>
<clipPath id="c3_38"><path d="M361.5,160.5l0,-24l526,0l0,24Z" /></clipPath>
<clipPath id="c4_38"><path d="M90.5,186.5l0,-24l204,0l0,24Z" /></clipPath>
<clipPath id="c5_38"><path d="M295.5,186.5l0,-24l64,0l0,24Z" /></clipPath>
<clipPath id="c6_38"><path d="M361.5,186.5l0,-24l526,0l0,24Z" /></clipPath>
<clipPath id="c7_38"><path d="M90.5,318.5l0,-131l118,0l0,131Z" /></clipPath>
<clipPath id="c8_38"><path d="M209.5,236.5l0,-49l85,0l0,49Z" /></clipPath>
<clipPath id="c9_38"><path d="M295.5,236.5l0,-49l64,0l0,49Z" /></clipPath>
<clipPath id="c10_38"><path d="M361.5,236.5l0,-49l526,0l0,49Z" /></clipPath>
<clipPath id="c11_38"><path d="M209.5,263.5l0,-26l85,0l0,26Z" /></clipPath>
<clipPath id="c12_38"><path d="M295.5,263.5l0,-26l64,0l0,26Z" /></clipPath>
<clipPath id="c13_38"><path d="M361.5,263.5l0,-26l526,0l0,26Z" /></clipPath>
<clipPath id="c14_38"><path d="M209.5,318.5l0,-53l85,0l0,53Z" /></clipPath>
<clipPath id="c15_38"><path d="M295.5,318.5l0,-53l64,0l0,53Z" /></clipPath>
<clipPath id="c16_38"><path d="M361.5,318.5l0,-53l526,0l0,53Z" /></clipPath>
<clipPath id="c17_38"><path d="M47.5,1018.5l0,-214l840,0l0,214Z" /></clipPath>
<style type="text/css"><![CDATA[
.g2_38{
fill: none;
stroke: #7E7E7E;
stroke-width: 1;
stroke-linecap: butt;
stroke-linejoin: miter;
}
.g1_38{
fill: #F1F1F1;
}
]]></style>
</defs>
<path fill-rule="evenodd" d="M47,135l41,0l0,-24l-41,0l0,24Z" class="g1_38" />
<path fill-rule="evenodd" d="M90,135l204,0l0,-24L90,111l0,24Z" class="g1_38" />
<path fill-rule="evenodd" d="M295,135l64,0l0,-24l-64,0l0,24Z" class="g1_38" />
<path fill-rule="evenodd" d="M361,135l526,0l0,-24l-526,0l0,24Z" class="g1_38" />
<g clip-path="url(#c0_38)">
<path fill-rule="evenodd" d="M368,135l512,0l0,-24l-512,0l0,24Z" class="g1_38" />
</g>
<path d="M46.5,111.5l0,-1" class="g2_38" />
<path d="M46.5,111.5l0,-1" class="g2_38" />
<path d="M47.5,111.5l41,0" class="g2_38" />
<path d="M88.5,111.5l0,-1" class="g2_38" />
<path d="M90.5,111.5l204,0" class="g2_38" />
<path d="M294.5,111.5l0,-1" class="g2_38" />
<path d="M295.5,111.5l64,0" class="g2_38" />
<path d="M359.5,111.5l0,-1" class="g2_38" />
<path d="M361.5,111.5l526,0" class="g2_38" />
<path d="M887.5,111.5l0,-1" class="g2_38" />
<path d="M887.5,111.5l0,-1" class="g2_38" />
<path d="M46.5,135.5l0,-24" class="g2_38" />
<path d="M88.5,135.5l0,-24" class="g2_38" />
<path d="M294.5,135.5l0,-24" class="g2_38" />
<path d="M359.5,135.5l0,-24" class="g2_38" />
<path d="M887.5,135.5l0,-24" class="g2_38" />
<path fill-rule="evenodd" d="M47,160l41,0l0,-25l-41,0l0,25Z" class="g1_38" />
<path fill-rule="evenodd" d="M90,160l204,0l0,-24L90,136l0,24Z" class="g1_38" />
<g clip-path="url(#c1_38)">
<path fill-rule="evenodd" d="M97,160l189,0l0,-24L97,136l0,24Z" class="g1_38" />
</g>
<path fill-rule="evenodd" d="M295,160l64,0l0,-24l-64,0l0,24Z" class="g1_38" />
<g clip-path="url(#c2_38)">
<path fill-rule="evenodd" d="M303,160l49,0l0,-24l-49,0l0,24Z" class="g1_38" />
</g>
<path fill-rule="evenodd" d="M361,160l526,0l0,-24l-526,0l0,24Z" class="g1_38" />
<g clip-path="url(#c3_38)">
<path fill-rule="evenodd" d="M368,160l512,0l0,-24l-512,0l0,24Z" class="g1_38" />
</g>
<path d="M46.5,136.5l0,-1" class="g2_38" />
<path d="M88.5,136.5l0,-1" class="g2_38" />
<path d="M90.5,136.5l204,0" class="g2_38" />
<path d="M294.5,136.5l0,-1" class="g2_38" />
<path d="M295.5,136.5l64,0" class="g2_38" />
<path d="M359.5,136.5l0,-1" class="g2_38" />
<path d="M361.5,136.5l526,0" class="g2_38" />
<path d="M887.5,136.5l0,-1" class="g2_38" />
<path d="M46.5,160.5l0,-24" class="g2_38" />
<path d="M88.5,160.5l0,-24" class="g2_38" />
<path d="M294.5,160.5l0,-24" class="g2_38" />
<path d="M359.5,160.5l0,-24" class="g2_38" />
<path d="M887.5,160.5l0,-24" class="g2_38" />
<path fill-rule="evenodd" d="M47,186l41,0l0,-26l-41,0l0,26Z" class="g1_38" />
<path fill-rule="evenodd" d="M90,186l204,0l0,-24L90,162l0,24Z" class="g1_38" />
<g clip-path="url(#c4_38)">
<path fill-rule="evenodd" d="M97,186l189,0l0,-24L97,162l0,24Z" class="g1_38" />
</g>
<path fill-rule="evenodd" d="M295,186l64,0l0,-24l-64,0l0,24Z" class="g1_38" />
<g clip-path="url(#c5_38)">
<path fill-rule="evenodd" d="M303,186l49,0l0,-24l-49,0l0,24Z" class="g1_38" />
</g>
<path fill-rule="evenodd" d="M361,186l526,0l0,-24l-526,0l0,24Z" class="g1_38" />
<g clip-path="url(#c6_38)">
<path fill-rule="evenodd" d="M368,186l512,0l0,-24l-512,0l0,24Z" class="g1_38" />
</g>
<path d="M46.5,162.5l0,-2" class="g2_38" />
<path d="M88.5,162.5l0,-2" class="g2_38" />
<path d="M90.5,162.5l204,0" class="g2_38" />
<path d="M294.5,162.5l0,-2" class="g2_38" />
<path d="M295.5,162.5l64,0" class="g2_38" />
<path d="M359.5,162.5l0,-2" class="g2_38" />
<path d="M361.5,162.5l526,0" class="g2_38" />
<path d="M887.5,162.5l0,-2" class="g2_38" />
<path d="M46.5,186.5l0,-24" class="g2_38" />
<path d="M88.5,186.5l0,-24" class="g2_38" />
<path d="M294.5,186.5l0,-24" class="g2_38" />
<path d="M359.5,186.5l0,-24" class="g2_38" />
<path d="M887.5,186.5l0,-24" class="g2_38" />
<path fill-rule="evenodd" d="M47,236l41,0l0,-50l-41,0l0,50Z" class="g1_38" />
<path fill-rule="evenodd" d="M90,318l118,0l0,-131L90,187l0,131Z" class="g1_38" />
<g clip-path="url(#c7_38)">
<path fill-rule="evenodd" d="M97,318l24,0l0,-131l-24,0l0,131Z" class="g1_38" />
</g>
<path fill-rule="evenodd" d="M209,236l85,0l0,-49l-85,0l0,49Z" class="g1_38" />
<g clip-path="url(#c8_38)">
<path fill-rule="evenodd" d="M217,211l69,0l0,-24l-69,0l0,24Z" class="g1_38" />
</g>
<path fill-rule="evenodd" d="M295,236l64,0l0,-49l-64,0l0,49Z" class="g1_38" />
<g clip-path="url(#c9_38)">
<path fill-rule="evenodd" d="M303,211l49,0l0,-24l-49,0l0,24Z" class="g1_38" />
</g>
<path fill-rule="evenodd" d="M361,236l526,0l0,-49l-526,0l0,49Z" class="g1_38" />
<g clip-path="url(#c10_38)">
<path fill-rule="evenodd" d="M368,211l512,0l0,-24l-512,0l0,24Z" class="g1_38" />
</g>
<path fill-rule="evenodd" d="M368,235l512,0l0,-24l-512,0l0,24Z" class="g1_38" />
<path d="M46.5,187.5l0,-1" class="g2_38" />
<path d="M88.5,187.5l0,-1" class="g2_38" />
<path d="M90.5,187.5l118,0" class="g2_38" />
<path d="M208.5,187.5l0,-1" class="g2_38" />
<path d="M209.5,187.5l85,0" class="g2_38" />
<path d="M294.5,187.5l0,-1" class="g2_38" />
<path d="M295.5,187.5l64,0" class="g2_38" />
<path d="M359.5,187.5l0,-1" class="g2_38" />
<path d="M361.5,187.5l526,0" class="g2_38" />
<path d="M887.5,187.5l0,-1" class="g2_38" />
<path d="M46.5,236.5l0,-49" class="g2_38" />
<path d="M88.5,236.5l0,-49" class="g2_38" />
<path d="M208.5,236.5l0,-49" class="g2_38" />
<path d="M294.5,236.5l0,-49" class="g2_38" />
<path d="M359.5,236.5l0,-49" class="g2_38" />
<path d="M887.5,236.5l0,-49" class="g2_38" />
<path fill-rule="evenodd" d="M47,263l41,0l0,-27l-41,0l0,27Z" class="g1_38" />
<path fill-rule="evenodd" d="M209,263l85,0l0,-26l-85,0l0,26Z" class="g1_38" />
<g clip-path="url(#c11_38)">
<path fill-rule="evenodd" d="M217,261l69,0l0,-24l-69,0l0,24Z" class="g1_38" />
</g>
<path fill-rule="evenodd" d="M295,263l64,0l0,-26l-64,0l0,26Z" class="g1_38" />
<g clip-path="url(#c12_38)">
<path fill-rule="evenodd" d="M303,261l49,0l0,-24l-49,0l0,24Z" class="g1_38" />
</g>
<path fill-rule="evenodd" d="M361,263l526,0l0,-26l-526,0l0,26Z" class="g1_38" />
<g clip-path="url(#c13_38)">
<path fill-rule="evenodd" d="M368,261l512,0l0,-24l-512,0l0,24Z" class="g1_38" />
</g>
<path d="M46.5,237.5l0,-1" class="g2_38" />
<path d="M88.5,237.5l0,-1" class="g2_38" />
<path d="M208.5,237.5l0,-1" class="g2_38" />
<path d="M209.5,237.5l85,0" class="g2_38" />
<path d="M294.5,237.5l0,-1" class="g2_38" />
<path d="M295.5,237.5l64,0" class="g2_38" />
<path d="M359.5,237.5l0,-1" class="g2_38" />
<path d="M361.5,237.5l526,0" class="g2_38" />
<path d="M887.5,237.5l0,-1" class="g2_38" />
<path d="M46.5,263.5l0,-26" class="g2_38" />
<path d="M88.5,263.5l0,-26" class="g2_38" />
<path d="M208.5,263.5l0,-26" class="g2_38" />
<path d="M294.5,263.5l0,-26" class="g2_38" />
<path d="M359.5,263.5l0,-26" class="g2_38" />
<path d="M887.5,263.5l0,-26" class="g2_38" />
<path fill-rule="evenodd" d="M47,318l41,0l0,-55l-41,0l0,55Z" class="g1_38" />
<path fill-rule="evenodd" d="M209,318l85,0l0,-53l-85,0l0,53Z" class="g1_38" />
<g clip-path="url(#c14_38)">
<path fill-rule="evenodd" d="M217,289l69,0l0,-24l-69,0l0,24Z" class="g1_38" />
</g>
<path fill-rule="evenodd" d="M295,318l64,0l0,-53l-64,0l0,53Z" class="g1_38" />
<g clip-path="url(#c15_38)">
<path fill-rule="evenodd" d="M303,289l49,0l0,-24l-49,0l0,24Z" class="g1_38" />
</g>
<path fill-rule="evenodd" d="M361,318l526,0l0,-53l-526,0l0,53Z" class="g1_38" />
<g clip-path="url(#c16_38)">
<path fill-rule="evenodd" d="M368,289l512,0l0,-24l-512,0l0,24Z" class="g1_38" />
</g>
<path fill-rule="evenodd" d="M368,312l512,0l0,-23l-512,0l0,23Z" class="g1_38" />
<path d="M46.5,265.5l0,-2" class="g2_38" />
<path d="M88.5,265.5l0,-2" class="g2_38" />
<path d="M208.5,265.5l0,-2" class="g2_38" />
<path d="M209.5,265.5l85,0" class="g2_38" />
<path d="M294.5,265.5l0,-2" class="g2_38" />
<path d="M295.5,265.5l64,0" class="g2_38" />
<path d="M359.5,265.5l0,-2" class="g2_38" />
<path d="M361.5,265.5l526,0" class="g2_38" />
<path d="M887.5,265.5l0,-2" class="g2_38" />
<path d="M46.5,318.5l0,-53" class="g2_38" />
<path d="M46.5,319.5l0,-1" class="g2_38" />
<path d="M46.5,319.5l0,-1" class="g2_38" />
<path d="M47.5,319.5l41,0" class="g2_38" />
<path d="M88.5,318.5l0,-53" class="g2_38" />
<path d="M88.5,319.5l0,-1" class="g2_38" />
<path d="M90.5,319.5l118,0" class="g2_38" />
<path d="M208.5,318.5l0,-53" class="g2_38" />
<path d="M208.5,319.5l0,-1" class="g2_38" />
<path d="M209.5,319.5l85,0" class="g2_38" />
<path d="M294.5,318.5l0,-53" class="g2_38" />
<path d="M294.5,319.5l0,-1" class="g2_38" />
<path d="M295.5,319.5l64,0" class="g2_38" />
<path d="M359.5,318.5l0,-53" class="g2_38" />
<path d="M359.5,319.5l0,-1" class="g2_38" />
<path d="M361.5,319.5l526,0" class="g2_38" />
<path d="M887.5,318.5l0,-53" class="g2_38" />
<path d="M887.5,319.5l0,-1" class="g2_38" />
<path d="M887.5,319.5l0,-1" class="g2_38" />
<path fill-rule="evenodd" d="M47,464l840,0l0,-24L47,440l0,24Z" class="g1_38" />
<path fill-rule="evenodd" d="M55,464l825,0l0,-24L55,440l0,24Z" class="g1_38" />
<path d="M46.5,440.5l0,-2" class="g2_38" />
<path d="M46.5,440.5l0,-2" class="g2_38" />
<path d="M47.5,440.5l840,0" class="g2_38" />
<path d="M887.5,440.5l0,-2" class="g2_38" />
<path d="M887.5,440.5l0,-2" class="g2_38" />
<path d="M46.5,464.5l0,-24" class="g2_38" />
<path d="M46.5,465.5l0,-1" class="g2_38" />
<path d="M46.5,465.5l0,-1" class="g2_38" />
<path d="M47.5,465.5l840,0" class="g2_38" />
<path d="M887.5,464.5l0,-24" class="g2_38" />
<path d="M887.5,465.5l0,-1" class="g2_38" />
<path d="M887.5,465.5l0,-1" class="g2_38" />
<path fill-rule="evenodd" d="M47,729l840,0l0,-238L47,491l0,238Z" class="g1_38" />
<path fill-rule="evenodd" d="M55,514l825,0l0,-23L55,491l0,23Z" class="g1_38" />
<path fill-rule="evenodd" d="M55,538l825,0l0,-24L55,514l0,24Z" class="g1_38" />
<path fill-rule="evenodd" d="M55,562l825,0l0,-24L55,538l0,24Z" class="g1_38" />
<path fill-rule="evenodd" d="M55,586l825,0l0,-24L55,562l0,24Z" class="g1_38" />
<path fill-rule="evenodd" d="M55,610l825,0l0,-24L55,586l0,24Z" class="g1_38" />
<path fill-rule="evenodd" d="M55,634l825,0l0,-24L55,610l0,24Z" class="g1_38" />
<path fill-rule="evenodd" d="M55,657l825,0l0,-23L55,634l0,23Z" class="g1_38" />
<path fill-rule="evenodd" d="M55,681l825,0l0,-24L55,657l0,24Z" class="g1_38" />
<path fill-rule="evenodd" d="M55,705l825,0l0,-24L55,681l0,24Z" class="g1_38" />
<path fill-rule="evenodd" d="M55,729l825,0l0,-24L55,705l0,24Z" class="g1_38" />
<path d="M46.5,491.5l0,-2" class="g2_38" />
<path d="M46.5,491.5l0,-2" class="g2_38" />
<path d="M47.5,491.5l840,0" class="g2_38" />
<path d="M887.5,491.5l0,-2" class="g2_38" />
<path d="M887.5,491.5l0,-2" class="g2_38" />
<path d="M46.5,729.5l0,-238" class="g2_38" />
<path d="M46.5,730.5l0,-1" class="g2_38" />
<path d="M46.5,730.5l0,-1" class="g2_38" />
<path d="M47.5,730.5l840,0" class="g2_38" />
<path d="M887.5,729.5l0,-238" class="g2_38" />
<path d="M887.5,730.5l0,-1" class="g2_38" />
<path d="M887.5,730.5l0,-1" class="g2_38" />
<path fill-rule="evenodd" d="M47,1018l840,0l0,-214L47,804l0,214Z" class="g1_38" />
<g clip-path="url(#c17_38)">
<path fill-rule="evenodd" d="M55,827l825,0l0,-23L55,804l0,23Z" class="g1_38" />
</g>
<path fill-rule="evenodd" d="M55,851l825,0l0,-24L55,827l0,24Z" class="g1_38" />
<path fill-rule="evenodd" d="M55,875l825,0l0,-24L55,851l0,24Z" class="g1_38" />
<path fill-rule="evenodd" d="M55,899l825,0l0,-24L55,875l0,24Z" class="g1_38" />
<path fill-rule="evenodd" d="M55,923l825,0l0,-24L55,899l0,24Z" class="g1_38" />
<path fill-rule="evenodd" d="M55,947l825,0l0,-24L55,923l0,24Z" class="g1_38" />
<path fill-rule="evenodd" d="M55,970l825,0l0,-23L55,947l0,23Z" class="g1_38" />
<path fill-rule="evenodd" d="M55,994l825,0l0,-24L55,970l0,24Z" class="g1_38" />
<g clip-path="url(#c17_38)">
<path fill-rule="evenodd" d="M55,1018l825,0l0,-24L55,994l0,24Z" class="g1_38" />
</g>
<path d="M46.5,803.5l0,-1" class="g2_38" />
<path d="M46.5,803.5l0,-1" class="g2_38" />
<path d="M47.5,803.5l840,0" class="g2_38" />
<path d="M887.5,803.5l0,-1" class="g2_38" />
<path d="M887.5,803.5l0,-1" class="g2_38" />
<path d="M46.5,1018.5l0,-215" class="g2_38" />
<path d="M46.5,1020.5l0,-2" class="g2_38" />
<path d="M46.5,1020.5l0,-2" class="g2_38" />
<path d="M47.5,1020.5l840,0" class="g2_38" />
<path d="M887.5,1018.5l0,-215" class="g2_38" />
<path d="M887.5,1020.5l0,-2" class="g2_38" />
<path d="M887.5,1020.5l0,-2" class="g2_38" />
</svg>