<?xml version="1.0" encoding="UTF-8" standalone="no"?>
<!DOCTYPE svg PUBLIC "-//W3C//DTD SVG 1.1//EN"
"http://www.w3.org/Graphics/SVG/1.1/DTD/svg11.dtd">
<svg version="1.1" xmlns="http://www.w3.org/2000/svg" xmlns:xlink="http://www.w3.org/1999/xlink">
<defs>
<clipPath id="c0_179"><path d="M47.5,206.5l0,-23l840,0l0,23Z" /></clipPath>
<clipPath id="c1_179"><path d="M47.5,638.5l0,-405l840,0l0,405Z" /></clipPath>
<clipPath id="c2_179"><path d="M47.5,1095.5l0,-382l840,0l0,382Z" /></clipPath>
<style type="text/css"><![CDATA[
.g2_179{
fill: none;
stroke: #7E7E7E;
stroke-width: 1;
stroke-linecap: butt;
stroke-linejoin: miter;
}
.g1_179{
fill: #F1F1F1;
}
]]></style>
</defs>
<path fill-rule="evenodd" d="M47,206l840,0l0,-24L47,182l0,24Z" class="g1_179" />
<g clip-path="url(#c0_179)">
<path fill-rule="evenodd" d="M55,206l825,0l0,-24L55,182l0,24Z" class="g1_179" />
</g>
<path d="M46.5,182.5l0,-1" class="g2_179" />
<path d="M46.5,182.5l0,-1" class="g2_179" />
<path d="M47.5,182.5l840,0" class="g2_179" />
<path d="M887.5,182.5l0,-1" class="g2_179" />
<path d="M887.5,182.5l0,-1" class="g2_179" />
<path d="M46.5,207.5l0,-25" class="g2_179" />
<path d="M46.5,208.5l0,-1" class="g2_179" />
<path d="M46.5,208.5l0,-1" class="g2_179" />
<path d="M47.5,208.5l840,0" class="g2_179" />
<path d="M887.5,207.5l0,-25" class="g2_179" />
<path d="M887.5,208.5l0,-1" class="g2_179" />
<path d="M887.5,208.5l0,-1" class="g2_179" />
<path fill-rule="evenodd" d="M47,638l840,0l0,-405L47,233l0,405Z" class="g1_179" />
<g clip-path="url(#c1_179)">
<path fill-rule="evenodd" d="M55,257l825,0l0,-24L55,233l0,24Z" class="g1_179" />
</g>
<path fill-rule="evenodd" d="M55,281l825,0l0,-24L55,257l0,24Z" class="g1_179" />
<path fill-rule="evenodd" d="M55,305l825,0l0,-24L55,281l0,24Z" class="g1_179" />
<path fill-rule="evenodd" d="M55,329l825,0l0,-24L55,305l0,24Z" class="g1_179" />
<path fill-rule="evenodd" d="M55,352l825,0l0,-23L55,329l0,23Z" class="g1_179" />
<path fill-rule="evenodd" d="M55,376l825,0l0,-24L55,352l0,24Z" class="g1_179" />
<path fill-rule="evenodd" d="M55,400l825,0l0,-24L55,376l0,24Z" class="g1_179" />
<path fill-rule="evenodd" d="M55,424l825,0l0,-24L55,400l0,24Z" class="g1_179" />
<path fill-rule="evenodd" d="M55,448l825,0l0,-24L55,424l0,24Z" class="g1_179" />
<path fill-rule="evenodd" d="M55,472l825,0l0,-24L55,448l0,24Z" class="g1_179" />
<path fill-rule="evenodd" d="M55,495l825,0l0,-23L55,472l0,23Z" class="g1_179" />
<path fill-rule="evenodd" d="M55,519l825,0l0,-24L55,495l0,24Z" class="g1_179" />
<path fill-rule="evenodd" d="M55,543l825,0l0,-24L55,519l0,24Z" class="g1_179" />
<path fill-rule="evenodd" d="M55,567l825,0l0,-24L55,543l0,24Z" class="g1_179" />
<path fill-rule="evenodd" d="M55,591l825,0l0,-24L55,567l0,24Z" class="g1_179" />
<path fill-rule="evenodd" d="M55,615l825,0l0,-24L55,591l0,24Z" class="g1_179" />
<path fill-rule="evenodd" d="M55,638l825,0l0,-23L55,615l0,23Z" class="g1_179" />
<path d="M46.5,233.5l0,-1" class="g2_179" />
<path d="M46.5,233.5l0,-1" class="g2_179" />
<path d="M47.5,233.5l840,0" class="g2_179" />
<path d="M887.5,233.5l0,-1" class="g2_179" />
<path d="M887.5,233.5l0,-1" class="g2_179" />
<path d="M46.5,638.5l0,-405" class="g2_179" />
<path d="M46.5,640.5l0,-2" class="g2_179" />
<path d="M46.5,640.5l0,-2" class="g2_179" />
<path d="M47.5,640.5l840,0" class="g2_179" />
<path d="M887.5,638.5l0,-405" class="g2_179" />
<path d="M887.5,640.5l0,-2" class="g2_179" />
<path d="M887.5,640.5l0,-2" class="g2_179" />
<path fill-rule="evenodd" d="M47,1095l840,0l0,-382L47,713l0,382Z" class="g1_179" />
<g clip-path="url(#c2_179)">
<path fill-rule="evenodd" d="M55,737l825,0l0,-24L55,713l0,24Z" class="g1_179" />
</g>
<path fill-rule="evenodd" d="M55,761l825,0l0,-24L55,737l0,24Z" class="g1_179" />
<path fill-rule="evenodd" d="M55,785l825,0l0,-24L55,761l0,24Z" class="g1_179" />
<path fill-rule="evenodd" d="M55,808l825,0l0,-23L55,785l0,23Z" class="g1_179" />
<path fill-rule="evenodd" d="M55,832l825,0l0,-24L55,808l0,24Z" class="g1_179" />
<path fill-rule="evenodd" d="M55,856l825,0l0,-24L55,832l0,24Z" class="g1_179" />
<path fill-rule="evenodd" d="M55,880l825,0l0,-24L55,856l0,24Z" class="g1_179" />
<path fill-rule="evenodd" d="M55,904l825,0l0,-24L55,880l0,24Z" class="g1_179" />
<path fill-rule="evenodd" d="M55,928l825,0l0,-24L55,904l0,24Z" class="g1_179" />
<path fill-rule="evenodd" d="M55,952l825,0l0,-24L55,928l0,24Z" class="g1_179" />
<path fill-rule="evenodd" d="M55,975l825,0l0,-23L55,952l0,23Z" class="g1_179" />
<path fill-rule="evenodd" d="M55,999l825,0l0,-24L55,975l0,24Z" class="g1_179" />
<path fill-rule="evenodd" d="M55,1023l825,0l0,-24L55,999l0,24Z" class="g1_179" />
<path fill-rule="evenodd" d="M55,1047l825,0l0,-24l-825,0l0,24Z" class="g1_179" />
<path fill-rule="evenodd" d="M55,1071l825,0l0,-24l-825,0l0,24Z" class="g1_179" />
<g clip-path="url(#c2_179)">
<path fill-rule="evenodd" d="M55,1095l825,0l0,-24l-825,0l0,24Z" class="g1_179" />
</g>
<path d="M46.5,713.5l0,-2" class="g2_179" />
<path d="M46.5,713.5l0,-2" class="g2_179" />
<path d="M47.5,713.5l840,0" class="g2_179" />
<path d="M887.5,713.5l0,-2" class="g2_179" />
<path d="M887.5,713.5l0,-2" class="g2_179" />
<path d="M46.5,1095.5l0,-382" class="g2_179" />
<path d="M46.5,1096.5l0,-1" class="g2_179" />
<path d="M46.5,1096.5l0,-1" class="g2_179" />
<path d="M47.5,1096.5l840,0" class="g2_179" />
<path d="M887.5,1095.5l0,-382" class="g2_179" />
<path d="M887.5,1096.5l0,-1" class="g2_179" />
<path d="M887.5,1096.5l0,-1" class="g2_179" />
</svg>