<?xml version="1.0" encoding="UTF-8" standalone="no"?>
<!DOCTYPE svg PUBLIC "-//W3C//DTD SVG 1.1//EN"
"http://www.w3.org/Graphics/SVG/1.1/DTD/svg11.dtd">
<svg version="1.1" xmlns="http://www.w3.org/2000/svg" xmlns:xlink="http://www.w3.org/1999/xlink">
<defs>
<clipPath id="c0_301"><path d="M323.5,397.5l0,-286l165,0l0,286Z" /></clipPath>
<clipPath id="c1_301"><path d="M490.5,397.5l0,-286l66,0l0,286Z" /></clipPath>
<clipPath id="c2_301"><path d="M557.5,397.5l0,-286l330,0l0,286Z" /></clipPath>
<clipPath id="c3_301"><path d="M88.5,689.5l0,-27l400,0l0,27Z" /></clipPath>
<clipPath id="c4_301"><path d="M490.5,689.5l0,-27l66,0l0,27Z" /></clipPath>
<clipPath id="c5_301"><path d="M557.5,689.5l0,-27l330,0l0,27Z" /></clipPath>
<clipPath id="c6_301"><path d="M47.5,718.5l0,-27l39,0l0,27Z" /></clipPath>
<clipPath id="c7_301"><path d="M88.5,718.5l0,-27l400,0l0,27Z" /></clipPath>
<clipPath id="c8_301"><path d="M490.5,718.5l0,-27l66,0l0,27Z" /></clipPath>
<clipPath id="c9_301"><path d="M557.5,718.5l0,-27l330,0l0,27Z" /></clipPath>
<clipPath id="c10_301"><path d="M47.5,840.5l0,-24l840,0l0,24Z" /></clipPath>
<clipPath id="c11_301"><path d="M47.5,1081.5l0,-214l840,0l0,214Z" /></clipPath>
<style type="text/css"><![CDATA[
.g2_301{
fill: none;
stroke: #7E7E7E;
stroke-width: 1;
stroke-linecap: butt;
stroke-linejoin: miter;
}
.g1_301{
fill: #F1F1F1;
}
]]></style>
</defs>
<path fill-rule="evenodd" d="M47,397l39,0L86,111l-39,0l0,286Z" class="g1_301" />
<path fill-rule="evenodd" d="M88,397l39,0l0,-286l-39,0l0,286Z" class="g1_301" />
<path fill-rule="evenodd" d="M129,397l39,0l0,-286l-39,0l0,286Z" class="g1_301" />
<path fill-rule="evenodd" d="M169,397l40,0l0,-286l-40,0l0,286Z" class="g1_301" />
<path fill-rule="evenodd" d="M210,397l71,0l0,-286l-71,0l0,286Z" class="g1_301" />
<path fill-rule="evenodd" d="M282,397l40,0l0,-286l-40,0l0,286Z" class="g1_301" />
<path fill-rule="evenodd" d="M323,397l165,0l0,-286l-165,0l0,286Z" class="g1_301" />
<g clip-path="url(#c0_301)">
<path fill-rule="evenodd" d="M331,135l150,0l0,-24l-150,0l0,24Z" class="g1_301" />
</g>
<path fill-rule="evenodd" d="M490,397l66,0l0,-286l-66,0l0,286Z" class="g1_301" />
<g clip-path="url(#c1_301)">
<path fill-rule="evenodd" d="M497,135l51,0l0,-24l-51,0l0,24Z" class="g1_301" />
</g>
<path fill-rule="evenodd" d="M557,397l330,0l0,-286l-330,0l0,286Z" class="g1_301" />
<g clip-path="url(#c2_301)">
<path fill-rule="evenodd" d="M565,135l315,0l0,-24l-315,0l0,24Z" class="g1_301" />
</g>
<path fill-rule="evenodd" d="M565,159l315,0l0,-24l-315,0l0,24Z" class="g1_301" />
<path fill-rule="evenodd" d="M565,182l315,0l0,-23l-315,0l0,23Z" class="g1_301" />
<path fill-rule="evenodd" d="M565,206l315,0l0,-24l-315,0l0,24Z" class="g1_301" />
<path fill-rule="evenodd" d="M565,230l315,0l0,-24l-315,0l0,24Z" class="g1_301" />
<path fill-rule="evenodd" d="M565,254l315,0l0,-24l-315,0l0,24Z" class="g1_301" />
<path fill-rule="evenodd" d="M565,278l315,0l0,-24l-315,0l0,24Z" class="g1_301" />
<path fill-rule="evenodd" d="M565,302l315,0l0,-24l-315,0l0,24Z" class="g1_301" />
<path fill-rule="evenodd" d="M565,325l315,0l0,-23l-315,0l0,23Z" class="g1_301" />
<path fill-rule="evenodd" d="M565,349l315,0l0,-24l-315,0l0,24Z" class="g1_301" />
<path fill-rule="evenodd" d="M565,373l315,0l0,-24l-315,0l0,24Z" class="g1_301" />
<path fill-rule="evenodd" d="M565,397l315,0l0,-24l-315,0l0,24Z" class="g1_301" />
<path d="M46.5,111.5l0,-1" class="g2_301" />
<path d="M46.5,111.5l0,-1" class="g2_301" />
<path d="M47.5,111.5l39,0" class="g2_301" />
<path d="M86.5,111.5l0,-1" class="g2_301" />
<path d="M88.5,111.5l39,0" class="g2_301" />
<path d="M127.5,111.5l0,-1" class="g2_301" />
<path d="M129.5,111.5l39,0" class="g2_301" />
<path d="M168.5,111.5l0,-1" class="g2_301" />
<path d="M169.5,111.5l40,0" class="g2_301" />
<path d="M209.5,111.5l0,-1" class="g2_301" />
<path d="M210.5,111.5l71,0" class="g2_301" />
<path d="M281.5,111.5l0,-1" class="g2_301" />
<path d="M282.5,111.5l40,0" class="g2_301" />
<path d="M322.5,111.5l0,-1" class="g2_301" />
<path d="M323.5,111.5l165,0" class="g2_301" />
<path d="M488.5,111.5l0,-1" class="g2_301" />
<path d="M490.5,111.5l66,0" class="g2_301" />
<path d="M556.5,111.5l0,-1" class="g2_301" />
<path d="M557.5,111.5l330,0" class="g2_301" />
<path d="M887.5,111.5l0,-1" class="g2_301" />
<path d="M887.5,111.5l0,-1" class="g2_301" />
<path d="M46.5,397.5l0,-286" class="g2_301" />
<path d="M86.5,397.5l0,-286" class="g2_301" />
<path d="M127.5,397.5l0,-286" class="g2_301" />
<path d="M168.5,397.5l0,-286" class="g2_301" />
<path d="M209.5,397.5l0,-286" class="g2_301" />
<path d="M281.5,397.5l0,-286" class="g2_301" />
<path d="M322.5,397.5l0,-286" class="g2_301" />
<path d="M488.5,397.5l0,-286" class="g2_301" />
<path d="M556.5,397.5l0,-286" class="g2_301" />
<path d="M887.5,397.5l0,-286" class="g2_301" />
<path fill-rule="evenodd" d="M47,661l39,0L86,397l-39,0l0,264Z" class="g1_301" />
<path fill-rule="evenodd" d="M88,661l39,0l0,-264l-39,0l0,264Z" class="g1_301" />
<path fill-rule="evenodd" d="M129,661l39,0l0,-264l-39,0l0,264Z" class="g1_301" />
<path fill-rule="evenodd" d="M169,661l40,0l0,-264l-40,0l0,264Z" class="g1_301" />
<path fill-rule="evenodd" d="M210,661l71,0l0,-264l-71,0l0,264Z" class="g1_301" />
<path fill-rule="evenodd" d="M282,661l40,0l0,-264l-40,0l0,264Z" class="g1_301" />
<path fill-rule="evenodd" d="M323,661l165,0l0,-262l-165,0l0,262Z" class="g1_301" />
<path fill-rule="evenodd" d="M331,423l150,0l0,-24l-150,0l0,24Z" class="g1_301" />
<path fill-rule="evenodd" d="M490,661l66,0l0,-262l-66,0l0,262Z" class="g1_301" />
<path fill-rule="evenodd" d="M497,423l51,0l0,-24l-51,0l0,24Z" class="g1_301" />
<path fill-rule="evenodd" d="M557,661l330,0l0,-262l-330,0l0,262Z" class="g1_301" />
<path fill-rule="evenodd" d="M565,423l315,0l0,-24l-315,0l0,24Z" class="g1_301" />
<path fill-rule="evenodd" d="M565,446l315,0l0,-23l-315,0l0,23Z" class="g1_301" />
<path fill-rule="evenodd" d="M565,470l315,0l0,-24l-315,0l0,24Z" class="g1_301" />
<path fill-rule="evenodd" d="M565,494l315,0l0,-24l-315,0l0,24Z" class="g1_301" />
<path fill-rule="evenodd" d="M565,518l315,0l0,-24l-315,0l0,24Z" class="g1_301" />
<path fill-rule="evenodd" d="M565,542l315,0l0,-24l-315,0l0,24Z" class="g1_301" />
<path fill-rule="evenodd" d="M565,566l315,0l0,-24l-315,0l0,24Z" class="g1_301" />
<path fill-rule="evenodd" d="M565,589l315,0l0,-23l-315,0l0,23Z" class="g1_301" />
<path fill-rule="evenodd" d="M565,613l315,0l0,-24l-315,0l0,24Z" class="g1_301" />
<path fill-rule="evenodd" d="M565,637l315,0l0,-24l-315,0l0,24Z" class="g1_301" />
<path fill-rule="evenodd" d="M565,661l315,0l0,-24l-315,0l0,24Z" class="g1_301" />
<path d="M46.5,399.5l0,-2" class="g2_301" />
<path d="M86.5,399.5l0,-2" class="g2_301" />
<path d="M127.5,399.5l0,-2" class="g2_301" />
<path d="M168.5,399.5l0,-2" class="g2_301" />
<path d="M209.5,399.5l0,-2" class="g2_301" />
<path d="M281.5,399.5l0,-2" class="g2_301" />
<path d="M322.5,399.5l0,-2" class="g2_301" />
<path d="M323.5,399.5l165,0" class="g2_301" />
<path d="M488.5,399.5l0,-2" class="g2_301" />
<path d="M490.5,399.5l66,0" class="g2_301" />
<path d="M556.5,399.5l0,-2" class="g2_301" />
<path d="M557.5,399.5l330,0" class="g2_301" />
<path d="M887.5,399.5l0,-2" class="g2_301" />
<path d="M46.5,661.5l0,-262" class="g2_301" />
<path d="M86.5,661.5l0,-262" class="g2_301" />
<path d="M127.5,661.5l0,-262" class="g2_301" />
<path d="M168.5,661.5l0,-262" class="g2_301" />
<path d="M209.5,661.5l0,-262" class="g2_301" />
<path d="M281.5,661.5l0,-262" class="g2_301" />
<path d="M322.5,661.5l0,-262" class="g2_301" />
<path d="M488.5,661.5l0,-262" class="g2_301" />
<path d="M556.5,661.5l0,-262" class="g2_301" />
<path d="M887.5,661.5l0,-262" class="g2_301" />
<path fill-rule="evenodd" d="M47,689l39,0l0,-28l-39,0l0,28Z" class="g1_301" />
<path fill-rule="evenodd" d="M88,689l400,0l0,-27L88,662l0,27Z" class="g1_301" />
<g clip-path="url(#c3_301)">
<path fill-rule="evenodd" d="M95,686l386,0l0,-24L95,662l0,24Z" class="g1_301" />
</g>
<path fill-rule="evenodd" d="M490,689l66,0l0,-27l-66,0l0,27Z" class="g1_301" />
<g clip-path="url(#c4_301)">
<path fill-rule="evenodd" d="M497,686l51,0l0,-24l-51,0l0,24Z" class="g1_301" />
</g>
<path fill-rule="evenodd" d="M557,689l330,0l0,-27l-330,0l0,27Z" class="g1_301" />
<g clip-path="url(#c5_301)">
<path fill-rule="evenodd" d="M565,686l315,0l0,-24l-315,0l0,24Z" class="g1_301" />
</g>
<path d="M46.5,662.5l0,-1" class="g2_301" />
<path d="M86.5,662.5l0,-1" class="g2_301" />
<path d="M88.5,662.5l39,0" class="g2_301" />
<path d="M127.5,662.5l0,-1" class="g2_301" />
<path d="M129.5,662.5l39,0" class="g2_301" />
<path d="M168.5,662.5l0,-1" class="g2_301" />
<path d="M169.5,662.5l40,0" class="g2_301" />
<path d="M209.5,662.5l0,-1" class="g2_301" />
<path d="M210.5,662.5l71,0" class="g2_301" />
<path d="M281.5,662.5l0,-1" class="g2_301" />
<path d="M282.5,662.5l40,0" class="g2_301" />
<path d="M322.5,662.5l0,-1" class="g2_301" />
<path d="M323.5,662.5l165,0" class="g2_301" />
<path d="M488.5,662.5l0,-1" class="g2_301" />
<path d="M490.5,662.5l66,0" class="g2_301" />
<path d="M556.5,662.5l0,-1" class="g2_301" />
<path d="M557.5,662.5l330,0" class="g2_301" />
<path d="M887.5,662.5l0,-1" class="g2_301" />
<path d="M46.5,689.5l0,-27" class="g2_301" />
<path d="M86.5,689.5l0,-27" class="g2_301" />
<path d="M488.5,689.5l0,-27" class="g2_301" />
<path d="M556.5,689.5l0,-27" class="g2_301" />
<path d="M887.5,689.5l0,-27" class="g2_301" />
<path fill-rule="evenodd" d="M47,718l39,0l0,-27l-39,0l0,27Z" class="g1_301" />
<g clip-path="url(#c6_301)">
<path fill-rule="evenodd" d="M55,715l24,0l0,-24l-24,0l0,24Z" class="g1_301" />
</g>
<path fill-rule="evenodd" d="M88,718l400,0l0,-27L88,691l0,27Z" class="g1_301" />
<g clip-path="url(#c7_301)">
<path fill-rule="evenodd" d="M95,715l386,0l0,-24L95,691l0,24Z" class="g1_301" />
</g>
<path fill-rule="evenodd" d="M490,718l66,0l0,-27l-66,0l0,27Z" class="g1_301" />
<g clip-path="url(#c8_301)">
<path fill-rule="evenodd" d="M497,715l51,0l0,-24l-51,0l0,24Z" class="g1_301" />
</g>
<path fill-rule="evenodd" d="M557,718l330,0l0,-27l-330,0l0,27Z" class="g1_301" />
<g clip-path="url(#c9_301)">
<path fill-rule="evenodd" d="M565,715l315,0l0,-24l-315,0l0,24Z" class="g1_301" />
</g>
<path d="M46.5,691.5l0,-2" class="g2_301" />
<path d="M47.5,691.5l39,0" class="g2_301" />
<path d="M86.5,691.5l0,-2" class="g2_301" />
<path d="M88.5,691.5l400,0" class="g2_301" />
<path d="M488.5,691.5l0,-2" class="g2_301" />
<path d="M490.5,691.5l66,0" class="g2_301" />
<path d="M556.5,691.5l0,-2" class="g2_301" />
<path d="M557.5,691.5l330,0" class="g2_301" />
<path d="M887.5,691.5l0,-2" class="g2_301" />
<path d="M46.5,718.5l0,-27" class="g2_301" />
<path d="M46.5,719.5l0,-1" class="g2_301" />
<path d="M46.5,719.5l0,-1" class="g2_301" />
<path d="M47.5,719.5l39,0" class="g2_301" />
<path d="M86.5,718.5l0,-27" class="g2_301" />
<path d="M86.5,719.5l0,-1" class="g2_301" />
<path d="M88.5,719.5l400,0" class="g2_301" />
<path d="M488.5,718.5l0,-27" class="g2_301" />
<path d="M488.5,719.5l0,-1" class="g2_301" />
<path d="M490.5,719.5l66,0" class="g2_301" />
<path d="M556.5,718.5l0,-27" class="g2_301" />
<path d="M556.5,719.5l0,-1" class="g2_301" />
<path d="M557.5,719.5l330,0" class="g2_301" />
<path d="M887.5,718.5l0,-27" class="g2_301" />
<path d="M887.5,719.5l0,-1" class="g2_301" />
<path d="M887.5,719.5l0,-1" class="g2_301" />
<path fill-rule="evenodd" d="M47,840l840,0l0,-24L47,816l0,24Z" class="g1_301" />
<g clip-path="url(#c10_301)">
<path fill-rule="evenodd" d="M55,840l825,0l0,-24L55,816l0,24Z" class="g1_301" />
</g>
<path d="M46.5,816.5l0,-1" class="g2_301" />
<path d="M46.5,816.5l0,-1" class="g2_301" />
<path d="M47.5,816.5l840,0" class="g2_301" />
<path d="M887.5,816.5l0,-1" class="g2_301" />
<path d="M887.5,816.5l0,-1" class="g2_301" />
<path d="M46.5,840.5l0,-24" class="g2_301" />
<path d="M46.5,841.5l0,-1" class="g2_301" />
<path d="M46.5,841.5l0,-1" class="g2_301" />
<path d="M47.5,841.5l840,0" class="g2_301" />
<path d="M887.5,840.5l0,-24" class="g2_301" />
<path d="M887.5,841.5l0,-1" class="g2_301" />
<path d="M887.5,841.5l0,-1" class="g2_301" />
<path fill-rule="evenodd" d="M47,1081l840,0l0,-214L47,867l0,214Z" class="g1_301" />
<g clip-path="url(#c11_301)">
<path fill-rule="evenodd" d="M55,891l825,0l0,-24L55,867l0,24Z" class="g1_301" />
</g>
<path fill-rule="evenodd" d="M55,914l825,0l0,-23L55,891l0,23Z" class="g1_301" />
<path fill-rule="evenodd" d="M55,938l825,0l0,-24L55,914l0,24Z" class="g1_301" />
<path fill-rule="evenodd" d="M55,962l825,0l0,-24L55,938l0,24Z" class="g1_301" />
<path fill-rule="evenodd" d="M55,986l825,0l0,-24L55,962l0,24Z" class="g1_301" />
<path fill-rule="evenodd" d="M55,1010l825,0l0,-24L55,986l0,24Z" class="g1_301" />
<path fill-rule="evenodd" d="M55,1034l825,0l0,-24l-825,0l0,24Z" class="g1_301" />
<path fill-rule="evenodd" d="M55,1057l825,0l0,-23l-825,0l0,23Z" class="g1_301" />
<g clip-path="url(#c11_301)">
<path fill-rule="evenodd" d="M55,1081l825,0l0,-24l-825,0l0,24Z" class="g1_301" />
</g>
<path d="M46.5,867.5l0,-2" class="g2_301" />
<path d="M46.5,867.5l0,-2" class="g2_301" />
<path d="M47.5,867.5l840,0" class="g2_301" />
<path d="M887.5,867.5l0,-2" class="g2_301" />
<path d="M887.5,867.5l0,-2" class="g2_301" />
<path d="M46.5,1081.5l0,-214" class="g2_301" />
<path d="M46.5,1083.5l0,-2" class="g2_301" />
<path d="M46.5,1083.5l0,-2" class="g2_301" />
<path d="M47.5,1083.5l840,0" class="g2_301" />
<path d="M887.5,1081.5l0,-214" class="g2_301" />
<path d="M887.5,1083.5l0,-2" class="g2_301" />
<path d="M887.5,1083.5l0,-2" class="g2_301" />
</svg>