<?xml version="1.0" encoding="UTF-8" standalone="no"?>
<!DOCTYPE svg PUBLIC "-//W3C//DTD SVG 1.1//EN"
"http://www.w3.org/Graphics/SVG/1.1/DTD/svg11.dtd">
<svg version="1.1" xmlns="http://www.w3.org/2000/svg" xmlns:xlink="http://www.w3.org/1999/xlink">
<defs>
<clipPath id="c0_78"><path d="M47.5,659.5l0,-548l840,0l0,548Z" /></clipPath>
<clipPath id="c1_78"><path d="M47.5,819.5l0,-24l102,0l0,24Z" /></clipPath>
<clipPath id="c2_78"><path d="M151.5,819.5l0,-24l736,0l0,24Z" /></clipPath>
<clipPath id="c3_78"><path d="M47.5,844.5l0,-24l102,0l0,24Z" /></clipPath>
<clipPath id="c4_78"><path d="M151.5,844.5l0,-24l736,0l0,24Z" /></clipPath>
<clipPath id="c5_78"><path d="M47.5,869.5l0,-23l102,0l0,23Z" /></clipPath>
<clipPath id="c6_78"><path d="M151.5,869.5l0,-23l736,0l0,23Z" /></clipPath>
<clipPath id="c7_78"><path d="M47.5,918.5l0,-47l102,0l0,47Z" /></clipPath>
<clipPath id="c8_78"><path d="M151.5,918.5l0,-47l736,0l0,47Z" /></clipPath>
<clipPath id="c9_78"><path d="M47.5,944.5l0,-24l102,0l0,24Z" /></clipPath>
<clipPath id="c10_78"><path d="M151.5,944.5l0,-24l736,0l0,24Z" /></clipPath>
<clipPath id="c11_78"><path d="M47.5,969.5l0,-24l102,0l0,24Z" /></clipPath>
<clipPath id="c12_78"><path d="M151.5,969.5l0,-24l736,0l0,24Z" /></clipPath>
<clipPath id="c13_78"><path d="M47.5,995.5l0,-24l102,0l0,24Z" /></clipPath>
<clipPath id="c14_78"><path d="M151.5,995.5l0,-24l736,0l0,24Z" /></clipPath>
<clipPath id="c15_78"><path d="M47.5,1020.5l0,-24l102,0l0,24Z" /></clipPath>
<clipPath id="c16_78"><path d="M151.5,1020.5l0,-24l736,0l0,24Z" /></clipPath>
<clipPath id="c17_78"><path d="M47.5,1045.5l0,-23l102,0l0,23Z" /></clipPath>
<clipPath id="c18_78"><path d="M151.5,1045.5l0,-23l736,0l0,23Z" /></clipPath>
<clipPath id="c19_78"><path d="M47.5,1071.5l0,-24l102,0l0,24Z" /></clipPath>
<clipPath id="c20_78"><path d="M151.5,1071.5l0,-24l736,0l0,24Z" /></clipPath>
<clipPath id="c21_78"><path d="M47.5,1096.5l0,-24l102,0l0,24Z" /></clipPath>
<clipPath id="c22_78"><path d="M151.5,1096.5l0,-24l736,0l0,24Z" /></clipPath>
<style type="text/css"><![CDATA[
.g2_78{
fill: none;
stroke: #7E7E7E;
stroke-width: 1;
stroke-linecap: butt;
stroke-linejoin: miter;
}
.g3_78{
fill: none;
stroke: #0000FF;
stroke-width: 1;
stroke-linecap: butt;
stroke-linejoin: miter;
}
.g4_78{
fill: #DBE5F1;
}
.g1_78{
fill: #F1F1F1;
}
]]></style>
</defs>
<path fill-rule="evenodd" d="M47,659l840,0l0,-548L47,111l0,548Z" class="g1_78" />
<g clip-path="url(#c0_78)">
<path fill-rule="evenodd" d="M55,135l825,0l0,-24L55,111l0,24Z" class="g1_78" />
</g>
<path fill-rule="evenodd" d="M55,159l825,0l0,-24L55,135l0,24Z" class="g1_78" />
<path fill-rule="evenodd" d="M55,182l825,0l0,-23L55,159l0,23Z" class="g1_78" />
<path fill-rule="evenodd" d="M55,206l825,0l0,-24L55,182l0,24Z" class="g1_78" />
<path fill-rule="evenodd" d="M55,230l825,0l0,-24L55,206l0,24Z" class="g1_78" />
<path fill-rule="evenodd" d="M55,254l825,0l0,-24L55,230l0,24Z" class="g1_78" />
<path fill-rule="evenodd" d="M55,278l825,0l0,-24L55,254l0,24Z" class="g1_78" />
<path fill-rule="evenodd" d="M55,302l825,0l0,-24L55,278l0,24Z" class="g1_78" />
<path fill-rule="evenodd" d="M55,325l825,0l0,-23L55,302l0,23Z" class="g1_78" />
<path fill-rule="evenodd" d="M55,349l825,0l0,-24L55,325l0,24Z" class="g1_78" />
<path fill-rule="evenodd" d="M55,373l825,0l0,-24L55,349l0,24Z" class="g1_78" />
<path fill-rule="evenodd" d="M55,397l825,0l0,-24L55,373l0,24Z" class="g1_78" />
<path fill-rule="evenodd" d="M55,421l825,0l0,-24L55,397l0,24Z" class="g1_78" />
<path fill-rule="evenodd" d="M55,445l825,0l0,-24L55,421l0,24Z" class="g1_78" />
<path fill-rule="evenodd" d="M55,469l825,0l0,-24L55,445l0,24Z" class="g1_78" />
<path fill-rule="evenodd" d="M55,492l825,0l0,-23L55,469l0,23Z" class="g1_78" />
<path fill-rule="evenodd" d="M55,516l825,0l0,-24L55,492l0,24Z" class="g1_78" />
<path fill-rule="evenodd" d="M55,540l825,0l0,-24L55,516l0,24Z" class="g1_78" />
<path fill-rule="evenodd" d="M55,564l825,0l0,-24L55,540l0,24Z" class="g1_78" />
<path fill-rule="evenodd" d="M55,588l825,0l0,-24L55,564l0,24Z" class="g1_78" />
<path fill-rule="evenodd" d="M55,612l825,0l0,-24L55,588l0,24Z" class="g1_78" />
<path fill-rule="evenodd" d="M55,635l825,0l0,-23L55,612l0,23Z" class="g1_78" />
<path fill-rule="evenodd" d="M55,659l825,0l0,-24L55,635l0,24Z" class="g1_78" />
<path d="M46.5,111.5l0,-1" class="g2_78" />
<path d="M46.5,111.5l0,-1" class="g2_78" />
<path d="M47.5,111.5l840,0" class="g2_78" />
<path d="M887.5,111.5l0,-1" class="g2_78" />
<path d="M887.5,111.5l0,-1" class="g2_78" />
<path d="M46.5,659.5l0,-548" class="g2_78" />
<path d="M46.5,661.5l0,-2" class="g2_78" />
<path d="M46.5,661.5l0,-2" class="g2_78" />
<path d="M47.5,661.5l840,0" class="g2_78" />
<path d="M887.5,659.5l0,-548" class="g2_78" />
<path d="M887.5,661.5l0,-2" class="g2_78" />
<path d="M887.5,661.5l0,-2" class="g2_78" />
<path d="M371.5,765.5l163,0" class="g3_78" />
<path fill-rule="evenodd" d="M47,819l102,0l0,-24L47,795l0,24Z" class="g4_78" />
<g clip-path="url(#c1_78)">
<path fill-rule="evenodd" d="M55,819l87,0l0,-24l-87,0l0,24Z" class="g4_78" />
</g>
<path fill-rule="evenodd" d="M151,819l736,0l0,-24l-736,0l0,24Z" class="g4_78" />
<g clip-path="url(#c2_78)">
<path fill-rule="evenodd" d="M158,819l722,0l0,-24l-722,0l0,24Z" class="g4_78" />
</g>
<path d="M46.5,795.5l0,-2" class="g2_78" />
<path d="M46.5,795.5l0,-2" class="g2_78" />
<path d="M47.5,795.5l102,0" class="g2_78" />
<path d="M149.5,795.5l0,-2" class="g2_78" />
<path d="M151.5,795.5l736,0" class="g2_78" />
<path d="M887.5,795.5l0,-2" class="g2_78" />
<path d="M887.5,795.5l0,-2" class="g2_78" />
<path d="M46.5,819.5l0,-24" class="g2_78" />
<path d="M149.5,819.5l0,-24" class="g2_78" />
<path d="M887.5,819.5l0,-24" class="g2_78" />
<path fill-rule="evenodd" d="M47,844l102,0l0,-24L47,820l0,24Z" class="g1_78" />
<g clip-path="url(#c3_78)">
<path fill-rule="evenodd" d="M55,844l87,0l0,-24l-87,0l0,24Z" class="g1_78" />
</g>
<path fill-rule="evenodd" d="M151,844l736,0l0,-24l-736,0l0,24Z" class="g1_78" />
<g clip-path="url(#c4_78)">
<path fill-rule="evenodd" d="M158,844l722,0l0,-24l-722,0l0,24Z" class="g1_78" />
</g>
<path d="M46.5,820.5l0,-1" class="g2_78" />
<path d="M47.5,820.5l102,0" class="g2_78" />
<path d="M149.5,820.5l0,-1" class="g2_78" />
<path d="M151.5,820.5l736,0" class="g2_78" />
<path d="M887.5,820.5l0,-1" class="g2_78" />
<path d="M46.5,844.5l0,-24" class="g2_78" />
<path d="M149.5,844.5l0,-24" class="g2_78" />
<path d="M887.5,844.5l0,-24" class="g2_78" />
<path fill-rule="evenodd" d="M47,869l102,0l0,-23L47,846l0,23Z" class="g1_78" />
<g clip-path="url(#c5_78)">
<path fill-rule="evenodd" d="M55,869l87,0l0,-23l-87,0l0,23Z" class="g1_78" />
</g>
<path fill-rule="evenodd" d="M151,869l736,0l0,-23l-736,0l0,23Z" class="g1_78" />
<g clip-path="url(#c6_78)">
<path fill-rule="evenodd" d="M158,869l722,0l0,-23l-722,0l0,23Z" class="g1_78" />
</g>
<path d="M46.5,846.5l0,-2" class="g2_78" />
<path d="M47.5,846.5l102,0" class="g2_78" />
<path d="M149.5,846.5l0,-2" class="g2_78" />
<path d="M151.5,846.5l736,0" class="g2_78" />
<path d="M887.5,846.5l0,-2" class="g2_78" />
<path d="M46.5,869.5l0,-23" class="g2_78" />
<path d="M149.5,869.5l0,-23" class="g2_78" />
<path d="M887.5,869.5l0,-23" class="g2_78" />
<path fill-rule="evenodd" d="M47,918l102,0l0,-47L47,871l0,47Z" class="g1_78" />
<g clip-path="url(#c7_78)">
<path fill-rule="evenodd" d="M55,895l87,0l0,-24l-87,0l0,24Z" class="g1_78" />
</g>
<path fill-rule="evenodd" d="M151,918l736,0l0,-47l-736,0l0,47Z" class="g1_78" />
<g clip-path="url(#c8_78)">
<path fill-rule="evenodd" d="M158,895l722,0l0,-24l-722,0l0,24Z" class="g1_78" />
</g>
<path fill-rule="evenodd" d="M158,918l722,0l0,-23l-722,0l0,23Z" class="g1_78" />
<path d="M46.5,871.5l0,-2" class="g2_78" />
<path d="M47.5,871.5l102,0" class="g2_78" />
<path d="M149.5,871.5l0,-2" class="g2_78" />
<path d="M151.5,871.5l736,0" class="g2_78" />
<path d="M887.5,871.5l0,-2" class="g2_78" />
<path d="M46.5,918.5l0,-47" class="g2_78" />
<path d="M149.5,918.5l0,-47" class="g2_78" />
<path d="M887.5,918.5l0,-47" class="g2_78" />
<path fill-rule="evenodd" d="M47,944l102,0l0,-24L47,920l0,24Z" class="g1_78" />
<g clip-path="url(#c9_78)">
<path fill-rule="evenodd" d="M55,944l87,0l0,-24l-87,0l0,24Z" class="g1_78" />
</g>
<path fill-rule="evenodd" d="M151,944l736,0l0,-24l-736,0l0,24Z" class="g1_78" />
<g clip-path="url(#c10_78)">
<path fill-rule="evenodd" d="M158,944l722,0l0,-24l-722,0l0,24Z" class="g1_78" />
</g>
<path d="M46.5,920.5l0,-2" class="g2_78" />
<path d="M47.5,920.5l102,0" class="g2_78" />
<path d="M149.5,920.5l0,-2" class="g2_78" />
<path d="M151.5,920.5l736,0" class="g2_78" />
<path d="M887.5,920.5l0,-2" class="g2_78" />
<path d="M46.5,944.5l0,-24" class="g2_78" />
<path d="M149.5,944.5l0,-24" class="g2_78" />
<path d="M887.5,944.5l0,-24" class="g2_78" />
<path fill-rule="evenodd" d="M47,969l102,0l0,-24L47,945l0,24Z" class="g1_78" />
<g clip-path="url(#c11_78)">
<path fill-rule="evenodd" d="M55,969l87,0l0,-24l-87,0l0,24Z" class="g1_78" />
</g>
<path fill-rule="evenodd" d="M151,969l736,0l0,-24l-736,0l0,24Z" class="g1_78" />
<g clip-path="url(#c12_78)">
<path fill-rule="evenodd" d="M158,969l722,0l0,-24l-722,0l0,24Z" class="g1_78" />
</g>
<path d="M46.5,945.5l0,-1" class="g2_78" />
<path d="M47.5,945.5l102,0" class="g2_78" />
<path d="M149.5,945.5l0,-1" class="g2_78" />
<path d="M151.5,945.5l736,0" class="g2_78" />
<path d="M887.5,945.5l0,-1" class="g2_78" />
<path d="M46.5,969.5l0,-24" class="g2_78" />
<path d="M149.5,969.5l0,-24" class="g2_78" />
<path d="M887.5,969.5l0,-24" class="g2_78" />
<path fill-rule="evenodd" d="M47,995l102,0l0,-24L47,971l0,24Z" class="g1_78" />
<g clip-path="url(#c13_78)">
<path fill-rule="evenodd" d="M55,995l87,0l0,-24l-87,0l0,24Z" class="g1_78" />
</g>
<path fill-rule="evenodd" d="M151,995l736,0l0,-24l-736,0l0,24Z" class="g1_78" />
<g clip-path="url(#c14_78)">
<path fill-rule="evenodd" d="M158,995l722,0l0,-24l-722,0l0,24Z" class="g1_78" />
</g>
<path d="M46.5,971.5l0,-2" class="g2_78" />
<path d="M47.5,971.5l102,0" class="g2_78" />
<path d="M149.5,971.5l0,-2" class="g2_78" />
<path d="M151.5,971.5l736,0" class="g2_78" />
<path d="M887.5,971.5l0,-2" class="g2_78" />
<path d="M46.5,995.5l0,-24" class="g2_78" />
<path d="M149.5,995.5l0,-24" class="g2_78" />
<path d="M887.5,995.5l0,-24" class="g2_78" />
<path fill-rule="evenodd" d="M47,1020l102,0l0,-24L47,996l0,24Z" class="g1_78" />
<g clip-path="url(#c15_78)">
<path fill-rule="evenodd" d="M55,1020l87,0l0,-24l-87,0l0,24Z" class="g1_78" />
</g>
<path fill-rule="evenodd" d="M151,1020l736,0l0,-24l-736,0l0,24Z" class="g1_78" />
<g clip-path="url(#c16_78)">
<path fill-rule="evenodd" d="M158,1020l722,0l0,-24l-722,0l0,24Z" class="g1_78" />
</g>
<path d="M46.5,996.5l0,-1" class="g2_78" />
<path d="M47.5,996.5l102,0" class="g2_78" />
<path d="M149.5,996.5l0,-1" class="g2_78" />
<path d="M151.5,996.5l736,0" class="g2_78" />
<path d="M887.5,996.5l0,-1" class="g2_78" />
<path d="M46.5,1020.5l0,-24" class="g2_78" />
<path d="M149.5,1020.5l0,-24" class="g2_78" />
<path d="M887.5,1020.5l0,-24" class="g2_78" />
<path fill-rule="evenodd" d="M47,1045l102,0l0,-23l-102,0l0,23Z" class="g1_78" />
<g clip-path="url(#c17_78)">
<path fill-rule="evenodd" d="M55,1045l87,0l0,-23l-87,0l0,23Z" class="g1_78" />
</g>
<path fill-rule="evenodd" d="M151,1045l736,0l0,-23l-736,0l0,23Z" class="g1_78" />
<g clip-path="url(#c18_78)">
<path fill-rule="evenodd" d="M158,1045l722,0l0,-23l-722,0l0,23Z" class="g1_78" />
</g>
<path d="M46.5,1022.5l0,-2" class="g2_78" />
<path d="M47.5,1022.5l102,0" class="g2_78" />
<path d="M149.5,1022.5l0,-2" class="g2_78" />
<path d="M151.5,1022.5l736,0" class="g2_78" />
<path d="M887.5,1022.5l0,-2" class="g2_78" />
<path d="M46.5,1045.5l0,-23" class="g2_78" />
<path d="M149.5,1045.5l0,-23" class="g2_78" />
<path d="M887.5,1045.5l0,-23" class="g2_78" />
<path fill-rule="evenodd" d="M47,1071l102,0l0,-24l-102,0l0,24Z" class="g1_78" />
<g clip-path="url(#c19_78)">
<path fill-rule="evenodd" d="M55,1071l87,0l0,-24l-87,0l0,24Z" class="g1_78" />
</g>
<path fill-rule="evenodd" d="M151,1071l736,0l0,-24l-736,0l0,24Z" class="g1_78" />
<g clip-path="url(#c20_78)">
<path fill-rule="evenodd" d="M158,1071l722,0l0,-24l-722,0l0,24Z" class="g1_78" />
</g>
<path d="M46.5,1047.5l0,-2" class="g2_78" />
<path d="M47.5,1047.5l102,0" class="g2_78" />
<path d="M149.5,1047.5l0,-2" class="g2_78" />
<path d="M151.5,1047.5l736,0" class="g2_78" />
<path d="M887.5,1047.5l0,-2" class="g2_78" />
<path d="M46.5,1071.5l0,-24" class="g2_78" />
<path d="M149.5,1071.5l0,-24" class="g2_78" />
<path d="M887.5,1071.5l0,-24" class="g2_78" />
<path fill-rule="evenodd" d="M47,1096l102,0l0,-24l-102,0l0,24Z" class="g1_78" />
<g clip-path="url(#c21_78)">
<path fill-rule="evenodd" d="M55,1096l87,0l0,-24l-87,0l0,24Z" class="g1_78" />
</g>
<path fill-rule="evenodd" d="M151,1096l736,0l0,-24l-736,0l0,24Z" class="g1_78" />
<g clip-path="url(#c22_78)">
<path fill-rule="evenodd" d="M158,1096l722,0l0,-24l-722,0l0,24Z" class="g1_78" />
</g>
<path d="M46.5,1072.5l0,-1" class="g2_78" />
<path d="M47.5,1072.5l102,0" class="g2_78" />
<path d="M149.5,1072.5l0,-1" class="g2_78" />
<path d="M151.5,1072.5l736,0" class="g2_78" />
<path d="M887.5,1072.5l0,-1" class="g2_78" />
<path d="M46.5,1096.5l0,-24" class="g2_78" />
<path d="M46.5,1098.5l0,-2" class="g2_78" />
<path d="M46.5,1098.5l0,-2" class="g2_78" />
<path d="M47.5,1098.5l102,0" class="g2_78" />
<path d="M149.5,1096.5l0,-24" class="g2_78" />
<path d="M149.5,1098.5l0,-2" class="g2_78" />
<path d="M151.5,1098.5l736,0" class="g2_78" />
<path d="M887.5,1096.5l0,-24" class="g2_78" />
<path d="M887.5,1098.5l0,-2" class="g2_78" />
<path d="M887.5,1098.5l0,-2" class="g2_78" />
</svg>