<?xml version="1.0" encoding="UTF-8" standalone="no"?>
<!DOCTYPE svg PUBLIC "-//W3C//DTD SVG 1.1//EN"
"http://www.w3.org/Graphics/SVG/1.1/DTD/svg11.dtd">
<svg version="1.1" xmlns="http://www.w3.org/2000/svg" xmlns:xlink="http://www.w3.org/1999/xlink">
<defs>
<clipPath id="c0_473"><path d="M663.5,207.5l0,-96l224,0l0,96Z" /></clipPath>
<clipPath id="c1_473"><path d="M47.5,330.5l0,-24l840,0l0,24Z" /></clipPath>
<clipPath id="c2_473"><path d="M47.5,833.5l0,-477l840,0l0,477Z" /></clipPath>
<clipPath id="c3_473"><path d="M47.5,1075.5l0,-167l840,0l0,167Z" /></clipPath>
<style type="text/css"><![CDATA[
.g2_473{
fill: none;
stroke: #7E7E7E;
stroke-width: 1;
stroke-linecap: butt;
stroke-linejoin: miter;
}
.g3_473{
fill: none;
stroke: #0000FF;
stroke-width: 1;
stroke-linecap: butt;
stroke-linejoin: miter;
}
.g1_473{
fill: #F1F1F1;
}
]]></style>
</defs>
<path fill-rule="evenodd" d="M47,207l39,0l0,-96l-39,0l0,96Z" class="g1_473" />
<path fill-rule="evenodd" d="M88,207l39,0l0,-96l-39,0l0,96Z" class="g1_473" />
<path fill-rule="evenodd" d="M129,207l391,0l0,-96l-391,0l0,96Z" class="g1_473" />
<path fill-rule="evenodd" d="M522,207l78,0l0,-96l-78,0l0,96Z" class="g1_473" />
<path fill-rule="evenodd" d="M602,207l60,0l0,-96l-60,0l0,96Z" class="g1_473" />
<path fill-rule="evenodd" d="M663,207l224,0l0,-96l-224,0l0,96Z" class="g1_473" />
<g clip-path="url(#c0_473)">
<path fill-rule="evenodd" d="M671,135l209,0l0,-24l-209,0l0,24Z" class="g1_473" />
</g>
<path d="M46.5,111.5l0,-1" class="g2_473" />
<path d="M46.5,111.5l0,-1" class="g2_473" />
<path d="M47.5,111.5l39,0" class="g2_473" />
<path d="M86.5,111.5l0,-1" class="g2_473" />
<path d="M88.5,111.5l39,0" class="g2_473" />
<path d="M127.5,111.5l0,-1" class="g2_473" />
<path d="M129.5,111.5l391,0" class="g2_473" />
<path d="M520.5,111.5l0,-1" class="g2_473" />
<path d="M522.5,111.5l78,0" class="g2_473" />
<path d="M600.5,111.5l0,-1" class="g2_473" />
<path d="M602.5,111.5l60,0" class="g2_473" />
<path d="M662.5,111.5l0,-1" class="g2_473" />
<path d="M663.5,111.5l224,0" class="g2_473" />
<path d="M887.5,111.5l0,-1" class="g2_473" />
<path d="M887.5,111.5l0,-1" class="g2_473" />
<path d="M46.5,207.5l0,-96" class="g2_473" />
<path d="M46.5,209.5l0,-2" class="g2_473" />
<path d="M46.5,209.5l0,-2" class="g2_473" />
<path d="M47.5,209.5l39,0" class="g2_473" />
<path d="M86.5,207.5l0,-96" class="g2_473" />
<path d="M86.5,209.5l0,-2" class="g2_473" />
<path d="M88.5,209.5l39,0" class="g2_473" />
<path d="M127.5,207.5l0,-96" class="g2_473" />
<path d="M127.5,209.5l0,-2" class="g2_473" />
<path d="M129.5,209.5l391,0" class="g2_473" />
<path d="M520.5,207.5l0,-96" class="g2_473" />
<path d="M520.5,209.5l0,-2" class="g2_473" />
<path d="M522.5,209.5l78,0" class="g2_473" />
<path d="M600.5,207.5l0,-96" class="g2_473" />
<path d="M600.5,209.5l0,-2" class="g2_473" />
<path d="M602.5,209.5l60,0" class="g2_473" />
<path d="M662.5,207.5l0,-96" class="g2_473" />
<path d="M662.5,209.5l0,-2" class="g2_473" />
<path d="M663.5,209.5l224,0" class="g2_473" />
<path d="M887.5,207.5l0,-96" class="g2_473" />
<path d="M887.5,209.5l0,-2" class="g2_473" />
<path d="M887.5,209.5l0,-2" class="g2_473" />
<path fill-rule="evenodd" d="M47,330l840,0l0,-24L47,306l0,24Z" class="g1_473" />
<g clip-path="url(#c1_473)">
<path fill-rule="evenodd" d="M55,330l825,0l0,-24L55,306l0,24Z" class="g1_473" />
</g>
<path d="M46.5,306.5l0,-2" class="g2_473" />
<path d="M46.5,306.5l0,-2" class="g2_473" />
<path d="M47.5,306.5l840,0" class="g2_473" />
<path d="M887.5,306.5l0,-2" class="g2_473" />
<path d="M887.5,306.5l0,-2" class="g2_473" />
<path d="M46.5,330.5l0,-24" class="g2_473" />
<path d="M46.5,331.5l0,-1" class="g2_473" />
<path d="M46.5,331.5l0,-1" class="g2_473" />
<path d="M47.5,331.5l840,0" class="g2_473" />
<path d="M887.5,330.5l0,-24" class="g2_473" />
<path d="M887.5,331.5l0,-1" class="g2_473" />
<path d="M887.5,331.5l0,-1" class="g2_473" />
<path fill-rule="evenodd" d="M47,833l840,0l0,-477L47,356l0,477Z" class="g1_473" />
<g clip-path="url(#c2_473)">
<path fill-rule="evenodd" d="M55,380l825,0l0,-24L55,356l0,24Z" class="g1_473" />
</g>
<path fill-rule="evenodd" d="M55,404l825,0l0,-24L55,380l0,24Z" class="g1_473" />
<path fill-rule="evenodd" d="M55,428l825,0l0,-24L55,404l0,24Z" class="g1_473" />
<path fill-rule="evenodd" d="M55,452l825,0l0,-24L55,428l0,24Z" class="g1_473" />
<path fill-rule="evenodd" d="M55,476l825,0l0,-24L55,452l0,24Z" class="g1_473" />
<path fill-rule="evenodd" d="M55,500l825,0l0,-24L55,476l0,24Z" class="g1_473" />
<path fill-rule="evenodd" d="M55,523l825,0l0,-23L55,500l0,23Z" class="g1_473" />
<path fill-rule="evenodd" d="M55,547l825,0l0,-24L55,523l0,24Z" class="g1_473" />
<path fill-rule="evenodd" d="M55,571l825,0l0,-24L55,547l0,24Z" class="g1_473" />
<path fill-rule="evenodd" d="M55,595l825,0l0,-24L55,571l0,24Z" class="g1_473" />
<path fill-rule="evenodd" d="M55,619l825,0l0,-24L55,595l0,24Z" class="g1_473" />
<path fill-rule="evenodd" d="M55,643l825,0l0,-24L55,619l0,24Z" class="g1_473" />
<path fill-rule="evenodd" d="M55,666l825,0l0,-23L55,643l0,23Z" class="g1_473" />
<path fill-rule="evenodd" d="M55,690l825,0l0,-24L55,666l0,24Z" class="g1_473" />
<path fill-rule="evenodd" d="M55,714l825,0l0,-24L55,690l0,24Z" class="g1_473" />
<path fill-rule="evenodd" d="M55,738l825,0l0,-24L55,714l0,24Z" class="g1_473" />
<path fill-rule="evenodd" d="M55,762l825,0l0,-24L55,738l0,24Z" class="g1_473" />
<path fill-rule="evenodd" d="M55,786l825,0l0,-24L55,762l0,24Z" class="g1_473" />
<path fill-rule="evenodd" d="M55,809l825,0l0,-23L55,786l0,23Z" class="g1_473" />
<path fill-rule="evenodd" d="M55,833l825,0l0,-24L55,809l0,24Z" class="g1_473" />
<path d="M46.5,356.5l0,-1" class="g2_473" />
<path d="M46.5,356.5l0,-1" class="g2_473" />
<path d="M47.5,356.5l840,0" class="g2_473" />
<path d="M887.5,356.5l0,-1" class="g2_473" />
<path d="M887.5,356.5l0,-1" class="g2_473" />
<path d="M46.5,833.5l0,-477" class="g2_473" />
<path d="M46.5,835.5l0,-2" class="g2_473" />
<path d="M46.5,835.5l0,-2" class="g2_473" />
<path d="M47.5,835.5l840,0" class="g2_473" />
<path d="M887.5,833.5l0,-477" class="g2_473" />
<path d="M887.5,835.5l0,-2" class="g2_473" />
<path d="M887.5,835.5l0,-2" class="g2_473" />
<path fill-rule="evenodd" d="M47,1075l840,0l0,-167L47,908l0,167Z" class="g1_473" />
<g clip-path="url(#c3_473)">
<path fill-rule="evenodd" d="M55,932l825,0l0,-24L55,908l0,24Z" class="g1_473" />
</g>
<path d="M87.5,927.5l751,0" class="g3_473" />
<path fill-rule="evenodd" d="M55,955l825,0l0,-23L55,932l0,23Z" class="g1_473" />
<path fill-rule="evenodd" d="M55,979l825,0l0,-24L55,955l0,24Z" class="g1_473" />
<path fill-rule="evenodd" d="M55,1003l825,0l0,-24L55,979l0,24Z" class="g1_473" />
<path fill-rule="evenodd" d="M55,1027l825,0l0,-24l-825,0l0,24Z" class="g1_473" />
<path fill-rule="evenodd" d="M55,1051l825,0l0,-24l-825,0l0,24Z" class="g1_473" />
<g clip-path="url(#c3_473)">
<path fill-rule="evenodd" d="M55,1075l825,0l0,-24l-825,0l0,24Z" class="g1_473" />
</g>
<path d="M46.5,908.5l0,-2" class="g2_473" />
<path d="M46.5,908.5l0,-2" class="g2_473" />
<path d="M47.5,908.5l840,0" class="g2_473" />
<path d="M887.5,908.5l0,-2" class="g2_473" />
<path d="M887.5,908.5l0,-2" class="g2_473" />
<path d="M46.5,1075.5l0,-167" class="g2_473" />
<path d="M46.5,1076.5l0,-1" class="g2_473" />
<path d="M46.5,1076.5l0,-1" class="g2_473" />
<path d="M47.5,1076.5l840,0" class="g2_473" />
<path d="M887.5,1075.5l0,-167" class="g2_473" />
<path d="M887.5,1076.5l0,-1" class="g2_473" />
<path d="M887.5,1076.5l0,-1" class="g2_473" />
</svg>