<?xml version="1.0" encoding="UTF-8" standalone="no"?>
<!DOCTYPE svg PUBLIC "-//W3C//DTD SVG 1.1//EN"
"http://www.w3.org/Graphics/SVG/1.1/DTD/svg11.dtd">
<svg version="1.1" xmlns="http://www.w3.org/2000/svg" xmlns:xlink="http://www.w3.org/1999/xlink">
<defs>
<clipPath id="c0_139"><path d="M47.5,315.5l0,-71l351,0l0,71Z" /></clipPath>
<clipPath id="c1_139"><path d="M399.5,315.5l0,-71l68,0l0,71Z" /></clipPath>
<clipPath id="c2_139"><path d="M468.5,315.5l0,-71l342,0l0,71Z" /></clipPath>
<clipPath id="c3_139"><path d="M812.5,315.5l0,-71l60,0l0,71Z" /></clipPath>
<clipPath id="c4_139"><path d="M47.5,1084.5l0,-767l33,0l0,767Z" /></clipPath>
<clipPath id="c5_139"><path d="M81.5,388.5l0,-71l317,0l0,71Z" /></clipPath>
<clipPath id="c6_139"><path d="M399.5,388.5l0,-71l68,0l0,71Z" /></clipPath>
<clipPath id="c7_139"><path d="M468.5,388.5l0,-71l342,0l0,71Z" /></clipPath>
<clipPath id="c8_139"><path d="M81.5,415.5l0,-25l317,0l0,25Z" /></clipPath>
<clipPath id="c9_139"><path d="M399.5,415.5l0,-25l68,0l0,25Z" /></clipPath>
<clipPath id="c10_139"><path d="M468.5,415.5l0,-25l342,0l0,25Z" /></clipPath>
<clipPath id="c11_139"><path d="M81.5,1084.5l0,-642l32,0l0,642Z" /></clipPath>
<clipPath id="c12_139"><path d="M115.5,1084.5l0,-536l31,0l0,536Z" /></clipPath>
<clipPath id="c13_139"><path d="M148.5,1084.5l0,-536l31,0l0,536Z" /></clipPath>
<clipPath id="c14_139"><path d="M181.5,722.5l0,-95l217,0l0,95Z" /></clipPath>
<clipPath id="c15_139"><path d="M399.5,722.5l0,-95l68,0l0,95Z" /></clipPath>
<clipPath id="c16_139"><path d="M468.5,722.5l0,-95l342,0l0,95Z" /></clipPath>
<clipPath id="c17_139"><path d="M812.5,722.5l0,-95l60,0l0,95Z" /></clipPath>
<clipPath id="c18_139"><path d="M181.5,747.5l0,-24l217,0l0,24Z" /></clipPath>
<clipPath id="c19_139"><path d="M399.5,747.5l0,-24l68,0l0,24Z" /></clipPath>
<clipPath id="c20_139"><path d="M468.5,747.5l0,-24l342,0l0,24Z" /></clipPath>
<clipPath id="c21_139"><path d="M812.5,747.5l0,-24l60,0l0,24Z" /></clipPath>
<clipPath id="c22_139"><path d="M181.5,892.5l0,-143l217,0l0,143Z" /></clipPath>
<clipPath id="c23_139"><path d="M399.5,892.5l0,-143l68,0l0,143Z" /></clipPath>
<clipPath id="c24_139"><path d="M468.5,892.5l0,-143l342,0l0,143Z" /></clipPath>
<clipPath id="c25_139"><path d="M812.5,892.5l0,-143l60,0l0,143Z" /></clipPath>
<clipPath id="c26_139"><path d="M181.5,1084.5l0,-191l217,0l0,191Z" /></clipPath>
<clipPath id="c27_139"><path d="M399.5,1084.5l0,-191l68,0l0,191Z" /></clipPath>
<clipPath id="c28_139"><path d="M468.5,1084.5l0,-191l342,0l0,191Z" /></clipPath>
<clipPath id="c29_139"><path d="M812.5,1084.5l0,-191l60,0l0,191Z" /></clipPath>
<style type="text/css"><![CDATA[
.g2_139{
fill: none;
stroke: #7E7E7E;
stroke-width: 1;
stroke-linecap: butt;
stroke-linejoin: miter;
}
.g3_139{
fill: #F1F1F1;
}
.g1_139{
fill: #DBE5F1;
}
]]></style>
</defs>
<path fill-rule="evenodd" d="M47,315l351,0l0,-71L47,244l0,71Z" class="g1_139" />
<g clip-path="url(#c0_139)">
<path fill-rule="evenodd" d="M55,267l335,0l0,-23L55,244l0,23Z" class="g1_139" />
</g>
<path fill-rule="evenodd" d="M399,315l68,0l0,-71l-68,0l0,71Z" class="g1_139" />
<g clip-path="url(#c1_139)">
<path fill-rule="evenodd" d="M407,267l52,0l0,-23l-52,0l0,23Z" class="g1_139" />
</g>
<path fill-rule="evenodd" d="M468,315l342,0l0,-71l-342,0l0,71Z" class="g1_139" />
<g clip-path="url(#c2_139)">
<path fill-rule="evenodd" d="M476,267l327,0l0,-23l-327,0l0,23Z" class="g1_139" />
</g>
<path fill-rule="evenodd" d="M812,315l60,0l0,-71l-60,0l0,71Z" class="g1_139" />
<g clip-path="url(#c3_139)">
<path fill-rule="evenodd" d="M819,267l45,0l0,-23l-45,0l0,23Z" class="g1_139" />
</g>
<path fill-rule="evenodd" d="M819,291l45,0l0,-24l-45,0l0,24Z" class="g1_139" />
<path fill-rule="evenodd" d="M819,315l45,0l0,-24l-45,0l0,24Z" class="g1_139" />
<path d="M46.5,243.5l0,-1" class="g2_139" />
<path d="M46.5,243.5l0,-1" class="g2_139" />
<path d="M47.5,243.5l351,0" class="g2_139" />
<path d="M398.5,243.5l0,-1" class="g2_139" />
<path d="M399.5,243.5l68,0" class="g2_139" />
<path d="M467.5,243.5l0,-1" class="g2_139" />
<path d="M468.5,243.5l342,0" class="g2_139" />
<path d="M810.5,243.5l0,-1" class="g2_139" />
<path d="M812.5,243.5l60,0" class="g2_139" />
<path d="M872.5,243.5l0,-1" class="g2_139" />
<path d="M872.5,243.5l0,-1" class="g2_139" />
<path d="M46.5,315.5l0,-72" class="g2_139" />
<path d="M398.5,315.5l0,-72" class="g2_139" />
<path d="M467.5,315.5l0,-72" class="g2_139" />
<path d="M810.5,315.5l0,-72" class="g2_139" />
<path d="M872.5,315.5l0,-72" class="g2_139" />
<path fill-rule="evenodd" d="M47,1084l33,0L80,317l-33,0l0,767Z" class="g3_139" />
<g clip-path="url(#c4_139)">
<path fill-rule="evenodd" d="M55,1084l23,0L78,317l-23,0l0,767Z" class="g3_139" />
</g>
<path fill-rule="evenodd" d="M81,388l317,0l0,-71L81,317l0,71Z" class="g3_139" />
<g clip-path="url(#c5_139)">
<path fill-rule="evenodd" d="M89,340l301,0l0,-23L89,317l0,23Z" class="g3_139" />
</g>
<path fill-rule="evenodd" d="M399,388l68,0l0,-71l-68,0l0,71Z" class="g3_139" />
<g clip-path="url(#c6_139)">
<path fill-rule="evenodd" d="M407,340l52,0l0,-23l-52,0l0,23Z" class="g3_139" />
</g>
<path fill-rule="evenodd" d="M468,388l342,0l0,-71l-342,0l0,71Z" class="g3_139" />
<g clip-path="url(#c7_139)">
<path fill-rule="evenodd" d="M476,340l327,0l0,-23l-327,0l0,23Z" class="g3_139" />
</g>
<path fill-rule="evenodd" d="M476,364l327,0l0,-24l-327,0l0,24Z" class="g3_139" />
<path fill-rule="evenodd" d="M476,388l327,0l0,-24l-327,0l0,24Z" class="g3_139" />
<path fill-rule="evenodd" d="M812,388l60,0l0,-71l-60,0l0,71Z" class="g3_139" />
<path fill-rule="evenodd" d="M819,364l45,0l0,-24l-45,0l0,24Z" class="g3_139" />
<path d="M46.5,317.5l0,-2" class="g2_139" />
<path d="M47.5,317.5l33,0" class="g2_139" />
<path d="M80.5,317.5l0,-2" class="g2_139" />
<path d="M81.5,317.5l317,0" class="g2_139" />
<path d="M398.5,317.5l0,-2" class="g2_139" />
<path d="M399.5,317.5l68,0" class="g2_139" />
<path d="M467.5,317.5l0,-2" class="g2_139" />
<path d="M468.5,317.5l342,0" class="g2_139" />
<path d="M810.5,317.5l0,-2" class="g2_139" />
<path d="M812.5,317.5l60,0" class="g2_139" />
<path d="M872.5,317.5l0,-2" class="g2_139" />
<path d="M46.5,388.5l0,-71" class="g2_139" />
<path d="M80.5,388.5l0,-71" class="g2_139" />
<path d="M398.5,388.5l0,-71" class="g2_139" />
<path d="M467.5,388.5l0,-71" class="g2_139" />
<path d="M810.5,388.5l0,-71" class="g2_139" />
<path d="M872.5,388.5l0,-71" class="g2_139" />
<path fill-rule="evenodd" d="M81,415l317,0l0,-26L81,389l0,26Z" class="g3_139" />
<g clip-path="url(#c8_139)">
<path fill-rule="evenodd" d="M89,413l301,0l0,-24L89,389l0,24Z" class="g3_139" />
</g>
<path fill-rule="evenodd" d="M399,415l68,0l0,-26l-68,0l0,26Z" class="g3_139" />
<g clip-path="url(#c9_139)">
<path fill-rule="evenodd" d="M407,413l52,0l0,-24l-52,0l0,24Z" class="g3_139" />
</g>
<path fill-rule="evenodd" d="M468,415l342,0l0,-26l-342,0l0,26Z" class="g3_139" />
<g clip-path="url(#c10_139)">
<path fill-rule="evenodd" d="M476,413l327,0l0,-24l-327,0l0,24Z" class="g3_139" />
</g>
<path fill-rule="evenodd" d="M812,415l60,0l0,-26l-60,0l0,26Z" class="g3_139" />
<path fill-rule="evenodd" d="M819,414l45,0l0,-24l-45,0l0,24Z" class="g3_139" />
<path d="M46.5,389.5l0,-1" class="g2_139" />
<path d="M80.5,389.5l0,-1" class="g2_139" />
<path d="M81.5,389.5l317,0" class="g2_139" />
<path d="M398.5,389.5l0,-1" class="g2_139" />
<path d="M399.5,389.5l68,0" class="g2_139" />
<path d="M467.5,389.5l0,-1" class="g2_139" />
<path d="M468.5,389.5l342,0" class="g2_139" />
<path d="M810.5,389.5l0,-1" class="g2_139" />
<path d="M812.5,389.5l60,0" class="g2_139" />
<path d="M872.5,389.5l0,-1" class="g2_139" />
<path d="M46.5,415.5l0,-26" class="g2_139" />
<path d="M80.5,415.5l0,-26" class="g2_139" />
<path d="M398.5,415.5l0,-26" class="g2_139" />
<path d="M467.5,415.5l0,-26" class="g2_139" />
<path d="M810.5,415.5l0,-26" class="g2_139" />
<path d="M872.5,415.5l0,-26" class="g2_139" />
<path fill-rule="evenodd" d="M81,441l317,0l0,-24L81,417l0,24Z" class="g3_139" />
<path fill-rule="evenodd" d="M89,440l301,0l0,-23L89,417l0,23Z" class="g3_139" />
<path fill-rule="evenodd" d="M399,441l68,0l0,-24l-68,0l0,24Z" class="g3_139" />
<path fill-rule="evenodd" d="M407,440l52,0l0,-23l-52,0l0,23Z" class="g3_139" />
<path fill-rule="evenodd" d="M468,441l342,0l0,-24l-342,0l0,24Z" class="g3_139" />
<path fill-rule="evenodd" d="M476,440l327,0l0,-23l-327,0l0,23Z" class="g3_139" />
<path fill-rule="evenodd" d="M812,441l60,0l0,-24l-60,0l0,24Z" class="g3_139" />
<path fill-rule="evenodd" d="M819,441l45,0l0,-24l-45,0l0,24Z" class="g3_139" />
<path d="M46.5,416.5l0,-1" class="g2_139" />
<path d="M80.5,416.5l0,-1" class="g2_139" />
<path d="M81.5,416.5l317,0" class="g2_139" />
<path d="M398.5,416.5l0,-1" class="g2_139" />
<path d="M399.5,416.5l68,0" class="g2_139" />
<path d="M467.5,416.5l0,-1" class="g2_139" />
<path d="M468.5,416.5l342,0" class="g2_139" />
<path d="M810.5,416.5l0,-1" class="g2_139" />
<path d="M812.5,416.5l60,0" class="g2_139" />
<path d="M872.5,416.5l0,-1" class="g2_139" />
<path d="M46.5,441.5l0,-25" class="g2_139" />
<path d="M80.5,441.5l0,-25" class="g2_139" />
<path d="M398.5,441.5l0,-25" class="g2_139" />
<path d="M467.5,441.5l0,-25" class="g2_139" />
<path d="M810.5,441.5l0,-25" class="g2_139" />
<path d="M872.5,441.5l0,-25" class="g2_139" />
<path fill-rule="evenodd" d="M81,1084l32,0l0,-641l-32,0l0,641Z" class="g3_139" />
<g clip-path="url(#c11_139)">
<path fill-rule="evenodd" d="M89,1084l23,0l0,-641l-23,0l0,641Z" class="g3_139" />
</g>
<path fill-rule="evenodd" d="M115,547l31,0l0,-104l-31,0l0,104Z" class="g3_139" />
<path fill-rule="evenodd" d="M122,547l24,0l0,-104l-24,0l0,104Z" class="g3_139" />
<path fill-rule="evenodd" d="M148,469l250,0l0,-26l-250,0l0,26Z" class="g3_139" />
<path fill-rule="evenodd" d="M155,466l235,0l0,-23l-235,0l0,23Z" class="g3_139" />
<path fill-rule="evenodd" d="M399,469l68,0l0,-26l-68,0l0,26Z" class="g3_139" />
<path fill-rule="evenodd" d="M407,466l52,0l0,-23l-52,0l0,23Z" class="g3_139" />
<path fill-rule="evenodd" d="M468,469l342,0l0,-26l-342,0l0,26Z" class="g3_139" />
<path fill-rule="evenodd" d="M476,466l327,0l0,-23l-327,0l0,23Z" class="g3_139" />
<path fill-rule="evenodd" d="M812,469l60,0l0,-26l-60,0l0,26Z" class="g3_139" />
<path fill-rule="evenodd" d="M819,466l45,0l0,-23l-45,0l0,23Z" class="g3_139" />
<path d="M46.5,443.5l0,-2" class="g2_139" />
<path d="M80.5,443.5l0,-2" class="g2_139" />
<path d="M81.5,443.5l32,0" class="g2_139" />
<path d="M113.5,443.5l0,-2" class="g2_139" />
<path d="M114.5,443.5l32,0" class="g2_139" />
<path d="M146.5,443.5l0,-2" class="g2_139" />
<path d="M148.5,443.5l250,0" class="g2_139" />
<path d="M398.5,443.5l0,-2" class="g2_139" />
<path d="M399.5,443.5l68,0" class="g2_139" />
<path d="M467.5,443.5l0,-2" class="g2_139" />
<path d="M468.5,443.5l342,0" class="g2_139" />
<path d="M810.5,443.5l0,-2" class="g2_139" />
<path d="M812.5,443.5l60,0" class="g2_139" />
<path d="M872.5,443.5l0,-2" class="g2_139" />
<path d="M46.5,469.5l0,-26" class="g2_139" />
<path d="M80.5,469.5l0,-26" class="g2_139" />
<path d="M113.5,469.5l0,-26" class="g2_139" />
<path d="M146.5,469.5l0,-26" class="g2_139" />
<path d="M398.5,469.5l0,-26" class="g2_139" />
<path d="M467.5,469.5l0,-26" class="g2_139" />
<path d="M810.5,469.5l0,-26" class="g2_139" />
<path d="M872.5,469.5l0,-26" class="g2_139" />
<path fill-rule="evenodd" d="M148,496l250,0l0,-26l-250,0l0,26Z" class="g3_139" />
<path fill-rule="evenodd" d="M155,494l235,0l0,-24l-235,0l0,24Z" class="g3_139" />
<path fill-rule="evenodd" d="M399,496l68,0l0,-26l-68,0l0,26Z" class="g3_139" />
<path fill-rule="evenodd" d="M407,494l52,0l0,-24l-52,0l0,24Z" class="g3_139" />
<path fill-rule="evenodd" d="M468,496l342,0l0,-26l-342,0l0,26Z" class="g3_139" />
<path fill-rule="evenodd" d="M476,494l327,0l0,-24l-327,0l0,24Z" class="g3_139" />
<path fill-rule="evenodd" d="M812,496l60,0l0,-26l-60,0l0,26Z" class="g3_139" />
<path fill-rule="evenodd" d="M819,494l45,0l0,-24l-45,0l0,24Z" class="g3_139" />
<path d="M46.5,470.5l0,-1" class="g2_139" />
<path d="M80.5,470.5l0,-1" class="g2_139" />
<path d="M113.5,470.5l0,-1" class="g2_139" />
<path d="M146.5,470.5l0,-1" class="g2_139" />
<path d="M148.5,470.5l250,0" class="g2_139" />
<path d="M398.5,470.5l0,-1" class="g2_139" />
<path d="M399.5,470.5l68,0" class="g2_139" />
<path d="M467.5,470.5l0,-1" class="g2_139" />
<path d="M468.5,470.5l342,0" class="g2_139" />
<path d="M810.5,470.5l0,-1" class="g2_139" />
<path d="M812.5,470.5l60,0" class="g2_139" />
<path d="M872.5,470.5l0,-1" class="g2_139" />
<path d="M46.5,496.5l0,-26" class="g2_139" />
<path d="M80.5,496.5l0,-26" class="g2_139" />
<path d="M113.5,496.5l0,-26" class="g2_139" />
<path d="M146.5,496.5l0,-26" class="g2_139" />
<path d="M398.5,496.5l0,-26" class="g2_139" />
<path d="M467.5,496.5l0,-26" class="g2_139" />
<path d="M810.5,496.5l0,-26" class="g2_139" />
<path d="M872.5,496.5l0,-26" class="g2_139" />
<path fill-rule="evenodd" d="M148,521l250,0l0,-23l-250,0l0,23Z" class="g3_139" />
<path fill-rule="evenodd" d="M155,521l235,0l0,-23l-235,0l0,23Z" class="g3_139" />
<path fill-rule="evenodd" d="M399,521l68,0l0,-23l-68,0l0,23Z" class="g3_139" />
<path fill-rule="evenodd" d="M407,521l52,0l0,-23l-52,0l0,23Z" class="g3_139" />
<path fill-rule="evenodd" d="M468,521l342,0l0,-23l-342,0l0,23Z" class="g3_139" />
<path fill-rule="evenodd" d="M476,521l327,0l0,-23l-327,0l0,23Z" class="g3_139" />
<path fill-rule="evenodd" d="M812,521l60,0l0,-23l-60,0l0,23Z" class="g3_139" />
<path fill-rule="evenodd" d="M819,521l45,0l0,-23l-45,0l0,23Z" class="g3_139" />
<path d="M46.5,498.5l0,-2" class="g2_139" />
<path d="M80.5,498.5l0,-2" class="g2_139" />
<path d="M113.5,498.5l0,-2" class="g2_139" />
<path d="M146.5,498.5l0,-2" class="g2_139" />
<path d="M148.5,498.5l250,0" class="g2_139" />
<path d="M398.5,498.5l0,-2" class="g2_139" />
<path d="M399.5,498.5l68,0" class="g2_139" />
<path d="M467.5,498.5l0,-2" class="g2_139" />
<path d="M468.5,498.5l342,0" class="g2_139" />
<path d="M810.5,498.5l0,-2" class="g2_139" />
<path d="M812.5,498.5l60,0" class="g2_139" />
<path d="M872.5,498.5l0,-2" class="g2_139" />
<path d="M46.5,521.5l0,-23" class="g2_139" />
<path d="M80.5,521.5l0,-23" class="g2_139" />
<path d="M113.5,521.5l0,-23" class="g2_139" />
<path d="M146.5,521.5l0,-23" class="g2_139" />
<path d="M398.5,521.5l0,-23" class="g2_139" />
<path d="M467.5,521.5l0,-23" class="g2_139" />
<path d="M810.5,521.5l0,-23" class="g2_139" />
<path d="M872.5,521.5l0,-23" class="g2_139" />
<path fill-rule="evenodd" d="M148,547l250,0l0,-24l-250,0l0,24Z" class="g3_139" />
<path fill-rule="evenodd" d="M155,547l235,0l0,-24l-235,0l0,24Z" class="g3_139" />
<path fill-rule="evenodd" d="M399,547l68,0l0,-24l-68,0l0,24Z" class="g3_139" />
<path fill-rule="evenodd" d="M407,547l52,0l0,-24l-52,0l0,24Z" class="g3_139" />
<path fill-rule="evenodd" d="M468,547l342,0l0,-24l-342,0l0,24Z" class="g3_139" />
<path fill-rule="evenodd" d="M476,547l327,0l0,-24l-327,0l0,24Z" class="g3_139" />
<path fill-rule="evenodd" d="M812,547l60,0l0,-24l-60,0l0,24Z" class="g3_139" />
<path fill-rule="evenodd" d="M819,547l45,0l0,-24l-45,0l0,24Z" class="g3_139" />
<path d="M46.5,523.5l0,-2" class="g2_139" />
<path d="M80.5,523.5l0,-2" class="g2_139" />
<path d="M113.5,523.5l0,-2" class="g2_139" />
<path d="M146.5,523.5l0,-2" class="g2_139" />
<path d="M148.5,523.5l250,0" class="g2_139" />
<path d="M398.5,523.5l0,-2" class="g2_139" />
<path d="M399.5,523.5l68,0" class="g2_139" />
<path d="M467.5,523.5l0,-2" class="g2_139" />
<path d="M468.5,523.5l342,0" class="g2_139" />
<path d="M810.5,523.5l0,-2" class="g2_139" />
<path d="M812.5,523.5l60,0" class="g2_139" />
<path d="M872.5,523.5l0,-2" class="g2_139" />
<path d="M46.5,547.5l0,-24" class="g2_139" />
<path d="M80.5,547.5l0,-24" class="g2_139" />
<path d="M113.5,547.5l0,-24" class="g2_139" />
<path d="M146.5,547.5l0,-24" class="g2_139" />
<path d="M398.5,547.5l0,-24" class="g2_139" />
<path d="M467.5,547.5l0,-24" class="g2_139" />
<path d="M810.5,547.5l0,-24" class="g2_139" />
<path d="M872.5,547.5l0,-24" class="g2_139" />
<path fill-rule="evenodd" d="M115,1084l31,0l0,-536l-31,0l0,536Z" class="g3_139" />
<g clip-path="url(#c12_139)">
<path fill-rule="evenodd" d="M122,1084l24,0l0,-536l-24,0l0,536Z" class="g3_139" />
</g>
<path fill-rule="evenodd" d="M148,1084l31,0l0,-536l-31,0l0,536Z" class="g3_139" />
<g clip-path="url(#c13_139)">
<path fill-rule="evenodd" d="M155,1084l24,0l0,-536l-24,0l0,536Z" class="g3_139" />
</g>
<path fill-rule="evenodd" d="M181,572l217,0l0,-24l-217,0l0,24Z" class="g3_139" />
<path fill-rule="evenodd" d="M188,572l202,0l0,-24l-202,0l0,24Z" class="g3_139" />
<path fill-rule="evenodd" d="M399,572l68,0l0,-24l-68,0l0,24Z" class="g3_139" />
<path fill-rule="evenodd" d="M407,572l52,0l0,-24l-52,0l0,24Z" class="g3_139" />
<path fill-rule="evenodd" d="M468,572l342,0l0,-24l-342,0l0,24Z" class="g3_139" />
<path fill-rule="evenodd" d="M476,572l327,0l0,-24l-327,0l0,24Z" class="g3_139" />
<path fill-rule="evenodd" d="M812,572l60,0l0,-24l-60,0l0,24Z" class="g3_139" />
<path fill-rule="evenodd" d="M819,572l45,0l0,-24l-45,0l0,24Z" class="g3_139" />
<path d="M46.5,548.5l0,-1" class="g2_139" />
<path d="M80.5,548.5l0,-1" class="g2_139" />
<path d="M113.5,548.5l0,-1" class="g2_139" />
<path d="M114.5,548.5l32,0" class="g2_139" />
<path d="M146.5,548.5l0,-1" class="g2_139" />
<path d="M148.5,548.5l31,0" class="g2_139" />
<path d="M179.5,548.5l0,-1" class="g2_139" />
<path d="M181.5,548.5l217,0" class="g2_139" />
<path d="M398.5,548.5l0,-1" class="g2_139" />
<path d="M399.5,548.5l68,0" class="g2_139" />
<path d="M467.5,548.5l0,-1" class="g2_139" />
<path d="M468.5,548.5l342,0" class="g2_139" />
<path d="M810.5,548.5l0,-1" class="g2_139" />
<path d="M812.5,548.5l60,0" class="g2_139" />
<path d="M872.5,548.5l0,-1" class="g2_139" />
<path d="M46.5,572.5l0,-24" class="g2_139" />
<path d="M80.5,572.5l0,-24" class="g2_139" />
<path d="M113.5,572.5l0,-24" class="g2_139" />
<path d="M146.5,572.5l0,-24" class="g2_139" />
<path d="M179.5,572.5l0,-24" class="g2_139" />
<path d="M398.5,572.5l0,-24" class="g2_139" />
<path d="M467.5,572.5l0,-24" class="g2_139" />
<path d="M810.5,572.5l0,-24" class="g2_139" />
<path d="M872.5,572.5l0,-24" class="g2_139" />
<path fill-rule="evenodd" d="M181,600l217,0l0,-26l-217,0l0,26Z" class="g3_139" />
<path fill-rule="evenodd" d="M188,597l202,0l0,-23l-202,0l0,23Z" class="g3_139" />
<path fill-rule="evenodd" d="M399,600l68,0l0,-26l-68,0l0,26Z" class="g3_139" />
<path fill-rule="evenodd" d="M407,597l52,0l0,-23l-52,0l0,23Z" class="g3_139" />
<path fill-rule="evenodd" d="M468,600l342,0l0,-26l-342,0l0,26Z" class="g3_139" />
<path fill-rule="evenodd" d="M476,597l327,0l0,-23l-327,0l0,23Z" class="g3_139" />
<path fill-rule="evenodd" d="M812,600l60,0l0,-26l-60,0l0,26Z" class="g3_139" />
<path fill-rule="evenodd" d="M819,597l45,0l0,-23l-45,0l0,23Z" class="g3_139" />
<path d="M46.5,574.5l0,-2" class="g2_139" />
<path d="M80.5,574.5l0,-2" class="g2_139" />
<path d="M113.5,574.5l0,-2" class="g2_139" />
<path d="M146.5,574.5l0,-2" class="g2_139" />
<path d="M179.5,574.5l0,-2" class="g2_139" />
<path d="M181.5,574.5l217,0" class="g2_139" />
<path d="M398.5,574.5l0,-2" class="g2_139" />
<path d="M399.5,574.5l68,0" class="g2_139" />
<path d="M467.5,574.5l0,-2" class="g2_139" />
<path d="M468.5,574.5l342,0" class="g2_139" />
<path d="M810.5,574.5l0,-2" class="g2_139" />
<path d="M812.5,574.5l60,0" class="g2_139" />
<path d="M872.5,574.5l0,-2" class="g2_139" />
<path d="M46.5,600.5l0,-26" class="g2_139" />
<path d="M80.5,600.5l0,-26" class="g2_139" />
<path d="M113.5,600.5l0,-26" class="g2_139" />
<path d="M146.5,600.5l0,-26" class="g2_139" />
<path d="M179.5,600.5l0,-26" class="g2_139" />
<path d="M398.5,600.5l0,-26" class="g2_139" />
<path d="M467.5,600.5l0,-26" class="g2_139" />
<path d="M810.5,600.5l0,-26" class="g2_139" />
<path d="M872.5,600.5l0,-26" class="g2_139" />
<path fill-rule="evenodd" d="M181,625l217,0l0,-24l-217,0l0,24Z" class="g3_139" />
<path fill-rule="evenodd" d="M188,625l202,0l0,-24l-202,0l0,24Z" class="g3_139" />
<path fill-rule="evenodd" d="M399,625l68,0l0,-24l-68,0l0,24Z" class="g3_139" />
<path fill-rule="evenodd" d="M407,625l52,0l0,-24l-52,0l0,24Z" class="g3_139" />
<path fill-rule="evenodd" d="M468,625l342,0l0,-24l-342,0l0,24Z" class="g3_139" />
<path fill-rule="evenodd" d="M476,625l327,0l0,-24l-327,0l0,24Z" class="g3_139" />
<path fill-rule="evenodd" d="M812,625l60,0l0,-24l-60,0l0,24Z" class="g3_139" />
<path fill-rule="evenodd" d="M819,625l45,0l0,-24l-45,0l0,24Z" class="g3_139" />
<path d="M46.5,601.5l0,-1" class="g2_139" />
<path d="M80.5,601.5l0,-1" class="g2_139" />
<path d="M113.5,601.5l0,-1" class="g2_139" />
<path d="M146.5,601.5l0,-1" class="g2_139" />
<path d="M179.5,601.5l0,-1" class="g2_139" />
<path d="M181.5,601.5l217,0" class="g2_139" />
<path d="M398.5,601.5l0,-1" class="g2_139" />
<path d="M399.5,601.5l68,0" class="g2_139" />
<path d="M467.5,601.5l0,-1" class="g2_139" />
<path d="M468.5,601.5l342,0" class="g2_139" />
<path d="M810.5,601.5l0,-1" class="g2_139" />
<path d="M812.5,601.5l60,0" class="g2_139" />
<path d="M872.5,601.5l0,-1" class="g2_139" />
<path d="M46.5,625.5l0,-24" class="g2_139" />
<path d="M80.5,625.5l0,-24" class="g2_139" />
<path d="M113.5,625.5l0,-24" class="g2_139" />
<path d="M146.5,625.5l0,-24" class="g2_139" />
<path d="M179.5,625.5l0,-24" class="g2_139" />
<path d="M398.5,625.5l0,-24" class="g2_139" />
<path d="M467.5,625.5l0,-24" class="g2_139" />
<path d="M810.5,625.5l0,-24" class="g2_139" />
<path d="M872.5,625.5l0,-24" class="g2_139" />
<path fill-rule="evenodd" d="M181,722l217,0l0,-95l-217,0l0,95Z" class="g3_139" />
<g clip-path="url(#c14_139)">
<path fill-rule="evenodd" d="M188,650l202,0l0,-23l-202,0l0,23Z" class="g3_139" />
</g>
<path fill-rule="evenodd" d="M399,722l68,0l0,-95l-68,0l0,95Z" class="g3_139" />
<g clip-path="url(#c15_139)">
<path fill-rule="evenodd" d="M407,650l52,0l0,-23l-52,0l0,23Z" class="g3_139" />
</g>
<path fill-rule="evenodd" d="M468,722l342,0l0,-95l-342,0l0,95Z" class="g3_139" />
<g clip-path="url(#c16_139)">
<path fill-rule="evenodd" d="M476,650l327,0l0,-23l-327,0l0,23Z" class="g3_139" />
</g>
<path fill-rule="evenodd" d="M476,674l327,0l0,-24l-327,0l0,24Z" class="g3_139" />
<path fill-rule="evenodd" d="M476,698l327,0l0,-24l-327,0l0,24Z" class="g3_139" />
<path fill-rule="evenodd" d="M476,722l327,0l0,-24l-327,0l0,24Z" class="g3_139" />
<path fill-rule="evenodd" d="M812,722l60,0l0,-95l-60,0l0,95Z" class="g3_139" />
<g clip-path="url(#c17_139)">
<path fill-rule="evenodd" d="M819,650l45,0l0,-23l-45,0l0,23Z" class="g3_139" />
</g>
<path d="M46.5,626.5l0,-1" class="g2_139" />
<path d="M80.5,626.5l0,-1" class="g2_139" />
<path d="M113.5,626.5l0,-1" class="g2_139" />
<path d="M146.5,626.5l0,-1" class="g2_139" />
<path d="M179.5,626.5l0,-1" class="g2_139" />
<path d="M181.5,626.5l217,0" class="g2_139" />
<path d="M398.5,626.5l0,-1" class="g2_139" />
<path d="M399.5,626.5l68,0" class="g2_139" />
<path d="M467.5,626.5l0,-1" class="g2_139" />
<path d="M468.5,626.5l342,0" class="g2_139" />
<path d="M810.5,626.5l0,-1" class="g2_139" />
<path d="M812.5,626.5l60,0" class="g2_139" />
<path d="M872.5,626.5l0,-1" class="g2_139" />
<path d="M46.5,722.5l0,-96" class="g2_139" />
<path d="M80.5,722.5l0,-96" class="g2_139" />
<path d="M113.5,722.5l0,-96" class="g2_139" />
<path d="M146.5,722.5l0,-96" class="g2_139" />
<path d="M179.5,722.5l0,-96" class="g2_139" />
<path d="M398.5,722.5l0,-96" class="g2_139" />
<path d="M467.5,722.5l0,-96" class="g2_139" />
<path d="M810.5,722.5l0,-96" class="g2_139" />
<path d="M872.5,722.5l0,-96" class="g2_139" />
<path fill-rule="evenodd" d="M181,747l217,0l0,-24l-217,0l0,24Z" class="g3_139" />
<g clip-path="url(#c18_139)">
<path fill-rule="evenodd" d="M188,747l202,0l0,-24l-202,0l0,24Z" class="g3_139" />
</g>
<path fill-rule="evenodd" d="M399,747l68,0l0,-24l-68,0l0,24Z" class="g3_139" />
<g clip-path="url(#c19_139)">
<path fill-rule="evenodd" d="M407,747l52,0l0,-24l-52,0l0,24Z" class="g3_139" />
</g>
<path fill-rule="evenodd" d="M468,747l342,0l0,-24l-342,0l0,24Z" class="g3_139" />
<g clip-path="url(#c20_139)">
<path fill-rule="evenodd" d="M476,747l327,0l0,-24l-327,0l0,24Z" class="g3_139" />
</g>
<path fill-rule="evenodd" d="M812,747l60,0l0,-24l-60,0l0,24Z" class="g3_139" />
<g clip-path="url(#c21_139)">
<path fill-rule="evenodd" d="M819,747l45,0l0,-24l-45,0l0,24Z" class="g3_139" />
</g>
<path d="M46.5,723.5l0,-1" class="g2_139" />
<path d="M80.5,723.5l0,-1" class="g2_139" />
<path d="M113.5,723.5l0,-1" class="g2_139" />
<path d="M146.5,723.5l0,-1" class="g2_139" />
<path d="M179.5,723.5l0,-1" class="g2_139" />
<path d="M181.5,723.5l217,0" class="g2_139" />
<path d="M398.5,723.5l0,-1" class="g2_139" />
<path d="M399.5,723.5l68,0" class="g2_139" />
<path d="M467.5,723.5l0,-1" class="g2_139" />
<path d="M468.5,723.5l342,0" class="g2_139" />
<path d="M810.5,723.5l0,-1" class="g2_139" />
<path d="M812.5,723.5l60,0" class="g2_139" />
<path d="M872.5,723.5l0,-1" class="g2_139" />
<path d="M46.5,747.5l0,-24" class="g2_139" />
<path d="M80.5,747.5l0,-24" class="g2_139" />
<path d="M113.5,747.5l0,-24" class="g2_139" />
<path d="M146.5,747.5l0,-24" class="g2_139" />
<path d="M179.5,747.5l0,-24" class="g2_139" />
<path d="M398.5,747.5l0,-24" class="g2_139" />
<path d="M467.5,747.5l0,-24" class="g2_139" />
<path d="M810.5,747.5l0,-24" class="g2_139" />
<path d="M872.5,747.5l0,-24" class="g2_139" />
<path fill-rule="evenodd" d="M181,892l217,0l0,-143l-217,0l0,143Z" class="g3_139" />
<g clip-path="url(#c22_139)">
<path fill-rule="evenodd" d="M188,773l202,0l0,-24l-202,0l0,24Z" class="g3_139" />
</g>
<path fill-rule="evenodd" d="M399,892l68,0l0,-143l-68,0l0,143Z" class="g3_139" />
<g clip-path="url(#c23_139)">
<path fill-rule="evenodd" d="M407,773l52,0l0,-24l-52,0l0,24Z" class="g3_139" />
</g>
<path fill-rule="evenodd" d="M468,892l342,0l0,-143l-342,0l0,143Z" class="g3_139" />
<g clip-path="url(#c24_139)">
<path fill-rule="evenodd" d="M476,773l327,0l0,-24l-327,0l0,24Z" class="g3_139" />
</g>
<path fill-rule="evenodd" d="M476,796l327,0l0,-23l-327,0l0,23Z" class="g3_139" />
<path fill-rule="evenodd" d="M476,820l327,0l0,-24l-327,0l0,24Z" class="g3_139" />
<path fill-rule="evenodd" d="M476,844l327,0l0,-24l-327,0l0,24Z" class="g3_139" />
<path fill-rule="evenodd" d="M476,868l327,0l0,-24l-327,0l0,24Z" class="g3_139" />
<path fill-rule="evenodd" d="M476,892l327,0l0,-24l-327,0l0,24Z" class="g3_139" />
<path fill-rule="evenodd" d="M812,892l60,0l0,-143l-60,0l0,143Z" class="g3_139" />
<g clip-path="url(#c25_139)">
<path fill-rule="evenodd" d="M819,773l45,0l0,-24l-45,0l0,24Z" class="g3_139" />
</g>
<path d="M46.5,749.5l0,-2" class="g2_139" />
<path d="M80.5,749.5l0,-2" class="g2_139" />
<path d="M113.5,749.5l0,-2" class="g2_139" />
<path d="M146.5,749.5l0,-2" class="g2_139" />
<path d="M179.5,749.5l0,-2" class="g2_139" />
<path d="M181.5,749.5l217,0" class="g2_139" />
<path d="M398.5,749.5l0,-2" class="g2_139" />
<path d="M399.5,749.5l68,0" class="g2_139" />
<path d="M467.5,749.5l0,-2" class="g2_139" />
<path d="M468.5,749.5l342,0" class="g2_139" />
<path d="M810.5,749.5l0,-2" class="g2_139" />
<path d="M812.5,749.5l60,0" class="g2_139" />
<path d="M872.5,749.5l0,-2" class="g2_139" />
<path d="M46.5,892.5l0,-143" class="g2_139" />
<path d="M80.5,892.5l0,-143" class="g2_139" />
<path d="M113.5,892.5l0,-143" class="g2_139" />
<path d="M146.5,892.5l0,-143" class="g2_139" />
<path d="M179.5,892.5l0,-143" class="g2_139" />
<path d="M398.5,892.5l0,-143" class="g2_139" />
<path d="M467.5,892.5l0,-143" class="g2_139" />
<path d="M810.5,892.5l0,-143" class="g2_139" />
<path d="M872.5,892.5l0,-143" class="g2_139" />
<path fill-rule="evenodd" d="M181,1084l217,0l0,-191l-217,0l0,191Z" class="g3_139" />
<g clip-path="url(#c26_139)">
<path fill-rule="evenodd" d="M188,917l202,0l0,-24l-202,0l0,24Z" class="g3_139" />
</g>
<path fill-rule="evenodd" d="M399,1084l68,0l0,-191l-68,0l0,191Z" class="g3_139" />
<g clip-path="url(#c27_139)">
<path fill-rule="evenodd" d="M407,917l52,0l0,-24l-52,0l0,24Z" class="g3_139" />
</g>
<path fill-rule="evenodd" d="M468,1084l342,0l0,-191l-342,0l0,191Z" class="g3_139" />
<g clip-path="url(#c28_139)">
<path fill-rule="evenodd" d="M476,917l327,0l0,-24l-327,0l0,24Z" class="g3_139" />
</g>
<path fill-rule="evenodd" d="M476,941l327,0l0,-24l-327,0l0,24Z" class="g3_139" />
<path fill-rule="evenodd" d="M476,965l327,0l0,-24l-327,0l0,24Z" class="g3_139" />
<path fill-rule="evenodd" d="M476,989l327,0l0,-24l-327,0l0,24Z" class="g3_139" />
<path fill-rule="evenodd" d="M476,1013l327,0l0,-24l-327,0l0,24Z" class="g3_139" />
<path fill-rule="evenodd" d="M476,1036l327,0l0,-23l-327,0l0,23Z" class="g3_139" />
<path fill-rule="evenodd" d="M476,1060l327,0l0,-24l-327,0l0,24Z" class="g3_139" />
<g clip-path="url(#c28_139)">
<path fill-rule="evenodd" d="M476,1084l327,0l0,-24l-327,0l0,24Z" class="g3_139" />
</g>
<path fill-rule="evenodd" d="M812,1084l60,0l0,-191l-60,0l0,191Z" class="g3_139" />
<g clip-path="url(#c29_139)">
<path fill-rule="evenodd" d="M819,917l45,0l0,-24l-45,0l0,24Z" class="g3_139" />
</g>
<path d="M46.5,893.5l0,-1" class="g2_139" />
<path d="M80.5,893.5l0,-1" class="g2_139" />
<path d="M113.5,893.5l0,-1" class="g2_139" />
<path d="M146.5,893.5l0,-1" class="g2_139" />
<path d="M179.5,893.5l0,-1" class="g2_139" />
<path d="M181.5,893.5l217,0" class="g2_139" />
<path d="M398.5,893.5l0,-1" class="g2_139" />
<path d="M399.5,893.5l68,0" class="g2_139" />
<path d="M467.5,893.5l0,-1" class="g2_139" />
<path d="M468.5,893.5l342,0" class="g2_139" />
<path d="M810.5,893.5l0,-1" class="g2_139" />
<path d="M812.5,893.5l60,0" class="g2_139" />
<path d="M872.5,893.5l0,-1" class="g2_139" />
<path d="M46.5,1084.5l0,-191" class="g2_139" />
<path d="M46.5,1086.5l0,-2" class="g2_139" />
<path d="M46.5,1086.5l0,-2" class="g2_139" />
<path d="M47.5,1086.5l33,0" class="g2_139" />
<path d="M80.5,1084.5l0,-191" class="g2_139" />
<path d="M80.5,1086.5l0,-2" class="g2_139" />
<path d="M81.5,1086.5l32,0" class="g2_139" />
<path d="M113.5,1084.5l0,-191" class="g2_139" />
<path d="M113.5,1086.5l0,-2" class="g2_139" />
<path d="M114.5,1086.5l32,0" class="g2_139" />
<path d="M146.5,1084.5l0,-191" class="g2_139" />
<path d="M146.5,1086.5l0,-2" class="g2_139" />
<path d="M148.5,1086.5l31,0" class="g2_139" />
<path d="M179.5,1084.5l0,-191" class="g2_139" />
<path d="M179.5,1086.5l0,-2" class="g2_139" />
<path d="M181.5,1086.5l217,0" class="g2_139" />
<path d="M398.5,1084.5l0,-191" class="g2_139" />
<path d="M398.5,1086.5l0,-2" class="g2_139" />
<path d="M399.5,1086.5l68,0" class="g2_139" />
<path d="M467.5,1084.5l0,-191" class="g2_139" />
<path d="M467.5,1086.5l0,-2" class="g2_139" />
<path d="M468.5,1086.5l342,0" class="g2_139" />
<path d="M810.5,1084.5l0,-191" class="g2_139" />
<path d="M810.5,1086.5l0,-2" class="g2_139" />
<path d="M812.5,1086.5l60,0" class="g2_139" />
<path d="M872.5,1084.5l0,-191" class="g2_139" />
<path d="M872.5,1086.5l0,-2" class="g2_139" />
<path d="M872.5,1086.5l0,-2" class="g2_139" />
</svg>