<?xml version="1.0" encoding="UTF-8" standalone="no"?>
<!DOCTYPE svg PUBLIC "-//W3C//DTD SVG 1.1//EN"
"http://www.w3.org/Graphics/SVG/1.1/DTD/svg11.dtd">
<svg version="1.1" xmlns="http://www.w3.org/2000/svg" xmlns:xlink="http://www.w3.org/1999/xlink">
<defs>
<clipPath id="c0_58"><path d="M47.5,135.5l0,-24l266,0l0,24Z" /></clipPath>
<clipPath id="c1_58"><path d="M314.5,135.5l0,-24l78,0l0,24Z" /></clipPath>
<clipPath id="c2_58"><path d="M394.5,135.5l0,-24l73,0l0,24Z" /></clipPath>
<clipPath id="c3_58"><path d="M468.5,135.5l0,-24l419,0l0,24Z" /></clipPath>
<clipPath id="c4_58"><path d="M88.5,161.5l0,-24l225,0l0,24Z" /></clipPath>
<clipPath id="c5_58"><path d="M314.5,161.5l0,-24l78,0l0,24Z" /></clipPath>
<clipPath id="c6_58"><path d="M394.5,161.5l0,-24l73,0l0,24Z" /></clipPath>
<clipPath id="c7_58"><path d="M468.5,161.5l0,-24l419,0l0,24Z" /></clipPath>
<clipPath id="c8_58"><path d="M129.5,234.5l0,-71l184,0l0,71Z" /></clipPath>
<clipPath id="c9_58"><path d="M314.5,234.5l0,-71l78,0l0,71Z" /></clipPath>
<clipPath id="c10_58"><path d="M394.5,234.5l0,-71l73,0l0,71Z" /></clipPath>
<clipPath id="c11_58"><path d="M468.5,234.5l0,-71l419,0l0,71Z" /></clipPath>
<clipPath id="c12_58"><path d="M129.5,331.5l0,-95l184,0l0,95Z" /></clipPath>
<clipPath id="c13_58"><path d="M314.5,331.5l0,-95l78,0l0,95Z" /></clipPath>
<clipPath id="c14_58"><path d="M394.5,331.5l0,-95l73,0l0,95Z" /></clipPath>
<clipPath id="c15_58"><path d="M468.5,331.5l0,-95l419,0l0,95Z" /></clipPath>
<clipPath id="c16_58"><path d="M169.5,404.5l0,-71l144,0l0,71Z" /></clipPath>
<clipPath id="c17_58"><path d="M314.5,404.5l0,-71l78,0l0,71Z" /></clipPath>
<clipPath id="c18_58"><path d="M394.5,404.5l0,-71l73,0l0,71Z" /></clipPath>
<clipPath id="c19_58"><path d="M468.5,404.5l0,-71l419,0l0,71Z" /></clipPath>
<clipPath id="c20_58"><path d="M47.5,746.5l0,-24l840,0l0,24Z" /></clipPath>
<clipPath id="c21_58"><path d="M47.5,1083.5l0,-310l840,0l0,310Z" /></clipPath>
<style type="text/css"><![CDATA[
.g2_58{
fill: none;
stroke: #7E7E7E;
stroke-width: 1;
stroke-linecap: butt;
stroke-linejoin: miter;
}
.g3_58{
fill: #F1F1F1;
}
.g1_58{
fill: #DBE5F1;
}
]]></style>
</defs>
<path fill-rule="evenodd" d="M47,135l266,0l0,-24L47,111l0,24Z" class="g1_58" />
<g clip-path="url(#c0_58)">
<path fill-rule="evenodd" d="M55,135l250,0l0,-24L55,111l0,24Z" class="g1_58" />
</g>
<path fill-rule="evenodd" d="M314,135l78,0l0,-24l-78,0l0,24Z" class="g1_58" />
<g clip-path="url(#c1_58)">
<path fill-rule="evenodd" d="M322,135l63,0l0,-24l-63,0l0,24Z" class="g1_58" />
</g>
<path fill-rule="evenodd" d="M394,135l73,0l0,-24l-73,0l0,24Z" class="g1_58" />
<g clip-path="url(#c2_58)">
<path fill-rule="evenodd" d="M401,135l58,0l0,-24l-58,0l0,24Z" class="g1_58" />
</g>
<path fill-rule="evenodd" d="M468,135l419,0l0,-24l-419,0l0,24Z" class="g1_58" />
<g clip-path="url(#c3_58)">
<path fill-rule="evenodd" d="M476,135l404,0l0,-24l-404,0l0,24Z" class="g1_58" />
</g>
<path d="M46.5,111.5l0,-1" class="g2_58" />
<path d="M46.5,111.5l0,-1" class="g2_58" />
<path d="M47.5,111.5l266,0" class="g2_58" />
<path d="M313.5,111.5l0,-1" class="g2_58" />
<path d="M314.5,111.5l79,0" class="g2_58" />
<path d="M393.5,111.5l0,-1" class="g2_58" />
<path d="M394.5,111.5l73,0" class="g2_58" />
<path d="M467.5,111.5l0,-1" class="g2_58" />
<path d="M468.5,111.5l419,0" class="g2_58" />
<path d="M887.5,111.5l0,-1" class="g2_58" />
<path d="M887.5,111.5l0,-1" class="g2_58" />
<path d="M46.5,135.5l0,-24" class="g2_58" />
<path d="M313.5,135.5l0,-24" class="g2_58" />
<path d="M393.5,135.5l0,-24" class="g2_58" />
<path d="M467.5,135.5l0,-24" class="g2_58" />
<path d="M887.5,135.5l0,-24" class="g2_58" />
<path fill-rule="evenodd" d="M47,624l39,0L86,137l-39,0l0,487Z" class="g3_58" />
<path fill-rule="evenodd" d="M55,624l23,0L78,137l-23,0l0,487Z" class="g3_58" />
<path fill-rule="evenodd" d="M88,161l225,0l0,-24L88,137l0,24Z" class="g3_58" />
<g clip-path="url(#c4_58)">
<path fill-rule="evenodd" d="M95,161l210,0l0,-24L95,137l0,24Z" class="g3_58" />
</g>
<path fill-rule="evenodd" d="M314,161l78,0l0,-24l-78,0l0,24Z" class="g3_58" />
<g clip-path="url(#c5_58)">
<path fill-rule="evenodd" d="M322,161l63,0l0,-24l-63,0l0,24Z" class="g3_58" />
</g>
<path fill-rule="evenodd" d="M394,161l73,0l0,-24l-73,0l0,24Z" class="g3_58" />
<g clip-path="url(#c6_58)">
<path fill-rule="evenodd" d="M401,161l58,0l0,-24l-58,0l0,24Z" class="g3_58" />
</g>
<path fill-rule="evenodd" d="M468,161l419,0l0,-24l-419,0l0,24Z" class="g3_58" />
<g clip-path="url(#c7_58)">
<path fill-rule="evenodd" d="M476,161l404,0l0,-24l-404,0l0,24Z" class="g3_58" />
</g>
<path d="M46.5,137.5l0,-2" class="g2_58" />
<path d="M47.5,137.5l39,0" class="g2_58" />
<path d="M86.5,137.5l0,-2" class="g2_58" />
<path d="M88.5,137.5l225,0" class="g2_58" />
<path d="M313.5,137.5l0,-2" class="g2_58" />
<path d="M314.5,137.5l79,0" class="g2_58" />
<path d="M393.5,137.5l0,-2" class="g2_58" />
<path d="M394.5,137.5l73,0" class="g2_58" />
<path d="M467.5,137.5l0,-2" class="g2_58" />
<path d="M468.5,137.5l419,0" class="g2_58" />
<path d="M887.5,137.5l0,-2" class="g2_58" />
<path d="M46.5,161.5l0,-24" class="g2_58" />
<path d="M86.5,161.5l0,-24" class="g2_58" />
<path d="M313.5,161.5l0,-24" class="g2_58" />
<path d="M393.5,161.5l0,-24" class="g2_58" />
<path d="M467.5,161.5l0,-24" class="g2_58" />
<path d="M887.5,161.5l0,-24" class="g2_58" />
<path fill-rule="evenodd" d="M88,624l39,0l0,-461l-39,0l0,461Z" class="g3_58" />
<path fill-rule="evenodd" d="M95,624l24,0l0,-461l-24,0l0,461Z" class="g3_58" />
<path fill-rule="evenodd" d="M129,234l184,0l0,-71l-184,0l0,71Z" class="g3_58" />
<g clip-path="url(#c8_58)">
<path fill-rule="evenodd" d="M136,187l169,0l0,-24l-169,0l0,24Z" class="g3_58" />
</g>
<path fill-rule="evenodd" d="M314,234l78,0l0,-71l-78,0l0,71Z" class="g3_58" />
<g clip-path="url(#c9_58)">
<path fill-rule="evenodd" d="M322,187l63,0l0,-24l-63,0l0,24Z" class="g3_58" />
</g>
<path fill-rule="evenodd" d="M394,234l73,0l0,-71l-73,0l0,71Z" class="g3_58" />
<g clip-path="url(#c10_58)">
<path fill-rule="evenodd" d="M401,187l58,0l0,-24l-58,0l0,24Z" class="g3_58" />
</g>
<path fill-rule="evenodd" d="M468,234l419,0l0,-71l-419,0l0,71Z" class="g3_58" />
<g clip-path="url(#c11_58)">
<path fill-rule="evenodd" d="M476,187l404,0l0,-24l-404,0l0,24Z" class="g3_58" />
</g>
<path fill-rule="evenodd" d="M476,211l404,0l0,-24l-404,0l0,24Z" class="g3_58" />
<path fill-rule="evenodd" d="M476,234l404,0l0,-23l-404,0l0,23Z" class="g3_58" />
<path d="M46.5,163.5l0,-2" class="g2_58" />
<path d="M86.5,163.5l0,-2" class="g2_58" />
<path d="M88.5,163.5l39,0" class="g2_58" />
<path d="M127.5,163.5l0,-2" class="g2_58" />
<path d="M129.5,163.5l184,0" class="g2_58" />
<path d="M313.5,163.5l0,-2" class="g2_58" />
<path d="M314.5,163.5l79,0" class="g2_58" />
<path d="M393.5,163.5l0,-2" class="g2_58" />
<path d="M394.5,163.5l73,0" class="g2_58" />
<path d="M467.5,163.5l0,-2" class="g2_58" />
<path d="M468.5,163.5l419,0" class="g2_58" />
<path d="M887.5,163.5l0,-2" class="g2_58" />
<path d="M46.5,234.5l0,-71" class="g2_58" />
<path d="M86.5,234.5l0,-71" class="g2_58" />
<path d="M127.5,234.5l0,-71" class="g2_58" />
<path d="M313.5,234.5l0,-71" class="g2_58" />
<path d="M393.5,234.5l0,-71" class="g2_58" />
<path d="M467.5,234.5l0,-71" class="g2_58" />
<path d="M887.5,234.5l0,-71" class="g2_58" />
<path fill-rule="evenodd" d="M129,331l184,0l0,-95l-184,0l0,95Z" class="g3_58" />
<g clip-path="url(#c12_58)">
<path fill-rule="evenodd" d="M136,260l169,0l0,-24l-169,0l0,24Z" class="g3_58" />
</g>
<path fill-rule="evenodd" d="M314,331l78,0l0,-95l-78,0l0,95Z" class="g3_58" />
<g clip-path="url(#c13_58)">
<path fill-rule="evenodd" d="M322,260l63,0l0,-24l-63,0l0,24Z" class="g3_58" />
</g>
<path fill-rule="evenodd" d="M394,331l73,0l0,-95l-73,0l0,95Z" class="g3_58" />
<g clip-path="url(#c14_58)">
<path fill-rule="evenodd" d="M401,260l58,0l0,-24l-58,0l0,24Z" class="g3_58" />
</g>
<path fill-rule="evenodd" d="M468,331l419,0l0,-95l-419,0l0,95Z" class="g3_58" />
<g clip-path="url(#c15_58)">
<path fill-rule="evenodd" d="M476,260l404,0l0,-24l-404,0l0,24Z" class="g3_58" />
</g>
<path fill-rule="evenodd" d="M476,284l404,0l0,-24l-404,0l0,24Z" class="g3_58" />
<path fill-rule="evenodd" d="M476,307l404,0l0,-23l-404,0l0,23Z" class="g3_58" />
<path fill-rule="evenodd" d="M476,331l404,0l0,-24l-404,0l0,24Z" class="g3_58" />
<path d="M46.5,236.5l0,-2" class="g2_58" />
<path d="M86.5,236.5l0,-2" class="g2_58" />
<path d="M127.5,236.5l0,-2" class="g2_58" />
<path d="M129.5,236.5l184,0" class="g2_58" />
<path d="M313.5,236.5l0,-2" class="g2_58" />
<path d="M314.5,236.5l79,0" class="g2_58" />
<path d="M393.5,236.5l0,-2" class="g2_58" />
<path d="M394.5,236.5l73,0" class="g2_58" />
<path d="M467.5,236.5l0,-2" class="g2_58" />
<path d="M468.5,236.5l419,0" class="g2_58" />
<path d="M887.5,236.5l0,-2" class="g2_58" />
<path d="M46.5,331.5l0,-95" class="g2_58" />
<path d="M86.5,331.5l0,-95" class="g2_58" />
<path d="M127.5,331.5l0,-95" class="g2_58" />
<path d="M313.5,331.5l0,-95" class="g2_58" />
<path d="M393.5,331.5l0,-95" class="g2_58" />
<path d="M467.5,331.5l0,-95" class="g2_58" />
<path d="M887.5,331.5l0,-95" class="g2_58" />
<path fill-rule="evenodd" d="M129,624l39,0l0,-291l-39,0l0,291Z" class="g3_58" />
<path fill-rule="evenodd" d="M136,624l24,0l0,-291l-24,0l0,291Z" class="g3_58" />
<path fill-rule="evenodd" d="M169,404l144,0l0,-71l-144,0l0,71Z" class="g3_58" />
<g clip-path="url(#c16_58)">
<path fill-rule="evenodd" d="M177,356l128,0l0,-23l-128,0l0,23Z" class="g3_58" />
</g>
<path fill-rule="evenodd" d="M314,404l78,0l0,-71l-78,0l0,71Z" class="g3_58" />
<g clip-path="url(#c17_58)">
<path fill-rule="evenodd" d="M322,356l63,0l0,-23l-63,0l0,23Z" class="g3_58" />
</g>
<path fill-rule="evenodd" d="M394,404l73,0l0,-71l-73,0l0,71Z" class="g3_58" />
<g clip-path="url(#c18_58)">
<path fill-rule="evenodd" d="M401,356l58,0l0,-23l-58,0l0,23Z" class="g3_58" />
</g>
<path fill-rule="evenodd" d="M468,404l419,0l0,-71l-419,0l0,71Z" class="g3_58" />
<g clip-path="url(#c19_58)">
<path fill-rule="evenodd" d="M476,356l404,0l0,-23l-404,0l0,23Z" class="g3_58" />
</g>
<path fill-rule="evenodd" d="M476,380l404,0l0,-24l-404,0l0,24Z" class="g3_58" />
<path fill-rule="evenodd" d="M476,404l404,0l0,-24l-404,0l0,24Z" class="g3_58" />
<path d="M46.5,333.5l0,-2" class="g2_58" />
<path d="M86.5,333.5l0,-2" class="g2_58" />
<path d="M127.5,333.5l0,-2" class="g2_58" />
<path d="M129.5,333.5l39,0" class="g2_58" />
<path d="M168.5,333.5l0,-2" class="g2_58" />
<path d="M169.5,333.5l144,0" class="g2_58" />
<path d="M313.5,333.5l0,-2" class="g2_58" />
<path d="M314.5,333.5l79,0" class="g2_58" />
<path d="M393.5,333.5l0,-2" class="g2_58" />
<path d="M394.5,333.5l73,0" class="g2_58" />
<path d="M467.5,333.5l0,-2" class="g2_58" />
<path d="M468.5,333.5l419,0" class="g2_58" />
<path d="M887.5,333.5l0,-2" class="g2_58" />
<path d="M46.5,404.5l0,-71" class="g2_58" />
<path d="M86.5,404.5l0,-71" class="g2_58" />
<path d="M127.5,404.5l0,-71" class="g2_58" />
<path d="M168.5,404.5l0,-71" class="g2_58" />
<path d="M313.5,404.5l0,-71" class="g2_58" />
<path d="M393.5,404.5l0,-71" class="g2_58" />
<path d="M467.5,404.5l0,-71" class="g2_58" />
<path d="M887.5,404.5l0,-71" class="g2_58" />
<path fill-rule="evenodd" d="M169,477l144,0l0,-71l-144,0l0,71Z" class="g3_58" />
<path fill-rule="evenodd" d="M177,430l128,0l0,-24l-128,0l0,24Z" class="g3_58" />
<path fill-rule="evenodd" d="M314,477l78,0l0,-71l-78,0l0,71Z" class="g3_58" />
<path fill-rule="evenodd" d="M322,430l63,0l0,-24l-63,0l0,24Z" class="g3_58" />
<path fill-rule="evenodd" d="M394,477l73,0l0,-71l-73,0l0,71Z" class="g3_58" />
<path fill-rule="evenodd" d="M401,430l58,0l0,-24l-58,0l0,24Z" class="g3_58" />
<path fill-rule="evenodd" d="M468,477l419,0l0,-71l-419,0l0,71Z" class="g3_58" />
<path fill-rule="evenodd" d="M476,430l404,0l0,-24l-404,0l0,24Z" class="g3_58" />
<path fill-rule="evenodd" d="M476,454l404,0l0,-24l-404,0l0,24Z" class="g3_58" />
<path fill-rule="evenodd" d="M476,477l404,0l0,-23l-404,0l0,23Z" class="g3_58" />
<path d="M46.5,406.5l0,-2" class="g2_58" />
<path d="M86.5,406.5l0,-2" class="g2_58" />
<path d="M127.5,406.5l0,-2" class="g2_58" />
<path d="M168.5,406.5l0,-2" class="g2_58" />
<path d="M169.5,406.5l144,0" class="g2_58" />
<path d="M313.5,406.5l0,-2" class="g2_58" />
<path d="M314.5,406.5l79,0" class="g2_58" />
<path d="M393.5,406.5l0,-2" class="g2_58" />
<path d="M394.5,406.5l73,0" class="g2_58" />
<path d="M467.5,406.5l0,-2" class="g2_58" />
<path d="M468.5,406.5l419,0" class="g2_58" />
<path d="M887.5,406.5l0,-2" class="g2_58" />
<path d="M46.5,477.5l0,-71" class="g2_58" />
<path d="M86.5,477.5l0,-71" class="g2_58" />
<path d="M127.5,477.5l0,-71" class="g2_58" />
<path d="M168.5,477.5l0,-71" class="g2_58" />
<path d="M313.5,477.5l0,-71" class="g2_58" />
<path d="M393.5,477.5l0,-71" class="g2_58" />
<path d="M467.5,477.5l0,-71" class="g2_58" />
<path d="M887.5,477.5l0,-71" class="g2_58" />
<path fill-rule="evenodd" d="M169,624l144,0l0,-145l-144,0l0,145Z" class="g3_58" />
<path fill-rule="evenodd" d="M177,503l128,0l0,-24l-128,0l0,24Z" class="g3_58" />
<path fill-rule="evenodd" d="M314,624l78,0l0,-145l-78,0l0,145Z" class="g3_58" />
<path fill-rule="evenodd" d="M322,503l63,0l0,-24l-63,0l0,24Z" class="g3_58" />
<path fill-rule="evenodd" d="M394,624l73,0l0,-145l-73,0l0,145Z" class="g3_58" />
<path fill-rule="evenodd" d="M401,503l58,0l0,-24l-58,0l0,24Z" class="g3_58" />
<path fill-rule="evenodd" d="M468,624l419,0l0,-145l-419,0l0,145Z" class="g3_58" />
<path fill-rule="evenodd" d="M476,503l404,0l0,-24l-404,0l0,24Z" class="g3_58" />
<path fill-rule="evenodd" d="M476,526l404,0l0,-23l-404,0l0,23Z" class="g3_58" />
<path d="M46.5,479.5l0,-2" class="g2_58" />
<path d="M86.5,479.5l0,-2" class="g2_58" />
<path d="M127.5,479.5l0,-2" class="g2_58" />
<path d="M168.5,479.5l0,-2" class="g2_58" />
<path d="M169.5,479.5l144,0" class="g2_58" />
<path d="M313.5,479.5l0,-2" class="g2_58" />
<path d="M314.5,479.5l79,0" class="g2_58" />
<path d="M393.5,479.5l0,-2" class="g2_58" />
<path d="M394.5,479.5l73,0" class="g2_58" />
<path d="M467.5,479.5l0,-2" class="g2_58" />
<path d="M468.5,479.5l419,0" class="g2_58" />
<path d="M887.5,479.5l0,-2" class="g2_58" />
<path d="M46.5,624.5l0,-145" class="g2_58" />
<path d="M46.5,625.5l0,-1" class="g2_58" />
<path d="M46.5,625.5l0,-1" class="g2_58" />
<path d="M47.5,625.5l39,0" class="g2_58" />
<path d="M86.5,624.5l0,-145" class="g2_58" />
<path d="M86.5,625.5l0,-1" class="g2_58" />
<path d="M88.5,625.5l39,0" class="g2_58" />
<path d="M127.5,624.5l0,-145" class="g2_58" />
<path d="M127.5,625.5l0,-1" class="g2_58" />
<path d="M129.5,625.5l39,0" class="g2_58" />
<path d="M168.5,624.5l0,-145" class="g2_58" />
<path d="M168.5,625.5l0,-1" class="g2_58" />
<path d="M169.5,625.5l144,0" class="g2_58" />
<path d="M313.5,624.5l0,-145" class="g2_58" />
<path d="M313.5,625.5l0,-1" class="g2_58" />
<path d="M314.5,625.5l79,0" class="g2_58" />
<path d="M393.5,624.5l0,-145" class="g2_58" />
<path d="M393.5,625.5l0,-1" class="g2_58" />
<path d="M394.5,625.5l73,0" class="g2_58" />
<path d="M467.5,624.5l0,-145" class="g2_58" />
<path d="M467.5,625.5l0,-1" class="g2_58" />
<path d="M468.5,625.5l419,0" class="g2_58" />
<path d="M887.5,624.5l0,-145" class="g2_58" />
<path d="M887.5,625.5l0,-1" class="g2_58" />
<path d="M887.5,625.5l0,-1" class="g2_58" />
<path fill-rule="evenodd" d="M47,746l840,0l0,-24L47,722l0,24Z" class="g3_58" />
<g clip-path="url(#c20_58)">
<path fill-rule="evenodd" d="M55,746l825,0l0,-24L55,722l0,24Z" class="g3_58" />
</g>
<path d="M46.5,722.5l0,-1" class="g2_58" />
<path d="M46.5,722.5l0,-1" class="g2_58" />
<path d="M47.5,722.5l840,0" class="g2_58" />
<path d="M887.5,722.5l0,-1" class="g2_58" />
<path d="M887.5,722.5l0,-1" class="g2_58" />
<path d="M46.5,746.5l0,-24" class="g2_58" />
<path d="M46.5,748.5l0,-2" class="g2_58" />
<path d="M46.5,748.5l0,-2" class="g2_58" />
<path d="M47.5,748.5l840,0" class="g2_58" />
<path d="M887.5,746.5l0,-24" class="g2_58" />
<path d="M887.5,748.5l0,-2" class="g2_58" />
<path d="M887.5,748.5l0,-2" class="g2_58" />
<path fill-rule="evenodd" d="M47,1083l840,0l0,-310L47,773l0,310Z" class="g3_58" />
<g clip-path="url(#c21_58)">
<path fill-rule="evenodd" d="M55,797l825,0l0,-24L55,773l0,24Z" class="g3_58" />
</g>
<path fill-rule="evenodd" d="M55,821l825,0l0,-24L55,797l0,24Z" class="g3_58" />
<path fill-rule="evenodd" d="M55,844l825,0l0,-23L55,821l0,23Z" class="g3_58" />
<path fill-rule="evenodd" d="M55,868l825,0l0,-24L55,844l0,24Z" class="g3_58" />
<path fill-rule="evenodd" d="M55,892l825,0l0,-24L55,868l0,24Z" class="g3_58" />
<path fill-rule="evenodd" d="M55,916l825,0l0,-24L55,892l0,24Z" class="g3_58" />
<path fill-rule="evenodd" d="M55,940l825,0l0,-24L55,916l0,24Z" class="g3_58" />
<path fill-rule="evenodd" d="M55,964l825,0l0,-24L55,940l0,24Z" class="g3_58" />
<path fill-rule="evenodd" d="M55,987l825,0l0,-23L55,964l0,23Z" class="g3_58" />
<path fill-rule="evenodd" d="M55,1011l825,0l0,-24L55,987l0,24Z" class="g3_58" />
<path fill-rule="evenodd" d="M55,1035l825,0l0,-24l-825,0l0,24Z" class="g3_58" />
<path fill-rule="evenodd" d="M55,1059l825,0l0,-24l-825,0l0,24Z" class="g3_58" />
<g clip-path="url(#c21_58)">
<path fill-rule="evenodd" d="M55,1083l825,0l0,-24l-825,0l0,24Z" class="g3_58" />
</g>
<path d="M46.5,773.5l0,-2" class="g2_58" />
<path d="M46.5,773.5l0,-2" class="g2_58" />
<path d="M47.5,773.5l840,0" class="g2_58" />
<path d="M887.5,773.5l0,-2" class="g2_58" />
<path d="M887.5,773.5l0,-2" class="g2_58" />
<path d="M46.5,1083.5l0,-310" class="g2_58" />
<path d="M46.5,1084.5l0,-1" class="g2_58" />
<path d="M46.5,1084.5l0,-1" class="g2_58" />
<path d="M47.5,1084.5l840,0" class="g2_58" />
<path d="M887.5,1083.5l0,-310" class="g2_58" />
<path d="M887.5,1084.5l0,-1" class="g2_58" />
<path d="M887.5,1084.5l0,-1" class="g2_58" />
</svg>