<?xml version="1.0" encoding="UTF-8" standalone="no"?>
<!DOCTYPE svg PUBLIC "-//W3C//DTD SVG 1.1//EN"
"http://www.w3.org/Graphics/SVG/1.1/DTD/svg11.dtd">
<svg version="1.1" xmlns="http://www.w3.org/2000/svg" xmlns:xlink="http://www.w3.org/1999/xlink">
<defs>
<clipPath id="c0_178"><path d="M47.5,206.5l0,-95l840,0l0,95Z" /></clipPath>
<clipPath id="c1_178"><path d="M47.5,679.5l0,-23l178,0l0,23Z" /></clipPath>
<clipPath id="c2_178"><path d="M227.5,679.5l0,-23l162,0l0,23Z" /></clipPath>
<clipPath id="c3_178"><path d="M391.5,679.5l0,-23l496,0l0,23Z" /></clipPath>
<clipPath id="c4_178"><path d="M47.5,705.5l0,-24l178,0l0,24Z" /></clipPath>
<clipPath id="c5_178"><path d="M227.5,705.5l0,-24l162,0l0,24Z" /></clipPath>
<clipPath id="c6_178"><path d="M391.5,705.5l0,-24l496,0l0,24Z" /></clipPath>
<clipPath id="c7_178"><path d="M47.5,779.5l0,-23l177,0l0,23Z" /></clipPath>
<clipPath id="c8_178"><path d="M226.5,779.5l0,-23l162,0l0,23Z" /></clipPath>
<clipPath id="c9_178"><path d="M390.5,779.5l0,-23l163,0l0,23Z" /></clipPath>
<clipPath id="c10_178"><path d="M554.5,779.5l0,-23l163,0l0,23Z" /></clipPath>
<clipPath id="c11_178"><path d="M719.5,779.5l0,-23l168,0l0,23Z" /></clipPath>
<clipPath id="c12_178"><path d="M47.5,805.5l0,-24l177,0l0,24Z" /></clipPath>
<clipPath id="c13_178"><path d="M226.5,805.5l0,-24l162,0l0,24Z" /></clipPath>
<clipPath id="c14_178"><path d="M390.5,805.5l0,-24l163,0l0,24Z" /></clipPath>
<clipPath id="c15_178"><path d="M554.5,805.5l0,-24l163,0l0,24Z" /></clipPath>
<clipPath id="c16_178"><path d="M719.5,805.5l0,-24l168,0l0,24Z" /></clipPath>
<clipPath id="c17_178"><path d="M47.5,917.5l0,-25l260,0l0,25Z" /></clipPath>
<clipPath id="c18_178"><path d="M309.5,917.5l0,-25l78,0l0,25Z" /></clipPath>
<clipPath id="c19_178"><path d="M389.5,917.5l0,-25l60,0l0,25Z" /></clipPath>
<clipPath id="c20_178"><path d="M451.5,917.5l0,-25l442,0l0,25Z" /></clipPath>
<clipPath id="c21_178"><path d="M47.5,1076.5l0,-158l39,0l0,158Z" /></clipPath>
<clipPath id="c22_178"><path d="M451.5,966.5l0,-48l442,0l0,48Z" /></clipPath>
<clipPath id="c23_178"><path d="M88.5,1076.5l0,-108l40,0l0,108Z" /></clipPath>
<clipPath id="c24_178"><path d="M128.5,1076.5l0,-108l40,0l0,108Z" /></clipPath>
<style type="text/css"><![CDATA[
.g2_178{
fill: none;
stroke: #7E7E7E;
stroke-width: 1;
stroke-linecap: butt;
stroke-linejoin: miter;
}
.g4_178{
fill: none;
stroke: #808080;
stroke-width: 1;
stroke-linecap: butt;
stroke-linejoin: miter;
}
.g3_178{
fill: #DBE5F1;
}
.g1_178{
fill: #F1F1F1;
}
]]></style>
</defs>
<path fill-rule="evenodd" d="M47,206l840,0l0,-95L47,111l0,95Z" class="g1_178" />
<g clip-path="url(#c0_178)">
<path fill-rule="evenodd" d="M55,135l825,0l0,-24L55,111l0,24Z" class="g1_178" />
</g>
<path fill-rule="evenodd" d="M55,159l825,0l0,-24L55,135l0,24Z" class="g1_178" />
<path fill-rule="evenodd" d="M55,182l825,0l0,-23L55,159l0,23Z" class="g1_178" />
<path fill-rule="evenodd" d="M55,206l825,0l0,-24L55,182l0,24Z" class="g1_178" />
<path d="M46.5,111.5l0,-1" class="g2_178" />
<path d="M46.5,111.5l0,-1" class="g2_178" />
<path d="M47.5,111.5l840,0" class="g2_178" />
<path d="M887.5,111.5l0,-1" class="g2_178" />
<path d="M887.5,111.5l0,-1" class="g2_178" />
<path d="M46.5,207.5l0,-96" class="g2_178" />
<path d="M46.5,208.5l0,-1" class="g2_178" />
<path d="M46.5,208.5l0,-1" class="g2_178" />
<path d="M47.5,208.5l840,0" class="g2_178" />
<path d="M887.5,207.5l0,-96" class="g2_178" />
<path d="M887.5,208.5l0,-1" class="g2_178" />
<path d="M887.5,208.5l0,-1" class="g2_178" />
<path fill-rule="evenodd" d="M47,596l840,0l0,-24L47,572l0,24Z" class="g1_178" />
<path fill-rule="evenodd" d="M55,596l825,0l0,-24L55,572l0,24Z" class="g1_178" />
<path d="M46.5,572.5l0,-1" class="g2_178" />
<path d="M46.5,572.5l0,-1" class="g2_178" />
<path d="M47.5,572.5l840,0" class="g2_178" />
<path d="M887.5,572.5l0,-1" class="g2_178" />
<path d="M887.5,572.5l0,-1" class="g2_178" />
<path d="M46.5,596.5l0,-24" class="g2_178" />
<path d="M46.5,598.5l0,-2" class="g2_178" />
<path d="M46.5,598.5l0,-2" class="g2_178" />
<path d="M47.5,598.5l840,0" class="g2_178" />
<path d="M887.5,596.5l0,-24" class="g2_178" />
<path d="M887.5,598.5l0,-2" class="g2_178" />
<path d="M887.5,598.5l0,-2" class="g2_178" />
<path fill-rule="evenodd" d="M47,679l178,0l0,-23L47,656l0,23Z" class="g3_178" />
<g clip-path="url(#c1_178)">
<path fill-rule="evenodd" d="M55,679l163,0l0,-23L55,656l0,23Z" class="g3_178" />
</g>
<path fill-rule="evenodd" d="M226,679l163,0l0,-23l-163,0l0,23Z" class="g3_178" />
<g clip-path="url(#c2_178)">
<path fill-rule="evenodd" d="M234,679l148,0l0,-23l-148,0l0,23Z" class="g3_178" />
</g>
<path fill-rule="evenodd" d="M391,679l496,0l0,-23l-496,0l0,23Z" class="g3_178" />
<g clip-path="url(#c3_178)">
<path fill-rule="evenodd" d="M398,679l482,0l0,-23l-482,0l0,23Z" class="g3_178" />
</g>
<path d="M46.5,655.5l0,-1" class="g2_178" />
<path d="M46.5,655.5l0,-1" class="g2_178" />
<path d="M47.5,655.5l178,0" class="g2_178" />
<path d="M225.5,655.5l0,-1" class="g2_178" />
<path d="M226.5,655.5l163,0" class="g2_178" />
<path d="M389.5,655.5l0,-1" class="g2_178" />
<path d="M391.5,655.5l496,0" class="g2_178" />
<path d="M887.5,655.5l0,-1" class="g2_178" />
<path d="M887.5,655.5l0,-1" class="g2_178" />
<path d="M46.5,679.5l0,-24" class="g2_178" />
<path d="M225.5,679.5l0,-24" class="g2_178" />
<path d="M389.5,679.5l0,-24" class="g2_178" />
<path d="M887.5,679.5l0,-24" class="g2_178" />
<path fill-rule="evenodd" d="M47,705l178,0l0,-24L47,681l0,24Z" class="g1_178" />
<g clip-path="url(#c4_178)">
<path fill-rule="evenodd" d="M55,705l163,0l0,-24L55,681l0,24Z" class="g1_178" />
</g>
<path fill-rule="evenodd" d="M226,705l163,0l0,-24l-163,0l0,24Z" class="g1_178" />
<g clip-path="url(#c5_178)">
<path fill-rule="evenodd" d="M234,705l148,0l0,-24l-148,0l0,24Z" class="g1_178" />
</g>
<path fill-rule="evenodd" d="M391,705l496,0l0,-24l-496,0l0,24Z" class="g1_178" />
<g clip-path="url(#c6_178)">
<path fill-rule="evenodd" d="M398,705l482,0l0,-24l-482,0l0,24Z" class="g1_178" />
</g>
<path d="M46.5,681.5l0,-2" class="g2_178" />
<path d="M47.5,681.5l178,0" class="g2_178" />
<path d="M225.5,681.5l0,-2" class="g2_178" />
<path d="M226.5,681.5l163,0" class="g2_178" />
<path d="M389.5,681.5l0,-2" class="g2_178" />
<path d="M391.5,681.5l496,0" class="g2_178" />
<path d="M887.5,681.5l0,-2" class="g2_178" />
<path d="M46.5,705.5l0,-24" class="g2_178" />
<path d="M46.5,706.5l0,-1" class="g2_178" />
<path d="M46.5,706.5l0,-1" class="g2_178" />
<path d="M47.5,706.5l178,0" class="g2_178" />
<path d="M225.5,705.5l0,-24" class="g2_178" />
<path d="M225.5,706.5l0,-1" class="g2_178" />
<path d="M226.5,706.5l163,0" class="g2_178" />
<path d="M389.5,705.5l0,-24" class="g2_178" />
<path d="M389.5,706.5l0,-1" class="g2_178" />
<path d="M391.5,706.5l496,0" class="g2_178" />
<path d="M887.5,705.5l0,-24" class="g2_178" />
<path d="M887.5,706.5l0,-1" class="g2_178" />
<path d="M887.5,706.5l0,-1" class="g2_178" />
<path fill-rule="evenodd" d="M47,779l177,0l0,-24L47,755l0,24Z" class="g3_178" />
<g clip-path="url(#c7_178)">
<path fill-rule="evenodd" d="M55,779l162,0l0,-24L55,755l0,24Z" class="g3_178" />
</g>
<path fill-rule="evenodd" d="M226,779l162,0l0,-24l-162,0l0,24Z" class="g3_178" />
<g clip-path="url(#c8_178)">
<path fill-rule="evenodd" d="M233,779l148,0l0,-24l-148,0l0,24Z" class="g3_178" />
</g>
<path fill-rule="evenodd" d="M390,779l163,0l0,-24l-163,0l0,24Z" class="g3_178" />
<g clip-path="url(#c9_178)">
<path fill-rule="evenodd" d="M397,779l148,0l0,-24l-148,0l0,24Z" class="g3_178" />
</g>
<path fill-rule="evenodd" d="M554,779l163,0l0,-24l-163,0l0,24Z" class="g3_178" />
<g clip-path="url(#c10_178)">
<path fill-rule="evenodd" d="M562,779l148,0l0,-24l-148,0l0,24Z" class="g3_178" />
</g>
<path fill-rule="evenodd" d="M719,779l168,0l0,-24l-168,0l0,24Z" class="g3_178" />
<g clip-path="url(#c11_178)">
<path fill-rule="evenodd" d="M726,779l154,0l0,-24l-154,0l0,24Z" class="g3_178" />
</g>
<path d="M46.5,755.5l0,-1" class="g2_178" />
<path d="M46.5,755.5l0,-1" class="g2_178" />
<path d="M47.5,755.5l177,0" class="g2_178" />
<path d="M224.5,755.5l0,-1" class="g2_178" />
<path d="M226.5,755.5l162,0" class="g2_178" />
<path d="M388.5,755.5l0,-1" class="g2_178" />
<path d="M390.5,755.5l163,0" class="g2_178" />
<path d="M553.5,755.5l0,-1" class="g2_178" />
<path d="M554.5,755.5l163,0" class="g2_178" />
<path d="M717.5,755.5l0,-1" class="g2_178" />
<path d="M719.5,755.5l168,0" class="g2_178" />
<path d="M887.5,755.5l0,-1" class="g2_178" />
<path d="M887.5,755.5l0,-1" class="g2_178" />
<path d="M46.5,779.5l0,-24" class="g2_178" />
<path d="M224.5,779.5l0,-24" class="g2_178" />
<path d="M388.5,779.5l0,-24" class="g2_178" />
<path d="M553.5,779.5l0,-24" class="g2_178" />
<path d="M717.5,779.5l0,-24" class="g2_178" />
<path d="M887.5,779.5l0,-24" class="g2_178" />
<path fill-rule="evenodd" d="M47,805l177,0l0,-24L47,781l0,24Z" class="g1_178" />
<g clip-path="url(#c12_178)">
<path fill-rule="evenodd" d="M55,805l162,0l0,-24L55,781l0,24Z" class="g1_178" />
</g>
<path fill-rule="evenodd" d="M226,805l162,0l0,-24l-162,0l0,24Z" class="g1_178" />
<g clip-path="url(#c13_178)">
<path fill-rule="evenodd" d="M233,805l148,0l0,-24l-148,0l0,24Z" class="g1_178" />
</g>
<path fill-rule="evenodd" d="M390,805l163,0l0,-24l-163,0l0,24Z" class="g1_178" />
<g clip-path="url(#c14_178)">
<path fill-rule="evenodd" d="M397,805l148,0l0,-24l-148,0l0,24Z" class="g1_178" />
</g>
<path fill-rule="evenodd" d="M554,805l163,0l0,-24l-163,0l0,24Z" class="g1_178" />
<g clip-path="url(#c15_178)">
<path fill-rule="evenodd" d="M562,805l148,0l0,-24l-148,0l0,24Z" class="g1_178" />
</g>
<path fill-rule="evenodd" d="M719,805l168,0l0,-24l-168,0l0,24Z" class="g1_178" />
<g clip-path="url(#c16_178)">
<path fill-rule="evenodd" d="M726,805l154,0l0,-24l-154,0l0,24Z" class="g1_178" />
</g>
<path d="M46.5,781.5l0,-2" class="g2_178" />
<path d="M47.5,781.5l177,0" class="g2_178" />
<path d="M224.5,781.5l0,-2" class="g2_178" />
<path d="M226.5,781.5l162,0" class="g2_178" />
<path d="M388.5,781.5l0,-2" class="g2_178" />
<path d="M390.5,781.5l163,0" class="g2_178" />
<path d="M553.5,781.5l0,-2" class="g2_178" />
<path d="M554.5,781.5l163,0" class="g2_178" />
<path d="M717.5,781.5l0,-2" class="g2_178" />
<path d="M719.5,781.5l168,0" class="g2_178" />
<path d="M887.5,781.5l0,-2" class="g2_178" />
<path d="M46.5,805.5l0,-24" class="g2_178" />
<path d="M46.5,806.5l0,-1" class="g2_178" />
<path d="M46.5,806.5l0,-1" class="g2_178" />
<path d="M47.5,806.5l177,0" class="g2_178" />
<path d="M224.5,805.5l0,-24" class="g2_178" />
<path d="M224.5,806.5l0,-1" class="g2_178" />
<path d="M226.5,806.5l162,0" class="g2_178" />
<path d="M388.5,805.5l0,-24" class="g2_178" />
<path d="M388.5,806.5l0,-1" class="g2_178" />
<path d="M390.5,806.5l163,0" class="g2_178" />
<path d="M553.5,805.5l0,-24" class="g2_178" />
<path d="M553.5,806.5l0,-1" class="g2_178" />
<path d="M554.5,806.5l163,0" class="g2_178" />
<path d="M717.5,805.5l0,-24" class="g2_178" />
<path d="M717.5,806.5l0,-1" class="g2_178" />
<path d="M719.5,806.5l168,0" class="g2_178" />
<path d="M887.5,805.5l0,-24" class="g2_178" />
<path d="M887.5,806.5l0,-1" class="g2_178" />
<path d="M887.5,806.5l0,-1" class="g2_178" />
<path fill-rule="evenodd" d="M47,917l260,0l0,-25L47,892l0,25Z" class="g3_178" />
<g clip-path="url(#c17_178)">
<path fill-rule="evenodd" d="M55,916l245,0l0,-24L55,892l0,24Z" class="g3_178" />
</g>
<path fill-rule="evenodd" d="M309,917l78,0l0,-25l-78,0l0,25Z" class="g3_178" />
<g clip-path="url(#c18_178)">
<path fill-rule="evenodd" d="M316,916l64,0l0,-24l-64,0l0,24Z" class="g3_178" />
</g>
<path fill-rule="evenodd" d="M389,917l60,0l0,-25l-60,0l0,25Z" class="g3_178" />
<g clip-path="url(#c19_178)">
<path fill-rule="evenodd" d="M396,916l45,0l0,-24l-45,0l0,24Z" class="g3_178" />
</g>
<path fill-rule="evenodd" d="M451,917l442,0l0,-25l-442,0l0,25Z" class="g3_178" />
<g clip-path="url(#c20_178)">
<path fill-rule="evenodd" d="M458,916l428,0l0,-24l-428,0l0,24Z" class="g3_178" />
</g>
<path d="M46.5,892.5l0,-1" class="g2_178" />
<path d="M46.5,892.5l0,-1" class="g2_178" />
<path d="M47.5,892.5l260,0" class="g2_178" />
<path d="M307.5,892.5l0,-1" class="g2_178" />
<path d="M309.5,892.5l79,0" class="g2_178" />
<path d="M388.5,892.5l0,-1" class="g2_178" />
<path d="M389.5,892.5l60,0" class="g2_178" />
<path d="M449.5,892.5l0,-1" class="g2_178" />
<path d="M450.5,892.5l443,0" class="g2_178" />
<path d="M893.5,892.5l0,-1" class="g2_178" />
<path d="M893.5,892.5l0,-1" class="g2_178" />
<path d="M46.5,917.5l0,-25" class="g2_178" />
<path d="M307.5,917.5l0,-25" class="g2_178" />
<path d="M388.5,917.5l0,-25" class="g2_178" />
<path d="M449.5,917.5l0,-25" class="g2_178" />
<path d="M893.5,917.5l0,-25" class="g2_178" />
<path fill-rule="evenodd" d="M47,1076l39,0L86,918l-39,0l0,158Z" class="g1_178" />
<g clip-path="url(#c21_178)">
<path fill-rule="evenodd" d="M55,1076l23,0L78,918l-23,0l0,158Z" class="g1_178" />
</g>
<path fill-rule="evenodd" d="M88,966l219,0l0,-48L88,918l0,48Z" class="g1_178" />
<path fill-rule="evenodd" d="M95,942l205,0l0,-24L95,918l0,24Z" class="g1_178" />
<path fill-rule="evenodd" d="M309,966l78,0l0,-48l-78,0l0,48Z" class="g1_178" />
<path fill-rule="evenodd" d="M316,942l64,0l0,-24l-64,0l0,24Z" class="g1_178" />
<path fill-rule="evenodd" d="M389,966l60,0l0,-48l-60,0l0,48Z" class="g1_178" />
<path fill-rule="evenodd" d="M396,942l45,0l0,-24l-45,0l0,24Z" class="g1_178" />
<path fill-rule="evenodd" d="M451,966l442,0l0,-48l-442,0l0,48Z" class="g1_178" />
<path fill-rule="evenodd" d="M458,942l428,0l0,-24l-428,0l0,24Z" class="g1_178" />
<g clip-path="url(#c22_178)">
<path fill-rule="evenodd" d="M458,966l428,0l0,-24l-428,0l0,24Z" class="g1_178" />
</g>
<path d="M46.5,918.5l0,-1" class="g2_178" />
<path d="M47.5,918.5l39,0" class="g2_178" />
<path d="M86.5,918.5l0,-1" class="g2_178" />
<path d="M88.5,918.5l219,0" class="g2_178" />
<path d="M307.5,918.5l0,-1" class="g2_178" />
<path d="M309.5,918.5l79,0" class="g2_178" />
<path d="M388.5,918.5l0,-1" class="g2_178" />
<path d="M389.5,918.5l60,0" class="g2_178" />
<path d="M449.5,918.5l0,-1" class="g2_178" />
<path d="M450.5,918.5l443,0" class="g2_178" />
<path d="M893.5,918.5l0,-1" class="g2_178" />
<path d="M46.5,966.5l0,-48" class="g2_178" />
<path d="M86.5,966.5l0,-48" class="g2_178" />
<path d="M307.5,966.5l0,-48" class="g2_178" />
<path d="M388.5,966.5l0,-48" class="g2_178" />
<path d="M449.5,966.5l0,-48" class="g2_178" />
<path d="M893.5,966.5l0,-48" class="g2_178" />
<path fill-rule="evenodd" d="M88,1076l40,0l0,-108l-40,0l0,108Z" class="g1_178" />
<g clip-path="url(#c23_178)">
<path fill-rule="evenodd" d="M95,1076l24,0l0,-108l-24,0l0,108Z" class="g1_178" />
</g>
<path fill-rule="evenodd" d="M128,1076l40,0l0,-108l-40,0l0,108Z" class="g1_178" />
<g clip-path="url(#c24_178)">
<path fill-rule="evenodd" d="M136,1076l24,0l0,-108l-24,0l0,108Z" class="g1_178" />
</g>
<path fill-rule="evenodd" d="M169,1076l138,0l0,-108l-138,0l0,108Z" class="g1_178" />
<path fill-rule="evenodd" d="M177,991l123,0l0,-23l-123,0l0,23Z" class="g1_178" />
<path fill-rule="evenodd" d="M309,1076l78,0l0,-108l-78,0l0,108Z" class="g1_178" />
<path fill-rule="evenodd" d="M316,991l64,0l0,-23l-64,0l0,23Z" class="g1_178" />
<path fill-rule="evenodd" d="M389,1076l60,0l0,-108l-60,0l0,108Z" class="g1_178" />
<path fill-rule="evenodd" d="M396,991l45,0l0,-23l-45,0l0,23Z" class="g1_178" />
<path fill-rule="evenodd" d="M451,1076l443,0l0,-108l-443,0l0,108Z" class="g1_178" />
<path fill-rule="evenodd" d="M458,991l429,0l0,-23l-429,0l0,23Z" class="g1_178" />
<path d="M46.5,967.5l0,-1" class="g2_178" />
<path d="M86.5,967.5l0,-1" class="g2_178" />
<path d="M88.5,967.5l40,0" class="g2_178" />
<path d="M128.5,967.5l0,-1" class="g2_178" />
<path d="M129.5,967.5l39,0" class="g2_178" />
<path d="M168.5,967.5l0,-1" class="g2_178" />
<path d="M169.5,967.5l138,0" class="g2_178" />
<path d="M307.5,967.5l0,-1" class="g2_178" />
<path d="M309.5,967.5l79,0" class="g2_178" />
<path d="M388.5,967.5l0,-1" class="g2_178" />
<path d="M389.5,967.5l60,0" class="g2_178" />
<path d="M449.5,967.5l0,-1" class="g2_178" />
<path d="M450.5,967.5l443,0" class="g2_178" />
<path d="M893.5,967.5l0,-1" class="g2_178" />
<path d="M46.5,1076.5l0,-109" class="g2_178" />
<path d="M46.5,1078.5l0,-2" class="g2_178" />
<path d="M46.5,1078.5l0,-2" class="g2_178" />
<path d="M47.5,1078.5l39,0" class="g2_178" />
<path d="M86.5,1076.5l0,-109" class="g2_178" />
<path d="M86.5,1078.5l0,-2" class="g2_178" />
<path d="M88.5,1078.5l40,0" class="g2_178" />
<path d="M128.5,1076.5l0,-109" class="g4_178" />
<path d="M128.5,1078.5l0,-2" class="g2_178" />
<path d="M129.5,1078.5l39,0" class="g2_178" />
<path d="M168.5,1076.5l0,-109" class="g2_178" />
<path d="M168.5,1078.5l0,-2" class="g2_178" />
<path d="M169.5,1078.5l138,0" class="g2_178" />
<path d="M307.5,1076.5l0,-109" class="g2_178" />
<path d="M307.5,1078.5l0,-2" class="g2_178" />
<path d="M309.5,1078.5l79,0" class="g2_178" />
<path d="M388.5,1076.5l0,-109" class="g2_178" />
<path d="M388.5,1078.5l0,-2" class="g2_178" />
<path d="M389.5,1078.5l60,0" class="g2_178" />
<path d="M449.5,1076.5l0,-109" class="g2_178" />
<path d="M449.5,1078.5l0,-2" class="g2_178" />
<path d="M450.5,1078.5l444,0" class="g2_178" />
<path d="M894.5,1076.5l0,-109" class="g2_178" />
<path d="M894.5,1078.5l0,-2" class="g2_178" />
<path d="M894.5,1078.5l0,-2" class="g2_178" />
</svg>