<?xml version="1.0" encoding="UTF-8" standalone="no"?>
<!DOCTYPE svg PUBLIC "-//W3C//DTD SVG 1.1//EN"
"http://www.w3.org/Graphics/SVG/1.1/DTD/svg11.dtd">
<svg version="1.1" xmlns="http://www.w3.org/2000/svg" xmlns:xlink="http://www.w3.org/1999/xlink">
<defs>
<clipPath id="c0_304"><path d="M47.5,469.5l0,-358l840,0l0,358Z" /></clipPath>
<clipPath id="c1_304"><path d="M47.5,679.5l0,-24l102,0l0,24Z" /></clipPath>
<clipPath id="c2_304"><path d="M151.5,679.5l0,-24l736,0l0,24Z" /></clipPath>
<clipPath id="c3_304"><path d="M47.5,704.5l0,-24l102,0l0,24Z" /></clipPath>
<clipPath id="c4_304"><path d="M151.5,704.5l0,-24l736,0l0,24Z" /></clipPath>
<clipPath id="c5_304"><path d="M47.5,729.5l0,-23l102,0l0,23Z" /></clipPath>
<clipPath id="c6_304"><path d="M151.5,729.5l0,-23l736,0l0,23Z" /></clipPath>
<clipPath id="c7_304"><path d="M47.5,755.5l0,-24l102,0l0,24Z" /></clipPath>
<clipPath id="c8_304"><path d="M151.5,755.5l0,-24l736,0l0,24Z" /></clipPath>
<clipPath id="c9_304"><path d="M47.5,780.5l0,-24l102,0l0,24Z" /></clipPath>
<clipPath id="c10_304"><path d="M151.5,780.5l0,-24l736,0l0,24Z" /></clipPath>
<clipPath id="c11_304"><path d="M47.5,806.5l0,-24l102,0l0,24Z" /></clipPath>
<clipPath id="c12_304"><path d="M151.5,806.5l0,-24l736,0l0,24Z" /></clipPath>
<clipPath id="c13_304"><path d="M47.5,855.5l0,-48l102,0l0,48Z" /></clipPath>
<clipPath id="c14_304"><path d="M151.5,855.5l0,-48l736,0l0,48Z" /></clipPath>
<clipPath id="c15_304"><path d="M47.5,880.5l0,-24l102,0l0,24Z" /></clipPath>
<clipPath id="c16_304"><path d="M151.5,880.5l0,-24l736,0l0,24Z" /></clipPath>
<clipPath id="c17_304"><path d="M47.5,905.5l0,-23l102,0l0,23Z" /></clipPath>
<clipPath id="c18_304"><path d="M151.5,905.5l0,-23l736,0l0,23Z" /></clipPath>
<clipPath id="c19_304"><path d="M47.5,931.5l0,-24l102,0l0,24Z" /></clipPath>
<clipPath id="c20_304"><path d="M151.5,931.5l0,-24l736,0l0,24Z" /></clipPath>
<clipPath id="c21_304"><path d="M47.5,956.5l0,-24l102,0l0,24Z" /></clipPath>
<clipPath id="c22_304"><path d="M151.5,956.5l0,-24l736,0l0,24Z" /></clipPath>
<clipPath id="c23_304"><path d="M47.5,982.5l0,-24l102,0l0,24Z" /></clipPath>
<clipPath id="c24_304"><path d="M151.5,982.5l0,-24l736,0l0,24Z" /></clipPath>
<clipPath id="c25_304"><path d="M151.5,1031.5l0,-48l736,0l0,48Z" /></clipPath>
<clipPath id="c26_304"><path d="M47.5,1056.5l0,-24l102,0l0,24Z" /></clipPath>
<clipPath id="c27_304"><path d="M151.5,1056.5l0,-24l736,0l0,24Z" /></clipPath>
<clipPath id="c28_304"><path d="M47.5,1081.5l0,-23l102,0l0,23Z" /></clipPath>
<clipPath id="c29_304"><path d="M151.5,1081.5l0,-23l736,0l0,23Z" /></clipPath>
<style type="text/css"><![CDATA[
.g2_304{
fill: none;
stroke: #7E7E7E;
stroke-width: 1;
stroke-linecap: butt;
stroke-linejoin: miter;
}
.g3_304{
fill: none;
stroke: #0000FF;
stroke-width: 1;
stroke-linecap: butt;
stroke-linejoin: miter;
}
.g4_304{
fill: #DBE5F1;
}
.g1_304{
fill: #F1F1F1;
}
]]></style>
</defs>
<path fill-rule="evenodd" d="M47,469l840,0l0,-358L47,111l0,358Z" class="g1_304" />
<g clip-path="url(#c0_304)">
<path fill-rule="evenodd" d="M55,135l825,0l0,-24L55,111l0,24Z" class="g1_304" />
</g>
<path fill-rule="evenodd" d="M55,159l825,0l0,-24L55,135l0,24Z" class="g1_304" />
<path fill-rule="evenodd" d="M55,182l825,0l0,-23L55,159l0,23Z" class="g1_304" />
<path fill-rule="evenodd" d="M55,206l825,0l0,-24L55,182l0,24Z" class="g1_304" />
<path fill-rule="evenodd" d="M55,230l825,0l0,-24L55,206l0,24Z" class="g1_304" />
<path fill-rule="evenodd" d="M55,254l825,0l0,-24L55,230l0,24Z" class="g1_304" />
<path fill-rule="evenodd" d="M55,278l825,0l0,-24L55,254l0,24Z" class="g1_304" />
<path fill-rule="evenodd" d="M55,302l825,0l0,-24L55,278l0,24Z" class="g1_304" />
<path fill-rule="evenodd" d="M55,325l825,0l0,-23L55,302l0,23Z" class="g1_304" />
<path fill-rule="evenodd" d="M55,349l825,0l0,-24L55,325l0,24Z" class="g1_304" />
<path fill-rule="evenodd" d="M55,373l825,0l0,-24L55,349l0,24Z" class="g1_304" />
<path fill-rule="evenodd" d="M55,397l825,0l0,-24L55,373l0,24Z" class="g1_304" />
<path fill-rule="evenodd" d="M55,421l825,0l0,-24L55,397l0,24Z" class="g1_304" />
<path fill-rule="evenodd" d="M55,445l825,0l0,-24L55,421l0,24Z" class="g1_304" />
<path fill-rule="evenodd" d="M55,469l825,0l0,-24L55,445l0,24Z" class="g1_304" />
<path d="M46.5,111.5l0,-1" class="g2_304" />
<path d="M46.5,111.5l0,-1" class="g2_304" />
<path d="M47.5,111.5l840,0" class="g2_304" />
<path d="M887.5,111.5l0,-1" class="g2_304" />
<path d="M887.5,111.5l0,-1" class="g2_304" />
<path d="M46.5,469.5l0,-358" class="g2_304" />
<path d="M46.5,470.5l0,-1" class="g2_304" />
<path d="M46.5,470.5l0,-1" class="g2_304" />
<path d="M47.5,470.5l840,0" class="g2_304" />
<path d="M887.5,469.5l0,-358" class="g2_304" />
<path d="M887.5,470.5l0,-1" class="g2_304" />
<path d="M887.5,470.5l0,-1" class="g2_304" />
<path d="M371.5,574.5l163,0" class="g3_304" />
<path fill-rule="evenodd" d="M47,628l102,0l0,-24L47,604l0,24Z" class="g4_304" />
<path fill-rule="evenodd" d="M55,628l87,0l0,-24l-87,0l0,24Z" class="g4_304" />
<path fill-rule="evenodd" d="M151,628l736,0l0,-24l-736,0l0,24Z" class="g4_304" />
<path fill-rule="evenodd" d="M158,628l722,0l0,-24l-722,0l0,24Z" class="g4_304" />
<path d="M46.5,604.5l0,-1" class="g2_304" />
<path d="M46.5,604.5l0,-1" class="g2_304" />
<path d="M47.5,604.5l102,0" class="g2_304" />
<path d="M149.5,604.5l0,-1" class="g2_304" />
<path d="M151.5,604.5l736,0" class="g2_304" />
<path d="M887.5,604.5l0,-1" class="g2_304" />
<path d="M887.5,604.5l0,-1" class="g2_304" />
<path d="M46.5,628.5l0,-24" class="g2_304" />
<path d="M149.5,628.5l0,-24" class="g2_304" />
<path d="M887.5,628.5l0,-24" class="g2_304" />
<path fill-rule="evenodd" d="M47,653l102,0l0,-23L47,630l0,23Z" class="g1_304" />
<path fill-rule="evenodd" d="M55,653l87,0l0,-23l-87,0l0,23Z" class="g1_304" />
<path fill-rule="evenodd" d="M151,653l736,0l0,-23l-736,0l0,23Z" class="g1_304" />
<path fill-rule="evenodd" d="M158,653l722,0l0,-23l-722,0l0,23Z" class="g1_304" />
<path d="M46.5,629.5l0,-1" class="g2_304" />
<path d="M47.5,629.5l102,0" class="g2_304" />
<path d="M149.5,629.5l0,-1" class="g2_304" />
<path d="M151.5,629.5l736,0" class="g2_304" />
<path d="M887.5,629.5l0,-1" class="g2_304" />
<path d="M46.5,653.5l0,-24" class="g2_304" />
<path d="M149.5,653.5l0,-24" class="g2_304" />
<path d="M887.5,653.5l0,-24" class="g2_304" />
<path fill-rule="evenodd" d="M47,679l102,0l0,-24L47,655l0,24Z" class="g1_304" />
<g clip-path="url(#c1_304)">
<path fill-rule="evenodd" d="M55,679l87,0l0,-24l-87,0l0,24Z" class="g1_304" />
</g>
<path fill-rule="evenodd" d="M151,679l736,0l0,-24l-736,0l0,24Z" class="g1_304" />
<g clip-path="url(#c2_304)">
<path fill-rule="evenodd" d="M158,679l722,0l0,-24l-722,0l0,24Z" class="g1_304" />
</g>
<path d="M46.5,655.5l0,-2" class="g2_304" />
<path d="M47.5,655.5l102,0" class="g2_304" />
<path d="M149.5,655.5l0,-2" class="g2_304" />
<path d="M151.5,655.5l736,0" class="g2_304" />
<path d="M887.5,655.5l0,-2" class="g2_304" />
<path d="M46.5,679.5l0,-24" class="g2_304" />
<path d="M149.5,679.5l0,-24" class="g2_304" />
<path d="M887.5,679.5l0,-24" class="g2_304" />
<path fill-rule="evenodd" d="M47,704l102,0l0,-24L47,680l0,24Z" class="g1_304" />
<g clip-path="url(#c3_304)">
<path fill-rule="evenodd" d="M55,704l87,0l0,-24l-87,0l0,24Z" class="g1_304" />
</g>
<path fill-rule="evenodd" d="M151,704l736,0l0,-24l-736,0l0,24Z" class="g1_304" />
<g clip-path="url(#c4_304)">
<path fill-rule="evenodd" d="M158,704l722,0l0,-24l-722,0l0,24Z" class="g1_304" />
</g>
<path d="M46.5,680.5l0,-1" class="g2_304" />
<path d="M47.5,680.5l102,0" class="g2_304" />
<path d="M149.5,680.5l0,-1" class="g2_304" />
<path d="M151.5,680.5l736,0" class="g2_304" />
<path d="M887.5,680.5l0,-1" class="g2_304" />
<path d="M46.5,704.5l0,-24" class="g2_304" />
<path d="M149.5,704.5l0,-24" class="g2_304" />
<path d="M887.5,704.5l0,-24" class="g2_304" />
<path fill-rule="evenodd" d="M47,729l102,0l0,-23L47,706l0,23Z" class="g1_304" />
<g clip-path="url(#c5_304)">
<path fill-rule="evenodd" d="M55,729l87,0l0,-23l-87,0l0,23Z" class="g1_304" />
</g>
<path fill-rule="evenodd" d="M151,729l736,0l0,-23l-736,0l0,23Z" class="g1_304" />
<g clip-path="url(#c6_304)">
<path fill-rule="evenodd" d="M158,729l722,0l0,-23l-722,0l0,23Z" class="g1_304" />
</g>
<path d="M46.5,705.5l0,-1" class="g2_304" />
<path d="M47.5,705.5l102,0" class="g2_304" />
<path d="M149.5,705.5l0,-1" class="g2_304" />
<path d="M151.5,705.5l736,0" class="g2_304" />
<path d="M887.5,705.5l0,-1" class="g2_304" />
<path d="M46.5,729.5l0,-24" class="g2_304" />
<path d="M149.5,729.5l0,-24" class="g2_304" />
<path d="M887.5,729.5l0,-24" class="g2_304" />
<path fill-rule="evenodd" d="M47,755l102,0l0,-24L47,731l0,24Z" class="g1_304" />
<g clip-path="url(#c7_304)">
<path fill-rule="evenodd" d="M55,755l87,0l0,-24l-87,0l0,24Z" class="g1_304" />
</g>
<path fill-rule="evenodd" d="M151,755l736,0l0,-24l-736,0l0,24Z" class="g1_304" />
<g clip-path="url(#c8_304)">
<path fill-rule="evenodd" d="M158,755l722,0l0,-24l-722,0l0,24Z" class="g1_304" />
</g>
<path d="M46.5,731.5l0,-2" class="g2_304" />
<path d="M47.5,731.5l102,0" class="g2_304" />
<path d="M149.5,731.5l0,-2" class="g2_304" />
<path d="M151.5,731.5l736,0" class="g2_304" />
<path d="M887.5,731.5l0,-2" class="g2_304" />
<path d="M46.5,755.5l0,-24" class="g2_304" />
<path d="M149.5,755.5l0,-24" class="g2_304" />
<path d="M887.5,755.5l0,-24" class="g2_304" />
<path fill-rule="evenodd" d="M47,780l102,0l0,-24L47,756l0,24Z" class="g1_304" />
<g clip-path="url(#c9_304)">
<path fill-rule="evenodd" d="M55,780l87,0l0,-24l-87,0l0,24Z" class="g1_304" />
</g>
<path fill-rule="evenodd" d="M151,780l736,0l0,-24l-736,0l0,24Z" class="g1_304" />
<g clip-path="url(#c10_304)">
<path fill-rule="evenodd" d="M158,780l722,0l0,-24l-722,0l0,24Z" class="g1_304" />
</g>
<path d="M46.5,756.5l0,-1" class="g2_304" />
<path d="M47.5,756.5l102,0" class="g2_304" />
<path d="M149.5,756.5l0,-1" class="g2_304" />
<path d="M151.5,756.5l736,0" class="g2_304" />
<path d="M887.5,756.5l0,-1" class="g2_304" />
<path d="M46.5,780.5l0,-24" class="g2_304" />
<path d="M149.5,780.5l0,-24" class="g2_304" />
<path d="M887.5,780.5l0,-24" class="g2_304" />
<path fill-rule="evenodd" d="M47,806l102,0l0,-24L47,782l0,24Z" class="g1_304" />
<g clip-path="url(#c11_304)">
<path fill-rule="evenodd" d="M55,806l87,0l0,-24l-87,0l0,24Z" class="g1_304" />
</g>
<path fill-rule="evenodd" d="M151,806l736,0l0,-24l-736,0l0,24Z" class="g1_304" />
<g clip-path="url(#c12_304)">
<path fill-rule="evenodd" d="M158,806l722,0l0,-24l-722,0l0,24Z" class="g1_304" />
</g>
<path d="M46.5,782.5l0,-2" class="g2_304" />
<path d="M47.5,782.5l102,0" class="g2_304" />
<path d="M149.5,782.5l0,-2" class="g2_304" />
<path d="M151.5,782.5l736,0" class="g2_304" />
<path d="M887.5,782.5l0,-2" class="g2_304" />
<path d="M46.5,806.5l0,-24" class="g2_304" />
<path d="M149.5,806.5l0,-24" class="g2_304" />
<path d="M887.5,806.5l0,-24" class="g2_304" />
<path fill-rule="evenodd" d="M47,855l102,0l0,-48L47,807l0,48Z" class="g1_304" />
<g clip-path="url(#c13_304)">
<path fill-rule="evenodd" d="M55,831l87,0l0,-24l-87,0l0,24Z" class="g1_304" />
</g>
<path fill-rule="evenodd" d="M151,855l736,0l0,-48l-736,0l0,48Z" class="g1_304" />
<g clip-path="url(#c14_304)">
<path fill-rule="evenodd" d="M158,831l722,0l0,-24l-722,0l0,24Z" class="g1_304" />
</g>
<path fill-rule="evenodd" d="M158,855l722,0l0,-24l-722,0l0,24Z" class="g1_304" />
<path d="M46.5,807.5l0,-1" class="g2_304" />
<path d="M47.5,807.5l102,0" class="g2_304" />
<path d="M149.5,807.5l0,-1" class="g2_304" />
<path d="M151.5,807.5l736,0" class="g2_304" />
<path d="M887.5,807.5l0,-1" class="g2_304" />
<path d="M46.5,855.5l0,-48" class="g2_304" />
<path d="M149.5,855.5l0,-48" class="g2_304" />
<path d="M887.5,855.5l0,-48" class="g2_304" />
<path fill-rule="evenodd" d="M47,880l102,0l0,-24L47,856l0,24Z" class="g1_304" />
<g clip-path="url(#c15_304)">
<path fill-rule="evenodd" d="M55,880l87,0l0,-24l-87,0l0,24Z" class="g1_304" />
</g>
<path fill-rule="evenodd" d="M151,880l736,0l0,-24l-736,0l0,24Z" class="g1_304" />
<g clip-path="url(#c16_304)">
<path fill-rule="evenodd" d="M158,880l722,0l0,-24l-722,0l0,24Z" class="g1_304" />
</g>
<path d="M46.5,856.5l0,-1" class="g2_304" />
<path d="M47.5,856.5l102,0" class="g2_304" />
<path d="M149.5,856.5l0,-1" class="g2_304" />
<path d="M151.5,856.5l736,0" class="g2_304" />
<path d="M887.5,856.5l0,-1" class="g2_304" />
<path d="M46.5,880.5l0,-24" class="g2_304" />
<path d="M149.5,880.5l0,-24" class="g2_304" />
<path d="M887.5,880.5l0,-24" class="g2_304" />
<path fill-rule="evenodd" d="M47,905l102,0l0,-23L47,882l0,23Z" class="g1_304" />
<g clip-path="url(#c17_304)">
<path fill-rule="evenodd" d="M55,905l87,0l0,-23l-87,0l0,23Z" class="g1_304" />
</g>
<path fill-rule="evenodd" d="M151,905l736,0l0,-23l-736,0l0,23Z" class="g1_304" />
<g clip-path="url(#c18_304)">
<path fill-rule="evenodd" d="M158,905l722,0l0,-23l-722,0l0,23Z" class="g1_304" />
</g>
<path d="M46.5,881.5l0,-1" class="g2_304" />
<path d="M47.5,881.5l102,0" class="g2_304" />
<path d="M149.5,881.5l0,-1" class="g2_304" />
<path d="M151.5,881.5l736,0" class="g2_304" />
<path d="M887.5,881.5l0,-1" class="g2_304" />
<path d="M46.5,905.5l0,-24" class="g2_304" />
<path d="M149.5,905.5l0,-24" class="g2_304" />
<path d="M887.5,905.5l0,-24" class="g2_304" />
<path fill-rule="evenodd" d="M47,931l102,0l0,-24L47,907l0,24Z" class="g1_304" />
<g clip-path="url(#c19_304)">
<path fill-rule="evenodd" d="M55,931l87,0l0,-24l-87,0l0,24Z" class="g1_304" />
</g>
<path fill-rule="evenodd" d="M151,931l736,0l0,-24l-736,0l0,24Z" class="g1_304" />
<g clip-path="url(#c20_304)">
<path fill-rule="evenodd" d="M158,931l722,0l0,-24l-722,0l0,24Z" class="g1_304" />
</g>
<path d="M46.5,907.5l0,-2" class="g2_304" />
<path d="M47.5,907.5l102,0" class="g2_304" />
<path d="M149.5,907.5l0,-2" class="g2_304" />
<path d="M151.5,907.5l736,0" class="g2_304" />
<path d="M887.5,907.5l0,-2" class="g2_304" />
<path d="M46.5,931.5l0,-24" class="g2_304" />
<path d="M149.5,931.5l0,-24" class="g2_304" />
<path d="M887.5,931.5l0,-24" class="g2_304" />
<path fill-rule="evenodd" d="M47,956l102,0l0,-24L47,932l0,24Z" class="g1_304" />
<g clip-path="url(#c21_304)">
<path fill-rule="evenodd" d="M55,956l87,0l0,-24l-87,0l0,24Z" class="g1_304" />
</g>
<path fill-rule="evenodd" d="M151,956l736,0l0,-24l-736,0l0,24Z" class="g1_304" />
<g clip-path="url(#c22_304)">
<path fill-rule="evenodd" d="M158,956l722,0l0,-24l-722,0l0,24Z" class="g1_304" />
</g>
<path d="M46.5,932.5l0,-1" class="g2_304" />
<path d="M47.5,932.5l102,0" class="g2_304" />
<path d="M149.5,932.5l0,-1" class="g2_304" />
<path d="M151.5,932.5l736,0" class="g2_304" />
<path d="M887.5,932.5l0,-1" class="g2_304" />
<path d="M46.5,956.5l0,-24" class="g2_304" />
<path d="M149.5,956.5l0,-24" class="g2_304" />
<path d="M887.5,956.5l0,-24" class="g2_304" />
<path fill-rule="evenodd" d="M47,982l102,0l0,-24L47,958l0,24Z" class="g1_304" />
<g clip-path="url(#c23_304)">
<path fill-rule="evenodd" d="M55,982l87,0l0,-24l-87,0l0,24Z" class="g1_304" />
</g>
<path fill-rule="evenodd" d="M151,982l736,0l0,-24l-736,0l0,24Z" class="g1_304" />
<g clip-path="url(#c24_304)">
<path fill-rule="evenodd" d="M158,982l722,0l0,-24l-722,0l0,24Z" class="g1_304" />
</g>
<path d="M46.5,958.5l0,-2" class="g2_304" />
<path d="M47.5,958.5l102,0" class="g2_304" />
<path d="M149.5,958.5l0,-2" class="g2_304" />
<path d="M151.5,958.5l736,0" class="g2_304" />
<path d="M887.5,958.5l0,-2" class="g2_304" />
<path d="M46.5,982.5l0,-24" class="g2_304" />
<path d="M149.5,982.5l0,-24" class="g2_304" />
<path d="M887.5,982.5l0,-24" class="g2_304" />
<path fill-rule="evenodd" d="M47,1031l102,0l0,-48L47,983l0,48Z" class="g1_304" />
<path fill-rule="evenodd" d="M55,1007l87,0l0,-24l-87,0l0,24Z" class="g1_304" />
<path fill-rule="evenodd" d="M151,1031l736,0l0,-48l-736,0l0,48Z" class="g1_304" />
<path fill-rule="evenodd" d="M158,1007l722,0l0,-24l-722,0l0,24Z" class="g1_304" />
<g clip-path="url(#c25_304)">
<path fill-rule="evenodd" d="M158,1031l722,0l0,-24l-722,0l0,24Z" class="g1_304" />
</g>
<path d="M46.5,983.5l0,-1" class="g2_304" />
<path d="M47.5,983.5l102,0" class="g2_304" />
<path d="M149.5,983.5l0,-1" class="g2_304" />
<path d="M151.5,983.5l736,0" class="g2_304" />
<path d="M887.5,983.5l0,-1" class="g2_304" />
<path d="M46.5,1031.5l0,-48" class="g2_304" />
<path d="M149.5,1031.5l0,-48" class="g2_304" />
<path d="M887.5,1031.5l0,-48" class="g2_304" />
<path fill-rule="evenodd" d="M47,1056l102,0l0,-24l-102,0l0,24Z" class="g1_304" />
<g clip-path="url(#c26_304)">
<path fill-rule="evenodd" d="M55,1056l87,0l0,-24l-87,0l0,24Z" class="g1_304" />
</g>
<path fill-rule="evenodd" d="M151,1056l736,0l0,-24l-736,0l0,24Z" class="g1_304" />
<g clip-path="url(#c27_304)">
<path fill-rule="evenodd" d="M158,1056l722,0l0,-24l-722,0l0,24Z" class="g1_304" />
</g>
<path d="M46.5,1032.5l0,-1" class="g2_304" />
<path d="M47.5,1032.5l102,0" class="g2_304" />
<path d="M149.5,1032.5l0,-1" class="g2_304" />
<path d="M151.5,1032.5l736,0" class="g2_304" />
<path d="M887.5,1032.5l0,-1" class="g2_304" />
<path d="M46.5,1056.5l0,-24" class="g2_304" />
<path d="M149.5,1056.5l0,-24" class="g2_304" />
<path d="M887.5,1056.5l0,-24" class="g2_304" />
<path fill-rule="evenodd" d="M47,1081l102,0l0,-23l-102,0l0,23Z" class="g1_304" />
<g clip-path="url(#c28_304)">
<path fill-rule="evenodd" d="M55,1081l87,0l0,-23l-87,0l0,23Z" class="g1_304" />
</g>
<path fill-rule="evenodd" d="M151,1081l736,0l0,-23l-736,0l0,23Z" class="g1_304" />
<g clip-path="url(#c29_304)">
<path fill-rule="evenodd" d="M158,1081l722,0l0,-23l-722,0l0,23Z" class="g1_304" />
</g>
<path d="M46.5,1057.5l0,-1" class="g2_304" />
<path d="M47.5,1057.5l102,0" class="g2_304" />
<path d="M149.5,1057.5l0,-1" class="g2_304" />
<path d="M151.5,1057.5l736,0" class="g2_304" />
<path d="M887.5,1057.5l0,-1" class="g2_304" />
<path d="M46.5,1081.5l0,-24" class="g2_304" />
<path d="M46.5,1083.5l0,-2" class="g2_304" />
<path d="M46.5,1083.5l0,-2" class="g2_304" />
<path d="M47.5,1083.5l102,0" class="g2_304" />
<path d="M149.5,1081.5l0,-24" class="g2_304" />
<path d="M149.5,1083.5l0,-2" class="g2_304" />
<path d="M151.5,1083.5l736,0" class="g2_304" />
<path d="M887.5,1081.5l0,-24" class="g2_304" />
<path d="M887.5,1083.5l0,-2" class="g2_304" />
<path d="M887.5,1083.5l0,-2" class="g2_304" />
</svg>