<?xml version="1.0" encoding="UTF-8" standalone="no"?>
<!DOCTYPE svg PUBLIC "-//W3C//DTD SVG 1.1//EN"
"http://www.w3.org/Graphics/SVG/1.1/DTD/svg11.dtd">
<svg version="1.1" xmlns="http://www.w3.org/2000/svg" xmlns:xlink="http://www.w3.org/1999/xlink">
<defs>
<clipPath id="c0_75"><path d="M47.5,755.5l0,-644l840,0l0,644Z" /></clipPath>
<clipPath id="c1_75"><path d="M47.5,1091.5l0,-262l840,0l0,262Z" /></clipPath>
<style type="text/css"><![CDATA[
.g2_75{
fill: none;
stroke: #7E7E7E;
stroke-width: 1;
stroke-linecap: butt;
stroke-linejoin: miter;
}
.g1_75{
fill: #F1F1F1;
}
]]></style>
</defs>
<path fill-rule="evenodd" d="M47,755l840,0l0,-644L47,111l0,644Z" class="g1_75" />
<g clip-path="url(#c0_75)">
<path fill-rule="evenodd" d="M55,135l825,0l0,-24L55,111l0,24Z" class="g1_75" />
</g>
<path fill-rule="evenodd" d="M55,159l825,0l0,-24L55,135l0,24Z" class="g1_75" />
<path fill-rule="evenodd" d="M55,182l825,0l0,-23L55,159l0,23Z" class="g1_75" />
<path fill-rule="evenodd" d="M55,206l825,0l0,-24L55,182l0,24Z" class="g1_75" />
<path fill-rule="evenodd" d="M55,230l825,0l0,-24L55,206l0,24Z" class="g1_75" />
<path fill-rule="evenodd" d="M55,254l825,0l0,-24L55,230l0,24Z" class="g1_75" />
<path fill-rule="evenodd" d="M55,278l825,0l0,-24L55,254l0,24Z" class="g1_75" />
<path fill-rule="evenodd" d="M55,302l825,0l0,-24L55,278l0,24Z" class="g1_75" />
<path fill-rule="evenodd" d="M55,325l825,0l0,-23L55,302l0,23Z" class="g1_75" />
<path fill-rule="evenodd" d="M55,349l825,0l0,-24L55,325l0,24Z" class="g1_75" />
<path fill-rule="evenodd" d="M55,373l825,0l0,-24L55,349l0,24Z" class="g1_75" />
<path fill-rule="evenodd" d="M55,397l825,0l0,-24L55,373l0,24Z" class="g1_75" />
<path fill-rule="evenodd" d="M55,421l825,0l0,-24L55,397l0,24Z" class="g1_75" />
<path fill-rule="evenodd" d="M55,445l825,0l0,-24L55,421l0,24Z" class="g1_75" />
<path fill-rule="evenodd" d="M55,469l825,0l0,-24L55,445l0,24Z" class="g1_75" />
<path fill-rule="evenodd" d="M55,492l825,0l0,-23L55,469l0,23Z" class="g1_75" />
<path fill-rule="evenodd" d="M55,516l825,0l0,-24L55,492l0,24Z" class="g1_75" />
<path fill-rule="evenodd" d="M55,540l825,0l0,-24L55,516l0,24Z" class="g1_75" />
<path fill-rule="evenodd" d="M55,564l825,0l0,-24L55,540l0,24Z" class="g1_75" />
<path fill-rule="evenodd" d="M55,588l825,0l0,-24L55,564l0,24Z" class="g1_75" />
<path fill-rule="evenodd" d="M55,612l825,0l0,-24L55,588l0,24Z" class="g1_75" />
<path fill-rule="evenodd" d="M55,635l825,0l0,-23L55,612l0,23Z" class="g1_75" />
<path fill-rule="evenodd" d="M55,659l825,0l0,-24L55,635l0,24Z" class="g1_75" />
<path fill-rule="evenodd" d="M55,683l825,0l0,-24L55,659l0,24Z" class="g1_75" />
<path fill-rule="evenodd" d="M55,707l825,0l0,-24L55,683l0,24Z" class="g1_75" />
<path fill-rule="evenodd" d="M55,731l825,0l0,-24L55,707l0,24Z" class="g1_75" />
<path fill-rule="evenodd" d="M55,755l825,0l0,-24L55,731l0,24Z" class="g1_75" />
<path d="M46.5,111.5l0,-1" class="g2_75" />
<path d="M46.5,111.5l0,-1" class="g2_75" />
<path d="M47.5,111.5l840,0" class="g2_75" />
<path d="M887.5,111.5l0,-1" class="g2_75" />
<path d="M887.5,111.5l0,-1" class="g2_75" />
<path d="M46.5,755.5l0,-644" class="g2_75" />
<path d="M46.5,756.5l0,-1" class="g2_75" />
<path d="M46.5,756.5l0,-1" class="g2_75" />
<path d="M47.5,756.5l840,0" class="g2_75" />
<path d="M887.5,755.5l0,-644" class="g2_75" />
<path d="M887.5,756.5l0,-1" class="g2_75" />
<path d="M887.5,756.5l0,-1" class="g2_75" />
<path fill-rule="evenodd" d="M47,1091l840,0l0,-262L47,829l0,262Z" class="g1_75" />
<g clip-path="url(#c1_75)">
<path fill-rule="evenodd" d="M55,853l825,0l0,-24L55,829l0,24Z" class="g1_75" />
</g>
<path fill-rule="evenodd" d="M55,877l825,0l0,-24L55,853l0,24Z" class="g1_75" />
<path fill-rule="evenodd" d="M55,901l825,0l0,-24L55,877l0,24Z" class="g1_75" />
<path fill-rule="evenodd" d="M55,925l825,0l0,-24L55,901l0,24Z" class="g1_75" />
<path fill-rule="evenodd" d="M55,948l825,0l0,-23L55,925l0,23Z" class="g1_75" />
<path fill-rule="evenodd" d="M55,972l825,0l0,-24L55,948l0,24Z" class="g1_75" />
<path fill-rule="evenodd" d="M55,996l825,0l0,-24L55,972l0,24Z" class="g1_75" />
<path fill-rule="evenodd" d="M55,1020l825,0l0,-24L55,996l0,24Z" class="g1_75" />
<path fill-rule="evenodd" d="M55,1044l825,0l0,-24l-825,0l0,24Z" class="g1_75" />
<path fill-rule="evenodd" d="M55,1068l825,0l0,-24l-825,0l0,24Z" class="g1_75" />
<g clip-path="url(#c1_75)">
<path fill-rule="evenodd" d="M55,1091l825,0l0,-23l-825,0l0,23Z" class="g1_75" />
</g>
<path d="M46.5,829.5l0,-1" class="g2_75" />
<path d="M46.5,829.5l0,-1" class="g2_75" />
<path d="M47.5,829.5l840,0" class="g2_75" />
<path d="M887.5,829.5l0,-1" class="g2_75" />
<path d="M887.5,829.5l0,-1" class="g2_75" />
<path d="M46.5,1091.5l0,-262" class="g2_75" />
<path d="M46.5,1093.5l0,-2" class="g2_75" />
<path d="M46.5,1093.5l0,-2" class="g2_75" />
<path d="M47.5,1093.5l840,0" class="g2_75" />
<path d="M887.5,1091.5l0,-262" class="g2_75" />
<path d="M887.5,1093.5l0,-2" class="g2_75" />
<path d="M887.5,1093.5l0,-2" class="g2_75" />
</svg>