<?xml version="1.0" encoding="UTF-8" standalone="no"?>
<!DOCTYPE svg PUBLIC "-//W3C//DTD SVG 1.1//EN"
"http://www.w3.org/Graphics/SVG/1.1/DTD/svg11.dtd">
<svg version="1.1" xmlns="http://www.w3.org/2000/svg" xmlns:xlink="http://www.w3.org/1999/xlink">
<defs>
<clipPath id="c0_182"><path d="M47.5,206.5l0,-95l840,0l0,95Z" /></clipPath>
<clipPath id="c1_182"><path d="M47.5,684.5l0,-24l177,0l0,24Z" /></clipPath>
<clipPath id="c2_182"><path d="M226.5,684.5l0,-24l162,0l0,24Z" /></clipPath>
<clipPath id="c3_182"><path d="M390.5,684.5l0,-24l163,0l0,24Z" /></clipPath>
<clipPath id="c4_182"><path d="M554.5,684.5l0,-24l163,0l0,24Z" /></clipPath>
<clipPath id="c5_182"><path d="M719.5,684.5l0,-24l168,0l0,24Z" /></clipPath>
<clipPath id="c6_182"><path d="M47.5,709.5l0,-24l177,0l0,24Z" /></clipPath>
<clipPath id="c7_182"><path d="M226.5,709.5l0,-24l162,0l0,24Z" /></clipPath>
<clipPath id="c8_182"><path d="M390.5,709.5l0,-24l163,0l0,24Z" /></clipPath>
<clipPath id="c9_182"><path d="M554.5,709.5l0,-24l163,0l0,24Z" /></clipPath>
<clipPath id="c10_182"><path d="M719.5,709.5l0,-24l168,0l0,24Z" /></clipPath>
<clipPath id="c11_182"><path d="M47.5,822.5l0,-25l259,0l0,25Z" /></clipPath>
<clipPath id="c12_182"><path d="M307.5,822.5l0,-25l79,0l0,25Z" /></clipPath>
<clipPath id="c13_182"><path d="M388.5,822.5l0,-25l59,0l0,25Z" /></clipPath>
<clipPath id="c14_182"><path d="M449.5,822.5l0,-25l443,0l0,25Z" /></clipPath>
<clipPath id="c15_182"><path d="M47.5,1005.5l0,-182l39,0l0,182Z" /></clipPath>
<clipPath id="c16_182"><path d="M88.5,871.5l0,-48l218,0l0,48Z" /></clipPath>
<clipPath id="c17_182"><path d="M307.5,871.5l0,-48l79,0l0,48Z" /></clipPath>
<clipPath id="c18_182"><path d="M388.5,871.5l0,-48l59,0l0,48Z" /></clipPath>
<clipPath id="c19_182"><path d="M449.5,871.5l0,-48l443,0l0,48Z" /></clipPath>
<clipPath id="c20_182"><path d="M88.5,1005.5l0,-133l40,0l0,133Z" /></clipPath>
<clipPath id="c21_182"><path d="M128.5,1005.5l0,-133l40,0l0,133Z" /></clipPath>
<clipPath id="c22_182"><path d="M169.5,1005.5l0,-133l137,0l0,133Z" /></clipPath>
<clipPath id="c23_182"><path d="M307.5,1005.5l0,-133l79,0l0,133Z" /></clipPath>
<clipPath id="c24_182"><path d="M388.5,1005.5l0,-133l60,0l0,133Z" /></clipPath>
<clipPath id="c25_182"><path d="M450.5,1005.5l0,-133l442,0l0,133Z" /></clipPath>
<style type="text/css"><![CDATA[
.g2_182{
fill: none;
stroke: #7E7E7E;
stroke-width: 1;
stroke-linecap: butt;
stroke-linejoin: miter;
}
.g4_182{
fill: none;
stroke: #808080;
stroke-width: 1;
stroke-linecap: butt;
stroke-linejoin: miter;
}
.g3_182{
fill: #DBE5F1;
}
.g1_182{
fill: #F1F1F1;
}
]]></style>
</defs>
<path fill-rule="evenodd" d="M47,206l840,0l0,-95L47,111l0,95Z" class="g1_182" />
<g clip-path="url(#c0_182)">
<path fill-rule="evenodd" d="M55,135l825,0l0,-24L55,111l0,24Z" class="g1_182" />
</g>
<path fill-rule="evenodd" d="M55,159l825,0l0,-24L55,135l0,24Z" class="g1_182" />
<path fill-rule="evenodd" d="M55,182l825,0l0,-23L55,159l0,23Z" class="g1_182" />
<path fill-rule="evenodd" d="M55,206l825,0l0,-24L55,182l0,24Z" class="g1_182" />
<path d="M46.5,111.5l0,-1" class="g2_182" />
<path d="M46.5,111.5l0,-1" class="g2_182" />
<path d="M47.5,111.5l840,0" class="g2_182" />
<path d="M887.5,111.5l0,-1" class="g2_182" />
<path d="M887.5,111.5l0,-1" class="g2_182" />
<path d="M46.5,207.5l0,-96" class="g2_182" />
<path d="M46.5,208.5l0,-1" class="g2_182" />
<path d="M46.5,208.5l0,-1" class="g2_182" />
<path d="M47.5,208.5l840,0" class="g2_182" />
<path d="M887.5,207.5l0,-96" class="g2_182" />
<path d="M887.5,208.5l0,-1" class="g2_182" />
<path d="M887.5,208.5l0,-1" class="g2_182" />
<path fill-rule="evenodd" d="M47,477l840,0l0,-24L47,453l0,24Z" class="g1_182" />
<path fill-rule="evenodd" d="M55,477l825,0l0,-24L55,453l0,24Z" class="g1_182" />
<path d="M46.5,453.5l0,-1" class="g2_182" />
<path d="M46.5,453.5l0,-1" class="g2_182" />
<path d="M47.5,453.5l840,0" class="g2_182" />
<path d="M887.5,453.5l0,-1" class="g2_182" />
<path d="M887.5,453.5l0,-1" class="g2_182" />
<path d="M46.5,477.5l0,-24" class="g2_182" />
<path d="M46.5,478.5l0,-1" class="g2_182" />
<path d="M46.5,478.5l0,-1" class="g2_182" />
<path d="M47.5,478.5l840,0" class="g2_182" />
<path d="M887.5,477.5l0,-24" class="g2_182" />
<path d="M887.5,478.5l0,-1" class="g2_182" />
<path d="M887.5,478.5l0,-1" class="g2_182" />
<path fill-rule="evenodd" d="M47,584l178,0l0,-24L47,560l0,24Z" class="g3_182" />
<path fill-rule="evenodd" d="M55,584l163,0l0,-24L55,560l0,24Z" class="g3_182" />
<path fill-rule="evenodd" d="M226,584l163,0l0,-24l-163,0l0,24Z" class="g3_182" />
<path fill-rule="evenodd" d="M234,584l148,0l0,-24l-148,0l0,24Z" class="g3_182" />
<path fill-rule="evenodd" d="M391,584l496,0l0,-24l-496,0l0,24Z" class="g3_182" />
<path fill-rule="evenodd" d="M398,584l482,0l0,-24l-482,0l0,24Z" class="g3_182" />
<path d="M46.5,560.5l0,-1" class="g2_182" />
<path d="M46.5,560.5l0,-1" class="g2_182" />
<path d="M47.5,560.5l178,0" class="g2_182" />
<path d="M225.5,560.5l0,-1" class="g2_182" />
<path d="M226.5,560.5l163,0" class="g2_182" />
<path d="M389.5,560.5l0,-1" class="g2_182" />
<path d="M391.5,560.5l496,0" class="g2_182" />
<path d="M887.5,560.5l0,-1" class="g2_182" />
<path d="M887.5,560.5l0,-1" class="g2_182" />
<path d="M46.5,584.5l0,-24" class="g2_182" />
<path d="M225.5,584.5l0,-24" class="g2_182" />
<path d="M389.5,584.5l0,-24" class="g2_182" />
<path d="M887.5,584.5l0,-24" class="g2_182" />
<path fill-rule="evenodd" d="M47,609l178,0l0,-23L47,586l0,23Z" class="g1_182" />
<path fill-rule="evenodd" d="M55,609l163,0l0,-23L55,586l0,23Z" class="g1_182" />
<path fill-rule="evenodd" d="M226,609l163,0l0,-23l-163,0l0,23Z" class="g1_182" />
<path fill-rule="evenodd" d="M234,609l148,0l0,-23l-148,0l0,23Z" class="g1_182" />
<path fill-rule="evenodd" d="M391,609l496,0l0,-23l-496,0l0,23Z" class="g1_182" />
<path fill-rule="evenodd" d="M398,609l482,0l0,-23l-482,0l0,23Z" class="g1_182" />
<path d="M46.5,586.5l0,-2" class="g2_182" />
<path d="M47.5,586.5l178,0" class="g2_182" />
<path d="M225.5,586.5l0,-2" class="g2_182" />
<path d="M226.5,586.5l163,0" class="g2_182" />
<path d="M389.5,586.5l0,-2" class="g2_182" />
<path d="M391.5,586.5l496,0" class="g2_182" />
<path d="M887.5,586.5l0,-2" class="g2_182" />
<path d="M46.5,609.5l0,-23" class="g2_182" />
<path d="M46.5,611.5l0,-2" class="g2_182" />
<path d="M46.5,611.5l0,-2" class="g2_182" />
<path d="M47.5,611.5l178,0" class="g2_182" />
<path d="M225.5,609.5l0,-23" class="g2_182" />
<path d="M225.5,611.5l0,-2" class="g2_182" />
<path d="M226.5,611.5l163,0" class="g2_182" />
<path d="M389.5,609.5l0,-23" class="g2_182" />
<path d="M389.5,611.5l0,-2" class="g2_182" />
<path d="M391.5,611.5l496,0" class="g2_182" />
<path d="M887.5,609.5l0,-23" class="g2_182" />
<path d="M887.5,611.5l0,-2" class="g2_182" />
<path d="M887.5,611.5l0,-2" class="g2_182" />
<path fill-rule="evenodd" d="M47,684l177,0l0,-24L47,660l0,24Z" class="g3_182" />
<g clip-path="url(#c1_182)">
<path fill-rule="evenodd" d="M55,684l162,0l0,-24L55,660l0,24Z" class="g3_182" />
</g>
<path fill-rule="evenodd" d="M226,684l162,0l0,-24l-162,0l0,24Z" class="g3_182" />
<g clip-path="url(#c2_182)">
<path fill-rule="evenodd" d="M233,684l148,0l0,-24l-148,0l0,24Z" class="g3_182" />
</g>
<path fill-rule="evenodd" d="M390,684l163,0l0,-24l-163,0l0,24Z" class="g3_182" />
<g clip-path="url(#c3_182)">
<path fill-rule="evenodd" d="M397,684l148,0l0,-24l-148,0l0,24Z" class="g3_182" />
</g>
<path fill-rule="evenodd" d="M554,684l163,0l0,-24l-163,0l0,24Z" class="g3_182" />
<g clip-path="url(#c4_182)">
<path fill-rule="evenodd" d="M562,684l148,0l0,-24l-148,0l0,24Z" class="g3_182" />
</g>
<path fill-rule="evenodd" d="M719,684l168,0l0,-24l-168,0l0,24Z" class="g3_182" />
<g clip-path="url(#c5_182)">
<path fill-rule="evenodd" d="M726,684l154,0l0,-24l-154,0l0,24Z" class="g3_182" />
</g>
<path d="M46.5,660.5l0,-2" class="g2_182" />
<path d="M46.5,660.5l0,-2" class="g2_182" />
<path d="M47.5,660.5l177,0" class="g2_182" />
<path d="M224.5,660.5l0,-2" class="g2_182" />
<path d="M226.5,660.5l162,0" class="g2_182" />
<path d="M388.5,660.5l0,-2" class="g2_182" />
<path d="M390.5,660.5l163,0" class="g2_182" />
<path d="M553.5,660.5l0,-2" class="g2_182" />
<path d="M554.5,660.5l163,0" class="g2_182" />
<path d="M717.5,660.5l0,-2" class="g2_182" />
<path d="M719.5,660.5l168,0" class="g2_182" />
<path d="M887.5,660.5l0,-2" class="g2_182" />
<path d="M887.5,660.5l0,-2" class="g2_182" />
<path d="M46.5,684.5l0,-24" class="g2_182" />
<path d="M224.5,684.5l0,-24" class="g2_182" />
<path d="M388.5,684.5l0,-24" class="g2_182" />
<path d="M553.5,684.5l0,-24" class="g2_182" />
<path d="M717.5,684.5l0,-24" class="g2_182" />
<path d="M887.5,684.5l0,-24" class="g2_182" />
<path fill-rule="evenodd" d="M47,709l177,0l0,-24L47,685l0,24Z" class="g1_182" />
<g clip-path="url(#c6_182)">
<path fill-rule="evenodd" d="M55,709l162,0l0,-24L55,685l0,24Z" class="g1_182" />
</g>
<path fill-rule="evenodd" d="M226,709l162,0l0,-24l-162,0l0,24Z" class="g1_182" />
<g clip-path="url(#c7_182)">
<path fill-rule="evenodd" d="M233,709l148,0l0,-24l-148,0l0,24Z" class="g1_182" />
</g>
<path fill-rule="evenodd" d="M390,709l163,0l0,-24l-163,0l0,24Z" class="g1_182" />
<g clip-path="url(#c8_182)">
<path fill-rule="evenodd" d="M397,709l148,0l0,-24l-148,0l0,24Z" class="g1_182" />
</g>
<path fill-rule="evenodd" d="M554,709l163,0l0,-24l-163,0l0,24Z" class="g1_182" />
<g clip-path="url(#c9_182)">
<path fill-rule="evenodd" d="M562,709l148,0l0,-24l-148,0l0,24Z" class="g1_182" />
</g>
<path fill-rule="evenodd" d="M719,709l168,0l0,-24l-168,0l0,24Z" class="g1_182" />
<g clip-path="url(#c10_182)">
<path fill-rule="evenodd" d="M726,709l154,0l0,-24l-154,0l0,24Z" class="g1_182" />
</g>
<path d="M46.5,685.5l0,-1" class="g2_182" />
<path d="M47.5,685.5l177,0" class="g2_182" />
<path d="M224.5,685.5l0,-1" class="g2_182" />
<path d="M226.5,685.5l162,0" class="g2_182" />
<path d="M388.5,685.5l0,-1" class="g2_182" />
<path d="M390.5,685.5l163,0" class="g2_182" />
<path d="M553.5,685.5l0,-1" class="g2_182" />
<path d="M554.5,685.5l163,0" class="g2_182" />
<path d="M717.5,685.5l0,-1" class="g2_182" />
<path d="M719.5,685.5l168,0" class="g2_182" />
<path d="M887.5,685.5l0,-1" class="g2_182" />
<path d="M46.5,709.5l0,-24" class="g2_182" />
<path d="M46.5,711.5l0,-2" class="g2_182" />
<path d="M46.5,711.5l0,-2" class="g2_182" />
<path d="M47.5,711.5l177,0" class="g2_182" />
<path d="M224.5,709.5l0,-24" class="g2_182" />
<path d="M224.5,711.5l0,-2" class="g2_182" />
<path d="M226.5,711.5l162,0" class="g2_182" />
<path d="M388.5,709.5l0,-24" class="g2_182" />
<path d="M388.5,711.5l0,-2" class="g2_182" />
<path d="M390.5,711.5l163,0" class="g2_182" />
<path d="M553.5,709.5l0,-24" class="g2_182" />
<path d="M553.5,711.5l0,-2" class="g2_182" />
<path d="M554.5,711.5l163,0" class="g2_182" />
<path d="M717.5,709.5l0,-24" class="g2_182" />
<path d="M717.5,711.5l0,-2" class="g2_182" />
<path d="M719.5,711.5l168,0" class="g2_182" />
<path d="M887.5,709.5l0,-24" class="g2_182" />
<path d="M887.5,711.5l0,-2" class="g2_182" />
<path d="M887.5,711.5l0,-2" class="g2_182" />
<path fill-rule="evenodd" d="M47,821l259,0l0,-24L47,797l0,24Z" class="g3_182" />
<g clip-path="url(#c11_182)">
<path fill-rule="evenodd" d="M55,821l243,0l0,-24L55,797l0,24Z" class="g3_182" />
</g>
<path fill-rule="evenodd" d="M307,821l79,0l0,-24l-79,0l0,24Z" class="g3_182" />
<g clip-path="url(#c12_182)">
<path fill-rule="evenodd" d="M315,821l64,0l0,-24l-64,0l0,24Z" class="g3_182" />
</g>
<path fill-rule="evenodd" d="M388,821l59,0l0,-24l-59,0l0,24Z" class="g3_182" />
<g clip-path="url(#c13_182)">
<path fill-rule="evenodd" d="M395,821l45,0l0,-24l-45,0l0,24Z" class="g3_182" />
</g>
<path fill-rule="evenodd" d="M449,821l443,0l0,-24l-443,0l0,24Z" class="g3_182" />
<g clip-path="url(#c14_182)">
<path fill-rule="evenodd" d="M456,821l428,0l0,-24l-428,0l0,24Z" class="g3_182" />
</g>
<path d="M46.5,797.5l0,-1" class="g2_182" />
<path d="M46.5,797.5l0,-1" class="g2_182" />
<path d="M47.5,797.5l259,0" class="g2_182" />
<path d="M306.5,797.5l0,-1" class="g2_182" />
<path d="M307.5,797.5l79,0" class="g2_182" />
<path d="M386.5,797.5l0,-1" class="g2_182" />
<path d="M388.5,797.5l60,0" class="g2_182" />
<path d="M448.5,797.5l0,-1" class="g2_182" />
<path d="M449.5,797.5l443,0" class="g2_182" />
<path d="M892.5,797.5l0,-1" class="g2_182" />
<path d="M892.5,797.5l0,-1" class="g2_182" />
<path d="M46.5,821.5l0,-24" class="g2_182" />
<path d="M306.5,821.5l0,-24" class="g2_182" />
<path d="M386.5,821.5l0,-24" class="g2_182" />
<path d="M448.5,821.5l0,-24" class="g2_182" />
<path d="M892.5,821.5l0,-24" class="g2_182" />
<path fill-rule="evenodd" d="M47,1005l39,0L86,823l-39,0l0,182Z" class="g1_182" />
<g clip-path="url(#c15_182)">
<path fill-rule="evenodd" d="M55,1005l23,0L78,823l-23,0l0,182Z" class="g1_182" />
</g>
<path fill-rule="evenodd" d="M88,871l218,0l0,-48L88,823l0,48Z" class="g1_182" />
<g clip-path="url(#c16_182)">
<path fill-rule="evenodd" d="M95,847l203,0l0,-24L95,823l0,24Z" class="g1_182" />
</g>
<path fill-rule="evenodd" d="M307,871l79,0l0,-48l-79,0l0,48Z" class="g1_182" />
<g clip-path="url(#c17_182)">
<path fill-rule="evenodd" d="M315,847l64,0l0,-24l-64,0l0,24Z" class="g1_182" />
</g>
<path fill-rule="evenodd" d="M388,871l59,0l0,-48l-59,0l0,48Z" class="g1_182" />
<g clip-path="url(#c18_182)">
<path fill-rule="evenodd" d="M395,847l45,0l0,-24l-45,0l0,24Z" class="g1_182" />
</g>
<path fill-rule="evenodd" d="M449,871l443,0l0,-48l-443,0l0,48Z" class="g1_182" />
<g clip-path="url(#c19_182)">
<path fill-rule="evenodd" d="M456,847l428,0l0,-24l-428,0l0,24Z" class="g1_182" />
</g>
<path fill-rule="evenodd" d="M456,871l428,0l0,-24l-428,0l0,24Z" class="g1_182" />
<path d="M46.5,823.5l0,-2" class="g2_182" />
<path d="M47.5,823.5l39,0" class="g2_182" />
<path d="M86.5,823.5l0,-2" class="g2_182" />
<path d="M88.5,823.5l218,0" class="g2_182" />
<path d="M306.5,823.5l0,-2" class="g2_182" />
<path d="M307.5,823.5l79,0" class="g2_182" />
<path d="M386.5,823.5l0,-2" class="g2_182" />
<path d="M388.5,823.5l60,0" class="g2_182" />
<path d="M448.5,823.5l0,-2" class="g2_182" />
<path d="M449.5,823.5l443,0" class="g2_182" />
<path d="M892.5,823.5l0,-2" class="g2_182" />
<path d="M46.5,871.5l0,-48" class="g2_182" />
<path d="M86.5,871.5l0,-48" class="g2_182" />
<path d="M306.5,871.5l0,-48" class="g2_182" />
<path d="M386.5,871.5l0,-48" class="g2_182" />
<path d="M448.5,871.5l0,-48" class="g2_182" />
<path d="M892.5,871.5l0,-48" class="g2_182" />
<path fill-rule="evenodd" d="M88,1005l40,0l0,-133l-40,0l0,133Z" class="g1_182" />
<g clip-path="url(#c20_182)">
<path fill-rule="evenodd" d="M95,1005l24,0l0,-133l-24,0l0,133Z" class="g1_182" />
</g>
<path fill-rule="evenodd" d="M128,1005l40,0l0,-133l-40,0l0,133Z" class="g1_182" />
<g clip-path="url(#c21_182)">
<path fill-rule="evenodd" d="M136,1005l24,0l0,-133l-24,0l0,133Z" class="g1_182" />
</g>
<path fill-rule="evenodd" d="M169,1005l137,0l0,-133l-137,0l0,133Z" class="g1_182" />
<g clip-path="url(#c22_182)">
<path fill-rule="evenodd" d="M177,896l121,0l0,-24l-121,0l0,24Z" class="g1_182" />
</g>
<path fill-rule="evenodd" d="M307,1005l79,0l0,-133l-79,0l0,133Z" class="g1_182" />
<g clip-path="url(#c23_182)">
<path fill-rule="evenodd" d="M315,896l64,0l0,-24l-64,0l0,24Z" class="g1_182" />
</g>
<path fill-rule="evenodd" d="M388,1005l60,0l0,-133l-60,0l0,133Z" class="g1_182" />
<g clip-path="url(#c24_182)">
<path fill-rule="evenodd" d="M395,896l45,0l0,-24l-45,0l0,24Z" class="g1_182" />
</g>
<path fill-rule="evenodd" d="M450,1005l442,0l0,-133l-442,0l0,133Z" class="g1_182" />
<g clip-path="url(#c25_182)">
<path fill-rule="evenodd" d="M457,896l427,0l0,-24l-427,0l0,24Z" class="g1_182" />
</g>
<path d="M46.5,872.5l0,-1" class="g2_182" />
<path d="M86.5,872.5l0,-1" class="g2_182" />
<path d="M88.5,872.5l40,0" class="g2_182" />
<path d="M128.5,872.5l0,-1" class="g2_182" />
<path d="M129.5,872.5l39,0" class="g2_182" />
<path d="M168.5,872.5l0,-1" class="g2_182" />
<path d="M169.5,872.5l137,0" class="g2_182" />
<path d="M306.5,872.5l0,-1" class="g2_182" />
<path d="M307.5,872.5l79,0" class="g2_182" />
<path d="M386.5,872.5l0,-1" class="g2_182" />
<path d="M388.5,872.5l60,0" class="g2_182" />
<path d="M448.5,872.5l0,-1" class="g2_182" />
<path d="M449.5,872.5l0,-1" class="g2_182" />
<path d="M451.5,872.5l441,0" class="g2_182" />
<path d="M892.5,872.5l0,-1" class="g2_182" />
<path d="M46.5,1005.5l0,-133" class="g2_182" />
<path d="M46.5,1006.5l0,-1" class="g2_182" />
<path d="M46.5,1006.5l0,-1" class="g2_182" />
<path d="M47.5,1006.5l39,0" class="g2_182" />
<path d="M86.5,1005.5l0,-133" class="g2_182" />
<path d="M86.5,1006.5l0,-1" class="g2_182" />
<path d="M88.5,1006.5l40,0" class="g2_182" />
<path d="M128.5,1005.5l0,-133" class="g4_182" />
<path d="M128.5,1006.5l0,-1" class="g2_182" />
<path d="M129.5,1006.5l39,0" class="g2_182" />
<path d="M168.5,1005.5l0,-133" class="g2_182" />
<path d="M168.5,1006.5l0,-1" class="g2_182" />
<path d="M169.5,1006.5l137,0" class="g2_182" />
<path d="M306.5,1005.5l0,-133" class="g2_182" />
<path d="M306.5,1006.5l0,-1" class="g2_182" />
<path d="M307.5,1006.5l79,0" class="g2_182" />
<path d="M386.5,1005.5l0,-133" class="g2_182" />
<path d="M386.5,1006.5l0,-1" class="g2_182" />
<path d="M388.5,1006.5l60,0" class="g2_182" />
<path d="M448.5,1005.5l0,-133" class="g2_182" />
<path d="M448.5,1006.5l0,-1" class="g2_182" />
<path d="M449.5,1006.5l443,0" class="g2_182" />
<path d="M892.5,1005.5l0,-133" class="g2_182" />
<path d="M892.5,1006.5l0,-1" class="g2_182" />
<path d="M892.5,1006.5l0,-1" class="g2_182" />
</svg>