<?xml version="1.0" encoding="UTF-8" standalone="no"?>
<!DOCTYPE svg PUBLIC "-//W3C//DTD SVG 1.1//EN"
"http://www.w3.org/Graphics/SVG/1.1/DTD/svg11.dtd">
<svg version="1.1" xmlns="http://www.w3.org/2000/svg" xmlns:xlink="http://www.w3.org/1999/xlink">
<defs>
<clipPath id="c0_336"><path d="M47.5,159.5l0,-48l840,0l0,48Z" /></clipPath>
<clipPath id="c1_336"><path d="M47.5,318.5l0,-24l102,0l0,24Z" /></clipPath>
<clipPath id="c2_336"><path d="M151.5,318.5l0,-24l736,0l0,24Z" /></clipPath>
<clipPath id="c3_336"><path d="M47.5,343.5l0,-23l102,0l0,23Z" /></clipPath>
<clipPath id="c4_336"><path d="M151.5,343.5l0,-23l736,0l0,23Z" /></clipPath>
<clipPath id="c5_336"><path d="M47.5,369.5l0,-24l102,0l0,24Z" /></clipPath>
<clipPath id="c6_336"><path d="M151.5,369.5l0,-24l736,0l0,24Z" /></clipPath>
<clipPath id="c7_336"><path d="M47.5,394.5l0,-24l102,0l0,24Z" /></clipPath>
<clipPath id="c8_336"><path d="M151.5,394.5l0,-24l736,0l0,24Z" /></clipPath>
<clipPath id="c9_336"><path d="M47.5,420.5l0,-24l102,0l0,24Z" /></clipPath>
<clipPath id="c10_336"><path d="M151.5,420.5l0,-24l736,0l0,24Z" /></clipPath>
<clipPath id="c11_336"><path d="M47.5,801.5l0,-182l840,0l0,182Z" /></clipPath>
<clipPath id="c12_336"><path d="M47.5,971.5l0,-96l840,0l0,96Z" /></clipPath>
<style type="text/css"><![CDATA[
.g5_336{
fill: none;
stroke: #F0F0E0;
stroke-width: 1;
stroke-linecap: butt;
stroke-linejoin: miter;
}
.g2_336{
fill: none;
stroke: #7E7E7E;
stroke-width: 1;
stroke-linecap: butt;
stroke-linejoin: miter;
}
.g3_336{
fill: none;
stroke: #0000FF;
stroke-width: 1;
stroke-linecap: butt;
stroke-linejoin: miter;
}
.g4_336{
fill: #DBE5F1;
}
.g1_336{
fill: #F1F1F1;
}
]]></style>
</defs>
<path fill-rule="evenodd" d="M47,159l840,0l0,-48L47,111l0,48Z" class="g1_336" />
<g clip-path="url(#c0_336)">
<path fill-rule="evenodd" d="M55,135l825,0l0,-24L55,111l0,24Z" class="g1_336" />
</g>
<path fill-rule="evenodd" d="M55,159l825,0l0,-24L55,135l0,24Z" class="g1_336" />
<path d="M46.5,111.5l0,-1" class="g2_336" />
<path d="M46.5,111.5l0,-1" class="g2_336" />
<path d="M47.5,111.5l840,0" class="g2_336" />
<path d="M887.5,111.5l0,-1" class="g2_336" />
<path d="M887.5,111.5l0,-1" class="g2_336" />
<path d="M46.5,159.5l0,-48" class="g2_336" />
<path d="M46.5,160.5l0,-1" class="g2_336" />
<path d="M46.5,160.5l0,-1" class="g2_336" />
<path d="M47.5,160.5l840,0" class="g2_336" />
<path d="M887.5,159.5l0,-48" class="g2_336" />
<path d="M887.5,160.5l0,-1" class="g2_336" />
<path d="M887.5,160.5l0,-1" class="g2_336" />
<path d="M371.5,264.5l163,0" class="g3_336" />
<path fill-rule="evenodd" d="M47,318l102,0l0,-24L47,294l0,24Z" class="g4_336" />
<g clip-path="url(#c1_336)">
<path fill-rule="evenodd" d="M55,318l87,0l0,-24l-87,0l0,24Z" class="g4_336" />
</g>
<path fill-rule="evenodd" d="M151,318l736,0l0,-24l-736,0l0,24Z" class="g4_336" />
<g clip-path="url(#c2_336)">
<path fill-rule="evenodd" d="M158,318l722,0l0,-24l-722,0l0,24Z" class="g4_336" />
</g>
<path d="M46.5,294.5l0,-1" class="g2_336" />
<path d="M46.5,294.5l0,-1" class="g2_336" />
<path d="M47.5,294.5l102,0" class="g2_336" />
<path d="M149.5,294.5l0,-1" class="g2_336" />
<path d="M151.5,294.5l736,0" class="g2_336" />
<path d="M887.5,294.5l0,-1" class="g2_336" />
<path d="M887.5,294.5l0,-1" class="g2_336" />
<path d="M46.5,318.5l0,-24" class="g2_336" />
<path d="M149.5,318.5l0,-24" class="g2_336" />
<path d="M887.5,318.5l0,-24" class="g2_336" />
<path fill-rule="evenodd" d="M47,343l102,0l0,-23L47,320l0,23Z" class="g1_336" />
<g clip-path="url(#c3_336)">
<path fill-rule="evenodd" d="M55,343l87,0l0,-23l-87,0l0,23Z" class="g1_336" />
</g>
<path fill-rule="evenodd" d="M151,343l736,0l0,-23l-736,0l0,23Z" class="g1_336" />
<g clip-path="url(#c4_336)">
<path fill-rule="evenodd" d="M158,343l722,0l0,-23l-722,0l0,23Z" class="g1_336" />
</g>
<path d="M46.5,319.5l0,-1" class="g2_336" />
<path d="M47.5,319.5l102,0" class="g2_336" />
<path d="M149.5,319.5l0,-1" class="g2_336" />
<path d="M151.5,319.5l736,0" class="g2_336" />
<path d="M887.5,319.5l0,-1" class="g2_336" />
<path d="M46.5,343.5l0,-24" class="g2_336" />
<path d="M149.5,343.5l0,-24" class="g2_336" />
<path d="M887.5,343.5l0,-24" class="g2_336" />
<path fill-rule="evenodd" d="M47,369l102,0l0,-24L47,345l0,24Z" class="g1_336" />
<g clip-path="url(#c5_336)">
<path fill-rule="evenodd" d="M55,369l87,0l0,-24l-87,0l0,24Z" class="g1_336" />
</g>
<path fill-rule="evenodd" d="M151,369l736,0l0,-24l-736,0l0,24Z" class="g1_336" />
<g clip-path="url(#c6_336)">
<path fill-rule="evenodd" d="M158,369l722,0l0,-24l-722,0l0,24Z" class="g1_336" />
</g>
<path d="M46.5,345.5l0,-2" class="g2_336" />
<path d="M47.5,345.5l102,0" class="g2_336" />
<path d="M149.5,345.5l0,-2" class="g2_336" />
<path d="M151.5,345.5l736,0" class="g2_336" />
<path d="M887.5,345.5l0,-2" class="g2_336" />
<path d="M46.5,369.5l0,-24" class="g2_336" />
<path d="M149.5,369.5l0,-24" class="g2_336" />
<path d="M887.5,369.5l0,-24" class="g2_336" />
<path fill-rule="evenodd" d="M47,394l102,0l0,-24L47,370l0,24Z" class="g1_336" />
<g clip-path="url(#c7_336)">
<path fill-rule="evenodd" d="M55,394l87,0l0,-24l-87,0l0,24Z" class="g1_336" />
</g>
<path fill-rule="evenodd" d="M151,394l736,0l0,-24l-736,0l0,24Z" class="g1_336" />
<g clip-path="url(#c8_336)">
<path fill-rule="evenodd" d="M158,394l722,0l0,-24l-722,0l0,24Z" class="g1_336" />
</g>
<path d="M46.5,370.5l0,-1" class="g2_336" />
<path d="M47.5,370.5l102,0" class="g2_336" />
<path d="M149.5,370.5l0,-1" class="g2_336" />
<path d="M151.5,370.5l736,0" class="g2_336" />
<path d="M887.5,370.5l0,-1" class="g2_336" />
<path d="M46.5,394.5l0,-24" class="g2_336" />
<path d="M149.5,394.5l0,-24" class="g2_336" />
<path d="M887.5,394.5l0,-24" class="g2_336" />
<path fill-rule="evenodd" d="M47,420l102,0l0,-24L47,396l0,24Z" class="g1_336" />
<g clip-path="url(#c9_336)">
<path fill-rule="evenodd" d="M55,420l87,0l0,-24l-87,0l0,24Z" class="g1_336" />
</g>
<path fill-rule="evenodd" d="M151,420l736,0l0,-24l-736,0l0,24Z" class="g1_336" />
<g clip-path="url(#c10_336)">
<path fill-rule="evenodd" d="M158,420l722,0l0,-24l-722,0l0,24Z" class="g1_336" />
</g>
<path d="M46.5,396.5l0,-2" class="g2_336" />
<path d="M47.5,396.5l102,0" class="g2_336" />
<path d="M149.5,396.5l0,-2" class="g2_336" />
<path d="M151.5,396.5l736,0" class="g2_336" />
<path d="M887.5,396.5l0,-2" class="g2_336" />
<path d="M46.5,420.5l0,-24" class="g2_336" />
<path d="M149.5,420.5l0,-24" class="g2_336" />
<path d="M887.5,420.5l0,-24" class="g2_336" />
<path fill-rule="evenodd" d="M47,445l102,0l0,-24L47,421l0,24Z" class="g1_336" />
<path fill-rule="evenodd" d="M55,445l87,0l0,-24l-87,0l0,24Z" class="g1_336" />
<path fill-rule="evenodd" d="M151,445l736,0l0,-24l-736,0l0,24Z" class="g1_336" />
<path fill-rule="evenodd" d="M158,445l722,0l0,-24l-722,0l0,24Z" class="g1_336" />
<path d="M46.5,421.5l0,-1" class="g2_336" />
<path d="M47.5,421.5l102,0" class="g2_336" />
<path d="M149.5,421.5l0,-1" class="g2_336" />
<path d="M151.5,421.5l736,0" class="g2_336" />
<path d="M887.5,421.5l0,-1" class="g2_336" />
<path d="M46.5,445.5l0,-24" class="g2_336" />
<path d="M149.5,445.5l0,-24" class="g2_336" />
<path d="M887.5,445.5l0,-24" class="g2_336" />
<path fill-rule="evenodd" d="M47,470l102,0l0,-24L47,446l0,24Z" class="g1_336" />
<path fill-rule="evenodd" d="M55,470l87,0l0,-24l-87,0l0,24Z" class="g1_336" />
<path fill-rule="evenodd" d="M151,470l736,0l0,-24l-736,0l0,24Z" class="g1_336" />
<path fill-rule="evenodd" d="M158,470l722,0l0,-24l-722,0l0,24Z" class="g1_336" />
<path d="M46.5,446.5l0,-1" class="g2_336" />
<path d="M47.5,446.5l102,0" class="g2_336" />
<path d="M149.5,446.5l0,-1" class="g2_336" />
<path d="M151.5,446.5l736,0" class="g2_336" />
<path d="M887.5,446.5l0,-1" class="g2_336" />
<path d="M46.5,470.5l0,-24" class="g2_336" />
<path d="M149.5,470.5l0,-24" class="g2_336" />
<path d="M887.5,470.5l0,-24" class="g2_336" />
<path fill-rule="evenodd" d="M47,496l102,0l0,-24L47,472l0,24Z" class="g1_336" />
<path fill-rule="evenodd" d="M55,496l87,0l0,-24l-87,0l0,24Z" class="g1_336" />
<path fill-rule="evenodd" d="M151,496l736,0l0,-24l-736,0l0,24Z" class="g1_336" />
<path fill-rule="evenodd" d="M158,496l722,0l0,-24l-722,0l0,24Z" class="g1_336" />
<path d="M46.5,472.5l0,-2" class="g2_336" />
<path d="M47.5,472.5l102,0" class="g2_336" />
<path d="M149.5,472.5l0,-2" class="g2_336" />
<path d="M151.5,472.5l736,0" class="g2_336" />
<path d="M887.5,472.5l0,-2" class="g2_336" />
<path d="M46.5,496.5l0,-24" class="g2_336" />
<path d="M149.5,496.5l0,-24" class="g2_336" />
<path d="M887.5,496.5l0,-24" class="g2_336" />
<path fill-rule="evenodd" d="M47,545l102,0l0,-48L47,497l0,48Z" class="g1_336" />
<path fill-rule="evenodd" d="M55,521l87,0l0,-24l-87,0l0,24Z" class="g1_336" />
<path fill-rule="evenodd" d="M151,545l736,0l0,-48l-736,0l0,48Z" class="g1_336" />
<path fill-rule="evenodd" d="M158,521l722,0l0,-24l-722,0l0,24Z" class="g1_336" />
<path fill-rule="evenodd" d="M158,545l722,0l0,-24l-722,0l0,24Z" class="g1_336" />
<path d="M46.5,497.5l0,-1" class="g2_336" />
<path d="M47.5,497.5l102,0" class="g2_336" />
<path d="M149.5,497.5l0,-1" class="g2_336" />
<path d="M151.5,497.5l736,0" class="g2_336" />
<path d="M887.5,497.5l0,-1" class="g2_336" />
<path d="M46.5,545.5l0,-48" class="g2_336" />
<path d="M46.5,546.5l0,-1" class="g2_336" />
<path d="M46.5,546.5l0,-1" class="g2_336" />
<path d="M47.5,546.5l102,0" class="g2_336" />
<path d="M149.5,545.5l0,-48" class="g2_336" />
<path d="M149.5,546.5l0,-1" class="g2_336" />
<path d="M151.5,546.5l736,0" class="g2_336" />
<path d="M887.5,545.5l0,-48" class="g2_336" />
<path d="M887.5,546.5l0,-1" class="g2_336" />
<path d="M887.5,546.5l0,-1" class="g2_336" />
<path fill-rule="evenodd" d="M47,801l840,0l0,-182L47,619l0,182Z" class="g1_336" />
<g clip-path="url(#c11_336)">
<path fill-rule="evenodd" d="M55,650l825,0l0,-31L55,619l0,31Z" class="g1_336" />
<path d="M45.5,621.5l0,-2" class="g5_336" />
<path d="M45.5,621.5l0,-2" class="g5_336" />
<path d="M46.5,621.5l842,0" class="g5_336" />
<path d="M888.5,621.5l0,-2" class="g5_336" />
<path d="M888.5,621.5l0,-2" class="g5_336" />
<path d="M45.5,650.5l0,-29" class="g5_336" />
<path d="M888.5,650.5l0,-29" class="g5_336" />
</g>
<path fill-rule="evenodd" d="M55,674l825,0l0,-24L55,650l0,24Z" class="g1_336" />
<g clip-path="url(#c11_336)">
<path d="M45.5,674.5l0,-24" class="g5_336" />
<path d="M888.5,674.5l0,-24" class="g5_336" />
</g>
<path fill-rule="evenodd" d="M55,698l825,0l0,-24L55,674l0,24Z" class="g1_336" />
<g clip-path="url(#c11_336)">
<path d="M45.5,698.5l0,-24" class="g5_336" />
<path d="M888.5,698.5l0,-24" class="g5_336" />
</g>
<path fill-rule="evenodd" d="M55,722l825,0l0,-24L55,698l0,24Z" class="g1_336" />
<g clip-path="url(#c11_336)">
<path d="M45.5,722.5l0,-24" class="g5_336" />
<path d="M888.5,722.5l0,-24" class="g5_336" />
</g>
<path fill-rule="evenodd" d="M55,746l825,0l0,-24L55,722l0,24Z" class="g1_336" />
<g clip-path="url(#c11_336)">
<path d="M45.5,746.5l0,-24" class="g5_336" />
<path d="M888.5,746.5l0,-24" class="g5_336" />
</g>
<path fill-rule="evenodd" d="M55,770l825,0l0,-24L55,746l0,24Z" class="g1_336" />
<g clip-path="url(#c11_336)">
<path d="M45.5,770.5l0,-24" class="g5_336" />
<path d="M888.5,770.5l0,-24" class="g5_336" />
</g>
<path fill-rule="evenodd" d="M55,801l825,0l0,-31L55,770l0,31Z" class="g1_336" />
<g clip-path="url(#c11_336)">
<path d="M45.5,801.5l0,-1" class="g5_336" />
<path d="M45.5,801.5l0,-1" class="g5_336" />
<path d="M46.5,801.5l842,0" class="g5_336" />
<path d="M888.5,801.5l0,-1" class="g5_336" />
<path d="M888.5,801.5l0,-1" class="g5_336" />
<path d="M45.5,800.5l0,-30" class="g5_336" />
<path d="M888.5,800.5l0,-30" class="g5_336" />
</g>
<path d="M46.5,619.5l0,-1" class="g2_336" />
<path d="M46.5,619.5l0,-1" class="g2_336" />
<path d="M47.5,619.5l840,0" class="g2_336" />
<path d="M887.5,619.5l0,-1" class="g2_336" />
<path d="M887.5,619.5l0,-1" class="g2_336" />
<path d="M46.5,801.5l0,-182" class="g2_336" />
<path d="M46.5,802.5l0,-1" class="g2_336" />
<path d="M46.5,802.5l0,-1" class="g2_336" />
<path d="M47.5,802.5l840,0" class="g2_336" />
<path d="M887.5,801.5l0,-182" class="g2_336" />
<path d="M887.5,802.5l0,-1" class="g2_336" />
<path d="M887.5,802.5l0,-1" class="g2_336" />
<path fill-rule="evenodd" d="M47,971l840,0l0,-96L47,875l0,96Z" class="g1_336" />
<g clip-path="url(#c12_336)">
<path fill-rule="evenodd" d="M55,899l825,0l0,-24L55,875l0,24Z" class="g1_336" />
</g>
<path fill-rule="evenodd" d="M55,923l825,0l0,-24L55,899l0,24Z" class="g1_336" />
<path fill-rule="evenodd" d="M55,947l825,0l0,-24L55,923l0,24Z" class="g1_336" />
<g clip-path="url(#c12_336)">
<path fill-rule="evenodd" d="M55,971l825,0l0,-24L55,947l0,24Z" class="g1_336" />
</g>
<path d="M46.5,875.5l0,-1" class="g2_336" />
<path d="M46.5,875.5l0,-1" class="g2_336" />
<path d="M47.5,875.5l840,0" class="g2_336" />
<path d="M887.5,875.5l0,-1" class="g2_336" />
<path d="M887.5,875.5l0,-1" class="g2_336" />
<path d="M46.5,971.5l0,-96" class="g2_336" />
<path d="M46.5,972.5l0,-1" class="g2_336" />
<path d="M46.5,972.5l0,-1" class="g2_336" />
<path d="M47.5,972.5l840,0" class="g2_336" />
<path d="M887.5,971.5l0,-96" class="g2_336" />
<path d="M887.5,972.5l0,-1" class="g2_336" />
<path d="M887.5,972.5l0,-1" class="g2_336" />
</svg>