<?xml version="1.0" encoding="UTF-8" standalone="no"?>
<!DOCTYPE svg PUBLIC "-//W3C//DTD SVG 1.1//EN"
"http://www.w3.org/Graphics/SVG/1.1/DTD/svg11.dtd">
<svg version="1.1" xmlns="http://www.w3.org/2000/svg" xmlns:xlink="http://www.w3.org/1999/xlink">
<defs>
<clipPath id="c0_468"><path d="M47.5,1096.5l0,-149l39,0l0,149Z" /></clipPath>
<clipPath id="c1_468"><path d="M536.5,1019.5l0,-72l350,0l0,72Z" /></clipPath>
<clipPath id="c2_468"><path d="M88.5,1096.5l0,-24l54,0l0,24Z" /></clipPath>
<clipPath id="c3_468"><path d="M144.5,1096.5l0,-24l317,0l0,24Z" /></clipPath>
<clipPath id="c4_468"><path d="M462.5,1096.5l0,-24l73,0l0,24Z" /></clipPath>
<clipPath id="c5_468"><path d="M536.5,1096.5l0,-24l350,0l0,24Z" /></clipPath>
<style type="text/css"><![CDATA[
.g2_468{
fill: none;
stroke: #7E7E7E;
stroke-width: 1;
stroke-linecap: butt;
stroke-linejoin: miter;
}
.g3_468{
fill: #F1F1F1;
}
.g1_468{
fill: #DBE5F1;
}
]]></style>
</defs>
<path fill-rule="evenodd" d="M47,946l414,0l0,-25L47,921l0,25Z" class="g1_468" />
<path fill-rule="evenodd" d="M55,945l398,0l0,-24L55,921l0,24Z" class="g1_468" />
<path fill-rule="evenodd" d="M462,946l73,0l0,-25l-73,0l0,25Z" class="g1_468" />
<path fill-rule="evenodd" d="M470,945l57,0l0,-24l-57,0l0,24Z" class="g1_468" />
<path fill-rule="evenodd" d="M536,946l350,0l0,-25l-350,0l0,25Z" class="g1_468" />
<path fill-rule="evenodd" d="M544,945l334,0l0,-24l-334,0l0,24Z" class="g1_468" />
<path d="M46.5,921.5l0,-1" class="g2_468" />
<path d="M46.5,921.5l0,-1" class="g2_468" />
<path d="M47.5,921.5l414,0" class="g2_468" />
<path d="M461.5,921.5l0,-1" class="g2_468" />
<path d="M462.5,921.5l73,0" class="g2_468" />
<path d="M535.5,921.5l0,-1" class="g2_468" />
<path d="M536.5,921.5l350,0" class="g2_468" />
<path d="M886.5,921.5l0,-1" class="g2_468" />
<path d="M886.5,921.5l0,-1" class="g2_468" />
<path d="M46.5,946.5l0,-25" class="g2_468" />
<path d="M461.5,946.5l0,-25" class="g2_468" />
<path d="M535.5,946.5l0,-25" class="g2_468" />
<path d="M886.5,946.5l0,-25" class="g2_468" />
<path fill-rule="evenodd" d="M47,1096l39,0L86,947l-39,0l0,149Z" class="g3_468" />
<g clip-path="url(#c0_468)">
<path fill-rule="evenodd" d="M55,1096l23,0L78,947l-23,0l0,149Z" class="g3_468" />
</g>
<path fill-rule="evenodd" d="M88,1019l373,0l0,-72L88,947l0,72Z" class="g3_468" />
<path fill-rule="evenodd" d="M95,971l358,0l0,-24L95,947l0,24Z" class="g3_468" />
<path fill-rule="evenodd" d="M462,1019l73,0l0,-72l-73,0l0,72Z" class="g3_468" />
<path fill-rule="evenodd" d="M470,971l57,0l0,-24l-57,0l0,24Z" class="g3_468" />
<path fill-rule="evenodd" d="M536,1019l350,0l0,-72l-350,0l0,72Z" class="g3_468" />
<path fill-rule="evenodd" d="M544,971l334,0l0,-24l-334,0l0,24Z" class="g3_468" />
<path fill-rule="evenodd" d="M544,995l334,0l0,-24l-334,0l0,24Z" class="g3_468" />
<g clip-path="url(#c1_468)">
<path fill-rule="evenodd" d="M544,1019l334,0l0,-24l-334,0l0,24Z" class="g3_468" />
</g>
<path d="M46.5,947.5l0,-1" class="g2_468" />
<path d="M47.5,947.5l39,0" class="g2_468" />
<path d="M86.5,947.5l0,-1" class="g2_468" />
<path d="M88.5,947.5l373,0" class="g2_468" />
<path d="M461.5,947.5l0,-1" class="g2_468" />
<path d="M462.5,947.5l73,0" class="g2_468" />
<path d="M535.5,947.5l0,-1" class="g2_468" />
<path d="M536.5,947.5l350,0" class="g2_468" />
<path d="M886.5,947.5l0,-1" class="g2_468" />
<path d="M46.5,1019.5l0,-72" class="g2_468" />
<path d="M86.5,1019.5l0,-72" class="g2_468" />
<path d="M461.5,1019.5l0,-72" class="g2_468" />
<path d="M535.5,1019.5l0,-72" class="g2_468" />
<path d="M886.5,1019.5l0,-72" class="g2_468" />
<path fill-rule="evenodd" d="M88,1045l373,0l0,-25l-373,0l0,25Z" class="g3_468" />
<path fill-rule="evenodd" d="M95,1044l358,0l0,-24l-358,0l0,24Z" class="g3_468" />
<path fill-rule="evenodd" d="M462,1045l73,0l0,-25l-73,0l0,25Z" class="g3_468" />
<path fill-rule="evenodd" d="M470,1044l57,0l0,-24l-57,0l0,24Z" class="g3_468" />
<path fill-rule="evenodd" d="M536,1045l350,0l0,-25l-350,0l0,25Z" class="g3_468" />
<path fill-rule="evenodd" d="M544,1044l334,0l0,-24l-334,0l0,24Z" class="g3_468" />
<path d="M46.5,1020.5l0,-1" class="g2_468" />
<path d="M86.5,1020.5l0,-1" class="g2_468" />
<path d="M88.5,1020.5l373,0" class="g2_468" />
<path d="M461.5,1020.5l0,-1" class="g2_468" />
<path d="M462.5,1020.5l73,0" class="g2_468" />
<path d="M535.5,1020.5l0,-1" class="g2_468" />
<path d="M536.5,1020.5l350,0" class="g2_468" />
<path d="M886.5,1020.5l0,-1" class="g2_468" />
<path d="M46.5,1045.5l0,-25" class="g2_468" />
<path d="M86.5,1045.5l0,-25" class="g2_468" />
<path d="M461.5,1045.5l0,-25" class="g2_468" />
<path d="M535.5,1045.5l0,-25" class="g2_468" />
<path d="M886.5,1045.5l0,-25" class="g2_468" />
<path fill-rule="evenodd" d="M88,1071l373,0l0,-25l-373,0l0,25Z" class="g3_468" />
<path fill-rule="evenodd" d="M95,1070l358,0l0,-24l-358,0l0,24Z" class="g3_468" />
<path fill-rule="evenodd" d="M462,1071l73,0l0,-25l-73,0l0,25Z" class="g3_468" />
<path fill-rule="evenodd" d="M470,1070l57,0l0,-24l-57,0l0,24Z" class="g3_468" />
<path fill-rule="evenodd" d="M536,1071l350,0l0,-25l-350,0l0,25Z" class="g3_468" />
<path fill-rule="evenodd" d="M544,1070l334,0l0,-24l-334,0l0,24Z" class="g3_468" />
<path d="M46.5,1046.5l0,-1" class="g2_468" />
<path d="M86.5,1046.5l0,-1" class="g2_468" />
<path d="M88.5,1046.5l373,0" class="g2_468" />
<path d="M461.5,1046.5l0,-1" class="g2_468" />
<path d="M462.5,1046.5l73,0" class="g2_468" />
<path d="M535.5,1046.5l0,-1" class="g2_468" />
<path d="M536.5,1046.5l350,0" class="g2_468" />
<path d="M886.5,1046.5l0,-1" class="g2_468" />
<path d="M46.5,1071.5l0,-25" class="g2_468" />
<path d="M86.5,1071.5l0,-25" class="g2_468" />
<path d="M461.5,1071.5l0,-25" class="g2_468" />
<path d="M535.5,1071.5l0,-25" class="g2_468" />
<path d="M886.5,1071.5l0,-25" class="g2_468" />
<path fill-rule="evenodd" d="M88,1096l54,0l0,-24l-54,0l0,24Z" class="g3_468" />
<g clip-path="url(#c2_468)">
<path fill-rule="evenodd" d="M95,1096l24,0l0,-24l-24,0l0,24Z" class="g3_468" />
<path fill-rule="evenodd" d="M119,1096l23,0l0,-24l-23,0l0,24Z" class="g3_468" />
</g>
<path fill-rule="evenodd" d="M144,1096l317,0l0,-24l-317,0l0,24Z" class="g3_468" />
<g clip-path="url(#c3_468)">
<path fill-rule="evenodd" d="M151,1096l302,0l0,-24l-302,0l0,24Z" class="g3_468" />
</g>
<path fill-rule="evenodd" d="M462,1096l73,0l0,-24l-73,0l0,24Z" class="g3_468" />
<g clip-path="url(#c4_468)">
<path fill-rule="evenodd" d="M470,1096l57,0l0,-24l-57,0l0,24Z" class="g3_468" />
</g>
<path fill-rule="evenodd" d="M536,1096l350,0l0,-24l-350,0l0,24Z" class="g3_468" />
<g clip-path="url(#c5_468)">
<path fill-rule="evenodd" d="M544,1096l334,0l0,-24l-334,0l0,24Z" class="g3_468" />
</g>
<path d="M46.5,1072.5l0,-1" class="g2_468" />
<path d="M86.5,1072.5l0,-1" class="g2_468" />
<path d="M88.5,1072.5l54,0" class="g2_468" />
<path d="M142.5,1072.5l0,-1" class="g2_468" />
<path d="M144.5,1072.5l317,0" class="g2_468" />
<path d="M461.5,1072.5l0,-1" class="g2_468" />
<path d="M462.5,1072.5l73,0" class="g2_468" />
<path d="M535.5,1072.5l0,-1" class="g2_468" />
<path d="M536.5,1072.5l350,0" class="g2_468" />
<path d="M886.5,1072.5l0,-1" class="g2_468" />
<path d="M46.5,1096.5l0,-24" class="g2_468" />
<path d="M46.5,1098.5l0,-2" class="g2_468" />
<path d="M46.5,1098.5l0,-2" class="g2_468" />
<path d="M47.5,1098.5l39,0" class="g2_468" />
<path d="M86.5,1096.5l0,-24" class="g2_468" />
<path d="M86.5,1098.5l0,-2" class="g2_468" />
<path d="M88.5,1098.5l54,0" class="g2_468" />
<path d="M142.5,1096.5l0,-24" class="g2_468" />
<path d="M142.5,1098.5l0,-2" class="g2_468" />
<path d="M144.5,1098.5l317,0" class="g2_468" />
<path d="M461.5,1096.5l0,-24" class="g2_468" />
<path d="M461.5,1098.5l0,-2" class="g2_468" />
<path d="M462.5,1098.5l73,0" class="g2_468" />
<path d="M535.5,1096.5l0,-24" class="g2_468" />
<path d="M535.5,1098.5l0,-2" class="g2_468" />
<path d="M536.5,1098.5l350,0" class="g2_468" />
<path d="M886.5,1096.5l0,-24" class="g2_468" />
<path d="M886.5,1098.5l0,-2" class="g2_468" />
<path d="M886.5,1098.5l0,-2" class="g2_468" />
<image x="55" y="116" width="595" height="774" xlink:href="img/1.png" />
</svg>