<?xml version="1.0" encoding="UTF-8" standalone="no"?>
<!DOCTYPE svg PUBLIC "-//W3C//DTD SVG 1.1//EN"
"http://www.w3.org/Graphics/SVG/1.1/DTD/svg11.dtd">
<svg version="1.1" xmlns="http://www.w3.org/2000/svg" xmlns:xlink="http://www.w3.org/1999/xlink">
<defs>
<clipPath id="c0_425"><path d="M47.5,359.5l0,-24l840,0l0,24Z" /></clipPath>
<clipPath id="c1_425"><path d="M47.5,679.5l0,-24l233,0l0,24Z" /></clipPath>
<clipPath id="c2_425"><path d="M282.5,679.5l0,-24l156,0l0,24Z" /></clipPath>
<clipPath id="c3_425"><path d="M440.5,679.5l0,-24l60,0l0,24Z" /></clipPath>
<clipPath id="c4_425"><path d="M502.5,679.5l0,-24l385,0l0,24Z" /></clipPath>
<clipPath id="c5_425"><path d="M47.5,705.5l0,-24l39,0l0,24Z" /></clipPath>
<clipPath id="c6_425"><path d="M88.5,705.5l0,-24l192,0l0,24Z" /></clipPath>
<clipPath id="c7_425"><path d="M282.5,705.5l0,-24l156,0l0,24Z" /></clipPath>
<clipPath id="c8_425"><path d="M440.5,705.5l0,-24l60,0l0,24Z" /></clipPath>
<clipPath id="c9_425"><path d="M502.5,705.5l0,-24l385,0l0,24Z" /></clipPath>
<style type="text/css"><![CDATA[
.g2_425{
fill: none;
stroke: #7E7E7E;
stroke-width: 1;
stroke-linecap: butt;
stroke-linejoin: miter;
}
.g3_425{
fill: #DBE5F1;
}
.g1_425{
fill: #F1F1F1;
}
]]></style>
</defs>
<path fill-rule="evenodd" d="M47,359l840,0l0,-24L47,335l0,24Z" class="g1_425" />
<g clip-path="url(#c0_425)">
<path fill-rule="evenodd" d="M55,359l825,0l0,-24L55,335l0,24Z" class="g1_425" />
</g>
<path d="M46.5,335.5l0,-2" class="g2_425" />
<path d="M46.5,335.5l0,-2" class="g2_425" />
<path d="M47.5,335.5l840,0" class="g2_425" />
<path d="M887.5,335.5l0,-2" class="g2_425" />
<path d="M887.5,335.5l0,-2" class="g2_425" />
<path d="M46.5,359.5l0,-24" class="g2_425" />
<path d="M46.5,360.5l0,-1" class="g2_425" />
<path d="M46.5,360.5l0,-1" class="g2_425" />
<path d="M47.5,360.5l840,0" class="g2_425" />
<path d="M887.5,359.5l0,-24" class="g2_425" />
<path d="M887.5,360.5l0,-1" class="g2_425" />
<path d="M887.5,360.5l0,-1" class="g2_425" />
<path fill-rule="evenodd" d="M47,442l178,0l0,-24L47,418l0,24Z" class="g3_425" />
<path fill-rule="evenodd" d="M55,442l162,0l0,-24L55,418l0,24Z" class="g3_425" />
<path fill-rule="evenodd" d="M226,442l163,0l0,-24l-163,0l0,24Z" class="g3_425" />
<path fill-rule="evenodd" d="M234,442l147,0l0,-24l-147,0l0,24Z" class="g3_425" />
<path fill-rule="evenodd" d="M390,442l497,0l0,-24l-497,0l0,24Z" class="g3_425" />
<path fill-rule="evenodd" d="M398,442l482,0l0,-24l-482,0l0,24Z" class="g3_425" />
<path d="M46.5,418.5l0,-2" class="g2_425" />
<path d="M46.5,418.5l0,-2" class="g2_425" />
<path d="M47.5,418.5l178,0" class="g2_425" />
<path d="M225.5,418.5l0,-2" class="g2_425" />
<path d="M226.5,418.5l163,0" class="g2_425" />
<path d="M389.5,418.5l0,-2" class="g2_425" />
<path d="M390.5,418.5l497,0" class="g2_425" />
<path d="M887.5,418.5l0,-2" class="g2_425" />
<path d="M887.5,418.5l0,-2" class="g2_425" />
<path d="M46.5,442.5l0,-24" class="g2_425" />
<path d="M225.5,442.5l0,-24" class="g2_425" />
<path d="M389.5,442.5l0,-24" class="g2_425" />
<path d="M887.5,442.5l0,-24" class="g2_425" />
<path fill-rule="evenodd" d="M47,467l178,0l0,-24L47,443l0,24Z" class="g1_425" />
<path fill-rule="evenodd" d="M55,467l162,0l0,-24L55,443l0,24Z" class="g1_425" />
<path fill-rule="evenodd" d="M226,467l163,0l0,-24l-163,0l0,24Z" class="g1_425" />
<path fill-rule="evenodd" d="M234,467l147,0l0,-24l-147,0l0,24Z" class="g1_425" />
<path fill-rule="evenodd" d="M390,467l497,0l0,-24l-497,0l0,24Z" class="g1_425" />
<path fill-rule="evenodd" d="M398,467l482,0l0,-24l-482,0l0,24Z" class="g1_425" />
<path d="M46.5,443.5l0,-1" class="g2_425" />
<path d="M47.5,443.5l178,0" class="g2_425" />
<path d="M225.5,443.5l0,-1" class="g2_425" />
<path d="M226.5,443.5l163,0" class="g2_425" />
<path d="M389.5,443.5l0,-1" class="g2_425" />
<path d="M390.5,443.5l497,0" class="g2_425" />
<path d="M887.5,443.5l0,-1" class="g2_425" />
<path d="M46.5,467.5l0,-24" class="g2_425" />
<path d="M46.5,469.5l0,-2" class="g2_425" />
<path d="M46.5,469.5l0,-2" class="g2_425" />
<path d="M47.5,469.5l178,0" class="g2_425" />
<path d="M225.5,467.5l0,-24" class="g2_425" />
<path d="M225.5,469.5l0,-2" class="g2_425" />
<path d="M226.5,469.5l163,0" class="g2_425" />
<path d="M389.5,467.5l0,-24" class="g2_425" />
<path d="M389.5,469.5l0,-2" class="g2_425" />
<path d="M390.5,469.5l497,0" class="g2_425" />
<path d="M887.5,467.5l0,-24" class="g2_425" />
<path d="M887.5,469.5l0,-2" class="g2_425" />
<path d="M887.5,469.5l0,-2" class="g2_425" />
<path fill-rule="evenodd" d="M47,542l177,0l0,-24L47,518l0,24Z" class="g3_425" />
<path fill-rule="evenodd" d="M55,542l162,0l0,-24L55,518l0,24Z" class="g3_425" />
<path fill-rule="evenodd" d="M226,542l162,0l0,-24l-162,0l0,24Z" class="g3_425" />
<path fill-rule="evenodd" d="M233,542l148,0l0,-24l-148,0l0,24Z" class="g3_425" />
<path fill-rule="evenodd" d="M390,542l163,0l0,-24l-163,0l0,24Z" class="g3_425" />
<path fill-rule="evenodd" d="M397,542l148,0l0,-24l-148,0l0,24Z" class="g3_425" />
<path fill-rule="evenodd" d="M554,542l163,0l0,-24l-163,0l0,24Z" class="g3_425" />
<path fill-rule="evenodd" d="M562,542l148,0l0,-24l-148,0l0,24Z" class="g3_425" />
<path fill-rule="evenodd" d="M719,542l168,0l0,-24l-168,0l0,24Z" class="g3_425" />
<path fill-rule="evenodd" d="M726,542l154,0l0,-24l-154,0l0,24Z" class="g3_425" />
<path d="M46.5,518.5l0,-2" class="g2_425" />
<path d="M46.5,518.5l0,-2" class="g2_425" />
<path d="M47.5,518.5l177,0" class="g2_425" />
<path d="M224.5,518.5l0,-2" class="g2_425" />
<path d="M226.5,518.5l162,0" class="g2_425" />
<path d="M388.5,518.5l0,-2" class="g2_425" />
<path d="M390.5,518.5l163,0" class="g2_425" />
<path d="M553.5,518.5l0,-2" class="g2_425" />
<path d="M554.5,518.5l163,0" class="g2_425" />
<path d="M717.5,518.5l0,-2" class="g2_425" />
<path d="M719.5,518.5l168,0" class="g2_425" />
<path d="M887.5,518.5l0,-2" class="g2_425" />
<path d="M887.5,518.5l0,-2" class="g2_425" />
<path d="M46.5,542.5l0,-24" class="g2_425" />
<path d="M224.5,542.5l0,-24" class="g2_425" />
<path d="M388.5,542.5l0,-24" class="g2_425" />
<path d="M553.5,542.5l0,-24" class="g2_425" />
<path d="M717.5,542.5l0,-24" class="g2_425" />
<path d="M887.5,542.5l0,-24" class="g2_425" />
<path fill-rule="evenodd" d="M47,567l177,0l0,-24L47,543l0,24Z" class="g1_425" />
<path fill-rule="evenodd" d="M55,567l162,0l0,-24L55,543l0,24Z" class="g1_425" />
<path fill-rule="evenodd" d="M226,567l162,0l0,-24l-162,0l0,24Z" class="g1_425" />
<path fill-rule="evenodd" d="M233,567l148,0l0,-24l-148,0l0,24Z" class="g1_425" />
<path fill-rule="evenodd" d="M390,567l163,0l0,-24l-163,0l0,24Z" class="g1_425" />
<path fill-rule="evenodd" d="M397,567l148,0l0,-24l-148,0l0,24Z" class="g1_425" />
<path fill-rule="evenodd" d="M554,567l163,0l0,-24l-163,0l0,24Z" class="g1_425" />
<path fill-rule="evenodd" d="M562,567l148,0l0,-24l-148,0l0,24Z" class="g1_425" />
<path fill-rule="evenodd" d="M719,567l168,0l0,-24l-168,0l0,24Z" class="g1_425" />
<path fill-rule="evenodd" d="M726,567l154,0l0,-24l-154,0l0,24Z" class="g1_425" />
<path d="M46.5,543.5l0,-1" class="g2_425" />
<path d="M47.5,543.5l177,0" class="g2_425" />
<path d="M224.5,543.5l0,-1" class="g2_425" />
<path d="M226.5,543.5l162,0" class="g2_425" />
<path d="M388.5,543.5l0,-1" class="g2_425" />
<path d="M390.5,543.5l163,0" class="g2_425" />
<path d="M553.5,543.5l0,-1" class="g2_425" />
<path d="M554.5,543.5l163,0" class="g2_425" />
<path d="M717.5,543.5l0,-1" class="g2_425" />
<path d="M719.5,543.5l168,0" class="g2_425" />
<path d="M887.5,543.5l0,-1" class="g2_425" />
<path d="M46.5,567.5l0,-24" class="g2_425" />
<path d="M46.5,569.5l0,-2" class="g2_425" />
<path d="M46.5,569.5l0,-2" class="g2_425" />
<path d="M47.5,569.5l177,0" class="g2_425" />
<path d="M224.5,567.5l0,-24" class="g2_425" />
<path d="M224.5,569.5l0,-2" class="g2_425" />
<path d="M226.5,569.5l162,0" class="g2_425" />
<path d="M388.5,567.5l0,-24" class="g2_425" />
<path d="M388.5,569.5l0,-2" class="g2_425" />
<path d="M390.5,569.5l163,0" class="g2_425" />
<path d="M553.5,567.5l0,-24" class="g2_425" />
<path d="M553.5,569.5l0,-2" class="g2_425" />
<path d="M554.5,569.5l163,0" class="g2_425" />
<path d="M717.5,567.5l0,-24" class="g2_425" />
<path d="M717.5,569.5l0,-2" class="g2_425" />
<path d="M719.5,569.5l168,0" class="g2_425" />
<path d="M887.5,567.5l0,-24" class="g2_425" />
<path d="M887.5,569.5l0,-2" class="g2_425" />
<path d="M887.5,569.5l0,-2" class="g2_425" />
<path fill-rule="evenodd" d="M47,679l233,0l0,-24L47,655l0,24Z" class="g3_425" />
<g clip-path="url(#c1_425)">
<path fill-rule="evenodd" d="M55,679l218,0l0,-24L55,655l0,24Z" class="g3_425" />
</g>
<path fill-rule="evenodd" d="M281,679l157,0l0,-24l-157,0l0,24Z" class="g3_425" />
<g clip-path="url(#c2_425)">
<path fill-rule="evenodd" d="M289,679l142,0l0,-24l-142,0l0,24Z" class="g3_425" />
</g>
<path fill-rule="evenodd" d="M440,679l60,0l0,-24l-60,0l0,24Z" class="g3_425" />
<g clip-path="url(#c3_425)">
<path fill-rule="evenodd" d="M447,679l46,0l0,-24l-46,0l0,24Z" class="g3_425" />
</g>
<path fill-rule="evenodd" d="M502,679l385,0l0,-24l-385,0l0,24Z" class="g3_425" />
<g clip-path="url(#c4_425)">
<path fill-rule="evenodd" d="M509,679l371,0l0,-24l-371,0l0,24Z" class="g3_425" />
</g>
<path d="M46.5,655.5l0,-1" class="g2_425" />
<path d="M46.5,655.5l0,-1" class="g2_425" />
<path d="M47.5,655.5l233,0" class="g2_425" />
<path d="M280.5,655.5l0,-1" class="g2_425" />
<path d="M281.5,655.5l157,0" class="g2_425" />
<path d="M438.5,655.5l0,-1" class="g2_425" />
<path d="M440.5,655.5l60,0" class="g2_425" />
<path d="M500.5,655.5l0,-1" class="g2_425" />
<path d="M502.5,655.5l385,0" class="g2_425" />
<path d="M887.5,655.5l0,-1" class="g2_425" />
<path d="M887.5,655.5l0,-1" class="g2_425" />
<path d="M46.5,679.5l0,-24" class="g2_425" />
<path d="M280.5,679.5l0,-24" class="g2_425" />
<path d="M438.5,679.5l0,-24" class="g2_425" />
<path d="M500.5,679.5l0,-24" class="g2_425" />
<path d="M887.5,679.5l0,-24" class="g2_425" />
<path fill-rule="evenodd" d="M47,705l39,0l0,-24l-39,0l0,24Z" class="g1_425" />
<g clip-path="url(#c5_425)">
<path fill-rule="evenodd" d="M55,705l23,0l0,-24l-23,0l0,24Z" class="g1_425" />
<path fill-rule="evenodd" d="M78,705l8,0l0,-24l-8,0l0,24Z" class="g1_425" />
</g>
<path fill-rule="evenodd" d="M88,705l192,0l0,-24L88,681l0,24Z" class="g1_425" />
<g clip-path="url(#c6_425)">
<path fill-rule="evenodd" d="M95,705l178,0l0,-24L95,681l0,24Z" class="g1_425" />
</g>
<path fill-rule="evenodd" d="M281,705l157,0l0,-24l-157,0l0,24Z" class="g1_425" />
<g clip-path="url(#c7_425)">
<path fill-rule="evenodd" d="M289,705l142,0l0,-24l-142,0l0,24Z" class="g1_425" />
</g>
<path fill-rule="evenodd" d="M440,705l60,0l0,-24l-60,0l0,24Z" class="g1_425" />
<g clip-path="url(#c8_425)">
<path fill-rule="evenodd" d="M447,705l46,0l0,-24l-46,0l0,24Z" class="g1_425" />
</g>
<path fill-rule="evenodd" d="M502,705l385,0l0,-24l-385,0l0,24Z" class="g1_425" />
<g clip-path="url(#c9_425)">
<path fill-rule="evenodd" d="M509,705l371,0l0,-24l-371,0l0,24Z" class="g1_425" />
</g>
<path d="M46.5,681.5l0,-2" class="g2_425" />
<path d="M47.5,681.5l39,0" class="g2_425" />
<path d="M86.5,681.5l0,-2" class="g2_425" />
<path d="M88.5,681.5l192,0" class="g2_425" />
<path d="M280.5,681.5l0,-2" class="g2_425" />
<path d="M281.5,681.5l157,0" class="g2_425" />
<path d="M438.5,681.5l0,-2" class="g2_425" />
<path d="M440.5,681.5l60,0" class="g2_425" />
<path d="M500.5,681.5l0,-2" class="g2_425" />
<path d="M502.5,681.5l385,0" class="g2_425" />
<path d="M887.5,681.5l0,-2" class="g2_425" />
<path d="M46.5,705.5l0,-24" class="g2_425" />
<path d="M46.5,707.5l0,-2" class="g2_425" />
<path d="M46.5,707.5l0,-2" class="g2_425" />
<path d="M47.5,707.5l39,0" class="g2_425" />
<path d="M86.5,705.5l0,-24" class="g2_425" />
<path d="M86.5,707.5l0,-2" class="g2_425" />
<path d="M88.5,707.5l192,0" class="g2_425" />
<path d="M280.5,705.5l0,-24" class="g2_425" />
<path d="M280.5,707.5l0,-2" class="g2_425" />
<path d="M281.5,707.5l157,0" class="g2_425" />
<path d="M438.5,705.5l0,-24" class="g2_425" />
<path d="M438.5,707.5l0,-2" class="g2_425" />
<path d="M440.5,707.5l60,0" class="g2_425" />
<path d="M500.5,705.5l0,-24" class="g2_425" />
<path d="M500.5,707.5l0,-2" class="g2_425" />
<path d="M502.5,707.5l385,0" class="g2_425" />
<path d="M887.5,705.5l0,-24" class="g2_425" />
<path d="M887.5,707.5l0,-2" class="g2_425" />
<path d="M887.5,707.5l0,-2" class="g2_425" />
</svg>