<?xml version="1.0" encoding="UTF-8" standalone="no"?>
<!DOCTYPE svg PUBLIC "-//W3C//DTD SVG 1.1//EN"
"http://www.w3.org/Graphics/SVG/1.1/DTD/svg11.dtd">
<svg version="1.1" xmlns="http://www.w3.org/2000/svg" xmlns:xlink="http://www.w3.org/1999/xlink">
<defs>
<clipPath id="c0_48"><path d="M571.5,135.5l0,-24l316,0l0,24Z" /></clipPath>
<clipPath id="c1_48"><path d="M111.5,518.5l0,-382l366,0l0,382Z" /></clipPath>
<clipPath id="c2_48"><path d="M479.5,518.5l0,-382l91,0l0,382Z" /></clipPath>
<clipPath id="c3_48"><path d="M571.5,518.5l0,-382l316,0l0,382Z" /></clipPath>
<clipPath id="c4_48"><path d="M111.5,786.5l0,-48l366,0l0,48Z" /></clipPath>
<clipPath id="c5_48"><path d="M479.5,786.5l0,-48l91,0l0,48Z" /></clipPath>
<clipPath id="c6_48"><path d="M571.5,786.5l0,-48l316,0l0,48Z" /></clipPath>
<clipPath id="c7_48"><path d="M111.5,835.5l0,-47l366,0l0,47Z" /></clipPath>
<clipPath id="c8_48"><path d="M479.5,835.5l0,-47l91,0l0,47Z" /></clipPath>
<clipPath id="c9_48"><path d="M571.5,835.5l0,-47l316,0l0,47Z" /></clipPath>
<clipPath id="c10_48"><path d="M47.5,958.5l0,-24l840,0l0,24Z" /></clipPath>
<clipPath id="c11_48"><path d="M47.5,1080.5l0,-95l840,0l0,95Z" /></clipPath>
<style type="text/css"><![CDATA[
.g2_48{
fill: none;
stroke: #7E7E7E;
stroke-width: 1;
stroke-linecap: butt;
stroke-linejoin: miter;
}
.g1_48{
fill: #F1F1F1;
}
]]></style>
</defs>
<path fill-rule="evenodd" d="M47,135l63,0l0,-24l-63,0l0,24Z" class="g1_48" />
<path fill-rule="evenodd" d="M111,135l366,0l0,-24l-366,0l0,24Z" class="g1_48" />
<path fill-rule="evenodd" d="M479,135l91,0l0,-24l-91,0l0,24Z" class="g1_48" />
<path fill-rule="evenodd" d="M571,135l316,0l0,-24l-316,0l0,24Z" class="g1_48" />
<g clip-path="url(#c0_48)">
<path fill-rule="evenodd" d="M579,135l301,0l0,-24l-301,0l0,24Z" class="g1_48" />
</g>
<path d="M46.5,111.5l0,-1" class="g2_48" />
<path d="M46.5,111.5l0,-1" class="g2_48" />
<path d="M47.5,111.5l63,0" class="g2_48" />
<path d="M110.5,111.5l0,-1" class="g2_48" />
<path d="M111.5,111.5l366,0" class="g2_48" />
<path d="M477.5,111.5l0,-1" class="g2_48" />
<path d="M479.5,111.5l91,0" class="g2_48" />
<path d="M570.5,111.5l0,-1" class="g2_48" />
<path d="M571.5,111.5l316,0" class="g2_48" />
<path d="M887.5,111.5l0,-1" class="g2_48" />
<path d="M887.5,111.5l0,-1" class="g2_48" />
<path d="M46.5,135.5l0,-24" class="g2_48" />
<path d="M110.5,135.5l0,-24" class="g2_48" />
<path d="M477.5,135.5l0,-24" class="g2_48" />
<path d="M570.5,135.5l0,-24" class="g2_48" />
<path d="M887.5,135.5l0,-24" class="g2_48" />
<path fill-rule="evenodd" d="M47,518l63,0l0,-383l-63,0l0,383Z" class="g1_48" />
<path fill-rule="evenodd" d="M111,518l366,0l0,-382l-366,0l0,382Z" class="g1_48" />
<g clip-path="url(#c1_48)">
<path fill-rule="evenodd" d="M119,160l351,0l0,-24l-351,0l0,24Z" class="g1_48" />
</g>
<path fill-rule="evenodd" d="M479,518l91,0l0,-382l-91,0l0,382Z" class="g1_48" />
<g clip-path="url(#c2_48)">
<path fill-rule="evenodd" d="M486,160l76,0l0,-24l-76,0l0,24Z" class="g1_48" />
</g>
<path fill-rule="evenodd" d="M571,518l316,0l0,-382l-316,0l0,382Z" class="g1_48" />
<g clip-path="url(#c3_48)">
<path fill-rule="evenodd" d="M579,160l301,0l0,-24l-301,0l0,24Z" class="g1_48" />
</g>
<path fill-rule="evenodd" d="M579,184l301,0l0,-24l-301,0l0,24Z" class="g1_48" />
<path fill-rule="evenodd" d="M579,208l301,0l0,-24l-301,0l0,24Z" class="g1_48" />
<path fill-rule="evenodd" d="M579,232l301,0l0,-24l-301,0l0,24Z" class="g1_48" />
<path fill-rule="evenodd" d="M579,256l301,0l0,-24l-301,0l0,24Z" class="g1_48" />
<path fill-rule="evenodd" d="M579,279l301,0l0,-23l-301,0l0,23Z" class="g1_48" />
<path fill-rule="evenodd" d="M579,303l301,0l0,-24l-301,0l0,24Z" class="g1_48" />
<path fill-rule="evenodd" d="M579,327l301,0l0,-24l-301,0l0,24Z" class="g1_48" />
<path fill-rule="evenodd" d="M579,351l301,0l0,-24l-301,0l0,24Z" class="g1_48" />
<path fill-rule="evenodd" d="M579,375l301,0l0,-24l-301,0l0,24Z" class="g1_48" />
<path fill-rule="evenodd" d="M579,399l301,0l0,-24l-301,0l0,24Z" class="g1_48" />
<path fill-rule="evenodd" d="M579,423l301,0l0,-24l-301,0l0,24Z" class="g1_48" />
<path fill-rule="evenodd" d="M579,446l301,0l0,-23l-301,0l0,23Z" class="g1_48" />
<path fill-rule="evenodd" d="M579,470l301,0l0,-24l-301,0l0,24Z" class="g1_48" />
<path fill-rule="evenodd" d="M579,494l301,0l0,-24l-301,0l0,24Z" class="g1_48" />
<path fill-rule="evenodd" d="M579,518l301,0l0,-24l-301,0l0,24Z" class="g1_48" />
<path d="M46.5,136.5l0,-1" class="g2_48" />
<path d="M110.5,136.5l0,-1" class="g2_48" />
<path d="M111.5,136.5l366,0" class="g2_48" />
<path d="M477.5,136.5l0,-1" class="g2_48" />
<path d="M479.5,136.5l91,0" class="g2_48" />
<path d="M570.5,136.5l0,-1" class="g2_48" />
<path d="M571.5,136.5l316,0" class="g2_48" />
<path d="M887.5,136.5l0,-1" class="g2_48" />
<path d="M46.5,518.5l0,-382" class="g2_48" />
<path d="M110.5,518.5l0,-382" class="g2_48" />
<path d="M477.5,518.5l0,-382" class="g2_48" />
<path d="M570.5,518.5l0,-382" class="g2_48" />
<path d="M887.5,518.5l0,-382" class="g2_48" />
<path fill-rule="evenodd" d="M47,543l63,0l0,-25l-63,0l0,25Z" class="g1_48" />
<path fill-rule="evenodd" d="M111,543l366,0l0,-24l-366,0l0,24Z" class="g1_48" />
<path fill-rule="evenodd" d="M119,543l351,0l0,-24l-351,0l0,24Z" class="g1_48" />
<path fill-rule="evenodd" d="M479,543l91,0l0,-24l-91,0l0,24Z" class="g1_48" />
<path fill-rule="evenodd" d="M486,543l76,0l0,-24l-76,0l0,24Z" class="g1_48" />
<path fill-rule="evenodd" d="M571,543l316,0l0,-24l-316,0l0,24Z" class="g1_48" />
<path fill-rule="evenodd" d="M579,543l301,0l0,-24l-301,0l0,24Z" class="g1_48" />
<path d="M46.5,519.5l0,-1" class="g2_48" />
<path d="M110.5,519.5l0,-1" class="g2_48" />
<path d="M111.5,519.5l366,0" class="g2_48" />
<path d="M477.5,519.5l0,-1" class="g2_48" />
<path d="M479.5,519.5l91,0" class="g2_48" />
<path d="M570.5,519.5l0,-1" class="g2_48" />
<path d="M571.5,519.5l316,0" class="g2_48" />
<path d="M887.5,519.5l0,-1" class="g2_48" />
<path d="M46.5,543.5l0,-24" class="g2_48" />
<path d="M110.5,543.5l0,-24" class="g2_48" />
<path d="M477.5,543.5l0,-24" class="g2_48" />
<path d="M570.5,543.5l0,-24" class="g2_48" />
<path d="M887.5,543.5l0,-24" class="g2_48" />
<path fill-rule="evenodd" d="M47,592l63,0l0,-49l-63,0l0,49Z" class="g1_48" />
<path fill-rule="evenodd" d="M111,592l366,0l0,-47l-366,0l0,47Z" class="g1_48" />
<path fill-rule="evenodd" d="M119,568l351,0l0,-23l-351,0l0,23Z" class="g1_48" />
<path fill-rule="evenodd" d="M479,592l91,0l0,-47l-91,0l0,47Z" class="g1_48" />
<path fill-rule="evenodd" d="M486,568l76,0l0,-23l-76,0l0,23Z" class="g1_48" />
<path fill-rule="evenodd" d="M571,592l316,0l0,-47l-316,0l0,47Z" class="g1_48" />
<path fill-rule="evenodd" d="M579,568l301,0l0,-23l-301,0l0,23Z" class="g1_48" />
<path fill-rule="evenodd" d="M579,592l301,0l0,-24l-301,0l0,24Z" class="g1_48" />
<path d="M46.5,545.5l0,-2" class="g2_48" />
<path d="M110.5,545.5l0,-2" class="g2_48" />
<path d="M111.5,545.5l366,0" class="g2_48" />
<path d="M477.5,545.5l0,-2" class="g2_48" />
<path d="M479.5,545.5l91,0" class="g2_48" />
<path d="M570.5,545.5l0,-2" class="g2_48" />
<path d="M571.5,545.5l316,0" class="g2_48" />
<path d="M887.5,545.5l0,-2" class="g2_48" />
<path d="M46.5,592.5l0,-47" class="g2_48" />
<path d="M110.5,592.5l0,-47" class="g2_48" />
<path d="M477.5,592.5l0,-47" class="g2_48" />
<path d="M570.5,592.5l0,-47" class="g2_48" />
<path d="M887.5,592.5l0,-47" class="g2_48" />
<path fill-rule="evenodd" d="M47,737l63,0l0,-145l-63,0l0,145Z" class="g1_48" />
<path fill-rule="evenodd" d="M111,737l366,0l0,-143l-366,0l0,143Z" class="g1_48" />
<path fill-rule="evenodd" d="M119,618l351,0l0,-24l-351,0l0,24Z" class="g1_48" />
<path fill-rule="evenodd" d="M479,737l91,0l0,-143l-91,0l0,143Z" class="g1_48" />
<path fill-rule="evenodd" d="M486,618l76,0l0,-24l-76,0l0,24Z" class="g1_48" />
<path fill-rule="evenodd" d="M486,642l76,0l0,-24l-76,0l0,24Z" class="g1_48" />
<path fill-rule="evenodd" d="M486,665l76,0l0,-23l-76,0l0,23Z" class="g1_48" />
<path fill-rule="evenodd" d="M571,737l316,0l0,-143l-316,0l0,143Z" class="g1_48" />
<path fill-rule="evenodd" d="M579,618l301,0l0,-24l-301,0l0,24Z" class="g1_48" />
<path fill-rule="evenodd" d="M579,642l301,0l0,-24l-301,0l0,24Z" class="g1_48" />
<path fill-rule="evenodd" d="M579,665l301,0l0,-23l-301,0l0,23Z" class="g1_48" />
<path fill-rule="evenodd" d="M579,689l301,0l0,-24l-301,0l0,24Z" class="g1_48" />
<path fill-rule="evenodd" d="M579,713l301,0l0,-24l-301,0l0,24Z" class="g1_48" />
<path fill-rule="evenodd" d="M579,737l301,0l0,-24l-301,0l0,24Z" class="g1_48" />
<path d="M46.5,594.5l0,-2" class="g2_48" />
<path d="M110.5,594.5l0,-2" class="g2_48" />
<path d="M111.5,594.5l366,0" class="g2_48" />
<path d="M477.5,594.5l0,-2" class="g2_48" />
<path d="M479.5,594.5l91,0" class="g2_48" />
<path d="M570.5,594.5l0,-2" class="g2_48" />
<path d="M571.5,594.5l316,0" class="g2_48" />
<path d="M887.5,594.5l0,-2" class="g2_48" />
<path d="M46.5,737.5l0,-143" class="g2_48" />
<path d="M110.5,737.5l0,-143" class="g2_48" />
<path d="M477.5,737.5l0,-143" class="g2_48" />
<path d="M570.5,737.5l0,-143" class="g2_48" />
<path d="M887.5,737.5l0,-143" class="g2_48" />
<path fill-rule="evenodd" d="M47,786l63,0l0,-49l-63,0l0,49Z" class="g1_48" />
<path fill-rule="evenodd" d="M111,786l366,0l0,-48l-366,0l0,48Z" class="g1_48" />
<g clip-path="url(#c4_48)">
<path fill-rule="evenodd" d="M119,762l351,0l0,-24l-351,0l0,24Z" class="g1_48" />
</g>
<path fill-rule="evenodd" d="M479,786l91,0l0,-48l-91,0l0,48Z" class="g1_48" />
<g clip-path="url(#c5_48)">
<path fill-rule="evenodd" d="M486,762l76,0l0,-24l-76,0l0,24Z" class="g1_48" />
</g>
<path fill-rule="evenodd" d="M571,786l316,0l0,-48l-316,0l0,48Z" class="g1_48" />
<g clip-path="url(#c6_48)">
<path fill-rule="evenodd" d="M579,762l301,0l0,-24l-301,0l0,24Z" class="g1_48" />
</g>
<path fill-rule="evenodd" d="M579,786l301,0l0,-24l-301,0l0,24Z" class="g1_48" />
<path d="M46.5,738.5l0,-1" class="g2_48" />
<path d="M110.5,738.5l0,-1" class="g2_48" />
<path d="M111.5,738.5l366,0" class="g2_48" />
<path d="M477.5,738.5l0,-1" class="g2_48" />
<path d="M479.5,738.5l91,0" class="g2_48" />
<path d="M570.5,738.5l0,-1" class="g2_48" />
<path d="M571.5,738.5l316,0" class="g2_48" />
<path d="M887.5,738.5l0,-1" class="g2_48" />
<path d="M46.5,786.5l0,-48" class="g2_48" />
<path d="M110.5,786.5l0,-48" class="g2_48" />
<path d="M477.5,786.5l0,-48" class="g2_48" />
<path d="M570.5,786.5l0,-48" class="g2_48" />
<path d="M887.5,786.5l0,-48" class="g2_48" />
<path fill-rule="evenodd" d="M47,835l63,0l0,-49l-63,0l0,49Z" class="g1_48" />
<path fill-rule="evenodd" d="M111,835l366,0l0,-47l-366,0l0,47Z" class="g1_48" />
<g clip-path="url(#c7_48)">
<path fill-rule="evenodd" d="M119,811l351,0l0,-23l-351,0l0,23Z" class="g1_48" />
</g>
<path fill-rule="evenodd" d="M479,835l91,0l0,-47l-91,0l0,47Z" class="g1_48" />
<g clip-path="url(#c8_48)">
<path fill-rule="evenodd" d="M486,811l76,0l0,-23l-76,0l0,23Z" class="g1_48" />
</g>
<path fill-rule="evenodd" d="M571,835l316,0l0,-47l-316,0l0,47Z" class="g1_48" />
<g clip-path="url(#c9_48)">
<path fill-rule="evenodd" d="M579,811l301,0l0,-23l-301,0l0,23Z" class="g1_48" />
</g>
<path fill-rule="evenodd" d="M579,835l301,0l0,-24l-301,0l0,24Z" class="g1_48" />
<path d="M46.5,788.5l0,-2" class="g2_48" />
<path d="M110.5,788.5l0,-2" class="g2_48" />
<path d="M111.5,788.5l366,0" class="g2_48" />
<path d="M477.5,788.5l0,-2" class="g2_48" />
<path d="M479.5,788.5l91,0" class="g2_48" />
<path d="M570.5,788.5l0,-2" class="g2_48" />
<path d="M571.5,788.5l316,0" class="g2_48" />
<path d="M887.5,788.5l0,-2" class="g2_48" />
<path d="M46.5,835.5l0,-47" class="g2_48" />
<path d="M46.5,837.5l0,-2" class="g2_48" />
<path d="M46.5,837.5l0,-2" class="g2_48" />
<path d="M47.5,837.5l63,0" class="g2_48" />
<path d="M110.5,835.5l0,-47" class="g2_48" />
<path d="M110.5,837.5l0,-2" class="g2_48" />
<path d="M111.5,837.5l366,0" class="g2_48" />
<path d="M477.5,835.5l0,-47" class="g2_48" />
<path d="M477.5,837.5l0,-2" class="g2_48" />
<path d="M479.5,837.5l91,0" class="g2_48" />
<path d="M570.5,835.5l0,-47" class="g2_48" />
<path d="M570.5,837.5l0,-2" class="g2_48" />
<path d="M571.5,837.5l316,0" class="g2_48" />
<path d="M887.5,835.5l0,-47" class="g2_48" />
<path d="M887.5,837.5l0,-2" class="g2_48" />
<path d="M887.5,837.5l0,-2" class="g2_48" />
<path fill-rule="evenodd" d="M47,958l840,0l0,-24L47,934l0,24Z" class="g1_48" />
<g clip-path="url(#c10_48)">
<path fill-rule="evenodd" d="M55,958l825,0l0,-24L55,934l0,24Z" class="g1_48" />
</g>
<path d="M46.5,934.5l0,-2" class="g2_48" />
<path d="M46.5,934.5l0,-2" class="g2_48" />
<path d="M47.5,934.5l840,0" class="g2_48" />
<path d="M887.5,934.5l0,-2" class="g2_48" />
<path d="M887.5,934.5l0,-2" class="g2_48" />
<path d="M46.5,958.5l0,-24" class="g2_48" />
<path d="M46.5,959.5l0,-1" class="g2_48" />
<path d="M46.5,959.5l0,-1" class="g2_48" />
<path d="M47.5,959.5l840,0" class="g2_48" />
<path d="M887.5,958.5l0,-24" class="g2_48" />
<path d="M887.5,959.5l0,-1" class="g2_48" />
<path d="M887.5,959.5l0,-1" class="g2_48" />
<path fill-rule="evenodd" d="M47,1080l840,0l0,-95L47,985l0,95Z" class="g1_48" />
<path fill-rule="evenodd" d="M55,1008l825,0l0,-23L55,985l0,23Z" class="g1_48" />
<path fill-rule="evenodd" d="M55,1032l825,0l0,-24l-825,0l0,24Z" class="g1_48" />
<path fill-rule="evenodd" d="M55,1056l825,0l0,-24l-825,0l0,24Z" class="g1_48" />
<g clip-path="url(#c11_48)">
<path fill-rule="evenodd" d="M55,1080l825,0l0,-24l-825,0l0,24Z" class="g1_48" />
</g>
<path d="M46.5,984.5l0,-1" class="g2_48" />
<path d="M46.5,984.5l0,-1" class="g2_48" />
<path d="M47.5,984.5l840,0" class="g2_48" />
<path d="M887.5,984.5l0,-1" class="g2_48" />
<path d="M887.5,984.5l0,-1" class="g2_48" />
<path d="M46.5,1080.5l0,-96" class="g2_48" />
<path d="M46.5,1081.5l0,-1" class="g2_48" />
<path d="M46.5,1081.5l0,-1" class="g2_48" />
<path d="M47.5,1081.5l840,0" class="g2_48" />
<path d="M887.5,1080.5l0,-96" class="g2_48" />
<path d="M887.5,1081.5l0,-1" class="g2_48" />
<path d="M887.5,1081.5l0,-1" class="g2_48" />
</svg>