<?xml version="1.0" encoding="UTF-8" standalone="no"?>
<!DOCTYPE svg PUBLIC "-//W3C//DTD SVG 1.1//EN"
"http://www.w3.org/Graphics/SVG/1.1/DTD/svg11.dtd">
<svg version="1.1" xmlns="http://www.w3.org/2000/svg" xmlns:xlink="http://www.w3.org/1999/xlink">
<defs>
<clipPath id="c0_188"><path d="M193.5,221.5l0,-110l53,0l0,110Z" /></clipPath>
<clipPath id="c1_188"><path d="M248.5,221.5l0,-110l95,0l0,110Z" /></clipPath>
<clipPath id="c2_188"><path d="M344.5,221.5l0,-110l81,0l0,110Z" /></clipPath>
<clipPath id="c3_188"><path d="M427.5,221.5l0,-110l460,0l0,110Z" /></clipPath>
<clipPath id="c4_188"><path d="M47.5,343.5l0,-24l840,0l0,24Z" /></clipPath>
<clipPath id="c5_188"><path d="M47.5,1085.5l0,-715l840,0l0,715Z" /></clipPath>
<style type="text/css"><![CDATA[
.g2_188{
fill: none;
stroke: #7E7E7E;
stroke-width: 1;
stroke-linecap: butt;
stroke-linejoin: miter;
}
.g1_188{
fill: #F1F1F1;
}
]]></style>
</defs>
<path fill-rule="evenodd" d="M47,221l39,0L86,111l-39,0l0,110Z" class="g1_188" />
<path fill-rule="evenodd" d="M88,221l35,0l0,-110l-35,0l0,110Z" class="g1_188" />
<path fill-rule="evenodd" d="M124,221l33,0l0,-110l-33,0l0,110Z" class="g1_188" />
<path fill-rule="evenodd" d="M158,221l33,0l0,-110l-33,0l0,110Z" class="g1_188" />
<path fill-rule="evenodd" d="M193,221l53,0l0,-110l-53,0l0,110Z" class="g1_188" />
<g clip-path="url(#c0_188)">
<path fill-rule="evenodd" d="M200,221l24,0l0,-110l-24,0l0,110Z" class="g1_188" />
</g>
<path fill-rule="evenodd" d="M248,221l95,0l0,-110l-95,0l0,110Z" class="g1_188" />
<g clip-path="url(#c1_188)">
<path fill-rule="evenodd" d="M255,135l80,0l0,-24l-80,0l0,24Z" class="g1_188" />
</g>
<path fill-rule="evenodd" d="M344,221l81,0l0,-110l-81,0l0,110Z" class="g1_188" />
<g clip-path="url(#c2_188)">
<path fill-rule="evenodd" d="M352,135l66,0l0,-24l-66,0l0,24Z" class="g1_188" />
</g>
<path fill-rule="evenodd" d="M427,221l460,0l0,-110l-460,0l0,110Z" class="g1_188" />
<g clip-path="url(#c3_188)">
<path fill-rule="evenodd" d="M434,135l446,0l0,-24l-446,0l0,24Z" class="g1_188" />
</g>
<path d="M46.5,111.5l0,-1" class="g2_188" />
<path d="M46.5,111.5l0,-1" class="g2_188" />
<path d="M47.5,111.5l39,0" class="g2_188" />
<path d="M86.5,111.5l0,-1" class="g2_188" />
<path d="M88.5,111.5l35,0" class="g2_188" />
<path d="M123.5,111.5l0,-1" class="g2_188" />
<path d="M124.5,111.5l33,0" class="g2_188" />
<path d="M157.5,111.5l0,-1" class="g2_188" />
<path d="M158.5,111.5l33,0" class="g2_188" />
<path d="M191.5,111.5l0,-1" class="g2_188" />
<path d="M193.5,111.5l53,0" class="g2_188" />
<path d="M246.5,111.5l0,-1" class="g2_188" />
<path d="M248.5,111.5l95,0" class="g2_188" />
<path d="M343.5,111.5l0,-1" class="g2_188" />
<path d="M344.5,111.5l81,0" class="g2_188" />
<path d="M425.5,111.5l0,-1" class="g2_188" />
<path d="M427.5,111.5l460,0" class="g2_188" />
<path d="M887.5,111.5l0,-1" class="g2_188" />
<path d="M887.5,111.5l0,-1" class="g2_188" />
<path d="M46.5,221.5l0,-110" class="g2_188" />
<path d="M46.5,222.5l0,-1" class="g2_188" />
<path d="M46.5,222.5l0,-1" class="g2_188" />
<path d="M47.5,222.5l39,0" class="g2_188" />
<path d="M86.5,221.5l0,-110" class="g2_188" />
<path d="M86.5,222.5l0,-1" class="g2_188" />
<path d="M88.5,222.5l35,0" class="g2_188" />
<path d="M123.5,221.5l0,-110" class="g2_188" />
<path d="M123.5,222.5l0,-1" class="g2_188" />
<path d="M124.5,222.5l33,0" class="g2_188" />
<path d="M157.5,221.5l0,-110" class="g2_188" />
<path d="M157.5,222.5l0,-1" class="g2_188" />
<path d="M158.5,222.5l33,0" class="g2_188" />
<path d="M191.5,221.5l0,-110" class="g2_188" />
<path d="M191.5,222.5l0,-1" class="g2_188" />
<path d="M193.5,222.5l53,0" class="g2_188" />
<path d="M246.5,221.5l0,-110" class="g2_188" />
<path d="M246.5,222.5l0,-1" class="g2_188" />
<path d="M248.5,222.5l95,0" class="g2_188" />
<path d="M343.5,221.5l0,-110" class="g2_188" />
<path d="M343.5,222.5l0,-1" class="g2_188" />
<path d="M344.5,222.5l81,0" class="g2_188" />
<path d="M425.5,221.5l0,-110" class="g2_188" />
<path d="M425.5,222.5l0,-1" class="g2_188" />
<path d="M427.5,222.5l460,0" class="g2_188" />
<path d="M887.5,221.5l0,-110" class="g2_188" />
<path d="M887.5,222.5l0,-1" class="g2_188" />
<path d="M887.5,222.5l0,-1" class="g2_188" />
<path fill-rule="evenodd" d="M47,343l840,0l0,-24L47,319l0,24Z" class="g1_188" />
<g clip-path="url(#c4_188)">
<path fill-rule="evenodd" d="M55,343l825,0l0,-24L55,319l0,24Z" class="g1_188" />
</g>
<path d="M46.5,319.5l0,-1" class="g2_188" />
<path d="M46.5,319.5l0,-1" class="g2_188" />
<path d="M47.5,319.5l840,0" class="g2_188" />
<path d="M887.5,319.5l0,-1" class="g2_188" />
<path d="M887.5,319.5l0,-1" class="g2_188" />
<path d="M46.5,343.5l0,-24" class="g2_188" />
<path d="M46.5,345.5l0,-2" class="g2_188" />
<path d="M46.5,345.5l0,-2" class="g2_188" />
<path d="M47.5,345.5l840,0" class="g2_188" />
<path d="M887.5,343.5l0,-24" class="g2_188" />
<path d="M887.5,345.5l0,-2" class="g2_188" />
<path d="M887.5,345.5l0,-2" class="g2_188" />
<path fill-rule="evenodd" d="M47,1085l840,0l0,-715L47,370l0,715Z" class="g1_188" />
<g clip-path="url(#c5_188)">
<path fill-rule="evenodd" d="M55,394l825,0l0,-24L55,370l0,24Z" class="g1_188" />
</g>
<path fill-rule="evenodd" d="M55,418l825,0l0,-24L55,394l0,24Z" class="g1_188" />
<path fill-rule="evenodd" d="M55,442l825,0l0,-24L55,418l0,24Z" class="g1_188" />
<path fill-rule="evenodd" d="M55,465l825,0l0,-23L55,442l0,23Z" class="g1_188" />
<path fill-rule="evenodd" d="M55,489l825,0l0,-24L55,465l0,24Z" class="g1_188" />
<path fill-rule="evenodd" d="M55,513l825,0l0,-24L55,489l0,24Z" class="g1_188" />
<path fill-rule="evenodd" d="M55,537l825,0l0,-24L55,513l0,24Z" class="g1_188" />
<path fill-rule="evenodd" d="M55,561l825,0l0,-24L55,537l0,24Z" class="g1_188" />
<path fill-rule="evenodd" d="M55,585l825,0l0,-24L55,561l0,24Z" class="g1_188" />
<path fill-rule="evenodd" d="M55,608l825,0l0,-23L55,585l0,23Z" class="g1_188" />
<path fill-rule="evenodd" d="M55,632l825,0l0,-24L55,608l0,24Z" class="g1_188" />
<path fill-rule="evenodd" d="M55,656l825,0l0,-24L55,632l0,24Z" class="g1_188" />
<path fill-rule="evenodd" d="M55,680l825,0l0,-24L55,656l0,24Z" class="g1_188" />
<path fill-rule="evenodd" d="M55,704l825,0l0,-24L55,680l0,24Z" class="g1_188" />
<path fill-rule="evenodd" d="M55,728l825,0l0,-24L55,704l0,24Z" class="g1_188" />
<path fill-rule="evenodd" d="M55,751l825,0l0,-23L55,728l0,23Z" class="g1_188" />
<path fill-rule="evenodd" d="M55,775l825,0l0,-24L55,751l0,24Z" class="g1_188" />
<path fill-rule="evenodd" d="M55,799l825,0l0,-24L55,775l0,24Z" class="g1_188" />
<path fill-rule="evenodd" d="M55,823l825,0l0,-24L55,799l0,24Z" class="g1_188" />
<path fill-rule="evenodd" d="M55,847l825,0l0,-24L55,823l0,24Z" class="g1_188" />
<path fill-rule="evenodd" d="M55,871l825,0l0,-24L55,847l0,24Z" class="g1_188" />
<path fill-rule="evenodd" d="M55,894l825,0l0,-23L55,871l0,23Z" class="g1_188" />
<path fill-rule="evenodd" d="M55,918l825,0l0,-24L55,894l0,24Z" class="g1_188" />
<path fill-rule="evenodd" d="M55,942l825,0l0,-24L55,918l0,24Z" class="g1_188" />
<path fill-rule="evenodd" d="M55,966l825,0l0,-24L55,942l0,24Z" class="g1_188" />
<path fill-rule="evenodd" d="M55,990l825,0l0,-24L55,966l0,24Z" class="g1_188" />
<path fill-rule="evenodd" d="M55,1014l825,0l0,-24L55,990l0,24Z" class="g1_188" />
<path fill-rule="evenodd" d="M55,1038l825,0l0,-24l-825,0l0,24Z" class="g1_188" />
<path fill-rule="evenodd" d="M55,1061l825,0l0,-24l-825,0l0,24Z" class="g1_188" />
<g clip-path="url(#c5_188)">
<path fill-rule="evenodd" d="M55,1085l825,0l0,-24l-825,0l0,24Z" class="g1_188" />
</g>
<path d="M46.5,370.5l0,-2" class="g2_188" />
<path d="M46.5,370.5l0,-2" class="g2_188" />
<path d="M47.5,370.5l840,0" class="g2_188" />
<path d="M887.5,370.5l0,-2" class="g2_188" />
<path d="M887.5,370.5l0,-2" class="g2_188" />
<path d="M46.5,1085.5l0,-715" class="g2_188" />
<path d="M46.5,1087.5l0,-2" class="g2_188" />
<path d="M46.5,1087.5l0,-2" class="g2_188" />
<path d="M47.5,1087.5l840,0" class="g2_188" />
<path d="M887.5,1085.5l0,-715" class="g2_188" />
<path d="M887.5,1087.5l0,-2" class="g2_188" />
<path d="M887.5,1087.5l0,-2" class="g2_188" />
</svg>