<?xml version="1.0" encoding="UTF-8" standalone="no"?>
<!DOCTYPE svg PUBLIC "-//W3C//DTD SVG 1.1//EN"
"http://www.w3.org/Graphics/SVG/1.1/DTD/svg11.dtd">
<svg version="1.1" xmlns="http://www.w3.org/2000/svg" xmlns:xlink="http://www.w3.org/1999/xlink">
<defs>
<clipPath id="c0_190"><path d="M47.5,222.5l0,-24l102,0l0,24Z" /></clipPath>
<clipPath id="c1_190"><path d="M151.5,222.5l0,-24l736,0l0,24Z" /></clipPath>
<clipPath id="c2_190"><path d="M47.5,247.5l0,-23l102,0l0,23Z" /></clipPath>
<clipPath id="c3_190"><path d="M151.5,247.5l0,-23l736,0l0,23Z" /></clipPath>
<clipPath id="c4_190"><path d="M47.5,503.5l0,-181l840,0l0,181Z" /></clipPath>
<clipPath id="c5_190"><path d="M47.5,944.5l0,-24l840,0l0,24Z" /></clipPath>
<clipPath id="c6_190"><path d="M47.5,1051.5l0,-24l178,0l0,24Z" /></clipPath>
<clipPath id="c7_190"><path d="M227.5,1051.5l0,-24l162,0l0,24Z" /></clipPath>
<clipPath id="c8_190"><path d="M391.5,1051.5l0,-24l496,0l0,24Z" /></clipPath>
<clipPath id="c9_190"><path d="M47.5,1076.5l0,-23l178,0l0,23Z" /></clipPath>
<clipPath id="c10_190"><path d="M227.5,1076.5l0,-23l162,0l0,23Z" /></clipPath>
<clipPath id="c11_190"><path d="M391.5,1076.5l0,-23l496,0l0,23Z" /></clipPath>
<style type="text/css"><![CDATA[
.g2_190{
fill: #DBE5F1;
}
.g5_190{
fill: none;
stroke: #F0F0E0;
stroke-width: 1;
stroke-linecap: butt;
stroke-linejoin: miter;
}
.g3_190{
fill: none;
stroke: #7E7E7E;
stroke-width: 1;
stroke-linecap: butt;
stroke-linejoin: miter;
}
.g4_190{
fill: #F1F1F1;
}
.g1_190{
fill: none;
stroke: #0000FF;
stroke-width: 1;
stroke-linecap: butt;
stroke-linejoin: miter;
}
]]></style>
</defs>
<path d="M371.5,192.5l163,0" class="g1_190" />
<path fill-rule="evenodd" d="M47,222l102,0l0,-24L47,198l0,24Z" class="g2_190" />
<g clip-path="url(#c0_190)">
<path fill-rule="evenodd" d="M55,222l87,0l0,-24l-87,0l0,24Z" class="g2_190" />
</g>
<path fill-rule="evenodd" d="M151,222l736,0l0,-24l-736,0l0,24Z" class="g2_190" />
<g clip-path="url(#c1_190)">
<path fill-rule="evenodd" d="M158,222l722,0l0,-24l-722,0l0,24Z" class="g2_190" />
</g>
<path d="M46.5,198.5l0,-1" class="g3_190" />
<path d="M46.5,198.5l0,-1" class="g3_190" />
<path d="M47.5,198.5l102,0" class="g3_190" />
<path d="M149.5,198.5l0,-1" class="g3_190" />
<path d="M151.5,198.5l736,0" class="g3_190" />
<path d="M887.5,198.5l0,-1" class="g3_190" />
<path d="M887.5,198.5l0,-1" class="g3_190" />
<path d="M46.5,222.5l0,-24" class="g3_190" />
<path d="M149.5,222.5l0,-24" class="g3_190" />
<path d="M887.5,222.5l0,-24" class="g3_190" />
<path fill-rule="evenodd" d="M47,247l102,0l0,-23L47,224l0,23Z" class="g4_190" />
<g clip-path="url(#c2_190)">
<path fill-rule="evenodd" d="M55,247l87,0l0,-23l-87,0l0,23Z" class="g4_190" />
</g>
<path fill-rule="evenodd" d="M151,247l736,0l0,-23l-736,0l0,23Z" class="g4_190" />
<g clip-path="url(#c3_190)">
<path fill-rule="evenodd" d="M158,247l722,0l0,-23l-722,0l0,23Z" class="g4_190" />
</g>
<path d="M46.5,224.5l0,-2" class="g3_190" />
<path d="M47.5,224.5l102,0" class="g3_190" />
<path d="M149.5,224.5l0,-2" class="g3_190" />
<path d="M151.5,224.5l736,0" class="g3_190" />
<path d="M887.5,224.5l0,-2" class="g3_190" />
<path d="M46.5,248.5l0,-24" class="g3_190" />
<path d="M46.5,249.5l0,-1" class="g3_190" />
<path d="M46.5,249.5l0,-1" class="g3_190" />
<path d="M47.5,249.5l102,0" class="g3_190" />
<path d="M149.5,248.5l0,-24" class="g3_190" />
<path d="M149.5,249.5l0,-1" class="g3_190" />
<path d="M151.5,249.5l736,0" class="g3_190" />
<path d="M887.5,248.5l0,-24" class="g3_190" />
<path d="M887.5,249.5l0,-1" class="g3_190" />
<path d="M887.5,249.5l0,-1" class="g3_190" />
<path fill-rule="evenodd" d="M47,503l840,0l0,-181L47,322l0,181Z" class="g4_190" />
<g clip-path="url(#c4_190)">
<path fill-rule="evenodd" d="M55,353l825,0l0,-31L55,322l0,31Z" class="g4_190" />
<path d="M45.5,323.5l0,-1" class="g5_190" />
<path d="M45.5,323.5l0,-1" class="g5_190" />
<path d="M46.5,323.5l842,0" class="g5_190" />
<path d="M888.5,323.5l0,-1" class="g5_190" />
<path d="M888.5,323.5l0,-1" class="g5_190" />
<path d="M45.5,353.5l0,-30" class="g5_190" />
<path d="M888.5,353.5l0,-30" class="g5_190" />
</g>
<path fill-rule="evenodd" d="M55,377l825,0l0,-24L55,353l0,24Z" class="g4_190" />
<g clip-path="url(#c4_190)">
<path d="M45.5,377.5l0,-24" class="g5_190" />
<path d="M888.5,377.5l0,-24" class="g5_190" />
</g>
<path fill-rule="evenodd" d="M55,401l825,0l0,-24L55,377l0,24Z" class="g4_190" />
<g clip-path="url(#c4_190)">
<path d="M45.5,401.5l0,-24" class="g5_190" />
<path d="M888.5,401.5l0,-24" class="g5_190" />
</g>
<path fill-rule="evenodd" d="M55,425l825,0l0,-24L55,401l0,24Z" class="g4_190" />
<g clip-path="url(#c4_190)">
<path d="M45.5,425.5l0,-24" class="g5_190" />
<path d="M888.5,425.5l0,-24" class="g5_190" />
</g>
<path fill-rule="evenodd" d="M55,449l825,0l0,-24L55,425l0,24Z" class="g4_190" />
<g clip-path="url(#c4_190)">
<path d="M45.5,449.5l0,-24" class="g5_190" />
<path d="M888.5,449.5l0,-24" class="g5_190" />
</g>
<path fill-rule="evenodd" d="M55,472l825,0l0,-23L55,449l0,23Z" class="g4_190" />
<g clip-path="url(#c4_190)">
<path d="M45.5,472.5l0,-23" class="g5_190" />
<path d="M888.5,472.5l0,-23" class="g5_190" />
</g>
<path fill-rule="evenodd" d="M55,503l825,0l0,-31L55,472l0,31Z" class="g4_190" />
<g clip-path="url(#c4_190)">
<path d="M45.5,503.5l0,-1" class="g5_190" />
<path d="M45.5,503.5l0,-1" class="g5_190" />
<path d="M46.5,503.5l842,0" class="g5_190" />
<path d="M888.5,503.5l0,-1" class="g5_190" />
<path d="M888.5,503.5l0,-1" class="g5_190" />
<path d="M45.5,502.5l0,-30" class="g5_190" />
<path d="M888.5,502.5l0,-30" class="g5_190" />
</g>
<path d="M46.5,322.5l0,-1" class="g3_190" />
<path d="M46.5,322.5l0,-1" class="g3_190" />
<path d="M47.5,322.5l840,0" class="g3_190" />
<path d="M887.5,322.5l0,-1" class="g3_190" />
<path d="M887.5,322.5l0,-1" class="g3_190" />
<path d="M46.5,503.5l0,-181" class="g3_190" />
<path d="M46.5,505.5l0,-2" class="g3_190" />
<path d="M46.5,505.5l0,-2" class="g3_190" />
<path d="M47.5,505.5l840,0" class="g3_190" />
<path d="M887.5,503.5l0,-181" class="g3_190" />
<path d="M887.5,505.5l0,-2" class="g3_190" />
<path d="M887.5,505.5l0,-2" class="g3_190" />
<path fill-rule="evenodd" d="M47,673l840,0l0,-95L47,578l0,95Z" class="g4_190" />
<path fill-rule="evenodd" d="M55,602l825,0l0,-24L55,578l0,24Z" class="g4_190" />
<path fill-rule="evenodd" d="M55,626l825,0l0,-24L55,602l0,24Z" class="g4_190" />
<path fill-rule="evenodd" d="M55,649l825,0l0,-23L55,626l0,23Z" class="g4_190" />
<path fill-rule="evenodd" d="M55,673l825,0l0,-24L55,649l0,24Z" class="g4_190" />
<path d="M46.5,578.5l0,-2" class="g3_190" />
<path d="M46.5,578.5l0,-2" class="g3_190" />
<path d="M47.5,578.5l840,0" class="g3_190" />
<path d="M887.5,578.5l0,-2" class="g3_190" />
<path d="M887.5,578.5l0,-2" class="g3_190" />
<path d="M46.5,673.5l0,-95" class="g3_190" />
<path d="M46.5,675.5l0,-2" class="g3_190" />
<path d="M46.5,675.5l0,-2" class="g3_190" />
<path d="M47.5,675.5l840,0" class="g3_190" />
<path d="M887.5,673.5l0,-95" class="g3_190" />
<path d="M887.5,675.5l0,-2" class="g3_190" />
<path d="M887.5,675.5l0,-2" class="g3_190" />
<path fill-rule="evenodd" d="M47,944l840,0l0,-24L47,920l0,24Z" class="g4_190" />
<g clip-path="url(#c5_190)">
<path fill-rule="evenodd" d="M55,944l825,0l0,-24L55,920l0,24Z" class="g4_190" />
</g>
<path d="M46.5,920.5l0,-2" class="g3_190" />
<path d="M46.5,920.5l0,-2" class="g3_190" />
<path d="M47.5,920.5l840,0" class="g3_190" />
<path d="M887.5,920.5l0,-2" class="g3_190" />
<path d="M887.5,920.5l0,-2" class="g3_190" />
<path d="M46.5,944.5l0,-24" class="g3_190" />
<path d="M46.5,945.5l0,-1" class="g3_190" />
<path d="M46.5,945.5l0,-1" class="g3_190" />
<path d="M47.5,945.5l840,0" class="g3_190" />
<path d="M887.5,944.5l0,-24" class="g3_190" />
<path d="M887.5,945.5l0,-1" class="g3_190" />
<path d="M887.5,945.5l0,-1" class="g3_190" />
<path fill-rule="evenodd" d="M47,1051l178,0l0,-24l-178,0l0,24Z" class="g2_190" />
<g clip-path="url(#c6_190)">
<path fill-rule="evenodd" d="M55,1051l163,0l0,-24l-163,0l0,24Z" class="g2_190" />
</g>
<path fill-rule="evenodd" d="M226,1051l163,0l0,-24l-163,0l0,24Z" class="g2_190" />
<g clip-path="url(#c7_190)">
<path fill-rule="evenodd" d="M234,1051l148,0l0,-24l-148,0l0,24Z" class="g2_190" />
</g>
<path fill-rule="evenodd" d="M391,1051l496,0l0,-24l-496,0l0,24Z" class="g2_190" />
<g clip-path="url(#c8_190)">
<path fill-rule="evenodd" d="M398,1051l482,0l0,-24l-482,0l0,24Z" class="g2_190" />
</g>
<path d="M46.5,1027.5l0,-1" class="g3_190" />
<path d="M46.5,1027.5l0,-1" class="g3_190" />
<path d="M47.5,1027.5l178,0" class="g3_190" />
<path d="M225.5,1027.5l0,-1" class="g3_190" />
<path d="M226.5,1027.5l163,0" class="g3_190" />
<path d="M389.5,1027.5l0,-1" class="g3_190" />
<path d="M391.5,1027.5l496,0" class="g3_190" />
<path d="M887.5,1027.5l0,-1" class="g3_190" />
<path d="M887.5,1027.5l0,-1" class="g3_190" />
<path d="M46.5,1051.5l0,-24" class="g3_190" />
<path d="M225.5,1051.5l0,-24" class="g3_190" />
<path d="M389.5,1051.5l0,-24" class="g3_190" />
<path d="M887.5,1051.5l0,-24" class="g3_190" />
<path fill-rule="evenodd" d="M47,1076l178,0l0,-23l-178,0l0,23Z" class="g4_190" />
<g clip-path="url(#c9_190)">
<path fill-rule="evenodd" d="M55,1076l163,0l0,-23l-163,0l0,23Z" class="g4_190" />
</g>
<path fill-rule="evenodd" d="M226,1076l163,0l0,-23l-163,0l0,23Z" class="g4_190" />
<g clip-path="url(#c10_190)">
<path fill-rule="evenodd" d="M234,1076l148,0l0,-23l-148,0l0,23Z" class="g4_190" />
</g>
<path fill-rule="evenodd" d="M391,1076l496,0l0,-23l-496,0l0,23Z" class="g4_190" />
<g clip-path="url(#c11_190)">
<path fill-rule="evenodd" d="M398,1076l482,0l0,-23l-482,0l0,23Z" class="g4_190" />
</g>
<path d="M46.5,1052.5l0,-1" class="g3_190" />
<path d="M47.5,1052.5l178,0" class="g3_190" />
<path d="M225.5,1052.5l0,-1" class="g3_190" />
<path d="M226.5,1052.5l163,0" class="g3_190" />
<path d="M389.5,1052.5l0,-1" class="g3_190" />
<path d="M391.5,1052.5l496,0" class="g3_190" />
<path d="M887.5,1052.5l0,-1" class="g3_190" />
<path d="M46.5,1076.5l0,-24" class="g3_190" />
<path d="M46.5,1078.5l0,-2" class="g3_190" />
<path d="M46.5,1078.5l0,-2" class="g3_190" />
<path d="M47.5,1078.5l178,0" class="g3_190" />
<path d="M225.5,1076.5l0,-24" class="g3_190" />
<path d="M225.5,1078.5l0,-2" class="g3_190" />
<path d="M226.5,1078.5l163,0" class="g3_190" />
<path d="M389.5,1076.5l0,-24" class="g3_190" />
<path d="M389.5,1078.5l0,-2" class="g3_190" />
<path d="M391.5,1078.5l496,0" class="g3_190" />
<path d="M887.5,1076.5l0,-24" class="g3_190" />
<path d="M887.5,1078.5l0,-2" class="g3_190" />
<path d="M887.5,1078.5l0,-2" class="g3_190" />
</svg>