<?xml version="1.0" encoding="UTF-8" standalone="no"?>
<!DOCTYPE svg PUBLIC "-//W3C//DTD SVG 1.1//EN"
"http://www.w3.org/Graphics/SVG/1.1/DTD/svg11.dtd">
<svg version="1.1" xmlns="http://www.w3.org/2000/svg" xmlns:xlink="http://www.w3.org/1999/xlink">
<defs>
<clipPath id="c0_135"><path d="M47.5,378.5l0,-23l840,0l0,23Z" /></clipPath>
<clipPath id="c1_135"><path d="M47.5,682.5l0,-24l177,0l0,24Z" /></clipPath>
<clipPath id="c2_135"><path d="M226.5,682.5l0,-24l162,0l0,24Z" /></clipPath>
<clipPath id="c3_135"><path d="M390.5,682.5l0,-24l163,0l0,24Z" /></clipPath>
<clipPath id="c4_135"><path d="M554.5,682.5l0,-24l163,0l0,24Z" /></clipPath>
<clipPath id="c5_135"><path d="M719.5,682.5l0,-24l168,0l0,24Z" /></clipPath>
<clipPath id="c6_135"><path d="M47.5,707.5l0,-24l177,0l0,24Z" /></clipPath>
<clipPath id="c7_135"><path d="M226.5,707.5l0,-24l162,0l0,24Z" /></clipPath>
<clipPath id="c8_135"><path d="M390.5,707.5l0,-24l163,0l0,24Z" /></clipPath>
<clipPath id="c9_135"><path d="M554.5,707.5l0,-24l163,0l0,24Z" /></clipPath>
<clipPath id="c10_135"><path d="M719.5,707.5l0,-24l168,0l0,24Z" /></clipPath>
<clipPath id="c11_135"><path d="M47.5,819.5l0,-24l234,0l0,24Z" /></clipPath>
<clipPath id="c12_135"><path d="M282.5,819.5l0,-24l74,0l0,24Z" /></clipPath>
<clipPath id="c13_135"><path d="M358.5,819.5l0,-24l67,0l0,24Z" /></clipPath>
<clipPath id="c14_135"><path d="M427.5,819.5l0,-24l460,0l0,24Z" /></clipPath>
<clipPath id="c15_135"><path d="M47.5,994.5l0,-173l33,0l0,173Z" /></clipPath>
<clipPath id="c16_135"><path d="M81.5,846.5l0,-25l200,0l0,25Z" /></clipPath>
<clipPath id="c17_135"><path d="M282.5,846.5l0,-25l74,0l0,25Z" /></clipPath>
<clipPath id="c18_135"><path d="M358.5,846.5l0,-25l67,0l0,25Z" /></clipPath>
<clipPath id="c19_135"><path d="M427.5,846.5l0,-25l460,0l0,25Z" /></clipPath>
<clipPath id="c20_135"><path d="M81.5,872.5l0,-24l200,0l0,24Z" /></clipPath>
<clipPath id="c21_135"><path d="M282.5,872.5l0,-24l74,0l0,24Z" /></clipPath>
<clipPath id="c22_135"><path d="M358.5,872.5l0,-24l67,0l0,24Z" /></clipPath>
<clipPath id="c23_135"><path d="M427.5,872.5l0,-24l460,0l0,24Z" /></clipPath>
<clipPath id="c24_135"><path d="M81.5,994.5l0,-120l34,0l0,120Z" /></clipPath>
<clipPath id="c25_135"><path d="M116.5,921.5l0,-47l165,0l0,47Z" /></clipPath>
<clipPath id="c26_135"><path d="M282.5,921.5l0,-47l74,0l0,47Z" /></clipPath>
<clipPath id="c27_135"><path d="M358.5,921.5l0,-47l67,0l0,47Z" /></clipPath>
<clipPath id="c28_135"><path d="M427.5,921.5l0,-47l460,0l0,47Z" /></clipPath>
<clipPath id="c29_135"><path d="M427.5,994.5l0,-71l460,0l0,71Z" /></clipPath>
<style type="text/css"><![CDATA[
.g2_135{
fill: none;
stroke: #7E7E7E;
stroke-width: 1;
stroke-linecap: butt;
stroke-linejoin: miter;
}
.g4_135{
fill: none;
stroke: #000000;
stroke-width: 1;
stroke-linecap: butt;
stroke-linejoin: miter;
}
.g3_135{
fill: #DBE5F1;
}
.g1_135{
fill: #F1F1F1;
}
]]></style>
</defs>
<path fill-rule="evenodd" d="M47,378l840,0l0,-23L47,355l0,23Z" class="g1_135" />
<g clip-path="url(#c0_135)">
<path fill-rule="evenodd" d="M55,378l825,0l0,-23L55,355l0,23Z" class="g1_135" />
</g>
<path d="M46.5,355.5l0,-2" class="g2_135" />
<path d="M46.5,355.5l0,-2" class="g2_135" />
<path d="M47.5,355.5l840,0" class="g2_135" />
<path d="M887.5,355.5l0,-2" class="g2_135" />
<path d="M887.5,355.5l0,-2" class="g2_135" />
<path d="M46.5,379.5l0,-24" class="g2_135" />
<path d="M46.5,380.5l0,-1" class="g2_135" />
<path d="M46.5,380.5l0,-1" class="g2_135" />
<path d="M47.5,380.5l840,0" class="g2_135" />
<path d="M887.5,379.5l0,-24" class="g2_135" />
<path d="M887.5,380.5l0,-1" class="g2_135" />
<path d="M887.5,380.5l0,-1" class="g2_135" />
<path fill-rule="evenodd" d="M47,486l178,0l0,-24L47,462l0,24Z" class="g3_135" />
<path fill-rule="evenodd" d="M55,486l162,0l0,-24L55,462l0,24Z" class="g3_135" />
<path fill-rule="evenodd" d="M226,486l163,0l0,-24l-163,0l0,24Z" class="g3_135" />
<path fill-rule="evenodd" d="M234,486l147,0l0,-24l-147,0l0,24Z" class="g3_135" />
<path fill-rule="evenodd" d="M390,486l497,0l0,-24l-497,0l0,24Z" class="g3_135" />
<path fill-rule="evenodd" d="M398,486l482,0l0,-24l-482,0l0,24Z" class="g3_135" />
<path d="M46.5,462.5l0,-2" class="g2_135" />
<path d="M46.5,462.5l0,-2" class="g2_135" />
<path d="M47.5,462.5l178,0" class="g2_135" />
<path d="M225.5,462.5l0,-2" class="g2_135" />
<path d="M226.5,462.5l163,0" class="g2_135" />
<path d="M389.5,462.5l0,-2" class="g2_135" />
<path d="M390.5,462.5l497,0" class="g2_135" />
<path d="M887.5,462.5l0,-2" class="g2_135" />
<path d="M887.5,462.5l0,-2" class="g2_135" />
<path d="M46.5,486.5l0,-24" class="g2_135" />
<path d="M225.5,486.5l0,-24" class="g2_135" />
<path d="M389.5,486.5l0,-24" class="g2_135" />
<path d="M887.5,486.5l0,-24" class="g2_135" />
<path fill-rule="evenodd" d="M47,511l178,0l0,-24L47,487l0,24Z" class="g1_135" />
<path fill-rule="evenodd" d="M55,511l162,0l0,-24L55,487l0,24Z" class="g1_135" />
<path fill-rule="evenodd" d="M226,511l163,0l0,-24l-163,0l0,24Z" class="g1_135" />
<path fill-rule="evenodd" d="M234,511l147,0l0,-24l-147,0l0,24Z" class="g1_135" />
<path fill-rule="evenodd" d="M390,511l497,0l0,-24l-497,0l0,24Z" class="g1_135" />
<path fill-rule="evenodd" d="M398,511l482,0l0,-24l-482,0l0,24Z" class="g1_135" />
<path d="M46.5,487.5l0,-1" class="g2_135" />
<path d="M47.5,487.5l178,0" class="g2_135" />
<path d="M225.5,487.5l0,-1" class="g2_135" />
<path d="M226.5,487.5l163,0" class="g2_135" />
<path d="M389.5,487.5l0,-1" class="g2_135" />
<path d="M390.5,487.5l497,0" class="g2_135" />
<path d="M887.5,487.5l0,-1" class="g2_135" />
<path d="M46.5,511.5l0,-24" class="g2_135" />
<path d="M225.5,511.5l0,-24" class="g2_135" />
<path d="M389.5,511.5l0,-24" class="g2_135" />
<path d="M887.5,511.5l0,-24" class="g2_135" />
<path fill-rule="evenodd" d="M47,608l178,0l0,-95L47,513l0,95Z" class="g1_135" />
<path fill-rule="evenodd" d="M55,536l162,0l0,-23L55,513l0,23Z" class="g1_135" />
<path fill-rule="evenodd" d="M226,608l163,0l0,-95l-163,0l0,95Z" class="g1_135" />
<path fill-rule="evenodd" d="M234,536l147,0l0,-23l-147,0l0,23Z" class="g1_135" />
<path fill-rule="evenodd" d="M390,608l497,0l0,-95l-497,0l0,95Z" class="g1_135" />
<path fill-rule="evenodd" d="M398,536l482,0l0,-23l-482,0l0,23Z" class="g1_135" />
<path fill-rule="evenodd" d="M398,560l482,0l0,-24l-482,0l0,24Z" class="g1_135" />
<path fill-rule="evenodd" d="M398,584l482,0l0,-24l-482,0l0,24Z" class="g1_135" />
<path fill-rule="evenodd" d="M398,608l482,0l0,-24l-482,0l0,24Z" class="g1_135" />
<path d="M46.5,512.5l0,-1" class="g2_135" />
<path d="M47.5,512.5l178,0" class="g2_135" />
<path d="M225.5,512.5l0,-1" class="g2_135" />
<path d="M226.5,512.5l163,0" class="g2_135" />
<path d="M389.5,512.5l0,-1" class="g2_135" />
<path d="M390.5,512.5l497,0" class="g2_135" />
<path d="M887.5,512.5l0,-1" class="g2_135" />
<path d="M46.5,608.5l0,-96" class="g2_135" />
<path d="M46.5,609.5l179,0" class="g4_135" />
<path d="M225.5,608.5l0,-96" class="g2_135" />
<path d="M225.5,609.5l0,-1" class="g4_135" />
<path d="M225.5,609.5l164,0" class="g4_135" />
<path d="M389.5,608.5l0,-96" class="g2_135" />
<path d="M389.5,609.5l0,-1" class="g4_135" />
<path d="M390.5,609.5l497,0" class="g4_135" />
<path d="M887.5,608.5l0,-96" class="g2_135" />
<path d="M887.5,609.5l0,-1" class="g4_135" />
<path fill-rule="evenodd" d="M47,682l177,0l0,-24L47,658l0,24Z" class="g3_135" />
<g clip-path="url(#c1_135)">
<path fill-rule="evenodd" d="M55,682l162,0l0,-24L55,658l0,24Z" class="g3_135" />
</g>
<path fill-rule="evenodd" d="M226,682l162,0l0,-24l-162,0l0,24Z" class="g3_135" />
<g clip-path="url(#c2_135)">
<path fill-rule="evenodd" d="M233,682l148,0l0,-24l-148,0l0,24Z" class="g3_135" />
</g>
<path fill-rule="evenodd" d="M390,682l163,0l0,-24l-163,0l0,24Z" class="g3_135" />
<g clip-path="url(#c3_135)">
<path fill-rule="evenodd" d="M397,682l148,0l0,-24l-148,0l0,24Z" class="g3_135" />
</g>
<path fill-rule="evenodd" d="M554,682l163,0l0,-24l-163,0l0,24Z" class="g3_135" />
<g clip-path="url(#c4_135)">
<path fill-rule="evenodd" d="M562,682l148,0l0,-24l-148,0l0,24Z" class="g3_135" />
</g>
<path fill-rule="evenodd" d="M719,682l168,0l0,-24l-168,0l0,24Z" class="g3_135" />
<g clip-path="url(#c5_135)">
<path fill-rule="evenodd" d="M726,682l154,0l0,-24l-154,0l0,24Z" class="g3_135" />
</g>
<path d="M46.5,658.5l0,-2" class="g2_135" />
<path d="M46.5,658.5l0,-2" class="g2_135" />
<path d="M47.5,658.5l177,0" class="g2_135" />
<path d="M224.5,658.5l0,-2" class="g2_135" />
<path d="M226.5,658.5l162,0" class="g2_135" />
<path d="M388.5,658.5l0,-2" class="g2_135" />
<path d="M390.5,658.5l163,0" class="g2_135" />
<path d="M553.5,658.5l0,-2" class="g2_135" />
<path d="M554.5,658.5l163,0" class="g2_135" />
<path d="M717.5,658.5l0,-2" class="g2_135" />
<path d="M719.5,658.5l168,0" class="g2_135" />
<path d="M887.5,658.5l0,-2" class="g2_135" />
<path d="M887.5,658.5l0,-2" class="g2_135" />
<path d="M46.5,682.5l0,-24" class="g2_135" />
<path d="M224.5,682.5l0,-24" class="g2_135" />
<path d="M388.5,682.5l0,-24" class="g2_135" />
<path d="M553.5,682.5l0,-24" class="g2_135" />
<path d="M717.5,682.5l0,-24" class="g2_135" />
<path d="M887.5,682.5l0,-24" class="g2_135" />
<path fill-rule="evenodd" d="M47,707l177,0l0,-24L47,683l0,24Z" class="g1_135" />
<g clip-path="url(#c6_135)">
<path fill-rule="evenodd" d="M55,707l162,0l0,-24L55,683l0,24Z" class="g1_135" />
</g>
<path fill-rule="evenodd" d="M226,707l162,0l0,-24l-162,0l0,24Z" class="g1_135" />
<g clip-path="url(#c7_135)">
<path fill-rule="evenodd" d="M233,707l148,0l0,-24l-148,0l0,24Z" class="g1_135" />
</g>
<path fill-rule="evenodd" d="M390,707l163,0l0,-24l-163,0l0,24Z" class="g1_135" />
<g clip-path="url(#c8_135)">
<path fill-rule="evenodd" d="M397,707l148,0l0,-24l-148,0l0,24Z" class="g1_135" />
</g>
<path fill-rule="evenodd" d="M554,707l163,0l0,-24l-163,0l0,24Z" class="g1_135" />
<g clip-path="url(#c9_135)">
<path fill-rule="evenodd" d="M562,707l148,0l0,-24l-148,0l0,24Z" class="g1_135" />
</g>
<path fill-rule="evenodd" d="M719,707l168,0l0,-24l-168,0l0,24Z" class="g1_135" />
<g clip-path="url(#c10_135)">
<path fill-rule="evenodd" d="M726,707l154,0l0,-24l-154,0l0,24Z" class="g1_135" />
</g>
<path d="M46.5,683.5l0,-1" class="g2_135" />
<path d="M47.5,683.5l177,0" class="g2_135" />
<path d="M224.5,683.5l0,-1" class="g2_135" />
<path d="M226.5,683.5l162,0" class="g2_135" />
<path d="M388.5,683.5l0,-1" class="g2_135" />
<path d="M390.5,683.5l163,0" class="g2_135" />
<path d="M553.5,683.5l0,-1" class="g2_135" />
<path d="M554.5,683.5l163,0" class="g2_135" />
<path d="M717.5,683.5l0,-1" class="g2_135" />
<path d="M719.5,683.5l168,0" class="g2_135" />
<path d="M887.5,683.5l0,-1" class="g2_135" />
<path d="M46.5,707.5l0,-24" class="g2_135" />
<path d="M46.5,709.5l0,-2" class="g2_135" />
<path d="M46.5,709.5l0,-2" class="g2_135" />
<path d="M47.5,709.5l177,0" class="g2_135" />
<path d="M224.5,707.5l0,-24" class="g2_135" />
<path d="M224.5,709.5l0,-2" class="g2_135" />
<path d="M226.5,709.5l162,0" class="g2_135" />
<path d="M388.5,707.5l0,-24" class="g2_135" />
<path d="M388.5,709.5l0,-2" class="g2_135" />
<path d="M390.5,709.5l163,0" class="g2_135" />
<path d="M553.5,707.5l0,-24" class="g2_135" />
<path d="M553.5,709.5l0,-2" class="g2_135" />
<path d="M554.5,709.5l163,0" class="g2_135" />
<path d="M717.5,707.5l0,-24" class="g2_135" />
<path d="M717.5,709.5l0,-2" class="g2_135" />
<path d="M719.5,709.5l168,0" class="g2_135" />
<path d="M887.5,707.5l0,-24" class="g2_135" />
<path d="M887.5,709.5l0,-2" class="g2_135" />
<path d="M887.5,709.5l0,-2" class="g2_135" />
<path fill-rule="evenodd" d="M47,819l234,0l0,-24L47,795l0,24Z" class="g3_135" />
<g clip-path="url(#c11_135)">
<path fill-rule="evenodd" d="M55,819l218,0l0,-24L55,795l0,24Z" class="g3_135" />
</g>
<path fill-rule="evenodd" d="M282,819l74,0l0,-24l-74,0l0,24Z" class="g3_135" />
<g clip-path="url(#c12_135)">
<path fill-rule="evenodd" d="M290,819l59,0l0,-24l-59,0l0,24Z" class="g3_135" />
</g>
<path fill-rule="evenodd" d="M358,819l67,0l0,-24l-67,0l0,24Z" class="g3_135" />
<g clip-path="url(#c13_135)">
<path fill-rule="evenodd" d="M365,819l53,0l0,-24l-53,0l0,24Z" class="g3_135" />
</g>
<path fill-rule="evenodd" d="M427,819l460,0l0,-24l-460,0l0,24Z" class="g3_135" />
<g clip-path="url(#c14_135)">
<path fill-rule="evenodd" d="M434,819l446,0l0,-24l-446,0l0,24Z" class="g3_135" />
</g>
<path d="M46.5,795.5l0,-2" class="g2_135" />
<path d="M46.5,795.5l0,-2" class="g2_135" />
<path d="M47.5,795.5l234,0" class="g2_135" />
<path d="M281.5,795.5l0,-2" class="g2_135" />
<path d="M282.5,795.5l74,0" class="g2_135" />
<path d="M356.5,795.5l0,-2" class="g2_135" />
<path d="M358.5,795.5l67,0" class="g2_135" />
<path d="M425.5,795.5l0,-2" class="g2_135" />
<path d="M427.5,795.5l460,0" class="g2_135" />
<path d="M887.5,795.5l0,-2" class="g2_135" />
<path d="M887.5,795.5l0,-2" class="g2_135" />
<path d="M46.5,819.5l0,-24" class="g2_135" />
<path d="M281.5,819.5l0,-24" class="g2_135" />
<path d="M356.5,819.5l0,-24" class="g2_135" />
<path d="M425.5,819.5l0,-24" class="g2_135" />
<path d="M887.5,819.5l0,-24" class="g2_135" />
<path fill-rule="evenodd" d="M47,994l33,0L80,821l-33,0l0,173Z" class="g1_135" />
<g clip-path="url(#c15_135)">
<path fill-rule="evenodd" d="M55,994l23,0L78,821l-23,0l0,173Z" class="g1_135" />
</g>
<path fill-rule="evenodd" d="M81,846l200,0l0,-25L81,821l0,25Z" class="g1_135" />
<g clip-path="url(#c16_135)">
<path fill-rule="evenodd" d="M89,845l184,0l0,-24L89,821l0,24Z" class="g1_135" />
</g>
<path fill-rule="evenodd" d="M282,846l74,0l0,-25l-74,0l0,25Z" class="g1_135" />
<g clip-path="url(#c17_135)">
<path fill-rule="evenodd" d="M290,845l59,0l0,-24l-59,0l0,24Z" class="g1_135" />
</g>
<path fill-rule="evenodd" d="M358,846l67,0l0,-25l-67,0l0,25Z" class="g1_135" />
<g clip-path="url(#c18_135)">
<path fill-rule="evenodd" d="M365,845l53,0l0,-24l-53,0l0,24Z" class="g1_135" />
</g>
<path fill-rule="evenodd" d="M427,846l460,0l0,-25l-460,0l0,25Z" class="g1_135" />
<g clip-path="url(#c19_135)">
<path fill-rule="evenodd" d="M434,845l446,0l0,-24l-446,0l0,24Z" class="g1_135" />
</g>
<path d="M46.5,821.5l0,-2" class="g2_135" />
<path d="M47.5,821.5l33,0" class="g2_135" />
<path d="M80.5,821.5l0,-2" class="g2_135" />
<path d="M81.5,821.5l200,0" class="g2_135" />
<path d="M281.5,821.5l0,-2" class="g2_135" />
<path d="M282.5,821.5l74,0" class="g2_135" />
<path d="M356.5,821.5l0,-2" class="g2_135" />
<path d="M358.5,821.5l67,0" class="g2_135" />
<path d="M425.5,821.5l0,-2" class="g2_135" />
<path d="M427.5,821.5l460,0" class="g2_135" />
<path d="M887.5,821.5l0,-2" class="g2_135" />
<path d="M46.5,846.5l0,-25" class="g2_135" />
<path d="M80.5,846.5l0,-25" class="g2_135" />
<path d="M281.5,846.5l0,-25" class="g2_135" />
<path d="M356.5,846.5l0,-25" class="g2_135" />
<path d="M425.5,846.5l0,-25" class="g2_135" />
<path d="M887.5,846.5l0,-25" class="g2_135" />
<path fill-rule="evenodd" d="M81,872l200,0l0,-24L81,848l0,24Z" class="g1_135" />
<g clip-path="url(#c20_135)">
<path fill-rule="evenodd" d="M89,872l184,0l0,-24L89,848l0,24Z" class="g1_135" />
</g>
<path fill-rule="evenodd" d="M282,872l74,0l0,-24l-74,0l0,24Z" class="g1_135" />
<g clip-path="url(#c21_135)">
<path fill-rule="evenodd" d="M290,872l59,0l0,-24l-59,0l0,24Z" class="g1_135" />
</g>
<path fill-rule="evenodd" d="M358,872l67,0l0,-24l-67,0l0,24Z" class="g1_135" />
<g clip-path="url(#c22_135)">
<path fill-rule="evenodd" d="M365,872l53,0l0,-24l-53,0l0,24Z" class="g1_135" />
</g>
<path fill-rule="evenodd" d="M427,872l460,0l0,-24l-460,0l0,24Z" class="g1_135" />
<g clip-path="url(#c23_135)">
<path fill-rule="evenodd" d="M434,872l446,0l0,-24l-446,0l0,24Z" class="g1_135" />
</g>
<path d="M46.5,848.5l0,-2" class="g2_135" />
<path d="M80.5,848.5l0,-2" class="g2_135" />
<path d="M81.5,848.5l200,0" class="g2_135" />
<path d="M281.5,848.5l0,-2" class="g2_135" />
<path d="M282.5,848.5l74,0" class="g2_135" />
<path d="M356.5,848.5l0,-2" class="g2_135" />
<path d="M358.5,848.5l67,0" class="g2_135" />
<path d="M425.5,848.5l0,-2" class="g2_135" />
<path d="M427.5,848.5l460,0" class="g2_135" />
<path d="M887.5,848.5l0,-2" class="g2_135" />
<path d="M46.5,872.5l0,-24" class="g2_135" />
<path d="M80.5,872.5l0,-24" class="g2_135" />
<path d="M281.5,872.5l0,-24" class="g2_135" />
<path d="M356.5,872.5l0,-24" class="g2_135" />
<path d="M425.5,872.5l0,-24" class="g2_135" />
<path d="M887.5,872.5l0,-24" class="g2_135" />
<path fill-rule="evenodd" d="M81,994l34,0l0,-120l-34,0l0,120Z" class="g1_135" />
<g clip-path="url(#c24_135)">
<path fill-rule="evenodd" d="M89,994l24,0l0,-120l-24,0l0,120Z" class="g1_135" />
</g>
<path fill-rule="evenodd" d="M116,921l165,0l0,-47l-165,0l0,47Z" class="g1_135" />
<g clip-path="url(#c25_135)">
<path fill-rule="evenodd" d="M124,898l149,0l0,-24l-149,0l0,24Z" class="g1_135" />
</g>
<path fill-rule="evenodd" d="M282,921l74,0l0,-47l-74,0l0,47Z" class="g1_135" />
<g clip-path="url(#c26_135)">
<path fill-rule="evenodd" d="M290,898l59,0l0,-24l-59,0l0,24Z" class="g1_135" />
</g>
<path fill-rule="evenodd" d="M358,921l67,0l0,-47l-67,0l0,47Z" class="g1_135" />
<g clip-path="url(#c27_135)">
<path fill-rule="evenodd" d="M365,898l53,0l0,-24l-53,0l0,24Z" class="g1_135" />
</g>
<path fill-rule="evenodd" d="M427,921l460,0l0,-47l-460,0l0,47Z" class="g1_135" />
<g clip-path="url(#c28_135)">
<path fill-rule="evenodd" d="M434,898l446,0l0,-24l-446,0l0,24Z" class="g1_135" />
</g>
<path fill-rule="evenodd" d="M434,921l446,0l0,-23l-446,0l0,23Z" class="g1_135" />
<path d="M46.5,874.5l0,-2" class="g2_135" />
<path d="M80.5,874.5l0,-2" class="g2_135" />
<path d="M81.5,874.5l34,0" class="g2_135" />
<path d="M115.5,874.5l0,-2" class="g2_135" />
<path d="M116.5,874.5l165,0" class="g2_135" />
<path d="M281.5,874.5l0,-2" class="g2_135" />
<path d="M282.5,874.5l74,0" class="g2_135" />
<path d="M356.5,874.5l0,-2" class="g2_135" />
<path d="M358.5,874.5l67,0" class="g2_135" />
<path d="M425.5,874.5l0,-2" class="g2_135" />
<path d="M427.5,874.5l460,0" class="g2_135" />
<path d="M887.5,874.5l0,-2" class="g2_135" />
<path d="M46.5,921.5l0,-47" class="g2_135" />
<path d="M80.5,921.5l0,-47" class="g2_135" />
<path d="M115.5,921.5l0,-47" class="g2_135" />
<path d="M281.5,921.5l0,-47" class="g2_135" />
<path d="M356.5,921.5l0,-47" class="g2_135" />
<path d="M425.5,921.5l0,-47" class="g2_135" />
<path d="M887.5,921.5l0,-47" class="g2_135" />
<path fill-rule="evenodd" d="M116,994l165,0l0,-71l-165,0l0,71Z" class="g1_135" />
<path fill-rule="evenodd" d="M124,947l149,0l0,-24l-149,0l0,24Z" class="g1_135" />
<path fill-rule="evenodd" d="M282,994l74,0l0,-71l-74,0l0,71Z" class="g1_135" />
<path fill-rule="evenodd" d="M290,947l59,0l0,-24l-59,0l0,24Z" class="g1_135" />
<path fill-rule="evenodd" d="M358,994l67,0l0,-71l-67,0l0,71Z" class="g1_135" />
<path fill-rule="evenodd" d="M365,947l53,0l0,-24l-53,0l0,24Z" class="g1_135" />
<path fill-rule="evenodd" d="M427,994l460,0l0,-71l-460,0l0,71Z" class="g1_135" />
<path fill-rule="evenodd" d="M434,947l446,0l0,-24l-446,0l0,24Z" class="g1_135" />
<path fill-rule="evenodd" d="M434,971l446,0l0,-24l-446,0l0,24Z" class="g1_135" />
<g clip-path="url(#c29_135)">
<path fill-rule="evenodd" d="M434,994l446,0l0,-23l-446,0l0,23Z" class="g1_135" />
</g>
<path d="M46.5,923.5l0,-2" class="g2_135" />
<path d="M80.5,923.5l0,-2" class="g2_135" />
<path d="M115.5,923.5l0,-2" class="g2_135" />
<path d="M116.5,923.5l165,0" class="g2_135" />
<path d="M281.5,923.5l0,-2" class="g2_135" />
<path d="M282.5,923.5l74,0" class="g2_135" />
<path d="M356.5,923.5l0,-2" class="g2_135" />
<path d="M358.5,923.5l67,0" class="g2_135" />
<path d="M425.5,923.5l0,-2" class="g2_135" />
<path d="M427.5,923.5l460,0" class="g2_135" />
<path d="M887.5,923.5l0,-2" class="g2_135" />
<path d="M46.5,994.5l0,-71" class="g2_135" />
<path d="M46.5,996.5l0,-2" class="g2_135" />
<path d="M46.5,996.5l0,-2" class="g2_135" />
<path d="M47.5,996.5l33,0" class="g2_135" />
<path d="M80.5,994.5l0,-71" class="g2_135" />
<path d="M80.5,996.5l0,-2" class="g2_135" />
<path d="M81.5,996.5l34,0" class="g2_135" />
<path d="M115.5,994.5l0,-71" class="g2_135" />
<path d="M115.5,996.5l0,-2" class="g2_135" />
<path d="M116.5,996.5l165,0" class="g2_135" />
<path d="M281.5,994.5l0,-71" class="g2_135" />
<path d="M281.5,996.5l0,-2" class="g2_135" />
<path d="M282.5,996.5l74,0" class="g2_135" />
<path d="M356.5,994.5l0,-71" class="g2_135" />
<path d="M356.5,996.5l0,-2" class="g2_135" />
<path d="M358.5,996.5l67,0" class="g2_135" />
<path d="M425.5,994.5l0,-71" class="g2_135" />
<path d="M425.5,996.5l0,-2" class="g2_135" />
<path d="M427.5,996.5l460,0" class="g2_135" />
<path d="M887.5,994.5l0,-71" class="g2_135" />
<path d="M887.5,996.5l0,-2" class="g2_135" />
<path d="M887.5,996.5l0,-2" class="g2_135" />
</svg>