<?xml version="1.0" encoding="UTF-8" standalone="no"?>
<!DOCTYPE svg PUBLIC "-//W3C//DTD SVG 1.1//EN"
"http://www.w3.org/Graphics/SVG/1.1/DTD/svg11.dtd">
<svg version="1.1" xmlns="http://www.w3.org/2000/svg" xmlns:xlink="http://www.w3.org/1999/xlink">
<defs>
<clipPath id="c0_372"><path d="M47.5,316.5l0,-181l840,0l0,181Z" /></clipPath>
<clipPath id="c1_372"><path d="M47.5,486.5l0,-95l840,0l0,95Z" /></clipPath>
<clipPath id="c2_372"><path d="M47.5,757.5l0,-24l840,0l0,24Z" /></clipPath>
<clipPath id="c3_372"><path d="M47.5,864.5l0,-24l178,0l0,24Z" /></clipPath>
<clipPath id="c4_372"><path d="M226.5,864.5l0,-24l163,0l0,24Z" /></clipPath>
<clipPath id="c5_372"><path d="M390.5,864.5l0,-24l497,0l0,24Z" /></clipPath>
<clipPath id="c6_372"><path d="M47.5,889.5l0,-24l178,0l0,24Z" /></clipPath>
<clipPath id="c7_372"><path d="M226.5,889.5l0,-24l163,0l0,24Z" /></clipPath>
<clipPath id="c8_372"><path d="M390.5,889.5l0,-24l497,0l0,24Z" /></clipPath>
<clipPath id="c9_372"><path d="M47.5,964.5l0,-24l177,0l0,24Z" /></clipPath>
<clipPath id="c10_372"><path d="M226.5,964.5l0,-24l162,0l0,24Z" /></clipPath>
<clipPath id="c11_372"><path d="M390.5,964.5l0,-24l163,0l0,24Z" /></clipPath>
<clipPath id="c12_372"><path d="M554.5,964.5l0,-24l163,0l0,24Z" /></clipPath>
<clipPath id="c13_372"><path d="M719.5,964.5l0,-24l168,0l0,24Z" /></clipPath>
<clipPath id="c14_372"><path d="M47.5,989.5l0,-24l177,0l0,24Z" /></clipPath>
<clipPath id="c15_372"><path d="M226.5,989.5l0,-24l162,0l0,24Z" /></clipPath>
<clipPath id="c16_372"><path d="M390.5,989.5l0,-24l163,0l0,24Z" /></clipPath>
<clipPath id="c17_372"><path d="M554.5,989.5l0,-24l163,0l0,24Z" /></clipPath>
<clipPath id="c18_372"><path d="M719.5,989.5l0,-24l168,0l0,24Z" /></clipPath>
<style type="text/css"><![CDATA[
.g2_372{
fill: none;
stroke: #F0F0E0;
stroke-width: 1;
stroke-linecap: butt;
stroke-linejoin: miter;
}
.g3_372{
fill: none;
stroke: #7E7E7E;
stroke-width: 1;
stroke-linecap: butt;
stroke-linejoin: miter;
}
.g4_372{
fill: #DBE5F1;
}
.g1_372{
fill: #F1F1F1;
}
]]></style>
</defs>
<path fill-rule="evenodd" d="M47,316l840,0l0,-181L47,135l0,181Z" class="g1_372" />
<g clip-path="url(#c0_372)">
<path fill-rule="evenodd" d="M55,166l825,0l0,-31L55,135l0,31Z" class="g1_372" />
<path d="M45.5,136.5l0,-1" class="g2_372" />
<path d="M45.5,136.5l0,-1" class="g2_372" />
<path d="M46.5,136.5l842,0" class="g2_372" />
<path d="M888.5,136.5l0,-1" class="g2_372" />
<path d="M888.5,136.5l0,-1" class="g2_372" />
<path d="M45.5,166.5l0,-30" class="g2_372" />
<path d="M888.5,166.5l0,-30" class="g2_372" />
</g>
<path fill-rule="evenodd" d="M55,190l825,0l0,-24L55,166l0,24Z" class="g1_372" />
<g clip-path="url(#c0_372)">
<path d="M45.5,190.5l0,-24" class="g2_372" />
<path d="M888.5,190.5l0,-24" class="g2_372" />
</g>
<path fill-rule="evenodd" d="M55,214l825,0l0,-24L55,190l0,24Z" class="g1_372" />
<g clip-path="url(#c0_372)">
<path d="M45.5,214.5l0,-24" class="g2_372" />
<path d="M888.5,214.5l0,-24" class="g2_372" />
</g>
<path fill-rule="evenodd" d="M55,237l825,0l0,-23L55,214l0,23Z" class="g1_372" />
<g clip-path="url(#c0_372)">
<path d="M45.5,237.5l0,-23" class="g2_372" />
<path d="M888.5,237.5l0,-23" class="g2_372" />
</g>
<path fill-rule="evenodd" d="M55,261l825,0l0,-24L55,237l0,24Z" class="g1_372" />
<g clip-path="url(#c0_372)">
<path d="M45.5,261.5l0,-24" class="g2_372" />
<path d="M888.5,261.5l0,-24" class="g2_372" />
</g>
<path fill-rule="evenodd" d="M55,285l825,0l0,-24L55,261l0,24Z" class="g1_372" />
<g clip-path="url(#c0_372)">
<path d="M45.5,285.5l0,-24" class="g2_372" />
<path d="M888.5,285.5l0,-24" class="g2_372" />
</g>
<path fill-rule="evenodd" d="M55,316l825,0l0,-31L55,285l0,31Z" class="g1_372" />
<g clip-path="url(#c0_372)">
<path d="M45.5,316.5l0,-1" class="g2_372" />
<path d="M45.5,316.5l0,-1" class="g2_372" />
<path d="M46.5,316.5l842,0" class="g2_372" />
<path d="M888.5,316.5l0,-1" class="g2_372" />
<path d="M888.5,316.5l0,-1" class="g2_372" />
<path d="M45.5,315.5l0,-30" class="g2_372" />
<path d="M888.5,315.5l0,-30" class="g2_372" />
</g>
<path d="M46.5,135.5l0,-2" class="g3_372" />
<path d="M46.5,135.5l0,-2" class="g3_372" />
<path d="M47.5,135.5l840,0" class="g3_372" />
<path d="M887.5,135.5l0,-2" class="g3_372" />
<path d="M887.5,135.5l0,-2" class="g3_372" />
<path d="M46.5,316.5l0,-181" class="g3_372" />
<path d="M46.5,318.5l0,-2" class="g3_372" />
<path d="M46.5,318.5l0,-2" class="g3_372" />
<path d="M47.5,318.5l840,0" class="g3_372" />
<path d="M887.5,316.5l0,-181" class="g3_372" />
<path d="M887.5,318.5l0,-2" class="g3_372" />
<path d="M887.5,318.5l0,-2" class="g3_372" />
<path fill-rule="evenodd" d="M47,486l840,0l0,-95L47,391l0,95Z" class="g1_372" />
<g clip-path="url(#c1_372)">
<path fill-rule="evenodd" d="M55,415l825,0l0,-24L55,391l0,24Z" class="g1_372" />
</g>
<path fill-rule="evenodd" d="M55,438l825,0l0,-23L55,415l0,23Z" class="g1_372" />
<path fill-rule="evenodd" d="M55,462l825,0l0,-24L55,438l0,24Z" class="g1_372" />
<path fill-rule="evenodd" d="M55,486l825,0l0,-24L55,462l0,24Z" class="g1_372" />
<path d="M46.5,391.5l0,-2" class="g3_372" />
<path d="M46.5,391.5l0,-2" class="g3_372" />
<path d="M47.5,391.5l840,0" class="g3_372" />
<path d="M887.5,391.5l0,-2" class="g3_372" />
<path d="M887.5,391.5l0,-2" class="g3_372" />
<path d="M46.5,486.5l0,-95" class="g3_372" />
<path d="M46.5,488.5l0,-2" class="g3_372" />
<path d="M46.5,488.5l0,-2" class="g3_372" />
<path d="M47.5,488.5l840,0" class="g3_372" />
<path d="M887.5,486.5l0,-95" class="g3_372" />
<path d="M887.5,488.5l0,-2" class="g3_372" />
<path d="M887.5,488.5l0,-2" class="g3_372" />
<path fill-rule="evenodd" d="M47,757l840,0l0,-24L47,733l0,24Z" class="g1_372" />
<g clip-path="url(#c2_372)">
<path fill-rule="evenodd" d="M55,757l825,0l0,-24L55,733l0,24Z" class="g1_372" />
</g>
<path d="M46.5,733.5l0,-2" class="g3_372" />
<path d="M46.5,733.5l0,-2" class="g3_372" />
<path d="M47.5,733.5l840,0" class="g3_372" />
<path d="M887.5,733.5l0,-2" class="g3_372" />
<path d="M887.5,733.5l0,-2" class="g3_372" />
<path d="M46.5,757.5l0,-24" class="g3_372" />
<path d="M46.5,758.5l0,-1" class="g3_372" />
<path d="M46.5,758.5l0,-1" class="g3_372" />
<path d="M47.5,758.5l840,0" class="g3_372" />
<path d="M887.5,757.5l0,-24" class="g3_372" />
<path d="M887.5,758.5l0,-1" class="g3_372" />
<path d="M887.5,758.5l0,-1" class="g3_372" />
<path fill-rule="evenodd" d="M47,864l178,0l0,-24L47,840l0,24Z" class="g4_372" />
<g clip-path="url(#c3_372)">
<path fill-rule="evenodd" d="M55,864l162,0l0,-24L55,840l0,24Z" class="g4_372" />
</g>
<path fill-rule="evenodd" d="M226,864l163,0l0,-24l-163,0l0,24Z" class="g4_372" />
<g clip-path="url(#c4_372)">
<path fill-rule="evenodd" d="M234,864l147,0l0,-24l-147,0l0,24Z" class="g4_372" />
</g>
<path fill-rule="evenodd" d="M390,864l497,0l0,-24l-497,0l0,24Z" class="g4_372" />
<g clip-path="url(#c5_372)">
<path fill-rule="evenodd" d="M398,864l482,0l0,-24l-482,0l0,24Z" class="g4_372" />
</g>
<path d="M46.5,840.5l0,-2" class="g3_372" />
<path d="M46.5,840.5l0,-2" class="g3_372" />
<path d="M47.5,840.5l178,0" class="g3_372" />
<path d="M225.5,840.5l0,-2" class="g3_372" />
<path d="M226.5,840.5l163,0" class="g3_372" />
<path d="M389.5,840.5l0,-2" class="g3_372" />
<path d="M390.5,840.5l497,0" class="g3_372" />
<path d="M887.5,840.5l0,-2" class="g3_372" />
<path d="M887.5,840.5l0,-2" class="g3_372" />
<path d="M46.5,864.5l0,-24" class="g3_372" />
<path d="M225.5,864.5l0,-24" class="g3_372" />
<path d="M389.5,864.5l0,-24" class="g3_372" />
<path d="M887.5,864.5l0,-24" class="g3_372" />
<path fill-rule="evenodd" d="M47,889l178,0l0,-24L47,865l0,24Z" class="g1_372" />
<g clip-path="url(#c6_372)">
<path fill-rule="evenodd" d="M55,889l162,0l0,-24L55,865l0,24Z" class="g1_372" />
</g>
<path fill-rule="evenodd" d="M226,889l163,0l0,-24l-163,0l0,24Z" class="g1_372" />
<g clip-path="url(#c7_372)">
<path fill-rule="evenodd" d="M234,889l147,0l0,-24l-147,0l0,24Z" class="g1_372" />
</g>
<path fill-rule="evenodd" d="M390,889l497,0l0,-24l-497,0l0,24Z" class="g1_372" />
<g clip-path="url(#c8_372)">
<path fill-rule="evenodd" d="M398,889l482,0l0,-24l-482,0l0,24Z" class="g1_372" />
</g>
<path d="M46.5,865.5l0,-1" class="g3_372" />
<path d="M47.5,865.5l178,0" class="g3_372" />
<path d="M225.5,865.5l0,-1" class="g3_372" />
<path d="M226.5,865.5l163,0" class="g3_372" />
<path d="M389.5,865.5l0,-1" class="g3_372" />
<path d="M390.5,865.5l497,0" class="g3_372" />
<path d="M887.5,865.5l0,-1" class="g3_372" />
<path d="M46.5,889.5l0,-24" class="g3_372" />
<path d="M46.5,891.5l0,-2" class="g3_372" />
<path d="M46.5,891.5l0,-2" class="g3_372" />
<path d="M47.5,891.5l178,0" class="g3_372" />
<path d="M225.5,889.5l0,-24" class="g3_372" />
<path d="M225.5,891.5l0,-2" class="g3_372" />
<path d="M226.5,891.5l163,0" class="g3_372" />
<path d="M389.5,889.5l0,-24" class="g3_372" />
<path d="M389.5,891.5l0,-2" class="g3_372" />
<path d="M390.5,891.5l497,0" class="g3_372" />
<path d="M887.5,889.5l0,-24" class="g3_372" />
<path d="M887.5,891.5l0,-2" class="g3_372" />
<path d="M887.5,891.5l0,-2" class="g3_372" />
<path fill-rule="evenodd" d="M47,964l177,0l0,-24L47,940l0,24Z" class="g4_372" />
<g clip-path="url(#c9_372)">
<path fill-rule="evenodd" d="M55,964l162,0l0,-24L55,940l0,24Z" class="g4_372" />
</g>
<path fill-rule="evenodd" d="M226,964l162,0l0,-24l-162,0l0,24Z" class="g4_372" />
<g clip-path="url(#c10_372)">
<path fill-rule="evenodd" d="M233,964l148,0l0,-24l-148,0l0,24Z" class="g4_372" />
</g>
<path fill-rule="evenodd" d="M390,964l163,0l0,-24l-163,0l0,24Z" class="g4_372" />
<g clip-path="url(#c11_372)">
<path fill-rule="evenodd" d="M397,964l148,0l0,-24l-148,0l0,24Z" class="g4_372" />
</g>
<path fill-rule="evenodd" d="M554,964l163,0l0,-24l-163,0l0,24Z" class="g4_372" />
<g clip-path="url(#c12_372)">
<path fill-rule="evenodd" d="M562,964l148,0l0,-24l-148,0l0,24Z" class="g4_372" />
</g>
<path fill-rule="evenodd" d="M719,964l168,0l0,-24l-168,0l0,24Z" class="g4_372" />
<g clip-path="url(#c13_372)">
<path fill-rule="evenodd" d="M726,964l154,0l0,-24l-154,0l0,24Z" class="g4_372" />
</g>
<path d="M46.5,940.5l0,-2" class="g3_372" />
<path d="M46.5,940.5l0,-2" class="g3_372" />
<path d="M47.5,940.5l177,0" class="g3_372" />
<path d="M224.5,940.5l0,-2" class="g3_372" />
<path d="M226.5,940.5l162,0" class="g3_372" />
<path d="M388.5,940.5l0,-2" class="g3_372" />
<path d="M390.5,940.5l163,0" class="g3_372" />
<path d="M553.5,940.5l0,-2" class="g3_372" />
<path d="M554.5,940.5l163,0" class="g3_372" />
<path d="M717.5,940.5l0,-2" class="g3_372" />
<path d="M719.5,940.5l168,0" class="g3_372" />
<path d="M887.5,940.5l0,-2" class="g3_372" />
<path d="M887.5,940.5l0,-2" class="g3_372" />
<path d="M46.5,964.5l0,-24" class="g3_372" />
<path d="M224.5,964.5l0,-24" class="g3_372" />
<path d="M388.5,964.5l0,-24" class="g3_372" />
<path d="M553.5,964.5l0,-24" class="g3_372" />
<path d="M717.5,964.5l0,-24" class="g3_372" />
<path d="M887.5,964.5l0,-24" class="g3_372" />
<path fill-rule="evenodd" d="M47,989l177,0l0,-24L47,965l0,24Z" class="g1_372" />
<g clip-path="url(#c14_372)">
<path fill-rule="evenodd" d="M55,989l162,0l0,-24L55,965l0,24Z" class="g1_372" />
</g>
<path fill-rule="evenodd" d="M226,989l162,0l0,-24l-162,0l0,24Z" class="g1_372" />
<g clip-path="url(#c15_372)">
<path fill-rule="evenodd" d="M233,989l148,0l0,-24l-148,0l0,24Z" class="g1_372" />
</g>
<path fill-rule="evenodd" d="M390,989l163,0l0,-24l-163,0l0,24Z" class="g1_372" />
<g clip-path="url(#c16_372)">
<path fill-rule="evenodd" d="M397,989l148,0l0,-24l-148,0l0,24Z" class="g1_372" />
</g>
<path fill-rule="evenodd" d="M554,989l163,0l0,-24l-163,0l0,24Z" class="g1_372" />
<g clip-path="url(#c17_372)">
<path fill-rule="evenodd" d="M562,989l148,0l0,-24l-148,0l0,24Z" class="g1_372" />
</g>
<path fill-rule="evenodd" d="M719,989l168,0l0,-24l-168,0l0,24Z" class="g1_372" />
<g clip-path="url(#c18_372)">
<path fill-rule="evenodd" d="M726,989l154,0l0,-24l-154,0l0,24Z" class="g1_372" />
</g>
<path d="M46.5,965.5l0,-1" class="g3_372" />
<path d="M47.5,965.5l177,0" class="g3_372" />
<path d="M224.5,965.5l0,-1" class="g3_372" />
<path d="M226.5,965.5l162,0" class="g3_372" />
<path d="M388.5,965.5l0,-1" class="g3_372" />
<path d="M390.5,965.5l163,0" class="g3_372" />
<path d="M553.5,965.5l0,-1" class="g3_372" />
<path d="M554.5,965.5l163,0" class="g3_372" />
<path d="M717.5,965.5l0,-1" class="g3_372" />
<path d="M719.5,965.5l168,0" class="g3_372" />
<path d="M887.5,965.5l0,-1" class="g3_372" />
<path d="M46.5,989.5l0,-24" class="g3_372" />
<path d="M46.5,991.5l0,-2" class="g3_372" />
<path d="M46.5,991.5l0,-2" class="g3_372" />
<path d="M47.5,991.5l177,0" class="g3_372" />
<path d="M224.5,989.5l0,-24" class="g3_372" />
<path d="M224.5,991.5l0,-2" class="g3_372" />
<path d="M226.5,991.5l162,0" class="g3_372" />
<path d="M388.5,989.5l0,-24" class="g3_372" />
<path d="M388.5,991.5l0,-2" class="g3_372" />
<path d="M390.5,991.5l163,0" class="g3_372" />
<path d="M553.5,989.5l0,-24" class="g3_372" />
<path d="M553.5,991.5l0,-2" class="g3_372" />
<path d="M554.5,991.5l163,0" class="g3_372" />
<path d="M717.5,989.5l0,-24" class="g3_372" />
<path d="M717.5,991.5l0,-2" class="g3_372" />
<path d="M719.5,991.5l168,0" class="g3_372" />
<path d="M887.5,989.5l0,-24" class="g3_372" />
<path d="M887.5,991.5l0,-2" class="g3_372" />
<path d="M887.5,991.5l0,-2" class="g3_372" />
</svg>