<?xml version="1.0" encoding="UTF-8" standalone="no"?>
<!DOCTYPE svg PUBLIC "-//W3C//DTD SVG 1.1//EN"
"http://www.w3.org/Graphics/SVG/1.1/DTD/svg11.dtd">
<svg version="1.1" xmlns="http://www.w3.org/2000/svg" xmlns:xlink="http://www.w3.org/1999/xlink">
<defs>
<clipPath id="c0_484"><path d="M47.5,285.5l0,-24l178,0l0,24Z" /></clipPath>
<clipPath id="c1_484"><path d="M227.5,285.5l0,-24l162,0l0,24Z" /></clipPath>
<clipPath id="c2_484"><path d="M391.5,285.5l0,-24l496,0l0,24Z" /></clipPath>
<clipPath id="c3_484"><path d="M47.5,358.5l0,-71l178,0l0,71Z" /></clipPath>
<clipPath id="c4_484"><path d="M227.5,358.5l0,-71l162,0l0,71Z" /></clipPath>
<clipPath id="c5_484"><path d="M391.5,358.5l0,-71l496,0l0,71Z" /></clipPath>
<clipPath id="c6_484"><path d="M47.5,431.5l0,-71l178,0l0,71Z" /></clipPath>
<clipPath id="c7_484"><path d="M227.5,431.5l0,-71l162,0l0,71Z" /></clipPath>
<clipPath id="c8_484"><path d="M391.5,431.5l0,-71l496,0l0,71Z" /></clipPath>
<clipPath id="c9_484"><path d="M47.5,504.5l0,-71l178,0l0,71Z" /></clipPath>
<clipPath id="c10_484"><path d="M227.5,504.5l0,-71l162,0l0,71Z" /></clipPath>
<clipPath id="c11_484"><path d="M391.5,504.5l0,-71l496,0l0,71Z" /></clipPath>
<clipPath id="c12_484"><path d="M47.5,771.5l0,-95l178,0l0,95Z" /></clipPath>
<clipPath id="c13_484"><path d="M227.5,771.5l0,-95l162,0l0,95Z" /></clipPath>
<clipPath id="c14_484"><path d="M391.5,771.5l0,-95l496,0l0,95Z" /></clipPath>
<clipPath id="c15_484"><path d="M47.5,953.5l0,-24l102,0l0,24Z" /></clipPath>
<clipPath id="c16_484"><path d="M151.5,953.5l0,-24l736,0l0,24Z" /></clipPath>
<clipPath id="c17_484"><path d="M47.5,978.5l0,-24l102,0l0,24Z" /></clipPath>
<clipPath id="c18_484"><path d="M151.5,978.5l0,-24l736,0l0,24Z" /></clipPath>
<clipPath id="c19_484"><path d="M151.5,1075.5l0,-95l736,0l0,95Z" /></clipPath>
<style type="text/css"><![CDATA[
.g2_484{
fill: none;
stroke: #7E7E7E;
stroke-width: 1;
stroke-linecap: butt;
stroke-linejoin: miter;
}
.g3_484{
fill: #F1F1F1;
}
.g1_484{
fill: #DBE5F1;
}
]]></style>
</defs>
<path fill-rule="evenodd" d="M47,285l178,0l0,-24L47,261l0,24Z" class="g1_484" />
<g clip-path="url(#c0_484)">
<path fill-rule="evenodd" d="M55,285l163,0l0,-24L55,261l0,24Z" class="g1_484" />
</g>
<path fill-rule="evenodd" d="M226,285l163,0l0,-24l-163,0l0,24Z" class="g1_484" />
<g clip-path="url(#c1_484)">
<path fill-rule="evenodd" d="M234,285l148,0l0,-24l-148,0l0,24Z" class="g1_484" />
</g>
<path fill-rule="evenodd" d="M391,285l496,0l0,-24l-496,0l0,24Z" class="g1_484" />
<g clip-path="url(#c2_484)">
<path fill-rule="evenodd" d="M398,285l482,0l0,-24l-482,0l0,24Z" class="g1_484" />
</g>
<path d="M46.5,261.5l0,-1" class="g2_484" />
<path d="M46.5,261.5l0,-1" class="g2_484" />
<path d="M47.5,261.5l178,0" class="g2_484" />
<path d="M225.5,261.5l0,-1" class="g2_484" />
<path d="M226.5,261.5l163,0" class="g2_484" />
<path d="M389.5,261.5l0,-1" class="g2_484" />
<path d="M391.5,261.5l496,0" class="g2_484" />
<path d="M887.5,261.5l0,-1" class="g2_484" />
<path d="M887.5,261.5l0,-1" class="g2_484" />
<path d="M46.5,285.5l0,-24" class="g2_484" />
<path d="M225.5,285.5l0,-24" class="g2_484" />
<path d="M389.5,285.5l0,-24" class="g2_484" />
<path d="M887.5,285.5l0,-24" class="g2_484" />
<path fill-rule="evenodd" d="M47,358l178,0l0,-71L47,287l0,71Z" class="g3_484" />
<g clip-path="url(#c3_484)">
<path fill-rule="evenodd" d="M55,310l163,0l0,-23L55,287l0,23Z" class="g3_484" />
</g>
<path fill-rule="evenodd" d="M226,358l163,0l0,-71l-163,0l0,71Z" class="g3_484" />
<g clip-path="url(#c4_484)">
<path fill-rule="evenodd" d="M234,310l148,0l0,-23l-148,0l0,23Z" class="g3_484" />
</g>
<path fill-rule="evenodd" d="M391,358l496,0l0,-71l-496,0l0,71Z" class="g3_484" />
<g clip-path="url(#c5_484)">
<path fill-rule="evenodd" d="M398,310l482,0l0,-23l-482,0l0,23Z" class="g3_484" />
</g>
<path fill-rule="evenodd" d="M398,334l482,0l0,-24l-482,0l0,24Z" class="g3_484" />
<path fill-rule="evenodd" d="M398,358l482,0l0,-24l-482,0l0,24Z" class="g3_484" />
<path d="M46.5,286.5l0,-1" class="g2_484" />
<path d="M47.5,286.5l178,0" class="g2_484" />
<path d="M225.5,286.5l0,-1" class="g2_484" />
<path d="M226.5,286.5l163,0" class="g2_484" />
<path d="M389.5,286.5l0,-1" class="g2_484" />
<path d="M391.5,286.5l496,0" class="g2_484" />
<path d="M887.5,286.5l0,-1" class="g2_484" />
<path d="M46.5,358.5l0,-72" class="g2_484" />
<path d="M225.5,358.5l0,-72" class="g2_484" />
<path d="M389.5,358.5l0,-72" class="g2_484" />
<path d="M887.5,358.5l0,-72" class="g2_484" />
<path fill-rule="evenodd" d="M47,431l178,0l0,-71L47,360l0,71Z" class="g3_484" />
<g clip-path="url(#c6_484)">
<path fill-rule="evenodd" d="M55,383l163,0l0,-23L55,360l0,23Z" class="g3_484" />
</g>
<path fill-rule="evenodd" d="M226,431l163,0l0,-71l-163,0l0,71Z" class="g3_484" />
<g clip-path="url(#c7_484)">
<path fill-rule="evenodd" d="M234,383l148,0l0,-23l-148,0l0,23Z" class="g3_484" />
</g>
<path fill-rule="evenodd" d="M391,431l496,0l0,-71l-496,0l0,71Z" class="g3_484" />
<g clip-path="url(#c8_484)">
<path fill-rule="evenodd" d="M398,383l482,0l0,-23l-482,0l0,23Z" class="g3_484" />
</g>
<path fill-rule="evenodd" d="M398,407l482,0l0,-24l-482,0l0,24Z" class="g3_484" />
<path fill-rule="evenodd" d="M398,431l482,0l0,-24l-482,0l0,24Z" class="g3_484" />
<path d="M46.5,360.5l0,-2" class="g2_484" />
<path d="M47.5,360.5l178,0" class="g2_484" />
<path d="M225.5,360.5l0,-2" class="g2_484" />
<path d="M226.5,360.5l163,0" class="g2_484" />
<path d="M389.5,360.5l0,-2" class="g2_484" />
<path d="M391.5,360.5l496,0" class="g2_484" />
<path d="M887.5,360.5l0,-2" class="g2_484" />
<path d="M46.5,431.5l0,-71" class="g2_484" />
<path d="M225.5,431.5l0,-71" class="g2_484" />
<path d="M389.5,431.5l0,-71" class="g2_484" />
<path d="M887.5,431.5l0,-71" class="g2_484" />
<path fill-rule="evenodd" d="M47,504l178,0l0,-71L47,433l0,71Z" class="g3_484" />
<g clip-path="url(#c9_484)">
<path fill-rule="evenodd" d="M55,456l163,0l0,-23L55,433l0,23Z" class="g3_484" />
</g>
<path fill-rule="evenodd" d="M226,504l163,0l0,-71l-163,0l0,71Z" class="g3_484" />
<g clip-path="url(#c10_484)">
<path fill-rule="evenodd" d="M234,456l148,0l0,-23l-148,0l0,23Z" class="g3_484" />
</g>
<path fill-rule="evenodd" d="M391,504l496,0l0,-71l-496,0l0,71Z" class="g3_484" />
<g clip-path="url(#c11_484)">
<path fill-rule="evenodd" d="M398,456l482,0l0,-23l-482,0l0,23Z" class="g3_484" />
</g>
<path fill-rule="evenodd" d="M398,480l482,0l0,-24l-482,0l0,24Z" class="g3_484" />
<path fill-rule="evenodd" d="M398,504l482,0l0,-24l-482,0l0,24Z" class="g3_484" />
<path d="M46.5,433.5l0,-2" class="g2_484" />
<path d="M47.5,433.5l178,0" class="g2_484" />
<path d="M225.5,433.5l0,-2" class="g2_484" />
<path d="M226.5,433.5l163,0" class="g2_484" />
<path d="M389.5,433.5l0,-2" class="g2_484" />
<path d="M391.5,433.5l496,0" class="g2_484" />
<path d="M887.5,433.5l0,-2" class="g2_484" />
<path d="M46.5,504.5l0,-71" class="g2_484" />
<path d="M225.5,504.5l0,-71" class="g2_484" />
<path d="M389.5,504.5l0,-71" class="g2_484" />
<path d="M887.5,504.5l0,-71" class="g2_484" />
<path fill-rule="evenodd" d="M47,601l178,0l0,-95L47,506l0,95Z" class="g3_484" />
<path fill-rule="evenodd" d="M55,530l163,0l0,-24L55,506l0,24Z" class="g3_484" />
<path fill-rule="evenodd" d="M226,601l163,0l0,-95l-163,0l0,95Z" class="g3_484" />
<path fill-rule="evenodd" d="M234,530l148,0l0,-24l-148,0l0,24Z" class="g3_484" />
<path fill-rule="evenodd" d="M391,601l496,0l0,-95l-496,0l0,95Z" class="g3_484" />
<path fill-rule="evenodd" d="M398,530l482,0l0,-24l-482,0l0,24Z" class="g3_484" />
<path fill-rule="evenodd" d="M398,553l482,0l0,-23l-482,0l0,23Z" class="g3_484" />
<path fill-rule="evenodd" d="M398,577l482,0l0,-24l-482,0l0,24Z" class="g3_484" />
<path fill-rule="evenodd" d="M398,601l482,0l0,-24l-482,0l0,24Z" class="g3_484" />
<path d="M46.5,506.5l0,-2" class="g2_484" />
<path d="M47.5,506.5l178,0" class="g2_484" />
<path d="M225.5,506.5l0,-2" class="g2_484" />
<path d="M226.5,506.5l163,0" class="g2_484" />
<path d="M389.5,506.5l0,-2" class="g2_484" />
<path d="M391.5,506.5l496,0" class="g2_484" />
<path d="M887.5,506.5l0,-2" class="g2_484" />
<path d="M46.5,601.5l0,-95" class="g2_484" />
<path d="M225.5,601.5l0,-95" class="g2_484" />
<path d="M389.5,601.5l0,-95" class="g2_484" />
<path d="M887.5,601.5l0,-95" class="g2_484" />
<path fill-rule="evenodd" d="M47,674l178,0l0,-71L47,603l0,71Z" class="g3_484" />
<path fill-rule="evenodd" d="M55,626l163,0l0,-23L55,603l0,23Z" class="g3_484" />
<path fill-rule="evenodd" d="M226,674l163,0l0,-71l-163,0l0,71Z" class="g3_484" />
<path fill-rule="evenodd" d="M234,626l148,0l0,-23l-148,0l0,23Z" class="g3_484" />
<path fill-rule="evenodd" d="M391,674l496,0l0,-71l-496,0l0,71Z" class="g3_484" />
<path fill-rule="evenodd" d="M398,626l482,0l0,-23l-482,0l0,23Z" class="g3_484" />
<path fill-rule="evenodd" d="M398,650l482,0l0,-24l-482,0l0,24Z" class="g3_484" />
<path fill-rule="evenodd" d="M398,674l482,0l0,-24l-482,0l0,24Z" class="g3_484" />
<path d="M46.5,603.5l0,-2" class="g2_484" />
<path d="M47.5,603.5l178,0" class="g2_484" />
<path d="M225.5,603.5l0,-2" class="g2_484" />
<path d="M226.5,603.5l163,0" class="g2_484" />
<path d="M389.5,603.5l0,-2" class="g2_484" />
<path d="M391.5,603.5l496,0" class="g2_484" />
<path d="M887.5,603.5l0,-2" class="g2_484" />
<path d="M46.5,674.5l0,-71" class="g2_484" />
<path d="M225.5,674.5l0,-71" class="g2_484" />
<path d="M389.5,674.5l0,-71" class="g2_484" />
<path d="M887.5,674.5l0,-71" class="g2_484" />
<path fill-rule="evenodd" d="M47,771l178,0l0,-95L47,676l0,95Z" class="g3_484" />
<g clip-path="url(#c12_484)">
<path fill-rule="evenodd" d="M55,699l163,0l0,-23L55,676l0,23Z" class="g3_484" />
</g>
<path fill-rule="evenodd" d="M226,771l163,0l0,-95l-163,0l0,95Z" class="g3_484" />
<g clip-path="url(#c13_484)">
<path fill-rule="evenodd" d="M234,699l148,0l0,-23l-148,0l0,23Z" class="g3_484" />
</g>
<path fill-rule="evenodd" d="M391,771l496,0l0,-95l-496,0l0,95Z" class="g3_484" />
<g clip-path="url(#c14_484)">
<path fill-rule="evenodd" d="M398,699l482,0l0,-23l-482,0l0,23Z" class="g3_484" />
</g>
<path fill-rule="evenodd" d="M398,723l482,0l0,-24l-482,0l0,24Z" class="g3_484" />
<path fill-rule="evenodd" d="M398,747l482,0l0,-24l-482,0l0,24Z" class="g3_484" />
<path fill-rule="evenodd" d="M398,771l482,0l0,-24l-482,0l0,24Z" class="g3_484" />
<path d="M46.5,676.5l0,-2" class="g2_484" />
<path d="M47.5,676.5l178,0" class="g2_484" />
<path d="M225.5,676.5l0,-2" class="g2_484" />
<path d="M226.5,676.5l163,0" class="g2_484" />
<path d="M389.5,676.5l0,-2" class="g2_484" />
<path d="M391.5,676.5l496,0" class="g2_484" />
<path d="M887.5,676.5l0,-2" class="g2_484" />
<path d="M46.5,771.5l0,-95" class="g2_484" />
<path d="M46.5,773.5l0,-2" class="g2_484" />
<path d="M46.5,773.5l0,-2" class="g2_484" />
<path d="M47.5,773.5l178,0" class="g2_484" />
<path d="M225.5,771.5l0,-95" class="g2_484" />
<path d="M225.5,773.5l0,-2" class="g2_484" />
<path d="M226.5,773.5l163,0" class="g2_484" />
<path d="M389.5,771.5l0,-95" class="g2_484" />
<path d="M389.5,773.5l0,-2" class="g2_484" />
<path d="M391.5,773.5l496,0" class="g2_484" />
<path d="M887.5,771.5l0,-95" class="g2_484" />
<path d="M887.5,773.5l0,-2" class="g2_484" />
<path d="M887.5,773.5l0,-2" class="g2_484" />
<path fill-rule="evenodd" d="M47,953l102,0l0,-24L47,929l0,24Z" class="g1_484" />
<g clip-path="url(#c15_484)">
<path fill-rule="evenodd" d="M55,953l87,0l0,-24l-87,0l0,24Z" class="g1_484" />
</g>
<path fill-rule="evenodd" d="M151,953l736,0l0,-24l-736,0l0,24Z" class="g1_484" />
<g clip-path="url(#c16_484)">
<path fill-rule="evenodd" d="M158,953l722,0l0,-24l-722,0l0,24Z" class="g1_484" />
</g>
<path d="M46.5,929.5l0,-1" class="g2_484" />
<path d="M46.5,929.5l0,-1" class="g2_484" />
<path d="M47.5,929.5l102,0" class="g2_484" />
<path d="M149.5,929.5l0,-1" class="g2_484" />
<path d="M151.5,929.5l736,0" class="g2_484" />
<path d="M887.5,929.5l0,-1" class="g2_484" />
<path d="M887.5,929.5l0,-1" class="g2_484" />
<path d="M46.5,953.5l0,-24" class="g2_484" />
<path d="M149.5,953.5l0,-24" class="g2_484" />
<path d="M887.5,953.5l0,-24" class="g2_484" />
<path fill-rule="evenodd" d="M47,978l102,0l0,-24L47,954l0,24Z" class="g3_484" />
<g clip-path="url(#c17_484)">
<path fill-rule="evenodd" d="M55,978l87,0l0,-24l-87,0l0,24Z" class="g3_484" />
</g>
<path fill-rule="evenodd" d="M151,978l736,0l0,-24l-736,0l0,24Z" class="g3_484" />
<g clip-path="url(#c18_484)">
<path fill-rule="evenodd" d="M158,978l722,0l0,-24l-722,0l0,24Z" class="g3_484" />
</g>
<path d="M46.5,954.5l0,-1" class="g2_484" />
<path d="M47.5,954.5l102,0" class="g2_484" />
<path d="M149.5,954.5l0,-1" class="g2_484" />
<path d="M151.5,954.5l736,0" class="g2_484" />
<path d="M887.5,954.5l0,-1" class="g2_484" />
<path d="M46.5,978.5l0,-24" class="g2_484" />
<path d="M149.5,978.5l0,-24" class="g2_484" />
<path d="M887.5,978.5l0,-24" class="g2_484" />
<path fill-rule="evenodd" d="M47,1075l102,0l0,-95L47,980l0,95Z" class="g3_484" />
<path fill-rule="evenodd" d="M55,1004l87,0l0,-24l-87,0l0,24Z" class="g3_484" />
<path fill-rule="evenodd" d="M151,1075l736,0l0,-95l-736,0l0,95Z" class="g3_484" />
<path fill-rule="evenodd" d="M158,1004l722,0l0,-24l-722,0l0,24Z" class="g3_484" />
<path fill-rule="evenodd" d="M158,1027l722,0l0,-23l-722,0l0,23Z" class="g3_484" />
<path fill-rule="evenodd" d="M158,1051l722,0l0,-24l-722,0l0,24Z" class="g3_484" />
<g clip-path="url(#c19_484)">
<path fill-rule="evenodd" d="M158,1075l722,0l0,-24l-722,0l0,24Z" class="g3_484" />
</g>
<path d="M46.5,980.5l0,-2" class="g2_484" />
<path d="M47.5,980.5l102,0" class="g2_484" />
<path d="M149.5,980.5l0,-2" class="g2_484" />
<path d="M151.5,980.5l736,0" class="g2_484" />
<path d="M887.5,980.5l0,-2" class="g2_484" />
<path d="M46.5,1075.5l0,-95" class="g2_484" />
<path d="M46.5,1077.5l0,-2" class="g2_484" />
<path d="M46.5,1077.5l0,-2" class="g2_484" />
<path d="M47.5,1077.5l102,0" class="g2_484" />
<path d="M149.5,1075.5l0,-95" class="g2_484" />
<path d="M149.5,1077.5l0,-2" class="g2_484" />
<path d="M151.5,1077.5l736,0" class="g2_484" />
<path d="M887.5,1075.5l0,-95" class="g2_484" />
<path d="M887.5,1077.5l0,-2" class="g2_484" />
<path d="M887.5,1077.5l0,-2" class="g2_484" />
</svg>