<?xml version="1.0" encoding="UTF-8" standalone="no"?>
<!DOCTYPE svg PUBLIC "-//W3C//DTD SVG 1.1//EN"
"http://www.w3.org/Graphics/SVG/1.1/DTD/svg11.dtd">
<svg version="1.1" xmlns="http://www.w3.org/2000/svg" xmlns:xlink="http://www.w3.org/1999/xlink">
<defs>
<clipPath id="c0_11"><path d="M47.5,365.5l0,-24l178,0l0,24Z" /></clipPath>
<clipPath id="c1_11"><path d="M226.5,365.5l0,-24l163,0l0,24Z" /></clipPath>
<clipPath id="c2_11"><path d="M390.5,365.5l0,-24l497,0l0,24Z" /></clipPath>
<clipPath id="c3_11"><path d="M47.5,462.5l0,-95l178,0l0,95Z" /></clipPath>
<clipPath id="c4_11"><path d="M226.5,462.5l0,-95l163,0l0,95Z" /></clipPath>
<clipPath id="c5_11"><path d="M390.5,462.5l0,-95l497,0l0,95Z" /></clipPath>
<clipPath id="c6_11"><path d="M47.5,559.5l0,-95l178,0l0,95Z" /></clipPath>
<clipPath id="c7_11"><path d="M226.5,559.5l0,-95l163,0l0,95Z" /></clipPath>
<clipPath id="c8_11"><path d="M390.5,559.5l0,-95l497,0l0,95Z" /></clipPath>
<clipPath id="c9_11"><path d="M47.5,791.5l0,-134l840,0l0,134Z" /></clipPath>
<clipPath id="c10_11"><path d="M47.5,999.5l0,-133l840,0l0,133Z" /></clipPath>
<style type="text/css"><![CDATA[
.g5_11{
fill: none;
stroke: #F0F0E0;
stroke-width: 1;
stroke-linecap: butt;
stroke-linejoin: miter;
}
.g2_11{
fill: #DBE5F1;
}
.g4_11{
fill: #F1F1F1;
}
.g3_11{
fill: none;
stroke: #7E7E7E;
stroke-width: 1;
stroke-linecap: butt;
stroke-linejoin: miter;
}
.g1_11{
}
]]></style>
</defs>
<path fill-rule="evenodd" d="M55,178l32,0l0,-2l-32,0l0,2Z" class="g1_11" />
<path fill-rule="evenodd" d="M722,202l153,0l0,-2l-153,0l0,2Z" class="g1_11" />
<path fill-rule="evenodd" d="M55,226l297,0l0,-2L55,224l0,2Z" class="g1_11" />
<path fill-rule="evenodd" d="M47,365l178,0l0,-24L47,341l0,24Z" class="g2_11" />
<g clip-path="url(#c0_11)">
<path fill-rule="evenodd" d="M55,365l162,0l0,-24L55,341l0,24Z" class="g2_11" />
</g>
<path fill-rule="evenodd" d="M226,365l163,0l0,-24l-163,0l0,24Z" class="g2_11" />
<g clip-path="url(#c1_11)">
<path fill-rule="evenodd" d="M234,365l147,0l0,-24l-147,0l0,24Z" class="g2_11" />
</g>
<path fill-rule="evenodd" d="M390,365l497,0l0,-24l-497,0l0,24Z" class="g2_11" />
<g clip-path="url(#c2_11)">
<path fill-rule="evenodd" d="M398,365l482,0l0,-24l-482,0l0,24Z" class="g2_11" />
</g>
<path d="M46.5,341.5l0,-1" class="g3_11" />
<path d="M46.5,341.5l0,-1" class="g3_11" />
<path d="M47.5,341.5l178,0" class="g3_11" />
<path d="M225.5,341.5l0,-1" class="g3_11" />
<path d="M226.5,341.5l163,0" class="g3_11" />
<path d="M389.5,341.5l0,-1" class="g3_11" />
<path d="M390.5,341.5l497,0" class="g3_11" />
<path d="M887.5,341.5l0,-1" class="g3_11" />
<path d="M887.5,341.5l0,-1" class="g3_11" />
<path d="M46.5,365.5l0,-24" class="g3_11" />
<path d="M225.5,365.5l0,-24" class="g3_11" />
<path d="M389.5,365.5l0,-24" class="g3_11" />
<path d="M887.5,365.5l0,-24" class="g3_11" />
<path fill-rule="evenodd" d="M47,462l178,0l0,-95L47,367l0,95Z" class="g4_11" />
<g clip-path="url(#c3_11)">
<path fill-rule="evenodd" d="M55,391l162,0l0,-24L55,367l0,24Z" class="g4_11" />
</g>
<path fill-rule="evenodd" d="M226,462l163,0l0,-95l-163,0l0,95Z" class="g4_11" />
<g clip-path="url(#c4_11)">
<path fill-rule="evenodd" d="M234,391l147,0l0,-24l-147,0l0,24Z" class="g4_11" />
</g>
<path fill-rule="evenodd" d="M390,462l497,0l0,-95l-497,0l0,95Z" class="g4_11" />
<g clip-path="url(#c5_11)">
<path fill-rule="evenodd" d="M398,391l482,0l0,-24l-482,0l0,24Z" class="g4_11" />
</g>
<path fill-rule="evenodd" d="M398,414l482,0l0,-23l-482,0l0,23Z" class="g4_11" />
<path fill-rule="evenodd" d="M398,438l482,0l0,-24l-482,0l0,24Z" class="g4_11" />
<path fill-rule="evenodd" d="M398,462l482,0l0,-24l-482,0l0,24Z" class="g4_11" />
<path d="M46.5,367.5l0,-2" class="g3_11" />
<path d="M47.5,367.5l178,0" class="g3_11" />
<path d="M225.5,367.5l0,-2" class="g3_11" />
<path d="M226.5,367.5l163,0" class="g3_11" />
<path d="M389.5,367.5l0,-2" class="g3_11" />
<path d="M390.5,367.5l497,0" class="g3_11" />
<path d="M887.5,367.5l0,-2" class="g3_11" />
<path d="M46.5,462.5l0,-95" class="g3_11" />
<path d="M225.5,462.5l0,-95" class="g3_11" />
<path d="M389.5,462.5l0,-95" class="g3_11" />
<path d="M887.5,462.5l0,-95" class="g3_11" />
<path fill-rule="evenodd" d="M47,559l178,0l0,-95L47,464l0,95Z" class="g4_11" />
<g clip-path="url(#c6_11)">
<path fill-rule="evenodd" d="M55,488l162,0l0,-24L55,464l0,24Z" class="g4_11" />
</g>
<path fill-rule="evenodd" d="M226,559l163,0l0,-95l-163,0l0,95Z" class="g4_11" />
<g clip-path="url(#c7_11)">
<path fill-rule="evenodd" d="M234,488l147,0l0,-24l-147,0l0,24Z" class="g4_11" />
</g>
<path fill-rule="evenodd" d="M390,559l497,0l0,-95l-497,0l0,95Z" class="g4_11" />
<g clip-path="url(#c8_11)">
<path fill-rule="evenodd" d="M398,488l482,0l0,-24l-482,0l0,24Z" class="g4_11" />
</g>
<path fill-rule="evenodd" d="M398,511l482,0l0,-23l-482,0l0,23Z" class="g4_11" />
<path fill-rule="evenodd" d="M398,535l482,0l0,-24l-482,0l0,24Z" class="g4_11" />
<path fill-rule="evenodd" d="M398,559l482,0l0,-24l-482,0l0,24Z" class="g4_11" />
<path d="M46.5,464.5l0,-2" class="g3_11" />
<path d="M47.5,464.5l178,0" class="g3_11" />
<path d="M225.5,464.5l0,-2" class="g3_11" />
<path d="M226.5,464.5l163,0" class="g3_11" />
<path d="M389.5,464.5l0,-2" class="g3_11" />
<path d="M390.5,464.5l497,0" class="g3_11" />
<path d="M887.5,464.5l0,-2" class="g3_11" />
<path d="M46.5,559.5l0,-95" class="g3_11" />
<path d="M46.5,561.5l0,-2" class="g3_11" />
<path d="M46.5,561.5l0,-2" class="g3_11" />
<path d="M47.5,561.5l178,0" class="g3_11" />
<path d="M225.5,559.5l0,-95" class="g3_11" />
<path d="M225.5,561.5l0,-2" class="g3_11" />
<path d="M226.5,561.5l163,0" class="g3_11" />
<path d="M389.5,559.5l0,-95" class="g3_11" />
<path d="M389.5,561.5l0,-2" class="g3_11" />
<path d="M390.5,561.5l497,0" class="g3_11" />
<path d="M887.5,559.5l0,-95" class="g3_11" />
<path d="M887.5,561.5l0,-2" class="g3_11" />
<path d="M887.5,561.5l0,-2" class="g3_11" />
<path fill-rule="evenodd" d="M47,791l840,0l0,-134L47,657l0,134Z" class="g4_11" />
<g clip-path="url(#c9_11)">
<path fill-rule="evenodd" d="M55,689l825,0l0,-32L55,657l0,32Z" class="g4_11" />
<path d="M45.5,658.5l0,-1" class="g5_11" />
<path d="M45.5,658.5l0,-1" class="g5_11" />
<path d="M46.5,658.5l842,0" class="g5_11" />
<path d="M888.5,658.5l0,-1" class="g5_11" />
<path d="M888.5,658.5l0,-1" class="g5_11" />
<path d="M45.5,689.5l0,-31" class="g5_11" />
<path d="M888.5,689.5l0,-31" class="g5_11" />
</g>
<path fill-rule="evenodd" d="M55,712l825,0l0,-23L55,689l0,23Z" class="g4_11" />
<g clip-path="url(#c9_11)">
<path d="M45.5,712.5l0,-23" class="g5_11" />
<path d="M888.5,712.5l0,-23" class="g5_11" />
</g>
<path fill-rule="evenodd" d="M55,736l825,0l0,-24L55,712l0,24Z" class="g4_11" />
<g clip-path="url(#c9_11)">
<path d="M45.5,736.5l0,-24" class="g5_11" />
<path d="M888.5,736.5l0,-24" class="g5_11" />
</g>
<path fill-rule="evenodd" d="M55,760l825,0l0,-24L55,736l0,24Z" class="g4_11" />
<g clip-path="url(#c9_11)">
<path d="M45.5,760.5l0,-24" class="g5_11" />
<path d="M888.5,760.5l0,-24" class="g5_11" />
</g>
<path fill-rule="evenodd" d="M55,791l825,0l0,-31L55,760l0,31Z" class="g4_11" />
<g clip-path="url(#c9_11)">
<path d="M45.5,791.5l0,-1" class="g5_11" />
<path d="M45.5,791.5l0,-1" class="g5_11" />
<path d="M46.5,791.5l842,0" class="g5_11" />
<path d="M888.5,791.5l0,-1" class="g5_11" />
<path d="M888.5,791.5l0,-1" class="g5_11" />
<path d="M45.5,790.5l0,-30" class="g5_11" />
<path d="M888.5,790.5l0,-30" class="g5_11" />
</g>
<path d="M46.5,657.5l0,-1" class="g3_11" />
<path d="M46.5,657.5l0,-1" class="g3_11" />
<path d="M47.5,657.5l840,0" class="g3_11" />
<path d="M887.5,657.5l0,-1" class="g3_11" />
<path d="M887.5,657.5l0,-1" class="g3_11" />
<path d="M46.5,791.5l0,-134" class="g3_11" />
<path d="M46.5,793.5l0,-2" class="g3_11" />
<path d="M46.5,793.5l0,-2" class="g3_11" />
<path d="M47.5,793.5l840,0" class="g3_11" />
<path d="M887.5,791.5l0,-134" class="g3_11" />
<path d="M887.5,793.5l0,-2" class="g3_11" />
<path d="M887.5,793.5l0,-2" class="g3_11" />
<path fill-rule="evenodd" d="M47,999l840,0l0,-133L47,866l0,133Z" class="g4_11" />
<g clip-path="url(#c10_11)">
<path fill-rule="evenodd" d="M55,897l825,0l0,-31L55,866l0,31Z" class="g4_11" />
<path d="M45.5,867.5l0,-1" class="g5_11" />
<path d="M45.5,867.5l0,-1" class="g5_11" />
<path d="M46.5,867.5l842,0" class="g5_11" />
<path d="M888.5,867.5l0,-1" class="g5_11" />
<path d="M888.5,867.5l0,-1" class="g5_11" />
<path d="M45.5,897.5l0,-30" class="g5_11" />
<path d="M888.5,897.5l0,-30" class="g5_11" />
</g>
<path fill-rule="evenodd" d="M55,921l825,0l0,-24L55,897l0,24Z" class="g4_11" />
<g clip-path="url(#c10_11)">
<path d="M45.5,921.5l0,-24" class="g5_11" />
<path d="M888.5,921.5l0,-24" class="g5_11" />
</g>
<path fill-rule="evenodd" d="M55,945l825,0l0,-24L55,921l0,24Z" class="g4_11" />
<g clip-path="url(#c10_11)">
<path d="M45.5,945.5l0,-24" class="g5_11" />
<path d="M888.5,945.5l0,-24" class="g5_11" />
</g>
<path fill-rule="evenodd" d="M55,968l825,0l0,-23L55,945l0,23Z" class="g4_11" />
<g clip-path="url(#c10_11)">
<path d="M45.5,968.5l0,-23" class="g5_11" />
<path d="M888.5,968.5l0,-23" class="g5_11" />
<path fill-rule="evenodd" d="M55,999l825,0l0,-31L55,968l0,31Z" class="g4_11" />
<path d="M45.5,999.5l0,-1" class="g5_11" />
<path d="M45.5,999.5l0,-1" class="g5_11" />
<path d="M46.5,999.5l842,0" class="g5_11" />
<path d="M888.5,999.5l0,-1" class="g5_11" />
<path d="M888.5,999.5l0,-1" class="g5_11" />
<path d="M45.5,998.5l0,-30" class="g5_11" />
<path d="M888.5,998.5l0,-30" class="g5_11" />
</g>
<path d="M46.5,866.5l0,-2" class="g3_11" />
<path d="M46.5,866.5l0,-2" class="g3_11" />
<path d="M47.5,866.5l840,0" class="g3_11" />
<path d="M887.5,866.5l0,-2" class="g3_11" />
<path d="M887.5,866.5l0,-2" class="g3_11" />
<path d="M46.5,1000.5l0,-134" class="g3_11" />
<path d="M46.5,1001.5l0,-1" class="g3_11" />
<path d="M46.5,1001.5l0,-1" class="g3_11" />
<path d="M47.5,1001.5l840,0" class="g3_11" />
<path d="M887.5,1000.5l0,-134" class="g3_11" />
<path d="M887.5,1001.5l0,-1" class="g3_11" />
<path d="M887.5,1001.5l0,-1" class="g3_11" />
</svg>