<?xml version="1.0" encoding="UTF-8" standalone="no"?>
<!DOCTYPE svg PUBLIC "-//W3C//DTD SVG 1.1//EN"
"http://www.w3.org/Graphics/SVG/1.1/DTD/svg11.dtd">
<svg version="1.1" xmlns="http://www.w3.org/2000/svg" xmlns:xlink="http://www.w3.org/1999/xlink">
<defs>
<clipPath id="c0_89"><path d="M47.5,246.5l0,-24l102,0l0,24Z" /></clipPath>
<clipPath id="c1_89"><path d="M151.5,246.5l0,-24l736,0l0,24Z" /></clipPath>
<clipPath id="c2_89"><path d="M47.5,271.5l0,-24l102,0l0,24Z" /></clipPath>
<clipPath id="c3_89"><path d="M151.5,271.5l0,-24l736,0l0,24Z" /></clipPath>
<clipPath id="c4_89"><path d="M47.5,297.5l0,-24l102,0l0,24Z" /></clipPath>
<clipPath id="c5_89"><path d="M151.5,297.5l0,-24l736,0l0,24Z" /></clipPath>
<clipPath id="c6_89"><path d="M47.5,322.5l0,-24l102,0l0,24Z" /></clipPath>
<clipPath id="c7_89"><path d="M151.5,322.5l0,-24l736,0l0,24Z" /></clipPath>
<clipPath id="c8_89"><path d="M47.5,347.5l0,-24l102,0l0,24Z" /></clipPath>
<clipPath id="c9_89"><path d="M151.5,347.5l0,-24l736,0l0,24Z" /></clipPath>
<clipPath id="c10_89"><path d="M47.5,373.5l0,-24l102,0l0,24Z" /></clipPath>
<clipPath id="c11_89"><path d="M151.5,373.5l0,-24l736,0l0,24Z" /></clipPath>
<clipPath id="c12_89"><path d="M47.5,398.5l0,-24l102,0l0,24Z" /></clipPath>
<clipPath id="c13_89"><path d="M151.5,398.5l0,-24l736,0l0,24Z" /></clipPath>
<clipPath id="c14_89"><path d="M47.5,654.5l0,-181l840,0l0,181Z" /></clipPath>
<clipPath id="c15_89"><path d="M47.5,824.5l0,-95l840,0l0,95Z" /></clipPath>
<style type="text/css"><![CDATA[
.g2_89{
fill: #DBE5F1;
}
.g5_89{
fill: none;
stroke: #F0F0E0;
stroke-width: 1;
stroke-linecap: butt;
stroke-linejoin: miter;
}
.g3_89{
fill: none;
stroke: #7E7E7E;
stroke-width: 1;
stroke-linecap: butt;
stroke-linejoin: miter;
}
.g4_89{
fill: #F1F1F1;
}
.g1_89{
fill: none;
stroke: #0000FF;
stroke-width: 1;
stroke-linecap: butt;
stroke-linejoin: miter;
}
]]></style>
</defs>
<path d="M371.5,192.5l163,0" class="g1_89" />
<path fill-rule="evenodd" d="M47,246l102,0l0,-24L47,222l0,24Z" class="g2_89" />
<g clip-path="url(#c0_89)">
<path fill-rule="evenodd" d="M55,246l87,0l0,-24l-87,0l0,24Z" class="g2_89" />
</g>
<path fill-rule="evenodd" d="M151,246l736,0l0,-24l-736,0l0,24Z" class="g2_89" />
<g clip-path="url(#c1_89)">
<path fill-rule="evenodd" d="M158,246l722,0l0,-24l-722,0l0,24Z" class="g2_89" />
</g>
<path d="M46.5,222.5l0,-1" class="g3_89" />
<path d="M46.5,222.5l0,-1" class="g3_89" />
<path d="M47.5,222.5l102,0" class="g3_89" />
<path d="M149.5,222.5l0,-1" class="g3_89" />
<path d="M151.5,222.5l736,0" class="g3_89" />
<path d="M887.5,222.5l0,-1" class="g3_89" />
<path d="M887.5,222.5l0,-1" class="g3_89" />
<path d="M46.5,246.5l0,-24" class="g3_89" />
<path d="M149.5,246.5l0,-24" class="g3_89" />
<path d="M887.5,246.5l0,-24" class="g3_89" />
<path fill-rule="evenodd" d="M47,271l102,0l0,-24L47,247l0,24Z" class="g4_89" />
<g clip-path="url(#c2_89)">
<path fill-rule="evenodd" d="M55,271l87,0l0,-24l-87,0l0,24Z" class="g4_89" />
</g>
<path fill-rule="evenodd" d="M151,271l736,0l0,-24l-736,0l0,24Z" class="g4_89" />
<g clip-path="url(#c3_89)">
<path fill-rule="evenodd" d="M158,271l722,0l0,-24l-722,0l0,24Z" class="g4_89" />
</g>
<path d="M46.5,247.5l0,-1" class="g3_89" />
<path d="M47.5,247.5l102,0" class="g3_89" />
<path d="M149.5,247.5l0,-1" class="g3_89" />
<path d="M151.5,247.5l736,0" class="g3_89" />
<path d="M887.5,247.5l0,-1" class="g3_89" />
<path d="M46.5,271.5l0,-24" class="g3_89" />
<path d="M149.5,271.5l0,-24" class="g3_89" />
<path d="M887.5,271.5l0,-24" class="g3_89" />
<path fill-rule="evenodd" d="M47,297l102,0l0,-24L47,273l0,24Z" class="g4_89" />
<g clip-path="url(#c4_89)">
<path fill-rule="evenodd" d="M55,297l87,0l0,-24l-87,0l0,24Z" class="g4_89" />
</g>
<path fill-rule="evenodd" d="M151,297l736,0l0,-24l-736,0l0,24Z" class="g4_89" />
<g clip-path="url(#c5_89)">
<path fill-rule="evenodd" d="M158,297l722,0l0,-24l-722,0l0,24Z" class="g4_89" />
</g>
<path d="M46.5,273.5l0,-2" class="g3_89" />
<path d="M47.5,273.5l102,0" class="g3_89" />
<path d="M149.5,273.5l0,-2" class="g3_89" />
<path d="M151.5,273.5l736,0" class="g3_89" />
<path d="M887.5,273.5l0,-2" class="g3_89" />
<path d="M46.5,297.5l0,-24" class="g3_89" />
<path d="M149.5,297.5l0,-24" class="g3_89" />
<path d="M887.5,297.5l0,-24" class="g3_89" />
<path fill-rule="evenodd" d="M47,322l102,0l0,-24L47,298l0,24Z" class="g4_89" />
<g clip-path="url(#c6_89)">
<path fill-rule="evenodd" d="M55,322l87,0l0,-24l-87,0l0,24Z" class="g4_89" />
</g>
<path fill-rule="evenodd" d="M151,322l736,0l0,-24l-736,0l0,24Z" class="g4_89" />
<g clip-path="url(#c7_89)">
<path fill-rule="evenodd" d="M158,322l722,0l0,-24l-722,0l0,24Z" class="g4_89" />
</g>
<path d="M46.5,298.5l0,-1" class="g3_89" />
<path d="M47.5,298.5l102,0" class="g3_89" />
<path d="M149.5,298.5l0,-1" class="g3_89" />
<path d="M151.5,298.5l736,0" class="g3_89" />
<path d="M887.5,298.5l0,-1" class="g3_89" />
<path d="M46.5,322.5l0,-24" class="g3_89" />
<path d="M149.5,322.5l0,-24" class="g3_89" />
<path d="M887.5,322.5l0,-24" class="g3_89" />
<path fill-rule="evenodd" d="M47,347l102,0l0,-24L47,323l0,24Z" class="g4_89" />
<g clip-path="url(#c8_89)">
<path fill-rule="evenodd" d="M55,347l87,0l0,-24l-87,0l0,24Z" class="g4_89" />
</g>
<path fill-rule="evenodd" d="M151,347l736,0l0,-24l-736,0l0,24Z" class="g4_89" />
<g clip-path="url(#c9_89)">
<path fill-rule="evenodd" d="M158,347l722,0l0,-24l-722,0l0,24Z" class="g4_89" />
</g>
<path d="M46.5,323.5l0,-1" class="g3_89" />
<path d="M47.5,323.5l102,0" class="g3_89" />
<path d="M149.5,323.5l0,-1" class="g3_89" />
<path d="M151.5,323.5l736,0" class="g3_89" />
<path d="M887.5,323.5l0,-1" class="g3_89" />
<path d="M46.5,347.5l0,-24" class="g3_89" />
<path d="M149.5,347.5l0,-24" class="g3_89" />
<path d="M887.5,347.5l0,-24" class="g3_89" />
<path fill-rule="evenodd" d="M47,373l102,0l0,-24L47,349l0,24Z" class="g4_89" />
<g clip-path="url(#c10_89)">
<path fill-rule="evenodd" d="M55,373l87,0l0,-24l-87,0l0,24Z" class="g4_89" />
</g>
<path fill-rule="evenodd" d="M151,373l736,0l0,-24l-736,0l0,24Z" class="g4_89" />
<g clip-path="url(#c11_89)">
<path fill-rule="evenodd" d="M158,373l722,0l0,-24l-722,0l0,24Z" class="g4_89" />
</g>
<path d="M46.5,349.5l0,-2" class="g3_89" />
<path d="M47.5,349.5l102,0" class="g3_89" />
<path d="M149.5,349.5l0,-2" class="g3_89" />
<path d="M151.5,349.5l736,0" class="g3_89" />
<path d="M887.5,349.5l0,-2" class="g3_89" />
<path d="M46.5,373.5l0,-24" class="g3_89" />
<path d="M149.5,373.5l0,-24" class="g3_89" />
<path d="M887.5,373.5l0,-24" class="g3_89" />
<path fill-rule="evenodd" d="M47,398l102,0l0,-24L47,374l0,24Z" class="g4_89" />
<g clip-path="url(#c12_89)">
<path fill-rule="evenodd" d="M55,398l87,0l0,-24l-87,0l0,24Z" class="g4_89" />
</g>
<path fill-rule="evenodd" d="M151,398l736,0l0,-24l-736,0l0,24Z" class="g4_89" />
<g clip-path="url(#c13_89)">
<path fill-rule="evenodd" d="M158,398l722,0l0,-24l-722,0l0,24Z" class="g4_89" />
</g>
<path d="M46.5,374.5l0,-1" class="g3_89" />
<path d="M47.5,374.5l102,0" class="g3_89" />
<path d="M149.5,374.5l0,-1" class="g3_89" />
<path d="M151.5,374.5l736,0" class="g3_89" />
<path d="M887.5,374.5l0,-1" class="g3_89" />
<path d="M46.5,398.5l0,-24" class="g3_89" />
<path d="M46.5,400.5l0,-2" class="g3_89" />
<path d="M46.5,400.5l0,-2" class="g3_89" />
<path d="M47.5,400.5l102,0" class="g3_89" />
<path d="M149.5,398.5l0,-24" class="g3_89" />
<path d="M149.5,400.5l0,-2" class="g3_89" />
<path d="M151.5,400.5l736,0" class="g3_89" />
<path d="M887.5,398.5l0,-24" class="g3_89" />
<path d="M887.5,400.5l0,-2" class="g3_89" />
<path d="M887.5,400.5l0,-2" class="g3_89" />
<path fill-rule="evenodd" d="M47,654l840,0l0,-181L47,473l0,181Z" class="g4_89" />
<g clip-path="url(#c14_89)">
<path fill-rule="evenodd" d="M55,504l825,0l0,-31L55,473l0,31Z" class="g4_89" />
<path d="M45.5,474.5l0,-1" class="g5_89" />
<path d="M45.5,474.5l0,-1" class="g5_89" />
<path d="M46.5,474.5l842,0" class="g5_89" />
<path d="M888.5,474.5l0,-1" class="g5_89" />
<path d="M888.5,474.5l0,-1" class="g5_89" />
<path d="M45.5,504.5l0,-30" class="g5_89" />
<path d="M888.5,504.5l0,-30" class="g5_89" />
</g>
<path fill-rule="evenodd" d="M55,528l825,0l0,-24L55,504l0,24Z" class="g4_89" />
<g clip-path="url(#c14_89)">
<path d="M45.5,528.5l0,-24" class="g5_89" />
<path d="M888.5,528.5l0,-24" class="g5_89" />
</g>
<path fill-rule="evenodd" d="M55,551l825,0l0,-23L55,528l0,23Z" class="g4_89" />
<g clip-path="url(#c14_89)">
<path d="M45.5,551.5l0,-23" class="g5_89" />
<path d="M888.5,551.5l0,-23" class="g5_89" />
</g>
<path fill-rule="evenodd" d="M55,575l825,0l0,-24L55,551l0,24Z" class="g4_89" />
<g clip-path="url(#c14_89)">
<path d="M45.5,575.5l0,-24" class="g5_89" />
<path d="M888.5,575.5l0,-24" class="g5_89" />
</g>
<path fill-rule="evenodd" d="M55,599l825,0l0,-24L55,575l0,24Z" class="g4_89" />
<g clip-path="url(#c14_89)">
<path d="M45.5,599.5l0,-24" class="g5_89" />
<path d="M888.5,599.5l0,-24" class="g5_89" />
</g>
<path fill-rule="evenodd" d="M55,623l825,0l0,-24L55,599l0,24Z" class="g4_89" />
<g clip-path="url(#c14_89)">
<path d="M45.5,623.5l0,-24" class="g5_89" />
<path d="M888.5,623.5l0,-24" class="g5_89" />
</g>
<path fill-rule="evenodd" d="M55,654l825,0l0,-31L55,623l0,31Z" class="g4_89" />
<g clip-path="url(#c14_89)">
<path d="M45.5,654.5l0,-1" class="g5_89" />
<path d="M45.5,654.5l0,-1" class="g5_89" />
<path d="M46.5,654.5l842,0" class="g5_89" />
<path d="M888.5,654.5l0,-1" class="g5_89" />
<path d="M888.5,654.5l0,-1" class="g5_89" />
<path d="M45.5,653.5l0,-30" class="g5_89" />
<path d="M888.5,653.5l0,-30" class="g5_89" />
</g>
<path d="M46.5,473.5l0,-2" class="g3_89" />
<path d="M46.5,473.5l0,-2" class="g3_89" />
<path d="M47.5,473.5l840,0" class="g3_89" />
<path d="M887.5,473.5l0,-2" class="g3_89" />
<path d="M887.5,473.5l0,-2" class="g3_89" />
<path d="M46.5,654.5l0,-181" class="g3_89" />
<path d="M46.5,656.5l0,-2" class="g3_89" />
<path d="M46.5,656.5l0,-2" class="g3_89" />
<path d="M47.5,656.5l840,0" class="g3_89" />
<path d="M887.5,654.5l0,-181" class="g3_89" />
<path d="M887.5,656.5l0,-2" class="g3_89" />
<path d="M887.5,656.5l0,-2" class="g3_89" />
<path fill-rule="evenodd" d="M47,824l840,0l0,-95L47,729l0,95Z" class="g4_89" />
<g clip-path="url(#c15_89)">
<path fill-rule="evenodd" d="M55,752l825,0l0,-23L55,729l0,23Z" class="g4_89" />
</g>
<path fill-rule="evenodd" d="M55,776l825,0l0,-24L55,752l0,24Z" class="g4_89" />
<path fill-rule="evenodd" d="M55,800l825,0l0,-24L55,776l0,24Z" class="g4_89" />
<path fill-rule="evenodd" d="M55,824l825,0l0,-24L55,800l0,24Z" class="g4_89" />
<path d="M46.5,729.5l0,-2" class="g3_89" />
<path d="M46.5,729.5l0,-2" class="g3_89" />
<path d="M47.5,729.5l840,0" class="g3_89" />
<path d="M887.5,729.5l0,-2" class="g3_89" />
<path d="M887.5,729.5l0,-2" class="g3_89" />
<path d="M46.5,824.5l0,-95" class="g3_89" />
<path d="M46.5,826.5l0,-2" class="g3_89" />
<path d="M46.5,826.5l0,-2" class="g3_89" />
<path d="M47.5,826.5l840,0" class="g3_89" />
<path d="M887.5,824.5l0,-95" class="g3_89" />
<path d="M887.5,826.5l0,-2" class="g3_89" />
<path d="M887.5,826.5l0,-2" class="g3_89" />
</svg>