<?xml version="1.0" encoding="UTF-8" standalone="no"?>
<!DOCTYPE svg PUBLIC "-//W3C//DTD SVG 1.1//EN"
"http://www.w3.org/Graphics/SVG/1.1/DTD/svg11.dtd">
<svg version="1.1" xmlns="http://www.w3.org/2000/svg" xmlns:xlink="http://www.w3.org/1999/xlink">
<defs>
<clipPath id="c0_77"><path d="M275.5,183.5l0,-72l157,0l0,72Z" /></clipPath>
<clipPath id="c1_77"><path d="M434.5,183.5l0,-72l226,0l0,72Z" /></clipPath>
<clipPath id="c2_77"><path d="M661.5,183.5l0,-72l224,0l0,72Z" /></clipPath>
<clipPath id="c3_77"><path d="M47.5,329.5l0,-24l840,0l0,24Z" /></clipPath>
<clipPath id="c4_77"><path d="M47.5,975.5l0,-619l840,0l0,619Z" /></clipPath>
<clipPath id="c5_77"><path d="M47.5,1097.5l0,-47l840,0l0,47Z" /></clipPath>
<style type="text/css"><![CDATA[
.g2_77{
fill: none;
stroke: #7E7E7E;
stroke-width: 1;
stroke-linecap: butt;
stroke-linejoin: miter;
}
.g1_77{
fill: #F1F1F1;
}
]]></style>
</defs>
<path fill-rule="evenodd" d="M47,182l43,0l0,-71l-43,0l0,71Z" class="g1_77" />
<path fill-rule="evenodd" d="M92,182l43,0l0,-71l-43,0l0,71Z" class="g1_77" />
<path fill-rule="evenodd" d="M137,182l54,0l0,-71l-54,0l0,71Z" class="g1_77" />
<path fill-rule="evenodd" d="M193,182l39,0l0,-71l-39,0l0,71Z" class="g1_77" />
<path fill-rule="evenodd" d="M234,182l40,0l0,-71l-40,0l0,71Z" class="g1_77" />
<path fill-rule="evenodd" d="M275,182l157,0l0,-71l-157,0l0,71Z" class="g1_77" />
<g clip-path="url(#c0_77)">
<path fill-rule="evenodd" d="M283,135l142,0l0,-24l-142,0l0,24Z" class="g1_77" />
</g>
<path fill-rule="evenodd" d="M283,159l142,0l0,-24l-142,0l0,24Z" class="g1_77" />
<path fill-rule="evenodd" d="M434,182l226,0l0,-71l-226,0l0,71Z" class="g1_77" />
<g clip-path="url(#c1_77)">
<path fill-rule="evenodd" d="M441,135l211,0l0,-24l-211,0l0,24Z" class="g1_77" />
</g>
<path fill-rule="evenodd" d="M661,182l224,0l0,-71l-224,0l0,71Z" class="g1_77" />
<g clip-path="url(#c2_77)">
<path fill-rule="evenodd" d="M669,135l209,0l0,-24l-209,0l0,24Z" class="g1_77" />
</g>
<path fill-rule="evenodd" d="M669,159l209,0l0,-24l-209,0l0,24Z" class="g1_77" />
<path fill-rule="evenodd" d="M669,182l209,0l0,-23l-209,0l0,23Z" class="g1_77" />
<path d="M46.5,111.5l0,-1" class="g2_77" />
<path d="M46.5,111.5l0,-1" class="g2_77" />
<path d="M47.5,111.5l43,0" class="g2_77" />
<path d="M90.5,111.5l0,-1" class="g2_77" />
<path d="M92.5,111.5l43,0" class="g2_77" />
<path d="M135.5,111.5l0,-1" class="g2_77" />
<path d="M137.5,111.5l54,0" class="g2_77" />
<path d="M191.5,111.5l0,-1" class="g2_77" />
<path d="M193.5,111.5l39,0" class="g2_77" />
<path d="M232.5,111.5l0,-1" class="g2_77" />
<path d="M234.5,111.5l40,0" class="g2_77" />
<path d="M274.5,111.5l0,-1" class="g2_77" />
<path d="M275.5,111.5l157,0" class="g2_77" />
<path d="M432.5,111.5l0,-1" class="g2_77" />
<path d="M434.5,111.5l226,0" class="g2_77" />
<path d="M660.5,111.5l0,-1" class="g2_77" />
<path d="M661.5,111.5l224,0" class="g2_77" />
<path d="M885.5,111.5l0,-1" class="g2_77" />
<path d="M885.5,111.5l0,-1" class="g2_77" />
<path d="M46.5,183.5l0,-72" class="g2_77" />
<path d="M46.5,184.5l0,-1" class="g2_77" />
<path d="M46.5,184.5l0,-1" class="g2_77" />
<path d="M47.5,184.5l43,0" class="g2_77" />
<path d="M90.5,183.5l0,-72" class="g2_77" />
<path d="M90.5,184.5l0,-1" class="g2_77" />
<path d="M92.5,184.5l43,0" class="g2_77" />
<path d="M135.5,183.5l0,-72" class="g2_77" />
<path d="M135.5,184.5l0,-1" class="g2_77" />
<path d="M137.5,184.5l54,0" class="g2_77" />
<path d="M191.5,183.5l0,-72" class="g2_77" />
<path d="M191.5,184.5l0,-1" class="g2_77" />
<path d="M193.5,184.5l39,0" class="g2_77" />
<path d="M232.5,183.5l0,-72" class="g2_77" />
<path d="M232.5,184.5l0,-1" class="g2_77" />
<path d="M234.5,184.5l40,0" class="g2_77" />
<path d="M274.5,183.5l0,-72" class="g2_77" />
<path d="M274.5,184.5l0,-1" class="g2_77" />
<path d="M275.5,184.5l157,0" class="g2_77" />
<path d="M432.5,183.5l0,-72" class="g2_77" />
<path d="M432.5,184.5l0,-1" class="g2_77" />
<path d="M434.5,184.5l226,0" class="g2_77" />
<path d="M660.5,183.5l0,-72" class="g2_77" />
<path d="M660.5,184.5l0,-1" class="g2_77" />
<path d="M661.5,184.5l224,0" class="g2_77" />
<path d="M885.5,183.5l0,-72" class="g2_77" />
<path d="M885.5,184.5l0,-1" class="g2_77" />
<path d="M885.5,184.5l0,-1" class="g2_77" />
<path fill-rule="evenodd" d="M47,329l840,0l0,-24L47,305l0,24Z" class="g1_77" />
<g clip-path="url(#c3_77)">
<path fill-rule="evenodd" d="M55,329l825,0l0,-24L55,305l0,24Z" class="g1_77" />
</g>
<path d="M46.5,305.5l0,-2" class="g2_77" />
<path d="M46.5,305.5l0,-2" class="g2_77" />
<path d="M47.5,305.5l840,0" class="g2_77" />
<path d="M887.5,305.5l0,-2" class="g2_77" />
<path d="M887.5,305.5l0,-2" class="g2_77" />
<path d="M46.5,329.5l0,-24" class="g2_77" />
<path d="M46.5,330.5l0,-1" class="g2_77" />
<path d="M46.5,330.5l0,-1" class="g2_77" />
<path d="M47.5,330.5l840,0" class="g2_77" />
<path d="M887.5,329.5l0,-24" class="g2_77" />
<path d="M887.5,330.5l0,-1" class="g2_77" />
<path d="M887.5,330.5l0,-1" class="g2_77" />
<path fill-rule="evenodd" d="M47,975l840,0l0,-619L47,356l0,619Z" class="g1_77" />
<g clip-path="url(#c4_77)">
<path fill-rule="evenodd" d="M55,379l825,0l0,-23L55,356l0,23Z" class="g1_77" />
</g>
<path fill-rule="evenodd" d="M55,403l825,0l0,-24L55,379l0,24Z" class="g1_77" />
<path fill-rule="evenodd" d="M55,427l825,0l0,-24L55,403l0,24Z" class="g1_77" />
<path fill-rule="evenodd" d="M55,451l825,0l0,-24L55,427l0,24Z" class="g1_77" />
<path fill-rule="evenodd" d="M55,475l825,0l0,-24L55,451l0,24Z" class="g1_77" />
<path fill-rule="evenodd" d="M55,499l825,0l0,-24L55,475l0,24Z" class="g1_77" />
<path fill-rule="evenodd" d="M55,522l825,0l0,-23L55,499l0,23Z" class="g1_77" />
<path fill-rule="evenodd" d="M55,546l825,0l0,-24L55,522l0,24Z" class="g1_77" />
<path fill-rule="evenodd" d="M55,570l825,0l0,-24L55,546l0,24Z" class="g1_77" />
<path fill-rule="evenodd" d="M55,594l825,0l0,-24L55,570l0,24Z" class="g1_77" />
<path fill-rule="evenodd" d="M55,618l825,0l0,-24L55,594l0,24Z" class="g1_77" />
<path fill-rule="evenodd" d="M55,642l825,0l0,-24L55,618l0,24Z" class="g1_77" />
<path fill-rule="evenodd" d="M55,665l825,0l0,-23L55,642l0,23Z" class="g1_77" />
<path fill-rule="evenodd" d="M55,689l825,0l0,-24L55,665l0,24Z" class="g1_77" />
<path fill-rule="evenodd" d="M55,713l825,0l0,-24L55,689l0,24Z" class="g1_77" />
<path fill-rule="evenodd" d="M55,737l825,0l0,-24L55,713l0,24Z" class="g1_77" />
<path fill-rule="evenodd" d="M55,761l825,0l0,-24L55,737l0,24Z" class="g1_77" />
<path fill-rule="evenodd" d="M55,785l825,0l0,-24L55,761l0,24Z" class="g1_77" />
<path fill-rule="evenodd" d="M55,808l825,0l0,-23L55,785l0,23Z" class="g1_77" />
<path fill-rule="evenodd" d="M55,832l825,0l0,-24L55,808l0,24Z" class="g1_77" />
<path fill-rule="evenodd" d="M55,856l825,0l0,-24L55,832l0,24Z" class="g1_77" />
<path fill-rule="evenodd" d="M55,880l825,0l0,-24L55,856l0,24Z" class="g1_77" />
<path fill-rule="evenodd" d="M55,904l825,0l0,-24L55,880l0,24Z" class="g1_77" />
<path fill-rule="evenodd" d="M55,928l825,0l0,-24L55,904l0,24Z" class="g1_77" />
<path fill-rule="evenodd" d="M55,952l825,0l0,-24L55,928l0,24Z" class="g1_77" />
<g clip-path="url(#c4_77)">
<path fill-rule="evenodd" d="M55,975l825,0l0,-23L55,952l0,23Z" class="g1_77" />
</g>
<path d="M46.5,355.5l0,-1" class="g2_77" />
<path d="M46.5,355.5l0,-1" class="g2_77" />
<path d="M47.5,355.5l840,0" class="g2_77" />
<path d="M887.5,355.5l0,-1" class="g2_77" />
<path d="M887.5,355.5l0,-1" class="g2_77" />
<path d="M46.5,975.5l0,-620" class="g2_77" />
<path d="M46.5,977.5l0,-2" class="g2_77" />
<path d="M46.5,977.5l0,-2" class="g2_77" />
<path d="M47.5,977.5l840,0" class="g2_77" />
<path d="M887.5,975.5l0,-620" class="g2_77" />
<path d="M887.5,977.5l0,-2" class="g2_77" />
<path d="M887.5,977.5l0,-2" class="g2_77" />
<path fill-rule="evenodd" d="M47,1097l840,0l0,-47l-840,0l0,47Z" class="g1_77" />
<path fill-rule="evenodd" d="M55,1074l825,0l0,-24l-825,0l0,24Z" class="g1_77" />
<g clip-path="url(#c5_77)">
<path fill-rule="evenodd" d="M55,1097l825,0l0,-23l-825,0l0,23Z" class="g1_77" />
</g>
<path d="M46.5,1050.5l0,-2" class="g2_77" />
<path d="M46.5,1050.5l0,-2" class="g2_77" />
<path d="M47.5,1050.5l840,0" class="g2_77" />
<path d="M887.5,1050.5l0,-2" class="g2_77" />
<path d="M887.5,1050.5l0,-2" class="g2_77" />
<path d="M46.5,1098.5l0,-48" class="g2_77" />
<path d="M46.5,1099.5l0,-1" class="g2_77" />
<path d="M46.5,1099.5l0,-1" class="g2_77" />
<path d="M47.5,1099.5l840,0" class="g2_77" />
<path d="M887.5,1098.5l0,-48" class="g2_77" />
<path d="M887.5,1099.5l0,-1" class="g2_77" />
<path d="M887.5,1099.5l0,-1" class="g2_77" />
</svg>