<?xml version="1.0" encoding="UTF-8" standalone="no"?>
<!DOCTYPE svg PUBLIC "-//W3C//DTD SVG 1.1//EN"
"http://www.w3.org/Graphics/SVG/1.1/DTD/svg11.dtd">
<svg version="1.1" xmlns="http://www.w3.org/2000/svg" xmlns:xlink="http://www.w3.org/1999/xlink">
<defs>
<clipPath id="c0_181"><path d="M47.5,469.5l0,-358l840,0l0,358Z" /></clipPath>
<clipPath id="c1_181"><path d="M47.5,726.5l0,-47l102,0l0,47Z" /></clipPath>
<clipPath id="c2_181"><path d="M151.5,726.5l0,-47l736,0l0,47Z" /></clipPath>
<clipPath id="c3_181"><path d="M47.5,752.5l0,-24l102,0l0,24Z" /></clipPath>
<clipPath id="c4_181"><path d="M151.5,752.5l0,-24l736,0l0,24Z" /></clipPath>
<clipPath id="c5_181"><path d="M47.5,1008.5l0,-182l840,0l0,182Z" /></clipPath>
<style type="text/css"><![CDATA[
.g5_181{
fill: none;
stroke: #F0F0E0;
stroke-width: 1;
stroke-linecap: butt;
stroke-linejoin: miter;
}
.g2_181{
fill: none;
stroke: #7E7E7E;
stroke-width: 1;
stroke-linecap: butt;
stroke-linejoin: miter;
}
.g3_181{
fill: none;
stroke: #0000FF;
stroke-width: 1;
stroke-linecap: butt;
stroke-linejoin: miter;
}
.g4_181{
fill: #DBE5F1;
}
.g1_181{
fill: #F1F1F1;
}
]]></style>
</defs>
<path fill-rule="evenodd" d="M47,469l840,0l0,-358L47,111l0,358Z" class="g1_181" />
<g clip-path="url(#c0_181)">
<path fill-rule="evenodd" d="M55,135l825,0l0,-24L55,111l0,24Z" class="g1_181" />
</g>
<path fill-rule="evenodd" d="M55,159l825,0l0,-24L55,135l0,24Z" class="g1_181" />
<path fill-rule="evenodd" d="M55,182l825,0l0,-23L55,159l0,23Z" class="g1_181" />
<path fill-rule="evenodd" d="M55,206l825,0l0,-24L55,182l0,24Z" class="g1_181" />
<path fill-rule="evenodd" d="M55,230l825,0l0,-24L55,206l0,24Z" class="g1_181" />
<path fill-rule="evenodd" d="M55,254l825,0l0,-24L55,230l0,24Z" class="g1_181" />
<path fill-rule="evenodd" d="M55,278l825,0l0,-24L55,254l0,24Z" class="g1_181" />
<path fill-rule="evenodd" d="M55,302l825,0l0,-24L55,278l0,24Z" class="g1_181" />
<path fill-rule="evenodd" d="M55,325l825,0l0,-23L55,302l0,23Z" class="g1_181" />
<path fill-rule="evenodd" d="M55,349l825,0l0,-24L55,325l0,24Z" class="g1_181" />
<path fill-rule="evenodd" d="M55,373l825,0l0,-24L55,349l0,24Z" class="g1_181" />
<path fill-rule="evenodd" d="M55,397l825,0l0,-24L55,373l0,24Z" class="g1_181" />
<path fill-rule="evenodd" d="M55,421l825,0l0,-24L55,397l0,24Z" class="g1_181" />
<path fill-rule="evenodd" d="M55,445l825,0l0,-24L55,421l0,24Z" class="g1_181" />
<path fill-rule="evenodd" d="M55,469l825,0l0,-24L55,445l0,24Z" class="g1_181" />
<path d="M46.5,111.5l0,-1" class="g2_181" />
<path d="M46.5,111.5l0,-1" class="g2_181" />
<path d="M47.5,111.5l840,0" class="g2_181" />
<path d="M887.5,111.5l0,-1" class="g2_181" />
<path d="M887.5,111.5l0,-1" class="g2_181" />
<path d="M46.5,469.5l0,-358" class="g2_181" />
<path d="M46.5,470.5l0,-1" class="g2_181" />
<path d="M46.5,470.5l0,-1" class="g2_181" />
<path d="M47.5,470.5l840,0" class="g2_181" />
<path d="M887.5,469.5l0,-358" class="g2_181" />
<path d="M887.5,470.5l0,-1" class="g2_181" />
<path d="M887.5,470.5l0,-1" class="g2_181" />
<path d="M371.5,574.5l163,0" class="g3_181" />
<path fill-rule="evenodd" d="M47,628l102,0l0,-24L47,604l0,24Z" class="g4_181" />
<path fill-rule="evenodd" d="M55,628l87,0l0,-24l-87,0l0,24Z" class="g4_181" />
<path fill-rule="evenodd" d="M151,628l736,0l0,-24l-736,0l0,24Z" class="g4_181" />
<path fill-rule="evenodd" d="M158,628l722,0l0,-24l-722,0l0,24Z" class="g4_181" />
<path d="M46.5,604.5l0,-1" class="g2_181" />
<path d="M46.5,604.5l0,-1" class="g2_181" />
<path d="M47.5,604.5l102,0" class="g2_181" />
<path d="M149.5,604.5l0,-1" class="g2_181" />
<path d="M151.5,604.5l736,0" class="g2_181" />
<path d="M887.5,604.5l0,-1" class="g2_181" />
<path d="M887.5,604.5l0,-1" class="g2_181" />
<path d="M46.5,628.5l0,-24" class="g2_181" />
<path d="M149.5,628.5l0,-24" class="g2_181" />
<path d="M887.5,628.5l0,-24" class="g2_181" />
<path fill-rule="evenodd" d="M47,677l102,0l0,-47L47,630l0,47Z" class="g1_181" />
<path fill-rule="evenodd" d="M55,653l87,0l0,-23l-87,0l0,23Z" class="g1_181" />
<path fill-rule="evenodd" d="M151,677l736,0l0,-47l-736,0l0,47Z" class="g1_181" />
<path fill-rule="evenodd" d="M158,653l722,0l0,-23l-722,0l0,23Z" class="g1_181" />
<path fill-rule="evenodd" d="M158,677l722,0l0,-24l-722,0l0,24Z" class="g1_181" />
<path d="M46.5,629.5l0,-1" class="g2_181" />
<path d="M47.5,629.5l102,0" class="g2_181" />
<path d="M149.5,629.5l0,-1" class="g2_181" />
<path d="M151.5,629.5l736,0" class="g2_181" />
<path d="M887.5,629.5l0,-1" class="g2_181" />
<path d="M46.5,677.5l0,-48" class="g2_181" />
<path d="M149.5,677.5l0,-48" class="g2_181" />
<path d="M887.5,677.5l0,-48" class="g2_181" />
<path fill-rule="evenodd" d="M47,726l102,0l0,-47L47,679l0,47Z" class="g1_181" />
<g clip-path="url(#c1_181)">
<path fill-rule="evenodd" d="M55,703l87,0l0,-24l-87,0l0,24Z" class="g1_181" />
</g>
<path fill-rule="evenodd" d="M151,726l736,0l0,-47l-736,0l0,47Z" class="g1_181" />
<g clip-path="url(#c2_181)">
<path fill-rule="evenodd" d="M158,703l722,0l0,-24l-722,0l0,24Z" class="g1_181" />
</g>
<path fill-rule="evenodd" d="M158,726l722,0l0,-23l-722,0l0,23Z" class="g1_181" />
<path d="M46.5,679.5l0,-2" class="g2_181" />
<path d="M47.5,679.5l102,0" class="g2_181" />
<path d="M149.5,679.5l0,-2" class="g2_181" />
<path d="M151.5,679.5l736,0" class="g2_181" />
<path d="M887.5,679.5l0,-2" class="g2_181" />
<path d="M46.5,726.5l0,-47" class="g2_181" />
<path d="M149.5,726.5l0,-47" class="g2_181" />
<path d="M887.5,726.5l0,-47" class="g2_181" />
<path fill-rule="evenodd" d="M47,752l102,0l0,-24L47,728l0,24Z" class="g1_181" />
<g clip-path="url(#c3_181)">
<path fill-rule="evenodd" d="M55,752l87,0l0,-24l-87,0l0,24Z" class="g1_181" />
</g>
<path fill-rule="evenodd" d="M151,752l736,0l0,-24l-736,0l0,24Z" class="g1_181" />
<g clip-path="url(#c4_181)">
<path fill-rule="evenodd" d="M158,752l722,0l0,-24l-722,0l0,24Z" class="g1_181" />
</g>
<path d="M46.5,728.5l0,-2" class="g2_181" />
<path d="M47.5,728.5l102,0" class="g2_181" />
<path d="M149.5,728.5l0,-2" class="g2_181" />
<path d="M151.5,728.5l736,0" class="g2_181" />
<path d="M887.5,728.5l0,-2" class="g2_181" />
<path d="M46.5,752.5l0,-24" class="g2_181" />
<path d="M46.5,753.5l0,-1" class="g2_181" />
<path d="M46.5,753.5l0,-1" class="g2_181" />
<path d="M47.5,753.5l102,0" class="g2_181" />
<path d="M149.5,752.5l0,-24" class="g2_181" />
<path d="M149.5,753.5l0,-1" class="g2_181" />
<path d="M151.5,753.5l736,0" class="g2_181" />
<path d="M887.5,752.5l0,-24" class="g2_181" />
<path d="M887.5,753.5l0,-1" class="g2_181" />
<path d="M887.5,753.5l0,-1" class="g2_181" />
<path fill-rule="evenodd" d="M47,1008l840,0l0,-182L47,826l0,182Z" class="g1_181" />
<path fill-rule="evenodd" d="M55,857l825,0l0,-31L55,826l0,31Z" class="g1_181" />
<g clip-path="url(#c5_181)">
<path d="M45.5,827.5l0,-1" class="g5_181" />
<path d="M45.5,827.5l0,-1" class="g5_181" />
<path d="M46.5,827.5l842,0" class="g5_181" />
<path d="M888.5,827.5l0,-1" class="g5_181" />
<path d="M888.5,827.5l0,-1" class="g5_181" />
<path d="M45.5,857.5l0,-30" class="g5_181" />
<path d="M888.5,857.5l0,-30" class="g5_181" />
</g>
<path fill-rule="evenodd" d="M55,881l825,0l0,-24L55,857l0,24Z" class="g1_181" />
<g clip-path="url(#c5_181)">
<path d="M45.5,881.5l0,-24" class="g5_181" />
<path d="M888.5,881.5l0,-24" class="g5_181" />
</g>
<path fill-rule="evenodd" d="M55,905l825,0l0,-24L55,881l0,24Z" class="g1_181" />
<g clip-path="url(#c5_181)">
<path d="M45.5,905.5l0,-24" class="g5_181" />
<path d="M888.5,905.5l0,-24" class="g5_181" />
</g>
<path fill-rule="evenodd" d="M55,929l825,0l0,-24L55,905l0,24Z" class="g1_181" />
<g clip-path="url(#c5_181)">
<path d="M45.5,929.5l0,-24" class="g5_181" />
<path d="M888.5,929.5l0,-24" class="g5_181" />
</g>
<path fill-rule="evenodd" d="M55,953l825,0l0,-24L55,929l0,24Z" class="g1_181" />
<g clip-path="url(#c5_181)">
<path d="M45.5,953.5l0,-24" class="g5_181" />
<path d="M888.5,953.5l0,-24" class="g5_181" />
</g>
<path fill-rule="evenodd" d="M55,976l825,0l0,-23L55,953l0,23Z" class="g1_181" />
<g clip-path="url(#c5_181)">
<path d="M45.5,976.5l0,-23" class="g5_181" />
<path d="M888.5,976.5l0,-23" class="g5_181" />
<path fill-rule="evenodd" d="M55,1008l825,0l0,-32L55,976l0,32Z" class="g1_181" />
<path d="M45.5,1008.5l0,-1" class="g5_181" />
<path d="M45.5,1008.5l0,-1" class="g5_181" />
<path d="M46.5,1008.5l842,0" class="g5_181" />
<path d="M888.5,1008.5l0,-1" class="g5_181" />
<path d="M888.5,1008.5l0,-1" class="g5_181" />
<path d="M45.5,1007.5l0,-31" class="g5_181" />
<path d="M888.5,1007.5l0,-31" class="g5_181" />
</g>
<path d="M46.5,826.5l0,-1" class="g2_181" />
<path d="M46.5,826.5l0,-1" class="g2_181" />
<path d="M47.5,826.5l840,0" class="g2_181" />
<path d="M887.5,826.5l0,-1" class="g2_181" />
<path d="M887.5,826.5l0,-1" class="g2_181" />
<path d="M46.5,1008.5l0,-182" class="g2_181" />
<path d="M46.5,1009.5l0,-1" class="g2_181" />
<path d="M46.5,1009.5l0,-1" class="g2_181" />
<path d="M47.5,1009.5l840,0" class="g2_181" />
<path d="M887.5,1008.5l0,-182" class="g2_181" />
<path d="M887.5,1009.5l0,-1" class="g2_181" />
<path d="M887.5,1009.5l0,-1" class="g2_181" />
</svg>