<?xml version="1.0" encoding="UTF-8" standalone="no"?>
<!DOCTYPE svg PUBLIC "-//W3C//DTD SVG 1.1//EN"
"http://www.w3.org/Graphics/SVG/1.1/DTD/svg11.dtd">
<svg version="1.1" xmlns="http://www.w3.org/2000/svg" xmlns:xlink="http://www.w3.org/1999/xlink">
<defs>
<clipPath id="c0_309"><path d="M477.5,230.5l0,-119l410,0l0,119Z" /></clipPath>
<clipPath id="c1_309"><path d="M169.5,399.5l0,-167l159,0l0,167Z" /></clipPath>
<clipPath id="c2_309"><path d="M330.5,399.5l0,-167l84,0l0,167Z" /></clipPath>
<clipPath id="c3_309"><path d="M416.5,399.5l0,-167l60,0l0,167Z" /></clipPath>
<clipPath id="c4_309"><path d="M477.5,399.5l0,-167l410,0l0,167Z" /></clipPath>
<clipPath id="c5_309"><path d="M47.5,1006.5l0,-48l840,0l0,48Z" /></clipPath>
<clipPath id="c6_309"><path d="M47.5,1080.5l0,-47l840,0l0,47Z" /></clipPath>
<style type="text/css"><![CDATA[
.g2_309{
fill: none;
stroke: #7E7E7E;
stroke-width: 1;
stroke-linecap: butt;
stroke-linejoin: miter;
}
.g1_309{
fill: #F1F1F1;
}
]]></style>
</defs>
<path fill-rule="evenodd" d="M47,230l39,0L86,111l-39,0l0,119Z" class="g1_309" />
<path fill-rule="evenodd" d="M88,230l39,0l0,-119l-39,0l0,119Z" class="g1_309" />
<path fill-rule="evenodd" d="M129,230l39,0l0,-119l-39,0l0,119Z" class="g1_309" />
<path fill-rule="evenodd" d="M169,230l159,0l0,-119l-159,0l0,119Z" class="g1_309" />
<path fill-rule="evenodd" d="M330,230l84,0l0,-119l-84,0l0,119Z" class="g1_309" />
<path fill-rule="evenodd" d="M416,230l60,0l0,-119l-60,0l0,119Z" class="g1_309" />
<path fill-rule="evenodd" d="M477,230l410,0l0,-119l-410,0l0,119Z" class="g1_309" />
<g clip-path="url(#c0_309)">
<path fill-rule="evenodd" d="M485,135l395,0l0,-24l-395,0l0,24Z" class="g1_309" />
</g>
<path fill-rule="evenodd" d="M485,159l395,0l0,-24l-395,0l0,24Z" class="g1_309" />
<path fill-rule="evenodd" d="M485,182l395,0l0,-23l-395,0l0,23Z" class="g1_309" />
<path fill-rule="evenodd" d="M485,206l395,0l0,-24l-395,0l0,24Z" class="g1_309" />
<path fill-rule="evenodd" d="M485,230l395,0l0,-24l-395,0l0,24Z" class="g1_309" />
<path d="M46.5,111.5l0,-1" class="g2_309" />
<path d="M46.5,111.5l0,-1" class="g2_309" />
<path d="M47.5,111.5l39,0" class="g2_309" />
<path d="M86.5,111.5l0,-1" class="g2_309" />
<path d="M88.5,111.5l39,0" class="g2_309" />
<path d="M127.5,111.5l0,-1" class="g2_309" />
<path d="M129.5,111.5l39,0" class="g2_309" />
<path d="M168.5,111.5l0,-1" class="g2_309" />
<path d="M169.5,111.5l159,0" class="g2_309" />
<path d="M328.5,111.5l0,-1" class="g2_309" />
<path d="M330.5,111.5l84,0" class="g2_309" />
<path d="M414.5,111.5l0,-1" class="g2_309" />
<path d="M416.5,111.5l60,0" class="g2_309" />
<path d="M476.5,111.5l0,-1" class="g2_309" />
<path d="M477.5,111.5l410,0" class="g2_309" />
<path d="M887.5,111.5l0,-1" class="g2_309" />
<path d="M887.5,111.5l0,-1" class="g2_309" />
<path d="M46.5,230.5l0,-119" class="g2_309" />
<path d="M86.5,230.5l0,-119" class="g2_309" />
<path d="M127.5,230.5l0,-119" class="g2_309" />
<path d="M168.5,230.5l0,-119" class="g2_309" />
<path d="M328.5,230.5l0,-119" class="g2_309" />
<path d="M414.5,230.5l0,-119" class="g2_309" />
<path d="M476.5,230.5l0,-119" class="g2_309" />
<path d="M887.5,230.5l0,-119" class="g2_309" />
<path fill-rule="evenodd" d="M47,399l39,0L86,230l-39,0l0,169Z" class="g1_309" />
<path fill-rule="evenodd" d="M88,399l39,0l0,-169l-39,0l0,169Z" class="g1_309" />
<path fill-rule="evenodd" d="M129,399l39,0l0,-169l-39,0l0,169Z" class="g1_309" />
<path fill-rule="evenodd" d="M169,399l159,0l0,-167l-159,0l0,167Z" class="g1_309" />
<g clip-path="url(#c1_309)">
<path fill-rule="evenodd" d="M177,256l144,0l0,-24l-144,0l0,24Z" class="g1_309" />
</g>
<path fill-rule="evenodd" d="M330,399l84,0l0,-167l-84,0l0,167Z" class="g1_309" />
<g clip-path="url(#c2_309)">
<path fill-rule="evenodd" d="M337,256l70,0l0,-24l-70,0l0,24Z" class="g1_309" />
</g>
<path fill-rule="evenodd" d="M416,399l60,0l0,-167l-60,0l0,167Z" class="g1_309" />
<g clip-path="url(#c3_309)">
<path fill-rule="evenodd" d="M423,256l45,0l0,-24l-45,0l0,24Z" class="g1_309" />
</g>
<path fill-rule="evenodd" d="M477,399l410,0l0,-167l-410,0l0,167Z" class="g1_309" />
<g clip-path="url(#c4_309)">
<path fill-rule="evenodd" d="M485,256l395,0l0,-24l-395,0l0,24Z" class="g1_309" />
</g>
<path fill-rule="evenodd" d="M485,279l395,0l0,-23l-395,0l0,23Z" class="g1_309" />
<path fill-rule="evenodd" d="M485,303l395,0l0,-24l-395,0l0,24Z" class="g1_309" />
<path fill-rule="evenodd" d="M485,327l395,0l0,-24l-395,0l0,24Z" class="g1_309" />
<path fill-rule="evenodd" d="M485,351l395,0l0,-24l-395,0l0,24Z" class="g1_309" />
<path fill-rule="evenodd" d="M485,375l395,0l0,-24l-395,0l0,24Z" class="g1_309" />
<path fill-rule="evenodd" d="M485,399l395,0l0,-24l-395,0l0,24Z" class="g1_309" />
<path d="M46.5,232.5l0,-2" class="g2_309" />
<path d="M86.5,232.5l0,-2" class="g2_309" />
<path d="M127.5,232.5l0,-2" class="g2_309" />
<path d="M168.5,232.5l0,-2" class="g2_309" />
<path d="M169.5,232.5l159,0" class="g2_309" />
<path d="M328.5,232.5l0,-2" class="g2_309" />
<path d="M330.5,232.5l84,0" class="g2_309" />
<path d="M414.5,232.5l0,-2" class="g2_309" />
<path d="M416.5,232.5l60,0" class="g2_309" />
<path d="M476.5,232.5l0,-2" class="g2_309" />
<path d="M477.5,232.5l410,0" class="g2_309" />
<path d="M887.5,232.5l0,-2" class="g2_309" />
<path d="M46.5,399.5l0,-167" class="g2_309" />
<path d="M86.5,399.5l0,-167" class="g2_309" />
<path d="M127.5,399.5l0,-167" class="g2_309" />
<path d="M168.5,399.5l0,-167" class="g2_309" />
<path d="M328.5,399.5l0,-167" class="g2_309" />
<path d="M414.5,399.5l0,-167" class="g2_309" />
<path d="M476.5,399.5l0,-167" class="g2_309" />
<path d="M887.5,399.5l0,-167" class="g2_309" />
<path fill-rule="evenodd" d="M47,495l39,0l0,-96l-39,0l0,96Z" class="g1_309" />
<path fill-rule="evenodd" d="M88,495l39,0l0,-96l-39,0l0,96Z" class="g1_309" />
<path fill-rule="evenodd" d="M129,495l39,0l0,-96l-39,0l0,96Z" class="g1_309" />
<path fill-rule="evenodd" d="M169,495l159,0l0,-95l-159,0l0,95Z" class="g1_309" />
<path fill-rule="evenodd" d="M177,424l144,0l0,-24l-144,0l0,24Z" class="g1_309" />
<path fill-rule="evenodd" d="M330,495l84,0l0,-95l-84,0l0,95Z" class="g1_309" />
<path fill-rule="evenodd" d="M337,424l70,0l0,-24l-70,0l0,24Z" class="g1_309" />
<path fill-rule="evenodd" d="M337,448l70,0l0,-24l-70,0l0,24Z" class="g1_309" />
<path fill-rule="evenodd" d="M337,472l70,0l0,-24l-70,0l0,24Z" class="g1_309" />
<path fill-rule="evenodd" d="M416,495l60,0l0,-95l-60,0l0,95Z" class="g1_309" />
<path fill-rule="evenodd" d="M423,424l45,0l0,-24l-45,0l0,24Z" class="g1_309" />
<path fill-rule="evenodd" d="M477,495l410,0l0,-95l-410,0l0,95Z" class="g1_309" />
<path fill-rule="evenodd" d="M485,424l395,0l0,-24l-395,0l0,24Z" class="g1_309" />
<path fill-rule="evenodd" d="M485,448l395,0l0,-24l-395,0l0,24Z" class="g1_309" />
<path fill-rule="evenodd" d="M485,472l395,0l0,-24l-395,0l0,24Z" class="g1_309" />
<path fill-rule="evenodd" d="M485,495l395,0l0,-23l-395,0l0,23Z" class="g1_309" />
<path d="M46.5,400.5l0,-1" class="g2_309" />
<path d="M86.5,400.5l0,-1" class="g2_309" />
<path d="M127.5,400.5l0,-1" class="g2_309" />
<path d="M168.5,400.5l0,-1" class="g2_309" />
<path d="M169.5,400.5l159,0" class="g2_309" />
<path d="M328.5,400.5l0,-1" class="g2_309" />
<path d="M330.5,400.5l84,0" class="g2_309" />
<path d="M414.5,400.5l0,-1" class="g2_309" />
<path d="M416.5,400.5l60,0" class="g2_309" />
<path d="M476.5,400.5l0,-1" class="g2_309" />
<path d="M477.5,400.5l410,0" class="g2_309" />
<path d="M887.5,400.5l0,-1" class="g2_309" />
<path d="M46.5,495.5l0,-95" class="g2_309" />
<path d="M86.5,495.5l0,-95" class="g2_309" />
<path d="M127.5,495.5l0,-95" class="g2_309" />
<path d="M168.5,495.5l0,-95" class="g2_309" />
<path d="M328.5,495.5l0,-95" class="g2_309" />
<path d="M414.5,495.5l0,-95" class="g2_309" />
<path d="M476.5,495.5l0,-95" class="g2_309" />
<path d="M887.5,495.5l0,-95" class="g2_309" />
<path fill-rule="evenodd" d="M47,545l39,0l0,-50l-39,0l0,50Z" class="g1_309" />
<path fill-rule="evenodd" d="M88,545l39,0l0,-50l-39,0l0,50Z" class="g1_309" />
<path fill-rule="evenodd" d="M129,545l39,0l0,-50l-39,0l0,50Z" class="g1_309" />
<path fill-rule="evenodd" d="M169,545l159,0l0,-48l-159,0l0,48Z" class="g1_309" />
<path fill-rule="evenodd" d="M177,521l144,0l0,-24l-144,0l0,24Z" class="g1_309" />
<path fill-rule="evenodd" d="M330,545l84,0l0,-48l-84,0l0,48Z" class="g1_309" />
<path fill-rule="evenodd" d="M337,521l70,0l0,-24l-70,0l0,24Z" class="g1_309" />
<path fill-rule="evenodd" d="M416,545l60,0l0,-48l-60,0l0,48Z" class="g1_309" />
<path fill-rule="evenodd" d="M423,521l45,0l0,-24l-45,0l0,24Z" class="g1_309" />
<path fill-rule="evenodd" d="M477,545l410,0l0,-48l-410,0l0,48Z" class="g1_309" />
<path fill-rule="evenodd" d="M485,521l395,0l0,-24l-395,0l0,24Z" class="g1_309" />
<path fill-rule="evenodd" d="M485,545l395,0l0,-24l-395,0l0,24Z" class="g1_309" />
<path d="M46.5,497.5l0,-2" class="g2_309" />
<path d="M86.5,497.5l0,-2" class="g2_309" />
<path d="M127.5,497.5l0,-2" class="g2_309" />
<path d="M168.5,497.5l0,-2" class="g2_309" />
<path d="M169.5,497.5l159,0" class="g2_309" />
<path d="M328.5,497.5l0,-2" class="g2_309" />
<path d="M330.5,497.5l84,0" class="g2_309" />
<path d="M414.5,497.5l0,-2" class="g2_309" />
<path d="M416.5,497.5l60,0" class="g2_309" />
<path d="M476.5,497.5l0,-2" class="g2_309" />
<path d="M477.5,497.5l410,0" class="g2_309" />
<path d="M887.5,497.5l0,-2" class="g2_309" />
<path d="M46.5,545.5l0,-48" class="g2_309" />
<path d="M86.5,545.5l0,-48" class="g2_309" />
<path d="M127.5,545.5l0,-48" class="g2_309" />
<path d="M168.5,545.5l0,-48" class="g2_309" />
<path d="M328.5,545.5l0,-48" class="g2_309" />
<path d="M414.5,545.5l0,-48" class="g2_309" />
<path d="M476.5,545.5l0,-48" class="g2_309" />
<path d="M887.5,545.5l0,-48" class="g2_309" />
<path fill-rule="evenodd" d="M47,741l39,0L86,545l-39,0l0,196Z" class="g1_309" />
<path fill-rule="evenodd" d="M88,741l39,0l0,-196l-39,0l0,196Z" class="g1_309" />
<path fill-rule="evenodd" d="M129,741l39,0l0,-196l-39,0l0,196Z" class="g1_309" />
<path fill-rule="evenodd" d="M169,741l40,0l0,-195l-40,0l0,195Z" class="g1_309" />
<path fill-rule="evenodd" d="M177,741l24,0l0,-195l-24,0l0,195Z" class="g1_309" />
<path fill-rule="evenodd" d="M210,741l118,0l0,-195l-118,0l0,195Z" class="g1_309" />
<path fill-rule="evenodd" d="M218,570l103,0l0,-24l-103,0l0,24Z" class="g1_309" />
<path fill-rule="evenodd" d="M330,741l84,0l0,-195l-84,0l0,195Z" class="g1_309" />
<path fill-rule="evenodd" d="M337,570l70,0l0,-24l-70,0l0,24Z" class="g1_309" />
<path fill-rule="evenodd" d="M416,741l60,0l0,-195l-60,0l0,195Z" class="g1_309" />
<path fill-rule="evenodd" d="M423,570l45,0l0,-24l-45,0l0,24Z" class="g1_309" />
<path fill-rule="evenodd" d="M477,741l410,0l0,-195l-410,0l0,195Z" class="g1_309" />
<path fill-rule="evenodd" d="M485,570l395,0l0,-24l-395,0l0,24Z" class="g1_309" />
<path d="M46.5,546.5l0,-1" class="g2_309" />
<path d="M86.5,546.5l0,-1" class="g2_309" />
<path d="M127.5,546.5l0,-1" class="g2_309" />
<path d="M168.5,546.5l0,-1" class="g2_309" />
<path d="M169.5,546.5l40,0" class="g2_309" />
<path d="M209.5,546.5l0,-1" class="g2_309" />
<path d="M210.5,546.5l118,0" class="g2_309" />
<path d="M328.5,546.5l0,-1" class="g2_309" />
<path d="M330.5,546.5l84,0" class="g2_309" />
<path d="M414.5,546.5l0,-1" class="g2_309" />
<path d="M416.5,546.5l60,0" class="g2_309" />
<path d="M476.5,546.5l0,-1" class="g2_309" />
<path d="M477.5,546.5l410,0" class="g2_309" />
<path d="M887.5,546.5l0,-1" class="g2_309" />
<path d="M46.5,741.5l0,-195" class="g2_309" />
<path d="M46.5,742.5l0,-1" class="g2_309" />
<path d="M46.5,742.5l0,-1" class="g2_309" />
<path d="M47.5,742.5l39,0" class="g2_309" />
<path d="M86.5,741.5l0,-195" class="g2_309" />
<path d="M86.5,742.5l0,-1" class="g2_309" />
<path d="M88.5,742.5l39,0" class="g2_309" />
<path d="M127.5,741.5l0,-195" class="g2_309" />
<path d="M127.5,742.5l0,-1" class="g2_309" />
<path d="M129.5,742.5l39,0" class="g2_309" />
<path d="M168.5,741.5l0,-195" class="g2_309" />
<path d="M168.5,742.5l0,-1" class="g2_309" />
<path d="M169.5,742.5l40,0" class="g2_309" />
<path d="M209.5,741.5l0,-195" class="g2_309" />
<path d="M209.5,742.5l0,-1" class="g2_309" />
<path d="M210.5,742.5l118,0" class="g2_309" />
<path d="M328.5,741.5l0,-195" class="g2_309" />
<path d="M328.5,742.5l0,-1" class="g2_309" />
<path d="M330.5,742.5l84,0" class="g2_309" />
<path d="M414.5,741.5l0,-195" class="g2_309" />
<path d="M414.5,742.5l0,-1" class="g2_309" />
<path d="M416.5,742.5l60,0" class="g2_309" />
<path d="M476.5,741.5l0,-195" class="g2_309" />
<path d="M476.5,742.5l0,-1" class="g2_309" />
<path d="M477.5,742.5l410,0" class="g2_309" />
<path d="M887.5,741.5l0,-195" class="g2_309" />
<path d="M887.5,742.5l0,-1" class="g2_309" />
<path d="M887.5,742.5l0,-1" class="g2_309" />
<path fill-rule="evenodd" d="M47,1006l840,0l0,-48L47,958l0,48Z" class="g1_309" />
<path fill-rule="evenodd" d="M55,982l825,0l0,-24L55,958l0,24Z" class="g1_309" />
<g clip-path="url(#c5_309)">
<path fill-rule="evenodd" d="M55,1006l825,0l0,-24L55,982l0,24Z" class="g1_309" />
</g>
<path d="M46.5,958.5l0,-1" class="g2_309" />
<path d="M46.5,958.5l0,-1" class="g2_309" />
<path d="M47.5,958.5l840,0" class="g2_309" />
<path d="M887.5,958.5l0,-1" class="g2_309" />
<path d="M887.5,958.5l0,-1" class="g2_309" />
<path d="M46.5,1006.5l0,-48" class="g2_309" />
<path d="M46.5,1007.5l0,-1" class="g2_309" />
<path d="M46.5,1007.5l0,-1" class="g2_309" />
<path d="M47.5,1007.5l840,0" class="g2_309" />
<path d="M887.5,1006.5l0,-48" class="g2_309" />
<path d="M887.5,1007.5l0,-1" class="g2_309" />
<path d="M887.5,1007.5l0,-1" class="g2_309" />
<path fill-rule="evenodd" d="M47,1080l840,0l0,-47l-840,0l0,47Z" class="g1_309" />
<path fill-rule="evenodd" d="M55,1057l825,0l0,-24l-825,0l0,24Z" class="g1_309" />
<g clip-path="url(#c6_309)">
<path fill-rule="evenodd" d="M55,1080l825,0l0,-23l-825,0l0,23Z" class="g1_309" />
</g>
<path d="M46.5,1033.5l0,-2" class="g2_309" />
<path d="M46.5,1033.5l0,-2" class="g2_309" />
<path d="M47.5,1033.5l840,0" class="g2_309" />
<path d="M887.5,1033.5l0,-2" class="g2_309" />
<path d="M887.5,1033.5l0,-2" class="g2_309" />
<path d="M46.5,1081.5l0,-48" class="g2_309" />
<path d="M46.5,1082.5l0,-1" class="g2_309" />
<path d="M46.5,1082.5l0,-1" class="g2_309" />
<path d="M47.5,1082.5l840,0" class="g2_309" />
<path d="M887.5,1081.5l0,-48" class="g2_309" />
<path d="M887.5,1082.5l0,-1" class="g2_309" />
<path d="M887.5,1082.5l0,-1" class="g2_309" />
</svg>