<?xml version="1.0" encoding="UTF-8" standalone="no"?>
<!DOCTYPE svg PUBLIC "-//W3C//DTD SVG 1.1//EN"
"http://www.w3.org/Graphics/SVG/1.1/DTD/svg11.dtd">
<svg version="1.1" xmlns="http://www.w3.org/2000/svg" xmlns:xlink="http://www.w3.org/1999/xlink">
<defs>
<clipPath id="c0_194"><path d="M47.5,540.5l0,-429l840,0l0,429Z" /></clipPath>
<clipPath id="c1_194"><path d="M47.5,676.5l0,-24l102,0l0,24Z" /></clipPath>
<clipPath id="c2_194"><path d="M151.5,676.5l0,-24l736,0l0,24Z" /></clipPath>
<clipPath id="c3_194"><path d="M47.5,701.5l0,-24l102,0l0,24Z" /></clipPath>
<clipPath id="c4_194"><path d="M151.5,701.5l0,-24l736,0l0,24Z" /></clipPath>
<clipPath id="c5_194"><path d="M47.5,957.5l0,-182l840,0l0,182Z" /></clipPath>
<clipPath id="c6_194"><path d="M47.5,1079.5l0,-48l840,0l0,48Z" /></clipPath>
<style type="text/css"><![CDATA[
.g5_194{
fill: none;
stroke: #F0F0E0;
stroke-width: 1;
stroke-linecap: butt;
stroke-linejoin: miter;
}
.g2_194{
fill: none;
stroke: #7E7E7E;
stroke-width: 1;
stroke-linecap: butt;
stroke-linejoin: miter;
}
.g3_194{
fill: none;
stroke: #0000FF;
stroke-width: 1;
stroke-linecap: butt;
stroke-linejoin: miter;
}
.g4_194{
fill: #DBE5F1;
}
.g1_194{
fill: #F1F1F1;
}
]]></style>
</defs>
<path fill-rule="evenodd" d="M47,540l840,0l0,-429L47,111l0,429Z" class="g1_194" />
<g clip-path="url(#c0_194)">
<path fill-rule="evenodd" d="M55,135l825,0l0,-24L55,111l0,24Z" class="g1_194" />
</g>
<path fill-rule="evenodd" d="M55,159l825,0l0,-24L55,135l0,24Z" class="g1_194" />
<path fill-rule="evenodd" d="M55,182l825,0l0,-23L55,159l0,23Z" class="g1_194" />
<path fill-rule="evenodd" d="M55,206l825,0l0,-24L55,182l0,24Z" class="g1_194" />
<path fill-rule="evenodd" d="M55,230l825,0l0,-24L55,206l0,24Z" class="g1_194" />
<path fill-rule="evenodd" d="M55,254l825,0l0,-24L55,230l0,24Z" class="g1_194" />
<path fill-rule="evenodd" d="M55,278l825,0l0,-24L55,254l0,24Z" class="g1_194" />
<path fill-rule="evenodd" d="M55,302l825,0l0,-24L55,278l0,24Z" class="g1_194" />
<path fill-rule="evenodd" d="M55,325l825,0l0,-23L55,302l0,23Z" class="g1_194" />
<path fill-rule="evenodd" d="M55,349l825,0l0,-24L55,325l0,24Z" class="g1_194" />
<path fill-rule="evenodd" d="M55,373l825,0l0,-24L55,349l0,24Z" class="g1_194" />
<path fill-rule="evenodd" d="M55,397l825,0l0,-24L55,373l0,24Z" class="g1_194" />
<path fill-rule="evenodd" d="M55,421l825,0l0,-24L55,397l0,24Z" class="g1_194" />
<path fill-rule="evenodd" d="M55,445l825,0l0,-24L55,421l0,24Z" class="g1_194" />
<path fill-rule="evenodd" d="M55,469l825,0l0,-24L55,445l0,24Z" class="g1_194" />
<path fill-rule="evenodd" d="M55,492l825,0l0,-23L55,469l0,23Z" class="g1_194" />
<path fill-rule="evenodd" d="M55,516l825,0l0,-24L55,492l0,24Z" class="g1_194" />
<path fill-rule="evenodd" d="M55,540l825,0l0,-24L55,516l0,24Z" class="g1_194" />
<path d="M46.5,111.5l0,-1" class="g2_194" />
<path d="M46.5,111.5l0,-1" class="g2_194" />
<path d="M47.5,111.5l840,0" class="g2_194" />
<path d="M887.5,111.5l0,-1" class="g2_194" />
<path d="M887.5,111.5l0,-1" class="g2_194" />
<path d="M46.5,540.5l0,-429" class="g2_194" />
<path d="M46.5,542.5l0,-2" class="g2_194" />
<path d="M46.5,542.5l0,-2" class="g2_194" />
<path d="M47.5,542.5l840,0" class="g2_194" />
<path d="M887.5,540.5l0,-429" class="g2_194" />
<path d="M887.5,542.5l0,-2" class="g2_194" />
<path d="M887.5,542.5l0,-2" class="g2_194" />
<path d="M371.5,645.5l163,0" class="g3_194" />
<path fill-rule="evenodd" d="M47,676l102,0l0,-24L47,652l0,24Z" class="g4_194" />
<g clip-path="url(#c1_194)">
<path fill-rule="evenodd" d="M55,676l87,0l0,-24l-87,0l0,24Z" class="g4_194" />
</g>
<path fill-rule="evenodd" d="M151,676l736,0l0,-24l-736,0l0,24Z" class="g4_194" />
<g clip-path="url(#c2_194)">
<path fill-rule="evenodd" d="M158,676l722,0l0,-24l-722,0l0,24Z" class="g4_194" />
</g>
<path d="M46.5,652.5l0,-2" class="g2_194" />
<path d="M46.5,652.5l0,-2" class="g2_194" />
<path d="M47.5,652.5l102,0" class="g2_194" />
<path d="M149.5,652.5l0,-2" class="g2_194" />
<path d="M151.5,652.5l736,0" class="g2_194" />
<path d="M887.5,652.5l0,-2" class="g2_194" />
<path d="M887.5,652.5l0,-2" class="g2_194" />
<path d="M46.5,676.5l0,-24" class="g2_194" />
<path d="M149.5,676.5l0,-24" class="g2_194" />
<path d="M887.5,676.5l0,-24" class="g2_194" />
<path fill-rule="evenodd" d="M47,701l102,0l0,-24L47,677l0,24Z" class="g1_194" />
<g clip-path="url(#c3_194)">
<path fill-rule="evenodd" d="M55,701l87,0l0,-24l-87,0l0,24Z" class="g1_194" />
</g>
<path fill-rule="evenodd" d="M151,701l736,0l0,-24l-736,0l0,24Z" class="g1_194" />
<g clip-path="url(#c4_194)">
<path fill-rule="evenodd" d="M158,701l722,0l0,-24l-722,0l0,24Z" class="g1_194" />
</g>
<path d="M46.5,677.5l0,-1" class="g2_194" />
<path d="M47.5,677.5l102,0" class="g2_194" />
<path d="M149.5,677.5l0,-1" class="g2_194" />
<path d="M151.5,677.5l736,0" class="g2_194" />
<path d="M887.5,677.5l0,-1" class="g2_194" />
<path d="M46.5,701.5l0,-24" class="g2_194" />
<path d="M46.5,703.5l0,-2" class="g2_194" />
<path d="M46.5,703.5l0,-2" class="g2_194" />
<path d="M47.5,703.5l102,0" class="g2_194" />
<path d="M149.5,701.5l0,-24" class="g2_194" />
<path d="M149.5,703.5l0,-2" class="g2_194" />
<path d="M151.5,703.5l736,0" class="g2_194" />
<path d="M887.5,701.5l0,-24" class="g2_194" />
<path d="M887.5,703.5l0,-2" class="g2_194" />
<path d="M887.5,703.5l0,-2" class="g2_194" />
<path fill-rule="evenodd" d="M47,957l840,0l0,-182L47,775l0,182Z" class="g1_194" />
<path fill-rule="evenodd" d="M55,807l825,0l0,-32L55,775l0,32Z" class="g1_194" />
<g clip-path="url(#c5_194)">
<path d="M45.5,777.5l0,-2" class="g5_194" />
<path d="M45.5,777.5l0,-2" class="g5_194" />
<path d="M46.5,777.5l842,0" class="g5_194" />
<path d="M888.5,777.5l0,-2" class="g5_194" />
<path d="M888.5,777.5l0,-2" class="g5_194" />
<path d="M45.5,807.5l0,-30" class="g5_194" />
<path d="M888.5,807.5l0,-30" class="g5_194" />
</g>
<path fill-rule="evenodd" d="M55,830l825,0l0,-23L55,807l0,23Z" class="g1_194" />
<g clip-path="url(#c5_194)">
<path d="M45.5,830.5l0,-23" class="g5_194" />
<path d="M888.5,830.5l0,-23" class="g5_194" />
</g>
<path fill-rule="evenodd" d="M55,854l825,0l0,-24L55,830l0,24Z" class="g1_194" />
<g clip-path="url(#c5_194)">
<path d="M45.5,854.5l0,-24" class="g5_194" />
<path d="M888.5,854.5l0,-24" class="g5_194" />
</g>
<path fill-rule="evenodd" d="M55,878l825,0l0,-24L55,854l0,24Z" class="g1_194" />
<g clip-path="url(#c5_194)">
<path d="M45.5,878.5l0,-24" class="g5_194" />
<path d="M888.5,878.5l0,-24" class="g5_194" />
</g>
<path fill-rule="evenodd" d="M55,902l825,0l0,-24L55,878l0,24Z" class="g1_194" />
<g clip-path="url(#c5_194)">
<path d="M45.5,902.5l0,-24" class="g5_194" />
<path d="M888.5,902.5l0,-24" class="g5_194" />
</g>
<path fill-rule="evenodd" d="M55,926l825,0l0,-24L55,902l0,24Z" class="g1_194" />
<g clip-path="url(#c5_194)">
<path d="M45.5,926.5l0,-24" class="g5_194" />
<path d="M888.5,926.5l0,-24" class="g5_194" />
<path fill-rule="evenodd" d="M55,957l825,0l0,-31L55,926l0,31Z" class="g1_194" />
<path d="M45.5,957.5l0,-1" class="g5_194" />
<path d="M45.5,957.5l0,-1" class="g5_194" />
<path d="M46.5,957.5l842,0" class="g5_194" />
<path d="M888.5,957.5l0,-1" class="g5_194" />
<path d="M888.5,957.5l0,-1" class="g5_194" />
<path d="M45.5,956.5l0,-30" class="g5_194" />
<path d="M888.5,956.5l0,-30" class="g5_194" />
</g>
<path d="M46.5,775.5l0,-1" class="g2_194" />
<path d="M46.5,775.5l0,-1" class="g2_194" />
<path d="M47.5,775.5l840,0" class="g2_194" />
<path d="M887.5,775.5l0,-1" class="g2_194" />
<path d="M887.5,775.5l0,-1" class="g2_194" />
<path d="M46.5,957.5l0,-182" class="g2_194" />
<path d="M46.5,958.5l0,-1" class="g2_194" />
<path d="M46.5,958.5l0,-1" class="g2_194" />
<path d="M47.5,958.5l840,0" class="g2_194" />
<path d="M887.5,957.5l0,-182" class="g2_194" />
<path d="M887.5,958.5l0,-1" class="g2_194" />
<path d="M887.5,958.5l0,-1" class="g2_194" />
<path fill-rule="evenodd" d="M47,1079l840,0l0,-48l-840,0l0,48Z" class="g1_194" />
<path fill-rule="evenodd" d="M55,1055l825,0l0,-24l-825,0l0,24Z" class="g1_194" />
<g clip-path="url(#c6_194)">
<path fill-rule="evenodd" d="M55,1079l825,0l0,-24l-825,0l0,24Z" class="g1_194" />
</g>
<path d="M46.5,1031.5l0,-1" class="g2_194" />
<path d="M46.5,1031.5l0,-1" class="g2_194" />
<path d="M47.5,1031.5l840,0" class="g2_194" />
<path d="M887.5,1031.5l0,-1" class="g2_194" />
<path d="M887.5,1031.5l0,-1" class="g2_194" />
<path d="M46.5,1079.5l0,-48" class="g2_194" />
<path d="M46.5,1081.5l0,-2" class="g2_194" />
<path d="M46.5,1081.5l0,-2" class="g2_194" />
<path d="M47.5,1081.5l840,0" class="g2_194" />
<path d="M887.5,1079.5l0,-48" class="g2_194" />
<path d="M887.5,1081.5l0,-2" class="g2_194" />
<path d="M887.5,1081.5l0,-2" class="g2_194" />
</svg>