<?xml version="1.0" encoding="UTF-8" standalone="no"?>
<!DOCTYPE svg PUBLIC "-//W3C//DTD SVG 1.1//EN"
"http://www.w3.org/Graphics/SVG/1.1/DTD/svg11.dtd">
<svg version="1.1" xmlns="http://www.w3.org/2000/svg" xmlns:xlink="http://www.w3.org/1999/xlink">
<defs>
<clipPath id="c0_136"><path d="M151.5,240.5l0,-129l33,0l0,129Z" /></clipPath>
<clipPath id="c1_136"><path d="M186.5,240.5l0,-129l95,0l0,129Z" /></clipPath>
<clipPath id="c2_136"><path d="M282.5,240.5l0,-129l74,0l0,129Z" /></clipPath>
<clipPath id="c3_136"><path d="M358.5,240.5l0,-129l67,0l0,129Z" /></clipPath>
<clipPath id="c4_136"><path d="M427.5,240.5l0,-129l460,0l0,129Z" /></clipPath>
<clipPath id="c5_136"><path d="M151.5,385.5l0,-143l130,0l0,143Z" /></clipPath>
<clipPath id="c6_136"><path d="M282.5,385.5l0,-143l74,0l0,143Z" /></clipPath>
<clipPath id="c7_136"><path d="M358.5,385.5l0,-143l67,0l0,143Z" /></clipPath>
<clipPath id="c8_136"><path d="M427.5,385.5l0,-143l460,0l0,143Z" /></clipPath>
<clipPath id="c9_136"><path d="M151.5,440.5l0,-54l130,0l0,54Z" /></clipPath>
<clipPath id="c10_136"><path d="M282.5,440.5l0,-54l74,0l0,54Z" /></clipPath>
<clipPath id="c11_136"><path d="M358.5,440.5l0,-54l67,0l0,54Z" /></clipPath>
<clipPath id="c12_136"><path d="M427.5,440.5l0,-54l460,0l0,54Z" /></clipPath>
<clipPath id="c13_136"><path d="M151.5,633.5l0,-95l130,0l0,95Z" /></clipPath>
<clipPath id="c14_136"><path d="M282.5,633.5l0,-95l74,0l0,95Z" /></clipPath>
<clipPath id="c15_136"><path d="M358.5,633.5l0,-95l67,0l0,95Z" /></clipPath>
<clipPath id="c16_136"><path d="M427.5,633.5l0,-95l460,0l0,95Z" /></clipPath>
<clipPath id="c17_136"><path d="M151.5,743.5l0,-53l130,0l0,53Z" /></clipPath>
<clipPath id="c18_136"><path d="M282.5,743.5l0,-53l74,0l0,53Z" /></clipPath>
<clipPath id="c19_136"><path d="M358.5,743.5l0,-53l67,0l0,53Z" /></clipPath>
<clipPath id="c20_136"><path d="M427.5,743.5l0,-53l460,0l0,53Z" /></clipPath>
<style type="text/css"><![CDATA[
.g2_136{
fill: none;
stroke: #7E7E7E;
stroke-width: 1;
stroke-linecap: butt;
stroke-linejoin: miter;
}
.g1_136{
fill: #F1F1F1;
}
]]></style>
</defs>
<path fill-rule="evenodd" d="M47,240l33,0L80,111l-33,0l0,129Z" class="g1_136" />
<path fill-rule="evenodd" d="M81,240l34,0l0,-129l-34,0l0,129Z" class="g1_136" />
<path fill-rule="evenodd" d="M116,743l33,0l0,-632l-33,0l0,632Z" class="g1_136" />
<path fill-rule="evenodd" d="M124,743l23,0l0,-632l-23,0l0,632Z" class="g1_136" />
<path fill-rule="evenodd" d="M151,240l33,0l0,-129l-33,0l0,129Z" class="g1_136" />
<g clip-path="url(#c0_136)">
<path fill-rule="evenodd" d="M158,240l24,0l0,-129l-24,0l0,129Z" class="g1_136" />
</g>
<path fill-rule="evenodd" d="M186,240l95,0l0,-129l-95,0l0,129Z" class="g1_136" />
<g clip-path="url(#c1_136)">
<path fill-rule="evenodd" d="M193,135l80,0l0,-24l-80,0l0,24Z" class="g1_136" />
</g>
<path fill-rule="evenodd" d="M282,240l74,0l0,-129l-74,0l0,129Z" class="g1_136" />
<g clip-path="url(#c2_136)">
<path fill-rule="evenodd" d="M290,135l59,0l0,-24l-59,0l0,24Z" class="g1_136" />
</g>
<path fill-rule="evenodd" d="M358,240l67,0l0,-129l-67,0l0,129Z" class="g1_136" />
<g clip-path="url(#c3_136)">
<path fill-rule="evenodd" d="M365,135l53,0l0,-24l-53,0l0,24Z" class="g1_136" />
</g>
<path fill-rule="evenodd" d="M427,240l460,0l0,-129l-460,0l0,129Z" class="g1_136" />
<g clip-path="url(#c4_136)">
<path fill-rule="evenodd" d="M434,135l446,0l0,-24l-446,0l0,24Z" class="g1_136" />
</g>
<path fill-rule="evenodd" d="M434,159l446,0l0,-24l-446,0l0,24Z" class="g1_136" />
<path fill-rule="evenodd" d="M434,182l446,0l0,-23l-446,0l0,23Z" class="g1_136" />
<path d="M46.5,111.5l0,-1" class="g2_136" />
<path d="M46.5,111.5l0,-1" class="g2_136" />
<path d="M47.5,111.5l33,0" class="g2_136" />
<path d="M80.5,111.5l0,-1" class="g2_136" />
<path d="M81.5,111.5l34,0" class="g2_136" />
<path d="M115.5,111.5l0,-1" class="g2_136" />
<path d="M116.5,111.5l33,0" class="g2_136" />
<path d="M149.5,111.5l0,-1" class="g2_136" />
<path d="M151.5,111.5l33,0" class="g2_136" />
<path d="M184.5,111.5l0,-1" class="g2_136" />
<path d="M185.5,111.5l96,0" class="g2_136" />
<path d="M281.5,111.5l0,-1" class="g2_136" />
<path d="M282.5,111.5l74,0" class="g2_136" />
<path d="M356.5,111.5l0,-1" class="g2_136" />
<path d="M358.5,111.5l67,0" class="g2_136" />
<path d="M425.5,111.5l0,-1" class="g2_136" />
<path d="M427.5,111.5l460,0" class="g2_136" />
<path d="M887.5,111.5l0,-1" class="g2_136" />
<path d="M887.5,111.5l0,-1" class="g2_136" />
<path d="M46.5,240.5l0,-129" class="g2_136" />
<path d="M80.5,240.5l0,-129" class="g2_136" />
<path d="M115.5,240.5l0,-129" class="g2_136" />
<path d="M149.5,240.5l0,-129" class="g2_136" />
<path d="M184.5,240.5l0,-129" class="g2_136" />
<path d="M281.5,240.5l0,-129" class="g2_136" />
<path d="M356.5,240.5l0,-129" class="g2_136" />
<path d="M425.5,240.5l0,-129" class="g2_136" />
<path d="M887.5,240.5l0,-129" class="g2_136" />
<path fill-rule="evenodd" d="M47,385l33,0L80,240l-33,0l0,145Z" class="g1_136" />
<path fill-rule="evenodd" d="M81,385l34,0l0,-145l-34,0l0,145Z" class="g1_136" />
<path fill-rule="evenodd" d="M151,385l130,0l0,-143l-130,0l0,143Z" class="g1_136" />
<g clip-path="url(#c5_136)">
<path fill-rule="evenodd" d="M158,266l115,0l0,-24l-115,0l0,24Z" class="g1_136" />
</g>
<path fill-rule="evenodd" d="M282,385l74,0l0,-143l-74,0l0,143Z" class="g1_136" />
<g clip-path="url(#c6_136)">
<path fill-rule="evenodd" d="M290,266l59,0l0,-24l-59,0l0,24Z" class="g1_136" />
</g>
<path fill-rule="evenodd" d="M358,385l67,0l0,-143l-67,0l0,143Z" class="g1_136" />
<g clip-path="url(#c7_136)">
<path fill-rule="evenodd" d="M365,266l53,0l0,-24l-53,0l0,24Z" class="g1_136" />
</g>
<path fill-rule="evenodd" d="M427,385l460,0l0,-143l-460,0l0,143Z" class="g1_136" />
<g clip-path="url(#c8_136)">
<path fill-rule="evenodd" d="M434,266l446,0l0,-24l-446,0l0,24Z" class="g1_136" />
</g>
<path fill-rule="evenodd" d="M434,289l446,0l0,-23l-446,0l0,23Z" class="g1_136" />
<path fill-rule="evenodd" d="M434,313l446,0l0,-24l-446,0l0,24Z" class="g1_136" />
<path fill-rule="evenodd" d="M434,337l446,0l0,-24l-446,0l0,24Z" class="g1_136" />
<path fill-rule="evenodd" d="M434,361l446,0l0,-24l-446,0l0,24Z" class="g1_136" />
<path fill-rule="evenodd" d="M434,385l446,0l0,-24l-446,0l0,24Z" class="g1_136" />
<path d="M46.5,242.5l0,-2" class="g2_136" />
<path d="M80.5,242.5l0,-2" class="g2_136" />
<path d="M115.5,242.5l0,-2" class="g2_136" />
<path d="M149.5,242.5l0,-2" class="g2_136" />
<path d="M151.5,242.5l33,0" class="g2_136" />
<path d="M184.5,242.5l0,-2" class="g2_136" />
<path d="M185.5,242.5l96,0" class="g2_136" />
<path d="M281.5,242.5l0,-2" class="g2_136" />
<path d="M282.5,242.5l74,0" class="g2_136" />
<path d="M356.5,242.5l0,-2" class="g2_136" />
<path d="M358.5,242.5l67,0" class="g2_136" />
<path d="M425.5,242.5l0,-2" class="g2_136" />
<path d="M427.5,242.5l460,0" class="g2_136" />
<path d="M887.5,242.5l0,-2" class="g2_136" />
<path d="M46.5,385.5l0,-143" class="g2_136" />
<path d="M80.5,385.5l0,-143" class="g2_136" />
<path d="M115.5,385.5l0,-143" class="g2_136" />
<path d="M149.5,385.5l0,-143" class="g2_136" />
<path d="M281.5,385.5l0,-143" class="g2_136" />
<path d="M356.5,385.5l0,-143" class="g2_136" />
<path d="M425.5,385.5l0,-143" class="g2_136" />
<path d="M887.5,385.5l0,-143" class="g2_136" />
<path fill-rule="evenodd" d="M47,440l33,0l0,-55l-33,0l0,55Z" class="g1_136" />
<path fill-rule="evenodd" d="M81,440l34,0l0,-55l-34,0l0,55Z" class="g1_136" />
<path fill-rule="evenodd" d="M151,440l130,0l0,-54l-130,0l0,54Z" class="g1_136" />
<g clip-path="url(#c9_136)">
<path fill-rule="evenodd" d="M158,410l115,0l0,-24l-115,0l0,24Z" class="g1_136" />
</g>
<path fill-rule="evenodd" d="M282,440l74,0l0,-54l-74,0l0,54Z" class="g1_136" />
<g clip-path="url(#c10_136)">
<path fill-rule="evenodd" d="M290,410l59,0l0,-24l-59,0l0,24Z" class="g1_136" />
</g>
<path fill-rule="evenodd" d="M358,440l67,0l0,-54l-67,0l0,54Z" class="g1_136" />
<g clip-path="url(#c11_136)">
<path fill-rule="evenodd" d="M365,410l53,0l0,-24l-53,0l0,24Z" class="g1_136" />
</g>
<path fill-rule="evenodd" d="M427,440l460,0l0,-54l-460,0l0,54Z" class="g1_136" />
<g clip-path="url(#c12_136)">
<path fill-rule="evenodd" d="M434,410l446,0l0,-24l-446,0l0,24Z" class="g1_136" />
</g>
<path fill-rule="evenodd" d="M434,434l446,0l0,-24l-446,0l0,24Z" class="g1_136" />
<path d="M46.5,386.5l0,-1" class="g2_136" />
<path d="M80.5,386.5l0,-1" class="g2_136" />
<path d="M115.5,386.5l0,-1" class="g2_136" />
<path d="M149.5,386.5l0,-1" class="g2_136" />
<path d="M151.5,386.5l130,0" class="g2_136" />
<path d="M281.5,386.5l0,-1" class="g2_136" />
<path d="M282.5,386.5l74,0" class="g2_136" />
<path d="M356.5,386.5l0,-1" class="g2_136" />
<path d="M358.5,386.5l67,0" class="g2_136" />
<path d="M425.5,386.5l0,-1" class="g2_136" />
<path d="M427.5,386.5l460,0" class="g2_136" />
<path d="M887.5,386.5l0,-1" class="g2_136" />
<path d="M46.5,440.5l0,-54" class="g2_136" />
<path d="M80.5,440.5l0,-54" class="g2_136" />
<path d="M115.5,440.5l0,-54" class="g2_136" />
<path d="M149.5,440.5l0,-54" class="g2_136" />
<path d="M281.5,440.5l0,-54" class="g2_136" />
<path d="M356.5,440.5l0,-54" class="g2_136" />
<path d="M425.5,440.5l0,-54" class="g2_136" />
<path d="M887.5,440.5l0,-54" class="g2_136" />
<path fill-rule="evenodd" d="M47,537l33,0l0,-97l-33,0l0,97Z" class="g1_136" />
<path fill-rule="evenodd" d="M81,537l34,0l0,-97l-34,0l0,97Z" class="g1_136" />
<path fill-rule="evenodd" d="M151,537l130,0l0,-96l-130,0l0,96Z" class="g1_136" />
<path fill-rule="evenodd" d="M158,465l115,0l0,-24l-115,0l0,24Z" class="g1_136" />
<path fill-rule="evenodd" d="M282,537l74,0l0,-96l-74,0l0,96Z" class="g1_136" />
<path fill-rule="evenodd" d="M290,465l59,0l0,-24l-59,0l0,24Z" class="g1_136" />
<path fill-rule="evenodd" d="M358,537l67,0l0,-96l-67,0l0,96Z" class="g1_136" />
<path fill-rule="evenodd" d="M365,465l53,0l0,-24l-53,0l0,24Z" class="g1_136" />
<path fill-rule="evenodd" d="M427,537l460,0l0,-96l-460,0l0,96Z" class="g1_136" />
<path fill-rule="evenodd" d="M434,465l446,0l0,-24l-446,0l0,24Z" class="g1_136" />
<path fill-rule="evenodd" d="M434,489l446,0l0,-24l-446,0l0,24Z" class="g1_136" />
<path fill-rule="evenodd" d="M434,513l446,0l0,-24l-446,0l0,24Z" class="g1_136" />
<path fill-rule="evenodd" d="M434,537l446,0l0,-24l-446,0l0,24Z" class="g1_136" />
<path d="M46.5,441.5l0,-1" class="g2_136" />
<path d="M80.5,441.5l0,-1" class="g2_136" />
<path d="M115.5,441.5l0,-1" class="g2_136" />
<path d="M149.5,441.5l0,-1" class="g2_136" />
<path d="M151.5,441.5l130,0" class="g2_136" />
<path d="M281.5,441.5l0,-1" class="g2_136" />
<path d="M282.5,441.5l74,0" class="g2_136" />
<path d="M356.5,441.5l0,-1" class="g2_136" />
<path d="M358.5,441.5l67,0" class="g2_136" />
<path d="M425.5,441.5l0,-1" class="g2_136" />
<path d="M427.5,441.5l460,0" class="g2_136" />
<path d="M887.5,441.5l0,-1" class="g2_136" />
<path d="M46.5,537.5l0,-96" class="g2_136" />
<path d="M80.5,537.5l0,-96" class="g2_136" />
<path d="M115.5,537.5l0,-96" class="g2_136" />
<path d="M149.5,537.5l0,-96" class="g2_136" />
<path d="M281.5,537.5l0,-96" class="g2_136" />
<path d="M356.5,537.5l0,-96" class="g2_136" />
<path d="M425.5,537.5l0,-96" class="g2_136" />
<path d="M887.5,537.5l0,-96" class="g2_136" />
<path fill-rule="evenodd" d="M47,633l33,0l0,-96l-33,0l0,96Z" class="g1_136" />
<path fill-rule="evenodd" d="M81,633l34,0l0,-96l-34,0l0,96Z" class="g1_136" />
<path fill-rule="evenodd" d="M151,633l130,0l0,-95l-130,0l0,95Z" class="g1_136" />
<g clip-path="url(#c13_136)">
<path fill-rule="evenodd" d="M158,562l115,0l0,-24l-115,0l0,24Z" class="g1_136" />
</g>
<path fill-rule="evenodd" d="M282,633l74,0l0,-95l-74,0l0,95Z" class="g1_136" />
<g clip-path="url(#c14_136)">
<path fill-rule="evenodd" d="M290,562l59,0l0,-24l-59,0l0,24Z" class="g1_136" />
</g>
<path fill-rule="evenodd" d="M358,633l67,0l0,-95l-67,0l0,95Z" class="g1_136" />
<g clip-path="url(#c15_136)">
<path fill-rule="evenodd" d="M365,562l53,0l0,-24l-53,0l0,24Z" class="g1_136" />
</g>
<path fill-rule="evenodd" d="M427,633l460,0l0,-95l-460,0l0,95Z" class="g1_136" />
<g clip-path="url(#c16_136)">
<path fill-rule="evenodd" d="M434,562l446,0l0,-24l-446,0l0,24Z" class="g1_136" />
</g>
<path fill-rule="evenodd" d="M434,586l446,0l0,-24l-446,0l0,24Z" class="g1_136" />
<path fill-rule="evenodd" d="M434,610l446,0l0,-24l-446,0l0,24Z" class="g1_136" />
<path fill-rule="evenodd" d="M434,633l446,0l0,-23l-446,0l0,23Z" class="g1_136" />
<path d="M46.5,538.5l0,-1" class="g2_136" />
<path d="M80.5,538.5l0,-1" class="g2_136" />
<path d="M115.5,538.5l0,-1" class="g2_136" />
<path d="M149.5,538.5l0,-1" class="g2_136" />
<path d="M151.5,538.5l130,0" class="g2_136" />
<path d="M281.5,538.5l0,-1" class="g2_136" />
<path d="M282.5,538.5l74,0" class="g2_136" />
<path d="M356.5,538.5l0,-1" class="g2_136" />
<path d="M358.5,538.5l67,0" class="g2_136" />
<path d="M425.5,538.5l0,-1" class="g2_136" />
<path d="M427.5,538.5l460,0" class="g2_136" />
<path d="M887.5,538.5l0,-1" class="g2_136" />
<path d="M46.5,633.5l0,-95" class="g2_136" />
<path d="M80.5,633.5l0,-95" class="g2_136" />
<path d="M115.5,633.5l0,-95" class="g2_136" />
<path d="M149.5,633.5l0,-95" class="g2_136" />
<path d="M281.5,633.5l0,-95" class="g2_136" />
<path d="M356.5,633.5l0,-95" class="g2_136" />
<path d="M425.5,633.5l0,-95" class="g2_136" />
<path d="M887.5,633.5l0,-95" class="g2_136" />
<path fill-rule="evenodd" d="M47,688l33,0l0,-55l-33,0l0,55Z" class="g1_136" />
<path fill-rule="evenodd" d="M81,688l34,0l0,-55l-34,0l0,55Z" class="g1_136" />
<path fill-rule="evenodd" d="M151,688l130,0l0,-53l-130,0l0,53Z" class="g1_136" />
<path fill-rule="evenodd" d="M158,659l115,0l0,-24l-115,0l0,24Z" class="g1_136" />
<path fill-rule="evenodd" d="M282,688l74,0l0,-53l-74,0l0,53Z" class="g1_136" />
<path fill-rule="evenodd" d="M290,659l59,0l0,-24l-59,0l0,24Z" class="g1_136" />
<path fill-rule="evenodd" d="M358,688l67,0l0,-53l-67,0l0,53Z" class="g1_136" />
<path fill-rule="evenodd" d="M365,659l53,0l0,-24l-53,0l0,24Z" class="g1_136" />
<path fill-rule="evenodd" d="M427,688l460,0l0,-53l-460,0l0,53Z" class="g1_136" />
<path fill-rule="evenodd" d="M434,659l446,0l0,-24l-446,0l0,24Z" class="g1_136" />
<path fill-rule="evenodd" d="M434,683l446,0l0,-24l-446,0l0,24Z" class="g1_136" />
<path d="M46.5,635.5l0,-2" class="g2_136" />
<path d="M80.5,635.5l0,-2" class="g2_136" />
<path d="M115.5,635.5l0,-2" class="g2_136" />
<path d="M149.5,635.5l0,-2" class="g2_136" />
<path d="M151.5,635.5l130,0" class="g2_136" />
<path d="M281.5,635.5l0,-2" class="g2_136" />
<path d="M282.5,635.5l74,0" class="g2_136" />
<path d="M356.5,635.5l0,-2" class="g2_136" />
<path d="M358.5,635.5l67,0" class="g2_136" />
<path d="M425.5,635.5l0,-2" class="g2_136" />
<path d="M427.5,635.5l460,0" class="g2_136" />
<path d="M887.5,635.5l0,-2" class="g2_136" />
<path d="M46.5,688.5l0,-53" class="g2_136" />
<path d="M80.5,688.5l0,-53" class="g2_136" />
<path d="M115.5,688.5l0,-53" class="g2_136" />
<path d="M149.5,688.5l0,-53" class="g2_136" />
<path d="M281.5,688.5l0,-53" class="g2_136" />
<path d="M356.5,688.5l0,-53" class="g2_136" />
<path d="M425.5,688.5l0,-53" class="g2_136" />
<path d="M887.5,688.5l0,-53" class="g2_136" />
<path fill-rule="evenodd" d="M47,743l33,0l0,-55l-33,0l0,55Z" class="g1_136" />
<path fill-rule="evenodd" d="M81,743l34,0l0,-55l-34,0l0,55Z" class="g1_136" />
<path fill-rule="evenodd" d="M151,743l130,0l0,-53l-130,0l0,53Z" class="g1_136" />
<g clip-path="url(#c17_136)">
<path fill-rule="evenodd" d="M158,714l115,0l0,-24l-115,0l0,24Z" class="g1_136" />
</g>
<path fill-rule="evenodd" d="M282,743l74,0l0,-53l-74,0l0,53Z" class="g1_136" />
<g clip-path="url(#c18_136)">
<path fill-rule="evenodd" d="M290,714l59,0l0,-24l-59,0l0,24Z" class="g1_136" />
</g>
<path fill-rule="evenodd" d="M358,743l67,0l0,-53l-67,0l0,53Z" class="g1_136" />
<g clip-path="url(#c19_136)">
<path fill-rule="evenodd" d="M365,714l53,0l0,-24l-53,0l0,24Z" class="g1_136" />
</g>
<path fill-rule="evenodd" d="M427,743l460,0l0,-53l-460,0l0,53Z" class="g1_136" />
<g clip-path="url(#c20_136)">
<path fill-rule="evenodd" d="M434,714l446,0l0,-24l-446,0l0,24Z" class="g1_136" />
</g>
<path fill-rule="evenodd" d="M434,738l446,0l0,-24l-446,0l0,24Z" class="g1_136" />
<path d="M46.5,690.5l0,-2" class="g2_136" />
<path d="M80.5,690.5l0,-2" class="g2_136" />
<path d="M115.5,690.5l0,-2" class="g2_136" />
<path d="M149.5,690.5l0,-2" class="g2_136" />
<path d="M151.5,690.5l130,0" class="g2_136" />
<path d="M281.5,690.5l0,-2" class="g2_136" />
<path d="M282.5,690.5l74,0" class="g2_136" />
<path d="M356.5,690.5l0,-2" class="g2_136" />
<path d="M358.5,690.5l67,0" class="g2_136" />
<path d="M425.5,690.5l0,-2" class="g2_136" />
<path d="M427.5,690.5l460,0" class="g2_136" />
<path d="M887.5,690.5l0,-2" class="g2_136" />
<path d="M46.5,743.5l0,-53" class="g2_136" />
<path d="M46.5,745.5l0,-2" class="g2_136" />
<path d="M46.5,745.5l0,-2" class="g2_136" />
<path d="M47.5,745.5l33,0" class="g2_136" />
<path d="M80.5,743.5l0,-53" class="g2_136" />
<path d="M80.5,745.5l0,-2" class="g2_136" />
<path d="M81.5,745.5l34,0" class="g2_136" />
<path d="M115.5,743.5l0,-53" class="g2_136" />
<path d="M115.5,745.5l0,-2" class="g2_136" />
<path d="M116.5,745.5l33,0" class="g2_136" />
<path d="M149.5,743.5l0,-53" class="g2_136" />
<path d="M149.5,745.5l0,-2" class="g2_136" />
<path d="M151.5,745.5l130,0" class="g2_136" />
<path d="M281.5,743.5l0,-53" class="g2_136" />
<path d="M281.5,745.5l0,-2" class="g2_136" />
<path d="M282.5,745.5l74,0" class="g2_136" />
<path d="M356.5,743.5l0,-53" class="g2_136" />
<path d="M356.5,745.5l0,-2" class="g2_136" />
<path d="M358.5,745.5l67,0" class="g2_136" />
<path d="M425.5,743.5l0,-53" class="g2_136" />
<path d="M425.5,745.5l0,-2" class="g2_136" />
<path d="M427.5,745.5l460,0" class="g2_136" />
<path d="M887.5,743.5l0,-53" class="g2_136" />
<path d="M887.5,745.5l0,-2" class="g2_136" />
<path d="M887.5,745.5l0,-2" class="g2_136" />
</svg>