<?xml version="1.0" encoding="UTF-8" standalone="no"?>
<!DOCTYPE svg PUBLIC "-//W3C//DTD SVG 1.1//EN"
"http://www.w3.org/Graphics/SVG/1.1/DTD/svg11.dtd">
<svg version="1.1" xmlns="http://www.w3.org/2000/svg" xmlns:xlink="http://www.w3.org/1999/xlink">
<defs>
<clipPath id="c0_37"><path d="M47.5,159.5l0,-24l179,0l0,24Z" /></clipPath>
<clipPath id="c1_37"><path d="M227.5,159.5l0,-24l163,0l0,24Z" /></clipPath>
<clipPath id="c2_37"><path d="M392.5,159.5l0,-24l495,0l0,24Z" /></clipPath>
<clipPath id="c3_37"><path d="M47.5,375.5l0,-215l179,0l0,215Z" /></clipPath>
<clipPath id="c4_37"><path d="M227.5,375.5l0,-215l163,0l0,215Z" /></clipPath>
<clipPath id="c5_37"><path d="M392.5,375.5l0,-215l495,0l0,215Z" /></clipPath>
<clipPath id="c6_37"><path d="M47.5,400.5l0,-24l179,0l0,24Z" /></clipPath>
<clipPath id="c7_37"><path d="M227.5,400.5l0,-24l163,0l0,24Z" /></clipPath>
<clipPath id="c8_37"><path d="M392.5,400.5l0,-24l495,0l0,24Z" /></clipPath>
<clipPath id="c9_37"><path d="M47.5,945.5l0,-120l840,0l0,120Z" /></clipPath>
<clipPath id="c10_37"><path d="M47.5,1052.5l0,-23l247,0l0,23Z" /></clipPath>
<clipPath id="c11_37"><path d="M295.5,1052.5l0,-23l64,0l0,23Z" /></clipPath>
<clipPath id="c12_37"><path d="M361.5,1052.5l0,-23l526,0l0,23Z" /></clipPath>
<clipPath id="c13_37"><path d="M47.5,1078.5l0,-24l41,0l0,24Z" /></clipPath>
<clipPath id="c14_37"><path d="M90.5,1078.5l0,-24l204,0l0,24Z" /></clipPath>
<clipPath id="c15_37"><path d="M295.5,1078.5l0,-24l64,0l0,24Z" /></clipPath>
<clipPath id="c16_37"><path d="M361.5,1078.5l0,-24l526,0l0,24Z" /></clipPath>
<style type="text/css"><![CDATA[
.g2_37{
fill: none;
stroke: #7E7E7E;
stroke-width: 1;
stroke-linecap: butt;
stroke-linejoin: miter;
}
.g3_37{
fill: #F1F1F1;
}
.g1_37{
fill: #DBE5F1;
}
]]></style>
</defs>
<path fill-rule="evenodd" d="M47,159l179,0l0,-24L47,135l0,24Z" class="g1_37" />
<g clip-path="url(#c0_37)">
<path fill-rule="evenodd" d="M55,159l163,0l0,-24L55,135l0,24Z" class="g1_37" />
</g>
<path fill-rule="evenodd" d="M227,159l163,0l0,-24l-163,0l0,24Z" class="g1_37" />
<g clip-path="url(#c1_37)">
<path fill-rule="evenodd" d="M235,159l148,0l0,-24l-148,0l0,24Z" class="g1_37" />
</g>
<path fill-rule="evenodd" d="M392,159l495,0l0,-24l-495,0l0,24Z" class="g1_37" />
<g clip-path="url(#c2_37)">
<path fill-rule="evenodd" d="M399,159l481,0l0,-24l-481,0l0,24Z" class="g1_37" />
</g>
<path d="M46.5,135.5l0,-2" class="g2_37" />
<path d="M46.5,135.5l0,-2" class="g2_37" />
<path d="M47.5,135.5l179,0" class="g2_37" />
<path d="M226.5,135.5l0,-2" class="g2_37" />
<path d="M227.5,135.5l163,0" class="g2_37" />
<path d="M390.5,135.5l0,-2" class="g2_37" />
<path d="M392.5,135.5l495,0" class="g2_37" />
<path d="M887.5,135.5l0,-2" class="g2_37" />
<path d="M887.5,135.5l0,-2" class="g2_37" />
<path d="M46.5,159.5l0,-24" class="g2_37" />
<path d="M226.5,159.5l0,-24" class="g2_37" />
<path d="M390.5,159.5l0,-24" class="g2_37" />
<path d="M887.5,159.5l0,-24" class="g2_37" />
<path fill-rule="evenodd" d="M47,375l179,0l0,-215L47,160l0,215Z" class="g3_37" />
<g clip-path="url(#c3_37)">
<path fill-rule="evenodd" d="M55,184l163,0l0,-24L55,160l0,24Z" class="g3_37" />
</g>
<path fill-rule="evenodd" d="M227,375l163,0l0,-215l-163,0l0,215Z" class="g3_37" />
<g clip-path="url(#c4_37)">
<path fill-rule="evenodd" d="M235,184l148,0l0,-24l-148,0l0,24Z" class="g3_37" />
</g>
<path fill-rule="evenodd" d="M392,375l495,0l0,-215l-495,0l0,215Z" class="g3_37" />
<g clip-path="url(#c5_37)">
<path fill-rule="evenodd" d="M399,184l481,0l0,-24l-481,0l0,24Z" class="g3_37" />
</g>
<path fill-rule="evenodd" d="M399,208l481,0l0,-24l-481,0l0,24Z" class="g3_37" />
<path fill-rule="evenodd" d="M399,232l481,0l0,-24l-481,0l0,24Z" class="g3_37" />
<path fill-rule="evenodd" d="M399,256l481,0l0,-24l-481,0l0,24Z" class="g3_37" />
<path fill-rule="evenodd" d="M399,279l481,0l0,-23l-481,0l0,23Z" class="g3_37" />
<path fill-rule="evenodd" d="M399,303l481,0l0,-24l-481,0l0,24Z" class="g3_37" />
<path fill-rule="evenodd" d="M399,327l481,0l0,-24l-481,0l0,24Z" class="g3_37" />
<path fill-rule="evenodd" d="M399,351l481,0l0,-24l-481,0l0,24Z" class="g3_37" />
<path fill-rule="evenodd" d="M399,375l481,0l0,-24l-481,0l0,24Z" class="g3_37" />
<path d="M46.5,160.5l0,-1" class="g2_37" />
<path d="M47.5,160.5l179,0" class="g2_37" />
<path d="M226.5,160.5l0,-1" class="g2_37" />
<path d="M227.5,160.5l163,0" class="g2_37" />
<path d="M390.5,160.5l0,-1" class="g2_37" />
<path d="M392.5,160.5l495,0" class="g2_37" />
<path d="M887.5,160.5l0,-1" class="g2_37" />
<path d="M46.5,375.5l0,-215" class="g2_37" />
<path d="M226.5,375.5l0,-215" class="g2_37" />
<path d="M390.5,375.5l0,-215" class="g2_37" />
<path d="M887.5,375.5l0,-215" class="g2_37" />
<path fill-rule="evenodd" d="M47,400l179,0l0,-24L47,376l0,24Z" class="g3_37" />
<g clip-path="url(#c6_37)">
<path fill-rule="evenodd" d="M55,400l163,0l0,-24L55,376l0,24Z" class="g3_37" />
</g>
<path fill-rule="evenodd" d="M227,400l163,0l0,-24l-163,0l0,24Z" class="g3_37" />
<g clip-path="url(#c7_37)">
<path fill-rule="evenodd" d="M235,400l148,0l0,-24l-148,0l0,24Z" class="g3_37" />
</g>
<path fill-rule="evenodd" d="M392,400l495,0l0,-24l-495,0l0,24Z" class="g3_37" />
<g clip-path="url(#c8_37)">
<path fill-rule="evenodd" d="M399,400l481,0l0,-24l-481,0l0,24Z" class="g3_37" />
</g>
<path d="M46.5,376.5l0,-1" class="g2_37" />
<path d="M47.5,376.5l179,0" class="g2_37" />
<path d="M226.5,376.5l0,-1" class="g2_37" />
<path d="M227.5,376.5l163,0" class="g2_37" />
<path d="M390.5,376.5l0,-1" class="g2_37" />
<path d="M392.5,376.5l495,0" class="g2_37" />
<path d="M887.5,376.5l0,-1" class="g2_37" />
<path d="M46.5,400.5l0,-24" class="g2_37" />
<path d="M46.5,402.5l0,-2" class="g2_37" />
<path d="M46.5,402.5l0,-2" class="g2_37" />
<path d="M47.5,402.5l179,0" class="g2_37" />
<path d="M226.5,400.5l0,-24" class="g2_37" />
<path d="M226.5,402.5l0,-2" class="g2_37" />
<path d="M227.5,402.5l163,0" class="g2_37" />
<path d="M390.5,400.5l0,-24" class="g2_37" />
<path d="M390.5,402.5l0,-2" class="g2_37" />
<path d="M392.5,402.5l495,0" class="g2_37" />
<path d="M887.5,400.5l0,-24" class="g2_37" />
<path d="M887.5,402.5l0,-2" class="g2_37" />
<path d="M887.5,402.5l0,-2" class="g2_37" />
<path fill-rule="evenodd" d="M47,475l178,0l0,-24L47,451l0,24Z" class="g1_37" />
<path fill-rule="evenodd" d="M55,475l163,0l0,-24L55,451l0,24Z" class="g1_37" />
<path fill-rule="evenodd" d="M227,475l163,0l0,-24l-163,0l0,24Z" class="g1_37" />
<path fill-rule="evenodd" d="M234,475l149,0l0,-24l-149,0l0,24Z" class="g1_37" />
<path fill-rule="evenodd" d="M392,475l164,0l0,-24l-164,0l0,24Z" class="g1_37" />
<path fill-rule="evenodd" d="M399,475l149,0l0,-24l-149,0l0,24Z" class="g1_37" />
<path fill-rule="evenodd" d="M557,475l164,0l0,-24l-164,0l0,24Z" class="g1_37" />
<path fill-rule="evenodd" d="M565,475l149,0l0,-24l-149,0l0,24Z" class="g1_37" />
<path fill-rule="evenodd" d="M723,475l164,0l0,-24l-164,0l0,24Z" class="g1_37" />
<path fill-rule="evenodd" d="M730,475l150,0l0,-24l-150,0l0,24Z" class="g1_37" />
<path d="M46.5,451.5l0,-2" class="g2_37" />
<path d="M46.5,451.5l0,-2" class="g2_37" />
<path d="M47.5,451.5l178,0" class="g2_37" />
<path d="M225.5,451.5l0,-2" class="g2_37" />
<path d="M227.5,451.5l163,0" class="g2_37" />
<path d="M390.5,451.5l0,-2" class="g2_37" />
<path d="M392.5,451.5l164,0" class="g2_37" />
<path d="M556.5,451.5l0,-2" class="g2_37" />
<path d="M557.5,451.5l164,0" class="g2_37" />
<path d="M721.5,451.5l0,-2" class="g2_37" />
<path d="M723.5,451.5l164,0" class="g2_37" />
<path d="M887.5,451.5l0,-2" class="g2_37" />
<path d="M887.5,451.5l0,-2" class="g2_37" />
<path d="M46.5,475.5l0,-24" class="g2_37" />
<path d="M225.5,475.5l0,-24" class="g2_37" />
<path d="M390.5,475.5l0,-24" class="g2_37" />
<path d="M556.5,475.5l0,-24" class="g2_37" />
<path d="M721.5,475.5l0,-24" class="g2_37" />
<path d="M887.5,475.5l0,-24" class="g2_37" />
<path fill-rule="evenodd" d="M47,500l178,0l0,-24L47,476l0,24Z" class="g3_37" />
<path fill-rule="evenodd" d="M55,500l163,0l0,-24L55,476l0,24Z" class="g3_37" />
<path fill-rule="evenodd" d="M227,500l163,0l0,-24l-163,0l0,24Z" class="g3_37" />
<path fill-rule="evenodd" d="M234,500l149,0l0,-24l-149,0l0,24Z" class="g3_37" />
<path fill-rule="evenodd" d="M392,500l164,0l0,-24l-164,0l0,24Z" class="g3_37" />
<path fill-rule="evenodd" d="M399,500l149,0l0,-24l-149,0l0,24Z" class="g3_37" />
<path fill-rule="evenodd" d="M557,500l164,0l0,-24l-164,0l0,24Z" class="g3_37" />
<path fill-rule="evenodd" d="M565,500l149,0l0,-24l-149,0l0,24Z" class="g3_37" />
<path fill-rule="evenodd" d="M723,500l164,0l0,-24l-164,0l0,24Z" class="g3_37" />
<path fill-rule="evenodd" d="M730,500l150,0l0,-24l-150,0l0,24Z" class="g3_37" />
<path d="M46.5,476.5l0,-1" class="g2_37" />
<path d="M47.5,476.5l178,0" class="g2_37" />
<path d="M225.5,476.5l0,-1" class="g2_37" />
<path d="M227.5,476.5l163,0" class="g2_37" />
<path d="M390.5,476.5l0,-1" class="g2_37" />
<path d="M392.5,476.5l164,0" class="g2_37" />
<path d="M556.5,476.5l0,-1" class="g2_37" />
<path d="M557.5,476.5l164,0" class="g2_37" />
<path d="M721.5,476.5l0,-1" class="g2_37" />
<path d="M723.5,476.5l164,0" class="g2_37" />
<path d="M887.5,476.5l0,-1" class="g2_37" />
<path d="M46.5,500.5l0,-24" class="g2_37" />
<path d="M46.5,502.5l0,-2" class="g2_37" />
<path d="M46.5,502.5l0,-2" class="g2_37" />
<path d="M47.5,502.5l178,0" class="g2_37" />
<path d="M225.5,500.5l0,-24" class="g2_37" />
<path d="M225.5,502.5l0,-2" class="g2_37" />
<path d="M227.5,502.5l163,0" class="g2_37" />
<path d="M390.5,500.5l0,-24" class="g2_37" />
<path d="M390.5,502.5l0,-2" class="g2_37" />
<path d="M392.5,502.5l164,0" class="g2_37" />
<path d="M556.5,500.5l0,-24" class="g2_37" />
<path d="M556.5,502.5l0,-2" class="g2_37" />
<path d="M557.5,502.5l164,0" class="g2_37" />
<path d="M721.5,500.5l0,-24" class="g2_37" />
<path d="M721.5,502.5l0,-2" class="g2_37" />
<path d="M723.5,502.5l164,0" class="g2_37" />
<path d="M887.5,500.5l0,-24" class="g2_37" />
<path d="M887.5,502.5l0,-2" class="g2_37" />
<path d="M887.5,502.5l0,-2" class="g2_37" />
<path fill-rule="evenodd" d="M47,751l840,0l0,-119L47,632l0,119Z" class="g3_37" />
<path fill-rule="evenodd" d="M55,656l825,0l0,-24L55,632l0,24Z" class="g3_37" />
<path fill-rule="evenodd" d="M55,679l825,0l0,-23L55,656l0,23Z" class="g3_37" />
<path fill-rule="evenodd" d="M55,703l825,0l0,-24L55,679l0,24Z" class="g3_37" />
<path fill-rule="evenodd" d="M55,727l825,0l0,-24L55,703l0,24Z" class="g3_37" />
<path fill-rule="evenodd" d="M55,751l825,0l0,-24L55,727l0,24Z" class="g3_37" />
<path d="M46.5,632.5l0,-2" class="g2_37" />
<path d="M46.5,632.5l0,-2" class="g2_37" />
<path d="M47.5,632.5l840,0" class="g2_37" />
<path d="M887.5,632.5l0,-2" class="g2_37" />
<path d="M887.5,632.5l0,-2" class="g2_37" />
<path d="M46.5,751.5l0,-119" class="g2_37" />
<path d="M46.5,752.5l0,-1" class="g2_37" />
<path d="M46.5,752.5l0,-1" class="g2_37" />
<path d="M47.5,752.5l840,0" class="g2_37" />
<path d="M887.5,751.5l0,-119" class="g2_37" />
<path d="M887.5,752.5l0,-1" class="g2_37" />
<path d="M887.5,752.5l0,-1" class="g2_37" />
<path fill-rule="evenodd" d="M47,945l840,0l0,-120L47,825l0,120Z" class="g3_37" />
<g clip-path="url(#c9_37)">
<path fill-rule="evenodd" d="M55,849l825,0l0,-24L55,825l0,24Z" class="g3_37" />
</g>
<path fill-rule="evenodd" d="M55,873l825,0l0,-24L55,849l0,24Z" class="g3_37" />
<path fill-rule="evenodd" d="M55,897l825,0l0,-24L55,873l0,24Z" class="g3_37" />
<path fill-rule="evenodd" d="M55,921l825,0l0,-24L55,897l0,24Z" class="g3_37" />
<g clip-path="url(#c9_37)">
<path fill-rule="evenodd" d="M55,945l825,0l0,-24L55,921l0,24Z" class="g3_37" />
</g>
<path d="M46.5,825.5l0,-1" class="g2_37" />
<path d="M46.5,825.5l0,-1" class="g2_37" />
<path d="M47.5,825.5l840,0" class="g2_37" />
<path d="M887.5,825.5l0,-1" class="g2_37" />
<path d="M887.5,825.5l0,-1" class="g2_37" />
<path d="M46.5,945.5l0,-120" class="g2_37" />
<path d="M46.5,946.5l0,-1" class="g2_37" />
<path d="M46.5,946.5l0,-1" class="g2_37" />
<path d="M47.5,946.5l840,0" class="g2_37" />
<path d="M887.5,945.5l0,-120" class="g2_37" />
<path d="M887.5,946.5l0,-1" class="g2_37" />
<path d="M887.5,946.5l0,-1" class="g2_37" />
<path fill-rule="evenodd" d="M47,1052l247,0l0,-23l-247,0l0,23Z" class="g1_37" />
<g clip-path="url(#c10_37)">
<path fill-rule="evenodd" d="M55,1052l231,0l0,-23l-231,0l0,23Z" class="g1_37" />
</g>
<path fill-rule="evenodd" d="M295,1052l64,0l0,-23l-64,0l0,23Z" class="g1_37" />
<g clip-path="url(#c11_37)">
<path fill-rule="evenodd" d="M303,1052l49,0l0,-23l-49,0l0,23Z" class="g1_37" />
</g>
<path fill-rule="evenodd" d="M361,1052l526,0l0,-23l-526,0l0,23Z" class="g1_37" />
<g clip-path="url(#c12_37)">
<path fill-rule="evenodd" d="M368,1052l512,0l0,-23l-512,0l0,23Z" class="g1_37" />
</g>
<path d="M46.5,1029.5l0,-2" class="g2_37" />
<path d="M46.5,1029.5l0,-2" class="g2_37" />
<path d="M47.5,1029.5l247,0" class="g2_37" />
<path d="M294.5,1029.5l0,-2" class="g2_37" />
<path d="M295.5,1029.5l64,0" class="g2_37" />
<path d="M359.5,1029.5l0,-2" class="g2_37" />
<path d="M361.5,1029.5l526,0" class="g2_37" />
<path d="M887.5,1029.5l0,-2" class="g2_37" />
<path d="M887.5,1029.5l0,-2" class="g2_37" />
<path d="M46.5,1052.5l0,-23" class="g2_37" />
<path d="M294.5,1052.5l0,-23" class="g2_37" />
<path d="M359.5,1052.5l0,-23" class="g2_37" />
<path d="M887.5,1052.5l0,-23" class="g2_37" />
<path fill-rule="evenodd" d="M47,1078l41,0l0,-24l-41,0l0,24Z" class="g3_37" />
<g clip-path="url(#c13_37)">
<path fill-rule="evenodd" d="M55,1078l23,0l0,-24l-23,0l0,24Z" class="g3_37" />
<path fill-rule="evenodd" d="M78,1078l10,0l0,-24l-10,0l0,24Z" class="g3_37" />
</g>
<path fill-rule="evenodd" d="M90,1078l204,0l0,-24l-204,0l0,24Z" class="g3_37" />
<g clip-path="url(#c14_37)">
<path fill-rule="evenodd" d="M97,1078l189,0l0,-24l-189,0l0,24Z" class="g3_37" />
</g>
<path fill-rule="evenodd" d="M295,1078l64,0l0,-24l-64,0l0,24Z" class="g3_37" />
<g clip-path="url(#c15_37)">
<path fill-rule="evenodd" d="M303,1078l49,0l0,-24l-49,0l0,24Z" class="g3_37" />
</g>
<path fill-rule="evenodd" d="M361,1078l526,0l0,-24l-526,0l0,24Z" class="g3_37" />
<g clip-path="url(#c16_37)">
<path fill-rule="evenodd" d="M368,1078l512,0l0,-24l-512,0l0,24Z" class="g3_37" />
</g>
<path d="M46.5,1054.5l0,-2" class="g2_37" />
<path d="M47.5,1054.5l41,0" class="g2_37" />
<path d="M88.5,1054.5l0,-2" class="g2_37" />
<path d="M90.5,1054.5l204,0" class="g2_37" />
<path d="M294.5,1054.5l0,-2" class="g2_37" />
<path d="M295.5,1054.5l64,0" class="g2_37" />
<path d="M359.5,1054.5l0,-2" class="g2_37" />
<path d="M361.5,1054.5l526,0" class="g2_37" />
<path d="M887.5,1054.5l0,-2" class="g2_37" />
<path d="M46.5,1078.5l0,-24" class="g2_37" />
<path d="M46.5,1079.5l0,-1" class="g2_37" />
<path d="M46.5,1079.5l0,-1" class="g2_37" />
<path d="M47.5,1079.5l41,0" class="g2_37" />
<path d="M88.5,1078.5l0,-24" class="g2_37" />
<path d="M88.5,1079.5l0,-1" class="g2_37" />
<path d="M90.5,1079.5l204,0" class="g2_37" />
<path d="M294.5,1078.5l0,-24" class="g2_37" />
<path d="M294.5,1079.5l0,-1" class="g2_37" />
<path d="M295.5,1079.5l64,0" class="g2_37" />
<path d="M359.5,1078.5l0,-24" class="g2_37" />
<path d="M359.5,1079.5l0,-1" class="g2_37" />
<path d="M361.5,1079.5l526,0" class="g2_37" />
<path d="M887.5,1078.5l0,-24" class="g2_37" />
<path d="M887.5,1079.5l0,-1" class="g2_37" />
<path d="M887.5,1079.5l0,-1" class="g2_37" />
</svg>