<?xml version="1.0" encoding="UTF-8" standalone="no"?>
<!DOCTYPE svg PUBLIC "-//W3C//DTD SVG 1.1//EN"
"http://www.w3.org/Graphics/SVG/1.1/DTD/svg11.dtd">
<svg version="1.1" xmlns="http://www.w3.org/2000/svg" xmlns:xlink="http://www.w3.org/1999/xlink">
<defs>
<clipPath id="c0_338"><path d="M178.5,302.5l0,-191l137,0l0,191Z" /></clipPath>
<clipPath id="c1_338"><path d="M317.5,302.5l0,-191l78,0l0,191Z" /></clipPath>
<clipPath id="c2_338"><path d="M397.5,302.5l0,-191l81,0l0,191Z" /></clipPath>
<clipPath id="c3_338"><path d="M480.5,302.5l0,-191l407,0l0,191Z" /></clipPath>
<clipPath id="c4_338"><path d="M178.5,351.5l0,-48l137,0l0,48Z" /></clipPath>
<clipPath id="c5_338"><path d="M317.5,351.5l0,-48l78,0l0,48Z" /></clipPath>
<clipPath id="c6_338"><path d="M397.5,351.5l0,-48l81,0l0,48Z" /></clipPath>
<clipPath id="c7_338"><path d="M480.5,351.5l0,-48l407,0l0,48Z" /></clipPath>
<clipPath id="c8_338"><path d="M178.5,400.5l0,-48l137,0l0,48Z" /></clipPath>
<clipPath id="c9_338"><path d="M317.5,400.5l0,-48l78,0l0,48Z" /></clipPath>
<clipPath id="c10_338"><path d="M397.5,400.5l0,-48l81,0l0,48Z" /></clipPath>
<clipPath id="c11_338"><path d="M480.5,400.5l0,-48l407,0l0,48Z" /></clipPath>
<clipPath id="c12_338"><path d="M47.5,1026.5l0,-477l840,0l0,477Z" /></clipPath>
<style type="text/css"><![CDATA[
.g2_338{
fill: none;
stroke: #7E7E7E;
stroke-width: 1;
stroke-linecap: butt;
stroke-linejoin: miter;
}
.g1_338{
fill: #F1F1F1;
}
]]></style>
</defs>
<path fill-rule="evenodd" d="M47,302l48,0L95,111l-48,0l0,191Z" class="g1_338" />
<path fill-rule="evenodd" d="M96,302l40,0l0,-191l-40,0l0,191Z" class="g1_338" />
<path fill-rule="evenodd" d="M137,302l39,0l0,-191l-39,0l0,191Z" class="g1_338" />
<path fill-rule="evenodd" d="M178,302l137,0l0,-191l-137,0l0,191Z" class="g1_338" />
<g clip-path="url(#c0_338)">
<path fill-rule="evenodd" d="M185,135l123,0l0,-24l-123,0l0,24Z" class="g1_338" />
</g>
<path fill-rule="evenodd" d="M185,159l123,0l0,-24l-123,0l0,24Z" class="g1_338" />
<path fill-rule="evenodd" d="M317,302l78,0l0,-191l-78,0l0,191Z" class="g1_338" />
<g clip-path="url(#c1_338)">
<path fill-rule="evenodd" d="M324,135l64,0l0,-24l-64,0l0,24Z" class="g1_338" />
</g>
<path fill-rule="evenodd" d="M397,302l81,0l0,-191l-81,0l0,191Z" class="g1_338" />
<g clip-path="url(#c2_338)">
<path fill-rule="evenodd" d="M404,135l67,0l0,-24l-67,0l0,24Z" class="g1_338" />
</g>
<path fill-rule="evenodd" d="M480,302l407,0l0,-191l-407,0l0,191Z" class="g1_338" />
<g clip-path="url(#c3_338)">
<path fill-rule="evenodd" d="M487,135l393,0l0,-24l-393,0l0,24Z" class="g1_338" />
</g>
<path fill-rule="evenodd" d="M487,159l393,0l0,-24l-393,0l0,24Z" class="g1_338" />
<path fill-rule="evenodd" d="M487,182l393,0l0,-23l-393,0l0,23Z" class="g1_338" />
<path fill-rule="evenodd" d="M487,206l393,0l0,-24l-393,0l0,24Z" class="g1_338" />
<path fill-rule="evenodd" d="M487,230l393,0l0,-24l-393,0l0,24Z" class="g1_338" />
<path fill-rule="evenodd" d="M487,254l393,0l0,-24l-393,0l0,24Z" class="g1_338" />
<path fill-rule="evenodd" d="M487,278l393,0l0,-24l-393,0l0,24Z" class="g1_338" />
<path fill-rule="evenodd" d="M487,302l393,0l0,-24l-393,0l0,24Z" class="g1_338" />
<path d="M46.5,111.5l0,-1" class="g2_338" />
<path d="M46.5,111.5l0,-1" class="g2_338" />
<path d="M47.5,111.5l48,0" class="g2_338" />
<path d="M95.5,111.5l0,-1" class="g2_338" />
<path d="M96.5,111.5l40,0" class="g2_338" />
<path d="M136.5,111.5l0,-1" class="g2_338" />
<path d="M137.5,111.5l39,0" class="g2_338" />
<path d="M176.5,111.5l0,-1" class="g2_338" />
<path d="M178.5,111.5l137,0" class="g2_338" />
<path d="M315.5,111.5l0,-1" class="g2_338" />
<path d="M317.5,111.5l78,0" class="g2_338" />
<path d="M395.5,111.5l0,-1" class="g2_338" />
<path d="M397.5,111.5l81,0" class="g2_338" />
<path d="M478.5,111.5l0,-1" class="g2_338" />
<path d="M480.5,111.5l407,0" class="g2_338" />
<path d="M887.5,111.5l0,-1" class="g2_338" />
<path d="M887.5,111.5l0,-1" class="g2_338" />
<path d="M46.5,302.5l0,-191" class="g2_338" />
<path d="M95.5,302.5l0,-191" class="g2_338" />
<path d="M136.5,302.5l0,-191" class="g2_338" />
<path d="M176.5,302.5l0,-191" class="g2_338" />
<path d="M315.5,302.5l0,-191" class="g2_338" />
<path d="M395.5,302.5l0,-191" class="g2_338" />
<path d="M478.5,302.5l0,-191" class="g2_338" />
<path d="M887.5,302.5l0,-191" class="g2_338" />
<path fill-rule="evenodd" d="M47,351l48,0l0,-49l-48,0l0,49Z" class="g1_338" />
<path fill-rule="evenodd" d="M96,351l40,0l0,-49l-40,0l0,49Z" class="g1_338" />
<path fill-rule="evenodd" d="M137,351l39,0l0,-49l-39,0l0,49Z" class="g1_338" />
<path fill-rule="evenodd" d="M178,351l137,0l0,-48l-137,0l0,48Z" class="g1_338" />
<g clip-path="url(#c4_338)">
<path fill-rule="evenodd" d="M185,327l123,0l0,-24l-123,0l0,24Z" class="g1_338" />
</g>
<path fill-rule="evenodd" d="M317,351l78,0l0,-48l-78,0l0,48Z" class="g1_338" />
<g clip-path="url(#c5_338)">
<path fill-rule="evenodd" d="M324,327l64,0l0,-24l-64,0l0,24Z" class="g1_338" />
</g>
<path fill-rule="evenodd" d="M397,351l81,0l0,-48l-81,0l0,48Z" class="g1_338" />
<g clip-path="url(#c6_338)">
<path fill-rule="evenodd" d="M404,327l67,0l0,-24l-67,0l0,24Z" class="g1_338" />
</g>
<path fill-rule="evenodd" d="M480,351l407,0l0,-48l-407,0l0,48Z" class="g1_338" />
<g clip-path="url(#c7_338)">
<path fill-rule="evenodd" d="M487,327l393,0l0,-24l-393,0l0,24Z" class="g1_338" />
</g>
<path fill-rule="evenodd" d="M487,351l393,0l0,-24l-393,0l0,24Z" class="g1_338" />
<path d="M46.5,303.5l0,-1" class="g2_338" />
<path d="M95.5,303.5l0,-1" class="g2_338" />
<path d="M136.5,303.5l0,-1" class="g2_338" />
<path d="M176.5,303.5l0,-1" class="g2_338" />
<path d="M178.5,303.5l137,0" class="g2_338" />
<path d="M315.5,303.5l0,-1" class="g2_338" />
<path d="M317.5,303.5l78,0" class="g2_338" />
<path d="M395.5,303.5l0,-1" class="g2_338" />
<path d="M397.5,303.5l81,0" class="g2_338" />
<path d="M478.5,303.5l0,-1" class="g2_338" />
<path d="M480.5,303.5l407,0" class="g2_338" />
<path d="M887.5,303.5l0,-1" class="g2_338" />
<path d="M46.5,351.5l0,-48" class="g2_338" />
<path d="M95.5,351.5l0,-48" class="g2_338" />
<path d="M136.5,351.5l0,-48" class="g2_338" />
<path d="M176.5,351.5l0,-48" class="g2_338" />
<path d="M315.5,351.5l0,-48" class="g2_338" />
<path d="M395.5,351.5l0,-48" class="g2_338" />
<path d="M478.5,351.5l0,-48" class="g2_338" />
<path d="M887.5,351.5l0,-48" class="g2_338" />
<path fill-rule="evenodd" d="M47,400l48,0l0,-49l-48,0l0,49Z" class="g1_338" />
<path fill-rule="evenodd" d="M96,400l40,0l0,-49l-40,0l0,49Z" class="g1_338" />
<path fill-rule="evenodd" d="M137,400l39,0l0,-49l-39,0l0,49Z" class="g1_338" />
<path fill-rule="evenodd" d="M178,400l137,0l0,-48l-137,0l0,48Z" class="g1_338" />
<g clip-path="url(#c8_338)">
<path fill-rule="evenodd" d="M185,376l123,0l0,-24l-123,0l0,24Z" class="g1_338" />
</g>
<path fill-rule="evenodd" d="M317,400l78,0l0,-48l-78,0l0,48Z" class="g1_338" />
<g clip-path="url(#c9_338)">
<path fill-rule="evenodd" d="M324,376l64,0l0,-24l-64,0l0,24Z" class="g1_338" />
</g>
<path fill-rule="evenodd" d="M397,400l81,0l0,-48l-81,0l0,48Z" class="g1_338" />
<g clip-path="url(#c10_338)">
<path fill-rule="evenodd" d="M404,376l67,0l0,-24l-67,0l0,24Z" class="g1_338" />
</g>
<path fill-rule="evenodd" d="M480,400l407,0l0,-48l-407,0l0,48Z" class="g1_338" />
<g clip-path="url(#c11_338)">
<path fill-rule="evenodd" d="M487,376l393,0l0,-24l-393,0l0,24Z" class="g1_338" />
</g>
<path fill-rule="evenodd" d="M487,400l393,0l0,-24l-393,0l0,24Z" class="g1_338" />
<path d="M46.5,352.5l0,-1" class="g2_338" />
<path d="M95.5,352.5l0,-1" class="g2_338" />
<path d="M136.5,352.5l0,-1" class="g2_338" />
<path d="M176.5,352.5l0,-1" class="g2_338" />
<path d="M178.5,352.5l137,0" class="g2_338" />
<path d="M315.5,352.5l0,-1" class="g2_338" />
<path d="M317.5,352.5l78,0" class="g2_338" />
<path d="M395.5,352.5l0,-1" class="g2_338" />
<path d="M397.5,352.5l81,0" class="g2_338" />
<path d="M478.5,352.5l0,-1" class="g2_338" />
<path d="M480.5,352.5l407,0" class="g2_338" />
<path d="M887.5,352.5l0,-1" class="g2_338" />
<path d="M46.5,400.5l0,-48" class="g2_338" />
<path d="M46.5,402.5l0,-2" class="g2_338" />
<path d="M46.5,402.5l0,-2" class="g2_338" />
<path d="M47.5,402.5l48,0" class="g2_338" />
<path d="M95.5,400.5l0,-48" class="g2_338" />
<path d="M95.5,402.5l0,-2" class="g2_338" />
<path d="M96.5,402.5l40,0" class="g2_338" />
<path d="M136.5,400.5l0,-48" class="g2_338" />
<path d="M136.5,402.5l0,-2" class="g2_338" />
<path d="M137.5,402.5l39,0" class="g2_338" />
<path d="M176.5,400.5l0,-48" class="g2_338" />
<path d="M176.5,402.5l0,-2" class="g2_338" />
<path d="M178.5,402.5l137,0" class="g2_338" />
<path d="M315.5,400.5l0,-48" class="g2_338" />
<path d="M315.5,402.5l0,-2" class="g2_338" />
<path d="M317.5,402.5l78,0" class="g2_338" />
<path d="M395.5,400.5l0,-48" class="g2_338" />
<path d="M395.5,402.5l0,-2" class="g2_338" />
<path d="M397.5,402.5l81,0" class="g2_338" />
<path d="M478.5,400.5l0,-48" class="g2_338" />
<path d="M478.5,402.5l0,-2" class="g2_338" />
<path d="M480.5,402.5l407,0" class="g2_338" />
<path d="M887.5,400.5l0,-48" class="g2_338" />
<path d="M887.5,402.5l0,-2" class="g2_338" />
<path d="M887.5,402.5l0,-2" class="g2_338" />
<path fill-rule="evenodd" d="M47,522l840,0l0,-23L47,499l0,23Z" class="g1_338" />
<path fill-rule="evenodd" d="M55,522l825,0l0,-23L55,499l0,23Z" class="g1_338" />
<path d="M46.5,498.5l0,-1" class="g2_338" />
<path d="M46.5,498.5l0,-1" class="g2_338" />
<path d="M47.5,498.5l840,0" class="g2_338" />
<path d="M887.5,498.5l0,-1" class="g2_338" />
<path d="M887.5,498.5l0,-1" class="g2_338" />
<path d="M46.5,522.5l0,-24" class="g2_338" />
<path d="M46.5,524.5l0,-2" class="g2_338" />
<path d="M46.5,524.5l0,-2" class="g2_338" />
<path d="M47.5,524.5l840,0" class="g2_338" />
<path d="M887.5,522.5l0,-24" class="g2_338" />
<path d="M887.5,524.5l0,-2" class="g2_338" />
<path d="M887.5,524.5l0,-2" class="g2_338" />
<path fill-rule="evenodd" d="M47,1026l840,0l0,-477L47,549l0,477Z" class="g1_338" />
<path fill-rule="evenodd" d="M55,573l825,0l0,-24L55,549l0,24Z" class="g1_338" />
<path fill-rule="evenodd" d="M55,597l825,0l0,-24L55,573l0,24Z" class="g1_338" />
<path fill-rule="evenodd" d="M55,621l825,0l0,-24L55,597l0,24Z" class="g1_338" />
<path fill-rule="evenodd" d="M55,645l825,0l0,-24L55,621l0,24Z" class="g1_338" />
<path fill-rule="evenodd" d="M55,668l825,0l0,-23L55,645l0,23Z" class="g1_338" />
<path fill-rule="evenodd" d="M55,692l825,0l0,-24L55,668l0,24Z" class="g1_338" />
<path fill-rule="evenodd" d="M55,716l825,0l0,-24L55,692l0,24Z" class="g1_338" />
<path fill-rule="evenodd" d="M55,740l825,0l0,-24L55,716l0,24Z" class="g1_338" />
<path fill-rule="evenodd" d="M55,764l825,0l0,-24L55,740l0,24Z" class="g1_338" />
<path fill-rule="evenodd" d="M55,788l825,0l0,-24L55,764l0,24Z" class="g1_338" />
<path fill-rule="evenodd" d="M55,811l825,0l0,-23L55,788l0,23Z" class="g1_338" />
<path fill-rule="evenodd" d="M55,835l825,0l0,-24L55,811l0,24Z" class="g1_338" />
<path fill-rule="evenodd" d="M55,859l825,0l0,-24L55,835l0,24Z" class="g1_338" />
<path fill-rule="evenodd" d="M55,883l825,0l0,-24L55,859l0,24Z" class="g1_338" />
<path fill-rule="evenodd" d="M55,907l825,0l0,-24L55,883l0,24Z" class="g1_338" />
<path fill-rule="evenodd" d="M55,931l825,0l0,-24L55,907l0,24Z" class="g1_338" />
<path fill-rule="evenodd" d="M55,954l825,0l0,-23L55,931l0,23Z" class="g1_338" />
<path fill-rule="evenodd" d="M55,978l825,0l0,-24L55,954l0,24Z" class="g1_338" />
<path fill-rule="evenodd" d="M55,1002l825,0l0,-24L55,978l0,24Z" class="g1_338" />
<g clip-path="url(#c12_338)">
<path fill-rule="evenodd" d="M55,1026l825,0l0,-24l-825,0l0,24Z" class="g1_338" />
</g>
<path d="M46.5,549.5l0,-1" class="g2_338" />
<path d="M46.5,549.5l0,-1" class="g2_338" />
<path d="M47.5,549.5l840,0" class="g2_338" />
<path d="M887.5,549.5l0,-1" class="g2_338" />
<path d="M887.5,549.5l0,-1" class="g2_338" />
<path d="M46.5,1026.5l0,-477" class="g2_338" />
<path d="M46.5,1028.5l0,-2" class="g2_338" />
<path d="M46.5,1028.5l0,-2" class="g2_338" />
<path d="M47.5,1028.5l840,0" class="g2_338" />
<path d="M887.5,1026.5l0,-477" class="g2_338" />
<path d="M887.5,1028.5l0,-2" class="g2_338" />
<path d="M887.5,1028.5l0,-2" class="g2_338" />
</svg>