<?xml version="1.0" encoding="UTF-8" standalone="no"?>
<!DOCTYPE svg PUBLIC "-//W3C//DTD SVG 1.1//EN"
"http://www.w3.org/Graphics/SVG/1.1/DTD/svg11.dtd">
<svg version="1.1" xmlns="http://www.w3.org/2000/svg" xmlns:xlink="http://www.w3.org/1999/xlink">
<defs>
<clipPath id="c0_33"><path d="M47.5,397.5l0,-286l840,0l0,286Z" /></clipPath>
<clipPath id="c1_33"><path d="M47.5,519.5l0,-71l840,0l0,71Z" /></clipPath>
<clipPath id="c2_33"><path d="M47.5,1095.5l0,-477l840,0l0,477Z" /></clipPath>
<style type="text/css"><![CDATA[
.g2_33{
fill: none;
stroke: #7E7E7E;
stroke-width: 1;
stroke-linecap: butt;
stroke-linejoin: miter;
}
.g1_33{
fill: #F1F1F1;
}
]]></style>
</defs>
<path fill-rule="evenodd" d="M47,397l840,0l0,-286L47,111l0,286Z" class="g1_33" />
<g clip-path="url(#c0_33)">
<path fill-rule="evenodd" d="M55,135l825,0l0,-24L55,111l0,24Z" class="g1_33" />
</g>
<path fill-rule="evenodd" d="M55,159l825,0l0,-24L55,135l0,24Z" class="g1_33" />
<path fill-rule="evenodd" d="M55,182l825,0l0,-23L55,159l0,23Z" class="g1_33" />
<path fill-rule="evenodd" d="M55,206l825,0l0,-24L55,182l0,24Z" class="g1_33" />
<path fill-rule="evenodd" d="M55,230l825,0l0,-24L55,206l0,24Z" class="g1_33" />
<path fill-rule="evenodd" d="M55,254l825,0l0,-24L55,230l0,24Z" class="g1_33" />
<path fill-rule="evenodd" d="M55,278l825,0l0,-24L55,254l0,24Z" class="g1_33" />
<path fill-rule="evenodd" d="M55,302l825,0l0,-24L55,278l0,24Z" class="g1_33" />
<path fill-rule="evenodd" d="M55,325l825,0l0,-23L55,302l0,23Z" class="g1_33" />
<path fill-rule="evenodd" d="M55,349l825,0l0,-24L55,325l0,24Z" class="g1_33" />
<path fill-rule="evenodd" d="M55,373l825,0l0,-24L55,349l0,24Z" class="g1_33" />
<path fill-rule="evenodd" d="M55,397l825,0l0,-24L55,373l0,24Z" class="g1_33" />
<path d="M46.5,111.5l0,-1" class="g2_33" />
<path d="M46.5,111.5l0,-1" class="g2_33" />
<path d="M47.5,111.5l840,0" class="g2_33" />
<path d="M887.5,111.5l0,-1" class="g2_33" />
<path d="M887.5,111.5l0,-1" class="g2_33" />
<path d="M46.5,397.5l0,-286" class="g2_33" />
<path d="M46.5,399.5l0,-2" class="g2_33" />
<path d="M46.5,399.5l0,-2" class="g2_33" />
<path d="M47.5,399.5l840,0" class="g2_33" />
<path d="M887.5,397.5l0,-286" class="g2_33" />
<path d="M887.5,399.5l0,-2" class="g2_33" />
<path d="M887.5,399.5l0,-2" class="g2_33" />
<path fill-rule="evenodd" d="M47,519l840,0l0,-71L47,448l0,71Z" class="g1_33" />
<g clip-path="url(#c1_33)">
<path fill-rule="evenodd" d="M55,472l825,0l0,-24L55,448l0,24Z" class="g1_33" />
</g>
<path fill-rule="evenodd" d="M55,495l825,0l0,-23L55,472l0,23Z" class="g1_33" />
<path fill-rule="evenodd" d="M55,519l825,0l0,-24L55,495l0,24Z" class="g1_33" />
<path d="M46.5,448.5l0,-2" class="g2_33" />
<path d="M46.5,448.5l0,-2" class="g2_33" />
<path d="M47.5,448.5l840,0" class="g2_33" />
<path d="M887.5,448.5l0,-2" class="g2_33" />
<path d="M887.5,448.5l0,-2" class="g2_33" />
<path d="M46.5,519.5l0,-71" class="g2_33" />
<path d="M46.5,521.5l0,-2" class="g2_33" />
<path d="M46.5,521.5l0,-2" class="g2_33" />
<path d="M47.5,521.5l840,0" class="g2_33" />
<path d="M887.5,519.5l0,-71" class="g2_33" />
<path d="M887.5,521.5l0,-2" class="g2_33" />
<path d="M887.5,521.5l0,-2" class="g2_33" />
<path fill-rule="evenodd" d="M47,1095l840,0l0,-477L47,618l0,477Z" class="g1_33" />
<path fill-rule="evenodd" d="M55,642l825,0l0,-24L55,618l0,24Z" class="g1_33" />
<path fill-rule="evenodd" d="M55,665l825,0l0,-23L55,642l0,23Z" class="g1_33" />
<path fill-rule="evenodd" d="M55,689l825,0l0,-24L55,665l0,24Z" class="g1_33" />
<path fill-rule="evenodd" d="M55,713l825,0l0,-24L55,689l0,24Z" class="g1_33" />
<path fill-rule="evenodd" d="M55,737l825,0l0,-24L55,713l0,24Z" class="g1_33" />
<path fill-rule="evenodd" d="M55,761l825,0l0,-24L55,737l0,24Z" class="g1_33" />
<path fill-rule="evenodd" d="M55,785l825,0l0,-24L55,761l0,24Z" class="g1_33" />
<path fill-rule="evenodd" d="M55,808l825,0l0,-23L55,785l0,23Z" class="g1_33" />
<path fill-rule="evenodd" d="M55,832l825,0l0,-24L55,808l0,24Z" class="g1_33" />
<path fill-rule="evenodd" d="M55,856l825,0l0,-24L55,832l0,24Z" class="g1_33" />
<path fill-rule="evenodd" d="M55,880l825,0l0,-24L55,856l0,24Z" class="g1_33" />
<path fill-rule="evenodd" d="M55,904l825,0l0,-24L55,880l0,24Z" class="g1_33" />
<path fill-rule="evenodd" d="M55,928l825,0l0,-24L55,904l0,24Z" class="g1_33" />
<path fill-rule="evenodd" d="M55,952l825,0l0,-24L55,928l0,24Z" class="g1_33" />
<path fill-rule="evenodd" d="M55,975l825,0l0,-23L55,952l0,23Z" class="g1_33" />
<path fill-rule="evenodd" d="M55,999l825,0l0,-24L55,975l0,24Z" class="g1_33" />
<path fill-rule="evenodd" d="M55,1023l825,0l0,-24L55,999l0,24Z" class="g1_33" />
<path fill-rule="evenodd" d="M55,1047l825,0l0,-24l-825,0l0,24Z" class="g1_33" />
<path fill-rule="evenodd" d="M55,1071l825,0l0,-24l-825,0l0,24Z" class="g1_33" />
<g clip-path="url(#c2_33)">
<path fill-rule="evenodd" d="M55,1095l825,0l0,-24l-825,0l0,24Z" class="g1_33" />
</g>
<path d="M46.5,618.5l0,-2" class="g2_33" />
<path d="M46.5,618.5l0,-2" class="g2_33" />
<path d="M47.5,618.5l840,0" class="g2_33" />
<path d="M887.5,618.5l0,-2" class="g2_33" />
<path d="M887.5,618.5l0,-2" class="g2_33" />
<path d="M46.5,1095.5l0,-477" class="g2_33" />
<path d="M46.5,1096.5l0,-1" class="g2_33" />
<path d="M46.5,1096.5l0,-1" class="g2_33" />
<path d="M47.5,1096.5l840,0" class="g2_33" />
<path d="M887.5,1095.5l0,-477" class="g2_33" />
<path d="M887.5,1096.5l0,-1" class="g2_33" />
<path d="M887.5,1096.5l0,-1" class="g2_33" />
</svg>