<?xml version="1.0" encoding="UTF-8" standalone="no"?>
<!DOCTYPE svg PUBLIC "-//W3C//DTD SVG 1.1//EN"
"http://www.w3.org/Graphics/SVG/1.1/DTD/svg11.dtd">
<svg version="1.1" xmlns="http://www.w3.org/2000/svg" xmlns:xlink="http://www.w3.org/1999/xlink">
<defs>
<clipPath id="c0_73"><path d="M47.5,1042.5l0,-23l840,0l0,23Z" /></clipPath>
<style type="text/css"><![CDATA[
.g3_73{
fill: #F1F1F1;
}
.g4_73{
fill: none;
stroke: #7E7E7E;
stroke-width: 1;
stroke-linecap: butt;
stroke-linejoin: miter;
}
.g2_73{
fill: none;
stroke: #000000;
stroke-width: 1;
stroke-linecap: butt;
stroke-linejoin: miter;
}
.g1_73{
fill: none;
stroke: #0000FF;
stroke-width: 1;
stroke-linecap: butt;
stroke-linejoin: miter;
}
]]></style>
</defs>
<path d="M371.5,192.5l163,0" class="g1_73" />
<path d="M46.5,643.5l0,-1" class="g2_73" />
<path d="M46.5,643.5l0,-1" class="g2_73" />
<path d="M47.5,643.5l68,0" class="g2_73" />
<path d="M115.5,643.5l0,-1" class="g2_73" />
<path d="M115.5,643.5l76,0" class="g2_73" />
<path d="M191.5,643.5l0,-1" class="g2_73" />
<path d="M192.5,643.5l123,0" class="g2_73" />
<path d="M315.5,643.5l0,-1" class="g2_73" />
<path d="M316.5,643.5l247,0" class="g2_73" />
<path d="M563.5,643.5l0,-1" class="g2_73" />
<path d="M564.5,643.5l269,0" class="g2_73" />
<path d="M833.5,643.5l0,-1" class="g2_73" />
<path d="M833.5,643.5l0,-1" class="g2_73" />
<path d="M46.5,691.5l0,-48" class="g2_73" />
<path d="M115.5,691.5l0,-48" class="g2_73" />
<path d="M191.5,691.5l0,-48" class="g2_73" />
<path d="M315.5,691.5l0,-48" class="g2_73" />
<path d="M563.5,691.5l0,-48" class="g2_73" />
<path d="M833.5,691.5l0,-48" class="g2_73" />
<path d="M46.5,692.5l0,-1" class="g2_73" />
<path d="M47.5,692.5l68,0" class="g2_73" />
<path d="M115.5,692.5l0,-1" class="g2_73" />
<path d="M115.5,692.5l76,0" class="g2_73" />
<path d="M191.5,692.5l0,-1" class="g2_73" />
<path d="M192.5,692.5l123,0" class="g2_73" />
<path d="M315.5,692.5l0,-1" class="g2_73" />
<path d="M316.5,692.5l96,0" class="g2_73" />
<path d="M412.5,692.5l0,-1" class="g2_73" />
<path d="M412.5,692.5l82,0" class="g2_73" />
<path d="M494.5,692.5l0,-1" class="g2_73" />
<path d="M495.5,692.5l68,0" class="g2_73" />
<path d="M563.5,692.5l0,-1" class="g2_73" />
<path d="M564.5,692.5l98,0" class="g2_73" />
<path d="M662.5,692.5l0,-1" class="g2_73" />
<path d="M663.5,692.5l84,0" class="g2_73" />
<path d="M747.5,692.5l0,-1" class="g2_73" />
<path d="M748.5,692.5l85,0" class="g2_73" />
<path d="M833.5,692.5l0,-1" class="g2_73" />
<path d="M46.5,716.5l0,-24" class="g2_73" />
<path d="M115.5,716.5l0,-24" class="g2_73" />
<path d="M191.5,716.5l0,-24" class="g2_73" />
<path d="M315.5,716.5l0,-24" class="g2_73" />
<path d="M412.5,716.5l0,-24" class="g2_73" />
<path d="M494.5,716.5l0,-24" class="g2_73" />
<path d="M563.5,716.5l0,-24" class="g2_73" />
<path d="M662.5,716.5l0,-24" class="g2_73" />
<path d="M747.5,716.5l0,-24" class="g2_73" />
<path d="M833.5,716.5l0,-24" class="g2_73" />
<path d="M47.5,716.5l68,0" class="g2_73" />
<path d="M115.5,716.5l76,0" class="g2_73" />
<path d="M192.5,716.5l123,0" class="g2_73" />
<path d="M316.5,716.5l96,0" class="g2_73" />
<path d="M412.5,716.5l82,0" class="g2_73" />
<path d="M495.5,716.5l68,0" class="g2_73" />
<path d="M564.5,716.5l98,0" class="g2_73" />
<path d="M663.5,716.5l84,0" class="g2_73" />
<path d="M748.5,716.5l85,0" class="g2_73" />
<path d="M46.5,740.5l0,-24" class="g2_73" />
<path d="M115.5,740.5l0,-24" class="g2_73" />
<path d="M191.5,740.5l0,-24" class="g2_73" />
<path d="M315.5,740.5l0,-24" class="g2_73" />
<path d="M412.5,740.5l0,-24" class="g2_73" />
<path d="M494.5,740.5l0,-24" class="g2_73" />
<path d="M563.5,740.5l0,-24" class="g2_73" />
<path d="M662.5,740.5l0,-24" class="g2_73" />
<path d="M747.5,740.5l0,-24" class="g2_73" />
<path d="M833.5,740.5l0,-24" class="g2_73" />
<path d="M46.5,741.5l0,-1" class="g2_73" />
<path d="M47.5,741.5l68,0" class="g2_73" />
<path d="M115.5,741.5l0,-1" class="g2_73" />
<path d="M115.5,741.5l76,0" class="g2_73" />
<path d="M191.5,741.5l0,-1" class="g2_73" />
<path d="M192.5,741.5l123,0" class="g2_73" />
<path d="M315.5,741.5l0,-1" class="g2_73" />
<path d="M316.5,741.5l96,0" class="g2_73" />
<path d="M412.5,741.5l0,-1" class="g2_73" />
<path d="M412.5,741.5l82,0" class="g2_73" />
<path d="M494.5,741.5l0,-1" class="g2_73" />
<path d="M495.5,741.5l68,0" class="g2_73" />
<path d="M563.5,741.5l0,-1" class="g2_73" />
<path d="M564.5,741.5l98,0" class="g2_73" />
<path d="M662.5,741.5l0,-1" class="g2_73" />
<path d="M663.5,741.5l84,0" class="g2_73" />
<path d="M747.5,741.5l0,-1" class="g2_73" />
<path d="M748.5,741.5l85,0" class="g2_73" />
<path d="M833.5,741.5l0,-1" class="g2_73" />
<path d="M46.5,765.5l0,-24" class="g2_73" />
<path d="M47.5,765.5l68,0" class="g2_73" />
<path d="M115.5,765.5l0,-24" class="g2_73" />
<path d="M115.5,765.5l76,0" class="g2_73" />
<path d="M191.5,765.5l0,-24" class="g2_73" />
<path d="M192.5,765.5l123,0" class="g2_73" />
<path d="M315.5,765.5l0,-24" class="g2_73" />
<path d="M316.5,765.5l96,0" class="g2_73" />
<path d="M412.5,765.5l0,-24" class="g2_73" />
<path d="M412.5,765.5l82,0" class="g2_73" />
<path d="M494.5,765.5l0,-24" class="g2_73" />
<path d="M495.5,765.5l68,0" class="g2_73" />
<path d="M563.5,765.5l0,-24" class="g2_73" />
<path d="M564.5,765.5l98,0" class="g2_73" />
<path d="M662.5,765.5l0,-24" class="g2_73" />
<path d="M663.5,765.5l84,0" class="g2_73" />
<path d="M747.5,765.5l0,-24" class="g2_73" />
<path d="M748.5,765.5l85,0" class="g2_73" />
<path d="M833.5,765.5l0,-24" class="g2_73" />
<path fill-rule="evenodd" d="M47,1042l840,0l0,-23l-840,0l0,23Z" class="g3_73" />
<g clip-path="url(#c0_73)">
<path fill-rule="evenodd" d="M55,1042l825,0l0,-23l-825,0l0,23Z" class="g3_73" />
</g>
<path d="M46.5,1019.5l0,-2" class="g4_73" />
<path d="M46.5,1019.5l0,-2" class="g4_73" />
<path d="M47.5,1019.5l840,0" class="g4_73" />
<path d="M887.5,1019.5l0,-2" class="g4_73" />
<path d="M887.5,1019.5l0,-2" class="g4_73" />
<path d="M46.5,1042.5l0,-23" class="g4_73" />
<path d="M46.5,1044.5l0,-2" class="g4_73" />
<path d="M46.5,1044.5l0,-2" class="g4_73" />
<path d="M47.5,1044.5l840,0" class="g4_73" />
<path d="M887.5,1042.5l0,-23" class="g4_73" />
<path d="M887.5,1044.5l0,-2" class="g4_73" />
<path d="M887.5,1044.5l0,-2" class="g4_73" />
</svg>