<?xml version="1.0" encoding="UTF-8" standalone="no"?>
<!DOCTYPE svg PUBLIC "-//W3C//DTD SVG 1.1//EN"
"http://www.w3.org/Graphics/SVG/1.1/DTD/svg11.dtd">
<svg version="1.1" xmlns="http://www.w3.org/2000/svg" xmlns:xlink="http://www.w3.org/1999/xlink">
<defs>
<clipPath id="c0_319"><path d="M47.5,194.5l0,-23l102,0l0,23Z" /></clipPath>
<clipPath id="c1_319"><path d="M151.5,194.5l0,-23l736,0l0,23Z" /></clipPath>
<clipPath id="c2_319"><path d="M47.5,220.5l0,-24l102,0l0,24Z" /></clipPath>
<clipPath id="c3_319"><path d="M151.5,220.5l0,-24l736,0l0,24Z" /></clipPath>
<clipPath id="c4_319"><path d="M47.5,245.5l0,-24l102,0l0,24Z" /></clipPath>
<clipPath id="c5_319"><path d="M151.5,245.5l0,-24l736,0l0,24Z" /></clipPath>
<clipPath id="c6_319"><path d="M47.5,271.5l0,-24l102,0l0,24Z" /></clipPath>
<clipPath id="c7_319"><path d="M151.5,271.5l0,-24l736,0l0,24Z" /></clipPath>
<clipPath id="c8_319"><path d="M47.5,296.5l0,-24l102,0l0,24Z" /></clipPath>
<clipPath id="c9_319"><path d="M151.5,296.5l0,-24l736,0l0,24Z" /></clipPath>
<clipPath id="c10_319"><path d="M47.5,404.5l0,-24l102,0l0,24Z" /></clipPath>
<clipPath id="c11_319"><path d="M151.5,404.5l0,-24l736,0l0,24Z" /></clipPath>
<clipPath id="c12_319"><path d="M47.5,787.5l0,-182l840,0l0,182Z" /></clipPath>
<clipPath id="c13_319"><path d="M47.5,956.5l0,-95l840,0l0,95Z" /></clipPath>
<style type="text/css"><![CDATA[
.g2_319{
fill: none;
stroke: #7E7E7E;
stroke-width: 1;
stroke-linecap: butt;
stroke-linejoin: miter;
}
.g4_319{
fill: none;
stroke: #F0F0E0;
stroke-width: 1;
stroke-linecap: butt;
stroke-linejoin: miter;
}
.g3_319{
fill: #F1F1F1;
}
.g1_319{
fill: #DBE5F1;
}
]]></style>
</defs>
<path fill-rule="evenodd" d="M47,194l102,0l0,-23L47,171l0,23Z" class="g1_319" />
<g clip-path="url(#c0_319)">
<path fill-rule="evenodd" d="M55,194l87,0l0,-23l-87,0l0,23Z" class="g1_319" />
</g>
<path fill-rule="evenodd" d="M151,194l736,0l0,-23l-736,0l0,23Z" class="g1_319" />
<g clip-path="url(#c1_319)">
<path fill-rule="evenodd" d="M158,194l722,0l0,-23l-722,0l0,23Z" class="g1_319" />
</g>
<path d="M46.5,171.5l0,-2" class="g2_319" />
<path d="M46.5,171.5l0,-2" class="g2_319" />
<path d="M47.5,171.5l102,0" class="g2_319" />
<path d="M149.5,171.5l0,-2" class="g2_319" />
<path d="M151.5,171.5l736,0" class="g2_319" />
<path d="M887.5,171.5l0,-2" class="g2_319" />
<path d="M887.5,171.5l0,-2" class="g2_319" />
<path d="M46.5,194.5l0,-23" class="g2_319" />
<path d="M149.5,194.5l0,-23" class="g2_319" />
<path d="M887.5,194.5l0,-23" class="g2_319" />
<path fill-rule="evenodd" d="M47,220l102,0l0,-24L47,196l0,24Z" class="g3_319" />
<g clip-path="url(#c2_319)">
<path fill-rule="evenodd" d="M55,220l87,0l0,-24l-87,0l0,24Z" class="g3_319" />
</g>
<path fill-rule="evenodd" d="M151,220l736,0l0,-24l-736,0l0,24Z" class="g3_319" />
<g clip-path="url(#c3_319)">
<path fill-rule="evenodd" d="M158,220l722,0l0,-24l-722,0l0,24Z" class="g3_319" />
</g>
<path d="M46.5,196.5l0,-2" class="g2_319" />
<path d="M47.5,196.5l102,0" class="g2_319" />
<path d="M149.5,196.5l0,-2" class="g2_319" />
<path d="M151.5,196.5l736,0" class="g2_319" />
<path d="M887.5,196.5l0,-2" class="g2_319" />
<path d="M46.5,220.5l0,-24" class="g2_319" />
<path d="M149.5,220.5l0,-24" class="g2_319" />
<path d="M887.5,220.5l0,-24" class="g2_319" />
<path fill-rule="evenodd" d="M47,245l102,0l0,-24L47,221l0,24Z" class="g3_319" />
<g clip-path="url(#c4_319)">
<path fill-rule="evenodd" d="M55,245l87,0l0,-24l-87,0l0,24Z" class="g3_319" />
</g>
<path fill-rule="evenodd" d="M151,245l736,0l0,-24l-736,0l0,24Z" class="g3_319" />
<g clip-path="url(#c5_319)">
<path fill-rule="evenodd" d="M158,245l722,0l0,-24l-722,0l0,24Z" class="g3_319" />
</g>
<path d="M46.5,221.5l0,-1" class="g2_319" />
<path d="M47.5,221.5l102,0" class="g2_319" />
<path d="M149.5,221.5l0,-1" class="g2_319" />
<path d="M151.5,221.5l736,0" class="g2_319" />
<path d="M887.5,221.5l0,-1" class="g2_319" />
<path d="M46.5,245.5l0,-24" class="g2_319" />
<path d="M149.5,245.5l0,-24" class="g2_319" />
<path d="M887.5,245.5l0,-24" class="g2_319" />
<path fill-rule="evenodd" d="M47,270l102,0l0,-23L47,247l0,23Z" class="g3_319" />
<g clip-path="url(#c6_319)">
<path fill-rule="evenodd" d="M55,270l87,0l0,-23l-87,0l0,23Z" class="g3_319" />
</g>
<path fill-rule="evenodd" d="M151,270l736,0l0,-23l-736,0l0,23Z" class="g3_319" />
<g clip-path="url(#c7_319)">
<path fill-rule="evenodd" d="M158,270l722,0l0,-23l-722,0l0,23Z" class="g3_319" />
</g>
<path d="M46.5,247.5l0,-2" class="g2_319" />
<path d="M47.5,247.5l102,0" class="g2_319" />
<path d="M149.5,247.5l0,-2" class="g2_319" />
<path d="M151.5,247.5l736,0" class="g2_319" />
<path d="M887.5,247.5l0,-2" class="g2_319" />
<path d="M46.5,270.5l0,-23" class="g2_319" />
<path d="M149.5,270.5l0,-23" class="g2_319" />
<path d="M887.5,270.5l0,-23" class="g2_319" />
<path fill-rule="evenodd" d="M47,296l102,0l0,-24L47,272l0,24Z" class="g3_319" />
<g clip-path="url(#c8_319)">
<path fill-rule="evenodd" d="M55,296l87,0l0,-24l-87,0l0,24Z" class="g3_319" />
</g>
<path fill-rule="evenodd" d="M151,296l736,0l0,-24l-736,0l0,24Z" class="g3_319" />
<g clip-path="url(#c9_319)">
<path fill-rule="evenodd" d="M158,296l722,0l0,-24l-722,0l0,24Z" class="g3_319" />
</g>
<path d="M46.5,272.5l0,-2" class="g2_319" />
<path d="M47.5,272.5l102,0" class="g2_319" />
<path d="M149.5,272.5l0,-2" class="g2_319" />
<path d="M151.5,272.5l736,0" class="g2_319" />
<path d="M887.5,272.5l0,-2" class="g2_319" />
<path d="M46.5,296.5l0,-24" class="g2_319" />
<path d="M46.5,297.5l0,-1" class="g2_319" />
<path d="M46.5,297.5l0,-1" class="g2_319" />
<path d="M47.5,297.5l102,0" class="g2_319" />
<path d="M149.5,296.5l0,-24" class="g2_319" />
<path d="M149.5,297.5l0,-1" class="g2_319" />
<path d="M151.5,297.5l736,0" class="g2_319" />
<path d="M887.5,296.5l0,-24" class="g2_319" />
<path d="M887.5,297.5l0,-1" class="g2_319" />
<path d="M887.5,297.5l0,-1" class="g2_319" />
<path fill-rule="evenodd" d="M47,404l102,0l0,-24L47,380l0,24Z" class="g1_319" />
<g clip-path="url(#c10_319)">
<path fill-rule="evenodd" d="M55,404l87,0l0,-24l-87,0l0,24Z" class="g1_319" />
</g>
<path fill-rule="evenodd" d="M151,404l736,0l0,-24l-736,0l0,24Z" class="g1_319" />
<g clip-path="url(#c11_319)">
<path fill-rule="evenodd" d="M158,404l722,0l0,-24l-722,0l0,24Z" class="g1_319" />
</g>
<path d="M46.5,380.5l0,-2" class="g2_319" />
<path d="M46.5,380.5l0,-2" class="g2_319" />
<path d="M47.5,380.5l102,0" class="g2_319" />
<path d="M149.5,380.5l0,-2" class="g2_319" />
<path d="M151.5,380.5l736,0" class="g2_319" />
<path d="M887.5,380.5l0,-2" class="g2_319" />
<path d="M887.5,380.5l0,-2" class="g2_319" />
<path d="M46.5,404.5l0,-24" class="g2_319" />
<path d="M149.5,404.5l0,-24" class="g2_319" />
<path d="M887.5,404.5l0,-24" class="g2_319" />
<path fill-rule="evenodd" d="M47,429l102,0l0,-24L47,405l0,24Z" class="g3_319" />
<path fill-rule="evenodd" d="M55,429l87,0l0,-24l-87,0l0,24Z" class="g3_319" />
<path fill-rule="evenodd" d="M151,429l736,0l0,-24l-736,0l0,24Z" class="g3_319" />
<path fill-rule="evenodd" d="M158,429l722,0l0,-24l-722,0l0,24Z" class="g3_319" />
<path d="M46.5,405.5l0,-1" class="g2_319" />
<path d="M47.5,405.5l102,0" class="g2_319" />
<path d="M149.5,405.5l0,-1" class="g2_319" />
<path d="M151.5,405.5l736,0" class="g2_319" />
<path d="M887.5,405.5l0,-1" class="g2_319" />
<path d="M46.5,429.5l0,-24" class="g2_319" />
<path d="M149.5,429.5l0,-24" class="g2_319" />
<path d="M887.5,429.5l0,-24" class="g2_319" />
<path fill-rule="evenodd" d="M47,455l102,0l0,-24L47,431l0,24Z" class="g3_319" />
<path fill-rule="evenodd" d="M55,455l87,0l0,-24l-87,0l0,24Z" class="g3_319" />
<path fill-rule="evenodd" d="M151,455l736,0l0,-24l-736,0l0,24Z" class="g3_319" />
<path fill-rule="evenodd" d="M158,455l722,0l0,-24l-722,0l0,24Z" class="g3_319" />
<path d="M46.5,431.5l0,-2" class="g2_319" />
<path d="M47.5,431.5l102,0" class="g2_319" />
<path d="M149.5,431.5l0,-2" class="g2_319" />
<path d="M151.5,431.5l736,0" class="g2_319" />
<path d="M887.5,431.5l0,-2" class="g2_319" />
<path d="M46.5,455.5l0,-24" class="g2_319" />
<path d="M149.5,455.5l0,-24" class="g2_319" />
<path d="M887.5,455.5l0,-24" class="g2_319" />
<path fill-rule="evenodd" d="M47,480l102,0l0,-24L47,456l0,24Z" class="g3_319" />
<path fill-rule="evenodd" d="M55,480l87,0l0,-24l-87,0l0,24Z" class="g3_319" />
<path fill-rule="evenodd" d="M151,480l736,0l0,-24l-736,0l0,24Z" class="g3_319" />
<path fill-rule="evenodd" d="M158,480l722,0l0,-24l-722,0l0,24Z" class="g3_319" />
<path d="M46.5,456.5l0,-1" class="g2_319" />
<path d="M47.5,456.5l102,0" class="g2_319" />
<path d="M149.5,456.5l0,-1" class="g2_319" />
<path d="M151.5,456.5l736,0" class="g2_319" />
<path d="M887.5,456.5l0,-1" class="g2_319" />
<path d="M46.5,480.5l0,-24" class="g2_319" />
<path d="M149.5,480.5l0,-24" class="g2_319" />
<path d="M887.5,480.5l0,-24" class="g2_319" />
<path fill-rule="evenodd" d="M47,505l102,0l0,-24L47,481l0,24Z" class="g3_319" />
<path fill-rule="evenodd" d="M55,505l87,0l0,-24l-87,0l0,24Z" class="g3_319" />
<path fill-rule="evenodd" d="M151,505l736,0l0,-24l-736,0l0,24Z" class="g3_319" />
<path fill-rule="evenodd" d="M158,505l722,0l0,-24l-722,0l0,24Z" class="g3_319" />
<path d="M46.5,481.5l0,-1" class="g2_319" />
<path d="M47.5,481.5l102,0" class="g2_319" />
<path d="M149.5,481.5l0,-1" class="g2_319" />
<path d="M151.5,481.5l736,0" class="g2_319" />
<path d="M887.5,481.5l0,-1" class="g2_319" />
<path d="M46.5,505.5l0,-24" class="g2_319" />
<path d="M149.5,505.5l0,-24" class="g2_319" />
<path d="M887.5,505.5l0,-24" class="g2_319" />
<path fill-rule="evenodd" d="M47,531l102,0l0,-24L47,507l0,24Z" class="g3_319" />
<path fill-rule="evenodd" d="M55,531l87,0l0,-24l-87,0l0,24Z" class="g3_319" />
<path fill-rule="evenodd" d="M151,531l736,0l0,-24l-736,0l0,24Z" class="g3_319" />
<path fill-rule="evenodd" d="M158,531l722,0l0,-24l-722,0l0,24Z" class="g3_319" />
<path d="M46.5,507.5l0,-2" class="g2_319" />
<path d="M47.5,507.5l102,0" class="g2_319" />
<path d="M149.5,507.5l0,-2" class="g2_319" />
<path d="M151.5,507.5l736,0" class="g2_319" />
<path d="M887.5,507.5l0,-2" class="g2_319" />
<path d="M46.5,531.5l0,-24" class="g2_319" />
<path d="M46.5,532.5l0,-1" class="g2_319" />
<path d="M46.5,532.5l0,-1" class="g2_319" />
<path d="M47.5,532.5l102,0" class="g2_319" />
<path d="M149.5,531.5l0,-24" class="g2_319" />
<path d="M149.5,532.5l0,-1" class="g2_319" />
<path d="M151.5,532.5l736,0" class="g2_319" />
<path d="M887.5,531.5l0,-24" class="g2_319" />
<path d="M887.5,532.5l0,-1" class="g2_319" />
<path d="M887.5,532.5l0,-1" class="g2_319" />
<path fill-rule="evenodd" d="M47,787l840,0l0,-182L47,605l0,182Z" class="g3_319" />
<path fill-rule="evenodd" d="M55,636l825,0l0,-31L55,605l0,31Z" class="g3_319" />
<g clip-path="url(#c12_319)">
<path d="M45.5,606.5l0,-1" class="g4_319" />
<path d="M45.5,606.5l0,-1" class="g4_319" />
<path d="M46.5,606.5l842,0" class="g4_319" />
<path d="M888.5,606.5l0,-1" class="g4_319" />
<path d="M888.5,606.5l0,-1" class="g4_319" />
<path d="M45.5,636.5l0,-30" class="g4_319" />
<path d="M888.5,636.5l0,-30" class="g4_319" />
</g>
<path fill-rule="evenodd" d="M55,660l825,0l0,-24L55,636l0,24Z" class="g3_319" />
<g clip-path="url(#c12_319)">
<path d="M45.5,660.5l0,-24" class="g4_319" />
<path d="M888.5,660.5l0,-24" class="g4_319" />
</g>
<path fill-rule="evenodd" d="M55,684l825,0l0,-24L55,660l0,24Z" class="g3_319" />
<g clip-path="url(#c12_319)">
<path d="M45.5,684.5l0,-24" class="g4_319" />
<path d="M888.5,684.5l0,-24" class="g4_319" />
</g>
<path fill-rule="evenodd" d="M55,708l825,0l0,-24L55,684l0,24Z" class="g3_319" />
<g clip-path="url(#c12_319)">
<path d="M45.5,708.5l0,-24" class="g4_319" />
<path d="M888.5,708.5l0,-24" class="g4_319" />
</g>
<path fill-rule="evenodd" d="M55,732l825,0l0,-24L55,708l0,24Z" class="g3_319" />
<g clip-path="url(#c12_319)">
<path d="M45.5,732.5l0,-24" class="g4_319" />
<path d="M888.5,732.5l0,-24" class="g4_319" />
</g>
<path fill-rule="evenodd" d="M55,755l825,0l0,-23L55,732l0,23Z" class="g3_319" />
<g clip-path="url(#c12_319)">
<path d="M45.5,755.5l0,-23" class="g4_319" />
<path d="M888.5,755.5l0,-23" class="g4_319" />
</g>
<path fill-rule="evenodd" d="M55,787l825,0l0,-32L55,755l0,32Z" class="g3_319" />
<g clip-path="url(#c12_319)">
<path d="M45.5,787.5l0,-1" class="g4_319" />
<path d="M45.5,787.5l0,-1" class="g4_319" />
<path d="M46.5,787.5l842,0" class="g4_319" />
<path d="M888.5,787.5l0,-1" class="g4_319" />
<path d="M888.5,787.5l0,-1" class="g4_319" />
<path d="M45.5,786.5l0,-31" class="g4_319" />
<path d="M888.5,786.5l0,-31" class="g4_319" />
</g>
<path d="M46.5,605.5l0,-1" class="g2_319" />
<path d="M46.5,605.5l0,-1" class="g2_319" />
<path d="M47.5,605.5l840,0" class="g2_319" />
<path d="M887.5,605.5l0,-1" class="g2_319" />
<path d="M887.5,605.5l0,-1" class="g2_319" />
<path d="M46.5,787.5l0,-182" class="g2_319" />
<path d="M46.5,788.5l0,-1" class="g2_319" />
<path d="M46.5,788.5l0,-1" class="g2_319" />
<path d="M47.5,788.5l840,0" class="g2_319" />
<path d="M887.5,787.5l0,-182" class="g2_319" />
<path d="M887.5,788.5l0,-1" class="g2_319" />
<path d="M887.5,788.5l0,-1" class="g2_319" />
<path fill-rule="evenodd" d="M47,956l840,0l0,-95L47,861l0,95Z" class="g3_319" />
<g clip-path="url(#c13_319)">
<path fill-rule="evenodd" d="M55,885l825,0l0,-24L55,861l0,24Z" class="g3_319" />
</g>
<path fill-rule="evenodd" d="M55,909l825,0l0,-24L55,885l0,24Z" class="g3_319" />
<path fill-rule="evenodd" d="M55,933l825,0l0,-24L55,909l0,24Z" class="g3_319" />
<g clip-path="url(#c13_319)">
<path fill-rule="evenodd" d="M55,956l825,0l0,-23L55,933l0,23Z" class="g3_319" />
</g>
<path d="M46.5,861.5l0,-1" class="g2_319" />
<path d="M46.5,861.5l0,-1" class="g2_319" />
<path d="M47.5,861.5l840,0" class="g2_319" />
<path d="M887.5,861.5l0,-1" class="g2_319" />
<path d="M887.5,861.5l0,-1" class="g2_319" />
<path d="M46.5,957.5l0,-96" class="g2_319" />
<path d="M46.5,958.5l0,-1" class="g2_319" />
<path d="M46.5,958.5l0,-1" class="g2_319" />
<path d="M47.5,958.5l840,0" class="g2_319" />
<path d="M887.5,957.5l0,-96" class="g2_319" />
<path d="M887.5,958.5l0,-1" class="g2_319" />
<path d="M887.5,958.5l0,-1" class="g2_319" />
</svg>