<?xml version="1.0" encoding="UTF-8" standalone="no"?>
<!DOCTYPE svg PUBLIC "-//W3C//DTD SVG 1.1//EN"
"http://www.w3.org/Graphics/SVG/1.1/DTD/svg11.dtd">
<svg version="1.1" xmlns="http://www.w3.org/2000/svg" xmlns:xlink="http://www.w3.org/1999/xlink">
<defs>
<clipPath id="c0_420"><path d="M47.5,142.5l0,-31l840,0l0,31Z" /></clipPath>
<clipPath id="c1_420"><path d="M47.5,312.5l0,-95l840,0l0,95Z" /></clipPath>
<clipPath id="c2_420"><path d="M47.5,667.5l0,-24l178,0l0,24Z" /></clipPath>
<clipPath id="c3_420"><path d="M227.5,667.5l0,-24l162,0l0,24Z" /></clipPath>
<clipPath id="c4_420"><path d="M391.5,667.5l0,-24l496,0l0,24Z" /></clipPath>
<clipPath id="c5_420"><path d="M47.5,742.5l0,-24l177,0l0,24Z" /></clipPath>
<clipPath id="c6_420"><path d="M226.5,742.5l0,-24l162,0l0,24Z" /></clipPath>
<clipPath id="c7_420"><path d="M390.5,742.5l0,-24l163,0l0,24Z" /></clipPath>
<clipPath id="c8_420"><path d="M554.5,742.5l0,-24l163,0l0,24Z" /></clipPath>
<clipPath id="c9_420"><path d="M719.5,742.5l0,-24l168,0l0,24Z" /></clipPath>
<clipPath id="c10_420"><path d="M47.5,767.5l0,-24l177,0l0,24Z" /></clipPath>
<clipPath id="c11_420"><path d="M226.5,767.5l0,-24l162,0l0,24Z" /></clipPath>
<clipPath id="c12_420"><path d="M390.5,767.5l0,-24l163,0l0,24Z" /></clipPath>
<clipPath id="c13_420"><path d="M554.5,767.5l0,-24l163,0l0,24Z" /></clipPath>
<clipPath id="c14_420"><path d="M719.5,767.5l0,-24l168,0l0,24Z" /></clipPath>
<clipPath id="c15_420"><path d="M47.5,879.5l0,-24l269,0l0,24Z" /></clipPath>
<clipPath id="c16_420"><path d="M318.5,879.5l0,-24l78,0l0,24Z" /></clipPath>
<clipPath id="c17_420"><path d="M398.5,879.5l0,-24l75,0l0,24Z" /></clipPath>
<clipPath id="c18_420"><path d="M475.5,879.5l0,-24l412,0l0,24Z" /></clipPath>
<clipPath id="c19_420"><path d="M47.5,1052.5l0,-171l39,0l0,171Z" /></clipPath>
<clipPath id="c20_420"><path d="M88.5,905.5l0,-24l228,0l0,24Z" /></clipPath>
<clipPath id="c21_420"><path d="M318.5,905.5l0,-24l78,0l0,24Z" /></clipPath>
<clipPath id="c22_420"><path d="M398.5,905.5l0,-24l75,0l0,24Z" /></clipPath>
<clipPath id="c23_420"><path d="M475.5,905.5l0,-24l412,0l0,24Z" /></clipPath>
<clipPath id="c24_420"><path d="M88.5,1052.5l0,-145l39,0l0,145Z" /></clipPath>
<clipPath id="c25_420"><path d="M128.5,1052.5l0,-145l36,0l0,145Z" /></clipPath>
<clipPath id="c26_420"><path d="M165.5,1052.5l0,-145l26,0l0,145Z" /></clipPath>
<style type="text/css"><![CDATA[
.g2_420{
fill: none;
stroke: #F0F0E0;
stroke-width: 1;
stroke-linecap: butt;
stroke-linejoin: miter;
}
.g3_420{
fill: none;
stroke: #7E7E7E;
stroke-width: 1;
stroke-linecap: butt;
stroke-linejoin: miter;
}
.g4_420{
fill: #DBE5F1;
}
.g1_420{
fill: #F1F1F1;
}
]]></style>
</defs>
<path fill-rule="evenodd" d="M47,142l840,0l0,-31L47,111l0,31Z" class="g1_420" />
<g clip-path="url(#c0_420)">
<path fill-rule="evenodd" d="M55,142l825,0l0,-31L55,111l0,31Z" class="g1_420" />
<path d="M45.5,142.5l0,-1" class="g2_420" />
<path d="M45.5,142.5l0,-1" class="g2_420" />
<path d="M46.5,142.5l842,0" class="g2_420" />
<path d="M888.5,142.5l0,-1" class="g2_420" />
<path d="M888.5,142.5l0,-1" class="g2_420" />
<path d="M45.5,141.5l0,-30" class="g2_420" />
<path d="M888.5,141.5l0,-30" class="g2_420" />
</g>
<path d="M46.5,111.5l0,-1" class="g3_420" />
<path d="M46.5,111.5l0,-1" class="g3_420" />
<path d="M47.5,111.5l840,0" class="g3_420" />
<path d="M887.5,111.5l0,-1" class="g3_420" />
<path d="M887.5,111.5l0,-1" class="g3_420" />
<path d="M46.5,142.5l0,-31" class="g3_420" />
<path d="M46.5,144.5l0,-2" class="g3_420" />
<path d="M46.5,144.5l0,-2" class="g3_420" />
<path d="M47.5,144.5l840,0" class="g3_420" />
<path d="M887.5,142.5l0,-31" class="g3_420" />
<path d="M887.5,144.5l0,-2" class="g3_420" />
<path d="M887.5,144.5l0,-2" class="g3_420" />
<path fill-rule="evenodd" d="M47,312l840,0l0,-95L47,217l0,95Z" class="g1_420" />
<g clip-path="url(#c1_420)">
<path fill-rule="evenodd" d="M55,241l825,0l0,-24L55,217l0,24Z" class="g1_420" />
</g>
<path fill-rule="evenodd" d="M55,264l825,0l0,-23L55,241l0,23Z" class="g1_420" />
<path fill-rule="evenodd" d="M55,288l825,0l0,-24L55,264l0,24Z" class="g1_420" />
<path fill-rule="evenodd" d="M55,312l825,0l0,-24L55,288l0,24Z" class="g1_420" />
<path d="M46.5,217.5l0,-2" class="g3_420" />
<path d="M46.5,217.5l0,-2" class="g3_420" />
<path d="M47.5,217.5l840,0" class="g3_420" />
<path d="M887.5,217.5l0,-2" class="g3_420" />
<path d="M887.5,217.5l0,-2" class="g3_420" />
<path d="M46.5,312.5l0,-95" class="g3_420" />
<path d="M46.5,314.5l0,-2" class="g3_420" />
<path d="M46.5,314.5l0,-2" class="g3_420" />
<path d="M47.5,314.5l840,0" class="g3_420" />
<path d="M887.5,312.5l0,-95" class="g3_420" />
<path d="M887.5,314.5l0,-2" class="g3_420" />
<path d="M887.5,314.5l0,-2" class="g3_420" />
<path fill-rule="evenodd" d="M47,559l840,0l0,-24L47,535l0,24Z" class="g1_420" />
<path fill-rule="evenodd" d="M55,559l825,0l0,-24L55,535l0,24Z" class="g1_420" />
<path d="M46.5,535.5l0,-2" class="g3_420" />
<path d="M46.5,535.5l0,-2" class="g3_420" />
<path d="M47.5,535.5l840,0" class="g3_420" />
<path d="M887.5,535.5l0,-2" class="g3_420" />
<path d="M887.5,535.5l0,-2" class="g3_420" />
<path d="M46.5,559.5l0,-24" class="g3_420" />
<path d="M46.5,560.5l0,-1" class="g3_420" />
<path d="M46.5,560.5l0,-1" class="g3_420" />
<path d="M47.5,560.5l840,0" class="g3_420" />
<path d="M887.5,559.5l0,-24" class="g3_420" />
<path d="M887.5,560.5l0,-1" class="g3_420" />
<path d="M887.5,560.5l0,-1" class="g3_420" />
<path fill-rule="evenodd" d="M47,642l178,0l0,-24L47,618l0,24Z" class="g4_420" />
<path fill-rule="evenodd" d="M55,642l163,0l0,-24L55,618l0,24Z" class="g4_420" />
<path fill-rule="evenodd" d="M226,642l163,0l0,-24l-163,0l0,24Z" class="g4_420" />
<path fill-rule="evenodd" d="M234,642l148,0l0,-24l-148,0l0,24Z" class="g4_420" />
<path fill-rule="evenodd" d="M391,642l496,0l0,-24l-496,0l0,24Z" class="g4_420" />
<path fill-rule="evenodd" d="M398,642l482,0l0,-24l-482,0l0,24Z" class="g4_420" />
<path d="M46.5,618.5l0,-1" class="g3_420" />
<path d="M46.5,618.5l0,-1" class="g3_420" />
<path d="M47.5,618.5l178,0" class="g3_420" />
<path d="M225.5,618.5l0,-1" class="g3_420" />
<path d="M226.5,618.5l163,0" class="g3_420" />
<path d="M389.5,618.5l0,-1" class="g3_420" />
<path d="M391.5,618.5l496,0" class="g3_420" />
<path d="M887.5,618.5l0,-1" class="g3_420" />
<path d="M887.5,618.5l0,-1" class="g3_420" />
<path d="M46.5,642.5l0,-24" class="g3_420" />
<path d="M225.5,642.5l0,-24" class="g3_420" />
<path d="M389.5,642.5l0,-24" class="g3_420" />
<path d="M887.5,642.5l0,-24" class="g3_420" />
<path fill-rule="evenodd" d="M47,667l178,0l0,-24L47,643l0,24Z" class="g1_420" />
<g clip-path="url(#c2_420)">
<path fill-rule="evenodd" d="M55,667l163,0l0,-24L55,643l0,24Z" class="g1_420" />
</g>
<path fill-rule="evenodd" d="M226,667l163,0l0,-24l-163,0l0,24Z" class="g1_420" />
<g clip-path="url(#c3_420)">
<path fill-rule="evenodd" d="M234,667l148,0l0,-24l-148,0l0,24Z" class="g1_420" />
</g>
<path fill-rule="evenodd" d="M391,667l496,0l0,-24l-496,0l0,24Z" class="g1_420" />
<g clip-path="url(#c4_420)">
<path fill-rule="evenodd" d="M398,667l482,0l0,-24l-482,0l0,24Z" class="g1_420" />
</g>
<path d="M46.5,643.5l0,-1" class="g3_420" />
<path d="M47.5,643.5l178,0" class="g3_420" />
<path d="M225.5,643.5l0,-1" class="g3_420" />
<path d="M226.5,643.5l163,0" class="g3_420" />
<path d="M389.5,643.5l0,-1" class="g3_420" />
<path d="M391.5,643.5l496,0" class="g3_420" />
<path d="M887.5,643.5l0,-1" class="g3_420" />
<path d="M46.5,667.5l0,-24" class="g3_420" />
<path d="M46.5,669.5l0,-2" class="g3_420" />
<path d="M46.5,669.5l0,-2" class="g3_420" />
<path d="M47.5,669.5l178,0" class="g3_420" />
<path d="M225.5,667.5l0,-24" class="g3_420" />
<path d="M225.5,669.5l0,-2" class="g3_420" />
<path d="M226.5,669.5l163,0" class="g3_420" />
<path d="M389.5,667.5l0,-24" class="g3_420" />
<path d="M389.5,669.5l0,-2" class="g3_420" />
<path d="M391.5,669.5l496,0" class="g3_420" />
<path d="M887.5,667.5l0,-24" class="g3_420" />
<path d="M887.5,669.5l0,-2" class="g3_420" />
<path d="M887.5,669.5l0,-2" class="g3_420" />
<path fill-rule="evenodd" d="M47,742l177,0l0,-24L47,718l0,24Z" class="g4_420" />
<g clip-path="url(#c5_420)">
<path fill-rule="evenodd" d="M55,742l162,0l0,-24L55,718l0,24Z" class="g4_420" />
</g>
<path fill-rule="evenodd" d="M226,742l162,0l0,-24l-162,0l0,24Z" class="g4_420" />
<g clip-path="url(#c6_420)">
<path fill-rule="evenodd" d="M233,742l148,0l0,-24l-148,0l0,24Z" class="g4_420" />
</g>
<path fill-rule="evenodd" d="M390,742l163,0l0,-24l-163,0l0,24Z" class="g4_420" />
<g clip-path="url(#c7_420)">
<path fill-rule="evenodd" d="M397,742l148,0l0,-24l-148,0l0,24Z" class="g4_420" />
</g>
<path fill-rule="evenodd" d="M554,742l163,0l0,-24l-163,0l0,24Z" class="g4_420" />
<g clip-path="url(#c8_420)">
<path fill-rule="evenodd" d="M562,742l148,0l0,-24l-148,0l0,24Z" class="g4_420" />
</g>
<path fill-rule="evenodd" d="M719,742l168,0l0,-24l-168,0l0,24Z" class="g4_420" />
<g clip-path="url(#c9_420)">
<path fill-rule="evenodd" d="M726,742l154,0l0,-24l-154,0l0,24Z" class="g4_420" />
</g>
<path d="M46.5,718.5l0,-1" class="g3_420" />
<path d="M46.5,718.5l0,-1" class="g3_420" />
<path d="M47.5,718.5l177,0" class="g3_420" />
<path d="M224.5,718.5l0,-1" class="g3_420" />
<path d="M226.5,718.5l162,0" class="g3_420" />
<path d="M388.5,718.5l0,-1" class="g3_420" />
<path d="M390.5,718.5l163,0" class="g3_420" />
<path d="M553.5,718.5l0,-1" class="g3_420" />
<path d="M554.5,718.5l163,0" class="g3_420" />
<path d="M717.5,718.5l0,-1" class="g3_420" />
<path d="M719.5,718.5l168,0" class="g3_420" />
<path d="M887.5,718.5l0,-1" class="g3_420" />
<path d="M887.5,718.5l0,-1" class="g3_420" />
<path d="M46.5,742.5l0,-24" class="g3_420" />
<path d="M224.5,742.5l0,-24" class="g3_420" />
<path d="M388.5,742.5l0,-24" class="g3_420" />
<path d="M553.5,742.5l0,-24" class="g3_420" />
<path d="M717.5,742.5l0,-24" class="g3_420" />
<path d="M887.5,742.5l0,-24" class="g3_420" />
<path fill-rule="evenodd" d="M47,767l177,0l0,-24L47,743l0,24Z" class="g1_420" />
<g clip-path="url(#c10_420)">
<path fill-rule="evenodd" d="M55,767l162,0l0,-24L55,743l0,24Z" class="g1_420" />
</g>
<path fill-rule="evenodd" d="M226,767l162,0l0,-24l-162,0l0,24Z" class="g1_420" />
<g clip-path="url(#c11_420)">
<path fill-rule="evenodd" d="M233,767l148,0l0,-24l-148,0l0,24Z" class="g1_420" />
</g>
<path fill-rule="evenodd" d="M390,767l163,0l0,-24l-163,0l0,24Z" class="g1_420" />
<g clip-path="url(#c12_420)">
<path fill-rule="evenodd" d="M397,767l148,0l0,-24l-148,0l0,24Z" class="g1_420" />
</g>
<path fill-rule="evenodd" d="M554,767l163,0l0,-24l-163,0l0,24Z" class="g1_420" />
<g clip-path="url(#c13_420)">
<path fill-rule="evenodd" d="M562,767l148,0l0,-24l-148,0l0,24Z" class="g1_420" />
</g>
<path fill-rule="evenodd" d="M719,767l168,0l0,-24l-168,0l0,24Z" class="g1_420" />
<g clip-path="url(#c14_420)">
<path fill-rule="evenodd" d="M726,767l154,0l0,-24l-154,0l0,24Z" class="g1_420" />
</g>
<path d="M46.5,743.5l0,-1" class="g3_420" />
<path d="M47.5,743.5l177,0" class="g3_420" />
<path d="M224.5,743.5l0,-1" class="g3_420" />
<path d="M226.5,743.5l162,0" class="g3_420" />
<path d="M388.5,743.5l0,-1" class="g3_420" />
<path d="M390.5,743.5l163,0" class="g3_420" />
<path d="M553.5,743.5l0,-1" class="g3_420" />
<path d="M554.5,743.5l163,0" class="g3_420" />
<path d="M717.5,743.5l0,-1" class="g3_420" />
<path d="M719.5,743.5l168,0" class="g3_420" />
<path d="M887.5,743.5l0,-1" class="g3_420" />
<path d="M46.5,767.5l0,-24" class="g3_420" />
<path d="M46.5,769.5l0,-2" class="g3_420" />
<path d="M46.5,769.5l0,-2" class="g3_420" />
<path d="M47.5,769.5l177,0" class="g3_420" />
<path d="M224.5,767.5l0,-24" class="g3_420" />
<path d="M224.5,769.5l0,-2" class="g3_420" />
<path d="M226.5,769.5l162,0" class="g3_420" />
<path d="M388.5,767.5l0,-24" class="g3_420" />
<path d="M388.5,769.5l0,-2" class="g3_420" />
<path d="M390.5,769.5l163,0" class="g3_420" />
<path d="M553.5,767.5l0,-24" class="g3_420" />
<path d="M553.5,769.5l0,-2" class="g3_420" />
<path d="M554.5,769.5l163,0" class="g3_420" />
<path d="M717.5,767.5l0,-24" class="g3_420" />
<path d="M717.5,769.5l0,-2" class="g3_420" />
<path d="M719.5,769.5l168,0" class="g3_420" />
<path d="M887.5,767.5l0,-24" class="g3_420" />
<path d="M887.5,769.5l0,-2" class="g3_420" />
<path d="M887.5,769.5l0,-2" class="g3_420" />
<path fill-rule="evenodd" d="M47,879l269,0l0,-24L47,855l0,24Z" class="g4_420" />
<g clip-path="url(#c15_420)">
<path fill-rule="evenodd" d="M55,879l254,0l0,-24L55,855l0,24Z" class="g4_420" />
</g>
<path fill-rule="evenodd" d="M318,879l78,0l0,-24l-78,0l0,24Z" class="g4_420" />
<g clip-path="url(#c16_420)">
<path fill-rule="evenodd" d="M325,879l64,0l0,-24l-64,0l0,24Z" class="g4_420" />
</g>
<path fill-rule="evenodd" d="M398,879l75,0l0,-24l-75,0l0,24Z" class="g4_420" />
<g clip-path="url(#c17_420)">
<path fill-rule="evenodd" d="M405,879l61,0l0,-24l-61,0l0,24Z" class="g4_420" />
</g>
<path fill-rule="evenodd" d="M475,879l412,0l0,-24l-412,0l0,24Z" class="g4_420" />
<g clip-path="url(#c18_420)">
<path fill-rule="evenodd" d="M482,879l398,0l0,-24l-398,0l0,24Z" class="g4_420" />
</g>
<path d="M46.5,855.5l0,-1" class="g3_420" />
<path d="M46.5,855.5l0,-1" class="g3_420" />
<path d="M47.5,855.5l269,0" class="g3_420" />
<path d="M316.5,855.5l0,-1" class="g3_420" />
<path d="M318.5,855.5l78,0" class="g3_420" />
<path d="M396.5,855.5l0,-1" class="g3_420" />
<path d="M398.5,855.5l75,0" class="g3_420" />
<path d="M473.5,855.5l0,-1" class="g3_420" />
<path d="M475.5,855.5l412,0" class="g3_420" />
<path d="M887.5,855.5l0,-1" class="g3_420" />
<path d="M887.5,855.5l0,-1" class="g3_420" />
<path d="M46.5,879.5l0,-24" class="g3_420" />
<path d="M316.5,879.5l0,-24" class="g3_420" />
<path d="M396.5,879.5l0,-24" class="g3_420" />
<path d="M473.5,879.5l0,-24" class="g3_420" />
<path d="M887.5,879.5l0,-24" class="g3_420" />
<path fill-rule="evenodd" d="M47,1052l39,0L86,881l-39,0l0,171Z" class="g1_420" />
<g clip-path="url(#c19_420)">
<path fill-rule="evenodd" d="M55,1052l23,0L78,881l-23,0l0,171Z" class="g1_420" />
</g>
<path fill-rule="evenodd" d="M87,905l229,0l0,-24L87,881l0,24Z" class="g1_420" />
<g clip-path="url(#c20_420)">
<path fill-rule="evenodd" d="M95,905l214,0l0,-24L95,881l0,24Z" class="g1_420" />
</g>
<path fill-rule="evenodd" d="M318,905l78,0l0,-24l-78,0l0,24Z" class="g1_420" />
<g clip-path="url(#c21_420)">
<path fill-rule="evenodd" d="M325,905l64,0l0,-24l-64,0l0,24Z" class="g1_420" />
</g>
<path fill-rule="evenodd" d="M398,905l75,0l0,-24l-75,0l0,24Z" class="g1_420" />
<g clip-path="url(#c22_420)">
<path fill-rule="evenodd" d="M405,905l61,0l0,-24l-61,0l0,24Z" class="g1_420" />
</g>
<path fill-rule="evenodd" d="M475,905l412,0l0,-24l-412,0l0,24Z" class="g1_420" />
<g clip-path="url(#c23_420)">
<path fill-rule="evenodd" d="M482,905l398,0l0,-24l-398,0l0,24Z" class="g1_420" />
</g>
<path d="M46.5,881.5l0,-2" class="g3_420" />
<path d="M47.5,881.5l39,0" class="g3_420" />
<path d="M86.5,881.5l0,-2" class="g3_420" />
<path d="M87.5,881.5l229,0" class="g3_420" />
<path d="M316.5,881.5l0,-2" class="g3_420" />
<path d="M318.5,881.5l78,0" class="g3_420" />
<path d="M396.5,881.5l0,-2" class="g3_420" />
<path d="M398.5,881.5l75,0" class="g3_420" />
<path d="M473.5,881.5l0,-2" class="g3_420" />
<path d="M475.5,881.5l412,0" class="g3_420" />
<path d="M887.5,881.5l0,-2" class="g3_420" />
<path d="M46.5,905.5l0,-24" class="g3_420" />
<path d="M86.5,905.5l0,-24" class="g3_420" />
<path d="M316.5,905.5l0,-24" class="g3_420" />
<path d="M396.5,905.5l0,-24" class="g3_420" />
<path d="M473.5,905.5l0,-24" class="g3_420" />
<path d="M887.5,905.5l0,-24" class="g3_420" />
<path fill-rule="evenodd" d="M87,1052l40,0l0,-145l-40,0l0,145Z" class="g1_420" />
<g clip-path="url(#c24_420)">
<path fill-rule="evenodd" d="M95,1052l24,0l0,-145l-24,0l0,145Z" class="g1_420" />
</g>
<path fill-rule="evenodd" d="M128,1052l36,0l0,-145l-36,0l0,145Z" class="g1_420" />
<g clip-path="url(#c25_420)">
<path fill-rule="evenodd" d="M136,1052l24,0l0,-145l-24,0l0,145Z" class="g1_420" />
<path fill-rule="evenodd" d="M160,1052l4,0l0,-145l-4,0l0,145Z" class="g1_420" />
</g>
<path fill-rule="evenodd" d="M165,1052l26,0l0,-145l-26,0l0,145Z" class="g1_420" />
<g clip-path="url(#c26_420)">
<path fill-rule="evenodd" d="M173,1052l18,0l0,-145l-18,0l0,145Z" class="g1_420" />
</g>
<path fill-rule="evenodd" d="M193,1052l123,0l0,-145l-123,0l0,145Z" class="g1_420" />
<path fill-rule="evenodd" d="M200,931l109,0l0,-24l-109,0l0,24Z" class="g1_420" />
<path fill-rule="evenodd" d="M318,1052l78,0l0,-145l-78,0l0,145Z" class="g1_420" />
<path fill-rule="evenodd" d="M325,931l64,0l0,-24l-64,0l0,24Z" class="g1_420" />
<path fill-rule="evenodd" d="M398,1052l75,0l0,-145l-75,0l0,145Z" class="g1_420" />
<path fill-rule="evenodd" d="M405,931l61,0l0,-24l-61,0l0,24Z" class="g1_420" />
<path fill-rule="evenodd" d="M475,1052l412,0l0,-145l-412,0l0,145Z" class="g1_420" />
<path fill-rule="evenodd" d="M482,931l398,0l0,-24l-398,0l0,24Z" class="g1_420" />
<path fill-rule="evenodd" d="M482,955l398,0l0,-24l-398,0l0,24Z" class="g1_420" />
<path d="M46.5,907.5l0,-2" class="g3_420" />
<path d="M86.5,907.5l0,-2" class="g3_420" />
<path d="M87.5,907.5l40,0" class="g3_420" />
<path d="M127.5,907.5l0,-2" class="g3_420" />
<path d="M128.5,907.5l36,0" class="g3_420" />
<path d="M164.5,907.5l0,-2" class="g3_420" />
<path d="M165.5,907.5l26,0" class="g3_420" />
<path d="M191.5,907.5l0,-2" class="g3_420" />
<path d="M193.5,907.5l123,0" class="g3_420" />
<path d="M316.5,907.5l0,-2" class="g3_420" />
<path d="M318.5,907.5l78,0" class="g3_420" />
<path d="M396.5,907.5l0,-2" class="g3_420" />
<path d="M398.5,907.5l75,0" class="g3_420" />
<path d="M473.5,907.5l0,-2" class="g3_420" />
<path d="M475.5,907.5l412,0" class="g3_420" />
<path d="M887.5,907.5l0,-2" class="g3_420" />
<path d="M46.5,1052.5l0,-145" class="g3_420" />
<path d="M46.5,1053.5l0,-1" class="g3_420" />
<path d="M46.5,1053.5l0,-1" class="g3_420" />
<path d="M47.5,1053.5l39,0" class="g3_420" />
<path d="M86.5,1052.5l0,-145" class="g3_420" />
<path d="M86.5,1053.5l0,-1" class="g3_420" />
<path d="M87.5,1053.5l40,0" class="g3_420" />
<path d="M127.5,1052.5l0,-145" class="g3_420" />
<path d="M127.5,1053.5l0,-1" class="g3_420" />
<path d="M128.5,1053.5l36,0" class="g3_420" />
<path d="M164.5,1052.5l0,-145" class="g3_420" />
<path d="M164.5,1053.5l0,-1" class="g3_420" />
<path d="M165.5,1053.5l26,0" class="g3_420" />
<path d="M191.5,1052.5l0,-145" class="g3_420" />
<path d="M191.5,1053.5l0,-1" class="g3_420" />
<path d="M193.5,1053.5l123,0" class="g3_420" />
<path d="M316.5,1052.5l0,-145" class="g3_420" />
<path d="M316.5,1053.5l0,-1" class="g3_420" />
<path d="M318.5,1053.5l78,0" class="g3_420" />
<path d="M396.5,1052.5l0,-145" class="g3_420" />
<path d="M396.5,1053.5l0,-1" class="g3_420" />
<path d="M398.5,1053.5l75,0" class="g3_420" />
<path d="M473.5,1052.5l0,-145" class="g3_420" />
<path d="M473.5,1053.5l0,-1" class="g3_420" />
<path d="M475.5,1053.5l412,0" class="g3_420" />
<path d="M887.5,1052.5l0,-145" class="g3_420" />
<path d="M887.5,1053.5l0,-1" class="g3_420" />
<path d="M887.5,1053.5l0,-1" class="g3_420" />
</svg>