<?xml version="1.0" encoding="UTF-8" standalone="no"?>
<!DOCTYPE svg PUBLIC "-//W3C//DTD SVG 1.1//EN"
"http://www.w3.org/Graphics/SVG/1.1/DTD/svg11.dtd">
<svg version="1.1" xmlns="http://www.w3.org/2000/svg" xmlns:xlink="http://www.w3.org/1999/xlink">
<defs>
<clipPath id="c0_186"><path d="M47.5,135.5l0,-24l840,0l0,24Z" /></clipPath>
<clipPath id="c1_186"><path d="M47.5,662.5l0,-24l177,0l0,24Z" /></clipPath>
<clipPath id="c2_186"><path d="M226.5,662.5l0,-24l162,0l0,24Z" /></clipPath>
<clipPath id="c3_186"><path d="M390.5,662.5l0,-24l163,0l0,24Z" /></clipPath>
<clipPath id="c4_186"><path d="M554.5,662.5l0,-24l163,0l0,24Z" /></clipPath>
<clipPath id="c5_186"><path d="M719.5,662.5l0,-24l168,0l0,24Z" /></clipPath>
<clipPath id="c6_186"><path d="M47.5,774.5l0,-25l206,0l0,25Z" /></clipPath>
<clipPath id="c7_186"><path d="M255.5,774.5l0,-25l149,0l0,25Z" /></clipPath>
<clipPath id="c8_186"><path d="M406.5,774.5l0,-25l74,0l0,25Z" /></clipPath>
<clipPath id="c9_186"><path d="M482.5,774.5l0,-25l405,0l0,25Z" /></clipPath>
<clipPath id="c10_186"><path d="M47.5,921.5l0,-146l39,0l0,146Z" /></clipPath>
<clipPath id="c11_186"><path d="M88.5,823.5l0,-48l165,0l0,48Z" /></clipPath>
<clipPath id="c12_186"><path d="M255.5,823.5l0,-48l149,0l0,48Z" /></clipPath>
<clipPath id="c13_186"><path d="M406.5,823.5l0,-48l74,0l0,48Z" /></clipPath>
<clipPath id="c14_186"><path d="M482.5,823.5l0,-48l405,0l0,48Z" /></clipPath>
<clipPath id="c15_186"><path d="M88.5,921.5l0,-96l40,0l0,96Z" /></clipPath>
<clipPath id="c16_186"><path d="M129.5,872.5l0,-47l124,0l0,47Z" /></clipPath>
<clipPath id="c17_186"><path d="M255.5,872.5l0,-47l149,0l0,47Z" /></clipPath>
<clipPath id="c18_186"><path d="M406.5,872.5l0,-47l74,0l0,47Z" /></clipPath>
<clipPath id="c19_186"><path d="M482.5,872.5l0,-47l405,0l0,47Z" /></clipPath>
<clipPath id="c20_186"><path d="M129.5,921.5l0,-47l124,0l0,47Z" /></clipPath>
<clipPath id="c21_186"><path d="M255.5,921.5l0,-47l149,0l0,47Z" /></clipPath>
<clipPath id="c22_186"><path d="M406.5,921.5l0,-47l74,0l0,47Z" /></clipPath>
<clipPath id="c23_186"><path d="M482.5,921.5l0,-47l405,0l0,47Z" /></clipPath>
<clipPath id="c24_186"><path d="M47.5,1068.5l0,-24l840,0l0,24Z" /></clipPath>
<style type="text/css"><![CDATA[
.g2_186{
fill: none;
stroke: #7E7E7E;
stroke-width: 1;
stroke-linecap: butt;
stroke-linejoin: miter;
}
.g3_186{
fill: #DBE5F1;
}
.g1_186{
fill: #F1F1F1;
}
]]></style>
</defs>
<path fill-rule="evenodd" d="M47,135l840,0l0,-24L47,111l0,24Z" class="g1_186" />
<g clip-path="url(#c0_186)">
<path fill-rule="evenodd" d="M55,135l825,0l0,-24L55,111l0,24Z" class="g1_186" />
</g>
<path d="M46.5,111.5l0,-1" class="g2_186" />
<path d="M46.5,111.5l0,-1" class="g2_186" />
<path d="M47.5,111.5l840,0" class="g2_186" />
<path d="M887.5,111.5l0,-1" class="g2_186" />
<path d="M887.5,111.5l0,-1" class="g2_186" />
<path d="M46.5,135.5l0,-24" class="g2_186" />
<path d="M46.5,136.5l0,-1" class="g2_186" />
<path d="M46.5,136.5l0,-1" class="g2_186" />
<path d="M47.5,136.5l840,0" class="g2_186" />
<path d="M887.5,135.5l0,-24" class="g2_186" />
<path d="M887.5,136.5l0,-1" class="g2_186" />
<path d="M887.5,136.5l0,-1" class="g2_186" />
<path fill-rule="evenodd" d="M47,429l840,0l0,-24L47,405l0,24Z" class="g1_186" />
<path fill-rule="evenodd" d="M55,429l825,0l0,-24L55,405l0,24Z" class="g1_186" />
<path d="M46.5,405.5l0,-1" class="g2_186" />
<path d="M46.5,405.5l0,-1" class="g2_186" />
<path d="M47.5,405.5l840,0" class="g2_186" />
<path d="M887.5,405.5l0,-1" class="g2_186" />
<path d="M887.5,405.5l0,-1" class="g2_186" />
<path d="M46.5,429.5l0,-24" class="g2_186" />
<path d="M46.5,431.5l0,-2" class="g2_186" />
<path d="M46.5,431.5l0,-2" class="g2_186" />
<path d="M47.5,431.5l840,0" class="g2_186" />
<path d="M887.5,429.5l0,-24" class="g2_186" />
<path d="M887.5,431.5l0,-2" class="g2_186" />
<path d="M887.5,431.5l0,-2" class="g2_186" />
<path fill-rule="evenodd" d="M47,536l178,0l0,-23L47,513l0,23Z" class="g3_186" />
<path fill-rule="evenodd" d="M55,536l163,0l0,-23L55,513l0,23Z" class="g3_186" />
<path fill-rule="evenodd" d="M226,536l163,0l0,-23l-163,0l0,23Z" class="g3_186" />
<path fill-rule="evenodd" d="M234,536l148,0l0,-23l-148,0l0,23Z" class="g3_186" />
<path fill-rule="evenodd" d="M391,536l496,0l0,-23l-496,0l0,23Z" class="g3_186" />
<path fill-rule="evenodd" d="M398,536l482,0l0,-23l-482,0l0,23Z" class="g3_186" />
<path d="M46.5,512.5l0,-1" class="g2_186" />
<path d="M46.5,512.5l0,-1" class="g2_186" />
<path d="M47.5,512.5l178,0" class="g2_186" />
<path d="M225.5,512.5l0,-1" class="g2_186" />
<path d="M226.5,512.5l163,0" class="g2_186" />
<path d="M389.5,512.5l0,-1" class="g2_186" />
<path d="M391.5,512.5l496,0" class="g2_186" />
<path d="M887.5,512.5l0,-1" class="g2_186" />
<path d="M887.5,512.5l0,-1" class="g2_186" />
<path d="M46.5,536.5l0,-24" class="g2_186" />
<path d="M225.5,536.5l0,-24" class="g2_186" />
<path d="M389.5,536.5l0,-24" class="g2_186" />
<path d="M887.5,536.5l0,-24" class="g2_186" />
<path fill-rule="evenodd" d="M47,562l178,0l0,-24L47,538l0,24Z" class="g1_186" />
<path fill-rule="evenodd" d="M55,562l163,0l0,-24L55,538l0,24Z" class="g1_186" />
<path fill-rule="evenodd" d="M226,562l163,0l0,-24l-163,0l0,24Z" class="g1_186" />
<path fill-rule="evenodd" d="M234,562l148,0l0,-24l-148,0l0,24Z" class="g1_186" />
<path fill-rule="evenodd" d="M391,562l496,0l0,-24l-496,0l0,24Z" class="g1_186" />
<path fill-rule="evenodd" d="M398,562l482,0l0,-24l-482,0l0,24Z" class="g1_186" />
<path d="M46.5,538.5l0,-2" class="g2_186" />
<path d="M47.5,538.5l178,0" class="g2_186" />
<path d="M225.5,538.5l0,-2" class="g2_186" />
<path d="M226.5,538.5l163,0" class="g2_186" />
<path d="M389.5,538.5l0,-2" class="g2_186" />
<path d="M391.5,538.5l496,0" class="g2_186" />
<path d="M887.5,538.5l0,-2" class="g2_186" />
<path d="M46.5,562.5l0,-24" class="g2_186" />
<path d="M46.5,563.5l0,-1" class="g2_186" />
<path d="M46.5,563.5l0,-1" class="g2_186" />
<path d="M47.5,563.5l178,0" class="g2_186" />
<path d="M225.5,562.5l0,-24" class="g2_186" />
<path d="M225.5,563.5l0,-1" class="g2_186" />
<path d="M226.5,563.5l163,0" class="g2_186" />
<path d="M389.5,562.5l0,-24" class="g2_186" />
<path d="M389.5,563.5l0,-1" class="g2_186" />
<path d="M391.5,563.5l496,0" class="g2_186" />
<path d="M887.5,562.5l0,-24" class="g2_186" />
<path d="M887.5,563.5l0,-1" class="g2_186" />
<path d="M887.5,563.5l0,-1" class="g2_186" />
<path fill-rule="evenodd" d="M47,636l177,0l0,-24L47,612l0,24Z" class="g3_186" />
<path fill-rule="evenodd" d="M55,636l162,0l0,-24L55,612l0,24Z" class="g3_186" />
<path fill-rule="evenodd" d="M226,636l162,0l0,-24l-162,0l0,24Z" class="g3_186" />
<path fill-rule="evenodd" d="M233,636l148,0l0,-24l-148,0l0,24Z" class="g3_186" />
<path fill-rule="evenodd" d="M390,636l163,0l0,-24l-163,0l0,24Z" class="g3_186" />
<path fill-rule="evenodd" d="M397,636l148,0l0,-24l-148,0l0,24Z" class="g3_186" />
<path fill-rule="evenodd" d="M554,636l163,0l0,-24l-163,0l0,24Z" class="g3_186" />
<path fill-rule="evenodd" d="M562,636l148,0l0,-24l-148,0l0,24Z" class="g3_186" />
<path fill-rule="evenodd" d="M719,636l168,0l0,-24l-168,0l0,24Z" class="g3_186" />
<path fill-rule="evenodd" d="M726,636l154,0l0,-24l-154,0l0,24Z" class="g3_186" />
<path d="M46.5,612.5l0,-1" class="g2_186" />
<path d="M46.5,612.5l0,-1" class="g2_186" />
<path d="M47.5,612.5l177,0" class="g2_186" />
<path d="M224.5,612.5l0,-1" class="g2_186" />
<path d="M226.5,612.5l162,0" class="g2_186" />
<path d="M388.5,612.5l0,-1" class="g2_186" />
<path d="M390.5,612.5l163,0" class="g2_186" />
<path d="M553.5,612.5l0,-1" class="g2_186" />
<path d="M554.5,612.5l163,0" class="g2_186" />
<path d="M717.5,612.5l0,-1" class="g2_186" />
<path d="M719.5,612.5l168,0" class="g2_186" />
<path d="M887.5,612.5l0,-1" class="g2_186" />
<path d="M887.5,612.5l0,-1" class="g2_186" />
<path d="M46.5,636.5l0,-24" class="g2_186" />
<path d="M224.5,636.5l0,-24" class="g2_186" />
<path d="M388.5,636.5l0,-24" class="g2_186" />
<path d="M553.5,636.5l0,-24" class="g2_186" />
<path d="M717.5,636.5l0,-24" class="g2_186" />
<path d="M887.5,636.5l0,-24" class="g2_186" />
<path fill-rule="evenodd" d="M47,662l177,0l0,-24L47,638l0,24Z" class="g1_186" />
<g clip-path="url(#c1_186)">
<path fill-rule="evenodd" d="M55,662l162,0l0,-24L55,638l0,24Z" class="g1_186" />
</g>
<path fill-rule="evenodd" d="M226,662l162,0l0,-24l-162,0l0,24Z" class="g1_186" />
<g clip-path="url(#c2_186)">
<path fill-rule="evenodd" d="M233,662l148,0l0,-24l-148,0l0,24Z" class="g1_186" />
</g>
<path fill-rule="evenodd" d="M390,662l163,0l0,-24l-163,0l0,24Z" class="g1_186" />
<g clip-path="url(#c3_186)">
<path fill-rule="evenodd" d="M397,662l148,0l0,-24l-148,0l0,24Z" class="g1_186" />
</g>
<path fill-rule="evenodd" d="M554,662l163,0l0,-24l-163,0l0,24Z" class="g1_186" />
<g clip-path="url(#c4_186)">
<path fill-rule="evenodd" d="M562,662l148,0l0,-24l-148,0l0,24Z" class="g1_186" />
</g>
<path fill-rule="evenodd" d="M719,662l168,0l0,-24l-168,0l0,24Z" class="g1_186" />
<g clip-path="url(#c5_186)">
<path fill-rule="evenodd" d="M726,662l154,0l0,-24l-154,0l0,24Z" class="g1_186" />
</g>
<path d="M46.5,638.5l0,-2" class="g2_186" />
<path d="M47.5,638.5l177,0" class="g2_186" />
<path d="M224.5,638.5l0,-2" class="g2_186" />
<path d="M226.5,638.5l162,0" class="g2_186" />
<path d="M388.5,638.5l0,-2" class="g2_186" />
<path d="M390.5,638.5l163,0" class="g2_186" />
<path d="M553.5,638.5l0,-2" class="g2_186" />
<path d="M554.5,638.5l163,0" class="g2_186" />
<path d="M717.5,638.5l0,-2" class="g2_186" />
<path d="M719.5,638.5l168,0" class="g2_186" />
<path d="M887.5,638.5l0,-2" class="g2_186" />
<path d="M46.5,662.5l0,-24" class="g2_186" />
<path d="M46.5,663.5l0,-1" class="g2_186" />
<path d="M46.5,663.5l0,-1" class="g2_186" />
<path d="M47.5,663.5l177,0" class="g2_186" />
<path d="M224.5,662.5l0,-24" class="g2_186" />
<path d="M224.5,663.5l0,-1" class="g2_186" />
<path d="M226.5,663.5l162,0" class="g2_186" />
<path d="M388.5,662.5l0,-24" class="g2_186" />
<path d="M388.5,663.5l0,-1" class="g2_186" />
<path d="M390.5,663.5l163,0" class="g2_186" />
<path d="M553.5,662.5l0,-24" class="g2_186" />
<path d="M553.5,663.5l0,-1" class="g2_186" />
<path d="M554.5,663.5l163,0" class="g2_186" />
<path d="M717.5,662.5l0,-24" class="g2_186" />
<path d="M717.5,663.5l0,-1" class="g2_186" />
<path d="M719.5,663.5l168,0" class="g2_186" />
<path d="M887.5,662.5l0,-24" class="g2_186" />
<path d="M887.5,663.5l0,-1" class="g2_186" />
<path d="M887.5,663.5l0,-1" class="g2_186" />
<path fill-rule="evenodd" d="M47,774l206,0l0,-25L47,749l0,25Z" class="g3_186" />
<g clip-path="url(#c6_186)">
<path fill-rule="evenodd" d="M55,773l191,0l0,-24L55,749l0,24Z" class="g3_186" />
</g>
<path fill-rule="evenodd" d="M255,774l149,0l0,-25l-149,0l0,25Z" class="g3_186" />
<g clip-path="url(#c7_186)">
<path fill-rule="evenodd" d="M262,773l135,0l0,-24l-135,0l0,24Z" class="g3_186" />
</g>
<path fill-rule="evenodd" d="M406,774l74,0l0,-25l-74,0l0,25Z" class="g3_186" />
<g clip-path="url(#c8_186)">
<path fill-rule="evenodd" d="M413,773l60,0l0,-24l-60,0l0,24Z" class="g3_186" />
</g>
<path fill-rule="evenodd" d="M482,774l405,0l0,-25l-405,0l0,25Z" class="g3_186" />
<g clip-path="url(#c9_186)">
<path fill-rule="evenodd" d="M489,773l391,0l0,-24l-391,0l0,24Z" class="g3_186" />
</g>
<path d="M46.5,749.5l0,-1" class="g2_186" />
<path d="M46.5,749.5l0,-1" class="g2_186" />
<path d="M47.5,749.5l206,0" class="g2_186" />
<path d="M253.5,749.5l0,-1" class="g2_186" />
<path d="M255.5,749.5l150,0" class="g2_186" />
<path d="M405.5,749.5l0,-1" class="g2_186" />
<path d="M406.5,749.5l74,0" class="g2_186" />
<path d="M480.5,749.5l0,-1" class="g2_186" />
<path d="M482.5,749.5l405,0" class="g2_186" />
<path d="M887.5,749.5l0,-1" class="g2_186" />
<path d="M887.5,749.5l0,-1" class="g2_186" />
<path d="M46.5,774.5l0,-25" class="g2_186" />
<path d="M253.5,774.5l0,-25" class="g2_186" />
<path d="M405.5,774.5l0,-25" class="g2_186" />
<path d="M480.5,774.5l0,-25" class="g2_186" />
<path d="M887.5,774.5l0,-25" class="g2_186" />
<path fill-rule="evenodd" d="M47,921l39,0L86,775l-39,0l0,146Z" class="g1_186" />
<g clip-path="url(#c10_186)">
<path fill-rule="evenodd" d="M55,921l23,0L78,775l-23,0l0,146Z" class="g1_186" />
</g>
<path fill-rule="evenodd" d="M88,823l165,0l0,-48L88,775l0,48Z" class="g1_186" />
<g clip-path="url(#c11_186)">
<path fill-rule="evenodd" d="M95,799l151,0l0,-24L95,775l0,24Z" class="g1_186" />
</g>
<path fill-rule="evenodd" d="M255,823l149,0l0,-48l-149,0l0,48Z" class="g1_186" />
<g clip-path="url(#c12_186)">
<path fill-rule="evenodd" d="M262,799l135,0l0,-24l-135,0l0,24Z" class="g1_186" />
</g>
<path fill-rule="evenodd" d="M406,823l74,0l0,-48l-74,0l0,48Z" class="g1_186" />
<g clip-path="url(#c13_186)">
<path fill-rule="evenodd" d="M413,799l60,0l0,-24l-60,0l0,24Z" class="g1_186" />
</g>
<path fill-rule="evenodd" d="M482,823l405,0l0,-48l-405,0l0,48Z" class="g1_186" />
<g clip-path="url(#c14_186)">
<path fill-rule="evenodd" d="M489,799l391,0l0,-24l-391,0l0,24Z" class="g1_186" />
</g>
<path fill-rule="evenodd" d="M489,823l391,0l0,-24l-391,0l0,24Z" class="g1_186" />
<path d="M46.5,775.5l0,-1" class="g2_186" />
<path d="M47.5,775.5l39,0" class="g2_186" />
<path d="M86.5,775.5l0,-1" class="g2_186" />
<path d="M88.5,775.5l165,0" class="g2_186" />
<path d="M253.5,775.5l0,-1" class="g2_186" />
<path d="M255.5,775.5l150,0" class="g2_186" />
<path d="M405.5,775.5l0,-1" class="g2_186" />
<path d="M406.5,775.5l74,0" class="g2_186" />
<path d="M480.5,775.5l0,-1" class="g2_186" />
<path d="M482.5,775.5l405,0" class="g2_186" />
<path d="M887.5,775.5l0,-1" class="g2_186" />
<path d="M46.5,823.5l0,-48" class="g2_186" />
<path d="M86.5,823.5l0,-48" class="g2_186" />
<path d="M253.5,823.5l0,-48" class="g2_186" />
<path d="M405.5,823.5l0,-48" class="g2_186" />
<path d="M480.5,823.5l0,-48" class="g2_186" />
<path d="M887.5,823.5l0,-48" class="g2_186" />
<path fill-rule="evenodd" d="M88,921l40,0l0,-96l-40,0l0,96Z" class="g1_186" />
<g clip-path="url(#c15_186)">
<path fill-rule="evenodd" d="M95,921l24,0l0,-96l-24,0l0,96Z" class="g1_186" />
<path fill-rule="evenodd" d="M119,921l9,0l0,-96l-9,0l0,96Z" class="g1_186" />
</g>
<path fill-rule="evenodd" d="M129,872l124,0l0,-47l-124,0l0,47Z" class="g1_186" />
<g clip-path="url(#c16_186)">
<path fill-rule="evenodd" d="M136,848l110,0l0,-23l-110,0l0,23Z" class="g1_186" />
</g>
<path fill-rule="evenodd" d="M255,872l149,0l0,-47l-149,0l0,47Z" class="g1_186" />
<g clip-path="url(#c17_186)">
<path fill-rule="evenodd" d="M262,848l135,0l0,-23l-135,0l0,23Z" class="g1_186" />
</g>
<path fill-rule="evenodd" d="M262,872l135,0l0,-24l-135,0l0,24Z" class="g1_186" />
<path fill-rule="evenodd" d="M406,872l74,0l0,-47l-74,0l0,47Z" class="g1_186" />
<g clip-path="url(#c18_186)">
<path fill-rule="evenodd" d="M413,848l60,0l0,-23l-60,0l0,23Z" class="g1_186" />
</g>
<path fill-rule="evenodd" d="M482,872l405,0l0,-47l-405,0l0,47Z" class="g1_186" />
<g clip-path="url(#c19_186)">
<path fill-rule="evenodd" d="M489,848l391,0l0,-23l-391,0l0,23Z" class="g1_186" />
</g>
<path d="M46.5,824.5l0,-1" class="g2_186" />
<path d="M86.5,824.5l0,-1" class="g2_186" />
<path d="M88.5,824.5l39,0" class="g2_186" />
<path d="M127.5,824.5l0,-1" class="g2_186" />
<path d="M129.5,824.5l124,0" class="g2_186" />
<path d="M253.5,824.5l0,-1" class="g2_186" />
<path d="M255.5,824.5l150,0" class="g2_186" />
<path d="M405.5,824.5l0,-1" class="g2_186" />
<path d="M406.5,824.5l74,0" class="g2_186" />
<path d="M480.5,824.5l0,-1" class="g2_186" />
<path d="M482.5,824.5l405,0" class="g2_186" />
<path d="M887.5,824.5l0,-1" class="g2_186" />
<path d="M46.5,872.5l0,-48" class="g2_186" />
<path d="M86.5,872.5l0,-48" class="g2_186" />
<path d="M127.5,872.5l0,-48" class="g2_186" />
<path d="M253.5,872.5l0,-48" class="g2_186" />
<path d="M405.5,872.5l0,-48" class="g2_186" />
<path d="M480.5,872.5l0,-48" class="g2_186" />
<path d="M887.5,872.5l0,-48" class="g2_186" />
<path fill-rule="evenodd" d="M129,921l124,0l0,-47l-124,0l0,47Z" class="g1_186" />
<g clip-path="url(#c20_186)">
<path fill-rule="evenodd" d="M136,898l110,0l0,-24l-110,0l0,24Z" class="g1_186" />
</g>
<path fill-rule="evenodd" d="M255,921l149,0l0,-47l-149,0l0,47Z" class="g1_186" />
<g clip-path="url(#c21_186)">
<path fill-rule="evenodd" d="M262,898l135,0l0,-24l-135,0l0,24Z" class="g1_186" />
</g>
<path fill-rule="evenodd" d="M262,921l135,0l0,-23l-135,0l0,23Z" class="g1_186" />
<path fill-rule="evenodd" d="M406,921l74,0l0,-47l-74,0l0,47Z" class="g1_186" />
<g clip-path="url(#c22_186)">
<path fill-rule="evenodd" d="M413,898l60,0l0,-24l-60,0l0,24Z" class="g1_186" />
</g>
<path fill-rule="evenodd" d="M482,921l405,0l0,-47l-405,0l0,47Z" class="g1_186" />
<g clip-path="url(#c23_186)">
<path fill-rule="evenodd" d="M489,898l391,0l0,-24l-391,0l0,24Z" class="g1_186" />
</g>
<path d="M46.5,874.5l0,-2" class="g2_186" />
<path d="M86.5,874.5l0,-2" class="g2_186" />
<path d="M127.5,874.5l0,-2" class="g2_186" />
<path d="M129.5,874.5l124,0" class="g2_186" />
<path d="M253.5,874.5l0,-2" class="g2_186" />
<path d="M255.5,874.5l150,0" class="g2_186" />
<path d="M405.5,874.5l0,-2" class="g2_186" />
<path d="M406.5,874.5l74,0" class="g2_186" />
<path d="M480.5,874.5l0,-2" class="g2_186" />
<path d="M482.5,874.5l405,0" class="g2_186" />
<path d="M887.5,874.5l0,-2" class="g2_186" />
<path d="M46.5,921.5l0,-47" class="g2_186" />
<path d="M46.5,923.5l0,-2" class="g2_186" />
<path d="M46.5,923.5l0,-2" class="g2_186" />
<path d="M47.5,923.5l39,0" class="g2_186" />
<path d="M86.5,921.5l0,-47" class="g2_186" />
<path d="M86.5,923.5l0,-2" class="g2_186" />
<path d="M88.5,923.5l39,0" class="g2_186" />
<path d="M127.5,921.5l0,-47" class="g2_186" />
<path d="M127.5,923.5l0,-2" class="g2_186" />
<path d="M129.5,923.5l124,0" class="g2_186" />
<path d="M253.5,921.5l0,-47" class="g2_186" />
<path d="M253.5,923.5l0,-2" class="g2_186" />
<path d="M255.5,923.5l150,0" class="g2_186" />
<path d="M405.5,921.5l0,-47" class="g2_186" />
<path d="M405.5,923.5l0,-2" class="g2_186" />
<path d="M406.5,923.5l74,0" class="g2_186" />
<path d="M480.5,921.5l0,-47" class="g2_186" />
<path d="M480.5,923.5l0,-2" class="g2_186" />
<path d="M482.5,923.5l405,0" class="g2_186" />
<path d="M887.5,921.5l0,-47" class="g2_186" />
<path d="M887.5,923.5l0,-2" class="g2_186" />
<path d="M887.5,923.5l0,-2" class="g2_186" />
<path fill-rule="evenodd" d="M47,1068l840,0l0,-24l-840,0l0,24Z" class="g1_186" />
<g clip-path="url(#c24_186)">
<path fill-rule="evenodd" d="M55,1068l825,0l0,-24l-825,0l0,24Z" class="g1_186" />
</g>
<path d="M46.5,1044.5l0,-2" class="g2_186" />
<path d="M46.5,1044.5l0,-2" class="g2_186" />
<path d="M47.5,1044.5l840,0" class="g2_186" />
<path d="M887.5,1044.5l0,-2" class="g2_186" />
<path d="M887.5,1044.5l0,-2" class="g2_186" />
<path d="M46.5,1068.5l0,-24" class="g2_186" />
<path d="M46.5,1069.5l0,-1" class="g2_186" />
<path d="M46.5,1069.5l0,-1" class="g2_186" />
<path d="M47.5,1069.5l840,0" class="g2_186" />
<path d="M887.5,1068.5l0,-24" class="g2_186" />
<path d="M887.5,1069.5l0,-1" class="g2_186" />
<path d="M887.5,1069.5l0,-1" class="g2_186" />
</svg>