<?xml version="1.0" encoding="UTF-8" standalone="no"?>
<!DOCTYPE svg PUBLIC "-//W3C//DTD SVG 1.1//EN"
"http://www.w3.org/Graphics/SVG/1.1/DTD/svg11.dtd">
<svg version="1.1" xmlns="http://www.w3.org/2000/svg" xmlns:xlink="http://www.w3.org/1999/xlink">
<defs>
<clipPath id="c0_297"><path d="M47.5,588.5l0,-477l840,0l0,477Z" /></clipPath>
<clipPath id="c1_297"><path d="M47.5,724.5l0,-25l441,0l0,25Z" /></clipPath>
<clipPath id="c2_297"><path d="M490.5,724.5l0,-25l66,0l0,25Z" /></clipPath>
<clipPath id="c3_297"><path d="M557.5,724.5l0,-25l330,0l0,25Z" /></clipPath>
<clipPath id="c4_297"><path d="M47.5,1074.5l0,-349l39,0l0,349Z" /></clipPath>
<clipPath id="c5_297"><path d="M88.5,773.5l0,-48l400,0l0,48Z" /></clipPath>
<clipPath id="c6_297"><path d="M490.5,773.5l0,-48l66,0l0,48Z" /></clipPath>
<clipPath id="c7_297"><path d="M557.5,773.5l0,-48l330,0l0,48Z" /></clipPath>
<clipPath id="c8_297"><path d="M88.5,799.5l0,-24l400,0l0,24Z" /></clipPath>
<clipPath id="c9_297"><path d="M490.5,799.5l0,-24l66,0l0,24Z" /></clipPath>
<clipPath id="c10_297"><path d="M557.5,799.5l0,-24l330,0l0,24Z" /></clipPath>
<clipPath id="c11_297"><path d="M88.5,825.5l0,-25l400,0l0,25Z" /></clipPath>
<clipPath id="c12_297"><path d="M490.5,825.5l0,-25l66,0l0,25Z" /></clipPath>
<clipPath id="c13_297"><path d="M557.5,825.5l0,-25l330,0l0,25Z" /></clipPath>
<clipPath id="c14_297"><path d="M88.5,1074.5l0,-248l39,0l0,248Z" /></clipPath>
<clipPath id="c15_297"><path d="M129.5,1074.5l0,-248l39,0l0,248Z" /></clipPath>
<clipPath id="c16_297"><path d="M169.5,1074.5l0,-248l40,0l0,248Z" /></clipPath>
<clipPath id="c17_297"><path d="M210.5,850.5l0,-24l278,0l0,24Z" /></clipPath>
<clipPath id="c18_297"><path d="M490.5,850.5l0,-24l66,0l0,24Z" /></clipPath>
<clipPath id="c19_297"><path d="M557.5,850.5l0,-24l330,0l0,24Z" /></clipPath>
<clipPath id="c20_297"><path d="M210.5,899.5l0,-47l278,0l0,47Z" /></clipPath>
<clipPath id="c21_297"><path d="M490.5,899.5l0,-47l66,0l0,47Z" /></clipPath>
<clipPath id="c22_297"><path d="M557.5,899.5l0,-47l330,0l0,47Z" /></clipPath>
<clipPath id="c23_297"><path d="M210.5,949.5l0,-48l278,0l0,48Z" /></clipPath>
<clipPath id="c24_297"><path d="M490.5,949.5l0,-48l66,0l0,48Z" /></clipPath>
<clipPath id="c25_297"><path d="M557.5,949.5l0,-48l330,0l0,48Z" /></clipPath>
<clipPath id="c26_297"><path d="M557.5,998.5l0,-48l330,0l0,48Z" /></clipPath>
<clipPath id="c27_297"><path d="M210.5,1023.5l0,-24l278,0l0,24Z" /></clipPath>
<clipPath id="c28_297"><path d="M490.5,1023.5l0,-24l66,0l0,24Z" /></clipPath>
<clipPath id="c29_297"><path d="M557.5,1023.5l0,-24l330,0l0,24Z" /></clipPath>
<clipPath id="c30_297"><path d="M210.5,1048.5l0,-23l278,0l0,23Z" /></clipPath>
<clipPath id="c31_297"><path d="M490.5,1048.5l0,-23l66,0l0,23Z" /></clipPath>
<clipPath id="c32_297"><path d="M557.5,1048.5l0,-23l330,0l0,23Z" /></clipPath>
<clipPath id="c33_297"><path d="M210.5,1074.5l0,-24l278,0l0,24Z" /></clipPath>
<clipPath id="c34_297"><path d="M490.5,1074.5l0,-24l66,0l0,24Z" /></clipPath>
<clipPath id="c35_297"><path d="M557.5,1074.5l0,-24l330,0l0,24Z" /></clipPath>
<style type="text/css"><![CDATA[
.g2_297{
fill: none;
stroke: #7E7E7E;
stroke-width: 1;
stroke-linecap: butt;
stroke-linejoin: miter;
}
.g3_297{
fill: #DBE5F1;
}
.g1_297{
fill: #F1F1F1;
}
]]></style>
</defs>
<path fill-rule="evenodd" d="M47,588l840,0l0,-477L47,111l0,477Z" class="g1_297" />
<g clip-path="url(#c0_297)">
<path fill-rule="evenodd" d="M55,135l825,0l0,-24L55,111l0,24Z" class="g1_297" />
</g>
<path fill-rule="evenodd" d="M55,159l825,0l0,-24L55,135l0,24Z" class="g1_297" />
<path fill-rule="evenodd" d="M55,182l825,0l0,-23L55,159l0,23Z" class="g1_297" />
<path fill-rule="evenodd" d="M55,206l825,0l0,-24L55,182l0,24Z" class="g1_297" />
<path fill-rule="evenodd" d="M55,230l825,0l0,-24L55,206l0,24Z" class="g1_297" />
<path fill-rule="evenodd" d="M55,254l825,0l0,-24L55,230l0,24Z" class="g1_297" />
<path fill-rule="evenodd" d="M55,278l825,0l0,-24L55,254l0,24Z" class="g1_297" />
<path fill-rule="evenodd" d="M55,302l825,0l0,-24L55,278l0,24Z" class="g1_297" />
<path fill-rule="evenodd" d="M55,325l825,0l0,-23L55,302l0,23Z" class="g1_297" />
<path fill-rule="evenodd" d="M55,349l825,0l0,-24L55,325l0,24Z" class="g1_297" />
<path fill-rule="evenodd" d="M55,373l825,0l0,-24L55,349l0,24Z" class="g1_297" />
<path fill-rule="evenodd" d="M55,397l825,0l0,-24L55,373l0,24Z" class="g1_297" />
<path fill-rule="evenodd" d="M55,421l825,0l0,-24L55,397l0,24Z" class="g1_297" />
<path fill-rule="evenodd" d="M55,445l825,0l0,-24L55,421l0,24Z" class="g1_297" />
<path fill-rule="evenodd" d="M55,469l825,0l0,-24L55,445l0,24Z" class="g1_297" />
<path fill-rule="evenodd" d="M55,492l825,0l0,-23L55,469l0,23Z" class="g1_297" />
<path fill-rule="evenodd" d="M55,516l825,0l0,-24L55,492l0,24Z" class="g1_297" />
<path fill-rule="evenodd" d="M55,540l825,0l0,-24L55,516l0,24Z" class="g1_297" />
<path fill-rule="evenodd" d="M55,564l825,0l0,-24L55,540l0,24Z" class="g1_297" />
<path fill-rule="evenodd" d="M55,588l825,0l0,-24L55,564l0,24Z" class="g1_297" />
<path d="M46.5,111.5l0,-1" class="g2_297" />
<path d="M46.5,111.5l0,-1" class="g2_297" />
<path d="M47.5,111.5l840,0" class="g2_297" />
<path d="M887.5,111.5l0,-1" class="g2_297" />
<path d="M887.5,111.5l0,-1" class="g2_297" />
<path d="M46.5,588.5l0,-477" class="g2_297" />
<path d="M46.5,589.5l0,-1" class="g2_297" />
<path d="M46.5,589.5l0,-1" class="g2_297" />
<path d="M47.5,589.5l840,0" class="g2_297" />
<path d="M887.5,588.5l0,-477" class="g2_297" />
<path d="M887.5,589.5l0,-1" class="g2_297" />
<path d="M887.5,589.5l0,-1" class="g2_297" />
<path fill-rule="evenodd" d="M47,724l441,0l0,-25L47,699l0,25Z" class="g3_297" />
<g clip-path="url(#c1_297)">
<path fill-rule="evenodd" d="M55,723l426,0l0,-24L55,699l0,24Z" class="g3_297" />
</g>
<path fill-rule="evenodd" d="M490,724l66,0l0,-25l-66,0l0,25Z" class="g3_297" />
<g clip-path="url(#c2_297)">
<path fill-rule="evenodd" d="M497,723l51,0l0,-24l-51,0l0,24Z" class="g3_297" />
</g>
<path fill-rule="evenodd" d="M557,724l330,0l0,-25l-330,0l0,25Z" class="g3_297" />
<g clip-path="url(#c3_297)">
<path fill-rule="evenodd" d="M565,723l315,0l0,-24l-315,0l0,24Z" class="g3_297" />
</g>
<path d="M46.5,699.5l0,-1" class="g2_297" />
<path d="M46.5,699.5l0,-1" class="g2_297" />
<path d="M47.5,699.5l441,0" class="g2_297" />
<path d="M488.5,699.5l0,-1" class="g2_297" />
<path d="M490.5,699.5l66,0" class="g2_297" />
<path d="M556.5,699.5l0,-1" class="g2_297" />
<path d="M557.5,699.5l330,0" class="g2_297" />
<path d="M887.5,699.5l0,-1" class="g2_297" />
<path d="M887.5,699.5l0,-1" class="g2_297" />
<path d="M46.5,724.5l0,-25" class="g2_297" />
<path d="M488.5,724.5l0,-25" class="g2_297" />
<path d="M556.5,724.5l0,-25" class="g2_297" />
<path d="M887.5,724.5l0,-25" class="g2_297" />
<path fill-rule="evenodd" d="M47,1074l39,0L86,725l-39,0l0,349Z" class="g1_297" />
<g clip-path="url(#c4_297)">
<path fill-rule="evenodd" d="M55,1074l23,0L78,725l-23,0l0,349Z" class="g1_297" />
</g>
<path fill-rule="evenodd" d="M88,773l400,0l0,-48L88,725l0,48Z" class="g1_297" />
<g clip-path="url(#c5_297)">
<path fill-rule="evenodd" d="M95,749l386,0l0,-24L95,725l0,24Z" class="g1_297" />
</g>
<path fill-rule="evenodd" d="M490,773l66,0l0,-48l-66,0l0,48Z" class="g1_297" />
<g clip-path="url(#c6_297)">
<path fill-rule="evenodd" d="M497,749l51,0l0,-24l-51,0l0,24Z" class="g1_297" />
</g>
<path fill-rule="evenodd" d="M557,773l330,0l0,-48l-330,0l0,48Z" class="g1_297" />
<g clip-path="url(#c7_297)">
<path fill-rule="evenodd" d="M565,749l315,0l0,-24l-315,0l0,24Z" class="g1_297" />
</g>
<path fill-rule="evenodd" d="M565,773l315,0l0,-24l-315,0l0,24Z" class="g1_297" />
<path d="M46.5,725.5l0,-1" class="g2_297" />
<path d="M47.5,725.5l39,0" class="g2_297" />
<path d="M86.5,725.5l0,-1" class="g2_297" />
<path d="M88.5,725.5l400,0" class="g2_297" />
<path d="M488.5,725.5l0,-1" class="g2_297" />
<path d="M490.5,725.5l66,0" class="g2_297" />
<path d="M556.5,725.5l0,-1" class="g2_297" />
<path d="M557.5,725.5l330,0" class="g2_297" />
<path d="M887.5,725.5l0,-1" class="g2_297" />
<path d="M46.5,773.5l0,-48" class="g2_297" />
<path d="M86.5,773.5l0,-48" class="g2_297" />
<path d="M488.5,773.5l0,-48" class="g2_297" />
<path d="M556.5,773.5l0,-48" class="g2_297" />
<path d="M887.5,773.5l0,-48" class="g2_297" />
<path fill-rule="evenodd" d="M88,799l400,0l0,-24L88,775l0,24Z" class="g1_297" />
<g clip-path="url(#c8_297)">
<path fill-rule="evenodd" d="M95,798l386,0l0,-23L95,775l0,23Z" class="g1_297" />
</g>
<path fill-rule="evenodd" d="M490,799l66,0l0,-24l-66,0l0,24Z" class="g1_297" />
<g clip-path="url(#c9_297)">
<path fill-rule="evenodd" d="M497,798l51,0l0,-23l-51,0l0,23Z" class="g1_297" />
</g>
<path fill-rule="evenodd" d="M557,799l330,0l0,-24l-330,0l0,24Z" class="g1_297" />
<g clip-path="url(#c10_297)">
<path fill-rule="evenodd" d="M565,798l315,0l0,-23l-315,0l0,23Z" class="g1_297" />
</g>
<path d="M46.5,775.5l0,-2" class="g2_297" />
<path d="M86.5,775.5l0,-2" class="g2_297" />
<path d="M88.5,775.5l400,0" class="g2_297" />
<path d="M488.5,775.5l0,-2" class="g2_297" />
<path d="M490.5,775.5l66,0" class="g2_297" />
<path d="M556.5,775.5l0,-2" class="g2_297" />
<path d="M557.5,775.5l330,0" class="g2_297" />
<path d="M887.5,775.5l0,-2" class="g2_297" />
<path d="M46.5,799.5l0,-24" class="g2_297" />
<path d="M86.5,799.5l0,-24" class="g2_297" />
<path d="M488.5,799.5l0,-24" class="g2_297" />
<path d="M556.5,799.5l0,-24" class="g2_297" />
<path d="M887.5,799.5l0,-24" class="g2_297" />
<path fill-rule="evenodd" d="M88,825l400,0l0,-25L88,800l0,25Z" class="g1_297" />
<g clip-path="url(#c11_297)">
<path fill-rule="evenodd" d="M95,824l386,0l0,-24L95,800l0,24Z" class="g1_297" />
</g>
<path fill-rule="evenodd" d="M490,825l66,0l0,-25l-66,0l0,25Z" class="g1_297" />
<g clip-path="url(#c12_297)">
<path fill-rule="evenodd" d="M497,824l51,0l0,-24l-51,0l0,24Z" class="g1_297" />
</g>
<path fill-rule="evenodd" d="M557,825l330,0l0,-25l-330,0l0,25Z" class="g1_297" />
<g clip-path="url(#c13_297)">
<path fill-rule="evenodd" d="M565,824l315,0l0,-24l-315,0l0,24Z" class="g1_297" />
</g>
<path d="M46.5,800.5l0,-1" class="g2_297" />
<path d="M86.5,800.5l0,-1" class="g2_297" />
<path d="M88.5,800.5l400,0" class="g2_297" />
<path d="M488.5,800.5l0,-1" class="g2_297" />
<path d="M490.5,800.5l66,0" class="g2_297" />
<path d="M556.5,800.5l0,-1" class="g2_297" />
<path d="M557.5,800.5l330,0" class="g2_297" />
<path d="M887.5,800.5l0,-1" class="g2_297" />
<path d="M46.5,825.5l0,-25" class="g2_297" />
<path d="M86.5,825.5l0,-25" class="g2_297" />
<path d="M488.5,825.5l0,-25" class="g2_297" />
<path d="M556.5,825.5l0,-25" class="g2_297" />
<path d="M887.5,825.5l0,-25" class="g2_297" />
<path fill-rule="evenodd" d="M88,1074l39,0l0,-248l-39,0l0,248Z" class="g1_297" />
<g clip-path="url(#c14_297)">
<path fill-rule="evenodd" d="M95,1074l24,0l0,-248l-24,0l0,248Z" class="g1_297" />
</g>
<path fill-rule="evenodd" d="M129,1074l39,0l0,-248l-39,0l0,248Z" class="g1_297" />
<g clip-path="url(#c15_297)">
<path fill-rule="evenodd" d="M136,1074l24,0l0,-248l-24,0l0,248Z" class="g1_297" />
</g>
<path fill-rule="evenodd" d="M169,1074l40,0l0,-248l-40,0l0,248Z" class="g1_297" />
<g clip-path="url(#c16_297)">
<path fill-rule="evenodd" d="M177,1074l24,0l0,-248l-24,0l0,248Z" class="g1_297" />
</g>
<path fill-rule="evenodd" d="M210,850l278,0l0,-24l-278,0l0,24Z" class="g1_297" />
<g clip-path="url(#c17_297)">
<path fill-rule="evenodd" d="M218,850l263,0l0,-24l-263,0l0,24Z" class="g1_297" />
</g>
<path fill-rule="evenodd" d="M490,850l66,0l0,-24l-66,0l0,24Z" class="g1_297" />
<g clip-path="url(#c18_297)">
<path fill-rule="evenodd" d="M497,850l51,0l0,-24l-51,0l0,24Z" class="g1_297" />
</g>
<path fill-rule="evenodd" d="M557,850l330,0l0,-24l-330,0l0,24Z" class="g1_297" />
<g clip-path="url(#c19_297)">
<path fill-rule="evenodd" d="M565,850l315,0l0,-24l-315,0l0,24Z" class="g1_297" />
</g>
<path d="M46.5,826.5l0,-1" class="g2_297" />
<path d="M86.5,826.5l0,-1" class="g2_297" />
<path d="M88.5,826.5l39,0" class="g2_297" />
<path d="M127.5,826.5l0,-1" class="g2_297" />
<path d="M129.5,826.5l39,0" class="g2_297" />
<path d="M168.5,826.5l0,-1" class="g2_297" />
<path d="M169.5,826.5l40,0" class="g2_297" />
<path d="M209.5,826.5l0,-1" class="g2_297" />
<path d="M210.5,826.5l278,0" class="g2_297" />
<path d="M488.5,826.5l0,-1" class="g2_297" />
<path d="M490.5,826.5l66,0" class="g2_297" />
<path d="M556.5,826.5l0,-1" class="g2_297" />
<path d="M557.5,826.5l330,0" class="g2_297" />
<path d="M887.5,826.5l0,-1" class="g2_297" />
<path d="M46.5,850.5l0,-24" class="g2_297" />
<path d="M86.5,850.5l0,-24" class="g2_297" />
<path d="M127.5,850.5l0,-24" class="g2_297" />
<path d="M168.5,850.5l0,-24" class="g2_297" />
<path d="M209.5,850.5l0,-24" class="g2_297" />
<path d="M488.5,850.5l0,-24" class="g2_297" />
<path d="M556.5,850.5l0,-24" class="g2_297" />
<path d="M887.5,850.5l0,-24" class="g2_297" />
<path fill-rule="evenodd" d="M210,899l278,0l0,-47l-278,0l0,47Z" class="g1_297" />
<g clip-path="url(#c20_297)">
<path fill-rule="evenodd" d="M218,876l263,0l0,-24l-263,0l0,24Z" class="g1_297" />
</g>
<path fill-rule="evenodd" d="M490,899l66,0l0,-47l-66,0l0,47Z" class="g1_297" />
<g clip-path="url(#c21_297)">
<path fill-rule="evenodd" d="M497,876l51,0l0,-24l-51,0l0,24Z" class="g1_297" />
</g>
<path fill-rule="evenodd" d="M557,899l330,0l0,-47l-330,0l0,47Z" class="g1_297" />
<g clip-path="url(#c22_297)">
<path fill-rule="evenodd" d="M565,876l315,0l0,-24l-315,0l0,24Z" class="g1_297" />
</g>
<path fill-rule="evenodd" d="M565,899l315,0l0,-23l-315,0l0,23Z" class="g1_297" />
<path d="M46.5,852.5l0,-2" class="g2_297" />
<path d="M86.5,852.5l0,-2" class="g2_297" />
<path d="M127.5,852.5l0,-2" class="g2_297" />
<path d="M168.5,852.5l0,-2" class="g2_297" />
<path d="M209.5,852.5l0,-2" class="g2_297" />
<path d="M210.5,852.5l278,0" class="g2_297" />
<path d="M488.5,852.5l0,-2" class="g2_297" />
<path d="M490.5,852.5l66,0" class="g2_297" />
<path d="M556.5,852.5l0,-2" class="g2_297" />
<path d="M557.5,852.5l330,0" class="g2_297" />
<path d="M887.5,852.5l0,-2" class="g2_297" />
<path d="M46.5,899.5l0,-47" class="g2_297" />
<path d="M86.5,899.5l0,-47" class="g2_297" />
<path d="M127.5,899.5l0,-47" class="g2_297" />
<path d="M168.5,899.5l0,-47" class="g2_297" />
<path d="M209.5,899.5l0,-47" class="g2_297" />
<path d="M488.5,899.5l0,-47" class="g2_297" />
<path d="M556.5,899.5l0,-47" class="g2_297" />
<path d="M887.5,899.5l0,-47" class="g2_297" />
<path fill-rule="evenodd" d="M210,949l278,0l0,-48l-278,0l0,48Z" class="g1_297" />
<g clip-path="url(#c23_297)">
<path fill-rule="evenodd" d="M218,925l263,0l0,-24l-263,0l0,24Z" class="g1_297" />
</g>
<path fill-rule="evenodd" d="M490,949l66,0l0,-48l-66,0l0,48Z" class="g1_297" />
<g clip-path="url(#c24_297)">
<path fill-rule="evenodd" d="M497,925l51,0l0,-24l-51,0l0,24Z" class="g1_297" />
</g>
<path fill-rule="evenodd" d="M557,949l330,0l0,-48l-330,0l0,48Z" class="g1_297" />
<g clip-path="url(#c25_297)">
<path fill-rule="evenodd" d="M565,925l315,0l0,-24l-315,0l0,24Z" class="g1_297" />
<path fill-rule="evenodd" d="M565,949l315,0l0,-24l-315,0l0,24Z" class="g1_297" />
</g>
<path d="M46.5,901.5l0,-2" class="g2_297" />
<path d="M86.5,901.5l0,-2" class="g2_297" />
<path d="M127.5,901.5l0,-2" class="g2_297" />
<path d="M168.5,901.5l0,-2" class="g2_297" />
<path d="M209.5,901.5l0,-2" class="g2_297" />
<path d="M210.5,901.5l278,0" class="g2_297" />
<path d="M488.5,901.5l0,-2" class="g2_297" />
<path d="M490.5,901.5l66,0" class="g2_297" />
<path d="M556.5,901.5l0,-2" class="g2_297" />
<path d="M557.5,901.5l330,0" class="g2_297" />
<path d="M887.5,901.5l0,-2" class="g2_297" />
<path d="M46.5,949.5l0,-48" class="g2_297" />
<path d="M86.5,949.5l0,-48" class="g2_297" />
<path d="M127.5,949.5l0,-48" class="g2_297" />
<path d="M168.5,949.5l0,-48" class="g2_297" />
<path d="M209.5,949.5l0,-48" class="g2_297" />
<path d="M488.5,949.5l0,-48" class="g2_297" />
<path d="M556.5,949.5l0,-48" class="g2_297" />
<path d="M887.5,949.5l0,-48" class="g2_297" />
<path fill-rule="evenodd" d="M210,998l278,0l0,-48l-278,0l0,48Z" class="g1_297" />
<path fill-rule="evenodd" d="M218,974l263,0l0,-24l-263,0l0,24Z" class="g1_297" />
<path fill-rule="evenodd" d="M490,998l66,0l0,-48l-66,0l0,48Z" class="g1_297" />
<path fill-rule="evenodd" d="M497,974l51,0l0,-24l-51,0l0,24Z" class="g1_297" />
<path fill-rule="evenodd" d="M557,998l330,0l0,-48l-330,0l0,48Z" class="g1_297" />
<path fill-rule="evenodd" d="M565,974l315,0l0,-24l-315,0l0,24Z" class="g1_297" />
<g clip-path="url(#c26_297)">
<path fill-rule="evenodd" d="M565,998l315,0l0,-24l-315,0l0,24Z" class="g1_297" />
</g>
<path d="M46.5,950.5l0,-1" class="g2_297" />
<path d="M86.5,950.5l0,-1" class="g2_297" />
<path d="M127.5,950.5l0,-1" class="g2_297" />
<path d="M168.5,950.5l0,-1" class="g2_297" />
<path d="M209.5,950.5l0,-1" class="g2_297" />
<path d="M210.5,950.5l278,0" class="g2_297" />
<path d="M488.5,950.5l0,-1" class="g2_297" />
<path d="M490.5,950.5l66,0" class="g2_297" />
<path d="M556.5,950.5l0,-1" class="g2_297" />
<path d="M557.5,950.5l330,0" class="g2_297" />
<path d="M887.5,950.5l0,-1" class="g2_297" />
<path d="M46.5,998.5l0,-48" class="g2_297" />
<path d="M86.5,998.5l0,-48" class="g2_297" />
<path d="M127.5,998.5l0,-48" class="g2_297" />
<path d="M168.5,998.5l0,-48" class="g2_297" />
<path d="M209.5,998.5l0,-48" class="g2_297" />
<path d="M488.5,998.5l0,-48" class="g2_297" />
<path d="M556.5,998.5l0,-48" class="g2_297" />
<path d="M887.5,998.5l0,-48" class="g2_297" />
<path fill-rule="evenodd" d="M210,1023l278,0l0,-24l-278,0l0,24Z" class="g1_297" />
<g clip-path="url(#c27_297)">
<path fill-rule="evenodd" d="M218,1023l263,0l0,-24l-263,0l0,24Z" class="g1_297" />
</g>
<path fill-rule="evenodd" d="M490,1023l66,0l0,-24l-66,0l0,24Z" class="g1_297" />
<g clip-path="url(#c28_297)">
<path fill-rule="evenodd" d="M497,1023l51,0l0,-24l-51,0l0,24Z" class="g1_297" />
</g>
<path fill-rule="evenodd" d="M557,1023l330,0l0,-24l-330,0l0,24Z" class="g1_297" />
<g clip-path="url(#c29_297)">
<path fill-rule="evenodd" d="M565,1023l315,0l0,-24l-315,0l0,24Z" class="g1_297" />
</g>
<path d="M46.5,999.5l0,-1" class="g2_297" />
<path d="M86.5,999.5l0,-1" class="g2_297" />
<path d="M127.5,999.5l0,-1" class="g2_297" />
<path d="M168.5,999.5l0,-1" class="g2_297" />
<path d="M209.5,999.5l0,-1" class="g2_297" />
<path d="M210.5,999.5l278,0" class="g2_297" />
<path d="M488.5,999.5l0,-1" class="g2_297" />
<path d="M490.5,999.5l66,0" class="g2_297" />
<path d="M556.5,999.5l0,-1" class="g2_297" />
<path d="M557.5,999.5l330,0" class="g2_297" />
<path d="M887.5,999.5l0,-1" class="g2_297" />
<path d="M46.5,1023.5l0,-24" class="g2_297" />
<path d="M86.5,1023.5l0,-24" class="g2_297" />
<path d="M127.5,1023.5l0,-24" class="g2_297" />
<path d="M168.5,1023.5l0,-24" class="g2_297" />
<path d="M209.5,1023.5l0,-24" class="g2_297" />
<path d="M488.5,1023.5l0,-24" class="g2_297" />
<path d="M556.5,1023.5l0,-24" class="g2_297" />
<path d="M887.5,1023.5l0,-24" class="g2_297" />
<path fill-rule="evenodd" d="M210,1049l278,0l0,-24l-278,0l0,24Z" class="g1_297" />
<g clip-path="url(#c30_297)">
<path fill-rule="evenodd" d="M218,1049l263,0l0,-24l-263,0l0,24Z" class="g1_297" />
</g>
<path fill-rule="evenodd" d="M490,1049l66,0l0,-24l-66,0l0,24Z" class="g1_297" />
<g clip-path="url(#c31_297)">
<path fill-rule="evenodd" d="M497,1049l51,0l0,-24l-51,0l0,24Z" class="g1_297" />
</g>
<path fill-rule="evenodd" d="M557,1049l330,0l0,-24l-330,0l0,24Z" class="g1_297" />
<g clip-path="url(#c32_297)">
<path fill-rule="evenodd" d="M565,1049l315,0l0,-24l-315,0l0,24Z" class="g1_297" />
</g>
<path d="M46.5,1025.5l0,-2" class="g2_297" />
<path d="M86.5,1025.5l0,-2" class="g2_297" />
<path d="M127.5,1025.5l0,-2" class="g2_297" />
<path d="M168.5,1025.5l0,-2" class="g2_297" />
<path d="M209.5,1025.5l0,-2" class="g2_297" />
<path d="M210.5,1025.5l278,0" class="g2_297" />
<path d="M488.5,1025.5l0,-2" class="g2_297" />
<path d="M490.5,1025.5l66,0" class="g2_297" />
<path d="M556.5,1025.5l0,-2" class="g2_297" />
<path d="M557.5,1025.5l330,0" class="g2_297" />
<path d="M887.5,1025.5l0,-2" class="g2_297" />
<path d="M46.5,1049.5l0,-24" class="g2_297" />
<path d="M86.5,1049.5l0,-24" class="g2_297" />
<path d="M127.5,1049.5l0,-24" class="g2_297" />
<path d="M168.5,1049.5l0,-24" class="g2_297" />
<path d="M209.5,1049.5l0,-24" class="g2_297" />
<path d="M488.5,1049.5l0,-24" class="g2_297" />
<path d="M556.5,1049.5l0,-24" class="g2_297" />
<path d="M887.5,1049.5l0,-24" class="g2_297" />
<path fill-rule="evenodd" d="M210,1074l278,0l0,-24l-278,0l0,24Z" class="g1_297" />
<g clip-path="url(#c33_297)">
<path fill-rule="evenodd" d="M218,1074l263,0l0,-24l-263,0l0,24Z" class="g1_297" />
</g>
<path fill-rule="evenodd" d="M490,1074l66,0l0,-24l-66,0l0,24Z" class="g1_297" />
<g clip-path="url(#c34_297)">
<path fill-rule="evenodd" d="M497,1074l51,0l0,-24l-51,0l0,24Z" class="g1_297" />
</g>
<path fill-rule="evenodd" d="M557,1074l330,0l0,-24l-330,0l0,24Z" class="g1_297" />
<g clip-path="url(#c35_297)">
<path fill-rule="evenodd" d="M565,1074l315,0l0,-24l-315,0l0,24Z" class="g1_297" />
</g>
<path d="M46.5,1050.5l0,-1" class="g2_297" />
<path d="M86.5,1050.5l0,-1" class="g2_297" />
<path d="M127.5,1050.5l0,-1" class="g2_297" />
<path d="M168.5,1050.5l0,-1" class="g2_297" />
<path d="M209.5,1050.5l0,-1" class="g2_297" />
<path d="M210.5,1050.5l278,0" class="g2_297" />
<path d="M488.5,1050.5l0,-1" class="g2_297" />
<path d="M490.5,1050.5l66,0" class="g2_297" />
<path d="M556.5,1050.5l0,-1" class="g2_297" />
<path d="M557.5,1050.5l330,0" class="g2_297" />
<path d="M887.5,1050.5l0,-1" class="g2_297" />
<path d="M46.5,1074.5l0,-24" class="g2_297" />
<path d="M46.5,1075.5l0,-1" class="g2_297" />
<path d="M46.5,1075.5l0,-1" class="g2_297" />
<path d="M47.5,1075.5l39,0" class="g2_297" />
<path d="M86.5,1074.5l0,-24" class="g2_297" />
<path d="M86.5,1075.5l0,-1" class="g2_297" />
<path d="M88.5,1075.5l39,0" class="g2_297" />
<path d="M127.5,1074.5l0,-24" class="g2_297" />
<path d="M127.5,1075.5l0,-1" class="g2_297" />
<path d="M129.5,1075.5l39,0" class="g2_297" />
<path d="M168.5,1074.5l0,-24" class="g2_297" />
<path d="M168.5,1075.5l0,-1" class="g2_297" />
<path d="M169.5,1075.5l40,0" class="g2_297" />
<path d="M209.5,1074.5l0,-24" class="g2_297" />
<path d="M209.5,1075.5l0,-1" class="g2_297" />
<path d="M210.5,1075.5l278,0" class="g2_297" />
<path d="M488.5,1074.5l0,-24" class="g2_297" />
<path d="M488.5,1075.5l0,-1" class="g2_297" />
<path d="M490.5,1075.5l66,0" class="g2_297" />
<path d="M556.5,1074.5l0,-24" class="g2_297" />
<path d="M556.5,1075.5l0,-1" class="g2_297" />
<path d="M557.5,1075.5l330,0" class="g2_297" />
<path d="M887.5,1074.5l0,-24" class="g2_297" />
<path d="M887.5,1075.5l0,-1" class="g2_297" />
<path d="M887.5,1075.5l0,-1" class="g2_297" />
</svg>