<?xml version="1.0" encoding="UTF-8" standalone="no"?>
<!DOCTYPE svg PUBLIC "-//W3C//DTD SVG 1.1//EN"
"http://www.w3.org/Graphics/SVG/1.1/DTD/svg11.dtd">
<svg version="1.1" xmlns="http://www.w3.org/2000/svg" xmlns:xlink="http://www.w3.org/1999/xlink">
<defs>
<clipPath id="c0_429"><path d="M47.5,354.5l0,-23l102,0l0,23Z" /></clipPath>
<clipPath id="c1_429"><path d="M151.5,354.5l0,-23l736,0l0,23Z" /></clipPath>
<clipPath id="c2_429"><path d="M47.5,380.5l0,-24l102,0l0,24Z" /></clipPath>
<clipPath id="c3_429"><path d="M151.5,380.5l0,-24l736,0l0,24Z" /></clipPath>
<clipPath id="c4_429"><path d="M47.5,636.5l0,-182l840,0l0,182Z" /></clipPath>
<clipPath id="c5_429"><path d="M47.5,806.5l0,-96l840,0l0,96Z" /></clipPath>
<clipPath id="c6_429"><path d="M47.5,1076.5l0,-23l840,0l0,23Z" /></clipPath>
<style type="text/css"><![CDATA[
.g2_429{
fill: #DBE5F1;
}
.g5_429{
fill: none;
stroke: #F0F0E0;
stroke-width: 1;
stroke-linecap: butt;
stroke-linejoin: miter;
}
.g3_429{
fill: none;
stroke: #7E7E7E;
stroke-width: 1;
stroke-linecap: butt;
stroke-linejoin: miter;
}
.g4_429{
fill: #F1F1F1;
}
.g1_429{
fill: none;
stroke: #0000FF;
stroke-width: 1;
stroke-linecap: butt;
stroke-linejoin: miter;
}
]]></style>
</defs>
<path d="M371.5,324.5l163,0" class="g1_429" />
<path fill-rule="evenodd" d="M47,354l102,0l0,-23L47,331l0,23Z" class="g2_429" />
<g clip-path="url(#c0_429)">
<path fill-rule="evenodd" d="M55,354l87,0l0,-23l-87,0l0,23Z" class="g2_429" />
</g>
<path fill-rule="evenodd" d="M151,354l736,0l0,-23l-736,0l0,23Z" class="g2_429" />
<g clip-path="url(#c1_429)">
<path fill-rule="evenodd" d="M158,354l722,0l0,-23l-722,0l0,23Z" class="g2_429" />
</g>
<path d="M46.5,331.5l0,-2" class="g3_429" />
<path d="M46.5,331.5l0,-2" class="g3_429" />
<path d="M47.5,331.5l102,0" class="g3_429" />
<path d="M149.5,331.5l0,-2" class="g3_429" />
<path d="M151.5,331.5l736,0" class="g3_429" />
<path d="M887.5,331.5l0,-2" class="g3_429" />
<path d="M887.5,331.5l0,-2" class="g3_429" />
<path d="M46.5,354.5l0,-23" class="g3_429" />
<path d="M149.5,354.5l0,-23" class="g3_429" />
<path d="M887.5,354.5l0,-23" class="g3_429" />
<path fill-rule="evenodd" d="M47,380l102,0l0,-24L47,356l0,24Z" class="g4_429" />
<g clip-path="url(#c2_429)">
<path fill-rule="evenodd" d="M55,380l87,0l0,-24l-87,0l0,24Z" class="g4_429" />
</g>
<path fill-rule="evenodd" d="M151,380l736,0l0,-24l-736,0l0,24Z" class="g4_429" />
<g clip-path="url(#c3_429)">
<path fill-rule="evenodd" d="M158,380l722,0l0,-24l-722,0l0,24Z" class="g4_429" />
</g>
<path d="M46.5,356.5l0,-2" class="g3_429" />
<path d="M47.5,356.5l102,0" class="g3_429" />
<path d="M149.5,356.5l0,-2" class="g3_429" />
<path d="M151.5,356.5l736,0" class="g3_429" />
<path d="M887.5,356.5l0,-2" class="g3_429" />
<path d="M46.5,380.5l0,-24" class="g3_429" />
<path d="M46.5,381.5l0,-1" class="g3_429" />
<path d="M46.5,381.5l0,-1" class="g3_429" />
<path d="M47.5,381.5l102,0" class="g3_429" />
<path d="M149.5,380.5l0,-24" class="g3_429" />
<path d="M149.5,381.5l0,-1" class="g3_429" />
<path d="M151.5,381.5l736,0" class="g3_429" />
<path d="M887.5,380.5l0,-24" class="g3_429" />
<path d="M887.5,381.5l0,-1" class="g3_429" />
<path d="M887.5,381.5l0,-1" class="g3_429" />
<path fill-rule="evenodd" d="M47,636l840,0l0,-182L47,454l0,182Z" class="g4_429" />
<path fill-rule="evenodd" d="M55,486l825,0l0,-32L55,454l0,32Z" class="g4_429" />
<g clip-path="url(#c4_429)">
<path d="M45.5,456.5l0,-2" class="g5_429" />
<path d="M45.5,456.5l0,-2" class="g5_429" />
<path d="M46.5,456.5l842,0" class="g5_429" />
<path d="M888.5,456.5l0,-2" class="g5_429" />
<path d="M888.5,456.5l0,-2" class="g5_429" />
<path d="M45.5,486.5l0,-30" class="g5_429" />
<path d="M888.5,486.5l0,-30" class="g5_429" />
</g>
<path fill-rule="evenodd" d="M55,509l825,0l0,-23L55,486l0,23Z" class="g4_429" />
<g clip-path="url(#c4_429)">
<path d="M45.5,509.5l0,-23" class="g5_429" />
<path d="M888.5,509.5l0,-23" class="g5_429" />
</g>
<path fill-rule="evenodd" d="M55,533l825,0l0,-24L55,509l0,24Z" class="g4_429" />
<g clip-path="url(#c4_429)">
<path d="M45.5,533.5l0,-24" class="g5_429" />
<path d="M888.5,533.5l0,-24" class="g5_429" />
</g>
<path fill-rule="evenodd" d="M55,557l825,0l0,-24L55,533l0,24Z" class="g4_429" />
<g clip-path="url(#c4_429)">
<path d="M45.5,557.5l0,-24" class="g5_429" />
<path d="M888.5,557.5l0,-24" class="g5_429" />
</g>
<path fill-rule="evenodd" d="M55,581l825,0l0,-24L55,557l0,24Z" class="g4_429" />
<g clip-path="url(#c4_429)">
<path d="M45.5,581.5l0,-24" class="g5_429" />
<path d="M888.5,581.5l0,-24" class="g5_429" />
</g>
<path fill-rule="evenodd" d="M55,605l825,0l0,-24L55,581l0,24Z" class="g4_429" />
<g clip-path="url(#c4_429)">
<path d="M45.5,605.5l0,-24" class="g5_429" />
<path d="M888.5,605.5l0,-24" class="g5_429" />
</g>
<path fill-rule="evenodd" d="M55,636l825,0l0,-31L55,605l0,31Z" class="g4_429" />
<g clip-path="url(#c4_429)">
<path d="M45.5,636.5l0,-1" class="g5_429" />
<path d="M45.5,636.5l0,-1" class="g5_429" />
<path d="M46.5,636.5l842,0" class="g5_429" />
<path d="M888.5,636.5l0,-1" class="g5_429" />
<path d="M888.5,636.5l0,-1" class="g5_429" />
<path d="M45.5,635.5l0,-30" class="g5_429" />
<path d="M888.5,635.5l0,-30" class="g5_429" />
</g>
<path d="M46.5,454.5l0,-1" class="g3_429" />
<path d="M46.5,454.5l0,-1" class="g3_429" />
<path d="M47.5,454.5l840,0" class="g3_429" />
<path d="M887.5,454.5l0,-1" class="g3_429" />
<path d="M887.5,454.5l0,-1" class="g3_429" />
<path d="M46.5,636.5l0,-182" class="g3_429" />
<path d="M46.5,637.5l0,-1" class="g3_429" />
<path d="M46.5,637.5l0,-1" class="g3_429" />
<path d="M47.5,637.5l840,0" class="g3_429" />
<path d="M887.5,636.5l0,-182" class="g3_429" />
<path d="M887.5,637.5l0,-1" class="g3_429" />
<path d="M887.5,637.5l0,-1" class="g3_429" />
<path fill-rule="evenodd" d="M47,806l840,0l0,-96L47,710l0,96Z" class="g4_429" />
<g clip-path="url(#c5_429)">
<path fill-rule="evenodd" d="M55,734l825,0l0,-24L55,710l0,24Z" class="g4_429" />
</g>
<path fill-rule="evenodd" d="M55,758l825,0l0,-24L55,734l0,24Z" class="g4_429" />
<path fill-rule="evenodd" d="M55,782l825,0l0,-24L55,758l0,24Z" class="g4_429" />
<path fill-rule="evenodd" d="M55,806l825,0l0,-24L55,782l0,24Z" class="g4_429" />
<path d="M46.5,710.5l0,-1" class="g3_429" />
<path d="M46.5,710.5l0,-1" class="g3_429" />
<path d="M47.5,710.5l840,0" class="g3_429" />
<path d="M887.5,710.5l0,-1" class="g3_429" />
<path d="M887.5,710.5l0,-1" class="g3_429" />
<path d="M46.5,806.5l0,-96" class="g3_429" />
<path d="M46.5,807.5l0,-1" class="g3_429" />
<path d="M46.5,807.5l0,-1" class="g3_429" />
<path d="M47.5,807.5l840,0" class="g3_429" />
<path d="M887.5,806.5l0,-96" class="g3_429" />
<path d="M887.5,807.5l0,-1" class="g3_429" />
<path d="M887.5,807.5l0,-1" class="g3_429" />
<path fill-rule="evenodd" d="M47,1076l840,0l0,-23l-840,0l0,23Z" class="g4_429" />
<g clip-path="url(#c6_429)">
<path fill-rule="evenodd" d="M55,1076l825,0l0,-23l-825,0l0,23Z" class="g4_429" />
</g>
<path d="M46.5,1052.5l0,-1" class="g3_429" />
<path d="M46.5,1052.5l0,-1" class="g3_429" />
<path d="M47.5,1052.5l840,0" class="g3_429" />
<path d="M887.5,1052.5l0,-1" class="g3_429" />
<path d="M887.5,1052.5l0,-1" class="g3_429" />
<path d="M46.5,1076.5l0,-24" class="g3_429" />
<path d="M46.5,1078.5l0,-2" class="g3_429" />
<path d="M46.5,1078.5l0,-2" class="g3_429" />
<path d="M47.5,1078.5l840,0" class="g3_429" />
<path d="M887.5,1076.5l0,-24" class="g3_429" />
<path d="M887.5,1078.5l0,-2" class="g3_429" />
<path d="M887.5,1078.5l0,-2" class="g3_429" />
</svg>