<?xml version="1.0" encoding="UTF-8" standalone="no"?>
<!DOCTYPE svg PUBLIC "-//W3C//DTD SVG 1.1//EN"
"http://www.w3.org/Graphics/SVG/1.1/DTD/svg11.dtd">
<svg version="1.1" xmlns="http://www.w3.org/2000/svg" xmlns:xlink="http://www.w3.org/1999/xlink">
<defs>
<clipPath id="c0_472"><path d="M47.5,159.5l0,-24l177,0l0,24Z" /></clipPath>
<clipPath id="c1_472"><path d="M226.5,159.5l0,-24l162,0l0,24Z" /></clipPath>
<clipPath id="c2_472"><path d="M390.5,159.5l0,-24l163,0l0,24Z" /></clipPath>
<clipPath id="c3_472"><path d="M554.5,159.5l0,-24l163,0l0,24Z" /></clipPath>
<clipPath id="c4_472"><path d="M719.5,159.5l0,-24l168,0l0,24Z" /></clipPath>
<clipPath id="c5_472"><path d="M47.5,184.5l0,-24l177,0l0,24Z" /></clipPath>
<clipPath id="c6_472"><path d="M226.5,184.5l0,-24l162,0l0,24Z" /></clipPath>
<clipPath id="c7_472"><path d="M390.5,184.5l0,-24l163,0l0,24Z" /></clipPath>
<clipPath id="c8_472"><path d="M554.5,184.5l0,-24l163,0l0,24Z" /></clipPath>
<clipPath id="c9_472"><path d="M719.5,184.5l0,-24l168,0l0,24Z" /></clipPath>
<clipPath id="c10_472"><path d="M47.5,296.5l0,-24l473,0l0,24Z" /></clipPath>
<clipPath id="c11_472"><path d="M522.5,296.5l0,-24l78,0l0,24Z" /></clipPath>
<clipPath id="c12_472"><path d="M602.5,296.5l0,-24l60,0l0,24Z" /></clipPath>
<clipPath id="c13_472"><path d="M663.5,296.5l0,-24l224,0l0,24Z" /></clipPath>
<clipPath id="c14_472"><path d="M47.5,1097.5l0,-799l39,0l0,799Z" /></clipPath>
<clipPath id="c15_472"><path d="M88.5,345.5l0,-47l432,0l0,47Z" /></clipPath>
<clipPath id="c16_472"><path d="M522.5,345.5l0,-47l78,0l0,47Z" /></clipPath>
<clipPath id="c17_472"><path d="M602.5,345.5l0,-47l60,0l0,47Z" /></clipPath>
<clipPath id="c18_472"><path d="M663.5,345.5l0,-47l224,0l0,47Z" /></clipPath>
<clipPath id="c19_472"><path d="M88.5,1097.5l0,-750l39,0l0,750Z" /></clipPath>
<clipPath id="c20_472"><path d="M129.5,422.5l0,-75l39,0l0,75Z" /></clipPath>
<clipPath id="c21_472"><path d="M169.5,371.5l0,-24l351,0l0,24Z" /></clipPath>
<clipPath id="c22_472"><path d="M522.5,371.5l0,-24l78,0l0,24Z" /></clipPath>
<clipPath id="c23_472"><path d="M602.5,371.5l0,-24l60,0l0,24Z" /></clipPath>
<clipPath id="c24_472"><path d="M663.5,371.5l0,-24l224,0l0,24Z" /></clipPath>
<clipPath id="c25_472"><path d="M169.5,422.5l0,-50l351,0l0,50Z" /></clipPath>
<clipPath id="c26_472"><path d="M522.5,422.5l0,-50l78,0l0,50Z" /></clipPath>
<clipPath id="c27_472"><path d="M602.5,422.5l0,-50l60,0l0,50Z" /></clipPath>
<clipPath id="c28_472"><path d="M663.5,422.5l0,-50l224,0l0,50Z" /></clipPath>
<clipPath id="c29_472"><path d="M663.5,977.5l0,-239l224,0l0,239Z" /></clipPath>
<clipPath id="c30_472"><path d="M663.5,1097.5l0,-119l224,0l0,119Z" /></clipPath>
<style type="text/css"><![CDATA[
.g2_472{
fill: none;
stroke: #7E7E7E;
stroke-width: 1;
stroke-linecap: butt;
stroke-linejoin: miter;
}
.g3_472{
fill: #F1F1F1;
}
.g1_472{
fill: #DBE5F1;
}
]]></style>
</defs>
<path fill-rule="evenodd" d="M47,159l177,0l0,-24L47,135l0,24Z" class="g1_472" />
<g clip-path="url(#c0_472)">
<path fill-rule="evenodd" d="M55,159l162,0l0,-24L55,135l0,24Z" class="g1_472" />
</g>
<path fill-rule="evenodd" d="M226,159l162,0l0,-24l-162,0l0,24Z" class="g1_472" />
<g clip-path="url(#c1_472)">
<path fill-rule="evenodd" d="M233,159l148,0l0,-24l-148,0l0,24Z" class="g1_472" />
</g>
<path fill-rule="evenodd" d="M390,159l163,0l0,-24l-163,0l0,24Z" class="g1_472" />
<g clip-path="url(#c2_472)">
<path fill-rule="evenodd" d="M397,159l148,0l0,-24l-148,0l0,24Z" class="g1_472" />
</g>
<path fill-rule="evenodd" d="M554,159l163,0l0,-24l-163,0l0,24Z" class="g1_472" />
<g clip-path="url(#c3_472)">
<path fill-rule="evenodd" d="M562,159l148,0l0,-24l-148,0l0,24Z" class="g1_472" />
</g>
<path fill-rule="evenodd" d="M719,159l168,0l0,-24l-168,0l0,24Z" class="g1_472" />
<g clip-path="url(#c4_472)">
<path fill-rule="evenodd" d="M726,159l154,0l0,-24l-154,0l0,24Z" class="g1_472" />
</g>
<path d="M46.5,135.5l0,-2" class="g2_472" />
<path d="M46.5,135.5l0,-2" class="g2_472" />
<path d="M47.5,135.5l177,0" class="g2_472" />
<path d="M224.5,135.5l0,-2" class="g2_472" />
<path d="M226.5,135.5l162,0" class="g2_472" />
<path d="M388.5,135.5l0,-2" class="g2_472" />
<path d="M390.5,135.5l163,0" class="g2_472" />
<path d="M553.5,135.5l0,-2" class="g2_472" />
<path d="M554.5,135.5l163,0" class="g2_472" />
<path d="M717.5,135.5l0,-2" class="g2_472" />
<path d="M719.5,135.5l168,0" class="g2_472" />
<path d="M887.5,135.5l0,-2" class="g2_472" />
<path d="M887.5,135.5l0,-2" class="g2_472" />
<path d="M46.5,159.5l0,-24" class="g2_472" />
<path d="M224.5,159.5l0,-24" class="g2_472" />
<path d="M388.5,159.5l0,-24" class="g2_472" />
<path d="M553.5,159.5l0,-24" class="g2_472" />
<path d="M717.5,159.5l0,-24" class="g2_472" />
<path d="M887.5,159.5l0,-24" class="g2_472" />
<path fill-rule="evenodd" d="M47,184l177,0l0,-24L47,160l0,24Z" class="g3_472" />
<g clip-path="url(#c5_472)">
<path fill-rule="evenodd" d="M55,184l162,0l0,-24L55,160l0,24Z" class="g3_472" />
</g>
<path fill-rule="evenodd" d="M226,184l162,0l0,-24l-162,0l0,24Z" class="g3_472" />
<g clip-path="url(#c6_472)">
<path fill-rule="evenodd" d="M233,184l148,0l0,-24l-148,0l0,24Z" class="g3_472" />
</g>
<path fill-rule="evenodd" d="M390,184l163,0l0,-24l-163,0l0,24Z" class="g3_472" />
<g clip-path="url(#c7_472)">
<path fill-rule="evenodd" d="M397,184l148,0l0,-24l-148,0l0,24Z" class="g3_472" />
</g>
<path fill-rule="evenodd" d="M554,184l163,0l0,-24l-163,0l0,24Z" class="g3_472" />
<g clip-path="url(#c8_472)">
<path fill-rule="evenodd" d="M562,184l148,0l0,-24l-148,0l0,24Z" class="g3_472" />
</g>
<path fill-rule="evenodd" d="M719,184l168,0l0,-24l-168,0l0,24Z" class="g3_472" />
<g clip-path="url(#c9_472)">
<path fill-rule="evenodd" d="M726,184l154,0l0,-24l-154,0l0,24Z" class="g3_472" />
</g>
<path d="M46.5,160.5l0,-1" class="g2_472" />
<path d="M47.5,160.5l177,0" class="g2_472" />
<path d="M224.5,160.5l0,-1" class="g2_472" />
<path d="M226.5,160.5l162,0" class="g2_472" />
<path d="M388.5,160.5l0,-1" class="g2_472" />
<path d="M390.5,160.5l163,0" class="g2_472" />
<path d="M553.5,160.5l0,-1" class="g2_472" />
<path d="M554.5,160.5l163,0" class="g2_472" />
<path d="M717.5,160.5l0,-1" class="g2_472" />
<path d="M719.5,160.5l168,0" class="g2_472" />
<path d="M887.5,160.5l0,-1" class="g2_472" />
<path d="M46.5,184.5l0,-24" class="g2_472" />
<path d="M46.5,186.5l0,-2" class="g2_472" />
<path d="M46.5,186.5l0,-2" class="g2_472" />
<path d="M47.5,186.5l177,0" class="g2_472" />
<path d="M224.5,184.5l0,-24" class="g2_472" />
<path d="M224.5,186.5l0,-2" class="g2_472" />
<path d="M226.5,186.5l162,0" class="g2_472" />
<path d="M388.5,184.5l0,-24" class="g2_472" />
<path d="M388.5,186.5l0,-2" class="g2_472" />
<path d="M390.5,186.5l163,0" class="g2_472" />
<path d="M553.5,184.5l0,-24" class="g2_472" />
<path d="M553.5,186.5l0,-2" class="g2_472" />
<path d="M554.5,186.5l163,0" class="g2_472" />
<path d="M717.5,184.5l0,-24" class="g2_472" />
<path d="M717.5,186.5l0,-2" class="g2_472" />
<path d="M719.5,186.5l168,0" class="g2_472" />
<path d="M887.5,184.5l0,-24" class="g2_472" />
<path d="M887.5,186.5l0,-2" class="g2_472" />
<path d="M887.5,186.5l0,-2" class="g2_472" />
<path fill-rule="evenodd" d="M47,296l473,0l0,-24L47,272l0,24Z" class="g1_472" />
<g clip-path="url(#c10_472)">
<path fill-rule="evenodd" d="M55,296l458,0l0,-24L55,272l0,24Z" class="g1_472" />
</g>
<path fill-rule="evenodd" d="M522,296l78,0l0,-24l-78,0l0,24Z" class="g1_472" />
<g clip-path="url(#c11_472)">
<path fill-rule="evenodd" d="M529,296l64,0l0,-24l-64,0l0,24Z" class="g1_472" />
</g>
<path fill-rule="evenodd" d="M602,296l60,0l0,-24l-60,0l0,24Z" class="g1_472" />
<g clip-path="url(#c12_472)">
<path fill-rule="evenodd" d="M609,296l45,0l0,-24l-45,0l0,24Z" class="g1_472" />
</g>
<path fill-rule="evenodd" d="M663,296l224,0l0,-24l-224,0l0,24Z" class="g1_472" />
<g clip-path="url(#c13_472)">
<path fill-rule="evenodd" d="M671,296l209,0l0,-24l-209,0l0,24Z" class="g1_472" />
</g>
<path d="M46.5,272.5l0,-2" class="g2_472" />
<path d="M46.5,272.5l0,-2" class="g2_472" />
<path d="M47.5,272.5l473,0" class="g2_472" />
<path d="M520.5,272.5l0,-2" class="g2_472" />
<path d="M522.5,272.5l78,0" class="g2_472" />
<path d="M600.5,272.5l0,-2" class="g2_472" />
<path d="M602.5,272.5l60,0" class="g2_472" />
<path d="M662.5,272.5l0,-2" class="g2_472" />
<path d="M663.5,272.5l224,0" class="g2_472" />
<path d="M887.5,272.5l0,-2" class="g2_472" />
<path d="M887.5,272.5l0,-2" class="g2_472" />
<path d="M46.5,296.5l0,-24" class="g2_472" />
<path d="M520.5,296.5l0,-24" class="g2_472" />
<path d="M600.5,296.5l0,-24" class="g2_472" />
<path d="M662.5,296.5l0,-24" class="g2_472" />
<path d="M887.5,296.5l0,-24" class="g2_472" />
<path fill-rule="evenodd" d="M47,1097l39,0L86,298l-39,0l0,799Z" class="g3_472" />
<g clip-path="url(#c14_472)">
<path fill-rule="evenodd" d="M55,1097l23,0L78,298l-23,0l0,799Z" class="g3_472" />
</g>
<path fill-rule="evenodd" d="M88,345l432,0l0,-47L88,298l0,47Z" class="g3_472" />
<g clip-path="url(#c15_472)">
<path fill-rule="evenodd" d="M95,322l418,0l0,-24L95,298l0,24Z" class="g3_472" />
</g>
<path fill-rule="evenodd" d="M522,345l78,0l0,-47l-78,0l0,47Z" class="g3_472" />
<g clip-path="url(#c16_472)">
<path fill-rule="evenodd" d="M529,322l64,0l0,-24l-64,0l0,24Z" class="g3_472" />
</g>
<path fill-rule="evenodd" d="M602,345l60,0l0,-47l-60,0l0,47Z" class="g3_472" />
<g clip-path="url(#c17_472)">
<path fill-rule="evenodd" d="M609,322l45,0l0,-24l-45,0l0,24Z" class="g3_472" />
</g>
<path fill-rule="evenodd" d="M663,345l224,0l0,-47l-224,0l0,47Z" class="g3_472" />
<g clip-path="url(#c18_472)">
<path fill-rule="evenodd" d="M671,322l209,0l0,-24l-209,0l0,24Z" class="g3_472" />
</g>
<path fill-rule="evenodd" d="M671,345l209,0l0,-23l-209,0l0,23Z" class="g3_472" />
<path d="M46.5,298.5l0,-2" class="g2_472" />
<path d="M47.5,298.5l39,0" class="g2_472" />
<path d="M86.5,298.5l0,-2" class="g2_472" />
<path d="M88.5,298.5l432,0" class="g2_472" />
<path d="M520.5,298.5l0,-2" class="g2_472" />
<path d="M522.5,298.5l78,0" class="g2_472" />
<path d="M600.5,298.5l0,-2" class="g2_472" />
<path d="M602.5,298.5l60,0" class="g2_472" />
<path d="M662.5,298.5l0,-2" class="g2_472" />
<path d="M663.5,298.5l224,0" class="g2_472" />
<path d="M887.5,298.5l0,-2" class="g2_472" />
<path d="M46.5,345.5l0,-47" class="g2_472" />
<path d="M86.5,345.5l0,-47" class="g2_472" />
<path d="M520.5,345.5l0,-47" class="g2_472" />
<path d="M600.5,345.5l0,-47" class="g2_472" />
<path d="M662.5,345.5l0,-47" class="g2_472" />
<path d="M887.5,345.5l0,-47" class="g2_472" />
<path fill-rule="evenodd" d="M88,1097l39,0l0,-750l-39,0l0,750Z" class="g3_472" />
<g clip-path="url(#c19_472)">
<path fill-rule="evenodd" d="M96,1097l24,0l0,-750l-24,0l0,750Z" class="g3_472" />
</g>
<path fill-rule="evenodd" d="M129,422l39,0l0,-75l-39,0l0,75Z" class="g3_472" />
<g clip-path="url(#c20_472)">
<path fill-rule="evenodd" d="M136,422l24,0l0,-75l-24,0l0,75Z" class="g3_472" />
</g>
<path fill-rule="evenodd" d="M169,371l351,0l0,-24l-351,0l0,24Z" class="g3_472" />
<g clip-path="url(#c21_472)">
<path fill-rule="evenodd" d="M177,371l336,0l0,-24l-336,0l0,24Z" class="g3_472" />
</g>
<path fill-rule="evenodd" d="M522,371l78,0l0,-24l-78,0l0,24Z" class="g3_472" />
<g clip-path="url(#c22_472)">
<path fill-rule="evenodd" d="M529,371l64,0l0,-24l-64,0l0,24Z" class="g3_472" />
</g>
<path fill-rule="evenodd" d="M602,371l60,0l0,-24l-60,0l0,24Z" class="g3_472" />
<g clip-path="url(#c23_472)">
<path fill-rule="evenodd" d="M609,371l45,0l0,-24l-45,0l0,24Z" class="g3_472" />
</g>
<path fill-rule="evenodd" d="M663,371l224,0l0,-24l-224,0l0,24Z" class="g3_472" />
<g clip-path="url(#c24_472)">
<path fill-rule="evenodd" d="M671,371l209,0l0,-24l-209,0l0,24Z" class="g3_472" />
</g>
<path d="M46.5,347.5l0,-2" class="g2_472" />
<path d="M86.5,347.5l0,-2" class="g2_472" />
<path d="M88.5,347.5l39,0" class="g2_472" />
<path d="M127.5,347.5l0,-2" class="g2_472" />
<path d="M129.5,347.5l39,0" class="g2_472" />
<path d="M168.5,347.5l0,-2" class="g2_472" />
<path d="M169.5,347.5l351,0" class="g2_472" />
<path d="M520.5,347.5l0,-2" class="g2_472" />
<path d="M522.5,347.5l78,0" class="g2_472" />
<path d="M600.5,347.5l0,-2" class="g2_472" />
<path d="M602.5,347.5l60,0" class="g2_472" />
<path d="M662.5,347.5l0,-2" class="g2_472" />
<path d="M663.5,347.5l224,0" class="g2_472" />
<path d="M887.5,347.5l0,-2" class="g2_472" />
<path d="M46.5,371.5l0,-24" class="g2_472" />
<path d="M86.5,371.5l0,-24" class="g2_472" />
<path d="M127.5,371.5l0,-24" class="g2_472" />
<path d="M168.5,371.5l0,-24" class="g2_472" />
<path d="M520.5,371.5l0,-24" class="g2_472" />
<path d="M600.5,371.5l0,-24" class="g2_472" />
<path d="M662.5,371.5l0,-24" class="g2_472" />
<path d="M887.5,371.5l0,-24" class="g2_472" />
<path fill-rule="evenodd" d="M169,422l351,0l0,-50l-351,0l0,50Z" class="g3_472" />
<g clip-path="url(#c25_472)">
<path fill-rule="evenodd" d="M177,396l336,0l0,-24l-336,0l0,24Z" class="g3_472" />
</g>
<path fill-rule="evenodd" d="M522,422l78,0l0,-50l-78,0l0,50Z" class="g3_472" />
<g clip-path="url(#c26_472)">
<path fill-rule="evenodd" d="M529,396l64,0l0,-24l-64,0l0,24Z" class="g3_472" />
</g>
<path fill-rule="evenodd" d="M602,422l60,0l0,-50l-60,0l0,50Z" class="g3_472" />
<g clip-path="url(#c27_472)">
<path fill-rule="evenodd" d="M609,396l45,0l0,-24l-45,0l0,24Z" class="g3_472" />
</g>
<path fill-rule="evenodd" d="M663,422l224,0l0,-50l-224,0l0,50Z" class="g3_472" />
<g clip-path="url(#c28_472)">
<path fill-rule="evenodd" d="M671,396l209,0l0,-24l-209,0l0,24Z" class="g3_472" />
</g>
<path fill-rule="evenodd" d="M671,420l209,0l0,-24l-209,0l0,24Z" class="g3_472" />
<path d="M46.5,372.5l0,-1" class="g2_472" />
<path d="M86.5,372.5l0,-1" class="g2_472" />
<path d="M127.5,372.5l0,-1" class="g2_472" />
<path d="M168.5,372.5l0,-1" class="g2_472" />
<path d="M169.5,372.5l351,0" class="g2_472" />
<path d="M520.5,372.5l0,-1" class="g2_472" />
<path d="M522.5,372.5l78,0" class="g2_472" />
<path d="M600.5,372.5l0,-1" class="g2_472" />
<path d="M602.5,372.5l60,0" class="g2_472" />
<path d="M662.5,372.5l0,-1" class="g2_472" />
<path d="M663.5,372.5l224,0" class="g2_472" />
<path d="M887.5,372.5l0,-1" class="g2_472" />
<path d="M46.5,422.5l0,-50" class="g2_472" />
<path d="M86.5,422.5l0,-50" class="g2_472" />
<path d="M127.5,422.5l0,-50" class="g2_472" />
<path d="M168.5,422.5l0,-50" class="g2_472" />
<path d="M520.5,422.5l0,-50" class="g2_472" />
<path d="M600.5,422.5l0,-50" class="g2_472" />
<path d="M662.5,422.5l0,-50" class="g2_472" />
<path d="M887.5,422.5l0,-50" class="g2_472" />
<path fill-rule="evenodd" d="M129,519l391,0l0,-95l-391,0l0,95Z" class="g3_472" />
<path fill-rule="evenodd" d="M136,448l377,0l0,-24l-377,0l0,24Z" class="g3_472" />
<path fill-rule="evenodd" d="M522,519l78,0l0,-95l-78,0l0,95Z" class="g3_472" />
<path fill-rule="evenodd" d="M529,448l64,0l0,-24l-64,0l0,24Z" class="g3_472" />
<path fill-rule="evenodd" d="M602,519l60,0l0,-95l-60,0l0,95Z" class="g3_472" />
<path fill-rule="evenodd" d="M609,448l45,0l0,-24l-45,0l0,24Z" class="g3_472" />
<path fill-rule="evenodd" d="M663,519l224,0l0,-95l-224,0l0,95Z" class="g3_472" />
<path fill-rule="evenodd" d="M671,448l209,0l0,-24l-209,0l0,24Z" class="g3_472" />
<path fill-rule="evenodd" d="M671,472l209,0l0,-24l-209,0l0,24Z" class="g3_472" />
<path fill-rule="evenodd" d="M671,495l209,0l0,-23l-209,0l0,23Z" class="g3_472" />
<path fill-rule="evenodd" d="M671,519l209,0l0,-24l-209,0l0,24Z" class="g3_472" />
<path d="M46.5,424.5l0,-2" class="g2_472" />
<path d="M86.5,424.5l0,-2" class="g2_472" />
<path d="M127.5,424.5l0,-2" class="g2_472" />
<path d="M129.5,424.5l39,0" class="g2_472" />
<path d="M168.5,424.5l0,-2" class="g2_472" />
<path d="M169.5,424.5l351,0" class="g2_472" />
<path d="M520.5,424.5l0,-2" class="g2_472" />
<path d="M522.5,424.5l78,0" class="g2_472" />
<path d="M600.5,424.5l0,-2" class="g2_472" />
<path d="M602.5,424.5l60,0" class="g2_472" />
<path d="M662.5,424.5l0,-2" class="g2_472" />
<path d="M663.5,424.5l224,0" class="g2_472" />
<path d="M887.5,424.5l0,-2" class="g2_472" />
<path d="M46.5,519.5l0,-95" class="g2_472" />
<path d="M86.5,519.5l0,-95" class="g2_472" />
<path d="M127.5,519.5l0,-95" class="g2_472" />
<path d="M520.5,519.5l0,-95" class="g2_472" />
<path d="M600.5,519.5l0,-95" class="g2_472" />
<path d="M662.5,519.5l0,-95" class="g2_472" />
<path d="M887.5,519.5l0,-95" class="g2_472" />
<path fill-rule="evenodd" d="M129,568l391,0l0,-47l-391,0l0,47Z" class="g3_472" />
<path fill-rule="evenodd" d="M136,545l377,0l0,-24l-377,0l0,24Z" class="g3_472" />
<path fill-rule="evenodd" d="M522,568l78,0l0,-47l-78,0l0,47Z" class="g3_472" />
<path fill-rule="evenodd" d="M529,545l64,0l0,-24l-64,0l0,24Z" class="g3_472" />
<path fill-rule="evenodd" d="M602,568l60,0l0,-47l-60,0l0,47Z" class="g3_472" />
<path fill-rule="evenodd" d="M609,545l45,0l0,-24l-45,0l0,24Z" class="g3_472" />
<path fill-rule="evenodd" d="M663,568l224,0l0,-47l-224,0l0,47Z" class="g3_472" />
<path fill-rule="evenodd" d="M671,545l209,0l0,-24l-209,0l0,24Z" class="g3_472" />
<path fill-rule="evenodd" d="M671,568l209,0l0,-23l-209,0l0,23Z" class="g3_472" />
<path d="M46.5,521.5l0,-2" class="g2_472" />
<path d="M86.5,521.5l0,-2" class="g2_472" />
<path d="M127.5,521.5l0,-2" class="g2_472" />
<path d="M129.5,521.5l391,0" class="g2_472" />
<path d="M520.5,521.5l0,-2" class="g2_472" />
<path d="M522.5,521.5l78,0" class="g2_472" />
<path d="M600.5,521.5l0,-2" class="g2_472" />
<path d="M602.5,521.5l60,0" class="g2_472" />
<path d="M662.5,521.5l0,-2" class="g2_472" />
<path d="M663.5,521.5l224,0" class="g2_472" />
<path d="M887.5,521.5l0,-2" class="g2_472" />
<path d="M46.5,568.5l0,-47" class="g2_472" />
<path d="M86.5,568.5l0,-47" class="g2_472" />
<path d="M127.5,568.5l0,-47" class="g2_472" />
<path d="M520.5,568.5l0,-47" class="g2_472" />
<path d="M600.5,568.5l0,-47" class="g2_472" />
<path d="M662.5,568.5l0,-47" class="g2_472" />
<path d="M887.5,568.5l0,-47" class="g2_472" />
<path fill-rule="evenodd" d="M129,737l391,0l0,-167l-391,0l0,167Z" class="g3_472" />
<path fill-rule="evenodd" d="M136,594l377,0l0,-24l-377,0l0,24Z" class="g3_472" />
<path fill-rule="evenodd" d="M522,737l78,0l0,-167l-78,0l0,167Z" class="g3_472" />
<path fill-rule="evenodd" d="M529,594l64,0l0,-24l-64,0l0,24Z" class="g3_472" />
<path fill-rule="evenodd" d="M602,737l60,0l0,-167l-60,0l0,167Z" class="g3_472" />
<path fill-rule="evenodd" d="M609,594l45,0l0,-24l-45,0l0,24Z" class="g3_472" />
<path fill-rule="evenodd" d="M663,737l224,0l0,-167l-224,0l0,167Z" class="g3_472" />
<path fill-rule="evenodd" d="M671,594l209,0l0,-24l-209,0l0,24Z" class="g3_472" />
<path fill-rule="evenodd" d="M671,618l209,0l0,-24l-209,0l0,24Z" class="g3_472" />
<path fill-rule="evenodd" d="M671,641l209,0l0,-23l-209,0l0,23Z" class="g3_472" />
<path fill-rule="evenodd" d="M671,665l209,0l0,-24l-209,0l0,24Z" class="g3_472" />
<path fill-rule="evenodd" d="M671,689l209,0l0,-24l-209,0l0,24Z" class="g3_472" />
<path fill-rule="evenodd" d="M671,713l209,0l0,-24l-209,0l0,24Z" class="g3_472" />
<path fill-rule="evenodd" d="M671,737l209,0l0,-24l-209,0l0,24Z" class="g3_472" />
<path d="M46.5,570.5l0,-2" class="g2_472" />
<path d="M86.5,570.5l0,-2" class="g2_472" />
<path d="M127.5,570.5l0,-2" class="g2_472" />
<path d="M129.5,570.5l391,0" class="g2_472" />
<path d="M520.5,570.5l0,-2" class="g2_472" />
<path d="M522.5,570.5l78,0" class="g2_472" />
<path d="M600.5,570.5l0,-2" class="g2_472" />
<path d="M602.5,570.5l60,0" class="g2_472" />
<path d="M662.5,570.5l0,-2" class="g2_472" />
<path d="M663.5,570.5l224,0" class="g2_472" />
<path d="M887.5,570.5l0,-2" class="g2_472" />
<path d="M46.5,737.5l0,-167" class="g2_472" />
<path d="M86.5,737.5l0,-167" class="g2_472" />
<path d="M127.5,737.5l0,-167" class="g2_472" />
<path d="M520.5,737.5l0,-167" class="g2_472" />
<path d="M600.5,737.5l0,-167" class="g2_472" />
<path d="M662.5,737.5l0,-167" class="g2_472" />
<path d="M887.5,737.5l0,-167" class="g2_472" />
<path fill-rule="evenodd" d="M129,977l391,0l0,-239l-391,0l0,239Z" class="g3_472" />
<path fill-rule="evenodd" d="M136,762l377,0l0,-24l-377,0l0,24Z" class="g3_472" />
<path fill-rule="evenodd" d="M522,977l78,0l0,-239l-78,0l0,239Z" class="g3_472" />
<path fill-rule="evenodd" d="M529,762l64,0l0,-24l-64,0l0,24Z" class="g3_472" />
<path fill-rule="evenodd" d="M602,977l60,0l0,-239l-60,0l0,239Z" class="g3_472" />
<path fill-rule="evenodd" d="M609,762l45,0l0,-24l-45,0l0,24Z" class="g3_472" />
<path fill-rule="evenodd" d="M663,977l224,0l0,-239l-224,0l0,239Z" class="g3_472" />
<path fill-rule="evenodd" d="M671,762l209,0l0,-24l-209,0l0,24Z" class="g3_472" />
<path fill-rule="evenodd" d="M671,786l209,0l0,-24l-209,0l0,24Z" class="g3_472" />
<path fill-rule="evenodd" d="M671,810l209,0l0,-24l-209,0l0,24Z" class="g3_472" />
<path fill-rule="evenodd" d="M671,834l209,0l0,-24l-209,0l0,24Z" class="g3_472" />
<path fill-rule="evenodd" d="M671,858l209,0l0,-24l-209,0l0,24Z" class="g3_472" />
<path fill-rule="evenodd" d="M671,881l209,0l0,-23l-209,0l0,23Z" class="g3_472" />
<path fill-rule="evenodd" d="M671,905l209,0l0,-24l-209,0l0,24Z" class="g3_472" />
<path fill-rule="evenodd" d="M671,929l209,0l0,-24l-209,0l0,24Z" class="g3_472" />
<path fill-rule="evenodd" d="M671,953l209,0l0,-24l-209,0l0,24Z" class="g3_472" />
<g clip-path="url(#c29_472)">
<path fill-rule="evenodd" d="M671,977l209,0l0,-24l-209,0l0,24Z" class="g3_472" />
</g>
<path d="M46.5,738.5l0,-1" class="g2_472" />
<path d="M86.5,738.5l0,-1" class="g2_472" />
<path d="M127.5,738.5l0,-1" class="g2_472" />
<path d="M129.5,738.5l391,0" class="g2_472" />
<path d="M520.5,738.5l0,-1" class="g2_472" />
<path d="M522.5,738.5l78,0" class="g2_472" />
<path d="M600.5,738.5l0,-1" class="g2_472" />
<path d="M602.5,738.5l60,0" class="g2_472" />
<path d="M662.5,738.5l0,-1" class="g2_472" />
<path d="M663.5,738.5l224,0" class="g2_472" />
<path d="M887.5,738.5l0,-1" class="g2_472" />
<path d="M46.5,977.5l0,-239" class="g2_472" />
<path d="M86.5,977.5l0,-239" class="g2_472" />
<path d="M127.5,977.5l0,-239" class="g2_472" />
<path d="M520.5,977.5l0,-239" class="g2_472" />
<path d="M600.5,977.5l0,-239" class="g2_472" />
<path d="M662.5,977.5l0,-239" class="g2_472" />
<path d="M887.5,977.5l0,-239" class="g2_472" />
<path fill-rule="evenodd" d="M129,1097l391,0l0,-119l-391,0l0,119Z" class="g3_472" />
<path fill-rule="evenodd" d="M136,1002l377,0l0,-24l-377,0l0,24Z" class="g3_472" />
<path fill-rule="evenodd" d="M522,1097l78,0l0,-119l-78,0l0,119Z" class="g3_472" />
<path fill-rule="evenodd" d="M529,1002l64,0l0,-24l-64,0l0,24Z" class="g3_472" />
<path fill-rule="evenodd" d="M602,1097l60,0l0,-119l-60,0l0,119Z" class="g3_472" />
<path fill-rule="evenodd" d="M609,1002l45,0l0,-24l-45,0l0,24Z" class="g3_472" />
<path fill-rule="evenodd" d="M663,1097l224,0l0,-119l-224,0l0,119Z" class="g3_472" />
<path fill-rule="evenodd" d="M671,1002l209,0l0,-24l-209,0l0,24Z" class="g3_472" />
<path fill-rule="evenodd" d="M671,1026l209,0l0,-24l-209,0l0,24Z" class="g3_472" />
<path fill-rule="evenodd" d="M671,1050l209,0l0,-24l-209,0l0,24Z" class="g3_472" />
<path fill-rule="evenodd" d="M671,1074l209,0l0,-24l-209,0l0,24Z" class="g3_472" />
<g clip-path="url(#c30_472)">
<path fill-rule="evenodd" d="M671,1097l209,0l0,-23l-209,0l0,23Z" class="g3_472" />
</g>
<path d="M46.5,978.5l0,-1" class="g2_472" />
<path d="M86.5,978.5l0,-1" class="g2_472" />
<path d="M127.5,978.5l0,-1" class="g2_472" />
<path d="M129.5,978.5l391,0" class="g2_472" />
<path d="M520.5,978.5l0,-1" class="g2_472" />
<path d="M522.5,978.5l78,0" class="g2_472" />
<path d="M600.5,978.5l0,-1" class="g2_472" />
<path d="M602.5,978.5l60,0" class="g2_472" />
<path d="M662.5,978.5l0,-1" class="g2_472" />
<path d="M663.5,978.5l224,0" class="g2_472" />
<path d="M887.5,978.5l0,-1" class="g2_472" />
<path d="M46.5,1097.5l0,-119" class="g2_472" />
<path d="M46.5,1099.5l0,-2" class="g2_472" />
<path d="M46.5,1099.5l0,-2" class="g2_472" />
<path d="M47.5,1099.5l39,0" class="g2_472" />
<path d="M86.5,1097.5l0,-119" class="g2_472" />
<path d="M86.5,1099.5l0,-2" class="g2_472" />
<path d="M88.5,1099.5l39,0" class="g2_472" />
<path d="M127.5,1097.5l0,-119" class="g2_472" />
<path d="M127.5,1099.5l0,-2" class="g2_472" />
<path d="M129.5,1099.5l391,0" class="g2_472" />
<path d="M520.5,1097.5l0,-119" class="g2_472" />
<path d="M520.5,1099.5l0,-2" class="g2_472" />
<path d="M522.5,1099.5l78,0" class="g2_472" />
<path d="M600.5,1097.5l0,-119" class="g2_472" />
<path d="M600.5,1099.5l0,-2" class="g2_472" />
<path d="M602.5,1099.5l60,0" class="g2_472" />
<path d="M662.5,1097.5l0,-119" class="g2_472" />
<path d="M662.5,1099.5l0,-2" class="g2_472" />
<path d="M663.5,1099.5l224,0" class="g2_472" />
<path d="M887.5,1097.5l0,-119" class="g2_472" />
<path d="M887.5,1099.5l0,-2" class="g2_472" />
<path d="M887.5,1099.5l0,-2" class="g2_472" />
</svg>