<?xml version="1.0" encoding="UTF-8" standalone="no"?>
<!DOCTYPE svg PUBLIC "-//W3C//DTD SVG 1.1//EN"
"http://www.w3.org/Graphics/SVG/1.1/DTD/svg11.dtd">
<svg version="1.1" xmlns="http://www.w3.org/2000/svg" xmlns:xlink="http://www.w3.org/1999/xlink">
<defs>
<clipPath id="c0_444"><path d="M47.5,206.5l0,-95l840,0l0,95Z" /></clipPath>
<clipPath id="c1_444"><path d="M47.5,342.5l0,-24l391,0l0,24Z" /></clipPath>
<clipPath id="c2_444"><path d="M439.5,342.5l0,-24l71,0l0,24Z" /></clipPath>
<clipPath id="c3_444"><path d="M511.5,342.5l0,-24l376,0l0,24Z" /></clipPath>
<clipPath id="c4_444"><path d="M47.5,933.5l0,-589l39,0l0,589Z" /></clipPath>
<clipPath id="c5_444"><path d="M88.5,416.5l0,-72l350,0l0,72Z" /></clipPath>
<clipPath id="c6_444"><path d="M439.5,416.5l0,-72l71,0l0,72Z" /></clipPath>
<clipPath id="c7_444"><path d="M511.5,416.5l0,-72l376,0l0,72Z" /></clipPath>
<clipPath id="c8_444"><path d="M88.5,467.5l0,-24l350,0l0,24Z" /></clipPath>
<clipPath id="c9_444"><path d="M439.5,467.5l0,-24l71,0l0,24Z" /></clipPath>
<clipPath id="c10_444"><path d="M511.5,467.5l0,-24l376,0l0,24Z" /></clipPath>
<clipPath id="c11_444"><path d="M88.5,933.5l0,-464l39,0l0,464Z" /></clipPath>
<clipPath id="c12_444"><path d="M129.5,933.5l0,-464l39,0l0,464Z" /></clipPath>
<clipPath id="c13_444"><path d="M169.5,933.5l0,-464l40,0l0,464Z" /></clipPath>
<clipPath id="c14_444"><path d="M210.5,669.5l0,-32l228,0l0,32Z" /></clipPath>
<clipPath id="c15_444"><path d="M439.5,669.5l0,-32l71,0l0,32Z" /></clipPath>
<clipPath id="c16_444"><path d="M511.5,669.5l0,-32l376,0l0,32Z" /></clipPath>
<clipPath id="c17_444"><path d="M210.5,698.5l0,-28l228,0l0,28Z" /></clipPath>
<clipPath id="c18_444"><path d="M439.5,698.5l0,-28l71,0l0,28Z" /></clipPath>
<clipPath id="c19_444"><path d="M511.5,698.5l0,-28l376,0l0,28Z" /></clipPath>
<clipPath id="c20_444"><path d="M210.5,724.5l0,-25l228,0l0,25Z" /></clipPath>
<clipPath id="c21_444"><path d="M439.5,724.5l0,-25l71,0l0,25Z" /></clipPath>
<clipPath id="c22_444"><path d="M511.5,724.5l0,-25l376,0l0,25Z" /></clipPath>
<clipPath id="c23_444"><path d="M210.5,753.5l0,-28l228,0l0,28Z" /></clipPath>
<clipPath id="c24_444"><path d="M439.5,753.5l0,-28l71,0l0,28Z" /></clipPath>
<clipPath id="c25_444"><path d="M511.5,753.5l0,-28l376,0l0,28Z" /></clipPath>
<clipPath id="c26_444"><path d="M210.5,779.5l0,-25l228,0l0,25Z" /></clipPath>
<clipPath id="c27_444"><path d="M439.5,779.5l0,-25l71,0l0,25Z" /></clipPath>
<clipPath id="c28_444"><path d="M511.5,779.5l0,-25l376,0l0,25Z" /></clipPath>
<clipPath id="c29_444"><path d="M210.5,811.5l0,-31l228,0l0,31Z" /></clipPath>
<clipPath id="c30_444"><path d="M439.5,811.5l0,-31l71,0l0,31Z" /></clipPath>
<clipPath id="c31_444"><path d="M511.5,811.5l0,-31l376,0l0,31Z" /></clipPath>
<clipPath id="c32_444"><path d="M210.5,933.5l0,-120l39,0l0,120Z" /></clipPath>
<clipPath id="c33_444"><path d="M251.5,933.5l0,-120l39,0l0,120Z" /></clipPath>
<clipPath id="c34_444"><path d="M292.5,841.5l0,-28l146,0l0,28Z" /></clipPath>
<clipPath id="c35_444"><path d="M439.5,841.5l0,-28l71,0l0,28Z" /></clipPath>
<clipPath id="c36_444"><path d="M511.5,841.5l0,-28l376,0l0,28Z" /></clipPath>
<clipPath id="c37_444"><path d="M292.5,872.5l0,-29l146,0l0,29Z" /></clipPath>
<clipPath id="c38_444"><path d="M439.5,872.5l0,-29l71,0l0,29Z" /></clipPath>
<clipPath id="c39_444"><path d="M511.5,872.5l0,-29l376,0l0,29Z" /></clipPath>
<clipPath id="c40_444"><path d="M292.5,903.5l0,-29l146,0l0,29Z" /></clipPath>
<clipPath id="c41_444"><path d="M439.5,903.5l0,-29l71,0l0,29Z" /></clipPath>
<clipPath id="c42_444"><path d="M511.5,903.5l0,-29l376,0l0,29Z" /></clipPath>
<clipPath id="c43_444"><path d="M47.5,1055.5l0,-23l840,0l0,23Z" /></clipPath>
<style type="text/css"><![CDATA[
.g2_444{
fill: none;
stroke: #7E7E7E;
stroke-width: 1;
stroke-linecap: butt;
stroke-linejoin: miter;
}
.g3_444{
fill: #DBE5F1;
}
.g1_444{
fill: #F1F1F1;
}
]]></style>
</defs>
<path fill-rule="evenodd" d="M47,206l840,0l0,-95L47,111l0,95Z" class="g1_444" />
<g clip-path="url(#c0_444)">
<path fill-rule="evenodd" d="M55,135l825,0l0,-24L55,111l0,24Z" class="g1_444" />
</g>
<path fill-rule="evenodd" d="M55,159l825,0l0,-24L55,135l0,24Z" class="g1_444" />
<path fill-rule="evenodd" d="M55,182l825,0l0,-23L55,159l0,23Z" class="g1_444" />
<path fill-rule="evenodd" d="M55,206l825,0l0,-24L55,182l0,24Z" class="g1_444" />
<path d="M46.5,111.5l0,-1" class="g2_444" />
<path d="M46.5,111.5l0,-1" class="g2_444" />
<path d="M47.5,111.5l840,0" class="g2_444" />
<path d="M887.5,111.5l0,-1" class="g2_444" />
<path d="M887.5,111.5l0,-1" class="g2_444" />
<path d="M46.5,207.5l0,-96" class="g2_444" />
<path d="M46.5,208.5l0,-1" class="g2_444" />
<path d="M46.5,208.5l0,-1" class="g2_444" />
<path d="M47.5,208.5l840,0" class="g2_444" />
<path d="M887.5,207.5l0,-96" class="g2_444" />
<path d="M887.5,208.5l0,-1" class="g2_444" />
<path d="M887.5,208.5l0,-1" class="g2_444" />
<path fill-rule="evenodd" d="M47,342l391,0l0,-24L47,318l0,24Z" class="g3_444" />
<g clip-path="url(#c1_444)">
<path fill-rule="evenodd" d="M55,342l375,0l0,-24L55,318l0,24Z" class="g3_444" />
</g>
<path fill-rule="evenodd" d="M439,342l71,0l0,-24l-71,0l0,24Z" class="g3_444" />
<g clip-path="url(#c2_444)">
<path fill-rule="evenodd" d="M447,342l55,0l0,-24l-55,0l0,24Z" class="g3_444" />
</g>
<path fill-rule="evenodd" d="M511,342l376,0l0,-24l-376,0l0,24Z" class="g3_444" />
<g clip-path="url(#c3_444)">
<path fill-rule="evenodd" d="M519,342l361,0l0,-24l-361,0l0,24Z" class="g3_444" />
</g>
<path d="M46.5,318.5l0,-1" class="g2_444" />
<path d="M46.5,318.5l0,-1" class="g2_444" />
<path d="M47.5,318.5l391,0" class="g2_444" />
<path d="M438.5,318.5l0,-1" class="g2_444" />
<path d="M439.5,318.5l71,0" class="g2_444" />
<path d="M510.5,318.5l0,-1" class="g2_444" />
<path d="M511.5,318.5l376,0" class="g2_444" />
<path d="M887.5,318.5l0,-1" class="g2_444" />
<path d="M887.5,318.5l0,-1" class="g2_444" />
<path d="M46.5,342.5l0,-24" class="g2_444" />
<path d="M438.5,342.5l0,-24" class="g2_444" />
<path d="M510.5,342.5l0,-24" class="g2_444" />
<path d="M887.5,342.5l0,-24" class="g2_444" />
<path fill-rule="evenodd" d="M47,933l39,0L86,344l-39,0l0,589Z" class="g1_444" />
<g clip-path="url(#c4_444)">
<path fill-rule="evenodd" d="M55,933l23,0L78,344l-23,0l0,589Z" class="g1_444" />
</g>
<path fill-rule="evenodd" d="M88,416l350,0l0,-72L88,344l0,72Z" class="g1_444" />
<g clip-path="url(#c5_444)">
<path fill-rule="evenodd" d="M95,368l335,0l0,-24L95,344l0,24Z" class="g1_444" />
</g>
<path fill-rule="evenodd" d="M439,416l71,0l0,-72l-71,0l0,72Z" class="g1_444" />
<g clip-path="url(#c6_444)">
<path fill-rule="evenodd" d="M447,368l55,0l0,-24l-55,0l0,24Z" class="g1_444" />
</g>
<path fill-rule="evenodd" d="M511,416l376,0l0,-72l-376,0l0,72Z" class="g1_444" />
<g clip-path="url(#c7_444)">
<path fill-rule="evenodd" d="M519,368l361,0l0,-24l-361,0l0,24Z" class="g1_444" />
</g>
<path fill-rule="evenodd" d="M519,392l361,0l0,-24l-361,0l0,24Z" class="g1_444" />
<path fill-rule="evenodd" d="M519,416l361,0l0,-24l-361,0l0,24Z" class="g1_444" />
<path d="M46.5,344.5l0,-2" class="g2_444" />
<path d="M47.5,344.5l39,0" class="g2_444" />
<path d="M86.5,344.5l0,-2" class="g2_444" />
<path d="M88.5,344.5l350,0" class="g2_444" />
<path d="M438.5,344.5l0,-2" class="g2_444" />
<path d="M439.5,344.5l71,0" class="g2_444" />
<path d="M510.5,344.5l0,-2" class="g2_444" />
<path d="M511.5,344.5l376,0" class="g2_444" />
<path d="M887.5,344.5l0,-2" class="g2_444" />
<path d="M46.5,416.5l0,-72" class="g2_444" />
<path d="M86.5,416.5l0,-72" class="g2_444" />
<path d="M438.5,416.5l0,-72" class="g2_444" />
<path d="M510.5,416.5l0,-72" class="g2_444" />
<path d="M887.5,416.5l0,-72" class="g2_444" />
<path fill-rule="evenodd" d="M88,441l350,0l0,-24L88,417l0,24Z" class="g1_444" />
<path fill-rule="evenodd" d="M95,441l335,0l0,-24L95,417l0,24Z" class="g1_444" />
<path fill-rule="evenodd" d="M439,441l71,0l0,-24l-71,0l0,24Z" class="g1_444" />
<path fill-rule="evenodd" d="M447,441l55,0l0,-24l-55,0l0,24Z" class="g1_444" />
<path fill-rule="evenodd" d="M511,441l376,0l0,-24l-376,0l0,24Z" class="g1_444" />
<path fill-rule="evenodd" d="M519,441l361,0l0,-24l-361,0l0,24Z" class="g1_444" />
<path d="M46.5,417.5l0,-1" class="g2_444" />
<path d="M86.5,417.5l0,-1" class="g2_444" />
<path d="M88.5,417.5l350,0" class="g2_444" />
<path d="M438.5,417.5l0,-1" class="g2_444" />
<path d="M439.5,417.5l71,0" class="g2_444" />
<path d="M510.5,417.5l0,-1" class="g2_444" />
<path d="M511.5,417.5l376,0" class="g2_444" />
<path d="M887.5,417.5l0,-1" class="g2_444" />
<path d="M46.5,441.5l0,-24" class="g2_444" />
<path d="M86.5,441.5l0,-24" class="g2_444" />
<path d="M438.5,441.5l0,-24" class="g2_444" />
<path d="M510.5,441.5l0,-24" class="g2_444" />
<path d="M887.5,441.5l0,-24" class="g2_444" />
<path fill-rule="evenodd" d="M88,467l350,0l0,-24L88,443l0,24Z" class="g1_444" />
<g clip-path="url(#c8_444)">
<path fill-rule="evenodd" d="M95,467l335,0l0,-24L95,443l0,24Z" class="g1_444" />
</g>
<path fill-rule="evenodd" d="M439,467l71,0l0,-24l-71,0l0,24Z" class="g1_444" />
<g clip-path="url(#c9_444)">
<path fill-rule="evenodd" d="M447,467l55,0l0,-24l-55,0l0,24Z" class="g1_444" />
</g>
<path fill-rule="evenodd" d="M511,467l376,0l0,-24l-376,0l0,24Z" class="g1_444" />
<g clip-path="url(#c10_444)">
<path fill-rule="evenodd" d="M519,467l361,0l0,-24l-361,0l0,24Z" class="g1_444" />
</g>
<path d="M46.5,443.5l0,-2" class="g2_444" />
<path d="M86.5,443.5l0,-2" class="g2_444" />
<path d="M88.5,443.5l350,0" class="g2_444" />
<path d="M438.5,443.5l0,-2" class="g2_444" />
<path d="M439.5,443.5l71,0" class="g2_444" />
<path d="M510.5,443.5l0,-2" class="g2_444" />
<path d="M511.5,443.5l376,0" class="g2_444" />
<path d="M887.5,443.5l0,-2" class="g2_444" />
<path d="M46.5,467.5l0,-24" class="g2_444" />
<path d="M86.5,467.5l0,-24" class="g2_444" />
<path d="M438.5,467.5l0,-24" class="g2_444" />
<path d="M510.5,467.5l0,-24" class="g2_444" />
<path d="M887.5,467.5l0,-24" class="g2_444" />
<path fill-rule="evenodd" d="M88,933l39,0l0,-464l-39,0l0,464Z" class="g1_444" />
<g clip-path="url(#c11_444)">
<path fill-rule="evenodd" d="M95,933l24,0l0,-464l-24,0l0,464Z" class="g1_444" />
</g>
<path fill-rule="evenodd" d="M129,933l39,0l0,-464l-39,0l0,464Z" class="g1_444" />
<g clip-path="url(#c12_444)">
<path fill-rule="evenodd" d="M136,933l24,0l0,-464l-24,0l0,464Z" class="g1_444" />
</g>
<path fill-rule="evenodd" d="M169,933l40,0l0,-464l-40,0l0,464Z" class="g1_444" />
<g clip-path="url(#c13_444)">
<path fill-rule="evenodd" d="M177,933l24,0l0,-464l-24,0l0,464Z" class="g1_444" />
</g>
<path fill-rule="evenodd" d="M210,636l228,0l0,-167l-228,0l0,167Z" class="g1_444" />
<path fill-rule="evenodd" d="M218,493l212,0l0,-24l-212,0l0,24Z" class="g1_444" />
<path fill-rule="evenodd" d="M439,636l71,0l0,-167l-71,0l0,167Z" class="g1_444" />
<path fill-rule="evenodd" d="M447,493l55,0l0,-24l-55,0l0,24Z" class="g1_444" />
<path fill-rule="evenodd" d="M511,636l376,0l0,-167l-376,0l0,167Z" class="g1_444" />
<path fill-rule="evenodd" d="M519,493l361,0l0,-24l-361,0l0,24Z" class="g1_444" />
<path fill-rule="evenodd" d="M519,516l361,0l0,-23l-361,0l0,23Z" class="g1_444" />
<path fill-rule="evenodd" d="M519,540l361,0l0,-24l-361,0l0,24Z" class="g1_444" />
<path fill-rule="evenodd" d="M519,564l361,0l0,-24l-361,0l0,24Z" class="g1_444" />
<path fill-rule="evenodd" d="M519,588l361,0l0,-24l-361,0l0,24Z" class="g1_444" />
<path fill-rule="evenodd" d="M519,612l361,0l0,-24l-361,0l0,24Z" class="g1_444" />
<path fill-rule="evenodd" d="M519,636l361,0l0,-24l-361,0l0,24Z" class="g1_444" />
<path d="M46.5,469.5l0,-2" class="g2_444" />
<path d="M86.5,469.5l0,-2" class="g2_444" />
<path d="M88.5,469.5l39,0" class="g2_444" />
<path d="M127.5,469.5l0,-2" class="g2_444" />
<path d="M129.5,469.5l39,0" class="g2_444" />
<path d="M168.5,469.5l0,-2" class="g2_444" />
<path d="M169.5,469.5l40,0" class="g2_444" />
<path d="M209.5,469.5l0,-2" class="g2_444" />
<path d="M210.5,469.5l228,0" class="g2_444" />
<path d="M438.5,469.5l0,-2" class="g2_444" />
<path d="M439.5,469.5l71,0" class="g2_444" />
<path d="M510.5,469.5l0,-2" class="g2_444" />
<path d="M511.5,469.5l376,0" class="g2_444" />
<path d="M887.5,469.5l0,-2" class="g2_444" />
<path d="M46.5,636.5l0,-167" class="g2_444" />
<path d="M86.5,636.5l0,-167" class="g2_444" />
<path d="M127.5,636.5l0,-167" class="g2_444" />
<path d="M168.5,636.5l0,-167" class="g2_444" />
<path d="M209.5,636.5l0,-167" class="g2_444" />
<path d="M438.5,636.5l0,-167" class="g2_444" />
<path d="M510.5,636.5l0,-167" class="g2_444" />
<path d="M887.5,636.5l0,-167" class="g2_444" />
<path fill-rule="evenodd" d="M210,669l228,0l0,-32l-228,0l0,32Z" class="g1_444" />
<g clip-path="url(#c14_444)">
<path fill-rule="evenodd" d="M218,661l212,0l0,-24l-212,0l0,24Z" class="g1_444" />
</g>
<path fill-rule="evenodd" d="M439,669l71,0l0,-32l-71,0l0,32Z" class="g1_444" />
<g clip-path="url(#c15_444)">
<path fill-rule="evenodd" d="M447,661l55,0l0,-24l-55,0l0,24Z" class="g1_444" />
</g>
<path fill-rule="evenodd" d="M511,669l376,0l0,-32l-376,0l0,32Z" class="g1_444" />
<g clip-path="url(#c16_444)">
<path fill-rule="evenodd" d="M519,661l361,0l0,-24l-361,0l0,24Z" class="g1_444" />
</g>
<path d="M46.5,637.5l0,-1" class="g2_444" />
<path d="M86.5,637.5l0,-1" class="g2_444" />
<path d="M127.5,637.5l0,-1" class="g2_444" />
<path d="M168.5,637.5l0,-1" class="g2_444" />
<path d="M209.5,637.5l0,-1" class="g2_444" />
<path d="M210.5,637.5l228,0" class="g2_444" />
<path d="M438.5,637.5l0,-1" class="g2_444" />
<path d="M439.5,637.5l71,0" class="g2_444" />
<path d="M510.5,637.5l0,-1" class="g2_444" />
<path d="M511.5,637.5l376,0" class="g2_444" />
<path d="M887.5,637.5l0,-1" class="g2_444" />
<path d="M46.5,669.5l0,-32" class="g2_444" />
<path d="M86.5,669.5l0,-32" class="g2_444" />
<path d="M127.5,669.5l0,-32" class="g2_444" />
<path d="M168.5,669.5l0,-32" class="g2_444" />
<path d="M209.5,669.5l0,-32" class="g2_444" />
<path d="M438.5,669.5l0,-32" class="g2_444" />
<path d="M510.5,669.5l0,-32" class="g2_444" />
<path d="M887.5,669.5l0,-32" class="g2_444" />
<path fill-rule="evenodd" d="M210,698l228,0l0,-28l-228,0l0,28Z" class="g1_444" />
<g clip-path="url(#c17_444)">
<path fill-rule="evenodd" d="M218,694l212,0l0,-24l-212,0l0,24Z" class="g1_444" />
</g>
<path fill-rule="evenodd" d="M439,698l71,0l0,-28l-71,0l0,28Z" class="g1_444" />
<g clip-path="url(#c18_444)">
<path fill-rule="evenodd" d="M447,694l55,0l0,-24l-55,0l0,24Z" class="g1_444" />
</g>
<path fill-rule="evenodd" d="M511,698l376,0l0,-28l-376,0l0,28Z" class="g1_444" />
<g clip-path="url(#c19_444)">
<path fill-rule="evenodd" d="M519,694l361,0l0,-24l-361,0l0,24Z" class="g1_444" />
</g>
<path d="M46.5,670.5l0,-1" class="g2_444" />
<path d="M86.5,670.5l0,-1" class="g2_444" />
<path d="M127.5,670.5l0,-1" class="g2_444" />
<path d="M168.5,670.5l0,-1" class="g2_444" />
<path d="M209.5,670.5l0,-1" class="g2_444" />
<path d="M210.5,670.5l228,0" class="g2_444" />
<path d="M438.5,670.5l0,-1" class="g2_444" />
<path d="M439.5,670.5l71,0" class="g2_444" />
<path d="M510.5,670.5l0,-1" class="g2_444" />
<path d="M511.5,670.5l376,0" class="g2_444" />
<path d="M887.5,670.5l0,-1" class="g2_444" />
<path d="M46.5,698.5l0,-28" class="g2_444" />
<path d="M86.5,698.5l0,-28" class="g2_444" />
<path d="M127.5,698.5l0,-28" class="g2_444" />
<path d="M168.5,698.5l0,-28" class="g2_444" />
<path d="M209.5,698.5l0,-28" class="g2_444" />
<path d="M438.5,698.5l0,-28" class="g2_444" />
<path d="M510.5,698.5l0,-28" class="g2_444" />
<path d="M887.5,698.5l0,-28" class="g2_444" />
<path fill-rule="evenodd" d="M210,724l228,0l0,-25l-228,0l0,25Z" class="g1_444" />
<g clip-path="url(#c20_444)">
<path fill-rule="evenodd" d="M218,723l212,0l0,-24l-212,0l0,24Z" class="g1_444" />
</g>
<path fill-rule="evenodd" d="M439,724l71,0l0,-25l-71,0l0,25Z" class="g1_444" />
<g clip-path="url(#c21_444)">
<path fill-rule="evenodd" d="M447,723l55,0l0,-24l-55,0l0,24Z" class="g1_444" />
</g>
<path fill-rule="evenodd" d="M511,724l376,0l0,-25l-376,0l0,25Z" class="g1_444" />
<g clip-path="url(#c22_444)">
<path fill-rule="evenodd" d="M519,723l361,0l0,-24l-361,0l0,24Z" class="g1_444" />
</g>
<path d="M46.5,699.5l0,-1" class="g2_444" />
<path d="M86.5,699.5l0,-1" class="g2_444" />
<path d="M127.5,699.5l0,-1" class="g2_444" />
<path d="M168.5,699.5l0,-1" class="g2_444" />
<path d="M209.5,699.5l0,-1" class="g2_444" />
<path d="M210.5,699.5l228,0" class="g2_444" />
<path d="M438.5,699.5l0,-1" class="g2_444" />
<path d="M439.5,699.5l71,0" class="g2_444" />
<path d="M510.5,699.5l0,-1" class="g2_444" />
<path d="M511.5,699.5l376,0" class="g2_444" />
<path d="M887.5,699.5l0,-1" class="g2_444" />
<path d="M46.5,724.5l0,-25" class="g2_444" />
<path d="M86.5,724.5l0,-25" class="g2_444" />
<path d="M127.5,724.5l0,-25" class="g2_444" />
<path d="M168.5,724.5l0,-25" class="g2_444" />
<path d="M209.5,724.5l0,-25" class="g2_444" />
<path d="M438.5,724.5l0,-25" class="g2_444" />
<path d="M510.5,724.5l0,-25" class="g2_444" />
<path d="M887.5,724.5l0,-25" class="g2_444" />
<path fill-rule="evenodd" d="M210,753l228,0l0,-28l-228,0l0,28Z" class="g1_444" />
<g clip-path="url(#c23_444)">
<path fill-rule="evenodd" d="M218,749l212,0l0,-24l-212,0l0,24Z" class="g1_444" />
</g>
<path fill-rule="evenodd" d="M439,753l71,0l0,-28l-71,0l0,28Z" class="g1_444" />
<g clip-path="url(#c24_444)">
<path fill-rule="evenodd" d="M447,749l55,0l0,-24l-55,0l0,24Z" class="g1_444" />
</g>
<path fill-rule="evenodd" d="M511,753l376,0l0,-28l-376,0l0,28Z" class="g1_444" />
<g clip-path="url(#c25_444)">
<path fill-rule="evenodd" d="M519,749l361,0l0,-24l-361,0l0,24Z" class="g1_444" />
</g>
<path d="M46.5,725.5l0,-1" class="g2_444" />
<path d="M86.5,725.5l0,-1" class="g2_444" />
<path d="M127.5,725.5l0,-1" class="g2_444" />
<path d="M168.5,725.5l0,-1" class="g2_444" />
<path d="M209.5,725.5l0,-1" class="g2_444" />
<path d="M210.5,725.5l228,0" class="g2_444" />
<path d="M438.5,725.5l0,-1" class="g2_444" />
<path d="M439.5,725.5l71,0" class="g2_444" />
<path d="M510.5,725.5l0,-1" class="g2_444" />
<path d="M511.5,725.5l376,0" class="g2_444" />
<path d="M887.5,725.5l0,-1" class="g2_444" />
<path d="M46.5,753.5l0,-28" class="g2_444" />
<path d="M86.5,753.5l0,-28" class="g2_444" />
<path d="M127.5,753.5l0,-28" class="g2_444" />
<path d="M168.5,753.5l0,-28" class="g2_444" />
<path d="M209.5,753.5l0,-28" class="g2_444" />
<path d="M438.5,753.5l0,-28" class="g2_444" />
<path d="M510.5,753.5l0,-28" class="g2_444" />
<path d="M887.5,753.5l0,-28" class="g2_444" />
<path fill-rule="evenodd" d="M210,779l228,0l0,-25l-228,0l0,25Z" class="g1_444" />
<g clip-path="url(#c26_444)">
<path fill-rule="evenodd" d="M218,778l212,0l0,-24l-212,0l0,24Z" class="g1_444" />
</g>
<path fill-rule="evenodd" d="M439,779l71,0l0,-25l-71,0l0,25Z" class="g1_444" />
<g clip-path="url(#c27_444)">
<path fill-rule="evenodd" d="M447,778l55,0l0,-24l-55,0l0,24Z" class="g1_444" />
</g>
<path fill-rule="evenodd" d="M511,779l376,0l0,-25l-376,0l0,25Z" class="g1_444" />
<g clip-path="url(#c28_444)">
<path fill-rule="evenodd" d="M519,778l361,0l0,-24l-361,0l0,24Z" class="g1_444" />
</g>
<path d="M46.5,754.5l0,-1" class="g2_444" />
<path d="M86.5,754.5l0,-1" class="g2_444" />
<path d="M127.5,754.5l0,-1" class="g2_444" />
<path d="M168.5,754.5l0,-1" class="g2_444" />
<path d="M209.5,754.5l0,-1" class="g2_444" />
<path d="M210.5,754.5l228,0" class="g2_444" />
<path d="M438.5,754.5l0,-1" class="g2_444" />
<path d="M439.5,754.5l71,0" class="g2_444" />
<path d="M510.5,754.5l0,-1" class="g2_444" />
<path d="M511.5,754.5l376,0" class="g2_444" />
<path d="M887.5,754.5l0,-1" class="g2_444" />
<path d="M46.5,779.5l0,-25" class="g2_444" />
<path d="M86.5,779.5l0,-25" class="g2_444" />
<path d="M127.5,779.5l0,-25" class="g2_444" />
<path d="M168.5,779.5l0,-25" class="g2_444" />
<path d="M209.5,779.5l0,-25" class="g2_444" />
<path d="M438.5,779.5l0,-25" class="g2_444" />
<path d="M510.5,779.5l0,-25" class="g2_444" />
<path d="M887.5,779.5l0,-25" class="g2_444" />
<path fill-rule="evenodd" d="M210,811l228,0l0,-31l-228,0l0,31Z" class="g1_444" />
<g clip-path="url(#c29_444)">
<path fill-rule="evenodd" d="M218,804l212,0l0,-24l-212,0l0,24Z" class="g1_444" />
</g>
<path fill-rule="evenodd" d="M439,811l71,0l0,-31l-71,0l0,31Z" class="g1_444" />
<g clip-path="url(#c30_444)">
<path fill-rule="evenodd" d="M447,804l55,0l0,-24l-55,0l0,24Z" class="g1_444" />
</g>
<path fill-rule="evenodd" d="M511,811l376,0l0,-31l-376,0l0,31Z" class="g1_444" />
<g clip-path="url(#c31_444)">
<path fill-rule="evenodd" d="M519,804l361,0l0,-24l-361,0l0,24Z" class="g1_444" />
</g>
<path d="M46.5,780.5l0,-1" class="g2_444" />
<path d="M86.5,780.5l0,-1" class="g2_444" />
<path d="M127.5,780.5l0,-1" class="g2_444" />
<path d="M168.5,780.5l0,-1" class="g2_444" />
<path d="M209.5,780.5l0,-1" class="g2_444" />
<path d="M210.5,780.5l228,0" class="g2_444" />
<path d="M438.5,780.5l0,-1" class="g2_444" />
<path d="M439.5,780.5l71,0" class="g2_444" />
<path d="M510.5,780.5l0,-1" class="g2_444" />
<path d="M511.5,780.5l376,0" class="g2_444" />
<path d="M887.5,780.5l0,-1" class="g2_444" />
<path d="M46.5,811.5l0,-31" class="g2_444" />
<path d="M86.5,811.5l0,-31" class="g2_444" />
<path d="M127.5,811.5l0,-31" class="g2_444" />
<path d="M168.5,811.5l0,-31" class="g2_444" />
<path d="M209.5,811.5l0,-31" class="g2_444" />
<path d="M438.5,811.5l0,-31" class="g2_444" />
<path d="M510.5,811.5l0,-31" class="g2_444" />
<path d="M887.5,811.5l0,-31" class="g2_444" />
<path fill-rule="evenodd" d="M210,933l39,0l0,-120l-39,0l0,120Z" class="g1_444" />
<g clip-path="url(#c32_444)">
<path fill-rule="evenodd" d="M218,933l24,0l0,-120l-24,0l0,120Z" class="g1_444" />
</g>
<path fill-rule="evenodd" d="M251,933l39,0l0,-120l-39,0l0,120Z" class="g1_444" />
<g clip-path="url(#c33_444)">
<path fill-rule="evenodd" d="M259,933l23,0l0,-120l-23,0l0,120Z" class="g1_444" />
</g>
<path fill-rule="evenodd" d="M292,841l146,0l0,-28l-146,0l0,28Z" class="g1_444" />
<g clip-path="url(#c34_444)">
<path fill-rule="evenodd" d="M299,836l131,0l0,-23l-131,0l0,23Z" class="g1_444" />
</g>
<path fill-rule="evenodd" d="M439,841l71,0l0,-28l-71,0l0,28Z" class="g1_444" />
<g clip-path="url(#c35_444)">
<path fill-rule="evenodd" d="M447,836l55,0l0,-23l-55,0l0,23Z" class="g1_444" />
</g>
<path fill-rule="evenodd" d="M511,841l376,0l0,-28l-376,0l0,28Z" class="g1_444" />
<g clip-path="url(#c36_444)">
<path fill-rule="evenodd" d="M519,836l361,0l0,-23l-361,0l0,23Z" class="g1_444" />
</g>
<path d="M46.5,813.5l0,-2" class="g2_444" />
<path d="M86.5,813.5l0,-2" class="g2_444" />
<path d="M127.5,813.5l0,-2" class="g2_444" />
<path d="M168.5,813.5l0,-2" class="g2_444" />
<path d="M209.5,813.5l0,-2" class="g2_444" />
<path d="M210.5,813.5l40,0" class="g2_444" />
<path d="M250.5,813.5l0,-2" class="g2_444" />
<path d="M251.5,813.5l39,0" class="g2_444" />
<path d="M290.5,813.5l0,-2" class="g2_444" />
<path d="M292.5,813.5l146,0" class="g2_444" />
<path d="M438.5,813.5l0,-2" class="g2_444" />
<path d="M439.5,813.5l71,0" class="g2_444" />
<path d="M510.5,813.5l0,-2" class="g2_444" />
<path d="M511.5,813.5l376,0" class="g2_444" />
<path d="M887.5,813.5l0,-2" class="g2_444" />
<path d="M46.5,841.5l0,-28" class="g2_444" />
<path d="M86.5,841.5l0,-28" class="g2_444" />
<path d="M127.5,841.5l0,-28" class="g2_444" />
<path d="M168.5,841.5l0,-28" class="g2_444" />
<path d="M209.5,841.5l0,-28" class="g2_444" />
<path d="M250.5,841.5l0,-28" class="g2_444" />
<path d="M290.5,841.5l0,-28" class="g2_444" />
<path d="M438.5,841.5l0,-28" class="g2_444" />
<path d="M510.5,841.5l0,-28" class="g2_444" />
<path d="M887.5,841.5l0,-28" class="g2_444" />
<path fill-rule="evenodd" d="M292,872l146,0l0,-29l-146,0l0,29Z" class="g1_444" />
<g clip-path="url(#c37_444)">
<path fill-rule="evenodd" d="M299,867l131,0l0,-24l-131,0l0,24Z" class="g1_444" />
</g>
<path fill-rule="evenodd" d="M439,872l71,0l0,-29l-71,0l0,29Z" class="g1_444" />
<g clip-path="url(#c38_444)">
<path fill-rule="evenodd" d="M447,867l55,0l0,-24l-55,0l0,24Z" class="g1_444" />
</g>
<path fill-rule="evenodd" d="M511,872l376,0l0,-29l-376,0l0,29Z" class="g1_444" />
<g clip-path="url(#c39_444)">
<path fill-rule="evenodd" d="M519,867l361,0l0,-24l-361,0l0,24Z" class="g1_444" />
</g>
<path d="M46.5,843.5l0,-2" class="g2_444" />
<path d="M86.5,843.5l0,-2" class="g2_444" />
<path d="M127.5,843.5l0,-2" class="g2_444" />
<path d="M168.5,843.5l0,-2" class="g2_444" />
<path d="M209.5,843.5l0,-2" class="g2_444" />
<path d="M250.5,843.5l0,-2" class="g2_444" />
<path d="M290.5,843.5l0,-2" class="g2_444" />
<path d="M292.5,843.5l146,0" class="g2_444" />
<path d="M438.5,843.5l0,-2" class="g2_444" />
<path d="M439.5,843.5l71,0" class="g2_444" />
<path d="M510.5,843.5l0,-2" class="g2_444" />
<path d="M511.5,843.5l376,0" class="g2_444" />
<path d="M887.5,843.5l0,-2" class="g2_444" />
<path d="M46.5,872.5l0,-29" class="g2_444" />
<path d="M86.5,872.5l0,-29" class="g2_444" />
<path d="M127.5,872.5l0,-29" class="g2_444" />
<path d="M168.5,872.5l0,-29" class="g2_444" />
<path d="M209.5,872.5l0,-29" class="g2_444" />
<path d="M250.5,872.5l0,-29" class="g2_444" />
<path d="M290.5,872.5l0,-29" class="g2_444" />
<path d="M438.5,872.5l0,-29" class="g2_444" />
<path d="M510.5,872.5l0,-29" class="g2_444" />
<path d="M887.5,872.5l0,-29" class="g2_444" />
<path fill-rule="evenodd" d="M292,903l146,0l0,-29l-146,0l0,29Z" class="g1_444" />
<g clip-path="url(#c40_444)">
<path fill-rule="evenodd" d="M299,897l131,0l0,-23l-131,0l0,23Z" class="g1_444" />
</g>
<path fill-rule="evenodd" d="M439,903l71,0l0,-29l-71,0l0,29Z" class="g1_444" />
<g clip-path="url(#c41_444)">
<path fill-rule="evenodd" d="M447,897l55,0l0,-23l-55,0l0,23Z" class="g1_444" />
</g>
<path fill-rule="evenodd" d="M511,903l376,0l0,-29l-376,0l0,29Z" class="g1_444" />
<g clip-path="url(#c42_444)">
<path fill-rule="evenodd" d="M519,897l361,0l0,-23l-361,0l0,23Z" class="g1_444" />
</g>
<path d="M46.5,874.5l0,-2" class="g2_444" />
<path d="M86.5,874.5l0,-2" class="g2_444" />
<path d="M127.5,874.5l0,-2" class="g2_444" />
<path d="M168.5,874.5l0,-2" class="g2_444" />
<path d="M209.5,874.5l0,-2" class="g2_444" />
<path d="M250.5,874.5l0,-2" class="g2_444" />
<path d="M290.5,874.5l0,-2" class="g2_444" />
<path d="M292.5,874.5l146,0" class="g2_444" />
<path d="M438.5,874.5l0,-2" class="g2_444" />
<path d="M439.5,874.5l71,0" class="g2_444" />
<path d="M510.5,874.5l0,-2" class="g2_444" />
<path d="M511.5,874.5l376,0" class="g2_444" />
<path d="M887.5,874.5l0,-2" class="g2_444" />
<path d="M46.5,903.5l0,-29" class="g2_444" />
<path d="M86.5,903.5l0,-29" class="g2_444" />
<path d="M127.5,903.5l0,-29" class="g2_444" />
<path d="M168.5,903.5l0,-29" class="g2_444" />
<path d="M209.5,903.5l0,-29" class="g2_444" />
<path d="M250.5,903.5l0,-29" class="g2_444" />
<path d="M290.5,903.5l0,-29" class="g2_444" />
<path d="M438.5,903.5l0,-29" class="g2_444" />
<path d="M510.5,903.5l0,-29" class="g2_444" />
<path d="M887.5,903.5l0,-29" class="g2_444" />
<path fill-rule="evenodd" d="M292,933l146,0l0,-29l-146,0l0,29Z" class="g1_444" />
<path fill-rule="evenodd" d="M299,928l131,0l0,-24l-131,0l0,24Z" class="g1_444" />
<path fill-rule="evenodd" d="M439,933l71,0l0,-29l-71,0l0,29Z" class="g1_444" />
<path fill-rule="evenodd" d="M447,928l55,0l0,-24l-55,0l0,24Z" class="g1_444" />
<path fill-rule="evenodd" d="M511,933l376,0l0,-29l-376,0l0,29Z" class="g1_444" />
<path fill-rule="evenodd" d="M519,928l361,0l0,-24l-361,0l0,24Z" class="g1_444" />
<path d="M46.5,904.5l0,-1" class="g2_444" />
<path d="M86.5,904.5l0,-1" class="g2_444" />
<path d="M127.5,904.5l0,-1" class="g2_444" />
<path d="M168.5,904.5l0,-1" class="g2_444" />
<path d="M209.5,904.5l0,-1" class="g2_444" />
<path d="M250.5,904.5l0,-1" class="g2_444" />
<path d="M290.5,904.5l0,-1" class="g2_444" />
<path d="M292.5,904.5l146,0" class="g2_444" />
<path d="M438.5,904.5l0,-1" class="g2_444" />
<path d="M439.5,904.5l71,0" class="g2_444" />
<path d="M510.5,904.5l0,-1" class="g2_444" />
<path d="M511.5,904.5l376,0" class="g2_444" />
<path d="M887.5,904.5l0,-1" class="g2_444" />
<path d="M46.5,933.5l0,-29" class="g2_444" />
<path d="M46.5,935.5l0,-2" class="g2_444" />
<path d="M46.5,935.5l0,-2" class="g2_444" />
<path d="M47.5,935.5l39,0" class="g2_444" />
<path d="M86.5,933.5l0,-29" class="g2_444" />
<path d="M86.5,935.5l0,-2" class="g2_444" />
<path d="M88.5,935.5l39,0" class="g2_444" />
<path d="M127.5,933.5l0,-29" class="g2_444" />
<path d="M127.5,935.5l0,-2" class="g2_444" />
<path d="M129.5,935.5l39,0" class="g2_444" />
<path d="M168.5,933.5l0,-29" class="g2_444" />
<path d="M168.5,935.5l0,-2" class="g2_444" />
<path d="M169.5,935.5l40,0" class="g2_444" />
<path d="M209.5,933.5l0,-29" class="g2_444" />
<path d="M209.5,935.5l0,-2" class="g2_444" />
<path d="M210.5,935.5l40,0" class="g2_444" />
<path d="M250.5,933.5l0,-29" class="g2_444" />
<path d="M250.5,935.5l0,-2" class="g2_444" />
<path d="M251.5,935.5l39,0" class="g2_444" />
<path d="M290.5,933.5l0,-29" class="g2_444" />
<path d="M290.5,935.5l0,-2" class="g2_444" />
<path d="M292.5,935.5l146,0" class="g2_444" />
<path d="M438.5,933.5l0,-29" class="g2_444" />
<path d="M438.5,935.5l0,-2" class="g2_444" />
<path d="M439.5,935.5l71,0" class="g2_444" />
<path d="M510.5,933.5l0,-29" class="g2_444" />
<path d="M510.5,935.5l0,-2" class="g2_444" />
<path d="M511.5,935.5l376,0" class="g2_444" />
<path d="M887.5,933.5l0,-29" class="g2_444" />
<path d="M887.5,935.5l0,-2" class="g2_444" />
<path d="M887.5,935.5l0,-2" class="g2_444" />
<path fill-rule="evenodd" d="M47,1055l840,0l0,-23l-840,0l0,23Z" class="g1_444" />
<g clip-path="url(#c43_444)">
<path fill-rule="evenodd" d="M55,1055l825,0l0,-23l-825,0l0,23Z" class="g1_444" />
</g>
<path d="M46.5,1032.5l0,-2" class="g2_444" />
<path d="M46.5,1032.5l0,-2" class="g2_444" />
<path d="M47.5,1032.5l840,0" class="g2_444" />
<path d="M887.5,1032.5l0,-2" class="g2_444" />
<path d="M887.5,1032.5l0,-2" class="g2_444" />
<path d="M46.5,1055.5l0,-23" class="g2_444" />
<path d="M46.5,1057.5l0,-2" class="g2_444" />
<path d="M46.5,1057.5l0,-2" class="g2_444" />
<path d="M47.5,1057.5l840,0" class="g2_444" />
<path d="M887.5,1055.5l0,-23" class="g2_444" />
<path d="M887.5,1057.5l0,-2" class="g2_444" />
<path d="M887.5,1057.5l0,-2" class="g2_444" />
</svg>