<?xml version="1.0" encoding="UTF-8" standalone="no"?>
<!DOCTYPE svg PUBLIC "-//W3C//DTD SVG 1.1//EN"
"http://www.w3.org/Graphics/SVG/1.1/DTD/svg11.dtd">
<svg version="1.1" xmlns="http://www.w3.org/2000/svg" xmlns:xlink="http://www.w3.org/1999/xlink">
<defs>
<clipPath id="c0_379"><path d="M47.5,435.5l0,-324l840,0l0,324Z" /></clipPath>
<clipPath id="c1_379"><path d="M47.5,1060.5l0,-424l32,0l0,424Z" /></clipPath>
<clipPath id="c2_379"><path d="M81.5,707.5l0,-71l358,0l0,71Z" /></clipPath>
<clipPath id="c3_379"><path d="M441.5,707.5l0,-71l67,0l0,71Z" /></clipPath>
<clipPath id="c4_379"><path d="M509.5,707.5l0,-71l280,0l0,71Z" /></clipPath>
<clipPath id="c5_379"><path d="M81.5,734.5l0,-25l358,0l0,25Z" /></clipPath>
<clipPath id="c6_379"><path d="M441.5,734.5l0,-25l67,0l0,25Z" /></clipPath>
<clipPath id="c7_379"><path d="M509.5,734.5l0,-25l280,0l0,25Z" /></clipPath>
<clipPath id="c8_379"><path d="M81.5,760.5l0,-24l358,0l0,24Z" /></clipPath>
<clipPath id="c9_379"><path d="M441.5,760.5l0,-24l67,0l0,24Z" /></clipPath>
<clipPath id="c10_379"><path d="M509.5,760.5l0,-24l280,0l0,24Z" /></clipPath>
<clipPath id="c11_379"><path d="M81.5,1060.5l0,-298l32,0l0,298Z" /></clipPath>
<clipPath id="c12_379"><path d="M114.5,796.5l0,-34l325,0l0,34Z" /></clipPath>
<clipPath id="c13_379"><path d="M441.5,796.5l0,-34l67,0l0,34Z" /></clipPath>
<clipPath id="c14_379"><path d="M509.5,796.5l0,-34l280,0l0,34Z" /></clipPath>
<clipPath id="c15_379"><path d="M791.5,796.5l0,-34l81,0l0,34Z" /></clipPath>
<clipPath id="c16_379"><path d="M114.5,845.5l0,-48l325,0l0,48Z" /></clipPath>
<clipPath id="c17_379"><path d="M441.5,845.5l0,-48l67,0l0,48Z" /></clipPath>
<clipPath id="c18_379"><path d="M509.5,845.5l0,-48l280,0l0,48Z" /></clipPath>
<clipPath id="c19_379"><path d="M791.5,845.5l0,-48l81,0l0,48Z" /></clipPath>
<clipPath id="c20_379"><path d="M114.5,980.5l0,-133l32,0l0,133Z" /></clipPath>
<clipPath id="c21_379"><path d="M147.5,881.5l0,-34l292,0l0,34Z" /></clipPath>
<clipPath id="c22_379"><path d="M441.5,881.5l0,-34l67,0l0,34Z" /></clipPath>
<clipPath id="c23_379"><path d="M509.5,881.5l0,-34l280,0l0,34Z" /></clipPath>
<clipPath id="c24_379"><path d="M791.5,881.5l0,-34l81,0l0,34Z" /></clipPath>
<clipPath id="c25_379"><path d="M147.5,915.5l0,-32l292,0l0,32Z" /></clipPath>
<clipPath id="c26_379"><path d="M441.5,915.5l0,-32l67,0l0,32Z" /></clipPath>
<clipPath id="c27_379"><path d="M509.5,915.5l0,-32l280,0l0,32Z" /></clipPath>
<clipPath id="c28_379"><path d="M791.5,915.5l0,-32l81,0l0,32Z" /></clipPath>
<clipPath id="c29_379"><path d="M114.5,1060.5l0,-78l32,0l0,78Z" /></clipPath>
<clipPath id="c30_379"><path d="M147.5,1060.5l0,-78l32,0l0,78Z" /></clipPath>
<style type="text/css"><![CDATA[
.g5_379{
fill: none;
stroke: #F1F1F1;
stroke-width: 1;
stroke-linecap: butt;
stroke-linejoin: miter;
}
.g2_379{
fill: none;
stroke: #F0F0E0;
stroke-width: 1;
stroke-linecap: butt;
stroke-linejoin: miter;
}
.g3_379{
fill: none;
stroke: #7E7E7E;
stroke-width: 1;
stroke-linecap: butt;
stroke-linejoin: miter;
}
.g4_379{
fill: #DBE5F1;
}
.g1_379{
fill: #F1F1F1;
}
]]></style>
</defs>
<path fill-rule="evenodd" d="M47,435l840,0l0,-324L47,111l0,324Z" class="g1_379" />
<g clip-path="url(#c0_379)">
<path fill-rule="evenodd" d="M55,135l825,0l0,-24L55,111l0,24Z" class="g1_379" />
</g>
<path fill-rule="evenodd" d="M55,159l825,0l0,-24L55,135l0,24Z" class="g1_379" />
<path fill-rule="evenodd" d="M55,182l825,0l0,-23L55,159l0,23Z" class="g1_379" />
<path fill-rule="evenodd" d="M55,214l825,0l0,-32L55,182l0,32Z" class="g1_379" />
<g clip-path="url(#c0_379)">
<path d="M45.5,184.5l0,-2" class="g2_379" />
<path d="M45.5,184.5l0,-2" class="g2_379" />
<path d="M46.5,184.5l842,0" class="g2_379" />
<path d="M888.5,184.5l0,-2" class="g2_379" />
<path d="M888.5,184.5l0,-2" class="g2_379" />
<path d="M45.5,214.5l0,-30" class="g2_379" />
<path d="M888.5,214.5l0,-30" class="g2_379" />
</g>
<path fill-rule="evenodd" d="M55,237l825,0l0,-23L55,214l0,23Z" class="g1_379" />
<g clip-path="url(#c0_379)">
<path d="M45.5,237.5l0,-23" class="g2_379" />
<path d="M888.5,237.5l0,-23" class="g2_379" />
</g>
<path fill-rule="evenodd" d="M55,261l825,0l0,-24L55,237l0,24Z" class="g1_379" />
<g clip-path="url(#c0_379)">
<path d="M45.5,261.5l0,-24" class="g2_379" />
<path d="M888.5,261.5l0,-24" class="g2_379" />
</g>
<path fill-rule="evenodd" d="M55,285l825,0l0,-24L55,261l0,24Z" class="g1_379" />
<g clip-path="url(#c0_379)">
<path d="M45.5,285.5l0,-24" class="g2_379" />
<path d="M888.5,285.5l0,-24" class="g2_379" />
</g>
<path fill-rule="evenodd" d="M55,309l825,0l0,-24L55,285l0,24Z" class="g1_379" />
<g clip-path="url(#c0_379)">
<path d="M45.5,309.5l0,-24" class="g2_379" />
<path d="M888.5,309.5l0,-24" class="g2_379" />
</g>
<path fill-rule="evenodd" d="M55,333l825,0l0,-24L55,309l0,24Z" class="g1_379" />
<g clip-path="url(#c0_379)">
<path d="M45.5,333.5l0,-24" class="g2_379" />
<path d="M888.5,333.5l0,-24" class="g2_379" />
</g>
<path fill-rule="evenodd" d="M55,357l825,0l0,-24L55,333l0,24Z" class="g1_379" />
<g clip-path="url(#c0_379)">
<path d="M45.5,357.5l0,-24" class="g2_379" />
<path d="M888.5,357.5l0,-24" class="g2_379" />
</g>
<path fill-rule="evenodd" d="M55,380l825,0l0,-23L55,357l0,23Z" class="g1_379" />
<g clip-path="url(#c0_379)">
<path d="M45.5,380.5l0,-23" class="g2_379" />
<path d="M888.5,380.5l0,-23" class="g2_379" />
</g>
<path fill-rule="evenodd" d="M55,404l825,0l0,-23L55,381l0,23Z" class="g1_379" />
<g clip-path="url(#c0_379)">
<path d="M45.5,404.5l0,-23" class="g2_379" />
<path d="M888.5,404.5l0,-23" class="g2_379" />
</g>
<path fill-rule="evenodd" d="M55,435l825,0l0,-31L55,404l0,31Z" class="g1_379" />
<g clip-path="url(#c0_379)">
<path d="M45.5,435.5l0,-1" class="g2_379" />
<path d="M45.5,435.5l0,-1" class="g2_379" />
<path d="M46.5,435.5l842,0" class="g2_379" />
<path d="M888.5,435.5l0,-1" class="g2_379" />
<path d="M888.5,435.5l0,-1" class="g2_379" />
<path d="M45.5,434.5l0,-30" class="g2_379" />
<path d="M888.5,434.5l0,-30" class="g2_379" />
</g>
<path d="M46.5,111.5l0,-1" class="g3_379" />
<path d="M46.5,111.5l0,-1" class="g3_379" />
<path d="M47.5,111.5l840,0" class="g3_379" />
<path d="M887.5,111.5l0,-1" class="g3_379" />
<path d="M887.5,111.5l0,-1" class="g3_379" />
<path d="M46.5,436.5l0,-325" class="g3_379" />
<path d="M46.5,437.5l0,-1" class="g3_379" />
<path d="M46.5,437.5l0,-1" class="g3_379" />
<path d="M47.5,437.5l840,0" class="g3_379" />
<path d="M887.5,436.5l0,-325" class="g3_379" />
<path d="M887.5,437.5l0,-1" class="g3_379" />
<path d="M887.5,437.5l0,-1" class="g3_379" />
<path fill-rule="evenodd" d="M47,634l392,0l0,-47L47,587l0,47Z" class="g4_379" />
<path fill-rule="evenodd" d="M55,610l377,0l0,-23L55,587l0,23Z" class="g4_379" />
<path fill-rule="evenodd" d="M441,634l67,0l0,-47l-67,0l0,47Z" class="g4_379" />
<path fill-rule="evenodd" d="M448,610l52,0l0,-23l-52,0l0,23Z" class="g4_379" />
<path fill-rule="evenodd" d="M509,634l280,0l0,-47l-280,0l0,47Z" class="g4_379" />
<path fill-rule="evenodd" d="M517,610l265,0l0,-23l-265,0l0,23Z" class="g4_379" />
<path fill-rule="evenodd" d="M791,634l81,0l0,-47l-81,0l0,47Z" class="g4_379" />
<path fill-rule="evenodd" d="M798,610l66,0l0,-23l-66,0l0,23Z" class="g4_379" />
<path fill-rule="evenodd" d="M798,634l66,0l0,-24l-66,0l0,24Z" class="g4_379" />
<path d="M46.5,587.5l0,-2" class="g3_379" />
<path d="M46.5,587.5l0,-2" class="g3_379" />
<path d="M47.5,587.5l392,0" class="g3_379" />
<path d="M439.5,587.5l0,-2" class="g3_379" />
<path d="M441.5,587.5l67,0" class="g3_379" />
<path d="M508.5,587.5l0,-2" class="g3_379" />
<path d="M509.5,587.5l281,0" class="g3_379" />
<path d="M790.5,587.5l0,-2" class="g3_379" />
<path d="M791.5,587.5l81,0" class="g3_379" />
<path d="M872.5,587.5l0,-2" class="g3_379" />
<path d="M872.5,587.5l0,-2" class="g3_379" />
<path d="M46.5,634.5l0,-47" class="g3_379" />
<path d="M439.5,634.5l0,-47" class="g3_379" />
<path d="M508.5,634.5l0,-47" class="g3_379" />
<path d="M790.5,634.5l0,-47" class="g3_379" />
<path d="M872.5,634.5l0,-47" class="g3_379" />
<path fill-rule="evenodd" d="M47,1060l32,0L79,636l-32,0l0,424Z" class="g1_379" />
<g clip-path="url(#c1_379)">
<path fill-rule="evenodd" d="M55,1060l23,0L78,636l-23,0l0,424Z" class="g1_379" />
</g>
<path fill-rule="evenodd" d="M81,707l358,0l0,-71L81,636l0,71Z" class="g1_379" />
<g clip-path="url(#c2_379)">
<path fill-rule="evenodd" d="M88,660l344,0l0,-24L88,636l0,24Z" class="g1_379" />
</g>
<path fill-rule="evenodd" d="M441,707l67,0l0,-71l-67,0l0,71Z" class="g1_379" />
<g clip-path="url(#c3_379)">
<path fill-rule="evenodd" d="M448,660l52,0l0,-24l-52,0l0,24Z" class="g1_379" />
</g>
<path fill-rule="evenodd" d="M509,707l280,0l0,-71l-280,0l0,71Z" class="g1_379" />
<g clip-path="url(#c4_379)">
<path fill-rule="evenodd" d="M517,660l265,0l0,-24l-265,0l0,24Z" class="g1_379" />
</g>
<path fill-rule="evenodd" d="M517,683l265,0l0,-23l-265,0l0,23Z" class="g1_379" />
<path fill-rule="evenodd" d="M517,707l265,0l0,-24l-265,0l0,24Z" class="g1_379" />
<path fill-rule="evenodd" d="M791,707l81,0l0,-71l-81,0l0,71Z" class="g1_379" />
<path fill-rule="evenodd" d="M798,683l66,0l0,-23l-66,0l0,23Z" class="g1_379" />
<path d="M46.5,636.5l0,-2" class="g3_379" />
<path d="M47.5,636.5l32,0" class="g3_379" />
<path d="M79.5,636.5l0,-2" class="g3_379" />
<path d="M81.5,636.5l358,0" class="g3_379" />
<path d="M439.5,636.5l0,-2" class="g3_379" />
<path d="M441.5,636.5l67,0" class="g3_379" />
<path d="M508.5,636.5l0,-2" class="g3_379" />
<path d="M509.5,636.5l281,0" class="g3_379" />
<path d="M790.5,636.5l0,-2" class="g3_379" />
<path d="M791.5,636.5l81,0" class="g3_379" />
<path d="M872.5,636.5l0,-2" class="g3_379" />
<path d="M46.5,707.5l0,-71" class="g3_379" />
<path d="M79.5,707.5l0,-71" class="g3_379" />
<path d="M439.5,707.5l0,-71" class="g3_379" />
<path d="M508.5,707.5l0,-71" class="g3_379" />
<path d="M790.5,707.5l0,-71" class="g3_379" />
<path d="M872.5,707.5l0,-71" class="g3_379" />
<path fill-rule="evenodd" d="M81,734l358,0l0,-25L81,709l0,25Z" class="g1_379" />
<g clip-path="url(#c5_379)">
<path fill-rule="evenodd" d="M88,733l344,0l0,-24L88,709l0,24Z" class="g1_379" />
</g>
<path fill-rule="evenodd" d="M441,734l67,0l0,-25l-67,0l0,25Z" class="g1_379" />
<g clip-path="url(#c6_379)">
<path fill-rule="evenodd" d="M448,733l52,0l0,-24l-52,0l0,24Z" class="g1_379" />
</g>
<path fill-rule="evenodd" d="M509,734l280,0l0,-25l-280,0l0,25Z" class="g1_379" />
<g clip-path="url(#c7_379)">
<path fill-rule="evenodd" d="M517,733l265,0l0,-24l-265,0l0,24Z" class="g1_379" />
</g>
<path fill-rule="evenodd" d="M791,734l81,0l0,-25l-81,0l0,25Z" class="g1_379" />
<path fill-rule="evenodd" d="M798,733l66,0l0,-23l-66,0l0,23Z" class="g1_379" />
<path d="M46.5,709.5l0,-2" class="g3_379" />
<path d="M79.5,709.5l0,-2" class="g3_379" />
<path d="M81.5,709.5l358,0" class="g3_379" />
<path d="M439.5,709.5l0,-2" class="g3_379" />
<path d="M441.5,709.5l67,0" class="g3_379" />
<path d="M508.5,709.5l0,-2" class="g3_379" />
<path d="M509.5,709.5l281,0" class="g3_379" />
<path d="M790.5,709.5l0,-2" class="g3_379" />
<path d="M791.5,709.5l81,0" class="g3_379" />
<path d="M872.5,709.5l0,-2" class="g3_379" />
<path d="M46.5,734.5l0,-25" class="g3_379" />
<path d="M79.5,734.5l0,-25" class="g3_379" />
<path d="M439.5,734.5l0,-25" class="g3_379" />
<path d="M508.5,734.5l0,-25" class="g3_379" />
<path d="M790.5,734.5l0,-25" class="g3_379" />
<path d="M872.5,734.5l0,-25" class="g3_379" />
<path fill-rule="evenodd" d="M81,760l358,0l0,-24L81,736l0,24Z" class="g1_379" />
<g clip-path="url(#c8_379)">
<path fill-rule="evenodd" d="M88,760l344,0l0,-24L88,736l0,24Z" class="g1_379" />
</g>
<path fill-rule="evenodd" d="M441,760l67,0l0,-24l-67,0l0,24Z" class="g1_379" />
<g clip-path="url(#c9_379)">
<path fill-rule="evenodd" d="M448,760l52,0l0,-24l-52,0l0,24Z" class="g1_379" />
</g>
<path fill-rule="evenodd" d="M509,760l280,0l0,-24l-280,0l0,24Z" class="g1_379" />
<g clip-path="url(#c10_379)">
<path fill-rule="evenodd" d="M517,760l265,0l0,-24l-265,0l0,24Z" class="g1_379" />
</g>
<path fill-rule="evenodd" d="M791,760l81,0l0,-24l-81,0l0,24Z" class="g1_379" />
<path fill-rule="evenodd" d="M798,760l66,0l0,-24l-66,0l0,24Z" class="g1_379" />
<path d="M46.5,736.5l0,-2" class="g3_379" />
<path d="M79.5,736.5l0,-2" class="g3_379" />
<path d="M81.5,736.5l358,0" class="g3_379" />
<path d="M439.5,736.5l0,-2" class="g3_379" />
<path d="M441.5,736.5l67,0" class="g3_379" />
<path d="M508.5,736.5l0,-2" class="g3_379" />
<path d="M509.5,736.5l281,0" class="g3_379" />
<path d="M790.5,736.5l0,-2" class="g3_379" />
<path d="M791.5,736.5l81,0" class="g3_379" />
<path d="M872.5,736.5l0,-2" class="g3_379" />
<path d="M46.5,760.5l0,-24" class="g3_379" />
<path d="M79.5,760.5l0,-24" class="g3_379" />
<path d="M439.5,760.5l0,-24" class="g3_379" />
<path d="M508.5,760.5l0,-24" class="g3_379" />
<path d="M790.5,760.5l0,-24" class="g3_379" />
<path d="M872.5,760.5l0,-24" class="g3_379" />
<path fill-rule="evenodd" d="M81,1060l32,0l0,-298l-32,0l0,298Z" class="g1_379" />
<g clip-path="url(#c11_379)">
<path fill-rule="evenodd" d="M88,1060l24,0l0,-298l-24,0l0,298Z" class="g1_379" />
</g>
<path fill-rule="evenodd" d="M114,796l325,0l0,-34l-325,0l0,34Z" class="g1_379" />
<g clip-path="url(#c12_379)">
<path fill-rule="evenodd" d="M122,796l24,0l0,-34l-24,0l0,34Z" class="g1_379" />
<path fill-rule="evenodd" d="M146,796l23,0l0,-34l-23,0l0,34Z" class="g1_379" />
</g>
<path fill-rule="evenodd" d="M441,796l67,0l0,-34l-67,0l0,34Z" class="g1_379" />
<g clip-path="url(#c13_379)">
<path fill-rule="evenodd" d="M448,786l52,0l0,-24l-52,0l0,24Z" class="g1_379" />
</g>
<path fill-rule="evenodd" d="M509,796l280,0l0,-34l-280,0l0,34Z" class="g1_379" />
<g clip-path="url(#c14_379)">
<path fill-rule="evenodd" d="M517,786l265,0l0,-24l-265,0l0,24Z" class="g1_379" />
</g>
<path fill-rule="evenodd" d="M791,796l81,0l0,-34l-81,0l0,34Z" class="g1_379" />
<g clip-path="url(#c15_379)">
<path fill-rule="evenodd" d="M798,786l66,0l0,-24l-66,0l0,24Z" class="g1_379" />
</g>
<path d="M46.5,762.5l0,-2" class="g3_379" />
<path d="M79.5,762.5l0,-2" class="g3_379" />
<path d="M81.5,762.5l32,0" class="g3_379" />
<path d="M113.5,762.5l0,-2" class="g3_379" />
<path d="M114.5,762.5l325,0" class="g3_379" />
<path d="M439.5,762.5l0,-2" class="g3_379" />
<path d="M441.5,762.5l67,0" class="g3_379" />
<path d="M508.5,762.5l0,-2" class="g3_379" />
<path d="M509.5,762.5l281,0" class="g3_379" />
<path d="M790.5,762.5l0,-2" class="g3_379" />
<path d="M791.5,762.5l81,0" class="g3_379" />
<path d="M872.5,762.5l0,-2" class="g3_379" />
<path d="M46.5,796.5l0,-34" class="g3_379" />
<path d="M79.5,796.5l0,-34" class="g3_379" />
<path d="M113.5,796.5l0,-34" class="g3_379" />
<path d="M439.5,796.5l0,-34" class="g3_379" />
<path d="M508.5,796.5l0,-34" class="g3_379" />
<path d="M790.5,796.5l0,-34" class="g3_379" />
<path d="M872.5,796.5l0,-34" class="g3_379" />
<path fill-rule="evenodd" d="M114,845l325,0l0,-48l-325,0l0,48Z" class="g1_379" />
<g clip-path="url(#c16_379)">
<path fill-rule="evenodd" d="M122,845l24,0l0,-48l-24,0l0,48Z" class="g1_379" />
<path fill-rule="evenodd" d="M146,845l23,0l0,-48l-23,0l0,48Z" class="g1_379" />
</g>
<path fill-rule="evenodd" d="M441,845l67,0l0,-48l-67,0l0,48Z" class="g1_379" />
<g clip-path="url(#c17_379)">
<path fill-rule="evenodd" d="M448,821l52,0l0,-24l-52,0l0,24Z" class="g1_379" />
</g>
<path fill-rule="evenodd" d="M509,845l280,0l0,-48l-280,0l0,48Z" class="g1_379" />
<g clip-path="url(#c18_379)">
<path fill-rule="evenodd" d="M517,821l265,0l0,-24l-265,0l0,24Z" class="g1_379" />
</g>
<path fill-rule="evenodd" d="M517,845l265,0l0,-24l-265,0l0,24Z" class="g1_379" />
<path fill-rule="evenodd" d="M791,845l81,0l0,-48l-81,0l0,48Z" class="g1_379" />
<g clip-path="url(#c19_379)">
<path fill-rule="evenodd" d="M798,821l66,0l0,-24l-66,0l0,24Z" class="g1_379" />
</g>
<path d="M46.5,797.5l0,-1" class="g3_379" />
<path d="M79.5,797.5l0,-1" class="g3_379" />
<path d="M113.5,797.5l0,-1" class="g3_379" />
<path d="M114.5,797.5l325,0" class="g3_379" />
<path d="M439.5,797.5l0,-1" class="g3_379" />
<path d="M441.5,797.5l67,0" class="g3_379" />
<path d="M508.5,797.5l0,-1" class="g3_379" />
<path d="M509.5,797.5l281,0" class="g3_379" />
<path d="M790.5,797.5l0,-1" class="g3_379" />
<path d="M791.5,797.5l81,0" class="g3_379" />
<path d="M872.5,797.5l0,-1" class="g3_379" />
<path d="M46.5,845.5l0,-48" class="g3_379" />
<path d="M79.5,845.5l0,-48" class="g3_379" />
<path d="M113.5,845.5l0,-48" class="g3_379" />
<path d="M439.5,845.5l0,-48" class="g3_379" />
<path d="M508.5,845.5l0,-48" class="g3_379" />
<path d="M790.5,845.5l0,-48" class="g3_379" />
<path d="M872.5,845.5l0,-48" class="g3_379" />
<path fill-rule="evenodd" d="M114,980l32,0l0,-133l-32,0l0,133Z" class="g1_379" />
<g clip-path="url(#c20_379)">
<path fill-rule="evenodd" d="M122,980l24,0l0,-133l-24,0l0,133Z" class="g1_379" />
</g>
<path fill-rule="evenodd" d="M147,881l292,0l0,-34l-292,0l0,34Z" class="g1_379" />
<g clip-path="url(#c21_379)">
<path fill-rule="evenodd" d="M155,871l277,0l0,-24l-277,0l0,24Z" class="g1_379" />
</g>
<path fill-rule="evenodd" d="M441,881l67,0l0,-34l-67,0l0,34Z" class="g1_379" />
<g clip-path="url(#c22_379)">
<path fill-rule="evenodd" d="M448,871l52,0l0,-24l-52,0l0,24Z" class="g1_379" />
</g>
<path fill-rule="evenodd" d="M509,881l280,0l0,-34l-280,0l0,34Z" class="g1_379" />
<g clip-path="url(#c23_379)">
<path fill-rule="evenodd" d="M517,871l265,0l0,-24l-265,0l0,24Z" class="g1_379" />
</g>
<path fill-rule="evenodd" d="M791,881l81,0l0,-34l-81,0l0,34Z" class="g1_379" />
<g clip-path="url(#c24_379)">
<path fill-rule="evenodd" d="M798,871l66,0l0,-24l-66,0l0,24Z" class="g1_379" />
</g>
<path d="M46.5,847.5l0,-2" class="g3_379" />
<path d="M79.5,847.5l0,-2" class="g3_379" />
<path d="M113.5,847.5l0,-2" class="g3_379" />
<path d="M114.5,847.5l32,0" class="g3_379" />
<path d="M146.5,847.5l0,-2" class="g3_379" />
<path d="M147.5,847.5l292,0" class="g3_379" />
<path d="M439.5,847.5l0,-2" class="g3_379" />
<path d="M441.5,847.5l67,0" class="g3_379" />
<path d="M508.5,847.5l0,-2" class="g3_379" />
<path d="M509.5,847.5l281,0" class="g3_379" />
<path d="M790.5,847.5l0,-2" class="g3_379" />
<path d="M791.5,847.5l81,0" class="g3_379" />
<path d="M872.5,847.5l0,-2" class="g3_379" />
<path d="M46.5,881.5l0,-34" class="g3_379" />
<path d="M79.5,881.5l0,-34" class="g3_379" />
<path d="M113.5,881.5l0,-34" class="g3_379" />
<path d="M146.5,881.5l0,-34" class="g3_379" />
<path d="M439.5,881.5l0,-34" class="g3_379" />
<path d="M508.5,881.5l0,-34" class="g3_379" />
<path d="M790.5,881.5l0,-34" class="g3_379" />
<path d="M872.5,881.5l0,-34" class="g3_379" />
<path fill-rule="evenodd" d="M147,915l292,0l0,-32l-292,0l0,32Z" class="g1_379" />
<g clip-path="url(#c25_379)">
<path fill-rule="evenodd" d="M155,906l277,0l0,-23l-277,0l0,23Z" class="g1_379" />
</g>
<path fill-rule="evenodd" d="M441,915l67,0l0,-32l-67,0l0,32Z" class="g1_379" />
<g clip-path="url(#c26_379)">
<path fill-rule="evenodd" d="M448,906l52,0l0,-23l-52,0l0,23Z" class="g1_379" />
</g>
<path fill-rule="evenodd" d="M509,915l280,0l0,-32l-280,0l0,32Z" class="g1_379" />
<g clip-path="url(#c27_379)">
<path fill-rule="evenodd" d="M517,906l265,0l0,-23l-265,0l0,23Z" class="g1_379" />
</g>
<path fill-rule="evenodd" d="M791,915l81,0l0,-32l-81,0l0,32Z" class="g1_379" />
<g clip-path="url(#c28_379)">
<path fill-rule="evenodd" d="M798,906l66,0l0,-23l-66,0l0,23Z" class="g1_379" />
</g>
<path d="M46.5,882.5l0,-1" class="g3_379" />
<path d="M79.5,882.5l0,-1" class="g3_379" />
<path d="M113.5,882.5l0,-1" class="g3_379" />
<path d="M146.5,882.5l0,-1" class="g3_379" />
<path d="M147.5,882.5l292,0" class="g3_379" />
<path d="M439.5,882.5l0,-1" class="g3_379" />
<path d="M441.5,882.5l67,0" class="g3_379" />
<path d="M508.5,882.5l0,-1" class="g3_379" />
<path d="M509.5,882.5l281,0" class="g3_379" />
<path d="M790.5,882.5l0,-1" class="g3_379" />
<path d="M791.5,882.5l81,0" class="g3_379" />
<path d="M872.5,882.5l0,-1" class="g3_379" />
<path d="M46.5,915.5l0,-33" class="g3_379" />
<path d="M79.5,915.5l0,-33" class="g3_379" />
<path d="M113.5,915.5l0,-33" class="g3_379" />
<path d="M146.5,915.5l0,-33" class="g3_379" />
<path d="M439.5,915.5l0,-33" class="g3_379" />
<path d="M508.5,915.5l0,-33" class="g3_379" />
<path d="M790.5,915.5l0,-33" class="g3_379" />
<path d="M872.5,915.5l0,-33" class="g3_379" />
<path fill-rule="evenodd" d="M147,948l292,0l0,-31l-292,0l0,31Z" class="g1_379" />
<path fill-rule="evenodd" d="M155,941l277,0l0,-24l-277,0l0,24Z" class="g1_379" />
<path fill-rule="evenodd" d="M441,948l67,0l0,-31l-67,0l0,31Z" class="g1_379" />
<path fill-rule="evenodd" d="M448,941l52,0l0,-24l-52,0l0,24Z" class="g1_379" />
<path fill-rule="evenodd" d="M509,948l280,0l0,-31l-280,0l0,31Z" class="g1_379" />
<path fill-rule="evenodd" d="M517,941l265,0l0,-24l-265,0l0,24Z" class="g1_379" />
<path fill-rule="evenodd" d="M791,948l81,0l0,-31l-81,0l0,31Z" class="g1_379" />
<path fill-rule="evenodd" d="M798,941l66,0l0,-24l-66,0l0,24Z" class="g1_379" />
<path d="M46.5,917.5l0,-2" class="g3_379" />
<path d="M79.5,917.5l0,-2" class="g3_379" />
<path d="M113.5,917.5l0,-2" class="g3_379" />
<path d="M146.5,917.5l0,-2" class="g3_379" />
<path d="M147.5,917.5l292,0" class="g3_379" />
<path d="M439.5,917.5l0,-2" class="g3_379" />
<path d="M441.5,917.5l67,0" class="g3_379" />
<path d="M508.5,917.5l0,-2" class="g3_379" />
<path d="M509.5,917.5l281,0" class="g3_379" />
<path d="M790.5,917.5l0,-2" class="g3_379" />
<path d="M791.5,917.5l81,0" class="g3_379" />
<path d="M872.5,917.5l0,-2" class="g3_379" />
<path d="M46.5,948.5l0,-31" class="g3_379" />
<path d="M79.5,948.5l0,-31" class="g3_379" />
<path d="M113.5,948.5l0,-31" class="g3_379" />
<path d="M146.5,948.5l0,-31" class="g3_379" />
<path d="M439.5,948.5l0,-31" class="g3_379" />
<path d="M508.5,948.5l0,-31" class="g3_379" />
<path d="M790.5,948.5l0,-31" class="g3_379" />
<path d="M872.5,948.5l0,-31" class="g3_379" />
<path fill-rule="evenodd" d="M147,980l292,0l0,-31l-292,0l0,31Z" class="g1_379" />
<path fill-rule="evenodd" d="M155,973l277,0l0,-24l-277,0l0,24Z" class="g1_379" />
<path fill-rule="evenodd" d="M441,980l67,0l0,-31l-67,0l0,31Z" class="g1_379" />
<path fill-rule="evenodd" d="M448,973l52,0l0,-24l-52,0l0,24Z" class="g1_379" />
<path fill-rule="evenodd" d="M509,980l280,0l0,-31l-280,0l0,31Z" class="g1_379" />
<path fill-rule="evenodd" d="M517,973l265,0l0,-24l-265,0l0,24Z" class="g1_379" />
<path fill-rule="evenodd" d="M791,980l81,0l0,-31l-81,0l0,31Z" class="g1_379" />
<path fill-rule="evenodd" d="M798,973l66,0l0,-24l-66,0l0,24Z" class="g1_379" />
<path d="M46.5,949.5l0,-1" class="g3_379" />
<path d="M79.5,949.5l0,-1" class="g3_379" />
<path d="M113.5,949.5l0,-1" class="g3_379" />
<path d="M146.5,949.5l0,-1" class="g3_379" />
<path d="M147.5,949.5l292,0" class="g3_379" />
<path d="M439.5,949.5l0,-1" class="g3_379" />
<path d="M441.5,949.5l67,0" class="g3_379" />
<path d="M508.5,949.5l0,-1" class="g3_379" />
<path d="M509.5,949.5l281,0" class="g3_379" />
<path d="M790.5,949.5l0,-1" class="g3_379" />
<path d="M791.5,949.5l81,0" class="g3_379" />
<path d="M872.5,949.5l0,-1" class="g3_379" />
<path d="M46.5,980.5l0,-31" class="g3_379" />
<path d="M79.5,980.5l0,-31" class="g3_379" />
<path d="M113.5,980.5l0,-31" class="g3_379" />
<path d="M146.5,980.5l0,-31" class="g3_379" />
<path d="M439.5,980.5l0,-31" class="g3_379" />
<path d="M508.5,980.5l0,-31" class="g3_379" />
<path d="M790.5,980.5l0,-31" class="g3_379" />
<path d="M872.5,980.5l0,-31" class="g3_379" />
<path fill-rule="evenodd" d="M114,1060l32,0l0,-78l-32,0l0,78Z" class="g1_379" />
<g clip-path="url(#c29_379)">
<path fill-rule="evenodd" d="M122,1060l24,0l0,-78l-24,0l0,78Z" class="g1_379" />
<path d="M146.5,1060.5l0,-78" class="g5_379" />
</g>
<path fill-rule="evenodd" d="M147,1060l32,0l0,-78l-32,0l0,78Z" class="g1_379" />
<g clip-path="url(#c30_379)">
<path fill-rule="evenodd" d="M155,1060l24,0l0,-78l-24,0l0,78Z" class="g1_379" />
</g>
<path fill-rule="evenodd" d="M180,1019l259,0l0,-37l-259,0l0,37Z" class="g1_379" />
<path fill-rule="evenodd" d="M188,1005l244,0l0,-23l-244,0l0,23Z" class="g1_379" />
<path fill-rule="evenodd" d="M441,1019l67,0l0,-37l-67,0l0,37Z" class="g1_379" />
<path fill-rule="evenodd" d="M448,1005l52,0l0,-23l-52,0l0,23Z" class="g1_379" />
<path fill-rule="evenodd" d="M509,1019l280,0l0,-37l-280,0l0,37Z" class="g1_379" />
<path fill-rule="evenodd" d="M517,1005l265,0l0,-23l-265,0l0,23Z" class="g1_379" />
<path fill-rule="evenodd" d="M791,1019l81,0l0,-37l-81,0l0,37Z" class="g1_379" />
<path fill-rule="evenodd" d="M798,1005l66,0l0,-23l-66,0l0,23Z" class="g1_379" />
<path d="M46.5,981.5l0,-1" class="g3_379" />
<path d="M79.5,981.5l0,-1" class="g3_379" />
<path d="M113.5,981.5l0,-1" class="g3_379" />
<path d="M114.5,981.5l32,0" class="g3_379" />
<path d="M146.5,981.5l0,-1" class="g3_379" />
<path d="M147.5,981.5l32,0" class="g3_379" />
<path d="M179.5,981.5l0,-1" class="g3_379" />
<path d="M180.5,981.5l259,0" class="g3_379" />
<path d="M439.5,981.5l0,-1" class="g3_379" />
<path d="M441.5,981.5l67,0" class="g3_379" />
<path d="M508.5,981.5l0,-1" class="g3_379" />
<path d="M509.5,981.5l281,0" class="g3_379" />
<path d="M790.5,981.5l0,-1" class="g3_379" />
<path d="M791.5,981.5l81,0" class="g3_379" />
<path d="M872.5,981.5l0,-1" class="g3_379" />
<path d="M46.5,1019.5l0,-38" class="g3_379" />
<path d="M79.5,1019.5l0,-38" class="g3_379" />
<path d="M113.5,1019.5l0,-38" class="g3_379" />
<path d="M146.5,1019.5l0,-38" class="g3_379" />
<path d="M179.5,1019.5l0,-38" class="g3_379" />
<path d="M439.5,1019.5l0,-38" class="g3_379" />
<path d="M508.5,1019.5l0,-38" class="g3_379" />
<path d="M790.5,1019.5l0,-38" class="g3_379" />
<path d="M872.5,1019.5l0,-38" class="g3_379" />
<path fill-rule="evenodd" d="M180,1060l259,0l0,-39l-259,0l0,39Z" class="g1_379" />
<path fill-rule="evenodd" d="M188,1045l244,0l0,-24l-244,0l0,24Z" class="g1_379" />
<path fill-rule="evenodd" d="M441,1060l67,0l0,-39l-67,0l0,39Z" class="g1_379" />
<path fill-rule="evenodd" d="M448,1045l52,0l0,-24l-52,0l0,24Z" class="g1_379" />
<path fill-rule="evenodd" d="M509,1060l280,0l0,-39l-280,0l0,39Z" class="g1_379" />
<path fill-rule="evenodd" d="M517,1045l265,0l0,-24l-265,0l0,24Z" class="g1_379" />
<path fill-rule="evenodd" d="M791,1060l81,0l0,-39l-81,0l0,39Z" class="g1_379" />
<path fill-rule="evenodd" d="M798,1045l66,0l0,-24l-66,0l0,24Z" class="g1_379" />
<path d="M46.5,1021.5l0,-2" class="g3_379" />
<path d="M79.5,1021.5l0,-2" class="g3_379" />
<path d="M113.5,1021.5l0,-2" class="g3_379" />
<path d="M146.5,1021.5l0,-2" class="g3_379" />
<path d="M179.5,1021.5l0,-2" class="g3_379" />
<path d="M180.5,1021.5l259,0" class="g3_379" />
<path d="M439.5,1021.5l0,-2" class="g3_379" />
<path d="M441.5,1021.5l67,0" class="g3_379" />
<path d="M508.5,1021.5l0,-2" class="g3_379" />
<path d="M509.5,1021.5l281,0" class="g3_379" />
<path d="M790.5,1021.5l0,-2" class="g3_379" />
<path d="M791.5,1021.5l81,0" class="g3_379" />
<path d="M872.5,1021.5l0,-2" class="g3_379" />
<path d="M46.5,1061.5l0,-40" class="g3_379" />
<path d="M46.5,1062.5l0,-1" class="g3_379" />
<path d="M46.5,1062.5l0,-1" class="g3_379" />
<path d="M47.5,1062.5l32,0" class="g3_379" />
<path d="M79.5,1061.5l0,-40" class="g3_379" />
<path d="M79.5,1062.5l0,-1" class="g3_379" />
<path d="M81.5,1062.5l32,0" class="g3_379" />
<path d="M113.5,1061.5l0,-40" class="g3_379" />
<path d="M113.5,1062.5l0,-1" class="g3_379" />
<path d="M114.5,1062.5l32,0" class="g3_379" />
<path d="M146.5,1061.5l0,-40" class="g3_379" />
<path d="M146.5,1062.5l0,-1" class="g3_379" />
<path d="M147.5,1062.5l32,0" class="g3_379" />
<path d="M179.5,1061.5l0,-40" class="g3_379" />
<path d="M179.5,1062.5l0,-1" class="g3_379" />
<path d="M180.5,1062.5l259,0" class="g3_379" />
<path d="M439.5,1061.5l0,-40" class="g3_379" />
<path d="M439.5,1062.5l0,-1" class="g3_379" />
<path d="M441.5,1062.5l67,0" class="g3_379" />
<path d="M508.5,1061.5l0,-40" class="g3_379" />
<path d="M508.5,1062.5l0,-1" class="g3_379" />
<path d="M509.5,1062.5l281,0" class="g3_379" />
<path d="M790.5,1061.5l0,-40" class="g3_379" />
<path d="M790.5,1062.5l0,-1" class="g3_379" />
<path d="M791.5,1062.5l81,0" class="g3_379" />
<path d="M872.5,1061.5l0,-40" class="g3_379" />
<path d="M872.5,1062.5l0,-1" class="g3_379" />
<path d="M872.5,1062.5l0,-1" class="g3_379" />
</svg>