<?xml version="1.0" encoding="UTF-8" standalone="no"?>
<!DOCTYPE svg PUBLIC "-//W3C//DTD SVG 1.1//EN"
"http://www.w3.org/Graphics/SVG/1.1/DTD/svg11.dtd">
<svg version="1.1" xmlns="http://www.w3.org/2000/svg" xmlns:xlink="http://www.w3.org/1999/xlink">
<defs>
<clipPath id="c0_474"><path d="M47.5,421.5l0,-310l840,0l0,310Z" /></clipPath>
<clipPath id="c1_474"><path d="M47.5,1095.5l0,-560l34,0l0,560Z" /></clipPath>
<clipPath id="c2_474"><path d="M83.5,606.5l0,-71l377,0l0,71Z" /></clipPath>
<clipPath id="c3_474"><path d="M461.5,606.5l0,-71l68,0l0,71Z" /></clipPath>
<clipPath id="c4_474"><path d="M530.5,606.5l0,-71l356,0l0,71Z" /></clipPath>
<clipPath id="c5_474"><path d="M83.5,658.5l0,-24l377,0l0,24Z" /></clipPath>
<clipPath id="c6_474"><path d="M461.5,658.5l0,-24l68,0l0,24Z" /></clipPath>
<clipPath id="c7_474"><path d="M530.5,658.5l0,-24l356,0l0,24Z" /></clipPath>
<clipPath id="c8_474"><path d="M83.5,1095.5l0,-436l33,0l0,436Z" /></clipPath>
<clipPath id="c9_474"><path d="M117.5,1095.5l0,-436l40,0l0,436Z" /></clipPath>
<clipPath id="c10_474"><path d="M158.5,1095.5l0,-436l40,0l0,436Z" /></clipPath>
<clipPath id="c11_474"><path d="M200.5,683.5l0,-24l260,0l0,24Z" /></clipPath>
<clipPath id="c12_474"><path d="M461.5,683.5l0,-24l68,0l0,24Z" /></clipPath>
<clipPath id="c13_474"><path d="M530.5,683.5l0,-24l356,0l0,24Z" /></clipPath>
<clipPath id="c14_474"><path d="M530.5,1019.5l0,-334l356,0l0,334Z" /></clipPath>
<clipPath id="c15_474"><path d="M200.5,1044.5l0,-24l260,0l0,24Z" /></clipPath>
<clipPath id="c16_474"><path d="M461.5,1044.5l0,-24l68,0l0,24Z" /></clipPath>
<clipPath id="c17_474"><path d="M530.5,1044.5l0,-24l356,0l0,24Z" /></clipPath>
<clipPath id="c18_474"><path d="M200.5,1069.5l0,-24l260,0l0,24Z" /></clipPath>
<clipPath id="c19_474"><path d="M461.5,1069.5l0,-24l68,0l0,24Z" /></clipPath>
<clipPath id="c20_474"><path d="M530.5,1069.5l0,-24l356,0l0,24Z" /></clipPath>
<clipPath id="c21_474"><path d="M200.5,1095.5l0,-24l260,0l0,24Z" /></clipPath>
<clipPath id="c22_474"><path d="M461.5,1095.5l0,-24l68,0l0,24Z" /></clipPath>
<clipPath id="c23_474"><path d="M530.5,1095.5l0,-24l356,0l0,24Z" /></clipPath>
<style type="text/css"><![CDATA[
.g2_474{
fill: none;
stroke: #7E7E7E;
stroke-width: 1;
stroke-linecap: butt;
stroke-linejoin: miter;
}
.g3_474{
fill: #DBE5F1;
}
.g1_474{
fill: #F1F1F1;
}
]]></style>
</defs>
<path fill-rule="evenodd" d="M47,421l840,0l0,-310L47,111l0,310Z" class="g1_474" />
<g clip-path="url(#c0_474)">
<path fill-rule="evenodd" d="M55,135l825,0l0,-24L55,111l0,24Z" class="g1_474" />
</g>
<path fill-rule="evenodd" d="M55,159l825,0l0,-24L55,135l0,24Z" class="g1_474" />
<path fill-rule="evenodd" d="M55,182l825,0l0,-23L55,159l0,23Z" class="g1_474" />
<path fill-rule="evenodd" d="M55,206l825,0l0,-24L55,182l0,24Z" class="g1_474" />
<path fill-rule="evenodd" d="M55,230l825,0l0,-24L55,206l0,24Z" class="g1_474" />
<path fill-rule="evenodd" d="M55,254l825,0l0,-24L55,230l0,24Z" class="g1_474" />
<path fill-rule="evenodd" d="M55,278l825,0l0,-24L55,254l0,24Z" class="g1_474" />
<path fill-rule="evenodd" d="M55,302l825,0l0,-24L55,278l0,24Z" class="g1_474" />
<path fill-rule="evenodd" d="M55,325l825,0l0,-23L55,302l0,23Z" class="g1_474" />
<path fill-rule="evenodd" d="M55,349l825,0l0,-24L55,325l0,24Z" class="g1_474" />
<path fill-rule="evenodd" d="M55,373l825,0l0,-24L55,349l0,24Z" class="g1_474" />
<path fill-rule="evenodd" d="M55,397l825,0l0,-24L55,373l0,24Z" class="g1_474" />
<path fill-rule="evenodd" d="M55,421l825,0l0,-24L55,397l0,24Z" class="g1_474" />
<path d="M46.5,111.5l0,-1" class="g2_474" />
<path d="M46.5,111.5l0,-1" class="g2_474" />
<path d="M47.5,111.5l840,0" class="g2_474" />
<path d="M887.5,111.5l0,-1" class="g2_474" />
<path d="M887.5,111.5l0,-1" class="g2_474" />
<path d="M46.5,421.5l0,-310" class="g2_474" />
<path d="M46.5,423.5l0,-2" class="g2_474" />
<path d="M46.5,423.5l0,-2" class="g2_474" />
<path d="M47.5,423.5l840,0" class="g2_474" />
<path d="M887.5,421.5l0,-310" class="g2_474" />
<path d="M887.5,423.5l0,-2" class="g2_474" />
<path d="M887.5,423.5l0,-2" class="g2_474" />
<path fill-rule="evenodd" d="M47,533l413,0l0,-24L47,509l0,24Z" class="g3_474" />
<path fill-rule="evenodd" d="M55,533l397,0l0,-24L55,509l0,24Z" class="g3_474" />
<path fill-rule="evenodd" d="M461,533l68,0l0,-24l-68,0l0,24Z" class="g3_474" />
<path fill-rule="evenodd" d="M469,533l52,0l0,-24l-52,0l0,24Z" class="g3_474" />
<path fill-rule="evenodd" d="M530,533l356,0l0,-24l-356,0l0,24Z" class="g3_474" />
<path fill-rule="evenodd" d="M538,533l340,0l0,-24l-340,0l0,24Z" class="g3_474" />
<path d="M46.5,509.5l0,-2" class="g2_474" />
<path d="M46.5,509.5l0,-2" class="g2_474" />
<path d="M47.5,509.5l413,0" class="g2_474" />
<path d="M460.5,509.5l0,-2" class="g2_474" />
<path d="M461.5,509.5l68,0" class="g2_474" />
<path d="M529.5,509.5l0,-2" class="g2_474" />
<path d="M530.5,509.5l356,0" class="g2_474" />
<path d="M886.5,509.5l0,-2" class="g2_474" />
<path d="M886.5,509.5l0,-2" class="g2_474" />
<path d="M46.5,533.5l0,-24" class="g2_474" />
<path d="M460.5,533.5l0,-24" class="g2_474" />
<path d="M529.5,533.5l0,-24" class="g2_474" />
<path d="M886.5,533.5l0,-24" class="g2_474" />
<path fill-rule="evenodd" d="M47,1095l34,0L81,535l-34,0l0,560Z" class="g1_474" />
<g clip-path="url(#c1_474)">
<path fill-rule="evenodd" d="M55,1095l23,0L78,535l-23,0l0,560Z" class="g1_474" />
</g>
<path fill-rule="evenodd" d="M83,606l377,0l0,-71L83,535l0,71Z" class="g1_474" />
<g clip-path="url(#c2_474)">
<path fill-rule="evenodd" d="M90,559l362,0l0,-24L90,535l0,24Z" class="g1_474" />
</g>
<path fill-rule="evenodd" d="M461,606l68,0l0,-71l-68,0l0,71Z" class="g1_474" />
<g clip-path="url(#c3_474)">
<path fill-rule="evenodd" d="M469,559l52,0l0,-24l-52,0l0,24Z" class="g1_474" />
</g>
<path fill-rule="evenodd" d="M530,606l356,0l0,-71l-356,0l0,71Z" class="g1_474" />
<g clip-path="url(#c4_474)">
<path fill-rule="evenodd" d="M538,559l340,0l0,-24l-340,0l0,24Z" class="g1_474" />
</g>
<path fill-rule="evenodd" d="M538,582l340,0l0,-23l-340,0l0,23Z" class="g1_474" />
<path fill-rule="evenodd" d="M538,606l340,0l0,-24l-340,0l0,24Z" class="g1_474" />
<path d="M46.5,535.5l0,-2" class="g2_474" />
<path d="M47.5,535.5l34,0" class="g2_474" />
<path d="M81.5,535.5l0,-2" class="g2_474" />
<path d="M83.5,535.5l377,0" class="g2_474" />
<path d="M460.5,535.5l0,-2" class="g2_474" />
<path d="M461.5,535.5l68,0" class="g2_474" />
<path d="M529.5,535.5l0,-2" class="g2_474" />
<path d="M530.5,535.5l356,0" class="g2_474" />
<path d="M886.5,535.5l0,-2" class="g2_474" />
<path d="M46.5,606.5l0,-71" class="g2_474" />
<path d="M81.5,606.5l0,-71" class="g2_474" />
<path d="M460.5,606.5l0,-71" class="g2_474" />
<path d="M529.5,606.5l0,-71" class="g2_474" />
<path d="M886.5,606.5l0,-71" class="g2_474" />
<path fill-rule="evenodd" d="M83,632l377,0l0,-24L83,608l0,24Z" class="g1_474" />
<path fill-rule="evenodd" d="M90,632l362,0l0,-24L90,608l0,24Z" class="g1_474" />
<path fill-rule="evenodd" d="M461,632l68,0l0,-24l-68,0l0,24Z" class="g1_474" />
<path fill-rule="evenodd" d="M469,632l52,0l0,-24l-52,0l0,24Z" class="g1_474" />
<path fill-rule="evenodd" d="M530,632l356,0l0,-24l-356,0l0,24Z" class="g1_474" />
<path fill-rule="evenodd" d="M538,632l340,0l0,-24l-340,0l0,24Z" class="g1_474" />
<path d="M46.5,608.5l0,-2" class="g2_474" />
<path d="M81.5,608.5l0,-2" class="g2_474" />
<path d="M83.5,608.5l377,0" class="g2_474" />
<path d="M460.5,608.5l0,-2" class="g2_474" />
<path d="M461.5,608.5l68,0" class="g2_474" />
<path d="M529.5,608.5l0,-2" class="g2_474" />
<path d="M530.5,608.5l356,0" class="g2_474" />
<path d="M886.5,608.5l0,-2" class="g2_474" />
<path d="M46.5,632.5l0,-24" class="g2_474" />
<path d="M81.5,632.5l0,-24" class="g2_474" />
<path d="M460.5,632.5l0,-24" class="g2_474" />
<path d="M529.5,632.5l0,-24" class="g2_474" />
<path d="M886.5,632.5l0,-24" class="g2_474" />
<path fill-rule="evenodd" d="M83,658l377,0l0,-24L83,634l0,24Z" class="g1_474" />
<g clip-path="url(#c5_474)">
<path fill-rule="evenodd" d="M90,657l362,0l0,-23L90,634l0,23Z" class="g1_474" />
</g>
<path fill-rule="evenodd" d="M461,658l68,0l0,-24l-68,0l0,24Z" class="g1_474" />
<g clip-path="url(#c6_474)">
<path fill-rule="evenodd" d="M469,657l52,0l0,-23l-52,0l0,23Z" class="g1_474" />
</g>
<path fill-rule="evenodd" d="M530,658l356,0l0,-24l-356,0l0,24Z" class="g1_474" />
<g clip-path="url(#c7_474)">
<path fill-rule="evenodd" d="M538,657l340,0l0,-23l-340,0l0,23Z" class="g1_474" />
</g>
<path d="M46.5,634.5l0,-2" class="g2_474" />
<path d="M81.5,634.5l0,-2" class="g2_474" />
<path d="M83.5,634.5l377,0" class="g2_474" />
<path d="M460.5,634.5l0,-2" class="g2_474" />
<path d="M461.5,634.5l68,0" class="g2_474" />
<path d="M529.5,634.5l0,-2" class="g2_474" />
<path d="M530.5,634.5l356,0" class="g2_474" />
<path d="M886.5,634.5l0,-2" class="g2_474" />
<path d="M46.5,658.5l0,-24" class="g2_474" />
<path d="M81.5,658.5l0,-24" class="g2_474" />
<path d="M460.5,658.5l0,-24" class="g2_474" />
<path d="M529.5,658.5l0,-24" class="g2_474" />
<path d="M886.5,658.5l0,-24" class="g2_474" />
<path fill-rule="evenodd" d="M83,1095l33,0l0,-436l-33,0l0,436Z" class="g1_474" />
<g clip-path="url(#c8_474)">
<path fill-rule="evenodd" d="M90,1095l24,0l0,-436l-24,0l0,436Z" class="g1_474" />
</g>
<path fill-rule="evenodd" d="M117,1095l40,0l0,-436l-40,0l0,436Z" class="g1_474" />
<g clip-path="url(#c9_474)">
<path fill-rule="evenodd" d="M125,1095l24,0l0,-436l-24,0l0,436Z" class="g1_474" />
</g>
<path fill-rule="evenodd" d="M158,1095l40,0l0,-436l-40,0l0,436Z" class="g1_474" />
<g clip-path="url(#c10_474)">
<path fill-rule="evenodd" d="M166,1095l24,0l0,-436l-24,0l0,436Z" class="g1_474" />
</g>
<path fill-rule="evenodd" d="M200,683l260,0l0,-24l-260,0l0,24Z" class="g1_474" />
<g clip-path="url(#c11_474)">
<path fill-rule="evenodd" d="M207,683l245,0l0,-24l-245,0l0,24Z" class="g1_474" />
</g>
<path fill-rule="evenodd" d="M461,683l68,0l0,-24l-68,0l0,24Z" class="g1_474" />
<g clip-path="url(#c12_474)">
<path fill-rule="evenodd" d="M469,683l52,0l0,-24l-52,0l0,24Z" class="g1_474" />
</g>
<path fill-rule="evenodd" d="M530,683l356,0l0,-24l-356,0l0,24Z" class="g1_474" />
<g clip-path="url(#c13_474)">
<path fill-rule="evenodd" d="M538,683l340,0l0,-24l-340,0l0,24Z" class="g1_474" />
</g>
<path d="M46.5,659.5l0,-1" class="g2_474" />
<path d="M81.5,659.5l0,-1" class="g2_474" />
<path d="M83.5,659.5l33,0" class="g2_474" />
<path d="M116.5,659.5l0,-1" class="g2_474" />
<path d="M117.5,659.5l40,0" class="g2_474" />
<path d="M157.5,659.5l0,-1" class="g2_474" />
<path d="M158.5,659.5l40,0" class="g2_474" />
<path d="M198.5,659.5l0,-1" class="g2_474" />
<path d="M200.5,659.5l260,0" class="g2_474" />
<path d="M460.5,659.5l0,-1" class="g2_474" />
<path d="M461.5,659.5l68,0" class="g2_474" />
<path d="M529.5,659.5l0,-1" class="g2_474" />
<path d="M530.5,659.5l356,0" class="g2_474" />
<path d="M886.5,659.5l0,-1" class="g2_474" />
<path d="M46.5,683.5l0,-24" class="g2_474" />
<path d="M81.5,683.5l0,-24" class="g2_474" />
<path d="M116.5,683.5l0,-24" class="g2_474" />
<path d="M157.5,683.5l0,-24" class="g2_474" />
<path d="M198.5,683.5l0,-24" class="g2_474" />
<path d="M460.5,683.5l0,-24" class="g2_474" />
<path d="M529.5,683.5l0,-24" class="g2_474" />
<path d="M886.5,683.5l0,-24" class="g2_474" />
<path fill-rule="evenodd" d="M200,1019l260,0l0,-334l-260,0l0,334Z" class="g1_474" />
<path fill-rule="evenodd" d="M207,709l245,0l0,-24l-245,0l0,24Z" class="g1_474" />
<path fill-rule="evenodd" d="M461,1019l68,0l0,-334l-68,0l0,334Z" class="g1_474" />
<path fill-rule="evenodd" d="M469,709l52,0l0,-24l-52,0l0,24Z" class="g1_474" />
<path fill-rule="evenodd" d="M530,1019l356,0l0,-334l-356,0l0,334Z" class="g1_474" />
<path fill-rule="evenodd" d="M538,709l340,0l0,-24l-340,0l0,24Z" class="g1_474" />
<path fill-rule="evenodd" d="M538,733l340,0l0,-24l-340,0l0,24Z" class="g1_474" />
<path fill-rule="evenodd" d="M538,756l340,0l0,-23l-340,0l0,23Z" class="g1_474" />
<path fill-rule="evenodd" d="M538,780l340,0l0,-24l-340,0l0,24Z" class="g1_474" />
<path fill-rule="evenodd" d="M538,804l340,0l0,-24l-340,0l0,24Z" class="g1_474" />
<path fill-rule="evenodd" d="M538,828l340,0l0,-24l-340,0l0,24Z" class="g1_474" />
<path fill-rule="evenodd" d="M538,852l340,0l0,-24l-340,0l0,24Z" class="g1_474" />
<path fill-rule="evenodd" d="M538,876l340,0l0,-24l-340,0l0,24Z" class="g1_474" />
<path fill-rule="evenodd" d="M538,899l340,0l0,-23l-340,0l0,23Z" class="g1_474" />
<path fill-rule="evenodd" d="M538,923l340,0l0,-24l-340,0l0,24Z" class="g1_474" />
<path fill-rule="evenodd" d="M538,947l340,0l0,-24l-340,0l0,24Z" class="g1_474" />
<path fill-rule="evenodd" d="M538,971l340,0l0,-24l-340,0l0,24Z" class="g1_474" />
<path fill-rule="evenodd" d="M538,995l340,0l0,-24l-340,0l0,24Z" class="g1_474" />
<g clip-path="url(#c14_474)">
<path fill-rule="evenodd" d="M538,1019l340,0l0,-24l-340,0l0,24Z" class="g1_474" />
</g>
<path d="M46.5,685.5l0,-2" class="g2_474" />
<path d="M81.5,685.5l0,-2" class="g2_474" />
<path d="M116.5,685.5l0,-2" class="g2_474" />
<path d="M157.5,685.5l0,-2" class="g2_474" />
<path d="M198.5,685.5l0,-2" class="g2_474" />
<path d="M200.5,685.5l260,0" class="g2_474" />
<path d="M460.5,685.5l0,-2" class="g2_474" />
<path d="M461.5,685.5l68,0" class="g2_474" />
<path d="M529.5,685.5l0,-2" class="g2_474" />
<path d="M530.5,685.5l356,0" class="g2_474" />
<path d="M886.5,685.5l0,-2" class="g2_474" />
<path d="M46.5,1019.5l0,-334" class="g2_474" />
<path d="M81.5,1019.5l0,-334" class="g2_474" />
<path d="M116.5,1019.5l0,-334" class="g2_474" />
<path d="M157.5,1019.5l0,-334" class="g2_474" />
<path d="M198.5,1019.5l0,-334" class="g2_474" />
<path d="M460.5,1019.5l0,-334" class="g2_474" />
<path d="M529.5,1019.5l0,-334" class="g2_474" />
<path d="M886.5,1019.5l0,-334" class="g2_474" />
<path fill-rule="evenodd" d="M200,1044l260,0l0,-24l-260,0l0,24Z" class="g1_474" />
<g clip-path="url(#c15_474)">
<path fill-rule="evenodd" d="M207,1044l245,0l0,-24l-245,0l0,24Z" class="g1_474" />
</g>
<path fill-rule="evenodd" d="M461,1044l68,0l0,-24l-68,0l0,24Z" class="g1_474" />
<g clip-path="url(#c16_474)">
<path fill-rule="evenodd" d="M469,1044l52,0l0,-24l-52,0l0,24Z" class="g1_474" />
</g>
<path fill-rule="evenodd" d="M530,1044l356,0l0,-24l-356,0l0,24Z" class="g1_474" />
<g clip-path="url(#c17_474)">
<path fill-rule="evenodd" d="M538,1044l340,0l0,-24l-340,0l0,24Z" class="g1_474" />
</g>
<path d="M46.5,1020.5l0,-1" class="g2_474" />
<path d="M81.5,1020.5l0,-1" class="g2_474" />
<path d="M116.5,1020.5l0,-1" class="g2_474" />
<path d="M157.5,1020.5l0,-1" class="g2_474" />
<path d="M198.5,1020.5l0,-1" class="g2_474" />
<path d="M200.5,1020.5l260,0" class="g2_474" />
<path d="M460.5,1020.5l0,-1" class="g2_474" />
<path d="M461.5,1020.5l68,0" class="g2_474" />
<path d="M529.5,1020.5l0,-1" class="g2_474" />
<path d="M530.5,1020.5l356,0" class="g2_474" />
<path d="M886.5,1020.5l0,-1" class="g2_474" />
<path d="M46.5,1044.5l0,-24" class="g2_474" />
<path d="M81.5,1044.5l0,-24" class="g2_474" />
<path d="M116.5,1044.5l0,-24" class="g2_474" />
<path d="M157.5,1044.5l0,-24" class="g2_474" />
<path d="M198.5,1044.5l0,-24" class="g2_474" />
<path d="M460.5,1044.5l0,-24" class="g2_474" />
<path d="M529.5,1044.5l0,-24" class="g2_474" />
<path d="M886.5,1044.5l0,-24" class="g2_474" />
<path fill-rule="evenodd" d="M200,1069l260,0l0,-24l-260,0l0,24Z" class="g1_474" />
<g clip-path="url(#c18_474)">
<path fill-rule="evenodd" d="M207,1069l245,0l0,-24l-245,0l0,24Z" class="g1_474" />
</g>
<path fill-rule="evenodd" d="M461,1069l68,0l0,-24l-68,0l0,24Z" class="g1_474" />
<g clip-path="url(#c19_474)">
<path fill-rule="evenodd" d="M469,1069l52,0l0,-24l-52,0l0,24Z" class="g1_474" />
</g>
<path fill-rule="evenodd" d="M530,1069l356,0l0,-24l-356,0l0,24Z" class="g1_474" />
<g clip-path="url(#c20_474)">
<path fill-rule="evenodd" d="M538,1069l340,0l0,-24l-340,0l0,24Z" class="g1_474" />
</g>
<path d="M46.5,1045.5l0,-1" class="g2_474" />
<path d="M81.5,1045.5l0,-1" class="g2_474" />
<path d="M116.5,1045.5l0,-1" class="g2_474" />
<path d="M157.5,1045.5l0,-1" class="g2_474" />
<path d="M198.5,1045.5l0,-1" class="g2_474" />
<path d="M200.5,1045.5l260,0" class="g2_474" />
<path d="M460.5,1045.5l0,-1" class="g2_474" />
<path d="M461.5,1045.5l68,0" class="g2_474" />
<path d="M529.5,1045.5l0,-1" class="g2_474" />
<path d="M530.5,1045.5l356,0" class="g2_474" />
<path d="M886.5,1045.5l0,-1" class="g2_474" />
<path d="M46.5,1069.5l0,-24" class="g2_474" />
<path d="M81.5,1069.5l0,-24" class="g2_474" />
<path d="M116.5,1069.5l0,-24" class="g2_474" />
<path d="M157.5,1069.5l0,-24" class="g2_474" />
<path d="M198.5,1069.5l0,-24" class="g2_474" />
<path d="M460.5,1069.5l0,-24" class="g2_474" />
<path d="M529.5,1069.5l0,-24" class="g2_474" />
<path d="M886.5,1069.5l0,-24" class="g2_474" />
<path fill-rule="evenodd" d="M200,1095l260,0l0,-24l-260,0l0,24Z" class="g1_474" />
<g clip-path="url(#c21_474)">
<path fill-rule="evenodd" d="M207,1095l245,0l0,-24l-245,0l0,24Z" class="g1_474" />
</g>
<path fill-rule="evenodd" d="M461,1095l68,0l0,-24l-68,0l0,24Z" class="g1_474" />
<g clip-path="url(#c22_474)">
<path fill-rule="evenodd" d="M469,1095l52,0l0,-24l-52,0l0,24Z" class="g1_474" />
</g>
<path fill-rule="evenodd" d="M530,1095l356,0l0,-24l-356,0l0,24Z" class="g1_474" />
<g clip-path="url(#c23_474)">
<path fill-rule="evenodd" d="M538,1095l340,0l0,-24l-340,0l0,24Z" class="g1_474" />
</g>
<path d="M46.5,1071.5l0,-2" class="g2_474" />
<path d="M81.5,1071.5l0,-2" class="g2_474" />
<path d="M116.5,1071.5l0,-2" class="g2_474" />
<path d="M157.5,1071.5l0,-2" class="g2_474" />
<path d="M198.5,1071.5l0,-2" class="g2_474" />
<path d="M200.5,1071.5l260,0" class="g2_474" />
<path d="M460.5,1071.5l0,-2" class="g2_474" />
<path d="M461.5,1071.5l68,0" class="g2_474" />
<path d="M529.5,1071.5l0,-2" class="g2_474" />
<path d="M530.5,1071.5l356,0" class="g2_474" />
<path d="M886.5,1071.5l0,-2" class="g2_474" />
<path d="M46.5,1095.5l0,-24" class="g2_474" />
<path d="M46.5,1096.5l0,-1" class="g2_474" />
<path d="M46.5,1096.5l0,-1" class="g2_474" />
<path d="M47.5,1096.5l34,0" class="g2_474" />
<path d="M81.5,1095.5l0,-24" class="g2_474" />
<path d="M81.5,1096.5l0,-1" class="g2_474" />
<path d="M83.5,1096.5l33,0" class="g2_474" />
<path d="M116.5,1095.5l0,-24" class="g2_474" />
<path d="M116.5,1096.5l0,-1" class="g2_474" />
<path d="M117.5,1096.5l40,0" class="g2_474" />
<path d="M157.5,1095.5l0,-24" class="g2_474" />
<path d="M157.5,1096.5l0,-1" class="g2_474" />
<path d="M158.5,1096.5l40,0" class="g2_474" />
<path d="M198.5,1095.5l0,-24" class="g2_474" />
<path d="M198.5,1096.5l0,-1" class="g2_474" />
<path d="M200.5,1096.5l260,0" class="g2_474" />
<path d="M460.5,1095.5l0,-24" class="g2_474" />
<path d="M460.5,1096.5l0,-1" class="g2_474" />
<path d="M461.5,1096.5l68,0" class="g2_474" />
<path d="M529.5,1095.5l0,-24" class="g2_474" />
<path d="M529.5,1096.5l0,-1" class="g2_474" />
<path d="M530.5,1096.5l356,0" class="g2_474" />
<path d="M886.5,1095.5l0,-24" class="g2_474" />
<path d="M886.5,1096.5l0,-1" class="g2_474" />
<path d="M886.5,1096.5l0,-1" class="g2_474" />
</svg>