<?xml version="1.0" encoding="UTF-8" standalone="no"?>
<!DOCTYPE svg PUBLIC "-//W3C//DTD SVG 1.1//EN"
"http://www.w3.org/Graphics/SVG/1.1/DTD/svg11.dtd">
<svg version="1.1" xmlns="http://www.w3.org/2000/svg" xmlns:xlink="http://www.w3.org/1999/xlink">
<defs>
<clipPath id="c0_127"><path d="M47.5,135.5l0,-24l840,0l0,24Z" /></clipPath>
<clipPath id="c1_127"><path d="M47.5,615.5l0,-406l840,0l0,406Z" /></clipPath>
<clipPath id="c2_127"><path d="M47.5,727.5l0,-24l266,0l0,24Z" /></clipPath>
<clipPath id="c3_127"><path d="M315.5,727.5l0,-24l75,0l0,24Z" /></clipPath>
<clipPath id="c4_127"><path d="M391.5,727.5l0,-24l496,0l0,24Z" /></clipPath>
<clipPath id="c5_127"><path d="M47.5,1068.5l0,-339l39,0l0,339Z" /></clipPath>
<clipPath id="c6_127"><path d="M88.5,776.5l0,-47l225,0l0,47Z" /></clipPath>
<clipPath id="c7_127"><path d="M315.5,776.5l0,-47l75,0l0,47Z" /></clipPath>
<clipPath id="c8_127"><path d="M391.5,776.5l0,-47l496,0l0,47Z" /></clipPath>
<clipPath id="c9_127"><path d="M88.5,802.5l0,-24l225,0l0,24Z" /></clipPath>
<clipPath id="c10_127"><path d="M315.5,802.5l0,-24l75,0l0,24Z" /></clipPath>
<clipPath id="c11_127"><path d="M391.5,802.5l0,-24l496,0l0,24Z" /></clipPath>
<clipPath id="c12_127"><path d="M88.5,828.5l0,-24l225,0l0,24Z" /></clipPath>
<clipPath id="c13_127"><path d="M315.5,828.5l0,-24l75,0l0,24Z" /></clipPath>
<clipPath id="c14_127"><path d="M391.5,828.5l0,-24l496,0l0,24Z" /></clipPath>
<clipPath id="c15_127"><path d="M88.5,855.5l0,-25l225,0l0,25Z" /></clipPath>
<clipPath id="c16_127"><path d="M315.5,855.5l0,-25l75,0l0,25Z" /></clipPath>
<clipPath id="c17_127"><path d="M391.5,855.5l0,-25l496,0l0,25Z" /></clipPath>
<clipPath id="c18_127"><path d="M88.5,1068.5l0,-212l39,0l0,212Z" /></clipPath>
<clipPath id="c19_127"><path d="M129.5,910.5l0,-54l184,0l0,54Z" /></clipPath>
<clipPath id="c20_127"><path d="M315.5,910.5l0,-54l75,0l0,54Z" /></clipPath>
<clipPath id="c21_127"><path d="M391.5,910.5l0,-54l496,0l0,54Z" /></clipPath>
<clipPath id="c22_127"><path d="M129.5,1068.5l0,-156l39,0l0,156Z" /></clipPath>
<style type="text/css"><![CDATA[
.g2_127{
fill: none;
stroke: #7E7E7E;
stroke-width: 1;
stroke-linecap: butt;
stroke-linejoin: miter;
}
.g3_127{
fill: #DBE5F1;
}
.g1_127{
fill: #F1F1F1;
}
]]></style>
</defs>
<path fill-rule="evenodd" d="M47,135l840,0l0,-24L47,111l0,24Z" class="g1_127" />
<g clip-path="url(#c0_127)">
<path fill-rule="evenodd" d="M55,135l825,0l0,-24L55,111l0,24Z" class="g1_127" />
</g>
<path d="M46.5,111.5l0,-1" class="g2_127" />
<path d="M46.5,111.5l0,-1" class="g2_127" />
<path d="M47.5,111.5l840,0" class="g2_127" />
<path d="M887.5,111.5l0,-1" class="g2_127" />
<path d="M887.5,111.5l0,-1" class="g2_127" />
<path d="M46.5,135.5l0,-24" class="g2_127" />
<path d="M46.5,136.5l0,-1" class="g2_127" />
<path d="M46.5,136.5l0,-1" class="g2_127" />
<path d="M47.5,136.5l840,0" class="g2_127" />
<path d="M887.5,135.5l0,-24" class="g2_127" />
<path d="M887.5,136.5l0,-1" class="g2_127" />
<path d="M887.5,136.5l0,-1" class="g2_127" />
<path fill-rule="evenodd" d="M47,615l840,0l0,-406L47,209l0,406Z" class="g1_127" />
<g clip-path="url(#c1_127)">
<path fill-rule="evenodd" d="M55,233l825,0l0,-24L55,209l0,24Z" class="g1_127" />
</g>
<path fill-rule="evenodd" d="M55,257l825,0l0,-24L55,233l0,24Z" class="g1_127" />
<path fill-rule="evenodd" d="M55,281l825,0l0,-24L55,257l0,24Z" class="g1_127" />
<path fill-rule="evenodd" d="M55,305l825,0l0,-24L55,281l0,24Z" class="g1_127" />
<path fill-rule="evenodd" d="M55,329l825,0l0,-24L55,305l0,24Z" class="g1_127" />
<path fill-rule="evenodd" d="M55,352l825,0l0,-23L55,329l0,23Z" class="g1_127" />
<path fill-rule="evenodd" d="M55,376l825,0l0,-24L55,352l0,24Z" class="g1_127" />
<path fill-rule="evenodd" d="M55,400l825,0l0,-24L55,376l0,24Z" class="g1_127" />
<path fill-rule="evenodd" d="M55,424l825,0l0,-24L55,400l0,24Z" class="g1_127" />
<path fill-rule="evenodd" d="M55,448l825,0l0,-24L55,424l0,24Z" class="g1_127" />
<path fill-rule="evenodd" d="M55,472l825,0l0,-24L55,448l0,24Z" class="g1_127" />
<path fill-rule="evenodd" d="M55,495l825,0l0,-23L55,472l0,23Z" class="g1_127" />
<path fill-rule="evenodd" d="M55,519l825,0l0,-24L55,495l0,24Z" class="g1_127" />
<path fill-rule="evenodd" d="M55,543l825,0l0,-24L55,519l0,24Z" class="g1_127" />
<path fill-rule="evenodd" d="M55,567l825,0l0,-24L55,543l0,24Z" class="g1_127" />
<path fill-rule="evenodd" d="M55,591l825,0l0,-24L55,567l0,24Z" class="g1_127" />
<path fill-rule="evenodd" d="M55,615l825,0l0,-24L55,591l0,24Z" class="g1_127" />
<path d="M46.5,209.5l0,-1" class="g2_127" />
<path d="M46.5,209.5l0,-1" class="g2_127" />
<path d="M47.5,209.5l840,0" class="g2_127" />
<path d="M887.5,209.5l0,-1" class="g2_127" />
<path d="M887.5,209.5l0,-1" class="g2_127" />
<path d="M46.5,615.5l0,-406" class="g2_127" />
<path d="M46.5,616.5l0,-1" class="g2_127" />
<path d="M46.5,616.5l0,-1" class="g2_127" />
<path d="M47.5,616.5l840,0" class="g2_127" />
<path d="M887.5,615.5l0,-406" class="g2_127" />
<path d="M887.5,616.5l0,-1" class="g2_127" />
<path d="M887.5,616.5l0,-1" class="g2_127" />
<path fill-rule="evenodd" d="M47,727l266,0l0,-24L47,703l0,24Z" class="g3_127" />
<g clip-path="url(#c2_127)">
<path fill-rule="evenodd" d="M55,726l251,0l0,-23L55,703l0,23Z" class="g3_127" />
</g>
<path fill-rule="evenodd" d="M315,727l75,0l0,-24l-75,0l0,24Z" class="g3_127" />
<g clip-path="url(#c3_127)">
<path fill-rule="evenodd" d="M322,726l60,0l0,-23l-60,0l0,23Z" class="g3_127" />
</g>
<path fill-rule="evenodd" d="M391,727l496,0l0,-24l-496,0l0,24Z" class="g3_127" />
<g clip-path="url(#c4_127)">
<path fill-rule="evenodd" d="M399,726l481,0l0,-23l-481,0l0,23Z" class="g3_127" />
</g>
<path d="M46.5,703.5l0,-2" class="g2_127" />
<path d="M46.5,703.5l0,-2" class="g2_127" />
<path d="M47.5,703.5l266,0" class="g2_127" />
<path d="M313.5,703.5l0,-2" class="g2_127" />
<path d="M315.5,703.5l75,0" class="g2_127" />
<path d="M390.5,703.5l0,-2" class="g2_127" />
<path d="M391.5,703.5l496,0" class="g2_127" />
<path d="M887.5,703.5l0,-2" class="g2_127" />
<path d="M887.5,703.5l0,-2" class="g2_127" />
<path d="M46.5,727.5l0,-24" class="g2_127" />
<path d="M313.5,727.5l0,-24" class="g2_127" />
<path d="M390.5,727.5l0,-24" class="g2_127" />
<path d="M887.5,727.5l0,-24" class="g2_127" />
<path fill-rule="evenodd" d="M47,1068l39,0L86,729l-39,0l0,339Z" class="g1_127" />
<g clip-path="url(#c5_127)">
<path fill-rule="evenodd" d="M55,1068l23,0L78,729l-23,0l0,339Z" class="g1_127" />
</g>
<path fill-rule="evenodd" d="M88,776l225,0l0,-47L88,729l0,47Z" class="g1_127" />
<g clip-path="url(#c6_127)">
<path fill-rule="evenodd" d="M95,752l211,0l0,-23L95,729l0,23Z" class="g1_127" />
</g>
<path fill-rule="evenodd" d="M315,776l75,0l0,-47l-75,0l0,47Z" class="g1_127" />
<g clip-path="url(#c7_127)">
<path fill-rule="evenodd" d="M322,752l60,0l0,-23l-60,0l0,23Z" class="g1_127" />
</g>
<path fill-rule="evenodd" d="M391,776l496,0l0,-47l-496,0l0,47Z" class="g1_127" />
<g clip-path="url(#c8_127)">
<path fill-rule="evenodd" d="M399,752l481,0l0,-23l-481,0l0,23Z" class="g1_127" />
</g>
<path fill-rule="evenodd" d="M399,776l481,0l0,-24l-481,0l0,24Z" class="g1_127" />
<path d="M46.5,729.5l0,-2" class="g2_127" />
<path d="M47.5,729.5l39,0" class="g2_127" />
<path d="M86.5,729.5l0,-2" class="g2_127" />
<path d="M88.5,729.5l225,0" class="g2_127" />
<path d="M313.5,729.5l0,-2" class="g2_127" />
<path d="M315.5,729.5l75,0" class="g2_127" />
<path d="M390.5,729.5l0,-2" class="g2_127" />
<path d="M391.5,729.5l496,0" class="g2_127" />
<path d="M887.5,729.5l0,-2" class="g2_127" />
<path d="M46.5,776.5l0,-47" class="g2_127" />
<path d="M86.5,776.5l0,-47" class="g2_127" />
<path d="M313.5,776.5l0,-47" class="g2_127" />
<path d="M390.5,776.5l0,-47" class="g2_127" />
<path d="M887.5,776.5l0,-47" class="g2_127" />
<path fill-rule="evenodd" d="M88,802l225,0l0,-24L88,778l0,24Z" class="g1_127" />
<g clip-path="url(#c9_127)">
<path fill-rule="evenodd" d="M95,802l211,0l0,-24L95,778l0,24Z" class="g1_127" />
</g>
<path fill-rule="evenodd" d="M315,802l75,0l0,-24l-75,0l0,24Z" class="g1_127" />
<g clip-path="url(#c10_127)">
<path fill-rule="evenodd" d="M322,802l60,0l0,-24l-60,0l0,24Z" class="g1_127" />
</g>
<path fill-rule="evenodd" d="M391,802l496,0l0,-24l-496,0l0,24Z" class="g1_127" />
<g clip-path="url(#c11_127)">
<path fill-rule="evenodd" d="M399,802l481,0l0,-24l-481,0l0,24Z" class="g1_127" />
</g>
<path d="M46.5,778.5l0,-2" class="g2_127" />
<path d="M86.5,778.5l0,-2" class="g2_127" />
<path d="M88.5,778.5l225,0" class="g2_127" />
<path d="M313.5,778.5l0,-2" class="g2_127" />
<path d="M315.5,778.5l75,0" class="g2_127" />
<path d="M390.5,778.5l0,-2" class="g2_127" />
<path d="M391.5,778.5l496,0" class="g2_127" />
<path d="M887.5,778.5l0,-2" class="g2_127" />
<path d="M46.5,802.5l0,-24" class="g2_127" />
<path d="M86.5,802.5l0,-24" class="g2_127" />
<path d="M313.5,802.5l0,-24" class="g2_127" />
<path d="M390.5,802.5l0,-24" class="g2_127" />
<path d="M887.5,802.5l0,-24" class="g2_127" />
<path fill-rule="evenodd" d="M88,828l225,0l0,-24L88,804l0,24Z" class="g1_127" />
<g clip-path="url(#c12_127)">
<path fill-rule="evenodd" d="M95,828l211,0l0,-24L95,804l0,24Z" class="g1_127" />
</g>
<path fill-rule="evenodd" d="M315,828l75,0l0,-24l-75,0l0,24Z" class="g1_127" />
<g clip-path="url(#c13_127)">
<path fill-rule="evenodd" d="M322,828l60,0l0,-24l-60,0l0,24Z" class="g1_127" />
</g>
<path fill-rule="evenodd" d="M391,828l496,0l0,-24l-496,0l0,24Z" class="g1_127" />
<g clip-path="url(#c14_127)">
<path fill-rule="evenodd" d="M399,828l481,0l0,-24l-481,0l0,24Z" class="g1_127" />
</g>
<path d="M46.5,804.5l0,-2" class="g2_127" />
<path d="M86.5,804.5l0,-2" class="g2_127" />
<path d="M88.5,804.5l225,0" class="g2_127" />
<path d="M313.5,804.5l0,-2" class="g2_127" />
<path d="M315.5,804.5l75,0" class="g2_127" />
<path d="M390.5,804.5l0,-2" class="g2_127" />
<path d="M391.5,804.5l496,0" class="g2_127" />
<path d="M887.5,804.5l0,-2" class="g2_127" />
<path d="M46.5,828.5l0,-24" class="g2_127" />
<path d="M86.5,828.5l0,-24" class="g2_127" />
<path d="M313.5,828.5l0,-24" class="g2_127" />
<path d="M390.5,828.5l0,-24" class="g2_127" />
<path d="M887.5,828.5l0,-24" class="g2_127" />
<path fill-rule="evenodd" d="M88,855l225,0l0,-25L88,830l0,25Z" class="g1_127" />
<g clip-path="url(#c15_127)">
<path fill-rule="evenodd" d="M95,854l211,0l0,-24L95,830l0,24Z" class="g1_127" />
</g>
<path fill-rule="evenodd" d="M315,855l75,0l0,-25l-75,0l0,25Z" class="g1_127" />
<g clip-path="url(#c16_127)">
<path fill-rule="evenodd" d="M322,854l60,0l0,-24l-60,0l0,24Z" class="g1_127" />
</g>
<path fill-rule="evenodd" d="M391,855l496,0l0,-25l-496,0l0,25Z" class="g1_127" />
<g clip-path="url(#c17_127)">
<path fill-rule="evenodd" d="M399,854l481,0l0,-24l-481,0l0,24Z" class="g1_127" />
</g>
<path d="M46.5,830.5l0,-2" class="g2_127" />
<path d="M86.5,830.5l0,-2" class="g2_127" />
<path d="M88.5,830.5l225,0" class="g2_127" />
<path d="M313.5,830.5l0,-2" class="g2_127" />
<path d="M315.5,830.5l75,0" class="g2_127" />
<path d="M390.5,830.5l0,-2" class="g2_127" />
<path d="M391.5,830.5l496,0" class="g2_127" />
<path d="M887.5,830.5l0,-2" class="g2_127" />
<path d="M46.5,855.5l0,-25" class="g2_127" />
<path d="M86.5,855.5l0,-25" class="g2_127" />
<path d="M313.5,855.5l0,-25" class="g2_127" />
<path d="M390.5,855.5l0,-25" class="g2_127" />
<path d="M887.5,855.5l0,-25" class="g2_127" />
<path fill-rule="evenodd" d="M88,1068l39,0l0,-212l-39,0l0,212Z" class="g1_127" />
<g clip-path="url(#c18_127)">
<path fill-rule="evenodd" d="M95,1068l24,0l0,-212l-24,0l0,212Z" class="g1_127" />
</g>
<path fill-rule="evenodd" d="M129,910l184,0l0,-54l-184,0l0,54Z" class="g1_127" />
<g clip-path="url(#c19_127)">
<path fill-rule="evenodd" d="M136,880l170,0l0,-24l-170,0l0,24Z" class="g1_127" />
</g>
<path fill-rule="evenodd" d="M315,910l75,0l0,-54l-75,0l0,54Z" class="g1_127" />
<g clip-path="url(#c20_127)">
<path fill-rule="evenodd" d="M322,880l60,0l0,-24l-60,0l0,24Z" class="g1_127" />
</g>
<path fill-rule="evenodd" d="M391,910l496,0l0,-54l-496,0l0,54Z" class="g1_127" />
<g clip-path="url(#c21_127)">
<path fill-rule="evenodd" d="M399,880l481,0l0,-24l-481,0l0,24Z" class="g1_127" />
</g>
<path d="M46.5,856.5l0,-1" class="g2_127" />
<path d="M86.5,856.5l0,-1" class="g2_127" />
<path d="M88.5,856.5l39,0" class="g2_127" />
<path d="M127.5,856.5l0,-1" class="g2_127" />
<path d="M129.5,856.5l184,0" class="g2_127" />
<path d="M313.5,856.5l0,-1" class="g2_127" />
<path d="M315.5,856.5l75,0" class="g2_127" />
<path d="M390.5,856.5l0,-1" class="g2_127" />
<path d="M391.5,856.5l496,0" class="g2_127" />
<path d="M887.5,856.5l0,-1" class="g2_127" />
<path d="M46.5,910.5l0,-54" class="g2_127" />
<path d="M86.5,910.5l0,-54" class="g2_127" />
<path d="M127.5,910.5l0,-54" class="g2_127" />
<path d="M313.5,910.5l0,-54" class="g2_127" />
<path d="M390.5,910.5l0,-54" class="g2_127" />
<path d="M887.5,910.5l0,-54" class="g2_127" />
<path fill-rule="evenodd" d="M129,1068l39,0l0,-156l-39,0l0,156Z" class="g1_127" />
<g clip-path="url(#c22_127)">
<path fill-rule="evenodd" d="M136,1068l24,0l0,-156l-24,0l0,156Z" class="g1_127" />
</g>
<path fill-rule="evenodd" d="M169,1068l144,0l0,-156l-144,0l0,156Z" class="g1_127" />
<path fill-rule="evenodd" d="M177,935l129,0l0,-23l-129,0l0,23Z" class="g1_127" />
<path fill-rule="evenodd" d="M315,1068l75,0l0,-156l-75,0l0,156Z" class="g1_127" />
<path fill-rule="evenodd" d="M322,935l60,0l0,-23l-60,0l0,23Z" class="g1_127" />
<path fill-rule="evenodd" d="M391,1068l496,0l0,-156l-496,0l0,156Z" class="g1_127" />
<path fill-rule="evenodd" d="M399,935l481,0l0,-23l-481,0l0,23Z" class="g1_127" />
<path d="M46.5,912.5l0,-2" class="g2_127" />
<path d="M86.5,912.5l0,-2" class="g2_127" />
<path d="M127.5,912.5l0,-2" class="g2_127" />
<path d="M129.5,912.5l39,0" class="g2_127" />
<path d="M168.5,912.5l0,-2" class="g2_127" />
<path d="M169.5,912.5l144,0" class="g2_127" />
<path d="M313.5,912.5l0,-2" class="g2_127" />
<path d="M315.5,912.5l75,0" class="g2_127" />
<path d="M390.5,912.5l0,-2" class="g2_127" />
<path d="M391.5,912.5l496,0" class="g2_127" />
<path d="M887.5,912.5l0,-2" class="g2_127" />
<path d="M46.5,1068.5l0,-156" class="g2_127" />
<path d="M46.5,1070.5l0,-2" class="g2_127" />
<path d="M46.5,1070.5l0,-2" class="g2_127" />
<path d="M47.5,1070.5l39,0" class="g2_127" />
<path d="M86.5,1068.5l0,-156" class="g2_127" />
<path d="M86.5,1070.5l0,-2" class="g2_127" />
<path d="M88.5,1070.5l39,0" class="g2_127" />
<path d="M127.5,1068.5l0,-156" class="g2_127" />
<path d="M127.5,1070.5l0,-2" class="g2_127" />
<path d="M129.5,1070.5l39,0" class="g2_127" />
<path d="M168.5,1068.5l0,-156" class="g2_127" />
<path d="M168.5,1070.5l0,-2" class="g2_127" />
<path d="M169.5,1070.5l144,0" class="g2_127" />
<path d="M313.5,1068.5l0,-156" class="g2_127" />
<path d="M313.5,1070.5l0,-2" class="g2_127" />
<path d="M315.5,1070.5l75,0" class="g2_127" />
<path d="M390.5,1068.5l0,-156" class="g2_127" />
<path d="M390.5,1070.5l0,-2" class="g2_127" />
<path d="M391.5,1070.5l496,0" class="g2_127" />
<path d="M887.5,1068.5l0,-156" class="g2_127" />
<path d="M887.5,1070.5l0,-2" class="g2_127" />
<path d="M887.5,1070.5l0,-2" class="g2_127" />
</svg>