<?xml version="1.0" encoding="UTF-8" standalone="no"?>
<!DOCTYPE svg PUBLIC "-//W3C//DTD SVG 1.1//EN"
"http://www.w3.org/Graphics/SVG/1.1/DTD/svg11.dtd">
<svg version="1.1" xmlns="http://www.w3.org/2000/svg" xmlns:xlink="http://www.w3.org/1999/xlink">
<defs>
<clipPath id="c0_117"><path d="M47.5,326.5l0,-24l433,0l0,24Z" /></clipPath>
<clipPath id="c1_117"><path d="M482.5,326.5l0,-24l81,0l0,24Z" /></clipPath>
<clipPath id="c2_117"><path d="M565.5,326.5l0,-24l75,0l0,24Z" /></clipPath>
<clipPath id="c3_117"><path d="M641.5,326.5l0,-24l246,0l0,24Z" /></clipPath>
<clipPath id="c4_117"><path d="M47.5,894.5l0,-567l39,0l0,567Z" /></clipPath>
<clipPath id="c5_117"><path d="M88.5,358.5l0,-31l392,0l0,31Z" /></clipPath>
<clipPath id="c6_117"><path d="M482.5,358.5l0,-31l81,0l0,31Z" /></clipPath>
<clipPath id="c7_117"><path d="M565.5,358.5l0,-31l75,0l0,31Z" /></clipPath>
<clipPath id="c8_117"><path d="M641.5,358.5l0,-31l246,0l0,31Z" /></clipPath>
<clipPath id="c9_117"><path d="M88.5,894.5l0,-535l39,0l0,535Z" /></clipPath>
<clipPath id="c10_117"><path d="M129.5,894.5l0,-535l39,0l0,535Z" /></clipPath>
<clipPath id="c11_117"><path d="M169.5,432.5l0,-73l40,0l0,73Z" /></clipPath>
<clipPath id="c12_117"><path d="M210.5,389.5l0,-30l270,0l0,30Z" /></clipPath>
<clipPath id="c13_117"><path d="M482.5,389.5l0,-30l81,0l0,30Z" /></clipPath>
<clipPath id="c14_117"><path d="M565.5,389.5l0,-30l75,0l0,30Z" /></clipPath>
<clipPath id="c15_117"><path d="M641.5,389.5l0,-30l246,0l0,30Z" /></clipPath>
<clipPath id="c16_117"><path d="M210.5,432.5l0,-41l270,0l0,41Z" /></clipPath>
<clipPath id="c17_117"><path d="M482.5,432.5l0,-41l81,0l0,41Z" /></clipPath>
<clipPath id="c18_117"><path d="M565.5,432.5l0,-41l75,0l0,41Z" /></clipPath>
<clipPath id="c19_117"><path d="M641.5,432.5l0,-41l246,0l0,41Z" /></clipPath>
<clipPath id="c20_117"><path d="M251.5,794.5l0,-71l229,0l0,71Z" /></clipPath>
<clipPath id="c21_117"><path d="M482.5,794.5l0,-71l81,0l0,71Z" /></clipPath>
<clipPath id="c22_117"><path d="M565.5,794.5l0,-71l75,0l0,71Z" /></clipPath>
<clipPath id="c23_117"><path d="M641.5,794.5l0,-71l246,0l0,71Z" /></clipPath>
<clipPath id="c24_117"><path d="M251.5,894.5l0,-99l39,0l0,99Z" /></clipPath>
<clipPath id="c25_117"><path d="M292.5,894.5l0,-99l39,0l0,99Z" /></clipPath>
<clipPath id="c26_117"><path d="M333.5,819.5l0,-24l147,0l0,24Z" /></clipPath>
<clipPath id="c27_117"><path d="M482.5,819.5l0,-24l81,0l0,24Z" /></clipPath>
<clipPath id="c28_117"><path d="M565.5,819.5l0,-24l75,0l0,24Z" /></clipPath>
<clipPath id="c29_117"><path d="M641.5,819.5l0,-24l246,0l0,24Z" /></clipPath>
<clipPath id="c30_117"><path d="M333.5,845.5l0,-24l147,0l0,24Z" /></clipPath>
<clipPath id="c31_117"><path d="M482.5,845.5l0,-24l81,0l0,24Z" /></clipPath>
<clipPath id="c32_117"><path d="M565.5,845.5l0,-24l75,0l0,24Z" /></clipPath>
<clipPath id="c33_117"><path d="M641.5,845.5l0,-24l246,0l0,24Z" /></clipPath>
<clipPath id="c34_117"><path d="M333.5,894.5l0,-48l147,0l0,48Z" /></clipPath>
<clipPath id="c35_117"><path d="M482.5,894.5l0,-48l81,0l0,48Z" /></clipPath>
<clipPath id="c36_117"><path d="M565.5,894.5l0,-48l75,0l0,48Z" /></clipPath>
<clipPath id="c37_117"><path d="M641.5,894.5l0,-48l246,0l0,48Z" /></clipPath>
<clipPath id="c38_117"><path d="M47.5,992.5l0,-23l840,0l0,23Z" /></clipPath>
<clipPath id="c39_117"><path d="M47.5,1091.5l0,-24l840,0l0,24Z" /></clipPath>
<style type="text/css"><![CDATA[
.g2_117{
fill: none;
stroke: #7E7E7E;
stroke-width: 1;
stroke-linecap: butt;
stroke-linejoin: miter;
}
.g3_117{
fill: #F1F1F1;
}
.g1_117{
fill: #DBE5F1;
}
]]></style>
</defs>
<path fill-rule="evenodd" d="M47,325l433,0l0,-23L47,302l0,23Z" class="g1_117" />
<g clip-path="url(#c0_117)">
<path fill-rule="evenodd" d="M55,325l418,0l0,-23L55,302l0,23Z" class="g1_117" />
</g>
<path fill-rule="evenodd" d="M482,325l81,0l0,-23l-81,0l0,23Z" class="g1_117" />
<g clip-path="url(#c1_117)">
<path fill-rule="evenodd" d="M489,325l67,0l0,-23l-67,0l0,23Z" class="g1_117" />
</g>
<path fill-rule="evenodd" d="M565,325l75,0l0,-23l-75,0l0,23Z" class="g1_117" />
<g clip-path="url(#c2_117)">
<path fill-rule="evenodd" d="M573,325l59,0l0,-23l-59,0l0,23Z" class="g1_117" />
</g>
<path fill-rule="evenodd" d="M641,325l246,0l0,-23l-246,0l0,23Z" class="g1_117" />
<g clip-path="url(#c3_117)">
<path fill-rule="evenodd" d="M649,325l231,0l0,-23l-231,0l0,23Z" class="g1_117" />
</g>
<path d="M46.5,302.5l0,-2" class="g2_117" />
<path d="M46.5,302.5l0,-2" class="g2_117" />
<path d="M47.5,302.5l433,0" class="g2_117" />
<path d="M480.5,302.5l0,-2" class="g2_117" />
<path d="M482.5,302.5l82,0" class="g2_117" />
<path d="M564.5,302.5l0,-2" class="g2_117" />
<path d="M565.5,302.5l75,0" class="g2_117" />
<path d="M640.5,302.5l0,-2" class="g2_117" />
<path d="M641.5,302.5l246,0" class="g2_117" />
<path d="M887.5,302.5l0,-2" class="g2_117" />
<path d="M887.5,302.5l0,-2" class="g2_117" />
<path d="M46.5,325.5l0,-23" class="g2_117" />
<path d="M480.5,325.5l0,-23" class="g2_117" />
<path d="M564.5,325.5l0,-23" class="g2_117" />
<path d="M640.5,325.5l0,-23" class="g2_117" />
<path d="M887.5,325.5l0,-23" class="g2_117" />
<path fill-rule="evenodd" d="M47,894l39,0L86,327l-39,0l0,567Z" class="g3_117" />
<g clip-path="url(#c4_117)">
<path fill-rule="evenodd" d="M55,894l23,0L78,327l-23,0l0,567Z" class="g3_117" />
</g>
<path fill-rule="evenodd" d="M88,358l392,0l0,-31L88,327l0,31Z" class="g3_117" />
<g clip-path="url(#c5_117)">
<path fill-rule="evenodd" d="M95,351l378,0l0,-24L95,327l0,24Z" class="g3_117" />
</g>
<path fill-rule="evenodd" d="M482,358l81,0l0,-31l-81,0l0,31Z" class="g3_117" />
<g clip-path="url(#c6_117)">
<path fill-rule="evenodd" d="M489,351l67,0l0,-24l-67,0l0,24Z" class="g3_117" />
</g>
<path fill-rule="evenodd" d="M565,358l75,0l0,-31l-75,0l0,31Z" class="g3_117" />
<g clip-path="url(#c7_117)">
<path fill-rule="evenodd" d="M573,351l59,0l0,-24l-59,0l0,24Z" class="g3_117" />
</g>
<path fill-rule="evenodd" d="M641,358l246,0l0,-31l-246,0l0,31Z" class="g3_117" />
<g clip-path="url(#c8_117)">
<path fill-rule="evenodd" d="M649,351l231,0l0,-24l-231,0l0,24Z" class="g3_117" />
</g>
<path d="M46.5,327.5l0,-2" class="g2_117" />
<path d="M47.5,327.5l39,0" class="g2_117" />
<path d="M86.5,327.5l0,-2" class="g2_117" />
<path d="M88.5,327.5l392,0" class="g2_117" />
<path d="M480.5,327.5l0,-2" class="g2_117" />
<path d="M482.5,327.5l82,0" class="g2_117" />
<path d="M564.5,327.5l0,-2" class="g2_117" />
<path d="M565.5,327.5l75,0" class="g2_117" />
<path d="M640.5,327.5l0,-2" class="g2_117" />
<path d="M641.5,327.5l246,0" class="g2_117" />
<path d="M887.5,327.5l0,-2" class="g2_117" />
<path d="M46.5,358.5l0,-31" class="g2_117" />
<path d="M86.5,358.5l0,-31" class="g2_117" />
<path d="M480.5,358.5l0,-31" class="g2_117" />
<path d="M564.5,358.5l0,-31" class="g2_117" />
<path d="M640.5,358.5l0,-31" class="g2_117" />
<path d="M887.5,358.5l0,-31" class="g2_117" />
<path fill-rule="evenodd" d="M88,894l39,0l0,-535l-39,0l0,535Z" class="g3_117" />
<g clip-path="url(#c9_117)">
<path fill-rule="evenodd" d="M95,894l24,0l0,-535l-24,0l0,535Z" class="g3_117" />
</g>
<path fill-rule="evenodd" d="M129,894l39,0l0,-535l-39,0l0,535Z" class="g3_117" />
<g clip-path="url(#c10_117)">
<path fill-rule="evenodd" d="M136,894l24,0l0,-535l-24,0l0,535Z" class="g3_117" />
</g>
<path fill-rule="evenodd" d="M169,432l40,0l0,-73l-40,0l0,73Z" class="g3_117" />
<g clip-path="url(#c11_117)">
<path fill-rule="evenodd" d="M177,432l24,0l0,-73l-24,0l0,73Z" class="g3_117" />
</g>
<path fill-rule="evenodd" d="M210,389l270,0l0,-30l-270,0l0,30Z" class="g3_117" />
<g clip-path="url(#c12_117)">
<path fill-rule="evenodd" d="M218,383l255,0l0,-24l-255,0l0,24Z" class="g3_117" />
</g>
<path fill-rule="evenodd" d="M482,389l81,0l0,-30l-81,0l0,30Z" class="g3_117" />
<g clip-path="url(#c13_117)">
<path fill-rule="evenodd" d="M489,383l67,0l0,-24l-67,0l0,24Z" class="g3_117" />
</g>
<path fill-rule="evenodd" d="M565,389l75,0l0,-30l-75,0l0,30Z" class="g3_117" />
<g clip-path="url(#c14_117)">
<path fill-rule="evenodd" d="M573,383l59,0l0,-24l-59,0l0,24Z" class="g3_117" />
</g>
<path fill-rule="evenodd" d="M641,389l246,0l0,-30l-246,0l0,30Z" class="g3_117" />
<g clip-path="url(#c15_117)">
<path fill-rule="evenodd" d="M649,383l231,0l0,-24l-231,0l0,24Z" class="g3_117" />
</g>
<path d="M46.5,359.5l0,-1" class="g2_117" />
<path d="M86.5,359.5l0,-1" class="g2_117" />
<path d="M88.5,359.5l39,0" class="g2_117" />
<path d="M127.5,359.5l0,-1" class="g2_117" />
<path d="M129.5,359.5l39,0" class="g2_117" />
<path d="M168.5,359.5l0,-1" class="g2_117" />
<path d="M169.5,359.5l40,0" class="g2_117" />
<path d="M209.5,359.5l0,-1" class="g2_117" />
<path d="M210.5,359.5l270,0" class="g2_117" />
<path d="M480.5,359.5l0,-1" class="g2_117" />
<path d="M482.5,359.5l82,0" class="g2_117" />
<path d="M564.5,359.5l0,-1" class="g2_117" />
<path d="M565.5,359.5l75,0" class="g2_117" />
<path d="M640.5,359.5l0,-1" class="g2_117" />
<path d="M641.5,359.5l246,0" class="g2_117" />
<path d="M887.5,359.5l0,-1" class="g2_117" />
<path d="M46.5,389.5l0,-30" class="g2_117" />
<path d="M86.5,389.5l0,-30" class="g2_117" />
<path d="M127.5,389.5l0,-30" class="g2_117" />
<path d="M168.5,389.5l0,-30" class="g2_117" />
<path d="M209.5,389.5l0,-30" class="g2_117" />
<path d="M480.5,389.5l0,-30" class="g2_117" />
<path d="M564.5,389.5l0,-30" class="g2_117" />
<path d="M640.5,389.5l0,-30" class="g2_117" />
<path d="M887.5,389.5l0,-30" class="g2_117" />
<path fill-rule="evenodd" d="M210,432l270,0l0,-41l-270,0l0,41Z" class="g3_117" />
<g clip-path="url(#c16_117)">
<path fill-rule="evenodd" d="M218,415l255,0l0,-24l-255,0l0,24Z" class="g3_117" />
</g>
<path fill-rule="evenodd" d="M482,432l81,0l0,-41l-81,0l0,41Z" class="g3_117" />
<g clip-path="url(#c17_117)">
<path fill-rule="evenodd" d="M489,415l67,0l0,-24l-67,0l0,24Z" class="g3_117" />
</g>
<path fill-rule="evenodd" d="M565,432l75,0l0,-41l-75,0l0,41Z" class="g3_117" />
<g clip-path="url(#c18_117)">
<path fill-rule="evenodd" d="M573,415l59,0l0,-24l-59,0l0,24Z" class="g3_117" />
</g>
<path fill-rule="evenodd" d="M641,432l246,0l0,-41l-246,0l0,41Z" class="g3_117" />
<g clip-path="url(#c19_117)">
<path fill-rule="evenodd" d="M649,415l231,0l0,-24l-231,0l0,24Z" class="g3_117" />
</g>
<path d="M46.5,391.5l0,-2" class="g2_117" />
<path d="M86.5,391.5l0,-2" class="g2_117" />
<path d="M127.5,391.5l0,-2" class="g2_117" />
<path d="M168.5,391.5l0,-2" class="g2_117" />
<path d="M209.5,391.5l0,-2" class="g2_117" />
<path d="M210.5,391.5l270,0" class="g2_117" />
<path d="M480.5,391.5l0,-2" class="g2_117" />
<path d="M482.5,391.5l82,0" class="g2_117" />
<path d="M564.5,391.5l0,-2" class="g2_117" />
<path d="M565.5,391.5l75,0" class="g2_117" />
<path d="M640.5,391.5l0,-2" class="g2_117" />
<path d="M641.5,391.5l246,0" class="g2_117" />
<path d="M887.5,391.5l0,-2" class="g2_117" />
<path d="M46.5,432.5l0,-41" class="g2_117" />
<path d="M86.5,432.5l0,-41" class="g2_117" />
<path d="M127.5,432.5l0,-41" class="g2_117" />
<path d="M168.5,432.5l0,-41" class="g2_117" />
<path d="M209.5,432.5l0,-41" class="g2_117" />
<path d="M480.5,432.5l0,-41" class="g2_117" />
<path d="M564.5,432.5l0,-41" class="g2_117" />
<path d="M640.5,432.5l0,-41" class="g2_117" />
<path d="M887.5,432.5l0,-41" class="g2_117" />
<path fill-rule="evenodd" d="M169,894l40,0l0,-461l-40,0l0,461Z" class="g3_117" />
<path fill-rule="evenodd" d="M177,894l24,0l0,-461l-24,0l0,461Z" class="g3_117" />
<path fill-rule="evenodd" d="M210,894l39,0l0,-461l-39,0l0,461Z" class="g3_117" />
<path fill-rule="evenodd" d="M218,894l24,0l0,-461l-24,0l0,461Z" class="g3_117" />
<path fill-rule="evenodd" d="M251,481l229,0l0,-48l-229,0l0,48Z" class="g3_117" />
<path fill-rule="evenodd" d="M259,457l214,0l0,-24l-214,0l0,24Z" class="g3_117" />
<path fill-rule="evenodd" d="M482,481l81,0l0,-48l-81,0l0,48Z" class="g3_117" />
<path fill-rule="evenodd" d="M489,457l67,0l0,-24l-67,0l0,24Z" class="g3_117" />
<path fill-rule="evenodd" d="M565,481l75,0l0,-48l-75,0l0,48Z" class="g3_117" />
<path fill-rule="evenodd" d="M573,457l59,0l0,-24l-59,0l0,24Z" class="g3_117" />
<path fill-rule="evenodd" d="M641,481l246,0l0,-48l-246,0l0,48Z" class="g3_117" />
<path fill-rule="evenodd" d="M649,457l231,0l0,-24l-231,0l0,24Z" class="g3_117" />
<path fill-rule="evenodd" d="M649,481l231,0l0,-24l-231,0l0,24Z" class="g3_117" />
<path d="M46.5,433.5l0,-1" class="g2_117" />
<path d="M86.5,433.5l0,-1" class="g2_117" />
<path d="M127.5,433.5l0,-1" class="g2_117" />
<path d="M168.5,433.5l0,-1" class="g2_117" />
<path d="M169.5,433.5l40,0" class="g2_117" />
<path d="M209.5,433.5l0,-1" class="g2_117" />
<path d="M210.5,433.5l40,0" class="g2_117" />
<path d="M250.5,433.5l0,-1" class="g2_117" />
<path d="M251.5,433.5l229,0" class="g2_117" />
<path d="M480.5,433.5l0,-1" class="g2_117" />
<path d="M482.5,433.5l82,0" class="g2_117" />
<path d="M564.5,433.5l0,-1" class="g2_117" />
<path d="M565.5,433.5l75,0" class="g2_117" />
<path d="M640.5,433.5l0,-1" class="g2_117" />
<path d="M641.5,433.5l246,0" class="g2_117" />
<path d="M887.5,433.5l0,-1" class="g2_117" />
<path d="M46.5,481.5l0,-48" class="g2_117" />
<path d="M86.5,481.5l0,-48" class="g2_117" />
<path d="M127.5,481.5l0,-48" class="g2_117" />
<path d="M168.5,481.5l0,-48" class="g2_117" />
<path d="M209.5,481.5l0,-48" class="g2_117" />
<path d="M250.5,481.5l0,-48" class="g2_117" />
<path d="M480.5,481.5l0,-48" class="g2_117" />
<path d="M564.5,481.5l0,-48" class="g2_117" />
<path d="M640.5,481.5l0,-48" class="g2_117" />
<path d="M887.5,481.5l0,-48" class="g2_117" />
<path fill-rule="evenodd" d="M251,721l229,0l0,-238l-229,0l0,238Z" class="g3_117" />
<path fill-rule="evenodd" d="M259,506l214,0l0,-23l-214,0l0,23Z" class="g3_117" />
<path fill-rule="evenodd" d="M482,721l81,0l0,-238l-81,0l0,238Z" class="g3_117" />
<path fill-rule="evenodd" d="M489,506l67,0l0,-23l-67,0l0,23Z" class="g3_117" />
<path fill-rule="evenodd" d="M565,721l75,0l0,-238l-75,0l0,238Z" class="g3_117" />
<path fill-rule="evenodd" d="M573,506l59,0l0,-23l-59,0l0,23Z" class="g3_117" />
<path fill-rule="evenodd" d="M641,721l246,0l0,-238l-246,0l0,238Z" class="g3_117" />
<path fill-rule="evenodd" d="M649,506l231,0l0,-23l-231,0l0,23Z" class="g3_117" />
<path fill-rule="evenodd" d="M649,530l231,0l0,-24l-231,0l0,24Z" class="g3_117" />
<path fill-rule="evenodd" d="M649,554l231,0l0,-24l-231,0l0,24Z" class="g3_117" />
<path fill-rule="evenodd" d="M649,578l231,0l0,-24l-231,0l0,24Z" class="g3_117" />
<path fill-rule="evenodd" d="M649,602l231,0l0,-24l-231,0l0,24Z" class="g3_117" />
<path fill-rule="evenodd" d="M649,626l231,0l0,-24l-231,0l0,24Z" class="g3_117" />
<path fill-rule="evenodd" d="M649,649l231,0l0,-23l-231,0l0,23Z" class="g3_117" />
<path fill-rule="evenodd" d="M649,673l231,0l0,-24l-231,0l0,24Z" class="g3_117" />
<path fill-rule="evenodd" d="M649,697l231,0l0,-24l-231,0l0,24Z" class="g3_117" />
<path fill-rule="evenodd" d="M649,721l231,0l0,-24l-231,0l0,24Z" class="g3_117" />
<path d="M46.5,482.5l0,-1" class="g2_117" />
<path d="M86.5,482.5l0,-1" class="g2_117" />
<path d="M127.5,482.5l0,-1" class="g2_117" />
<path d="M168.5,482.5l0,-1" class="g2_117" />
<path d="M209.5,482.5l0,-1" class="g2_117" />
<path d="M250.5,482.5l0,-1" class="g2_117" />
<path d="M251.5,482.5l229,0" class="g2_117" />
<path d="M480.5,482.5l0,-1" class="g2_117" />
<path d="M482.5,482.5l82,0" class="g2_117" />
<path d="M564.5,482.5l0,-1" class="g2_117" />
<path d="M565.5,482.5l75,0" class="g2_117" />
<path d="M640.5,482.5l0,-1" class="g2_117" />
<path d="M641.5,482.5l246,0" class="g2_117" />
<path d="M887.5,482.5l0,-1" class="g2_117" />
<path d="M46.5,721.5l0,-239" class="g2_117" />
<path d="M86.5,721.5l0,-239" class="g2_117" />
<path d="M127.5,721.5l0,-239" class="g2_117" />
<path d="M168.5,721.5l0,-239" class="g2_117" />
<path d="M209.5,721.5l0,-239" class="g2_117" />
<path d="M250.5,721.5l0,-239" class="g2_117" />
<path d="M480.5,721.5l0,-239" class="g2_117" />
<path d="M564.5,721.5l0,-239" class="g2_117" />
<path d="M640.5,721.5l0,-239" class="g2_117" />
<path d="M887.5,721.5l0,-239" class="g2_117" />
<path fill-rule="evenodd" d="M251,794l229,0l0,-72l-229,0l0,72Z" class="g3_117" />
<g clip-path="url(#c20_117)">
<path fill-rule="evenodd" d="M259,746l214,0l0,-24l-214,0l0,24Z" class="g3_117" />
</g>
<path fill-rule="evenodd" d="M482,794l81,0l0,-72l-81,0l0,72Z" class="g3_117" />
<g clip-path="url(#c21_117)">
<path fill-rule="evenodd" d="M489,746l67,0l0,-24l-67,0l0,24Z" class="g3_117" />
</g>
<path fill-rule="evenodd" d="M565,794l75,0l0,-72l-75,0l0,72Z" class="g3_117" />
<g clip-path="url(#c22_117)">
<path fill-rule="evenodd" d="M573,746l59,0l0,-24l-59,0l0,24Z" class="g3_117" />
</g>
<path fill-rule="evenodd" d="M641,794l246,0l0,-72l-246,0l0,72Z" class="g3_117" />
<g clip-path="url(#c23_117)">
<path fill-rule="evenodd" d="M649,746l231,0l0,-24l-231,0l0,24Z" class="g3_117" />
</g>
<path fill-rule="evenodd" d="M649,770l231,0l0,-24l-231,0l0,24Z" class="g3_117" />
<path fill-rule="evenodd" d="M649,794l231,0l0,-24l-231,0l0,24Z" class="g3_117" />
<path d="M46.5,722.5l0,-1" class="g2_117" />
<path d="M86.5,722.5l0,-1" class="g2_117" />
<path d="M127.5,722.5l0,-1" class="g2_117" />
<path d="M168.5,722.5l0,-1" class="g2_117" />
<path d="M209.5,722.5l0,-1" class="g2_117" />
<path d="M250.5,722.5l0,-1" class="g2_117" />
<path d="M251.5,722.5l229,0" class="g2_117" />
<path d="M480.5,722.5l0,-1" class="g2_117" />
<path d="M482.5,722.5l82,0" class="g2_117" />
<path d="M564.5,722.5l0,-1" class="g2_117" />
<path d="M565.5,722.5l75,0" class="g2_117" />
<path d="M640.5,722.5l0,-1" class="g2_117" />
<path d="M641.5,722.5l246,0" class="g2_117" />
<path d="M887.5,722.5l0,-1" class="g2_117" />
<path d="M46.5,794.5l0,-72" class="g2_117" />
<path d="M86.5,794.5l0,-72" class="g2_117" />
<path d="M127.5,794.5l0,-72" class="g2_117" />
<path d="M168.5,794.5l0,-72" class="g2_117" />
<path d="M209.5,794.5l0,-72" class="g2_117" />
<path d="M250.5,794.5l0,-72" class="g2_117" />
<path d="M480.5,794.5l0,-72" class="g2_117" />
<path d="M564.5,794.5l0,-72" class="g2_117" />
<path d="M640.5,794.5l0,-72" class="g2_117" />
<path d="M887.5,794.5l0,-72" class="g2_117" />
<path fill-rule="evenodd" d="M251,894l39,0l0,-99l-39,0l0,99Z" class="g3_117" />
<g clip-path="url(#c24_117)">
<path fill-rule="evenodd" d="M259,894l23,0l0,-99l-23,0l0,99Z" class="g3_117" />
</g>
<path fill-rule="evenodd" d="M292,894l39,0l0,-99l-39,0l0,99Z" class="g3_117" />
<g clip-path="url(#c25_117)">
<path fill-rule="evenodd" d="M299,894l24,0l0,-99l-24,0l0,99Z" class="g3_117" />
</g>
<path fill-rule="evenodd" d="M333,819l147,0l0,-24l-147,0l0,24Z" class="g3_117" />
<g clip-path="url(#c26_117)">
<path fill-rule="evenodd" d="M340,819l133,0l0,-24l-133,0l0,24Z" class="g3_117" />
</g>
<path fill-rule="evenodd" d="M482,819l81,0l0,-24l-81,0l0,24Z" class="g3_117" />
<g clip-path="url(#c27_117)">
<path fill-rule="evenodd" d="M489,819l67,0l0,-24l-67,0l0,24Z" class="g3_117" />
</g>
<path fill-rule="evenodd" d="M565,819l75,0l0,-24l-75,0l0,24Z" class="g3_117" />
<g clip-path="url(#c28_117)">
<path fill-rule="evenodd" d="M573,819l59,0l0,-24l-59,0l0,24Z" class="g3_117" />
</g>
<path fill-rule="evenodd" d="M641,819l246,0l0,-24l-246,0l0,24Z" class="g3_117" />
<g clip-path="url(#c29_117)">
<path fill-rule="evenodd" d="M649,819l231,0l0,-24l-231,0l0,24Z" class="g3_117" />
</g>
<path d="M46.5,795.5l0,-1" class="g2_117" />
<path d="M86.5,795.5l0,-1" class="g2_117" />
<path d="M127.5,795.5l0,-1" class="g2_117" />
<path d="M168.5,795.5l0,-1" class="g2_117" />
<path d="M209.5,795.5l0,-1" class="g2_117" />
<path d="M250.5,795.5l0,-1" class="g2_117" />
<path d="M251.5,795.5l39,0" class="g2_117" />
<path d="M290.5,795.5l0,-1" class="g2_117" />
<path d="M292.5,795.5l39,0" class="g2_117" />
<path d="M331.5,795.5l0,-1" class="g2_117" />
<path d="M333.5,795.5l147,0" class="g2_117" />
<path d="M480.5,795.5l0,-1" class="g2_117" />
<path d="M482.5,795.5l82,0" class="g2_117" />
<path d="M564.5,795.5l0,-1" class="g2_117" />
<path d="M565.5,795.5l75,0" class="g2_117" />
<path d="M640.5,795.5l0,-1" class="g2_117" />
<path d="M641.5,795.5l246,0" class="g2_117" />
<path d="M887.5,795.5l0,-1" class="g2_117" />
<path d="M46.5,819.5l0,-24" class="g2_117" />
<path d="M86.5,819.5l0,-24" class="g2_117" />
<path d="M127.5,819.5l0,-24" class="g2_117" />
<path d="M168.5,819.5l0,-24" class="g2_117" />
<path d="M209.5,819.5l0,-24" class="g2_117" />
<path d="M250.5,819.5l0,-24" class="g2_117" />
<path d="M290.5,819.5l0,-24" class="g2_117" />
<path d="M331.5,819.5l0,-24" class="g2_117" />
<path d="M480.5,819.5l0,-24" class="g2_117" />
<path d="M564.5,819.5l0,-24" class="g2_117" />
<path d="M640.5,819.5l0,-24" class="g2_117" />
<path d="M887.5,819.5l0,-24" class="g2_117" />
<path fill-rule="evenodd" d="M333,845l147,0l0,-24l-147,0l0,24Z" class="g3_117" />
<g clip-path="url(#c30_117)">
<path fill-rule="evenodd" d="M340,845l133,0l0,-24l-133,0l0,24Z" class="g3_117" />
</g>
<path fill-rule="evenodd" d="M482,845l81,0l0,-24l-81,0l0,24Z" class="g3_117" />
<g clip-path="url(#c31_117)">
<path fill-rule="evenodd" d="M489,845l67,0l0,-24l-67,0l0,24Z" class="g3_117" />
</g>
<path fill-rule="evenodd" d="M565,845l75,0l0,-24l-75,0l0,24Z" class="g3_117" />
<g clip-path="url(#c32_117)">
<path fill-rule="evenodd" d="M573,845l59,0l0,-24l-59,0l0,24Z" class="g3_117" />
</g>
<path fill-rule="evenodd" d="M641,845l246,0l0,-24l-246,0l0,24Z" class="g3_117" />
<g clip-path="url(#c33_117)">
<path fill-rule="evenodd" d="M649,845l231,0l0,-24l-231,0l0,24Z" class="g3_117" />
</g>
<path d="M46.5,821.5l0,-2" class="g2_117" />
<path d="M86.5,821.5l0,-2" class="g2_117" />
<path d="M127.5,821.5l0,-2" class="g2_117" />
<path d="M168.5,821.5l0,-2" class="g2_117" />
<path d="M209.5,821.5l0,-2" class="g2_117" />
<path d="M250.5,821.5l0,-2" class="g2_117" />
<path d="M290.5,821.5l0,-2" class="g2_117" />
<path d="M331.5,821.5l0,-2" class="g2_117" />
<path d="M333.5,821.5l147,0" class="g2_117" />
<path d="M480.5,821.5l0,-2" class="g2_117" />
<path d="M482.5,821.5l82,0" class="g2_117" />
<path d="M564.5,821.5l0,-2" class="g2_117" />
<path d="M565.5,821.5l75,0" class="g2_117" />
<path d="M640.5,821.5l0,-2" class="g2_117" />
<path d="M641.5,821.5l246,0" class="g2_117" />
<path d="M887.5,821.5l0,-2" class="g2_117" />
<path d="M46.5,845.5l0,-24" class="g2_117" />
<path d="M86.5,845.5l0,-24" class="g2_117" />
<path d="M127.5,845.5l0,-24" class="g2_117" />
<path d="M168.5,845.5l0,-24" class="g2_117" />
<path d="M209.5,845.5l0,-24" class="g2_117" />
<path d="M250.5,845.5l0,-24" class="g2_117" />
<path d="M290.5,845.5l0,-24" class="g2_117" />
<path d="M331.5,845.5l0,-24" class="g2_117" />
<path d="M480.5,845.5l0,-24" class="g2_117" />
<path d="M564.5,845.5l0,-24" class="g2_117" />
<path d="M640.5,845.5l0,-24" class="g2_117" />
<path d="M887.5,845.5l0,-24" class="g2_117" />
<path fill-rule="evenodd" d="M333,894l147,0l0,-48l-147,0l0,48Z" class="g3_117" />
<g clip-path="url(#c34_117)">
<path fill-rule="evenodd" d="M340,870l133,0l0,-24l-133,0l0,24Z" class="g3_117" />
</g>
<path fill-rule="evenodd" d="M482,894l81,0l0,-48l-81,0l0,48Z" class="g3_117" />
<g clip-path="url(#c35_117)">
<path fill-rule="evenodd" d="M489,870l67,0l0,-24l-67,0l0,24Z" class="g3_117" />
</g>
<path fill-rule="evenodd" d="M565,894l75,0l0,-48l-75,0l0,48Z" class="g3_117" />
<g clip-path="url(#c36_117)">
<path fill-rule="evenodd" d="M573,870l59,0l0,-24l-59,0l0,24Z" class="g3_117" />
</g>
<path fill-rule="evenodd" d="M641,894l246,0l0,-48l-246,0l0,48Z" class="g3_117" />
<g clip-path="url(#c37_117)">
<path fill-rule="evenodd" d="M649,870l231,0l0,-24l-231,0l0,24Z" class="g3_117" />
</g>
<path fill-rule="evenodd" d="M649,894l231,0l0,-24l-231,0l0,24Z" class="g3_117" />
<path d="M46.5,846.5l0,-1" class="g2_117" />
<path d="M86.5,846.5l0,-1" class="g2_117" />
<path d="M127.5,846.5l0,-1" class="g2_117" />
<path d="M168.5,846.5l0,-1" class="g2_117" />
<path d="M209.5,846.5l0,-1" class="g2_117" />
<path d="M250.5,846.5l0,-1" class="g2_117" />
<path d="M290.5,846.5l0,-1" class="g2_117" />
<path d="M331.5,846.5l0,-1" class="g2_117" />
<path d="M333.5,846.5l147,0" class="g2_117" />
<path d="M480.5,846.5l0,-1" class="g2_117" />
<path d="M482.5,846.5l82,0" class="g2_117" />
<path d="M564.5,846.5l0,-1" class="g2_117" />
<path d="M565.5,846.5l75,0" class="g2_117" />
<path d="M640.5,846.5l0,-1" class="g2_117" />
<path d="M641.5,846.5l246,0" class="g2_117" />
<path d="M887.5,846.5l0,-1" class="g2_117" />
<path d="M46.5,894.5l0,-48" class="g2_117" />
<path d="M46.5,895.5l0,-1" class="g2_117" />
<path d="M46.5,895.5l0,-1" class="g2_117" />
<path d="M47.5,895.5l39,0" class="g2_117" />
<path d="M86.5,894.5l0,-48" class="g2_117" />
<path d="M86.5,895.5l0,-1" class="g2_117" />
<path d="M88.5,895.5l39,0" class="g2_117" />
<path d="M127.5,894.5l0,-48" class="g2_117" />
<path d="M127.5,895.5l0,-1" class="g2_117" />
<path d="M129.5,895.5l39,0" class="g2_117" />
<path d="M168.5,894.5l0,-48" class="g2_117" />
<path d="M168.5,895.5l0,-1" class="g2_117" />
<path d="M169.5,895.5l40,0" class="g2_117" />
<path d="M209.5,894.5l0,-48" class="g2_117" />
<path d="M209.5,895.5l0,-1" class="g2_117" />
<path d="M210.5,895.5l40,0" class="g2_117" />
<path d="M250.5,894.5l0,-48" class="g2_117" />
<path d="M250.5,895.5l0,-1" class="g2_117" />
<path d="M251.5,895.5l39,0" class="g2_117" />
<path d="M290.5,894.5l0,-48" class="g2_117" />
<path d="M290.5,895.5l0,-1" class="g2_117" />
<path d="M292.5,895.5l39,0" class="g2_117" />
<path d="M331.5,894.5l0,-48" class="g2_117" />
<path d="M331.5,895.5l0,-1" class="g2_117" />
<path d="M333.5,895.5l147,0" class="g2_117" />
<path d="M480.5,894.5l0,-48" class="g2_117" />
<path d="M480.5,895.5l0,-1" class="g2_117" />
<path d="M482.5,895.5l82,0" class="g2_117" />
<path d="M564.5,894.5l0,-48" class="g2_117" />
<path d="M564.5,895.5l0,-1" class="g2_117" />
<path d="M565.5,895.5l75,0" class="g2_117" />
<path d="M640.5,894.5l0,-48" class="g2_117" />
<path d="M640.5,895.5l0,-1" class="g2_117" />
<path d="M641.5,895.5l246,0" class="g2_117" />
<path d="M887.5,894.5l0,-48" class="g2_117" />
<path d="M887.5,895.5l0,-1" class="g2_117" />
<path d="M887.5,895.5l0,-1" class="g2_117" />
<path fill-rule="evenodd" d="M47,992l840,0l0,-23L47,969l0,23Z" class="g3_117" />
<g clip-path="url(#c38_117)">
<path fill-rule="evenodd" d="M55,992l825,0l0,-23L55,969l0,23Z" class="g3_117" />
</g>
<path d="M46.5,968.5l0,-1" class="g2_117" />
<path d="M46.5,968.5l0,-1" class="g2_117" />
<path d="M47.5,968.5l840,0" class="g2_117" />
<path d="M887.5,968.5l0,-1" class="g2_117" />
<path d="M887.5,968.5l0,-1" class="g2_117" />
<path d="M46.5,992.5l0,-24" class="g2_117" />
<path d="M46.5,994.5l0,-2" class="g2_117" />
<path d="M46.5,994.5l0,-2" class="g2_117" />
<path d="M47.5,994.5l840,0" class="g2_117" />
<path d="M887.5,992.5l0,-24" class="g2_117" />
<path d="M887.5,994.5l0,-2" class="g2_117" />
<path d="M887.5,994.5l0,-2" class="g2_117" />
<path fill-rule="evenodd" d="M47,1091l840,0l0,-24l-840,0l0,24Z" class="g3_117" />
<g clip-path="url(#c39_117)">
<path fill-rule="evenodd" d="M55,1091l825,0l0,-24l-825,0l0,24Z" class="g3_117" />
</g>
<path d="M46.5,1067.5l0,-2" class="g2_117" />
<path d="M46.5,1067.5l0,-2" class="g2_117" />
<path d="M47.5,1067.5l840,0" class="g2_117" />
<path d="M887.5,1067.5l0,-2" class="g2_117" />
<path d="M887.5,1067.5l0,-2" class="g2_117" />
<path d="M46.5,1091.5l0,-24" class="g2_117" />
<path d="M46.5,1092.5l0,-1" class="g2_117" />
<path d="M46.5,1092.5l0,-1" class="g2_117" />
<path d="M47.5,1092.5l840,0" class="g2_117" />
<path d="M887.5,1091.5l0,-24" class="g2_117" />
<path d="M887.5,1092.5l0,-1" class="g2_117" />
<path d="M887.5,1092.5l0,-1" class="g2_117" />
</svg>