<?xml version="1.0" encoding="UTF-8" standalone="no"?>
<!DOCTYPE svg PUBLIC "-//W3C//DTD SVG 1.1//EN"
"http://www.w3.org/Graphics/SVG/1.1/DTD/svg11.dtd">
<svg version="1.1" xmlns="http://www.w3.org/2000/svg" xmlns:xlink="http://www.w3.org/1999/xlink">
<defs>
<clipPath id="c0_156"><path d="M144.5,1151.5l0,-1040l196,0l0,1040Z" /></clipPath>
<clipPath id="c1_156"><path d="M342.5,1151.5l0,-1040l68,0l0,1040Z" /></clipPath>
<clipPath id="c2_156"><path d="M412.5,1151.5l0,-1040l55,0l0,1040Z" /></clipPath>
<clipPath id="c3_156"><path d="M469.5,1151.5l0,-1040l386,0l0,1040Z" /></clipPath>
<clipPath id="c4_156"><path d="M477.5,758.5l0,-24l141,0l0,24Z" /></clipPath>
<clipPath id="c5_156"><path d="M477.5,907.5l0,-49l143,0l0,49Z" /></clipPath>
<style type="text/css"><![CDATA[
.g2_156{
fill: none;
stroke: #000000;
stroke-width: 1;
stroke-linecap: butt;
stroke-linejoin: miter;
}
.g3_156{
fill: none;
stroke: #7E7E7E;
stroke-width: 1;
stroke-linecap: butt;
stroke-linejoin: miter;
}
.g1_156{
fill: #F1F1F1;
}
]]></style>
</defs>
<path fill-rule="evenodd" d="M47,1151l31,0L78,111l-31,0l0,1040Z" class="g1_156" />
<path fill-rule="evenodd" d="M79,1151l31,0L110,111l-31,0l0,1040Z" class="g1_156" />
<path fill-rule="evenodd" d="M111,1151l31,0L142,111l-31,0l0,1040Z" class="g1_156" />
<path fill-rule="evenodd" d="M144,1151l196,0L340,111l-196,0l0,1040Z" class="g1_156" />
<g clip-path="url(#c0_156)">
<path fill-rule="evenodd" d="M151,135l182,0l0,-24l-182,0l0,24Z" class="g1_156" />
</g>
<path fill-rule="evenodd" d="M151,159l182,0l0,-24l-182,0l0,24Z" class="g1_156" />
<path fill-rule="evenodd" d="M151,182l182,0l0,-23l-182,0l0,23Z" class="g1_156" />
<path fill-rule="evenodd" d="M151,206l182,0l0,-24l-182,0l0,24Z" class="g1_156" />
<path fill-rule="evenodd" d="M342,1151l68,0L410,111l-68,0l0,1040Z" class="g1_156" />
<g clip-path="url(#c1_156)">
<path fill-rule="evenodd" d="M349,135l53,0l0,-24l-53,0l0,24Z" class="g1_156" />
</g>
<path fill-rule="evenodd" d="M412,1151l55,0L467,111l-55,0l0,1040Z" class="g1_156" />
<g clip-path="url(#c2_156)">
<path fill-rule="evenodd" d="M419,135l41,0l0,-24l-41,0l0,24Z" class="g1_156" />
</g>
<path fill-rule="evenodd" d="M469,1151l386,0L855,111l-386,0l0,1040Z" class="g1_156" />
<g clip-path="url(#c3_156)">
<path fill-rule="evenodd" d="M476,135l372,0l0,-24l-372,0l0,24Z" class="g1_156" />
</g>
<path fill-rule="evenodd" d="M476,159l372,0l0,-24l-372,0l0,24Z" class="g1_156" />
<path fill-rule="evenodd" d="M476,182l372,0l0,-23l-372,0l0,23Z" class="g1_156" />
<path fill-rule="evenodd" d="M476,206l372,0l0,-24l-372,0l0,24Z" class="g1_156" />
<path fill-rule="evenodd" d="M476,230l372,0l0,-24l-372,0l0,24Z" class="g1_156" />
<path fill-rule="evenodd" d="M476,254l372,0l0,-24l-372,0l0,24Z" class="g1_156" />
<path fill-rule="evenodd" d="M476,278l372,0l0,-24l-372,0l0,24Z" class="g1_156" />
<path fill-rule="evenodd" d="M476,302l372,0l0,-24l-372,0l0,24Z" class="g1_156" />
<path fill-rule="evenodd" d="M476,325l372,0l0,-23l-372,0l0,23Z" class="g1_156" />
<path fill-rule="evenodd" d="M476,349l372,0l0,-24l-372,0l0,24Z" class="g1_156" />
<path fill-rule="evenodd" d="M476,373l372,0l0,-24l-372,0l0,24Z" class="g1_156" />
<path fill-rule="evenodd" d="M476,397l372,0l0,-24l-372,0l0,24Z" class="g1_156" />
<path fill-rule="evenodd" d="M476,421l372,0l0,-24l-372,0l0,24Z" class="g1_156" />
<path fill-rule="evenodd" d="M476,445l372,0l0,-24l-372,0l0,24Z" class="g1_156" />
<path fill-rule="evenodd" d="M476,469l372,0l0,-24l-372,0l0,24Z" class="g1_156" />
<path fill-rule="evenodd" d="M476,492l372,0l0,-23l-372,0l0,23Z" class="g1_156" />
<path fill-rule="evenodd" d="M476,516l372,0l0,-24l-372,0l0,24Z" class="g1_156" />
<path fill-rule="evenodd" d="M476,540l372,0l0,-24l-372,0l0,24Z" class="g1_156" />
<path fill-rule="evenodd" d="M476,564l372,0l0,-24l-372,0l0,24Z" class="g1_156" />
<path fill-rule="evenodd" d="M476,588l372,0l0,-24l-372,0l0,24Z" class="g1_156" />
<path fill-rule="evenodd" d="M843,636l5,0l0,-48l-5,0l0,48Z" class="g1_156" />
<path fill-rule="evenodd" d="M477,636l141,0l0,-48l-141,0l0,48Z" class="g1_156" />
<path fill-rule="evenodd" d="M485,612l125,0l0,-24l-125,0l0,24Z" class="g1_156" />
<path fill-rule="evenodd" d="M485,636l125,0l0,-24l-125,0l0,24Z" class="g1_156" />
<path fill-rule="evenodd" d="M619,636l223,0l0,-48l-223,0l0,48Z" class="g1_156" />
<path fill-rule="evenodd" d="M627,624l208,0l0,-24l-208,0l0,24Z" class="g1_156" />
<path d="M477.5,588.5l141,0" class="g2_156" />
<path d="M619.5,588.5l223,0" class="g2_156" />
<path d="M476.5,636.5l0,-48" class="g2_156" />
<path d="M618.5,636.5l0,-48" class="g2_156" />
<path d="M842.5,636.5l0,-48" class="g2_156" />
<path fill-rule="evenodd" d="M843,685l5,0l0,-49l-5,0l0,49Z" class="g1_156" />
<path fill-rule="evenodd" d="M477,685l141,0l0,-48l-141,0l0,48Z" class="g1_156" />
<path fill-rule="evenodd" d="M485,661l125,0l0,-24l-125,0l0,24Z" class="g1_156" />
<path fill-rule="evenodd" d="M485,685l125,0l0,-24l-125,0l0,24Z" class="g1_156" />
<path fill-rule="evenodd" d="M619,685l223,0l0,-48l-223,0l0,48Z" class="g1_156" />
<path fill-rule="evenodd" d="M627,673l208,0l0,-24l-208,0l0,24Z" class="g1_156" />
<path d="M476.5,637.5l0,-1" class="g2_156" />
<path d="M477.5,637.5l141,0" class="g2_156" />
<path d="M618.5,637.5l0,-1" class="g2_156" />
<path d="M619.5,637.5l223,0" class="g2_156" />
<path d="M842.5,637.5l0,-1" class="g2_156" />
<path d="M476.5,685.5l0,-48" class="g2_156" />
<path d="M618.5,685.5l0,-48" class="g2_156" />
<path d="M842.5,685.5l0,-48" class="g2_156" />
<path fill-rule="evenodd" d="M843,733l5,0l0,-48l-5,0l0,48Z" class="g1_156" />
<path fill-rule="evenodd" d="M477,733l141,0l0,-48l-141,0l0,48Z" class="g1_156" />
<path fill-rule="evenodd" d="M485,709l125,0l0,-24l-125,0l0,24Z" class="g1_156" />
<path fill-rule="evenodd" d="M485,733l125,0l0,-24l-125,0l0,24Z" class="g1_156" />
<path fill-rule="evenodd" d="M619,733l223,0l0,-48l-223,0l0,48Z" class="g1_156" />
<path fill-rule="evenodd" d="M627,721l208,0l0,-24l-208,0l0,24Z" class="g1_156" />
<path d="M477.5,685.5l141,0" class="g2_156" />
<path d="M619.5,685.5l223,0" class="g2_156" />
<path d="M476.5,733.5l0,-48" class="g2_156" />
<path d="M618.5,733.5l0,-48" class="g2_156" />
<path d="M842.5,733.5l0,-48" class="g2_156" />
<path fill-rule="evenodd" d="M843,758l5,0l0,-25l-5,0l0,25Z" class="g1_156" />
<path fill-rule="evenodd" d="M477,758l141,0l0,-24l-141,0l0,24Z" class="g1_156" />
<g clip-path="url(#c4_156)">
<path fill-rule="evenodd" d="M485,758l125,0l0,-24l-125,0l0,24Z" class="g1_156" />
</g>
<path fill-rule="evenodd" d="M619,758l223,0l0,-24l-223,0l0,24Z" class="g1_156" />
<path fill-rule="evenodd" d="M627,758l208,0l0,-24l-208,0l0,24Z" class="g1_156" />
<path d="M476.5,734.5l0,-1" class="g2_156" />
<path d="M477.5,734.5l141,0" class="g2_156" />
<path d="M618.5,734.5l0,-1" class="g2_156" />
<path d="M619.5,734.5l223,0" class="g2_156" />
<path d="M842.5,734.5l0,-1" class="g2_156" />
<path d="M476.5,758.5l0,-24" class="g2_156" />
<path d="M618.5,758.5l0,-24" class="g2_156" />
<path d="M842.5,758.5l0,-24" class="g2_156" />
<path fill-rule="evenodd" d="M843,784l5,0l0,-26l-5,0l0,26Z" class="g1_156" />
<path fill-rule="evenodd" d="M477,783l141,0l0,-24l-141,0l0,24Z" class="g1_156" />
<path fill-rule="evenodd" d="M485,783l125,0l0,-24l-125,0l0,24Z" class="g1_156" />
<path fill-rule="evenodd" d="M619,783l223,0l0,-24l-223,0l0,24Z" class="g1_156" />
<path fill-rule="evenodd" d="M627,783l208,0l0,-24l-208,0l0,24Z" class="g1_156" />
<path d="M476.5,759.5l0,-1" class="g2_156" />
<path d="M477.5,759.5l141,0" class="g2_156" />
<path d="M618.5,759.5l0,-1" class="g2_156" />
<path d="M619.5,759.5l223,0" class="g2_156" />
<path d="M842.5,759.5l0,-1" class="g2_156" />
<path d="M476.5,783.5l0,-24" class="g2_156" />
<path d="M476.5,784.5l0,-1" class="g2_156" />
<path d="M476.5,784.5l0,-1" class="g2_156" />
<path d="M477.5,784.5l141,0" class="g2_156" />
<path d="M618.5,783.5l0,-24" class="g2_156" />
<path d="M618.5,784.5l0,-1" class="g2_156" />
<path d="M619.5,784.5l223,0" class="g2_156" />
<path d="M842.5,783.5l0,-24" class="g2_156" />
<path d="M842.5,784.5l0,-1" class="g2_156" />
<path d="M842.5,784.5l0,-1" class="g2_156" />
<path fill-rule="evenodd" d="M476,808l372,0l0,-24l-372,0l0,24Z" class="g1_156" />
<path fill-rule="evenodd" d="M844,857l4,0l0,-49l-4,0l0,49Z" class="g1_156" />
<path fill-rule="evenodd" d="M477,857l143,0l0,-49l-143,0l0,49Z" class="g1_156" />
<path fill-rule="evenodd" d="M485,832l127,0l0,-24l-127,0l0,24Z" class="g1_156" />
<path fill-rule="evenodd" d="M485,856l127,0l0,-24l-127,0l0,24Z" class="g1_156" />
<path fill-rule="evenodd" d="M621,857l223,0l0,-49l-223,0l0,49Z" class="g1_156" />
<path fill-rule="evenodd" d="M629,845l207,0l0,-24l-207,0l0,24Z" class="g1_156" />
<path d="M477.5,808.5l143,0" class="g2_156" />
<path d="M621.5,808.5l223,0" class="g2_156" />
<path d="M476.5,857.5l0,-49" class="g2_156" />
<path d="M620.5,857.5l0,-49" class="g2_156" />
<path d="M844.5,857.5l0,-49" class="g2_156" />
<path fill-rule="evenodd" d="M844,907l4,0l0,-50l-4,0l0,50Z" class="g1_156" />
<path fill-rule="evenodd" d="M477,907l143,0l0,-49l-143,0l0,49Z" class="g1_156" />
<g clip-path="url(#c5_156)">
<path fill-rule="evenodd" d="M485,882l127,0l0,-24l-127,0l0,24Z" class="g1_156" />
</g>
<path fill-rule="evenodd" d="M485,905l127,0l0,-23l-127,0l0,23Z" class="g1_156" />
<path fill-rule="evenodd" d="M621,907l223,0l0,-49l-223,0l0,49Z" class="g1_156" />
<path fill-rule="evenodd" d="M629,894l207,0l0,-24l-207,0l0,24Z" class="g1_156" />
<path d="M476.5,858.5l0,-1" class="g2_156" />
<path d="M477.5,858.5l143,0" class="g2_156" />
<path d="M620.5,858.5l0,-1" class="g2_156" />
<path d="M621.5,858.5l223,0" class="g2_156" />
<path d="M844.5,858.5l0,-1" class="g2_156" />
<path d="M476.5,907.5l0,-49" class="g2_156" />
<path d="M620.5,907.5l0,-49" class="g2_156" />
<path d="M844.5,907.5l0,-49" class="g2_156" />
<path fill-rule="evenodd" d="M844,956l4,0l0,-49l-4,0l0,49Z" class="g1_156" />
<path fill-rule="evenodd" d="M477,956l143,0l0,-49l-143,0l0,49Z" class="g1_156" />
<path fill-rule="evenodd" d="M485,931l127,0l0,-24l-127,0l0,24Z" class="g1_156" />
<path fill-rule="evenodd" d="M485,955l127,0l0,-24l-127,0l0,24Z" class="g1_156" />
<path fill-rule="evenodd" d="M621,956l223,0l0,-49l-223,0l0,49Z" class="g1_156" />
<path fill-rule="evenodd" d="M629,944l207,0l0,-24l-207,0l0,24Z" class="g1_156" />
<path d="M477.5,907.5l143,0" class="g2_156" />
<path d="M621.5,907.5l223,0" class="g2_156" />
<path d="M476.5,956.5l0,-49" class="g2_156" />
<path d="M620.5,956.5l0,-49" class="g2_156" />
<path d="M844.5,956.5l0,-49" class="g2_156" />
<path fill-rule="evenodd" d="M844,982l4,0l0,-26l-4,0l0,26Z" class="g1_156" />
<path fill-rule="evenodd" d="M477,982l143,0l0,-25l-143,0l0,25Z" class="g1_156" />
<path fill-rule="evenodd" d="M485,980l127,0l0,-23l-127,0l0,23Z" class="g1_156" />
<path fill-rule="evenodd" d="M621,982l223,0l0,-25l-223,0l0,25Z" class="g1_156" />
<path fill-rule="evenodd" d="M629,981l207,0l0,-24l-207,0l0,24Z" class="g1_156" />
<path d="M476.5,957.5l0,-1" class="g2_156" />
<path d="M477.5,957.5l143,0" class="g2_156" />
<path d="M620.5,957.5l0,-1" class="g2_156" />
<path d="M621.5,957.5l223,0" class="g2_156" />
<path d="M844.5,957.5l0,-1" class="g2_156" />
<path d="M476.5,982.5l0,-25" class="g2_156" />
<path d="M620.5,982.5l0,-25" class="g2_156" />
<path d="M844.5,982.5l0,-25" class="g2_156" />
<path fill-rule="evenodd" d="M844,1008l4,0l0,-26l-4,0l0,26Z" class="g1_156" />
<path fill-rule="evenodd" d="M477,1007l143,0l0,-25l-143,0l0,25Z" class="g1_156" />
<path fill-rule="evenodd" d="M485,1006l127,0l0,-24l-127,0l0,24Z" class="g1_156" />
<path fill-rule="evenodd" d="M621,1007l223,0l0,-25l-223,0l0,25Z" class="g1_156" />
<path fill-rule="evenodd" d="M629,1007l207,0l0,-24l-207,0l0,24Z" class="g1_156" />
<path d="M477.5,982.5l143,0" class="g2_156" />
<path d="M621.5,982.5l223,0" class="g2_156" />
<path d="M476.5,1007.5l0,-25" class="g2_156" />
<path d="M476.5,1008.5l0,-1" class="g2_156" />
<path d="M476.5,1008.5l0,-1" class="g2_156" />
<path d="M477.5,1008.5l143,0" class="g2_156" />
<path d="M620.5,1007.5l0,-25" class="g2_156" />
<path d="M620.5,1008.5l0,-1" class="g2_156" />
<path d="M621.5,1008.5l223,0" class="g2_156" />
<path d="M844.5,1007.5l0,-25" class="g2_156" />
<path d="M844.5,1008.5l0,-1" class="g2_156" />
<path d="M844.5,1008.5l0,-1" class="g2_156" />
<path fill-rule="evenodd" d="M476,1032l372,0l0,-24l-372,0l0,24Z" class="g1_156" />
<path fill-rule="evenodd" d="M476,1056l372,0l0,-24l-372,0l0,24Z" class="g1_156" />
<path fill-rule="evenodd" d="M476,1079l372,0l0,-23l-372,0l0,23Z" class="g1_156" />
<path fill-rule="evenodd" d="M476,1103l372,0l0,-24l-372,0l0,24Z" class="g1_156" />
<path fill-rule="evenodd" d="M476,1127l372,0l0,-24l-372,0l0,24Z" class="g1_156" />
<g clip-path="url(#c3_156)">
<path fill-rule="evenodd" d="M476,1151l372,0l0,-24l-372,0l0,24Z" class="g1_156" />
</g>
<path d="M46.5,111.5l0,-1" class="g3_156" />
<path d="M46.5,111.5l0,-1" class="g3_156" />
<path d="M47.5,111.5l31,0" class="g3_156" />
<path d="M78.5,111.5l0,-1" class="g3_156" />
<path d="M79.5,111.5l31,0" class="g3_156" />
<path d="M110.5,111.5l0,-1" class="g3_156" />
<path d="M111.5,111.5l31,0" class="g3_156" />
<path d="M142.5,111.5l0,-1" class="g3_156" />
<path d="M144.5,111.5l196,0" class="g3_156" />
<path d="M340.5,111.5l0,-1" class="g3_156" />
<path d="M342.5,111.5l68,0" class="g3_156" />
<path d="M410.5,111.5l0,-1" class="g3_156" />
<path d="M412.5,111.5l55,0" class="g3_156" />
<path d="M467.5,111.5l0,-1" class="g3_156" />
<path d="M469.5,111.5l386,0" class="g3_156" />
<path d="M855.5,111.5l0,-1" class="g3_156" />
<path d="M855.5,111.5l0,-1" class="g3_156" />
<path d="M46.5,1151.5l0,-1040" class="g3_156" />
<path d="M46.5,1153.5l0,-2" class="g3_156" />
<path d="M46.5,1153.5l0,-2" class="g3_156" />
<path d="M47.5,1153.5l31,0" class="g3_156" />
<path d="M78.5,1151.5l0,-1040" class="g3_156" />
<path d="M78.5,1153.5l0,-2" class="g3_156" />
<path d="M79.5,1153.5l31,0" class="g3_156" />
<path d="M110.5,1151.5l0,-1040" class="g3_156" />
<path d="M110.5,1153.5l0,-2" class="g3_156" />
<path d="M111.5,1153.5l31,0" class="g3_156" />
<path d="M142.5,1151.5l0,-1040" class="g3_156" />
<path d="M142.5,1153.5l0,-2" class="g3_156" />
<path d="M144.5,1153.5l196,0" class="g3_156" />
<path d="M340.5,1151.5l0,-1040" class="g3_156" />
<path d="M340.5,1153.5l0,-2" class="g3_156" />
<path d="M342.5,1153.5l68,0" class="g3_156" />
<path d="M410.5,1151.5l0,-1040" class="g3_156" />
<path d="M410.5,1153.5l0,-2" class="g3_156" />
<path d="M412.5,1153.5l55,0" class="g3_156" />
<path d="M467.5,1151.5l0,-1040" class="g3_156" />
<path d="M467.5,1153.5l0,-2" class="g3_156" />
<path d="M469.5,1153.5l386,0" class="g3_156" />
<path d="M855.5,1151.5l0,-1040" class="g3_156" />
<path d="M855.5,1153.5l0,-2" class="g3_156" />
<path d="M855.5,1153.5l0,-2" class="g3_156" />
</svg>