<?xml version="1.0" encoding="UTF-8" standalone="no"?>
<!DOCTYPE svg PUBLIC "-//W3C//DTD SVG 1.1//EN"
"http://www.w3.org/Graphics/SVG/1.1/DTD/svg11.dtd">
<svg version="1.1" xmlns="http://www.w3.org/2000/svg" xmlns:xlink="http://www.w3.org/1999/xlink">
<defs>
<clipPath id="c0_60"><path d="M47.5,261.5l0,-150l840,0l0,150Z" /></clipPath>
<clipPath id="c1_60"><path d="M47.5,397.5l0,-24l423,0l0,24Z" /></clipPath>
<clipPath id="c2_60"><path d="M472.5,397.5l0,-24l94,0l0,24Z" /></clipPath>
<clipPath id="c3_60"><path d="M567.5,397.5l0,-24l326,0l0,24Z" /></clipPath>
<clipPath id="c4_60"><path d="M47.5,1073.5l0,-674l37,0l0,674Z" /></clipPath>
<clipPath id="c5_60"><path d="M85.5,498.5l0,-26l385,0l0,26Z" /></clipPath>
<clipPath id="c6_60"><path d="M472.5,498.5l0,-26l94,0l0,26Z" /></clipPath>
<clipPath id="c7_60"><path d="M567.5,498.5l0,-26l326,0l0,26Z" /></clipPath>
<clipPath id="c8_60"><path d="M85.5,523.5l0,-24l385,0l0,24Z" /></clipPath>
<clipPath id="c9_60"><path d="M472.5,523.5l0,-24l94,0l0,24Z" /></clipPath>
<clipPath id="c10_60"><path d="M567.5,523.5l0,-24l326,0l0,24Z" /></clipPath>
<clipPath id="c11_60"><path d="M85.5,575.5l0,-24l385,0l0,24Z" /></clipPath>
<clipPath id="c12_60"><path d="M472.5,575.5l0,-24l94,0l0,24Z" /></clipPath>
<clipPath id="c13_60"><path d="M567.5,575.5l0,-24l326,0l0,24Z" /></clipPath>
<clipPath id="c14_60"><path d="M85.5,1073.5l0,-496l36,0l0,496Z" /></clipPath>
<clipPath id="c15_60"><path d="M123.5,719.5l0,-142l35,0l0,142Z" /></clipPath>
<clipPath id="c16_60"><path d="M160.5,678.5l0,-31l310,0l0,31Z" /></clipPath>
<clipPath id="c17_60"><path d="M472.5,678.5l0,-31l94,0l0,31Z" /></clipPath>
<clipPath id="c18_60"><path d="M567.5,678.5l0,-31l326,0l0,31Z" /></clipPath>
<clipPath id="c19_60"><path d="M160.5,719.5l0,-40l310,0l0,40Z" /></clipPath>
<clipPath id="c20_60"><path d="M472.5,719.5l0,-40l94,0l0,40Z" /></clipPath>
<clipPath id="c21_60"><path d="M567.5,719.5l0,-40l326,0l0,40Z" /></clipPath>
<clipPath id="c22_60"><path d="M123.5,1073.5l0,-353l35,0l0,353Z" /></clipPath>
<clipPath id="c23_60"><path d="M160.5,1073.5l0,-353l35,0l0,353Z" /></clipPath>
<clipPath id="c24_60"><path d="M196.5,758.5l0,-38l274,0l0,38Z" /></clipPath>
<clipPath id="c25_60"><path d="M472.5,758.5l0,-38l94,0l0,38Z" /></clipPath>
<clipPath id="c26_60"><path d="M567.5,758.5l0,-38l326,0l0,38Z" /></clipPath>
<clipPath id="c27_60"><path d="M196.5,831.5l0,-71l274,0l0,71Z" /></clipPath>
<clipPath id="c28_60"><path d="M472.5,831.5l0,-71l94,0l0,71Z" /></clipPath>
<clipPath id="c29_60"><path d="M567.5,831.5l0,-71l326,0l0,71Z" /></clipPath>
<clipPath id="c30_60"><path d="M196.5,1073.5l0,-240l37,0l0,240Z" /></clipPath>
<clipPath id="c31_60"><path d="M234.5,1073.5l0,-240l40,0l0,240Z" /></clipPath>
<clipPath id="c32_60"><path d="M275.5,952.5l0,-119l195,0l0,119Z" /></clipPath>
<clipPath id="c33_60"><path d="M472.5,952.5l0,-119l94,0l0,119Z" /></clipPath>
<clipPath id="c34_60"><path d="M567.5,952.5l0,-119l326,0l0,119Z" /></clipPath>
<clipPath id="c35_60"><path d="M567.5,1073.5l0,-120l326,0l0,120Z" /></clipPath>
<style type="text/css"><![CDATA[
.g2_60{
fill: none;
stroke: #F0F0E0;
stroke-width: 1;
stroke-linecap: butt;
stroke-linejoin: miter;
}
.g3_60{
fill: none;
stroke: #7E7E7E;
stroke-width: 1;
stroke-linecap: butt;
stroke-linejoin: miter;
}
.g4_60{
fill: #DBE5F1;
}
.g1_60{
fill: #F1F1F1;
}
]]></style>
</defs>
<path fill-rule="evenodd" d="M47,261l840,0l0,-150L47,111l0,150Z" class="g1_60" />
<g clip-path="url(#c0_60)">
<path fill-rule="evenodd" d="M55,135l825,0l0,-24L55,111l0,24Z" class="g1_60" />
<path d="M45.5,135.5l0,-24" class="g2_60" />
<path d="M888.5,135.5l0,-24" class="g2_60" />
</g>
<path fill-rule="evenodd" d="M55,159l825,0l0,-24L55,135l0,24Z" class="g1_60" />
<g clip-path="url(#c0_60)">
<path d="M45.5,159.5l0,-24" class="g2_60" />
<path d="M888.5,159.5l0,-24" class="g2_60" />
</g>
<path fill-rule="evenodd" d="M55,182l825,0l0,-23L55,159l0,23Z" class="g1_60" />
<g clip-path="url(#c0_60)">
<path d="M45.5,182.5l0,-23" class="g2_60" />
<path d="M888.5,182.5l0,-23" class="g2_60" />
</g>
<path fill-rule="evenodd" d="M55,206l825,0l0,-24L55,182l0,24Z" class="g1_60" />
<g clip-path="url(#c0_60)">
<path d="M45.5,206.5l0,-24" class="g2_60" />
<path d="M888.5,206.5l0,-24" class="g2_60" />
</g>
<path fill-rule="evenodd" d="M55,237l825,0l0,-31L55,206l0,31Z" class="g1_60" />
<g clip-path="url(#c0_60)">
<path d="M45.5,237.5l0,-1" class="g2_60" />
<path d="M45.5,237.5l0,-1" class="g2_60" />
<path d="M46.5,237.5l842,0" class="g2_60" />
<path d="M888.5,237.5l0,-1" class="g2_60" />
<path d="M888.5,237.5l0,-1" class="g2_60" />
<path d="M45.5,236.5l0,-30" class="g2_60" />
<path d="M888.5,236.5l0,-30" class="g2_60" />
</g>
<path fill-rule="evenodd" d="M55,261l825,0l0,-24L55,237l0,24Z" class="g1_60" />
<path d="M46.5,111.5l0,-1" class="g3_60" />
<path d="M46.5,111.5l0,-1" class="g3_60" />
<path d="M47.5,111.5l840,0" class="g3_60" />
<path d="M887.5,111.5l0,-1" class="g3_60" />
<path d="M887.5,111.5l0,-1" class="g3_60" />
<path d="M46.5,261.5l0,-150" class="g3_60" />
<path d="M46.5,263.5l0,-2" class="g3_60" />
<path d="M46.5,263.5l0,-2" class="g3_60" />
<path d="M47.5,263.5l840,0" class="g3_60" />
<path d="M887.5,261.5l0,-150" class="g3_60" />
<path d="M887.5,263.5l0,-2" class="g3_60" />
<path d="M887.5,263.5l0,-2" class="g3_60" />
<path fill-rule="evenodd" d="M47,397l423,0l0,-24L47,373l0,24Z" class="g4_60" />
<g clip-path="url(#c1_60)">
<path fill-rule="evenodd" d="M55,397l408,0l0,-24L55,373l0,24Z" class="g4_60" />
</g>
<path fill-rule="evenodd" d="M472,397l94,0l0,-24l-94,0l0,24Z" class="g4_60" />
<g clip-path="url(#c2_60)">
<path fill-rule="evenodd" d="M479,397l79,0l0,-24l-79,0l0,24Z" class="g4_60" />
</g>
<path fill-rule="evenodd" d="M567,397l326,0l0,-24l-326,0l0,24Z" class="g4_60" />
<g clip-path="url(#c3_60)">
<path fill-rule="evenodd" d="M575,397l310,0l0,-24l-310,0l0,24Z" class="g4_60" />
</g>
<path d="M46.5,373.5l0,-1" class="g3_60" />
<path d="M46.5,373.5l0,-1" class="g3_60" />
<path d="M47.5,373.5l423,0" class="g3_60" />
<path d="M470.5,373.5l0,-1" class="g3_60" />
<path d="M472.5,373.5l94,0" class="g3_60" />
<path d="M566.5,373.5l0,-1" class="g3_60" />
<path d="M567.5,373.5l326,0" class="g3_60" />
<path d="M893.5,373.5l0,-1" class="g3_60" />
<path d="M893.5,373.5l0,-1" class="g3_60" />
<path d="M46.5,397.5l0,-24" class="g3_60" />
<path d="M470.5,397.5l0,-24" class="g3_60" />
<path d="M566.5,397.5l0,-24" class="g3_60" />
<path d="M893.5,397.5l0,-24" class="g3_60" />
<path fill-rule="evenodd" d="M47,1073l37,0L84,399l-37,0l0,674Z" class="g1_60" />
<g clip-path="url(#c4_60)">
<path fill-rule="evenodd" d="M55,1073l23,0L78,399l-23,0l0,674Z" class="g1_60" />
</g>
<path fill-rule="evenodd" d="M85,470l385,0l0,-71L85,399l0,71Z" class="g1_60" />
<path fill-rule="evenodd" d="M93,423l370,0l0,-24L93,399l0,24Z" class="g1_60" />
<path fill-rule="evenodd" d="M472,470l94,0l0,-71l-94,0l0,71Z" class="g1_60" />
<path fill-rule="evenodd" d="M479,423l79,0l0,-24l-79,0l0,24Z" class="g1_60" />
<path fill-rule="evenodd" d="M567,470l326,0l0,-71l-326,0l0,71Z" class="g1_60" />
<path fill-rule="evenodd" d="M575,423l310,0l0,-24l-310,0l0,24Z" class="g1_60" />
<path fill-rule="evenodd" d="M575,447l310,0l0,-24l-310,0l0,24Z" class="g1_60" />
<path fill-rule="evenodd" d="M575,470l310,0l0,-23l-310,0l0,23Z" class="g1_60" />
<path d="M46.5,399.5l0,-2" class="g3_60" />
<path d="M47.5,399.5l37,0" class="g3_60" />
<path d="M84.5,399.5l0,-2" class="g3_60" />
<path d="M85.5,399.5l385,0" class="g3_60" />
<path d="M470.5,399.5l0,-2" class="g3_60" />
<path d="M472.5,399.5l94,0" class="g3_60" />
<path d="M566.5,399.5l0,-2" class="g3_60" />
<path d="M567.5,399.5l326,0" class="g3_60" />
<path d="M893.5,399.5l0,-2" class="g3_60" />
<path d="M46.5,470.5l0,-71" class="g3_60" />
<path d="M84.5,470.5l0,-71" class="g3_60" />
<path d="M470.5,470.5l0,-71" class="g3_60" />
<path d="M566.5,470.5l0,-71" class="g3_60" />
<path d="M893.5,470.5l0,-71" class="g3_60" />
<path fill-rule="evenodd" d="M85,498l385,0l0,-26L85,472l0,26Z" class="g1_60" />
<g clip-path="url(#c5_60)">
<path fill-rule="evenodd" d="M93,496l370,0l0,-24L93,472l0,24Z" class="g1_60" />
</g>
<path fill-rule="evenodd" d="M472,498l94,0l0,-26l-94,0l0,26Z" class="g1_60" />
<g clip-path="url(#c6_60)">
<path fill-rule="evenodd" d="M479,496l79,0l0,-24l-79,0l0,24Z" class="g1_60" />
</g>
<path fill-rule="evenodd" d="M567,498l326,0l0,-26l-326,0l0,26Z" class="g1_60" />
<g clip-path="url(#c7_60)">
<path fill-rule="evenodd" d="M575,496l310,0l0,-24l-310,0l0,24Z" class="g1_60" />
</g>
<path d="M46.5,472.5l0,-2" class="g3_60" />
<path d="M84.5,472.5l0,-2" class="g3_60" />
<path d="M85.5,472.5l385,0" class="g3_60" />
<path d="M470.5,472.5l0,-2" class="g3_60" />
<path d="M472.5,472.5l94,0" class="g3_60" />
<path d="M566.5,472.5l0,-2" class="g3_60" />
<path d="M567.5,472.5l326,0" class="g3_60" />
<path d="M893.5,472.5l0,-2" class="g3_60" />
<path d="M46.5,498.5l0,-26" class="g3_60" />
<path d="M84.5,498.5l0,-26" class="g3_60" />
<path d="M470.5,498.5l0,-26" class="g3_60" />
<path d="M566.5,498.5l0,-26" class="g3_60" />
<path d="M893.5,498.5l0,-26" class="g3_60" />
<path fill-rule="evenodd" d="M85,523l385,0l0,-24L85,499l0,24Z" class="g1_60" />
<g clip-path="url(#c8_60)">
<path fill-rule="evenodd" d="M93,523l370,0l0,-24L93,499l0,24Z" class="g1_60" />
</g>
<path fill-rule="evenodd" d="M472,523l94,0l0,-24l-94,0l0,24Z" class="g1_60" />
<g clip-path="url(#c9_60)">
<path fill-rule="evenodd" d="M479,523l79,0l0,-24l-79,0l0,24Z" class="g1_60" />
</g>
<path fill-rule="evenodd" d="M567,523l326,0l0,-24l-326,0l0,24Z" class="g1_60" />
<g clip-path="url(#c10_60)">
<path fill-rule="evenodd" d="M575,523l310,0l0,-24l-310,0l0,24Z" class="g1_60" />
</g>
<path d="M46.5,499.5l0,-1" class="g3_60" />
<path d="M84.5,499.5l0,-1" class="g3_60" />
<path d="M85.5,499.5l385,0" class="g3_60" />
<path d="M470.5,499.5l0,-1" class="g3_60" />
<path d="M472.5,499.5l94,0" class="g3_60" />
<path d="M566.5,499.5l0,-1" class="g3_60" />
<path d="M567.5,499.5l326,0" class="g3_60" />
<path d="M893.5,499.5l0,-1" class="g3_60" />
<path d="M46.5,523.5l0,-24" class="g3_60" />
<path d="M84.5,523.5l0,-24" class="g3_60" />
<path d="M470.5,523.5l0,-24" class="g3_60" />
<path d="M566.5,523.5l0,-24" class="g3_60" />
<path d="M893.5,523.5l0,-24" class="g3_60" />
<path fill-rule="evenodd" d="M85,549l385,0l0,-24L85,525l0,24Z" class="g1_60" />
<path fill-rule="evenodd" d="M93,549l370,0l0,-24L93,525l0,24Z" class="g1_60" />
<path fill-rule="evenodd" d="M472,549l94,0l0,-24l-94,0l0,24Z" class="g1_60" />
<path fill-rule="evenodd" d="M479,549l79,0l0,-24l-79,0l0,24Z" class="g1_60" />
<path fill-rule="evenodd" d="M567,549l326,0l0,-24l-326,0l0,24Z" class="g1_60" />
<path fill-rule="evenodd" d="M575,549l310,0l0,-24l-310,0l0,24Z" class="g1_60" />
<path d="M46.5,525.5l0,-2" class="g3_60" />
<path d="M84.5,525.5l0,-2" class="g3_60" />
<path d="M85.5,525.5l385,0" class="g3_60" />
<path d="M470.5,525.5l0,-2" class="g3_60" />
<path d="M472.5,525.5l94,0" class="g3_60" />
<path d="M566.5,525.5l0,-2" class="g3_60" />
<path d="M567.5,525.5l326,0" class="g3_60" />
<path d="M893.5,525.5l0,-2" class="g3_60" />
<path d="M46.5,549.5l0,-24" class="g3_60" />
<path d="M84.5,549.5l0,-24" class="g3_60" />
<path d="M470.5,549.5l0,-24" class="g3_60" />
<path d="M566.5,549.5l0,-24" class="g3_60" />
<path d="M893.5,549.5l0,-24" class="g3_60" />
<path fill-rule="evenodd" d="M85,575l385,0l0,-24L85,551l0,24Z" class="g1_60" />
<g clip-path="url(#c11_60)">
<path fill-rule="evenodd" d="M93,575l370,0l0,-24L93,551l0,24Z" class="g1_60" />
</g>
<path fill-rule="evenodd" d="M472,575l94,0l0,-24l-94,0l0,24Z" class="g1_60" />
<g clip-path="url(#c12_60)">
<path fill-rule="evenodd" d="M479,575l79,0l0,-24l-79,0l0,24Z" class="g1_60" />
</g>
<path fill-rule="evenodd" d="M567,575l326,0l0,-24l-326,0l0,24Z" class="g1_60" />
<g clip-path="url(#c13_60)">
<path fill-rule="evenodd" d="M575,575l310,0l0,-24l-310,0l0,24Z" class="g1_60" />
</g>
<path d="M46.5,551.5l0,-2" class="g3_60" />
<path d="M84.5,551.5l0,-2" class="g3_60" />
<path d="M85.5,551.5l385,0" class="g3_60" />
<path d="M470.5,551.5l0,-2" class="g3_60" />
<path d="M472.5,551.5l94,0" class="g3_60" />
<path d="M566.5,551.5l0,-2" class="g3_60" />
<path d="M567.5,551.5l326,0" class="g3_60" />
<path d="M893.5,551.5l0,-2" class="g3_60" />
<path d="M46.5,575.5l0,-24" class="g3_60" />
<path d="M84.5,575.5l0,-24" class="g3_60" />
<path d="M470.5,575.5l0,-24" class="g3_60" />
<path d="M566.5,575.5l0,-24" class="g3_60" />
<path d="M893.5,575.5l0,-24" class="g3_60" />
<path fill-rule="evenodd" d="M85,1073l36,0l0,-496l-36,0l0,496Z" class="g1_60" />
<g clip-path="url(#c14_60)">
<path fill-rule="evenodd" d="M93,1073l24,0l0,-496l-24,0l0,496Z" class="g1_60" />
</g>
<path fill-rule="evenodd" d="M123,719l35,0l0,-142l-35,0l0,142Z" class="g1_60" />
<g clip-path="url(#c15_60)">
<path fill-rule="evenodd" d="M130,719l24,0l0,-142l-24,0l0,142Z" class="g1_60" />
</g>
<path fill-rule="evenodd" d="M160,611l310,0l0,-34l-310,0l0,34Z" class="g1_60" />
<path fill-rule="evenodd" d="M167,601l296,0l0,-24l-296,0l0,24Z" class="g1_60" />
<path fill-rule="evenodd" d="M472,611l94,0l0,-34l-94,0l0,34Z" class="g1_60" />
<path fill-rule="evenodd" d="M479,601l79,0l0,-24l-79,0l0,24Z" class="g1_60" />
<path fill-rule="evenodd" d="M567,611l326,0l0,-34l-326,0l0,34Z" class="g1_60" />
<path fill-rule="evenodd" d="M575,601l310,0l0,-24l-310,0l0,24Z" class="g1_60" />
<path d="M46.5,577.5l0,-2" class="g3_60" />
<path d="M84.5,577.5l0,-2" class="g3_60" />
<path d="M85.5,577.5l36,0" class="g3_60" />
<path d="M121.5,577.5l0,-2" class="g3_60" />
<path d="M123.5,577.5l35,0" class="g3_60" />
<path d="M158.5,577.5l0,-2" class="g3_60" />
<path d="M160.5,577.5l310,0" class="g3_60" />
<path d="M470.5,577.5l0,-2" class="g3_60" />
<path d="M472.5,577.5l94,0" class="g3_60" />
<path d="M566.5,577.5l0,-2" class="g3_60" />
<path d="M567.5,577.5l326,0" class="g3_60" />
<path d="M893.5,577.5l0,-2" class="g3_60" />
<path d="M46.5,611.5l0,-34" class="g3_60" />
<path d="M84.5,611.5l0,-34" class="g3_60" />
<path d="M121.5,611.5l0,-34" class="g3_60" />
<path d="M158.5,611.5l0,-34" class="g3_60" />
<path d="M470.5,611.5l0,-34" class="g3_60" />
<path d="M566.5,611.5l0,-34" class="g3_60" />
<path d="M893.5,611.5l0,-34" class="g3_60" />
<path fill-rule="evenodd" d="M160,645l310,0l0,-33l-310,0l0,33Z" class="g1_60" />
<path fill-rule="evenodd" d="M167,636l296,0l0,-24l-296,0l0,24Z" class="g1_60" />
<path fill-rule="evenodd" d="M472,645l94,0l0,-33l-94,0l0,33Z" class="g1_60" />
<path fill-rule="evenodd" d="M479,636l79,0l0,-24l-79,0l0,24Z" class="g1_60" />
<path fill-rule="evenodd" d="M567,645l326,0l0,-33l-326,0l0,33Z" class="g1_60" />
<path fill-rule="evenodd" d="M575,636l310,0l0,-24l-310,0l0,24Z" class="g1_60" />
<path d="M46.5,612.5l0,-1" class="g3_60" />
<path d="M84.5,612.5l0,-1" class="g3_60" />
<path d="M121.5,612.5l0,-1" class="g3_60" />
<path d="M158.5,612.5l0,-1" class="g3_60" />
<path d="M160.5,612.5l310,0" class="g3_60" />
<path d="M470.5,612.5l0,-1" class="g3_60" />
<path d="M472.5,612.5l94,0" class="g3_60" />
<path d="M566.5,612.5l0,-1" class="g3_60" />
<path d="M567.5,612.5l326,0" class="g3_60" />
<path d="M893.5,612.5l0,-1" class="g3_60" />
<path d="M46.5,645.5l0,-33" class="g3_60" />
<path d="M84.5,645.5l0,-33" class="g3_60" />
<path d="M121.5,645.5l0,-33" class="g3_60" />
<path d="M158.5,645.5l0,-33" class="g3_60" />
<path d="M470.5,645.5l0,-33" class="g3_60" />
<path d="M566.5,645.5l0,-33" class="g3_60" />
<path d="M893.5,645.5l0,-33" class="g3_60" />
<path fill-rule="evenodd" d="M160,678l310,0l0,-31l-310,0l0,31Z" class="g1_60" />
<g clip-path="url(#c16_60)">
<path fill-rule="evenodd" d="M167,671l296,0l0,-24l-296,0l0,24Z" class="g1_60" />
</g>
<path fill-rule="evenodd" d="M472,678l94,0l0,-31l-94,0l0,31Z" class="g1_60" />
<g clip-path="url(#c17_60)">
<path fill-rule="evenodd" d="M479,671l79,0l0,-24l-79,0l0,24Z" class="g1_60" />
</g>
<path fill-rule="evenodd" d="M567,678l326,0l0,-31l-326,0l0,31Z" class="g1_60" />
<g clip-path="url(#c18_60)">
<path fill-rule="evenodd" d="M575,671l310,0l0,-24l-310,0l0,24Z" class="g1_60" />
</g>
<path d="M46.5,647.5l0,-2" class="g3_60" />
<path d="M84.5,647.5l0,-2" class="g3_60" />
<path d="M121.5,647.5l0,-2" class="g3_60" />
<path d="M158.5,647.5l0,-2" class="g3_60" />
<path d="M160.5,647.5l310,0" class="g3_60" />
<path d="M470.5,647.5l0,-2" class="g3_60" />
<path d="M472.5,647.5l94,0" class="g3_60" />
<path d="M566.5,647.5l0,-2" class="g3_60" />
<path d="M567.5,647.5l326,0" class="g3_60" />
<path d="M893.5,647.5l0,-2" class="g3_60" />
<path d="M46.5,678.5l0,-31" class="g3_60" />
<path d="M84.5,678.5l0,-31" class="g3_60" />
<path d="M121.5,678.5l0,-31" class="g3_60" />
<path d="M158.5,678.5l0,-31" class="g3_60" />
<path d="M470.5,678.5l0,-31" class="g3_60" />
<path d="M566.5,678.5l0,-31" class="g3_60" />
<path d="M893.5,678.5l0,-31" class="g3_60" />
<path fill-rule="evenodd" d="M160,719l310,0l0,-40l-310,0l0,40Z" class="g1_60" />
<g clip-path="url(#c19_60)">
<path fill-rule="evenodd" d="M167,703l296,0l0,-24l-296,0l0,24Z" class="g1_60" />
</g>
<path fill-rule="evenodd" d="M472,719l94,0l0,-40l-94,0l0,40Z" class="g1_60" />
<g clip-path="url(#c20_60)">
<path fill-rule="evenodd" d="M479,703l79,0l0,-24l-79,0l0,24Z" class="g1_60" />
</g>
<path fill-rule="evenodd" d="M567,719l326,0l0,-40l-326,0l0,40Z" class="g1_60" />
<g clip-path="url(#c21_60)">
<path fill-rule="evenodd" d="M575,703l310,0l0,-24l-310,0l0,24Z" class="g1_60" />
</g>
<path d="M46.5,679.5l0,-1" class="g3_60" />
<path d="M84.5,679.5l0,-1" class="g3_60" />
<path d="M121.5,679.5l0,-1" class="g3_60" />
<path d="M158.5,679.5l0,-1" class="g3_60" />
<path d="M160.5,679.5l310,0" class="g3_60" />
<path d="M470.5,679.5l0,-1" class="g3_60" />
<path d="M472.5,679.5l94,0" class="g3_60" />
<path d="M566.5,679.5l0,-1" class="g3_60" />
<path d="M567.5,679.5l326,0" class="g3_60" />
<path d="M893.5,679.5l0,-1" class="g3_60" />
<path d="M46.5,719.5l0,-40" class="g3_60" />
<path d="M84.5,719.5l0,-40" class="g3_60" />
<path d="M121.5,719.5l0,-40" class="g3_60" />
<path d="M158.5,719.5l0,-40" class="g3_60" />
<path d="M470.5,719.5l0,-40" class="g3_60" />
<path d="M566.5,719.5l0,-40" class="g3_60" />
<path d="M893.5,719.5l0,-40" class="g3_60" />
<path fill-rule="evenodd" d="M123,1073l35,0l0,-353l-35,0l0,353Z" class="g1_60" />
<g clip-path="url(#c22_60)">
<path fill-rule="evenodd" d="M130,1073l24,0l0,-353l-24,0l0,353Z" class="g1_60" />
</g>
<path fill-rule="evenodd" d="M160,1073l35,0l0,-353l-35,0l0,353Z" class="g1_60" />
<g clip-path="url(#c23_60)">
<path fill-rule="evenodd" d="M167,1073l24,0l0,-353l-24,0l0,353Z" class="g1_60" />
</g>
<path fill-rule="evenodd" d="M196,758l274,0l0,-38l-274,0l0,38Z" class="g1_60" />
<g clip-path="url(#c24_60)">
<path fill-rule="evenodd" d="M204,744l259,0l0,-24l-259,0l0,24Z" class="g1_60" />
</g>
<path fill-rule="evenodd" d="M472,758l94,0l0,-38l-94,0l0,38Z" class="g1_60" />
<g clip-path="url(#c25_60)">
<path fill-rule="evenodd" d="M479,744l79,0l0,-24l-79,0l0,24Z" class="g1_60" />
</g>
<path fill-rule="evenodd" d="M567,758l326,0l0,-38l-326,0l0,38Z" class="g1_60" />
<g clip-path="url(#c26_60)">
<path fill-rule="evenodd" d="M575,744l310,0l0,-24l-310,0l0,24Z" class="g1_60" />
</g>
<path d="M46.5,720.5l0,-1" class="g3_60" />
<path d="M84.5,720.5l0,-1" class="g3_60" />
<path d="M121.5,720.5l0,-1" class="g3_60" />
<path d="M123.5,720.5l35,0" class="g3_60" />
<path d="M158.5,720.5l0,-1" class="g3_60" />
<path d="M160.5,720.5l35,0" class="g3_60" />
<path d="M195.5,720.5l0,-1" class="g3_60" />
<path d="M196.5,720.5l274,0" class="g3_60" />
<path d="M470.5,720.5l0,-1" class="g3_60" />
<path d="M472.5,720.5l94,0" class="g3_60" />
<path d="M566.5,720.5l0,-1" class="g3_60" />
<path d="M567.5,720.5l326,0" class="g3_60" />
<path d="M893.5,720.5l0,-1" class="g3_60" />
<path d="M46.5,758.5l0,-38" class="g3_60" />
<path d="M84.5,758.5l0,-38" class="g3_60" />
<path d="M121.5,758.5l0,-38" class="g3_60" />
<path d="M158.5,758.5l0,-38" class="g3_60" />
<path d="M195.5,758.5l0,-38" class="g3_60" />
<path d="M470.5,758.5l0,-38" class="g3_60" />
<path d="M566.5,758.5l0,-38" class="g3_60" />
<path d="M893.5,758.5l0,-38" class="g3_60" />
<path fill-rule="evenodd" d="M196,831l274,0l0,-71l-274,0l0,71Z" class="g1_60" />
<g clip-path="url(#c27_60)">
<path fill-rule="evenodd" d="M204,783l259,0l0,-23l-259,0l0,23Z" class="g1_60" />
</g>
<path fill-rule="evenodd" d="M472,831l94,0l0,-71l-94,0l0,71Z" class="g1_60" />
<g clip-path="url(#c28_60)">
<path fill-rule="evenodd" d="M479,783l79,0l0,-23l-79,0l0,23Z" class="g1_60" />
</g>
<path fill-rule="evenodd" d="M567,831l326,0l0,-71l-326,0l0,71Z" class="g1_60" />
<g clip-path="url(#c29_60)">
<path fill-rule="evenodd" d="M575,783l310,0l0,-23l-310,0l0,23Z" class="g1_60" />
</g>
<path fill-rule="evenodd" d="M575,807l310,0l0,-24l-310,0l0,24Z" class="g1_60" />
<path fill-rule="evenodd" d="M575,831l310,0l0,-24l-310,0l0,24Z" class="g1_60" />
<path d="M46.5,760.5l0,-2" class="g3_60" />
<path d="M84.5,760.5l0,-2" class="g3_60" />
<path d="M121.5,760.5l0,-2" class="g3_60" />
<path d="M158.5,760.5l0,-2" class="g3_60" />
<path d="M195.5,760.5l0,-2" class="g3_60" />
<path d="M196.5,760.5l274,0" class="g3_60" />
<path d="M470.5,760.5l0,-2" class="g3_60" />
<path d="M472.5,760.5l94,0" class="g3_60" />
<path d="M566.5,760.5l0,-2" class="g3_60" />
<path d="M567.5,760.5l326,0" class="g3_60" />
<path d="M893.5,760.5l0,-2" class="g3_60" />
<path d="M46.5,831.5l0,-71" class="g3_60" />
<path d="M84.5,831.5l0,-71" class="g3_60" />
<path d="M121.5,831.5l0,-71" class="g3_60" />
<path d="M158.5,831.5l0,-71" class="g3_60" />
<path d="M195.5,831.5l0,-71" class="g3_60" />
<path d="M470.5,831.5l0,-71" class="g3_60" />
<path d="M566.5,831.5l0,-71" class="g3_60" />
<path d="M893.5,831.5l0,-71" class="g3_60" />
<path fill-rule="evenodd" d="M196,1073l37,0l0,-240l-37,0l0,240Z" class="g1_60" />
<g clip-path="url(#c30_60)">
<path fill-rule="evenodd" d="M204,1073l24,0l0,-240l-24,0l0,240Z" class="g1_60" />
</g>
<path fill-rule="evenodd" d="M234,1073l40,0l0,-240l-40,0l0,240Z" class="g1_60" />
<g clip-path="url(#c31_60)">
<path fill-rule="evenodd" d="M242,1073l23,0l0,-240l-23,0l0,240Z" class="g1_60" />
</g>
<path fill-rule="evenodd" d="M275,952l195,0l0,-119l-195,0l0,119Z" class="g1_60" />
<g clip-path="url(#c32_60)">
<path fill-rule="evenodd" d="M283,857l180,0l0,-24l-180,0l0,24Z" class="g1_60" />
</g>
<path fill-rule="evenodd" d="M472,952l94,0l0,-119l-94,0l0,119Z" class="g1_60" />
<g clip-path="url(#c33_60)">
<path fill-rule="evenodd" d="M479,857l79,0l0,-24l-79,0l0,24Z" class="g1_60" />
</g>
<path fill-rule="evenodd" d="M567,952l326,0l0,-119l-326,0l0,119Z" class="g1_60" />
<g clip-path="url(#c34_60)">
<path fill-rule="evenodd" d="M575,857l310,0l0,-24l-310,0l0,24Z" class="g1_60" />
</g>
<path fill-rule="evenodd" d="M575,880l310,0l0,-23l-310,0l0,23Z" class="g1_60" />
<path fill-rule="evenodd" d="M575,904l310,0l0,-24l-310,0l0,24Z" class="g1_60" />
<path fill-rule="evenodd" d="M575,928l310,0l0,-24l-310,0l0,24Z" class="g1_60" />
<g clip-path="url(#c34_60)">
<path fill-rule="evenodd" d="M575,952l310,0l0,-24l-310,0l0,24Z" class="g1_60" />
</g>
<path d="M46.5,832.5l0,-1" class="g3_60" />
<path d="M84.5,832.5l0,-1" class="g3_60" />
<path d="M121.5,832.5l0,-1" class="g3_60" />
<path d="M158.5,832.5l0,-1" class="g3_60" />
<path d="M195.5,832.5l0,-1" class="g3_60" />
<path d="M196.5,832.5l37,0" class="g3_60" />
<path d="M233.5,832.5l0,-1" class="g3_60" />
<path d="M234.5,832.5l40,0" class="g3_60" />
<path d="M274.5,832.5l0,-1" class="g3_60" />
<path d="M275.5,832.5l195,0" class="g3_60" />
<path d="M470.5,832.5l0,-1" class="g3_60" />
<path d="M472.5,832.5l94,0" class="g3_60" />
<path d="M566.5,832.5l0,-1" class="g3_60" />
<path d="M567.5,832.5l326,0" class="g3_60" />
<path d="M893.5,832.5l0,-1" class="g3_60" />
<path d="M46.5,952.5l0,-120" class="g3_60" />
<path d="M84.5,952.5l0,-120" class="g3_60" />
<path d="M121.5,952.5l0,-120" class="g3_60" />
<path d="M158.5,952.5l0,-120" class="g3_60" />
<path d="M195.5,952.5l0,-120" class="g3_60" />
<path d="M233.5,952.5l0,-120" class="g3_60" />
<path d="M274.5,952.5l0,-120" class="g3_60" />
<path d="M470.5,952.5l0,-120" class="g3_60" />
<path d="M566.5,952.5l0,-120" class="g3_60" />
<path d="M893.5,952.5l0,-120" class="g3_60" />
<path fill-rule="evenodd" d="M275,1073l195,0l0,-120l-195,0l0,120Z" class="g1_60" />
<path fill-rule="evenodd" d="M283,977l180,0l0,-24l-180,0l0,24Z" class="g1_60" />
<path fill-rule="evenodd" d="M472,1073l94,0l0,-120l-94,0l0,120Z" class="g1_60" />
<path fill-rule="evenodd" d="M479,977l79,0l0,-24l-79,0l0,24Z" class="g1_60" />
<path fill-rule="evenodd" d="M567,1073l326,0l0,-120l-326,0l0,120Z" class="g1_60" />
<path fill-rule="evenodd" d="M575,977l310,0l0,-24l-310,0l0,24Z" class="g1_60" />
<path fill-rule="evenodd" d="M575,1001l310,0l0,-24l-310,0l0,24Z" class="g1_60" />
<path fill-rule="evenodd" d="M575,1025l310,0l0,-24l-310,0l0,24Z" class="g1_60" />
<path fill-rule="evenodd" d="M575,1049l310,0l0,-24l-310,0l0,24Z" class="g1_60" />
<g clip-path="url(#c35_60)">
<path fill-rule="evenodd" d="M575,1073l310,0l0,-24l-310,0l0,24Z" class="g1_60" />
</g>
<path d="M46.5,953.5l0,-1" class="g3_60" />
<path d="M84.5,953.5l0,-1" class="g3_60" />
<path d="M121.5,953.5l0,-1" class="g3_60" />
<path d="M158.5,953.5l0,-1" class="g3_60" />
<path d="M195.5,953.5l0,-1" class="g3_60" />
<path d="M233.5,953.5l0,-1" class="g3_60" />
<path d="M274.5,953.5l0,-1" class="g3_60" />
<path d="M275.5,953.5l195,0" class="g3_60" />
<path d="M470.5,953.5l0,-1" class="g3_60" />
<path d="M472.5,953.5l94,0" class="g3_60" />
<path d="M566.5,953.5l0,-1" class="g3_60" />
<path d="M567.5,953.5l326,0" class="g3_60" />
<path d="M893.5,953.5l0,-1" class="g3_60" />
<path d="M46.5,1073.5l0,-120" class="g3_60" />
<path d="M46.5,1074.5l0,-1" class="g3_60" />
<path d="M46.5,1074.5l0,-1" class="g3_60" />
<path d="M47.5,1074.5l37,0" class="g3_60" />
<path d="M84.5,1073.5l0,-120" class="g3_60" />
<path d="M84.5,1074.5l0,-1" class="g3_60" />
<path d="M85.5,1074.5l36,0" class="g3_60" />
<path d="M121.5,1073.5l0,-120" class="g3_60" />
<path d="M121.5,1074.5l0,-1" class="g3_60" />
<path d="M123.5,1074.5l35,0" class="g3_60" />
<path d="M158.5,1073.5l0,-120" class="g3_60" />
<path d="M158.5,1074.5l0,-1" class="g3_60" />
<path d="M160.5,1074.5l35,0" class="g3_60" />
<path d="M195.5,1073.5l0,-120" class="g3_60" />
<path d="M195.5,1074.5l0,-1" class="g3_60" />
<path d="M196.5,1074.5l37,0" class="g3_60" />
<path d="M233.5,1073.5l0,-120" class="g3_60" />
<path d="M233.5,1074.5l0,-1" class="g3_60" />
<path d="M234.5,1074.5l40,0" class="g3_60" />
<path d="M274.5,1073.5l0,-120" class="g3_60" />
<path d="M274.5,1074.5l0,-1" class="g3_60" />
<path d="M275.5,1074.5l195,0" class="g3_60" />
<path d="M470.5,1073.5l0,-120" class="g3_60" />
<path d="M470.5,1074.5l0,-1" class="g3_60" />
<path d="M472.5,1074.5l94,0" class="g3_60" />
<path d="M566.5,1073.5l0,-120" class="g3_60" />
<path d="M566.5,1074.5l0,-1" class="g3_60" />
<path d="M567.5,1074.5l326,0" class="g3_60" />
<path d="M893.5,1073.5l0,-120" class="g3_60" />
<path d="M893.5,1074.5l0,-1" class="g3_60" />
<path d="M893.5,1074.5l0,-1" class="g3_60" />
</svg>