<?xml version="1.0" encoding="UTF-8" standalone="no"?>
<!DOCTYPE svg PUBLIC "-//W3C//DTD SVG 1.1//EN"
"http://www.w3.org/Graphics/SVG/1.1/DTD/svg11.dtd">
<svg version="1.1" xmlns="http://www.w3.org/2000/svg" xmlns:xlink="http://www.w3.org/1999/xlink">
<defs>
<clipPath id="c0_346"><path d="M47.5,199.5l0,-25l377,0l0,25Z" /></clipPath>
<clipPath id="c1_346"><path d="M425.5,199.5l0,-25l73,0l0,25Z" /></clipPath>
<clipPath id="c2_346"><path d="M499.5,199.5l0,-25l388,0l0,25Z" /></clipPath>
<clipPath id="c3_346"><path d="M47.5,1090.5l0,-890l32,0l0,890Z" /></clipPath>
<clipPath id="c4_346"><path d="M80.5,248.5l0,-48l344,0l0,48Z" /></clipPath>
<clipPath id="c5_346"><path d="M425.5,248.5l0,-48l73,0l0,48Z" /></clipPath>
<clipPath id="c6_346"><path d="M499.5,248.5l0,-48l388,0l0,48Z" /></clipPath>
<clipPath id="c7_346"><path d="M80.5,275.5l0,-25l344,0l0,25Z" /></clipPath>
<clipPath id="c8_346"><path d="M425.5,275.5l0,-25l73,0l0,25Z" /></clipPath>
<clipPath id="c9_346"><path d="M499.5,275.5l0,-25l388,0l0,25Z" /></clipPath>
<clipPath id="c10_346"><path d="M80.5,302.5l0,-25l344,0l0,25Z" /></clipPath>
<clipPath id="c11_346"><path d="M425.5,302.5l0,-25l73,0l0,25Z" /></clipPath>
<clipPath id="c12_346"><path d="M499.5,302.5l0,-25l388,0l0,25Z" /></clipPath>
<clipPath id="c13_346"><path d="M80.5,351.5l0,-47l344,0l0,47Z" /></clipPath>
<clipPath id="c14_346"><path d="M425.5,351.5l0,-47l73,0l0,47Z" /></clipPath>
<clipPath id="c15_346"><path d="M499.5,351.5l0,-47l388,0l0,47Z" /></clipPath>
<clipPath id="c16_346"><path d="M81.5,1090.5l0,-737l32,0l0,737Z" /></clipPath>
<clipPath id="c17_346"><path d="M114.5,455.5l0,-102l78,0l0,102Z" /></clipPath>
<clipPath id="c18_346"><path d="M193.5,377.5l0,-24l231,0l0,24Z" /></clipPath>
<clipPath id="c19_346"><path d="M425.5,377.5l0,-24l73,0l0,24Z" /></clipPath>
<clipPath id="c20_346"><path d="M499.5,377.5l0,-24l388,0l0,24Z" /></clipPath>
<clipPath id="c21_346"><path d="M193.5,403.5l0,-24l231,0l0,24Z" /></clipPath>
<clipPath id="c22_346"><path d="M425.5,403.5l0,-24l73,0l0,24Z" /></clipPath>
<clipPath id="c23_346"><path d="M193.5,455.5l0,-24l231,0l0,24Z" /></clipPath>
<clipPath id="c24_346"><path d="M425.5,455.5l0,-24l73,0l0,24Z" /></clipPath>
<clipPath id="c25_346"><path d="M114.5,1090.5l0,-634l39,0l0,634Z" /></clipPath>
<clipPath id="c26_346"><path d="M154.5,1090.5l0,-634l39,0l0,634Z" /></clipPath>
<clipPath id="c27_346"><path d="M193.5,507.5l0,-25l231,0l0,25Z" /></clipPath>
<clipPath id="c28_346"><path d="M425.5,507.5l0,-25l73,0l0,25Z" /></clipPath>
<clipPath id="c29_346"><path d="M499.5,507.5l0,-25l388,0l0,25Z" /></clipPath>
<clipPath id="c30_346"><path d="M193.5,582.5l0,-25l231,0l0,25Z" /></clipPath>
<clipPath id="c31_346"><path d="M425.5,582.5l0,-25l73,0l0,25Z" /></clipPath>
<clipPath id="c32_346"><path d="M499.5,582.5l0,-25l388,0l0,25Z" /></clipPath>
<clipPath id="c33_346"><path d="M499.5,968.5l0,-167l388,0l0,167Z" /></clipPath>
<clipPath id="c34_346"><path d="M499.5,1090.5l0,-95l388,0l0,95Z" /></clipPath>
<style type="text/css"><![CDATA[
.g2_346{
fill: none;
stroke: #7E7E7E;
stroke-width: 1;
stroke-linecap: butt;
stroke-linejoin: miter;
}
.g4_346{
fill: none;
stroke: #000000;
stroke-width: 1;
stroke-linecap: butt;
stroke-linejoin: miter;
}
.g3_346{
fill: #F1F1F1;
}
.g1_346{
fill: #DBE5F1;
}
]]></style>
</defs>
<path fill-rule="evenodd" d="M47,199l377,0l0,-25L47,174l0,25Z" class="g1_346" />
<g clip-path="url(#c0_346)">
<path fill-rule="evenodd" d="M55,198l361,0l0,-24L55,174l0,24Z" class="g1_346" />
</g>
<path fill-rule="evenodd" d="M425,199l73,0l0,-25l-73,0l0,25Z" class="g1_346" />
<g clip-path="url(#c1_346)">
<path fill-rule="evenodd" d="M433,198l57,0l0,-24l-57,0l0,24Z" class="g1_346" />
</g>
<path fill-rule="evenodd" d="M499,199l388,0l0,-25l-388,0l0,25Z" class="g1_346" />
<g clip-path="url(#c2_346)">
<path fill-rule="evenodd" d="M507,198l373,0l0,-24l-373,0l0,24Z" class="g1_346" />
</g>
<path d="M46.5,174.5l0,-1" class="g2_346" />
<path d="M46.5,174.5l0,-1" class="g2_346" />
<path d="M47.5,174.5l377,0" class="g2_346" />
<path d="M424.5,174.5l0,-1" class="g2_346" />
<path d="M425.5,174.5l73,0" class="g2_346" />
<path d="M498.5,174.5l0,-1" class="g2_346" />
<path d="M499.5,174.5l388,0" class="g2_346" />
<path d="M887.5,174.5l0,-1" class="g2_346" />
<path d="M887.5,174.5l0,-1" class="g2_346" />
<path d="M46.5,199.5l0,-25" class="g2_346" />
<path d="M424.5,199.5l0,-25" class="g2_346" />
<path d="M498.5,199.5l0,-25" class="g2_346" />
<path d="M887.5,199.5l0,-25" class="g2_346" />
<path fill-rule="evenodd" d="M47,1090l32,0L79,200l-32,0l0,890Z" class="g3_346" />
<g clip-path="url(#c3_346)">
<path fill-rule="evenodd" d="M55,1090l23,0L78,200l-23,0l0,890Z" class="g3_346" />
</g>
<path fill-rule="evenodd" d="M80,248l344,0l0,-48L80,200l0,48Z" class="g3_346" />
<g clip-path="url(#c4_346)">
<path fill-rule="evenodd" d="M88,224l328,0l0,-24L88,200l0,24Z" class="g3_346" />
</g>
<path fill-rule="evenodd" d="M425,248l73,0l0,-48l-73,0l0,48Z" class="g3_346" />
<g clip-path="url(#c5_346)">
<path fill-rule="evenodd" d="M433,224l57,0l0,-24l-57,0l0,24Z" class="g3_346" />
</g>
<path fill-rule="evenodd" d="M499,248l388,0l0,-48l-388,0l0,48Z" class="g3_346" />
<g clip-path="url(#c6_346)">
<path fill-rule="evenodd" d="M507,224l373,0l0,-24l-373,0l0,24Z" class="g3_346" />
</g>
<path fill-rule="evenodd" d="M507,248l373,0l0,-24l-373,0l0,24Z" class="g3_346" />
<path d="M46.5,200.5l0,-1" class="g2_346" />
<path d="M46.5,200.5l0,-1" class="g2_346" />
<path d="M47.5,200.5l0,-1" class="g2_346" />
<path d="M48.5,200.5l31,0" class="g2_346" />
<path d="M79.5,200.5l0,-1" class="g2_346" />
<path d="M81.5,200.5l343,0" class="g2_346" />
<path d="M424.5,200.5l0,-1" class="g2_346" />
<path d="M425.5,200.5l73,0" class="g2_346" />
<path d="M498.5,200.5l0,-1" class="g2_346" />
<path d="M499.5,200.5l388,0" class="g2_346" />
<path d="M887.5,200.5l0,-1" class="g2_346" />
<path d="M46.5,248.5l0,-48" class="g4_346" />
<path d="M79.5,248.5l0,-48" class="g2_346" />
<path d="M424.5,248.5l0,-48" class="g2_346" />
<path d="M498.5,248.5l0,-48" class="g2_346" />
<path d="M887.5,248.5l0,-48" class="g2_346" />
<path fill-rule="evenodd" d="M80,275l344,0l0,-25L80,250l0,25Z" class="g3_346" />
<g clip-path="url(#c7_346)">
<path fill-rule="evenodd" d="M88,273l328,0l0,-23L88,250l0,23Z" class="g3_346" />
</g>
<path fill-rule="evenodd" d="M425,275l73,0l0,-25l-73,0l0,25Z" class="g3_346" />
<g clip-path="url(#c8_346)">
<path fill-rule="evenodd" d="M433,273l57,0l0,-23l-57,0l0,23Z" class="g3_346" />
</g>
<path fill-rule="evenodd" d="M499,275l388,0l0,-25l-388,0l0,25Z" class="g3_346" />
<g clip-path="url(#c9_346)">
<path fill-rule="evenodd" d="M507,273l373,0l0,-23l-373,0l0,23Z" class="g3_346" />
</g>
<path d="M46.5,249.5l0,-1" class="g4_346" />
<path d="M79.5,249.5l0,-1" class="g2_346" />
<path d="M81.5,249.5l343,0" class="g2_346" />
<path d="M424.5,249.5l0,-1" class="g2_346" />
<path d="M425.5,249.5l73,0" class="g2_346" />
<path d="M498.5,249.5l0,-1" class="g2_346" />
<path d="M499.5,249.5l388,0" class="g2_346" />
<path d="M887.5,249.5l0,-1" class="g2_346" />
<path d="M46.5,275.5l0,-26" class="g4_346" />
<path d="M79.5,275.5l0,-26" class="g2_346" />
<path d="M424.5,275.5l0,-26" class="g2_346" />
<path d="M498.5,275.5l0,-26" class="g2_346" />
<path d="M887.5,275.5l0,-26" class="g2_346" />
<path fill-rule="evenodd" d="M80,302l344,0l0,-25L80,277l0,25Z" class="g3_346" />
<g clip-path="url(#c10_346)">
<path fill-rule="evenodd" d="M88,300l328,0l0,-23L88,277l0,23Z" class="g3_346" />
</g>
<path fill-rule="evenodd" d="M425,302l73,0l0,-25l-73,0l0,25Z" class="g3_346" />
<g clip-path="url(#c11_346)">
<path fill-rule="evenodd" d="M433,300l57,0l0,-23l-57,0l0,23Z" class="g3_346" />
</g>
<path fill-rule="evenodd" d="M499,302l388,0l0,-25l-388,0l0,25Z" class="g3_346" />
<g clip-path="url(#c12_346)">
<path fill-rule="evenodd" d="M507,300l373,0l0,-23l-373,0l0,23Z" class="g3_346" />
</g>
<path d="M46.5,277.5l0,-2" class="g4_346" />
<path d="M79.5,277.5l0,-2" class="g2_346" />
<path d="M81.5,277.5l343,0" class="g2_346" />
<path d="M424.5,277.5l0,-2" class="g2_346" />
<path d="M425.5,277.5l73,0" class="g2_346" />
<path d="M498.5,277.5l0,-2" class="g2_346" />
<path d="M499.5,277.5l388,0" class="g2_346" />
<path d="M887.5,277.5l0,-2" class="g2_346" />
<path d="M46.5,302.5l0,-25" class="g4_346" />
<path d="M79.5,302.5l0,-25" class="g2_346" />
<path d="M424.5,302.5l0,-25" class="g2_346" />
<path d="M498.5,302.5l0,-25" class="g2_346" />
<path d="M887.5,302.5l0,-25" class="g2_346" />
<path fill-rule="evenodd" d="M80,351l344,0l0,-47L80,304l0,47Z" class="g3_346" />
<g clip-path="url(#c13_346)">
<path fill-rule="evenodd" d="M88,328l328,0l0,-24L88,304l0,24Z" class="g3_346" />
</g>
<path fill-rule="evenodd" d="M425,351l73,0l0,-47l-73,0l0,47Z" class="g3_346" />
<g clip-path="url(#c14_346)">
<path fill-rule="evenodd" d="M433,328l57,0l0,-24l-57,0l0,24Z" class="g3_346" />
</g>
<path fill-rule="evenodd" d="M499,351l388,0l0,-47l-388,0l0,47Z" class="g3_346" />
<g clip-path="url(#c15_346)">
<path fill-rule="evenodd" d="M507,328l373,0l0,-24l-373,0l0,24Z" class="g3_346" />
</g>
<path fill-rule="evenodd" d="M507,351l373,0l0,-23l-373,0l0,23Z" class="g3_346" />
<path d="M46.5,303.5l0,-1" class="g4_346" />
<path d="M79.5,303.5l0,-1" class="g2_346" />
<path d="M81.5,303.5l343,0" class="g2_346" />
<path d="M424.5,303.5l0,-1" class="g2_346" />
<path d="M425.5,303.5l73,0" class="g2_346" />
<path d="M498.5,303.5l0,-1" class="g2_346" />
<path d="M499.5,303.5l388,0" class="g2_346" />
<path d="M887.5,303.5l0,-1" class="g2_346" />
<path d="M46.5,351.5l0,-48" class="g4_346" />
<path d="M79.5,351.5l0,-48" class="g2_346" />
<path d="M424.5,351.5l0,-48" class="g2_346" />
<path d="M498.5,351.5l0,-48" class="g2_346" />
<path d="M887.5,351.5l0,-48" class="g2_346" />
<path fill-rule="evenodd" d="M81,1090l32,0l0,-737l-32,0l0,737Z" class="g3_346" />
<g clip-path="url(#c16_346)">
<path fill-rule="evenodd" d="M88,1090l24,0l0,-737l-24,0l0,737Z" class="g3_346" />
</g>
<path fill-rule="evenodd" d="M114,455l78,0l0,-102l-78,0l0,102Z" class="g3_346" />
<g clip-path="url(#c17_346)">
<path fill-rule="evenodd" d="M122,455l24,0l0,-102l-24,0l0,102Z" class="g3_346" />
</g>
<path fill-rule="evenodd" d="M193,377l231,0l0,-24l-231,0l0,24Z" class="g3_346" />
<g clip-path="url(#c18_346)">
<path fill-rule="evenodd" d="M201,377l215,0l0,-24l-215,0l0,24Z" class="g3_346" />
</g>
<path fill-rule="evenodd" d="M425,377l73,0l0,-24l-73,0l0,24Z" class="g3_346" />
<g clip-path="url(#c19_346)">
<path fill-rule="evenodd" d="M433,377l57,0l0,-24l-57,0l0,24Z" class="g3_346" />
</g>
<path fill-rule="evenodd" d="M499,377l388,0l0,-24l-388,0l0,24Z" class="g3_346" />
<g clip-path="url(#c20_346)">
<path fill-rule="evenodd" d="M507,377l373,0l0,-24l-373,0l0,24Z" class="g3_346" />
</g>
<path d="M46.5,353.5l0,-2" class="g4_346" />
<path d="M79.5,353.5l0,-2" class="g2_346" />
<path d="M81.5,353.5l32,0" class="g2_346" />
<path d="M113.5,353.5l0,-2" class="g2_346" />
<path d="M115.5,353.5l78,0" class="g2_346" />
<path d="M193.5,353.5l0,-2" class="g2_346" />
<path d="M194.5,353.5l230,0" class="g2_346" />
<path d="M424.5,353.5l0,-2" class="g2_346" />
<path d="M425.5,353.5l73,0" class="g2_346" />
<path d="M498.5,353.5l0,-2" class="g2_346" />
<path d="M499.5,353.5l388,0" class="g2_346" />
<path d="M887.5,353.5l0,-2" class="g2_346" />
<path d="M46.5,377.5l0,-24" class="g4_346" />
<path d="M79.5,377.5l0,-24" class="g2_346" />
<path d="M113.5,377.5l0,-24" class="g4_346" />
<path d="M193.5,377.5l0,-24" class="g4_346" />
<path d="M424.5,377.5l0,-24" class="g2_346" />
<path d="M498.5,377.5l0,-24" class="g2_346" />
<path d="M887.5,377.5l0,-24" class="g2_346" />
<path fill-rule="evenodd" d="M193,403l231,0l0,-24l-231,0l0,24Z" class="g3_346" />
<g clip-path="url(#c21_346)">
<path fill-rule="evenodd" d="M201,403l215,0l0,-24l-215,0l0,24Z" class="g3_346" />
</g>
<path fill-rule="evenodd" d="M425,403l73,0l0,-24l-73,0l0,24Z" class="g3_346" />
<g clip-path="url(#c22_346)">
<path fill-rule="evenodd" d="M433,403l57,0l0,-24l-57,0l0,24Z" class="g3_346" />
</g>
<path fill-rule="evenodd" d="M499,403l388,0l0,-24l-388,0l0,24Z" class="g3_346" />
<path fill-rule="evenodd" d="M507,403l373,0l0,-24l-373,0l0,24Z" class="g3_346" />
<path d="M46.5,379.5l0,-2" class="g4_346" />
<path d="M79.5,379.5l0,-2" class="g2_346" />
<path d="M113.5,379.5l0,-2" class="g4_346" />
<path d="M193.5,379.5l0,-2" class="g4_346" />
<path d="M193.5,379.5l231,0" class="g2_346" />
<path d="M424.5,379.5l0,-2" class="g2_346" />
<path d="M425.5,379.5l73,0" class="g2_346" />
<path d="M498.5,379.5l0,-2" class="g2_346" />
<path d="M499.5,379.5l388,0" class="g2_346" />
<path d="M887.5,379.5l0,-2" class="g2_346" />
<path d="M46.5,403.5l0,-24" class="g4_346" />
<path d="M79.5,403.5l0,-24" class="g2_346" />
<path d="M113.5,403.5l0,-24" class="g4_346" />
<path d="M193.5,403.5l0,-24" class="g4_346" />
<path d="M424.5,403.5l0,-24" class="g2_346" />
<path d="M498.5,403.5l0,-24" class="g2_346" />
<path d="M887.5,403.5l0,-24" class="g2_346" />
<path fill-rule="evenodd" d="M193,429l231,0l0,-24l-231,0l0,24Z" class="g3_346" />
<path fill-rule="evenodd" d="M201,428l215,0l0,-23l-215,0l0,23Z" class="g3_346" />
<path fill-rule="evenodd" d="M425,429l73,0l0,-24l-73,0l0,24Z" class="g3_346" />
<path fill-rule="evenodd" d="M433,428l57,0l0,-23l-57,0l0,23Z" class="g3_346" />
<path fill-rule="evenodd" d="M499,429l388,0l0,-24l-388,0l0,24Z" class="g3_346" />
<path fill-rule="evenodd" d="M507,429l373,0l0,-24l-373,0l0,24Z" class="g3_346" />
<path d="M46.5,405.5l0,-2" class="g4_346" />
<path d="M79.5,405.5l0,-2" class="g2_346" />
<path d="M113.5,405.5l0,-2" class="g4_346" />
<path d="M193.5,405.5l0,-2" class="g4_346" />
<path d="M193.5,405.5l231,0" class="g2_346" />
<path d="M424.5,405.5l0,-2" class="g2_346" />
<path d="M425.5,405.5l73,0" class="g2_346" />
<path d="M498.5,405.5l0,-2" class="g2_346" />
<path d="M499.5,405.5l388,0" class="g2_346" />
<path d="M887.5,405.5l0,-2" class="g2_346" />
<path d="M46.5,429.5l0,-24" class="g4_346" />
<path d="M79.5,429.5l0,-24" class="g2_346" />
<path d="M113.5,429.5l0,-24" class="g4_346" />
<path d="M193.5,429.5l0,-24" class="g4_346" />
<path d="M424.5,429.5l0,-24" class="g2_346" />
<path d="M498.5,429.5l0,-24" class="g2_346" />
<path d="M887.5,429.5l0,-24" class="g2_346" />
<path fill-rule="evenodd" d="M193,455l231,0l0,-24l-231,0l0,24Z" class="g3_346" />
<g clip-path="url(#c23_346)">
<path fill-rule="evenodd" d="M201,454l215,0l0,-23l-215,0l0,23Z" class="g3_346" />
</g>
<path fill-rule="evenodd" d="M425,455l73,0l0,-24l-73,0l0,24Z" class="g3_346" />
<g clip-path="url(#c24_346)">
<path fill-rule="evenodd" d="M433,454l57,0l0,-23l-57,0l0,23Z" class="g3_346" />
</g>
<path fill-rule="evenodd" d="M499,455l388,0l0,-24l-388,0l0,24Z" class="g3_346" />
<path fill-rule="evenodd" d="M507,455l373,0l0,-24l-373,0l0,24Z" class="g3_346" />
<path d="M46.5,430.5l0,-1" class="g4_346" />
<path d="M79.5,430.5l0,-1" class="g2_346" />
<path d="M113.5,430.5l0,-1" class="g4_346" />
<path d="M193.5,430.5l0,-1" class="g4_346" />
<path d="M193.5,430.5l231,0" class="g2_346" />
<path d="M424.5,430.5l0,-1" class="g2_346" />
<path d="M425.5,430.5l73,0" class="g2_346" />
<path d="M498.5,430.5l0,-1" class="g2_346" />
<path d="M499.5,430.5l388,0" class="g2_346" />
<path d="M887.5,430.5l0,-1" class="g2_346" />
<path d="M46.5,455.5l0,-25" class="g4_346" />
<path d="M79.5,455.5l0,-25" class="g2_346" />
<path d="M113.5,455.5l0,-25" class="g4_346" />
<path d="M193.5,455.5l0,-25" class="g4_346" />
<path d="M424.5,455.5l0,-25" class="g2_346" />
<path d="M498.5,455.5l0,-25" class="g2_346" />
<path d="M887.5,455.5l0,-25" class="g2_346" />
<path fill-rule="evenodd" d="M114,1090l39,0l0,-634l-39,0l0,634Z" class="g3_346" />
<g clip-path="url(#c25_346)">
<path fill-rule="evenodd" d="M122,1090l24,0l0,-634l-24,0l0,634Z" class="g3_346" />
</g>
<path fill-rule="evenodd" d="M154,1090l39,0l0,-634l-39,0l0,634Z" class="g3_346" />
<g clip-path="url(#c26_346)">
<path fill-rule="evenodd" d="M161,1090l24,0l0,-634l-24,0l0,634Z" class="g3_346" />
</g>
<path fill-rule="evenodd" d="M193,481l231,0l0,-25l-231,0l0,25Z" class="g3_346" />
<path fill-rule="evenodd" d="M201,480l215,0l0,-24l-215,0l0,24Z" class="g3_346" />
<path fill-rule="evenodd" d="M425,481l73,0l0,-25l-73,0l0,25Z" class="g3_346" />
<path fill-rule="evenodd" d="M433,480l57,0l0,-24l-57,0l0,24Z" class="g3_346" />
<path fill-rule="evenodd" d="M499,481l388,0l0,-25l-388,0l0,25Z" class="g3_346" />
<path fill-rule="evenodd" d="M507,480l373,0l0,-24l-373,0l0,24Z" class="g3_346" />
<path d="M46.5,456.5l0,-1" class="g4_346" />
<path d="M79.5,456.5l0,-1" class="g2_346" />
<path d="M113.5,456.5l0,-1" class="g4_346" />
<path d="M114.5,456.5l39,0" class="g2_346" />
<path d="M153.5,456.5l0,-1" class="g2_346" />
<path d="M154.5,456.5l39,0" class="g2_346" />
<path d="M193.5,456.5l0,-1" class="g2_346" />
<path d="M194.5,456.5l230,0" class="g2_346" />
<path d="M424.5,456.5l0,-1" class="g2_346" />
<path d="M425.5,456.5l73,0" class="g2_346" />
<path d="M498.5,456.5l0,-1" class="g2_346" />
<path d="M499.5,456.5l388,0" class="g2_346" />
<path d="M887.5,456.5l0,-1" class="g2_346" />
<path d="M46.5,481.5l0,-25" class="g4_346" />
<path d="M79.5,481.5l0,-25" class="g2_346" />
<path d="M113.5,481.5l0,-25" class="g4_346" />
<path d="M153.5,481.5l0,-25" class="g4_346" />
<path d="M193.5,481.5l0,-25" class="g4_346" />
<path d="M424.5,481.5l0,-25" class="g2_346" />
<path d="M498.5,481.5l0,-25" class="g2_346" />
<path d="M887.5,481.5l0,-25" class="g2_346" />
<path fill-rule="evenodd" d="M193,507l231,0l0,-25l-231,0l0,25Z" class="g3_346" />
<g clip-path="url(#c27_346)">
<path fill-rule="evenodd" d="M201,506l215,0l0,-24l-215,0l0,24Z" class="g3_346" />
</g>
<path fill-rule="evenodd" d="M425,507l73,0l0,-25l-73,0l0,25Z" class="g3_346" />
<g clip-path="url(#c28_346)">
<path fill-rule="evenodd" d="M433,506l57,0l0,-24l-57,0l0,24Z" class="g3_346" />
</g>
<path fill-rule="evenodd" d="M499,507l388,0l0,-25l-388,0l0,25Z" class="g3_346" />
<g clip-path="url(#c29_346)">
<path fill-rule="evenodd" d="M507,506l373,0l0,-24l-373,0l0,24Z" class="g3_346" />
</g>
<path d="M46.5,482.5l0,-1" class="g4_346" />
<path d="M79.5,482.5l0,-1" class="g2_346" />
<path d="M113.5,482.5l0,-1" class="g4_346" />
<path d="M153.5,482.5l0,-1" class="g4_346" />
<path d="M193.5,482.5l0,-1" class="g4_346" />
<path d="M193.5,482.5l231,0" class="g2_346" />
<path d="M424.5,482.5l0,-1" class="g2_346" />
<path d="M425.5,482.5l73,0" class="g2_346" />
<path d="M498.5,482.5l0,-1" class="g2_346" />
<path d="M499.5,482.5l388,0" class="g2_346" />
<path d="M887.5,482.5l0,-1" class="g2_346" />
<path d="M46.5,507.5l0,-25" class="g4_346" />
<path d="M79.5,507.5l0,-25" class="g2_346" />
<path d="M113.5,507.5l0,-25" class="g4_346" />
<path d="M153.5,507.5l0,-25" class="g4_346" />
<path d="M193.5,507.5l0,-25" class="g4_346" />
<path d="M424.5,507.5l0,-25" class="g2_346" />
<path d="M498.5,507.5l0,-25" class="g2_346" />
<path d="M887.5,507.5l0,-25" class="g2_346" />
<path fill-rule="evenodd" d="M193,556l231,0l0,-48l-231,0l0,48Z" class="g3_346" />
<path fill-rule="evenodd" d="M201,532l215,0l0,-24l-215,0l0,24Z" class="g3_346" />
<path fill-rule="evenodd" d="M425,556l73,0l0,-48l-73,0l0,48Z" class="g3_346" />
<path fill-rule="evenodd" d="M433,532l57,0l0,-24l-57,0l0,24Z" class="g3_346" />
<path fill-rule="evenodd" d="M499,556l388,0l0,-48l-388,0l0,48Z" class="g3_346" />
<path fill-rule="evenodd" d="M507,532l373,0l0,-24l-373,0l0,24Z" class="g3_346" />
<path fill-rule="evenodd" d="M507,556l373,0l0,-24l-373,0l0,24Z" class="g3_346" />
<path d="M46.5,508.5l0,-1" class="g4_346" />
<path d="M79.5,508.5l0,-1" class="g2_346" />
<path d="M113.5,508.5l0,-1" class="g4_346" />
<path d="M153.5,508.5l0,-1" class="g4_346" />
<path d="M193.5,508.5l0,-1" class="g4_346" />
<path d="M193.5,508.5l231,0" class="g2_346" />
<path d="M424.5,508.5l0,-1" class="g2_346" />
<path d="M425.5,508.5l73,0" class="g2_346" />
<path d="M498.5,508.5l0,-1" class="g2_346" />
<path d="M499.5,508.5l388,0" class="g2_346" />
<path d="M887.5,508.5l0,-1" class="g2_346" />
<path d="M46.5,556.5l0,-48" class="g4_346" />
<path d="M79.5,556.5l0,-48" class="g2_346" />
<path d="M113.5,556.5l0,-48" class="g4_346" />
<path d="M153.5,556.5l0,-48" class="g4_346" />
<path d="M193.5,556.5l0,-48" class="g4_346" />
<path d="M424.5,556.5l0,-48" class="g2_346" />
<path d="M498.5,556.5l0,-48" class="g2_346" />
<path d="M887.5,556.5l0,-48" class="g2_346" />
<path fill-rule="evenodd" d="M193,582l231,0l0,-25l-231,0l0,25Z" class="g3_346" />
<g clip-path="url(#c30_346)">
<path fill-rule="evenodd" d="M201,581l215,0l0,-24l-215,0l0,24Z" class="g3_346" />
</g>
<path fill-rule="evenodd" d="M425,582l73,0l0,-25l-73,0l0,25Z" class="g3_346" />
<g clip-path="url(#c31_346)">
<path fill-rule="evenodd" d="M433,581l57,0l0,-24l-57,0l0,24Z" class="g3_346" />
</g>
<path fill-rule="evenodd" d="M499,582l388,0l0,-25l-388,0l0,25Z" class="g3_346" />
<g clip-path="url(#c32_346)">
<path fill-rule="evenodd" d="M507,581l373,0l0,-24l-373,0l0,24Z" class="g3_346" />
</g>
<path d="M46.5,557.5l0,-1" class="g4_346" />
<path d="M79.5,557.5l0,-1" class="g2_346" />
<path d="M113.5,557.5l0,-1" class="g4_346" />
<path d="M153.5,557.5l0,-1" class="g4_346" />
<path d="M193.5,557.5l0,-1" class="g4_346" />
<path d="M193.5,557.5l231,0" class="g2_346" />
<path d="M424.5,557.5l0,-1" class="g2_346" />
<path d="M425.5,557.5l73,0" class="g2_346" />
<path d="M498.5,557.5l0,-1" class="g2_346" />
<path d="M499.5,557.5l388,0" class="g2_346" />
<path d="M887.5,557.5l0,-1" class="g2_346" />
<path d="M46.5,582.5l0,-25" class="g4_346" />
<path d="M79.5,582.5l0,-25" class="g2_346" />
<path d="M113.5,582.5l0,-25" class="g4_346" />
<path d="M153.5,582.5l0,-25" class="g4_346" />
<path d="M193.5,582.5l0,-25" class="g4_346" />
<path d="M424.5,582.5l0,-25" class="g2_346" />
<path d="M498.5,582.5l0,-25" class="g2_346" />
<path d="M887.5,582.5l0,-25" class="g2_346" />
<path fill-rule="evenodd" d="M193,631l231,0l0,-48l-231,0l0,48Z" class="g3_346" />
<path fill-rule="evenodd" d="M201,607l215,0l0,-24l-215,0l0,24Z" class="g3_346" />
<path fill-rule="evenodd" d="M425,631l73,0l0,-48l-73,0l0,48Z" class="g3_346" />
<path fill-rule="evenodd" d="M433,607l57,0l0,-24l-57,0l0,24Z" class="g3_346" />
<path fill-rule="evenodd" d="M499,631l388,0l0,-48l-388,0l0,48Z" class="g3_346" />
<path fill-rule="evenodd" d="M507,607l373,0l0,-24l-373,0l0,24Z" class="g3_346" />
<path fill-rule="evenodd" d="M507,631l373,0l0,-24l-373,0l0,24Z" class="g3_346" />
<path d="M46.5,583.5l0,-1" class="g4_346" />
<path d="M79.5,583.5l0,-1" class="g2_346" />
<path d="M113.5,583.5l0,-1" class="g4_346" />
<path d="M153.5,583.5l0,-1" class="g4_346" />
<path d="M193.5,583.5l0,-1" class="g4_346" />
<path d="M193.5,583.5l231,0" class="g2_346" />
<path d="M424.5,583.5l0,-1" class="g2_346" />
<path d="M425.5,583.5l73,0" class="g2_346" />
<path d="M498.5,583.5l0,-1" class="g2_346" />
<path d="M499.5,583.5l388,0" class="g2_346" />
<path d="M887.5,583.5l0,-1" class="g2_346" />
<path d="M46.5,631.5l0,-48" class="g4_346" />
<path d="M79.5,631.5l0,-48" class="g2_346" />
<path d="M113.5,631.5l0,-48" class="g4_346" />
<path d="M153.5,631.5l0,-48" class="g4_346" />
<path d="M193.5,631.5l0,-48" class="g4_346" />
<path d="M424.5,631.5l0,-48" class="g2_346" />
<path d="M498.5,631.5l0,-48" class="g2_346" />
<path d="M887.5,631.5l0,-48" class="g2_346" />
<path fill-rule="evenodd" d="M193,799l231,0l0,-167l-231,0l0,167Z" class="g3_346" />
<path fill-rule="evenodd" d="M201,656l215,0l0,-24l-215,0l0,24Z" class="g3_346" />
<path fill-rule="evenodd" d="M425,799l73,0l0,-167l-73,0l0,167Z" class="g3_346" />
<path fill-rule="evenodd" d="M433,656l57,0l0,-24l-57,0l0,24Z" class="g3_346" />
<path fill-rule="evenodd" d="M499,799l388,0l0,-167l-388,0l0,167Z" class="g3_346" />
<path fill-rule="evenodd" d="M507,656l373,0l0,-24l-373,0l0,24Z" class="g3_346" />
<path fill-rule="evenodd" d="M507,680l373,0l0,-24l-373,0l0,24Z" class="g3_346" />
<path fill-rule="evenodd" d="M507,704l373,0l0,-24l-373,0l0,24Z" class="g3_346" />
<path fill-rule="evenodd" d="M507,728l373,0l0,-24l-373,0l0,24Z" class="g3_346" />
<path fill-rule="evenodd" d="M507,752l373,0l0,-24l-373,0l0,24Z" class="g3_346" />
<path fill-rule="evenodd" d="M507,775l373,0l0,-23l-373,0l0,23Z" class="g3_346" />
<path fill-rule="evenodd" d="M507,799l373,0l0,-24l-373,0l0,24Z" class="g3_346" />
<path d="M46.5,632.5l0,-1" class="g4_346" />
<path d="M79.5,632.5l0,-1" class="g2_346" />
<path d="M113.5,632.5l0,-1" class="g4_346" />
<path d="M153.5,632.5l0,-1" class="g4_346" />
<path d="M193.5,632.5l0,-1" class="g4_346" />
<path d="M193.5,632.5l231,0" class="g2_346" />
<path d="M424.5,632.5l0,-1" class="g2_346" />
<path d="M425.5,632.5l73,0" class="g2_346" />
<path d="M498.5,632.5l0,-1" class="g2_346" />
<path d="M499.5,632.5l388,0" class="g2_346" />
<path d="M887.5,632.5l0,-1" class="g2_346" />
<path d="M46.5,799.5l0,-167" class="g4_346" />
<path d="M79.5,799.5l0,-167" class="g2_346" />
<path d="M113.5,799.5l0,-167" class="g4_346" />
<path d="M153.5,799.5l0,-167" class="g4_346" />
<path d="M193.5,799.5l0,-167" class="g4_346" />
<path d="M424.5,799.5l0,-167" class="g2_346" />
<path d="M498.5,799.5l0,-167" class="g2_346" />
<path d="M887.5,799.5l0,-167" class="g2_346" />
<path fill-rule="evenodd" d="M193,968l231,0l0,-167l-231,0l0,167Z" class="g3_346" />
<path fill-rule="evenodd" d="M201,825l215,0l0,-24l-215,0l0,24Z" class="g3_346" />
<path fill-rule="evenodd" d="M425,968l73,0l0,-167l-73,0l0,167Z" class="g3_346" />
<path fill-rule="evenodd" d="M433,825l57,0l0,-24l-57,0l0,24Z" class="g3_346" />
<path fill-rule="evenodd" d="M499,968l388,0l0,-167l-388,0l0,167Z" class="g3_346" />
<path fill-rule="evenodd" d="M507,825l373,0l0,-24l-373,0l0,24Z" class="g3_346" />
<path fill-rule="evenodd" d="M507,849l373,0l0,-24l-373,0l0,24Z" class="g3_346" />
<path fill-rule="evenodd" d="M507,872l373,0l0,-23l-373,0l0,23Z" class="g3_346" />
<path fill-rule="evenodd" d="M507,896l373,0l0,-24l-373,0l0,24Z" class="g3_346" />
<path fill-rule="evenodd" d="M507,920l373,0l0,-24l-373,0l0,24Z" class="g3_346" />
<path fill-rule="evenodd" d="M507,944l373,0l0,-24l-373,0l0,24Z" class="g3_346" />
<g clip-path="url(#c33_346)">
<path fill-rule="evenodd" d="M507,968l373,0l0,-24l-373,0l0,24Z" class="g3_346" />
</g>
<path d="M46.5,801.5l0,-2" class="g4_346" />
<path d="M79.5,801.5l0,-2" class="g2_346" />
<path d="M113.5,801.5l0,-2" class="g4_346" />
<path d="M153.5,801.5l0,-2" class="g4_346" />
<path d="M193.5,801.5l0,-2" class="g4_346" />
<path d="M193.5,801.5l231,0" class="g2_346" />
<path d="M424.5,801.5l0,-2" class="g2_346" />
<path d="M425.5,801.5l73,0" class="g2_346" />
<path d="M498.5,801.5l0,-2" class="g2_346" />
<path d="M499.5,801.5l388,0" class="g2_346" />
<path d="M887.5,801.5l0,-2" class="g2_346" />
<path d="M46.5,968.5l0,-167" class="g4_346" />
<path d="M79.5,968.5l0,-167" class="g2_346" />
<path d="M113.5,968.5l0,-167" class="g4_346" />
<path d="M153.5,968.5l0,-167" class="g4_346" />
<path d="M193.5,968.5l0,-167" class="g4_346" />
<path d="M424.5,968.5l0,-167" class="g2_346" />
<path d="M498.5,968.5l0,-167" class="g2_346" />
<path d="M887.5,968.5l0,-167" class="g2_346" />
<path fill-rule="evenodd" d="M193,994l231,0l0,-25l-231,0l0,25Z" class="g3_346" />
<path fill-rule="evenodd" d="M201,993l215,0l0,-24l-215,0l0,24Z" class="g3_346" />
<path fill-rule="evenodd" d="M425,994l73,0l0,-25l-73,0l0,25Z" class="g3_346" />
<path fill-rule="evenodd" d="M433,993l57,0l0,-24l-57,0l0,24Z" class="g3_346" />
<path fill-rule="evenodd" d="M499,994l388,0l0,-25l-388,0l0,25Z" class="g3_346" />
<path fill-rule="evenodd" d="M507,993l373,0l0,-24l-373,0l0,24Z" class="g3_346" />
<path d="M46.5,969.5l0,-1" class="g4_346" />
<path d="M79.5,969.5l0,-1" class="g2_346" />
<path d="M113.5,969.5l0,-1" class="g4_346" />
<path d="M153.5,969.5l0,-1" class="g4_346" />
<path d="M193.5,969.5l0,-1" class="g4_346" />
<path d="M193.5,969.5l231,0" class="g2_346" />
<path d="M424.5,969.5l0,-1" class="g2_346" />
<path d="M425.5,969.5l73,0" class="g2_346" />
<path d="M498.5,969.5l0,-1" class="g2_346" />
<path d="M499.5,969.5l388,0" class="g2_346" />
<path d="M887.5,969.5l0,-1" class="g2_346" />
<path d="M46.5,994.5l0,-25" class="g4_346" />
<path d="M79.5,994.5l0,-25" class="g2_346" />
<path d="M113.5,994.5l0,-25" class="g4_346" />
<path d="M153.5,994.5l0,-25" class="g4_346" />
<path d="M193.5,994.5l0,-25" class="g4_346" />
<path d="M424.5,994.5l0,-25" class="g2_346" />
<path d="M498.5,994.5l0,-25" class="g2_346" />
<path d="M887.5,994.5l0,-25" class="g2_346" />
<path fill-rule="evenodd" d="M193,1090l231,0l0,-95l-231,0l0,95Z" class="g3_346" />
<path fill-rule="evenodd" d="M201,1019l215,0l0,-24l-215,0l0,24Z" class="g3_346" />
<path fill-rule="evenodd" d="M425,1090l73,0l0,-95l-73,0l0,95Z" class="g3_346" />
<path fill-rule="evenodd" d="M433,1019l57,0l0,-24l-57,0l0,24Z" class="g3_346" />
<path fill-rule="evenodd" d="M499,1090l388,0l0,-95l-388,0l0,95Z" class="g3_346" />
<path fill-rule="evenodd" d="M507,1019l373,0l0,-24l-373,0l0,24Z" class="g3_346" />
<path fill-rule="evenodd" d="M507,1043l373,0l0,-24l-373,0l0,24Z" class="g3_346" />
<path fill-rule="evenodd" d="M507,1067l373,0l0,-24l-373,0l0,24Z" class="g3_346" />
<g clip-path="url(#c34_346)">
<path fill-rule="evenodd" d="M507,1090l373,0l0,-23l-373,0l0,23Z" class="g3_346" />
</g>
<path d="M46.5,995.5l0,-1" class="g4_346" />
<path d="M79.5,995.5l0,-1" class="g2_346" />
<path d="M113.5,995.5l0,-1" class="g4_346" />
<path d="M153.5,995.5l0,-1" class="g4_346" />
<path d="M193.5,995.5l0,-1" class="g4_346" />
<path d="M193.5,995.5l231,0" class="g2_346" />
<path d="M424.5,995.5l0,-1" class="g2_346" />
<path d="M425.5,995.5l73,0" class="g2_346" />
<path d="M498.5,995.5l0,-1" class="g2_346" />
<path d="M499.5,995.5l388,0" class="g2_346" />
<path d="M887.5,995.5l0,-1" class="g2_346" />
<path d="M46.5,1091.5l0,-96" class="g4_346" />
<path d="M46.5,1092.5l33,0" class="g2_346" />
<path d="M79.5,1091.5l0,-96" class="g2_346" />
<path d="M79.5,1092.5l0,-1" class="g2_346" />
<path d="M81.5,1092.5l32,0" class="g2_346" />
<path d="M113.5,1091.5l0,-96" class="g4_346" />
<path d="M113.5,1092.5l0,-1" class="g2_346" />
<path d="M115.5,1092.5l38,0" class="g2_346" />
<path d="M153.5,1091.5l0,-96" class="g4_346" />
<path d="M153.5,1092.5l0,-1" class="g2_346" />
<path d="M154.5,1092.5l39,0" class="g2_346" />
<path d="M193.5,1091.5l0,-96" class="g4_346" />
<path d="M193.5,1092.5l0,-1" class="g2_346" />
<path d="M194.5,1092.5l230,0" class="g2_346" />
<path d="M424.5,1091.5l0,-96" class="g2_346" />
<path d="M424.5,1092.5l0,-1" class="g2_346" />
<path d="M425.5,1092.5l73,0" class="g2_346" />
<path d="M498.5,1091.5l0,-96" class="g2_346" />
<path d="M498.5,1092.5l0,-1" class="g2_346" />
<path d="M499.5,1092.5l388,0" class="g2_346" />
<path d="M887.5,1091.5l0,-96" class="g2_346" />
<path d="M887.5,1092.5l0,-1" class="g2_346" />
<path d="M887.5,1092.5l0,-1" class="g2_346" />
</svg>