<?xml version="1.0" encoding="UTF-8" standalone="no"?>
<!DOCTYPE svg PUBLIC "-//W3C//DTD SVG 1.1//EN"
"http://www.w3.org/Graphics/SVG/1.1/DTD/svg11.dtd">
<svg version="1.1" xmlns="http://www.w3.org/2000/svg" xmlns:xlink="http://www.w3.org/1999/xlink">
<defs>
<clipPath id="c0_377"><path d="M47.5,302.5l0,-96l840,0l0,96Z" /></clipPath>
<clipPath id="c1_377"><path d="M47.5,679.5l0,-23l178,0l0,23Z" /></clipPath>
<clipPath id="c2_377"><path d="M226.5,679.5l0,-23l163,0l0,23Z" /></clipPath>
<clipPath id="c3_377"><path d="M390.5,679.5l0,-23l497,0l0,23Z" /></clipPath>
<clipPath id="c4_377"><path d="M47.5,705.5l0,-24l178,0l0,24Z" /></clipPath>
<clipPath id="c5_377"><path d="M226.5,705.5l0,-24l163,0l0,24Z" /></clipPath>
<clipPath id="c6_377"><path d="M390.5,705.5l0,-24l497,0l0,24Z" /></clipPath>
<clipPath id="c7_377"><path d="M47.5,802.5l0,-96l178,0l0,96Z" /></clipPath>
<clipPath id="c8_377"><path d="M226.5,802.5l0,-96l163,0l0,96Z" /></clipPath>
<clipPath id="c9_377"><path d="M390.5,802.5l0,-96l497,0l0,96Z" /></clipPath>
<clipPath id="c10_377"><path d="M47.5,876.5l0,-24l177,0l0,24Z" /></clipPath>
<clipPath id="c11_377"><path d="M226.5,876.5l0,-24l162,0l0,24Z" /></clipPath>
<clipPath id="c12_377"><path d="M390.5,876.5l0,-24l163,0l0,24Z" /></clipPath>
<clipPath id="c13_377"><path d="M554.5,876.5l0,-24l163,0l0,24Z" /></clipPath>
<clipPath id="c14_377"><path d="M719.5,876.5l0,-24l168,0l0,24Z" /></clipPath>
<clipPath id="c15_377"><path d="M47.5,901.5l0,-23l177,0l0,23Z" /></clipPath>
<clipPath id="c16_377"><path d="M226.5,901.5l0,-23l162,0l0,23Z" /></clipPath>
<clipPath id="c17_377"><path d="M390.5,901.5l0,-23l163,0l0,23Z" /></clipPath>
<clipPath id="c18_377"><path d="M554.5,901.5l0,-23l163,0l0,23Z" /></clipPath>
<clipPath id="c19_377"><path d="M719.5,901.5l0,-23l168,0l0,23Z" /></clipPath>
<clipPath id="c20_377"><path d="M47.5,1088.5l0,-73l39,0l0,73Z" /></clipPath>
<clipPath id="c21_377"><path d="M88.5,1039.5l0,-24l191,0l0,24Z" /></clipPath>
<clipPath id="c22_377"><path d="M280.5,1039.5l0,-24l79,0l0,24Z" /></clipPath>
<clipPath id="c23_377"><path d="M361.5,1039.5l0,-24l60,0l0,24Z" /></clipPath>
<clipPath id="c24_377"><path d="M422.5,1039.5l0,-24l465,0l0,24Z" /></clipPath>
<clipPath id="c25_377"><path d="M422.5,1088.5l0,-47l465,0l0,47Z" /></clipPath>
<style type="text/css"><![CDATA[
.g2_377{
fill: none;
stroke: #7E7E7E;
stroke-width: 1;
stroke-linecap: butt;
stroke-linejoin: miter;
}
.g3_377{
fill: #DBE5F1;
}
.g1_377{
fill: #F1F1F1;
}
]]></style>
</defs>
<path fill-rule="evenodd" d="M47,302l840,0l0,-96L47,206l0,96Z" class="g1_377" />
<g clip-path="url(#c0_377)">
<path fill-rule="evenodd" d="M55,230l825,0l0,-24L55,206l0,24Z" class="g1_377" />
</g>
<path fill-rule="evenodd" d="M55,254l825,0l0,-24L55,230l0,24Z" class="g1_377" />
<path fill-rule="evenodd" d="M55,278l825,0l0,-24L55,254l0,24Z" class="g1_377" />
<path fill-rule="evenodd" d="M55,302l825,0l0,-24L55,278l0,24Z" class="g1_377" />
<path d="M46.5,206.5l0,-1" class="g2_377" />
<path d="M46.5,206.5l0,-1" class="g2_377" />
<path d="M47.5,206.5l840,0" class="g2_377" />
<path d="M887.5,206.5l0,-1" class="g2_377" />
<path d="M887.5,206.5l0,-1" class="g2_377" />
<path d="M46.5,302.5l0,-96" class="g2_377" />
<path d="M46.5,303.5l0,-1" class="g2_377" />
<path d="M46.5,303.5l0,-1" class="g2_377" />
<path d="M47.5,303.5l840,0" class="g2_377" />
<path d="M887.5,302.5l0,-96" class="g2_377" />
<path d="M887.5,303.5l0,-1" class="g2_377" />
<path d="M887.5,303.5l0,-1" class="g2_377" />
<path fill-rule="evenodd" d="M47,572l840,0l0,-24L47,548l0,24Z" class="g1_377" />
<path fill-rule="evenodd" d="M55,572l825,0l0,-24L55,548l0,24Z" class="g1_377" />
<path d="M46.5,548.5l0,-1" class="g2_377" />
<path d="M46.5,548.5l0,-1" class="g2_377" />
<path d="M47.5,548.5l840,0" class="g2_377" />
<path d="M887.5,548.5l0,-1" class="g2_377" />
<path d="M887.5,548.5l0,-1" class="g2_377" />
<path d="M46.5,572.5l0,-24" class="g2_377" />
<path d="M46.5,574.5l0,-2" class="g2_377" />
<path d="M46.5,574.5l0,-2" class="g2_377" />
<path d="M47.5,574.5l840,0" class="g2_377" />
<path d="M887.5,572.5l0,-24" class="g2_377" />
<path d="M887.5,574.5l0,-2" class="g2_377" />
<path d="M887.5,574.5l0,-2" class="g2_377" />
<path fill-rule="evenodd" d="M47,679l178,0l0,-23L47,656l0,23Z" class="g3_377" />
<g clip-path="url(#c1_377)">
<path fill-rule="evenodd" d="M55,679l162,0l0,-23L55,656l0,23Z" class="g3_377" />
</g>
<path fill-rule="evenodd" d="M226,679l163,0l0,-23l-163,0l0,23Z" class="g3_377" />
<g clip-path="url(#c2_377)">
<path fill-rule="evenodd" d="M234,679l147,0l0,-23l-147,0l0,23Z" class="g3_377" />
</g>
<path fill-rule="evenodd" d="M390,679l497,0l0,-23l-497,0l0,23Z" class="g3_377" />
<g clip-path="url(#c3_377)">
<path fill-rule="evenodd" d="M398,679l482,0l0,-23l-482,0l0,23Z" class="g3_377" />
</g>
<path d="M46.5,655.5l0,-1" class="g2_377" />
<path d="M46.5,655.5l0,-1" class="g2_377" />
<path d="M47.5,655.5l178,0" class="g2_377" />
<path d="M225.5,655.5l0,-1" class="g2_377" />
<path d="M226.5,655.5l163,0" class="g2_377" />
<path d="M389.5,655.5l0,-1" class="g2_377" />
<path d="M390.5,655.5l497,0" class="g2_377" />
<path d="M887.5,655.5l0,-1" class="g2_377" />
<path d="M887.5,655.5l0,-1" class="g2_377" />
<path d="M46.5,679.5l0,-24" class="g2_377" />
<path d="M225.5,679.5l0,-24" class="g2_377" />
<path d="M389.5,679.5l0,-24" class="g2_377" />
<path d="M887.5,679.5l0,-24" class="g2_377" />
<path fill-rule="evenodd" d="M47,705l178,0l0,-24L47,681l0,24Z" class="g1_377" />
<g clip-path="url(#c4_377)">
<path fill-rule="evenodd" d="M55,705l162,0l0,-24L55,681l0,24Z" class="g1_377" />
</g>
<path fill-rule="evenodd" d="M226,705l163,0l0,-24l-163,0l0,24Z" class="g1_377" />
<g clip-path="url(#c5_377)">
<path fill-rule="evenodd" d="M234,705l147,0l0,-24l-147,0l0,24Z" class="g1_377" />
</g>
<path fill-rule="evenodd" d="M390,705l497,0l0,-24l-497,0l0,24Z" class="g1_377" />
<g clip-path="url(#c6_377)">
<path fill-rule="evenodd" d="M398,705l482,0l0,-24l-482,0l0,24Z" class="g1_377" />
</g>
<path d="M46.5,681.5l0,-2" class="g2_377" />
<path d="M47.5,681.5l178,0" class="g2_377" />
<path d="M225.5,681.5l0,-2" class="g2_377" />
<path d="M226.5,681.5l163,0" class="g2_377" />
<path d="M389.5,681.5l0,-2" class="g2_377" />
<path d="M390.5,681.5l497,0" class="g2_377" />
<path d="M887.5,681.5l0,-2" class="g2_377" />
<path d="M46.5,705.5l0,-24" class="g2_377" />
<path d="M225.5,705.5l0,-24" class="g2_377" />
<path d="M389.5,705.5l0,-24" class="g2_377" />
<path d="M887.5,705.5l0,-24" class="g2_377" />
<path fill-rule="evenodd" d="M47,802l178,0l0,-96L47,706l0,96Z" class="g1_377" />
<g clip-path="url(#c7_377)">
<path fill-rule="evenodd" d="M55,730l162,0l0,-24L55,706l0,24Z" class="g1_377" />
</g>
<path fill-rule="evenodd" d="M226,802l163,0l0,-96l-163,0l0,96Z" class="g1_377" />
<g clip-path="url(#c8_377)">
<path fill-rule="evenodd" d="M234,730l147,0l0,-24l-147,0l0,24Z" class="g1_377" />
</g>
<path fill-rule="evenodd" d="M390,802l497,0l0,-96l-497,0l0,96Z" class="g1_377" />
<g clip-path="url(#c9_377)">
<path fill-rule="evenodd" d="M398,730l482,0l0,-24l-482,0l0,24Z" class="g1_377" />
</g>
<path fill-rule="evenodd" d="M398,754l482,0l0,-24l-482,0l0,24Z" class="g1_377" />
<path fill-rule="evenodd" d="M398,778l482,0l0,-24l-482,0l0,24Z" class="g1_377" />
<path fill-rule="evenodd" d="M398,802l482,0l0,-24l-482,0l0,24Z" class="g1_377" />
<path d="M46.5,706.5l0,-1" class="g2_377" />
<path d="M47.5,706.5l178,0" class="g2_377" />
<path d="M225.5,706.5l0,-1" class="g2_377" />
<path d="M226.5,706.5l163,0" class="g2_377" />
<path d="M389.5,706.5l0,-1" class="g2_377" />
<path d="M390.5,706.5l497,0" class="g2_377" />
<path d="M887.5,706.5l0,-1" class="g2_377" />
<path d="M46.5,802.5l0,-96" class="g2_377" />
<path d="M46.5,803.5l0,-1" class="g2_377" />
<path d="M46.5,803.5l0,-1" class="g2_377" />
<path d="M47.5,803.5l178,0" class="g2_377" />
<path d="M225.5,802.5l0,-96" class="g2_377" />
<path d="M225.5,803.5l0,-1" class="g2_377" />
<path d="M226.5,803.5l163,0" class="g2_377" />
<path d="M389.5,802.5l0,-96" class="g2_377" />
<path d="M389.5,803.5l0,-1" class="g2_377" />
<path d="M390.5,803.5l497,0" class="g2_377" />
<path d="M887.5,802.5l0,-96" class="g2_377" />
<path d="M887.5,803.5l0,-1" class="g2_377" />
<path d="M887.5,803.5l0,-1" class="g2_377" />
<path fill-rule="evenodd" d="M47,876l177,0l0,-24L47,852l0,24Z" class="g3_377" />
<g clip-path="url(#c10_377)">
<path fill-rule="evenodd" d="M55,876l162,0l0,-24L55,852l0,24Z" class="g3_377" />
</g>
<path fill-rule="evenodd" d="M226,876l162,0l0,-24l-162,0l0,24Z" class="g3_377" />
<g clip-path="url(#c11_377)">
<path fill-rule="evenodd" d="M233,876l148,0l0,-24l-148,0l0,24Z" class="g3_377" />
</g>
<path fill-rule="evenodd" d="M390,876l163,0l0,-24l-163,0l0,24Z" class="g3_377" />
<g clip-path="url(#c12_377)">
<path fill-rule="evenodd" d="M397,876l148,0l0,-24l-148,0l0,24Z" class="g3_377" />
</g>
<path fill-rule="evenodd" d="M554,876l163,0l0,-24l-163,0l0,24Z" class="g3_377" />
<g clip-path="url(#c13_377)">
<path fill-rule="evenodd" d="M562,876l148,0l0,-24l-148,0l0,24Z" class="g3_377" />
</g>
<path fill-rule="evenodd" d="M719,876l168,0l0,-24l-168,0l0,24Z" class="g3_377" />
<g clip-path="url(#c14_377)">
<path fill-rule="evenodd" d="M726,876l154,0l0,-24l-154,0l0,24Z" class="g3_377" />
</g>
<path d="M46.5,852.5l0,-1" class="g2_377" />
<path d="M46.5,852.5l0,-1" class="g2_377" />
<path d="M47.5,852.5l177,0" class="g2_377" />
<path d="M224.5,852.5l0,-1" class="g2_377" />
<path d="M226.5,852.5l162,0" class="g2_377" />
<path d="M388.5,852.5l0,-1" class="g2_377" />
<path d="M390.5,852.5l163,0" class="g2_377" />
<path d="M553.5,852.5l0,-1" class="g2_377" />
<path d="M554.5,852.5l163,0" class="g2_377" />
<path d="M717.5,852.5l0,-1" class="g2_377" />
<path d="M719.5,852.5l168,0" class="g2_377" />
<path d="M887.5,852.5l0,-1" class="g2_377" />
<path d="M887.5,852.5l0,-1" class="g2_377" />
<path d="M46.5,876.5l0,-24" class="g2_377" />
<path d="M224.5,876.5l0,-24" class="g2_377" />
<path d="M388.5,876.5l0,-24" class="g2_377" />
<path d="M553.5,876.5l0,-24" class="g2_377" />
<path d="M717.5,876.5l0,-24" class="g2_377" />
<path d="M887.5,876.5l0,-24" class="g2_377" />
<path fill-rule="evenodd" d="M47,901l177,0l0,-23L47,878l0,23Z" class="g1_377" />
<g clip-path="url(#c15_377)">
<path fill-rule="evenodd" d="M55,901l162,0l0,-23L55,878l0,23Z" class="g1_377" />
</g>
<path fill-rule="evenodd" d="M226,901l162,0l0,-23l-162,0l0,23Z" class="g1_377" />
<g clip-path="url(#c16_377)">
<path fill-rule="evenodd" d="M233,901l148,0l0,-23l-148,0l0,23Z" class="g1_377" />
</g>
<path fill-rule="evenodd" d="M390,901l163,0l0,-23l-163,0l0,23Z" class="g1_377" />
<g clip-path="url(#c17_377)">
<path fill-rule="evenodd" d="M397,901l148,0l0,-23l-148,0l0,23Z" class="g1_377" />
</g>
<path fill-rule="evenodd" d="M554,901l163,0l0,-23l-163,0l0,23Z" class="g1_377" />
<g clip-path="url(#c18_377)">
<path fill-rule="evenodd" d="M562,901l148,0l0,-23l-148,0l0,23Z" class="g1_377" />
</g>
<path fill-rule="evenodd" d="M719,901l168,0l0,-23l-168,0l0,23Z" class="g1_377" />
<g clip-path="url(#c19_377)">
<path fill-rule="evenodd" d="M726,901l154,0l0,-23l-154,0l0,23Z" class="g1_377" />
</g>
<path d="M46.5,878.5l0,-2" class="g2_377" />
<path d="M47.5,878.5l177,0" class="g2_377" />
<path d="M224.5,878.5l0,-2" class="g2_377" />
<path d="M226.5,878.5l162,0" class="g2_377" />
<path d="M388.5,878.5l0,-2" class="g2_377" />
<path d="M390.5,878.5l163,0" class="g2_377" />
<path d="M553.5,878.5l0,-2" class="g2_377" />
<path d="M554.5,878.5l163,0" class="g2_377" />
<path d="M717.5,878.5l0,-2" class="g2_377" />
<path d="M719.5,878.5l168,0" class="g2_377" />
<path d="M887.5,878.5l0,-2" class="g2_377" />
<path d="M46.5,902.5l0,-24" class="g2_377" />
<path d="M46.5,903.5l0,-1" class="g2_377" />
<path d="M46.5,903.5l0,-1" class="g2_377" />
<path d="M47.5,903.5l177,0" class="g2_377" />
<path d="M224.5,902.5l0,-24" class="g2_377" />
<path d="M224.5,903.5l0,-1" class="g2_377" />
<path d="M226.5,903.5l162,0" class="g2_377" />
<path d="M388.5,902.5l0,-24" class="g2_377" />
<path d="M388.5,903.5l0,-1" class="g2_377" />
<path d="M390.5,903.5l163,0" class="g2_377" />
<path d="M553.5,902.5l0,-24" class="g2_377" />
<path d="M553.5,903.5l0,-1" class="g2_377" />
<path d="M554.5,903.5l163,0" class="g2_377" />
<path d="M717.5,902.5l0,-24" class="g2_377" />
<path d="M717.5,903.5l0,-1" class="g2_377" />
<path d="M719.5,903.5l168,0" class="g2_377" />
<path d="M887.5,902.5l0,-24" class="g2_377" />
<path d="M887.5,903.5l0,-1" class="g2_377" />
<path d="M887.5,903.5l0,-1" class="g2_377" />
<path fill-rule="evenodd" d="M47,1014l232,0l0,-25L47,989l0,25Z" class="g3_377" />
<path fill-rule="evenodd" d="M55,1013l216,0l0,-24L55,989l0,24Z" class="g3_377" />
<path fill-rule="evenodd" d="M280,1014l79,0l0,-25l-79,0l0,25Z" class="g3_377" />
<path fill-rule="evenodd" d="M288,1013l64,0l0,-24l-64,0l0,24Z" class="g3_377" />
<path fill-rule="evenodd" d="M361,1014l60,0l0,-25l-60,0l0,25Z" class="g3_377" />
<path fill-rule="evenodd" d="M368,1013l45,0l0,-24l-45,0l0,24Z" class="g3_377" />
<path fill-rule="evenodd" d="M422,1014l465,0l0,-25l-465,0l0,25Z" class="g3_377" />
<path fill-rule="evenodd" d="M429,1013l451,0l0,-24l-451,0l0,24Z" class="g3_377" />
<path d="M46.5,989.5l0,-1" class="g2_377" />
<path d="M46.5,989.5l0,-1" class="g2_377" />
<path d="M47.5,989.5l232,0" class="g2_377" />
<path d="M279.5,989.5l0,-1" class="g2_377" />
<path d="M280.5,989.5l79,0" class="g2_377" />
<path d="M359.5,989.5l0,-1" class="g2_377" />
<path d="M361.5,989.5l60,0" class="g2_377" />
<path d="M421.5,989.5l0,-1" class="g2_377" />
<path d="M422.5,989.5l465,0" class="g2_377" />
<path d="M887.5,989.5l0,-1" class="g2_377" />
<path d="M887.5,989.5l0,-1" class="g2_377" />
<path d="M46.5,1014.5l0,-25" class="g2_377" />
<path d="M279.5,1014.5l0,-25" class="g2_377" />
<path d="M359.5,1014.5l0,-25" class="g2_377" />
<path d="M421.5,1014.5l0,-25" class="g2_377" />
<path d="M887.5,1014.5l0,-25" class="g2_377" />
<path fill-rule="evenodd" d="M47,1088l39,0l0,-73l-39,0l0,73Z" class="g1_377" />
<g clip-path="url(#c20_377)">
<path fill-rule="evenodd" d="M55,1088l23,0l0,-73l-23,0l0,73Z" class="g1_377" />
<path fill-rule="evenodd" d="M78,1088l8,0l0,-73l-8,0l0,73Z" class="g1_377" />
</g>
<path fill-rule="evenodd" d="M88,1039l191,0l0,-24l-191,0l0,24Z" class="g1_377" />
<g clip-path="url(#c21_377)">
<path fill-rule="evenodd" d="M95,1039l176,0l0,-24l-176,0l0,24Z" class="g1_377" />
</g>
<path fill-rule="evenodd" d="M280,1039l79,0l0,-24l-79,0l0,24Z" class="g1_377" />
<g clip-path="url(#c22_377)">
<path fill-rule="evenodd" d="M288,1039l64,0l0,-24l-64,0l0,24Z" class="g1_377" />
</g>
<path fill-rule="evenodd" d="M361,1039l60,0l0,-24l-60,0l0,24Z" class="g1_377" />
<g clip-path="url(#c23_377)">
<path fill-rule="evenodd" d="M368,1039l45,0l0,-24l-45,0l0,24Z" class="g1_377" />
</g>
<path fill-rule="evenodd" d="M422,1039l465,0l0,-24l-465,0l0,24Z" class="g1_377" />
<g clip-path="url(#c24_377)">
<path fill-rule="evenodd" d="M429,1039l451,0l0,-24l-451,0l0,24Z" class="g1_377" />
</g>
<path d="M46.5,1015.5l0,-1" class="g2_377" />
<path d="M47.5,1015.5l39,0" class="g2_377" />
<path d="M86.5,1015.5l0,-1" class="g2_377" />
<path d="M88.5,1015.5l191,0" class="g2_377" />
<path d="M279.5,1015.5l0,-1" class="g2_377" />
<path d="M280.5,1015.5l79,0" class="g2_377" />
<path d="M359.5,1015.5l0,-1" class="g2_377" />
<path d="M361.5,1015.5l60,0" class="g2_377" />
<path d="M421.5,1015.5l0,-1" class="g2_377" />
<path d="M422.5,1015.5l465,0" class="g2_377" />
<path d="M887.5,1015.5l0,-1" class="g2_377" />
<path d="M46.5,1039.5l0,-24" class="g2_377" />
<path d="M86.5,1039.5l0,-24" class="g2_377" />
<path d="M279.5,1039.5l0,-24" class="g2_377" />
<path d="M359.5,1039.5l0,-24" class="g2_377" />
<path d="M421.5,1039.5l0,-24" class="g2_377" />
<path d="M887.5,1039.5l0,-24" class="g2_377" />
<path fill-rule="evenodd" d="M88,1088l191,0l0,-47l-191,0l0,47Z" class="g1_377" />
<path fill-rule="evenodd" d="M95,1064l176,0l0,-23l-176,0l0,23Z" class="g1_377" />
<path fill-rule="evenodd" d="M280,1088l79,0l0,-47l-79,0l0,47Z" class="g1_377" />
<path fill-rule="evenodd" d="M288,1064l64,0l0,-23l-64,0l0,23Z" class="g1_377" />
<path fill-rule="evenodd" d="M361,1088l60,0l0,-47l-60,0l0,47Z" class="g1_377" />
<path fill-rule="evenodd" d="M368,1064l45,0l0,-23l-45,0l0,23Z" class="g1_377" />
<path fill-rule="evenodd" d="M422,1088l465,0l0,-47l-465,0l0,47Z" class="g1_377" />
<path fill-rule="evenodd" d="M429,1064l451,0l0,-23l-451,0l0,23Z" class="g1_377" />
<g clip-path="url(#c25_377)">
<path fill-rule="evenodd" d="M429,1088l451,0l0,-24l-451,0l0,24Z" class="g1_377" />
</g>
<path d="M46.5,1041.5l0,-2" class="g2_377" />
<path d="M86.5,1041.5l0,-2" class="g2_377" />
<path d="M88.5,1041.5l191,0" class="g2_377" />
<path d="M279.5,1041.5l0,-2" class="g2_377" />
<path d="M280.5,1041.5l79,0" class="g2_377" />
<path d="M359.5,1041.5l0,-2" class="g2_377" />
<path d="M361.5,1041.5l60,0" class="g2_377" />
<path d="M421.5,1041.5l0,-2" class="g2_377" />
<path d="M422.5,1041.5l465,0" class="g2_377" />
<path d="M887.5,1041.5l0,-2" class="g2_377" />
<path d="M46.5,1088.5l0,-47" class="g2_377" />
<path d="M46.5,1090.5l0,-2" class="g2_377" />
<path d="M46.5,1090.5l0,-2" class="g2_377" />
<path d="M47.5,1090.5l39,0" class="g2_377" />
<path d="M86.5,1088.5l0,-47" class="g2_377" />
<path d="M86.5,1090.5l0,-2" class="g2_377" />
<path d="M88.5,1090.5l191,0" class="g2_377" />
<path d="M279.5,1088.5l0,-47" class="g2_377" />
<path d="M279.5,1090.5l0,-2" class="g2_377" />
<path d="M280.5,1090.5l79,0" class="g2_377" />
<path d="M359.5,1088.5l0,-47" class="g2_377" />
<path d="M359.5,1090.5l0,-2" class="g2_377" />
<path d="M361.5,1090.5l60,0" class="g2_377" />
<path d="M421.5,1088.5l0,-47" class="g2_377" />
<path d="M421.5,1090.5l0,-2" class="g2_377" />
<path d="M422.5,1090.5l465,0" class="g2_377" />
<path d="M887.5,1088.5l0,-47" class="g2_377" />
<path d="M887.5,1090.5l0,-2" class="g2_377" />
<path d="M887.5,1090.5l0,-2" class="g2_377" />
</svg>