<?xml version="1.0" encoding="UTF-8" standalone="no"?>
<!DOCTYPE svg PUBLIC "-//W3C//DTD SVG 1.1//EN"
"http://www.w3.org/Graphics/SVG/1.1/DTD/svg11.dtd">
<svg version="1.1" xmlns="http://www.w3.org/2000/svg" xmlns:xlink="http://www.w3.org/1999/xlink">
<defs>
<clipPath id="c0_262"><path d="M47.5,159.5l0,-48l840,0l0,48Z" /></clipPath>
<clipPath id="c1_262"><path d="M47.5,819.5l0,-23l840,0l0,23Z" /></clipPath>
<clipPath id="c2_262"><path d="M47.5,1085.5l0,-239l840,0l0,239Z" /></clipPath>
<style type="text/css"><![CDATA[
.g5_262{
fill: none;
stroke: #000000;
stroke-width: 1;
stroke-linecap: butt;
stroke-linejoin: miter;
}
.g2_262{
fill: none;
stroke: #7E7E7E;
stroke-width: 1;
stroke-linecap: butt;
stroke-linejoin: miter;
}
.g3_262{
fill: none;
stroke: #0000FF;
stroke-width: 1;
stroke-linecap: butt;
stroke-linejoin: miter;
}
.g4_262{
fill: #D7D7D7;
}
.g1_262{
fill: #F1F1F1;
}
]]></style>
</defs>
<path fill-rule="evenodd" d="M47,159l840,0l0,-48L47,111l0,48Z" class="g1_262" />
<g clip-path="url(#c0_262)">
<path fill-rule="evenodd" d="M55,135l825,0l0,-24L55,111l0,24Z" class="g1_262" />
</g>
<path fill-rule="evenodd" d="M55,159l825,0l0,-24L55,135l0,24Z" class="g1_262" />
<path d="M46.5,111.5l0,-1" class="g2_262" />
<path d="M46.5,111.5l0,-1" class="g2_262" />
<path d="M47.5,111.5l840,0" class="g2_262" />
<path d="M887.5,111.5l0,-1" class="g2_262" />
<path d="M887.5,111.5l0,-1" class="g2_262" />
<path d="M46.5,159.5l0,-48" class="g2_262" />
<path d="M46.5,160.5l0,-1" class="g2_262" />
<path d="M46.5,160.5l0,-1" class="g2_262" />
<path d="M47.5,160.5l840,0" class="g2_262" />
<path d="M887.5,159.5l0,-48" class="g2_262" />
<path d="M887.5,160.5l0,-1" class="g2_262" />
<path d="M887.5,160.5l0,-1" class="g2_262" />
<path d="M55.5,356.5l567,0" class="g3_262" />
<path fill-rule="evenodd" d="M54,457l384,0l0,-24L54,433l0,24Z" class="g4_262" />
<path fill-rule="evenodd" d="M62,457l368,0l0,-24L62,433l0,24Z" class="g4_262" />
<path fill-rule="evenodd" d="M438,457l77,0l0,-24l-77,0l0,24Z" class="g4_262" />
<path fill-rule="evenodd" d="M446,457l61,0l0,-24l-61,0l0,24Z" class="g4_262" />
<path fill-rule="evenodd" d="M516,457l270,0l0,-24l-270,0l0,24Z" class="g4_262" />
<path fill-rule="evenodd" d="M523,457l255,0l0,-24l-255,0l0,24Z" class="g4_262" />
<path fill-rule="evenodd" d="M787,457l101,0l0,-24l-101,0l0,24Z" class="g4_262" />
<path fill-rule="evenodd" d="M794,457l86,0l0,-24l-86,0l0,24Z" class="g4_262" />
<path d="M53.5,433.5l0,-1" class="g5_262" />
<path d="M53.5,433.5l0,-1" class="g5_262" />
<path d="M54.5,433.5l384,0" class="g5_262" />
<path d="M438.5,433.5l0,-1" class="g5_262" />
<path d="M438.5,433.5l77,0" class="g5_262" />
<path d="M515.5,433.5l0,-1" class="g5_262" />
<path d="M516.5,433.5l270,0" class="g5_262" />
<path d="M786.5,433.5l0,-1" class="g5_262" />
<path d="M787.5,433.5l101,0" class="g5_262" />
<path d="M888.5,433.5l0,-1" class="g5_262" />
<path d="M888.5,433.5l0,-1" class="g5_262" />
<path d="M53.5,457.5l0,-24" class="g5_262" />
<path d="M438.5,457.5l0,-24" class="g5_262" />
<path d="M515.5,457.5l0,-24" class="g5_262" />
<path d="M786.5,457.5l0,-24" class="g5_262" />
<path d="M888.5,457.5l0,-24" class="g5_262" />
<path d="M54.5,457.5l384,0" class="g5_262" />
<path d="M438.5,457.5l77,0" class="g5_262" />
<path d="M516.5,457.5l270,0" class="g5_262" />
<path d="M787.5,457.5l101,0" class="g5_262" />
<path d="M53.5,505.5l0,-48" class="g5_262" />
<path d="M438.5,505.5l0,-48" class="g5_262" />
<path d="M515.5,505.5l0,-48" class="g5_262" />
<path d="M786.5,505.5l0,-48" class="g5_262" />
<path d="M888.5,505.5l0,-48" class="g5_262" />
<path d="M53.5,506.5l0,-1" class="g5_262" />
<path d="M54.5,506.5l384,0" class="g5_262" />
<path d="M438.5,506.5l0,-1" class="g5_262" />
<path d="M438.5,506.5l77,0" class="g5_262" />
<path d="M515.5,506.5l0,-1" class="g5_262" />
<path d="M516.5,506.5l270,0" class="g5_262" />
<path d="M786.5,506.5l0,-1" class="g5_262" />
<path d="M787.5,506.5l101,0" class="g5_262" />
<path d="M888.5,506.5l0,-1" class="g5_262" />
<path d="M53.5,530.5l0,-24" class="g5_262" />
<path d="M438.5,530.5l0,-24" class="g5_262" />
<path d="M515.5,530.5l0,-24" class="g5_262" />
<path d="M786.5,530.5l0,-24" class="g5_262" />
<path d="M888.5,530.5l0,-24" class="g5_262" />
<path d="M54.5,530.5l40,0" class="g5_262" />
<path d="M94.5,530.5l41,0" class="g5_262" />
<path d="M135.5,530.5l303,0" class="g5_262" />
<path d="M438.5,530.5l77,0" class="g5_262" />
<path d="M516.5,530.5l270,0" class="g5_262" />
<path d="M787.5,530.5l101,0" class="g5_262" />
<path d="M53.5,602.5l0,-72" class="g5_262" />
<path d="M94.5,602.5l0,-72" class="g5_262" />
<path d="M135.5,602.5l0,-72" class="g5_262" />
<path d="M438.5,602.5l0,-72" class="g5_262" />
<path d="M515.5,602.5l0,-72" class="g5_262" />
<path d="M786.5,602.5l0,-72" class="g5_262" />
<path d="M888.5,602.5l0,-72" class="g5_262" />
<path d="M53.5,603.5l0,-1" class="g5_262" />
<path d="M94.5,603.5l0,-1" class="g5_262" />
<path d="M135.5,603.5l0,-1" class="g5_262" />
<path d="M135.5,603.5l303,0" class="g5_262" />
<path d="M438.5,603.5l0,-1" class="g5_262" />
<path d="M438.5,603.5l77,0" class="g5_262" />
<path d="M515.5,603.5l0,-1" class="g5_262" />
<path d="M516.5,603.5l270,0" class="g5_262" />
<path d="M786.5,603.5l0,-1" class="g5_262" />
<path d="M787.5,603.5l101,0" class="g5_262" />
<path d="M888.5,603.5l0,-1" class="g5_262" />
<path d="M53.5,698.5l0,-95" class="g5_262" />
<path d="M53.5,699.5l0,-1" class="g5_262" />
<path d="M53.5,699.5l0,-1" class="g5_262" />
<path d="M54.5,699.5l40,0" class="g5_262" />
<path d="M94.5,698.5l0,-95" class="g5_262" />
<path d="M94.5,699.5l0,-1" class="g5_262" />
<path d="M94.5,699.5l41,0" class="g5_262" />
<path d="M135.5,698.5l0,-95" class="g5_262" />
<path d="M135.5,699.5l0,-1" class="g5_262" />
<path d="M135.5,699.5l303,0" class="g5_262" />
<path d="M438.5,698.5l0,-95" class="g5_262" />
<path d="M438.5,699.5l0,-1" class="g5_262" />
<path d="M438.5,699.5l77,0" class="g5_262" />
<path d="M515.5,698.5l0,-95" class="g5_262" />
<path d="M515.5,699.5l0,-1" class="g5_262" />
<path d="M516.5,699.5l270,0" class="g5_262" />
<path d="M786.5,698.5l0,-95" class="g5_262" />
<path d="M786.5,699.5l0,-1" class="g5_262" />
<path d="M787.5,699.5l101,0" class="g5_262" />
<path d="M888.5,698.5l0,-95" class="g5_262" />
<path d="M888.5,699.5l0,-1" class="g5_262" />
<path d="M888.5,699.5l0,-1" class="g5_262" />
<path fill-rule="evenodd" d="M47,819l840,0l0,-23L47,796l0,23Z" class="g1_262" />
<g clip-path="url(#c1_262)">
<path fill-rule="evenodd" d="M55,819l825,0l0,-23L55,796l0,23Z" class="g1_262" />
</g>
<path d="M46.5,795.5l0,-1" class="g2_262" />
<path d="M46.5,795.5l0,-1" class="g2_262" />
<path d="M47.5,795.5l840,0" class="g2_262" />
<path d="M887.5,795.5l0,-1" class="g2_262" />
<path d="M887.5,795.5l0,-1" class="g2_262" />
<path d="M46.5,819.5l0,-24" class="g2_262" />
<path d="M46.5,821.5l0,-2" class="g2_262" />
<path d="M46.5,821.5l0,-2" class="g2_262" />
<path d="M47.5,821.5l840,0" class="g2_262" />
<path d="M887.5,819.5l0,-24" class="g2_262" />
<path d="M887.5,821.5l0,-2" class="g2_262" />
<path d="M887.5,821.5l0,-2" class="g2_262" />
<path fill-rule="evenodd" d="M47,1085l840,0l0,-239L47,846l0,239Z" class="g1_262" />
<g clip-path="url(#c2_262)">
<path fill-rule="evenodd" d="M55,870l825,0l0,-24L55,846l0,24Z" class="g1_262" />
</g>
<path d="M94.5,865.5l764,0" class="g3_262" />
<path fill-rule="evenodd" d="M55,894l825,0l0,-24L55,870l0,24Z" class="g1_262" />
<path fill-rule="evenodd" d="M55,918l825,0l0,-24L55,894l0,24Z" class="g1_262" />
<path fill-rule="evenodd" d="M55,942l825,0l0,-24L55,918l0,24Z" class="g1_262" />
<path fill-rule="evenodd" d="M55,965l825,0l0,-23L55,942l0,23Z" class="g1_262" />
<path fill-rule="evenodd" d="M55,989l825,0l0,-24L55,965l0,24Z" class="g1_262" />
<path fill-rule="evenodd" d="M55,1013l825,0l0,-24L55,989l0,24Z" class="g1_262" />
<path fill-rule="evenodd" d="M55,1037l825,0l0,-24l-825,0l0,24Z" class="g1_262" />
<path fill-rule="evenodd" d="M55,1061l825,0l0,-24l-825,0l0,24Z" class="g1_262" />
<g clip-path="url(#c2_262)">
<path fill-rule="evenodd" d="M55,1085l825,0l0,-24l-825,0l0,24Z" class="g1_262" />
</g>
<path d="M46.5,846.5l0,-1" class="g2_262" />
<path d="M46.5,846.5l0,-1" class="g2_262" />
<path d="M47.5,846.5l840,0" class="g2_262" />
<path d="M887.5,846.5l0,-1" class="g2_262" />
<path d="M887.5,846.5l0,-1" class="g2_262" />
<path d="M46.5,1085.5l0,-239" class="g2_262" />
<path d="M46.5,1086.5l0,-1" class="g2_262" />
<path d="M46.5,1086.5l0,-1" class="g2_262" />
<path d="M47.5,1086.5l840,0" class="g2_262" />
<path d="M887.5,1085.5l0,-239" class="g2_262" />
<path d="M887.5,1086.5l0,-1" class="g2_262" />
<path d="M887.5,1086.5l0,-1" class="g2_262" />
</svg>