<?xml version="1.0" encoding="UTF-8" standalone="no"?>
<!DOCTYPE svg PUBLIC "-//W3C//DTD SVG 1.1//EN"
"http://www.w3.org/Graphics/SVG/1.1/DTD/svg11.dtd">
<svg version="1.1" xmlns="http://www.w3.org/2000/svg" xmlns:xlink="http://www.w3.org/1999/xlink">
<defs>
<clipPath id="c0_152"><path d="M47.5,230.5l0,-119l840,0l0,119Z" /></clipPath>
<clipPath id="c1_152"><path d="M47.5,366.5l0,-24l260,0l0,24Z" /></clipPath>
<clipPath id="c2_152"><path d="M308.5,366.5l0,-24l88,0l0,24Z" /></clipPath>
<clipPath id="c3_152"><path d="M397.5,366.5l0,-24l490,0l0,24Z" /></clipPath>
<clipPath id="c4_152"><path d="M47.5,715.5l0,-347l39,0l0,347Z" /></clipPath>
<clipPath id="c5_152"><path d="M88.5,416.5l0,-48l219,0l0,48Z" /></clipPath>
<clipPath id="c6_152"><path d="M308.5,416.5l0,-48l88,0l0,48Z" /></clipPath>
<clipPath id="c7_152"><path d="M397.5,416.5l0,-48l490,0l0,48Z" /></clipPath>
<clipPath id="c8_152"><path d="M88.5,494.5l0,-25l219,0l0,25Z" /></clipPath>
<clipPath id="c9_152"><path d="M308.5,494.5l0,-25l88,0l0,25Z" /></clipPath>
<clipPath id="c10_152"><path d="M397.5,494.5l0,-25l490,0l0,25Z" /></clipPath>
<clipPath id="c11_152"><path d="M88.5,715.5l0,-219l39,0l0,219Z" /></clipPath>
<clipPath id="c12_152"><path d="M129.5,681.5l0,-96l178,0l0,96Z" /></clipPath>
<clipPath id="c13_152"><path d="M308.5,681.5l0,-96l88,0l0,96Z" /></clipPath>
<clipPath id="c14_152"><path d="M397.5,681.5l0,-96l490,0l0,96Z" /></clipPath>
<clipPath id="c15_152"><path d="M129.5,715.5l0,-33l178,0l0,33Z" /></clipPath>
<clipPath id="c16_152"><path d="M308.5,715.5l0,-33l88,0l0,33Z" /></clipPath>
<clipPath id="c17_152"><path d="M397.5,715.5l0,-33l490,0l0,33Z" /></clipPath>
<clipPath id="c18_152"><path d="M47.5,813.5l0,-23l840,0l0,23Z" /></clipPath>
<clipPath id="c19_152"><path d="M47.5,1079.5l0,-239l840,0l0,239Z" /></clipPath>
<style type="text/css"><![CDATA[
.g2_152{
fill: none;
stroke: #7E7E7E;
stroke-width: 1;
stroke-linecap: butt;
stroke-linejoin: miter;
}
.g3_152{
fill: #DBE5F1;
}
.g1_152{
fill: #F1F1F1;
}
]]></style>
</defs>
<path fill-rule="evenodd" d="M47,230l840,0l0,-119L47,111l0,119Z" class="g1_152" />
<g clip-path="url(#c0_152)">
<path fill-rule="evenodd" d="M55,135l825,0l0,-24L55,111l0,24Z" class="g1_152" />
</g>
<path fill-rule="evenodd" d="M55,159l825,0l0,-24L55,135l0,24Z" class="g1_152" />
<path fill-rule="evenodd" d="M55,182l825,0l0,-23L55,159l0,23Z" class="g1_152" />
<path fill-rule="evenodd" d="M55,206l825,0l0,-24L55,182l0,24Z" class="g1_152" />
<path fill-rule="evenodd" d="M55,230l825,0l0,-24L55,206l0,24Z" class="g1_152" />
<path d="M46.5,111.5l0,-1" class="g2_152" />
<path d="M46.5,111.5l0,-1" class="g2_152" />
<path d="M47.5,111.5l840,0" class="g2_152" />
<path d="M887.5,111.5l0,-1" class="g2_152" />
<path d="M887.5,111.5l0,-1" class="g2_152" />
<path d="M46.5,230.5l0,-119" class="g2_152" />
<path d="M46.5,232.5l0,-2" class="g2_152" />
<path d="M46.5,232.5l0,-2" class="g2_152" />
<path d="M47.5,232.5l840,0" class="g2_152" />
<path d="M887.5,230.5l0,-119" class="g2_152" />
<path d="M887.5,232.5l0,-2" class="g2_152" />
<path d="M887.5,232.5l0,-2" class="g2_152" />
<path fill-rule="evenodd" d="M47,366l260,0l0,-24L47,342l0,24Z" class="g3_152" />
<g clip-path="url(#c1_152)">
<path fill-rule="evenodd" d="M55,366l244,0l0,-24L55,342l0,24Z" class="g3_152" />
</g>
<path fill-rule="evenodd" d="M308,366l88,0l0,-24l-88,0l0,24Z" class="g3_152" />
<g clip-path="url(#c2_152)">
<path fill-rule="evenodd" d="M316,366l72,0l0,-24l-72,0l0,24Z" class="g3_152" />
</g>
<path fill-rule="evenodd" d="M397,366l490,0l0,-24l-490,0l0,24Z" class="g3_152" />
<g clip-path="url(#c3_152)">
<path fill-rule="evenodd" d="M405,366l475,0l0,-24l-475,0l0,24Z" class="g3_152" />
</g>
<path d="M46.5,342.5l0,-2" class="g2_152" />
<path d="M46.5,342.5l0,-2" class="g2_152" />
<path d="M47.5,342.5l260,0" class="g2_152" />
<path d="M307.5,342.5l0,-2" class="g2_152" />
<path d="M308.5,342.5l88,0" class="g2_152" />
<path d="M396.5,342.5l0,-2" class="g2_152" />
<path d="M397.5,342.5l490,0" class="g2_152" />
<path d="M887.5,342.5l0,-2" class="g2_152" />
<path d="M887.5,342.5l0,-2" class="g2_152" />
<path d="M46.5,366.5l0,-24" class="g2_152" />
<path d="M307.5,366.5l0,-24" class="g2_152" />
<path d="M396.5,366.5l0,-24" class="g2_152" />
<path d="M887.5,366.5l0,-24" class="g2_152" />
<path fill-rule="evenodd" d="M47,715l39,0L86,368l-39,0l0,347Z" class="g1_152" />
<g clip-path="url(#c4_152)">
<path fill-rule="evenodd" d="M55,715l23,0L78,368l-23,0l0,347Z" class="g1_152" />
</g>
<path fill-rule="evenodd" d="M88,416l219,0l0,-48L88,368l0,48Z" class="g1_152" />
<g clip-path="url(#c5_152)">
<path fill-rule="evenodd" d="M95,392l204,0l0,-24L95,368l0,24Z" class="g1_152" />
</g>
<path fill-rule="evenodd" d="M308,416l88,0l0,-48l-88,0l0,48Z" class="g1_152" />
<g clip-path="url(#c6_152)">
<path fill-rule="evenodd" d="M316,392l72,0l0,-24l-72,0l0,24Z" class="g1_152" />
</g>
<path fill-rule="evenodd" d="M397,416l490,0l0,-48l-490,0l0,48Z" class="g1_152" />
<g clip-path="url(#c7_152)">
<path fill-rule="evenodd" d="M405,392l475,0l0,-24l-475,0l0,24Z" class="g1_152" />
</g>
<path fill-rule="evenodd" d="M405,416l475,0l0,-24l-475,0l0,24Z" class="g1_152" />
<path d="M46.5,368.5l0,-2" class="g2_152" />
<path d="M47.5,368.5l39,0" class="g2_152" />
<path d="M86.5,368.5l0,-2" class="g2_152" />
<path d="M88.5,368.5l219,0" class="g2_152" />
<path d="M307.5,368.5l0,-2" class="g2_152" />
<path d="M308.5,368.5l88,0" class="g2_152" />
<path d="M396.5,368.5l0,-2" class="g2_152" />
<path d="M397.5,368.5l490,0" class="g2_152" />
<path d="M887.5,368.5l0,-2" class="g2_152" />
<path d="M46.5,416.5l0,-48" class="g2_152" />
<path d="M86.5,416.5l0,-48" class="g2_152" />
<path d="M307.5,416.5l0,-48" class="g2_152" />
<path d="M396.5,416.5l0,-48" class="g2_152" />
<path d="M887.5,416.5l0,-48" class="g2_152" />
<path fill-rule="evenodd" d="M88,442l219,0l0,-25L88,417l0,25Z" class="g1_152" />
<path fill-rule="evenodd" d="M95,441l204,0l0,-24L95,417l0,24Z" class="g1_152" />
<path fill-rule="evenodd" d="M308,442l88,0l0,-25l-88,0l0,25Z" class="g1_152" />
<path fill-rule="evenodd" d="M316,441l72,0l0,-24l-72,0l0,24Z" class="g1_152" />
<path fill-rule="evenodd" d="M397,442l490,0l0,-25l-490,0l0,25Z" class="g1_152" />
<path fill-rule="evenodd" d="M405,441l475,0l0,-24l-475,0l0,24Z" class="g1_152" />
<path d="M46.5,417.5l0,-1" class="g2_152" />
<path d="M86.5,417.5l0,-1" class="g2_152" />
<path d="M88.5,417.5l219,0" class="g2_152" />
<path d="M307.5,417.5l0,-1" class="g2_152" />
<path d="M308.5,417.5l88,0" class="g2_152" />
<path d="M396.5,417.5l0,-1" class="g2_152" />
<path d="M397.5,417.5l490,0" class="g2_152" />
<path d="M887.5,417.5l0,-1" class="g2_152" />
<path d="M46.5,442.5l0,-25" class="g2_152" />
<path d="M86.5,442.5l0,-25" class="g2_152" />
<path d="M307.5,442.5l0,-25" class="g2_152" />
<path d="M396.5,442.5l0,-25" class="g2_152" />
<path d="M887.5,442.5l0,-25" class="g2_152" />
<path fill-rule="evenodd" d="M88,468l219,0l0,-25L88,443l0,25Z" class="g1_152" />
<path fill-rule="evenodd" d="M95,467l204,0l0,-24L95,443l0,24Z" class="g1_152" />
<path fill-rule="evenodd" d="M308,468l88,0l0,-25l-88,0l0,25Z" class="g1_152" />
<path fill-rule="evenodd" d="M316,467l72,0l0,-24l-72,0l0,24Z" class="g1_152" />
<path fill-rule="evenodd" d="M397,468l490,0l0,-25l-490,0l0,25Z" class="g1_152" />
<path fill-rule="evenodd" d="M405,467l475,0l0,-24l-475,0l0,24Z" class="g1_152" />
<path d="M46.5,443.5l0,-1" class="g2_152" />
<path d="M86.5,443.5l0,-1" class="g2_152" />
<path d="M88.5,443.5l219,0" class="g2_152" />
<path d="M307.5,443.5l0,-1" class="g2_152" />
<path d="M308.5,443.5l88,0" class="g2_152" />
<path d="M396.5,443.5l0,-1" class="g2_152" />
<path d="M397.5,443.5l490,0" class="g2_152" />
<path d="M887.5,443.5l0,-1" class="g2_152" />
<path d="M46.5,468.5l0,-25" class="g2_152" />
<path d="M86.5,468.5l0,-25" class="g2_152" />
<path d="M307.5,468.5l0,-25" class="g2_152" />
<path d="M396.5,468.5l0,-25" class="g2_152" />
<path d="M887.5,468.5l0,-25" class="g2_152" />
<path fill-rule="evenodd" d="M88,494l219,0l0,-25L88,469l0,25Z" class="g1_152" />
<g clip-path="url(#c8_152)">
<path fill-rule="evenodd" d="M95,493l204,0l0,-24L95,469l0,24Z" class="g1_152" />
</g>
<path fill-rule="evenodd" d="M308,494l88,0l0,-25l-88,0l0,25Z" class="g1_152" />
<g clip-path="url(#c9_152)">
<path fill-rule="evenodd" d="M316,493l72,0l0,-24l-72,0l0,24Z" class="g1_152" />
</g>
<path fill-rule="evenodd" d="M397,494l490,0l0,-25l-490,0l0,25Z" class="g1_152" />
<g clip-path="url(#c10_152)">
<path fill-rule="evenodd" d="M405,493l475,0l0,-24l-475,0l0,24Z" class="g1_152" />
</g>
<path d="M46.5,469.5l0,-1" class="g2_152" />
<path d="M86.5,469.5l0,-1" class="g2_152" />
<path d="M88.5,469.5l219,0" class="g2_152" />
<path d="M307.5,469.5l0,-1" class="g2_152" />
<path d="M308.5,469.5l88,0" class="g2_152" />
<path d="M396.5,469.5l0,-1" class="g2_152" />
<path d="M397.5,469.5l490,0" class="g2_152" />
<path d="M887.5,469.5l0,-1" class="g2_152" />
<path d="M46.5,494.5l0,-25" class="g2_152" />
<path d="M86.5,494.5l0,-25" class="g2_152" />
<path d="M307.5,494.5l0,-25" class="g2_152" />
<path d="M396.5,494.5l0,-25" class="g2_152" />
<path d="M887.5,494.5l0,-25" class="g2_152" />
<path fill-rule="evenodd" d="M88,715l39,0l0,-219l-39,0l0,219Z" class="g1_152" />
<g clip-path="url(#c11_152)">
<path fill-rule="evenodd" d="M95,715l24,0l0,-219l-24,0l0,219Z" class="g1_152" />
</g>
<path fill-rule="evenodd" d="M129,549l178,0l0,-53l-178,0l0,53Z" class="g1_152" />
<path fill-rule="evenodd" d="M136,520l163,0l0,-24l-163,0l0,24Z" class="g1_152" />
<path fill-rule="evenodd" d="M308,549l88,0l0,-53l-88,0l0,53Z" class="g1_152" />
<path fill-rule="evenodd" d="M316,520l72,0l0,-24l-72,0l0,24Z" class="g1_152" />
<path fill-rule="evenodd" d="M397,549l490,0l0,-53l-490,0l0,53Z" class="g1_152" />
<path fill-rule="evenodd" d="M405,520l475,0l0,-24l-475,0l0,24Z" class="g1_152" />
<path d="M46.5,495.5l0,-1" class="g2_152" />
<path d="M86.5,495.5l0,-1" class="g2_152" />
<path d="M88.5,495.5l39,0" class="g2_152" />
<path d="M127.5,495.5l0,-1" class="g2_152" />
<path d="M129.5,495.5l178,0" class="g2_152" />
<path d="M307.5,495.5l0,-1" class="g2_152" />
<path d="M308.5,495.5l88,0" class="g2_152" />
<path d="M396.5,495.5l0,-1" class="g2_152" />
<path d="M397.5,495.5l490,0" class="g2_152" />
<path d="M887.5,495.5l0,-1" class="g2_152" />
<path d="M46.5,549.5l0,-54" class="g2_152" />
<path d="M86.5,549.5l0,-54" class="g2_152" />
<path d="M127.5,549.5l0,-54" class="g2_152" />
<path d="M307.5,549.5l0,-54" class="g2_152" />
<path d="M396.5,549.5l0,-54" class="g2_152" />
<path d="M887.5,549.5l0,-54" class="g2_152" />
<path fill-rule="evenodd" d="M129,584l178,0l0,-33l-178,0l0,33Z" class="g1_152" />
<path fill-rule="evenodd" d="M136,575l163,0l0,-24l-163,0l0,24Z" class="g1_152" />
<path fill-rule="evenodd" d="M308,584l88,0l0,-33l-88,0l0,33Z" class="g1_152" />
<path fill-rule="evenodd" d="M316,575l72,0l0,-24l-72,0l0,24Z" class="g1_152" />
<path fill-rule="evenodd" d="M397,584l490,0l0,-33l-490,0l0,33Z" class="g1_152" />
<path fill-rule="evenodd" d="M405,575l475,0l0,-24l-475,0l0,24Z" class="g1_152" />
<path d="M46.5,551.5l0,-2" class="g2_152" />
<path d="M86.5,551.5l0,-2" class="g2_152" />
<path d="M127.5,551.5l0,-2" class="g2_152" />
<path d="M129.5,551.5l178,0" class="g2_152" />
<path d="M307.5,551.5l0,-2" class="g2_152" />
<path d="M308.5,551.5l88,0" class="g2_152" />
<path d="M396.5,551.5l0,-2" class="g2_152" />
<path d="M397.5,551.5l490,0" class="g2_152" />
<path d="M887.5,551.5l0,-2" class="g2_152" />
<path d="M46.5,584.5l0,-33" class="g2_152" />
<path d="M86.5,584.5l0,-33" class="g2_152" />
<path d="M127.5,584.5l0,-33" class="g2_152" />
<path d="M307.5,584.5l0,-33" class="g2_152" />
<path d="M396.5,584.5l0,-33" class="g2_152" />
<path d="M887.5,584.5l0,-33" class="g2_152" />
<path fill-rule="evenodd" d="M129,681l178,0l0,-96l-178,0l0,96Z" class="g1_152" />
<g clip-path="url(#c12_152)">
<path fill-rule="evenodd" d="M136,609l163,0l0,-24l-163,0l0,24Z" class="g1_152" />
</g>
<path fill-rule="evenodd" d="M308,681l88,0l0,-96l-88,0l0,96Z" class="g1_152" />
<g clip-path="url(#c13_152)">
<path fill-rule="evenodd" d="M316,609l72,0l0,-24l-72,0l0,24Z" class="g1_152" />
</g>
<path fill-rule="evenodd" d="M397,681l490,0l0,-96l-490,0l0,96Z" class="g1_152" />
<g clip-path="url(#c14_152)">
<path fill-rule="evenodd" d="M405,609l475,0l0,-24l-475,0l0,24Z" class="g1_152" />
</g>
<path fill-rule="evenodd" d="M405,633l475,0l0,-24l-475,0l0,24Z" class="g1_152" />
<path fill-rule="evenodd" d="M405,657l475,0l0,-24l-475,0l0,24Z" class="g1_152" />
<path fill-rule="evenodd" d="M405,681l475,0l0,-24l-475,0l0,24Z" class="g1_152" />
<path d="M46.5,585.5l0,-1" class="g2_152" />
<path d="M86.5,585.5l0,-1" class="g2_152" />
<path d="M127.5,585.5l0,-1" class="g2_152" />
<path d="M129.5,585.5l178,0" class="g2_152" />
<path d="M307.5,585.5l0,-1" class="g2_152" />
<path d="M308.5,585.5l88,0" class="g2_152" />
<path d="M396.5,585.5l0,-1" class="g2_152" />
<path d="M397.5,585.5l490,0" class="g2_152" />
<path d="M887.5,585.5l0,-1" class="g2_152" />
<path d="M46.5,681.5l0,-96" class="g2_152" />
<path d="M86.5,681.5l0,-96" class="g2_152" />
<path d="M127.5,681.5l0,-96" class="g2_152" />
<path d="M307.5,681.5l0,-96" class="g2_152" />
<path d="M396.5,681.5l0,-96" class="g2_152" />
<path d="M887.5,681.5l0,-96" class="g2_152" />
<path fill-rule="evenodd" d="M129,715l178,0l0,-33l-178,0l0,33Z" class="g1_152" />
<g clip-path="url(#c15_152)">
<path fill-rule="evenodd" d="M136,706l163,0l0,-24l-163,0l0,24Z" class="g1_152" />
</g>
<path fill-rule="evenodd" d="M308,715l88,0l0,-33l-88,0l0,33Z" class="g1_152" />
<g clip-path="url(#c16_152)">
<path fill-rule="evenodd" d="M316,706l72,0l0,-24l-72,0l0,24Z" class="g1_152" />
</g>
<path fill-rule="evenodd" d="M397,715l490,0l0,-33l-490,0l0,33Z" class="g1_152" />
<g clip-path="url(#c17_152)">
<path fill-rule="evenodd" d="M405,706l475,0l0,-24l-475,0l0,24Z" class="g1_152" />
</g>
<path d="M46.5,682.5l0,-1" class="g2_152" />
<path d="M86.5,682.5l0,-1" class="g2_152" />
<path d="M127.5,682.5l0,-1" class="g2_152" />
<path d="M129.5,682.5l178,0" class="g2_152" />
<path d="M307.5,682.5l0,-1" class="g2_152" />
<path d="M308.5,682.5l88,0" class="g2_152" />
<path d="M396.5,682.5l0,-1" class="g2_152" />
<path d="M397.5,682.5l490,0" class="g2_152" />
<path d="M887.5,682.5l0,-1" class="g2_152" />
<path d="M46.5,715.5l0,-33" class="g2_152" />
<path d="M46.5,717.5l0,-2" class="g2_152" />
<path d="M46.5,717.5l0,-2" class="g2_152" />
<path d="M47.5,717.5l39,0" class="g2_152" />
<path d="M86.5,715.5l0,-33" class="g2_152" />
<path d="M86.5,717.5l0,-2" class="g2_152" />
<path d="M88.5,717.5l39,0" class="g2_152" />
<path d="M127.5,715.5l0,-33" class="g2_152" />
<path d="M127.5,717.5l0,-2" class="g2_152" />
<path d="M129.5,717.5l178,0" class="g2_152" />
<path d="M307.5,715.5l0,-33" class="g2_152" />
<path d="M307.5,717.5l0,-2" class="g2_152" />
<path d="M308.5,717.5l88,0" class="g2_152" />
<path d="M396.5,715.5l0,-33" class="g2_152" />
<path d="M396.5,717.5l0,-2" class="g2_152" />
<path d="M397.5,717.5l490,0" class="g2_152" />
<path d="M887.5,715.5l0,-33" class="g2_152" />
<path d="M887.5,717.5l0,-2" class="g2_152" />
<path d="M887.5,717.5l0,-2" class="g2_152" />
<path fill-rule="evenodd" d="M47,813l840,0l0,-23L47,790l0,23Z" class="g1_152" />
<g clip-path="url(#c18_152)">
<path fill-rule="evenodd" d="M55,813l825,0l0,-23L55,790l0,23Z" class="g1_152" />
</g>
<path d="M46.5,790.5l0,-2" class="g2_152" />
<path d="M46.5,790.5l0,-2" class="g2_152" />
<path d="M47.5,790.5l840,0" class="g2_152" />
<path d="M887.5,790.5l0,-2" class="g2_152" />
<path d="M887.5,790.5l0,-2" class="g2_152" />
<path d="M46.5,814.5l0,-24" class="g2_152" />
<path d="M46.5,815.5l0,-1" class="g2_152" />
<path d="M46.5,815.5l0,-1" class="g2_152" />
<path d="M47.5,815.5l840,0" class="g2_152" />
<path d="M887.5,814.5l0,-24" class="g2_152" />
<path d="M887.5,815.5l0,-1" class="g2_152" />
<path d="M887.5,815.5l0,-1" class="g2_152" />
<path fill-rule="evenodd" d="M47,1079l840,0l0,-239L47,840l0,239Z" class="g1_152" />
<g clip-path="url(#c19_152)">
<path fill-rule="evenodd" d="M55,864l825,0l0,-24L55,840l0,24Z" class="g1_152" />
</g>
<path fill-rule="evenodd" d="M55,888l825,0l0,-24L55,864l0,24Z" class="g1_152" />
<path fill-rule="evenodd" d="M55,912l825,0l0,-24L55,888l0,24Z" class="g1_152" />
<path fill-rule="evenodd" d="M55,936l825,0l0,-24L55,912l0,24Z" class="g1_152" />
<path fill-rule="evenodd" d="M55,960l825,0l0,-24L55,936l0,24Z" class="g1_152" />
<path fill-rule="evenodd" d="M55,983l825,0l0,-23L55,960l0,23Z" class="g1_152" />
<path fill-rule="evenodd" d="M55,1007l825,0l0,-24L55,983l0,24Z" class="g1_152" />
<path fill-rule="evenodd" d="M55,1031l825,0l0,-24l-825,0l0,24Z" class="g1_152" />
<path fill-rule="evenodd" d="M55,1055l825,0l0,-24l-825,0l0,24Z" class="g1_152" />
<g clip-path="url(#c19_152)">
<path fill-rule="evenodd" d="M55,1079l825,0l0,-24l-825,0l0,24Z" class="g1_152" />
</g>
<path d="M46.5,840.5l0,-1" class="g2_152" />
<path d="M46.5,840.5l0,-1" class="g2_152" />
<path d="M47.5,840.5l840,0" class="g2_152" />
<path d="M887.5,840.5l0,-1" class="g2_152" />
<path d="M887.5,840.5l0,-1" class="g2_152" />
<path d="M46.5,1079.5l0,-239" class="g2_152" />
<path d="M46.5,1080.5l0,-1" class="g2_152" />
<path d="M46.5,1080.5l0,-1" class="g2_152" />
<path d="M47.5,1080.5l840,0" class="g2_152" />
<path d="M887.5,1079.5l0,-239" class="g2_152" />
<path d="M887.5,1080.5l0,-1" class="g2_152" />
<path d="M887.5,1080.5l0,-1" class="g2_152" />
</svg>