<?xml version="1.0" encoding="UTF-8" standalone="no"?>
<!DOCTYPE svg PUBLIC "-//W3C//DTD SVG 1.1//EN"
"http://www.w3.org/Graphics/SVG/1.1/DTD/svg11.dtd">
<svg version="1.1" xmlns="http://www.w3.org/2000/svg" xmlns:xlink="http://www.w3.org/1999/xlink">
<defs>
<clipPath id="c0_102"><path d="M81.5,1092.5l0,-981l33,0l0,981Z" /></clipPath>
<clipPath id="c1_102"><path d="M116.5,1092.5l0,-981l33,0l0,981Z" /></clipPath>
<clipPath id="c2_102"><path d="M150.5,613.5l0,-502l144,0l0,502Z" /></clipPath>
<clipPath id="c3_102"><path d="M296.5,613.5l0,-502l81,0l0,502Z" /></clipPath>
<clipPath id="c4_102"><path d="M379.5,613.5l0,-502l67,0l0,502Z" /></clipPath>
<clipPath id="c5_102"><path d="M447.5,613.5l0,-502l440,0l0,502Z" /></clipPath>
<clipPath id="c6_102"><path d="M447.5,1092.5l0,-478l440,0l0,478Z" /></clipPath>
<style type="text/css"><![CDATA[
.g5_102{
fill: none;
stroke: #7E7E7E;
stroke-width: 1;
stroke-linecap: butt;
stroke-linejoin: miter;
}
.g2_102{
fill: none;
stroke: #000000;
stroke-width: 1;
stroke-linecap: butt;
stroke-linejoin: miter;
}
.g4_102{
fill: none;
stroke: #0000FF;
stroke-width: 1;
stroke-linecap: butt;
stroke-linejoin: miter;
}
.g3_102{
fill: #FFFFFF;
}
.g1_102{
fill: #F1F1F1;
}
]]></style>
</defs>
<path fill-rule="evenodd" d="M47,613l33,0L80,111l-33,0l0,502Z" class="g1_102" />
<path fill-rule="evenodd" d="M81,1092l33,0l0,-981l-33,0l0,981Z" class="g1_102" />
<g clip-path="url(#c0_102)">
<path fill-rule="evenodd" d="M89,1092l24,0l0,-981l-24,0l0,981Z" class="g1_102" />
</g>
<path fill-rule="evenodd" d="M116,1092l33,0l0,-981l-33,0l0,981Z" class="g1_102" />
<g clip-path="url(#c1_102)">
<path fill-rule="evenodd" d="M123,1092l24,0l0,-981l-24,0l0,981Z" class="g1_102" />
</g>
<path fill-rule="evenodd" d="M150,613l144,0l0,-502l-144,0l0,502Z" class="g1_102" />
<g clip-path="url(#c2_102)">
<path fill-rule="evenodd" d="M158,135l129,0l0,-24l-129,0l0,24Z" class="g1_102" />
</g>
<path fill-rule="evenodd" d="M296,613l81,0l0,-502l-81,0l0,502Z" class="g1_102" />
<g clip-path="url(#c3_102)">
<path fill-rule="evenodd" d="M303,135l66,0l0,-24l-66,0l0,24Z" class="g1_102" />
</g>
<path fill-rule="evenodd" d="M379,613l67,0l0,-502l-67,0l0,502Z" class="g1_102" />
<g clip-path="url(#c4_102)">
<path fill-rule="evenodd" d="M386,135l52,0l0,-24l-52,0l0,24Z" class="g1_102" />
</g>
<path fill-rule="evenodd" d="M447,613l440,0l0,-502l-440,0l0,502Z" class="g1_102" />
<g clip-path="url(#c5_102)">
<path fill-rule="evenodd" d="M455,135l425,0l0,-24l-425,0l0,24Z" class="g1_102" />
</g>
<path fill-rule="evenodd" d="M455,159l425,0l0,-24l-425,0l0,24Z" class="g1_102" />
<path fill-rule="evenodd" d="M756,200l124,0l0,-41l-124,0l0,41Z" class="g1_102" />
<path fill-rule="evenodd" d="M456,200l121,0l0,-41l-121,0l0,41Z" class="g1_102" />
<path fill-rule="evenodd" d="M463,191l106,0l0,-23l-106,0l0,23Z" class="g1_102" />
<path fill-rule="evenodd" d="M577,200l103,0l0,-41l-103,0l0,41Z" class="g1_102" />
<path fill-rule="evenodd" d="M585,191l87,0l0,-23l-87,0l0,23Z" class="g1_102" />
<path fill-rule="evenodd" d="M680,200l76,0l0,-41l-76,0l0,41Z" class="g1_102" />
<path fill-rule="evenodd" d="M688,191l60,0l0,-23l-60,0l0,23Z" class="g1_102" />
<path d="M456.5,159.5l121,0" class="g2_102" />
<path d="M577.5,159.5l103,0" class="g2_102" />
<path d="M681.5,159.5l75,0" class="g2_102" />
<path d="M455.5,200.5l0,-41" class="g2_102" />
<path d="M577.5,200.5l0,-41" class="g2_102" />
<path d="M680.5,200.5l0,-41" class="g2_102" />
<path d="M756.5,200.5l0,-41" class="g2_102" />
<path fill-rule="evenodd" d="M756,224l124,0l0,-24l-124,0l0,24Z" class="g1_102" />
<path fill-rule="evenodd" d="M456,224l121,0l0,-24l-121,0l0,24Z" class="g3_102" />
<path fill-rule="evenodd" d="M463,224l106,0l0,-24l-106,0l0,24Z" class="g3_102" />
<path fill-rule="evenodd" d="M577,224l103,0l0,-24l-103,0l0,24Z" class="g1_102" />
<path fill-rule="evenodd" d="M585,224l87,0l0,-24l-87,0l0,24Z" class="g1_102" />
<path fill-rule="evenodd" d="M680,224l76,0l0,-24l-76,0l0,24Z" class="g3_102" />
<path fill-rule="evenodd" d="M688,224l60,0l0,-24l-60,0l0,24Z" class="g3_102" />
<path d="M456.5,200.5l121,0" class="g2_102" />
<path d="M577.5,200.5l103,0" class="g2_102" />
<path d="M681.5,200.5l75,0" class="g2_102" />
<path d="M455.5,224.5l0,-24" class="g2_102" />
<path d="M577.5,224.5l0,-24" class="g2_102" />
<path d="M680.5,224.5l0,-24" class="g2_102" />
<path d="M756.5,224.5l0,-24" class="g2_102" />
<path fill-rule="evenodd" d="M756,249l124,0l0,-25l-124,0l0,25Z" class="g1_102" />
<path fill-rule="evenodd" d="M456,249l121,0l0,-24l-121,0l0,24Z" class="g3_102" />
<path fill-rule="evenodd" d="M463,249l106,0l0,-24l-106,0l0,24Z" class="g3_102" />
<path fill-rule="evenodd" d="M577,249l103,0l0,-24l-103,0l0,24Z" class="g1_102" />
<path fill-rule="evenodd" d="M585,249l87,0l0,-24l-87,0l0,24Z" class="g1_102" />
<path fill-rule="evenodd" d="M680,249l76,0l0,-24l-76,0l0,24Z" class="g3_102" />
<path fill-rule="evenodd" d="M688,249l60,0l0,-24l-60,0l0,24Z" class="g3_102" />
<path d="M455.5,225.5l0,-1" class="g2_102" />
<path d="M456.5,225.5l121,0" class="g2_102" />
<path d="M577.5,225.5l0,-1" class="g2_102" />
<path d="M577.5,225.5l103,0" class="g2_102" />
<path d="M680.5,225.5l0,-1" class="g2_102" />
<path d="M681.5,225.5l75,0" class="g2_102" />
<path d="M756.5,225.5l0,-1" class="g2_102" />
<path d="M455.5,249.5l0,-24" class="g2_102" />
<path d="M577.5,249.5l0,-24" class="g2_102" />
<path d="M680.5,249.5l0,-24" class="g2_102" />
<path d="M756.5,249.5l0,-24" class="g2_102" />
<path fill-rule="evenodd" d="M756,274l124,0l0,-25l-124,0l0,25Z" class="g1_102" />
<path fill-rule="evenodd" d="M456,274l121,0l0,-24l-121,0l0,24Z" class="g3_102" />
<path fill-rule="evenodd" d="M463,273l106,0l0,-23l-106,0l0,23Z" class="g3_102" />
<path fill-rule="evenodd" d="M577,274l103,0l0,-24l-103,0l0,24Z" class="g1_102" />
<path fill-rule="evenodd" d="M585,273l87,0l0,-23l-87,0l0,23Z" class="g1_102" />
<path fill-rule="evenodd" d="M680,274l76,0l0,-24l-76,0l0,24Z" class="g3_102" />
<path fill-rule="evenodd" d="M688,273l60,0l0,-23l-60,0l0,23Z" class="g3_102" />
<path d="M455.5,250.5l0,-1" class="g2_102" />
<path d="M456.5,250.5l121,0" class="g2_102" />
<path d="M577.5,250.5l0,-1" class="g2_102" />
<path d="M577.5,250.5l103,0" class="g2_102" />
<path d="M680.5,250.5l0,-1" class="g2_102" />
<path d="M681.5,250.5l75,0" class="g2_102" />
<path d="M756.5,250.5l0,-1" class="g2_102" />
<path d="M455.5,274.5l0,-24" class="g2_102" />
<path d="M577.5,274.5l0,-24" class="g2_102" />
<path d="M680.5,274.5l0,-24" class="g2_102" />
<path d="M756.5,274.5l0,-24" class="g2_102" />
<path fill-rule="evenodd" d="M756,298l124,0l0,-24l-124,0l0,24Z" class="g1_102" />
<path fill-rule="evenodd" d="M456,298l121,0l0,-24l-121,0l0,24Z" class="g3_102" />
<path fill-rule="evenodd" d="M463,298l106,0l0,-24l-106,0l0,24Z" class="g3_102" />
<path fill-rule="evenodd" d="M577,298l103,0l0,-24l-103,0l0,24Z" class="g1_102" />
<path fill-rule="evenodd" d="M585,298l87,0l0,-24l-87,0l0,24Z" class="g1_102" />
<path fill-rule="evenodd" d="M680,298l76,0l0,-24l-76,0l0,24Z" class="g3_102" />
<path fill-rule="evenodd" d="M688,298l60,0l0,-24l-60,0l0,24Z" class="g3_102" />
<path d="M456.5,274.5l121,0" class="g2_102" />
<path d="M577.5,274.5l103,0" class="g2_102" />
<path d="M681.5,274.5l75,0" class="g2_102" />
<path d="M455.5,298.5l0,-24" class="g2_102" />
<path d="M577.5,298.5l0,-24" class="g2_102" />
<path d="M680.5,298.5l0,-24" class="g2_102" />
<path d="M756.5,298.5l0,-24" class="g2_102" />
<path fill-rule="evenodd" d="M756,323l124,0l0,-25l-124,0l0,25Z" class="g1_102" />
<path fill-rule="evenodd" d="M456,323l121,0l0,-24l-121,0l0,24Z" class="g3_102" />
<path fill-rule="evenodd" d="M463,323l106,0l0,-24l-106,0l0,24Z" class="g3_102" />
<path fill-rule="evenodd" d="M577,323l103,0l0,-24l-103,0l0,24Z" class="g1_102" />
<path fill-rule="evenodd" d="M585,323l87,0l0,-24l-87,0l0,24Z" class="g1_102" />
<path fill-rule="evenodd" d="M680,323l76,0l0,-24l-76,0l0,24Z" class="g3_102" />
<path fill-rule="evenodd" d="M688,323l60,0l0,-24l-60,0l0,24Z" class="g3_102" />
<path d="M455.5,299.5l0,-1" class="g2_102" />
<path d="M456.5,299.5l121,0" class="g2_102" />
<path d="M577.5,299.5l0,-1" class="g2_102" />
<path d="M577.5,299.5l103,0" class="g2_102" />
<path d="M680.5,299.5l0,-1" class="g2_102" />
<path d="M681.5,299.5l75,0" class="g2_102" />
<path d="M756.5,299.5l0,-1" class="g2_102" />
<path d="M455.5,323.5l0,-24" class="g2_102" />
<path d="M577.5,323.5l0,-24" class="g2_102" />
<path d="M680.5,323.5l0,-24" class="g2_102" />
<path d="M756.5,323.5l0,-24" class="g2_102" />
<path fill-rule="evenodd" d="M756,347l124,0l0,-24l-124,0l0,24Z" class="g1_102" />
<path fill-rule="evenodd" d="M456,347l121,0l0,-24l-121,0l0,24Z" class="g3_102" />
<path fill-rule="evenodd" d="M463,347l106,0l0,-24l-106,0l0,24Z" class="g3_102" />
<path fill-rule="evenodd" d="M577,347l103,0l0,-24l-103,0l0,24Z" class="g1_102" />
<path fill-rule="evenodd" d="M585,347l87,0l0,-24l-87,0l0,24Z" class="g1_102" />
<path fill-rule="evenodd" d="M680,347l76,0l0,-24l-76,0l0,24Z" class="g3_102" />
<path fill-rule="evenodd" d="M688,347l60,0l0,-24l-60,0l0,24Z" class="g3_102" />
<path d="M456.5,323.5l121,0" class="g2_102" />
<path d="M577.5,323.5l103,0" class="g2_102" />
<path d="M681.5,323.5l75,0" class="g2_102" />
<path d="M455.5,347.5l0,-24" class="g2_102" />
<path d="M577.5,347.5l0,-24" class="g2_102" />
<path d="M680.5,347.5l0,-24" class="g2_102" />
<path d="M756.5,347.5l0,-24" class="g2_102" />
<path fill-rule="evenodd" d="M756,372l124,0l0,-25l-124,0l0,25Z" class="g1_102" />
<path fill-rule="evenodd" d="M456,372l121,0l0,-24l-121,0l0,24Z" class="g3_102" />
<path fill-rule="evenodd" d="M463,372l106,0l0,-24l-106,0l0,24Z" class="g3_102" />
<path fill-rule="evenodd" d="M577,372l103,0l0,-24l-103,0l0,24Z" class="g1_102" />
<path fill-rule="evenodd" d="M585,372l87,0l0,-24l-87,0l0,24Z" class="g1_102" />
<path fill-rule="evenodd" d="M680,372l76,0l0,-24l-76,0l0,24Z" class="g3_102" />
<path fill-rule="evenodd" d="M688,372l60,0l0,-24l-60,0l0,24Z" class="g3_102" />
<path d="M455.5,348.5l0,-1" class="g2_102" />
<path d="M456.5,348.5l121,0" class="g2_102" />
<path d="M577.5,348.5l0,-1" class="g2_102" />
<path d="M577.5,348.5l103,0" class="g2_102" />
<path d="M680.5,348.5l0,-1" class="g2_102" />
<path d="M681.5,348.5l75,0" class="g2_102" />
<path d="M756.5,348.5l0,-1" class="g2_102" />
<path d="M455.5,372.5l0,-24" class="g2_102" />
<path d="M577.5,372.5l0,-24" class="g2_102" />
<path d="M680.5,372.5l0,-24" class="g2_102" />
<path d="M756.5,372.5l0,-24" class="g2_102" />
<path fill-rule="evenodd" d="M756,397l124,0l0,-25l-124,0l0,25Z" class="g1_102" />
<path fill-rule="evenodd" d="M456,397l121,0l0,-24l-121,0l0,24Z" class="g3_102" />
<path fill-rule="evenodd" d="M463,397l106,0l0,-24l-106,0l0,24Z" class="g3_102" />
<path fill-rule="evenodd" d="M577,397l103,0l0,-24l-103,0l0,24Z" class="g1_102" />
<path fill-rule="evenodd" d="M585,397l87,0l0,-24l-87,0l0,24Z" class="g1_102" />
<path fill-rule="evenodd" d="M680,397l76,0l0,-24l-76,0l0,24Z" class="g3_102" />
<path fill-rule="evenodd" d="M688,397l60,0l0,-24l-60,0l0,24Z" class="g3_102" />
<path d="M455.5,373.5l0,-1" class="g2_102" />
<path d="M456.5,373.5l121,0" class="g2_102" />
<path d="M577.5,373.5l0,-1" class="g2_102" />
<path d="M577.5,373.5l103,0" class="g2_102" />
<path d="M680.5,373.5l0,-1" class="g2_102" />
<path d="M681.5,373.5l75,0" class="g2_102" />
<path d="M756.5,373.5l0,-1" class="g2_102" />
<path d="M455.5,397.5l0,-24" class="g2_102" />
<path d="M577.5,397.5l0,-24" class="g2_102" />
<path d="M680.5,397.5l0,-24" class="g2_102" />
<path d="M756.5,397.5l0,-24" class="g2_102" />
<path fill-rule="evenodd" d="M756,422l124,0l0,-25l-124,0l0,25Z" class="g1_102" />
<path fill-rule="evenodd" d="M456,421l121,0l0,-24l-121,0l0,24Z" class="g3_102" />
<path fill-rule="evenodd" d="M463,421l106,0l0,-24l-106,0l0,24Z" class="g3_102" />
<path fill-rule="evenodd" d="M577,421l103,0l0,-24l-103,0l0,24Z" class="g1_102" />
<path fill-rule="evenodd" d="M585,421l87,0l0,-24l-87,0l0,24Z" class="g1_102" />
<path fill-rule="evenodd" d="M680,421l76,0l0,-24l-76,0l0,24Z" class="g3_102" />
<path fill-rule="evenodd" d="M688,421l60,0l0,-24l-60,0l0,24Z" class="g3_102" />
<path d="M456.5,397.5l121,0" class="g2_102" />
<path d="M577.5,397.5l103,0" class="g2_102" />
<path d="M681.5,397.5l75,0" class="g2_102" />
<path d="M455.5,421.5l0,-24" class="g2_102" />
<path d="M455.5,422.5l0,-1" class="g2_102" />
<path d="M455.5,422.5l0,-1" class="g2_102" />
<path d="M456.5,422.5l121,0" class="g2_102" />
<path d="M577.5,421.5l0,-24" class="g2_102" />
<path d="M577.5,422.5l0,-1" class="g2_102" />
<path d="M577.5,422.5l103,0" class="g2_102" />
<path d="M680.5,421.5l0,-24" class="g2_102" />
<path d="M680.5,422.5l0,-1" class="g2_102" />
<path d="M681.5,422.5l75,0" class="g2_102" />
<path d="M756.5,421.5l0,-24" class="g2_102" />
<path d="M756.5,422.5l0,-1" class="g2_102" />
<path d="M756.5,422.5l0,-1" class="g2_102" />
<path fill-rule="evenodd" d="M455,446l425,0l0,-24l-425,0l0,24Z" class="g1_102" />
<path fill-rule="evenodd" d="M455,470l425,0l0,-24l-425,0l0,24Z" class="g1_102" />
<path fill-rule="evenodd" d="M455,493l425,0l0,-23l-425,0l0,23Z" class="g1_102" />
<path fill-rule="evenodd" d="M455,517l425,0l0,-24l-425,0l0,24Z" class="g1_102" />
<path d="M455.5,513.5l422,0" class="g4_102" />
<path fill-rule="evenodd" d="M455,541l425,0l0,-24l-425,0l0,24Z" class="g1_102" />
<path d="M455.5,537.5l257,0" class="g4_102" />
<path fill-rule="evenodd" d="M455,565l425,0l0,-24l-425,0l0,24Z" class="g1_102" />
<path fill-rule="evenodd" d="M455,589l425,0l0,-24l-425,0l0,24Z" class="g1_102" />
<path fill-rule="evenodd" d="M455,613l425,0l0,-24l-425,0l0,24Z" class="g1_102" />
<path d="M46.5,111.5l0,-1" class="g5_102" />
<path d="M46.5,111.5l0,-1" class="g5_102" />
<path d="M47.5,111.5l33,0" class="g5_102" />
<path d="M80.5,111.5l0,-1" class="g5_102" />
<path d="M81.5,111.5l33,0" class="g5_102" />
<path d="M114.5,111.5l0,-1" class="g5_102" />
<path d="M116.5,111.5l33,0" class="g5_102" />
<path d="M149.5,111.5l0,-1" class="g5_102" />
<path d="M150.5,111.5l145,0" class="g5_102" />
<path d="M295.5,111.5l0,-1" class="g5_102" />
<path d="M296.5,111.5l81,0" class="g5_102" />
<path d="M377.5,111.5l0,-1" class="g5_102" />
<path d="M379.5,111.5l67,0" class="g5_102" />
<path d="M446.5,111.5l0,-1" class="g5_102" />
<path d="M447.5,111.5l440,0" class="g5_102" />
<path d="M887.5,111.5l0,-1" class="g5_102" />
<path d="M887.5,111.5l0,-1" class="g5_102" />
<path d="M46.5,613.5l0,-502" class="g5_102" />
<path d="M80.5,613.5l0,-502" class="g5_102" />
<path d="M114.5,613.5l0,-502" class="g5_102" />
<path d="M149.5,613.5l0,-502" class="g5_102" />
<path d="M295.5,613.5l0,-502" class="g5_102" />
<path d="M377.5,613.5l0,-502" class="g5_102" />
<path d="M446.5,613.5l0,-502" class="g5_102" />
<path d="M887.5,613.5l0,-502" class="g5_102" />
<path fill-rule="evenodd" d="M47,1092l33,0L80,613l-33,0l0,479Z" class="g1_102" />
<path fill-rule="evenodd" d="M150,1092l144,0l0,-478l-144,0l0,478Z" class="g1_102" />
<path fill-rule="evenodd" d="M158,638l129,0l0,-24l-129,0l0,24Z" class="g1_102" />
<path fill-rule="evenodd" d="M296,1092l81,0l0,-478l-81,0l0,478Z" class="g1_102" />
<path fill-rule="evenodd" d="M303,638l66,0l0,-24l-66,0l0,24Z" class="g1_102" />
<path fill-rule="evenodd" d="M379,1092l67,0l0,-478l-67,0l0,478Z" class="g1_102" />
<path fill-rule="evenodd" d="M386,638l52,0l0,-24l-52,0l0,24Z" class="g1_102" />
<path fill-rule="evenodd" d="M447,1092l440,0l0,-478l-440,0l0,478Z" class="g1_102" />
<path fill-rule="evenodd" d="M455,638l425,0l0,-24l-425,0l0,24Z" class="g1_102" />
<path fill-rule="evenodd" d="M455,662l425,0l0,-24l-425,0l0,24Z" class="g1_102" />
<path fill-rule="evenodd" d="M756,703l124,0l0,-41l-124,0l0,41Z" class="g1_102" />
<path fill-rule="evenodd" d="M456,703l121,0l0,-40l-121,0l0,40Z" class="g1_102" />
<path fill-rule="evenodd" d="M463,695l106,0l0,-24l-106,0l0,24Z" class="g1_102" />
<path fill-rule="evenodd" d="M577,703l103,0l0,-40l-103,0l0,40Z" class="g1_102" />
<path fill-rule="evenodd" d="M585,695l87,0l0,-24l-87,0l0,24Z" class="g1_102" />
<path fill-rule="evenodd" d="M680,703l76,0l0,-40l-76,0l0,40Z" class="g1_102" />
<path fill-rule="evenodd" d="M688,695l60,0l0,-24l-60,0l0,24Z" class="g1_102" />
<path d="M455.5,663.5l0,-1" class="g2_102" />
<path d="M455.5,663.5l0,-1" class="g2_102" />
<path d="M456.5,663.5l121,0" class="g2_102" />
<path d="M577.5,663.5l0,-1" class="g2_102" />
<path d="M577.5,663.5l103,0" class="g2_102" />
<path d="M680.5,663.5l0,-1" class="g2_102" />
<path d="M681.5,663.5l75,0" class="g2_102" />
<path d="M756.5,663.5l0,-1" class="g2_102" />
<path d="M756.5,663.5l0,-1" class="g2_102" />
<path d="M455.5,703.5l0,-40" class="g2_102" />
<path d="M577.5,703.5l0,-40" class="g2_102" />
<path d="M680.5,703.5l0,-40" class="g2_102" />
<path d="M756.5,703.5l0,-40" class="g2_102" />
<path fill-rule="evenodd" d="M756,727l124,0l0,-24l-124,0l0,24Z" class="g1_102" />
<path fill-rule="evenodd" d="M456,727l121,0l0,-23l-121,0l0,23Z" class="g3_102" />
<path fill-rule="evenodd" d="M463,727l106,0l0,-23l-106,0l0,23Z" class="g3_102" />
<path fill-rule="evenodd" d="M577,727l103,0l0,-23l-103,0l0,23Z" class="g1_102" />
<path fill-rule="evenodd" d="M585,727l87,0l0,-23l-87,0l0,23Z" class="g1_102" />
<path fill-rule="evenodd" d="M680,727l76,0l0,-23l-76,0l0,23Z" class="g3_102" />
<path fill-rule="evenodd" d="M688,727l60,0l0,-23l-60,0l0,23Z" class="g3_102" />
<path d="M456.5,703.5l121,0" class="g2_102" />
<path d="M577.5,703.5l103,0" class="g2_102" />
<path d="M681.5,703.5l75,0" class="g2_102" />
<path d="M455.5,727.5l0,-24" class="g2_102" />
<path d="M577.5,727.5l0,-24" class="g2_102" />
<path d="M680.5,727.5l0,-24" class="g2_102" />
<path d="M756.5,727.5l0,-24" class="g2_102" />
<path fill-rule="evenodd" d="M756,752l124,0l0,-25l-124,0l0,25Z" class="g1_102" />
<path fill-rule="evenodd" d="M456,752l121,0l0,-24l-121,0l0,24Z" class="g3_102" />
<path fill-rule="evenodd" d="M463,752l106,0l0,-24l-106,0l0,24Z" class="g3_102" />
<path fill-rule="evenodd" d="M577,752l103,0l0,-24l-103,0l0,24Z" class="g1_102" />
<path fill-rule="evenodd" d="M585,752l87,0l0,-24l-87,0l0,24Z" class="g1_102" />
<path fill-rule="evenodd" d="M680,752l76,0l0,-24l-76,0l0,24Z" class="g3_102" />
<path fill-rule="evenodd" d="M688,752l60,0l0,-24l-60,0l0,24Z" class="g3_102" />
<path d="M455.5,728.5l0,-1" class="g2_102" />
<path d="M456.5,728.5l121,0" class="g2_102" />
<path d="M577.5,728.5l0,-1" class="g2_102" />
<path d="M577.5,728.5l103,0" class="g2_102" />
<path d="M680.5,728.5l0,-1" class="g2_102" />
<path d="M681.5,728.5l75,0" class="g2_102" />
<path d="M756.5,728.5l0,-1" class="g2_102" />
<path d="M455.5,752.5l0,-24" class="g2_102" />
<path d="M577.5,752.5l0,-24" class="g2_102" />
<path d="M680.5,752.5l0,-24" class="g2_102" />
<path d="M756.5,752.5l0,-24" class="g2_102" />
<path fill-rule="evenodd" d="M756,777l124,0l0,-25l-124,0l0,25Z" class="g1_102" />
<path fill-rule="evenodd" d="M456,777l121,0l0,-24l-121,0l0,24Z" class="g3_102" />
<path fill-rule="evenodd" d="M463,777l106,0l0,-24l-106,0l0,24Z" class="g3_102" />
<path fill-rule="evenodd" d="M577,777l103,0l0,-24l-103,0l0,24Z" class="g1_102" />
<path fill-rule="evenodd" d="M585,777l87,0l0,-24l-87,0l0,24Z" class="g1_102" />
<path fill-rule="evenodd" d="M680,777l76,0l0,-24l-76,0l0,24Z" class="g3_102" />
<path fill-rule="evenodd" d="M688,777l60,0l0,-24l-60,0l0,24Z" class="g3_102" />
<path d="M455.5,753.5l0,-1" class="g2_102" />
<path d="M456.5,753.5l121,0" class="g2_102" />
<path d="M577.5,753.5l0,-1" class="g2_102" />
<path d="M577.5,753.5l103,0" class="g2_102" />
<path d="M680.5,753.5l0,-1" class="g2_102" />
<path d="M681.5,753.5l75,0" class="g2_102" />
<path d="M756.5,753.5l0,-1" class="g2_102" />
<path d="M455.5,777.5l0,-24" class="g2_102" />
<path d="M577.5,777.5l0,-24" class="g2_102" />
<path d="M680.5,777.5l0,-24" class="g2_102" />
<path d="M756.5,777.5l0,-24" class="g2_102" />
<path fill-rule="evenodd" d="M756,801l124,0l0,-24l-124,0l0,24Z" class="g1_102" />
<path fill-rule="evenodd" d="M456,801l121,0l0,-24l-121,0l0,24Z" class="g3_102" />
<path fill-rule="evenodd" d="M463,801l106,0l0,-24l-106,0l0,24Z" class="g3_102" />
<path fill-rule="evenodd" d="M577,801l103,0l0,-24l-103,0l0,24Z" class="g1_102" />
<path fill-rule="evenodd" d="M585,801l87,0l0,-24l-87,0l0,24Z" class="g1_102" />
<path fill-rule="evenodd" d="M680,801l76,0l0,-24l-76,0l0,24Z" class="g3_102" />
<path fill-rule="evenodd" d="M688,801l60,0l0,-24l-60,0l0,24Z" class="g3_102" />
<path d="M456.5,777.5l121,0" class="g2_102" />
<path d="M577.5,777.5l103,0" class="g2_102" />
<path d="M681.5,777.5l75,0" class="g2_102" />
<path d="M455.5,801.5l0,-24" class="g2_102" />
<path d="M577.5,801.5l0,-24" class="g2_102" />
<path d="M680.5,801.5l0,-24" class="g2_102" />
<path d="M756.5,801.5l0,-24" class="g2_102" />
<path fill-rule="evenodd" d="M756,826l124,0l0,-25l-124,0l0,25Z" class="g1_102" />
<path fill-rule="evenodd" d="M456,826l121,0l0,-24l-121,0l0,24Z" class="g3_102" />
<path fill-rule="evenodd" d="M463,826l106,0l0,-24l-106,0l0,24Z" class="g3_102" />
<path fill-rule="evenodd" d="M577,826l103,0l0,-24l-103,0l0,24Z" class="g1_102" />
<path fill-rule="evenodd" d="M585,826l87,0l0,-24l-87,0l0,24Z" class="g1_102" />
<path fill-rule="evenodd" d="M680,826l76,0l0,-24l-76,0l0,24Z" class="g3_102" />
<path fill-rule="evenodd" d="M688,826l60,0l0,-24l-60,0l0,24Z" class="g3_102" />
<path d="M455.5,802.5l0,-1" class="g2_102" />
<path d="M456.5,802.5l121,0" class="g2_102" />
<path d="M577.5,802.5l0,-1" class="g2_102" />
<path d="M577.5,802.5l103,0" class="g2_102" />
<path d="M680.5,802.5l0,-1" class="g2_102" />
<path d="M681.5,802.5l75,0" class="g2_102" />
<path d="M756.5,802.5l0,-1" class="g2_102" />
<path d="M455.5,826.5l0,-24" class="g2_102" />
<path d="M577.5,826.5l0,-24" class="g2_102" />
<path d="M680.5,826.5l0,-24" class="g2_102" />
<path d="M756.5,826.5l0,-24" class="g2_102" />
<path fill-rule="evenodd" d="M756,851l124,0l0,-25l-124,0l0,25Z" class="g1_102" />
<path fill-rule="evenodd" d="M456,851l121,0l0,-24l-121,0l0,24Z" class="g3_102" />
<path fill-rule="evenodd" d="M463,851l106,0l0,-24l-106,0l0,24Z" class="g3_102" />
<path fill-rule="evenodd" d="M577,851l103,0l0,-24l-103,0l0,24Z" class="g1_102" />
<path fill-rule="evenodd" d="M585,851l87,0l0,-24l-87,0l0,24Z" class="g1_102" />
<path fill-rule="evenodd" d="M680,851l76,0l0,-24l-76,0l0,24Z" class="g3_102" />
<path fill-rule="evenodd" d="M688,851l60,0l0,-24l-60,0l0,24Z" class="g3_102" />
<path d="M455.5,827.5l0,-1" class="g2_102" />
<path d="M456.5,827.5l121,0" class="g2_102" />
<path d="M577.5,827.5l0,-1" class="g2_102" />
<path d="M577.5,827.5l103,0" class="g2_102" />
<path d="M680.5,827.5l0,-1" class="g2_102" />
<path d="M681.5,827.5l75,0" class="g2_102" />
<path d="M756.5,827.5l0,-1" class="g2_102" />
<path d="M455.5,851.5l0,-24" class="g2_102" />
<path d="M577.5,851.5l0,-24" class="g2_102" />
<path d="M680.5,851.5l0,-24" class="g2_102" />
<path d="M756.5,851.5l0,-24" class="g2_102" />
<path fill-rule="evenodd" d="M756,875l124,0l0,-24l-124,0l0,24Z" class="g1_102" />
<path fill-rule="evenodd" d="M456,875l121,0l0,-24l-121,0l0,24Z" class="g3_102" />
<path fill-rule="evenodd" d="M463,875l106,0l0,-24l-106,0l0,24Z" class="g3_102" />
<path fill-rule="evenodd" d="M577,875l103,0l0,-24l-103,0l0,24Z" class="g1_102" />
<path fill-rule="evenodd" d="M585,875l87,0l0,-24l-87,0l0,24Z" class="g1_102" />
<path fill-rule="evenodd" d="M680,875l76,0l0,-24l-76,0l0,24Z" class="g3_102" />
<path fill-rule="evenodd" d="M688,875l60,0l0,-24l-60,0l0,24Z" class="g3_102" />
<path d="M456.5,851.5l121,0" class="g2_102" />
<path d="M577.5,851.5l103,0" class="g2_102" />
<path d="M681.5,851.5l75,0" class="g2_102" />
<path d="M455.5,875.5l0,-24" class="g2_102" />
<path d="M577.5,875.5l0,-24" class="g2_102" />
<path d="M680.5,875.5l0,-24" class="g2_102" />
<path d="M756.5,875.5l0,-24" class="g2_102" />
<path fill-rule="evenodd" d="M756,900l124,0l0,-25l-124,0l0,25Z" class="g1_102" />
<path fill-rule="evenodd" d="M456,900l121,0l0,-24l-121,0l0,24Z" class="g3_102" />
<path fill-rule="evenodd" d="M463,900l106,0l0,-24l-106,0l0,24Z" class="g3_102" />
<path fill-rule="evenodd" d="M577,900l103,0l0,-24l-103,0l0,24Z" class="g1_102" />
<path fill-rule="evenodd" d="M585,900l87,0l0,-24l-87,0l0,24Z" class="g1_102" />
<path fill-rule="evenodd" d="M680,900l76,0l0,-24l-76,0l0,24Z" class="g3_102" />
<path fill-rule="evenodd" d="M688,900l60,0l0,-24l-60,0l0,24Z" class="g3_102" />
<path d="M455.5,876.5l0,-1" class="g2_102" />
<path d="M456.5,876.5l121,0" class="g2_102" />
<path d="M577.5,876.5l0,-1" class="g2_102" />
<path d="M577.5,876.5l103,0" class="g2_102" />
<path d="M680.5,876.5l0,-1" class="g2_102" />
<path d="M681.5,876.5l75,0" class="g2_102" />
<path d="M756.5,876.5l0,-1" class="g2_102" />
<path d="M455.5,900.5l0,-24" class="g2_102" />
<path d="M577.5,900.5l0,-24" class="g2_102" />
<path d="M680.5,900.5l0,-24" class="g2_102" />
<path d="M756.5,900.5l0,-24" class="g2_102" />
<path fill-rule="evenodd" d="M756,925l124,0l0,-25l-124,0l0,25Z" class="g1_102" />
<path fill-rule="evenodd" d="M456,924l121,0l0,-23l-121,0l0,23Z" class="g3_102" />
<path fill-rule="evenodd" d="M463,924l106,0l0,-23l-106,0l0,23Z" class="g3_102" />
<path fill-rule="evenodd" d="M577,924l103,0l0,-23l-103,0l0,23Z" class="g1_102" />
<path fill-rule="evenodd" d="M585,924l87,0l0,-23l-87,0l0,23Z" class="g1_102" />
<path fill-rule="evenodd" d="M680,924l76,0l0,-23l-76,0l0,23Z" class="g3_102" />
<path fill-rule="evenodd" d="M688,924l60,0l0,-23l-60,0l0,23Z" class="g3_102" />
<path d="M455.5,901.5l0,-1" class="g2_102" />
<path d="M456.5,901.5l121,0" class="g2_102" />
<path d="M577.5,901.5l0,-1" class="g2_102" />
<path d="M577.5,901.5l103,0" class="g2_102" />
<path d="M680.5,901.5l0,-1" class="g2_102" />
<path d="M681.5,901.5l75,0" class="g2_102" />
<path d="M756.5,901.5l0,-1" class="g2_102" />
<path d="M455.5,924.5l0,-23" class="g2_102" />
<path d="M455.5,925.5l0,-1" class="g2_102" />
<path d="M455.5,925.5l0,-1" class="g2_102" />
<path d="M456.5,925.5l121,0" class="g2_102" />
<path d="M577.5,924.5l0,-23" class="g2_102" />
<path d="M577.5,925.5l0,-1" class="g2_102" />
<path d="M577.5,925.5l103,0" class="g2_102" />
<path d="M680.5,924.5l0,-23" class="g2_102" />
<path d="M680.5,925.5l0,-1" class="g2_102" />
<path d="M681.5,925.5l75,0" class="g2_102" />
<path d="M756.5,924.5l0,-23" class="g2_102" />
<path d="M756.5,925.5l0,-1" class="g2_102" />
<path d="M756.5,925.5l0,-1" class="g2_102" />
<path fill-rule="evenodd" d="M455,949l425,0l0,-24l-425,0l0,24Z" class="g1_102" />
<path fill-rule="evenodd" d="M455,973l425,0l0,-24l-425,0l0,24Z" class="g1_102" />
<path fill-rule="evenodd" d="M455,997l425,0l0,-24l-425,0l0,24Z" class="g1_102" />
<path d="M455.5,992.5l422,0" class="g4_102" />
<path fill-rule="evenodd" d="M455,1020l425,0l0,-23l-425,0l0,23Z" class="g1_102" />
<path d="M455.5,1016.5l257,0" class="g4_102" />
<path fill-rule="evenodd" d="M455,1044l425,0l0,-24l-425,0l0,24Z" class="g1_102" />
<path fill-rule="evenodd" d="M455,1068l425,0l0,-24l-425,0l0,24Z" class="g1_102" />
<g clip-path="url(#c6_102)">
<path fill-rule="evenodd" d="M455,1092l425,0l0,-24l-425,0l0,24Z" class="g1_102" />
</g>
<path d="M46.5,614.5l0,-1" class="g5_102" />
<path d="M80.5,614.5l0,-1" class="g5_102" />
<path d="M114.5,614.5l0,-1" class="g5_102" />
<path d="M149.5,614.5l0,-1" class="g5_102" />
<path d="M150.5,614.5l145,0" class="g5_102" />
<path d="M295.5,614.5l0,-1" class="g5_102" />
<path d="M296.5,614.5l81,0" class="g5_102" />
<path d="M377.5,614.5l0,-1" class="g5_102" />
<path d="M379.5,614.5l67,0" class="g5_102" />
<path d="M446.5,614.5l0,-1" class="g5_102" />
<path d="M447.5,614.5l440,0" class="g5_102" />
<path d="M887.5,614.5l0,-1" class="g5_102" />
<path d="M46.5,1092.5l0,-478" class="g5_102" />
<path d="M46.5,1094.5l0,-2" class="g5_102" />
<path d="M46.5,1094.5l0,-2" class="g5_102" />
<path d="M47.5,1094.5l33,0" class="g5_102" />
<path d="M80.5,1092.5l0,-478" class="g5_102" />
<path d="M80.5,1094.5l0,-2" class="g5_102" />
<path d="M81.5,1094.5l33,0" class="g5_102" />
<path d="M114.5,1092.5l0,-478" class="g5_102" />
<path d="M114.5,1094.5l0,-2" class="g5_102" />
<path d="M116.5,1094.5l33,0" class="g5_102" />
<path d="M149.5,1092.5l0,-478" class="g5_102" />
<path d="M149.5,1094.5l0,-2" class="g5_102" />
<path d="M150.5,1094.5l145,0" class="g5_102" />
<path d="M295.5,1092.5l0,-478" class="g5_102" />
<path d="M295.5,1094.5l0,-2" class="g5_102" />
<path d="M296.5,1094.5l81,0" class="g5_102" />
<path d="M377.5,1092.5l0,-478" class="g5_102" />
<path d="M377.5,1094.5l0,-2" class="g5_102" />
<path d="M379.5,1094.5l67,0" class="g5_102" />
<path d="M446.5,1092.5l0,-478" class="g5_102" />
<path d="M446.5,1094.5l0,-2" class="g5_102" />
<path d="M447.5,1094.5l440,0" class="g5_102" />
<path d="M887.5,1092.5l0,-478" class="g5_102" />
<path d="M887.5,1094.5l0,-2" class="g5_102" />
<path d="M887.5,1094.5l0,-2" class="g5_102" />
</svg>