<?xml version="1.0" encoding="UTF-8" standalone="no"?>
<!DOCTYPE svg PUBLIC "-//W3C//DTD SVG 1.1//EN"
"http://www.w3.org/Graphics/SVG/1.1/DTD/svg11.dtd">
<svg version="1.1" xmlns="http://www.w3.org/2000/svg" xmlns:xlink="http://www.w3.org/1999/xlink">
<defs>
<clipPath id="c0_115"><path d="M47.5,335.5l0,-24l840,0l0,24Z" /></clipPath>
<clipPath id="c1_115"><path d="M47.5,789.5l0,-24l301,0l0,24Z" /></clipPath>
<clipPath id="c2_115"><path d="M349.5,789.5l0,-24l101,0l0,24Z" /></clipPath>
<clipPath id="c3_115"><path d="M451.5,789.5l0,-24l74,0l0,24Z" /></clipPath>
<clipPath id="c4_115"><path d="M527.5,789.5l0,-24l360,0l0,24Z" /></clipPath>
<clipPath id="c5_115"><path d="M47.5,1037.5l0,-246l41,0l0,246Z" /></clipPath>
<clipPath id="c6_115"><path d="M90.5,917.5l0,-126l258,0l0,126Z" /></clipPath>
<clipPath id="c7_115"><path d="M349.5,917.5l0,-126l101,0l0,126Z" /></clipPath>
<clipPath id="c8_115"><path d="M451.5,917.5l0,-126l74,0l0,126Z" /></clipPath>
<clipPath id="c9_115"><path d="M527.5,917.5l0,-126l360,0l0,126Z" /></clipPath>
<clipPath id="c10_115"><path d="M527.5,1037.5l0,-119l360,0l0,119Z" /></clipPath>
<style type="text/css"><![CDATA[
.g2_115{
fill: none;
stroke: #7E7E7E;
stroke-width: 1;
stroke-linecap: butt;
stroke-linejoin: miter;
}
.g4_115{
fill: none;
stroke: #0000FF;
stroke-width: 1;
stroke-linecap: butt;
stroke-linejoin: miter;
}
.g3_115{
fill: #DBE5F1;
}
.g1_115{
fill: #F1F1F1;
}
]]></style>
</defs>
<path fill-rule="evenodd" d="M47,335l840,0l0,-24L47,311l0,24Z" class="g1_115" />
<g clip-path="url(#c0_115)">
<path fill-rule="evenodd" d="M55,335l825,0l0,-24L55,311l0,24Z" class="g1_115" />
</g>
<path d="M46.5,311.5l0,-1" class="g2_115" />
<path d="M46.5,311.5l0,-1" class="g2_115" />
<path d="M47.5,311.5l840,0" class="g2_115" />
<path d="M887.5,311.5l0,-1" class="g2_115" />
<path d="M887.5,311.5l0,-1" class="g2_115" />
<path d="M46.5,335.5l0,-24" class="g2_115" />
<path d="M46.5,336.5l0,-1" class="g2_115" />
<path d="M46.5,336.5l0,-1" class="g2_115" />
<path d="M47.5,336.5l840,0" class="g2_115" />
<path d="M887.5,335.5l0,-24" class="g2_115" />
<path d="M887.5,336.5l0,-1" class="g2_115" />
<path d="M887.5,336.5l0,-1" class="g2_115" />
<path fill-rule="evenodd" d="M47,442l178,0l0,-24L47,418l0,24Z" class="g3_115" />
<path fill-rule="evenodd" d="M55,442l163,0l0,-24L55,418l0,24Z" class="g3_115" />
<path fill-rule="evenodd" d="M226,442l163,0l0,-24l-163,0l0,24Z" class="g3_115" />
<path fill-rule="evenodd" d="M234,442l148,0l0,-24l-148,0l0,24Z" class="g3_115" />
<path fill-rule="evenodd" d="M391,442l496,0l0,-24l-496,0l0,24Z" class="g3_115" />
<path fill-rule="evenodd" d="M398,442l482,0l0,-24l-482,0l0,24Z" class="g3_115" />
<path d="M46.5,418.5l0,-2" class="g2_115" />
<path d="M46.5,418.5l0,-2" class="g2_115" />
<path d="M47.5,418.5l178,0" class="g2_115" />
<path d="M225.5,418.5l0,-2" class="g2_115" />
<path d="M226.5,418.5l163,0" class="g2_115" />
<path d="M389.5,418.5l0,-2" class="g2_115" />
<path d="M391.5,418.5l496,0" class="g2_115" />
<path d="M887.5,418.5l0,-2" class="g2_115" />
<path d="M887.5,418.5l0,-2" class="g2_115" />
<path d="M46.5,442.5l0,-24" class="g2_115" />
<path d="M225.5,442.5l0,-24" class="g2_115" />
<path d="M389.5,442.5l0,-24" class="g2_115" />
<path d="M887.5,442.5l0,-24" class="g2_115" />
<path fill-rule="evenodd" d="M47,467l178,0l0,-24L47,443l0,24Z" class="g1_115" />
<path fill-rule="evenodd" d="M55,467l163,0l0,-24L55,443l0,24Z" class="g1_115" />
<path fill-rule="evenodd" d="M226,467l163,0l0,-24l-163,0l0,24Z" class="g1_115" />
<path fill-rule="evenodd" d="M234,467l148,0l0,-24l-148,0l0,24Z" class="g1_115" />
<path fill-rule="evenodd" d="M391,467l496,0l0,-24l-496,0l0,24Z" class="g1_115" />
<path fill-rule="evenodd" d="M398,467l482,0l0,-24l-482,0l0,24Z" class="g1_115" />
<path d="M46.5,443.5l0,-1" class="g2_115" />
<path d="M47.5,443.5l178,0" class="g2_115" />
<path d="M225.5,443.5l0,-1" class="g2_115" />
<path d="M226.5,443.5l163,0" class="g2_115" />
<path d="M389.5,443.5l0,-1" class="g2_115" />
<path d="M391.5,443.5l496,0" class="g2_115" />
<path d="M887.5,443.5l0,-1" class="g2_115" />
<path d="M46.5,467.5l0,-24" class="g2_115" />
<path d="M225.5,467.5l0,-24" class="g2_115" />
<path d="M389.5,467.5l0,-24" class="g2_115" />
<path d="M887.5,467.5l0,-24" class="g2_115" />
<path fill-rule="evenodd" d="M47,493l178,0l0,-24L47,469l0,24Z" class="g1_115" />
<path fill-rule="evenodd" d="M55,493l163,0l0,-24L55,469l0,24Z" class="g1_115" />
<path fill-rule="evenodd" d="M226,493l163,0l0,-24l-163,0l0,24Z" class="g1_115" />
<path fill-rule="evenodd" d="M234,493l148,0l0,-24l-148,0l0,24Z" class="g1_115" />
<path fill-rule="evenodd" d="M391,493l496,0l0,-24l-496,0l0,24Z" class="g1_115" />
<path fill-rule="evenodd" d="M398,493l482,0l0,-24l-482,0l0,24Z" class="g1_115" />
<path d="M46.5,469.5l0,-2" class="g2_115" />
<path d="M47.5,469.5l178,0" class="g2_115" />
<path d="M225.5,469.5l0,-2" class="g2_115" />
<path d="M226.5,469.5l163,0" class="g2_115" />
<path d="M389.5,469.5l0,-2" class="g2_115" />
<path d="M391.5,469.5l496,0" class="g2_115" />
<path d="M887.5,469.5l0,-2" class="g2_115" />
<path d="M46.5,493.5l0,-24" class="g2_115" />
<path d="M225.5,493.5l0,-24" class="g2_115" />
<path d="M389.5,493.5l0,-24" class="g2_115" />
<path d="M887.5,493.5l0,-24" class="g2_115" />
<path fill-rule="evenodd" d="M47,518l178,0l0,-24L47,494l0,24Z" class="g1_115" />
<path fill-rule="evenodd" d="M55,518l163,0l0,-24L55,494l0,24Z" class="g1_115" />
<path fill-rule="evenodd" d="M226,518l163,0l0,-24l-163,0l0,24Z" class="g1_115" />
<path fill-rule="evenodd" d="M234,518l148,0l0,-24l-148,0l0,24Z" class="g1_115" />
<path fill-rule="evenodd" d="M391,518l496,0l0,-24l-496,0l0,24Z" class="g1_115" />
<path fill-rule="evenodd" d="M398,518l482,0l0,-24l-482,0l0,24Z" class="g1_115" />
<path d="M46.5,494.5l0,-1" class="g2_115" />
<path d="M47.5,494.5l178,0" class="g2_115" />
<path d="M225.5,494.5l0,-1" class="g2_115" />
<path d="M226.5,494.5l163,0" class="g2_115" />
<path d="M389.5,494.5l0,-1" class="g2_115" />
<path d="M391.5,494.5l496,0" class="g2_115" />
<path d="M887.5,494.5l0,-1" class="g2_115" />
<path d="M46.5,518.5l0,-24" class="g2_115" />
<path d="M46.5,520.5l0,-2" class="g2_115" />
<path d="M46.5,520.5l0,-2" class="g2_115" />
<path d="M47.5,520.5l178,0" class="g2_115" />
<path d="M225.5,518.5l0,-24" class="g2_115" />
<path d="M225.5,520.5l0,-2" class="g2_115" />
<path d="M226.5,520.5l163,0" class="g2_115" />
<path d="M389.5,518.5l0,-24" class="g2_115" />
<path d="M389.5,520.5l0,-2" class="g2_115" />
<path d="M391.5,520.5l496,0" class="g2_115" />
<path d="M887.5,518.5l0,-24" class="g2_115" />
<path d="M887.5,520.5l0,-2" class="g2_115" />
<path d="M887.5,520.5l0,-2" class="g2_115" />
<path fill-rule="evenodd" d="M47,592l177,0l0,-23L47,569l0,23Z" class="g3_115" />
<path fill-rule="evenodd" d="M55,592l162,0l0,-23L55,569l0,23Z" class="g3_115" />
<path fill-rule="evenodd" d="M226,592l162,0l0,-23l-162,0l0,23Z" class="g3_115" />
<path fill-rule="evenodd" d="M233,592l148,0l0,-23l-148,0l0,23Z" class="g3_115" />
<path fill-rule="evenodd" d="M390,592l163,0l0,-23l-163,0l0,23Z" class="g3_115" />
<path fill-rule="evenodd" d="M397,592l148,0l0,-23l-148,0l0,23Z" class="g3_115" />
<path fill-rule="evenodd" d="M554,592l163,0l0,-23l-163,0l0,23Z" class="g3_115" />
<path fill-rule="evenodd" d="M562,592l148,0l0,-23l-148,0l0,23Z" class="g3_115" />
<path fill-rule="evenodd" d="M719,592l168,0l0,-23l-168,0l0,23Z" class="g3_115" />
<path fill-rule="evenodd" d="M726,592l154,0l0,-23l-154,0l0,23Z" class="g3_115" />
<path d="M46.5,569.5l0,-2" class="g2_115" />
<path d="M46.5,569.5l0,-2" class="g2_115" />
<path d="M47.5,569.5l177,0" class="g2_115" />
<path d="M224.5,569.5l0,-2" class="g2_115" />
<path d="M226.5,569.5l162,0" class="g2_115" />
<path d="M388.5,569.5l0,-2" class="g2_115" />
<path d="M390.5,569.5l163,0" class="g2_115" />
<path d="M553.5,569.5l0,-2" class="g2_115" />
<path d="M554.5,569.5l163,0" class="g2_115" />
<path d="M717.5,569.5l0,-2" class="g2_115" />
<path d="M719.5,569.5l168,0" class="g2_115" />
<path d="M887.5,569.5l0,-2" class="g2_115" />
<path d="M887.5,569.5l0,-2" class="g2_115" />
<path d="M46.5,592.5l0,-23" class="g2_115" />
<path d="M224.5,592.5l0,-23" class="g2_115" />
<path d="M388.5,592.5l0,-23" class="g2_115" />
<path d="M553.5,592.5l0,-23" class="g2_115" />
<path d="M717.5,592.5l0,-23" class="g2_115" />
<path d="M887.5,592.5l0,-23" class="g2_115" />
<path fill-rule="evenodd" d="M47,618l177,0l0,-24L47,594l0,24Z" class="g1_115" />
<path fill-rule="evenodd" d="M55,618l162,0l0,-24L55,594l0,24Z" class="g1_115" />
<path fill-rule="evenodd" d="M226,618l162,0l0,-24l-162,0l0,24Z" class="g1_115" />
<path fill-rule="evenodd" d="M233,618l148,0l0,-24l-148,0l0,24Z" class="g1_115" />
<path fill-rule="evenodd" d="M390,618l163,0l0,-24l-163,0l0,24Z" class="g1_115" />
<path fill-rule="evenodd" d="M397,618l148,0l0,-24l-148,0l0,24Z" class="g1_115" />
<path fill-rule="evenodd" d="M554,618l163,0l0,-24l-163,0l0,24Z" class="g1_115" />
<path fill-rule="evenodd" d="M562,618l148,0l0,-24l-148,0l0,24Z" class="g1_115" />
<path fill-rule="evenodd" d="M719,618l168,0l0,-24l-168,0l0,24Z" class="g1_115" />
<path fill-rule="evenodd" d="M726,618l154,0l0,-24l-154,0l0,24Z" class="g1_115" />
<path d="M46.5,594.5l0,-2" class="g2_115" />
<path d="M47.5,594.5l177,0" class="g2_115" />
<path d="M224.5,594.5l0,-2" class="g2_115" />
<path d="M226.5,594.5l162,0" class="g2_115" />
<path d="M388.5,594.5l0,-2" class="g2_115" />
<path d="M390.5,594.5l163,0" class="g2_115" />
<path d="M553.5,594.5l0,-2" class="g2_115" />
<path d="M554.5,594.5l163,0" class="g2_115" />
<path d="M717.5,594.5l0,-2" class="g2_115" />
<path d="M719.5,594.5l168,0" class="g2_115" />
<path d="M887.5,594.5l0,-2" class="g2_115" />
<path d="M46.5,618.5l0,-24" class="g2_115" />
<path d="M46.5,619.5l0,-1" class="g2_115" />
<path d="M46.5,619.5l0,-1" class="g2_115" />
<path d="M47.5,619.5l177,0" class="g2_115" />
<path d="M224.5,618.5l0,-24" class="g2_115" />
<path d="M224.5,619.5l0,-1" class="g2_115" />
<path d="M226.5,619.5l162,0" class="g2_115" />
<path d="M388.5,618.5l0,-24" class="g2_115" />
<path d="M388.5,619.5l0,-1" class="g2_115" />
<path d="M390.5,619.5l163,0" class="g2_115" />
<path d="M553.5,618.5l0,-24" class="g2_115" />
<path d="M553.5,619.5l0,-1" class="g2_115" />
<path d="M554.5,619.5l163,0" class="g2_115" />
<path d="M717.5,618.5l0,-24" class="g2_115" />
<path d="M717.5,619.5l0,-1" class="g2_115" />
<path d="M719.5,619.5l168,0" class="g2_115" />
<path d="M887.5,618.5l0,-24" class="g2_115" />
<path d="M887.5,619.5l0,-1" class="g2_115" />
<path d="M887.5,619.5l0,-1" class="g2_115" />
<path fill-rule="evenodd" d="M47,789l301,0l0,-24L47,765l0,24Z" class="g3_115" />
<g clip-path="url(#c1_115)">
<path fill-rule="evenodd" d="M55,789l285,0l0,-24L55,765l0,24Z" class="g3_115" />
</g>
<path fill-rule="evenodd" d="M349,789l101,0l0,-24l-101,0l0,24Z" class="g3_115" />
<g clip-path="url(#c2_115)">
<path fill-rule="evenodd" d="M357,789l86,0l0,-24l-86,0l0,24Z" class="g3_115" />
</g>
<path fill-rule="evenodd" d="M451,789l74,0l0,-24l-74,0l0,24Z" class="g3_115" />
<g clip-path="url(#c3_115)">
<path fill-rule="evenodd" d="M459,789l59,0l0,-24l-59,0l0,24Z" class="g3_115" />
</g>
<path fill-rule="evenodd" d="M527,789l360,0l0,-24l-360,0l0,24Z" class="g3_115" />
<g clip-path="url(#c4_115)">
<path fill-rule="evenodd" d="M534,789l346,0l0,-24l-346,0l0,24Z" class="g3_115" />
</g>
<path d="M46.5,765.5l0,-1" class="g2_115" />
<path d="M46.5,765.5l0,-1" class="g2_115" />
<path d="M47.5,765.5l301,0" class="g2_115" />
<path d="M348.5,765.5l0,-1" class="g2_115" />
<path d="M349.5,765.5l101,0" class="g2_115" />
<path d="M450.5,765.5l0,-1" class="g2_115" />
<path d="M451.5,765.5l74,0" class="g2_115" />
<path d="M525.5,765.5l0,-1" class="g2_115" />
<path d="M527.5,765.5l360,0" class="g2_115" />
<path d="M887.5,765.5l0,-1" class="g2_115" />
<path d="M887.5,765.5l0,-1" class="g2_115" />
<path d="M46.5,789.5l0,-24" class="g2_115" />
<path d="M348.5,789.5l0,-24" class="g2_115" />
<path d="M450.5,789.5l0,-24" class="g2_115" />
<path d="M525.5,789.5l0,-24" class="g2_115" />
<path d="M887.5,789.5l0,-24" class="g2_115" />
<path fill-rule="evenodd" d="M47,1038l41,0L88,791l-41,0l0,247Z" class="g1_115" />
<g clip-path="url(#c5_115)">
<path fill-rule="evenodd" d="M55,1038l23,0L78,791l-23,0l0,247Z" class="g1_115" />
</g>
<path fill-rule="evenodd" d="M90,917l258,0l0,-126L90,791l0,126Z" class="g1_115" />
<g clip-path="url(#c6_115)">
<path fill-rule="evenodd" d="M97,815l243,0l0,-24L97,791l0,24Z" class="g1_115" />
</g>
<path fill-rule="evenodd" d="M349,917l101,0l0,-126l-101,0l0,126Z" class="g1_115" />
<g clip-path="url(#c7_115)">
<path fill-rule="evenodd" d="M357,815l86,0l0,-24l-86,0l0,24Z" class="g1_115" />
</g>
<path fill-rule="evenodd" d="M451,917l74,0l0,-126l-74,0l0,126Z" class="g1_115" />
<g clip-path="url(#c8_115)">
<path fill-rule="evenodd" d="M459,815l59,0l0,-24l-59,0l0,24Z" class="g1_115" />
</g>
<path fill-rule="evenodd" d="M527,917l360,0l0,-126l-360,0l0,126Z" class="g1_115" />
<g clip-path="url(#c9_115)">
<path fill-rule="evenodd" d="M534,815l346,0l0,-24l-346,0l0,24Z" class="g1_115" />
</g>
<path fill-rule="evenodd" d="M534,842l346,0l0,-27l-346,0l0,27Z" class="g1_115" />
<path fill-rule="evenodd" d="M534,866l346,0l0,-24l-346,0l0,24Z" class="g1_115" />
<path d="M857.5,860.5l23,0" class="g4_115" />
<path fill-rule="evenodd" d="M534,889l346,0l0,-23l-346,0l0,23Z" class="g1_115" />
<path d="M534.5,883.5l328,0" class="g4_115" />
<path fill-rule="evenodd" d="M534,917l346,0l0,-28l-346,0l0,28Z" class="g1_115" />
<path d="M46.5,791.5l0,-2" class="g2_115" />
<path d="M47.5,791.5l41,0" class="g2_115" />
<path d="M88.5,791.5l0,-2" class="g2_115" />
<path d="M90.5,791.5l258,0" class="g2_115" />
<path d="M348.5,791.5l0,-2" class="g2_115" />
<path d="M349.5,791.5l101,0" class="g2_115" />
<path d="M450.5,791.5l0,-2" class="g2_115" />
<path d="M451.5,791.5l74,0" class="g2_115" />
<path d="M525.5,791.5l0,-2" class="g2_115" />
<path d="M527.5,791.5l360,0" class="g2_115" />
<path d="M887.5,791.5l0,-2" class="g2_115" />
<path d="M46.5,917.5l0,-126" class="g2_115" />
<path d="M88.5,917.5l0,-126" class="g2_115" />
<path d="M348.5,917.5l0,-126" class="g2_115" />
<path d="M450.5,917.5l0,-126" class="g2_115" />
<path d="M525.5,917.5l0,-126" class="g2_115" />
<path d="M887.5,917.5l0,-126" class="g2_115" />
<path fill-rule="evenodd" d="M90,1038l258,0l0,-120L90,918l0,120Z" class="g1_115" />
<path fill-rule="evenodd" d="M97,942l243,0l0,-24L97,918l0,24Z" class="g1_115" />
<path fill-rule="evenodd" d="M349,1038l101,0l0,-120l-101,0l0,120Z" class="g1_115" />
<path fill-rule="evenodd" d="M357,942l86,0l0,-24l-86,0l0,24Z" class="g1_115" />
<path fill-rule="evenodd" d="M451,1038l74,0l0,-120l-74,0l0,120Z" class="g1_115" />
<path fill-rule="evenodd" d="M459,942l59,0l0,-24l-59,0l0,24Z" class="g1_115" />
<path fill-rule="evenodd" d="M527,1038l360,0l0,-120l-360,0l0,120Z" class="g1_115" />
<path fill-rule="evenodd" d="M534,942l346,0l0,-24l-346,0l0,24Z" class="g1_115" />
<path fill-rule="evenodd" d="M534,966l346,0l0,-24l-346,0l0,24Z" class="g1_115" />
<path fill-rule="evenodd" d="M534,990l346,0l0,-24l-346,0l0,24Z" class="g1_115" />
<path fill-rule="evenodd" d="M534,1014l346,0l0,-24l-346,0l0,24Z" class="g1_115" />
<g clip-path="url(#c10_115)">
<path fill-rule="evenodd" d="M534,1038l346,0l0,-24l-346,0l0,24Z" class="g1_115" />
</g>
<path d="M46.5,918.5l0,-1" class="g2_115" />
<path d="M88.5,918.5l0,-1" class="g2_115" />
<path d="M90.5,918.5l258,0" class="g2_115" />
<path d="M348.5,918.5l0,-1" class="g2_115" />
<path d="M349.5,918.5l101,0" class="g2_115" />
<path d="M450.5,918.5l0,-1" class="g2_115" />
<path d="M451.5,918.5l74,0" class="g2_115" />
<path d="M525.5,918.5l0,-1" class="g2_115" />
<path d="M527.5,918.5l360,0" class="g2_115" />
<path d="M887.5,918.5l0,-1" class="g2_115" />
<path d="M46.5,1038.5l0,-120" class="g2_115" />
<path d="M46.5,1039.5l0,-1" class="g2_115" />
<path d="M46.5,1039.5l0,-1" class="g2_115" />
<path d="M47.5,1039.5l41,0" class="g2_115" />
<path d="M88.5,1038.5l0,-120" class="g2_115" />
<path d="M88.5,1039.5l0,-1" class="g2_115" />
<path d="M90.5,1039.5l258,0" class="g2_115" />
<path d="M348.5,1038.5l0,-120" class="g2_115" />
<path d="M348.5,1039.5l0,-1" class="g2_115" />
<path d="M349.5,1039.5l101,0" class="g2_115" />
<path d="M450.5,1038.5l0,-120" class="g2_115" />
<path d="M450.5,1039.5l0,-1" class="g2_115" />
<path d="M451.5,1039.5l74,0" class="g2_115" />
<path d="M525.5,1038.5l0,-120" class="g2_115" />
<path d="M525.5,1039.5l0,-1" class="g2_115" />
<path d="M527.5,1039.5l360,0" class="g2_115" />
<path d="M887.5,1038.5l0,-120" class="g2_115" />
<path d="M887.5,1039.5l0,-1" class="g2_115" />
<path d="M887.5,1039.5l0,-1" class="g2_115" />
</svg>