<?xml version="1.0" encoding="UTF-8" standalone="no"?>
<!DOCTYPE svg PUBLIC "-//W3C//DTD SVG 1.1//EN"
"http://www.w3.org/Graphics/SVG/1.1/DTD/svg11.dtd">
<svg version="1.1" xmlns="http://www.w3.org/2000/svg" xmlns:xlink="http://www.w3.org/1999/xlink">
<defs>
<clipPath id="c0_326"><path d="M210.5,683.5l0,-572l269,0l0,572Z" /></clipPath>
<clipPath id="c1_326"><path d="M481.5,683.5l0,-572l73,0l0,572Z" /></clipPath>
<clipPath id="c2_326"><path d="M555.5,683.5l0,-572l332,0l0,572Z" /></clipPath>
<clipPath id="c3_326"><path d="M210.5,709.5l0,-24l269,0l0,24Z" /></clipPath>
<clipPath id="c4_326"><path d="M481.5,709.5l0,-24l73,0l0,24Z" /></clipPath>
<clipPath id="c5_326"><path d="M555.5,709.5l0,-24l332,0l0,24Z" /></clipPath>
<clipPath id="c6_326"><path d="M210.5,734.5l0,-24l269,0l0,24Z" /></clipPath>
<clipPath id="c7_326"><path d="M481.5,734.5l0,-24l73,0l0,24Z" /></clipPath>
<clipPath id="c8_326"><path d="M555.5,734.5l0,-24l332,0l0,24Z" /></clipPath>
<clipPath id="c9_326"><path d="M210.5,759.5l0,-24l269,0l0,24Z" /></clipPath>
<clipPath id="c10_326"><path d="M481.5,759.5l0,-24l73,0l0,24Z" /></clipPath>
<clipPath id="c11_326"><path d="M555.5,759.5l0,-24l332,0l0,24Z" /></clipPath>
<clipPath id="c12_326"><path d="M210.5,808.5l0,-47l269,0l0,47Z" /></clipPath>
<clipPath id="c13_326"><path d="M481.5,808.5l0,-47l73,0l0,47Z" /></clipPath>
<clipPath id="c14_326"><path d="M555.5,808.5l0,-47l332,0l0,47Z" /></clipPath>
<clipPath id="c15_326"><path d="M210.5,858.5l0,-48l269,0l0,48Z" /></clipPath>
<clipPath id="c16_326"><path d="M481.5,858.5l0,-48l73,0l0,48Z" /></clipPath>
<clipPath id="c17_326"><path d="M555.5,858.5l0,-48l332,0l0,48Z" /></clipPath>
<clipPath id="c18_326"><path d="M210.5,883.5l0,-24l269,0l0,24Z" /></clipPath>
<clipPath id="c19_326"><path d="M481.5,883.5l0,-24l73,0l0,24Z" /></clipPath>
<clipPath id="c20_326"><path d="M555.5,883.5l0,-24l332,0l0,24Z" /></clipPath>
<clipPath id="c21_326"><path d="M210.5,908.5l0,-23l269,0l0,23Z" /></clipPath>
<clipPath id="c22_326"><path d="M481.5,908.5l0,-23l73,0l0,23Z" /></clipPath>
<clipPath id="c23_326"><path d="M555.5,908.5l0,-23l332,0l0,23Z" /></clipPath>
<clipPath id="c24_326"><path d="M210.5,934.5l0,-24l269,0l0,24Z" /></clipPath>
<clipPath id="c25_326"><path d="M481.5,934.5l0,-24l73,0l0,24Z" /></clipPath>
<clipPath id="c26_326"><path d="M555.5,934.5l0,-24l332,0l0,24Z" /></clipPath>
<clipPath id="c27_326"><path d="M555.5,983.5l0,-48l332,0l0,48Z" /></clipPath>
<clipPath id="c28_326"><path d="M210.5,1008.5l0,-23l269,0l0,23Z" /></clipPath>
<clipPath id="c29_326"><path d="M481.5,1008.5l0,-23l73,0l0,23Z" /></clipPath>
<clipPath id="c30_326"><path d="M555.5,1008.5l0,-23l332,0l0,23Z" /></clipPath>
<clipPath id="c31_326"><path d="M210.5,1034.5l0,-24l269,0l0,24Z" /></clipPath>
<clipPath id="c32_326"><path d="M481.5,1034.5l0,-24l73,0l0,24Z" /></clipPath>
<clipPath id="c33_326"><path d="M555.5,1034.5l0,-24l332,0l0,24Z" /></clipPath>
<style type="text/css"><![CDATA[
.g2_326{
fill: none;
stroke: #7E7E7E;
stroke-width: 1;
stroke-linecap: butt;
stroke-linejoin: miter;
}
.g1_326{
fill: #F1F1F1;
}
]]></style>
</defs>
<path fill-rule="evenodd" d="M47,683l39,0L86,111l-39,0l0,572Z" class="g1_326" />
<path fill-rule="evenodd" d="M88,683l39,0l0,-572l-39,0l0,572Z" class="g1_326" />
<path fill-rule="evenodd" d="M129,683l39,0l0,-572l-39,0l0,572Z" class="g1_326" />
<path fill-rule="evenodd" d="M169,683l40,0l0,-572l-40,0l0,572Z" class="g1_326" />
<path fill-rule="evenodd" d="M210,683l269,0l0,-572l-269,0l0,572Z" class="g1_326" />
<g clip-path="url(#c0_326)">
<path fill-rule="evenodd" d="M218,135l254,0l0,-24l-254,0l0,24Z" class="g1_326" />
</g>
<path fill-rule="evenodd" d="M481,683l73,0l0,-572l-73,0l0,572Z" class="g1_326" />
<g clip-path="url(#c1_326)">
<path fill-rule="evenodd" d="M488,135l58,0l0,-24l-58,0l0,24Z" class="g1_326" />
</g>
<path fill-rule="evenodd" d="M555,683l332,0l0,-572l-332,0l0,572Z" class="g1_326" />
<g clip-path="url(#c2_326)">
<path fill-rule="evenodd" d="M563,135l317,0l0,-24l-317,0l0,24Z" class="g1_326" />
</g>
<path fill-rule="evenodd" d="M563,159l317,0l0,-24l-317,0l0,24Z" class="g1_326" />
<path fill-rule="evenodd" d="M563,182l317,0l0,-23l-317,0l0,23Z" class="g1_326" />
<path fill-rule="evenodd" d="M563,206l317,0l0,-24l-317,0l0,24Z" class="g1_326" />
<path fill-rule="evenodd" d="M563,230l317,0l0,-24l-317,0l0,24Z" class="g1_326" />
<path fill-rule="evenodd" d="M563,254l317,0l0,-24l-317,0l0,24Z" class="g1_326" />
<path fill-rule="evenodd" d="M563,278l317,0l0,-24l-317,0l0,24Z" class="g1_326" />
<path fill-rule="evenodd" d="M563,302l317,0l0,-24l-317,0l0,24Z" class="g1_326" />
<path fill-rule="evenodd" d="M563,325l317,0l0,-23l-317,0l0,23Z" class="g1_326" />
<path fill-rule="evenodd" d="M563,349l317,0l0,-24l-317,0l0,24Z" class="g1_326" />
<path fill-rule="evenodd" d="M563,373l317,0l0,-24l-317,0l0,24Z" class="g1_326" />
<path fill-rule="evenodd" d="M563,397l317,0l0,-24l-317,0l0,24Z" class="g1_326" />
<path fill-rule="evenodd" d="M563,421l317,0l0,-24l-317,0l0,24Z" class="g1_326" />
<path fill-rule="evenodd" d="M563,445l317,0l0,-24l-317,0l0,24Z" class="g1_326" />
<path fill-rule="evenodd" d="M563,469l317,0l0,-24l-317,0l0,24Z" class="g1_326" />
<path fill-rule="evenodd" d="M563,492l317,0l0,-23l-317,0l0,23Z" class="g1_326" />
<path fill-rule="evenodd" d="M563,516l317,0l0,-24l-317,0l0,24Z" class="g1_326" />
<path fill-rule="evenodd" d="M563,540l317,0l0,-24l-317,0l0,24Z" class="g1_326" />
<path fill-rule="evenodd" d="M563,564l317,0l0,-24l-317,0l0,24Z" class="g1_326" />
<path fill-rule="evenodd" d="M563,588l317,0l0,-24l-317,0l0,24Z" class="g1_326" />
<path fill-rule="evenodd" d="M563,612l317,0l0,-24l-317,0l0,24Z" class="g1_326" />
<path fill-rule="evenodd" d="M563,635l317,0l0,-23l-317,0l0,23Z" class="g1_326" />
<path fill-rule="evenodd" d="M563,659l317,0l0,-24l-317,0l0,24Z" class="g1_326" />
<path fill-rule="evenodd" d="M563,683l317,0l0,-24l-317,0l0,24Z" class="g1_326" />
<path d="M46.5,111.5l0,-1" class="g2_326" />
<path d="M46.5,111.5l0,-1" class="g2_326" />
<path d="M47.5,111.5l39,0" class="g2_326" />
<path d="M86.5,111.5l0,-1" class="g2_326" />
<path d="M88.5,111.5l39,0" class="g2_326" />
<path d="M127.5,111.5l0,-1" class="g2_326" />
<path d="M129.5,111.5l39,0" class="g2_326" />
<path d="M168.5,111.5l0,-1" class="g2_326" />
<path d="M169.5,111.5l40,0" class="g2_326" />
<path d="M209.5,111.5l0,-1" class="g2_326" />
<path d="M210.5,111.5l269,0" class="g2_326" />
<path d="M479.5,111.5l0,-1" class="g2_326" />
<path d="M481.5,111.5l73,0" class="g2_326" />
<path d="M554.5,111.5l0,-1" class="g2_326" />
<path d="M555.5,111.5l332,0" class="g2_326" />
<path d="M887.5,111.5l0,-1" class="g2_326" />
<path d="M887.5,111.5l0,-1" class="g2_326" />
<path d="M46.5,683.5l0,-572" class="g2_326" />
<path d="M86.5,683.5l0,-572" class="g2_326" />
<path d="M127.5,683.5l0,-572" class="g2_326" />
<path d="M168.5,683.5l0,-572" class="g2_326" />
<path d="M209.5,683.5l0,-572" class="g2_326" />
<path d="M479.5,683.5l0,-572" class="g2_326" />
<path d="M554.5,683.5l0,-572" class="g2_326" />
<path d="M887.5,683.5l0,-572" class="g2_326" />
<path fill-rule="evenodd" d="M47,709l39,0l0,-26l-39,0l0,26Z" class="g1_326" />
<path fill-rule="evenodd" d="M88,709l39,0l0,-26l-39,0l0,26Z" class="g1_326" />
<path fill-rule="evenodd" d="M129,709l39,0l0,-26l-39,0l0,26Z" class="g1_326" />
<path fill-rule="evenodd" d="M169,709l40,0l0,-26l-40,0l0,26Z" class="g1_326" />
<path fill-rule="evenodd" d="M210,709l269,0l0,-24l-269,0l0,24Z" class="g1_326" />
<g clip-path="url(#c3_326)">
<path fill-rule="evenodd" d="M218,709l254,0l0,-24l-254,0l0,24Z" class="g1_326" />
</g>
<path fill-rule="evenodd" d="M481,709l73,0l0,-24l-73,0l0,24Z" class="g1_326" />
<g clip-path="url(#c4_326)">
<path fill-rule="evenodd" d="M488,709l58,0l0,-24l-58,0l0,24Z" class="g1_326" />
</g>
<path fill-rule="evenodd" d="M555,709l332,0l0,-24l-332,0l0,24Z" class="g1_326" />
<g clip-path="url(#c5_326)">
<path fill-rule="evenodd" d="M563,709l317,0l0,-24l-317,0l0,24Z" class="g1_326" />
</g>
<path d="M46.5,685.5l0,-2" class="g2_326" />
<path d="M86.5,685.5l0,-2" class="g2_326" />
<path d="M127.5,685.5l0,-2" class="g2_326" />
<path d="M168.5,685.5l0,-2" class="g2_326" />
<path d="M209.5,685.5l0,-2" class="g2_326" />
<path d="M210.5,685.5l269,0" class="g2_326" />
<path d="M479.5,685.5l0,-2" class="g2_326" />
<path d="M481.5,685.5l73,0" class="g2_326" />
<path d="M554.5,685.5l0,-2" class="g2_326" />
<path d="M555.5,685.5l332,0" class="g2_326" />
<path d="M887.5,685.5l0,-2" class="g2_326" />
<path d="M46.5,709.5l0,-24" class="g2_326" />
<path d="M86.5,709.5l0,-24" class="g2_326" />
<path d="M127.5,709.5l0,-24" class="g2_326" />
<path d="M168.5,709.5l0,-24" class="g2_326" />
<path d="M209.5,709.5l0,-24" class="g2_326" />
<path d="M479.5,709.5l0,-24" class="g2_326" />
<path d="M554.5,709.5l0,-24" class="g2_326" />
<path d="M887.5,709.5l0,-24" class="g2_326" />
<path fill-rule="evenodd" d="M47,734l39,0l0,-25l-39,0l0,25Z" class="g1_326" />
<path fill-rule="evenodd" d="M88,734l39,0l0,-25l-39,0l0,25Z" class="g1_326" />
<path fill-rule="evenodd" d="M129,734l39,0l0,-25l-39,0l0,25Z" class="g1_326" />
<path fill-rule="evenodd" d="M169,734l40,0l0,-25l-40,0l0,25Z" class="g1_326" />
<path fill-rule="evenodd" d="M210,734l269,0l0,-24l-269,0l0,24Z" class="g1_326" />
<g clip-path="url(#c6_326)">
<path fill-rule="evenodd" d="M218,734l254,0l0,-24l-254,0l0,24Z" class="g1_326" />
</g>
<path fill-rule="evenodd" d="M481,734l73,0l0,-24l-73,0l0,24Z" class="g1_326" />
<g clip-path="url(#c7_326)">
<path fill-rule="evenodd" d="M488,734l58,0l0,-24l-58,0l0,24Z" class="g1_326" />
</g>
<path fill-rule="evenodd" d="M555,734l332,0l0,-24l-332,0l0,24Z" class="g1_326" />
<g clip-path="url(#c8_326)">
<path fill-rule="evenodd" d="M563,734l317,0l0,-24l-317,0l0,24Z" class="g1_326" />
</g>
<path d="M46.5,710.5l0,-1" class="g2_326" />
<path d="M86.5,710.5l0,-1" class="g2_326" />
<path d="M127.5,710.5l0,-1" class="g2_326" />
<path d="M168.5,710.5l0,-1" class="g2_326" />
<path d="M209.5,710.5l0,-1" class="g2_326" />
<path d="M210.5,710.5l269,0" class="g2_326" />
<path d="M479.5,710.5l0,-1" class="g2_326" />
<path d="M481.5,710.5l73,0" class="g2_326" />
<path d="M554.5,710.5l0,-1" class="g2_326" />
<path d="M555.5,710.5l332,0" class="g2_326" />
<path d="M887.5,710.5l0,-1" class="g2_326" />
<path d="M46.5,734.5l0,-24" class="g2_326" />
<path d="M86.5,734.5l0,-24" class="g2_326" />
<path d="M127.5,734.5l0,-24" class="g2_326" />
<path d="M168.5,734.5l0,-24" class="g2_326" />
<path d="M209.5,734.5l0,-24" class="g2_326" />
<path d="M479.5,734.5l0,-24" class="g2_326" />
<path d="M554.5,734.5l0,-24" class="g2_326" />
<path d="M887.5,734.5l0,-24" class="g2_326" />
<path fill-rule="evenodd" d="M47,759l39,0l0,-25l-39,0l0,25Z" class="g1_326" />
<path fill-rule="evenodd" d="M88,759l39,0l0,-25l-39,0l0,25Z" class="g1_326" />
<path fill-rule="evenodd" d="M129,759l39,0l0,-25l-39,0l0,25Z" class="g1_326" />
<path fill-rule="evenodd" d="M169,759l40,0l0,-25l-40,0l0,25Z" class="g1_326" />
<path fill-rule="evenodd" d="M210,759l269,0l0,-24l-269,0l0,24Z" class="g1_326" />
<g clip-path="url(#c9_326)">
<path fill-rule="evenodd" d="M218,759l254,0l0,-24l-254,0l0,24Z" class="g1_326" />
</g>
<path fill-rule="evenodd" d="M481,759l73,0l0,-24l-73,0l0,24Z" class="g1_326" />
<g clip-path="url(#c10_326)">
<path fill-rule="evenodd" d="M488,759l58,0l0,-24l-58,0l0,24Z" class="g1_326" />
</g>
<path fill-rule="evenodd" d="M555,759l332,0l0,-24l-332,0l0,24Z" class="g1_326" />
<g clip-path="url(#c11_326)">
<path fill-rule="evenodd" d="M563,759l317,0l0,-24l-317,0l0,24Z" class="g1_326" />
</g>
<path d="M46.5,735.5l0,-1" class="g2_326" />
<path d="M86.5,735.5l0,-1" class="g2_326" />
<path d="M127.5,735.5l0,-1" class="g2_326" />
<path d="M168.5,735.5l0,-1" class="g2_326" />
<path d="M209.5,735.5l0,-1" class="g2_326" />
<path d="M210.5,735.5l269,0" class="g2_326" />
<path d="M479.5,735.5l0,-1" class="g2_326" />
<path d="M481.5,735.5l73,0" class="g2_326" />
<path d="M554.5,735.5l0,-1" class="g2_326" />
<path d="M555.5,735.5l332,0" class="g2_326" />
<path d="M887.5,735.5l0,-1" class="g2_326" />
<path d="M46.5,759.5l0,-24" class="g2_326" />
<path d="M86.5,759.5l0,-24" class="g2_326" />
<path d="M127.5,759.5l0,-24" class="g2_326" />
<path d="M168.5,759.5l0,-24" class="g2_326" />
<path d="M209.5,759.5l0,-24" class="g2_326" />
<path d="M479.5,759.5l0,-24" class="g2_326" />
<path d="M554.5,759.5l0,-24" class="g2_326" />
<path d="M887.5,759.5l0,-24" class="g2_326" />
<path fill-rule="evenodd" d="M47,808l39,0l0,-49l-39,0l0,49Z" class="g1_326" />
<path fill-rule="evenodd" d="M88,808l39,0l0,-49l-39,0l0,49Z" class="g1_326" />
<path fill-rule="evenodd" d="M129,808l39,0l0,-49l-39,0l0,49Z" class="g1_326" />
<path fill-rule="evenodd" d="M169,808l40,0l0,-49l-40,0l0,49Z" class="g1_326" />
<path fill-rule="evenodd" d="M210,808l269,0l0,-47l-269,0l0,47Z" class="g1_326" />
<g clip-path="url(#c12_326)">
<path fill-rule="evenodd" d="M218,785l254,0l0,-24l-254,0l0,24Z" class="g1_326" />
</g>
<path fill-rule="evenodd" d="M481,808l73,0l0,-47l-73,0l0,47Z" class="g1_326" />
<g clip-path="url(#c13_326)">
<path fill-rule="evenodd" d="M488,785l58,0l0,-24l-58,0l0,24Z" class="g1_326" />
</g>
<path fill-rule="evenodd" d="M555,808l332,0l0,-47l-332,0l0,47Z" class="g1_326" />
<g clip-path="url(#c14_326)">
<path fill-rule="evenodd" d="M563,785l317,0l0,-24l-317,0l0,24Z" class="g1_326" />
</g>
<path fill-rule="evenodd" d="M563,808l317,0l0,-23l-317,0l0,23Z" class="g1_326" />
<path d="M46.5,761.5l0,-2" class="g2_326" />
<path d="M86.5,761.5l0,-2" class="g2_326" />
<path d="M127.5,761.5l0,-2" class="g2_326" />
<path d="M168.5,761.5l0,-2" class="g2_326" />
<path d="M209.5,761.5l0,-2" class="g2_326" />
<path d="M210.5,761.5l269,0" class="g2_326" />
<path d="M479.5,761.5l0,-2" class="g2_326" />
<path d="M481.5,761.5l73,0" class="g2_326" />
<path d="M554.5,761.5l0,-2" class="g2_326" />
<path d="M555.5,761.5l332,0" class="g2_326" />
<path d="M887.5,761.5l0,-2" class="g2_326" />
<path d="M46.5,808.5l0,-47" class="g2_326" />
<path d="M86.5,808.5l0,-47" class="g2_326" />
<path d="M127.5,808.5l0,-47" class="g2_326" />
<path d="M168.5,808.5l0,-47" class="g2_326" />
<path d="M209.5,808.5l0,-47" class="g2_326" />
<path d="M479.5,808.5l0,-47" class="g2_326" />
<path d="M554.5,808.5l0,-47" class="g2_326" />
<path d="M887.5,808.5l0,-47" class="g2_326" />
<path fill-rule="evenodd" d="M47,858l39,0l0,-50l-39,0l0,50Z" class="g1_326" />
<path fill-rule="evenodd" d="M88,858l39,0l0,-50l-39,0l0,50Z" class="g1_326" />
<path fill-rule="evenodd" d="M129,858l39,0l0,-50l-39,0l0,50Z" class="g1_326" />
<path fill-rule="evenodd" d="M169,858l40,0l0,-50l-40,0l0,50Z" class="g1_326" />
<path fill-rule="evenodd" d="M210,858l269,0l0,-48l-269,0l0,48Z" class="g1_326" />
<g clip-path="url(#c15_326)">
<path fill-rule="evenodd" d="M218,834l254,0l0,-24l-254,0l0,24Z" class="g1_326" />
</g>
<path fill-rule="evenodd" d="M481,858l73,0l0,-48l-73,0l0,48Z" class="g1_326" />
<g clip-path="url(#c16_326)">
<path fill-rule="evenodd" d="M488,834l58,0l0,-24l-58,0l0,24Z" class="g1_326" />
</g>
<path fill-rule="evenodd" d="M555,858l332,0l0,-48l-332,0l0,48Z" class="g1_326" />
<g clip-path="url(#c17_326)">
<path fill-rule="evenodd" d="M563,834l317,0l0,-24l-317,0l0,24Z" class="g1_326" />
</g>
<path fill-rule="evenodd" d="M563,858l317,0l0,-24l-317,0l0,24Z" class="g1_326" />
<path d="M46.5,810.5l0,-2" class="g2_326" />
<path d="M86.5,810.5l0,-2" class="g2_326" />
<path d="M127.5,810.5l0,-2" class="g2_326" />
<path d="M168.5,810.5l0,-2" class="g2_326" />
<path d="M209.5,810.5l0,-2" class="g2_326" />
<path d="M210.5,810.5l269,0" class="g2_326" />
<path d="M479.5,810.5l0,-2" class="g2_326" />
<path d="M481.5,810.5l73,0" class="g2_326" />
<path d="M554.5,810.5l0,-2" class="g2_326" />
<path d="M555.5,810.5l332,0" class="g2_326" />
<path d="M887.5,810.5l0,-2" class="g2_326" />
<path d="M46.5,858.5l0,-48" class="g2_326" />
<path d="M86.5,858.5l0,-48" class="g2_326" />
<path d="M127.5,858.5l0,-48" class="g2_326" />
<path d="M168.5,858.5l0,-48" class="g2_326" />
<path d="M209.5,858.5l0,-48" class="g2_326" />
<path d="M479.5,858.5l0,-48" class="g2_326" />
<path d="M554.5,858.5l0,-48" class="g2_326" />
<path d="M887.5,858.5l0,-48" class="g2_326" />
<path fill-rule="evenodd" d="M47,883l39,0l0,-25l-39,0l0,25Z" class="g1_326" />
<path fill-rule="evenodd" d="M88,883l39,0l0,-25l-39,0l0,25Z" class="g1_326" />
<path fill-rule="evenodd" d="M129,883l39,0l0,-25l-39,0l0,25Z" class="g1_326" />
<path fill-rule="evenodd" d="M169,883l40,0l0,-25l-40,0l0,25Z" class="g1_326" />
<path fill-rule="evenodd" d="M210,883l269,0l0,-24l-269,0l0,24Z" class="g1_326" />
<g clip-path="url(#c18_326)">
<path fill-rule="evenodd" d="M218,883l254,0l0,-24l-254,0l0,24Z" class="g1_326" />
</g>
<path fill-rule="evenodd" d="M481,883l73,0l0,-24l-73,0l0,24Z" class="g1_326" />
<g clip-path="url(#c19_326)">
<path fill-rule="evenodd" d="M488,883l58,0l0,-24l-58,0l0,24Z" class="g1_326" />
</g>
<path fill-rule="evenodd" d="M555,883l332,0l0,-24l-332,0l0,24Z" class="g1_326" />
<g clip-path="url(#c20_326)">
<path fill-rule="evenodd" d="M563,883l317,0l0,-24l-317,0l0,24Z" class="g1_326" />
</g>
<path d="M46.5,859.5l0,-1" class="g2_326" />
<path d="M86.5,859.5l0,-1" class="g2_326" />
<path d="M127.5,859.5l0,-1" class="g2_326" />
<path d="M168.5,859.5l0,-1" class="g2_326" />
<path d="M209.5,859.5l0,-1" class="g2_326" />
<path d="M210.5,859.5l269,0" class="g2_326" />
<path d="M479.5,859.5l0,-1" class="g2_326" />
<path d="M481.5,859.5l73,0" class="g2_326" />
<path d="M554.5,859.5l0,-1" class="g2_326" />
<path d="M555.5,859.5l332,0" class="g2_326" />
<path d="M887.5,859.5l0,-1" class="g2_326" />
<path d="M46.5,883.5l0,-24" class="g2_326" />
<path d="M86.5,883.5l0,-24" class="g2_326" />
<path d="M127.5,883.5l0,-24" class="g2_326" />
<path d="M168.5,883.5l0,-24" class="g2_326" />
<path d="M209.5,883.5l0,-24" class="g2_326" />
<path d="M479.5,883.5l0,-24" class="g2_326" />
<path d="M554.5,883.5l0,-24" class="g2_326" />
<path d="M887.5,883.5l0,-24" class="g2_326" />
<path fill-rule="evenodd" d="M47,908l39,0l0,-25l-39,0l0,25Z" class="g1_326" />
<path fill-rule="evenodd" d="M88,908l39,0l0,-25l-39,0l0,25Z" class="g1_326" />
<path fill-rule="evenodd" d="M129,908l39,0l0,-25l-39,0l0,25Z" class="g1_326" />
<path fill-rule="evenodd" d="M169,908l40,0l0,-25l-40,0l0,25Z" class="g1_326" />
<path fill-rule="evenodd" d="M210,908l269,0l0,-23l-269,0l0,23Z" class="g1_326" />
<g clip-path="url(#c21_326)">
<path fill-rule="evenodd" d="M218,908l254,0l0,-23l-254,0l0,23Z" class="g1_326" />
</g>
<path fill-rule="evenodd" d="M481,908l73,0l0,-23l-73,0l0,23Z" class="g1_326" />
<g clip-path="url(#c22_326)">
<path fill-rule="evenodd" d="M488,908l58,0l0,-23l-58,0l0,23Z" class="g1_326" />
</g>
<path fill-rule="evenodd" d="M555,908l332,0l0,-23l-332,0l0,23Z" class="g1_326" />
<g clip-path="url(#c23_326)">
<path fill-rule="evenodd" d="M563,908l317,0l0,-23l-317,0l0,23Z" class="g1_326" />
</g>
<path d="M46.5,884.5l0,-1" class="g2_326" />
<path d="M86.5,884.5l0,-1" class="g2_326" />
<path d="M127.5,884.5l0,-1" class="g2_326" />
<path d="M168.5,884.5l0,-1" class="g2_326" />
<path d="M209.5,884.5l0,-1" class="g2_326" />
<path d="M210.5,884.5l269,0" class="g2_326" />
<path d="M479.5,884.5l0,-1" class="g2_326" />
<path d="M481.5,884.5l73,0" class="g2_326" />
<path d="M554.5,884.5l0,-1" class="g2_326" />
<path d="M555.5,884.5l332,0" class="g2_326" />
<path d="M887.5,884.5l0,-1" class="g2_326" />
<path d="M46.5,908.5l0,-24" class="g2_326" />
<path d="M86.5,908.5l0,-24" class="g2_326" />
<path d="M127.5,908.5l0,-24" class="g2_326" />
<path d="M168.5,908.5l0,-24" class="g2_326" />
<path d="M209.5,908.5l0,-24" class="g2_326" />
<path d="M479.5,908.5l0,-24" class="g2_326" />
<path d="M554.5,908.5l0,-24" class="g2_326" />
<path d="M887.5,908.5l0,-24" class="g2_326" />
<path fill-rule="evenodd" d="M47,934l39,0l0,-26l-39,0l0,26Z" class="g1_326" />
<path fill-rule="evenodd" d="M88,934l39,0l0,-26l-39,0l0,26Z" class="g1_326" />
<path fill-rule="evenodd" d="M129,934l39,0l0,-26l-39,0l0,26Z" class="g1_326" />
<path fill-rule="evenodd" d="M169,934l40,0l0,-26l-40,0l0,26Z" class="g1_326" />
<path fill-rule="evenodd" d="M210,934l269,0l0,-24l-269,0l0,24Z" class="g1_326" />
<g clip-path="url(#c24_326)">
<path fill-rule="evenodd" d="M218,934l254,0l0,-24l-254,0l0,24Z" class="g1_326" />
</g>
<path fill-rule="evenodd" d="M481,934l73,0l0,-24l-73,0l0,24Z" class="g1_326" />
<g clip-path="url(#c25_326)">
<path fill-rule="evenodd" d="M488,934l58,0l0,-24l-58,0l0,24Z" class="g1_326" />
</g>
<path fill-rule="evenodd" d="M555,934l332,0l0,-24l-332,0l0,24Z" class="g1_326" />
<g clip-path="url(#c26_326)">
<path fill-rule="evenodd" d="M563,934l317,0l0,-24l-317,0l0,24Z" class="g1_326" />
</g>
<path d="M46.5,910.5l0,-2" class="g2_326" />
<path d="M86.5,910.5l0,-2" class="g2_326" />
<path d="M127.5,910.5l0,-2" class="g2_326" />
<path d="M168.5,910.5l0,-2" class="g2_326" />
<path d="M209.5,910.5l0,-2" class="g2_326" />
<path d="M210.5,910.5l269,0" class="g2_326" />
<path d="M479.5,910.5l0,-2" class="g2_326" />
<path d="M481.5,910.5l73,0" class="g2_326" />
<path d="M554.5,910.5l0,-2" class="g2_326" />
<path d="M555.5,910.5l332,0" class="g2_326" />
<path d="M887.5,910.5l0,-2" class="g2_326" />
<path d="M46.5,934.5l0,-24" class="g2_326" />
<path d="M86.5,934.5l0,-24" class="g2_326" />
<path d="M127.5,934.5l0,-24" class="g2_326" />
<path d="M168.5,934.5l0,-24" class="g2_326" />
<path d="M209.5,934.5l0,-24" class="g2_326" />
<path d="M479.5,934.5l0,-24" class="g2_326" />
<path d="M554.5,934.5l0,-24" class="g2_326" />
<path d="M887.5,934.5l0,-24" class="g2_326" />
<path fill-rule="evenodd" d="M47,983l39,0l0,-49l-39,0l0,49Z" class="g1_326" />
<path fill-rule="evenodd" d="M88,983l39,0l0,-49l-39,0l0,49Z" class="g1_326" />
<path fill-rule="evenodd" d="M129,983l39,0l0,-49l-39,0l0,49Z" class="g1_326" />
<path fill-rule="evenodd" d="M169,983l40,0l0,-49l-40,0l0,49Z" class="g1_326" />
<path fill-rule="evenodd" d="M210,983l269,0l0,-48l-269,0l0,48Z" class="g1_326" />
<path fill-rule="evenodd" d="M218,959l254,0l0,-24l-254,0l0,24Z" class="g1_326" />
<path fill-rule="evenodd" d="M481,983l73,0l0,-48l-73,0l0,48Z" class="g1_326" />
<path fill-rule="evenodd" d="M488,959l58,0l0,-24l-58,0l0,24Z" class="g1_326" />
<path fill-rule="evenodd" d="M555,983l332,0l0,-48l-332,0l0,48Z" class="g1_326" />
<path fill-rule="evenodd" d="M563,959l317,0l0,-24l-317,0l0,24Z" class="g1_326" />
<g clip-path="url(#c27_326)">
<path fill-rule="evenodd" d="M563,983l317,0l0,-24l-317,0l0,24Z" class="g1_326" />
</g>
<path d="M46.5,935.5l0,-1" class="g2_326" />
<path d="M86.5,935.5l0,-1" class="g2_326" />
<path d="M127.5,935.5l0,-1" class="g2_326" />
<path d="M168.5,935.5l0,-1" class="g2_326" />
<path d="M209.5,935.5l0,-1" class="g2_326" />
<path d="M210.5,935.5l269,0" class="g2_326" />
<path d="M479.5,935.5l0,-1" class="g2_326" />
<path d="M481.5,935.5l73,0" class="g2_326" />
<path d="M554.5,935.5l0,-1" class="g2_326" />
<path d="M555.5,935.5l332,0" class="g2_326" />
<path d="M887.5,935.5l0,-1" class="g2_326" />
<path d="M46.5,983.5l0,-48" class="g2_326" />
<path d="M86.5,983.5l0,-48" class="g2_326" />
<path d="M127.5,983.5l0,-48" class="g2_326" />
<path d="M168.5,983.5l0,-48" class="g2_326" />
<path d="M209.5,983.5l0,-48" class="g2_326" />
<path d="M479.5,983.5l0,-48" class="g2_326" />
<path d="M554.5,983.5l0,-48" class="g2_326" />
<path d="M887.5,983.5l0,-48" class="g2_326" />
<path fill-rule="evenodd" d="M47,1008l39,0l0,-25l-39,0l0,25Z" class="g1_326" />
<path fill-rule="evenodd" d="M88,1008l39,0l0,-25l-39,0l0,25Z" class="g1_326" />
<path fill-rule="evenodd" d="M129,1008l39,0l0,-25l-39,0l0,25Z" class="g1_326" />
<path fill-rule="evenodd" d="M169,1008l40,0l0,-25l-40,0l0,25Z" class="g1_326" />
<path fill-rule="evenodd" d="M210,1008l269,0l0,-23l-269,0l0,23Z" class="g1_326" />
<g clip-path="url(#c28_326)">
<path fill-rule="evenodd" d="M218,1008l254,0l0,-23l-254,0l0,23Z" class="g1_326" />
</g>
<path fill-rule="evenodd" d="M481,1008l73,0l0,-23l-73,0l0,23Z" class="g1_326" />
<g clip-path="url(#c29_326)">
<path fill-rule="evenodd" d="M488,1008l58,0l0,-23l-58,0l0,23Z" class="g1_326" />
</g>
<path fill-rule="evenodd" d="M555,1008l332,0l0,-23l-332,0l0,23Z" class="g1_326" />
<g clip-path="url(#c30_326)">
<path fill-rule="evenodd" d="M563,1008l317,0l0,-23l-317,0l0,23Z" class="g1_326" />
</g>
<path d="M46.5,984.5l0,-1" class="g2_326" />
<path d="M86.5,984.5l0,-1" class="g2_326" />
<path d="M127.5,984.5l0,-1" class="g2_326" />
<path d="M168.5,984.5l0,-1" class="g2_326" />
<path d="M209.5,984.5l0,-1" class="g2_326" />
<path d="M210.5,984.5l269,0" class="g2_326" />
<path d="M479.5,984.5l0,-1" class="g2_326" />
<path d="M481.5,984.5l73,0" class="g2_326" />
<path d="M554.5,984.5l0,-1" class="g2_326" />
<path d="M555.5,984.5l332,0" class="g2_326" />
<path d="M887.5,984.5l0,-1" class="g2_326" />
<path d="M46.5,1008.5l0,-24" class="g2_326" />
<path d="M86.5,1008.5l0,-24" class="g2_326" />
<path d="M127.5,1008.5l0,-24" class="g2_326" />
<path d="M168.5,1008.5l0,-24" class="g2_326" />
<path d="M209.5,1008.5l0,-24" class="g2_326" />
<path d="M479.5,1008.5l0,-24" class="g2_326" />
<path d="M554.5,1008.5l0,-24" class="g2_326" />
<path d="M887.5,1008.5l0,-24" class="g2_326" />
<path fill-rule="evenodd" d="M47,1034l39,0l0,-26l-39,0l0,26Z" class="g1_326" />
<path fill-rule="evenodd" d="M88,1034l39,0l0,-26l-39,0l0,26Z" class="g1_326" />
<path fill-rule="evenodd" d="M129,1034l39,0l0,-26l-39,0l0,26Z" class="g1_326" />
<path fill-rule="evenodd" d="M169,1034l40,0l0,-26l-40,0l0,26Z" class="g1_326" />
<path fill-rule="evenodd" d="M210,1034l269,0l0,-24l-269,0l0,24Z" class="g1_326" />
<g clip-path="url(#c31_326)">
<path fill-rule="evenodd" d="M218,1034l254,0l0,-24l-254,0l0,24Z" class="g1_326" />
</g>
<path fill-rule="evenodd" d="M481,1034l73,0l0,-24l-73,0l0,24Z" class="g1_326" />
<g clip-path="url(#c32_326)">
<path fill-rule="evenodd" d="M488,1034l58,0l0,-24l-58,0l0,24Z" class="g1_326" />
</g>
<path fill-rule="evenodd" d="M555,1034l332,0l0,-24l-332,0l0,24Z" class="g1_326" />
<g clip-path="url(#c33_326)">
<path fill-rule="evenodd" d="M563,1034l317,0l0,-24l-317,0l0,24Z" class="g1_326" />
</g>
<path d="M46.5,1010.5l0,-2" class="g2_326" />
<path d="M86.5,1010.5l0,-2" class="g2_326" />
<path d="M127.5,1010.5l0,-2" class="g2_326" />
<path d="M168.5,1010.5l0,-2" class="g2_326" />
<path d="M209.5,1010.5l0,-2" class="g2_326" />
<path d="M210.5,1010.5l269,0" class="g2_326" />
<path d="M479.5,1010.5l0,-2" class="g2_326" />
<path d="M481.5,1010.5l73,0" class="g2_326" />
<path d="M554.5,1010.5l0,-2" class="g2_326" />
<path d="M555.5,1010.5l332,0" class="g2_326" />
<path d="M887.5,1010.5l0,-2" class="g2_326" />
<path d="M46.5,1034.5l0,-24" class="g2_326" />
<path d="M46.5,1035.5l0,-1" class="g2_326" />
<path d="M46.5,1035.5l0,-1" class="g2_326" />
<path d="M47.5,1035.5l39,0" class="g2_326" />
<path d="M86.5,1034.5l0,-24" class="g2_326" />
<path d="M86.5,1035.5l0,-1" class="g2_326" />
<path d="M88.5,1035.5l39,0" class="g2_326" />
<path d="M127.5,1034.5l0,-24" class="g2_326" />
<path d="M127.5,1035.5l0,-1" class="g2_326" />
<path d="M129.5,1035.5l39,0" class="g2_326" />
<path d="M168.5,1034.5l0,-24" class="g2_326" />
<path d="M168.5,1035.5l0,-1" class="g2_326" />
<path d="M169.5,1035.5l40,0" class="g2_326" />
<path d="M209.5,1034.5l0,-24" class="g2_326" />
<path d="M209.5,1035.5l0,-1" class="g2_326" />
<path d="M210.5,1035.5l269,0" class="g2_326" />
<path d="M479.5,1034.5l0,-24" class="g2_326" />
<path d="M479.5,1035.5l0,-1" class="g2_326" />
<path d="M481.5,1035.5l73,0" class="g2_326" />
<path d="M554.5,1034.5l0,-24" class="g2_326" />
<path d="M554.5,1035.5l0,-1" class="g2_326" />
<path d="M555.5,1035.5l332,0" class="g2_326" />
<path d="M887.5,1034.5l0,-24" class="g2_326" />
<path d="M887.5,1035.5l0,-1" class="g2_326" />
<path d="M887.5,1035.5l0,-1" class="g2_326" />
</svg>