<?xml version="1.0" encoding="UTF-8" standalone="no"?>
<!DOCTYPE svg PUBLIC "-//W3C//DTD SVG 1.1//EN"
"http://www.w3.org/Graphics/SVG/1.1/DTD/svg11.dtd">
<svg version="1.1" xmlns="http://www.w3.org/2000/svg" xmlns:xlink="http://www.w3.org/1999/xlink">
<defs>
<clipPath id="c0_403"><path d="M275.5,302.5l0,-191l143,0l0,191Z" /></clipPath>
<clipPath id="c1_403"><path d="M420.5,302.5l0,-191l95,0l0,191Z" /></clipPath>
<clipPath id="c2_403"><path d="M516.5,302.5l0,-191l371,0l0,191Z" /></clipPath>
<clipPath id="c3_403"><path d="M275.5,470.5l0,-167l143,0l0,167Z" /></clipPath>
<clipPath id="c4_403"><path d="M420.5,470.5l0,-167l95,0l0,167Z" /></clipPath>
<clipPath id="c5_403"><path d="M516.5,470.5l0,-167l371,0l0,167Z" /></clipPath>
<clipPath id="c6_403"><path d="M275.5,878.5l0,-357l143,0l0,357Z" /></clipPath>
<clipPath id="c7_403"><path d="M420.5,878.5l0,-357l95,0l0,357Z" /></clipPath>
<clipPath id="c8_403"><path d="M516.5,878.5l0,-357l371,0l0,357Z" /></clipPath>
<style type="text/css"><![CDATA[
.g2_403{
fill: none;
stroke: #7E7E7E;
stroke-width: 1;
stroke-linecap: butt;
stroke-linejoin: miter;
}
.g1_403{
fill: #F1F1F1;
}
]]></style>
</defs>
<path fill-rule="evenodd" d="M47,302l34,0L81,111l-34,0l0,191Z" class="g1_403" />
<path fill-rule="evenodd" d="M83,302l40,0l0,-191l-40,0l0,191Z" class="g1_403" />
<path fill-rule="evenodd" d="M124,302l33,0l0,-191l-33,0l0,191Z" class="g1_403" />
<path fill-rule="evenodd" d="M159,302l39,0l0,-191l-39,0l0,191Z" class="g1_403" />
<path fill-rule="evenodd" d="M200,302l74,0l0,-191l-74,0l0,191Z" class="g1_403" />
<path fill-rule="evenodd" d="M275,302l143,0l0,-191l-143,0l0,191Z" class="g1_403" />
<g clip-path="url(#c0_403)">
<path fill-rule="evenodd" d="M283,135l128,0l0,-24l-128,0l0,24Z" class="g1_403" />
</g>
<path fill-rule="evenodd" d="M420,302l95,0l0,-191l-95,0l0,191Z" class="g1_403" />
<g clip-path="url(#c1_403)">
<path fill-rule="evenodd" d="M427,135l80,0l0,-24l-80,0l0,24Z" class="g1_403" />
</g>
<path fill-rule="evenodd" d="M516,302l371,0l0,-191l-371,0l0,191Z" class="g1_403" />
<g clip-path="url(#c2_403)">
<path fill-rule="evenodd" d="M524,135l356,0l0,-24l-356,0l0,24Z" class="g1_403" />
</g>
<path fill-rule="evenodd" d="M524,159l356,0l0,-24l-356,0l0,24Z" class="g1_403" />
<path fill-rule="evenodd" d="M524,182l356,0l0,-23l-356,0l0,23Z" class="g1_403" />
<path fill-rule="evenodd" d="M524,206l356,0l0,-24l-356,0l0,24Z" class="g1_403" />
<path fill-rule="evenodd" d="M524,230l356,0l0,-24l-356,0l0,24Z" class="g1_403" />
<path fill-rule="evenodd" d="M524,254l356,0l0,-24l-356,0l0,24Z" class="g1_403" />
<path fill-rule="evenodd" d="M524,278l356,0l0,-24l-356,0l0,24Z" class="g1_403" />
<path fill-rule="evenodd" d="M524,302l356,0l0,-24l-356,0l0,24Z" class="g1_403" />
<path d="M46.5,111.5l0,-1" class="g2_403" />
<path d="M46.5,111.5l0,-1" class="g2_403" />
<path d="M47.5,111.5l34,0" class="g2_403" />
<path d="M81.5,111.5l0,-1" class="g2_403" />
<path d="M83.5,111.5l40,0" class="g2_403" />
<path d="M123.5,111.5l0,-1" class="g2_403" />
<path d="M124.5,111.5l33,0" class="g2_403" />
<path d="M157.5,111.5l0,-1" class="g2_403" />
<path d="M159.5,111.5l39,0" class="g2_403" />
<path d="M198.5,111.5l0,-1" class="g2_403" />
<path d="M200.5,111.5l74,0" class="g2_403" />
<path d="M274.5,111.5l0,-1" class="g2_403" />
<path d="M275.5,111.5l143,0" class="g2_403" />
<path d="M418.5,111.5l0,-1" class="g2_403" />
<path d="M420.5,111.5l95,0" class="g2_403" />
<path d="M515.5,111.5l0,-1" class="g2_403" />
<path d="M516.5,111.5l371,0" class="g2_403" />
<path d="M887.5,111.5l0,-1" class="g2_403" />
<path d="M887.5,111.5l0,-1" class="g2_403" />
<path d="M46.5,302.5l0,-191" class="g2_403" />
<path d="M81.5,302.5l0,-191" class="g2_403" />
<path d="M123.5,302.5l0,-191" class="g2_403" />
<path d="M157.5,302.5l0,-191" class="g2_403" />
<path d="M198.5,302.5l0,-191" class="g2_403" />
<path d="M274.5,302.5l0,-191" class="g2_403" />
<path d="M418.5,302.5l0,-191" class="g2_403" />
<path d="M515.5,302.5l0,-191" class="g2_403" />
<path d="M887.5,302.5l0,-191" class="g2_403" />
<path fill-rule="evenodd" d="M47,470l34,0L81,302l-34,0l0,168Z" class="g1_403" />
<path fill-rule="evenodd" d="M83,470l40,0l0,-168l-40,0l0,168Z" class="g1_403" />
<path fill-rule="evenodd" d="M124,470l33,0l0,-168l-33,0l0,168Z" class="g1_403" />
<path fill-rule="evenodd" d="M159,470l39,0l0,-168l-39,0l0,168Z" class="g1_403" />
<path fill-rule="evenodd" d="M200,470l74,0l0,-168l-74,0l0,168Z" class="g1_403" />
<path fill-rule="evenodd" d="M275,470l143,0l0,-167l-143,0l0,167Z" class="g1_403" />
<g clip-path="url(#c3_403)">
<path fill-rule="evenodd" d="M283,327l128,0l0,-24l-128,0l0,24Z" class="g1_403" />
</g>
<path fill-rule="evenodd" d="M283,351l128,0l0,-24l-128,0l0,24Z" class="g1_403" />
<path fill-rule="evenodd" d="M420,470l95,0l0,-167l-95,0l0,167Z" class="g1_403" />
<g clip-path="url(#c4_403)">
<path fill-rule="evenodd" d="M427,327l80,0l0,-24l-80,0l0,24Z" class="g1_403" />
</g>
<path fill-rule="evenodd" d="M516,470l371,0l0,-167l-371,0l0,167Z" class="g1_403" />
<g clip-path="url(#c5_403)">
<path fill-rule="evenodd" d="M524,327l356,0l0,-24l-356,0l0,24Z" class="g1_403" />
</g>
<path fill-rule="evenodd" d="M524,351l356,0l0,-24l-356,0l0,24Z" class="g1_403" />
<path fill-rule="evenodd" d="M524,375l356,0l0,-24l-356,0l0,24Z" class="g1_403" />
<path fill-rule="evenodd" d="M524,399l356,0l0,-24l-356,0l0,24Z" class="g1_403" />
<path fill-rule="evenodd" d="M524,423l356,0l0,-24l-356,0l0,24Z" class="g1_403" />
<path fill-rule="evenodd" d="M524,446l356,0l0,-23l-356,0l0,23Z" class="g1_403" />
<path fill-rule="evenodd" d="M524,470l356,0l0,-24l-356,0l0,24Z" class="g1_403" />
<path d="M46.5,303.5l0,-1" class="g2_403" />
<path d="M81.5,303.5l0,-1" class="g2_403" />
<path d="M123.5,303.5l0,-1" class="g2_403" />
<path d="M157.5,303.5l0,-1" class="g2_403" />
<path d="M198.5,303.5l0,-1" class="g2_403" />
<path d="M274.5,303.5l0,-1" class="g2_403" />
<path d="M275.5,303.5l143,0" class="g2_403" />
<path d="M418.5,303.5l0,-1" class="g2_403" />
<path d="M420.5,303.5l95,0" class="g2_403" />
<path d="M515.5,303.5l0,-1" class="g2_403" />
<path d="M516.5,303.5l371,0" class="g2_403" />
<path d="M887.5,303.5l0,-1" class="g2_403" />
<path d="M46.5,470.5l0,-167" class="g2_403" />
<path d="M81.5,470.5l0,-167" class="g2_403" />
<path d="M123.5,470.5l0,-167" class="g2_403" />
<path d="M157.5,470.5l0,-167" class="g2_403" />
<path d="M198.5,470.5l0,-167" class="g2_403" />
<path d="M274.5,470.5l0,-167" class="g2_403" />
<path d="M418.5,470.5l0,-167" class="g2_403" />
<path d="M515.5,470.5l0,-167" class="g2_403" />
<path d="M887.5,470.5l0,-167" class="g2_403" />
<path fill-rule="evenodd" d="M47,519l34,0l0,-49l-34,0l0,49Z" class="g1_403" />
<path fill-rule="evenodd" d="M83,519l40,0l0,-49l-40,0l0,49Z" class="g1_403" />
<path fill-rule="evenodd" d="M124,519l33,0l0,-49l-33,0l0,49Z" class="g1_403" />
<path fill-rule="evenodd" d="M159,519l39,0l0,-49l-39,0l0,49Z" class="g1_403" />
<path fill-rule="evenodd" d="M200,519l74,0l0,-49l-74,0l0,49Z" class="g1_403" />
<path fill-rule="evenodd" d="M275,519l143,0l0,-47l-143,0l0,47Z" class="g1_403" />
<path fill-rule="evenodd" d="M283,495l128,0l0,-23l-128,0l0,23Z" class="g1_403" />
<path fill-rule="evenodd" d="M420,519l95,0l0,-47l-95,0l0,47Z" class="g1_403" />
<path fill-rule="evenodd" d="M427,495l80,0l0,-23l-80,0l0,23Z" class="g1_403" />
<path fill-rule="evenodd" d="M516,519l371,0l0,-47l-371,0l0,47Z" class="g1_403" />
<path fill-rule="evenodd" d="M524,495l356,0l0,-23l-356,0l0,23Z" class="g1_403" />
<path fill-rule="evenodd" d="M524,519l356,0l0,-24l-356,0l0,24Z" class="g1_403" />
<path d="M46.5,472.5l0,-2" class="g2_403" />
<path d="M81.5,472.5l0,-2" class="g2_403" />
<path d="M123.5,472.5l0,-2" class="g2_403" />
<path d="M157.5,472.5l0,-2" class="g2_403" />
<path d="M198.5,472.5l0,-2" class="g2_403" />
<path d="M274.5,472.5l0,-2" class="g2_403" />
<path d="M275.5,472.5l143,0" class="g2_403" />
<path d="M418.5,472.5l0,-2" class="g2_403" />
<path d="M420.5,472.5l95,0" class="g2_403" />
<path d="M515.5,472.5l0,-2" class="g2_403" />
<path d="M516.5,472.5l371,0" class="g2_403" />
<path d="M887.5,472.5l0,-2" class="g2_403" />
<path d="M46.5,519.5l0,-47" class="g2_403" />
<path d="M81.5,519.5l0,-47" class="g2_403" />
<path d="M123.5,519.5l0,-47" class="g2_403" />
<path d="M157.5,519.5l0,-47" class="g2_403" />
<path d="M198.5,519.5l0,-47" class="g2_403" />
<path d="M274.5,519.5l0,-47" class="g2_403" />
<path d="M418.5,519.5l0,-47" class="g2_403" />
<path d="M515.5,519.5l0,-47" class="g2_403" />
<path d="M887.5,519.5l0,-47" class="g2_403" />
<path fill-rule="evenodd" d="M47,878l34,0L81,519l-34,0l0,359Z" class="g1_403" />
<path fill-rule="evenodd" d="M83,878l40,0l0,-359l-40,0l0,359Z" class="g1_403" />
<path fill-rule="evenodd" d="M124,878l33,0l0,-359l-33,0l0,359Z" class="g1_403" />
<path fill-rule="evenodd" d="M159,878l39,0l0,-359l-39,0l0,359Z" class="g1_403" />
<path fill-rule="evenodd" d="M200,878l74,0l0,-359l-74,0l0,359Z" class="g1_403" />
<path fill-rule="evenodd" d="M275,878l143,0l0,-357l-143,0l0,357Z" class="g1_403" />
<g clip-path="url(#c6_403)">
<path fill-rule="evenodd" d="M283,545l128,0l0,-24l-128,0l0,24Z" class="g1_403" />
</g>
<path fill-rule="evenodd" d="M420,878l95,0l0,-357l-95,0l0,357Z" class="g1_403" />
<g clip-path="url(#c7_403)">
<path fill-rule="evenodd" d="M427,545l80,0l0,-24l-80,0l0,24Z" class="g1_403" />
</g>
<path fill-rule="evenodd" d="M516,878l371,0l0,-357l-371,0l0,357Z" class="g1_403" />
<g clip-path="url(#c8_403)">
<path fill-rule="evenodd" d="M524,545l356,0l0,-24l-356,0l0,24Z" class="g1_403" />
</g>
<path fill-rule="evenodd" d="M524,568l356,0l0,-23l-356,0l0,23Z" class="g1_403" />
<path fill-rule="evenodd" d="M524,592l356,0l0,-24l-356,0l0,24Z" class="g1_403" />
<path fill-rule="evenodd" d="M524,616l356,0l0,-24l-356,0l0,24Z" class="g1_403" />
<path fill-rule="evenodd" d="M524,640l356,0l0,-24l-356,0l0,24Z" class="g1_403" />
<path fill-rule="evenodd" d="M524,664l356,0l0,-24l-356,0l0,24Z" class="g1_403" />
<path fill-rule="evenodd" d="M524,688l356,0l0,-24l-356,0l0,24Z" class="g1_403" />
<path fill-rule="evenodd" d="M524,711l356,0l0,-23l-356,0l0,23Z" class="g1_403" />
<path fill-rule="evenodd" d="M524,735l356,0l0,-24l-356,0l0,24Z" class="g1_403" />
<path fill-rule="evenodd" d="M524,759l356,0l0,-24l-356,0l0,24Z" class="g1_403" />
<path fill-rule="evenodd" d="M524,783l356,0l0,-24l-356,0l0,24Z" class="g1_403" />
<path fill-rule="evenodd" d="M524,807l356,0l0,-24l-356,0l0,24Z" class="g1_403" />
<path fill-rule="evenodd" d="M524,831l356,0l0,-24l-356,0l0,24Z" class="g1_403" />
<path fill-rule="evenodd" d="M524,854l356,0l0,-23l-356,0l0,23Z" class="g1_403" />
<path fill-rule="evenodd" d="M524,878l356,0l0,-24l-356,0l0,24Z" class="g1_403" />
<path d="M46.5,521.5l0,-2" class="g2_403" />
<path d="M81.5,521.5l0,-2" class="g2_403" />
<path d="M123.5,521.5l0,-2" class="g2_403" />
<path d="M157.5,521.5l0,-2" class="g2_403" />
<path d="M198.5,521.5l0,-2" class="g2_403" />
<path d="M274.5,521.5l0,-2" class="g2_403" />
<path d="M275.5,521.5l143,0" class="g2_403" />
<path d="M418.5,521.5l0,-2" class="g2_403" />
<path d="M420.5,521.5l95,0" class="g2_403" />
<path d="M515.5,521.5l0,-2" class="g2_403" />
<path d="M516.5,521.5l371,0" class="g2_403" />
<path d="M887.5,521.5l0,-2" class="g2_403" />
<path d="M46.5,879.5l0,-358" class="g2_403" />
<path d="M46.5,880.5l0,-1" class="g2_403" />
<path d="M46.5,880.5l0,-1" class="g2_403" />
<path d="M47.5,880.5l34,0" class="g2_403" />
<path d="M81.5,879.5l0,-358" class="g2_403" />
<path d="M81.5,880.5l0,-1" class="g2_403" />
<path d="M83.5,880.5l40,0" class="g2_403" />
<path d="M123.5,879.5l0,-358" class="g2_403" />
<path d="M123.5,880.5l0,-1" class="g2_403" />
<path d="M124.5,880.5l33,0" class="g2_403" />
<path d="M157.5,879.5l0,-358" class="g2_403" />
<path d="M157.5,880.5l0,-1" class="g2_403" />
<path d="M159.5,880.5l39,0" class="g2_403" />
<path d="M198.5,879.5l0,-358" class="g2_403" />
<path d="M198.5,880.5l0,-1" class="g2_403" />
<path d="M200.5,880.5l74,0" class="g2_403" />
<path d="M274.5,879.5l0,-358" class="g2_403" />
<path d="M274.5,880.5l0,-1" class="g2_403" />
<path d="M275.5,880.5l143,0" class="g2_403" />
<path d="M418.5,879.5l0,-358" class="g2_403" />
<path d="M418.5,880.5l0,-1" class="g2_403" />
<path d="M420.5,880.5l95,0" class="g2_403" />
<path d="M515.5,879.5l0,-358" class="g2_403" />
<path d="M515.5,880.5l0,-1" class="g2_403" />
<path d="M516.5,880.5l371,0" class="g2_403" />
<path d="M887.5,879.5l0,-358" class="g2_403" />
<path d="M887.5,880.5l0,-1" class="g2_403" />
<path d="M887.5,880.5l0,-1" class="g2_403" />
</svg>