<?xml version="1.0" encoding="UTF-8" standalone="no"?>
<!DOCTYPE svg PUBLIC "-//W3C//DTD SVG 1.1//EN"
"http://www.w3.org/Graphics/SVG/1.1/DTD/svg11.dtd">
<svg version="1.1" xmlns="http://www.w3.org/2000/svg" xmlns:xlink="http://www.w3.org/1999/xlink">
<defs>
<clipPath id="c0_451"><path d="M130.5,469.5l0,-358l220,0l0,358Z" /></clipPath>
<clipPath id="c1_451"><path d="M351.5,469.5l0,-358l88,0l0,358Z" /></clipPath>
<clipPath id="c2_451"><path d="M441.5,469.5l0,-358l67,0l0,358Z" /></clipPath>
<clipPath id="c3_451"><path d="M510.5,469.5l0,-358l377,0l0,358Z" /></clipPath>
<clipPath id="c4_451"><path d="M130.5,1073.5l0,-506l34,0l0,506Z" /></clipPath>
<clipPath id="c5_451"><path d="M165.5,1073.5l0,-506l33,0l0,506Z" /></clipPath>
<clipPath id="c6_451"><path d="M200.5,783.5l0,-96l150,0l0,96Z" /></clipPath>
<clipPath id="c7_451"><path d="M351.5,783.5l0,-96l88,0l0,96Z" /></clipPath>
<clipPath id="c8_451"><path d="M441.5,783.5l0,-96l67,0l0,96Z" /></clipPath>
<clipPath id="c9_451"><path d="M510.5,783.5l0,-96l377,0l0,96Z" /></clipPath>
<clipPath id="c10_451"><path d="M200.5,880.5l0,-96l150,0l0,96Z" /></clipPath>
<clipPath id="c11_451"><path d="M351.5,880.5l0,-96l88,0l0,96Z" /></clipPath>
<clipPath id="c12_451"><path d="M441.5,880.5l0,-96l67,0l0,96Z" /></clipPath>
<clipPath id="c13_451"><path d="M510.5,880.5l0,-96l377,0l0,96Z" /></clipPath>
<clipPath id="c14_451"><path d="M200.5,976.5l0,-95l150,0l0,95Z" /></clipPath>
<clipPath id="c15_451"><path d="M351.5,976.5l0,-95l88,0l0,95Z" /></clipPath>
<clipPath id="c16_451"><path d="M441.5,976.5l0,-95l67,0l0,95Z" /></clipPath>
<clipPath id="c17_451"><path d="M510.5,976.5l0,-95l377,0l0,95Z" /></clipPath>
<clipPath id="c18_451"><path d="M351.5,1073.5l0,-95l88,0l0,95Z" /></clipPath>
<clipPath id="c19_451"><path d="M510.5,1073.5l0,-95l377,0l0,95Z" /></clipPath>
<style type="text/css"><![CDATA[
.g2_451{
fill: none;
stroke: #0000FF;
stroke-width: 1;
stroke-linecap: butt;
stroke-linejoin: miter;
}
.g3_451{
fill: none;
stroke: #7E7E7E;
stroke-width: 1;
stroke-linecap: butt;
stroke-linejoin: miter;
}
.g1_451{
fill: #F1F1F1;
}
]]></style>
</defs>
<path fill-rule="evenodd" d="M47,469l27,0L74,111l-27,0l0,358Z" class="g1_451" />
<path fill-rule="evenodd" d="M76,469l25,0l0,-358l-25,0l0,358Z" class="g1_451" />
<path fill-rule="evenodd" d="M103,469l26,0l0,-358l-26,0l0,358Z" class="g1_451" />
<path fill-rule="evenodd" d="M130,469l220,0l0,-358l-220,0l0,358Z" class="g1_451" />
<g clip-path="url(#c0_451)">
<path fill-rule="evenodd" d="M138,135l204,0l0,-24l-204,0l0,24Z" class="g1_451" />
</g>
<path fill-rule="evenodd" d="M351,469l88,0l0,-358l-88,0l0,358Z" class="g1_451" />
<g clip-path="url(#c1_451)">
<path fill-rule="evenodd" d="M359,135l73,0l0,-24l-73,0l0,24Z" class="g1_451" />
</g>
<path fill-rule="evenodd" d="M441,469l67,0l0,-358l-67,0l0,358Z" class="g1_451" />
<g clip-path="url(#c2_451)">
<path fill-rule="evenodd" d="M448,135l53,0l0,-24l-53,0l0,24Z" class="g1_451" />
</g>
<path fill-rule="evenodd" d="M510,469l377,0l0,-358l-377,0l0,358Z" class="g1_451" />
<g clip-path="url(#c3_451)">
<path fill-rule="evenodd" d="M517,135l363,0l0,-24l-363,0l0,24Z" class="g1_451" />
</g>
<path fill-rule="evenodd" d="M517,159l363,0l0,-24l-363,0l0,24Z" class="g1_451" />
<path fill-rule="evenodd" d="M517,182l363,0l0,-23l-363,0l0,23Z" class="g1_451" />
<path fill-rule="evenodd" d="M517,206l363,0l0,-24l-363,0l0,24Z" class="g1_451" />
<path fill-rule="evenodd" d="M517,230l363,0l0,-24l-363,0l0,24Z" class="g1_451" />
<path fill-rule="evenodd" d="M517,254l363,0l0,-24l-363,0l0,24Z" class="g1_451" />
<path fill-rule="evenodd" d="M517,278l363,0l0,-24l-363,0l0,24Z" class="g1_451" />
<path fill-rule="evenodd" d="M517,302l363,0l0,-24l-363,0l0,24Z" class="g1_451" />
<path fill-rule="evenodd" d="M517,325l363,0l0,-23l-363,0l0,23Z" class="g1_451" />
<path fill-rule="evenodd" d="M517,349l363,0l0,-24l-363,0l0,24Z" class="g1_451" />
<path d="M692.5,345.5l149,0" class="g2_451" />
<path fill-rule="evenodd" d="M517,373l363,0l0,-24l-363,0l0,24Z" class="g1_451" />
<path d="M517.5,369.5l145,0" class="g2_451" />
<path fill-rule="evenodd" d="M517,397l363,0l0,-24l-363,0l0,24Z" class="g1_451" />
<path fill-rule="evenodd" d="M517,421l363,0l0,-24l-363,0l0,24Z" class="g1_451" />
<path fill-rule="evenodd" d="M517,445l363,0l0,-24l-363,0l0,24Z" class="g1_451" />
<path fill-rule="evenodd" d="M517,469l363,0l0,-24l-363,0l0,24Z" class="g1_451" />
<path d="M46.5,111.5l0,-1" class="g3_451" />
<path d="M46.5,111.5l0,-1" class="g3_451" />
<path d="M47.5,111.5l27,0" class="g3_451" />
<path d="M74.5,111.5l0,-1" class="g3_451" />
<path d="M76.5,111.5l25,0" class="g3_451" />
<path d="M101.5,111.5l0,-1" class="g3_451" />
<path d="M103.5,111.5l26,0" class="g3_451" />
<path d="M129.5,111.5l0,-1" class="g3_451" />
<path d="M130.5,111.5l220,0" class="g3_451" />
<path d="M350.5,111.5l0,-1" class="g3_451" />
<path d="M351.5,111.5l88,0" class="g3_451" />
<path d="M439.5,111.5l0,-1" class="g3_451" />
<path d="M441.5,111.5l67,0" class="g3_451" />
<path d="M508.5,111.5l0,-1" class="g3_451" />
<path d="M510.5,111.5l378,0" class="g3_451" />
<path d="M888.5,111.5l0,-1" class="g3_451" />
<path d="M888.5,111.5l0,-1" class="g3_451" />
<path d="M46.5,469.5l0,-358" class="g3_451" />
<path d="M74.5,469.5l0,-358" class="g3_451" />
<path d="M101.5,469.5l0,-358" class="g3_451" />
<path d="M129.5,469.5l0,-358" class="g3_451" />
<path d="M350.5,469.5l0,-358" class="g3_451" />
<path d="M439.5,469.5l0,-358" class="g3_451" />
<path d="M508.5,469.5l0,-358" class="g3_451" />
<path d="M888.5,469.5l0,-358" class="g3_451" />
<path fill-rule="evenodd" d="M47,566l27,0l0,-97l-27,0l0,97Z" class="g1_451" />
<path fill-rule="evenodd" d="M76,566l25,0l0,-97l-25,0l0,97Z" class="g1_451" />
<path fill-rule="evenodd" d="M103,566l26,0l0,-97l-26,0l0,97Z" class="g1_451" />
<path fill-rule="evenodd" d="M130,566l220,0l0,-96l-220,0l0,96Z" class="g1_451" />
<path fill-rule="evenodd" d="M138,494l204,0l0,-24l-204,0l0,24Z" class="g1_451" />
<path fill-rule="evenodd" d="M351,566l88,0l0,-96l-88,0l0,96Z" class="g1_451" />
<path fill-rule="evenodd" d="M359,494l73,0l0,-24l-73,0l0,24Z" class="g1_451" />
<path fill-rule="evenodd" d="M359,518l73,0l0,-24l-73,0l0,24Z" class="g1_451" />
<path fill-rule="evenodd" d="M359,542l73,0l0,-24l-73,0l0,24Z" class="g1_451" />
<path fill-rule="evenodd" d="M359,566l73,0l0,-24l-73,0l0,24Z" class="g1_451" />
<path fill-rule="evenodd" d="M441,566l67,0l0,-96l-67,0l0,96Z" class="g1_451" />
<path fill-rule="evenodd" d="M448,494l53,0l0,-24l-53,0l0,24Z" class="g1_451" />
<path fill-rule="evenodd" d="M510,566l377,0l0,-96l-377,0l0,96Z" class="g1_451" />
<path fill-rule="evenodd" d="M517,494l363,0l0,-24l-363,0l0,24Z" class="g1_451" />
<path fill-rule="evenodd" d="M517,518l363,0l0,-24l-363,0l0,24Z" class="g1_451" />
<path d="M46.5,470.5l0,-1" class="g3_451" />
<path d="M74.5,470.5l0,-1" class="g3_451" />
<path d="M101.5,470.5l0,-1" class="g3_451" />
<path d="M129.5,470.5l0,-1" class="g3_451" />
<path d="M130.5,470.5l220,0" class="g3_451" />
<path d="M350.5,470.5l0,-1" class="g3_451" />
<path d="M351.5,470.5l88,0" class="g3_451" />
<path d="M439.5,470.5l0,-1" class="g3_451" />
<path d="M441.5,470.5l67,0" class="g3_451" />
<path d="M508.5,470.5l0,-1" class="g3_451" />
<path d="M510.5,470.5l378,0" class="g3_451" />
<path d="M888.5,470.5l0,-1" class="g3_451" />
<path d="M46.5,566.5l0,-96" class="g3_451" />
<path d="M74.5,566.5l0,-96" class="g3_451" />
<path d="M101.5,566.5l0,-96" class="g3_451" />
<path d="M129.5,566.5l0,-96" class="g3_451" />
<path d="M350.5,566.5l0,-96" class="g3_451" />
<path d="M439.5,566.5l0,-96" class="g3_451" />
<path d="M508.5,566.5l0,-96" class="g3_451" />
<path d="M888.5,566.5l0,-96" class="g3_451" />
<path fill-rule="evenodd" d="M47,686l27,0L74,566l-27,0l0,120Z" class="g1_451" />
<path fill-rule="evenodd" d="M76,686l25,0l0,-120l-25,0l0,120Z" class="g1_451" />
<path fill-rule="evenodd" d="M103,686l26,0l0,-120l-26,0l0,120Z" class="g1_451" />
<path fill-rule="evenodd" d="M130,1073l34,0l0,-506l-34,0l0,506Z" class="g1_451" />
<g clip-path="url(#c4_451)">
<path fill-rule="evenodd" d="M138,1073l24,0l0,-506l-24,0l0,506Z" class="g1_451" />
</g>
<path fill-rule="evenodd" d="M165,1073l33,0l0,-506l-33,0l0,506Z" class="g1_451" />
<g clip-path="url(#c5_451)">
<path fill-rule="evenodd" d="M173,1073l24,0l0,-506l-24,0l0,506Z" class="g1_451" />
</g>
<path fill-rule="evenodd" d="M200,686l150,0l0,-119l-150,0l0,119Z" class="g1_451" />
<path fill-rule="evenodd" d="M207,591l135,0l0,-24l-135,0l0,24Z" class="g1_451" />
<path fill-rule="evenodd" d="M351,686l88,0l0,-119l-88,0l0,119Z" class="g1_451" />
<path fill-rule="evenodd" d="M359,591l73,0l0,-24l-73,0l0,24Z" class="g1_451" />
<path fill-rule="evenodd" d="M441,686l67,0l0,-119l-67,0l0,119Z" class="g1_451" />
<path fill-rule="evenodd" d="M448,591l53,0l0,-24l-53,0l0,24Z" class="g1_451" />
<path fill-rule="evenodd" d="M510,686l377,0l0,-119l-377,0l0,119Z" class="g1_451" />
<path fill-rule="evenodd" d="M517,591l363,0l0,-24l-363,0l0,24Z" class="g1_451" />
<path d="M46.5,567.5l0,-1" class="g3_451" />
<path d="M74.5,567.5l0,-1" class="g3_451" />
<path d="M101.5,567.5l0,-1" class="g3_451" />
<path d="M129.5,567.5l0,-1" class="g3_451" />
<path d="M130.5,567.5l34,0" class="g3_451" />
<path d="M164.5,567.5l0,-1" class="g3_451" />
<path d="M165.5,567.5l33,0" class="g3_451" />
<path d="M198.5,567.5l0,-1" class="g3_451" />
<path d="M200.5,567.5l150,0" class="g3_451" />
<path d="M350.5,567.5l0,-1" class="g3_451" />
<path d="M351.5,567.5l88,0" class="g3_451" />
<path d="M439.5,567.5l0,-1" class="g3_451" />
<path d="M441.5,567.5l67,0" class="g3_451" />
<path d="M508.5,567.5l0,-1" class="g3_451" />
<path d="M510.5,567.5l378,0" class="g3_451" />
<path d="M888.5,567.5l0,-1" class="g3_451" />
<path d="M46.5,686.5l0,-119" class="g3_451" />
<path d="M74.5,686.5l0,-119" class="g3_451" />
<path d="M101.5,686.5l0,-119" class="g3_451" />
<path d="M129.5,686.5l0,-119" class="g3_451" />
<path d="M164.5,686.5l0,-119" class="g3_451" />
<path d="M198.5,686.5l0,-119" class="g3_451" />
<path d="M350.5,686.5l0,-119" class="g3_451" />
<path d="M439.5,686.5l0,-119" class="g3_451" />
<path d="M508.5,686.5l0,-119" class="g3_451" />
<path d="M888.5,686.5l0,-119" class="g3_451" />
<path fill-rule="evenodd" d="M47,783l27,0l0,-97l-27,0l0,97Z" class="g1_451" />
<path fill-rule="evenodd" d="M76,783l25,0l0,-97l-25,0l0,97Z" class="g1_451" />
<path fill-rule="evenodd" d="M103,783l26,0l0,-97l-26,0l0,97Z" class="g1_451" />
<path fill-rule="evenodd" d="M200,783l150,0l0,-96l-150,0l0,96Z" class="g1_451" />
<g clip-path="url(#c6_451)">
<path fill-rule="evenodd" d="M207,711l135,0l0,-24l-135,0l0,24Z" class="g1_451" />
</g>
<path fill-rule="evenodd" d="M351,783l88,0l0,-96l-88,0l0,96Z" class="g1_451" />
<g clip-path="url(#c7_451)">
<path fill-rule="evenodd" d="M359,711l73,0l0,-24l-73,0l0,24Z" class="g1_451" />
</g>
<path fill-rule="evenodd" d="M359,735l73,0l0,-24l-73,0l0,24Z" class="g1_451" />
<path fill-rule="evenodd" d="M359,759l73,0l0,-24l-73,0l0,24Z" class="g1_451" />
<path fill-rule="evenodd" d="M359,783l73,0l0,-24l-73,0l0,24Z" class="g1_451" />
<path fill-rule="evenodd" d="M441,783l67,0l0,-96l-67,0l0,96Z" class="g1_451" />
<g clip-path="url(#c8_451)">
<path fill-rule="evenodd" d="M448,711l53,0l0,-24l-53,0l0,24Z" class="g1_451" />
</g>
<path fill-rule="evenodd" d="M510,783l377,0l0,-96l-377,0l0,96Z" class="g1_451" />
<g clip-path="url(#c9_451)">
<path fill-rule="evenodd" d="M517,711l363,0l0,-24l-363,0l0,24Z" class="g1_451" />
</g>
<path fill-rule="evenodd" d="M517,735l363,0l0,-24l-363,0l0,24Z" class="g1_451" />
<path d="M543.5,731.5l240,0" class="g2_451" />
<path fill-rule="evenodd" d="M517,759l363,0l0,-24l-363,0l0,24Z" class="g1_451" />
<path d="M46.5,687.5l0,-1" class="g3_451" />
<path d="M74.5,687.5l0,-1" class="g3_451" />
<path d="M101.5,687.5l0,-1" class="g3_451" />
<path d="M129.5,687.5l0,-1" class="g3_451" />
<path d="M164.5,687.5l0,-1" class="g3_451" />
<path d="M198.5,687.5l0,-1" class="g3_451" />
<path d="M200.5,687.5l150,0" class="g3_451" />
<path d="M350.5,687.5l0,-1" class="g3_451" />
<path d="M351.5,687.5l88,0" class="g3_451" />
<path d="M439.5,687.5l0,-1" class="g3_451" />
<path d="M441.5,687.5l67,0" class="g3_451" />
<path d="M508.5,687.5l0,-1" class="g3_451" />
<path d="M510.5,687.5l378,0" class="g3_451" />
<path d="M888.5,687.5l0,-1" class="g3_451" />
<path d="M46.5,783.5l0,-96" class="g3_451" />
<path d="M74.5,783.5l0,-96" class="g3_451" />
<path d="M101.5,783.5l0,-96" class="g3_451" />
<path d="M129.5,783.5l0,-96" class="g3_451" />
<path d="M164.5,783.5l0,-96" class="g3_451" />
<path d="M198.5,783.5l0,-96" class="g3_451" />
<path d="M350.5,783.5l0,-96" class="g3_451" />
<path d="M439.5,783.5l0,-96" class="g3_451" />
<path d="M508.5,783.5l0,-96" class="g3_451" />
<path d="M888.5,783.5l0,-96" class="g3_451" />
<path fill-rule="evenodd" d="M47,880l27,0l0,-97l-27,0l0,97Z" class="g1_451" />
<path fill-rule="evenodd" d="M76,880l25,0l0,-97l-25,0l0,97Z" class="g1_451" />
<path fill-rule="evenodd" d="M103,880l26,0l0,-97l-26,0l0,97Z" class="g1_451" />
<path fill-rule="evenodd" d="M200,880l150,0l0,-96l-150,0l0,96Z" class="g1_451" />
<g clip-path="url(#c10_451)">
<path fill-rule="evenodd" d="M207,808l135,0l0,-24l-135,0l0,24Z" class="g1_451" />
</g>
<path fill-rule="evenodd" d="M351,880l88,0l0,-96l-88,0l0,96Z" class="g1_451" />
<g clip-path="url(#c11_451)">
<path fill-rule="evenodd" d="M359,808l73,0l0,-24l-73,0l0,24Z" class="g1_451" />
</g>
<path fill-rule="evenodd" d="M359,832l73,0l0,-24l-73,0l0,24Z" class="g1_451" />
<path fill-rule="evenodd" d="M359,856l73,0l0,-24l-73,0l0,24Z" class="g1_451" />
<path fill-rule="evenodd" d="M359,880l73,0l0,-24l-73,0l0,24Z" class="g1_451" />
<path fill-rule="evenodd" d="M441,880l67,0l0,-96l-67,0l0,96Z" class="g1_451" />
<g clip-path="url(#c12_451)">
<path fill-rule="evenodd" d="M448,808l53,0l0,-24l-53,0l0,24Z" class="g1_451" />
</g>
<path fill-rule="evenodd" d="M510,880l377,0l0,-96l-377,0l0,96Z" class="g1_451" />
<g clip-path="url(#c13_451)">
<path fill-rule="evenodd" d="M517,808l363,0l0,-24l-363,0l0,24Z" class="g1_451" />
</g>
<path fill-rule="evenodd" d="M517,832l363,0l0,-24l-363,0l0,24Z" class="g1_451" />
<path d="M543.5,828.5l240,0" class="g2_451" />
<path fill-rule="evenodd" d="M517,856l363,0l0,-24l-363,0l0,24Z" class="g1_451" />
<path d="M46.5,784.5l0,-1" class="g3_451" />
<path d="M74.5,784.5l0,-1" class="g3_451" />
<path d="M101.5,784.5l0,-1" class="g3_451" />
<path d="M129.5,784.5l0,-1" class="g3_451" />
<path d="M164.5,784.5l0,-1" class="g3_451" />
<path d="M198.5,784.5l0,-1" class="g3_451" />
<path d="M200.5,784.5l150,0" class="g3_451" />
<path d="M350.5,784.5l0,-1" class="g3_451" />
<path d="M351.5,784.5l88,0" class="g3_451" />
<path d="M439.5,784.5l0,-1" class="g3_451" />
<path d="M441.5,784.5l67,0" class="g3_451" />
<path d="M508.5,784.5l0,-1" class="g3_451" />
<path d="M510.5,784.5l378,0" class="g3_451" />
<path d="M888.5,784.5l0,-1" class="g3_451" />
<path d="M46.5,880.5l0,-96" class="g3_451" />
<path d="M74.5,880.5l0,-96" class="g3_451" />
<path d="M101.5,880.5l0,-96" class="g3_451" />
<path d="M129.5,880.5l0,-96" class="g3_451" />
<path d="M164.5,880.5l0,-96" class="g3_451" />
<path d="M198.5,880.5l0,-96" class="g3_451" />
<path d="M350.5,880.5l0,-96" class="g3_451" />
<path d="M439.5,880.5l0,-96" class="g3_451" />
<path d="M508.5,880.5l0,-96" class="g3_451" />
<path d="M888.5,880.5l0,-96" class="g3_451" />
<path fill-rule="evenodd" d="M47,976l27,0l0,-96l-27,0l0,96Z" class="g1_451" />
<path fill-rule="evenodd" d="M76,976l25,0l0,-96l-25,0l0,96Z" class="g1_451" />
<path fill-rule="evenodd" d="M103,976l26,0l0,-96l-26,0l0,96Z" class="g1_451" />
<path fill-rule="evenodd" d="M200,976l150,0l0,-95l-150,0l0,95Z" class="g1_451" />
<g clip-path="url(#c14_451)">
<path fill-rule="evenodd" d="M207,905l135,0l0,-24l-135,0l0,24Z" class="g1_451" />
</g>
<path fill-rule="evenodd" d="M351,976l88,0l0,-95l-88,0l0,95Z" class="g1_451" />
<g clip-path="url(#c15_451)">
<path fill-rule="evenodd" d="M359,905l73,0l0,-24l-73,0l0,24Z" class="g1_451" />
</g>
<path fill-rule="evenodd" d="M359,929l73,0l0,-24l-73,0l0,24Z" class="g1_451" />
<path fill-rule="evenodd" d="M359,953l73,0l0,-24l-73,0l0,24Z" class="g1_451" />
<g clip-path="url(#c15_451)">
<path fill-rule="evenodd" d="M359,976l73,0l0,-23l-73,0l0,23Z" class="g1_451" />
</g>
<path fill-rule="evenodd" d="M441,976l67,0l0,-95l-67,0l0,95Z" class="g1_451" />
<g clip-path="url(#c16_451)">
<path fill-rule="evenodd" d="M448,905l53,0l0,-24l-53,0l0,24Z" class="g1_451" />
</g>
<path fill-rule="evenodd" d="M510,976l377,0l0,-95l-377,0l0,95Z" class="g1_451" />
<g clip-path="url(#c17_451)">
<path fill-rule="evenodd" d="M517,905l363,0l0,-24l-363,0l0,24Z" class="g1_451" />
</g>
<path fill-rule="evenodd" d="M517,929l363,0l0,-24l-363,0l0,24Z" class="g1_451" />
<path d="M543.5,925.5l240,0" class="g2_451" />
<path fill-rule="evenodd" d="M517,953l363,0l0,-24l-363,0l0,24Z" class="g1_451" />
<g clip-path="url(#c17_451)">
<path fill-rule="evenodd" d="M517,976l363,0l0,-23l-363,0l0,23Z" class="g1_451" />
</g>
<path d="M46.5,881.5l0,-1" class="g3_451" />
<path d="M74.5,881.5l0,-1" class="g3_451" />
<path d="M101.5,881.5l0,-1" class="g3_451" />
<path d="M129.5,881.5l0,-1" class="g3_451" />
<path d="M164.5,881.5l0,-1" class="g3_451" />
<path d="M198.5,881.5l0,-1" class="g3_451" />
<path d="M200.5,881.5l150,0" class="g3_451" />
<path d="M350.5,881.5l0,-1" class="g3_451" />
<path d="M351.5,881.5l88,0" class="g3_451" />
<path d="M439.5,881.5l0,-1" class="g3_451" />
<path d="M441.5,881.5l67,0" class="g3_451" />
<path d="M508.5,881.5l0,-1" class="g3_451" />
<path d="M510.5,881.5l378,0" class="g3_451" />
<path d="M888.5,881.5l0,-1" class="g3_451" />
<path d="M46.5,976.5l0,-95" class="g3_451" />
<path d="M74.5,976.5l0,-95" class="g3_451" />
<path d="M101.5,976.5l0,-95" class="g3_451" />
<path d="M129.5,976.5l0,-95" class="g3_451" />
<path d="M164.5,976.5l0,-95" class="g3_451" />
<path d="M198.5,976.5l0,-95" class="g3_451" />
<path d="M350.5,976.5l0,-95" class="g3_451" />
<path d="M439.5,976.5l0,-95" class="g3_451" />
<path d="M508.5,976.5l0,-95" class="g3_451" />
<path d="M888.5,976.5l0,-95" class="g3_451" />
<path fill-rule="evenodd" d="M47,1073l27,0l0,-97l-27,0l0,97Z" class="g1_451" />
<path fill-rule="evenodd" d="M76,1073l25,0l0,-97l-25,0l0,97Z" class="g1_451" />
<path fill-rule="evenodd" d="M103,1073l26,0l0,-97l-26,0l0,97Z" class="g1_451" />
<path fill-rule="evenodd" d="M200,1073l150,0l0,-95l-150,0l0,95Z" class="g1_451" />
<path fill-rule="evenodd" d="M207,1002l135,0l0,-24l-135,0l0,24Z" class="g1_451" />
<path fill-rule="evenodd" d="M351,1073l88,0l0,-95l-88,0l0,95Z" class="g1_451" />
<path fill-rule="evenodd" d="M359,1002l73,0l0,-24l-73,0l0,24Z" class="g1_451" />
<path fill-rule="evenodd" d="M359,1026l73,0l0,-24l-73,0l0,24Z" class="g1_451" />
<path fill-rule="evenodd" d="M359,1049l73,0l0,-23l-73,0l0,23Z" class="g1_451" />
<g clip-path="url(#c18_451)">
<path fill-rule="evenodd" d="M359,1073l73,0l0,-24l-73,0l0,24Z" class="g1_451" />
</g>
<path fill-rule="evenodd" d="M441,1073l67,0l0,-95l-67,0l0,95Z" class="g1_451" />
<path fill-rule="evenodd" d="M448,1002l53,0l0,-24l-53,0l0,24Z" class="g1_451" />
<path fill-rule="evenodd" d="M510,1073l377,0l0,-95l-377,0l0,95Z" class="g1_451" />
<path fill-rule="evenodd" d="M517,1002l363,0l0,-24l-363,0l0,24Z" class="g1_451" />
<path fill-rule="evenodd" d="M517,1026l363,0l0,-24l-363,0l0,24Z" class="g1_451" />
<path d="M543.5,1021.5l240,0" class="g2_451" />
<path fill-rule="evenodd" d="M517,1049l363,0l0,-23l-363,0l0,23Z" class="g1_451" />
<g clip-path="url(#c19_451)">
<path fill-rule="evenodd" d="M517,1073l363,0l0,-24l-363,0l0,24Z" class="g1_451" />
</g>
<path d="M46.5,978.5l0,-2" class="g3_451" />
<path d="M74.5,978.5l0,-2" class="g3_451" />
<path d="M101.5,978.5l0,-2" class="g3_451" />
<path d="M129.5,978.5l0,-2" class="g3_451" />
<path d="M164.5,978.5l0,-2" class="g3_451" />
<path d="M198.5,978.5l0,-2" class="g3_451" />
<path d="M200.5,978.5l150,0" class="g3_451" />
<path d="M350.5,978.5l0,-2" class="g3_451" />
<path d="M351.5,978.5l88,0" class="g3_451" />
<path d="M439.5,978.5l0,-2" class="g3_451" />
<path d="M441.5,978.5l67,0" class="g3_451" />
<path d="M508.5,978.5l0,-2" class="g3_451" />
<path d="M510.5,978.5l378,0" class="g3_451" />
<path d="M888.5,978.5l0,-2" class="g3_451" />
<path d="M46.5,1073.5l0,-95" class="g3_451" />
<path d="M46.5,1075.5l0,-2" class="g3_451" />
<path d="M46.5,1075.5l0,-2" class="g3_451" />
<path d="M47.5,1075.5l27,0" class="g3_451" />
<path d="M74.5,1073.5l0,-95" class="g3_451" />
<path d="M74.5,1075.5l0,-2" class="g3_451" />
<path d="M76.5,1075.5l25,0" class="g3_451" />
<path d="M101.5,1073.5l0,-95" class="g3_451" />
<path d="M101.5,1075.5l0,-2" class="g3_451" />
<path d="M103.5,1075.5l26,0" class="g3_451" />
<path d="M129.5,1073.5l0,-95" class="g3_451" />
<path d="M129.5,1075.5l0,-2" class="g3_451" />
<path d="M130.5,1075.5l34,0" class="g3_451" />
<path d="M164.5,1073.5l0,-95" class="g3_451" />
<path d="M164.5,1075.5l0,-2" class="g3_451" />
<path d="M165.5,1075.5l33,0" class="g3_451" />
<path d="M198.5,1073.5l0,-95" class="g3_451" />
<path d="M198.5,1075.5l0,-2" class="g3_451" />
<path d="M200.5,1075.5l150,0" class="g3_451" />
<path d="M350.5,1073.5l0,-95" class="g3_451" />
<path d="M350.5,1075.5l0,-2" class="g3_451" />
<path d="M351.5,1075.5l88,0" class="g3_451" />
<path d="M439.5,1073.5l0,-95" class="g3_451" />
<path d="M439.5,1075.5l0,-2" class="g3_451" />
<path d="M441.5,1075.5l67,0" class="g3_451" />
<path d="M508.5,1073.5l0,-95" class="g3_451" />
<path d="M508.5,1075.5l0,-2" class="g3_451" />
<path d="M510.5,1075.5l378,0" class="g3_451" />
<path d="M888.5,1073.5l0,-95" class="g3_451" />
<path d="M888.5,1075.5l0,-2" class="g3_451" />
<path d="M888.5,1075.5l0,-2" class="g3_451" />
</svg>