<?xml version="1.0" encoding="UTF-8" standalone="no"?>
<!DOCTYPE svg PUBLIC "-//W3C//DTD SVG 1.1//EN"
"http://www.w3.org/Graphics/SVG/1.1/DTD/svg11.dtd">
<svg version="1.1" xmlns="http://www.w3.org/2000/svg" xmlns:xlink="http://www.w3.org/1999/xlink">
<defs>
<clipPath id="c0_382"><path d="M180.5,850.5l0,-739l259,0l0,739Z" /></clipPath>
<clipPath id="c1_382"><path d="M441.5,850.5l0,-739l67,0l0,739Z" /></clipPath>
<clipPath id="c2_382"><path d="M509.5,850.5l0,-739l280,0l0,739Z" /></clipPath>
<clipPath id="c3_382"><path d="M791.5,850.5l0,-739l81,0l0,739Z" /></clipPath>
<clipPath id="c4_382"><path d="M180.5,890.5l0,-38l259,0l0,38Z" /></clipPath>
<clipPath id="c5_382"><path d="M441.5,890.5l0,-38l67,0l0,38Z" /></clipPath>
<clipPath id="c6_382"><path d="M509.5,890.5l0,-38l280,0l0,38Z" /></clipPath>
<clipPath id="c7_382"><path d="M791.5,890.5l0,-38l81,0l0,38Z" /></clipPath>
<clipPath id="c8_382"><path d="M180.5,930.5l0,-39l259,0l0,39Z" /></clipPath>
<clipPath id="c9_382"><path d="M441.5,930.5l0,-39l67,0l0,39Z" /></clipPath>
<clipPath id="c10_382"><path d="M509.5,930.5l0,-39l280,0l0,39Z" /></clipPath>
<clipPath id="c11_382"><path d="M791.5,930.5l0,-39l81,0l0,39Z" /></clipPath>
<clipPath id="c12_382"><path d="M509.5,1043.5l0,-72l280,0l0,72Z" /></clipPath>
<style type="text/css"><![CDATA[
.g2_382{
fill: none;
stroke: #7E7E7E;
stroke-width: 1;
stroke-linecap: butt;
stroke-linejoin: miter;
}
.g1_382{
fill: #F1F1F1;
}
]]></style>
</defs>
<path fill-rule="evenodd" d="M47,850l32,0L79,111l-32,0l0,739Z" class="g1_382" />
<path fill-rule="evenodd" d="M81,850l32,0l0,-739l-32,0l0,739Z" class="g1_382" />
<path fill-rule="evenodd" d="M114,850l32,0l0,-739l-32,0l0,739Z" class="g1_382" />
<path fill-rule="evenodd" d="M147,850l32,0l0,-739l-32,0l0,739Z" class="g1_382" />
<path fill-rule="evenodd" d="M180,850l259,0l0,-739l-259,0l0,739Z" class="g1_382" />
<g clip-path="url(#c0_382)">
<path fill-rule="evenodd" d="M188,135l244,0l0,-24l-244,0l0,24Z" class="g1_382" />
</g>
<path fill-rule="evenodd" d="M441,850l67,0l0,-739l-67,0l0,739Z" class="g1_382" />
<g clip-path="url(#c1_382)">
<path fill-rule="evenodd" d="M448,135l52,0l0,-24l-52,0l0,24Z" class="g1_382" />
</g>
<path fill-rule="evenodd" d="M509,850l280,0l0,-739l-280,0l0,739Z" class="g1_382" />
<g clip-path="url(#c2_382)">
<path fill-rule="evenodd" d="M517,135l265,0l0,-24l-265,0l0,24Z" class="g1_382" />
</g>
<path fill-rule="evenodd" d="M517,159l265,0l0,-24l-265,0l0,24Z" class="g1_382" />
<path fill-rule="evenodd" d="M517,182l265,0l0,-23l-265,0l0,23Z" class="g1_382" />
<path fill-rule="evenodd" d="M517,206l265,0l0,-24l-265,0l0,24Z" class="g1_382" />
<path fill-rule="evenodd" d="M517,230l265,0l0,-24l-265,0l0,24Z" class="g1_382" />
<path fill-rule="evenodd" d="M517,254l265,0l0,-24l-265,0l0,24Z" class="g1_382" />
<path fill-rule="evenodd" d="M517,278l265,0l0,-24l-265,0l0,24Z" class="g1_382" />
<path fill-rule="evenodd" d="M517,302l265,0l0,-24l-265,0l0,24Z" class="g1_382" />
<path fill-rule="evenodd" d="M517,325l265,0l0,-23l-265,0l0,23Z" class="g1_382" />
<path fill-rule="evenodd" d="M517,349l265,0l0,-24l-265,0l0,24Z" class="g1_382" />
<path fill-rule="evenodd" d="M517,373l265,0l0,-24l-265,0l0,24Z" class="g1_382" />
<path fill-rule="evenodd" d="M517,397l265,0l0,-24l-265,0l0,24Z" class="g1_382" />
<path fill-rule="evenodd" d="M517,421l265,0l0,-24l-265,0l0,24Z" class="g1_382" />
<path fill-rule="evenodd" d="M517,445l265,0l0,-24l-265,0l0,24Z" class="g1_382" />
<path fill-rule="evenodd" d="M517,469l265,0l0,-24l-265,0l0,24Z" class="g1_382" />
<path fill-rule="evenodd" d="M517,492l265,0l0,-23l-265,0l0,23Z" class="g1_382" />
<path fill-rule="evenodd" d="M517,516l265,0l0,-24l-265,0l0,24Z" class="g1_382" />
<path fill-rule="evenodd" d="M517,540l265,0l0,-24l-265,0l0,24Z" class="g1_382" />
<path fill-rule="evenodd" d="M517,564l265,0l0,-24l-265,0l0,24Z" class="g1_382" />
<path fill-rule="evenodd" d="M517,588l265,0l0,-24l-265,0l0,24Z" class="g1_382" />
<path fill-rule="evenodd" d="M517,612l265,0l0,-24l-265,0l0,24Z" class="g1_382" />
<path fill-rule="evenodd" d="M517,635l265,0l0,-23l-265,0l0,23Z" class="g1_382" />
<path fill-rule="evenodd" d="M517,659l265,0l0,-24l-265,0l0,24Z" class="g1_382" />
<path fill-rule="evenodd" d="M517,683l265,0l0,-24l-265,0l0,24Z" class="g1_382" />
<path fill-rule="evenodd" d="M517,707l265,0l0,-24l-265,0l0,24Z" class="g1_382" />
<path fill-rule="evenodd" d="M517,731l265,0l0,-24l-265,0l0,24Z" class="g1_382" />
<path fill-rule="evenodd" d="M517,755l265,0l0,-24l-265,0l0,24Z" class="g1_382" />
<path fill-rule="evenodd" d="M517,778l265,0l0,-23l-265,0l0,23Z" class="g1_382" />
<path fill-rule="evenodd" d="M517,802l265,0l0,-24l-265,0l0,24Z" class="g1_382" />
<path fill-rule="evenodd" d="M517,826l265,0l0,-24l-265,0l0,24Z" class="g1_382" />
<path fill-rule="evenodd" d="M517,850l265,0l0,-24l-265,0l0,24Z" class="g1_382" />
<path fill-rule="evenodd" d="M791,850l81,0l0,-739l-81,0l0,739Z" class="g1_382" />
<g clip-path="url(#c3_382)">
<path fill-rule="evenodd" d="M798,135l66,0l0,-24l-66,0l0,24Z" class="g1_382" />
</g>
<path d="M46.5,111.5l0,-1" class="g2_382" />
<path d="M46.5,111.5l0,-1" class="g2_382" />
<path d="M47.5,111.5l32,0" class="g2_382" />
<path d="M79.5,111.5l0,-1" class="g2_382" />
<path d="M81.5,111.5l32,0" class="g2_382" />
<path d="M113.5,111.5l0,-1" class="g2_382" />
<path d="M114.5,111.5l32,0" class="g2_382" />
<path d="M146.5,111.5l0,-1" class="g2_382" />
<path d="M147.5,111.5l32,0" class="g2_382" />
<path d="M179.5,111.5l0,-1" class="g2_382" />
<path d="M180.5,111.5l259,0" class="g2_382" />
<path d="M439.5,111.5l0,-1" class="g2_382" />
<path d="M441.5,111.5l67,0" class="g2_382" />
<path d="M508.5,111.5l0,-1" class="g2_382" />
<path d="M509.5,111.5l281,0" class="g2_382" />
<path d="M790.5,111.5l0,-1" class="g2_382" />
<path d="M791.5,111.5l81,0" class="g2_382" />
<path d="M872.5,111.5l0,-1" class="g2_382" />
<path d="M872.5,111.5l0,-1" class="g2_382" />
<path d="M46.5,850.5l0,-739" class="g2_382" />
<path d="M79.5,850.5l0,-739" class="g2_382" />
<path d="M113.5,850.5l0,-739" class="g2_382" />
<path d="M146.5,850.5l0,-739" class="g2_382" />
<path d="M179.5,850.5l0,-739" class="g2_382" />
<path d="M439.5,850.5l0,-739" class="g2_382" />
<path d="M508.5,850.5l0,-739" class="g2_382" />
<path d="M790.5,850.5l0,-739" class="g2_382" />
<path d="M872.5,850.5l0,-739" class="g2_382" />
<path fill-rule="evenodd" d="M47,890l32,0l0,-40l-32,0l0,40Z" class="g1_382" />
<path fill-rule="evenodd" d="M81,890l32,0l0,-40l-32,0l0,40Z" class="g1_382" />
<path fill-rule="evenodd" d="M114,890l32,0l0,-40l-32,0l0,40Z" class="g1_382" />
<path fill-rule="evenodd" d="M147,890l32,0l0,-40l-32,0l0,40Z" class="g1_382" />
<path fill-rule="evenodd" d="M180,890l259,0l0,-38l-259,0l0,38Z" class="g1_382" />
<g clip-path="url(#c4_382)">
<path fill-rule="evenodd" d="M188,875l244,0l0,-23l-244,0l0,23Z" class="g1_382" />
</g>
<path fill-rule="evenodd" d="M441,890l67,0l0,-38l-67,0l0,38Z" class="g1_382" />
<g clip-path="url(#c5_382)">
<path fill-rule="evenodd" d="M448,875l52,0l0,-23l-52,0l0,23Z" class="g1_382" />
</g>
<path fill-rule="evenodd" d="M509,890l280,0l0,-38l-280,0l0,38Z" class="g1_382" />
<g clip-path="url(#c6_382)">
<path fill-rule="evenodd" d="M517,875l265,0l0,-23l-265,0l0,23Z" class="g1_382" />
</g>
<path fill-rule="evenodd" d="M791,890l81,0l0,-38l-81,0l0,38Z" class="g1_382" />
<g clip-path="url(#c7_382)">
<path fill-rule="evenodd" d="M798,875l66,0l0,-23l-66,0l0,23Z" class="g1_382" />
</g>
<path d="M46.5,851.5l0,-1" class="g2_382" />
<path d="M79.5,851.5l0,-1" class="g2_382" />
<path d="M113.5,851.5l0,-1" class="g2_382" />
<path d="M146.5,851.5l0,-1" class="g2_382" />
<path d="M179.5,851.5l0,-1" class="g2_382" />
<path d="M180.5,851.5l259,0" class="g2_382" />
<path d="M439.5,851.5l0,-1" class="g2_382" />
<path d="M441.5,851.5l67,0" class="g2_382" />
<path d="M508.5,851.5l0,-1" class="g2_382" />
<path d="M509.5,851.5l281,0" class="g2_382" />
<path d="M790.5,851.5l0,-1" class="g2_382" />
<path d="M791.5,851.5l81,0" class="g2_382" />
<path d="M872.5,851.5l0,-1" class="g2_382" />
<path d="M46.5,890.5l0,-39" class="g2_382" />
<path d="M79.5,890.5l0,-39" class="g2_382" />
<path d="M113.5,890.5l0,-39" class="g2_382" />
<path d="M146.5,890.5l0,-39" class="g2_382" />
<path d="M179.5,890.5l0,-39" class="g2_382" />
<path d="M439.5,890.5l0,-39" class="g2_382" />
<path d="M508.5,890.5l0,-39" class="g2_382" />
<path d="M790.5,890.5l0,-39" class="g2_382" />
<path d="M872.5,890.5l0,-39" class="g2_382" />
<path fill-rule="evenodd" d="M47,930l32,0l0,-40l-32,0l0,40Z" class="g1_382" />
<path fill-rule="evenodd" d="M81,930l32,0l0,-40l-32,0l0,40Z" class="g1_382" />
<path fill-rule="evenodd" d="M114,930l32,0l0,-40l-32,0l0,40Z" class="g1_382" />
<path fill-rule="evenodd" d="M147,930l32,0l0,-40l-32,0l0,40Z" class="g1_382" />
<path fill-rule="evenodd" d="M180,930l259,0l0,-39l-259,0l0,39Z" class="g1_382" />
<g clip-path="url(#c8_382)">
<path fill-rule="evenodd" d="M188,915l244,0l0,-24l-244,0l0,24Z" class="g1_382" />
</g>
<path fill-rule="evenodd" d="M441,930l67,0l0,-39l-67,0l0,39Z" class="g1_382" />
<g clip-path="url(#c9_382)">
<path fill-rule="evenodd" d="M448,915l52,0l0,-24l-52,0l0,24Z" class="g1_382" />
</g>
<path fill-rule="evenodd" d="M509,930l280,0l0,-39l-280,0l0,39Z" class="g1_382" />
<g clip-path="url(#c10_382)">
<path fill-rule="evenodd" d="M517,915l265,0l0,-24l-265,0l0,24Z" class="g1_382" />
</g>
<path fill-rule="evenodd" d="M791,930l81,0l0,-39l-81,0l0,39Z" class="g1_382" />
<g clip-path="url(#c11_382)">
<path fill-rule="evenodd" d="M798,915l66,0l0,-24l-66,0l0,24Z" class="g1_382" />
</g>
<path d="M46.5,891.5l0,-1" class="g2_382" />
<path d="M79.5,891.5l0,-1" class="g2_382" />
<path d="M113.5,891.5l0,-1" class="g2_382" />
<path d="M146.5,891.5l0,-1" class="g2_382" />
<path d="M179.5,891.5l0,-1" class="g2_382" />
<path d="M180.5,891.5l259,0" class="g2_382" />
<path d="M439.5,891.5l0,-1" class="g2_382" />
<path d="M441.5,891.5l67,0" class="g2_382" />
<path d="M508.5,891.5l0,-1" class="g2_382" />
<path d="M509.5,891.5l281,0" class="g2_382" />
<path d="M790.5,891.5l0,-1" class="g2_382" />
<path d="M791.5,891.5l81,0" class="g2_382" />
<path d="M872.5,891.5l0,-1" class="g2_382" />
<path d="M46.5,930.5l0,-39" class="g2_382" />
<path d="M79.5,930.5l0,-39" class="g2_382" />
<path d="M113.5,930.5l0,-39" class="g2_382" />
<path d="M146.5,930.5l0,-39" class="g2_382" />
<path d="M179.5,930.5l0,-39" class="g2_382" />
<path d="M439.5,930.5l0,-39" class="g2_382" />
<path d="M508.5,930.5l0,-39" class="g2_382" />
<path d="M790.5,930.5l0,-39" class="g2_382" />
<path d="M872.5,930.5l0,-39" class="g2_382" />
<path fill-rule="evenodd" d="M47,970l32,0l0,-40l-32,0l0,40Z" class="g1_382" />
<path fill-rule="evenodd" d="M81,970l32,0l0,-40l-32,0l0,40Z" class="g1_382" />
<path fill-rule="evenodd" d="M114,970l32,0l0,-40l-32,0l0,40Z" class="g1_382" />
<path fill-rule="evenodd" d="M147,970l32,0l0,-40l-32,0l0,40Z" class="g1_382" />
<path fill-rule="evenodd" d="M180,970l259,0l0,-39l-259,0l0,39Z" class="g1_382" />
<path fill-rule="evenodd" d="M188,955l244,0l0,-24l-244,0l0,24Z" class="g1_382" />
<path fill-rule="evenodd" d="M441,970l67,0l0,-39l-67,0l0,39Z" class="g1_382" />
<path fill-rule="evenodd" d="M448,955l52,0l0,-24l-52,0l0,24Z" class="g1_382" />
<path fill-rule="evenodd" d="M509,970l280,0l0,-39l-280,0l0,39Z" class="g1_382" />
<path fill-rule="evenodd" d="M517,955l265,0l0,-24l-265,0l0,24Z" class="g1_382" />
<path fill-rule="evenodd" d="M791,970l81,0l0,-39l-81,0l0,39Z" class="g1_382" />
<path fill-rule="evenodd" d="M798,955l66,0l0,-24l-66,0l0,24Z" class="g1_382" />
<path d="M46.5,931.5l0,-1" class="g2_382" />
<path d="M79.5,931.5l0,-1" class="g2_382" />
<path d="M113.5,931.5l0,-1" class="g2_382" />
<path d="M146.5,931.5l0,-1" class="g2_382" />
<path d="M179.5,931.5l0,-1" class="g2_382" />
<path d="M180.5,931.5l259,0" class="g2_382" />
<path d="M439.5,931.5l0,-1" class="g2_382" />
<path d="M441.5,931.5l67,0" class="g2_382" />
<path d="M508.5,931.5l0,-1" class="g2_382" />
<path d="M509.5,931.5l281,0" class="g2_382" />
<path d="M790.5,931.5l0,-1" class="g2_382" />
<path d="M791.5,931.5l81,0" class="g2_382" />
<path d="M872.5,931.5l0,-1" class="g2_382" />
<path d="M46.5,970.5l0,-39" class="g2_382" />
<path d="M79.5,970.5l0,-39" class="g2_382" />
<path d="M113.5,970.5l0,-39" class="g2_382" />
<path d="M146.5,970.5l0,-39" class="g2_382" />
<path d="M179.5,970.5l0,-39" class="g2_382" />
<path d="M439.5,970.5l0,-39" class="g2_382" />
<path d="M508.5,970.5l0,-39" class="g2_382" />
<path d="M790.5,970.5l0,-39" class="g2_382" />
<path d="M872.5,970.5l0,-39" class="g2_382" />
<path fill-rule="evenodd" d="M47,1043l32,0l0,-73l-32,0l0,73Z" class="g1_382" />
<path fill-rule="evenodd" d="M81,1043l32,0l0,-73l-32,0l0,73Z" class="g1_382" />
<path fill-rule="evenodd" d="M114,1043l32,0l0,-73l-32,0l0,73Z" class="g1_382" />
<path fill-rule="evenodd" d="M147,1043l32,0l0,-73l-32,0l0,73Z" class="g1_382" />
<path fill-rule="evenodd" d="M180,1043l259,0l0,-72l-259,0l0,72Z" class="g1_382" />
<path fill-rule="evenodd" d="M188,995l244,0l0,-24l-244,0l0,24Z" class="g1_382" />
<path fill-rule="evenodd" d="M441,1043l67,0l0,-72l-67,0l0,72Z" class="g1_382" />
<path fill-rule="evenodd" d="M448,995l52,0l0,-24l-52,0l0,24Z" class="g1_382" />
<path fill-rule="evenodd" d="M509,1043l280,0l0,-72l-280,0l0,72Z" class="g1_382" />
<path fill-rule="evenodd" d="M517,995l265,0l0,-24l-265,0l0,24Z" class="g1_382" />
<path fill-rule="evenodd" d="M517,1019l265,0l0,-24l-265,0l0,24Z" class="g1_382" />
<g clip-path="url(#c12_382)">
<path fill-rule="evenodd" d="M517,1043l265,0l0,-24l-265,0l0,24Z" class="g1_382" />
</g>
<path fill-rule="evenodd" d="M791,1043l81,0l0,-72l-81,0l0,72Z" class="g1_382" />
<path fill-rule="evenodd" d="M798,995l66,0l0,-24l-66,0l0,24Z" class="g1_382" />
<path d="M46.5,971.5l0,-1" class="g2_382" />
<path d="M79.5,971.5l0,-1" class="g2_382" />
<path d="M113.5,971.5l0,-1" class="g2_382" />
<path d="M146.5,971.5l0,-1" class="g2_382" />
<path d="M179.5,971.5l0,-1" class="g2_382" />
<path d="M180.5,971.5l259,0" class="g2_382" />
<path d="M439.5,971.5l0,-1" class="g2_382" />
<path d="M441.5,971.5l67,0" class="g2_382" />
<path d="M508.5,971.5l0,-1" class="g2_382" />
<path d="M509.5,971.5l281,0" class="g2_382" />
<path d="M790.5,971.5l0,-1" class="g2_382" />
<path d="M791.5,971.5l81,0" class="g2_382" />
<path d="M872.5,971.5l0,-1" class="g2_382" />
<path d="M46.5,1043.5l0,-72" class="g2_382" />
<path d="M46.5,1044.5l0,-1" class="g2_382" />
<path d="M46.5,1044.5l0,-1" class="g2_382" />
<path d="M47.5,1044.5l32,0" class="g2_382" />
<path d="M79.5,1043.5l0,-72" class="g2_382" />
<path d="M79.5,1044.5l0,-1" class="g2_382" />
<path d="M81.5,1044.5l32,0" class="g2_382" />
<path d="M113.5,1043.5l0,-72" class="g2_382" />
<path d="M113.5,1044.5l0,-1" class="g2_382" />
<path d="M114.5,1044.5l32,0" class="g2_382" />
<path d="M146.5,1043.5l0,-72" class="g2_382" />
<path d="M146.5,1044.5l0,-1" class="g2_382" />
<path d="M147.5,1044.5l32,0" class="g2_382" />
<path d="M179.5,1043.5l0,-72" class="g2_382" />
<path d="M179.5,1044.5l0,-1" class="g2_382" />
<path d="M180.5,1044.5l259,0" class="g2_382" />
<path d="M439.5,1043.5l0,-72" class="g2_382" />
<path d="M439.5,1044.5l0,-1" class="g2_382" />
<path d="M441.5,1044.5l67,0" class="g2_382" />
<path d="M508.5,1043.5l0,-72" class="g2_382" />
<path d="M508.5,1044.5l0,-1" class="g2_382" />
<path d="M509.5,1044.5l281,0" class="g2_382" />
<path d="M790.5,1043.5l0,-72" class="g2_382" />
<path d="M790.5,1044.5l0,-1" class="g2_382" />
<path d="M791.5,1044.5l81,0" class="g2_382" />
<path d="M872.5,1043.5l0,-72" class="g2_382" />
<path d="M872.5,1044.5l0,-1" class="g2_382" />
<path d="M872.5,1044.5l0,-1" class="g2_382" />
</svg>