<?xml version="1.0" encoding="UTF-8" standalone="no"?>
<!DOCTYPE svg PUBLIC "-//W3C//DTD SVG 1.1//EN"
"http://www.w3.org/Graphics/SVG/1.1/DTD/svg11.dtd">
<svg version="1.1" xmlns="http://www.w3.org/2000/svg" xmlns:xlink="http://www.w3.org/1999/xlink">
<defs>
<clipPath id="c0_17"><path d="M47.5,728.5l0,-48l178,0l0,48Z" /></clipPath>
<clipPath id="c1_17"><path d="M226.5,728.5l0,-48l163,0l0,48Z" /></clipPath>
<clipPath id="c2_17"><path d="M390.5,728.5l0,-48l497,0l0,48Z" /></clipPath>
<clipPath id="c3_17"><path d="M47.5,777.5l0,-47l178,0l0,47Z" /></clipPath>
<clipPath id="c4_17"><path d="M226.5,777.5l0,-47l163,0l0,47Z" /></clipPath>
<clipPath id="c5_17"><path d="M390.5,777.5l0,-47l497,0l0,47Z" /></clipPath>
<clipPath id="c6_17"><path d="M47.5,1031.5l0,-148l840,0l0,148Z" /></clipPath>
<style type="text/css"><![CDATA[
.g2_17{
fill: none;
stroke: #7E7E7E;
stroke-width: 1;
stroke-linecap: butt;
stroke-linejoin: miter;
}
.g3_17{
fill: #F1F1F1;
}
.g1_17{
fill: #DBE5F1;
}
]]></style>
</defs>
<path fill-rule="evenodd" d="M47,528l178,0l0,-24L47,504l0,24Z" class="g1_17" />
<path fill-rule="evenodd" d="M55,528l162,0l0,-24L55,504l0,24Z" class="g1_17" />
<path fill-rule="evenodd" d="M226,528l163,0l0,-24l-163,0l0,24Z" class="g1_17" />
<path fill-rule="evenodd" d="M234,528l147,0l0,-24l-147,0l0,24Z" class="g1_17" />
<path fill-rule="evenodd" d="M390,528l497,0l0,-24l-497,0l0,24Z" class="g1_17" />
<path fill-rule="evenodd" d="M398,528l482,0l0,-24l-482,0l0,24Z" class="g1_17" />
<path d="M46.5,504.5l0,-1" class="g2_17" />
<path d="M46.5,504.5l0,-1" class="g2_17" />
<path d="M47.5,504.5l178,0" class="g2_17" />
<path d="M225.5,504.5l0,-1" class="g2_17" />
<path d="M226.5,504.5l163,0" class="g2_17" />
<path d="M389.5,504.5l0,-1" class="g2_17" />
<path d="M390.5,504.5l497,0" class="g2_17" />
<path d="M887.5,504.5l0,-1" class="g2_17" />
<path d="M887.5,504.5l0,-1" class="g2_17" />
<path d="M46.5,528.5l0,-24" class="g2_17" />
<path d="M225.5,528.5l0,-24" class="g2_17" />
<path d="M389.5,528.5l0,-24" class="g2_17" />
<path d="M887.5,528.5l0,-24" class="g2_17" />
<path fill-rule="evenodd" d="M47,554l178,0l0,-24L47,530l0,24Z" class="g3_17" />
<path fill-rule="evenodd" d="M55,554l162,0l0,-24L55,530l0,24Z" class="g3_17" />
<path fill-rule="evenodd" d="M226,554l163,0l0,-24l-163,0l0,24Z" class="g3_17" />
<path fill-rule="evenodd" d="M234,554l147,0l0,-24l-147,0l0,24Z" class="g3_17" />
<path fill-rule="evenodd" d="M390,554l497,0l0,-24l-497,0l0,24Z" class="g3_17" />
<path fill-rule="evenodd" d="M398,554l482,0l0,-24l-482,0l0,24Z" class="g3_17" />
<path d="M46.5,530.5l0,-2" class="g2_17" />
<path d="M47.5,530.5l178,0" class="g2_17" />
<path d="M225.5,530.5l0,-2" class="g2_17" />
<path d="M226.5,530.5l163,0" class="g2_17" />
<path d="M389.5,530.5l0,-2" class="g2_17" />
<path d="M390.5,530.5l497,0" class="g2_17" />
<path d="M887.5,530.5l0,-2" class="g2_17" />
<path d="M46.5,554.5l0,-24" class="g2_17" />
<path d="M225.5,554.5l0,-24" class="g2_17" />
<path d="M389.5,554.5l0,-24" class="g2_17" />
<path d="M887.5,554.5l0,-24" class="g2_17" />
<path fill-rule="evenodd" d="M47,579l178,0l0,-24L47,555l0,24Z" class="g3_17" />
<path fill-rule="evenodd" d="M55,579l162,0l0,-24L55,555l0,24Z" class="g3_17" />
<path fill-rule="evenodd" d="M226,579l163,0l0,-24l-163,0l0,24Z" class="g3_17" />
<path fill-rule="evenodd" d="M234,579l147,0l0,-24l-147,0l0,24Z" class="g3_17" />
<path fill-rule="evenodd" d="M390,579l497,0l0,-24l-497,0l0,24Z" class="g3_17" />
<path fill-rule="evenodd" d="M398,579l482,0l0,-24l-482,0l0,24Z" class="g3_17" />
<path d="M46.5,555.5l0,-1" class="g2_17" />
<path d="M47.5,555.5l178,0" class="g2_17" />
<path d="M225.5,555.5l0,-1" class="g2_17" />
<path d="M226.5,555.5l163,0" class="g2_17" />
<path d="M389.5,555.5l0,-1" class="g2_17" />
<path d="M390.5,555.5l497,0" class="g2_17" />
<path d="M887.5,555.5l0,-1" class="g2_17" />
<path d="M46.5,579.5l0,-24" class="g2_17" />
<path d="M225.5,579.5l0,-24" class="g2_17" />
<path d="M389.5,579.5l0,-24" class="g2_17" />
<path d="M887.5,579.5l0,-24" class="g2_17" />
<path fill-rule="evenodd" d="M47,604l178,0l0,-24L47,580l0,24Z" class="g3_17" />
<path fill-rule="evenodd" d="M55,604l162,0l0,-24L55,580l0,24Z" class="g3_17" />
<path fill-rule="evenodd" d="M226,604l163,0l0,-24l-163,0l0,24Z" class="g3_17" />
<path fill-rule="evenodd" d="M234,604l147,0l0,-24l-147,0l0,24Z" class="g3_17" />
<path fill-rule="evenodd" d="M390,604l497,0l0,-24l-497,0l0,24Z" class="g3_17" />
<path fill-rule="evenodd" d="M398,604l482,0l0,-24l-482,0l0,24Z" class="g3_17" />
<path d="M46.5,580.5l0,-1" class="g2_17" />
<path d="M47.5,580.5l178,0" class="g2_17" />
<path d="M225.5,580.5l0,-1" class="g2_17" />
<path d="M226.5,580.5l163,0" class="g2_17" />
<path d="M389.5,580.5l0,-1" class="g2_17" />
<path d="M390.5,580.5l497,0" class="g2_17" />
<path d="M887.5,580.5l0,-1" class="g2_17" />
<path d="M46.5,604.5l0,-24" class="g2_17" />
<path d="M225.5,604.5l0,-24" class="g2_17" />
<path d="M389.5,604.5l0,-24" class="g2_17" />
<path d="M887.5,604.5l0,-24" class="g2_17" />
<path fill-rule="evenodd" d="M47,630l178,0l0,-24L47,606l0,24Z" class="g3_17" />
<path fill-rule="evenodd" d="M55,630l162,0l0,-24L55,606l0,24Z" class="g3_17" />
<path fill-rule="evenodd" d="M226,630l163,0l0,-24l-163,0l0,24Z" class="g3_17" />
<path fill-rule="evenodd" d="M234,630l147,0l0,-24l-147,0l0,24Z" class="g3_17" />
<path fill-rule="evenodd" d="M390,630l497,0l0,-24l-497,0l0,24Z" class="g3_17" />
<path fill-rule="evenodd" d="M398,630l482,0l0,-24l-482,0l0,24Z" class="g3_17" />
<path d="M46.5,606.5l0,-2" class="g2_17" />
<path d="M47.5,606.5l178,0" class="g2_17" />
<path d="M225.5,606.5l0,-2" class="g2_17" />
<path d="M226.5,606.5l163,0" class="g2_17" />
<path d="M389.5,606.5l0,-2" class="g2_17" />
<path d="M390.5,606.5l497,0" class="g2_17" />
<path d="M887.5,606.5l0,-2" class="g2_17" />
<path d="M46.5,630.5l0,-24" class="g2_17" />
<path d="M225.5,630.5l0,-24" class="g2_17" />
<path d="M389.5,630.5l0,-24" class="g2_17" />
<path d="M887.5,630.5l0,-24" class="g2_17" />
<path fill-rule="evenodd" d="M47,679l178,0l0,-48L47,631l0,48Z" class="g3_17" />
<path fill-rule="evenodd" d="M55,655l162,0l0,-24L55,631l0,24Z" class="g3_17" />
<path fill-rule="evenodd" d="M226,679l163,0l0,-48l-163,0l0,48Z" class="g3_17" />
<path fill-rule="evenodd" d="M234,655l147,0l0,-24l-147,0l0,24Z" class="g3_17" />
<path fill-rule="evenodd" d="M390,679l497,0l0,-48l-497,0l0,48Z" class="g3_17" />
<path fill-rule="evenodd" d="M398,655l482,0l0,-24l-482,0l0,24Z" class="g3_17" />
<path fill-rule="evenodd" d="M398,679l482,0l0,-24l-482,0l0,24Z" class="g3_17" />
<path d="M46.5,631.5l0,-1" class="g2_17" />
<path d="M47.5,631.5l178,0" class="g2_17" />
<path d="M225.5,631.5l0,-1" class="g2_17" />
<path d="M226.5,631.5l163,0" class="g2_17" />
<path d="M389.5,631.5l0,-1" class="g2_17" />
<path d="M390.5,631.5l497,0" class="g2_17" />
<path d="M887.5,631.5l0,-1" class="g2_17" />
<path d="M46.5,679.5l0,-48" class="g2_17" />
<path d="M225.5,679.5l0,-48" class="g2_17" />
<path d="M389.5,679.5l0,-48" class="g2_17" />
<path d="M887.5,679.5l0,-48" class="g2_17" />
<path fill-rule="evenodd" d="M47,728l178,0l0,-48L47,680l0,48Z" class="g3_17" />
<g clip-path="url(#c0_17)">
<path fill-rule="evenodd" d="M55,704l162,0l0,-24L55,680l0,24Z" class="g3_17" />
</g>
<path fill-rule="evenodd" d="M226,728l163,0l0,-48l-163,0l0,48Z" class="g3_17" />
<g clip-path="url(#c1_17)">
<path fill-rule="evenodd" d="M234,704l147,0l0,-24l-147,0l0,24Z" class="g3_17" />
</g>
<path fill-rule="evenodd" d="M390,728l497,0l0,-48l-497,0l0,48Z" class="g3_17" />
<g clip-path="url(#c2_17)">
<path fill-rule="evenodd" d="M398,704l482,0l0,-24l-482,0l0,24Z" class="g3_17" />
</g>
<path fill-rule="evenodd" d="M398,728l482,0l0,-24l-482,0l0,24Z" class="g3_17" />
<path d="M46.5,680.5l0,-1" class="g2_17" />
<path d="M47.5,680.5l178,0" class="g2_17" />
<path d="M225.5,680.5l0,-1" class="g2_17" />
<path d="M226.5,680.5l163,0" class="g2_17" />
<path d="M389.5,680.5l0,-1" class="g2_17" />
<path d="M390.5,680.5l497,0" class="g2_17" />
<path d="M887.5,680.5l0,-1" class="g2_17" />
<path d="M46.5,728.5l0,-48" class="g2_17" />
<path d="M225.5,728.5l0,-48" class="g2_17" />
<path d="M389.5,728.5l0,-48" class="g2_17" />
<path d="M887.5,728.5l0,-48" class="g2_17" />
<path fill-rule="evenodd" d="M47,777l178,0l0,-47L47,730l0,47Z" class="g3_17" />
<g clip-path="url(#c3_17)">
<path fill-rule="evenodd" d="M55,753l162,0l0,-23L55,730l0,23Z" class="g3_17" />
</g>
<path fill-rule="evenodd" d="M226,777l163,0l0,-47l-163,0l0,47Z" class="g3_17" />
<g clip-path="url(#c4_17)">
<path fill-rule="evenodd" d="M234,753l147,0l0,-23l-147,0l0,23Z" class="g3_17" />
</g>
<path fill-rule="evenodd" d="M234,777l147,0l0,-24l-147,0l0,24Z" class="g3_17" />
<path fill-rule="evenodd" d="M390,777l497,0l0,-47l-497,0l0,47Z" class="g3_17" />
<g clip-path="url(#c5_17)">
<path fill-rule="evenodd" d="M398,753l482,0l0,-23l-482,0l0,23Z" class="g3_17" />
</g>
<path fill-rule="evenodd" d="M398,777l482,0l0,-24l-482,0l0,24Z" class="g3_17" />
<path d="M46.5,729.5l0,-1" class="g2_17" />
<path d="M47.5,729.5l178,0" class="g2_17" />
<path d="M225.5,729.5l0,-1" class="g2_17" />
<path d="M226.5,729.5l163,0" class="g2_17" />
<path d="M389.5,729.5l0,-1" class="g2_17" />
<path d="M390.5,729.5l497,0" class="g2_17" />
<path d="M887.5,729.5l0,-1" class="g2_17" />
<path d="M46.5,777.5l0,-48" class="g2_17" />
<path d="M46.5,779.5l0,-2" class="g2_17" />
<path d="M46.5,779.5l0,-2" class="g2_17" />
<path d="M47.5,779.5l178,0" class="g2_17" />
<path d="M225.5,777.5l0,-48" class="g2_17" />
<path d="M225.5,779.5l0,-2" class="g2_17" />
<path d="M226.5,779.5l163,0" class="g2_17" />
<path d="M389.5,777.5l0,-48" class="g2_17" />
<path d="M389.5,779.5l0,-2" class="g2_17" />
<path d="M390.5,779.5l497,0" class="g2_17" />
<path d="M887.5,777.5l0,-48" class="g2_17" />
<path d="M887.5,779.5l0,-2" class="g2_17" />
<path d="M887.5,779.5l0,-2" class="g2_17" />
<path fill-rule="evenodd" d="M47,1031l840,0l0,-148L47,883l0,148Z" class="g3_17" />
<g clip-path="url(#c6_17)">
<path fill-rule="evenodd" d="M55,907l825,0l0,-24L55,883l0,24Z" class="g3_17" />
</g>
<path fill-rule="evenodd" d="M55,931l825,0l0,-24L55,907l0,24Z" class="g3_17" />
<path fill-rule="evenodd" d="M55,954l825,0l0,-23L55,931l0,23Z" class="g3_17" />
<path fill-rule="evenodd" d="M55,978l825,0l0,-24L55,954l0,24Z" class="g3_17" />
<path fill-rule="evenodd" d="M55,1002l825,0l0,-24L55,978l0,24Z" class="g3_17" />
<g clip-path="url(#c6_17)">
<path fill-rule="evenodd" d="M55,1031l825,0l0,-29l-825,0l0,29Z" class="g3_17" />
</g>
<path d="M46.5,883.5l0,-2" class="g2_17" />
<path d="M46.5,883.5l0,-2" class="g2_17" />
<path d="M47.5,883.5l840,0" class="g2_17" />
<path d="M887.5,883.5l0,-2" class="g2_17" />
<path d="M887.5,883.5l0,-2" class="g2_17" />
<path d="M46.5,1031.5l0,-148" class="g2_17" />
<path d="M46.5,1032.5l0,-1" class="g2_17" />
<path d="M46.5,1032.5l0,-1" class="g2_17" />
<path d="M47.5,1032.5l840,0" class="g2_17" />
<path d="M887.5,1031.5l0,-148" class="g2_17" />
<path d="M887.5,1032.5l0,-1" class="g2_17" />
<path d="M887.5,1032.5l0,-1" class="g2_17" />
</svg>