<?xml version="1.0" encoding="UTF-8" standalone="no"?>
<!DOCTYPE svg PUBLIC "-//W3C//DTD SVG 1.1//EN"
"http://www.w3.org/Graphics/SVG/1.1/DTD/svg11.dtd">
<svg version="1.1" xmlns="http://www.w3.org/2000/svg" xmlns:xlink="http://www.w3.org/1999/xlink">
<defs>
<clipPath id="c0_111"><path d="M47.5,728.5l0,-24l177,0l0,24Z" /></clipPath>
<clipPath id="c1_111"><path d="M226.5,728.5l0,-24l162,0l0,24Z" /></clipPath>
<clipPath id="c2_111"><path d="M390.5,728.5l0,-24l163,0l0,24Z" /></clipPath>
<clipPath id="c3_111"><path d="M554.5,728.5l0,-24l163,0l0,24Z" /></clipPath>
<clipPath id="c4_111"><path d="M719.5,728.5l0,-24l168,0l0,24Z" /></clipPath>
<clipPath id="c5_111"><path d="M47.5,753.5l0,-24l177,0l0,24Z" /></clipPath>
<clipPath id="c6_111"><path d="M226.5,753.5l0,-24l162,0l0,24Z" /></clipPath>
<clipPath id="c7_111"><path d="M390.5,753.5l0,-24l163,0l0,24Z" /></clipPath>
<clipPath id="c8_111"><path d="M554.5,753.5l0,-24l163,0l0,24Z" /></clipPath>
<clipPath id="c9_111"><path d="M719.5,753.5l0,-24l168,0l0,24Z" /></clipPath>
<clipPath id="c10_111"><path d="M47.5,1031.5l0,-143l840,0l0,143Z" /></clipPath>
<style type="text/css"><![CDATA[
.g2_111{
fill: none;
stroke: #7E7E7E;
stroke-width: 1;
stroke-linecap: butt;
stroke-linejoin: miter;
}
.g3_111{
fill: #DBE5F1;
}
.g1_111{
fill: #F1F1F1;
}
]]></style>
</defs>
<path fill-rule="evenodd" d="M47,470l840,0l0,-24L47,446l0,24Z" class="g1_111" />
<path fill-rule="evenodd" d="M55,470l825,0l0,-24L55,446l0,24Z" class="g1_111" />
<path d="M46.5,446.5l0,-1" class="g2_111" />
<path d="M46.5,446.5l0,-1" class="g2_111" />
<path d="M47.5,446.5l840,0" class="g2_111" />
<path d="M887.5,446.5l0,-1" class="g2_111" />
<path d="M887.5,446.5l0,-1" class="g2_111" />
<path d="M46.5,470.5l0,-24" class="g2_111" />
<path d="M46.5,471.5l0,-1" class="g2_111" />
<path d="M46.5,471.5l0,-1" class="g2_111" />
<path d="M47.5,471.5l840,0" class="g2_111" />
<path d="M887.5,470.5l0,-24" class="g2_111" />
<path d="M887.5,471.5l0,-1" class="g2_111" />
<path d="M887.5,471.5l0,-1" class="g2_111" />
<path fill-rule="evenodd" d="M47,577l178,0l0,-24L47,553l0,24Z" class="g3_111" />
<path fill-rule="evenodd" d="M55,577l163,0l0,-24L55,553l0,24Z" class="g3_111" />
<path fill-rule="evenodd" d="M226,577l163,0l0,-24l-163,0l0,24Z" class="g3_111" />
<path fill-rule="evenodd" d="M234,577l148,0l0,-24l-148,0l0,24Z" class="g3_111" />
<path fill-rule="evenodd" d="M391,577l496,0l0,-24l-496,0l0,24Z" class="g3_111" />
<path fill-rule="evenodd" d="M398,577l482,0l0,-24l-482,0l0,24Z" class="g3_111" />
<path d="M46.5,553.5l0,-1" class="g2_111" />
<path d="M46.5,553.5l0,-1" class="g2_111" />
<path d="M47.5,553.5l178,0" class="g2_111" />
<path d="M225.5,553.5l0,-1" class="g2_111" />
<path d="M226.5,553.5l163,0" class="g2_111" />
<path d="M389.5,553.5l0,-1" class="g2_111" />
<path d="M391.5,553.5l496,0" class="g2_111" />
<path d="M887.5,553.5l0,-1" class="g2_111" />
<path d="M887.5,553.5l0,-1" class="g2_111" />
<path d="M46.5,577.5l0,-24" class="g2_111" />
<path d="M225.5,577.5l0,-24" class="g2_111" />
<path d="M389.5,577.5l0,-24" class="g2_111" />
<path d="M887.5,577.5l0,-24" class="g2_111" />
<path fill-rule="evenodd" d="M47,602l178,0l0,-23L47,579l0,23Z" class="g1_111" />
<path fill-rule="evenodd" d="M55,602l163,0l0,-23L55,579l0,23Z" class="g1_111" />
<path fill-rule="evenodd" d="M226,602l163,0l0,-23l-163,0l0,23Z" class="g1_111" />
<path fill-rule="evenodd" d="M234,602l148,0l0,-23l-148,0l0,23Z" class="g1_111" />
<path fill-rule="evenodd" d="M391,602l496,0l0,-23l-496,0l0,23Z" class="g1_111" />
<path fill-rule="evenodd" d="M398,602l482,0l0,-23l-482,0l0,23Z" class="g1_111" />
<path d="M46.5,578.5l0,-1" class="g2_111" />
<path d="M47.5,578.5l178,0" class="g2_111" />
<path d="M225.5,578.5l0,-1" class="g2_111" />
<path d="M226.5,578.5l163,0" class="g2_111" />
<path d="M389.5,578.5l0,-1" class="g2_111" />
<path d="M391.5,578.5l496,0" class="g2_111" />
<path d="M887.5,578.5l0,-1" class="g2_111" />
<path d="M46.5,602.5l0,-24" class="g2_111" />
<path d="M225.5,602.5l0,-24" class="g2_111" />
<path d="M389.5,602.5l0,-24" class="g2_111" />
<path d="M887.5,602.5l0,-24" class="g2_111" />
<path fill-rule="evenodd" d="M47,628l178,0l0,-24L47,604l0,24Z" class="g1_111" />
<path fill-rule="evenodd" d="M55,628l163,0l0,-24L55,604l0,24Z" class="g1_111" />
<path fill-rule="evenodd" d="M226,628l163,0l0,-24l-163,0l0,24Z" class="g1_111" />
<path fill-rule="evenodd" d="M234,628l148,0l0,-24l-148,0l0,24Z" class="g1_111" />
<path fill-rule="evenodd" d="M391,628l496,0l0,-24l-496,0l0,24Z" class="g1_111" />
<path fill-rule="evenodd" d="M398,628l482,0l0,-24l-482,0l0,24Z" class="g1_111" />
<path d="M46.5,604.5l0,-2" class="g2_111" />
<path d="M47.5,604.5l178,0" class="g2_111" />
<path d="M225.5,604.5l0,-2" class="g2_111" />
<path d="M226.5,604.5l163,0" class="g2_111" />
<path d="M389.5,604.5l0,-2" class="g2_111" />
<path d="M391.5,604.5l496,0" class="g2_111" />
<path d="M887.5,604.5l0,-2" class="g2_111" />
<path d="M46.5,628.5l0,-24" class="g2_111" />
<path d="M225.5,628.5l0,-24" class="g2_111" />
<path d="M389.5,628.5l0,-24" class="g2_111" />
<path d="M887.5,628.5l0,-24" class="g2_111" />
<path fill-rule="evenodd" d="M47,653l178,0l0,-24L47,629l0,24Z" class="g1_111" />
<path fill-rule="evenodd" d="M55,653l163,0l0,-24L55,629l0,24Z" class="g1_111" />
<path fill-rule="evenodd" d="M226,653l163,0l0,-24l-163,0l0,24Z" class="g1_111" />
<path fill-rule="evenodd" d="M234,653l148,0l0,-24l-148,0l0,24Z" class="g1_111" />
<path fill-rule="evenodd" d="M391,653l496,0l0,-24l-496,0l0,24Z" class="g1_111" />
<path fill-rule="evenodd" d="M398,653l482,0l0,-24l-482,0l0,24Z" class="g1_111" />
<path d="M46.5,629.5l0,-1" class="g2_111" />
<path d="M47.5,629.5l178,0" class="g2_111" />
<path d="M225.5,629.5l0,-1" class="g2_111" />
<path d="M226.5,629.5l163,0" class="g2_111" />
<path d="M389.5,629.5l0,-1" class="g2_111" />
<path d="M391.5,629.5l496,0" class="g2_111" />
<path d="M887.5,629.5l0,-1" class="g2_111" />
<path d="M46.5,653.5l0,-24" class="g2_111" />
<path d="M46.5,655.5l0,-2" class="g2_111" />
<path d="M46.5,655.5l0,-2" class="g2_111" />
<path d="M47.5,655.5l178,0" class="g2_111" />
<path d="M225.5,653.5l0,-24" class="g2_111" />
<path d="M225.5,655.5l0,-2" class="g2_111" />
<path d="M226.5,655.5l163,0" class="g2_111" />
<path d="M389.5,653.5l0,-24" class="g2_111" />
<path d="M389.5,655.5l0,-2" class="g2_111" />
<path d="M391.5,655.5l496,0" class="g2_111" />
<path d="M887.5,653.5l0,-24" class="g2_111" />
<path d="M887.5,655.5l0,-2" class="g2_111" />
<path d="M887.5,655.5l0,-2" class="g2_111" />
<path fill-rule="evenodd" d="M47,728l177,0l0,-24L47,704l0,24Z" class="g3_111" />
<g clip-path="url(#c0_111)">
<path fill-rule="evenodd" d="M55,728l162,0l0,-24L55,704l0,24Z" class="g3_111" />
</g>
<path fill-rule="evenodd" d="M226,728l162,0l0,-24l-162,0l0,24Z" class="g3_111" />
<g clip-path="url(#c1_111)">
<path fill-rule="evenodd" d="M233,728l148,0l0,-24l-148,0l0,24Z" class="g3_111" />
</g>
<path fill-rule="evenodd" d="M390,728l163,0l0,-24l-163,0l0,24Z" class="g3_111" />
<g clip-path="url(#c2_111)">
<path fill-rule="evenodd" d="M397,728l148,0l0,-24l-148,0l0,24Z" class="g3_111" />
</g>
<path fill-rule="evenodd" d="M554,728l163,0l0,-24l-163,0l0,24Z" class="g3_111" />
<g clip-path="url(#c3_111)">
<path fill-rule="evenodd" d="M562,728l148,0l0,-24l-148,0l0,24Z" class="g3_111" />
</g>
<path fill-rule="evenodd" d="M719,728l168,0l0,-24l-168,0l0,24Z" class="g3_111" />
<g clip-path="url(#c4_111)">
<path fill-rule="evenodd" d="M726,728l154,0l0,-24l-154,0l0,24Z" class="g3_111" />
</g>
<path d="M46.5,704.5l0,-2" class="g2_111" />
<path d="M46.5,704.5l0,-2" class="g2_111" />
<path d="M47.5,704.5l177,0" class="g2_111" />
<path d="M224.5,704.5l0,-2" class="g2_111" />
<path d="M226.5,704.5l162,0" class="g2_111" />
<path d="M388.5,704.5l0,-2" class="g2_111" />
<path d="M390.5,704.5l163,0" class="g2_111" />
<path d="M553.5,704.5l0,-2" class="g2_111" />
<path d="M554.5,704.5l163,0" class="g2_111" />
<path d="M717.5,704.5l0,-2" class="g2_111" />
<path d="M719.5,704.5l168,0" class="g2_111" />
<path d="M887.5,704.5l0,-2" class="g2_111" />
<path d="M887.5,704.5l0,-2" class="g2_111" />
<path d="M46.5,728.5l0,-24" class="g2_111" />
<path d="M224.5,728.5l0,-24" class="g2_111" />
<path d="M388.5,728.5l0,-24" class="g2_111" />
<path d="M553.5,728.5l0,-24" class="g2_111" />
<path d="M717.5,728.5l0,-24" class="g2_111" />
<path d="M887.5,728.5l0,-24" class="g2_111" />
<path fill-rule="evenodd" d="M47,753l177,0l0,-24L47,729l0,24Z" class="g1_111" />
<g clip-path="url(#c5_111)">
<path fill-rule="evenodd" d="M55,753l162,0l0,-24L55,729l0,24Z" class="g1_111" />
</g>
<path fill-rule="evenodd" d="M226,753l162,0l0,-24l-162,0l0,24Z" class="g1_111" />
<g clip-path="url(#c6_111)">
<path fill-rule="evenodd" d="M233,753l148,0l0,-24l-148,0l0,24Z" class="g1_111" />
</g>
<path fill-rule="evenodd" d="M390,753l163,0l0,-24l-163,0l0,24Z" class="g1_111" />
<g clip-path="url(#c7_111)">
<path fill-rule="evenodd" d="M397,753l148,0l0,-24l-148,0l0,24Z" class="g1_111" />
</g>
<path fill-rule="evenodd" d="M554,753l163,0l0,-24l-163,0l0,24Z" class="g1_111" />
<g clip-path="url(#c8_111)">
<path fill-rule="evenodd" d="M562,753l148,0l0,-24l-148,0l0,24Z" class="g1_111" />
</g>
<path fill-rule="evenodd" d="M719,753l168,0l0,-24l-168,0l0,24Z" class="g1_111" />
<g clip-path="url(#c9_111)">
<path fill-rule="evenodd" d="M726,753l154,0l0,-24l-154,0l0,24Z" class="g1_111" />
</g>
<path d="M46.5,729.5l0,-1" class="g2_111" />
<path d="M47.5,729.5l177,0" class="g2_111" />
<path d="M224.5,729.5l0,-1" class="g2_111" />
<path d="M226.5,729.5l162,0" class="g2_111" />
<path d="M388.5,729.5l0,-1" class="g2_111" />
<path d="M390.5,729.5l163,0" class="g2_111" />
<path d="M553.5,729.5l0,-1" class="g2_111" />
<path d="M554.5,729.5l163,0" class="g2_111" />
<path d="M717.5,729.5l0,-1" class="g2_111" />
<path d="M719.5,729.5l168,0" class="g2_111" />
<path d="M887.5,729.5l0,-1" class="g2_111" />
<path d="M46.5,753.5l0,-24" class="g2_111" />
<path d="M46.5,755.5l0,-2" class="g2_111" />
<path d="M46.5,755.5l0,-2" class="g2_111" />
<path d="M47.5,755.5l177,0" class="g2_111" />
<path d="M224.5,753.5l0,-24" class="g2_111" />
<path d="M224.5,755.5l0,-2" class="g2_111" />
<path d="M226.5,755.5l162,0" class="g2_111" />
<path d="M388.5,753.5l0,-24" class="g2_111" />
<path d="M388.5,755.5l0,-2" class="g2_111" />
<path d="M390.5,755.5l163,0" class="g2_111" />
<path d="M553.5,753.5l0,-24" class="g2_111" />
<path d="M553.5,755.5l0,-2" class="g2_111" />
<path d="M554.5,755.5l163,0" class="g2_111" />
<path d="M717.5,753.5l0,-24" class="g2_111" />
<path d="M717.5,755.5l0,-2" class="g2_111" />
<path d="M719.5,755.5l168,0" class="g2_111" />
<path d="M887.5,753.5l0,-24" class="g2_111" />
<path d="M887.5,755.5l0,-2" class="g2_111" />
<path d="M887.5,755.5l0,-2" class="g2_111" />
<path fill-rule="evenodd" d="M47,1031l840,0l0,-143L47,888l0,143Z" class="g1_111" />
<g clip-path="url(#c10_111)">
<path fill-rule="evenodd" d="M55,912l825,0l0,-24L55,888l0,24Z" class="g1_111" />
</g>
<path fill-rule="evenodd" d="M55,936l825,0l0,-24L55,912l0,24Z" class="g1_111" />
<path fill-rule="evenodd" d="M55,960l825,0l0,-24L55,936l0,24Z" class="g1_111" />
<path fill-rule="evenodd" d="M55,984l825,0l0,-24L55,960l0,24Z" class="g1_111" />
<path fill-rule="evenodd" d="M55,1008l825,0l0,-24L55,984l0,24Z" class="g1_111" />
<g clip-path="url(#c10_111)">
<path fill-rule="evenodd" d="M55,1031l825,0l0,-23l-825,0l0,23Z" class="g1_111" />
</g>
<path d="M46.5,888.5l0,-1" class="g2_111" />
<path d="M46.5,888.5l0,-1" class="g2_111" />
<path d="M47.5,888.5l840,0" class="g2_111" />
<path d="M887.5,888.5l0,-1" class="g2_111" />
<path d="M887.5,888.5l0,-1" class="g2_111" />
<path d="M46.5,1032.5l0,-144" class="g2_111" />
<path d="M46.5,1033.5l0,-1" class="g2_111" />
<path d="M46.5,1033.5l0,-1" class="g2_111" />
<path d="M47.5,1033.5l840,0" class="g2_111" />
<path d="M887.5,1032.5l0,-144" class="g2_111" />
<path d="M887.5,1033.5l0,-1" class="g2_111" />
<path d="M887.5,1033.5l0,-1" class="g2_111" />
</svg>