<?xml version="1.0" encoding="UTF-8" standalone="no"?>
<!DOCTYPE svg PUBLIC "-//W3C//DTD SVG 1.1//EN"
"http://www.w3.org/Graphics/SVG/1.1/DTD/svg11.dtd">
<svg version="1.1" xmlns="http://www.w3.org/2000/svg" xmlns:xlink="http://www.w3.org/1999/xlink">
<defs>
<clipPath id="c0_418"><path d="M47.5,230.5l0,-119l840,0l0,119Z" /></clipPath>
<clipPath id="c1_418"><path d="M47.5,366.5l0,-24l378,0l0,24Z" /></clipPath>
<clipPath id="c2_418"><path d="M427.5,366.5l0,-24l81,0l0,24Z" /></clipPath>
<clipPath id="c3_418"><path d="M509.5,366.5l0,-24l378,0l0,24Z" /></clipPath>
<clipPath id="c4_418"><path d="M90.5,439.5l0,-71l335,0l0,71Z" /></clipPath>
<clipPath id="c5_418"><path d="M427.5,439.5l0,-71l81,0l0,71Z" /></clipPath>
<clipPath id="c6_418"><path d="M509.5,439.5l0,-71l378,0l0,71Z" /></clipPath>
<clipPath id="c7_418"><path d="M90.5,465.5l0,-24l335,0l0,24Z" /></clipPath>
<clipPath id="c8_418"><path d="M427.5,465.5l0,-24l81,0l0,24Z" /></clipPath>
<clipPath id="c9_418"><path d="M509.5,465.5l0,-24l378,0l0,24Z" /></clipPath>
<clipPath id="c10_418"><path d="M47.5,725.5l0,-24l840,0l0,24Z" /></clipPath>
<clipPath id="c11_418"><path d="M47.5,1085.5l0,-334l840,0l0,334Z" /></clipPath>
<style type="text/css"><![CDATA[
.g2_418{
fill: none;
stroke: #7E7E7E;
stroke-width: 1;
stroke-linecap: butt;
stroke-linejoin: miter;
}
.g3_418{
fill: #DBE5F1;
}
.g1_418{
fill: #F1F1F1;
}
]]></style>
</defs>
<path fill-rule="evenodd" d="M47,230l840,0l0,-119L47,111l0,119Z" class="g1_418" />
<g clip-path="url(#c0_418)">
<path fill-rule="evenodd" d="M55,135l825,0l0,-24L55,111l0,24Z" class="g1_418" />
</g>
<path fill-rule="evenodd" d="M55,159l825,0l0,-24L55,135l0,24Z" class="g1_418" />
<path fill-rule="evenodd" d="M55,182l825,0l0,-23L55,159l0,23Z" class="g1_418" />
<path fill-rule="evenodd" d="M55,206l825,0l0,-24L55,182l0,24Z" class="g1_418" />
<path fill-rule="evenodd" d="M55,230l825,0l0,-24L55,206l0,24Z" class="g1_418" />
<path d="M46.5,111.5l0,-1" class="g2_418" />
<path d="M46.5,111.5l0,-1" class="g2_418" />
<path d="M47.5,111.5l840,0" class="g2_418" />
<path d="M887.5,111.5l0,-1" class="g2_418" />
<path d="M887.5,111.5l0,-1" class="g2_418" />
<path d="M46.5,230.5l0,-119" class="g2_418" />
<path d="M46.5,232.5l0,-2" class="g2_418" />
<path d="M46.5,232.5l0,-2" class="g2_418" />
<path d="M47.5,232.5l840,0" class="g2_418" />
<path d="M887.5,230.5l0,-119" class="g2_418" />
<path d="M887.5,232.5l0,-2" class="g2_418" />
<path d="M887.5,232.5l0,-2" class="g2_418" />
<path fill-rule="evenodd" d="M47,366l378,0l0,-24L47,342l0,24Z" class="g3_418" />
<g clip-path="url(#c1_418)">
<path fill-rule="evenodd" d="M55,366l363,0l0,-24L55,342l0,24Z" class="g3_418" />
</g>
<path fill-rule="evenodd" d="M427,366l81,0l0,-24l-81,0l0,24Z" class="g3_418" />
<g clip-path="url(#c2_418)">
<path fill-rule="evenodd" d="M434,366l66,0l0,-24l-66,0l0,24Z" class="g3_418" />
</g>
<path fill-rule="evenodd" d="M509,366l378,0l0,-24l-378,0l0,24Z" class="g3_418" />
<g clip-path="url(#c3_418)">
<path fill-rule="evenodd" d="M517,366l363,0l0,-24l-363,0l0,24Z" class="g3_418" />
</g>
<path d="M46.5,342.5l0,-2" class="g2_418" />
<path d="M46.5,342.5l0,-2" class="g2_418" />
<path d="M47.5,342.5l378,0" class="g2_418" />
<path d="M425.5,342.5l0,-2" class="g2_418" />
<path d="M427.5,342.5l81,0" class="g2_418" />
<path d="M508.5,342.5l0,-2" class="g2_418" />
<path d="M509.5,342.5l378,0" class="g2_418" />
<path d="M887.5,342.5l0,-2" class="g2_418" />
<path d="M887.5,342.5l0,-2" class="g2_418" />
<path d="M46.5,366.5l0,-24" class="g2_418" />
<path d="M425.5,366.5l0,-24" class="g2_418" />
<path d="M508.5,366.5l0,-24" class="g2_418" />
<path d="M887.5,366.5l0,-24" class="g2_418" />
<path fill-rule="evenodd" d="M47,602l41,0L88,368l-41,0l0,234Z" class="g1_418" />
<path fill-rule="evenodd" d="M55,602l23,0L78,368l-23,0l0,234Z" class="g1_418" />
<path fill-rule="evenodd" d="M90,439l335,0l0,-71L90,368l0,71Z" class="g1_418" />
<g clip-path="url(#c4_418)">
<path fill-rule="evenodd" d="M97,392l321,0l0,-24L97,368l0,24Z" class="g1_418" />
</g>
<path fill-rule="evenodd" d="M427,439l81,0l0,-71l-81,0l0,71Z" class="g1_418" />
<g clip-path="url(#c5_418)">
<path fill-rule="evenodd" d="M434,392l66,0l0,-24l-66,0l0,24Z" class="g1_418" />
</g>
<path fill-rule="evenodd" d="M509,439l378,0l0,-71l-378,0l0,71Z" class="g1_418" />
<g clip-path="url(#c6_418)">
<path fill-rule="evenodd" d="M517,392l363,0l0,-24l-363,0l0,24Z" class="g1_418" />
</g>
<path fill-rule="evenodd" d="M517,416l363,0l0,-24l-363,0l0,24Z" class="g1_418" />
<path fill-rule="evenodd" d="M517,439l363,0l0,-23l-363,0l0,23Z" class="g1_418" />
<path d="M46.5,368.5l0,-2" class="g2_418" />
<path d="M47.5,368.5l41,0" class="g2_418" />
<path d="M88.5,368.5l0,-2" class="g2_418" />
<path d="M90.5,368.5l335,0" class="g2_418" />
<path d="M425.5,368.5l0,-2" class="g2_418" />
<path d="M427.5,368.5l81,0" class="g2_418" />
<path d="M508.5,368.5l0,-2" class="g2_418" />
<path d="M509.5,368.5l378,0" class="g2_418" />
<path d="M887.5,368.5l0,-2" class="g2_418" />
<path d="M46.5,439.5l0,-71" class="g2_418" />
<path d="M88.5,439.5l0,-71" class="g2_418" />
<path d="M425.5,439.5l0,-71" class="g2_418" />
<path d="M508.5,439.5l0,-71" class="g2_418" />
<path d="M887.5,439.5l0,-71" class="g2_418" />
<path fill-rule="evenodd" d="M90,465l335,0l0,-24L90,441l0,24Z" class="g1_418" />
<g clip-path="url(#c7_418)">
<path fill-rule="evenodd" d="M97,465l321,0l0,-24L97,441l0,24Z" class="g1_418" />
</g>
<path fill-rule="evenodd" d="M427,465l81,0l0,-24l-81,0l0,24Z" class="g1_418" />
<g clip-path="url(#c8_418)">
<path fill-rule="evenodd" d="M434,465l66,0l0,-24l-66,0l0,24Z" class="g1_418" />
</g>
<path fill-rule="evenodd" d="M509,465l378,0l0,-24l-378,0l0,24Z" class="g1_418" />
<g clip-path="url(#c9_418)">
<path fill-rule="evenodd" d="M517,465l363,0l0,-24l-363,0l0,24Z" class="g1_418" />
</g>
<path d="M46.5,441.5l0,-2" class="g2_418" />
<path d="M88.5,441.5l0,-2" class="g2_418" />
<path d="M90.5,441.5l335,0" class="g2_418" />
<path d="M425.5,441.5l0,-2" class="g2_418" />
<path d="M427.5,441.5l81,0" class="g2_418" />
<path d="M508.5,441.5l0,-2" class="g2_418" />
<path d="M509.5,441.5l378,0" class="g2_418" />
<path d="M887.5,441.5l0,-2" class="g2_418" />
<path d="M46.5,465.5l0,-24" class="g2_418" />
<path d="M88.5,465.5l0,-24" class="g2_418" />
<path d="M425.5,465.5l0,-24" class="g2_418" />
<path d="M508.5,465.5l0,-24" class="g2_418" />
<path d="M887.5,465.5l0,-24" class="g2_418" />
<path fill-rule="evenodd" d="M90,491l335,0l0,-24L90,467l0,24Z" class="g1_418" />
<path fill-rule="evenodd" d="M97,491l321,0l0,-24L97,467l0,24Z" class="g1_418" />
<path fill-rule="evenodd" d="M427,491l81,0l0,-24l-81,0l0,24Z" class="g1_418" />
<path fill-rule="evenodd" d="M434,491l66,0l0,-24l-66,0l0,24Z" class="g1_418" />
<path fill-rule="evenodd" d="M509,491l378,0l0,-24l-378,0l0,24Z" class="g1_418" />
<path fill-rule="evenodd" d="M517,491l363,0l0,-24l-363,0l0,24Z" class="g1_418" />
<path d="M46.5,467.5l0,-2" class="g2_418" />
<path d="M88.5,467.5l0,-2" class="g2_418" />
<path d="M90.5,467.5l335,0" class="g2_418" />
<path d="M425.5,467.5l0,-2" class="g2_418" />
<path d="M427.5,467.5l81,0" class="g2_418" />
<path d="M508.5,467.5l0,-2" class="g2_418" />
<path d="M509.5,467.5l378,0" class="g2_418" />
<path d="M887.5,467.5l0,-2" class="g2_418" />
<path d="M46.5,491.5l0,-24" class="g2_418" />
<path d="M88.5,491.5l0,-24" class="g2_418" />
<path d="M425.5,491.5l0,-24" class="g2_418" />
<path d="M508.5,491.5l0,-24" class="g2_418" />
<path d="M887.5,491.5l0,-24" class="g2_418" />
<path fill-rule="evenodd" d="M90,602l40,0l0,-109l-40,0l0,109Z" class="g1_418" />
<path fill-rule="evenodd" d="M97,602l24,0l0,-109l-24,0l0,109Z" class="g1_418" />
<path fill-rule="evenodd" d="M131,602l40,0l0,-109l-40,0l0,109Z" class="g1_418" />
<path fill-rule="evenodd" d="M139,602l23,0l0,-109l-23,0l0,109Z" class="g1_418" />
<path fill-rule="evenodd" d="M172,602l40,0l0,-109l-40,0l0,109Z" class="g1_418" />
<path fill-rule="evenodd" d="M180,602l24,0l0,-109l-24,0l0,109Z" class="g1_418" />
<path fill-rule="evenodd" d="M213,516l212,0l0,-23l-212,0l0,23Z" class="g1_418" />
<path fill-rule="evenodd" d="M221,516l197,0l0,-23l-197,0l0,23Z" class="g1_418" />
<path fill-rule="evenodd" d="M427,516l81,0l0,-23l-81,0l0,23Z" class="g1_418" />
<path fill-rule="evenodd" d="M434,516l66,0l0,-23l-66,0l0,23Z" class="g1_418" />
<path fill-rule="evenodd" d="M509,516l378,0l0,-23l-378,0l0,23Z" class="g1_418" />
<path fill-rule="evenodd" d="M517,516l363,0l0,-23l-363,0l0,23Z" class="g1_418" />
<path d="M46.5,493.5l0,-2" class="g2_418" />
<path d="M88.5,493.5l0,-2" class="g2_418" />
<path d="M90.5,493.5l40,0" class="g2_418" />
<path d="M130.5,493.5l0,-2" class="g2_418" />
<path d="M131.5,493.5l40,0" class="g2_418" />
<path d="M171.5,493.5l0,-2" class="g2_418" />
<path d="M172.5,493.5l40,0" class="g2_418" />
<path d="M212.5,493.5l0,-2" class="g2_418" />
<path d="M213.5,493.5l212,0" class="g2_418" />
<path d="M425.5,493.5l0,-2" class="g2_418" />
<path d="M427.5,493.5l81,0" class="g2_418" />
<path d="M508.5,493.5l0,-2" class="g2_418" />
<path d="M509.5,493.5l378,0" class="g2_418" />
<path d="M887.5,493.5l0,-2" class="g2_418" />
<path d="M46.5,516.5l0,-23" class="g2_418" />
<path d="M88.5,516.5l0,-23" class="g2_418" />
<path d="M130.5,516.5l0,-23" class="g2_418" />
<path d="M171.5,516.5l0,-23" class="g2_418" />
<path d="M212.5,516.5l0,-23" class="g2_418" />
<path d="M425.5,516.5l0,-23" class="g2_418" />
<path d="M508.5,516.5l0,-23" class="g2_418" />
<path d="M887.5,516.5l0,-23" class="g2_418" />
<path fill-rule="evenodd" d="M213,602l212,0l0,-84l-212,0l0,84Z" class="g1_418" />
<path fill-rule="evenodd" d="M221,542l197,0l0,-24l-197,0l0,24Z" class="g1_418" />
<path fill-rule="evenodd" d="M427,602l81,0l0,-84l-81,0l0,84Z" class="g1_418" />
<path fill-rule="evenodd" d="M434,542l66,0l0,-24l-66,0l0,24Z" class="g1_418" />
<path fill-rule="evenodd" d="M509,602l378,0l0,-84l-378,0l0,84Z" class="g1_418" />
<path fill-rule="evenodd" d="M517,542l363,0l0,-24l-363,0l0,24Z" class="g1_418" />
<path d="M46.5,518.5l0,-2" class="g2_418" />
<path d="M88.5,518.5l0,-2" class="g2_418" />
<path d="M130.5,518.5l0,-2" class="g2_418" />
<path d="M171.5,518.5l0,-2" class="g2_418" />
<path d="M212.5,518.5l0,-2" class="g2_418" />
<path d="M213.5,518.5l212,0" class="g2_418" />
<path d="M425.5,518.5l0,-2" class="g2_418" />
<path d="M427.5,518.5l81,0" class="g2_418" />
<path d="M508.5,518.5l0,-2" class="g2_418" />
<path d="M509.5,518.5l378,0" class="g2_418" />
<path d="M887.5,518.5l0,-2" class="g2_418" />
<path d="M46.5,602.5l0,-84" class="g2_418" />
<path d="M46.5,604.5l0,-2" class="g2_418" />
<path d="M46.5,604.5l0,-2" class="g2_418" />
<path d="M47.5,604.5l41,0" class="g2_418" />
<path d="M88.5,602.5l0,-84" class="g2_418" />
<path d="M88.5,604.5l0,-2" class="g2_418" />
<path d="M90.5,604.5l40,0" class="g2_418" />
<path d="M130.5,602.5l0,-84" class="g2_418" />
<path d="M130.5,604.5l0,-2" class="g2_418" />
<path d="M131.5,604.5l40,0" class="g2_418" />
<path d="M171.5,602.5l0,-84" class="g2_418" />
<path d="M171.5,604.5l0,-2" class="g2_418" />
<path d="M172.5,604.5l40,0" class="g2_418" />
<path d="M212.5,602.5l0,-84" class="g2_418" />
<path d="M212.5,604.5l0,-2" class="g2_418" />
<path d="M213.5,604.5l212,0" class="g2_418" />
<path d="M425.5,602.5l0,-84" class="g2_418" />
<path d="M425.5,604.5l0,-2" class="g2_418" />
<path d="M427.5,604.5l81,0" class="g2_418" />
<path d="M508.5,602.5l0,-84" class="g2_418" />
<path d="M508.5,604.5l0,-2" class="g2_418" />
<path d="M509.5,604.5l378,0" class="g2_418" />
<path d="M887.5,602.5l0,-84" class="g2_418" />
<path d="M887.5,604.5l0,-2" class="g2_418" />
<path d="M887.5,604.5l0,-2" class="g2_418" />
<path fill-rule="evenodd" d="M47,725l840,0l0,-24L47,701l0,24Z" class="g1_418" />
<g clip-path="url(#c10_418)">
<path fill-rule="evenodd" d="M55,725l825,0l0,-24L55,701l0,24Z" class="g1_418" />
</g>
<path d="M46.5,701.5l0,-2" class="g2_418" />
<path d="M46.5,701.5l0,-2" class="g2_418" />
<path d="M47.5,701.5l840,0" class="g2_418" />
<path d="M887.5,701.5l0,-2" class="g2_418" />
<path d="M887.5,701.5l0,-2" class="g2_418" />
<path d="M46.5,725.5l0,-24" class="g2_418" />
<path d="M46.5,726.5l0,-1" class="g2_418" />
<path d="M46.5,726.5l0,-1" class="g2_418" />
<path d="M47.5,726.5l840,0" class="g2_418" />
<path d="M887.5,725.5l0,-24" class="g2_418" />
<path d="M887.5,726.5l0,-1" class="g2_418" />
<path d="M887.5,726.5l0,-1" class="g2_418" />
<path fill-rule="evenodd" d="M47,1085l840,0l0,-334L47,751l0,334Z" class="g1_418" />
<g clip-path="url(#c11_418)">
<path fill-rule="evenodd" d="M55,775l825,0l0,-24L55,751l0,24Z" class="g1_418" />
</g>
<path fill-rule="evenodd" d="M55,799l825,0l0,-24L55,775l0,24Z" class="g1_418" />
<path fill-rule="evenodd" d="M55,823l825,0l0,-24L55,799l0,24Z" class="g1_418" />
<path fill-rule="evenodd" d="M55,847l825,0l0,-24L55,823l0,24Z" class="g1_418" />
<path fill-rule="evenodd" d="M55,871l825,0l0,-24L55,847l0,24Z" class="g1_418" />
<path fill-rule="evenodd" d="M55,894l825,0l0,-23L55,871l0,23Z" class="g1_418" />
<path fill-rule="evenodd" d="M55,918l825,0l0,-24L55,894l0,24Z" class="g1_418" />
<path fill-rule="evenodd" d="M55,942l825,0l0,-24L55,918l0,24Z" class="g1_418" />
<path fill-rule="evenodd" d="M55,966l825,0l0,-24L55,942l0,24Z" class="g1_418" />
<path fill-rule="evenodd" d="M55,990l825,0l0,-24L55,966l0,24Z" class="g1_418" />
<path fill-rule="evenodd" d="M55,1014l825,0l0,-24L55,990l0,24Z" class="g1_418" />
<path fill-rule="evenodd" d="M55,1038l825,0l0,-24l-825,0l0,24Z" class="g1_418" />
<path fill-rule="evenodd" d="M55,1061l825,0l0,-24l-825,0l0,24Z" class="g1_418" />
<g clip-path="url(#c11_418)">
<path fill-rule="evenodd" d="M55,1085l825,0l0,-24l-825,0l0,24Z" class="g1_418" />
</g>
<path d="M46.5,751.5l0,-1" class="g2_418" />
<path d="M46.5,751.5l0,-1" class="g2_418" />
<path d="M47.5,751.5l840,0" class="g2_418" />
<path d="M887.5,751.5l0,-1" class="g2_418" />
<path d="M887.5,751.5l0,-1" class="g2_418" />
<path d="M46.5,1085.5l0,-334" class="g2_418" />
<path d="M46.5,1087.5l0,-2" class="g2_418" />
<path d="M46.5,1087.5l0,-2" class="g2_418" />
<path d="M47.5,1087.5l840,0" class="g2_418" />
<path d="M887.5,1085.5l0,-334" class="g2_418" />
<path d="M887.5,1087.5l0,-2" class="g2_418" />
<path d="M887.5,1087.5l0,-2" class="g2_418" />
</svg>