<?xml version="1.0" encoding="UTF-8" standalone="no"?>
<!DOCTYPE svg PUBLIC "-//W3C//DTD SVG 1.1//EN"
"http://www.w3.org/Graphics/SVG/1.1/DTD/svg11.dtd">
<svg version="1.1" xmlns="http://www.w3.org/2000/svg" xmlns:xlink="http://www.w3.org/1999/xlink">
<defs>
<clipPath id="c0_100"><path d="M47.5,135.5l0,-24l102,0l0,24Z" /></clipPath>
<clipPath id="c1_100"><path d="M151.5,135.5l0,-24l736,0l0,24Z" /></clipPath>
<clipPath id="c2_100"><path d="M47.5,160.5l0,-24l102,0l0,24Z" /></clipPath>
<clipPath id="c3_100"><path d="M151.5,160.5l0,-24l736,0l0,24Z" /></clipPath>
<clipPath id="c4_100"><path d="M47.5,233.5l0,-71l102,0l0,71Z" /></clipPath>
<clipPath id="c5_100"><path d="M151.5,233.5l0,-71l736,0l0,71Z" /></clipPath>
<clipPath id="c6_100"><path d="M47.5,282.5l0,-47l102,0l0,47Z" /></clipPath>
<clipPath id="c7_100"><path d="M151.5,282.5l0,-47l736,0l0,47Z" /></clipPath>
<clipPath id="c8_100"><path d="M47.5,562.5l0,-205l840,0l0,205Z" /></clipPath>
<clipPath id="c9_100"><path d="M47.5,732.5l0,-95l840,0l0,95Z" /></clipPath>
<style type="text/css"><![CDATA[
.g2_100{
fill: none;
stroke: #7E7E7E;
stroke-width: 1;
stroke-linecap: butt;
stroke-linejoin: miter;
}
.g3_100{
fill: none;
stroke: #F0F0E0;
stroke-width: 1;
stroke-linecap: butt;
stroke-linejoin: miter;
}
.g1_100{
fill: #F1F1F1;
}
]]></style>
</defs>
<path fill-rule="evenodd" d="M47,135l102,0l0,-24L47,111l0,24Z" class="g1_100" />
<g clip-path="url(#c0_100)">
<path fill-rule="evenodd" d="M55,135l87,0l0,-24l-87,0l0,24Z" class="g1_100" />
</g>
<path fill-rule="evenodd" d="M151,135l736,0l0,-24l-736,0l0,24Z" class="g1_100" />
<g clip-path="url(#c1_100)">
<path fill-rule="evenodd" d="M158,135l722,0l0,-24l-722,0l0,24Z" class="g1_100" />
</g>
<path d="M46.5,111.5l0,-1" class="g2_100" />
<path d="M46.5,111.5l0,-1" class="g2_100" />
<path d="M47.5,111.5l102,0" class="g2_100" />
<path d="M149.5,111.5l0,-1" class="g2_100" />
<path d="M151.5,111.5l736,0" class="g2_100" />
<path d="M887.5,111.5l0,-1" class="g2_100" />
<path d="M887.5,111.5l0,-1" class="g2_100" />
<path d="M46.5,135.5l0,-24" class="g2_100" />
<path d="M149.5,135.5l0,-24" class="g2_100" />
<path d="M887.5,135.5l0,-24" class="g2_100" />
<path fill-rule="evenodd" d="M47,160l102,0l0,-24L47,136l0,24Z" class="g1_100" />
<g clip-path="url(#c2_100)">
<path fill-rule="evenodd" d="M55,160l87,0l0,-24l-87,0l0,24Z" class="g1_100" />
</g>
<path fill-rule="evenodd" d="M151,160l736,0l0,-24l-736,0l0,24Z" class="g1_100" />
<g clip-path="url(#c3_100)">
<path fill-rule="evenodd" d="M158,160l722,0l0,-24l-722,0l0,24Z" class="g1_100" />
</g>
<path d="M46.5,136.5l0,-1" class="g2_100" />
<path d="M47.5,136.5l102,0" class="g2_100" />
<path d="M149.5,136.5l0,-1" class="g2_100" />
<path d="M151.5,136.5l736,0" class="g2_100" />
<path d="M887.5,136.5l0,-1" class="g2_100" />
<path d="M46.5,160.5l0,-24" class="g2_100" />
<path d="M149.5,160.5l0,-24" class="g2_100" />
<path d="M887.5,160.5l0,-24" class="g2_100" />
<path fill-rule="evenodd" d="M47,233l102,0l0,-71L47,162l0,71Z" class="g1_100" />
<g clip-path="url(#c4_100)">
<path fill-rule="evenodd" d="M55,186l87,0l0,-24l-87,0l0,24Z" class="g1_100" />
</g>
<path fill-rule="evenodd" d="M151,233l736,0l0,-71l-736,0l0,71Z" class="g1_100" />
<g clip-path="url(#c5_100)">
<path fill-rule="evenodd" d="M158,186l722,0l0,-24l-722,0l0,24Z" class="g1_100" />
</g>
<path fill-rule="evenodd" d="M158,209l722,0l0,-23l-722,0l0,23Z" class="g1_100" />
<path fill-rule="evenodd" d="M158,233l722,0l0,-24l-722,0l0,24Z" class="g1_100" />
<path d="M46.5,162.5l0,-2" class="g2_100" />
<path d="M47.5,162.5l102,0" class="g2_100" />
<path d="M149.5,162.5l0,-2" class="g2_100" />
<path d="M151.5,162.5l736,0" class="g2_100" />
<path d="M887.5,162.5l0,-2" class="g2_100" />
<path d="M46.5,233.5l0,-71" class="g2_100" />
<path d="M149.5,233.5l0,-71" class="g2_100" />
<path d="M887.5,233.5l0,-71" class="g2_100" />
<path fill-rule="evenodd" d="M47,282l102,0l0,-47L47,235l0,47Z" class="g1_100" />
<g clip-path="url(#c6_100)">
<path fill-rule="evenodd" d="M55,259l87,0l0,-24l-87,0l0,24Z" class="g1_100" />
</g>
<path fill-rule="evenodd" d="M151,282l736,0l0,-47l-736,0l0,47Z" class="g1_100" />
<g clip-path="url(#c7_100)">
<path fill-rule="evenodd" d="M158,259l722,0l0,-24l-722,0l0,24Z" class="g1_100" />
</g>
<path fill-rule="evenodd" d="M158,282l722,0l0,-23l-722,0l0,23Z" class="g1_100" />
<path d="M46.5,235.5l0,-2" class="g2_100" />
<path d="M47.5,235.5l102,0" class="g2_100" />
<path d="M149.5,235.5l0,-2" class="g2_100" />
<path d="M151.5,235.5l736,0" class="g2_100" />
<path d="M887.5,235.5l0,-2" class="g2_100" />
<path d="M46.5,283.5l0,-48" class="g2_100" />
<path d="M46.5,284.5l0,-1" class="g2_100" />
<path d="M46.5,284.5l0,-1" class="g2_100" />
<path d="M47.5,284.5l102,0" class="g2_100" />
<path d="M149.5,283.5l0,-48" class="g2_100" />
<path d="M149.5,284.5l0,-1" class="g2_100" />
<path d="M151.5,284.5l736,0" class="g2_100" />
<path d="M887.5,283.5l0,-48" class="g2_100" />
<path d="M887.5,284.5l0,-1" class="g2_100" />
<path d="M887.5,284.5l0,-1" class="g2_100" />
<path fill-rule="evenodd" d="M47,562l840,0l0,-205L47,357l0,205Z" class="g1_100" />
<g clip-path="url(#c8_100)">
<path fill-rule="evenodd" d="M55,388l825,0l0,-31L55,357l0,31Z" class="g1_100" />
<path d="M45.5,358.5l0,-1" class="g3_100" />
<path d="M45.5,358.5l0,-1" class="g3_100" />
<path d="M46.5,358.5l842,0" class="g3_100" />
<path d="M888.5,358.5l0,-1" class="g3_100" />
<path d="M888.5,358.5l0,-1" class="g3_100" />
<path d="M45.5,388.5l0,-30" class="g3_100" />
<path d="M888.5,388.5l0,-30" class="g3_100" />
</g>
<path fill-rule="evenodd" d="M55,412l825,0l0,-24L55,388l0,24Z" class="g1_100" />
<g clip-path="url(#c8_100)">
<path d="M45.5,412.5l0,-24" class="g3_100" />
<path d="M888.5,412.5l0,-24" class="g3_100" />
</g>
<path fill-rule="evenodd" d="M55,436l825,0l0,-24L55,412l0,24Z" class="g1_100" />
<g clip-path="url(#c8_100)">
<path d="M45.5,436.5l0,-24" class="g3_100" />
<path d="M888.5,436.5l0,-24" class="g3_100" />
</g>
<path fill-rule="evenodd" d="M55,460l825,0l0,-24L55,436l0,24Z" class="g1_100" />
<g clip-path="url(#c8_100)">
<path d="M45.5,460.5l0,-24" class="g3_100" />
<path d="M888.5,460.5l0,-24" class="g3_100" />
</g>
<path fill-rule="evenodd" d="M55,484l825,0l0,-24L55,460l0,24Z" class="g1_100" />
<g clip-path="url(#c8_100)">
<path d="M45.5,484.5l0,-24" class="g3_100" />
<path d="M888.5,484.5l0,-24" class="g3_100" />
</g>
<path fill-rule="evenodd" d="M55,507l825,0l0,-23L55,484l0,23Z" class="g1_100" />
<g clip-path="url(#c8_100)">
<path d="M45.5,507.5l0,-23" class="g3_100" />
<path d="M888.5,507.5l0,-23" class="g3_100" />
</g>
<path fill-rule="evenodd" d="M55,531l825,0l0,-24L55,507l0,24Z" class="g1_100" />
<g clip-path="url(#c8_100)">
<path d="M45.5,531.5l0,-24" class="g3_100" />
<path d="M888.5,531.5l0,-24" class="g3_100" />
</g>
<path fill-rule="evenodd" d="M55,562l825,0l0,-31L55,531l0,31Z" class="g1_100" />
<g clip-path="url(#c8_100)">
<path d="M45.5,562.5l0,-1" class="g3_100" />
<path d="M45.5,562.5l0,-1" class="g3_100" />
<path d="M46.5,562.5l842,0" class="g3_100" />
<path d="M888.5,562.5l0,-1" class="g3_100" />
<path d="M888.5,562.5l0,-1" class="g3_100" />
<path d="M45.5,561.5l0,-30" class="g3_100" />
<path d="M888.5,561.5l0,-30" class="g3_100" />
</g>
<path d="M46.5,357.5l0,-1" class="g2_100" />
<path d="M46.5,357.5l0,-1" class="g2_100" />
<path d="M47.5,357.5l840,0" class="g2_100" />
<path d="M887.5,357.5l0,-1" class="g2_100" />
<path d="M887.5,357.5l0,-1" class="g2_100" />
<path d="M46.5,562.5l0,-205" class="g2_100" />
<path d="M46.5,564.5l0,-2" class="g2_100" />
<path d="M46.5,564.5l0,-2" class="g2_100" />
<path d="M47.5,564.5l840,0" class="g2_100" />
<path d="M887.5,562.5l0,-205" class="g2_100" />
<path d="M887.5,564.5l0,-2" class="g2_100" />
<path d="M887.5,564.5l0,-2" class="g2_100" />
<path fill-rule="evenodd" d="M47,732l840,0l0,-95L47,637l0,95Z" class="g1_100" />
<g clip-path="url(#c9_100)">
<path fill-rule="evenodd" d="M55,661l825,0l0,-24L55,637l0,24Z" class="g1_100" />
</g>
<path fill-rule="evenodd" d="M55,685l825,0l0,-24L55,661l0,24Z" class="g1_100" />
<path fill-rule="evenodd" d="M55,708l825,0l0,-23L55,685l0,23Z" class="g1_100" />
<path fill-rule="evenodd" d="M55,732l825,0l0,-24L55,708l0,24Z" class="g1_100" />
<path d="M46.5,637.5l0,-2" class="g2_100" />
<path d="M46.5,637.5l0,-2" class="g2_100" />
<path d="M47.5,637.5l840,0" class="g2_100" />
<path d="M887.5,637.5l0,-2" class="g2_100" />
<path d="M887.5,637.5l0,-2" class="g2_100" />
<path d="M46.5,732.5l0,-95" class="g2_100" />
<path d="M46.5,734.5l0,-2" class="g2_100" />
<path d="M46.5,734.5l0,-2" class="g2_100" />
<path d="M47.5,734.5l840,0" class="g2_100" />
<path d="M887.5,732.5l0,-95" class="g2_100" />
<path d="M887.5,734.5l0,-2" class="g2_100" />
<path d="M887.5,734.5l0,-2" class="g2_100" />
</svg>