<?xml version="1.0" encoding="UTF-8" standalone="no"?>
<!DOCTYPE svg PUBLIC "-//W3C//DTD SVG 1.1//EN"
"http://www.w3.org/Graphics/SVG/1.1/DTD/svg11.dtd">
<svg version="1.1" xmlns="http://www.w3.org/2000/svg" xmlns:xlink="http://www.w3.org/1999/xlink">
<defs>
<clipPath id="c0_306"><path d="M47.5,222.5l0,-24l840,0l0,24Z" /></clipPath>
<clipPath id="c1_306"><path d="M47.5,329.5l0,-24l178,0l0,24Z" /></clipPath>
<clipPath id="c2_306"><path d="M226.5,329.5l0,-24l163,0l0,24Z" /></clipPath>
<clipPath id="c3_306"><path d="M390.5,329.5l0,-24l497,0l0,24Z" /></clipPath>
<clipPath id="c4_306"><path d="M47.5,354.5l0,-23l178,0l0,23Z" /></clipPath>
<clipPath id="c5_306"><path d="M226.5,354.5l0,-23l163,0l0,23Z" /></clipPath>
<clipPath id="c6_306"><path d="M390.5,354.5l0,-23l497,0l0,23Z" /></clipPath>
<clipPath id="c7_306"><path d="M47.5,1093.5l0,-465l39,0l0,465Z" /></clipPath>
<clipPath id="c8_306"><path d="M88.5,723.5l0,-95l317,0l0,95Z" /></clipPath>
<clipPath id="c9_306"><path d="M406.5,723.5l0,-95l88,0l0,95Z" /></clipPath>
<clipPath id="c10_306"><path d="M496.5,723.5l0,-95l67,0l0,95Z" /></clipPath>
<clipPath id="c11_306"><path d="M564.5,723.5l0,-95l323,0l0,95Z" /></clipPath>
<clipPath id="c12_306"><path d="M88.5,749.5l0,-24l317,0l0,24Z" /></clipPath>
<clipPath id="c13_306"><path d="M406.5,749.5l0,-24l88,0l0,24Z" /></clipPath>
<clipPath id="c14_306"><path d="M496.5,749.5l0,-24l67,0l0,24Z" /></clipPath>
<clipPath id="c15_306"><path d="M564.5,749.5l0,-24l323,0l0,24Z" /></clipPath>
<clipPath id="c16_306"><path d="M88.5,1093.5l0,-342l53,0l0,342Z" /></clipPath>
<clipPath id="c17_306"><path d="M142.5,1093.5l0,-342l53,0l0,342Z" /></clipPath>
<clipPath id="c18_306"><path d="M196.5,774.5l0,-23l209,0l0,23Z" /></clipPath>
<clipPath id="c19_306"><path d="M406.5,774.5l0,-23l88,0l0,23Z" /></clipPath>
<clipPath id="c20_306"><path d="M496.5,774.5l0,-23l67,0l0,23Z" /></clipPath>
<clipPath id="c21_306"><path d="M564.5,774.5l0,-23l323,0l0,23Z" /></clipPath>
<clipPath id="c22_306"><path d="M196.5,847.5l0,-71l209,0l0,71Z" /></clipPath>
<clipPath id="c23_306"><path d="M406.5,847.5l0,-71l88,0l0,71Z" /></clipPath>
<clipPath id="c24_306"><path d="M496.5,847.5l0,-71l67,0l0,71Z" /></clipPath>
<clipPath id="c25_306"><path d="M564.5,847.5l0,-71l323,0l0,71Z" /></clipPath>
<clipPath id="c26_306"><path d="M196.5,897.5l0,-48l209,0l0,48Z" /></clipPath>
<clipPath id="c27_306"><path d="M406.5,897.5l0,-48l88,0l0,48Z" /></clipPath>
<clipPath id="c28_306"><path d="M496.5,897.5l0,-48l67,0l0,48Z" /></clipPath>
<clipPath id="c29_306"><path d="M564.5,897.5l0,-48l323,0l0,48Z" /></clipPath>
<clipPath id="c30_306"><path d="M196.5,1093.5l0,-195l31,0l0,195Z" /></clipPath>
<clipPath id="c31_306"><path d="M229.5,1093.5l0,-195l31,0l0,195Z" /></clipPath>
<clipPath id="c32_306"><path d="M261.5,922.5l0,-24l146,0l0,24Z" /></clipPath>
<clipPath id="c33_306"><path d="M408.5,922.5l0,-24l88,0l0,24Z" /></clipPath>
<clipPath id="c34_306"><path d="M497.5,922.5l0,-24l67,0l0,24Z" /></clipPath>
<clipPath id="c35_306"><path d="M566.5,922.5l0,-24l323,0l0,24Z" /></clipPath>
<clipPath id="c36_306"><path d="M261.5,947.5l0,-24l146,0l0,24Z" /></clipPath>
<clipPath id="c37_306"><path d="M408.5,947.5l0,-24l88,0l0,24Z" /></clipPath>
<clipPath id="c38_306"><path d="M497.5,947.5l0,-24l67,0l0,24Z" /></clipPath>
<clipPath id="c39_306"><path d="M566.5,947.5l0,-24l323,0l0,24Z" /></clipPath>
<clipPath id="c40_306"><path d="M408.5,1020.5l0,-71l88,0l0,71Z" /></clipPath>
<clipPath id="c41_306"><path d="M408.5,1093.5l0,-71l88,0l0,71Z" /></clipPath>
<clipPath id="c42_306"><path d="M566.5,1093.5l0,-71l323,0l0,71Z" /></clipPath>
<style type="text/css"><![CDATA[
.g2_306{
fill: none;
stroke: #7E7E7E;
stroke-width: 1;
stroke-linecap: butt;
stroke-linejoin: miter;
}
.g3_306{
fill: #DBE5F1;
}
.g1_306{
fill: #F1F1F1;
}
]]></style>
</defs>
<path fill-rule="evenodd" d="M47,222l840,0l0,-24L47,198l0,24Z" class="g1_306" />
<g clip-path="url(#c0_306)">
<path fill-rule="evenodd" d="M55,222l825,0l0,-24L55,198l0,24Z" class="g1_306" />
</g>
<path d="M46.5,198.5l0,-1" class="g2_306" />
<path d="M46.5,198.5l0,-1" class="g2_306" />
<path d="M47.5,198.5l840,0" class="g2_306" />
<path d="M887.5,198.5l0,-1" class="g2_306" />
<path d="M887.5,198.5l0,-1" class="g2_306" />
<path d="M46.5,222.5l0,-24" class="g2_306" />
<path d="M46.5,224.5l0,-2" class="g2_306" />
<path d="M46.5,224.5l0,-2" class="g2_306" />
<path d="M47.5,224.5l840,0" class="g2_306" />
<path d="M887.5,222.5l0,-24" class="g2_306" />
<path d="M887.5,224.5l0,-2" class="g2_306" />
<path d="M887.5,224.5l0,-2" class="g2_306" />
<path fill-rule="evenodd" d="M47,329l178,0l0,-24L47,305l0,24Z" class="g3_306" />
<g clip-path="url(#c1_306)">
<path fill-rule="evenodd" d="M55,329l162,0l0,-24L55,305l0,24Z" class="g3_306" />
</g>
<path fill-rule="evenodd" d="M226,329l163,0l0,-24l-163,0l0,24Z" class="g3_306" />
<g clip-path="url(#c2_306)">
<path fill-rule="evenodd" d="M234,329l147,0l0,-24l-147,0l0,24Z" class="g3_306" />
</g>
<path fill-rule="evenodd" d="M390,329l497,0l0,-24l-497,0l0,24Z" class="g3_306" />
<g clip-path="url(#c3_306)">
<path fill-rule="evenodd" d="M398,329l482,0l0,-24l-482,0l0,24Z" class="g3_306" />
</g>
<path d="M46.5,305.5l0,-1" class="g2_306" />
<path d="M46.5,305.5l0,-1" class="g2_306" />
<path d="M47.5,305.5l178,0" class="g2_306" />
<path d="M225.5,305.5l0,-1" class="g2_306" />
<path d="M226.5,305.5l163,0" class="g2_306" />
<path d="M389.5,305.5l0,-1" class="g2_306" />
<path d="M390.5,305.5l497,0" class="g2_306" />
<path d="M887.5,305.5l0,-1" class="g2_306" />
<path d="M887.5,305.5l0,-1" class="g2_306" />
<path d="M46.5,329.5l0,-24" class="g2_306" />
<path d="M225.5,329.5l0,-24" class="g2_306" />
<path d="M389.5,329.5l0,-24" class="g2_306" />
<path d="M887.5,329.5l0,-24" class="g2_306" />
<path fill-rule="evenodd" d="M47,354l178,0l0,-23L47,331l0,23Z" class="g1_306" />
<g clip-path="url(#c4_306)">
<path fill-rule="evenodd" d="M55,354l162,0l0,-23L55,331l0,23Z" class="g1_306" />
</g>
<path fill-rule="evenodd" d="M226,354l163,0l0,-23l-163,0l0,23Z" class="g1_306" />
<g clip-path="url(#c5_306)">
<path fill-rule="evenodd" d="M234,354l147,0l0,-23l-147,0l0,23Z" class="g1_306" />
</g>
<path fill-rule="evenodd" d="M390,354l497,0l0,-23l-497,0l0,23Z" class="g1_306" />
<g clip-path="url(#c6_306)">
<path fill-rule="evenodd" d="M398,354l482,0l0,-23l-482,0l0,23Z" class="g1_306" />
</g>
<path d="M46.5,331.5l0,-2" class="g2_306" />
<path d="M47.5,331.5l178,0" class="g2_306" />
<path d="M225.5,331.5l0,-2" class="g2_306" />
<path d="M226.5,331.5l163,0" class="g2_306" />
<path d="M389.5,331.5l0,-2" class="g2_306" />
<path d="M390.5,331.5l497,0" class="g2_306" />
<path d="M887.5,331.5l0,-2" class="g2_306" />
<path d="M46.5,354.5l0,-23" class="g2_306" />
<path d="M46.5,356.5l0,-2" class="g2_306" />
<path d="M46.5,356.5l0,-2" class="g2_306" />
<path d="M47.5,356.5l178,0" class="g2_306" />
<path d="M225.5,354.5l0,-23" class="g2_306" />
<path d="M225.5,356.5l0,-2" class="g2_306" />
<path d="M226.5,356.5l163,0" class="g2_306" />
<path d="M389.5,354.5l0,-23" class="g2_306" />
<path d="M389.5,356.5l0,-2" class="g2_306" />
<path d="M390.5,356.5l497,0" class="g2_306" />
<path d="M887.5,354.5l0,-23" class="g2_306" />
<path d="M887.5,356.5l0,-2" class="g2_306" />
<path d="M887.5,356.5l0,-2" class="g2_306" />
<path fill-rule="evenodd" d="M47,429l177,0l0,-24L47,405l0,24Z" class="g3_306" />
<path fill-rule="evenodd" d="M55,429l162,0l0,-24L55,405l0,24Z" class="g3_306" />
<path fill-rule="evenodd" d="M226,429l162,0l0,-24l-162,0l0,24Z" class="g3_306" />
<path fill-rule="evenodd" d="M233,429l148,0l0,-24l-148,0l0,24Z" class="g3_306" />
<path fill-rule="evenodd" d="M390,429l163,0l0,-24l-163,0l0,24Z" class="g3_306" />
<path fill-rule="evenodd" d="M397,429l148,0l0,-24l-148,0l0,24Z" class="g3_306" />
<path fill-rule="evenodd" d="M554,429l163,0l0,-24l-163,0l0,24Z" class="g3_306" />
<path fill-rule="evenodd" d="M562,429l148,0l0,-24l-148,0l0,24Z" class="g3_306" />
<path fill-rule="evenodd" d="M719,429l168,0l0,-24l-168,0l0,24Z" class="g3_306" />
<path fill-rule="evenodd" d="M726,429l154,0l0,-24l-154,0l0,24Z" class="g3_306" />
<path d="M46.5,405.5l0,-1" class="g2_306" />
<path d="M46.5,405.5l0,-1" class="g2_306" />
<path d="M47.5,405.5l177,0" class="g2_306" />
<path d="M224.5,405.5l0,-1" class="g2_306" />
<path d="M226.5,405.5l162,0" class="g2_306" />
<path d="M388.5,405.5l0,-1" class="g2_306" />
<path d="M390.5,405.5l163,0" class="g2_306" />
<path d="M553.5,405.5l0,-1" class="g2_306" />
<path d="M554.5,405.5l163,0" class="g2_306" />
<path d="M717.5,405.5l0,-1" class="g2_306" />
<path d="M719.5,405.5l168,0" class="g2_306" />
<path d="M887.5,405.5l0,-1" class="g2_306" />
<path d="M887.5,405.5l0,-1" class="g2_306" />
<path d="M46.5,429.5l0,-24" class="g2_306" />
<path d="M224.5,429.5l0,-24" class="g2_306" />
<path d="M388.5,429.5l0,-24" class="g2_306" />
<path d="M553.5,429.5l0,-24" class="g2_306" />
<path d="M717.5,429.5l0,-24" class="g2_306" />
<path d="M887.5,429.5l0,-24" class="g2_306" />
<path fill-rule="evenodd" d="M47,454l177,0l0,-23L47,431l0,23Z" class="g1_306" />
<path fill-rule="evenodd" d="M55,454l162,0l0,-23L55,431l0,23Z" class="g1_306" />
<path fill-rule="evenodd" d="M226,454l162,0l0,-23l-162,0l0,23Z" class="g1_306" />
<path fill-rule="evenodd" d="M233,454l148,0l0,-23l-148,0l0,23Z" class="g1_306" />
<path fill-rule="evenodd" d="M390,454l163,0l0,-23l-163,0l0,23Z" class="g1_306" />
<path fill-rule="evenodd" d="M397,454l148,0l0,-23l-148,0l0,23Z" class="g1_306" />
<path fill-rule="evenodd" d="M554,454l163,0l0,-23l-163,0l0,23Z" class="g1_306" />
<path fill-rule="evenodd" d="M562,454l148,0l0,-23l-148,0l0,23Z" class="g1_306" />
<path fill-rule="evenodd" d="M719,454l168,0l0,-23l-168,0l0,23Z" class="g1_306" />
<path fill-rule="evenodd" d="M726,454l154,0l0,-23l-154,0l0,23Z" class="g1_306" />
<path d="M46.5,431.5l0,-2" class="g2_306" />
<path d="M47.5,431.5l177,0" class="g2_306" />
<path d="M224.5,431.5l0,-2" class="g2_306" />
<path d="M226.5,431.5l162,0" class="g2_306" />
<path d="M388.5,431.5l0,-2" class="g2_306" />
<path d="M390.5,431.5l163,0" class="g2_306" />
<path d="M553.5,431.5l0,-2" class="g2_306" />
<path d="M554.5,431.5l163,0" class="g2_306" />
<path d="M717.5,431.5l0,-2" class="g2_306" />
<path d="M719.5,431.5l168,0" class="g2_306" />
<path d="M887.5,431.5l0,-2" class="g2_306" />
<path d="M46.5,454.5l0,-23" class="g2_306" />
<path d="M46.5,456.5l0,-2" class="g2_306" />
<path d="M46.5,456.5l0,-2" class="g2_306" />
<path d="M47.5,456.5l177,0" class="g2_306" />
<path d="M224.5,454.5l0,-23" class="g2_306" />
<path d="M224.5,456.5l0,-2" class="g2_306" />
<path d="M226.5,456.5l162,0" class="g2_306" />
<path d="M388.5,454.5l0,-23" class="g2_306" />
<path d="M388.5,456.5l0,-2" class="g2_306" />
<path d="M390.5,456.5l163,0" class="g2_306" />
<path d="M553.5,454.5l0,-23" class="g2_306" />
<path d="M553.5,456.5l0,-2" class="g2_306" />
<path d="M554.5,456.5l163,0" class="g2_306" />
<path d="M717.5,454.5l0,-23" class="g2_306" />
<path d="M717.5,456.5l0,-2" class="g2_306" />
<path d="M719.5,456.5l168,0" class="g2_306" />
<path d="M887.5,454.5l0,-23" class="g2_306" />
<path d="M887.5,456.5l0,-2" class="g2_306" />
<path d="M887.5,456.5l0,-2" class="g2_306" />
<path fill-rule="evenodd" d="M47,626l358,0l0,-24L47,602l0,24Z" class="g3_306" />
<path fill-rule="evenodd" d="M55,626l342,0l0,-24L55,602l0,24Z" class="g3_306" />
<path fill-rule="evenodd" d="M406,626l88,0l0,-24l-88,0l0,24Z" class="g3_306" />
<path fill-rule="evenodd" d="M414,626l73,0l0,-24l-73,0l0,24Z" class="g3_306" />
<path fill-rule="evenodd" d="M496,626l67,0l0,-24l-67,0l0,24Z" class="g3_306" />
<path fill-rule="evenodd" d="M503,626l52,0l0,-24l-52,0l0,24Z" class="g3_306" />
<path fill-rule="evenodd" d="M564,626l323,0l0,-24l-323,0l0,24Z" class="g3_306" />
<path fill-rule="evenodd" d="M572,626l308,0l0,-24l-308,0l0,24Z" class="g3_306" />
<path d="M46.5,602.5l0,-2" class="g2_306" />
<path d="M46.5,602.5l0,-2" class="g2_306" />
<path d="M47.5,602.5l358,0" class="g2_306" />
<path d="M405.5,602.5l0,-2" class="g2_306" />
<path d="M406.5,602.5l88,0" class="g2_306" />
<path d="M494.5,602.5l0,-2" class="g2_306" />
<path d="M496.5,602.5l67,0" class="g2_306" />
<path d="M563.5,602.5l0,-2" class="g2_306" />
<path d="M564.5,602.5l323,0" class="g2_306" />
<path d="M887.5,602.5l0,-2" class="g2_306" />
<path d="M887.5,602.5l0,-2" class="g2_306" />
<path d="M46.5,626.5l0,-24" class="g2_306" />
<path d="M405.5,626.5l0,-24" class="g2_306" />
<path d="M494.5,626.5l0,-24" class="g2_306" />
<path d="M563.5,626.5l0,-24" class="g2_306" />
<path d="M887.5,626.5l0,-24" class="g2_306" />
<path fill-rule="evenodd" d="M47,1093l39,0L86,628l-39,0l0,465Z" class="g1_306" />
<g clip-path="url(#c7_306)">
<path fill-rule="evenodd" d="M55,1093l23,0L78,628l-23,0l0,465Z" class="g1_306" />
</g>
<path fill-rule="evenodd" d="M87,723l318,0l0,-95L87,628l0,95Z" class="g1_306" />
<g clip-path="url(#c8_306)">
<path fill-rule="evenodd" d="M95,652l302,0l0,-24L95,628l0,24Z" class="g1_306" />
</g>
<path fill-rule="evenodd" d="M406,723l88,0l0,-95l-88,0l0,95Z" class="g1_306" />
<g clip-path="url(#c9_306)">
<path fill-rule="evenodd" d="M414,652l73,0l0,-24l-73,0l0,24Z" class="g1_306" />
</g>
<path fill-rule="evenodd" d="M496,723l67,0l0,-95l-67,0l0,95Z" class="g1_306" />
<g clip-path="url(#c10_306)">
<path fill-rule="evenodd" d="M503,652l52,0l0,-24l-52,0l0,24Z" class="g1_306" />
</g>
<path fill-rule="evenodd" d="M564,723l323,0l0,-95l-323,0l0,95Z" class="g1_306" />
<g clip-path="url(#c11_306)">
<path fill-rule="evenodd" d="M572,652l308,0l0,-24l-308,0l0,24Z" class="g1_306" />
</g>
<path fill-rule="evenodd" d="M572,675l308,0l0,-23l-308,0l0,23Z" class="g1_306" />
<path fill-rule="evenodd" d="M572,699l308,0l0,-24l-308,0l0,24Z" class="g1_306" />
<path fill-rule="evenodd" d="M572,723l308,0l0,-24l-308,0l0,24Z" class="g1_306" />
<path d="M46.5,628.5l0,-2" class="g2_306" />
<path d="M47.5,628.5l39,0" class="g2_306" />
<path d="M86.5,628.5l0,-2" class="g2_306" />
<path d="M87.5,628.5l318,0" class="g2_306" />
<path d="M405.5,628.5l0,-2" class="g2_306" />
<path d="M406.5,628.5l88,0" class="g2_306" />
<path d="M494.5,628.5l0,-2" class="g2_306" />
<path d="M496.5,628.5l67,0" class="g2_306" />
<path d="M563.5,628.5l0,-2" class="g2_306" />
<path d="M564.5,628.5l323,0" class="g2_306" />
<path d="M887.5,628.5l0,-2" class="g2_306" />
<path d="M46.5,723.5l0,-95" class="g2_306" />
<path d="M86.5,723.5l0,-95" class="g2_306" />
<path d="M405.5,723.5l0,-95" class="g2_306" />
<path d="M494.5,723.5l0,-95" class="g2_306" />
<path d="M563.5,723.5l0,-95" class="g2_306" />
<path d="M887.5,723.5l0,-95" class="g2_306" />
<path fill-rule="evenodd" d="M87,749l318,0l0,-24L87,725l0,24Z" class="g1_306" />
<g clip-path="url(#c12_306)">
<path fill-rule="evenodd" d="M95,749l302,0l0,-24L95,725l0,24Z" class="g1_306" />
</g>
<path fill-rule="evenodd" d="M406,749l88,0l0,-24l-88,0l0,24Z" class="g1_306" />
<g clip-path="url(#c13_306)">
<path fill-rule="evenodd" d="M414,749l73,0l0,-24l-73,0l0,24Z" class="g1_306" />
</g>
<path fill-rule="evenodd" d="M496,749l67,0l0,-24l-67,0l0,24Z" class="g1_306" />
<g clip-path="url(#c14_306)">
<path fill-rule="evenodd" d="M503,749l52,0l0,-24l-52,0l0,24Z" class="g1_306" />
</g>
<path fill-rule="evenodd" d="M564,749l323,0l0,-24l-323,0l0,24Z" class="g1_306" />
<g clip-path="url(#c15_306)">
<path fill-rule="evenodd" d="M572,749l308,0l0,-24l-308,0l0,24Z" class="g1_306" />
</g>
<path d="M46.5,725.5l0,-2" class="g2_306" />
<path d="M86.5,725.5l0,-2" class="g2_306" />
<path d="M87.5,725.5l318,0" class="g2_306" />
<path d="M405.5,725.5l0,-2" class="g2_306" />
<path d="M406.5,725.5l88,0" class="g2_306" />
<path d="M494.5,725.5l0,-2" class="g2_306" />
<path d="M496.5,725.5l67,0" class="g2_306" />
<path d="M563.5,725.5l0,-2" class="g2_306" />
<path d="M564.5,725.5l323,0" class="g2_306" />
<path d="M887.5,725.5l0,-2" class="g2_306" />
<path d="M46.5,749.5l0,-24" class="g2_306" />
<path d="M86.5,749.5l0,-24" class="g2_306" />
<path d="M405.5,749.5l0,-24" class="g2_306" />
<path d="M494.5,749.5l0,-24" class="g2_306" />
<path d="M563.5,749.5l0,-24" class="g2_306" />
<path d="M887.5,749.5l0,-24" class="g2_306" />
<path fill-rule="evenodd" d="M87,1093l54,0l0,-342l-54,0l0,342Z" class="g1_306" />
<g clip-path="url(#c16_306)">
<path fill-rule="evenodd" d="M95,1093l24,0l0,-342l-24,0l0,342Z" class="g1_306" />
</g>
<path fill-rule="evenodd" d="M142,1093l53,0l0,-342l-53,0l0,342Z" class="g1_306" />
<g clip-path="url(#c17_306)">
<path fill-rule="evenodd" d="M150,1093l23,0l0,-342l-23,0l0,342Z" class="g1_306" />
</g>
<path fill-rule="evenodd" d="M196,774l209,0l0,-23l-209,0l0,23Z" class="g1_306" />
<g clip-path="url(#c18_306)">
<path fill-rule="evenodd" d="M204,774l193,0l0,-23l-193,0l0,23Z" class="g1_306" />
</g>
<path fill-rule="evenodd" d="M406,774l88,0l0,-23l-88,0l0,23Z" class="g1_306" />
<g clip-path="url(#c19_306)">
<path fill-rule="evenodd" d="M414,774l73,0l0,-23l-73,0l0,23Z" class="g1_306" />
</g>
<path fill-rule="evenodd" d="M496,774l67,0l0,-23l-67,0l0,23Z" class="g1_306" />
<g clip-path="url(#c20_306)">
<path fill-rule="evenodd" d="M503,774l52,0l0,-23l-52,0l0,23Z" class="g1_306" />
</g>
<path fill-rule="evenodd" d="M564,774l323,0l0,-23l-323,0l0,23Z" class="g1_306" />
<g clip-path="url(#c21_306)">
<path fill-rule="evenodd" d="M572,774l308,0l0,-23l-308,0l0,23Z" class="g1_306" />
</g>
<path d="M46.5,751.5l0,-2" class="g2_306" />
<path d="M86.5,751.5l0,-2" class="g2_306" />
<path d="M87.5,751.5l54,0" class="g2_306" />
<path d="M141.5,751.5l0,-2" class="g2_306" />
<path d="M142.5,751.5l53,0" class="g2_306" />
<path d="M195.5,751.5l0,-2" class="g2_306" />
<path d="M196.5,751.5l209,0" class="g2_306" />
<path d="M405.5,751.5l0,-2" class="g2_306" />
<path d="M406.5,751.5l88,0" class="g2_306" />
<path d="M494.5,751.5l0,-2" class="g2_306" />
<path d="M496.5,751.5l67,0" class="g2_306" />
<path d="M563.5,751.5l0,-2" class="g2_306" />
<path d="M564.5,751.5l323,0" class="g2_306" />
<path d="M887.5,751.5l0,-2" class="g2_306" />
<path d="M46.5,774.5l0,-23" class="g2_306" />
<path d="M86.5,774.5l0,-23" class="g2_306" />
<path d="M141.5,774.5l0,-23" class="g2_306" />
<path d="M195.5,774.5l0,-23" class="g2_306" />
<path d="M405.5,774.5l0,-23" class="g2_306" />
<path d="M494.5,774.5l0,-23" class="g2_306" />
<path d="M563.5,774.5l0,-23" class="g2_306" />
<path d="M887.5,774.5l0,-23" class="g2_306" />
<path fill-rule="evenodd" d="M196,847l209,0l0,-71l-209,0l0,71Z" class="g1_306" />
<g clip-path="url(#c22_306)">
<path fill-rule="evenodd" d="M204,800l193,0l0,-24l-193,0l0,24Z" class="g1_306" />
</g>
<path fill-rule="evenodd" d="M406,847l88,0l0,-71l-88,0l0,71Z" class="g1_306" />
<g clip-path="url(#c23_306)">
<path fill-rule="evenodd" d="M414,800l73,0l0,-24l-73,0l0,24Z" class="g1_306" />
</g>
<path fill-rule="evenodd" d="M496,847l67,0l0,-71l-67,0l0,71Z" class="g1_306" />
<g clip-path="url(#c24_306)">
<path fill-rule="evenodd" d="M503,800l52,0l0,-24l-52,0l0,24Z" class="g1_306" />
</g>
<path fill-rule="evenodd" d="M564,847l323,0l0,-71l-323,0l0,71Z" class="g1_306" />
<g clip-path="url(#c25_306)">
<path fill-rule="evenodd" d="M572,800l308,0l0,-24l-308,0l0,24Z" class="g1_306" />
</g>
<path fill-rule="evenodd" d="M572,824l308,0l0,-24l-308,0l0,24Z" class="g1_306" />
<path fill-rule="evenodd" d="M572,847l308,0l0,-23l-308,0l0,23Z" class="g1_306" />
<path d="M46.5,776.5l0,-2" class="g2_306" />
<path d="M86.5,776.5l0,-2" class="g2_306" />
<path d="M141.5,776.5l0,-2" class="g2_306" />
<path d="M195.5,776.5l0,-2" class="g2_306" />
<path d="M196.5,776.5l209,0" class="g2_306" />
<path d="M405.5,776.5l0,-2" class="g2_306" />
<path d="M406.5,776.5l88,0" class="g2_306" />
<path d="M494.5,776.5l0,-2" class="g2_306" />
<path d="M496.5,776.5l67,0" class="g2_306" />
<path d="M563.5,776.5l0,-2" class="g2_306" />
<path d="M564.5,776.5l323,0" class="g2_306" />
<path d="M887.5,776.5l0,-2" class="g2_306" />
<path d="M46.5,847.5l0,-71" class="g2_306" />
<path d="M86.5,847.5l0,-71" class="g2_306" />
<path d="M141.5,847.5l0,-71" class="g2_306" />
<path d="M195.5,847.5l0,-71" class="g2_306" />
<path d="M405.5,847.5l0,-71" class="g2_306" />
<path d="M494.5,847.5l0,-71" class="g2_306" />
<path d="M563.5,847.5l0,-71" class="g2_306" />
<path d="M887.5,847.5l0,-71" class="g2_306" />
<path fill-rule="evenodd" d="M196,897l209,0l0,-48l-209,0l0,48Z" class="g1_306" />
<g clip-path="url(#c26_306)">
<path fill-rule="evenodd" d="M204,873l193,0l0,-24l-193,0l0,24Z" class="g1_306" />
</g>
<path fill-rule="evenodd" d="M406,897l88,0l0,-48l-88,0l0,48Z" class="g1_306" />
<g clip-path="url(#c27_306)">
<path fill-rule="evenodd" d="M414,873l73,0l0,-24l-73,0l0,24Z" class="g1_306" />
</g>
<path fill-rule="evenodd" d="M496,897l67,0l0,-48l-67,0l0,48Z" class="g1_306" />
<g clip-path="url(#c28_306)">
<path fill-rule="evenodd" d="M503,873l52,0l0,-24l-52,0l0,24Z" class="g1_306" />
</g>
<path fill-rule="evenodd" d="M564,897l323,0l0,-48l-323,0l0,48Z" class="g1_306" />
<g clip-path="url(#c29_306)">
<path fill-rule="evenodd" d="M572,873l308,0l0,-24l-308,0l0,24Z" class="g1_306" />
</g>
<path fill-rule="evenodd" d="M572,897l308,0l0,-24l-308,0l0,24Z" class="g1_306" />
<path d="M46.5,849.5l0,-2" class="g2_306" />
<path d="M86.5,849.5l0,-2" class="g2_306" />
<path d="M141.5,849.5l0,-2" class="g2_306" />
<path d="M195.5,849.5l0,-2" class="g2_306" />
<path d="M196.5,849.5l209,0" class="g2_306" />
<path d="M405.5,849.5l0,-2" class="g2_306" />
<path d="M406.5,849.5l88,0" class="g2_306" />
<path d="M494.5,849.5l0,-2" class="g2_306" />
<path d="M496.5,849.5l67,0" class="g2_306" />
<path d="M563.5,849.5l0,-2" class="g2_306" />
<path d="M564.5,849.5l323,0" class="g2_306" />
<path d="M887.5,849.5l0,-2" class="g2_306" />
<path d="M46.5,897.5l0,-48" class="g2_306" />
<path d="M86.5,897.5l0,-48" class="g2_306" />
<path d="M141.5,897.5l0,-48" class="g2_306" />
<path d="M195.5,897.5l0,-48" class="g2_306" />
<path d="M405.5,897.5l0,-48" class="g2_306" />
<path d="M494.5,897.5l0,-48" class="g2_306" />
<path d="M563.5,897.5l0,-48" class="g2_306" />
<path d="M887.5,897.5l0,-48" class="g2_306" />
<path fill-rule="evenodd" d="M196,1093l31,0l0,-195l-31,0l0,195Z" class="g1_306" />
<g clip-path="url(#c30_306)">
<path fill-rule="evenodd" d="M204,1093l23,0l0,-195l-23,0l0,195Z" class="g1_306" />
</g>
<path fill-rule="evenodd" d="M229,1093l30,0l0,-195l-30,0l0,195Z" class="g1_306" />
<g clip-path="url(#c31_306)">
<path fill-rule="evenodd" d="M236,1093l23,0l0,-195l-23,0l0,195Z" class="g1_306" />
</g>
<path fill-rule="evenodd" d="M261,922l146,0l0,-24l-146,0l0,24Z" class="g1_306" />
<g clip-path="url(#c32_306)">
<path fill-rule="evenodd" d="M268,922l131,0l0,-24l-131,0l0,24Z" class="g1_306" />
</g>
<path fill-rule="evenodd" d="M408,922l88,0l0,-24l-88,0l0,24Z" class="g1_306" />
<g clip-path="url(#c33_306)">
<path fill-rule="evenodd" d="M416,922l72,0l0,-24l-72,0l0,24Z" class="g1_306" />
</g>
<path fill-rule="evenodd" d="M497,922l67,0l0,-24l-67,0l0,24Z" class="g1_306" />
<g clip-path="url(#c34_306)">
<path fill-rule="evenodd" d="M505,922l52,0l0,-24l-52,0l0,24Z" class="g1_306" />
</g>
<path fill-rule="evenodd" d="M566,922l323,0l0,-24l-323,0l0,24Z" class="g1_306" />
<g clip-path="url(#c35_306)">
<path fill-rule="evenodd" d="M573,922l308,0l0,-24l-308,0l0,24Z" class="g1_306" />
</g>
<path d="M46.5,898.5l0,-1" class="g2_306" />
<path d="M86.5,898.5l0,-1" class="g2_306" />
<path d="M141.5,898.5l0,-1" class="g2_306" />
<path d="M195.5,898.5l0,-1" class="g2_306" />
<path d="M196.5,898.5l31,0" class="g2_306" />
<path d="M227.5,898.5l0,-1" class="g2_306" />
<path d="M229.5,898.5l31,0" class="g2_306" />
<path d="M260.5,898.5l0,-1" class="g2_306" />
<path d="M261.5,898.5l144,0" class="g2_306" />
<path d="M405.5,898.5l0,-1" class="g2_306" />
<path d="M406.5,898.5l0,-1" class="g2_306" />
<path d="M407.5,898.5l0,-1" class="g2_306" />
<path d="M408.5,898.5l86,0" class="g2_306" />
<path d="M494.5,898.5l0,-1" class="g2_306" />
<path d="M496.5,898.5l0,-1" class="g2_306" />
<path d="M496.5,898.5l0,-1" class="g2_306" />
<path d="M497.5,898.5l66,0" class="g2_306" />
<path d="M563.5,898.5l0,-1" class="g2_306" />
<path d="M564.5,898.5l0,-1" class="g2_306" />
<path d="M564.5,898.5l0,-1" class="g2_306" />
<path d="M566.5,898.5l321,0" class="g2_306" />
<path d="M887.5,898.5l0,-1" class="g2_306" />
<path d="M889.5,898.5l0,-1" class="g2_306" />
<path d="M889.5,898.5l0,-1" class="g2_306" />
<path d="M889.5,898.5l0,-1" class="g2_306" />
<path d="M46.5,922.5l0,-24" class="g2_306" />
<path d="M86.5,922.5l0,-24" class="g2_306" />
<path d="M141.5,922.5l0,-24" class="g2_306" />
<path d="M195.5,922.5l0,-24" class="g2_306" />
<path d="M227.5,922.5l0,-24" class="g2_306" />
<path d="M260.5,922.5l0,-24" class="g2_306" />
<path d="M407.5,922.5l0,-24" class="g2_306" />
<path d="M496.5,922.5l0,-24" class="g2_306" />
<path d="M564.5,922.5l0,-24" class="g2_306" />
<path d="M889.5,922.5l0,-24" class="g2_306" />
<path fill-rule="evenodd" d="M261,947l146,0l0,-24l-146,0l0,24Z" class="g1_306" />
<g clip-path="url(#c36_306)">
<path fill-rule="evenodd" d="M268,947l131,0l0,-24l-131,0l0,24Z" class="g1_306" />
</g>
<path fill-rule="evenodd" d="M408,947l88,0l0,-24l-88,0l0,24Z" class="g1_306" />
<g clip-path="url(#c37_306)">
<path fill-rule="evenodd" d="M416,947l72,0l0,-24l-72,0l0,24Z" class="g1_306" />
</g>
<path fill-rule="evenodd" d="M497,947l67,0l0,-24l-67,0l0,24Z" class="g1_306" />
<g clip-path="url(#c38_306)">
<path fill-rule="evenodd" d="M505,947l52,0l0,-24l-52,0l0,24Z" class="g1_306" />
</g>
<path fill-rule="evenodd" d="M566,947l323,0l0,-24l-323,0l0,24Z" class="g1_306" />
<g clip-path="url(#c39_306)">
<path fill-rule="evenodd" d="M573,947l308,0l0,-24l-308,0l0,24Z" class="g1_306" />
</g>
<path d="M46.5,923.5l0,-1" class="g2_306" />
<path d="M86.5,923.5l0,-1" class="g2_306" />
<path d="M141.5,923.5l0,-1" class="g2_306" />
<path d="M195.5,923.5l0,-1" class="g2_306" />
<path d="M227.5,923.5l0,-1" class="g2_306" />
<path d="M260.5,923.5l0,-1" class="g2_306" />
<path d="M261.5,923.5l146,0" class="g2_306" />
<path d="M407.5,923.5l0,-1" class="g2_306" />
<path d="M408.5,923.5l88,0" class="g2_306" />
<path d="M496.5,923.5l0,-1" class="g2_306" />
<path d="M497.5,923.5l67,0" class="g2_306" />
<path d="M564.5,923.5l0,-1" class="g2_306" />
<path d="M566.5,923.5l323,0" class="g2_306" />
<path d="M889.5,923.5l0,-1" class="g2_306" />
<path d="M46.5,947.5l0,-24" class="g2_306" />
<path d="M86.5,947.5l0,-24" class="g2_306" />
<path d="M141.5,947.5l0,-24" class="g2_306" />
<path d="M195.5,947.5l0,-24" class="g2_306" />
<path d="M227.5,947.5l0,-24" class="g2_306" />
<path d="M260.5,947.5l0,-24" class="g2_306" />
<path d="M407.5,947.5l0,-24" class="g2_306" />
<path d="M496.5,947.5l0,-24" class="g2_306" />
<path d="M564.5,947.5l0,-24" class="g2_306" />
<path d="M889.5,947.5l0,-24" class="g2_306" />
<path fill-rule="evenodd" d="M261,1020l146,0l0,-71l-146,0l0,71Z" class="g1_306" />
<path fill-rule="evenodd" d="M268,973l131,0l0,-24l-131,0l0,24Z" class="g1_306" />
<path fill-rule="evenodd" d="M408,1020l88,0l0,-71l-88,0l0,71Z" class="g1_306" />
<path fill-rule="evenodd" d="M416,973l72,0l0,-24l-72,0l0,24Z" class="g1_306" />
<path fill-rule="evenodd" d="M416,997l72,0l0,-24l-72,0l0,24Z" class="g1_306" />
<g clip-path="url(#c40_306)">
<path fill-rule="evenodd" d="M416,1020l72,0l0,-23l-72,0l0,23Z" class="g1_306" />
</g>
<path fill-rule="evenodd" d="M497,1020l67,0l0,-71l-67,0l0,71Z" class="g1_306" />
<path fill-rule="evenodd" d="M505,973l52,0l0,-24l-52,0l0,24Z" class="g1_306" />
<path fill-rule="evenodd" d="M566,1020l323,0l0,-71l-323,0l0,71Z" class="g1_306" />
<path fill-rule="evenodd" d="M573,973l308,0l0,-24l-308,0l0,24Z" class="g1_306" />
<path fill-rule="evenodd" d="M573,997l308,0l0,-24l-308,0l0,24Z" class="g1_306" />
<path d="M46.5,949.5l0,-2" class="g2_306" />
<path d="M86.5,949.5l0,-2" class="g2_306" />
<path d="M141.5,949.5l0,-2" class="g2_306" />
<path d="M195.5,949.5l0,-2" class="g2_306" />
<path d="M227.5,949.5l0,-2" class="g2_306" />
<path d="M260.5,949.5l0,-2" class="g2_306" />
<path d="M261.5,949.5l146,0" class="g2_306" />
<path d="M407.5,949.5l0,-2" class="g2_306" />
<path d="M408.5,949.5l88,0" class="g2_306" />
<path d="M496.5,949.5l0,-2" class="g2_306" />
<path d="M497.5,949.5l67,0" class="g2_306" />
<path d="M564.5,949.5l0,-2" class="g2_306" />
<path d="M566.5,949.5l323,0" class="g2_306" />
<path d="M889.5,949.5l0,-2" class="g2_306" />
<path d="M46.5,1020.5l0,-71" class="g2_306" />
<path d="M86.5,1020.5l0,-71" class="g2_306" />
<path d="M141.5,1020.5l0,-71" class="g2_306" />
<path d="M195.5,1020.5l0,-71" class="g2_306" />
<path d="M227.5,1020.5l0,-71" class="g2_306" />
<path d="M260.5,1020.5l0,-71" class="g2_306" />
<path d="M407.5,1020.5l0,-71" class="g2_306" />
<path d="M496.5,1020.5l0,-71" class="g2_306" />
<path d="M564.5,1020.5l0,-71" class="g2_306" />
<path d="M889.5,1020.5l0,-71" class="g2_306" />
<path fill-rule="evenodd" d="M261,1093l146,0l0,-71l-146,0l0,71Z" class="g1_306" />
<path fill-rule="evenodd" d="M268,1046l131,0l0,-24l-131,0l0,24Z" class="g1_306" />
<path fill-rule="evenodd" d="M408,1093l88,0l0,-71l-88,0l0,71Z" class="g1_306" />
<path fill-rule="evenodd" d="M416,1046l72,0l0,-24l-72,0l0,24Z" class="g1_306" />
<path fill-rule="evenodd" d="M416,1070l72,0l0,-24l-72,0l0,24Z" class="g1_306" />
<g clip-path="url(#c41_306)">
<path fill-rule="evenodd" d="M416,1093l72,0l0,-23l-72,0l0,23Z" class="g1_306" />
</g>
<path fill-rule="evenodd" d="M497,1093l67,0l0,-71l-67,0l0,71Z" class="g1_306" />
<path fill-rule="evenodd" d="M505,1046l52,0l0,-24l-52,0l0,24Z" class="g1_306" />
<path fill-rule="evenodd" d="M566,1093l323,0l0,-71l-323,0l0,71Z" class="g1_306" />
<path fill-rule="evenodd" d="M573,1046l308,0l0,-24l-308,0l0,24Z" class="g1_306" />
<path fill-rule="evenodd" d="M573,1070l308,0l0,-24l-308,0l0,24Z" class="g1_306" />
<g clip-path="url(#c42_306)">
<path fill-rule="evenodd" d="M573,1093l308,0l0,-23l-308,0l0,23Z" class="g1_306" />
</g>
<path d="M46.5,1022.5l0,-2" class="g2_306" />
<path d="M86.5,1022.5l0,-2" class="g2_306" />
<path d="M141.5,1022.5l0,-2" class="g2_306" />
<path d="M195.5,1022.5l0,-2" class="g2_306" />
<path d="M227.5,1022.5l0,-2" class="g2_306" />
<path d="M260.5,1022.5l0,-2" class="g2_306" />
<path d="M261.5,1022.5l146,0" class="g2_306" />
<path d="M407.5,1022.5l0,-2" class="g2_306" />
<path d="M408.5,1022.5l88,0" class="g2_306" />
<path d="M496.5,1022.5l0,-2" class="g2_306" />
<path d="M497.5,1022.5l67,0" class="g2_306" />
<path d="M564.5,1022.5l0,-2" class="g2_306" />
<path d="M566.5,1022.5l323,0" class="g2_306" />
<path d="M889.5,1022.5l0,-2" class="g2_306" />
<path d="M46.5,1093.5l0,-71" class="g2_306" />
<path d="M46.5,1095.5l0,-2" class="g2_306" />
<path d="M46.5,1095.5l0,-2" class="g2_306" />
<path d="M47.5,1095.5l39,0" class="g2_306" />
<path d="M86.5,1093.5l0,-71" class="g2_306" />
<path d="M86.5,1095.5l0,-2" class="g2_306" />
<path d="M87.5,1095.5l54,0" class="g2_306" />
<path d="M141.5,1093.5l0,-71" class="g2_306" />
<path d="M141.5,1095.5l0,-2" class="g2_306" />
<path d="M142.5,1095.5l53,0" class="g2_306" />
<path d="M195.5,1093.5l0,-71" class="g2_306" />
<path d="M195.5,1095.5l0,-2" class="g2_306" />
<path d="M196.5,1095.5l31,0" class="g2_306" />
<path d="M227.5,1093.5l0,-71" class="g2_306" />
<path d="M227.5,1095.5l0,-2" class="g2_306" />
<path d="M229.5,1095.5l31,0" class="g2_306" />
<path d="M260.5,1093.5l0,-71" class="g2_306" />
<path d="M260.5,1095.5l0,-2" class="g2_306" />
<path d="M261.5,1095.5l146,0" class="g2_306" />
<path d="M407.5,1093.5l0,-71" class="g2_306" />
<path d="M407.5,1095.5l0,-2" class="g2_306" />
<path d="M408.5,1095.5l88,0" class="g2_306" />
<path d="M496.5,1093.5l0,-71" class="g2_306" />
<path d="M496.5,1095.5l0,-2" class="g2_306" />
<path d="M497.5,1095.5l67,0" class="g2_306" />
<path d="M564.5,1093.5l0,-71" class="g2_306" />
<path d="M564.5,1095.5l0,-2" class="g2_306" />
<path d="M566.5,1095.5l323,0" class="g2_306" />
<path d="M889.5,1093.5l0,-71" class="g2_306" />
<path d="M889.5,1095.5l0,-2" class="g2_306" />
<path d="M889.5,1095.5l0,-2" class="g2_306" />
</svg>