<?xml version="1.0" encoding="UTF-8" standalone="no"?>
<!DOCTYPE svg PUBLIC "-//W3C//DTD SVG 1.1//EN"
"http://www.w3.org/Graphics/SVG/1.1/DTD/svg11.dtd">
<svg version="1.1" xmlns="http://www.w3.org/2000/svg" xmlns:xlink="http://www.w3.org/1999/xlink">
<defs>
<clipPath id="c0_307"><path d="M261.5,373.5l0,-262l146,0l0,262Z" /></clipPath>
<clipPath id="c1_307"><path d="M408.5,373.5l0,-262l88,0l0,262Z" /></clipPath>
<clipPath id="c2_307"><path d="M497.5,373.5l0,-262l67,0l0,262Z" /></clipPath>
<clipPath id="c3_307"><path d="M566.5,373.5l0,-262l323,0l0,262Z" /></clipPath>
<clipPath id="c4_307"><path d="M47.5,1095.5l0,-549l840,0l0,549Z" /></clipPath>
<style type="text/css"><![CDATA[
.g2_307{
fill: none;
stroke: #7E7E7E;
stroke-width: 1;
stroke-linecap: butt;
stroke-linejoin: miter;
}
.g1_307{
fill: #F1F1F1;
}
]]></style>
</defs>
<path fill-rule="evenodd" d="M47,373l39,0L86,111l-39,0l0,262Z" class="g1_307" />
<path fill-rule="evenodd" d="M87,373l54,0l0,-262l-54,0l0,262Z" class="g1_307" />
<path fill-rule="evenodd" d="M142,373l53,0l0,-262l-53,0l0,262Z" class="g1_307" />
<path fill-rule="evenodd" d="M196,373l31,0l0,-262l-31,0l0,262Z" class="g1_307" />
<path fill-rule="evenodd" d="M229,373l30,0l0,-262l-30,0l0,262Z" class="g1_307" />
<path fill-rule="evenodd" d="M261,373l146,0l0,-262l-146,0l0,262Z" class="g1_307" />
<g clip-path="url(#c0_307)">
<path fill-rule="evenodd" d="M268,135l131,0l0,-24l-131,0l0,24Z" class="g1_307" />
</g>
<path fill-rule="evenodd" d="M408,373l88,0l0,-262l-88,0l0,262Z" class="g1_307" />
<g clip-path="url(#c1_307)">
<path fill-rule="evenodd" d="M416,135l72,0l0,-24l-72,0l0,24Z" class="g1_307" />
</g>
<path fill-rule="evenodd" d="M497,373l67,0l0,-262l-67,0l0,262Z" class="g1_307" />
<g clip-path="url(#c2_307)">
<path fill-rule="evenodd" d="M505,135l52,0l0,-24l-52,0l0,24Z" class="g1_307" />
</g>
<path fill-rule="evenodd" d="M566,373l323,0l0,-262l-323,0l0,262Z" class="g1_307" />
<g clip-path="url(#c3_307)">
<path fill-rule="evenodd" d="M573,135l308,0l0,-24l-308,0l0,24Z" class="g1_307" />
</g>
<path fill-rule="evenodd" d="M573,159l308,0l0,-24l-308,0l0,24Z" class="g1_307" />
<path fill-rule="evenodd" d="M573,182l308,0l0,-23l-308,0l0,23Z" class="g1_307" />
<path fill-rule="evenodd" d="M573,206l308,0l0,-24l-308,0l0,24Z" class="g1_307" />
<path fill-rule="evenodd" d="M573,230l308,0l0,-24l-308,0l0,24Z" class="g1_307" />
<path fill-rule="evenodd" d="M573,254l308,0l0,-24l-308,0l0,24Z" class="g1_307" />
<path fill-rule="evenodd" d="M573,278l308,0l0,-24l-308,0l0,24Z" class="g1_307" />
<path fill-rule="evenodd" d="M573,302l308,0l0,-24l-308,0l0,24Z" class="g1_307" />
<path fill-rule="evenodd" d="M573,325l308,0l0,-23l-308,0l0,23Z" class="g1_307" />
<path fill-rule="evenodd" d="M573,349l308,0l0,-24l-308,0l0,24Z" class="g1_307" />
<path fill-rule="evenodd" d="M573,373l308,0l0,-24l-308,0l0,24Z" class="g1_307" />
<path d="M46.5,111.5l0,-1" class="g2_307" />
<path d="M46.5,111.5l0,-1" class="g2_307" />
<path d="M47.5,111.5l39,0" class="g2_307" />
<path d="M86.5,111.5l0,-1" class="g2_307" />
<path d="M87.5,111.5l54,0" class="g2_307" />
<path d="M141.5,111.5l0,-1" class="g2_307" />
<path d="M142.5,111.5l53,0" class="g2_307" />
<path d="M195.5,111.5l0,-1" class="g2_307" />
<path d="M196.5,111.5l31,0" class="g2_307" />
<path d="M227.5,111.5l0,-1" class="g2_307" />
<path d="M229.5,111.5l31,0" class="g2_307" />
<path d="M260.5,111.5l0,-1" class="g2_307" />
<path d="M261.5,111.5l146,0" class="g2_307" />
<path d="M407.5,111.5l0,-1" class="g2_307" />
<path d="M408.5,111.5l88,0" class="g2_307" />
<path d="M496.5,111.5l0,-1" class="g2_307" />
<path d="M497.5,111.5l67,0" class="g2_307" />
<path d="M564.5,111.5l0,-1" class="g2_307" />
<path d="M566.5,111.5l323,0" class="g2_307" />
<path d="M889.5,111.5l0,-1" class="g2_307" />
<path d="M889.5,111.5l0,-1" class="g2_307" />
<path d="M46.5,373.5l0,-262" class="g2_307" />
<path d="M46.5,375.5l0,-2" class="g2_307" />
<path d="M46.5,375.5l0,-2" class="g2_307" />
<path d="M47.5,375.5l39,0" class="g2_307" />
<path d="M86.5,373.5l0,-262" class="g2_307" />
<path d="M86.5,375.5l0,-2" class="g2_307" />
<path d="M87.5,375.5l54,0" class="g2_307" />
<path d="M141.5,373.5l0,-262" class="g2_307" />
<path d="M141.5,375.5l0,-2" class="g2_307" />
<path d="M142.5,375.5l53,0" class="g2_307" />
<path d="M195.5,373.5l0,-262" class="g2_307" />
<path d="M195.5,375.5l0,-2" class="g2_307" />
<path d="M196.5,375.5l31,0" class="g2_307" />
<path d="M227.5,373.5l0,-262" class="g2_307" />
<path d="M227.5,375.5l0,-2" class="g2_307" />
<path d="M229.5,375.5l31,0" class="g2_307" />
<path d="M260.5,373.5l0,-262" class="g2_307" />
<path d="M260.5,375.5l0,-2" class="g2_307" />
<path d="M261.5,375.5l146,0" class="g2_307" />
<path d="M407.5,373.5l0,-262" class="g2_307" />
<path d="M407.5,375.5l0,-2" class="g2_307" />
<path d="M408.5,375.5l88,0" class="g2_307" />
<path d="M496.5,373.5l0,-262" class="g2_307" />
<path d="M496.5,375.5l0,-2" class="g2_307" />
<path d="M497.5,375.5l67,0" class="g2_307" />
<path d="M564.5,373.5l0,-262" class="g2_307" />
<path d="M564.5,375.5l0,-2" class="g2_307" />
<path d="M566.5,375.5l323,0" class="g2_307" />
<path d="M889.5,373.5l0,-262" class="g2_307" />
<path d="M889.5,375.5l0,-2" class="g2_307" />
<path d="M889.5,375.5l0,-2" class="g2_307" />
<path fill-rule="evenodd" d="M47,519l840,0l0,-47L47,472l0,47Z" class="g1_307" />
<path fill-rule="evenodd" d="M55,495l825,0l0,-23L55,472l0,23Z" class="g1_307" />
<path fill-rule="evenodd" d="M55,519l825,0l0,-24L55,495l0,24Z" class="g1_307" />
<path d="M46.5,472.5l0,-2" class="g2_307" />
<path d="M46.5,472.5l0,-2" class="g2_307" />
<path d="M47.5,472.5l840,0" class="g2_307" />
<path d="M887.5,472.5l0,-2" class="g2_307" />
<path d="M887.5,472.5l0,-2" class="g2_307" />
<path d="M46.5,519.5l0,-47" class="g2_307" />
<path d="M46.5,521.5l0,-2" class="g2_307" />
<path d="M46.5,521.5l0,-2" class="g2_307" />
<path d="M47.5,521.5l840,0" class="g2_307" />
<path d="M887.5,519.5l0,-47" class="g2_307" />
<path d="M887.5,521.5l0,-2" class="g2_307" />
<path d="M887.5,521.5l0,-2" class="g2_307" />
<path fill-rule="evenodd" d="M47,1095l840,0l0,-549L47,546l0,549Z" class="g1_307" />
<path fill-rule="evenodd" d="M55,570l825,0l0,-24L55,546l0,24Z" class="g1_307" />
<path fill-rule="evenodd" d="M55,594l825,0l0,-24L55,570l0,24Z" class="g1_307" />
<path fill-rule="evenodd" d="M55,618l825,0l0,-24L55,594l0,24Z" class="g1_307" />
<path fill-rule="evenodd" d="M55,642l825,0l0,-24L55,618l0,24Z" class="g1_307" />
<path fill-rule="evenodd" d="M55,665l825,0l0,-23L55,642l0,23Z" class="g1_307" />
<path fill-rule="evenodd" d="M55,689l825,0l0,-24L55,665l0,24Z" class="g1_307" />
<path fill-rule="evenodd" d="M55,713l825,0l0,-24L55,689l0,24Z" class="g1_307" />
<path fill-rule="evenodd" d="M55,737l825,0l0,-24L55,713l0,24Z" class="g1_307" />
<path fill-rule="evenodd" d="M55,761l825,0l0,-24L55,737l0,24Z" class="g1_307" />
<path fill-rule="evenodd" d="M55,785l825,0l0,-24L55,761l0,24Z" class="g1_307" />
<path fill-rule="evenodd" d="M55,808l825,0l0,-23L55,785l0,23Z" class="g1_307" />
<path fill-rule="evenodd" d="M55,832l825,0l0,-24L55,808l0,24Z" class="g1_307" />
<path fill-rule="evenodd" d="M55,856l825,0l0,-24L55,832l0,24Z" class="g1_307" />
<path fill-rule="evenodd" d="M55,880l825,0l0,-24L55,856l0,24Z" class="g1_307" />
<path fill-rule="evenodd" d="M55,904l825,0l0,-24L55,880l0,24Z" class="g1_307" />
<path fill-rule="evenodd" d="M55,928l825,0l0,-24L55,904l0,24Z" class="g1_307" />
<path fill-rule="evenodd" d="M55,952l825,0l0,-24L55,928l0,24Z" class="g1_307" />
<path fill-rule="evenodd" d="M55,975l825,0l0,-23L55,952l0,23Z" class="g1_307" />
<path fill-rule="evenodd" d="M55,999l825,0l0,-24L55,975l0,24Z" class="g1_307" />
<path fill-rule="evenodd" d="M55,1023l825,0l0,-24L55,999l0,24Z" class="g1_307" />
<path fill-rule="evenodd" d="M55,1047l825,0l0,-24l-825,0l0,24Z" class="g1_307" />
<path fill-rule="evenodd" d="M55,1071l825,0l0,-24l-825,0l0,24Z" class="g1_307" />
<g clip-path="url(#c4_307)">
<path fill-rule="evenodd" d="M55,1095l825,0l0,-24l-825,0l0,24Z" class="g1_307" />
</g>
<path d="M46.5,546.5l0,-1" class="g2_307" />
<path d="M46.5,546.5l0,-1" class="g2_307" />
<path d="M47.5,546.5l840,0" class="g2_307" />
<path d="M887.5,546.5l0,-1" class="g2_307" />
<path d="M887.5,546.5l0,-1" class="g2_307" />
<path d="M46.5,1095.5l0,-549" class="g2_307" />
<path d="M46.5,1096.5l0,-1" class="g2_307" />
<path d="M46.5,1096.5l0,-1" class="g2_307" />
<path d="M47.5,1096.5l840,0" class="g2_307" />
<path d="M887.5,1095.5l0,-549" class="g2_307" />
<path d="M887.5,1096.5l0,-1" class="g2_307" />
<path d="M887.5,1096.5l0,-1" class="g2_307" />
</svg>