<?xml version="1.0" encoding="UTF-8" standalone="no"?>
<!DOCTYPE svg PUBLIC "-//W3C//DTD SVG 1.1//EN"
"http://www.w3.org/Graphics/SVG/1.1/DTD/svg11.dtd">
<svg version="1.1" xmlns="http://www.w3.org/2000/svg" xmlns:xlink="http://www.w3.org/1999/xlink">
<defs>
<clipPath id="c0_161"><path d="M47.5,159.5l0,-48l840,0l0,48Z" /></clipPath>
<clipPath id="c1_161"><path d="M47.5,295.5l0,-25l254,0l0,25Z" /></clipPath>
<clipPath id="c2_161"><path d="M303.5,295.5l0,-25l60,0l0,25Z" /></clipPath>
<clipPath id="c3_161"><path d="M365.5,295.5l0,-25l522,0l0,25Z" /></clipPath>
<clipPath id="c4_161"><path d="M89.5,344.5l0,-48l212,0l0,48Z" /></clipPath>
<clipPath id="c5_161"><path d="M303.5,344.5l0,-48l60,0l0,48Z" /></clipPath>
<clipPath id="c6_161"><path d="M365.5,344.5l0,-48l522,0l0,48Z" /></clipPath>
<clipPath id="c7_161"><path d="M89.5,370.5l0,-25l212,0l0,25Z" /></clipPath>
<clipPath id="c8_161"><path d="M303.5,370.5l0,-25l60,0l0,25Z" /></clipPath>
<clipPath id="c9_161"><path d="M365.5,370.5l0,-25l522,0l0,25Z" /></clipPath>
<clipPath id="c10_161"><path d="M89.5,396.5l0,-25l212,0l0,25Z" /></clipPath>
<clipPath id="c11_161"><path d="M303.5,396.5l0,-25l60,0l0,25Z" /></clipPath>
<clipPath id="c12_161"><path d="M365.5,396.5l0,-25l522,0l0,25Z" /></clipPath>
<clipPath id="c13_161"><path d="M47.5,931.5l0,-262l840,0l0,262Z" /></clipPath>
<clipPath id="c14_161"><path d="M47.5,1077.5l0,-72l840,0l0,72Z" /></clipPath>
<style type="text/css"><![CDATA[
.g2_161{
fill: none;
stroke: #7E7E7E;
stroke-width: 1;
stroke-linecap: butt;
stroke-linejoin: miter;
}
.g3_161{
fill: #DBE5F1;
}
.g1_161{
fill: #F1F1F1;
}
]]></style>
</defs>
<path fill-rule="evenodd" d="M47,159l840,0l0,-48L47,111l0,48Z" class="g1_161" />
<g clip-path="url(#c0_161)">
<path fill-rule="evenodd" d="M55,135l825,0l0,-24L55,111l0,24Z" class="g1_161" />
</g>
<path fill-rule="evenodd" d="M55,159l825,0l0,-24L55,135l0,24Z" class="g1_161" />
<path d="M46.5,111.5l0,-1" class="g2_161" />
<path d="M46.5,111.5l0,-1" class="g2_161" />
<path d="M47.5,111.5l840,0" class="g2_161" />
<path d="M887.5,111.5l0,-1" class="g2_161" />
<path d="M887.5,111.5l0,-1" class="g2_161" />
<path d="M46.5,159.5l0,-48" class="g2_161" />
<path d="M46.5,160.5l0,-1" class="g2_161" />
<path d="M46.5,160.5l0,-1" class="g2_161" />
<path d="M47.5,160.5l840,0" class="g2_161" />
<path d="M887.5,159.5l0,-48" class="g2_161" />
<path d="M887.5,160.5l0,-1" class="g2_161" />
<path d="M887.5,160.5l0,-1" class="g2_161" />
<path fill-rule="evenodd" d="M47,295l254,0l0,-25L47,270l0,25Z" class="g3_161" />
<g clip-path="url(#c1_161)">
<path fill-rule="evenodd" d="M55,294l239,0l0,-24L55,270l0,24Z" class="g3_161" />
</g>
<path fill-rule="evenodd" d="M303,295l60,0l0,-25l-60,0l0,25Z" class="g3_161" />
<g clip-path="url(#c2_161)">
<path fill-rule="evenodd" d="M310,294l46,0l0,-24l-46,0l0,24Z" class="g3_161" />
</g>
<path fill-rule="evenodd" d="M365,295l522,0l0,-25l-522,0l0,25Z" class="g3_161" />
<g clip-path="url(#c3_161)">
<path fill-rule="evenodd" d="M372,294l508,0l0,-24l-508,0l0,24Z" class="g3_161" />
</g>
<path d="M46.5,270.5l0,-1" class="g2_161" />
<path d="M46.5,270.5l0,-1" class="g2_161" />
<path d="M47.5,270.5l254,0" class="g2_161" />
<path d="M301.5,270.5l0,-1" class="g2_161" />
<path d="M303.5,270.5l60,0" class="g2_161" />
<path d="M363.5,270.5l0,-1" class="g2_161" />
<path d="M365.5,270.5l522,0" class="g2_161" />
<path d="M887.5,270.5l0,-1" class="g2_161" />
<path d="M887.5,270.5l0,-1" class="g2_161" />
<path d="M46.5,295.5l0,-25" class="g2_161" />
<path d="M301.5,295.5l0,-25" class="g2_161" />
<path d="M363.5,295.5l0,-25" class="g2_161" />
<path d="M887.5,295.5l0,-25" class="g2_161" />
<path fill-rule="evenodd" d="M47,520l41,0L88,296l-41,0l0,224Z" class="g1_161" />
<path fill-rule="evenodd" d="M55,520l23,0L78,296l-23,0l0,224Z" class="g1_161" />
<path fill-rule="evenodd" d="M89,344l212,0l0,-48L89,296l0,48Z" class="g1_161" />
<g clip-path="url(#c4_161)">
<path fill-rule="evenodd" d="M97,320l197,0l0,-24L97,296l0,24Z" class="g1_161" />
</g>
<path fill-rule="evenodd" d="M303,344l60,0l0,-48l-60,0l0,48Z" class="g1_161" />
<g clip-path="url(#c5_161)">
<path fill-rule="evenodd" d="M310,320l46,0l0,-24l-46,0l0,24Z" class="g1_161" />
</g>
<path fill-rule="evenodd" d="M365,344l522,0l0,-48l-522,0l0,48Z" class="g1_161" />
<g clip-path="url(#c6_161)">
<path fill-rule="evenodd" d="M372,320l508,0l0,-24l-508,0l0,24Z" class="g1_161" />
</g>
<path fill-rule="evenodd" d="M372,344l508,0l0,-24l-508,0l0,24Z" class="g1_161" />
<path d="M46.5,296.5l0,-1" class="g2_161" />
<path d="M47.5,296.5l41,0" class="g2_161" />
<path d="M88.5,296.5l0,-1" class="g2_161" />
<path d="M89.5,296.5l212,0" class="g2_161" />
<path d="M301.5,296.5l0,-1" class="g2_161" />
<path d="M303.5,296.5l60,0" class="g2_161" />
<path d="M363.5,296.5l0,-1" class="g2_161" />
<path d="M365.5,296.5l522,0" class="g2_161" />
<path d="M887.5,296.5l0,-1" class="g2_161" />
<path d="M46.5,344.5l0,-48" class="g2_161" />
<path d="M88.5,344.5l0,-48" class="g2_161" />
<path d="M301.5,344.5l0,-48" class="g2_161" />
<path d="M363.5,344.5l0,-48" class="g2_161" />
<path d="M887.5,344.5l0,-48" class="g2_161" />
<path fill-rule="evenodd" d="M89,370l212,0l0,-25L89,345l0,25Z" class="g1_161" />
<g clip-path="url(#c7_161)">
<path fill-rule="evenodd" d="M97,369l197,0l0,-24L97,345l0,24Z" class="g1_161" />
</g>
<path fill-rule="evenodd" d="M303,370l60,0l0,-25l-60,0l0,25Z" class="g1_161" />
<g clip-path="url(#c8_161)">
<path fill-rule="evenodd" d="M310,369l46,0l0,-24l-46,0l0,24Z" class="g1_161" />
</g>
<path fill-rule="evenodd" d="M365,370l522,0l0,-25l-522,0l0,25Z" class="g1_161" />
<g clip-path="url(#c9_161)">
<path fill-rule="evenodd" d="M372,369l508,0l0,-24l-508,0l0,24Z" class="g1_161" />
</g>
<path d="M46.5,345.5l0,-1" class="g2_161" />
<path d="M88.5,345.5l0,-1" class="g2_161" />
<path d="M89.5,345.5l212,0" class="g2_161" />
<path d="M301.5,345.5l0,-1" class="g2_161" />
<path d="M303.5,345.5l60,0" class="g2_161" />
<path d="M363.5,345.5l0,-1" class="g2_161" />
<path d="M365.5,345.5l522,0" class="g2_161" />
<path d="M887.5,345.5l0,-1" class="g2_161" />
<path d="M46.5,370.5l0,-25" class="g2_161" />
<path d="M88.5,370.5l0,-25" class="g2_161" />
<path d="M301.5,370.5l0,-25" class="g2_161" />
<path d="M363.5,370.5l0,-25" class="g2_161" />
<path d="M887.5,370.5l0,-25" class="g2_161" />
<path fill-rule="evenodd" d="M89,396l212,0l0,-25L89,371l0,25Z" class="g1_161" />
<g clip-path="url(#c10_161)">
<path fill-rule="evenodd" d="M97,395l197,0l0,-24L97,371l0,24Z" class="g1_161" />
</g>
<path fill-rule="evenodd" d="M303,396l60,0l0,-25l-60,0l0,25Z" class="g1_161" />
<g clip-path="url(#c11_161)">
<path fill-rule="evenodd" d="M310,395l46,0l0,-24l-46,0l0,24Z" class="g1_161" />
</g>
<path fill-rule="evenodd" d="M365,396l522,0l0,-25l-522,0l0,25Z" class="g1_161" />
<g clip-path="url(#c12_161)">
<path fill-rule="evenodd" d="M372,395l508,0l0,-24l-508,0l0,24Z" class="g1_161" />
</g>
<path d="M46.5,371.5l0,-1" class="g2_161" />
<path d="M88.5,371.5l0,-1" class="g2_161" />
<path d="M89.5,371.5l212,0" class="g2_161" />
<path d="M301.5,371.5l0,-1" class="g2_161" />
<path d="M303.5,371.5l60,0" class="g2_161" />
<path d="M363.5,371.5l0,-1" class="g2_161" />
<path d="M365.5,371.5l522,0" class="g2_161" />
<path d="M887.5,371.5l0,-1" class="g2_161" />
<path d="M46.5,396.5l0,-25" class="g2_161" />
<path d="M88.5,396.5l0,-25" class="g2_161" />
<path d="M301.5,396.5l0,-25" class="g2_161" />
<path d="M363.5,396.5l0,-25" class="g2_161" />
<path d="M887.5,396.5l0,-25" class="g2_161" />
<path fill-rule="evenodd" d="M89,520l41,0l0,-123l-41,0l0,123Z" class="g1_161" />
<path fill-rule="evenodd" d="M97,520l24,0l0,-123l-24,0l0,123Z" class="g1_161" />
<path fill-rule="evenodd" d="M131,421l170,0l0,-24l-170,0l0,24Z" class="g1_161" />
<path fill-rule="evenodd" d="M139,421l155,0l0,-24l-155,0l0,24Z" class="g1_161" />
<path fill-rule="evenodd" d="M303,421l60,0l0,-24l-60,0l0,24Z" class="g1_161" />
<path fill-rule="evenodd" d="M310,421l46,0l0,-24l-46,0l0,24Z" class="g1_161" />
<path fill-rule="evenodd" d="M365,421l522,0l0,-24l-522,0l0,24Z" class="g1_161" />
<path fill-rule="evenodd" d="M372,421l508,0l0,-24l-508,0l0,24Z" class="g1_161" />
<path d="M46.5,397.5l0,-1" class="g2_161" />
<path d="M88.5,397.5l0,-1" class="g2_161" />
<path d="M89.5,397.5l41,0" class="g2_161" />
<path d="M130.5,397.5l0,-1" class="g2_161" />
<path d="M131.5,397.5l170,0" class="g2_161" />
<path d="M301.5,397.5l0,-1" class="g2_161" />
<path d="M303.5,397.5l60,0" class="g2_161" />
<path d="M363.5,397.5l0,-1" class="g2_161" />
<path d="M365.5,397.5l522,0" class="g2_161" />
<path d="M887.5,397.5l0,-1" class="g2_161" />
<path d="M46.5,421.5l0,-24" class="g2_161" />
<path d="M88.5,421.5l0,-24" class="g2_161" />
<path d="M130.5,421.5l0,-24" class="g2_161" />
<path d="M301.5,421.5l0,-24" class="g2_161" />
<path d="M363.5,421.5l0,-24" class="g2_161" />
<path d="M887.5,421.5l0,-24" class="g2_161" />
<path fill-rule="evenodd" d="M131,447l170,0l0,-24l-170,0l0,24Z" class="g1_161" />
<path fill-rule="evenodd" d="M139,447l155,0l0,-24l-155,0l0,24Z" class="g1_161" />
<path fill-rule="evenodd" d="M303,447l60,0l0,-24l-60,0l0,24Z" class="g1_161" />
<path fill-rule="evenodd" d="M310,447l46,0l0,-24l-46,0l0,24Z" class="g1_161" />
<path fill-rule="evenodd" d="M365,447l522,0l0,-24l-522,0l0,24Z" class="g1_161" />
<path fill-rule="evenodd" d="M372,447l508,0l0,-24l-508,0l0,24Z" class="g1_161" />
<path d="M46.5,423.5l0,-2" class="g2_161" />
<path d="M88.5,423.5l0,-2" class="g2_161" />
<path d="M130.5,423.5l0,-2" class="g2_161" />
<path d="M131.5,423.5l170,0" class="g2_161" />
<path d="M301.5,423.5l0,-2" class="g2_161" />
<path d="M303.5,423.5l60,0" class="g2_161" />
<path d="M363.5,423.5l0,-2" class="g2_161" />
<path d="M365.5,423.5l522,0" class="g2_161" />
<path d="M887.5,423.5l0,-2" class="g2_161" />
<path d="M46.5,447.5l0,-24" class="g2_161" />
<path d="M88.5,447.5l0,-24" class="g2_161" />
<path d="M130.5,447.5l0,-24" class="g2_161" />
<path d="M301.5,447.5l0,-24" class="g2_161" />
<path d="M363.5,447.5l0,-24" class="g2_161" />
<path d="M887.5,447.5l0,-24" class="g2_161" />
<path fill-rule="evenodd" d="M131,520l170,0l0,-72l-170,0l0,72Z" class="g1_161" />
<path fill-rule="evenodd" d="M139,472l155,0l0,-24l-155,0l0,24Z" class="g1_161" />
<path fill-rule="evenodd" d="M303,520l60,0l0,-72l-60,0l0,72Z" class="g1_161" />
<path fill-rule="evenodd" d="M310,472l46,0l0,-24l-46,0l0,24Z" class="g1_161" />
<path fill-rule="evenodd" d="M365,520l522,0l0,-72l-522,0l0,72Z" class="g1_161" />
<path fill-rule="evenodd" d="M372,472l508,0l0,-24l-508,0l0,24Z" class="g1_161" />
<path fill-rule="evenodd" d="M372,496l508,0l0,-24l-508,0l0,24Z" class="g1_161" />
<path fill-rule="evenodd" d="M372,520l508,0l0,-24l-508,0l0,24Z" class="g1_161" />
<path d="M46.5,448.5l0,-1" class="g2_161" />
<path d="M88.5,448.5l0,-1" class="g2_161" />
<path d="M130.5,448.5l0,-1" class="g2_161" />
<path d="M131.5,448.5l170,0" class="g2_161" />
<path d="M301.5,448.5l0,-1" class="g2_161" />
<path d="M303.5,448.5l60,0" class="g2_161" />
<path d="M363.5,448.5l0,-1" class="g2_161" />
<path d="M365.5,448.5l522,0" class="g2_161" />
<path d="M887.5,448.5l0,-1" class="g2_161" />
<path d="M46.5,520.5l0,-72" class="g2_161" />
<path d="M46.5,521.5l0,-1" class="g2_161" />
<path d="M46.5,521.5l0,-1" class="g2_161" />
<path d="M47.5,521.5l41,0" class="g2_161" />
<path d="M88.5,520.5l0,-72" class="g2_161" />
<path d="M88.5,521.5l0,-1" class="g2_161" />
<path d="M89.5,521.5l41,0" class="g2_161" />
<path d="M130.5,520.5l0,-72" class="g2_161" />
<path d="M130.5,521.5l0,-1" class="g2_161" />
<path d="M131.5,521.5l170,0" class="g2_161" />
<path d="M301.5,520.5l0,-72" class="g2_161" />
<path d="M301.5,521.5l0,-1" class="g2_161" />
<path d="M303.5,521.5l60,0" class="g2_161" />
<path d="M363.5,520.5l0,-72" class="g2_161" />
<path d="M363.5,521.5l0,-1" class="g2_161" />
<path d="M365.5,521.5l522,0" class="g2_161" />
<path d="M887.5,520.5l0,-72" class="g2_161" />
<path d="M887.5,521.5l0,-1" class="g2_161" />
<path d="M887.5,521.5l0,-1" class="g2_161" />
<path fill-rule="evenodd" d="M47,642l840,0l0,-24L47,618l0,24Z" class="g1_161" />
<path fill-rule="evenodd" d="M55,642l825,0l0,-24L55,618l0,24Z" class="g1_161" />
<path d="M46.5,618.5l0,-2" class="g2_161" />
<path d="M46.5,618.5l0,-2" class="g2_161" />
<path d="M47.5,618.5l840,0" class="g2_161" />
<path d="M887.5,618.5l0,-2" class="g2_161" />
<path d="M887.5,618.5l0,-2" class="g2_161" />
<path d="M46.5,642.5l0,-24" class="g2_161" />
<path d="M46.5,643.5l0,-1" class="g2_161" />
<path d="M46.5,643.5l0,-1" class="g2_161" />
<path d="M47.5,643.5l840,0" class="g2_161" />
<path d="M887.5,642.5l0,-24" class="g2_161" />
<path d="M887.5,643.5l0,-1" class="g2_161" />
<path d="M887.5,643.5l0,-1" class="g2_161" />
<path fill-rule="evenodd" d="M47,931l840,0l0,-262L47,669l0,262Z" class="g1_161" />
<g clip-path="url(#c13_161)">
<path fill-rule="evenodd" d="M55,692l825,0l0,-23L55,669l0,23Z" class="g1_161" />
</g>
<path fill-rule="evenodd" d="M55,716l825,0l0,-24L55,692l0,24Z" class="g1_161" />
<path fill-rule="evenodd" d="M55,740l825,0l0,-24L55,716l0,24Z" class="g1_161" />
<path fill-rule="evenodd" d="M55,764l825,0l0,-24L55,740l0,24Z" class="g1_161" />
<path fill-rule="evenodd" d="M55,788l825,0l0,-24L55,764l0,24Z" class="g1_161" />
<path fill-rule="evenodd" d="M55,812l825,0l0,-24L55,788l0,24Z" class="g1_161" />
<path fill-rule="evenodd" d="M55,835l825,0l0,-23L55,812l0,23Z" class="g1_161" />
<path fill-rule="evenodd" d="M55,859l825,0l0,-24L55,835l0,24Z" class="g1_161" />
<path fill-rule="evenodd" d="M55,883l825,0l0,-24L55,859l0,24Z" class="g1_161" />
<path fill-rule="evenodd" d="M55,907l825,0l0,-24L55,883l0,24Z" class="g1_161" />
<g clip-path="url(#c13_161)">
<path fill-rule="evenodd" d="M55,931l825,0l0,-24L55,907l0,24Z" class="g1_161" />
</g>
<path d="M46.5,669.5l0,-2" class="g2_161" />
<path d="M46.5,669.5l0,-2" class="g2_161" />
<path d="M47.5,669.5l840,0" class="g2_161" />
<path d="M887.5,669.5l0,-2" class="g2_161" />
<path d="M887.5,669.5l0,-2" class="g2_161" />
<path d="M46.5,931.5l0,-262" class="g2_161" />
<path d="M46.5,932.5l0,-1" class="g2_161" />
<path d="M46.5,932.5l0,-1" class="g2_161" />
<path d="M47.5,932.5l840,0" class="g2_161" />
<path d="M887.5,931.5l0,-262" class="g2_161" />
<path d="M887.5,932.5l0,-1" class="g2_161" />
<path d="M887.5,932.5l0,-1" class="g2_161" />
<path fill-rule="evenodd" d="M47,1077l840,0l0,-72l-840,0l0,72Z" class="g1_161" />
<path fill-rule="evenodd" d="M55,1029l825,0l0,-24l-825,0l0,24Z" class="g1_161" />
<path fill-rule="evenodd" d="M55,1053l825,0l0,-24l-825,0l0,24Z" class="g1_161" />
<g clip-path="url(#c14_161)">
<path fill-rule="evenodd" d="M55,1077l825,0l0,-24l-825,0l0,24Z" class="g1_161" />
</g>
<path d="M46.5,1005.5l0,-1" class="g2_161" />
<path d="M46.5,1005.5l0,-1" class="g2_161" />
<path d="M47.5,1005.5l840,0" class="g2_161" />
<path d="M887.5,1005.5l0,-1" class="g2_161" />
<path d="M887.5,1005.5l0,-1" class="g2_161" />
<path d="M46.5,1077.5l0,-72" class="g2_161" />
<path d="M46.5,1078.5l0,-1" class="g2_161" />
<path d="M46.5,1078.5l0,-1" class="g2_161" />
<path d="M47.5,1078.5l840,0" class="g2_161" />
<path d="M887.5,1077.5l0,-72" class="g2_161" />
<path d="M887.5,1078.5l0,-1" class="g2_161" />
<path d="M887.5,1078.5l0,-1" class="g2_161" />
</svg>