<?xml version="1.0" encoding="UTF-8" standalone="no"?>
<!DOCTYPE svg PUBLIC "-//W3C//DTD SVG 1.1//EN"
"http://www.w3.org/Graphics/SVG/1.1/DTD/svg11.dtd">
<svg version="1.1" xmlns="http://www.w3.org/2000/svg" xmlns:xlink="http://www.w3.org/1999/xlink">
<defs>
<clipPath id="c0_362"><path d="M47.5,222.5l0,-48l275,0l0,48Z" /></clipPath>
<clipPath id="c1_362"><path d="M324.5,222.5l0,-48l67,0l0,48Z" /></clipPath>
<clipPath id="c2_362"><path d="M392.5,222.5l0,-48l88,0l0,48Z" /></clipPath>
<clipPath id="c3_362"><path d="M482.5,222.5l0,-48l405,0l0,48Z" /></clipPath>
<clipPath id="c4_362"><path d="M76.5,247.5l0,-23l246,0l0,23Z" /></clipPath>
<clipPath id="c5_362"><path d="M324.5,247.5l0,-23l67,0l0,23Z" /></clipPath>
<clipPath id="c6_362"><path d="M392.5,247.5l0,-23l88,0l0,23Z" /></clipPath>
<clipPath id="c7_362"><path d="M482.5,247.5l0,-23l405,0l0,23Z" /></clipPath>
<clipPath id="c8_362"><path d="M165.5,336.5l0,-87l157,0l0,87Z" /></clipPath>
<clipPath id="c9_362"><path d="M324.5,336.5l0,-87l67,0l0,87Z" /></clipPath>
<clipPath id="c10_362"><path d="M392.5,336.5l0,-87l88,0l0,87Z" /></clipPath>
<clipPath id="c11_362"><path d="M482.5,336.5l0,-87l405,0l0,87Z" /></clipPath>
<clipPath id="c12_362"><path d="M165.5,409.5l0,-72l157,0l0,72Z" /></clipPath>
<clipPath id="c13_362"><path d="M324.5,409.5l0,-72l67,0l0,72Z" /></clipPath>
<clipPath id="c14_362"><path d="M392.5,409.5l0,-72l88,0l0,72Z" /></clipPath>
<clipPath id="c15_362"><path d="M482.5,409.5l0,-72l405,0l0,72Z" /></clipPath>
<clipPath id="c16_362"><path d="M47.5,702.5l0,-23l840,0l0,23Z" /></clipPath>
<clipPath id="c17_362"><path d="M47.5,1087.5l0,-358l840,0l0,358Z" /></clipPath>
<style type="text/css"><![CDATA[
.g2_362{
fill: none;
stroke: #7E7E7E;
stroke-width: 1;
stroke-linecap: butt;
stroke-linejoin: miter;
}
.g4_362{
fill: none;
stroke: #000000;
stroke-width: 1;
stroke-linecap: butt;
stroke-linejoin: miter;
}
.g3_362{
fill: #F1F1F1;
}
.g1_362{
fill: #DBE5F1;
}
]]></style>
</defs>
<path fill-rule="evenodd" d="M47,222l275,0l0,-48L47,174l0,48Z" class="g1_362" />
<g clip-path="url(#c0_362)">
<path fill-rule="evenodd" d="M55,198l260,0l0,-24L55,174l0,24Z" class="g1_362" />
</g>
<path fill-rule="evenodd" d="M324,222l67,0l0,-48l-67,0l0,48Z" class="g1_362" />
<g clip-path="url(#c1_362)">
<path fill-rule="evenodd" d="M331,198l52,0l0,-24l-52,0l0,24Z" class="g1_362" />
</g>
<path fill-rule="evenodd" d="M331,222l52,0l0,-24l-52,0l0,24Z" class="g1_362" />
<path fill-rule="evenodd" d="M392,222l88,0l0,-48l-88,0l0,48Z" class="g1_362" />
<g clip-path="url(#c2_362)">
<path fill-rule="evenodd" d="M400,198l73,0l0,-24l-73,0l0,24Z" class="g1_362" />
</g>
<path fill-rule="evenodd" d="M482,222l405,0l0,-48l-405,0l0,48Z" class="g1_362" />
<g clip-path="url(#c3_362)">
<path fill-rule="evenodd" d="M489,198l391,0l0,-24l-391,0l0,24Z" class="g1_362" />
</g>
<path d="M46.5,174.5l0,-1" class="g2_362" />
<path d="M46.5,174.5l0,-1" class="g2_362" />
<path d="M47.5,174.5l275,0" class="g2_362" />
<path d="M322.5,174.5l0,-1" class="g2_362" />
<path d="M324.5,174.5l67,0" class="g2_362" />
<path d="M391.5,174.5l0,-1" class="g2_362" />
<path d="M392.5,174.5l88,0" class="g2_362" />
<path d="M480.5,174.5l0,-1" class="g2_362" />
<path d="M482.5,174.5l405,0" class="g2_362" />
<path d="M887.5,174.5l0,-1" class="g2_362" />
<path d="M887.5,174.5l0,-1" class="g2_362" />
<path d="M46.5,222.5l0,-48" class="g2_362" />
<path d="M322.5,222.5l0,-48" class="g2_362" />
<path d="M391.5,222.5l0,-48" class="g2_362" />
<path d="M480.5,222.5l0,-48" class="g2_362" />
<path d="M887.5,222.5l0,-48" class="g2_362" />
<path fill-rule="evenodd" d="M47,580l27,0L74,224l-27,0l0,356Z" class="g3_362" />
<path fill-rule="evenodd" d="M55,580l19,0L74,224l-19,0l0,356Z" class="g3_362" />
<path fill-rule="evenodd" d="M76,247l246,0l0,-23L76,224l0,23Z" class="g3_362" />
<g clip-path="url(#c4_362)">
<path fill-rule="evenodd" d="M83,247l231,0l0,-23L83,224l0,23Z" class="g3_362" />
</g>
<path fill-rule="evenodd" d="M324,247l67,0l0,-23l-67,0l0,23Z" class="g3_362" />
<g clip-path="url(#c5_362)">
<path fill-rule="evenodd" d="M331,247l52,0l0,-23l-52,0l0,23Z" class="g3_362" />
</g>
<path fill-rule="evenodd" d="M392,247l88,0l0,-23l-88,0l0,23Z" class="g3_362" />
<g clip-path="url(#c6_362)">
<path fill-rule="evenodd" d="M400,247l73,0l0,-23l-73,0l0,23Z" class="g3_362" />
</g>
<path fill-rule="evenodd" d="M482,247l405,0l0,-23l-405,0l0,23Z" class="g3_362" />
<g clip-path="url(#c7_362)">
<path fill-rule="evenodd" d="M489,247l391,0l0,-23l-391,0l0,23Z" class="g3_362" />
</g>
<path d="M46.5,224.5l0,-2" class="g2_362" />
<path d="M47.5,224.5l27,0" class="g2_362" />
<path d="M74.5,224.5l0,-2" class="g2_362" />
<path d="M76.5,224.5l246,0" class="g2_362" />
<path d="M322.5,224.5l0,-2" class="g2_362" />
<path d="M324.5,224.5l67,0" class="g2_362" />
<path d="M391.5,224.5l0,-2" class="g2_362" />
<path d="M392.5,224.5l88,0" class="g2_362" />
<path d="M480.5,224.5l0,-2" class="g2_362" />
<path d="M482.5,224.5l405,0" class="g2_362" />
<path d="M887.5,224.5l0,-2" class="g2_362" />
<path d="M46.5,247.5l0,-23" class="g2_362" />
<path d="M74.5,247.5l0,-23" class="g2_362" />
<path d="M322.5,247.5l0,-23" class="g2_362" />
<path d="M391.5,247.5l0,-23" class="g2_362" />
<path d="M480.5,247.5l0,-23" class="g2_362" />
<path d="M887.5,247.5l0,-23" class="g2_362" />
<path fill-rule="evenodd" d="M76,580l27,0l0,-331l-27,0l0,331Z" class="g3_362" />
<path fill-rule="evenodd" d="M83,580l20,0l0,-331l-20,0l0,331Z" class="g3_362" />
<path fill-rule="evenodd" d="M105,580l32,0l0,-331l-32,0l0,331Z" class="g3_362" />
<path fill-rule="evenodd" d="M112,580l24,0l0,-331l-24,0l0,331Z" class="g3_362" />
<path fill-rule="evenodd" d="M138,580l26,0l0,-331l-26,0l0,331Z" class="g3_362" />
<path fill-rule="evenodd" d="M146,580l18,0l0,-331l-18,0l0,331Z" class="g3_362" />
<path fill-rule="evenodd" d="M165,336l157,0l0,-87l-157,0l0,87Z" class="g3_362" />
<g clip-path="url(#c8_362)">
<path fill-rule="evenodd" d="M173,273l141,0l0,-24l-141,0l0,24Z" class="g3_362" />
</g>
<path fill-rule="evenodd" d="M324,336l67,0l0,-87l-67,0l0,87Z" class="g3_362" />
<g clip-path="url(#c9_362)">
<path fill-rule="evenodd" d="M331,273l52,0l0,-24l-52,0l0,24Z" class="g3_362" />
</g>
<path fill-rule="evenodd" d="M392,336l88,0l0,-87l-88,0l0,87Z" class="g3_362" />
<g clip-path="url(#c10_362)">
<path fill-rule="evenodd" d="M400,273l73,0l0,-24l-73,0l0,24Z" class="g3_362" />
</g>
<path fill-rule="evenodd" d="M482,336l405,0l0,-87l-405,0l0,87Z" class="g3_362" />
<g clip-path="url(#c11_362)">
<path fill-rule="evenodd" d="M489,273l391,0l0,-24l-391,0l0,24Z" class="g3_362" />
</g>
<path d="M46.5,249.5l0,-2" class="g2_362" />
<path d="M74.5,249.5l0,-2" class="g2_362" />
<path d="M76.5,249.5l27,0" class="g2_362" />
<path d="M103.5,249.5l0,-2" class="g2_362" />
<path d="M105.5,249.5l32,0" class="g2_362" />
<path d="M137.5,249.5l0,-2" class="g2_362" />
<path d="M139.5,249.5l25,0" class="g2_362" />
<path d="M164.5,249.5l0,-2" class="g2_362" />
<path d="M165.5,249.5l157,0" class="g2_362" />
<path d="M322.5,249.5l0,-2" class="g2_362" />
<path d="M324.5,249.5l67,0" class="g2_362" />
<path d="M391.5,249.5l0,-2" class="g2_362" />
<path d="M392.5,249.5l88,0" class="g2_362" />
<path d="M480.5,249.5l0,-2" class="g2_362" />
<path d="M482.5,249.5l405,0" class="g2_362" />
<path d="M887.5,249.5l0,-2" class="g2_362" />
<path d="M46.5,336.5l0,-87" class="g2_362" />
<path d="M74.5,336.5l0,-87" class="g2_362" />
<path d="M103.5,336.5l0,-87" class="g2_362" />
<path d="M137.5,336.5l0,-87" class="g4_362" />
<path d="M164.5,336.5l0,-87" class="g2_362" />
<path d="M322.5,336.5l0,-87" class="g2_362" />
<path d="M391.5,336.5l0,-87" class="g2_362" />
<path d="M480.5,336.5l0,-87" class="g2_362" />
<path d="M887.5,336.5l0,-87" class="g2_362" />
<path fill-rule="evenodd" d="M165,409l157,0l0,-72l-157,0l0,72Z" class="g3_362" />
<g clip-path="url(#c12_362)">
<path fill-rule="evenodd" d="M173,361l141,0l0,-24l-141,0l0,24Z" class="g3_362" />
</g>
<path fill-rule="evenodd" d="M324,409l67,0l0,-72l-67,0l0,72Z" class="g3_362" />
<g clip-path="url(#c13_362)">
<path fill-rule="evenodd" d="M331,361l52,0l0,-24l-52,0l0,24Z" class="g3_362" />
</g>
<path fill-rule="evenodd" d="M392,409l88,0l0,-72l-88,0l0,72Z" class="g3_362" />
<g clip-path="url(#c14_362)">
<path fill-rule="evenodd" d="M400,361l73,0l0,-24l-73,0l0,24Z" class="g3_362" />
</g>
<path fill-rule="evenodd" d="M482,409l405,0l0,-72l-405,0l0,72Z" class="g3_362" />
<g clip-path="url(#c15_362)">
<path fill-rule="evenodd" d="M489,361l391,0l0,-24l-391,0l0,24Z" class="g3_362" />
</g>
<path fill-rule="evenodd" d="M489,385l391,0l0,-24l-391,0l0,24Z" class="g3_362" />
<path fill-rule="evenodd" d="M489,409l391,0l0,-24l-391,0l0,24Z" class="g3_362" />
<path d="M46.5,337.5l0,-1" class="g2_362" />
<path d="M74.5,337.5l0,-1" class="g2_362" />
<path d="M103.5,337.5l0,-1" class="g2_362" />
<path d="M137.5,337.5l0,-1" class="g4_362" />
<path d="M164.5,337.5l0,-1" class="g2_362" />
<path d="M165.5,337.5l157,0" class="g2_362" />
<path d="M322.5,337.5l0,-1" class="g2_362" />
<path d="M324.5,337.5l67,0" class="g2_362" />
<path d="M391.5,337.5l0,-1" class="g2_362" />
<path d="M392.5,337.5l88,0" class="g2_362" />
<path d="M480.5,337.5l0,-1" class="g2_362" />
<path d="M482.5,337.5l405,0" class="g2_362" />
<path d="M887.5,337.5l0,-1" class="g2_362" />
<path d="M46.5,409.5l0,-72" class="g2_362" />
<path d="M74.5,409.5l0,-72" class="g2_362" />
<path d="M103.5,409.5l0,-72" class="g2_362" />
<path d="M137.5,409.5l0,-72" class="g4_362" />
<path d="M164.5,409.5l0,-72" class="g2_362" />
<path d="M322.5,409.5l0,-72" class="g2_362" />
<path d="M391.5,409.5l0,-72" class="g2_362" />
<path d="M480.5,409.5l0,-72" class="g2_362" />
<path d="M887.5,409.5l0,-72" class="g2_362" />
<path fill-rule="evenodd" d="M165,434l157,0l0,-24l-157,0l0,24Z" class="g3_362" />
<path fill-rule="evenodd" d="M173,434l141,0l0,-24l-141,0l0,24Z" class="g3_362" />
<path fill-rule="evenodd" d="M324,434l67,0l0,-24l-67,0l0,24Z" class="g3_362" />
<path fill-rule="evenodd" d="M331,434l52,0l0,-24l-52,0l0,24Z" class="g3_362" />
<path fill-rule="evenodd" d="M392,434l88,0l0,-24l-88,0l0,24Z" class="g3_362" />
<path fill-rule="evenodd" d="M400,434l73,0l0,-24l-73,0l0,24Z" class="g3_362" />
<path fill-rule="evenodd" d="M482,434l405,0l0,-24l-405,0l0,24Z" class="g3_362" />
<path fill-rule="evenodd" d="M489,434l391,0l0,-24l-391,0l0,24Z" class="g3_362" />
<path d="M46.5,410.5l0,-1" class="g2_362" />
<path d="M74.5,410.5l0,-1" class="g2_362" />
<path d="M103.5,410.5l0,-1" class="g2_362" />
<path d="M137.5,410.5l0,-1" class="g4_362" />
<path d="M164.5,410.5l0,-1" class="g2_362" />
<path d="M165.5,410.5l157,0" class="g2_362" />
<path d="M322.5,410.5l0,-1" class="g2_362" />
<path d="M324.5,410.5l67,0" class="g2_362" />
<path d="M391.5,410.5l0,-1" class="g2_362" />
<path d="M392.5,410.5l88,0" class="g2_362" />
<path d="M480.5,410.5l0,-1" class="g2_362" />
<path d="M482.5,410.5l405,0" class="g2_362" />
<path d="M887.5,410.5l0,-1" class="g2_362" />
<path d="M46.5,434.5l0,-24" class="g2_362" />
<path d="M74.5,434.5l0,-24" class="g2_362" />
<path d="M103.5,434.5l0,-24" class="g2_362" />
<path d="M137.5,434.5l0,-24" class="g4_362" />
<path d="M164.5,434.5l0,-24" class="g2_362" />
<path d="M322.5,434.5l0,-24" class="g2_362" />
<path d="M391.5,434.5l0,-24" class="g2_362" />
<path d="M480.5,434.5l0,-24" class="g2_362" />
<path d="M887.5,434.5l0,-24" class="g2_362" />
<path fill-rule="evenodd" d="M165,483l157,0l0,-47l-157,0l0,47Z" class="g3_362" />
<path fill-rule="evenodd" d="M173,459l141,0l0,-23l-141,0l0,23Z" class="g3_362" />
<path fill-rule="evenodd" d="M173,483l141,0l0,-24l-141,0l0,24Z" class="g3_362" />
<path fill-rule="evenodd" d="M324,483l67,0l0,-47l-67,0l0,47Z" class="g3_362" />
<path fill-rule="evenodd" d="M331,459l52,0l0,-23l-52,0l0,23Z" class="g3_362" />
<path fill-rule="evenodd" d="M392,483l88,0l0,-47l-88,0l0,47Z" class="g3_362" />
<path fill-rule="evenodd" d="M400,459l73,0l0,-23l-73,0l0,23Z" class="g3_362" />
<path fill-rule="evenodd" d="M482,483l405,0l0,-47l-405,0l0,47Z" class="g3_362" />
<path fill-rule="evenodd" d="M489,459l391,0l0,-23l-391,0l0,23Z" class="g3_362" />
<path d="M46.5,436.5l0,-2" class="g2_362" />
<path d="M74.5,436.5l0,-2" class="g2_362" />
<path d="M103.5,436.5l0,-2" class="g2_362" />
<path d="M137.5,436.5l0,-2" class="g4_362" />
<path d="M164.5,436.5l0,-2" class="g2_362" />
<path d="M165.5,436.5l157,0" class="g2_362" />
<path d="M322.5,436.5l0,-2" class="g2_362" />
<path d="M324.5,436.5l67,0" class="g2_362" />
<path d="M391.5,436.5l0,-2" class="g2_362" />
<path d="M392.5,436.5l88,0" class="g2_362" />
<path d="M480.5,436.5l0,-2" class="g2_362" />
<path d="M482.5,436.5l405,0" class="g2_362" />
<path d="M887.5,436.5l0,-2" class="g2_362" />
<path d="M46.5,483.5l0,-47" class="g2_362" />
<path d="M74.5,483.5l0,-47" class="g2_362" />
<path d="M103.5,483.5l0,-47" class="g2_362" />
<path d="M137.5,483.5l0,-47" class="g4_362" />
<path d="M164.5,483.5l0,-47" class="g2_362" />
<path d="M322.5,483.5l0,-47" class="g2_362" />
<path d="M391.5,483.5l0,-47" class="g2_362" />
<path d="M480.5,483.5l0,-47" class="g2_362" />
<path d="M887.5,483.5l0,-47" class="g2_362" />
<path fill-rule="evenodd" d="M165,580l157,0l0,-95l-157,0l0,95Z" class="g3_362" />
<path fill-rule="evenodd" d="M173,509l141,0l0,-24l-141,0l0,24Z" class="g3_362" />
<path fill-rule="evenodd" d="M324,580l67,0l0,-95l-67,0l0,95Z" class="g3_362" />
<path fill-rule="evenodd" d="M331,509l52,0l0,-24l-52,0l0,24Z" class="g3_362" />
<path fill-rule="evenodd" d="M392,580l88,0l0,-95l-88,0l0,95Z" class="g3_362" />
<path fill-rule="evenodd" d="M400,509l73,0l0,-24l-73,0l0,24Z" class="g3_362" />
<path fill-rule="evenodd" d="M482,580l405,0l0,-95l-405,0l0,95Z" class="g3_362" />
<path fill-rule="evenodd" d="M489,509l391,0l0,-24l-391,0l0,24Z" class="g3_362" />
<path fill-rule="evenodd" d="M489,532l391,0l0,-23l-391,0l0,23Z" class="g3_362" />
<path fill-rule="evenodd" d="M489,556l391,0l0,-24l-391,0l0,24Z" class="g3_362" />
<path fill-rule="evenodd" d="M489,580l391,0l0,-24l-391,0l0,24Z" class="g3_362" />
<path d="M46.5,485.5l0,-2" class="g2_362" />
<path d="M74.5,485.5l0,-2" class="g2_362" />
<path d="M103.5,485.5l0,-2" class="g2_362" />
<path d="M137.5,485.5l0,-2" class="g4_362" />
<path d="M164.5,485.5l0,-2" class="g2_362" />
<path d="M165.5,485.5l157,0" class="g2_362" />
<path d="M322.5,485.5l0,-2" class="g2_362" />
<path d="M324.5,485.5l67,0" class="g2_362" />
<path d="M391.5,485.5l0,-2" class="g2_362" />
<path d="M392.5,485.5l88,0" class="g2_362" />
<path d="M480.5,485.5l0,-2" class="g2_362" />
<path d="M482.5,485.5l405,0" class="g2_362" />
<path d="M887.5,485.5l0,-2" class="g2_362" />
<path d="M46.5,580.5l0,-95" class="g2_362" />
<path d="M46.5,582.5l0,-2" class="g2_362" />
<path d="M46.5,582.5l0,-2" class="g2_362" />
<path d="M47.5,582.5l27,0" class="g2_362" />
<path d="M74.5,580.5l0,-95" class="g2_362" />
<path d="M74.5,582.5l0,-2" class="g2_362" />
<path d="M76.5,582.5l27,0" class="g2_362" />
<path d="M103.5,580.5l0,-95" class="g2_362" />
<path d="M103.5,582.5l0,-2" class="g2_362" />
<path d="M105.5,582.5l32,0" class="g2_362" />
<path d="M137.5,580.5l0,-95" class="g4_362" />
<path d="M137.5,582.5l0,-2" class="g2_362" />
<path d="M139.5,582.5l25,0" class="g2_362" />
<path d="M164.5,580.5l0,-95" class="g2_362" />
<path d="M164.5,582.5l0,-2" class="g2_362" />
<path d="M165.5,582.5l157,0" class="g2_362" />
<path d="M322.5,580.5l0,-95" class="g2_362" />
<path d="M322.5,582.5l0,-2" class="g2_362" />
<path d="M324.5,582.5l67,0" class="g2_362" />
<path d="M391.5,580.5l0,-95" class="g2_362" />
<path d="M391.5,582.5l0,-2" class="g2_362" />
<path d="M392.5,582.5l88,0" class="g2_362" />
<path d="M480.5,580.5l0,-95" class="g2_362" />
<path d="M480.5,582.5l0,-2" class="g2_362" />
<path d="M482.5,582.5l405,0" class="g2_362" />
<path d="M887.5,580.5l0,-95" class="g2_362" />
<path d="M887.5,582.5l0,-2" class="g2_362" />
<path d="M887.5,582.5l0,-2" class="g2_362" />
<path fill-rule="evenodd" d="M47,702l840,0l0,-24L47,678l0,24Z" class="g3_362" />
<g clip-path="url(#c16_362)">
<path fill-rule="evenodd" d="M55,702l825,0l0,-24L55,678l0,24Z" class="g3_362" />
</g>
<path d="M46.5,678.5l0,-1" class="g2_362" />
<path d="M46.5,678.5l0,-1" class="g2_362" />
<path d="M47.5,678.5l840,0" class="g2_362" />
<path d="M887.5,678.5l0,-1" class="g2_362" />
<path d="M887.5,678.5l0,-1" class="g2_362" />
<path d="M46.5,702.5l0,-24" class="g2_362" />
<path d="M46.5,704.5l0,-2" class="g2_362" />
<path d="M46.5,704.5l0,-2" class="g2_362" />
<path d="M47.5,704.5l840,0" class="g2_362" />
<path d="M887.5,702.5l0,-24" class="g2_362" />
<path d="M887.5,704.5l0,-2" class="g2_362" />
<path d="M887.5,704.5l0,-2" class="g2_362" />
<path fill-rule="evenodd" d="M47,1087l840,0l0,-358L47,729l0,358Z" class="g3_362" />
<g clip-path="url(#c17_362)">
<path fill-rule="evenodd" d="M55,753l825,0l0,-24L55,729l0,24Z" class="g3_362" />
</g>
<path fill-rule="evenodd" d="M55,777l825,0l0,-24L55,753l0,24Z" class="g3_362" />
<path fill-rule="evenodd" d="M55,801l825,0l0,-24L55,777l0,24Z" class="g3_362" />
<path fill-rule="evenodd" d="M55,825l825,0l0,-24L55,801l0,24Z" class="g3_362" />
<path fill-rule="evenodd" d="M55,848l825,0l0,-23L55,825l0,23Z" class="g3_362" />
<path fill-rule="evenodd" d="M55,872l825,0l0,-24L55,848l0,24Z" class="g3_362" />
<path fill-rule="evenodd" d="M55,896l825,0l0,-24L55,872l0,24Z" class="g3_362" />
<path fill-rule="evenodd" d="M55,920l825,0l0,-24L55,896l0,24Z" class="g3_362" />
<path fill-rule="evenodd" d="M55,944l825,0l0,-24L55,920l0,24Z" class="g3_362" />
<path fill-rule="evenodd" d="M55,968l825,0l0,-24L55,944l0,24Z" class="g3_362" />
<path fill-rule="evenodd" d="M55,991l825,0l0,-23L55,968l0,23Z" class="g3_362" />
<path fill-rule="evenodd" d="M55,1015l825,0l0,-24L55,991l0,24Z" class="g3_362" />
<path fill-rule="evenodd" d="M55,1039l825,0l0,-24l-825,0l0,24Z" class="g3_362" />
<path fill-rule="evenodd" d="M55,1063l825,0l0,-24l-825,0l0,24Z" class="g3_362" />
<g clip-path="url(#c17_362)">
<path fill-rule="evenodd" d="M55,1087l825,0l0,-24l-825,0l0,24Z" class="g3_362" />
</g>
<path d="M46.5,729.5l0,-1" class="g2_362" />
<path d="M46.5,729.5l0,-1" class="g2_362" />
<path d="M47.5,729.5l840,0" class="g2_362" />
<path d="M887.5,729.5l0,-1" class="g2_362" />
<path d="M887.5,729.5l0,-1" class="g2_362" />
<path d="M46.5,1087.5l0,-358" class="g2_362" />
<path d="M46.5,1088.5l0,-1" class="g2_362" />
<path d="M46.5,1088.5l0,-1" class="g2_362" />
<path d="M47.5,1088.5l840,0" class="g2_362" />
<path d="M887.5,1087.5l0,-358" class="g2_362" />
<path d="M887.5,1088.5l0,-1" class="g2_362" />
<path d="M887.5,1088.5l0,-1" class="g2_362" />
</svg>