<?xml version="1.0" encoding="UTF-8" standalone="no"?>
<!DOCTYPE svg PUBLIC "-//W3C//DTD SVG 1.1//EN"
"http://www.w3.org/Graphics/SVG/1.1/DTD/svg11.dtd">
<svg version="1.1" xmlns="http://www.w3.org/2000/svg" xmlns:xlink="http://www.w3.org/1999/xlink">
<defs>
<clipPath id="c0_449"><path d="M47.5,142.5l0,-31l840,0l0,31Z" /></clipPath>
<clipPath id="c1_449"><path d="M47.5,312.5l0,-95l840,0l0,95Z" /></clipPath>
<clipPath id="c2_449"><path d="M47.5,737.5l0,-23l178,0l0,23Z" /></clipPath>
<clipPath id="c3_449"><path d="M227.5,737.5l0,-23l162,0l0,23Z" /></clipPath>
<clipPath id="c4_449"><path d="M391.5,737.5l0,-23l496,0l0,23Z" /></clipPath>
<clipPath id="c5_449"><path d="M47.5,763.5l0,-24l178,0l0,24Z" /></clipPath>
<clipPath id="c6_449"><path d="M227.5,763.5l0,-24l162,0l0,24Z" /></clipPath>
<clipPath id="c7_449"><path d="M391.5,763.5l0,-24l496,0l0,24Z" /></clipPath>
<clipPath id="c8_449"><path d="M47.5,837.5l0,-24l177,0l0,24Z" /></clipPath>
<clipPath id="c9_449"><path d="M226.5,837.5l0,-24l162,0l0,24Z" /></clipPath>
<clipPath id="c10_449"><path d="M390.5,837.5l0,-24l163,0l0,24Z" /></clipPath>
<clipPath id="c11_449"><path d="M554.5,837.5l0,-24l163,0l0,24Z" /></clipPath>
<clipPath id="c12_449"><path d="M719.5,837.5l0,-24l168,0l0,24Z" /></clipPath>
<clipPath id="c13_449"><path d="M47.5,863.5l0,-24l177,0l0,24Z" /></clipPath>
<clipPath id="c14_449"><path d="M226.5,863.5l0,-24l162,0l0,24Z" /></clipPath>
<clipPath id="c15_449"><path d="M390.5,863.5l0,-24l163,0l0,24Z" /></clipPath>
<clipPath id="c16_449"><path d="M554.5,863.5l0,-24l163,0l0,24Z" /></clipPath>
<clipPath id="c17_449"><path d="M719.5,863.5l0,-24l168,0l0,24Z" /></clipPath>
<clipPath id="c18_449"><path d="M47.5,1087.5l0,-47l27,0l0,47Z" /></clipPath>
<clipPath id="c19_449"><path d="M510.5,1087.5l0,-47l377,0l0,47Z" /></clipPath>
<style type="text/css"><![CDATA[
.g2_449{
fill: none;
stroke: #F0F0E0;
stroke-width: 1;
stroke-linecap: butt;
stroke-linejoin: miter;
}
.g3_449{
fill: none;
stroke: #7E7E7E;
stroke-width: 1;
stroke-linecap: butt;
stroke-linejoin: miter;
}
.g4_449{
fill: #DBE5F1;
}
.g1_449{
fill: #F1F1F1;
}
]]></style>
</defs>
<path fill-rule="evenodd" d="M47,142l840,0l0,-31L47,111l0,31Z" class="g1_449" />
<g clip-path="url(#c0_449)">
<path fill-rule="evenodd" d="M55,142l825,0l0,-31L55,111l0,31Z" class="g1_449" />
<path d="M45.5,142.5l0,-1" class="g2_449" />
<path d="M45.5,142.5l0,-1" class="g2_449" />
<path d="M46.5,142.5l842,0" class="g2_449" />
<path d="M888.5,142.5l0,-1" class="g2_449" />
<path d="M888.5,142.5l0,-1" class="g2_449" />
<path d="M45.5,141.5l0,-30" class="g2_449" />
<path d="M888.5,141.5l0,-30" class="g2_449" />
</g>
<path d="M46.5,111.5l0,-1" class="g3_449" />
<path d="M46.5,111.5l0,-1" class="g3_449" />
<path d="M47.5,111.5l840,0" class="g3_449" />
<path d="M887.5,111.5l0,-1" class="g3_449" />
<path d="M887.5,111.5l0,-1" class="g3_449" />
<path d="M46.5,142.5l0,-31" class="g3_449" />
<path d="M46.5,144.5l0,-2" class="g3_449" />
<path d="M46.5,144.5l0,-2" class="g3_449" />
<path d="M47.5,144.5l840,0" class="g3_449" />
<path d="M887.5,142.5l0,-31" class="g3_449" />
<path d="M887.5,144.5l0,-2" class="g3_449" />
<path d="M887.5,144.5l0,-2" class="g3_449" />
<path fill-rule="evenodd" d="M47,312l840,0l0,-95L47,217l0,95Z" class="g1_449" />
<g clip-path="url(#c1_449)">
<path fill-rule="evenodd" d="M55,241l825,0l0,-24L55,217l0,24Z" class="g1_449" />
</g>
<path fill-rule="evenodd" d="M55,264l825,0l0,-23L55,241l0,23Z" class="g1_449" />
<path fill-rule="evenodd" d="M55,288l825,0l0,-24L55,264l0,24Z" class="g1_449" />
<path fill-rule="evenodd" d="M55,312l825,0l0,-24L55,288l0,24Z" class="g1_449" />
<path d="M46.5,217.5l0,-2" class="g3_449" />
<path d="M46.5,217.5l0,-2" class="g3_449" />
<path d="M47.5,217.5l840,0" class="g3_449" />
<path d="M887.5,217.5l0,-2" class="g3_449" />
<path d="M887.5,217.5l0,-2" class="g3_449" />
<path d="M46.5,312.5l0,-95" class="g3_449" />
<path d="M46.5,314.5l0,-2" class="g3_449" />
<path d="M46.5,314.5l0,-2" class="g3_449" />
<path d="M47.5,314.5l840,0" class="g3_449" />
<path d="M887.5,312.5l0,-95" class="g3_449" />
<path d="M887.5,314.5l0,-2" class="g3_449" />
<path d="M887.5,314.5l0,-2" class="g3_449" />
<path fill-rule="evenodd" d="M47,654l840,0l0,-24L47,630l0,24Z" class="g1_449" />
<path fill-rule="evenodd" d="M55,654l825,0l0,-24L55,630l0,24Z" class="g1_449" />
<path d="M46.5,630.5l0,-1" class="g3_449" />
<path d="M46.5,630.5l0,-1" class="g3_449" />
<path d="M47.5,630.5l840,0" class="g3_449" />
<path d="M887.5,630.5l0,-1" class="g3_449" />
<path d="M887.5,630.5l0,-1" class="g3_449" />
<path d="M46.5,654.5l0,-24" class="g3_449" />
<path d="M46.5,656.5l0,-2" class="g3_449" />
<path d="M46.5,656.5l0,-2" class="g3_449" />
<path d="M47.5,656.5l840,0" class="g3_449" />
<path d="M887.5,654.5l0,-24" class="g3_449" />
<path d="M887.5,656.5l0,-2" class="g3_449" />
<path d="M887.5,656.5l0,-2" class="g3_449" />
<path fill-rule="evenodd" d="M47,737l178,0l0,-23L47,714l0,23Z" class="g4_449" />
<g clip-path="url(#c2_449)">
<path fill-rule="evenodd" d="M55,737l162,0l0,-23L55,714l0,23Z" class="g4_449" />
</g>
<path fill-rule="evenodd" d="M226,737l163,0l0,-23l-163,0l0,23Z" class="g4_449" />
<g clip-path="url(#c3_449)">
<path fill-rule="evenodd" d="M234,737l148,0l0,-23l-148,0l0,23Z" class="g4_449" />
</g>
<path fill-rule="evenodd" d="M391,737l496,0l0,-23l-496,0l0,23Z" class="g4_449" />
<g clip-path="url(#c4_449)">
<path fill-rule="evenodd" d="M398,737l482,0l0,-23l-482,0l0,23Z" class="g4_449" />
</g>
<path d="M46.5,714.5l0,-2" class="g3_449" />
<path d="M46.5,714.5l0,-2" class="g3_449" />
<path d="M47.5,714.5l178,0" class="g3_449" />
<path d="M225.5,714.5l0,-2" class="g3_449" />
<path d="M226.5,714.5l163,0" class="g3_449" />
<path d="M389.5,714.5l0,-2" class="g3_449" />
<path d="M391.5,714.5l496,0" class="g3_449" />
<path d="M887.5,714.5l0,-2" class="g3_449" />
<path d="M887.5,714.5l0,-2" class="g3_449" />
<path d="M46.5,737.5l0,-23" class="g3_449" />
<path d="M225.5,737.5l0,-23" class="g3_449" />
<path d="M389.5,737.5l0,-23" class="g3_449" />
<path d="M887.5,737.5l0,-23" class="g3_449" />
<path fill-rule="evenodd" d="M47,763l178,0l0,-24L47,739l0,24Z" class="g1_449" />
<g clip-path="url(#c5_449)">
<path fill-rule="evenodd" d="M55,763l162,0l0,-24L55,739l0,24Z" class="g1_449" />
</g>
<path fill-rule="evenodd" d="M226,763l163,0l0,-24l-163,0l0,24Z" class="g1_449" />
<g clip-path="url(#c6_449)">
<path fill-rule="evenodd" d="M234,763l148,0l0,-24l-148,0l0,24Z" class="g1_449" />
</g>
<path fill-rule="evenodd" d="M391,763l496,0l0,-24l-496,0l0,24Z" class="g1_449" />
<g clip-path="url(#c7_449)">
<path fill-rule="evenodd" d="M398,763l482,0l0,-24l-482,0l0,24Z" class="g1_449" />
</g>
<path d="M46.5,739.5l0,-2" class="g3_449" />
<path d="M47.5,739.5l178,0" class="g3_449" />
<path d="M225.5,739.5l0,-2" class="g3_449" />
<path d="M226.5,739.5l163,0" class="g3_449" />
<path d="M389.5,739.5l0,-2" class="g3_449" />
<path d="M391.5,739.5l496,0" class="g3_449" />
<path d="M887.5,739.5l0,-2" class="g3_449" />
<path d="M46.5,763.5l0,-24" class="g3_449" />
<path d="M46.5,764.5l0,-1" class="g3_449" />
<path d="M46.5,764.5l0,-1" class="g3_449" />
<path d="M47.5,764.5l178,0" class="g3_449" />
<path d="M225.5,763.5l0,-24" class="g3_449" />
<path d="M225.5,764.5l0,-1" class="g3_449" />
<path d="M226.5,764.5l163,0" class="g3_449" />
<path d="M389.5,763.5l0,-24" class="g3_449" />
<path d="M389.5,764.5l0,-1" class="g3_449" />
<path d="M391.5,764.5l496,0" class="g3_449" />
<path d="M887.5,763.5l0,-24" class="g3_449" />
<path d="M887.5,764.5l0,-1" class="g3_449" />
<path d="M887.5,764.5l0,-1" class="g3_449" />
<path fill-rule="evenodd" d="M47,837l177,0l0,-24L47,813l0,24Z" class="g4_449" />
<g clip-path="url(#c8_449)">
<path fill-rule="evenodd" d="M55,837l162,0l0,-24L55,813l0,24Z" class="g4_449" />
</g>
<path fill-rule="evenodd" d="M226,837l162,0l0,-24l-162,0l0,24Z" class="g4_449" />
<g clip-path="url(#c9_449)">
<path fill-rule="evenodd" d="M233,837l148,0l0,-24l-148,0l0,24Z" class="g4_449" />
</g>
<path fill-rule="evenodd" d="M390,837l163,0l0,-24l-163,0l0,24Z" class="g4_449" />
<g clip-path="url(#c10_449)">
<path fill-rule="evenodd" d="M397,837l148,0l0,-24l-148,0l0,24Z" class="g4_449" />
</g>
<path fill-rule="evenodd" d="M554,837l163,0l0,-24l-163,0l0,24Z" class="g4_449" />
<g clip-path="url(#c11_449)">
<path fill-rule="evenodd" d="M562,837l148,0l0,-24l-148,0l0,24Z" class="g4_449" />
</g>
<path fill-rule="evenodd" d="M719,837l168,0l0,-24l-168,0l0,24Z" class="g4_449" />
<g clip-path="url(#c12_449)">
<path fill-rule="evenodd" d="M726,837l154,0l0,-24l-154,0l0,24Z" class="g4_449" />
</g>
<path d="M46.5,813.5l0,-1" class="g3_449" />
<path d="M46.5,813.5l0,-1" class="g3_449" />
<path d="M47.5,813.5l177,0" class="g3_449" />
<path d="M224.5,813.5l0,-1" class="g3_449" />
<path d="M226.5,813.5l162,0" class="g3_449" />
<path d="M388.5,813.5l0,-1" class="g3_449" />
<path d="M390.5,813.5l163,0" class="g3_449" />
<path d="M553.5,813.5l0,-1" class="g3_449" />
<path d="M554.5,813.5l163,0" class="g3_449" />
<path d="M717.5,813.5l0,-1" class="g3_449" />
<path d="M719.5,813.5l168,0" class="g3_449" />
<path d="M887.5,813.5l0,-1" class="g3_449" />
<path d="M887.5,813.5l0,-1" class="g3_449" />
<path d="M46.5,837.5l0,-24" class="g3_449" />
<path d="M224.5,837.5l0,-24" class="g3_449" />
<path d="M388.5,837.5l0,-24" class="g3_449" />
<path d="M553.5,837.5l0,-24" class="g3_449" />
<path d="M717.5,837.5l0,-24" class="g3_449" />
<path d="M887.5,837.5l0,-24" class="g3_449" />
<path fill-rule="evenodd" d="M47,863l177,0l0,-24L47,839l0,24Z" class="g1_449" />
<g clip-path="url(#c13_449)">
<path fill-rule="evenodd" d="M55,863l162,0l0,-24L55,839l0,24Z" class="g1_449" />
</g>
<path fill-rule="evenodd" d="M226,863l162,0l0,-24l-162,0l0,24Z" class="g1_449" />
<g clip-path="url(#c14_449)">
<path fill-rule="evenodd" d="M233,863l148,0l0,-24l-148,0l0,24Z" class="g1_449" />
</g>
<path fill-rule="evenodd" d="M390,863l163,0l0,-24l-163,0l0,24Z" class="g1_449" />
<g clip-path="url(#c15_449)">
<path fill-rule="evenodd" d="M397,863l148,0l0,-24l-148,0l0,24Z" class="g1_449" />
</g>
<path fill-rule="evenodd" d="M554,863l163,0l0,-24l-163,0l0,24Z" class="g1_449" />
<g clip-path="url(#c16_449)">
<path fill-rule="evenodd" d="M562,863l148,0l0,-24l-148,0l0,24Z" class="g1_449" />
</g>
<path fill-rule="evenodd" d="M719,863l168,0l0,-24l-168,0l0,24Z" class="g1_449" />
<g clip-path="url(#c17_449)">
<path fill-rule="evenodd" d="M726,863l154,0l0,-24l-154,0l0,24Z" class="g1_449" />
</g>
<path d="M46.5,839.5l0,-2" class="g3_449" />
<path d="M47.5,839.5l177,0" class="g3_449" />
<path d="M224.5,839.5l0,-2" class="g3_449" />
<path d="M226.5,839.5l162,0" class="g3_449" />
<path d="M388.5,839.5l0,-2" class="g3_449" />
<path d="M390.5,839.5l163,0" class="g3_449" />
<path d="M553.5,839.5l0,-2" class="g3_449" />
<path d="M554.5,839.5l163,0" class="g3_449" />
<path d="M717.5,839.5l0,-2" class="g3_449" />
<path d="M719.5,839.5l168,0" class="g3_449" />
<path d="M887.5,839.5l0,-2" class="g3_449" />
<path d="M46.5,863.5l0,-24" class="g3_449" />
<path d="M46.5,864.5l0,-1" class="g3_449" />
<path d="M46.5,864.5l0,-1" class="g3_449" />
<path d="M47.5,864.5l177,0" class="g3_449" />
<path d="M224.5,863.5l0,-24" class="g3_449" />
<path d="M224.5,864.5l0,-1" class="g3_449" />
<path d="M226.5,864.5l162,0" class="g3_449" />
<path d="M388.5,863.5l0,-24" class="g3_449" />
<path d="M388.5,864.5l0,-1" class="g3_449" />
<path d="M390.5,864.5l163,0" class="g3_449" />
<path d="M553.5,863.5l0,-24" class="g3_449" />
<path d="M553.5,864.5l0,-1" class="g3_449" />
<path d="M554.5,864.5l163,0" class="g3_449" />
<path d="M717.5,863.5l0,-24" class="g3_449" />
<path d="M717.5,864.5l0,-1" class="g3_449" />
<path d="M719.5,864.5l168,0" class="g3_449" />
<path d="M887.5,863.5l0,-24" class="g3_449" />
<path d="M887.5,864.5l0,-1" class="g3_449" />
<path d="M887.5,864.5l0,-1" class="g3_449" />
<path fill-rule="evenodd" d="M47,1038l303,0l0,-24l-303,0l0,24Z" class="g4_449" />
<path fill-rule="evenodd" d="M55,1038l287,0l0,-24l-287,0l0,24Z" class="g4_449" />
<path fill-rule="evenodd" d="M351,1038l88,0l0,-24l-88,0l0,24Z" class="g4_449" />
<path fill-rule="evenodd" d="M359,1038l73,0l0,-24l-73,0l0,24Z" class="g4_449" />
<path fill-rule="evenodd" d="M441,1038l67,0l0,-24l-67,0l0,24Z" class="g4_449" />
<path fill-rule="evenodd" d="M448,1038l53,0l0,-24l-53,0l0,24Z" class="g4_449" />
<path fill-rule="evenodd" d="M510,1038l377,0l0,-24l-377,0l0,24Z" class="g4_449" />
<path fill-rule="evenodd" d="M517,1038l363,0l0,-24l-363,0l0,24Z" class="g4_449" />
<path d="M46.5,1014.5l0,-2" class="g3_449" />
<path d="M46.5,1014.5l0,-2" class="g3_449" />
<path d="M47.5,1014.5l303,0" class="g3_449" />
<path d="M350.5,1014.5l0,-2" class="g3_449" />
<path d="M351.5,1014.5l88,0" class="g3_449" />
<path d="M439.5,1014.5l0,-2" class="g3_449" />
<path d="M441.5,1014.5l67,0" class="g3_449" />
<path d="M508.5,1014.5l0,-2" class="g3_449" />
<path d="M510.5,1014.5l378,0" class="g3_449" />
<path d="M888.5,1014.5l0,-2" class="g3_449" />
<path d="M888.5,1014.5l0,-2" class="g3_449" />
<path d="M46.5,1038.5l0,-24" class="g3_449" />
<path d="M350.5,1038.5l0,-24" class="g3_449" />
<path d="M439.5,1038.5l0,-24" class="g3_449" />
<path d="M508.5,1038.5l0,-24" class="g3_449" />
<path d="M888.5,1038.5l0,-24" class="g3_449" />
<path fill-rule="evenodd" d="M47,1087l27,0l0,-47l-27,0l0,47Z" class="g1_449" />
<g clip-path="url(#c18_449)">
<path fill-rule="evenodd" d="M55,1087l19,0l0,-47l-19,0l0,47Z" class="g1_449" />
</g>
<path fill-rule="evenodd" d="M76,1087l274,0l0,-47l-274,0l0,47Z" class="g1_449" />
<path fill-rule="evenodd" d="M83,1064l259,0l0,-24l-259,0l0,24Z" class="g1_449" />
<path fill-rule="evenodd" d="M351,1087l88,0l0,-47l-88,0l0,47Z" class="g1_449" />
<path fill-rule="evenodd" d="M359,1064l73,0l0,-24l-73,0l0,24Z" class="g1_449" />
<path fill-rule="evenodd" d="M441,1087l67,0l0,-47l-67,0l0,47Z" class="g1_449" />
<path fill-rule="evenodd" d="M448,1064l53,0l0,-24l-53,0l0,24Z" class="g1_449" />
<path fill-rule="evenodd" d="M510,1087l377,0l0,-47l-377,0l0,47Z" class="g1_449" />
<path fill-rule="evenodd" d="M517,1064l363,0l0,-24l-363,0l0,24Z" class="g1_449" />
<g clip-path="url(#c19_449)">
<path fill-rule="evenodd" d="M517,1087l363,0l0,-23l-363,0l0,23Z" class="g1_449" />
</g>
<path d="M46.5,1040.5l0,-2" class="g3_449" />
<path d="M47.5,1040.5l27,0" class="g3_449" />
<path d="M74.5,1040.5l0,-2" class="g3_449" />
<path d="M76.5,1040.5l274,0" class="g3_449" />
<path d="M350.5,1040.5l0,-2" class="g3_449" />
<path d="M351.5,1040.5l88,0" class="g3_449" />
<path d="M439.5,1040.5l0,-2" class="g3_449" />
<path d="M441.5,1040.5l67,0" class="g3_449" />
<path d="M508.5,1040.5l0,-2" class="g3_449" />
<path d="M510.5,1040.5l378,0" class="g3_449" />
<path d="M888.5,1040.5l0,-2" class="g3_449" />
<path d="M46.5,1087.5l0,-47" class="g3_449" />
<path d="M46.5,1089.5l0,-2" class="g3_449" />
<path d="M46.5,1089.5l0,-2" class="g3_449" />
<path d="M47.5,1089.5l27,0" class="g3_449" />
<path d="M74.5,1087.5l0,-47" class="g3_449" />
<path d="M74.5,1089.5l0,-2" class="g3_449" />
<path d="M76.5,1089.5l274,0" class="g3_449" />
<path d="M350.5,1087.5l0,-47" class="g3_449" />
<path d="M350.5,1089.5l0,-2" class="g3_449" />
<path d="M351.5,1089.5l88,0" class="g3_449" />
<path d="M439.5,1087.5l0,-47" class="g3_449" />
<path d="M439.5,1089.5l0,-2" class="g3_449" />
<path d="M441.5,1089.5l67,0" class="g3_449" />
<path d="M508.5,1087.5l0,-47" class="g3_449" />
<path d="M508.5,1089.5l0,-2" class="g3_449" />
<path d="M510.5,1089.5l378,0" class="g3_449" />
<path d="M888.5,1087.5l0,-47" class="g3_449" />
<path d="M888.5,1089.5l0,-2" class="g3_449" />
<path d="M888.5,1089.5l0,-2" class="g3_449" />
</svg>