<?xml version="1.0" encoding="UTF-8" standalone="no"?>
<!DOCTYPE svg PUBLIC "-//W3C//DTD SVG 1.1//EN"
"http://www.w3.org/Graphics/SVG/1.1/DTD/svg11.dtd">
<svg version="1.1" xmlns="http://www.w3.org/2000/svg" xmlns:xlink="http://www.w3.org/1999/xlink">
<defs>
<clipPath id="c0_370"><path d="M454.5,302.5l0,-191l433,0l0,191Z" /></clipPath>
<clipPath id="c1_370"><path d="M47.5,329.5l0,-26l303,0l0,26Z" /></clipPath>
<clipPath id="c2_370"><path d="M351.5,329.5l0,-26l101,0l0,26Z" /></clipPath>
<clipPath id="c3_370"><path d="M454.5,329.5l0,-26l433,0l0,26Z" /></clipPath>
<clipPath id="c4_370"><path d="M187.5,356.5l0,-26l163,0l0,26Z" /></clipPath>
<clipPath id="c5_370"><path d="M351.5,356.5l0,-26l101,0l0,26Z" /></clipPath>
<clipPath id="c6_370"><path d="M454.5,356.5l0,-26l433,0l0,26Z" /></clipPath>
<clipPath id="c7_370"><path d="M187.5,572.5l0,-215l163,0l0,215Z" /></clipPath>
<clipPath id="c8_370"><path d="M351.5,572.5l0,-215l101,0l0,215Z" /></clipPath>
<clipPath id="c9_370"><path d="M454.5,572.5l0,-215l433,0l0,215Z" /></clipPath>
<clipPath id="c10_370"><path d="M47.5,675.5l0,-25l303,0l0,25Z" /></clipPath>
<clipPath id="c11_370"><path d="M351.5,675.5l0,-25l101,0l0,25Z" /></clipPath>
<clipPath id="c12_370"><path d="M454.5,675.5l0,-25l433,0l0,25Z" /></clipPath>
<clipPath id="c13_370"><path d="M47.5,797.5l0,-23l840,0l0,23Z" /></clipPath>
<clipPath id="c14_370"><path d="M47.5,1086.5l0,-262l840,0l0,262Z" /></clipPath>
<style type="text/css"><![CDATA[
.g2_370{
fill: none;
stroke: #7E7E7E;
stroke-width: 1;
stroke-linecap: butt;
stroke-linejoin: miter;
}
.g1_370{
fill: #F1F1F1;
}
]]></style>
</defs>
<path fill-rule="evenodd" d="M47,302l303,0l0,-191L47,111l0,191Z" class="g1_370" />
<path fill-rule="evenodd" d="M351,302l101,0l0,-191l-101,0l0,191Z" class="g1_370" />
<path fill-rule="evenodd" d="M454,302l433,0l0,-191l-433,0l0,191Z" class="g1_370" />
<g clip-path="url(#c0_370)">
<path fill-rule="evenodd" d="M462,135l418,0l0,-24l-418,0l0,24Z" class="g1_370" />
</g>
<path fill-rule="evenodd" d="M462,159l418,0l0,-24l-418,0l0,24Z" class="g1_370" />
<path fill-rule="evenodd" d="M462,182l418,0l0,-23l-418,0l0,23Z" class="g1_370" />
<path fill-rule="evenodd" d="M462,206l418,0l0,-24l-418,0l0,24Z" class="g1_370" />
<path fill-rule="evenodd" d="M462,230l418,0l0,-24l-418,0l0,24Z" class="g1_370" />
<path fill-rule="evenodd" d="M462,254l418,0l0,-24l-418,0l0,24Z" class="g1_370" />
<path fill-rule="evenodd" d="M462,278l418,0l0,-24l-418,0l0,24Z" class="g1_370" />
<path fill-rule="evenodd" d="M462,302l418,0l0,-24l-418,0l0,24Z" class="g1_370" />
<path d="M46.5,111.5l0,-1" class="g2_370" />
<path d="M46.5,111.5l0,-1" class="g2_370" />
<path d="M47.5,111.5l303,0" class="g2_370" />
<path d="M350.5,111.5l0,-1" class="g2_370" />
<path d="M351.5,111.5l102,0" class="g2_370" />
<path d="M453.5,111.5l0,-1" class="g2_370" />
<path d="M454.5,111.5l433,0" class="g2_370" />
<path d="M887.5,111.5l0,-1" class="g2_370" />
<path d="M887.5,111.5l0,-1" class="g2_370" />
<path d="M46.5,302.5l0,-191" class="g2_370" />
<path d="M350.5,302.5l0,-191" class="g2_370" />
<path d="M453.5,302.5l0,-191" class="g2_370" />
<path d="M887.5,302.5l0,-191" class="g2_370" />
<path fill-rule="evenodd" d="M47,329l303,0l0,-26L47,303l0,26Z" class="g1_370" />
<g clip-path="url(#c1_370)">
<path fill-rule="evenodd" d="M55,327l287,0l0,-24L55,303l0,24Z" class="g1_370" />
</g>
<path fill-rule="evenodd" d="M351,329l101,0l0,-26l-101,0l0,26Z" class="g1_370" />
<g clip-path="url(#c2_370)">
<path fill-rule="evenodd" d="M359,327l86,0l0,-24l-86,0l0,24Z" class="g1_370" />
</g>
<path fill-rule="evenodd" d="M454,329l433,0l0,-26l-433,0l0,26Z" class="g1_370" />
<g clip-path="url(#c3_370)">
<path fill-rule="evenodd" d="M462,327l418,0l0,-24l-418,0l0,24Z" class="g1_370" />
</g>
<path d="M46.5,303.5l0,-1" class="g2_370" />
<path d="M47.5,303.5l303,0" class="g2_370" />
<path d="M350.5,303.5l0,-1" class="g2_370" />
<path d="M351.5,303.5l102,0" class="g2_370" />
<path d="M453.5,303.5l0,-1" class="g2_370" />
<path d="M454.5,303.5l433,0" class="g2_370" />
<path d="M887.5,303.5l0,-1" class="g2_370" />
<path d="M46.5,329.5l0,-26" class="g2_370" />
<path d="M350.5,329.5l0,-26" class="g2_370" />
<path d="M453.5,329.5l0,-26" class="g2_370" />
<path d="M887.5,329.5l0,-26" class="g2_370" />
<path fill-rule="evenodd" d="M47,648l39,0L86,330l-39,0l0,318Z" class="g1_370" />
<path fill-rule="evenodd" d="M55,648l23,0L78,330l-23,0l0,318Z" class="g1_370" />
<path fill-rule="evenodd" d="M88,648l41,0l0,-318l-41,0l0,318Z" class="g1_370" />
<path fill-rule="evenodd" d="M95,648l24,0l0,-318l-24,0l0,318Z" class="g1_370" />
<path fill-rule="evenodd" d="M131,648l54,0l0,-318l-54,0l0,318Z" class="g1_370" />
<path fill-rule="evenodd" d="M138,648l24,0l0,-318l-24,0l0,318Z" class="g1_370" />
<path fill-rule="evenodd" d="M187,356l163,0l0,-26l-163,0l0,26Z" class="g1_370" />
<g clip-path="url(#c4_370)">
<path fill-rule="evenodd" d="M194,354l148,0l0,-24l-148,0l0,24Z" class="g1_370" />
</g>
<path fill-rule="evenodd" d="M351,356l101,0l0,-26l-101,0l0,26Z" class="g1_370" />
<g clip-path="url(#c5_370)">
<path fill-rule="evenodd" d="M359,354l86,0l0,-24l-86,0l0,24Z" class="g1_370" />
</g>
<path fill-rule="evenodd" d="M454,356l433,0l0,-26l-433,0l0,26Z" class="g1_370" />
<g clip-path="url(#c6_370)">
<path fill-rule="evenodd" d="M462,354l418,0l0,-24l-418,0l0,24Z" class="g1_370" />
</g>
<path d="M46.5,330.5l0,-1" class="g2_370" />
<path d="M47.5,330.5l39,0" class="g2_370" />
<path d="M86.5,330.5l0,-1" class="g2_370" />
<path d="M88.5,330.5l42,0" class="g2_370" />
<path d="M130.5,330.5l0,-1" class="g2_370" />
<path d="M131.5,330.5l54,0" class="g2_370" />
<path d="M185.5,330.5l0,-1" class="g2_370" />
<path d="M187.5,330.5l163,0" class="g2_370" />
<path d="M350.5,330.5l0,-1" class="g2_370" />
<path d="M351.5,330.5l102,0" class="g2_370" />
<path d="M453.5,330.5l0,-1" class="g2_370" />
<path d="M454.5,330.5l433,0" class="g2_370" />
<path d="M887.5,330.5l0,-1" class="g2_370" />
<path d="M46.5,356.5l0,-26" class="g2_370" />
<path d="M86.5,356.5l0,-26" class="g2_370" />
<path d="M130.5,356.5l0,-26" class="g2_370" />
<path d="M185.5,356.5l0,-26" class="g2_370" />
<path d="M350.5,356.5l0,-26" class="g2_370" />
<path d="M453.5,356.5l0,-26" class="g2_370" />
<path d="M887.5,356.5l0,-26" class="g2_370" />
<path fill-rule="evenodd" d="M187,572l163,0l0,-215l-163,0l0,215Z" class="g1_370" />
<g clip-path="url(#c7_370)">
<path fill-rule="evenodd" d="M194,381l148,0l0,-24l-148,0l0,24Z" class="g1_370" />
</g>
<path fill-rule="evenodd" d="M351,572l101,0l0,-215l-101,0l0,215Z" class="g1_370" />
<g clip-path="url(#c8_370)">
<path fill-rule="evenodd" d="M359,381l86,0l0,-24l-86,0l0,24Z" class="g1_370" />
</g>
<path fill-rule="evenodd" d="M454,572l433,0l0,-215l-433,0l0,215Z" class="g1_370" />
<g clip-path="url(#c9_370)">
<path fill-rule="evenodd" d="M462,381l418,0l0,-24l-418,0l0,24Z" class="g1_370" />
</g>
<path fill-rule="evenodd" d="M462,405l418,0l0,-24l-418,0l0,24Z" class="g1_370" />
<path fill-rule="evenodd" d="M462,429l418,0l0,-24l-418,0l0,24Z" class="g1_370" />
<path fill-rule="evenodd" d="M462,453l418,0l0,-24l-418,0l0,24Z" class="g1_370" />
<path fill-rule="evenodd" d="M462,477l418,0l0,-24l-418,0l0,24Z" class="g1_370" />
<path fill-rule="evenodd" d="M462,500l418,0l0,-23l-418,0l0,23Z" class="g1_370" />
<path fill-rule="evenodd" d="M462,524l418,0l0,-24l-418,0l0,24Z" class="g1_370" />
<path fill-rule="evenodd" d="M462,548l418,0l0,-24l-418,0l0,24Z" class="g1_370" />
<path fill-rule="evenodd" d="M462,572l418,0l0,-24l-418,0l0,24Z" class="g1_370" />
<path d="M46.5,357.5l0,-1" class="g2_370" />
<path d="M86.5,357.5l0,-1" class="g2_370" />
<path d="M130.5,357.5l0,-1" class="g2_370" />
<path d="M185.5,357.5l0,-1" class="g2_370" />
<path d="M187.5,357.5l163,0" class="g2_370" />
<path d="M350.5,357.5l0,-1" class="g2_370" />
<path d="M351.5,357.5l102,0" class="g2_370" />
<path d="M453.5,357.5l0,-1" class="g2_370" />
<path d="M454.5,357.5l433,0" class="g2_370" />
<path d="M887.5,357.5l0,-1" class="g2_370" />
<path d="M46.5,572.5l0,-215" class="g2_370" />
<path d="M86.5,572.5l0,-215" class="g2_370" />
<path d="M130.5,572.5l0,-215" class="g2_370" />
<path d="M185.5,572.5l0,-215" class="g2_370" />
<path d="M350.5,572.5l0,-215" class="g2_370" />
<path d="M453.5,572.5l0,-215" class="g2_370" />
<path d="M887.5,572.5l0,-215" class="g2_370" />
<path fill-rule="evenodd" d="M187,599l163,0l0,-26l-163,0l0,26Z" class="g1_370" />
<path fill-rule="evenodd" d="M194,597l148,0l0,-24l-148,0l0,24Z" class="g1_370" />
<path fill-rule="evenodd" d="M351,599l101,0l0,-26l-101,0l0,26Z" class="g1_370" />
<path fill-rule="evenodd" d="M359,597l86,0l0,-24l-86,0l0,24Z" class="g1_370" />
<path fill-rule="evenodd" d="M454,599l433,0l0,-26l-433,0l0,26Z" class="g1_370" />
<path fill-rule="evenodd" d="M462,597l418,0l0,-24l-418,0l0,24Z" class="g1_370" />
<path d="M46.5,573.5l0,-1" class="g2_370" />
<path d="M86.5,573.5l0,-1" class="g2_370" />
<path d="M130.5,573.5l0,-1" class="g2_370" />
<path d="M185.5,573.5l0,-1" class="g2_370" />
<path d="M187.5,573.5l163,0" class="g2_370" />
<path d="M350.5,573.5l0,-1" class="g2_370" />
<path d="M351.5,573.5l102,0" class="g2_370" />
<path d="M453.5,573.5l0,-1" class="g2_370" />
<path d="M454.5,573.5l433,0" class="g2_370" />
<path d="M887.5,573.5l0,-1" class="g2_370" />
<path d="M46.5,599.5l0,-26" class="g2_370" />
<path d="M86.5,599.5l0,-26" class="g2_370" />
<path d="M130.5,599.5l0,-26" class="g2_370" />
<path d="M185.5,599.5l0,-26" class="g2_370" />
<path d="M350.5,599.5l0,-26" class="g2_370" />
<path d="M453.5,599.5l0,-26" class="g2_370" />
<path d="M887.5,599.5l0,-26" class="g2_370" />
<path fill-rule="evenodd" d="M187,648l163,0l0,-48l-163,0l0,48Z" class="g1_370" />
<path fill-rule="evenodd" d="M194,624l148,0l0,-24l-148,0l0,24Z" class="g1_370" />
<path fill-rule="evenodd" d="M351,648l101,0l0,-48l-101,0l0,48Z" class="g1_370" />
<path fill-rule="evenodd" d="M359,624l86,0l0,-24l-86,0l0,24Z" class="g1_370" />
<path fill-rule="evenodd" d="M454,648l433,0l0,-48l-433,0l0,48Z" class="g1_370" />
<path fill-rule="evenodd" d="M462,624l418,0l0,-24l-418,0l0,24Z" class="g1_370" />
<path fill-rule="evenodd" d="M462,648l418,0l0,-24l-418,0l0,24Z" class="g1_370" />
<path d="M46.5,600.5l0,-1" class="g2_370" />
<path d="M86.5,600.5l0,-1" class="g2_370" />
<path d="M130.5,600.5l0,-1" class="g2_370" />
<path d="M185.5,600.5l0,-1" class="g2_370" />
<path d="M187.5,600.5l163,0" class="g2_370" />
<path d="M350.5,600.5l0,-1" class="g2_370" />
<path d="M351.5,600.5l102,0" class="g2_370" />
<path d="M453.5,600.5l0,-1" class="g2_370" />
<path d="M454.5,600.5l433,0" class="g2_370" />
<path d="M887.5,600.5l0,-1" class="g2_370" />
<path d="M46.5,648.5l0,-48" class="g2_370" />
<path d="M86.5,648.5l0,-48" class="g2_370" />
<path d="M130.5,648.5l0,-48" class="g2_370" />
<path d="M185.5,648.5l0,-48" class="g2_370" />
<path d="M350.5,648.5l0,-48" class="g2_370" />
<path d="M453.5,648.5l0,-48" class="g2_370" />
<path d="M887.5,648.5l0,-48" class="g2_370" />
<path fill-rule="evenodd" d="M47,675l303,0l0,-25L47,650l0,25Z" class="g1_370" />
<g clip-path="url(#c10_370)">
<path fill-rule="evenodd" d="M55,674l287,0l0,-24L55,650l0,24Z" class="g1_370" />
</g>
<path fill-rule="evenodd" d="M351,675l101,0l0,-25l-101,0l0,25Z" class="g1_370" />
<g clip-path="url(#c11_370)">
<path fill-rule="evenodd" d="M359,674l86,0l0,-24l-86,0l0,24Z" class="g1_370" />
</g>
<path fill-rule="evenodd" d="M454,675l433,0l0,-25l-433,0l0,25Z" class="g1_370" />
<g clip-path="url(#c12_370)">
<path fill-rule="evenodd" d="M462,674l418,0l0,-24l-418,0l0,24Z" class="g1_370" />
</g>
<path d="M46.5,649.5l0,-1" class="g2_370" />
<path d="M47.5,649.5l39,0" class="g2_370" />
<path d="M86.5,649.5l0,-1" class="g2_370" />
<path d="M88.5,649.5l42,0" class="g2_370" />
<path d="M130.5,649.5l0,-1" class="g2_370" />
<path d="M131.5,649.5l54,0" class="g2_370" />
<path d="M185.5,649.5l0,-1" class="g2_370" />
<path d="M187.5,649.5l163,0" class="g2_370" />
<path d="M350.5,649.5l0,-1" class="g2_370" />
<path d="M351.5,649.5l102,0" class="g2_370" />
<path d="M453.5,649.5l0,-1" class="g2_370" />
<path d="M454.5,649.5l433,0" class="g2_370" />
<path d="M887.5,649.5l0,-1" class="g2_370" />
<path d="M46.5,675.5l0,-26" class="g2_370" />
<path d="M46.5,677.5l0,-2" class="g2_370" />
<path d="M46.5,677.5l0,-2" class="g2_370" />
<path d="M47.5,677.5l303,0" class="g2_370" />
<path d="M350.5,675.5l0,-26" class="g2_370" />
<path d="M350.5,677.5l0,-2" class="g2_370" />
<path d="M351.5,677.5l102,0" class="g2_370" />
<path d="M453.5,675.5l0,-26" class="g2_370" />
<path d="M453.5,677.5l0,-2" class="g2_370" />
<path d="M454.5,677.5l433,0" class="g2_370" />
<path d="M887.5,675.5l0,-26" class="g2_370" />
<path d="M887.5,677.5l0,-2" class="g2_370" />
<path d="M887.5,677.5l0,-2" class="g2_370" />
<path fill-rule="evenodd" d="M47,797l840,0l0,-23L47,774l0,23Z" class="g1_370" />
<g clip-path="url(#c13_370)">
<path fill-rule="evenodd" d="M55,797l825,0l0,-23L55,774l0,23Z" class="g1_370" />
</g>
<path d="M46.5,773.5l0,-1" class="g2_370" />
<path d="M46.5,773.5l0,-1" class="g2_370" />
<path d="M47.5,773.5l840,0" class="g2_370" />
<path d="M887.5,773.5l0,-1" class="g2_370" />
<path d="M887.5,773.5l0,-1" class="g2_370" />
<path d="M46.5,797.5l0,-24" class="g2_370" />
<path d="M46.5,799.5l0,-2" class="g2_370" />
<path d="M46.5,799.5l0,-2" class="g2_370" />
<path d="M47.5,799.5l840,0" class="g2_370" />
<path d="M887.5,797.5l0,-24" class="g2_370" />
<path d="M887.5,799.5l0,-2" class="g2_370" />
<path d="M887.5,799.5l0,-2" class="g2_370" />
<path fill-rule="evenodd" d="M47,1086l840,0l0,-262L47,824l0,262Z" class="g1_370" />
<g clip-path="url(#c14_370)">
<path fill-rule="evenodd" d="M55,848l825,0l0,-24L55,824l0,24Z" class="g1_370" />
</g>
<path fill-rule="evenodd" d="M55,872l825,0l0,-24L55,848l0,24Z" class="g1_370" />
<path fill-rule="evenodd" d="M55,896l825,0l0,-24L55,872l0,24Z" class="g1_370" />
<path fill-rule="evenodd" d="M55,920l825,0l0,-24L55,896l0,24Z" class="g1_370" />
<path fill-rule="evenodd" d="M55,943l825,0l0,-23L55,920l0,23Z" class="g1_370" />
<path fill-rule="evenodd" d="M55,967l825,0l0,-24L55,943l0,24Z" class="g1_370" />
<path fill-rule="evenodd" d="M55,991l825,0l0,-24L55,967l0,24Z" class="g1_370" />
<path fill-rule="evenodd" d="M55,1015l825,0l0,-24L55,991l0,24Z" class="g1_370" />
<path fill-rule="evenodd" d="M55,1039l825,0l0,-24l-825,0l0,24Z" class="g1_370" />
<path fill-rule="evenodd" d="M55,1063l825,0l0,-24l-825,0l0,24Z" class="g1_370" />
<g clip-path="url(#c14_370)">
<path fill-rule="evenodd" d="M55,1086l825,0l0,-23l-825,0l0,23Z" class="g1_370" />
</g>
<path d="M46.5,824.5l0,-1" class="g2_370" />
<path d="M46.5,824.5l0,-1" class="g2_370" />
<path d="M47.5,824.5l840,0" class="g2_370" />
<path d="M887.5,824.5l0,-1" class="g2_370" />
<path d="M887.5,824.5l0,-1" class="g2_370" />
<path d="M46.5,1087.5l0,-263" class="g2_370" />
<path d="M46.5,1088.5l0,-1" class="g2_370" />
<path d="M46.5,1088.5l0,-1" class="g2_370" />
<path d="M47.5,1088.5l840,0" class="g2_370" />
<path d="M887.5,1087.5l0,-263" class="g2_370" />
<path d="M887.5,1088.5l0,-1" class="g2_370" />
<path d="M887.5,1088.5l0,-1" class="g2_370" />
</svg>