<?xml version="1.0" encoding="UTF-8" standalone="no"?>
<!DOCTYPE svg PUBLIC "-//W3C//DTD SVG 1.1//EN"
"http://www.w3.org/Graphics/SVG/1.1/DTD/svg11.dtd">
<svg version="1.1" xmlns="http://www.w3.org/2000/svg" xmlns:xlink="http://www.w3.org/1999/xlink">
<defs>
<clipPath id="c0_246"><path d="M54.5,313.5l0,-24l199,0l0,24Z" /></clipPath>
<clipPath id="c1_246"><path d="M254.5,313.5l0,-24l543,0l0,24Z" /></clipPath>
<clipPath id="c2_246"><path d="M797.5,313.5l0,-24l90,0l0,24Z" /></clipPath>
<style type="text/css"><![CDATA[
.g2_246{
fill: #D7D7D7;
}
.g3_246{
fill: none;
stroke: #000000;
stroke-width: 1;
stroke-linecap: butt;
stroke-linejoin: miter;
}
.g4_246{
fill: #FFFFFF;
}
.g1_246{
fill: none;
stroke: #0000FF;
stroke-width: 1;
stroke-linecap: butt;
stroke-linejoin: miter;
}
]]></style>
</defs>
<path d="M55.5,213.5l567,0" class="g1_246" />
<path fill-rule="evenodd" d="M54,313l199,0l0,-24L54,289l0,24Z" class="g2_246" />
<g clip-path="url(#c0_246)">
<path fill-rule="evenodd" d="M62,313l184,0l0,-24L62,289l0,24Z" class="g2_246" />
</g>
<path fill-rule="evenodd" d="M254,313l543,0l0,-24l-543,0l0,24Z" class="g2_246" />
<g clip-path="url(#c1_246)">
<path fill-rule="evenodd" d="M262,313l527,0l0,-24l-527,0l0,24Z" class="g2_246" />
</g>
<path fill-rule="evenodd" d="M797,313l90,0l0,-24l-90,0l0,24Z" class="g2_246" />
<g clip-path="url(#c2_246)">
<path fill-rule="evenodd" d="M805,313l74,0l0,-24l-74,0l0,24Z" class="g2_246" />
</g>
<path d="M53.5,289.5l0,-1" class="g3_246" />
<path d="M53.5,289.5l0,-1" class="g3_246" />
<path d="M54.5,289.5l200,0" class="g3_246" />
<path d="M254.5,289.5l0,-1" class="g3_246" />
<path d="M254.5,289.5l543,0" class="g3_246" />
<path d="M797.5,289.5l0,-1" class="g3_246" />
<path d="M798.5,289.5l89,0" class="g3_246" />
<path d="M887.5,289.5l0,-1" class="g3_246" />
<path d="M887.5,289.5l0,-1" class="g3_246" />
<path d="M53.5,313.5l0,-24" class="g3_246" />
<path d="M254.5,313.5l0,-24" class="g3_246" />
<path d="M797.5,313.5l0,-24" class="g3_246" />
<path d="M887.5,313.5l0,-24" class="g3_246" />
<path d="M53.5,314.5l0,-1" class="g3_246" />
<path d="M54.5,314.5l200,0" class="g3_246" />
<path d="M254.5,314.5l0,-1" class="g3_246" />
<path d="M254.5,314.5l543,0" class="g3_246" />
<path d="M797.5,314.5l0,-1" class="g3_246" />
<path d="M798.5,314.5l89,0" class="g3_246" />
<path d="M887.5,314.5l0,-1" class="g3_246" />
<path d="M53.5,347.5l0,-33" class="g3_246" />
<path d="M254.5,347.5l0,-33" class="g3_246" />
<path d="M797.5,347.5l0,-33" class="g3_246" />
<path d="M887.5,347.5l0,-33" class="g3_246" />
<path d="M53.5,348.5l0,-1" class="g3_246" />
<path d="M54.5,348.5l200,0" class="g3_246" />
<path d="M254.5,348.5l0,-1" class="g3_246" />
<path d="M254.5,348.5l543,0" class="g3_246" />
<path d="M797.5,348.5l0,-1" class="g3_246" />
<path d="M798.5,348.5l89,0" class="g3_246" />
<path d="M887.5,348.5l0,-1" class="g3_246" />
<path d="M53.5,420.5l0,-72" class="g3_246" />
<path d="M254.5,420.5l0,-72" class="g3_246" />
<path d="M797.5,420.5l0,-72" class="g3_246" />
<path d="M887.5,420.5l0,-72" class="g3_246" />
<path d="M54.5,420.5l200,0" class="g3_246" />
<path d="M254.5,420.5l543,0" class="g3_246" />
<path d="M798.5,420.5l89,0" class="g3_246" />
<path d="M53.5,452.5l0,-32" class="g3_246" />
<path d="M254.5,452.5l0,-32" class="g3_246" />
<path d="M797.5,452.5l0,-32" class="g3_246" />
<path d="M887.5,452.5l0,-32" class="g3_246" />
<path d="M53.5,453.5l0,-1" class="g3_246" />
<path d="M54.5,453.5l200,0" class="g3_246" />
<path d="M254.5,453.5l0,-1" class="g3_246" />
<path d="M254.5,453.5l543,0" class="g3_246" />
<path d="M797.5,453.5l0,-1" class="g3_246" />
<path d="M798.5,453.5l89,0" class="g3_246" />
<path d="M887.5,453.5l0,-1" class="g3_246" />
<path d="M53.5,481.5l0,-28" class="g3_246" />
<path d="M254.5,481.5l0,-28" class="g3_246" />
<path d="M797.5,481.5l0,-28" class="g3_246" />
<path d="M887.5,481.5l0,-28" class="g3_246" />
<path d="M53.5,482.5l0,-1" class="g3_246" />
<path d="M54.5,482.5l200,0" class="g3_246" />
<path d="M254.5,482.5l0,-1" class="g3_246" />
<path d="M254.5,482.5l543,0" class="g3_246" />
<path d="M797.5,482.5l0,-1" class="g3_246" />
<path d="M798.5,482.5l89,0" class="g3_246" />
<path d="M887.5,482.5l0,-1" class="g3_246" />
<path d="M53.5,505.5l0,-23" class="g3_246" />
<path d="M254.5,505.5l0,-23" class="g3_246" />
<path d="M797.5,505.5l0,-23" class="g3_246" />
<path d="M887.5,505.5l0,-23" class="g3_246" />
<path d="M53.5,506.5l0,-1" class="g3_246" />
<path d="M54.5,506.5l200,0" class="g3_246" />
<path d="M254.5,506.5l0,-1" class="g3_246" />
<path d="M254.5,506.5l543,0" class="g3_246" />
<path d="M797.5,506.5l0,-1" class="g3_246" />
<path d="M798.5,506.5l89,0" class="g3_246" />
<path d="M887.5,506.5l0,-1" class="g3_246" />
<path d="M53.5,530.5l0,-24" class="g3_246" />
<path d="M254.5,530.5l0,-24" class="g3_246" />
<path d="M797.5,530.5l0,-24" class="g3_246" />
<path d="M887.5,530.5l0,-24" class="g3_246" />
<path d="M53.5,531.5l0,-1" class="g3_246" />
<path d="M54.5,531.5l200,0" class="g3_246" />
<path d="M254.5,531.5l0,-1" class="g3_246" />
<path d="M254.5,531.5l543,0" class="g3_246" />
<path d="M797.5,531.5l0,-1" class="g3_246" />
<path d="M798.5,531.5l89,0" class="g3_246" />
<path d="M887.5,531.5l0,-1" class="g3_246" />
<path d="M53.5,555.5l0,-24" class="g3_246" />
<path d="M254.5,555.5l0,-24" class="g3_246" />
<path d="M797.5,555.5l0,-24" class="g3_246" />
<path d="M887.5,555.5l0,-24" class="g3_246" />
<path fill-rule="evenodd" d="M262,624l527,0l0,-18l-527,0l0,18Z" class="g4_246" />
<path fill-rule="evenodd" d="M262,647l360,0l0,-17l-360,0l0,17Z" class="g4_246" />
<path d="M54.5,555.5l200,0" class="g3_246" />
<path d="M254.5,555.5l543,0" class="g3_246" />
<path d="M798.5,555.5l89,0" class="g3_246" />
<path d="M53.5,651.5l0,-96" class="g3_246" />
<path d="M254.5,651.5l0,-96" class="g3_246" />
<path d="M797.5,651.5l0,-96" class="g3_246" />
<path d="M887.5,651.5l0,-96" class="g3_246" />
<path fill-rule="evenodd" d="M262,720l527,0l0,-18l-527,0l0,18Z" class="g4_246" />
<path fill-rule="evenodd" d="M262,743l360,0l0,-17l-360,0l0,17Z" class="g4_246" />
<path d="M54.5,651.5l200,0" class="g3_246" />
<path d="M254.5,651.5l543,0" class="g3_246" />
<path d="M798.5,651.5l89,0" class="g3_246" />
<path d="M53.5,747.5l0,-96" class="g3_246" />
<path d="M254.5,747.5l0,-96" class="g3_246" />
<path d="M797.5,747.5l0,-96" class="g3_246" />
<path d="M887.5,747.5l0,-96" class="g3_246" />
<path d="M54.5,747.5l200,0" class="g3_246" />
<path d="M254.5,747.5l543,0" class="g3_246" />
<path d="M798.5,747.5l89,0" class="g3_246" />
<path d="M53.5,771.5l0,-24" class="g3_246" />
<path d="M254.5,771.5l0,-24" class="g3_246" />
<path d="M797.5,771.5l0,-24" class="g3_246" />
<path d="M887.5,771.5l0,-24" class="g3_246" />
<path d="M53.5,772.5l0,-1" class="g3_246" />
<path d="M54.5,772.5l200,0" class="g3_246" />
<path d="M254.5,772.5l0,-1" class="g3_246" />
<path d="M254.5,772.5l543,0" class="g3_246" />
<path d="M797.5,772.5l0,-1" class="g3_246" />
<path d="M798.5,772.5l89,0" class="g3_246" />
<path d="M887.5,772.5l0,-1" class="g3_246" />
<path d="M53.5,801.5l0,-29" class="g3_246" />
<path d="M254.5,801.5l0,-29" class="g3_246" />
<path d="M797.5,801.5l0,-29" class="g3_246" />
<path d="M887.5,801.5l0,-29" class="g3_246" />
<path d="M53.5,802.5l0,-1" class="g3_246" />
<path d="M54.5,802.5l200,0" class="g3_246" />
<path d="M254.5,802.5l0,-1" class="g3_246" />
<path d="M254.5,802.5l543,0" class="g3_246" />
<path d="M797.5,802.5l0,-1" class="g3_246" />
<path d="M798.5,802.5l89,0" class="g3_246" />
<path d="M887.5,802.5l0,-1" class="g3_246" />
<path d="M53.5,828.5l0,-26" class="g3_246" />
<path d="M254.5,828.5l0,-26" class="g3_246" />
<path d="M797.5,828.5l0,-26" class="g3_246" />
<path d="M887.5,828.5l0,-26" class="g3_246" />
<path d="M53.5,829.5l0,-1" class="g3_246" />
<path d="M54.5,829.5l200,0" class="g3_246" />
<path d="M254.5,829.5l0,-1" class="g3_246" />
<path d="M254.5,829.5l543,0" class="g3_246" />
<path d="M797.5,829.5l0,-1" class="g3_246" />
<path d="M798.5,829.5l89,0" class="g3_246" />
<path d="M887.5,829.5l0,-1" class="g3_246" />
<path d="M53.5,877.5l0,-48" class="g3_246" />
<path d="M254.5,877.5l0,-48" class="g3_246" />
<path d="M797.5,877.5l0,-48" class="g3_246" />
<path d="M887.5,877.5l0,-48" class="g3_246" />
<path d="M53.5,878.5l0,-1" class="g3_246" />
<path d="M54.5,878.5l200,0" class="g3_246" />
<path d="M254.5,878.5l0,-1" class="g3_246" />
<path d="M254.5,878.5l543,0" class="g3_246" />
<path d="M797.5,878.5l0,-1" class="g3_246" />
<path d="M798.5,878.5l89,0" class="g3_246" />
<path d="M887.5,878.5l0,-1" class="g3_246" />
<path d="M53.5,904.5l0,-26" class="g3_246" />
<path d="M254.5,904.5l0,-26" class="g3_246" />
<path d="M797.5,904.5l0,-26" class="g3_246" />
<path d="M887.5,904.5l0,-26" class="g3_246" />
<path d="M53.5,905.5l0,-1" class="g3_246" />
<path d="M54.5,905.5l200,0" class="g3_246" />
<path d="M254.5,905.5l0,-1" class="g3_246" />
<path d="M254.5,905.5l543,0" class="g3_246" />
<path d="M797.5,905.5l0,-1" class="g3_246" />
<path d="M798.5,905.5l89,0" class="g3_246" />
<path d="M887.5,905.5l0,-1" class="g3_246" />
<path d="M53.5,932.5l0,-27" class="g3_246" />
<path d="M254.5,932.5l0,-27" class="g3_246" />
<path d="M797.5,932.5l0,-27" class="g3_246" />
<path d="M887.5,932.5l0,-27" class="g3_246" />
<path d="M53.5,933.5l0,-1" class="g3_246" />
<path d="M54.5,933.5l200,0" class="g3_246" />
<path d="M254.5,933.5l0,-1" class="g3_246" />
<path d="M254.5,933.5l543,0" class="g3_246" />
<path d="M797.5,933.5l0,-1" class="g3_246" />
<path d="M798.5,933.5l89,0" class="g3_246" />
<path d="M887.5,933.5l0,-1" class="g3_246" />
<path d="M53.5,959.5l0,-26" class="g3_246" />
<path d="M254.5,959.5l0,-26" class="g3_246" />
<path d="M797.5,959.5l0,-26" class="g3_246" />
<path d="M887.5,959.5l0,-26" class="g3_246" />
<path d="M53.5,960.5l0,-1" class="g3_246" />
<path d="M54.5,960.5l200,0" class="g3_246" />
<path d="M254.5,960.5l0,-1" class="g3_246" />
<path d="M254.5,960.5l543,0" class="g3_246" />
<path d="M797.5,960.5l0,-1" class="g3_246" />
<path d="M798.5,960.5l89,0" class="g3_246" />
<path d="M887.5,960.5l0,-1" class="g3_246" />
<path d="M53.5,987.5l0,-27" class="g3_246" />
<path d="M53.5,988.5l0,-1" class="g3_246" />
<path d="M53.5,988.5l0,-1" class="g3_246" />
<path d="M54.5,988.5l200,0" class="g3_246" />
<path d="M254.5,987.5l0,-27" class="g3_246" />
<path d="M254.5,988.5l0,-1" class="g3_246" />
<path d="M254.5,988.5l543,0" class="g3_246" />
<path d="M797.5,987.5l0,-27" class="g3_246" />
<path d="M797.5,988.5l0,-1" class="g3_246" />
<path d="M798.5,988.5l89,0" class="g3_246" />
<path d="M887.5,987.5l0,-27" class="g3_246" />
<path d="M887.5,988.5l0,-1" class="g3_246" />
<path d="M887.5,988.5l0,-1" class="g3_246" />
</svg>