<?xml version="1.0" encoding="UTF-8" standalone="no"?>
<!DOCTYPE svg PUBLIC "-//W3C//DTD SVG 1.1//EN"
"http://www.w3.org/Graphics/SVG/1.1/DTD/svg11.dtd">
<svg version="1.1" xmlns="http://www.w3.org/2000/svg" xmlns:xlink="http://www.w3.org/1999/xlink">
<defs>
<clipPath id="c0_485"><path d="M151.5,135.5l0,-24l736,0l0,24Z" /></clipPath>
<clipPath id="c1_485"><path d="M47.5,208.5l0,-72l102,0l0,72Z" /></clipPath>
<clipPath id="c2_485"><path d="M151.5,208.5l0,-72l736,0l0,72Z" /></clipPath>
<clipPath id="c3_485"><path d="M47.5,257.5l0,-48l102,0l0,48Z" /></clipPath>
<clipPath id="c4_485"><path d="M151.5,257.5l0,-48l736,0l0,48Z" /></clipPath>
<clipPath id="c5_485"><path d="M47.5,330.5l0,-71l102,0l0,71Z" /></clipPath>
<clipPath id="c6_485"><path d="M151.5,330.5l0,-71l736,0l0,71Z" /></clipPath>
<clipPath id="c7_485"><path d="M47.5,379.5l0,-47l102,0l0,47Z" /></clipPath>
<clipPath id="c8_485"><path d="M151.5,379.5l0,-47l736,0l0,47Z" /></clipPath>
<clipPath id="c9_485"><path d="M47.5,429.5l0,-48l102,0l0,48Z" /></clipPath>
<clipPath id="c10_485"><path d="M151.5,429.5l0,-48l736,0l0,48Z" /></clipPath>
<clipPath id="c11_485"><path d="M47.5,551.5l0,-72l102,0l0,72Z" /></clipPath>
<clipPath id="c12_485"><path d="M151.5,551.5l0,-72l736,0l0,72Z" /></clipPath>
<clipPath id="c13_485"><path d="M47.5,665.5l0,-24l102,0l0,24Z" /></clipPath>
<clipPath id="c14_485"><path d="M151.5,665.5l0,-24l736,0l0,24Z" /></clipPath>
<clipPath id="c15_485"><path d="M47.5,690.5l0,-23l102,0l0,23Z" /></clipPath>
<clipPath id="c16_485"><path d="M151.5,690.5l0,-23l736,0l0,23Z" /></clipPath>
<clipPath id="c17_485"><path d="M47.5,716.5l0,-24l102,0l0,24Z" /></clipPath>
<clipPath id="c18_485"><path d="M151.5,716.5l0,-24l736,0l0,24Z" /></clipPath>
<clipPath id="c19_485"><path d="M47.5,741.5l0,-24l102,0l0,24Z" /></clipPath>
<clipPath id="c20_485"><path d="M151.5,741.5l0,-24l736,0l0,24Z" /></clipPath>
<clipPath id="c21_485"><path d="M47.5,767.5l0,-24l102,0l0,24Z" /></clipPath>
<clipPath id="c22_485"><path d="M151.5,767.5l0,-24l736,0l0,24Z" /></clipPath>
<clipPath id="c23_485"><path d="M47.5,792.5l0,-24l102,0l0,24Z" /></clipPath>
<clipPath id="c24_485"><path d="M151.5,792.5l0,-24l736,0l0,24Z" /></clipPath>
<clipPath id="c25_485"><path d="M47.5,841.5l0,-48l102,0l0,48Z" /></clipPath>
<clipPath id="c26_485"><path d="M151.5,841.5l0,-48l736,0l0,48Z" /></clipPath>
<clipPath id="c27_485"><path d="M47.5,866.5l0,-23l102,0l0,23Z" /></clipPath>
<clipPath id="c28_485"><path d="M151.5,866.5l0,-23l736,0l0,23Z" /></clipPath>
<clipPath id="c29_485"><path d="M47.5,892.5l0,-24l102,0l0,24Z" /></clipPath>
<clipPath id="c30_485"><path d="M151.5,892.5l0,-24l736,0l0,24Z" /></clipPath>
<clipPath id="c31_485"><path d="M47.5,917.5l0,-24l102,0l0,24Z" /></clipPath>
<clipPath id="c32_485"><path d="M151.5,917.5l0,-24l736,0l0,24Z" /></clipPath>
<clipPath id="c33_485"><path d="M47.5,943.5l0,-24l102,0l0,24Z" /></clipPath>
<clipPath id="c34_485"><path d="M151.5,943.5l0,-24l736,0l0,24Z" /></clipPath>
<clipPath id="c35_485"><path d="M47.5,968.5l0,-24l102,0l0,24Z" /></clipPath>
<clipPath id="c36_485"><path d="M151.5,968.5l0,-24l736,0l0,24Z" /></clipPath>
<clipPath id="c37_485"><path d="M47.5,993.5l0,-24l102,0l0,24Z" /></clipPath>
<clipPath id="c38_485"><path d="M151.5,993.5l0,-24l736,0l0,24Z" /></clipPath>
<clipPath id="c39_485"><path d="M151.5,1090.5l0,-95l736,0l0,95Z" /></clipPath>
<style type="text/css"><![CDATA[
.g2_485{
fill: none;
stroke: #7E7E7E;
stroke-width: 1;
stroke-linecap: butt;
stroke-linejoin: miter;
}
.g3_485{
fill: #DBE5F1;
}
.g1_485{
fill: #F1F1F1;
}
]]></style>
</defs>
<path fill-rule="evenodd" d="M47,135l102,0l0,-24L47,111l0,24Z" class="g1_485" />
<path fill-rule="evenodd" d="M151,135l736,0l0,-24l-736,0l0,24Z" class="g1_485" />
<g clip-path="url(#c0_485)">
<path fill-rule="evenodd" d="M158,135l722,0l0,-24l-722,0l0,24Z" class="g1_485" />
</g>
<path d="M46.5,111.5l0,-1" class="g2_485" />
<path d="M46.5,111.5l0,-1" class="g2_485" />
<path d="M47.5,111.5l102,0" class="g2_485" />
<path d="M149.5,111.5l0,-1" class="g2_485" />
<path d="M151.5,111.5l736,0" class="g2_485" />
<path d="M887.5,111.5l0,-1" class="g2_485" />
<path d="M887.5,111.5l0,-1" class="g2_485" />
<path d="M46.5,135.5l0,-24" class="g2_485" />
<path d="M149.5,135.5l0,-24" class="g2_485" />
<path d="M887.5,135.5l0,-24" class="g2_485" />
<path fill-rule="evenodd" d="M47,208l102,0l0,-72L47,136l0,72Z" class="g1_485" />
<g clip-path="url(#c1_485)">
<path fill-rule="evenodd" d="M55,160l87,0l0,-24l-87,0l0,24Z" class="g1_485" />
</g>
<path fill-rule="evenodd" d="M151,208l736,0l0,-72l-736,0l0,72Z" class="g1_485" />
<g clip-path="url(#c2_485)">
<path fill-rule="evenodd" d="M158,160l722,0l0,-24l-722,0l0,24Z" class="g1_485" />
</g>
<path fill-rule="evenodd" d="M158,184l722,0l0,-24l-722,0l0,24Z" class="g1_485" />
<path fill-rule="evenodd" d="M158,208l722,0l0,-24l-722,0l0,24Z" class="g1_485" />
<path d="M46.5,136.5l0,-1" class="g2_485" />
<path d="M47.5,136.5l102,0" class="g2_485" />
<path d="M149.5,136.5l0,-1" class="g2_485" />
<path d="M151.5,136.5l736,0" class="g2_485" />
<path d="M887.5,136.5l0,-1" class="g2_485" />
<path d="M46.5,208.5l0,-72" class="g2_485" />
<path d="M149.5,208.5l0,-72" class="g2_485" />
<path d="M887.5,208.5l0,-72" class="g2_485" />
<path fill-rule="evenodd" d="M47,257l102,0l0,-48L47,209l0,48Z" class="g1_485" />
<g clip-path="url(#c3_485)">
<path fill-rule="evenodd" d="M55,233l87,0l0,-24l-87,0l0,24Z" class="g1_485" />
</g>
<path fill-rule="evenodd" d="M151,257l736,0l0,-48l-736,0l0,48Z" class="g1_485" />
<g clip-path="url(#c4_485)">
<path fill-rule="evenodd" d="M158,233l722,0l0,-24l-722,0l0,24Z" class="g1_485" />
</g>
<path fill-rule="evenodd" d="M158,257l722,0l0,-24l-722,0l0,24Z" class="g1_485" />
<path d="M46.5,209.5l0,-1" class="g2_485" />
<path d="M47.5,209.5l102,0" class="g2_485" />
<path d="M149.5,209.5l0,-1" class="g2_485" />
<path d="M151.5,209.5l736,0" class="g2_485" />
<path d="M887.5,209.5l0,-1" class="g2_485" />
<path d="M46.5,257.5l0,-48" class="g2_485" />
<path d="M149.5,257.5l0,-48" class="g2_485" />
<path d="M887.5,257.5l0,-48" class="g2_485" />
<path fill-rule="evenodd" d="M47,330l102,0l0,-71L47,259l0,71Z" class="g1_485" />
<g clip-path="url(#c5_485)">
<path fill-rule="evenodd" d="M55,282l87,0l0,-23l-87,0l0,23Z" class="g1_485" />
</g>
<path fill-rule="evenodd" d="M151,330l736,0l0,-71l-736,0l0,71Z" class="g1_485" />
<g clip-path="url(#c6_485)">
<path fill-rule="evenodd" d="M158,282l722,0l0,-23l-722,0l0,23Z" class="g1_485" />
</g>
<path fill-rule="evenodd" d="M158,306l722,0l0,-24l-722,0l0,24Z" class="g1_485" />
<path fill-rule="evenodd" d="M158,330l722,0l0,-24l-722,0l0,24Z" class="g1_485" />
<path d="M46.5,259.5l0,-2" class="g2_485" />
<path d="M47.5,259.5l102,0" class="g2_485" />
<path d="M149.5,259.5l0,-2" class="g2_485" />
<path d="M151.5,259.5l736,0" class="g2_485" />
<path d="M887.5,259.5l0,-2" class="g2_485" />
<path d="M46.5,330.5l0,-71" class="g2_485" />
<path d="M149.5,330.5l0,-71" class="g2_485" />
<path d="M887.5,330.5l0,-71" class="g2_485" />
<path fill-rule="evenodd" d="M47,379l102,0l0,-47L47,332l0,47Z" class="g1_485" />
<g clip-path="url(#c7_485)">
<path fill-rule="evenodd" d="M55,356l87,0l0,-24l-87,0l0,24Z" class="g1_485" />
</g>
<path fill-rule="evenodd" d="M151,379l736,0l0,-47l-736,0l0,47Z" class="g1_485" />
<g clip-path="url(#c8_485)">
<path fill-rule="evenodd" d="M158,356l722,0l0,-24l-722,0l0,24Z" class="g1_485" />
</g>
<path fill-rule="evenodd" d="M158,379l722,0l0,-23l-722,0l0,23Z" class="g1_485" />
<path d="M46.5,332.5l0,-2" class="g2_485" />
<path d="M47.5,332.5l102,0" class="g2_485" />
<path d="M149.5,332.5l0,-2" class="g2_485" />
<path d="M151.5,332.5l736,0" class="g2_485" />
<path d="M887.5,332.5l0,-2" class="g2_485" />
<path d="M46.5,379.5l0,-47" class="g2_485" />
<path d="M149.5,379.5l0,-47" class="g2_485" />
<path d="M887.5,379.5l0,-47" class="g2_485" />
<path fill-rule="evenodd" d="M47,429l102,0l0,-48L47,381l0,48Z" class="g1_485" />
<g clip-path="url(#c9_485)">
<path fill-rule="evenodd" d="M55,405l87,0l0,-24l-87,0l0,24Z" class="g1_485" />
</g>
<path fill-rule="evenodd" d="M151,429l736,0l0,-48l-736,0l0,48Z" class="g1_485" />
<g clip-path="url(#c10_485)">
<path fill-rule="evenodd" d="M158,405l722,0l0,-24l-722,0l0,24Z" class="g1_485" />
</g>
<path fill-rule="evenodd" d="M158,429l722,0l0,-24l-722,0l0,24Z" class="g1_485" />
<path d="M46.5,381.5l0,-2" class="g2_485" />
<path d="M47.5,381.5l102,0" class="g2_485" />
<path d="M149.5,381.5l0,-2" class="g2_485" />
<path d="M151.5,381.5l736,0" class="g2_485" />
<path d="M887.5,381.5l0,-2" class="g2_485" />
<path d="M46.5,429.5l0,-48" class="g2_485" />
<path d="M149.5,429.5l0,-48" class="g2_485" />
<path d="M887.5,429.5l0,-48" class="g2_485" />
<path fill-rule="evenodd" d="M47,478l102,0l0,-48L47,430l0,48Z" class="g1_485" />
<path fill-rule="evenodd" d="M55,454l87,0l0,-24l-87,0l0,24Z" class="g1_485" />
<path fill-rule="evenodd" d="M151,478l736,0l0,-48l-736,0l0,48Z" class="g1_485" />
<path fill-rule="evenodd" d="M158,454l722,0l0,-24l-722,0l0,24Z" class="g1_485" />
<path fill-rule="evenodd" d="M158,478l722,0l0,-24l-722,0l0,24Z" class="g1_485" />
<path d="M46.5,430.5l0,-1" class="g2_485" />
<path d="M47.5,430.5l102,0" class="g2_485" />
<path d="M149.5,430.5l0,-1" class="g2_485" />
<path d="M151.5,430.5l736,0" class="g2_485" />
<path d="M887.5,430.5l0,-1" class="g2_485" />
<path d="M46.5,478.5l0,-48" class="g2_485" />
<path d="M149.5,478.5l0,-48" class="g2_485" />
<path d="M887.5,478.5l0,-48" class="g2_485" />
<path fill-rule="evenodd" d="M47,551l102,0l0,-72L47,479l0,72Z" class="g1_485" />
<g clip-path="url(#c11_485)">
<path fill-rule="evenodd" d="M55,503l87,0l0,-24l-87,0l0,24Z" class="g1_485" />
</g>
<path fill-rule="evenodd" d="M151,551l736,0l0,-72l-736,0l0,72Z" class="g1_485" />
<g clip-path="url(#c12_485)">
<path fill-rule="evenodd" d="M158,503l722,0l0,-24l-722,0l0,24Z" class="g1_485" />
</g>
<path fill-rule="evenodd" d="M158,527l722,0l0,-24l-722,0l0,24Z" class="g1_485" />
<path fill-rule="evenodd" d="M158,551l722,0l0,-24l-722,0l0,24Z" class="g1_485" />
<path d="M46.5,479.5l0,-1" class="g2_485" />
<path d="M47.5,479.5l102,0" class="g2_485" />
<path d="M149.5,479.5l0,-1" class="g2_485" />
<path d="M151.5,479.5l736,0" class="g2_485" />
<path d="M887.5,479.5l0,-1" class="g2_485" />
<path d="M46.5,551.5l0,-72" class="g2_485" />
<path d="M46.5,552.5l0,-1" class="g2_485" />
<path d="M46.5,552.5l0,-1" class="g2_485" />
<path d="M47.5,552.5l102,0" class="g2_485" />
<path d="M149.5,551.5l0,-72" class="g2_485" />
<path d="M149.5,552.5l0,-1" class="g2_485" />
<path d="M151.5,552.5l736,0" class="g2_485" />
<path d="M887.5,551.5l0,-72" class="g2_485" />
<path d="M887.5,552.5l0,-1" class="g2_485" />
<path d="M887.5,552.5l0,-1" class="g2_485" />
<path fill-rule="evenodd" d="M47,665l102,0l0,-24L47,641l0,24Z" class="g3_485" />
<g clip-path="url(#c13_485)">
<path fill-rule="evenodd" d="M55,665l87,0l0,-24l-87,0l0,24Z" class="g3_485" />
</g>
<path fill-rule="evenodd" d="M151,665l736,0l0,-24l-736,0l0,24Z" class="g3_485" />
<g clip-path="url(#c14_485)">
<path fill-rule="evenodd" d="M158,665l722,0l0,-24l-722,0l0,24Z" class="g3_485" />
</g>
<path d="M46.5,641.5l0,-1" class="g2_485" />
<path d="M46.5,641.5l0,-1" class="g2_485" />
<path d="M47.5,641.5l102,0" class="g2_485" />
<path d="M149.5,641.5l0,-1" class="g2_485" />
<path d="M151.5,641.5l736,0" class="g2_485" />
<path d="M887.5,641.5l0,-1" class="g2_485" />
<path d="M887.5,641.5l0,-1" class="g2_485" />
<path d="M46.5,665.5l0,-24" class="g2_485" />
<path d="M149.5,665.5l0,-24" class="g2_485" />
<path d="M887.5,665.5l0,-24" class="g2_485" />
<path fill-rule="evenodd" d="M47,690l102,0l0,-23L47,667l0,23Z" class="g1_485" />
<g clip-path="url(#c15_485)">
<path fill-rule="evenodd" d="M55,690l87,0l0,-23l-87,0l0,23Z" class="g1_485" />
</g>
<path fill-rule="evenodd" d="M151,690l736,0l0,-23l-736,0l0,23Z" class="g1_485" />
<g clip-path="url(#c16_485)">
<path fill-rule="evenodd" d="M158,690l722,0l0,-23l-722,0l0,23Z" class="g1_485" />
</g>
<path d="M46.5,667.5l0,-2" class="g2_485" />
<path d="M47.5,667.5l102,0" class="g2_485" />
<path d="M149.5,667.5l0,-2" class="g2_485" />
<path d="M151.5,667.5l736,0" class="g2_485" />
<path d="M887.5,667.5l0,-2" class="g2_485" />
<path d="M46.5,690.5l0,-23" class="g2_485" />
<path d="M149.5,690.5l0,-23" class="g2_485" />
<path d="M887.5,690.5l0,-23" class="g2_485" />
<path fill-rule="evenodd" d="M47,716l102,0l0,-24L47,692l0,24Z" class="g1_485" />
<g clip-path="url(#c17_485)">
<path fill-rule="evenodd" d="M55,716l87,0l0,-24l-87,0l0,24Z" class="g1_485" />
</g>
<path fill-rule="evenodd" d="M151,716l736,0l0,-24l-736,0l0,24Z" class="g1_485" />
<g clip-path="url(#c18_485)">
<path fill-rule="evenodd" d="M158,716l722,0l0,-24l-722,0l0,24Z" class="g1_485" />
</g>
<path d="M46.5,692.5l0,-2" class="g2_485" />
<path d="M47.5,692.5l102,0" class="g2_485" />
<path d="M149.5,692.5l0,-2" class="g2_485" />
<path d="M151.5,692.5l736,0" class="g2_485" />
<path d="M887.5,692.5l0,-2" class="g2_485" />
<path d="M46.5,716.5l0,-24" class="g2_485" />
<path d="M149.5,716.5l0,-24" class="g2_485" />
<path d="M887.5,716.5l0,-24" class="g2_485" />
<path fill-rule="evenodd" d="M47,741l102,0l0,-24L47,717l0,24Z" class="g1_485" />
<g clip-path="url(#c19_485)">
<path fill-rule="evenodd" d="M55,741l87,0l0,-24l-87,0l0,24Z" class="g1_485" />
</g>
<path fill-rule="evenodd" d="M151,741l736,0l0,-24l-736,0l0,24Z" class="g1_485" />
<g clip-path="url(#c20_485)">
<path fill-rule="evenodd" d="M158,741l722,0l0,-24l-722,0l0,24Z" class="g1_485" />
</g>
<path d="M46.5,717.5l0,-1" class="g2_485" />
<path d="M47.5,717.5l102,0" class="g2_485" />
<path d="M149.5,717.5l0,-1" class="g2_485" />
<path d="M151.5,717.5l736,0" class="g2_485" />
<path d="M887.5,717.5l0,-1" class="g2_485" />
<path d="M46.5,741.5l0,-24" class="g2_485" />
<path d="M149.5,741.5l0,-24" class="g2_485" />
<path d="M887.5,741.5l0,-24" class="g2_485" />
<path fill-rule="evenodd" d="M47,766l102,0l0,-23L47,743l0,23Z" class="g1_485" />
<g clip-path="url(#c21_485)">
<path fill-rule="evenodd" d="M55,766l87,0l0,-23l-87,0l0,23Z" class="g1_485" />
</g>
<path fill-rule="evenodd" d="M151,766l736,0l0,-23l-736,0l0,23Z" class="g1_485" />
<g clip-path="url(#c22_485)">
<path fill-rule="evenodd" d="M158,766l722,0l0,-23l-722,0l0,23Z" class="g1_485" />
</g>
<path d="M46.5,743.5l0,-2" class="g2_485" />
<path d="M47.5,743.5l102,0" class="g2_485" />
<path d="M149.5,743.5l0,-2" class="g2_485" />
<path d="M151.5,743.5l736,0" class="g2_485" />
<path d="M887.5,743.5l0,-2" class="g2_485" />
<path d="M46.5,766.5l0,-23" class="g2_485" />
<path d="M149.5,766.5l0,-23" class="g2_485" />
<path d="M887.5,766.5l0,-23" class="g2_485" />
<path fill-rule="evenodd" d="M47,792l102,0l0,-24L47,768l0,24Z" class="g1_485" />
<g clip-path="url(#c23_485)">
<path fill-rule="evenodd" d="M55,792l87,0l0,-24l-87,0l0,24Z" class="g1_485" />
</g>
<path fill-rule="evenodd" d="M151,792l736,0l0,-24l-736,0l0,24Z" class="g1_485" />
<g clip-path="url(#c24_485)">
<path fill-rule="evenodd" d="M158,792l722,0l0,-24l-722,0l0,24Z" class="g1_485" />
</g>
<path d="M46.5,768.5l0,-2" class="g2_485" />
<path d="M47.5,768.5l102,0" class="g2_485" />
<path d="M149.5,768.5l0,-2" class="g2_485" />
<path d="M151.5,768.5l736,0" class="g2_485" />
<path d="M887.5,768.5l0,-2" class="g2_485" />
<path d="M46.5,792.5l0,-24" class="g2_485" />
<path d="M149.5,792.5l0,-24" class="g2_485" />
<path d="M887.5,792.5l0,-24" class="g2_485" />
<path fill-rule="evenodd" d="M47,841l102,0l0,-48L47,793l0,48Z" class="g1_485" />
<g clip-path="url(#c25_485)">
<path fill-rule="evenodd" d="M55,817l87,0l0,-24l-87,0l0,24Z" class="g1_485" />
</g>
<path fill-rule="evenodd" d="M151,841l736,0l0,-48l-736,0l0,48Z" class="g1_485" />
<g clip-path="url(#c26_485)">
<path fill-rule="evenodd" d="M158,817l722,0l0,-24l-722,0l0,24Z" class="g1_485" />
</g>
<path fill-rule="evenodd" d="M158,841l722,0l0,-24l-722,0l0,24Z" class="g1_485" />
<path d="M46.5,793.5l0,-1" class="g2_485" />
<path d="M47.5,793.5l102,0" class="g2_485" />
<path d="M149.5,793.5l0,-1" class="g2_485" />
<path d="M151.5,793.5l736,0" class="g2_485" />
<path d="M887.5,793.5l0,-1" class="g2_485" />
<path d="M46.5,841.5l0,-48" class="g2_485" />
<path d="M149.5,841.5l0,-48" class="g2_485" />
<path d="M887.5,841.5l0,-48" class="g2_485" />
<path fill-rule="evenodd" d="M47,866l102,0l0,-23L47,843l0,23Z" class="g1_485" />
<g clip-path="url(#c27_485)">
<path fill-rule="evenodd" d="M55,866l87,0l0,-23l-87,0l0,23Z" class="g1_485" />
</g>
<path fill-rule="evenodd" d="M151,866l736,0l0,-23l-736,0l0,23Z" class="g1_485" />
<g clip-path="url(#c28_485)">
<path fill-rule="evenodd" d="M158,866l722,0l0,-23l-722,0l0,23Z" class="g1_485" />
</g>
<path d="M46.5,843.5l0,-2" class="g2_485" />
<path d="M47.5,843.5l102,0" class="g2_485" />
<path d="M149.5,843.5l0,-2" class="g2_485" />
<path d="M151.5,843.5l736,0" class="g2_485" />
<path d="M887.5,843.5l0,-2" class="g2_485" />
<path d="M46.5,866.5l0,-23" class="g2_485" />
<path d="M149.5,866.5l0,-23" class="g2_485" />
<path d="M887.5,866.5l0,-23" class="g2_485" />
<path fill-rule="evenodd" d="M47,892l102,0l0,-24L47,868l0,24Z" class="g1_485" />
<g clip-path="url(#c29_485)">
<path fill-rule="evenodd" d="M55,892l87,0l0,-24l-87,0l0,24Z" class="g1_485" />
</g>
<path fill-rule="evenodd" d="M151,892l736,0l0,-24l-736,0l0,24Z" class="g1_485" />
<g clip-path="url(#c30_485)">
<path fill-rule="evenodd" d="M158,892l722,0l0,-24l-722,0l0,24Z" class="g1_485" />
</g>
<path d="M46.5,868.5l0,-2" class="g2_485" />
<path d="M47.5,868.5l102,0" class="g2_485" />
<path d="M149.5,868.5l0,-2" class="g2_485" />
<path d="M151.5,868.5l736,0" class="g2_485" />
<path d="M887.5,868.5l0,-2" class="g2_485" />
<path d="M46.5,892.5l0,-24" class="g2_485" />
<path d="M149.5,892.5l0,-24" class="g2_485" />
<path d="M887.5,892.5l0,-24" class="g2_485" />
<path fill-rule="evenodd" d="M47,917l102,0l0,-24L47,893l0,24Z" class="g1_485" />
<g clip-path="url(#c31_485)">
<path fill-rule="evenodd" d="M55,917l87,0l0,-24l-87,0l0,24Z" class="g1_485" />
</g>
<path fill-rule="evenodd" d="M151,917l736,0l0,-24l-736,0l0,24Z" class="g1_485" />
<g clip-path="url(#c32_485)">
<path fill-rule="evenodd" d="M158,917l722,0l0,-24l-722,0l0,24Z" class="g1_485" />
</g>
<path d="M46.5,893.5l0,-1" class="g2_485" />
<path d="M47.5,893.5l102,0" class="g2_485" />
<path d="M149.5,893.5l0,-1" class="g2_485" />
<path d="M151.5,893.5l736,0" class="g2_485" />
<path d="M887.5,893.5l0,-1" class="g2_485" />
<path d="M46.5,917.5l0,-24" class="g2_485" />
<path d="M149.5,917.5l0,-24" class="g2_485" />
<path d="M887.5,917.5l0,-24" class="g2_485" />
<path fill-rule="evenodd" d="M47,943l102,0l0,-24L47,919l0,24Z" class="g1_485" />
<g clip-path="url(#c33_485)">
<path fill-rule="evenodd" d="M55,943l87,0l0,-24l-87,0l0,24Z" class="g1_485" />
</g>
<path fill-rule="evenodd" d="M151,943l736,0l0,-24l-736,0l0,24Z" class="g1_485" />
<g clip-path="url(#c34_485)">
<path fill-rule="evenodd" d="M158,943l722,0l0,-24l-722,0l0,24Z" class="g1_485" />
</g>
<path d="M46.5,919.5l0,-2" class="g2_485" />
<path d="M47.5,919.5l102,0" class="g2_485" />
<path d="M149.5,919.5l0,-2" class="g2_485" />
<path d="M151.5,919.5l736,0" class="g2_485" />
<path d="M887.5,919.5l0,-2" class="g2_485" />
<path d="M46.5,943.5l0,-24" class="g2_485" />
<path d="M149.5,943.5l0,-24" class="g2_485" />
<path d="M887.5,943.5l0,-24" class="g2_485" />
<path fill-rule="evenodd" d="M47,968l102,0l0,-24L47,944l0,24Z" class="g1_485" />
<g clip-path="url(#c35_485)">
<path fill-rule="evenodd" d="M55,968l87,0l0,-24l-87,0l0,24Z" class="g1_485" />
</g>
<path fill-rule="evenodd" d="M151,968l736,0l0,-24l-736,0l0,24Z" class="g1_485" />
<g clip-path="url(#c36_485)">
<path fill-rule="evenodd" d="M158,968l722,0l0,-24l-722,0l0,24Z" class="g1_485" />
</g>
<path d="M46.5,944.5l0,-1" class="g2_485" />
<path d="M47.5,944.5l102,0" class="g2_485" />
<path d="M149.5,944.5l0,-1" class="g2_485" />
<path d="M151.5,944.5l736,0" class="g2_485" />
<path d="M887.5,944.5l0,-1" class="g2_485" />
<path d="M46.5,968.5l0,-24" class="g2_485" />
<path d="M149.5,968.5l0,-24" class="g2_485" />
<path d="M887.5,968.5l0,-24" class="g2_485" />
<path fill-rule="evenodd" d="M47,993l102,0l0,-24L47,969l0,24Z" class="g1_485" />
<g clip-path="url(#c37_485)">
<path fill-rule="evenodd" d="M55,993l87,0l0,-24l-87,0l0,24Z" class="g1_485" />
</g>
<path fill-rule="evenodd" d="M151,993l736,0l0,-24l-736,0l0,24Z" class="g1_485" />
<g clip-path="url(#c38_485)">
<path fill-rule="evenodd" d="M158,993l722,0l0,-24l-722,0l0,24Z" class="g1_485" />
</g>
<path d="M46.5,969.5l0,-1" class="g2_485" />
<path d="M47.5,969.5l102,0" class="g2_485" />
<path d="M149.5,969.5l0,-1" class="g2_485" />
<path d="M151.5,969.5l736,0" class="g2_485" />
<path d="M887.5,969.5l0,-1" class="g2_485" />
<path d="M46.5,993.5l0,-24" class="g2_485" />
<path d="M149.5,993.5l0,-24" class="g2_485" />
<path d="M887.5,993.5l0,-24" class="g2_485" />
<path fill-rule="evenodd" d="M47,1090l102,0l0,-95L47,995l0,95Z" class="g1_485" />
<path fill-rule="evenodd" d="M55,1019l87,0l0,-24l-87,0l0,24Z" class="g1_485" />
<path fill-rule="evenodd" d="M151,1090l736,0l0,-95l-736,0l0,95Z" class="g1_485" />
<path fill-rule="evenodd" d="M158,1019l722,0l0,-24l-722,0l0,24Z" class="g1_485" />
<path fill-rule="evenodd" d="M158,1042l722,0l0,-23l-722,0l0,23Z" class="g1_485" />
<path fill-rule="evenodd" d="M158,1066l722,0l0,-24l-722,0l0,24Z" class="g1_485" />
<g clip-path="url(#c39_485)">
<path fill-rule="evenodd" d="M158,1090l722,0l0,-24l-722,0l0,24Z" class="g1_485" />
</g>
<path d="M46.5,995.5l0,-2" class="g2_485" />
<path d="M47.5,995.5l102,0" class="g2_485" />
<path d="M149.5,995.5l0,-2" class="g2_485" />
<path d="M151.5,995.5l736,0" class="g2_485" />
<path d="M887.5,995.5l0,-2" class="g2_485" />
<path d="M46.5,1090.5l0,-95" class="g2_485" />
<path d="M46.5,1092.5l0,-2" class="g2_485" />
<path d="M46.5,1092.5l0,-2" class="g2_485" />
<path d="M47.5,1092.5l102,0" class="g2_485" />
<path d="M149.5,1090.5l0,-95" class="g2_485" />
<path d="M149.5,1092.5l0,-2" class="g2_485" />
<path d="M151.5,1092.5l736,0" class="g2_485" />
<path d="M887.5,1090.5l0,-95" class="g2_485" />
<path d="M887.5,1092.5l0,-2" class="g2_485" />
<path d="M887.5,1092.5l0,-2" class="g2_485" />
</svg>