<?xml version="1.0" encoding="UTF-8" standalone="no"?>
<!DOCTYPE svg PUBLIC "-//W3C//DTD SVG 1.1//EN"
"http://www.w3.org/Graphics/SVG/1.1/DTD/svg11.dtd">
<svg version="1.1" xmlns="http://www.w3.org/2000/svg" xmlns:xlink="http://www.w3.org/1999/xlink">
<defs>
<clipPath id="c0_154"><path d="M47.5,230.5l0,-95l840,0l0,95Z" /></clipPath>
<clipPath id="c1_154"><path d="M47.5,850.5l0,-23l840,0l0,23Z" /></clipPath>
<clipPath id="c2_154"><path d="M47.5,957.5l0,-23l178,0l0,23Z" /></clipPath>
<clipPath id="c3_154"><path d="M227.5,957.5l0,-23l162,0l0,23Z" /></clipPath>
<clipPath id="c4_154"><path d="M391.5,957.5l0,-23l496,0l0,23Z" /></clipPath>
<clipPath id="c5_154"><path d="M47.5,983.5l0,-24l178,0l0,24Z" /></clipPath>
<clipPath id="c6_154"><path d="M227.5,983.5l0,-24l162,0l0,24Z" /></clipPath>
<clipPath id="c7_154"><path d="M391.5,983.5l0,-24l496,0l0,24Z" /></clipPath>
<clipPath id="c8_154"><path d="M47.5,1057.5l0,-24l177,0l0,24Z" /></clipPath>
<clipPath id="c9_154"><path d="M226.5,1057.5l0,-24l162,0l0,24Z" /></clipPath>
<clipPath id="c10_154"><path d="M390.5,1057.5l0,-24l163,0l0,24Z" /></clipPath>
<clipPath id="c11_154"><path d="M554.5,1057.5l0,-24l163,0l0,24Z" /></clipPath>
<clipPath id="c12_154"><path d="M719.5,1057.5l0,-24l168,0l0,24Z" /></clipPath>
<clipPath id="c13_154"><path d="M47.5,1083.5l0,-24l177,0l0,24Z" /></clipPath>
<clipPath id="c14_154"><path d="M226.5,1083.5l0,-24l162,0l0,24Z" /></clipPath>
<clipPath id="c15_154"><path d="M390.5,1083.5l0,-24l163,0l0,24Z" /></clipPath>
<clipPath id="c16_154"><path d="M554.5,1083.5l0,-24l163,0l0,24Z" /></clipPath>
<clipPath id="c17_154"><path d="M719.5,1083.5l0,-24l168,0l0,24Z" /></clipPath>
<style type="text/css"><![CDATA[
.g2_154{
fill: none;
stroke: #7E7E7E;
stroke-width: 1;
stroke-linecap: butt;
stroke-linejoin: miter;
}
.g3_154{
fill: none;
stroke: #0000FF;
stroke-width: 1;
stroke-linecap: butt;
stroke-linejoin: miter;
}
.g4_154{
fill: #DBE5F1;
}
.g1_154{
fill: #F1F1F1;
}
]]></style>
</defs>
<path fill-rule="evenodd" d="M47,230l840,0l0,-95L47,135l0,95Z" class="g1_154" />
<g clip-path="url(#c0_154)">
<path fill-rule="evenodd" d="M55,159l825,0l0,-24L55,135l0,24Z" class="g1_154" />
</g>
<path fill-rule="evenodd" d="M55,182l825,0l0,-23L55,159l0,23Z" class="g1_154" />
<path fill-rule="evenodd" d="M55,206l825,0l0,-24L55,182l0,24Z" class="g1_154" />
<path fill-rule="evenodd" d="M55,230l825,0l0,-24L55,206l0,24Z" class="g1_154" />
<path d="M46.5,135.5l0,-2" class="g2_154" />
<path d="M46.5,135.5l0,-2" class="g2_154" />
<path d="M47.5,135.5l840,0" class="g2_154" />
<path d="M887.5,135.5l0,-2" class="g2_154" />
<path d="M887.5,135.5l0,-2" class="g2_154" />
<path d="M46.5,230.5l0,-95" class="g2_154" />
<path d="M46.5,232.5l0,-2" class="g2_154" />
<path d="M46.5,232.5l0,-2" class="g2_154" />
<path d="M47.5,232.5l840,0" class="g2_154" />
<path d="M887.5,230.5l0,-95" class="g2_154" />
<path d="M887.5,232.5l0,-2" class="g2_154" />
<path d="M887.5,232.5l0,-2" class="g2_154" />
<path d="M102.5,434.5l177,0" class="g3_154" />
<path d="M102.5,458.5l328,0" class="g3_154" />
<path d="M102.5,482.5l182,0" class="g3_154" />
<path d="M102.5,506.5l231,0" class="g3_154" />
<path d="M102.5,530.5l149,0" class="g3_154" />
<path d="M102.5,554.5l167,0" class="g3_154" />
<path fill-rule="evenodd" d="M47,850l840,0l0,-23L47,827l0,23Z" class="g1_154" />
<g clip-path="url(#c1_154)">
<path fill-rule="evenodd" d="M55,850l825,0l0,-23L55,827l0,23Z" class="g1_154" />
</g>
<path d="M46.5,826.5l0,-1" class="g2_154" />
<path d="M46.5,826.5l0,-1" class="g2_154" />
<path d="M47.5,826.5l840,0" class="g2_154" />
<path d="M887.5,826.5l0,-1" class="g2_154" />
<path d="M887.5,826.5l0,-1" class="g2_154" />
<path d="M46.5,850.5l0,-24" class="g2_154" />
<path d="M46.5,852.5l0,-2" class="g2_154" />
<path d="M46.5,852.5l0,-2" class="g2_154" />
<path d="M47.5,852.5l840,0" class="g2_154" />
<path d="M887.5,850.5l0,-24" class="g2_154" />
<path d="M887.5,852.5l0,-2" class="g2_154" />
<path d="M887.5,852.5l0,-2" class="g2_154" />
<path fill-rule="evenodd" d="M47,957l178,0l0,-23L47,934l0,23Z" class="g4_154" />
<g clip-path="url(#c2_154)">
<path fill-rule="evenodd" d="M55,957l163,0l0,-23L55,934l0,23Z" class="g4_154" />
</g>
<path fill-rule="evenodd" d="M226,957l163,0l0,-23l-163,0l0,23Z" class="g4_154" />
<g clip-path="url(#c3_154)">
<path fill-rule="evenodd" d="M234,957l148,0l0,-23l-148,0l0,23Z" class="g4_154" />
</g>
<path fill-rule="evenodd" d="M391,957l496,0l0,-23l-496,0l0,23Z" class="g4_154" />
<g clip-path="url(#c4_154)">
<path fill-rule="evenodd" d="M398,957l482,0l0,-23l-482,0l0,23Z" class="g4_154" />
</g>
<path d="M46.5,934.5l0,-2" class="g2_154" />
<path d="M46.5,934.5l0,-2" class="g2_154" />
<path d="M47.5,934.5l178,0" class="g2_154" />
<path d="M225.5,934.5l0,-2" class="g2_154" />
<path d="M226.5,934.5l163,0" class="g2_154" />
<path d="M389.5,934.5l0,-2" class="g2_154" />
<path d="M391.5,934.5l496,0" class="g2_154" />
<path d="M887.5,934.5l0,-2" class="g2_154" />
<path d="M887.5,934.5l0,-2" class="g2_154" />
<path d="M46.5,957.5l0,-23" class="g2_154" />
<path d="M225.5,957.5l0,-23" class="g2_154" />
<path d="M389.5,957.5l0,-23" class="g2_154" />
<path d="M887.5,957.5l0,-23" class="g2_154" />
<path fill-rule="evenodd" d="M47,983l178,0l0,-24L47,959l0,24Z" class="g1_154" />
<g clip-path="url(#c5_154)">
<path fill-rule="evenodd" d="M55,983l163,0l0,-24L55,959l0,24Z" class="g1_154" />
</g>
<path fill-rule="evenodd" d="M226,983l163,0l0,-24l-163,0l0,24Z" class="g1_154" />
<g clip-path="url(#c6_154)">
<path fill-rule="evenodd" d="M234,983l148,0l0,-24l-148,0l0,24Z" class="g1_154" />
</g>
<path fill-rule="evenodd" d="M391,983l496,0l0,-24l-496,0l0,24Z" class="g1_154" />
<g clip-path="url(#c7_154)">
<path fill-rule="evenodd" d="M398,983l482,0l0,-24l-482,0l0,24Z" class="g1_154" />
</g>
<path d="M46.5,959.5l0,-2" class="g2_154" />
<path d="M47.5,959.5l178,0" class="g2_154" />
<path d="M225.5,959.5l0,-2" class="g2_154" />
<path d="M226.5,959.5l163,0" class="g2_154" />
<path d="M389.5,959.5l0,-2" class="g2_154" />
<path d="M391.5,959.5l496,0" class="g2_154" />
<path d="M887.5,959.5l0,-2" class="g2_154" />
<path d="M46.5,983.5l0,-24" class="g2_154" />
<path d="M46.5,984.5l0,-1" class="g2_154" />
<path d="M46.5,984.5l0,-1" class="g2_154" />
<path d="M47.5,984.5l178,0" class="g2_154" />
<path d="M225.5,983.5l0,-24" class="g2_154" />
<path d="M225.5,984.5l0,-1" class="g2_154" />
<path d="M226.5,984.5l163,0" class="g2_154" />
<path d="M389.5,983.5l0,-24" class="g2_154" />
<path d="M389.5,984.5l0,-1" class="g2_154" />
<path d="M391.5,984.5l496,0" class="g2_154" />
<path d="M887.5,983.5l0,-24" class="g2_154" />
<path d="M887.5,984.5l0,-1" class="g2_154" />
<path d="M887.5,984.5l0,-1" class="g2_154" />
<path fill-rule="evenodd" d="M47,1057l177,0l0,-24l-177,0l0,24Z" class="g4_154" />
<g clip-path="url(#c8_154)">
<path fill-rule="evenodd" d="M55,1057l162,0l0,-24l-162,0l0,24Z" class="g4_154" />
</g>
<path fill-rule="evenodd" d="M226,1057l162,0l0,-24l-162,0l0,24Z" class="g4_154" />
<g clip-path="url(#c9_154)">
<path fill-rule="evenodd" d="M233,1057l148,0l0,-24l-148,0l0,24Z" class="g4_154" />
</g>
<path fill-rule="evenodd" d="M390,1057l163,0l0,-24l-163,0l0,24Z" class="g4_154" />
<g clip-path="url(#c10_154)">
<path fill-rule="evenodd" d="M397,1057l148,0l0,-24l-148,0l0,24Z" class="g4_154" />
</g>
<path fill-rule="evenodd" d="M554,1057l163,0l0,-24l-163,0l0,24Z" class="g4_154" />
<g clip-path="url(#c11_154)">
<path fill-rule="evenodd" d="M562,1057l148,0l0,-24l-148,0l0,24Z" class="g4_154" />
</g>
<path fill-rule="evenodd" d="M719,1057l168,0l0,-24l-168,0l0,24Z" class="g4_154" />
<g clip-path="url(#c12_154)">
<path fill-rule="evenodd" d="M726,1057l154,0l0,-24l-154,0l0,24Z" class="g4_154" />
</g>
<path d="M46.5,1033.5l0,-1" class="g2_154" />
<path d="M46.5,1033.5l0,-1" class="g2_154" />
<path d="M47.5,1033.5l177,0" class="g2_154" />
<path d="M224.5,1033.5l0,-1" class="g2_154" />
<path d="M226.5,1033.5l162,0" class="g2_154" />
<path d="M388.5,1033.5l0,-1" class="g2_154" />
<path d="M390.5,1033.5l163,0" class="g2_154" />
<path d="M553.5,1033.5l0,-1" class="g2_154" />
<path d="M554.5,1033.5l163,0" class="g2_154" />
<path d="M717.5,1033.5l0,-1" class="g2_154" />
<path d="M719.5,1033.5l168,0" class="g2_154" />
<path d="M887.5,1033.5l0,-1" class="g2_154" />
<path d="M887.5,1033.5l0,-1" class="g2_154" />
<path d="M46.5,1057.5l0,-24" class="g2_154" />
<path d="M224.5,1057.5l0,-24" class="g2_154" />
<path d="M388.5,1057.5l0,-24" class="g2_154" />
<path d="M553.5,1057.5l0,-24" class="g2_154" />
<path d="M717.5,1057.5l0,-24" class="g2_154" />
<path d="M887.5,1057.5l0,-24" class="g2_154" />
<path fill-rule="evenodd" d="M47,1083l177,0l0,-24l-177,0l0,24Z" class="g1_154" />
<g clip-path="url(#c13_154)">
<path fill-rule="evenodd" d="M55,1083l162,0l0,-24l-162,0l0,24Z" class="g1_154" />
</g>
<path fill-rule="evenodd" d="M226,1083l162,0l0,-24l-162,0l0,24Z" class="g1_154" />
<g clip-path="url(#c14_154)">
<path fill-rule="evenodd" d="M233,1083l148,0l0,-24l-148,0l0,24Z" class="g1_154" />
</g>
<path fill-rule="evenodd" d="M390,1083l163,0l0,-24l-163,0l0,24Z" class="g1_154" />
<g clip-path="url(#c15_154)">
<path fill-rule="evenodd" d="M397,1083l148,0l0,-24l-148,0l0,24Z" class="g1_154" />
</g>
<path fill-rule="evenodd" d="M554,1083l163,0l0,-24l-163,0l0,24Z" class="g1_154" />
<g clip-path="url(#c16_154)">
<path fill-rule="evenodd" d="M562,1083l148,0l0,-24l-148,0l0,24Z" class="g1_154" />
</g>
<path fill-rule="evenodd" d="M719,1083l168,0l0,-24l-168,0l0,24Z" class="g1_154" />
<g clip-path="url(#c17_154)">
<path fill-rule="evenodd" d="M726,1083l154,0l0,-24l-154,0l0,24Z" class="g1_154" />
</g>
<path d="M46.5,1059.5l0,-2" class="g2_154" />
<path d="M47.5,1059.5l177,0" class="g2_154" />
<path d="M224.5,1059.5l0,-2" class="g2_154" />
<path d="M226.5,1059.5l162,0" class="g2_154" />
<path d="M388.5,1059.5l0,-2" class="g2_154" />
<path d="M390.5,1059.5l163,0" class="g2_154" />
<path d="M553.5,1059.5l0,-2" class="g2_154" />
<path d="M554.5,1059.5l163,0" class="g2_154" />
<path d="M717.5,1059.5l0,-2" class="g2_154" />
<path d="M719.5,1059.5l168,0" class="g2_154" />
<path d="M887.5,1059.5l0,-2" class="g2_154" />
<path d="M46.5,1083.5l0,-24" class="g2_154" />
<path d="M46.5,1084.5l0,-1" class="g2_154" />
<path d="M46.5,1084.5l0,-1" class="g2_154" />
<path d="M47.5,1084.5l177,0" class="g2_154" />
<path d="M224.5,1083.5l0,-24" class="g2_154" />
<path d="M224.5,1084.5l0,-1" class="g2_154" />
<path d="M226.5,1084.5l162,0" class="g2_154" />
<path d="M388.5,1083.5l0,-24" class="g2_154" />
<path d="M388.5,1084.5l0,-1" class="g2_154" />
<path d="M390.5,1084.5l163,0" class="g2_154" />
<path d="M553.5,1083.5l0,-24" class="g2_154" />
<path d="M553.5,1084.5l0,-1" class="g2_154" />
<path d="M554.5,1084.5l163,0" class="g2_154" />
<path d="M717.5,1083.5l0,-24" class="g2_154" />
<path d="M717.5,1084.5l0,-1" class="g2_154" />
<path d="M719.5,1084.5l168,0" class="g2_154" />
<path d="M887.5,1083.5l0,-24" class="g2_154" />
<path d="M887.5,1084.5l0,-1" class="g2_154" />
<path d="M887.5,1084.5l0,-1" class="g2_154" />
</svg>