<?xml version="1.0" encoding="UTF-8" standalone="no"?>
<!DOCTYPE svg PUBLIC "-//W3C//DTD SVG 1.1//EN"
"http://www.w3.org/Graphics/SVG/1.1/DTD/svg11.dtd">
<svg version="1.1" xmlns="http://www.w3.org/2000/svg" xmlns:xlink="http://www.w3.org/1999/xlink">
<defs>
<clipPath id="c0_221"><path d="M47.5,564.5l0,-453l840,0l0,453Z" /></clipPath>
<clipPath id="c1_221"><path d="M817.5,717.5l0,-48l71,0l0,48Z" /></clipPath>
<style type="text/css"><![CDATA[
.g2_221{
fill: none;
stroke: #7E7E7E;
stroke-width: 1;
stroke-linecap: butt;
stroke-linejoin: miter;
}
.g4_221{
fill: none;
stroke: #000000;
stroke-width: 1;
stroke-linecap: butt;
stroke-linejoin: miter;
}
.g3_221{
fill: #D7D7D7;
}
.g1_221{
fill: #F1F1F1;
}
]]></style>
</defs>
<path fill-rule="evenodd" d="M47,564l840,0l0,-453L47,111l0,453Z" class="g1_221" />
<g clip-path="url(#c0_221)">
<path fill-rule="evenodd" d="M55,135l825,0l0,-24L55,111l0,24Z" class="g1_221" />
</g>
<path fill-rule="evenodd" d="M55,159l825,0l0,-24L55,135l0,24Z" class="g1_221" />
<path fill-rule="evenodd" d="M55,182l825,0l0,-23L55,159l0,23Z" class="g1_221" />
<path fill-rule="evenodd" d="M55,206l825,0l0,-24L55,182l0,24Z" class="g1_221" />
<path fill-rule="evenodd" d="M55,230l825,0l0,-24L55,206l0,24Z" class="g1_221" />
<path fill-rule="evenodd" d="M55,254l825,0l0,-24L55,230l0,24Z" class="g1_221" />
<path fill-rule="evenodd" d="M55,278l825,0l0,-24L55,254l0,24Z" class="g1_221" />
<path fill-rule="evenodd" d="M55,302l825,0l0,-24L55,278l0,24Z" class="g1_221" />
<path fill-rule="evenodd" d="M55,325l825,0l0,-23L55,302l0,23Z" class="g1_221" />
<path fill-rule="evenodd" d="M55,349l825,0l0,-24L55,325l0,24Z" class="g1_221" />
<path fill-rule="evenodd" d="M55,373l825,0l0,-24L55,349l0,24Z" class="g1_221" />
<path fill-rule="evenodd" d="M55,397l825,0l0,-24L55,373l0,24Z" class="g1_221" />
<path fill-rule="evenodd" d="M55,421l825,0l0,-24L55,397l0,24Z" class="g1_221" />
<path fill-rule="evenodd" d="M55,445l825,0l0,-24L55,421l0,24Z" class="g1_221" />
<path fill-rule="evenodd" d="M55,469l825,0l0,-24L55,445l0,24Z" class="g1_221" />
<path fill-rule="evenodd" d="M55,492l825,0l0,-23L55,469l0,23Z" class="g1_221" />
<path fill-rule="evenodd" d="M55,516l825,0l0,-24L55,492l0,24Z" class="g1_221" />
<path fill-rule="evenodd" d="M55,540l825,0l0,-24L55,516l0,24Z" class="g1_221" />
<path fill-rule="evenodd" d="M55,564l825,0l0,-24L55,540l0,24Z" class="g1_221" />
<path d="M46.5,111.5l0,-1" class="g2_221" />
<path d="M46.5,111.5l0,-1" class="g2_221" />
<path d="M47.5,111.5l840,0" class="g2_221" />
<path d="M887.5,111.5l0,-1" class="g2_221" />
<path d="M887.5,111.5l0,-1" class="g2_221" />
<path d="M46.5,564.5l0,-453" class="g2_221" />
<path d="M46.5,566.5l0,-2" class="g2_221" />
<path d="M46.5,566.5l0,-2" class="g2_221" />
<path d="M47.5,566.5l840,0" class="g2_221" />
<path d="M887.5,564.5l0,-453" class="g2_221" />
<path d="M887.5,566.5l0,-2" class="g2_221" />
<path d="M887.5,566.5l0,-2" class="g2_221" />
<path fill-rule="evenodd" d="M54,717l347,0l0,-48L54,669l0,48Z" class="g3_221" />
<path fill-rule="evenodd" d="M62,705l331,0l0,-24L62,681l0,24Z" class="g3_221" />
<path fill-rule="evenodd" d="M402,717l78,0l0,-48l-78,0l0,48Z" class="g3_221" />
<path fill-rule="evenodd" d="M409,705l64,0l0,-24l-64,0l0,24Z" class="g3_221" />
<path fill-rule="evenodd" d="M481,717l335,0l0,-48l-335,0l0,48Z" class="g3_221" />
<path fill-rule="evenodd" d="M489,705l320,0l0,-24l-320,0l0,24Z" class="g3_221" />
<path fill-rule="evenodd" d="M818,717l70,0l0,-48l-70,0l0,48Z" class="g3_221" />
<g clip-path="url(#c1_221)">
<path fill-rule="evenodd" d="M825,693l55,0l0,-24l-55,0l0,24Z" class="g3_221" />
</g>
<path fill-rule="evenodd" d="M825,717l55,0l0,-24l-55,0l0,24Z" class="g3_221" />
<path d="M53.5,669.5l0,-1" class="g4_221" />
<path d="M53.5,669.5l0,-1" class="g4_221" />
<path d="M54.5,669.5l347,0" class="g4_221" />
<path d="M401.5,669.5l0,-1" class="g4_221" />
<path d="M401.5,669.5l79,0" class="g4_221" />
<path d="M480.5,669.5l0,-1" class="g4_221" />
<path d="M481.5,669.5l335,0" class="g4_221" />
<path d="M816.5,669.5l0,-1" class="g4_221" />
<path d="M817.5,669.5l71,0" class="g4_221" />
<path d="M888.5,669.5l0,-1" class="g4_221" />
<path d="M888.5,669.5l0,-1" class="g4_221" />
<path d="M53.5,717.5l0,-48" class="g4_221" />
<path d="M401.5,717.5l0,-48" class="g4_221" />
<path d="M480.5,717.5l0,-48" class="g4_221" />
<path d="M816.5,717.5l0,-48" class="g4_221" />
<path d="M888.5,717.5l0,-48" class="g4_221" />
<path d="M53.5,718.5l0,-1" class="g4_221" />
<path d="M54.5,718.5l347,0" class="g4_221" />
<path d="M401.5,718.5l0,-1" class="g4_221" />
<path d="M402.5,718.5l78,0" class="g4_221" />
<path d="M480.5,718.5l0,-1" class="g4_221" />
<path d="M481.5,718.5l335,0" class="g4_221" />
<path d="M816.5,718.5l0,-1" class="g4_221" />
<path d="M818.5,718.5l70,0" class="g4_221" />
<path d="M888.5,718.5l0,-1" class="g4_221" />
<path d="M53.5,765.5l0,-47" class="g4_221" />
<path d="M401.5,765.5l0,-47" class="g4_221" />
<path d="M480.5,765.5l0,-47" class="g4_221" />
<path d="M816.5,765.5l0,-47" class="g4_221" />
<path d="M888.5,765.5l0,-47" class="g4_221" />
<path d="M53.5,766.5l0,-1" class="g4_221" />
<path d="M54.5,766.5l347,0" class="g4_221" />
<path d="M401.5,766.5l0,-1" class="g4_221" />
<path d="M402.5,766.5l78,0" class="g4_221" />
<path d="M480.5,766.5l0,-1" class="g4_221" />
<path d="M481.5,766.5l335,0" class="g4_221" />
<path d="M816.5,766.5l0,-1" class="g4_221" />
<path d="M818.5,766.5l70,0" class="g4_221" />
<path d="M888.5,766.5l0,-1" class="g4_221" />
<path d="M53.5,790.5l0,-24" class="g4_221" />
<path d="M401.5,790.5l0,-24" class="g4_221" />
<path d="M480.5,790.5l0,-24" class="g4_221" />
<path d="M816.5,790.5l0,-24" class="g4_221" />
<path d="M888.5,790.5l0,-24" class="g4_221" />
<path d="M53.5,791.5l0,-1" class="g4_221" />
<path d="M54.5,791.5l38,0" class="g4_221" />
<path d="M92.5,791.5l0,-1" class="g4_221" />
<path d="M94.5,791.5l38,0" class="g4_221" />
<path d="M132.5,791.5l0,-1" class="g4_221" />
<path d="M133.5,791.5l39,0" class="g4_221" />
<path d="M171.5,791.5l0,-1" class="g4_221" />
<path d="M173.5,791.5l228,0" class="g4_221" />
<path d="M401.5,791.5l0,-1" class="g4_221" />
<path d="M402.5,791.5l78,0" class="g4_221" />
<path d="M480.5,791.5l0,-1" class="g4_221" />
<path d="M481.5,791.5l335,0" class="g4_221" />
<path d="M816.5,791.5l0,-1" class="g4_221" />
<path d="M818.5,791.5l70,0" class="g4_221" />
<path d="M888.5,791.5l0,-1" class="g4_221" />
<path d="M53.5,1078.5l0,-287" class="g4_221" />
<path d="M54.5,1078.5l38,0" class="g4_221" />
<path d="M92.5,1078.5l0,-287" class="g4_221" />
<path d="M93.5,1078.5l39,0" class="g4_221" />
<path d="M132.5,1078.5l0,-287" class="g4_221" />
<path d="M133.5,1078.5l39,0" class="g4_221" />
<path d="M171.5,1078.5l0,-287" class="g4_221" />
<path d="M172.5,1078.5l229,0" class="g4_221" />
<path d="M401.5,1078.5l0,-287" class="g4_221" />
<path d="M401.5,1078.5l79,0" class="g4_221" />
<path d="M480.5,1078.5l0,-287" class="g4_221" />
<path d="M481.5,1078.5l335,0" class="g4_221" />
<path d="M816.5,1078.5l0,-287" class="g4_221" />
<path d="M817.5,1078.5l71,0" class="g4_221" />
<path d="M888.5,1078.5l0,-287" class="g4_221" />
</svg>