<?xml version="1.0" encoding="UTF-8" standalone="no"?>
<!DOCTYPE svg PUBLIC "-//W3C//DTD SVG 1.1//EN"
"http://www.w3.org/Graphics/SVG/1.1/DTD/svg11.dtd">
<svg version="1.1" xmlns="http://www.w3.org/2000/svg" xmlns:xlink="http://www.w3.org/1999/xlink">
<defs>
<clipPath id="c0_475"><path d="M200.5,302.5l0,-191l260,0l0,191Z" /></clipPath>
<clipPath id="c1_475"><path d="M461.5,302.5l0,-191l68,0l0,191Z" /></clipPath>
<clipPath id="c2_475"><path d="M530.5,302.5l0,-191l356,0l0,191Z" /></clipPath>
<clipPath id="c3_475"><path d="M200.5,327.5l0,-24l260,0l0,24Z" /></clipPath>
<clipPath id="c4_475"><path d="M461.5,327.5l0,-24l68,0l0,24Z" /></clipPath>
<clipPath id="c5_475"><path d="M530.5,327.5l0,-24l356,0l0,24Z" /></clipPath>
<clipPath id="c6_475"><path d="M200.5,352.5l0,-23l260,0l0,23Z" /></clipPath>
<clipPath id="c7_475"><path d="M461.5,352.5l0,-23l68,0l0,23Z" /></clipPath>
<clipPath id="c8_475"><path d="M530.5,352.5l0,-23l356,0l0,23Z" /></clipPath>
<clipPath id="c9_475"><path d="M200.5,378.5l0,-24l260,0l0,24Z" /></clipPath>
<clipPath id="c10_475"><path d="M461.5,378.5l0,-24l68,0l0,24Z" /></clipPath>
<clipPath id="c11_475"><path d="M530.5,378.5l0,-24l356,0l0,24Z" /></clipPath>
<clipPath id="c12_475"><path d="M200.5,403.5l0,-24l260,0l0,24Z" /></clipPath>
<clipPath id="c13_475"><path d="M461.5,403.5l0,-24l68,0l0,24Z" /></clipPath>
<clipPath id="c14_475"><path d="M530.5,403.5l0,-24l356,0l0,24Z" /></clipPath>
<clipPath id="c15_475"><path d="M530.5,958.5l0,-310l356,0l0,310Z" /></clipPath>
<clipPath id="c16_475"><path d="M530.5,1007.5l0,-48l356,0l0,48Z" /></clipPath>
<clipPath id="c17_475"><path d="M200.5,1088.5l0,-80l66,0l0,80Z" /></clipPath>
<clipPath id="c18_475"><path d="M267.5,1088.5l0,-80l39,0l0,80Z" /></clipPath>
<clipPath id="c19_475"><path d="M308.5,1032.5l0,-24l152,0l0,24Z" /></clipPath>
<clipPath id="c20_475"><path d="M461.5,1032.5l0,-24l68,0l0,24Z" /></clipPath>
<clipPath id="c21_475"><path d="M530.5,1032.5l0,-24l356,0l0,24Z" /></clipPath>
<style type="text/css"><![CDATA[
.g2_475{
fill: none;
stroke: #7E7E7E;
stroke-width: 1;
stroke-linecap: butt;
stroke-linejoin: miter;
}
.g3_475{
fill: none;
stroke: #0000FF;
stroke-width: 1;
stroke-linecap: butt;
stroke-linejoin: miter;
}
.g1_475{
fill: #F1F1F1;
}
]]></style>
</defs>
<path fill-rule="evenodd" d="M47,302l34,0L81,111l-34,0l0,191Z" class="g1_475" />
<path fill-rule="evenodd" d="M83,302l33,0l0,-191l-33,0l0,191Z" class="g1_475" />
<path fill-rule="evenodd" d="M117,302l40,0l0,-191l-40,0l0,191Z" class="g1_475" />
<path fill-rule="evenodd" d="M158,302l40,0l0,-191l-40,0l0,191Z" class="g1_475" />
<path fill-rule="evenodd" d="M200,302l260,0l0,-191l-260,0l0,191Z" class="g1_475" />
<g clip-path="url(#c0_475)">
<path fill-rule="evenodd" d="M207,135l245,0l0,-24l-245,0l0,24Z" class="g1_475" />
</g>
<path fill-rule="evenodd" d="M461,302l68,0l0,-191l-68,0l0,191Z" class="g1_475" />
<g clip-path="url(#c1_475)">
<path fill-rule="evenodd" d="M469,135l52,0l0,-24l-52,0l0,24Z" class="g1_475" />
</g>
<path fill-rule="evenodd" d="M530,302l356,0l0,-191l-356,0l0,191Z" class="g1_475" />
<g clip-path="url(#c2_475)">
<path fill-rule="evenodd" d="M538,135l340,0l0,-24l-340,0l0,24Z" class="g1_475" />
</g>
<path fill-rule="evenodd" d="M538,159l340,0l0,-24l-340,0l0,24Z" class="g1_475" />
<path fill-rule="evenodd" d="M538,182l340,0l0,-23l-340,0l0,23Z" class="g1_475" />
<path fill-rule="evenodd" d="M538,206l340,0l0,-24l-340,0l0,24Z" class="g1_475" />
<path fill-rule="evenodd" d="M538,230l340,0l0,-24l-340,0l0,24Z" class="g1_475" />
<path fill-rule="evenodd" d="M538,254l340,0l0,-24l-340,0l0,24Z" class="g1_475" />
<path fill-rule="evenodd" d="M538,278l340,0l0,-24l-340,0l0,24Z" class="g1_475" />
<path fill-rule="evenodd" d="M538,302l340,0l0,-24l-340,0l0,24Z" class="g1_475" />
<path d="M46.5,111.5l0,-1" class="g2_475" />
<path d="M46.5,111.5l0,-1" class="g2_475" />
<path d="M47.5,111.5l34,0" class="g2_475" />
<path d="M81.5,111.5l0,-1" class="g2_475" />
<path d="M83.5,111.5l33,0" class="g2_475" />
<path d="M116.5,111.5l0,-1" class="g2_475" />
<path d="M117.5,111.5l40,0" class="g2_475" />
<path d="M157.5,111.5l0,-1" class="g2_475" />
<path d="M158.5,111.5l40,0" class="g2_475" />
<path d="M198.5,111.5l0,-1" class="g2_475" />
<path d="M200.5,111.5l260,0" class="g2_475" />
<path d="M460.5,111.5l0,-1" class="g2_475" />
<path d="M461.5,111.5l68,0" class="g2_475" />
<path d="M529.5,111.5l0,-1" class="g2_475" />
<path d="M530.5,111.5l356,0" class="g2_475" />
<path d="M886.5,111.5l0,-1" class="g2_475" />
<path d="M886.5,111.5l0,-1" class="g2_475" />
<path d="M46.5,302.5l0,-191" class="g2_475" />
<path d="M81.5,302.5l0,-191" class="g2_475" />
<path d="M116.5,302.5l0,-191" class="g2_475" />
<path d="M157.5,302.5l0,-191" class="g2_475" />
<path d="M198.5,302.5l0,-191" class="g2_475" />
<path d="M460.5,302.5l0,-191" class="g2_475" />
<path d="M529.5,302.5l0,-191" class="g2_475" />
<path d="M886.5,302.5l0,-191" class="g2_475" />
<path fill-rule="evenodd" d="M47,327l34,0l0,-25l-34,0l0,25Z" class="g1_475" />
<path fill-rule="evenodd" d="M83,327l33,0l0,-25l-33,0l0,25Z" class="g1_475" />
<path fill-rule="evenodd" d="M117,327l40,0l0,-25l-40,0l0,25Z" class="g1_475" />
<path fill-rule="evenodd" d="M158,327l40,0l0,-25l-40,0l0,25Z" class="g1_475" />
<path fill-rule="evenodd" d="M200,327l260,0l0,-24l-260,0l0,24Z" class="g1_475" />
<g clip-path="url(#c3_475)">
<path fill-rule="evenodd" d="M207,327l245,0l0,-24l-245,0l0,24Z" class="g1_475" />
</g>
<path fill-rule="evenodd" d="M461,327l68,0l0,-24l-68,0l0,24Z" class="g1_475" />
<g clip-path="url(#c4_475)">
<path fill-rule="evenodd" d="M469,327l52,0l0,-24l-52,0l0,24Z" class="g1_475" />
</g>
<path fill-rule="evenodd" d="M530,327l356,0l0,-24l-356,0l0,24Z" class="g1_475" />
<g clip-path="url(#c5_475)">
<path fill-rule="evenodd" d="M538,327l340,0l0,-24l-340,0l0,24Z" class="g1_475" />
</g>
<path d="M46.5,303.5l0,-1" class="g2_475" />
<path d="M81.5,303.5l0,-1" class="g2_475" />
<path d="M116.5,303.5l0,-1" class="g2_475" />
<path d="M157.5,303.5l0,-1" class="g2_475" />
<path d="M198.5,303.5l0,-1" class="g2_475" />
<path d="M200.5,303.5l260,0" class="g2_475" />
<path d="M460.5,303.5l0,-1" class="g2_475" />
<path d="M461.5,303.5l68,0" class="g2_475" />
<path d="M529.5,303.5l0,-1" class="g2_475" />
<path d="M530.5,303.5l356,0" class="g2_475" />
<path d="M886.5,303.5l0,-1" class="g2_475" />
<path d="M46.5,327.5l0,-24" class="g2_475" />
<path d="M81.5,327.5l0,-24" class="g2_475" />
<path d="M116.5,327.5l0,-24" class="g2_475" />
<path d="M157.5,327.5l0,-24" class="g2_475" />
<path d="M198.5,327.5l0,-24" class="g2_475" />
<path d="M460.5,327.5l0,-24" class="g2_475" />
<path d="M529.5,327.5l0,-24" class="g2_475" />
<path d="M886.5,327.5l0,-24" class="g2_475" />
<path fill-rule="evenodd" d="M47,352l34,0l0,-25l-34,0l0,25Z" class="g1_475" />
<path fill-rule="evenodd" d="M83,352l33,0l0,-25l-33,0l0,25Z" class="g1_475" />
<path fill-rule="evenodd" d="M117,352l40,0l0,-25l-40,0l0,25Z" class="g1_475" />
<path fill-rule="evenodd" d="M158,352l40,0l0,-25l-40,0l0,25Z" class="g1_475" />
<path fill-rule="evenodd" d="M200,352l260,0l0,-23l-260,0l0,23Z" class="g1_475" />
<g clip-path="url(#c6_475)">
<path fill-rule="evenodd" d="M207,352l245,0l0,-23l-245,0l0,23Z" class="g1_475" />
</g>
<path fill-rule="evenodd" d="M461,352l68,0l0,-23l-68,0l0,23Z" class="g1_475" />
<g clip-path="url(#c7_475)">
<path fill-rule="evenodd" d="M469,352l52,0l0,-23l-52,0l0,23Z" class="g1_475" />
</g>
<path fill-rule="evenodd" d="M530,352l356,0l0,-23l-356,0l0,23Z" class="g1_475" />
<g clip-path="url(#c8_475)">
<path fill-rule="evenodd" d="M538,352l340,0l0,-23l-340,0l0,23Z" class="g1_475" />
</g>
<path d="M46.5,329.5l0,-2" class="g2_475" />
<path d="M81.5,329.5l0,-2" class="g2_475" />
<path d="M116.5,329.5l0,-2" class="g2_475" />
<path d="M157.5,329.5l0,-2" class="g2_475" />
<path d="M198.5,329.5l0,-2" class="g2_475" />
<path d="M200.5,329.5l260,0" class="g2_475" />
<path d="M460.5,329.5l0,-2" class="g2_475" />
<path d="M461.5,329.5l68,0" class="g2_475" />
<path d="M529.5,329.5l0,-2" class="g2_475" />
<path d="M530.5,329.5l356,0" class="g2_475" />
<path d="M886.5,329.5l0,-2" class="g2_475" />
<path d="M46.5,352.5l0,-23" class="g2_475" />
<path d="M81.5,352.5l0,-23" class="g2_475" />
<path d="M116.5,352.5l0,-23" class="g2_475" />
<path d="M157.5,352.5l0,-23" class="g2_475" />
<path d="M198.5,352.5l0,-23" class="g2_475" />
<path d="M460.5,352.5l0,-23" class="g2_475" />
<path d="M529.5,352.5l0,-23" class="g2_475" />
<path d="M886.5,352.5l0,-23" class="g2_475" />
<path fill-rule="evenodd" d="M47,378l34,0l0,-26l-34,0l0,26Z" class="g1_475" />
<path fill-rule="evenodd" d="M83,378l33,0l0,-26l-33,0l0,26Z" class="g1_475" />
<path fill-rule="evenodd" d="M117,378l40,0l0,-26l-40,0l0,26Z" class="g1_475" />
<path fill-rule="evenodd" d="M158,378l40,0l0,-26l-40,0l0,26Z" class="g1_475" />
<path fill-rule="evenodd" d="M200,378l260,0l0,-24l-260,0l0,24Z" class="g1_475" />
<g clip-path="url(#c9_475)">
<path fill-rule="evenodd" d="M207,378l245,0l0,-24l-245,0l0,24Z" class="g1_475" />
</g>
<path fill-rule="evenodd" d="M461,378l68,0l0,-24l-68,0l0,24Z" class="g1_475" />
<g clip-path="url(#c10_475)">
<path fill-rule="evenodd" d="M469,378l52,0l0,-24l-52,0l0,24Z" class="g1_475" />
</g>
<path fill-rule="evenodd" d="M530,378l356,0l0,-24l-356,0l0,24Z" class="g1_475" />
<g clip-path="url(#c11_475)">
<path fill-rule="evenodd" d="M538,378l340,0l0,-24l-340,0l0,24Z" class="g1_475" />
</g>
<path d="M46.5,354.5l0,-2" class="g2_475" />
<path d="M81.5,354.5l0,-2" class="g2_475" />
<path d="M116.5,354.5l0,-2" class="g2_475" />
<path d="M157.5,354.5l0,-2" class="g2_475" />
<path d="M198.5,354.5l0,-2" class="g2_475" />
<path d="M200.5,354.5l260,0" class="g2_475" />
<path d="M460.5,354.5l0,-2" class="g2_475" />
<path d="M461.5,354.5l68,0" class="g2_475" />
<path d="M529.5,354.5l0,-2" class="g2_475" />
<path d="M530.5,354.5l356,0" class="g2_475" />
<path d="M886.5,354.5l0,-2" class="g2_475" />
<path d="M46.5,378.5l0,-24" class="g2_475" />
<path d="M81.5,378.5l0,-24" class="g2_475" />
<path d="M116.5,378.5l0,-24" class="g2_475" />
<path d="M157.5,378.5l0,-24" class="g2_475" />
<path d="M198.5,378.5l0,-24" class="g2_475" />
<path d="M460.5,378.5l0,-24" class="g2_475" />
<path d="M529.5,378.5l0,-24" class="g2_475" />
<path d="M886.5,378.5l0,-24" class="g2_475" />
<path fill-rule="evenodd" d="M47,403l34,0l0,-25l-34,0l0,25Z" class="g1_475" />
<path fill-rule="evenodd" d="M83,403l33,0l0,-25l-33,0l0,25Z" class="g1_475" />
<path fill-rule="evenodd" d="M117,403l40,0l0,-25l-40,0l0,25Z" class="g1_475" />
<path fill-rule="evenodd" d="M158,403l40,0l0,-25l-40,0l0,25Z" class="g1_475" />
<path fill-rule="evenodd" d="M200,403l260,0l0,-24l-260,0l0,24Z" class="g1_475" />
<g clip-path="url(#c12_475)">
<path fill-rule="evenodd" d="M207,403l245,0l0,-24l-245,0l0,24Z" class="g1_475" />
</g>
<path fill-rule="evenodd" d="M461,403l68,0l0,-24l-68,0l0,24Z" class="g1_475" />
<g clip-path="url(#c13_475)">
<path fill-rule="evenodd" d="M469,403l52,0l0,-24l-52,0l0,24Z" class="g1_475" />
</g>
<path fill-rule="evenodd" d="M530,403l356,0l0,-24l-356,0l0,24Z" class="g1_475" />
<g clip-path="url(#c14_475)">
<path fill-rule="evenodd" d="M538,403l340,0l0,-24l-340,0l0,24Z" class="g1_475" />
</g>
<path d="M46.5,379.5l0,-1" class="g2_475" />
<path d="M81.5,379.5l0,-1" class="g2_475" />
<path d="M116.5,379.5l0,-1" class="g2_475" />
<path d="M157.5,379.5l0,-1" class="g2_475" />
<path d="M198.5,379.5l0,-1" class="g2_475" />
<path d="M200.5,379.5l260,0" class="g2_475" />
<path d="M460.5,379.5l0,-1" class="g2_475" />
<path d="M461.5,379.5l68,0" class="g2_475" />
<path d="M529.5,379.5l0,-1" class="g2_475" />
<path d="M530.5,379.5l356,0" class="g2_475" />
<path d="M886.5,379.5l0,-1" class="g2_475" />
<path d="M46.5,403.5l0,-24" class="g2_475" />
<path d="M81.5,403.5l0,-24" class="g2_475" />
<path d="M116.5,403.5l0,-24" class="g2_475" />
<path d="M157.5,403.5l0,-24" class="g2_475" />
<path d="M198.5,403.5l0,-24" class="g2_475" />
<path d="M460.5,403.5l0,-24" class="g2_475" />
<path d="M529.5,403.5l0,-24" class="g2_475" />
<path d="M886.5,403.5l0,-24" class="g2_475" />
<path fill-rule="evenodd" d="M47,429l34,0l0,-26l-34,0l0,26Z" class="g1_475" />
<path fill-rule="evenodd" d="M83,429l33,0l0,-26l-33,0l0,26Z" class="g1_475" />
<path fill-rule="evenodd" d="M117,429l40,0l0,-26l-40,0l0,26Z" class="g1_475" />
<path fill-rule="evenodd" d="M158,429l40,0l0,-26l-40,0l0,26Z" class="g1_475" />
<path fill-rule="evenodd" d="M200,429l260,0l0,-24l-260,0l0,24Z" class="g1_475" />
<path fill-rule="evenodd" d="M207,429l245,0l0,-24l-245,0l0,24Z" class="g1_475" />
<path fill-rule="evenodd" d="M461,429l68,0l0,-24l-68,0l0,24Z" class="g1_475" />
<path fill-rule="evenodd" d="M469,429l52,0l0,-24l-52,0l0,24Z" class="g1_475" />
<path fill-rule="evenodd" d="M530,429l356,0l0,-24l-356,0l0,24Z" class="g1_475" />
<path fill-rule="evenodd" d="M538,429l340,0l0,-24l-340,0l0,24Z" class="g1_475" />
<path d="M46.5,405.5l0,-2" class="g2_475" />
<path d="M81.5,405.5l0,-2" class="g2_475" />
<path d="M116.5,405.5l0,-2" class="g2_475" />
<path d="M157.5,405.5l0,-2" class="g2_475" />
<path d="M198.5,405.5l0,-2" class="g2_475" />
<path d="M200.5,405.5l260,0" class="g2_475" />
<path d="M460.5,405.5l0,-2" class="g2_475" />
<path d="M461.5,405.5l68,0" class="g2_475" />
<path d="M529.5,405.5l0,-2" class="g2_475" />
<path d="M530.5,405.5l356,0" class="g2_475" />
<path d="M886.5,405.5l0,-2" class="g2_475" />
<path d="M46.5,429.5l0,-24" class="g2_475" />
<path d="M81.5,429.5l0,-24" class="g2_475" />
<path d="M116.5,429.5l0,-24" class="g2_475" />
<path d="M157.5,429.5l0,-24" class="g2_475" />
<path d="M198.5,429.5l0,-24" class="g2_475" />
<path d="M460.5,429.5l0,-24" class="g2_475" />
<path d="M529.5,429.5l0,-24" class="g2_475" />
<path d="M886.5,429.5l0,-24" class="g2_475" />
<path fill-rule="evenodd" d="M47,454l34,0l0,-25l-34,0l0,25Z" class="g1_475" />
<path fill-rule="evenodd" d="M83,454l33,0l0,-25l-33,0l0,25Z" class="g1_475" />
<path fill-rule="evenodd" d="M117,454l40,0l0,-25l-40,0l0,25Z" class="g1_475" />
<path fill-rule="evenodd" d="M158,454l40,0l0,-25l-40,0l0,25Z" class="g1_475" />
<path fill-rule="evenodd" d="M200,454l260,0l0,-24l-260,0l0,24Z" class="g1_475" />
<path fill-rule="evenodd" d="M207,454l245,0l0,-24l-245,0l0,24Z" class="g1_475" />
<path fill-rule="evenodd" d="M461,454l68,0l0,-24l-68,0l0,24Z" class="g1_475" />
<path fill-rule="evenodd" d="M469,454l52,0l0,-24l-52,0l0,24Z" class="g1_475" />
<path fill-rule="evenodd" d="M530,454l356,0l0,-24l-356,0l0,24Z" class="g1_475" />
<path fill-rule="evenodd" d="M538,454l340,0l0,-24l-340,0l0,24Z" class="g1_475" />
<path d="M46.5,430.5l0,-1" class="g2_475" />
<path d="M81.5,430.5l0,-1" class="g2_475" />
<path d="M116.5,430.5l0,-1" class="g2_475" />
<path d="M157.5,430.5l0,-1" class="g2_475" />
<path d="M198.5,430.5l0,-1" class="g2_475" />
<path d="M200.5,430.5l260,0" class="g2_475" />
<path d="M460.5,430.5l0,-1" class="g2_475" />
<path d="M461.5,430.5l68,0" class="g2_475" />
<path d="M529.5,430.5l0,-1" class="g2_475" />
<path d="M530.5,430.5l356,0" class="g2_475" />
<path d="M886.5,430.5l0,-1" class="g2_475" />
<path d="M46.5,454.5l0,-24" class="g2_475" />
<path d="M81.5,454.5l0,-24" class="g2_475" />
<path d="M116.5,454.5l0,-24" class="g2_475" />
<path d="M157.5,454.5l0,-24" class="g2_475" />
<path d="M198.5,454.5l0,-24" class="g2_475" />
<path d="M460.5,454.5l0,-24" class="g2_475" />
<path d="M529.5,454.5l0,-24" class="g2_475" />
<path d="M886.5,454.5l0,-24" class="g2_475" />
<path fill-rule="evenodd" d="M47,646l34,0L81,454l-34,0l0,192Z" class="g1_475" />
<path fill-rule="evenodd" d="M83,646l33,0l0,-192l-33,0l0,192Z" class="g1_475" />
<path fill-rule="evenodd" d="M117,646l40,0l0,-192l-40,0l0,192Z" class="g1_475" />
<path fill-rule="evenodd" d="M158,646l40,0l0,-192l-40,0l0,192Z" class="g1_475" />
<path fill-rule="evenodd" d="M200,646l260,0l0,-190l-260,0l0,190Z" class="g1_475" />
<path fill-rule="evenodd" d="M207,479l245,0l0,-23l-245,0l0,23Z" class="g1_475" />
<path fill-rule="evenodd" d="M461,646l68,0l0,-190l-68,0l0,190Z" class="g1_475" />
<path fill-rule="evenodd" d="M469,479l52,0l0,-23l-52,0l0,23Z" class="g1_475" />
<path fill-rule="evenodd" d="M530,646l356,0l0,-190l-356,0l0,190Z" class="g1_475" />
<path fill-rule="evenodd" d="M538,479l340,0l0,-23l-340,0l0,23Z" class="g1_475" />
<path fill-rule="evenodd" d="M538,503l340,0l0,-24l-340,0l0,24Z" class="g1_475" />
<path fill-rule="evenodd" d="M538,527l340,0l0,-24l-340,0l0,24Z" class="g1_475" />
<path fill-rule="evenodd" d="M538,551l340,0l0,-24l-340,0l0,24Z" class="g1_475" />
<path fill-rule="evenodd" d="M538,575l340,0l0,-24l-340,0l0,24Z" class="g1_475" />
<path fill-rule="evenodd" d="M538,599l340,0l0,-24l-340,0l0,24Z" class="g1_475" />
<path fill-rule="evenodd" d="M538,622l340,0l0,-23l-340,0l0,23Z" class="g1_475" />
<path fill-rule="evenodd" d="M538,646l340,0l0,-24l-340,0l0,24Z" class="g1_475" />
<path d="M46.5,455.5l0,-1" class="g2_475" />
<path d="M81.5,455.5l0,-1" class="g2_475" />
<path d="M116.5,455.5l0,-1" class="g2_475" />
<path d="M157.5,455.5l0,-1" class="g2_475" />
<path d="M198.5,455.5l0,-1" class="g2_475" />
<path d="M200.5,455.5l260,0" class="g2_475" />
<path d="M460.5,455.5l0,-1" class="g2_475" />
<path d="M461.5,455.5l68,0" class="g2_475" />
<path d="M529.5,455.5l0,-1" class="g2_475" />
<path d="M530.5,455.5l356,0" class="g2_475" />
<path d="M886.5,455.5l0,-1" class="g2_475" />
<path d="M46.5,646.5l0,-191" class="g2_475" />
<path d="M81.5,646.5l0,-191" class="g2_475" />
<path d="M116.5,646.5l0,-191" class="g2_475" />
<path d="M157.5,646.5l0,-191" class="g2_475" />
<path d="M198.5,646.5l0,-191" class="g2_475" />
<path d="M460.5,646.5l0,-191" class="g2_475" />
<path d="M529.5,646.5l0,-191" class="g2_475" />
<path d="M886.5,646.5l0,-191" class="g2_475" />
<path fill-rule="evenodd" d="M47,958l34,0L81,646l-34,0l0,312Z" class="g1_475" />
<path fill-rule="evenodd" d="M83,958l33,0l0,-312l-33,0l0,312Z" class="g1_475" />
<path fill-rule="evenodd" d="M117,958l40,0l0,-312l-40,0l0,312Z" class="g1_475" />
<path fill-rule="evenodd" d="M158,958l40,0l0,-312l-40,0l0,312Z" class="g1_475" />
<path fill-rule="evenodd" d="M200,958l260,0l0,-310l-260,0l0,310Z" class="g1_475" />
<path fill-rule="evenodd" d="M207,672l245,0l0,-24l-245,0l0,24Z" class="g1_475" />
<path fill-rule="evenodd" d="M461,958l68,0l0,-310l-68,0l0,310Z" class="g1_475" />
<path fill-rule="evenodd" d="M469,672l52,0l0,-24l-52,0l0,24Z" class="g1_475" />
<path fill-rule="evenodd" d="M530,958l356,0l0,-310l-356,0l0,310Z" class="g1_475" />
<path fill-rule="evenodd" d="M538,672l340,0l0,-24l-340,0l0,24Z" class="g1_475" />
<path fill-rule="evenodd" d="M538,695l340,0l0,-23l-340,0l0,23Z" class="g1_475" />
<path fill-rule="evenodd" d="M538,719l340,0l0,-24l-340,0l0,24Z" class="g1_475" />
<path fill-rule="evenodd" d="M538,743l340,0l0,-24l-340,0l0,24Z" class="g1_475" />
<path fill-rule="evenodd" d="M538,767l340,0l0,-24l-340,0l0,24Z" class="g1_475" />
<path fill-rule="evenodd" d="M538,791l340,0l0,-24l-340,0l0,24Z" class="g1_475" />
<path fill-rule="evenodd" d="M538,815l340,0l0,-24l-340,0l0,24Z" class="g1_475" />
<path fill-rule="evenodd" d="M538,838l340,0l0,-23l-340,0l0,23Z" class="g1_475" />
<path d="M568.5,834.5l196,0" class="g3_475" />
<path fill-rule="evenodd" d="M538,862l340,0l0,-24l-340,0l0,24Z" class="g1_475" />
<path fill-rule="evenodd" d="M538,886l340,0l0,-24l-340,0l0,24Z" class="g1_475" />
<path fill-rule="evenodd" d="M538,910l340,0l0,-24l-340,0l0,24Z" class="g1_475" />
<path fill-rule="evenodd" d="M538,934l340,0l0,-24l-340,0l0,24Z" class="g1_475" />
<g clip-path="url(#c15_475)">
<path fill-rule="evenodd" d="M538,958l340,0l0,-24l-340,0l0,24Z" class="g1_475" />
</g>
<path d="M46.5,648.5l0,-2" class="g2_475" />
<path d="M81.5,648.5l0,-2" class="g2_475" />
<path d="M116.5,648.5l0,-2" class="g2_475" />
<path d="M157.5,648.5l0,-2" class="g2_475" />
<path d="M198.5,648.5l0,-2" class="g2_475" />
<path d="M200.5,648.5l260,0" class="g2_475" />
<path d="M460.5,648.5l0,-2" class="g2_475" />
<path d="M461.5,648.5l68,0" class="g2_475" />
<path d="M529.5,648.5l0,-2" class="g2_475" />
<path d="M530.5,648.5l356,0" class="g2_475" />
<path d="M886.5,648.5l0,-2" class="g2_475" />
<path d="M46.5,958.5l0,-310" class="g2_475" />
<path d="M81.5,958.5l0,-310" class="g2_475" />
<path d="M116.5,958.5l0,-310" class="g2_475" />
<path d="M157.5,958.5l0,-310" class="g2_475" />
<path d="M198.5,958.5l0,-310" class="g2_475" />
<path d="M460.5,958.5l0,-310" class="g2_475" />
<path d="M529.5,958.5l0,-310" class="g2_475" />
<path d="M886.5,958.5l0,-310" class="g2_475" />
<path fill-rule="evenodd" d="M47,1007l34,0l0,-49l-34,0l0,49Z" class="g1_475" />
<path fill-rule="evenodd" d="M83,1007l33,0l0,-49l-33,0l0,49Z" class="g1_475" />
<path fill-rule="evenodd" d="M117,1007l40,0l0,-49l-40,0l0,49Z" class="g1_475" />
<path fill-rule="evenodd" d="M158,1007l40,0l0,-49l-40,0l0,49Z" class="g1_475" />
<path fill-rule="evenodd" d="M200,1007l260,0l0,-48l-260,0l0,48Z" class="g1_475" />
<path fill-rule="evenodd" d="M207,983l245,0l0,-24l-245,0l0,24Z" class="g1_475" />
<path fill-rule="evenodd" d="M461,1007l68,0l0,-48l-68,0l0,48Z" class="g1_475" />
<path fill-rule="evenodd" d="M469,983l52,0l0,-24l-52,0l0,24Z" class="g1_475" />
<path fill-rule="evenodd" d="M530,1007l356,0l0,-48l-356,0l0,48Z" class="g1_475" />
<path fill-rule="evenodd" d="M538,983l340,0l0,-24l-340,0l0,24Z" class="g1_475" />
<g clip-path="url(#c16_475)">
<path fill-rule="evenodd" d="M538,1007l340,0l0,-24l-340,0l0,24Z" class="g1_475" />
</g>
<path d="M46.5,959.5l0,-1" class="g2_475" />
<path d="M81.5,959.5l0,-1" class="g2_475" />
<path d="M116.5,959.5l0,-1" class="g2_475" />
<path d="M157.5,959.5l0,-1" class="g2_475" />
<path d="M198.5,959.5l0,-1" class="g2_475" />
<path d="M200.5,959.5l260,0" class="g2_475" />
<path d="M460.5,959.5l0,-1" class="g2_475" />
<path d="M461.5,959.5l68,0" class="g2_475" />
<path d="M529.5,959.5l0,-1" class="g2_475" />
<path d="M530.5,959.5l356,0" class="g2_475" />
<path d="M886.5,959.5l0,-1" class="g2_475" />
<path d="M46.5,1007.5l0,-48" class="g2_475" />
<path d="M81.5,1007.5l0,-48" class="g2_475" />
<path d="M116.5,1007.5l0,-48" class="g2_475" />
<path d="M157.5,1007.5l0,-48" class="g2_475" />
<path d="M198.5,1007.5l0,-48" class="g2_475" />
<path d="M460.5,1007.5l0,-48" class="g2_475" />
<path d="M529.5,1007.5l0,-48" class="g2_475" />
<path d="M886.5,1007.5l0,-48" class="g2_475" />
<path fill-rule="evenodd" d="M47,1032l34,0l0,-25l-34,0l0,25Z" class="g1_475" />
<path fill-rule="evenodd" d="M83,1032l33,0l0,-25l-33,0l0,25Z" class="g1_475" />
<path fill-rule="evenodd" d="M117,1032l40,0l0,-25l-40,0l0,25Z" class="g1_475" />
<path fill-rule="evenodd" d="M158,1032l40,0l0,-25l-40,0l0,25Z" class="g1_475" />
<path fill-rule="evenodd" d="M200,1088l66,0l0,-80l-66,0l0,80Z" class="g1_475" />
<g clip-path="url(#c17_475)">
<path fill-rule="evenodd" d="M207,1088l24,0l0,-80l-24,0l0,80Z" class="g1_475" />
<path fill-rule="evenodd" d="M231,1088l24,0l0,-80l-24,0l0,80Z" class="g1_475" />
</g>
<path fill-rule="evenodd" d="M267,1088l39,0l0,-80l-39,0l0,80Z" class="g1_475" />
<g clip-path="url(#c18_475)">
<path fill-rule="evenodd" d="M275,1088l23,0l0,-80l-23,0l0,80Z" class="g1_475" />
</g>
<path fill-rule="evenodd" d="M308,1032l152,0l0,-24l-152,0l0,24Z" class="g1_475" />
<g clip-path="url(#c19_475)">
<path fill-rule="evenodd" d="M315,1032l137,0l0,-24l-137,0l0,24Z" class="g1_475" />
</g>
<path fill-rule="evenodd" d="M461,1032l68,0l0,-24l-68,0l0,24Z" class="g1_475" />
<g clip-path="url(#c20_475)">
<path fill-rule="evenodd" d="M469,1032l52,0l0,-24l-52,0l0,24Z" class="g1_475" />
</g>
<path fill-rule="evenodd" d="M530,1032l356,0l0,-24l-356,0l0,24Z" class="g1_475" />
<g clip-path="url(#c21_475)">
<path fill-rule="evenodd" d="M538,1032l340,0l0,-24l-340,0l0,24Z" class="g1_475" />
</g>
<path d="M46.5,1008.5l0,-1" class="g2_475" />
<path d="M81.5,1008.5l0,-1" class="g2_475" />
<path d="M116.5,1008.5l0,-1" class="g2_475" />
<path d="M157.5,1008.5l0,-1" class="g2_475" />
<path d="M198.5,1008.5l0,-1" class="g2_475" />
<path d="M200.5,1008.5l66,0" class="g2_475" />
<path d="M266.5,1008.5l0,-1" class="g2_475" />
<path d="M267.5,1008.5l39,0" class="g2_475" />
<path d="M306.5,1008.5l0,-1" class="g2_475" />
<path d="M308.5,1008.5l152,0" class="g2_475" />
<path d="M460.5,1008.5l0,-1" class="g2_475" />
<path d="M461.5,1008.5l68,0" class="g2_475" />
<path d="M529.5,1008.5l0,-1" class="g2_475" />
<path d="M530.5,1008.5l356,0" class="g2_475" />
<path d="M886.5,1008.5l0,-1" class="g2_475" />
<path d="M46.5,1032.5l0,-24" class="g2_475" />
<path d="M81.5,1032.5l0,-24" class="g2_475" />
<path d="M116.5,1032.5l0,-24" class="g2_475" />
<path d="M157.5,1032.5l0,-24" class="g2_475" />
<path d="M198.5,1032.5l0,-24" class="g2_475" />
<path d="M266.5,1032.5l0,-24" class="g2_475" />
<path d="M306.5,1032.5l0,-24" class="g2_475" />
<path d="M460.5,1032.5l0,-24" class="g2_475" />
<path d="M529.5,1032.5l0,-24" class="g2_475" />
<path d="M886.5,1032.5l0,-24" class="g2_475" />
<path fill-rule="evenodd" d="M47,1061l34,0l0,-29l-34,0l0,29Z" class="g1_475" />
<path fill-rule="evenodd" d="M83,1061l33,0l0,-29l-33,0l0,29Z" class="g1_475" />
<path fill-rule="evenodd" d="M117,1061l40,0l0,-29l-40,0l0,29Z" class="g1_475" />
<path fill-rule="evenodd" d="M158,1061l40,0l0,-29l-40,0l0,29Z" class="g1_475" />
<path fill-rule="evenodd" d="M308,1061l152,0l0,-27l-152,0l0,27Z" class="g1_475" />
<path fill-rule="evenodd" d="M315,1057l137,0l0,-23l-137,0l0,23Z" class="g1_475" />
<path fill-rule="evenodd" d="M461,1061l68,0l0,-27l-68,0l0,27Z" class="g1_475" />
<path fill-rule="evenodd" d="M469,1057l52,0l0,-23l-52,0l0,23Z" class="g1_475" />
<path fill-rule="evenodd" d="M530,1061l356,0l0,-27l-356,0l0,27Z" class="g1_475" />
<path fill-rule="evenodd" d="M538,1057l340,0l0,-23l-340,0l0,23Z" class="g1_475" />
<path d="M46.5,1034.5l0,-2" class="g2_475" />
<path d="M81.5,1034.5l0,-2" class="g2_475" />
<path d="M116.5,1034.5l0,-2" class="g2_475" />
<path d="M157.5,1034.5l0,-2" class="g2_475" />
<path d="M198.5,1034.5l0,-2" class="g2_475" />
<path d="M266.5,1034.5l0,-2" class="g2_475" />
<path d="M306.5,1034.5l0,-2" class="g2_475" />
<path d="M308.5,1034.5l152,0" class="g2_475" />
<path d="M460.5,1034.5l0,-2" class="g2_475" />
<path d="M461.5,1034.5l68,0" class="g2_475" />
<path d="M529.5,1034.5l0,-2" class="g2_475" />
<path d="M530.5,1034.5l356,0" class="g2_475" />
<path d="M886.5,1034.5l0,-2" class="g2_475" />
<path d="M46.5,1061.5l0,-27" class="g2_475" />
<path d="M81.5,1061.5l0,-27" class="g2_475" />
<path d="M116.5,1061.5l0,-27" class="g2_475" />
<path d="M157.5,1061.5l0,-27" class="g2_475" />
<path d="M198.5,1061.5l0,-27" class="g2_475" />
<path d="M266.5,1061.5l0,-27" class="g2_475" />
<path d="M306.5,1061.5l0,-27" class="g2_475" />
<path d="M460.5,1061.5l0,-27" class="g2_475" />
<path d="M529.5,1061.5l0,-27" class="g2_475" />
<path d="M886.5,1061.5l0,-27" class="g2_475" />
<path fill-rule="evenodd" d="M47,1088l34,0l0,-27l-34,0l0,27Z" class="g1_475" />
<path fill-rule="evenodd" d="M83,1088l33,0l0,-27l-33,0l0,27Z" class="g1_475" />
<path fill-rule="evenodd" d="M117,1088l40,0l0,-27l-40,0l0,27Z" class="g1_475" />
<path fill-rule="evenodd" d="M158,1088l40,0l0,-27l-40,0l0,27Z" class="g1_475" />
<path fill-rule="evenodd" d="M308,1088l152,0l0,-26l-152,0l0,26Z" class="g1_475" />
<path fill-rule="evenodd" d="M315,1086l137,0l0,-24l-137,0l0,24Z" class="g1_475" />
<path fill-rule="evenodd" d="M461,1088l68,0l0,-26l-68,0l0,26Z" class="g1_475" />
<path fill-rule="evenodd" d="M469,1086l52,0l0,-24l-52,0l0,24Z" class="g1_475" />
<path fill-rule="evenodd" d="M530,1088l356,0l0,-26l-356,0l0,26Z" class="g1_475" />
<path fill-rule="evenodd" d="M538,1086l340,0l0,-24l-340,0l0,24Z" class="g1_475" />
<path d="M46.5,1062.5l0,-1" class="g2_475" />
<path d="M81.5,1062.5l0,-1" class="g2_475" />
<path d="M116.5,1062.5l0,-1" class="g2_475" />
<path d="M157.5,1062.5l0,-1" class="g2_475" />
<path d="M198.5,1062.5l0,-1" class="g2_475" />
<path d="M266.5,1062.5l0,-1" class="g2_475" />
<path d="M306.5,1062.5l0,-1" class="g2_475" />
<path d="M308.5,1062.5l152,0" class="g2_475" />
<path d="M460.5,1062.5l0,-1" class="g2_475" />
<path d="M461.5,1062.5l68,0" class="g2_475" />
<path d="M529.5,1062.5l0,-1" class="g2_475" />
<path d="M530.5,1062.5l356,0" class="g2_475" />
<path d="M886.5,1062.5l0,-1" class="g2_475" />
<path d="M46.5,1088.5l0,-26" class="g2_475" />
<path d="M46.5,1090.5l0,-2" class="g2_475" />
<path d="M46.5,1090.5l0,-2" class="g2_475" />
<path d="M47.5,1090.5l34,0" class="g2_475" />
<path d="M81.5,1088.5l0,-26" class="g2_475" />
<path d="M81.5,1090.5l0,-2" class="g2_475" />
<path d="M83.5,1090.5l33,0" class="g2_475" />
<path d="M116.5,1088.5l0,-26" class="g2_475" />
<path d="M116.5,1090.5l0,-2" class="g2_475" />
<path d="M117.5,1090.5l40,0" class="g2_475" />
<path d="M157.5,1088.5l0,-26" class="g2_475" />
<path d="M157.5,1090.5l0,-2" class="g2_475" />
<path d="M158.5,1090.5l40,0" class="g2_475" />
<path d="M198.5,1088.5l0,-26" class="g2_475" />
<path d="M198.5,1090.5l0,-2" class="g2_475" />
<path d="M200.5,1090.5l66,0" class="g2_475" />
<path d="M266.5,1088.5l0,-26" class="g2_475" />
<path d="M266.5,1090.5l0,-2" class="g2_475" />
<path d="M267.5,1090.5l39,0" class="g2_475" />
<path d="M306.5,1088.5l0,-26" class="g2_475" />
<path d="M306.5,1090.5l0,-2" class="g2_475" />
<path d="M308.5,1090.5l152,0" class="g2_475" />
<path d="M460.5,1088.5l0,-26" class="g2_475" />
<path d="M460.5,1090.5l0,-2" class="g2_475" />
<path d="M461.5,1090.5l68,0" class="g2_475" />
<path d="M529.5,1088.5l0,-26" class="g2_475" />
<path d="M529.5,1090.5l0,-2" class="g2_475" />
<path d="M530.5,1090.5l356,0" class="g2_475" />
<path d="M886.5,1088.5l0,-26" class="g2_475" />
<path d="M886.5,1090.5l0,-2" class="g2_475" />
<path d="M886.5,1090.5l0,-2" class="g2_475" />
</svg>