<?xml version="1.0" encoding="UTF-8" standalone="no"?>
<!DOCTYPE svg PUBLIC "-//W3C//DTD SVG 1.1//EN"
"http://www.w3.org/Graphics/SVG/1.1/DTD/svg11.dtd">
<svg version="1.1" xmlns="http://www.w3.org/2000/svg" xmlns:xlink="http://www.w3.org/1999/xlink">
<defs>
<clipPath id="c0_169"><path d="M192.5,1127.5l0,-1016l185,0l0,1016Z" /></clipPath>
<clipPath id="c1_169"><path d="M379.5,1127.5l0,-1016l60,0l0,1016Z" /></clipPath>
<clipPath id="c2_169"><path d="M441.5,1127.5l0,-1016l445,0l0,1016Z" /></clipPath>
<clipPath id="c3_169"><path d="M449.5,758.5l0,-24l141,0l0,24Z" /></clipPath>
<clipPath id="c4_169"><path d="M449.5,930.5l0,-48l143,0l0,48Z" /></clipPath>
<clipPath id="c5_169"><path d="M449.5,1005.5l0,-25l143,0l0,25Z" /></clipPath>
<style type="text/css"><![CDATA[
.g2_169{
fill: none;
stroke: #000000;
stroke-width: 1;
stroke-linecap: butt;
stroke-linejoin: miter;
}
.g3_169{
fill: none;
stroke: #7E7E7E;
stroke-width: 1;
stroke-linecap: butt;
stroke-linejoin: miter;
}
.g1_169{
fill: #F1F1F1;
}
]]></style>
</defs>
<path fill-rule="evenodd" d="M47,1127l33,0L80,111l-33,0l0,1016Z" class="g1_169" />
<path fill-rule="evenodd" d="M81,1127l28,0L109,111l-28,0l0,1016Z" class="g1_169" />
<path fill-rule="evenodd" d="M110,1127l26,0L136,111l-26,0l0,1016Z" class="g1_169" />
<path fill-rule="evenodd" d="M138,1127l33,0L171,111l-33,0l0,1016Z" class="g1_169" />
<path fill-rule="evenodd" d="M172,1127l19,0L191,111l-19,0l0,1016Z" class="g1_169" />
<path fill-rule="evenodd" d="M192,1127l185,0L377,111l-185,0l0,1016Z" class="g1_169" />
<g clip-path="url(#c0_169)">
<path fill-rule="evenodd" d="M200,135l170,0l0,-24l-170,0l0,24Z" class="g1_169" />
</g>
<path fill-rule="evenodd" d="M379,1127l60,0L439,111l-60,0l0,1016Z" class="g1_169" />
<g clip-path="url(#c1_169)">
<path fill-rule="evenodd" d="M386,135l46,0l0,-24l-46,0l0,24Z" class="g1_169" />
</g>
<path fill-rule="evenodd" d="M441,1127l445,0L886,111l-445,0l0,1016Z" class="g1_169" />
<g clip-path="url(#c2_169)">
<path fill-rule="evenodd" d="M448,135l430,0l0,-24l-430,0l0,24Z" class="g1_169" />
</g>
<path fill-rule="evenodd" d="M448,159l430,0l0,-24l-430,0l0,24Z" class="g1_169" />
<path fill-rule="evenodd" d="M448,182l430,0l0,-23l-430,0l0,23Z" class="g1_169" />
<path fill-rule="evenodd" d="M448,206l430,0l0,-24l-430,0l0,24Z" class="g1_169" />
<path fill-rule="evenodd" d="M448,230l430,0l0,-24l-430,0l0,24Z" class="g1_169" />
<path fill-rule="evenodd" d="M448,254l430,0l0,-24l-430,0l0,24Z" class="g1_169" />
<path fill-rule="evenodd" d="M448,278l430,0l0,-24l-430,0l0,24Z" class="g1_169" />
<path fill-rule="evenodd" d="M448,302l430,0l0,-24l-430,0l0,24Z" class="g1_169" />
<path fill-rule="evenodd" d="M448,325l430,0l0,-23l-430,0l0,23Z" class="g1_169" />
<path fill-rule="evenodd" d="M448,349l430,0l0,-24l-430,0l0,24Z" class="g1_169" />
<path fill-rule="evenodd" d="M448,373l430,0l0,-24l-430,0l0,24Z" class="g1_169" />
<path fill-rule="evenodd" d="M448,397l430,0l0,-24l-430,0l0,24Z" class="g1_169" />
<path fill-rule="evenodd" d="M448,421l430,0l0,-24l-430,0l0,24Z" class="g1_169" />
<path fill-rule="evenodd" d="M448,445l430,0l0,-24l-430,0l0,24Z" class="g1_169" />
<path fill-rule="evenodd" d="M448,469l430,0l0,-24l-430,0l0,24Z" class="g1_169" />
<path fill-rule="evenodd" d="M448,492l430,0l0,-23l-430,0l0,23Z" class="g1_169" />
<path fill-rule="evenodd" d="M448,516l430,0l0,-24l-430,0l0,24Z" class="g1_169" />
<path fill-rule="evenodd" d="M448,540l430,0l0,-24l-430,0l0,24Z" class="g1_169" />
<path fill-rule="evenodd" d="M448,564l430,0l0,-24l-430,0l0,24Z" class="g1_169" />
<path fill-rule="evenodd" d="M448,588l430,0l0,-24l-430,0l0,24Z" class="g1_169" />
<path fill-rule="evenodd" d="M815,636l63,0l0,-48l-63,0l0,48Z" class="g1_169" />
<path fill-rule="evenodd" d="M449,636l141,0l0,-48l-141,0l0,48Z" class="g1_169" />
<path fill-rule="evenodd" d="M457,612l125,0l0,-24l-125,0l0,24Z" class="g1_169" />
<path fill-rule="evenodd" d="M457,636l125,0l0,-24l-125,0l0,24Z" class="g1_169" />
<path fill-rule="evenodd" d="M591,636l224,0l0,-48l-224,0l0,48Z" class="g1_169" />
<path fill-rule="evenodd" d="M599,624l208,0l0,-24l-208,0l0,24Z" class="g1_169" />
<path d="M449.5,588.5l141,0" class="g2_169" />
<path d="M591.5,588.5l224,0" class="g2_169" />
<path d="M448.5,636.5l0,-48" class="g2_169" />
<path d="M590.5,636.5l0,-48" class="g2_169" />
<path d="M815.5,636.5l0,-48" class="g2_169" />
<path fill-rule="evenodd" d="M815,685l63,0l0,-49l-63,0l0,49Z" class="g1_169" />
<path fill-rule="evenodd" d="M449,685l141,0l0,-48l-141,0l0,48Z" class="g1_169" />
<path fill-rule="evenodd" d="M457,661l125,0l0,-24l-125,0l0,24Z" class="g1_169" />
<path fill-rule="evenodd" d="M457,685l125,0l0,-24l-125,0l0,24Z" class="g1_169" />
<path fill-rule="evenodd" d="M591,685l224,0l0,-48l-224,0l0,48Z" class="g1_169" />
<path fill-rule="evenodd" d="M599,673l208,0l0,-24l-208,0l0,24Z" class="g1_169" />
<path d="M448.5,637.5l0,-1" class="g2_169" />
<path d="M449.5,637.5l141,0" class="g2_169" />
<path d="M590.5,637.5l0,-1" class="g2_169" />
<path d="M591.5,637.5l224,0" class="g2_169" />
<path d="M815.5,637.5l0,-1" class="g2_169" />
<path d="M448.5,685.5l0,-48" class="g2_169" />
<path d="M590.5,685.5l0,-48" class="g2_169" />
<path d="M815.5,685.5l0,-48" class="g2_169" />
<path fill-rule="evenodd" d="M815,733l63,0l0,-48l-63,0l0,48Z" class="g1_169" />
<path fill-rule="evenodd" d="M449,733l141,0l0,-48l-141,0l0,48Z" class="g1_169" />
<path fill-rule="evenodd" d="M457,709l125,0l0,-24l-125,0l0,24Z" class="g1_169" />
<path fill-rule="evenodd" d="M457,733l125,0l0,-24l-125,0l0,24Z" class="g1_169" />
<path fill-rule="evenodd" d="M591,733l224,0l0,-48l-224,0l0,48Z" class="g1_169" />
<path fill-rule="evenodd" d="M599,721l208,0l0,-24l-208,0l0,24Z" class="g1_169" />
<path d="M449.5,685.5l141,0" class="g2_169" />
<path d="M591.5,685.5l224,0" class="g2_169" />
<path d="M448.5,733.5l0,-48" class="g2_169" />
<path d="M590.5,733.5l0,-48" class="g2_169" />
<path d="M815.5,733.5l0,-48" class="g2_169" />
<path fill-rule="evenodd" d="M815,758l63,0l0,-25l-63,0l0,25Z" class="g1_169" />
<path fill-rule="evenodd" d="M449,758l141,0l0,-24l-141,0l0,24Z" class="g1_169" />
<g clip-path="url(#c3_169)">
<path fill-rule="evenodd" d="M457,758l125,0l0,-24l-125,0l0,24Z" class="g1_169" />
</g>
<path fill-rule="evenodd" d="M591,758l224,0l0,-24l-224,0l0,24Z" class="g1_169" />
<path fill-rule="evenodd" d="M599,758l208,0l0,-24l-208,0l0,24Z" class="g1_169" />
<path d="M448.5,734.5l0,-1" class="g2_169" />
<path d="M449.5,734.5l141,0" class="g2_169" />
<path d="M590.5,734.5l0,-1" class="g2_169" />
<path d="M591.5,734.5l224,0" class="g2_169" />
<path d="M815.5,734.5l0,-1" class="g2_169" />
<path d="M448.5,758.5l0,-24" class="g2_169" />
<path d="M590.5,758.5l0,-24" class="g2_169" />
<path d="M815.5,758.5l0,-24" class="g2_169" />
<path fill-rule="evenodd" d="M815,784l63,0l0,-26l-63,0l0,26Z" class="g1_169" />
<path fill-rule="evenodd" d="M449,783l141,0l0,-24l-141,0l0,24Z" class="g1_169" />
<path fill-rule="evenodd" d="M457,783l125,0l0,-24l-125,0l0,24Z" class="g1_169" />
<path fill-rule="evenodd" d="M591,783l224,0l0,-24l-224,0l0,24Z" class="g1_169" />
<path fill-rule="evenodd" d="M599,783l208,0l0,-24l-208,0l0,24Z" class="g1_169" />
<path d="M448.5,759.5l0,-1" class="g2_169" />
<path d="M449.5,759.5l141,0" class="g2_169" />
<path d="M590.5,759.5l0,-1" class="g2_169" />
<path d="M591.5,759.5l224,0" class="g2_169" />
<path d="M815.5,759.5l0,-1" class="g2_169" />
<path d="M448.5,783.5l0,-24" class="g2_169" />
<path d="M448.5,784.5l0,-1" class="g2_169" />
<path d="M448.5,784.5l0,-1" class="g2_169" />
<path d="M449.5,784.5l141,0" class="g2_169" />
<path d="M590.5,783.5l0,-24" class="g2_169" />
<path d="M590.5,784.5l0,-1" class="g2_169" />
<path d="M591.5,784.5l224,0" class="g2_169" />
<path d="M815.5,783.5l0,-24" class="g2_169" />
<path d="M815.5,784.5l0,-1" class="g2_169" />
<path d="M815.5,784.5l0,-1" class="g2_169" />
<path fill-rule="evenodd" d="M448,808l430,0l0,-24l-430,0l0,24Z" class="g1_169" />
<path fill-rule="evenodd" d="M448,831l430,0l0,-23l-430,0l0,23Z" class="g1_169" />
<path fill-rule="evenodd" d="M817,881l61,0l0,-50l-61,0l0,50Z" class="g1_169" />
<path fill-rule="evenodd" d="M449,881l143,0l0,-49l-143,0l0,49Z" class="g1_169" />
<path fill-rule="evenodd" d="M457,856l127,0l0,-24l-127,0l0,24Z" class="g1_169" />
<path fill-rule="evenodd" d="M457,880l127,0l0,-24l-127,0l0,24Z" class="g1_169" />
<path fill-rule="evenodd" d="M593,881l223,0l0,-49l-223,0l0,49Z" class="g1_169" />
<path fill-rule="evenodd" d="M601,868l207,0l0,-23l-207,0l0,23Z" class="g1_169" />
<path d="M448.5,832.5l0,-1" class="g2_169" />
<path d="M448.5,832.5l0,-1" class="g2_169" />
<path d="M449.5,832.5l143,0" class="g2_169" />
<path d="M592.5,832.5l0,-1" class="g2_169" />
<path d="M593.5,832.5l223,0" class="g2_169" />
<path d="M816.5,832.5l0,-1" class="g2_169" />
<path d="M816.5,832.5l0,-1" class="g2_169" />
<path d="M448.5,881.5l0,-49" class="g2_169" />
<path d="M592.5,881.5l0,-49" class="g2_169" />
<path d="M816.5,881.5l0,-49" class="g2_169" />
<path fill-rule="evenodd" d="M817,930l61,0l0,-49l-61,0l0,49Z" class="g1_169" />
<path fill-rule="evenodd" d="M449,930l143,0l0,-48l-143,0l0,48Z" class="g1_169" />
<g clip-path="url(#c4_169)">
<path fill-rule="evenodd" d="M457,905l127,0l0,-23l-127,0l0,23Z" class="g1_169" />
</g>
<path fill-rule="evenodd" d="M457,929l127,0l0,-24l-127,0l0,24Z" class="g1_169" />
<path fill-rule="evenodd" d="M593,930l223,0l0,-48l-223,0l0,48Z" class="g1_169" />
<path fill-rule="evenodd" d="M601,918l207,0l0,-24l-207,0l0,24Z" class="g1_169" />
<path d="M448.5,882.5l0,-1" class="g2_169" />
<path d="M449.5,882.5l143,0" class="g2_169" />
<path d="M592.5,882.5l0,-1" class="g2_169" />
<path d="M593.5,882.5l223,0" class="g2_169" />
<path d="M816.5,882.5l0,-1" class="g2_169" />
<path d="M448.5,930.5l0,-48" class="g2_169" />
<path d="M592.5,930.5l0,-48" class="g2_169" />
<path d="M816.5,930.5l0,-48" class="g2_169" />
<path fill-rule="evenodd" d="M817,980l61,0l0,-50l-61,0l0,50Z" class="g1_169" />
<path fill-rule="evenodd" d="M449,980l143,0l0,-49l-143,0l0,49Z" class="g1_169" />
<path fill-rule="evenodd" d="M457,955l127,0l0,-24l-127,0l0,24Z" class="g1_169" />
<path fill-rule="evenodd" d="M457,979l127,0l0,-24l-127,0l0,24Z" class="g1_169" />
<path fill-rule="evenodd" d="M593,980l223,0l0,-49l-223,0l0,49Z" class="g1_169" />
<path fill-rule="evenodd" d="M601,967l207,0l0,-23l-207,0l0,23Z" class="g1_169" />
<path d="M448.5,931.5l0,-1" class="g2_169" />
<path d="M449.5,931.5l143,0" class="g2_169" />
<path d="M592.5,931.5l0,-1" class="g2_169" />
<path d="M593.5,931.5l223,0" class="g2_169" />
<path d="M816.5,931.5l0,-1" class="g2_169" />
<path d="M448.5,980.5l0,-49" class="g2_169" />
<path d="M592.5,980.5l0,-49" class="g2_169" />
<path d="M816.5,980.5l0,-49" class="g2_169" />
<path fill-rule="evenodd" d="M817,1005l61,0l0,-25l-61,0l0,25Z" class="g1_169" />
<path fill-rule="evenodd" d="M449,1005l143,0l0,-25l-143,0l0,25Z" class="g1_169" />
<g clip-path="url(#c5_169)">
<path fill-rule="evenodd" d="M457,1004l127,0l0,-24l-127,0l0,24Z" class="g1_169" />
</g>
<path fill-rule="evenodd" d="M593,1005l223,0l0,-25l-223,0l0,25Z" class="g1_169" />
<path fill-rule="evenodd" d="M601,1005l207,0l0,-24l-207,0l0,24Z" class="g1_169" />
<path d="M449.5,980.5l143,0" class="g2_169" />
<path d="M593.5,980.5l223,0" class="g2_169" />
<path d="M448.5,1005.5l0,-25" class="g2_169" />
<path d="M592.5,1005.5l0,-25" class="g2_169" />
<path d="M816.5,1005.5l0,-25" class="g2_169" />
<path fill-rule="evenodd" d="M817,1032l61,0l0,-27l-61,0l0,27Z" class="g1_169" />
<path fill-rule="evenodd" d="M449,1031l143,0l0,-25l-143,0l0,25Z" class="g1_169" />
<path fill-rule="evenodd" d="M457,1030l127,0l0,-24l-127,0l0,24Z" class="g1_169" />
<path fill-rule="evenodd" d="M593,1031l223,0l0,-25l-223,0l0,25Z" class="g1_169" />
<path fill-rule="evenodd" d="M601,1031l207,0l0,-24l-207,0l0,24Z" class="g1_169" />
<path d="M448.5,1006.5l0,-1" class="g2_169" />
<path d="M449.5,1006.5l143,0" class="g2_169" />
<path d="M592.5,1006.5l0,-1" class="g2_169" />
<path d="M593.5,1006.5l223,0" class="g2_169" />
<path d="M816.5,1006.5l0,-1" class="g2_169" />
<path d="M448.5,1031.5l0,-25" class="g2_169" />
<path d="M448.5,1032.5l0,-1" class="g2_169" />
<path d="M448.5,1032.5l0,-1" class="g2_169" />
<path d="M449.5,1032.5l143,0" class="g2_169" />
<path d="M592.5,1031.5l0,-25" class="g2_169" />
<path d="M592.5,1032.5l0,-1" class="g2_169" />
<path d="M593.5,1032.5l223,0" class="g2_169" />
<path d="M816.5,1031.5l0,-25" class="g2_169" />
<path d="M816.5,1032.5l0,-1" class="g2_169" />
<path d="M816.5,1032.5l0,-1" class="g2_169" />
<path fill-rule="evenodd" d="M448,1056l430,0l0,-24l-430,0l0,24Z" class="g1_169" />
<path fill-rule="evenodd" d="M448,1079l430,0l0,-23l-430,0l0,23Z" class="g1_169" />
<path fill-rule="evenodd" d="M448,1103l430,0l0,-24l-430,0l0,24Z" class="g1_169" />
<g clip-path="url(#c2_169)">
<path fill-rule="evenodd" d="M448,1127l430,0l0,-24l-430,0l0,24Z" class="g1_169" />
</g>
<path d="M46.5,111.5l0,-1" class="g3_169" />
<path d="M46.5,111.5l0,-1" class="g3_169" />
<path d="M47.5,111.5l33,0" class="g3_169" />
<path d="M80.5,111.5l0,-1" class="g3_169" />
<path d="M81.5,111.5l28,0" class="g3_169" />
<path d="M109.5,111.5l0,-1" class="g3_169" />
<path d="M110.5,111.5l26,0" class="g3_169" />
<path d="M136.5,111.5l0,-1" class="g3_169" />
<path d="M138.5,111.5l33,0" class="g3_169" />
<path d="M171.5,111.5l0,-1" class="g3_169" />
<path d="M172.5,111.5l19,0" class="g3_169" />
<path d="M191.5,111.5l0,-1" class="g3_169" />
<path d="M192.5,111.5l185,0" class="g3_169" />
<path d="M377.5,111.5l0,-1" class="g3_169" />
<path d="M379.5,111.5l60,0" class="g3_169" />
<path d="M439.5,111.5l0,-1" class="g3_169" />
<path d="M441.5,111.5l445,0" class="g3_169" />
<path d="M886.5,111.5l0,-1" class="g3_169" />
<path d="M886.5,111.5l0,-1" class="g3_169" />
<path d="M46.5,1127.5l0,-1016" class="g3_169" />
<path d="M46.5,1129.5l0,-2" class="g3_169" />
<path d="M46.5,1129.5l0,-2" class="g3_169" />
<path d="M47.5,1129.5l33,0" class="g3_169" />
<path d="M80.5,1127.5l0,-1016" class="g3_169" />
<path d="M80.5,1129.5l0,-2" class="g3_169" />
<path d="M81.5,1129.5l28,0" class="g3_169" />
<path d="M109.5,1127.5l0,-1016" class="g3_169" />
<path d="M109.5,1129.5l0,-2" class="g3_169" />
<path d="M110.5,1129.5l26,0" class="g3_169" />
<path d="M136.5,1127.5l0,-1016" class="g3_169" />
<path d="M136.5,1129.5l0,-2" class="g3_169" />
<path d="M138.5,1129.5l33,0" class="g3_169" />
<path d="M171.5,1127.5l0,-1016" class="g3_169" />
<path d="M171.5,1129.5l0,-2" class="g3_169" />
<path d="M172.5,1129.5l19,0" class="g3_169" />
<path d="M191.5,1127.5l0,-1016" class="g3_169" />
<path d="M191.5,1129.5l0,-2" class="g3_169" />
<path d="M192.5,1129.5l185,0" class="g3_169" />
<path d="M377.5,1127.5l0,-1016" class="g3_169" />
<path d="M377.5,1129.5l0,-2" class="g3_169" />
<path d="M379.5,1129.5l60,0" class="g3_169" />
<path d="M439.5,1127.5l0,-1016" class="g3_169" />
<path d="M439.5,1129.5l0,-2" class="g3_169" />
<path d="M441.5,1129.5l445,0" class="g3_169" />
<path d="M886.5,1127.5l0,-1016" class="g3_169" />
<path d="M886.5,1129.5l0,-2" class="g3_169" />
<path d="M886.5,1129.5l0,-2" class="g3_169" />
</svg>