<?xml version="1.0" encoding="UTF-8" standalone="no"?>
<!DOCTYPE svg PUBLIC "-//W3C//DTD SVG 1.1//EN"
"http://www.w3.org/Graphics/SVG/1.1/DTD/svg11.dtd">
<svg version="1.1" xmlns="http://www.w3.org/2000/svg" xmlns:xlink="http://www.w3.org/1999/xlink">
<defs>
<clipPath id="c0_192"><path d="M47.5,278.5l0,-167l840,0l0,167Z" /></clipPath>
<clipPath id="c1_192"><path d="M47.5,414.5l0,-24l296,0l0,24Z" /></clipPath>
<clipPath id="c2_192"><path d="M344.5,414.5l0,-24l81,0l0,24Z" /></clipPath>
<clipPath id="c3_192"><path d="M427.5,414.5l0,-24l460,0l0,24Z" /></clipPath>
<clipPath id="c4_192"><path d="M88.5,489.5l0,-24l255,0l0,24Z" /></clipPath>
<clipPath id="c5_192"><path d="M344.5,489.5l0,-24l81,0l0,24Z" /></clipPath>
<clipPath id="c6_192"><path d="M427.5,489.5l0,-24l460,0l0,24Z" /></clipPath>
<clipPath id="c7_192"><path d="M88.5,677.5l0,-161l35,0l0,161Z" /></clipPath>
<clipPath id="c8_192"><path d="M124.5,677.5l0,-135l33,0l0,135Z" /></clipPath>
<clipPath id="c9_192"><path d="M158.5,677.5l0,-135l33,0l0,135Z" /></clipPath>
<clipPath id="c10_192"><path d="M193.5,677.5l0,-110l53,0l0,110Z" /></clipPath>
<clipPath id="c11_192"><path d="M47.5,799.5l0,-24l840,0l0,24Z" /></clipPath>
<clipPath id="c12_192"><path d="M47.5,1088.5l0,-262l840,0l0,262Z" /></clipPath>
<style type="text/css"><![CDATA[
.g2_192{
fill: none;
stroke: #7E7E7E;
stroke-width: 1;
stroke-linecap: butt;
stroke-linejoin: miter;
}
.g3_192{
fill: #DBE5F1;
}
.g1_192{
fill: #F1F1F1;
}
]]></style>
</defs>
<path fill-rule="evenodd" d="M47,278l840,0l0,-167L47,111l0,167Z" class="g1_192" />
<g clip-path="url(#c0_192)">
<path fill-rule="evenodd" d="M55,135l825,0l0,-24L55,111l0,24Z" class="g1_192" />
</g>
<path fill-rule="evenodd" d="M55,159l825,0l0,-24L55,135l0,24Z" class="g1_192" />
<path fill-rule="evenodd" d="M55,182l825,0l0,-23L55,159l0,23Z" class="g1_192" />
<path fill-rule="evenodd" d="M55,206l825,0l0,-24L55,182l0,24Z" class="g1_192" />
<path fill-rule="evenodd" d="M55,230l825,0l0,-24L55,206l0,24Z" class="g1_192" />
<path fill-rule="evenodd" d="M55,254l825,0l0,-24L55,230l0,24Z" class="g1_192" />
<path fill-rule="evenodd" d="M55,278l825,0l0,-24L55,254l0,24Z" class="g1_192" />
<path d="M46.5,111.5l0,-1" class="g2_192" />
<path d="M46.5,111.5l0,-1" class="g2_192" />
<path d="M47.5,111.5l840,0" class="g2_192" />
<path d="M887.5,111.5l0,-1" class="g2_192" />
<path d="M887.5,111.5l0,-1" class="g2_192" />
<path d="M46.5,278.5l0,-167" class="g2_192" />
<path d="M46.5,279.5l0,-1" class="g2_192" />
<path d="M46.5,279.5l0,-1" class="g2_192" />
<path d="M47.5,279.5l840,0" class="g2_192" />
<path d="M887.5,278.5l0,-167" class="g2_192" />
<path d="M887.5,279.5l0,-1" class="g2_192" />
<path d="M887.5,279.5l0,-1" class="g2_192" />
<path fill-rule="evenodd" d="M47,414l296,0l0,-25L47,389l0,25Z" class="g3_192" />
<g clip-path="url(#c1_192)">
<path fill-rule="evenodd" d="M55,413l280,0l0,-24L55,389l0,24Z" class="g3_192" />
</g>
<path fill-rule="evenodd" d="M344,414l81,0l0,-25l-81,0l0,25Z" class="g3_192" />
<g clip-path="url(#c2_192)">
<path fill-rule="evenodd" d="M352,413l66,0l0,-24l-66,0l0,24Z" class="g3_192" />
</g>
<path fill-rule="evenodd" d="M427,414l460,0l0,-25l-460,0l0,25Z" class="g3_192" />
<g clip-path="url(#c3_192)">
<path fill-rule="evenodd" d="M434,413l446,0l0,-24l-446,0l0,24Z" class="g3_192" />
</g>
<path d="M46.5,389.5l0,-1" class="g2_192" />
<path d="M46.5,389.5l0,-1" class="g2_192" />
<path d="M47.5,389.5l296,0" class="g2_192" />
<path d="M343.5,389.5l0,-1" class="g2_192" />
<path d="M344.5,389.5l81,0" class="g2_192" />
<path d="M425.5,389.5l0,-1" class="g2_192" />
<path d="M427.5,389.5l460,0" class="g2_192" />
<path d="M887.5,389.5l0,-1" class="g2_192" />
<path d="M887.5,389.5l0,-1" class="g2_192" />
<path d="M46.5,414.5l0,-25" class="g2_192" />
<path d="M343.5,414.5l0,-25" class="g2_192" />
<path d="M425.5,414.5l0,-25" class="g2_192" />
<path d="M887.5,414.5l0,-25" class="g2_192" />
<path fill-rule="evenodd" d="M47,677l39,0L86,416l-39,0l0,261Z" class="g1_192" />
<path fill-rule="evenodd" d="M55,677l23,0L78,416l-23,0l0,261Z" class="g1_192" />
<path fill-rule="evenodd" d="M88,463l255,0l0,-47L88,416l0,47Z" class="g1_192" />
<path fill-rule="evenodd" d="M95,439l240,0l0,-23L95,416l0,23Z" class="g1_192" />
<path fill-rule="evenodd" d="M344,463l81,0l0,-47l-81,0l0,47Z" class="g1_192" />
<path fill-rule="evenodd" d="M352,439l66,0l0,-23l-66,0l0,23Z" class="g1_192" />
<path fill-rule="evenodd" d="M427,463l460,0l0,-47l-460,0l0,47Z" class="g1_192" />
<path fill-rule="evenodd" d="M434,439l446,0l0,-23l-446,0l0,23Z" class="g1_192" />
<path fill-rule="evenodd" d="M434,463l446,0l0,-24l-446,0l0,24Z" class="g1_192" />
<path d="M46.5,415.5l0,-1" class="g2_192" />
<path d="M47.5,415.5l39,0" class="g2_192" />
<path d="M86.5,415.5l0,-1" class="g2_192" />
<path d="M88.5,415.5l255,0" class="g2_192" />
<path d="M343.5,415.5l0,-1" class="g2_192" />
<path d="M344.5,415.5l81,0" class="g2_192" />
<path d="M425.5,415.5l0,-1" class="g2_192" />
<path d="M427.5,415.5l460,0" class="g2_192" />
<path d="M887.5,415.5l0,-1" class="g2_192" />
<path d="M46.5,463.5l0,-48" class="g2_192" />
<path d="M86.5,463.5l0,-48" class="g2_192" />
<path d="M343.5,463.5l0,-48" class="g2_192" />
<path d="M425.5,463.5l0,-48" class="g2_192" />
<path d="M887.5,463.5l0,-48" class="g2_192" />
<path fill-rule="evenodd" d="M88,489l255,0l0,-24L88,465l0,24Z" class="g1_192" />
<g clip-path="url(#c4_192)">
<path fill-rule="evenodd" d="M95,489l240,0l0,-24L95,465l0,24Z" class="g1_192" />
</g>
<path fill-rule="evenodd" d="M344,489l81,0l0,-24l-81,0l0,24Z" class="g1_192" />
<g clip-path="url(#c5_192)">
<path fill-rule="evenodd" d="M352,489l66,0l0,-24l-66,0l0,24Z" class="g1_192" />
</g>
<path fill-rule="evenodd" d="M427,489l460,0l0,-24l-460,0l0,24Z" class="g1_192" />
<g clip-path="url(#c6_192)">
<path fill-rule="evenodd" d="M434,489l446,0l0,-24l-446,0l0,24Z" class="g1_192" />
</g>
<path d="M46.5,465.5l0,-2" class="g2_192" />
<path d="M86.5,465.5l0,-2" class="g2_192" />
<path d="M88.5,465.5l255,0" class="g2_192" />
<path d="M343.5,465.5l0,-2" class="g2_192" />
<path d="M344.5,465.5l81,0" class="g2_192" />
<path d="M425.5,465.5l0,-2" class="g2_192" />
<path d="M427.5,465.5l460,0" class="g2_192" />
<path d="M887.5,465.5l0,-2" class="g2_192" />
<path d="M46.5,489.5l0,-24" class="g2_192" />
<path d="M86.5,489.5l0,-24" class="g2_192" />
<path d="M343.5,489.5l0,-24" class="g2_192" />
<path d="M425.5,489.5l0,-24" class="g2_192" />
<path d="M887.5,489.5l0,-24" class="g2_192" />
<path fill-rule="evenodd" d="M88,515l255,0l0,-24L88,491l0,24Z" class="g1_192" />
<path fill-rule="evenodd" d="M95,514l240,0l0,-23L95,491l0,23Z" class="g1_192" />
<path fill-rule="evenodd" d="M344,515l81,0l0,-24l-81,0l0,24Z" class="g1_192" />
<path fill-rule="evenodd" d="M352,514l66,0l0,-23l-66,0l0,23Z" class="g1_192" />
<path fill-rule="evenodd" d="M427,515l460,0l0,-24l-460,0l0,24Z" class="g1_192" />
<path fill-rule="evenodd" d="M434,514l446,0l0,-23l-446,0l0,23Z" class="g1_192" />
<path d="M46.5,491.5l0,-2" class="g2_192" />
<path d="M86.5,491.5l0,-2" class="g2_192" />
<path d="M88.5,491.5l255,0" class="g2_192" />
<path d="M343.5,491.5l0,-2" class="g2_192" />
<path d="M344.5,491.5l81,0" class="g2_192" />
<path d="M425.5,491.5l0,-2" class="g2_192" />
<path d="M427.5,491.5l460,0" class="g2_192" />
<path d="M887.5,491.5l0,-2" class="g2_192" />
<path d="M46.5,515.5l0,-24" class="g2_192" />
<path d="M86.5,515.5l0,-24" class="g2_192" />
<path d="M343.5,515.5l0,-24" class="g2_192" />
<path d="M425.5,515.5l0,-24" class="g2_192" />
<path d="M887.5,515.5l0,-24" class="g2_192" />
<path fill-rule="evenodd" d="M88,677l35,0l0,-161l-35,0l0,161Z" class="g1_192" />
<g clip-path="url(#c7_192)">
<path fill-rule="evenodd" d="M95,677l24,0l0,-161l-24,0l0,161Z" class="g1_192" />
</g>
<path fill-rule="evenodd" d="M124,540l219,0l0,-24l-219,0l0,24Z" class="g1_192" />
<path fill-rule="evenodd" d="M132,540l203,0l0,-24l-203,0l0,24Z" class="g1_192" />
<path fill-rule="evenodd" d="M344,540l81,0l0,-24l-81,0l0,24Z" class="g1_192" />
<path fill-rule="evenodd" d="M352,540l66,0l0,-24l-66,0l0,24Z" class="g1_192" />
<path fill-rule="evenodd" d="M427,540l460,0l0,-24l-460,0l0,24Z" class="g1_192" />
<path fill-rule="evenodd" d="M434,540l446,0l0,-24l-446,0l0,24Z" class="g1_192" />
<path d="M46.5,516.5l0,-1" class="g2_192" />
<path d="M86.5,516.5l0,-1" class="g2_192" />
<path d="M88.5,516.5l35,0" class="g2_192" />
<path d="M123.5,516.5l0,-1" class="g2_192" />
<path d="M124.5,516.5l219,0" class="g2_192" />
<path d="M343.5,516.5l0,-1" class="g2_192" />
<path d="M344.5,516.5l81,0" class="g2_192" />
<path d="M425.5,516.5l0,-1" class="g2_192" />
<path d="M427.5,516.5l460,0" class="g2_192" />
<path d="M887.5,516.5l0,-1" class="g2_192" />
<path d="M46.5,540.5l0,-24" class="g2_192" />
<path d="M86.5,540.5l0,-24" class="g2_192" />
<path d="M123.5,540.5l0,-24" class="g2_192" />
<path d="M343.5,540.5l0,-24" class="g2_192" />
<path d="M425.5,540.5l0,-24" class="g2_192" />
<path d="M887.5,540.5l0,-24" class="g2_192" />
<path fill-rule="evenodd" d="M124,677l33,0l0,-135l-33,0l0,135Z" class="g1_192" />
<g clip-path="url(#c8_192)">
<path fill-rule="evenodd" d="M132,677l24,0l0,-135l-24,0l0,135Z" class="g1_192" />
</g>
<path fill-rule="evenodd" d="M158,677l33,0l0,-135l-33,0l0,135Z" class="g1_192" />
<g clip-path="url(#c9_192)">
<path fill-rule="evenodd" d="M166,677l24,0l0,-135l-24,0l0,135Z" class="g1_192" />
</g>
<path fill-rule="evenodd" d="M193,566l150,0l0,-24l-150,0l0,24Z" class="g1_192" />
<path fill-rule="evenodd" d="M200,566l135,0l0,-24l-135,0l0,24Z" class="g1_192" />
<path fill-rule="evenodd" d="M344,566l81,0l0,-24l-81,0l0,24Z" class="g1_192" />
<path fill-rule="evenodd" d="M352,566l66,0l0,-24l-66,0l0,24Z" class="g1_192" />
<path fill-rule="evenodd" d="M427,566l460,0l0,-24l-460,0l0,24Z" class="g1_192" />
<path fill-rule="evenodd" d="M434,566l446,0l0,-24l-446,0l0,24Z" class="g1_192" />
<path d="M46.5,542.5l0,-2" class="g2_192" />
<path d="M86.5,542.5l0,-2" class="g2_192" />
<path d="M123.5,542.5l0,-2" class="g2_192" />
<path d="M124.5,542.5l33,0" class="g2_192" />
<path d="M157.5,542.5l0,-2" class="g2_192" />
<path d="M158.5,542.5l33,0" class="g2_192" />
<path d="M191.5,542.5l0,-2" class="g2_192" />
<path d="M193.5,542.5l150,0" class="g2_192" />
<path d="M343.5,542.5l0,-2" class="g2_192" />
<path d="M344.5,542.5l81,0" class="g2_192" />
<path d="M425.5,542.5l0,-2" class="g2_192" />
<path d="M427.5,542.5l460,0" class="g2_192" />
<path d="M887.5,542.5l0,-2" class="g2_192" />
<path d="M46.5,566.5l0,-24" class="g2_192" />
<path d="M86.5,566.5l0,-24" class="g2_192" />
<path d="M123.5,566.5l0,-24" class="g2_192" />
<path d="M157.5,566.5l0,-24" class="g2_192" />
<path d="M191.5,566.5l0,-24" class="g2_192" />
<path d="M343.5,566.5l0,-24" class="g2_192" />
<path d="M425.5,566.5l0,-24" class="g2_192" />
<path d="M887.5,566.5l0,-24" class="g2_192" />
<path fill-rule="evenodd" d="M193,677l53,0l0,-110l-53,0l0,110Z" class="g1_192" />
<g clip-path="url(#c10_192)">
<path fill-rule="evenodd" d="M200,677l24,0l0,-110l-24,0l0,110Z" class="g1_192" />
</g>
<path fill-rule="evenodd" d="M248,677l95,0l0,-110l-95,0l0,110Z" class="g1_192" />
<path fill-rule="evenodd" d="M255,591l80,0l0,-24l-80,0l0,24Z" class="g1_192" />
<path fill-rule="evenodd" d="M344,677l81,0l0,-110l-81,0l0,110Z" class="g1_192" />
<path fill-rule="evenodd" d="M352,591l66,0l0,-24l-66,0l0,24Z" class="g1_192" />
<path fill-rule="evenodd" d="M427,677l460,0l0,-110l-460,0l0,110Z" class="g1_192" />
<path fill-rule="evenodd" d="M434,591l446,0l0,-24l-446,0l0,24Z" class="g1_192" />
<path d="M46.5,567.5l0,-1" class="g2_192" />
<path d="M86.5,567.5l0,-1" class="g2_192" />
<path d="M123.5,567.5l0,-1" class="g2_192" />
<path d="M157.5,567.5l0,-1" class="g2_192" />
<path d="M191.5,567.5l0,-1" class="g2_192" />
<path d="M193.5,567.5l53,0" class="g2_192" />
<path d="M246.5,567.5l0,-1" class="g2_192" />
<path d="M248.5,567.5l95,0" class="g2_192" />
<path d="M343.5,567.5l0,-1" class="g2_192" />
<path d="M344.5,567.5l81,0" class="g2_192" />
<path d="M425.5,567.5l0,-1" class="g2_192" />
<path d="M427.5,567.5l460,0" class="g2_192" />
<path d="M887.5,567.5l0,-1" class="g2_192" />
<path d="M46.5,677.5l0,-110" class="g2_192" />
<path d="M46.5,679.5l0,-2" class="g2_192" />
<path d="M46.5,679.5l0,-2" class="g2_192" />
<path d="M47.5,679.5l39,0" class="g2_192" />
<path d="M86.5,677.5l0,-110" class="g2_192" />
<path d="M86.5,679.5l0,-2" class="g2_192" />
<path d="M88.5,679.5l35,0" class="g2_192" />
<path d="M123.5,677.5l0,-110" class="g2_192" />
<path d="M123.5,679.5l0,-2" class="g2_192" />
<path d="M124.5,679.5l33,0" class="g2_192" />
<path d="M157.5,677.5l0,-110" class="g2_192" />
<path d="M157.5,679.5l0,-2" class="g2_192" />
<path d="M158.5,679.5l33,0" class="g2_192" />
<path d="M191.5,677.5l0,-110" class="g2_192" />
<path d="M191.5,679.5l0,-2" class="g2_192" />
<path d="M193.5,679.5l53,0" class="g2_192" />
<path d="M246.5,677.5l0,-110" class="g2_192" />
<path d="M246.5,679.5l0,-2" class="g2_192" />
<path d="M248.5,679.5l95,0" class="g2_192" />
<path d="M343.5,677.5l0,-110" class="g2_192" />
<path d="M343.5,679.5l0,-2" class="g2_192" />
<path d="M344.5,679.5l81,0" class="g2_192" />
<path d="M425.5,677.5l0,-110" class="g2_192" />
<path d="M425.5,679.5l0,-2" class="g2_192" />
<path d="M427.5,679.5l460,0" class="g2_192" />
<path d="M887.5,677.5l0,-110" class="g2_192" />
<path d="M887.5,679.5l0,-2" class="g2_192" />
<path d="M887.5,679.5l0,-2" class="g2_192" />
<path fill-rule="evenodd" d="M47,799l840,0l0,-24L47,775l0,24Z" class="g1_192" />
<g clip-path="url(#c11_192)">
<path fill-rule="evenodd" d="M55,799l825,0l0,-24L55,775l0,24Z" class="g1_192" />
</g>
<path d="M46.5,775.5l0,-1" class="g2_192" />
<path d="M46.5,775.5l0,-1" class="g2_192" />
<path d="M47.5,775.5l840,0" class="g2_192" />
<path d="M887.5,775.5l0,-1" class="g2_192" />
<path d="M887.5,775.5l0,-1" class="g2_192" />
<path d="M46.5,799.5l0,-24" class="g2_192" />
<path d="M46.5,801.5l0,-2" class="g2_192" />
<path d="M46.5,801.5l0,-2" class="g2_192" />
<path d="M47.5,801.5l840,0" class="g2_192" />
<path d="M887.5,799.5l0,-24" class="g2_192" />
<path d="M887.5,801.5l0,-2" class="g2_192" />
<path d="M887.5,801.5l0,-2" class="g2_192" />
<path fill-rule="evenodd" d="M47,1088l840,0l0,-262L47,826l0,262Z" class="g1_192" />
<g clip-path="url(#c12_192)">
<path fill-rule="evenodd" d="M55,850l825,0l0,-24L55,826l0,24Z" class="g1_192" />
</g>
<path fill-rule="evenodd" d="M55,874l825,0l0,-24L55,850l0,24Z" class="g1_192" />
<path fill-rule="evenodd" d="M55,898l825,0l0,-24L55,874l0,24Z" class="g1_192" />
<path fill-rule="evenodd" d="M55,922l825,0l0,-24L55,898l0,24Z" class="g1_192" />
<path fill-rule="evenodd" d="M55,945l825,0l0,-23L55,922l0,23Z" class="g1_192" />
<path fill-rule="evenodd" d="M55,969l825,0l0,-24L55,945l0,24Z" class="g1_192" />
<path fill-rule="evenodd" d="M55,993l825,0l0,-24L55,969l0,24Z" class="g1_192" />
<path fill-rule="evenodd" d="M55,1017l825,0l0,-24L55,993l0,24Z" class="g1_192" />
<path fill-rule="evenodd" d="M55,1041l825,0l0,-24l-825,0l0,24Z" class="g1_192" />
<path fill-rule="evenodd" d="M55,1065l825,0l0,-24l-825,0l0,24Z" class="g1_192" />
<g clip-path="url(#c12_192)">
<path fill-rule="evenodd" d="M55,1088l825,0l0,-23l-825,0l0,23Z" class="g1_192" />
</g>
<path d="M46.5,826.5l0,-1" class="g2_192" />
<path d="M46.5,826.5l0,-1" class="g2_192" />
<path d="M47.5,826.5l840,0" class="g2_192" />
<path d="M887.5,826.5l0,-1" class="g2_192" />
<path d="M887.5,826.5l0,-1" class="g2_192" />
<path d="M46.5,1088.5l0,-262" class="g2_192" />
<path d="M46.5,1090.5l0,-2" class="g2_192" />
<path d="M46.5,1090.5l0,-2" class="g2_192" />
<path d="M47.5,1090.5l840,0" class="g2_192" />
<path d="M887.5,1088.5l0,-262" class="g2_192" />
<path d="M887.5,1090.5l0,-2" class="g2_192" />
<path d="M887.5,1090.5l0,-2" class="g2_192" />
</svg>