<?xml version="1.0" encoding="UTF-8" standalone="no"?>
<!DOCTYPE svg PUBLIC "-//W3C//DTD SVG 1.1//EN"
"http://www.w3.org/Graphics/SVG/1.1/DTD/svg11.dtd">
<svg version="1.1" xmlns="http://www.w3.org/2000/svg" xmlns:xlink="http://www.w3.org/1999/xlink">
<defs>
<clipPath id="c0_272"><path d="M47.5,230.5l0,-119l840,0l0,119Z" /></clipPath>
<clipPath id="c1_272"><path d="M54.5,389.5l0,-24l281,0l0,24Z" /></clipPath>
<clipPath id="c2_272"><path d="M335.5,389.5l0,-24l372,0l0,24Z" /></clipPath>
<clipPath id="c3_272"><path d="M707.5,389.5l0,-24l84,0l0,24Z" /></clipPath>
<style type="text/css"><![CDATA[
.g2_272{
fill: none;
stroke: #7E7E7E;
stroke-width: 1;
stroke-linecap: butt;
stroke-linejoin: miter;
}
.g4_272{
fill: none;
stroke: #000000;
stroke-width: 1;
stroke-linecap: butt;
stroke-linejoin: miter;
}
.g3_272{
fill: #D7D7D7;
}
.g1_272{
fill: #F1F1F1;
}
]]></style>
</defs>
<path fill-rule="evenodd" d="M47,230l840,0l0,-119L47,111l0,119Z" class="g1_272" />
<g clip-path="url(#c0_272)">
<path fill-rule="evenodd" d="M55,135l825,0l0,-24L55,111l0,24Z" class="g1_272" />
</g>
<path fill-rule="evenodd" d="M55,159l825,0l0,-24L55,135l0,24Z" class="g1_272" />
<path fill-rule="evenodd" d="M55,182l825,0l0,-23L55,159l0,23Z" class="g1_272" />
<path fill-rule="evenodd" d="M55,206l825,0l0,-24L55,182l0,24Z" class="g1_272" />
<path fill-rule="evenodd" d="M55,230l825,0l0,-24L55,206l0,24Z" class="g1_272" />
<path d="M46.5,111.5l0,-1" class="g2_272" />
<path d="M46.5,111.5l0,-1" class="g2_272" />
<path d="M47.5,111.5l840,0" class="g2_272" />
<path d="M887.5,111.5l0,-1" class="g2_272" />
<path d="M887.5,111.5l0,-1" class="g2_272" />
<path d="M46.5,230.5l0,-119" class="g2_272" />
<path d="M46.5,232.5l0,-2" class="g2_272" />
<path d="M46.5,232.5l0,-2" class="g2_272" />
<path d="M47.5,232.5l840,0" class="g2_272" />
<path d="M887.5,230.5l0,-119" class="g2_272" />
<path d="M887.5,232.5l0,-2" class="g2_272" />
<path d="M887.5,232.5l0,-2" class="g2_272" />
<path fill-rule="evenodd" d="M54,389l281,0l0,-24L54,365l0,24Z" class="g3_272" />
<g clip-path="url(#c1_272)">
<path fill-rule="evenodd" d="M62,389l265,0l0,-24L62,365l0,24Z" class="g3_272" />
</g>
<path fill-rule="evenodd" d="M335,389l372,0l0,-24l-372,0l0,24Z" class="g3_272" />
<g clip-path="url(#c2_272)">
<path fill-rule="evenodd" d="M344,389l355,0l0,-24l-355,0l0,24Z" class="g3_272" />
</g>
<path fill-rule="evenodd" d="M707,389l84,0l0,-24l-84,0l0,24Z" class="g3_272" />
<g clip-path="url(#c3_272)">
<path fill-rule="evenodd" d="M715,389l68,0l0,-24l-68,0l0,24Z" class="g3_272" />
</g>
<path d="M53.5,365.5l0,-1" class="g4_272" />
<path d="M53.5,365.5l0,-1" class="g4_272" />
<path d="M54.5,365.5l281,0" class="g4_272" />
<path d="M335.5,365.5l0,-1" class="g4_272" />
<path d="M336.5,365.5l371,0" class="g4_272" />
<path d="M707.5,365.5l0,-1" class="g4_272" />
<path d="M707.5,365.5l84,0" class="g4_272" />
<path d="M791.5,365.5l0,-1" class="g4_272" />
<path d="M791.5,365.5l0,-1" class="g4_272" />
<path d="M53.5,389.5l0,-24" class="g4_272" />
<path d="M335.5,389.5l0,-24" class="g4_272" />
<path d="M707.5,389.5l0,-24" class="g4_272" />
<path d="M791.5,389.5l0,-24" class="g4_272" />
<path d="M54.5,389.5l281,0" class="g4_272" />
<path d="M336.5,389.5l371,0" class="g4_272" />
<path d="M707.5,389.5l84,0" class="g4_272" />
<path d="M53.5,437.5l0,-48" class="g4_272" />
<path d="M335.5,437.5l0,-48" class="g4_272" />
<path d="M707.5,437.5l0,-48" class="g4_272" />
<path d="M791.5,437.5l0,-48" class="g4_272" />
<path d="M53.5,438.5l0,-1" class="g4_272" />
<path d="M54.5,438.5l281,0" class="g4_272" />
<path d="M335.5,438.5l0,-1" class="g4_272" />
<path d="M336.5,438.5l371,0" class="g4_272" />
<path d="M707.5,438.5l0,-1" class="g4_272" />
<path d="M707.5,438.5l84,0" class="g4_272" />
<path d="M791.5,438.5l0,-1" class="g4_272" />
<path d="M53.5,462.5l0,-24" class="g4_272" />
<path d="M335.5,462.5l0,-24" class="g4_272" />
<path d="M707.5,462.5l0,-24" class="g4_272" />
<path d="M791.5,462.5l0,-24" class="g4_272" />
<path d="M54.5,462.5l40,0" class="g4_272" />
<path d="M94.5,462.5l41,0" class="g4_272" />
<path d="M135.5,462.5l200,0" class="g4_272" />
<path d="M336.5,462.5l371,0" class="g4_272" />
<path d="M707.5,462.5l84,0" class="g4_272" />
<path d="M53.5,487.5l0,-25" class="g4_272" />
<path d="M94.5,487.5l0,-25" class="g4_272" />
<path d="M135.5,487.5l0,-25" class="g4_272" />
<path d="M335.5,487.5l0,-25" class="g4_272" />
<path d="M707.5,487.5l0,-25" class="g4_272" />
<path d="M791.5,487.5l0,-25" class="g4_272" />
<path d="M135.5,487.5l200,0" class="g4_272" />
<path d="M336.5,487.5l371,0" class="g4_272" />
<path d="M707.5,487.5l84,0" class="g4_272" />
<path d="M53.5,511.5l0,-24" class="g4_272" />
<path d="M94.5,511.5l0,-24" class="g4_272" />
<path d="M135.5,511.5l0,-24" class="g4_272" />
<path d="M335.5,511.5l0,-24" class="g4_272" />
<path d="M707.5,511.5l0,-24" class="g4_272" />
<path d="M791.5,511.5l0,-24" class="g4_272" />
<path d="M53.5,512.5l0,-1" class="g4_272" />
<path d="M94.5,512.5l0,-1" class="g4_272" />
<path d="M135.5,512.5l0,-1" class="g4_272" />
<path d="M135.5,512.5l200,0" class="g4_272" />
<path d="M335.5,512.5l0,-1" class="g4_272" />
<path d="M336.5,512.5l371,0" class="g4_272" />
<path d="M707.5,512.5l0,-1" class="g4_272" />
<path d="M707.5,512.5l84,0" class="g4_272" />
<path d="M791.5,512.5l0,-1" class="g4_272" />
<path d="M53.5,559.5l0,-47" class="g4_272" />
<path d="M94.5,559.5l0,-47" class="g4_272" />
<path d="M135.5,559.5l0,-47" class="g4_272" />
<path d="M335.5,559.5l0,-47" class="g4_272" />
<path d="M707.5,559.5l0,-47" class="g4_272" />
<path d="M791.5,559.5l0,-47" class="g4_272" />
<path d="M53.5,560.5l0,-1" class="g4_272" />
<path d="M94.5,560.5l0,-1" class="g4_272" />
<path d="M135.5,560.5l0,-1" class="g4_272" />
<path d="M135.5,560.5l200,0" class="g4_272" />
<path d="M335.5,560.5l0,-1" class="g4_272" />
<path d="M336.5,560.5l371,0" class="g4_272" />
<path d="M707.5,560.5l0,-1" class="g4_272" />
<path d="M707.5,560.5l84,0" class="g4_272" />
<path d="M791.5,560.5l0,-1" class="g4_272" />
<path d="M53.5,584.5l0,-24" class="g4_272" />
<path d="M94.5,584.5l0,-24" class="g4_272" />
<path d="M135.5,584.5l0,-24" class="g4_272" />
<path d="M335.5,584.5l0,-24" class="g4_272" />
<path d="M707.5,584.5l0,-24" class="g4_272" />
<path d="M791.5,584.5l0,-24" class="g4_272" />
<path d="M53.5,585.5l0,-1" class="g4_272" />
<path d="M94.5,585.5l0,-1" class="g4_272" />
<path d="M135.5,585.5l0,-1" class="g4_272" />
<path d="M135.5,585.5l200,0" class="g4_272" />
<path d="M335.5,585.5l0,-1" class="g4_272" />
<path d="M336.5,585.5l371,0" class="g4_272" />
<path d="M707.5,585.5l0,-1" class="g4_272" />
<path d="M707.5,585.5l84,0" class="g4_272" />
<path d="M791.5,585.5l0,-1" class="g4_272" />
<path d="M53.5,609.5l0,-24" class="g4_272" />
<path d="M94.5,609.5l0,-24" class="g4_272" />
<path d="M135.5,609.5l0,-24" class="g4_272" />
<path d="M335.5,609.5l0,-24" class="g4_272" />
<path d="M707.5,609.5l0,-24" class="g4_272" />
<path d="M791.5,609.5l0,-24" class="g4_272" />
<path d="M135.5,609.5l200,0" class="g4_272" />
<path d="M336.5,609.5l371,0" class="g4_272" />
<path d="M707.5,609.5l84,0" class="g4_272" />
<path d="M53.5,633.5l0,-24" class="g4_272" />
<path d="M94.5,633.5l0,-24" class="g4_272" />
<path d="M135.5,633.5l0,-24" class="g4_272" />
<path d="M335.5,633.5l0,-24" class="g4_272" />
<path d="M707.5,633.5l0,-24" class="g4_272" />
<path d="M791.5,633.5l0,-24" class="g4_272" />
<path d="M53.5,634.5l0,-1" class="g4_272" />
<path d="M94.5,634.5l0,-1" class="g4_272" />
<path d="M135.5,634.5l0,-1" class="g4_272" />
<path d="M135.5,634.5l200,0" class="g4_272" />
<path d="M335.5,634.5l0,-1" class="g4_272" />
<path d="M336.5,634.5l371,0" class="g4_272" />
<path d="M707.5,634.5l0,-1" class="g4_272" />
<path d="M707.5,634.5l84,0" class="g4_272" />
<path d="M791.5,634.5l0,-1" class="g4_272" />
<path d="M53.5,658.5l0,-24" class="g4_272" />
<path d="M94.5,658.5l0,-24" class="g4_272" />
<path d="M135.5,658.5l0,-24" class="g4_272" />
<path d="M335.5,658.5l0,-24" class="g4_272" />
<path d="M707.5,658.5l0,-24" class="g4_272" />
<path d="M791.5,658.5l0,-24" class="g4_272" />
<path d="M53.5,659.5l0,-1" class="g4_272" />
<path d="M94.5,659.5l0,-1" class="g4_272" />
<path d="M135.5,659.5l0,-1" class="g4_272" />
<path d="M135.5,659.5l40,0" class="g4_272" />
<path d="M175.5,659.5l0,-1" class="g4_272" />
<path d="M176.5,659.5l159,0" class="g4_272" />
<path d="M335.5,659.5l0,-1" class="g4_272" />
<path d="M336.5,659.5l371,0" class="g4_272" />
<path d="M707.5,659.5l0,-1" class="g4_272" />
<path d="M707.5,659.5l84,0" class="g4_272" />
<path d="M791.5,659.5l0,-1" class="g4_272" />
<path d="M53.5,849.5l0,-190" class="g4_272" />
<path d="M94.5,849.5l0,-190" class="g4_272" />
<path d="M135.5,849.5l0,-190" class="g4_272" />
<path d="M175.5,849.5l0,-190" class="g4_272" />
<path d="M335.5,849.5l0,-190" class="g4_272" />
<path d="M707.5,849.5l0,-190" class="g4_272" />
<path d="M791.5,849.5l0,-190" class="g4_272" />
<path d="M53.5,850.5l0,-1" class="g4_272" />
<path d="M94.5,850.5l0,-1" class="g4_272" />
<path d="M135.5,850.5l0,-1" class="g4_272" />
<path d="M175.5,850.5l0,-1" class="g4_272" />
<path d="M176.5,850.5l40,0" class="g4_272" />
<path d="M216.5,850.5l0,-1" class="g4_272" />
<path d="M217.5,850.5l118,0" class="g4_272" />
<path d="M335.5,850.5l0,-1" class="g4_272" />
<path d="M336.5,850.5l371,0" class="g4_272" />
<path d="M707.5,850.5l0,-1" class="g4_272" />
<path d="M707.5,850.5l84,0" class="g4_272" />
<path d="M791.5,850.5l0,-1" class="g4_272" />
<path d="M53.5,926.5l0,-76" class="g4_272" />
<path d="M53.5,927.5l0,-1" class="g4_272" />
<path d="M53.5,927.5l0,-1" class="g4_272" />
<path d="M54.5,927.5l40,0" class="g4_272" />
<path d="M94.5,926.5l0,-76" class="g4_272" />
<path d="M94.5,927.5l0,-1" class="g4_272" />
<path d="M94.5,927.5l41,0" class="g4_272" />
<path d="M135.5,926.5l0,-76" class="g4_272" />
<path d="M135.5,927.5l0,-1" class="g4_272" />
<path d="M135.5,927.5l40,0" class="g4_272" />
<path d="M175.5,926.5l0,-76" class="g4_272" />
<path d="M175.5,927.5l0,-1" class="g4_272" />
<path d="M176.5,927.5l40,0" class="g4_272" />
<path d="M216.5,926.5l0,-76" class="g4_272" />
<path d="M216.5,927.5l0,-1" class="g4_272" />
<path d="M217.5,927.5l118,0" class="g4_272" />
<path d="M335.5,926.5l0,-76" class="g4_272" />
<path d="M335.5,927.5l0,-1" class="g4_272" />
<path d="M336.5,927.5l371,0" class="g4_272" />
<path d="M707.5,926.5l0,-76" class="g4_272" />
<path d="M707.5,927.5l0,-1" class="g4_272" />
<path d="M707.5,927.5l84,0" class="g4_272" />
<path d="M791.5,926.5l0,-76" class="g4_272" />
<path d="M791.5,927.5l0,-1" class="g4_272" />
<path d="M791.5,927.5l0,-1" class="g4_272" />
</svg>