<?xml version="1.0" encoding="UTF-8" standalone="no"?>
<!DOCTYPE svg PUBLIC "-//W3C//DTD SVG 1.1//EN"
"http://www.w3.org/Graphics/SVG/1.1/DTD/svg11.dtd">
<svg version="1.1" xmlns="http://www.w3.org/2000/svg" xmlns:xlink="http://www.w3.org/1999/xlink">
<defs>
<clipPath id="c0_61"><path d="M275.5,492.5l0,-381l195,0l0,381Z" /></clipPath>
<clipPath id="c1_61"><path d="M472.5,492.5l0,-381l94,0l0,381Z" /></clipPath>
<clipPath id="c2_61"><path d="M567.5,492.5l0,-381l326,0l0,381Z" /></clipPath>
<clipPath id="c3_61"><path d="M47.5,1095.5l0,-453l840,0l0,453Z" /></clipPath>
<style type="text/css"><![CDATA[
.g2_61{
fill: none;
stroke: #7E7E7E;
stroke-width: 1;
stroke-linecap: butt;
stroke-linejoin: miter;
}
.g1_61{
fill: #F1F1F1;
}
]]></style>
</defs>
<path fill-rule="evenodd" d="M47,492l37,0L84,111l-37,0l0,381Z" class="g1_61" />
<path fill-rule="evenodd" d="M85,492l36,0l0,-381l-36,0l0,381Z" class="g1_61" />
<path fill-rule="evenodd" d="M123,492l35,0l0,-381l-35,0l0,381Z" class="g1_61" />
<path fill-rule="evenodd" d="M160,492l35,0l0,-381l-35,0l0,381Z" class="g1_61" />
<path fill-rule="evenodd" d="M196,492l78,0l0,-381l-78,0l0,381Z" class="g1_61" />
<path fill-rule="evenodd" d="M204,492l24,0l0,-381l-24,0l0,381Z" class="g1_61" />
<path fill-rule="evenodd" d="M275,492l195,0l0,-381l-195,0l0,381Z" class="g1_61" />
<g clip-path="url(#c0_61)">
<path fill-rule="evenodd" d="M283,135l180,0l0,-24l-180,0l0,24Z" class="g1_61" />
</g>
<path fill-rule="evenodd" d="M472,492l94,0l0,-381l-94,0l0,381Z" class="g1_61" />
<g clip-path="url(#c1_61)">
<path fill-rule="evenodd" d="M479,135l79,0l0,-24l-79,0l0,24Z" class="g1_61" />
</g>
<path fill-rule="evenodd" d="M567,492l326,0l0,-381l-326,0l0,381Z" class="g1_61" />
<g clip-path="url(#c2_61)">
<path fill-rule="evenodd" d="M575,135l310,0l0,-24l-310,0l0,24Z" class="g1_61" />
</g>
<path fill-rule="evenodd" d="M575,159l310,0l0,-24l-310,0l0,24Z" class="g1_61" />
<path fill-rule="evenodd" d="M575,182l310,0l0,-23l-310,0l0,23Z" class="g1_61" />
<path fill-rule="evenodd" d="M575,206l310,0l0,-24l-310,0l0,24Z" class="g1_61" />
<path fill-rule="evenodd" d="M575,230l310,0l0,-24l-310,0l0,24Z" class="g1_61" />
<path fill-rule="evenodd" d="M575,254l310,0l0,-24l-310,0l0,24Z" class="g1_61" />
<path fill-rule="evenodd" d="M575,278l310,0l0,-24l-310,0l0,24Z" class="g1_61" />
<path fill-rule="evenodd" d="M575,302l310,0l0,-24l-310,0l0,24Z" class="g1_61" />
<path fill-rule="evenodd" d="M575,325l310,0l0,-23l-310,0l0,23Z" class="g1_61" />
<path fill-rule="evenodd" d="M575,349l310,0l0,-24l-310,0l0,24Z" class="g1_61" />
<path fill-rule="evenodd" d="M575,373l310,0l0,-24l-310,0l0,24Z" class="g1_61" />
<path fill-rule="evenodd" d="M575,397l310,0l0,-24l-310,0l0,24Z" class="g1_61" />
<path fill-rule="evenodd" d="M575,421l310,0l0,-24l-310,0l0,24Z" class="g1_61" />
<path fill-rule="evenodd" d="M575,445l310,0l0,-24l-310,0l0,24Z" class="g1_61" />
<path fill-rule="evenodd" d="M575,469l310,0l0,-24l-310,0l0,24Z" class="g1_61" />
<path fill-rule="evenodd" d="M575,492l310,0l0,-23l-310,0l0,23Z" class="g1_61" />
<path d="M46.5,111.5l0,-1" class="g2_61" />
<path d="M46.5,111.5l0,-1" class="g2_61" />
<path d="M47.5,111.5l37,0" class="g2_61" />
<path d="M84.5,111.5l0,-1" class="g2_61" />
<path d="M85.5,111.5l36,0" class="g2_61" />
<path d="M121.5,111.5l0,-1" class="g2_61" />
<path d="M123.5,111.5l35,0" class="g2_61" />
<path d="M158.5,111.5l0,-1" class="g2_61" />
<path d="M160.5,111.5l35,0" class="g2_61" />
<path d="M195.5,111.5l0,-1" class="g2_61" />
<path d="M196.5,111.5l78,0" class="g2_61" />
<path d="M274.5,111.5l0,-1" class="g2_61" />
<path d="M275.5,111.5l195,0" class="g2_61" />
<path d="M470.5,111.5l0,-1" class="g2_61" />
<path d="M472.5,111.5l94,0" class="g2_61" />
<path d="M566.5,111.5l0,-1" class="g2_61" />
<path d="M567.5,111.5l326,0" class="g2_61" />
<path d="M893.5,111.5l0,-1" class="g2_61" />
<path d="M893.5,111.5l0,-1" class="g2_61" />
<path d="M46.5,493.5l0,-382" class="g2_61" />
<path d="M46.5,494.5l0,-1" class="g2_61" />
<path d="M46.5,494.5l0,-1" class="g2_61" />
<path d="M47.5,494.5l37,0" class="g2_61" />
<path d="M84.5,493.5l0,-382" class="g2_61" />
<path d="M84.5,494.5l0,-1" class="g2_61" />
<path d="M85.5,494.5l36,0" class="g2_61" />
<path d="M121.5,493.5l0,-382" class="g2_61" />
<path d="M121.5,494.5l0,-1" class="g2_61" />
<path d="M123.5,494.5l35,0" class="g2_61" />
<path d="M158.5,493.5l0,-382" class="g2_61" />
<path d="M158.5,494.5l0,-1" class="g2_61" />
<path d="M160.5,494.5l35,0" class="g2_61" />
<path d="M195.5,493.5l0,-382" class="g2_61" />
<path d="M195.5,494.5l0,-1" class="g2_61" />
<path d="M196.5,494.5l78,0" class="g2_61" />
<path d="M274.5,493.5l0,-382" class="g2_61" />
<path d="M274.5,494.5l0,-1" class="g2_61" />
<path d="M275.5,494.5l195,0" class="g2_61" />
<path d="M470.5,493.5l0,-382" class="g2_61" />
<path d="M470.5,494.5l0,-1" class="g2_61" />
<path d="M472.5,494.5l94,0" class="g2_61" />
<path d="M566.5,493.5l0,-382" class="g2_61" />
<path d="M566.5,494.5l0,-1" class="g2_61" />
<path d="M567.5,494.5l326,0" class="g2_61" />
<path d="M893.5,493.5l0,-382" class="g2_61" />
<path d="M893.5,494.5l0,-1" class="g2_61" />
<path d="M893.5,494.5l0,-1" class="g2_61" />
<path fill-rule="evenodd" d="M47,615l840,0l0,-24L47,591l0,24Z" class="g1_61" />
<path fill-rule="evenodd" d="M55,615l825,0l0,-24L55,591l0,24Z" class="g1_61" />
<path d="M46.5,591.5l0,-2" class="g2_61" />
<path d="M46.5,591.5l0,-2" class="g2_61" />
<path d="M47.5,591.5l840,0" class="g2_61" />
<path d="M887.5,591.5l0,-2" class="g2_61" />
<path d="M887.5,591.5l0,-2" class="g2_61" />
<path d="M46.5,615.5l0,-24" class="g2_61" />
<path d="M46.5,616.5l0,-1" class="g2_61" />
<path d="M46.5,616.5l0,-1" class="g2_61" />
<path d="M47.5,616.5l840,0" class="g2_61" />
<path d="M887.5,615.5l0,-24" class="g2_61" />
<path d="M887.5,616.5l0,-1" class="g2_61" />
<path d="M887.5,616.5l0,-1" class="g2_61" />
<path fill-rule="evenodd" d="M47,1095l840,0l0,-453L47,642l0,453Z" class="g1_61" />
<path fill-rule="evenodd" d="M55,665l825,0l0,-23L55,642l0,23Z" class="g1_61" />
<path fill-rule="evenodd" d="M55,689l825,0l0,-24L55,665l0,24Z" class="g1_61" />
<path fill-rule="evenodd" d="M55,713l825,0l0,-24L55,689l0,24Z" class="g1_61" />
<path fill-rule="evenodd" d="M55,737l825,0l0,-24L55,713l0,24Z" class="g1_61" />
<path fill-rule="evenodd" d="M55,761l825,0l0,-24L55,737l0,24Z" class="g1_61" />
<path fill-rule="evenodd" d="M55,785l825,0l0,-24L55,761l0,24Z" class="g1_61" />
<path fill-rule="evenodd" d="M55,808l825,0l0,-23L55,785l0,23Z" class="g1_61" />
<path fill-rule="evenodd" d="M55,832l825,0l0,-24L55,808l0,24Z" class="g1_61" />
<path fill-rule="evenodd" d="M55,856l825,0l0,-24L55,832l0,24Z" class="g1_61" />
<path fill-rule="evenodd" d="M55,880l825,0l0,-24L55,856l0,24Z" class="g1_61" />
<path fill-rule="evenodd" d="M55,904l825,0l0,-24L55,880l0,24Z" class="g1_61" />
<path fill-rule="evenodd" d="M55,928l825,0l0,-24L55,904l0,24Z" class="g1_61" />
<path fill-rule="evenodd" d="M55,952l825,0l0,-24L55,928l0,24Z" class="g1_61" />
<path fill-rule="evenodd" d="M55,975l825,0l0,-23L55,952l0,23Z" class="g1_61" />
<path fill-rule="evenodd" d="M55,999l825,0l0,-24L55,975l0,24Z" class="g1_61" />
<path fill-rule="evenodd" d="M55,1023l825,0l0,-24L55,999l0,24Z" class="g1_61" />
<path fill-rule="evenodd" d="M55,1047l825,0l0,-24l-825,0l0,24Z" class="g1_61" />
<path fill-rule="evenodd" d="M55,1071l825,0l0,-24l-825,0l0,24Z" class="g1_61" />
<g clip-path="url(#c3_61)">
<path fill-rule="evenodd" d="M55,1095l825,0l0,-24l-825,0l0,24Z" class="g1_61" />
</g>
<path d="M46.5,641.5l0,-1" class="g2_61" />
<path d="M46.5,641.5l0,-1" class="g2_61" />
<path d="M47.5,641.5l840,0" class="g2_61" />
<path d="M887.5,641.5l0,-1" class="g2_61" />
<path d="M887.5,641.5l0,-1" class="g2_61" />
<path d="M46.5,1095.5l0,-454" class="g2_61" />
<path d="M46.5,1096.5l0,-1" class="g2_61" />
<path d="M46.5,1096.5l0,-1" class="g2_61" />
<path d="M47.5,1096.5l840,0" class="g2_61" />
<path d="M887.5,1095.5l0,-454" class="g2_61" />
<path d="M887.5,1096.5l0,-1" class="g2_61" />
<path d="M887.5,1096.5l0,-1" class="g2_61" />
</svg>