<?xml version="1.0" encoding="UTF-8" standalone="no"?>
<!DOCTYPE svg PUBLIC "-//W3C//DTD SVG 1.1//EN"
"http://www.w3.org/Graphics/SVG/1.1/DTD/svg11.dtd">
<svg version="1.1" xmlns="http://www.w3.org/2000/svg" xmlns:xlink="http://www.w3.org/1999/xlink">
<defs>
<style type="text/css"><![CDATA[
.g2_200{
fill: none;
stroke: #000000;
stroke-width: 1;
stroke-linecap: butt;
stroke-linejoin: miter;
}
.g1_200{
fill: none;
stroke: #0000FF;
stroke-width: 1;
stroke-linecap: butt;
stroke-linejoin: miter;
}
]]></style>
</defs>
<path d="M523.5,201.5l172,0" class="g1_200" />
<path d="M433.5,110.5l82,0" class="g2_200" />
<path d="M516.5,110.5l295,0" class="g2_200" />
<path d="M53.5,206.5l0,-96" class="g2_200" />
<path d="M92.5,206.5l0,-96" class="g2_200" />
<path d="M131.5,206.5l0,-96" class="g2_200" />
<path d="M171.5,206.5l0,-96" class="g2_200" />
<path d="M210.5,206.5l0,-96" class="g2_200" />
<path d="M432.5,206.5l0,-96" class="g2_200" />
<path d="M515.5,206.5l0,-96" class="g2_200" />
<path d="M811.5,206.5l0,-96" class="g2_200" />
<path d="M888.5,206.5l0,-96" class="g2_200" />
<path d="M211.5,206.5l221,0" class="g2_200" />
<path d="M433.5,206.5l82,0" class="g2_200" />
<path d="M516.5,206.5l295,0" class="g2_200" />
<path d="M811.5,206.5l77,0" class="g2_200" />
<path d="M53.5,325.5l0,-119" class="g2_200" />
<path d="M92.5,325.5l0,-119" class="g2_200" />
<path d="M131.5,325.5l0,-119" class="g2_200" />
<path d="M171.5,325.5l0,-119" class="g2_200" />
<path d="M210.5,325.5l0,-119" class="g2_200" />
<path d="M432.5,325.5l0,-119" class="g2_200" />
<path d="M515.5,325.5l0,-119" class="g2_200" />
<path d="M811.5,325.5l0,-119" class="g2_200" />
<path d="M888.5,325.5l0,-119" class="g2_200" />
<path d="M53.5,326.5l0,-1" class="g2_200" />
<path d="M92.5,326.5l0,-1" class="g2_200" />
<path d="M131.5,326.5l0,-1" class="g2_200" />
<path d="M171.5,326.5l0,-1" class="g2_200" />
<path d="M210.5,326.5l0,-1" class="g2_200" />
<path d="M211.5,326.5l221,0" class="g2_200" />
<path d="M432.5,326.5l0,-1" class="g2_200" />
<path d="M433.5,326.5l82,0" class="g2_200" />
<path d="M515.5,326.5l0,-1" class="g2_200" />
<path d="M516.5,326.5l295,0" class="g2_200" />
<path d="M811.5,326.5l0,-1" class="g2_200" />
<path d="M811.5,326.5l77,0" class="g2_200" />
<path d="M888.5,326.5l0,-1" class="g2_200" />
<path d="M53.5,493.5l0,-167" class="g2_200" />
<path d="M92.5,493.5l0,-167" class="g2_200" />
<path d="M131.5,493.5l0,-167" class="g2_200" />
<path d="M171.5,493.5l0,-167" class="g2_200" />
<path d="M210.5,493.5l0,-167" class="g2_200" />
<path d="M432.5,493.5l0,-167" class="g2_200" />
<path d="M515.5,493.5l0,-167" class="g2_200" />
<path d="M811.5,493.5l0,-167" class="g2_200" />
<path d="M888.5,493.5l0,-167" class="g2_200" />
<path d="M53.5,494.5l0,-1" class="g2_200" />
<path d="M92.5,494.5l0,-1" class="g2_200" />
<path d="M131.5,494.5l0,-1" class="g2_200" />
<path d="M171.5,494.5l0,-1" class="g2_200" />
<path d="M210.5,494.5l0,-1" class="g2_200" />
<path d="M211.5,494.5l221,0" class="g2_200" />
<path d="M432.5,494.5l0,-1" class="g2_200" />
<path d="M433.5,494.5l82,0" class="g2_200" />
<path d="M515.5,494.5l0,-1" class="g2_200" />
<path d="M516.5,494.5l295,0" class="g2_200" />
<path d="M811.5,494.5l0,-1" class="g2_200" />
<path d="M811.5,494.5l77,0" class="g2_200" />
<path d="M888.5,494.5l0,-1" class="g2_200" />
<path d="M53.5,661.5l0,-167" class="g2_200" />
<path d="M92.5,661.5l0,-167" class="g2_200" />
<path d="M131.5,661.5l0,-167" class="g2_200" />
<path d="M171.5,661.5l0,-167" class="g2_200" />
<path d="M210.5,661.5l0,-167" class="g2_200" />
<path d="M432.5,661.5l0,-167" class="g2_200" />
<path d="M515.5,661.5l0,-167" class="g2_200" />
<path d="M811.5,661.5l0,-167" class="g2_200" />
<path d="M888.5,661.5l0,-167" class="g2_200" />
<path d="M53.5,662.5l0,-1" class="g2_200" />
<path d="M92.5,662.5l0,-1" class="g2_200" />
<path d="M131.5,662.5l0,-1" class="g2_200" />
<path d="M171.5,662.5l0,-1" class="g2_200" />
<path d="M210.5,662.5l0,-1" class="g2_200" />
<path d="M211.5,662.5l221,0" class="g2_200" />
<path d="M432.5,662.5l0,-1" class="g2_200" />
<path d="M433.5,662.5l82,0" class="g2_200" />
<path d="M515.5,662.5l0,-1" class="g2_200" />
<path d="M516.5,662.5l295,0" class="g2_200" />
<path d="M811.5,662.5l0,-1" class="g2_200" />
<path d="M811.5,662.5l77,0" class="g2_200" />
<path d="M888.5,662.5l0,-1" class="g2_200" />
<path d="M53.5,781.5l0,-119" class="g2_200" />
<path d="M92.5,781.5l0,-119" class="g2_200" />
<path d="M131.5,781.5l0,-119" class="g2_200" />
<path d="M171.5,781.5l0,-119" class="g2_200" />
<path d="M210.5,781.5l0,-119" class="g2_200" />
<path d="M432.5,781.5l0,-119" class="g2_200" />
<path d="M515.5,781.5l0,-119" class="g2_200" />
<path d="M811.5,781.5l0,-119" class="g2_200" />
<path d="M888.5,781.5l0,-119" class="g2_200" />
<path d="M53.5,782.5l0,-1" class="g2_200" />
<path d="M92.5,782.5l0,-1" class="g2_200" />
<path d="M131.5,782.5l0,-1" class="g2_200" />
<path d="M171.5,782.5l0,-1" class="g2_200" />
<path d="M210.5,782.5l0,-1" class="g2_200" />
<path d="M211.5,782.5l221,0" class="g2_200" />
<path d="M432.5,782.5l0,-1" class="g2_200" />
<path d="M433.5,782.5l82,0" class="g2_200" />
<path d="M515.5,782.5l0,-1" class="g2_200" />
<path d="M516.5,782.5l295,0" class="g2_200" />
<path d="M811.5,782.5l0,-1" class="g2_200" />
<path d="M811.5,782.5l77,0" class="g2_200" />
<path d="M888.5,782.5l0,-1" class="g2_200" />
<path d="M53.5,948.5l0,-166" class="g2_200" />
<path d="M92.5,948.5l0,-166" class="g2_200" />
<path d="M131.5,948.5l0,-166" class="g2_200" />
<path d="M171.5,948.5l0,-166" class="g2_200" />
<path d="M210.5,948.5l0,-166" class="g2_200" />
<path d="M210.5,949.5l0,-1" class="g2_200" />
<path d="M210.5,949.5l0,-1" class="g2_200" />
<path d="M211.5,949.5l221,0" class="g2_200" />
<path d="M432.5,948.5l0,-166" class="g2_200" />
<path d="M432.5,949.5l0,-1" class="g2_200" />
<path d="M433.5,949.5l82,0" class="g2_200" />
<path d="M515.5,948.5l0,-166" class="g2_200" />
<path d="M515.5,949.5l0,-1" class="g2_200" />
<path d="M516.5,949.5l295,0" class="g2_200" />
<path d="M811.5,948.5l0,-166" class="g2_200" />
<path d="M811.5,949.5l0,-1" class="g2_200" />
<path d="M811.5,949.5l77,0" class="g2_200" />
<path d="M888.5,948.5l0,-166" class="g2_200" />
<path d="M888.5,949.5l0,-1" class="g2_200" />
<path d="M888.5,949.5l0,-1" class="g2_200" />
</svg>