<?xml version="1.0" encoding="UTF-8" standalone="no"?>
<!DOCTYPE svg PUBLIC "-//W3C//DTD SVG 1.1//EN"
"http://www.w3.org/Graphics/SVG/1.1/DTD/svg11.dtd">
<svg version="1.1" xmlns="http://www.w3.org/2000/svg" xmlns:xlink="http://www.w3.org/1999/xlink">
<defs>
<clipPath id="c0_452"><path d="M130.5,1086.5l0,-975l34,0l0,975Z" /></clipPath>
<clipPath id="c1_452"><path d="M165.5,1086.5l0,-975l33,0l0,975Z" /></clipPath>
<clipPath id="c2_452"><path d="M200.5,155.5l0,-44l150,0l0,44Z" /></clipPath>
<clipPath id="c3_452"><path d="M351.5,155.5l0,-44l88,0l0,44Z" /></clipPath>
<clipPath id="c4_452"><path d="M440.5,155.5l0,-44l68,0l0,44Z" /></clipPath>
<clipPath id="c5_452"><path d="M509.5,155.5l0,-44l377,0l0,44Z" /></clipPath>
<clipPath id="c6_452"><path d="M200.5,200.5l0,-44l150,0l0,44Z" /></clipPath>
<clipPath id="c7_452"><path d="M351.5,200.5l0,-44l88,0l0,44Z" /></clipPath>
<clipPath id="c8_452"><path d="M440.5,200.5l0,-44l68,0l0,44Z" /></clipPath>
<clipPath id="c9_452"><path d="M509.5,200.5l0,-44l377,0l0,44Z" /></clipPath>
<clipPath id="c10_452"><path d="M200.5,273.5l0,-72l150,0l0,72Z" /></clipPath>
<clipPath id="c11_452"><path d="M351.5,273.5l0,-72l88,0l0,72Z" /></clipPath>
<clipPath id="c12_452"><path d="M440.5,273.5l0,-72l68,0l0,72Z" /></clipPath>
<clipPath id="c13_452"><path d="M509.5,273.5l0,-72l377,0l0,72Z" /></clipPath>
<clipPath id="c14_452"><path d="M200.5,846.5l0,-572l150,0l0,572Z" /></clipPath>
<clipPath id="c15_452"><path d="M351.5,846.5l0,-572l88,0l0,572Z" /></clipPath>
<clipPath id="c16_452"><path d="M440.5,846.5l0,-572l68,0l0,572Z" /></clipPath>
<clipPath id="c17_452"><path d="M509.5,846.5l0,-572l377,0l0,572Z" /></clipPath>
<clipPath id="c18_452"><path d="M200.5,1086.5l0,-238l150,0l0,238Z" /></clipPath>
<clipPath id="c19_452"><path d="M351.5,1086.5l0,-238l88,0l0,238Z" /></clipPath>
<clipPath id="c20_452"><path d="M440.5,1086.5l0,-238l68,0l0,238Z" /></clipPath>
<clipPath id="c21_452"><path d="M509.5,1086.5l0,-238l377,0l0,238Z" /></clipPath>
<style type="text/css"><![CDATA[
.g2_452{
fill: none;
stroke: #7E7E7E;
stroke-width: 1;
stroke-linecap: butt;
stroke-linejoin: miter;
}
.g1_452{
fill: #F1F1F1;
}
]]></style>
</defs>
<path fill-rule="evenodd" d="M47,155l27,0l0,-44l-27,0l0,44Z" class="g1_452" />
<path fill-rule="evenodd" d="M76,155l25,0l0,-44l-25,0l0,44Z" class="g1_452" />
<path fill-rule="evenodd" d="M103,155l26,0l0,-44l-26,0l0,44Z" class="g1_452" />
<path fill-rule="evenodd" d="M130,1086l34,0l0,-975l-34,0l0,975Z" class="g1_452" />
<g clip-path="url(#c0_452)">
<path fill-rule="evenodd" d="M138,1086l24,0l0,-975l-24,0l0,975Z" class="g1_452" />
</g>
<path fill-rule="evenodd" d="M165,1086l33,0l0,-975l-33,0l0,975Z" class="g1_452" />
<g clip-path="url(#c1_452)">
<path fill-rule="evenodd" d="M173,1086l24,0l0,-975l-24,0l0,975Z" class="g1_452" />
</g>
<path fill-rule="evenodd" d="M200,155l150,0l0,-44l-150,0l0,44Z" class="g1_452" />
<g clip-path="url(#c2_452)">
<path fill-rule="evenodd" d="M207,135l135,0l0,-24l-135,0l0,24Z" class="g1_452" />
</g>
<path fill-rule="evenodd" d="M351,155l88,0l0,-44l-88,0l0,44Z" class="g1_452" />
<g clip-path="url(#c3_452)">
<path fill-rule="evenodd" d="M359,135l72,0l0,-24l-72,0l0,24Z" class="g1_452" />
</g>
<path fill-rule="evenodd" d="M440,155l68,0l0,-44l-68,0l0,44Z" class="g1_452" />
<g clip-path="url(#c4_452)">
<path fill-rule="evenodd" d="M448,135l52,0l0,-24l-52,0l0,24Z" class="g1_452" />
</g>
<path fill-rule="evenodd" d="M509,155l377,0l0,-44l-377,0l0,44Z" class="g1_452" />
<g clip-path="url(#c5_452)">
<path fill-rule="evenodd" d="M517,135l361,0l0,-24l-361,0l0,24Z" class="g1_452" />
</g>
<path d="M46.5,111.5l0,-1" class="g2_452" />
<path d="M46.5,111.5l0,-1" class="g2_452" />
<path d="M47.5,111.5l27,0" class="g2_452" />
<path d="M74.5,111.5l0,-1" class="g2_452" />
<path d="M76.5,111.5l25,0" class="g2_452" />
<path d="M101.5,111.5l0,-1" class="g2_452" />
<path d="M103.5,111.5l26,0" class="g2_452" />
<path d="M129.5,111.5l0,-1" class="g2_452" />
<path d="M130.5,111.5l34,0" class="g2_452" />
<path d="M164.5,111.5l0,-1" class="g2_452" />
<path d="M165.5,111.5l33,0" class="g2_452" />
<path d="M198.5,111.5l0,-1" class="g2_452" />
<path d="M200.5,111.5l150,0" class="g2_452" />
<path d="M350.5,111.5l0,-1" class="g2_452" />
<path d="M351.5,111.5l88,0" class="g2_452" />
<path d="M439.5,111.5l0,-1" class="g2_452" />
<path d="M440.5,111.5l68,0" class="g2_452" />
<path d="M508.5,111.5l0,-1" class="g2_452" />
<path d="M509.5,111.5l377,0" class="g2_452" />
<path d="M886.5,111.5l0,-1" class="g2_452" />
<path d="M886.5,111.5l0,-1" class="g2_452" />
<path d="M46.5,155.5l0,-44" class="g2_452" />
<path d="M74.5,155.5l0,-44" class="g2_452" />
<path d="M101.5,155.5l0,-44" class="g2_452" />
<path d="M129.5,155.5l0,-44" class="g2_452" />
<path d="M164.5,155.5l0,-44" class="g2_452" />
<path d="M198.5,155.5l0,-44" class="g2_452" />
<path d="M350.5,155.5l0,-44" class="g2_452" />
<path d="M439.5,155.5l0,-44" class="g2_452" />
<path d="M508.5,155.5l0,-44" class="g2_452" />
<path d="M886.5,155.5l0,-44" class="g2_452" />
<path fill-rule="evenodd" d="M47,200l27,0l0,-45l-27,0l0,45Z" class="g1_452" />
<path fill-rule="evenodd" d="M76,200l25,0l0,-45l-25,0l0,45Z" class="g1_452" />
<path fill-rule="evenodd" d="M103,200l26,0l0,-45l-26,0l0,45Z" class="g1_452" />
<path fill-rule="evenodd" d="M200,200l150,0l0,-44l-150,0l0,44Z" class="g1_452" />
<g clip-path="url(#c6_452)">
<path fill-rule="evenodd" d="M207,180l135,0l0,-24l-135,0l0,24Z" class="g1_452" />
</g>
<path fill-rule="evenodd" d="M351,200l88,0l0,-44l-88,0l0,44Z" class="g1_452" />
<g clip-path="url(#c7_452)">
<path fill-rule="evenodd" d="M359,180l72,0l0,-24l-72,0l0,24Z" class="g1_452" />
</g>
<path fill-rule="evenodd" d="M440,200l68,0l0,-44l-68,0l0,44Z" class="g1_452" />
<g clip-path="url(#c8_452)">
<path fill-rule="evenodd" d="M448,180l52,0l0,-24l-52,0l0,24Z" class="g1_452" />
</g>
<path fill-rule="evenodd" d="M509,200l377,0l0,-44l-377,0l0,44Z" class="g1_452" />
<g clip-path="url(#c9_452)">
<path fill-rule="evenodd" d="M517,180l361,0l0,-24l-361,0l0,24Z" class="g1_452" />
</g>
<path d="M46.5,156.5l0,-1" class="g2_452" />
<path d="M74.5,156.5l0,-1" class="g2_452" />
<path d="M101.5,156.5l0,-1" class="g2_452" />
<path d="M129.5,156.5l0,-1" class="g2_452" />
<path d="M164.5,156.5l0,-1" class="g2_452" />
<path d="M198.5,156.5l0,-1" class="g2_452" />
<path d="M200.5,156.5l150,0" class="g2_452" />
<path d="M350.5,156.5l0,-1" class="g2_452" />
<path d="M351.5,156.5l88,0" class="g2_452" />
<path d="M439.5,156.5l0,-1" class="g2_452" />
<path d="M440.5,156.5l68,0" class="g2_452" />
<path d="M508.5,156.5l0,-1" class="g2_452" />
<path d="M509.5,156.5l377,0" class="g2_452" />
<path d="M886.5,156.5l0,-1" class="g2_452" />
<path d="M46.5,200.5l0,-44" class="g2_452" />
<path d="M74.5,200.5l0,-44" class="g2_452" />
<path d="M101.5,200.5l0,-44" class="g2_452" />
<path d="M129.5,200.5l0,-44" class="g2_452" />
<path d="M164.5,200.5l0,-44" class="g2_452" />
<path d="M198.5,200.5l0,-44" class="g2_452" />
<path d="M350.5,200.5l0,-44" class="g2_452" />
<path d="M439.5,200.5l0,-44" class="g2_452" />
<path d="M508.5,200.5l0,-44" class="g2_452" />
<path d="M886.5,200.5l0,-44" class="g2_452" />
<path fill-rule="evenodd" d="M47,273l27,0l0,-73l-27,0l0,73Z" class="g1_452" />
<path fill-rule="evenodd" d="M76,273l25,0l0,-73l-25,0l0,73Z" class="g1_452" />
<path fill-rule="evenodd" d="M103,273l26,0l0,-73l-26,0l0,73Z" class="g1_452" />
<path fill-rule="evenodd" d="M200,273l150,0l0,-72l-150,0l0,72Z" class="g1_452" />
<g clip-path="url(#c10_452)">
<path fill-rule="evenodd" d="M207,225l135,0l0,-24l-135,0l0,24Z" class="g1_452" />
</g>
<path fill-rule="evenodd" d="M351,273l88,0l0,-72l-88,0l0,72Z" class="g1_452" />
<g clip-path="url(#c11_452)">
<path fill-rule="evenodd" d="M359,225l72,0l0,-24l-72,0l0,24Z" class="g1_452" />
</g>
<path fill-rule="evenodd" d="M440,273l68,0l0,-72l-68,0l0,72Z" class="g1_452" />
<g clip-path="url(#c12_452)">
<path fill-rule="evenodd" d="M448,225l52,0l0,-24l-52,0l0,24Z" class="g1_452" />
</g>
<path fill-rule="evenodd" d="M509,273l377,0l0,-72l-377,0l0,72Z" class="g1_452" />
<g clip-path="url(#c13_452)">
<path fill-rule="evenodd" d="M517,225l361,0l0,-24l-361,0l0,24Z" class="g1_452" />
</g>
<path fill-rule="evenodd" d="M517,249l361,0l0,-24l-361,0l0,24Z" class="g1_452" />
<path fill-rule="evenodd" d="M517,273l361,0l0,-24l-361,0l0,24Z" class="g1_452" />
<path d="M46.5,201.5l0,-1" class="g2_452" />
<path d="M74.5,201.5l0,-1" class="g2_452" />
<path d="M101.5,201.5l0,-1" class="g2_452" />
<path d="M129.5,201.5l0,-1" class="g2_452" />
<path d="M164.5,201.5l0,-1" class="g2_452" />
<path d="M198.5,201.5l0,-1" class="g2_452" />
<path d="M200.5,201.5l150,0" class="g2_452" />
<path d="M350.5,201.5l0,-1" class="g2_452" />
<path d="M351.5,201.5l88,0" class="g2_452" />
<path d="M439.5,201.5l0,-1" class="g2_452" />
<path d="M440.5,201.5l68,0" class="g2_452" />
<path d="M508.5,201.5l0,-1" class="g2_452" />
<path d="M509.5,201.5l377,0" class="g2_452" />
<path d="M886.5,201.5l0,-1" class="g2_452" />
<path d="M46.5,273.5l0,-72" class="g2_452" />
<path d="M74.5,273.5l0,-72" class="g2_452" />
<path d="M101.5,273.5l0,-72" class="g2_452" />
<path d="M129.5,273.5l0,-72" class="g2_452" />
<path d="M164.5,273.5l0,-72" class="g2_452" />
<path d="M198.5,273.5l0,-72" class="g2_452" />
<path d="M350.5,273.5l0,-72" class="g2_452" />
<path d="M439.5,273.5l0,-72" class="g2_452" />
<path d="M508.5,273.5l0,-72" class="g2_452" />
<path d="M886.5,273.5l0,-72" class="g2_452" />
<path fill-rule="evenodd" d="M47,846l27,0L74,273l-27,0l0,573Z" class="g1_452" />
<path fill-rule="evenodd" d="M76,846l25,0l0,-573l-25,0l0,573Z" class="g1_452" />
<path fill-rule="evenodd" d="M103,846l26,0l0,-573l-26,0l0,573Z" class="g1_452" />
<path fill-rule="evenodd" d="M200,846l150,0l0,-572l-150,0l0,572Z" class="g1_452" />
<g clip-path="url(#c14_452)">
<path fill-rule="evenodd" d="M207,298l135,0l0,-24l-135,0l0,24Z" class="g1_452" />
</g>
<path fill-rule="evenodd" d="M351,846l88,0l0,-572l-88,0l0,572Z" class="g1_452" />
<g clip-path="url(#c15_452)">
<path fill-rule="evenodd" d="M359,298l72,0l0,-24l-72,0l0,24Z" class="g1_452" />
</g>
<path fill-rule="evenodd" d="M440,846l68,0l0,-572l-68,0l0,572Z" class="g1_452" />
<g clip-path="url(#c16_452)">
<path fill-rule="evenodd" d="M448,298l52,0l0,-24l-52,0l0,24Z" class="g1_452" />
</g>
<path fill-rule="evenodd" d="M509,846l377,0l0,-572l-377,0l0,572Z" class="g1_452" />
<g clip-path="url(#c17_452)">
<path fill-rule="evenodd" d="M517,298l361,0l0,-24l-361,0l0,24Z" class="g1_452" />
</g>
<path fill-rule="evenodd" d="M517,322l361,0l0,-24l-361,0l0,24Z" class="g1_452" />
<path fill-rule="evenodd" d="M517,346l361,0l0,-24l-361,0l0,24Z" class="g1_452" />
<path fill-rule="evenodd" d="M517,369l361,0l0,-23l-361,0l0,23Z" class="g1_452" />
<path fill-rule="evenodd" d="M517,393l361,0l0,-24l-361,0l0,24Z" class="g1_452" />
<path fill-rule="evenodd" d="M517,417l361,0l0,-24l-361,0l0,24Z" class="g1_452" />
<path fill-rule="evenodd" d="M517,441l361,0l0,-24l-361,0l0,24Z" class="g1_452" />
<path fill-rule="evenodd" d="M517,465l361,0l0,-24l-361,0l0,24Z" class="g1_452" />
<path fill-rule="evenodd" d="M517,489l361,0l0,-24l-361,0l0,24Z" class="g1_452" />
<path fill-rule="evenodd" d="M517,513l361,0l0,-24l-361,0l0,24Z" class="g1_452" />
<path fill-rule="evenodd" d="M517,536l361,0l0,-23l-361,0l0,23Z" class="g1_452" />
<path fill-rule="evenodd" d="M517,560l361,0l0,-24l-361,0l0,24Z" class="g1_452" />
<path fill-rule="evenodd" d="M517,584l361,0l0,-24l-361,0l0,24Z" class="g1_452" />
<path fill-rule="evenodd" d="M517,608l361,0l0,-24l-361,0l0,24Z" class="g1_452" />
<path fill-rule="evenodd" d="M517,632l361,0l0,-24l-361,0l0,24Z" class="g1_452" />
<path fill-rule="evenodd" d="M517,656l361,0l0,-24l-361,0l0,24Z" class="g1_452" />
<path fill-rule="evenodd" d="M517,679l361,0l0,-23l-361,0l0,23Z" class="g1_452" />
<path fill-rule="evenodd" d="M517,703l361,0l0,-24l-361,0l0,24Z" class="g1_452" />
<path fill-rule="evenodd" d="M517,727l361,0l0,-24l-361,0l0,24Z" class="g1_452" />
<path fill-rule="evenodd" d="M517,751l361,0l0,-24l-361,0l0,24Z" class="g1_452" />
<path fill-rule="evenodd" d="M517,775l361,0l0,-24l-361,0l0,24Z" class="g1_452" />
<path fill-rule="evenodd" d="M517,799l361,0l0,-24l-361,0l0,24Z" class="g1_452" />
<path fill-rule="evenodd" d="M517,822l361,0l0,-23l-361,0l0,23Z" class="g1_452" />
<path fill-rule="evenodd" d="M517,846l361,0l0,-24l-361,0l0,24Z" class="g1_452" />
<path d="M46.5,274.5l0,-1" class="g2_452" />
<path d="M74.5,274.5l0,-1" class="g2_452" />
<path d="M101.5,274.5l0,-1" class="g2_452" />
<path d="M129.5,274.5l0,-1" class="g2_452" />
<path d="M164.5,274.5l0,-1" class="g2_452" />
<path d="M198.5,274.5l0,-1" class="g2_452" />
<path d="M200.5,274.5l150,0" class="g2_452" />
<path d="M350.5,274.5l0,-1" class="g2_452" />
<path d="M351.5,274.5l88,0" class="g2_452" />
<path d="M439.5,274.5l0,-1" class="g2_452" />
<path d="M440.5,274.5l68,0" class="g2_452" />
<path d="M508.5,274.5l0,-1" class="g2_452" />
<path d="M509.5,274.5l377,0" class="g2_452" />
<path d="M886.5,274.5l0,-1" class="g2_452" />
<path d="M46.5,846.5l0,-572" class="g2_452" />
<path d="M74.5,846.5l0,-572" class="g2_452" />
<path d="M101.5,846.5l0,-572" class="g2_452" />
<path d="M129.5,846.5l0,-572" class="g2_452" />
<path d="M164.5,846.5l0,-572" class="g2_452" />
<path d="M198.5,846.5l0,-572" class="g2_452" />
<path d="M350.5,846.5l0,-572" class="g2_452" />
<path d="M439.5,846.5l0,-572" class="g2_452" />
<path d="M508.5,846.5l0,-572" class="g2_452" />
<path d="M886.5,846.5l0,-572" class="g2_452" />
<path fill-rule="evenodd" d="M47,1086l27,0L74,846l-27,0l0,240Z" class="g1_452" />
<path fill-rule="evenodd" d="M76,1086l25,0l0,-240l-25,0l0,240Z" class="g1_452" />
<path fill-rule="evenodd" d="M103,1086l26,0l0,-240l-26,0l0,240Z" class="g1_452" />
<path fill-rule="evenodd" d="M200,1086l150,0l0,-238l-150,0l0,238Z" class="g1_452" />
<g clip-path="url(#c18_452)">
<path fill-rule="evenodd" d="M207,872l135,0l0,-24l-135,0l0,24Z" class="g1_452" />
</g>
<path fill-rule="evenodd" d="M351,1086l88,0l0,-238l-88,0l0,238Z" class="g1_452" />
<g clip-path="url(#c19_452)">
<path fill-rule="evenodd" d="M359,872l72,0l0,-24l-72,0l0,24Z" class="g1_452" />
</g>
<path fill-rule="evenodd" d="M359,896l72,0l0,-24l-72,0l0,24Z" class="g1_452" />
<path fill-rule="evenodd" d="M440,1086l68,0l0,-238l-68,0l0,238Z" class="g1_452" />
<g clip-path="url(#c20_452)">
<path fill-rule="evenodd" d="M448,872l52,0l0,-24l-52,0l0,24Z" class="g1_452" />
</g>
<path fill-rule="evenodd" d="M509,1086l377,0l0,-238l-377,0l0,238Z" class="g1_452" />
<g clip-path="url(#c21_452)">
<path fill-rule="evenodd" d="M517,872l361,0l0,-24l-361,0l0,24Z" class="g1_452" />
</g>
<path fill-rule="evenodd" d="M517,896l361,0l0,-24l-361,0l0,24Z" class="g1_452" />
<path fill-rule="evenodd" d="M517,919l361,0l0,-23l-361,0l0,23Z" class="g1_452" />
<path fill-rule="evenodd" d="M517,943l361,0l0,-24l-361,0l0,24Z" class="g1_452" />
<path fill-rule="evenodd" d="M517,967l361,0l0,-24l-361,0l0,24Z" class="g1_452" />
<path fill-rule="evenodd" d="M517,991l361,0l0,-24l-361,0l0,24Z" class="g1_452" />
<path fill-rule="evenodd" d="M517,1015l361,0l0,-24l-361,0l0,24Z" class="g1_452" />
<path fill-rule="evenodd" d="M517,1039l361,0l0,-24l-361,0l0,24Z" class="g1_452" />
<path fill-rule="evenodd" d="M517,1062l361,0l0,-23l-361,0l0,23Z" class="g1_452" />
<g clip-path="url(#c21_452)">
<path fill-rule="evenodd" d="M517,1086l361,0l0,-24l-361,0l0,24Z" class="g1_452" />
</g>
<path d="M46.5,848.5l0,-2" class="g2_452" />
<path d="M74.5,848.5l0,-2" class="g2_452" />
<path d="M101.5,848.5l0,-2" class="g2_452" />
<path d="M129.5,848.5l0,-2" class="g2_452" />
<path d="M164.5,848.5l0,-2" class="g2_452" />
<path d="M198.5,848.5l0,-2" class="g2_452" />
<path d="M200.5,848.5l150,0" class="g2_452" />
<path d="M350.5,848.5l0,-2" class="g2_452" />
<path d="M351.5,848.5l88,0" class="g2_452" />
<path d="M439.5,848.5l0,-2" class="g2_452" />
<path d="M440.5,848.5l68,0" class="g2_452" />
<path d="M508.5,848.5l0,-2" class="g2_452" />
<path d="M509.5,848.5l377,0" class="g2_452" />
<path d="M886.5,848.5l0,-2" class="g2_452" />
<path d="M46.5,1086.5l0,-238" class="g2_452" />
<path d="M46.5,1088.5l0,-2" class="g2_452" />
<path d="M46.5,1088.5l0,-2" class="g2_452" />
<path d="M47.5,1088.5l27,0" class="g2_452" />
<path d="M74.5,1086.5l0,-238" class="g2_452" />
<path d="M74.5,1088.5l0,-2" class="g2_452" />
<path d="M76.5,1088.5l25,0" class="g2_452" />
<path d="M101.5,1086.5l0,-238" class="g2_452" />
<path d="M101.5,1088.5l0,-2" class="g2_452" />
<path d="M103.5,1088.5l26,0" class="g2_452" />
<path d="M129.5,1086.5l0,-238" class="g2_452" />
<path d="M129.5,1088.5l0,-2" class="g2_452" />
<path d="M130.5,1088.5l34,0" class="g2_452" />
<path d="M164.5,1086.5l0,-238" class="g2_452" />
<path d="M164.5,1088.5l0,-2" class="g2_452" />
<path d="M165.5,1088.5l33,0" class="g2_452" />
<path d="M198.5,1086.5l0,-238" class="g2_452" />
<path d="M198.5,1088.5l0,-2" class="g2_452" />
<path d="M200.5,1088.5l150,0" class="g2_452" />
<path d="M350.5,1086.5l0,-238" class="g2_452" />
<path d="M350.5,1088.5l0,-2" class="g2_452" />
<path d="M351.5,1088.5l88,0" class="g2_452" />
<path d="M439.5,1086.5l0,-238" class="g2_452" />
<path d="M439.5,1088.5l0,-2" class="g2_452" />
<path d="M440.5,1088.5l68,0" class="g2_452" />
<path d="M508.5,1086.5l0,-238" class="g2_452" />
<path d="M508.5,1088.5l0,-2" class="g2_452" />
<path d="M509.5,1088.5l377,0" class="g2_452" />
<path d="M886.5,1086.5l0,-238" class="g2_452" />
<path d="M886.5,1088.5l0,-2" class="g2_452" />
<path d="M886.5,1088.5l0,-2" class="g2_452" />
</svg>