<?xml version="1.0" encoding="UTF-8" standalone="no"?>
<!DOCTYPE svg PUBLIC "-//W3C//DTD SVG 1.1//EN"
"http://www.w3.org/Graphics/SVG/1.1/DTD/svg11.dtd">
<svg version="1.1" xmlns="http://www.w3.org/2000/svg" xmlns:xlink="http://www.w3.org/1999/xlink">
<defs>
<clipPath id="c0_8"><path d="M47.5,206.5l0,-95l74,0l0,95Z" /></clipPath>
<clipPath id="c1_8"><path d="M122.5,206.5l0,-95l135,0l0,95Z" /></clipPath>
<clipPath id="c2_8"><path d="M259.5,206.5l0,-95l628,0l0,95Z" /></clipPath>
<clipPath id="c3_8"><path d="M47.5,351.5l0,-143l74,0l0,143Z" /></clipPath>
<clipPath id="c4_8"><path d="M122.5,351.5l0,-143l135,0l0,143Z" /></clipPath>
<clipPath id="c5_8"><path d="M259.5,351.5l0,-143l628,0l0,143Z" /></clipPath>
<clipPath id="c6_8"><path d="M47.5,519.5l0,-167l74,0l0,167Z" /></clipPath>
<clipPath id="c7_8"><path d="M122.5,519.5l0,-167l135,0l0,167Z" /></clipPath>
<clipPath id="c8_8"><path d="M259.5,519.5l0,-167l628,0l0,167Z" /></clipPath>
<clipPath id="c9_8"><path d="M259.5,975.5l0,-310l628,0l0,310Z" /></clipPath>
<clipPath id="c10_8"><path d="M259.5,1096.5l0,-119l628,0l0,119Z" /></clipPath>
<style type="text/css"><![CDATA[
.g2_8{
fill: none;
stroke: #7E7E7E;
stroke-width: 1;
stroke-linecap: butt;
stroke-linejoin: miter;
}
.g1_8{
fill: #F1F1F1;
}
]]></style>
</defs>
<path fill-rule="evenodd" d="M47,206l74,0l0,-95l-74,0l0,95Z" class="g1_8" />
<g clip-path="url(#c0_8)">
<path fill-rule="evenodd" d="M55,135l58,0l0,-24l-58,0l0,24Z" class="g1_8" />
</g>
<path fill-rule="evenodd" d="M122,206l135,0l0,-95l-135,0l0,95Z" class="g1_8" />
<g clip-path="url(#c1_8)">
<path fill-rule="evenodd" d="M130,135l120,0l0,-24l-120,0l0,24Z" class="g1_8" />
</g>
<path fill-rule="evenodd" d="M259,206l628,0l0,-95l-628,0l0,95Z" class="g1_8" />
<g clip-path="url(#c2_8)">
<path fill-rule="evenodd" d="M266,135l614,0l0,-24l-614,0l0,24Z" class="g1_8" />
</g>
<path fill-rule="evenodd" d="M266,159l614,0l0,-24l-614,0l0,24Z" class="g1_8" />
<path fill-rule="evenodd" d="M266,182l614,0l0,-23l-614,0l0,23Z" class="g1_8" />
<path fill-rule="evenodd" d="M266,206l614,0l0,-24l-614,0l0,24Z" class="g1_8" />
<path d="M46.5,111.5l0,-1" class="g2_8" />
<path d="M46.5,111.5l0,-1" class="g2_8" />
<path d="M47.5,111.5l74,0" class="g2_8" />
<path d="M121.5,111.5l0,-1" class="g2_8" />
<path d="M122.5,111.5l135,0" class="g2_8" />
<path d="M257.5,111.5l0,-1" class="g2_8" />
<path d="M259.5,111.5l628,0" class="g2_8" />
<path d="M887.5,111.5l0,-1" class="g2_8" />
<path d="M887.5,111.5l0,-1" class="g2_8" />
<path d="M46.5,206.5l0,-95" class="g2_8" />
<path d="M121.5,206.5l0,-95" class="g2_8" />
<path d="M257.5,206.5l0,-95" class="g2_8" />
<path d="M887.5,206.5l0,-95" class="g2_8" />
<path fill-rule="evenodd" d="M47,351l74,0l0,-143l-74,0l0,143Z" class="g1_8" />
<g clip-path="url(#c3_8)">
<path fill-rule="evenodd" d="M55,232l58,0l0,-24l-58,0l0,24Z" class="g1_8" />
</g>
<path fill-rule="evenodd" d="M122,351l135,0l0,-143l-135,0l0,143Z" class="g1_8" />
<g clip-path="url(#c4_8)">
<path fill-rule="evenodd" d="M130,232l120,0l0,-24l-120,0l0,24Z" class="g1_8" />
</g>
<path fill-rule="evenodd" d="M259,351l628,0l0,-143l-628,0l0,143Z" class="g1_8" />
<g clip-path="url(#c5_8)">
<path fill-rule="evenodd" d="M266,232l614,0l0,-24l-614,0l0,24Z" class="g1_8" />
</g>
<path fill-rule="evenodd" d="M266,256l614,0l0,-24l-614,0l0,24Z" class="g1_8" />
<path fill-rule="evenodd" d="M266,279l614,0l0,-23l-614,0l0,23Z" class="g1_8" />
<path fill-rule="evenodd" d="M266,303l614,0l0,-24l-614,0l0,24Z" class="g1_8" />
<path fill-rule="evenodd" d="M266,327l614,0l0,-24l-614,0l0,24Z" class="g1_8" />
<path fill-rule="evenodd" d="M266,351l614,0l0,-24l-614,0l0,24Z" class="g1_8" />
<path d="M46.5,208.5l0,-2" class="g2_8" />
<path d="M47.5,208.5l74,0" class="g2_8" />
<path d="M121.5,208.5l0,-2" class="g2_8" />
<path d="M122.5,208.5l135,0" class="g2_8" />
<path d="M257.5,208.5l0,-2" class="g2_8" />
<path d="M259.5,208.5l628,0" class="g2_8" />
<path d="M887.5,208.5l0,-2" class="g2_8" />
<path d="M46.5,351.5l0,-143" class="g2_8" />
<path d="M121.5,351.5l0,-143" class="g2_8" />
<path d="M257.5,351.5l0,-143" class="g2_8" />
<path d="M887.5,351.5l0,-143" class="g2_8" />
<path fill-rule="evenodd" d="M47,519l74,0l0,-167l-74,0l0,167Z" class="g1_8" />
<g clip-path="url(#c6_8)">
<path fill-rule="evenodd" d="M55,376l58,0l0,-24l-58,0l0,24Z" class="g1_8" />
</g>
<path fill-rule="evenodd" d="M122,519l135,0l0,-167l-135,0l0,167Z" class="g1_8" />
<g clip-path="url(#c7_8)">
<path fill-rule="evenodd" d="M130,376l120,0l0,-24l-120,0l0,24Z" class="g1_8" />
</g>
<path fill-rule="evenodd" d="M259,519l628,0l0,-167l-628,0l0,167Z" class="g1_8" />
<g clip-path="url(#c8_8)">
<path fill-rule="evenodd" d="M266,376l614,0l0,-24l-614,0l0,24Z" class="g1_8" />
</g>
<path fill-rule="evenodd" d="M266,400l614,0l0,-24l-614,0l0,24Z" class="g1_8" />
<path fill-rule="evenodd" d="M266,424l614,0l0,-24l-614,0l0,24Z" class="g1_8" />
<path fill-rule="evenodd" d="M266,448l614,0l0,-24l-614,0l0,24Z" class="g1_8" />
<path fill-rule="evenodd" d="M266,472l614,0l0,-24l-614,0l0,24Z" class="g1_8" />
<path fill-rule="evenodd" d="M266,495l614,0l0,-23l-614,0l0,23Z" class="g1_8" />
<path fill-rule="evenodd" d="M266,519l614,0l0,-24l-614,0l0,24Z" class="g1_8" />
<path d="M46.5,352.5l0,-1" class="g2_8" />
<path d="M47.5,352.5l74,0" class="g2_8" />
<path d="M121.5,352.5l0,-1" class="g2_8" />
<path d="M122.5,352.5l135,0" class="g2_8" />
<path d="M257.5,352.5l0,-1" class="g2_8" />
<path d="M259.5,352.5l628,0" class="g2_8" />
<path d="M887.5,352.5l0,-1" class="g2_8" />
<path d="M46.5,519.5l0,-167" class="g2_8" />
<path d="M121.5,519.5l0,-167" class="g2_8" />
<path d="M257.5,519.5l0,-167" class="g2_8" />
<path d="M887.5,519.5l0,-167" class="g2_8" />
<path fill-rule="evenodd" d="M47,664l74,0l0,-143l-74,0l0,143Z" class="g1_8" />
<path fill-rule="evenodd" d="M55,545l58,0l0,-24l-58,0l0,24Z" class="g1_8" />
<path fill-rule="evenodd" d="M122,664l135,0l0,-143l-135,0l0,143Z" class="g1_8" />
<path fill-rule="evenodd" d="M130,545l120,0l0,-24l-120,0l0,24Z" class="g1_8" />
<path fill-rule="evenodd" d="M259,664l628,0l0,-143l-628,0l0,143Z" class="g1_8" />
<path fill-rule="evenodd" d="M266,545l614,0l0,-24l-614,0l0,24Z" class="g1_8" />
<path fill-rule="evenodd" d="M266,568l614,0l0,-23l-614,0l0,23Z" class="g1_8" />
<path fill-rule="evenodd" d="M266,592l614,0l0,-24l-614,0l0,24Z" class="g1_8" />
<path fill-rule="evenodd" d="M266,616l614,0l0,-24l-614,0l0,24Z" class="g1_8" />
<path fill-rule="evenodd" d="M266,640l614,0l0,-24l-614,0l0,24Z" class="g1_8" />
<path fill-rule="evenodd" d="M266,664l614,0l0,-24l-614,0l0,24Z" class="g1_8" />
<path d="M46.5,521.5l0,-2" class="g2_8" />
<path d="M47.5,521.5l74,0" class="g2_8" />
<path d="M121.5,521.5l0,-2" class="g2_8" />
<path d="M122.5,521.5l135,0" class="g2_8" />
<path d="M257.5,521.5l0,-2" class="g2_8" />
<path d="M259.5,521.5l628,0" class="g2_8" />
<path d="M887.5,521.5l0,-2" class="g2_8" />
<path d="M46.5,664.5l0,-143" class="g2_8" />
<path d="M121.5,664.5l0,-143" class="g2_8" />
<path d="M257.5,664.5l0,-143" class="g2_8" />
<path d="M887.5,664.5l0,-143" class="g2_8" />
<path fill-rule="evenodd" d="M47,975l74,0l0,-310l-74,0l0,310Z" class="g1_8" />
<path fill-rule="evenodd" d="M55,689l58,0l0,-24l-58,0l0,24Z" class="g1_8" />
<path fill-rule="evenodd" d="M122,975l135,0l0,-310l-135,0l0,310Z" class="g1_8" />
<path fill-rule="evenodd" d="M130,689l120,0l0,-24l-120,0l0,24Z" class="g1_8" />
<path fill-rule="evenodd" d="M259,975l628,0l0,-310l-628,0l0,310Z" class="g1_8" />
<path fill-rule="evenodd" d="M266,689l614,0l0,-24l-614,0l0,24Z" class="g1_8" />
<path fill-rule="evenodd" d="M266,713l614,0l0,-24l-614,0l0,24Z" class="g1_8" />
<path fill-rule="evenodd" d="M266,737l614,0l0,-24l-614,0l0,24Z" class="g1_8" />
<path fill-rule="evenodd" d="M266,761l614,0l0,-24l-614,0l0,24Z" class="g1_8" />
<path fill-rule="evenodd" d="M266,785l614,0l0,-24l-614,0l0,24Z" class="g1_8" />
<path fill-rule="evenodd" d="M266,808l614,0l0,-23l-614,0l0,23Z" class="g1_8" />
<path fill-rule="evenodd" d="M266,832l614,0l0,-24l-614,0l0,24Z" class="g1_8" />
<path fill-rule="evenodd" d="M266,856l614,0l0,-24l-614,0l0,24Z" class="g1_8" />
<path fill-rule="evenodd" d="M266,880l614,0l0,-24l-614,0l0,24Z" class="g1_8" />
<path fill-rule="evenodd" d="M266,904l614,0l0,-24l-614,0l0,24Z" class="g1_8" />
<path fill-rule="evenodd" d="M266,928l614,0l0,-24l-614,0l0,24Z" class="g1_8" />
<path fill-rule="evenodd" d="M266,952l614,0l0,-24l-614,0l0,24Z" class="g1_8" />
<g clip-path="url(#c9_8)">
<path fill-rule="evenodd" d="M266,975l614,0l0,-23l-614,0l0,23Z" class="g1_8" />
</g>
<path d="M46.5,665.5l0,-1" class="g2_8" />
<path d="M47.5,665.5l74,0" class="g2_8" />
<path d="M121.5,665.5l0,-1" class="g2_8" />
<path d="M122.5,665.5l135,0" class="g2_8" />
<path d="M257.5,665.5l0,-1" class="g2_8" />
<path d="M259.5,665.5l628,0" class="g2_8" />
<path d="M887.5,665.5l0,-1" class="g2_8" />
<path d="M46.5,975.5l0,-310" class="g2_8" />
<path d="M121.5,975.5l0,-310" class="g2_8" />
<path d="M257.5,975.5l0,-310" class="g2_8" />
<path d="M887.5,975.5l0,-310" class="g2_8" />
<path fill-rule="evenodd" d="M47,1096l74,0l0,-119l-74,0l0,119Z" class="g1_8" />
<path fill-rule="evenodd" d="M55,1001l58,0l0,-24l-58,0l0,24Z" class="g1_8" />
<path fill-rule="evenodd" d="M122,1096l135,0l0,-119l-135,0l0,119Z" class="g1_8" />
<path fill-rule="evenodd" d="M130,1001l120,0l0,-24l-120,0l0,24Z" class="g1_8" />
<path fill-rule="evenodd" d="M259,1096l628,0l0,-119l-628,0l0,119Z" class="g1_8" />
<path fill-rule="evenodd" d="M266,1001l614,0l0,-24l-614,0l0,24Z" class="g1_8" />
<path fill-rule="evenodd" d="M266,1024l614,0l0,-23l-614,0l0,23Z" class="g1_8" />
<path fill-rule="evenodd" d="M266,1048l614,0l0,-24l-614,0l0,24Z" class="g1_8" />
<path fill-rule="evenodd" d="M266,1072l614,0l0,-24l-614,0l0,24Z" class="g1_8" />
<g clip-path="url(#c10_8)">
<path fill-rule="evenodd" d="M266,1096l614,0l0,-24l-614,0l0,24Z" class="g1_8" />
</g>
<path d="M46.5,977.5l0,-2" class="g2_8" />
<path d="M47.5,977.5l74,0" class="g2_8" />
<path d="M121.5,977.5l0,-2" class="g2_8" />
<path d="M122.5,977.5l135,0" class="g2_8" />
<path d="M257.5,977.5l0,-2" class="g2_8" />
<path d="M259.5,977.5l628,0" class="g2_8" />
<path d="M887.5,977.5l0,-2" class="g2_8" />
<path d="M46.5,1096.5l0,-119" class="g2_8" />
<path d="M46.5,1097.5l0,-1" class="g2_8" />
<path d="M46.5,1097.5l0,-1" class="g2_8" />
<path d="M47.5,1097.5l74,0" class="g2_8" />
<path d="M121.5,1096.5l0,-119" class="g2_8" />
<path d="M121.5,1097.5l0,-1" class="g2_8" />
<path d="M122.5,1097.5l135,0" class="g2_8" />
<path d="M257.5,1096.5l0,-119" class="g2_8" />
<path d="M257.5,1097.5l0,-1" class="g2_8" />
<path d="M259.5,1097.5l628,0" class="g2_8" />
<path d="M887.5,1096.5l0,-119" class="g2_8" />
<path d="M887.5,1097.5l0,-1" class="g2_8" />
<path d="M887.5,1097.5l0,-1" class="g2_8" />
</svg>