<?xml version="1.0" encoding="UTF-8" standalone="no"?>
<!DOCTYPE svg PUBLIC "-//W3C//DTD SVG 1.1//EN"
"http://www.w3.org/Graphics/SVG/1.1/DTD/svg11.dtd">
<svg version="1.1" xmlns="http://www.w3.org/2000/svg" xmlns:xlink="http://www.w3.org/1999/xlink">
<defs>
<clipPath id="c0_435"><path d="M131.5,256.5l0,-145l150,0l0,145Z" /></clipPath>
<clipPath id="c1_435"><path d="M282.5,256.5l0,-145l115,0l0,145Z" /></clipPath>
<clipPath id="c2_435"><path d="M398.5,256.5l0,-145l75,0l0,145Z" /></clipPath>
<clipPath id="c3_435"><path d="M475.5,256.5l0,-145l412,0l0,145Z" /></clipPath>
<clipPath id="c4_435"><path d="M131.5,290.5l0,-33l150,0l0,33Z" /></clipPath>
<clipPath id="c5_435"><path d="M282.5,290.5l0,-33l115,0l0,33Z" /></clipPath>
<clipPath id="c6_435"><path d="M398.5,290.5l0,-33l75,0l0,33Z" /></clipPath>
<clipPath id="c7_435"><path d="M475.5,290.5l0,-33l412,0l0,33Z" /></clipPath>
<clipPath id="c8_435"><path d="M47.5,413.5l0,-24l840,0l0,24Z" /></clipPath>
<clipPath id="c9_435"><path d="M47.5,1086.5l0,-262l840,0l0,262Z" /></clipPath>
<style type="text/css"><![CDATA[
.g2_435{
fill: none;
stroke: #7E7E7E;
stroke-width: 1;
stroke-linecap: butt;
stroke-linejoin: miter;
}
.g1_435{
fill: #F1F1F1;
}
]]></style>
</defs>
<path fill-rule="evenodd" d="M47,256l39,0L86,111l-39,0l0,145Z" class="g1_435" />
<path fill-rule="evenodd" d="M88,290l41,0l0,-179l-41,0l0,179Z" class="g1_435" />
<path fill-rule="evenodd" d="M95,290l24,0l0,-179l-24,0l0,179Z" class="g1_435" />
<path fill-rule="evenodd" d="M131,256l150,0l0,-145l-150,0l0,145Z" class="g1_435" />
<g clip-path="url(#c0_435)">
<path fill-rule="evenodd" d="M138,135l135,0l0,-24l-135,0l0,24Z" class="g1_435" />
</g>
<path fill-rule="evenodd" d="M282,256l115,0l0,-145l-115,0l0,145Z" class="g1_435" />
<g clip-path="url(#c1_435)">
<path fill-rule="evenodd" d="M290,135l99,0l0,-24l-99,0l0,24Z" class="g1_435" />
</g>
<path fill-rule="evenodd" d="M398,256l75,0l0,-145l-75,0l0,145Z" class="g1_435" />
<g clip-path="url(#c2_435)">
<path fill-rule="evenodd" d="M406,135l60,0l0,-24l-60,0l0,24Z" class="g1_435" />
</g>
<path fill-rule="evenodd" d="M475,256l412,0l0,-145l-412,0l0,145Z" class="g1_435" />
<g clip-path="url(#c3_435)">
<path fill-rule="evenodd" d="M483,135l397,0l0,-24l-397,0l0,24Z" class="g1_435" />
</g>
<path fill-rule="evenodd" d="M483,159l397,0l0,-24l-397,0l0,24Z" class="g1_435" />
<path fill-rule="evenodd" d="M483,182l397,0l0,-23l-397,0l0,23Z" class="g1_435" />
<path fill-rule="evenodd" d="M483,206l397,0l0,-24l-397,0l0,24Z" class="g1_435" />
<path d="M46.5,111.5l0,-1" class="g2_435" />
<path d="M46.5,111.5l0,-1" class="g2_435" />
<path d="M47.5,111.5l39,0" class="g2_435" />
<path d="M86.5,111.5l0,-1" class="g2_435" />
<path d="M88.5,111.5l41,0" class="g2_435" />
<path d="M129.5,111.5l0,-1" class="g2_435" />
<path d="M131.5,111.5l150,0" class="g2_435" />
<path d="M281.5,111.5l0,-1" class="g2_435" />
<path d="M282.5,111.5l115,0" class="g2_435" />
<path d="M397.5,111.5l0,-1" class="g2_435" />
<path d="M398.5,111.5l76,0" class="g2_435" />
<path d="M474.5,111.5l0,-1" class="g2_435" />
<path d="M475.5,111.5l412,0" class="g2_435" />
<path d="M887.5,111.5l0,-1" class="g2_435" />
<path d="M887.5,111.5l0,-1" class="g2_435" />
<path d="M46.5,256.5l0,-145" class="g2_435" />
<path d="M86.5,256.5l0,-145" class="g2_435" />
<path d="M129.5,256.5l0,-145" class="g2_435" />
<path d="M281.5,256.5l0,-145" class="g2_435" />
<path d="M397.5,256.5l0,-145" class="g2_435" />
<path d="M474.5,256.5l0,-145" class="g2_435" />
<path d="M887.5,256.5l0,-145" class="g2_435" />
<path fill-rule="evenodd" d="M47,290l39,0l0,-34l-39,0l0,34Z" class="g1_435" />
<path fill-rule="evenodd" d="M131,290l150,0l0,-33l-150,0l0,33Z" class="g1_435" />
<g clip-path="url(#c4_435)">
<path fill-rule="evenodd" d="M138,281l135,0l0,-24l-135,0l0,24Z" class="g1_435" />
</g>
<path fill-rule="evenodd" d="M282,290l115,0l0,-33l-115,0l0,33Z" class="g1_435" />
<g clip-path="url(#c5_435)">
<path fill-rule="evenodd" d="M290,281l99,0l0,-24l-99,0l0,24Z" class="g1_435" />
</g>
<path fill-rule="evenodd" d="M398,290l75,0l0,-33l-75,0l0,33Z" class="g1_435" />
<g clip-path="url(#c6_435)">
<path fill-rule="evenodd" d="M406,281l60,0l0,-24l-60,0l0,24Z" class="g1_435" />
</g>
<path fill-rule="evenodd" d="M475,290l412,0l0,-33l-412,0l0,33Z" class="g1_435" />
<g clip-path="url(#c7_435)">
<path fill-rule="evenodd" d="M483,281l397,0l0,-24l-397,0l0,24Z" class="g1_435" />
</g>
<path d="M46.5,257.5l0,-1" class="g2_435" />
<path d="M86.5,257.5l0,-1" class="g2_435" />
<path d="M129.5,257.5l0,-1" class="g2_435" />
<path d="M131.5,257.5l150,0" class="g2_435" />
<path d="M281.5,257.5l0,-1" class="g2_435" />
<path d="M282.5,257.5l115,0" class="g2_435" />
<path d="M397.5,257.5l0,-1" class="g2_435" />
<path d="M398.5,257.5l76,0" class="g2_435" />
<path d="M474.5,257.5l0,-1" class="g2_435" />
<path d="M475.5,257.5l412,0" class="g2_435" />
<path d="M887.5,257.5l0,-1" class="g2_435" />
<path d="M46.5,290.5l0,-33" class="g2_435" />
<path d="M46.5,292.5l0,-2" class="g2_435" />
<path d="M46.5,292.5l0,-2" class="g2_435" />
<path d="M47.5,292.5l39,0" class="g2_435" />
<path d="M86.5,290.5l0,-33" class="g2_435" />
<path d="M86.5,292.5l0,-2" class="g2_435" />
<path d="M88.5,292.5l41,0" class="g2_435" />
<path d="M129.5,290.5l0,-33" class="g2_435" />
<path d="M129.5,292.5l0,-2" class="g2_435" />
<path d="M131.5,292.5l150,0" class="g2_435" />
<path d="M281.5,290.5l0,-33" class="g2_435" />
<path d="M281.5,292.5l0,-2" class="g2_435" />
<path d="M282.5,292.5l115,0" class="g2_435" />
<path d="M397.5,290.5l0,-33" class="g2_435" />
<path d="M397.5,292.5l0,-2" class="g2_435" />
<path d="M398.5,292.5l76,0" class="g2_435" />
<path d="M474.5,290.5l0,-33" class="g2_435" />
<path d="M474.5,292.5l0,-2" class="g2_435" />
<path d="M475.5,292.5l412,0" class="g2_435" />
<path d="M887.5,290.5l0,-33" class="g2_435" />
<path d="M887.5,292.5l0,-2" class="g2_435" />
<path d="M887.5,292.5l0,-2" class="g2_435" />
<path fill-rule="evenodd" d="M47,413l840,0l0,-24L47,389l0,24Z" class="g1_435" />
<g clip-path="url(#c8_435)">
<path fill-rule="evenodd" d="M55,413l825,0l0,-24L55,389l0,24Z" class="g1_435" />
</g>
<path d="M46.5,389.5l0,-2" class="g2_435" />
<path d="M46.5,389.5l0,-2" class="g2_435" />
<path d="M47.5,389.5l840,0" class="g2_435" />
<path d="M887.5,389.5l0,-2" class="g2_435" />
<path d="M887.5,389.5l0,-2" class="g2_435" />
<path d="M46.5,413.5l0,-24" class="g2_435" />
<path d="M46.5,414.5l0,-1" class="g2_435" />
<path d="M46.5,414.5l0,-1" class="g2_435" />
<path d="M47.5,414.5l840,0" class="g2_435" />
<path d="M887.5,413.5l0,-24" class="g2_435" />
<path d="M887.5,414.5l0,-1" class="g2_435" />
<path d="M887.5,414.5l0,-1" class="g2_435" />
<path fill-rule="evenodd" d="M47,749l840,0l0,-309L47,440l0,309Z" class="g1_435" />
<path fill-rule="evenodd" d="M55,463l825,0l0,-23L55,440l0,23Z" class="g1_435" />
<path fill-rule="evenodd" d="M55,487l825,0l0,-24L55,463l0,24Z" class="g1_435" />
<path fill-rule="evenodd" d="M55,511l825,0l0,-24L55,487l0,24Z" class="g1_435" />
<path fill-rule="evenodd" d="M55,535l825,0l0,-24L55,511l0,24Z" class="g1_435" />
<path fill-rule="evenodd" d="M55,559l825,0l0,-24L55,535l0,24Z" class="g1_435" />
<path fill-rule="evenodd" d="M55,583l825,0l0,-24L55,559l0,24Z" class="g1_435" />
<path fill-rule="evenodd" d="M55,606l825,0l0,-23L55,583l0,23Z" class="g1_435" />
<path fill-rule="evenodd" d="M55,630l825,0l0,-24L55,606l0,24Z" class="g1_435" />
<path fill-rule="evenodd" d="M55,654l825,0l0,-24L55,630l0,24Z" class="g1_435" />
<path fill-rule="evenodd" d="M55,678l825,0l0,-24L55,654l0,24Z" class="g1_435" />
<path fill-rule="evenodd" d="M55,702l825,0l0,-24L55,678l0,24Z" class="g1_435" />
<path fill-rule="evenodd" d="M55,726l825,0l0,-24L55,702l0,24Z" class="g1_435" />
<path fill-rule="evenodd" d="M55,749l825,0l0,-23L55,726l0,23Z" class="g1_435" />
<path d="M46.5,439.5l0,-1" class="g2_435" />
<path d="M46.5,439.5l0,-1" class="g2_435" />
<path d="M47.5,439.5l840,0" class="g2_435" />
<path d="M887.5,439.5l0,-1" class="g2_435" />
<path d="M887.5,439.5l0,-1" class="g2_435" />
<path d="M46.5,749.5l0,-310" class="g2_435" />
<path d="M46.5,751.5l0,-2" class="g2_435" />
<path d="M46.5,751.5l0,-2" class="g2_435" />
<path d="M47.5,751.5l840,0" class="g2_435" />
<path d="M887.5,749.5l0,-310" class="g2_435" />
<path d="M887.5,751.5l0,-2" class="g2_435" />
<path d="M887.5,751.5l0,-2" class="g2_435" />
<path fill-rule="evenodd" d="M47,1086l840,0l0,-262L47,824l0,262Z" class="g1_435" />
<g clip-path="url(#c9_435)">
<path fill-rule="evenodd" d="M55,848l825,0l0,-24L55,824l0,24Z" class="g1_435" />
</g>
<path fill-rule="evenodd" d="M55,872l825,0l0,-24L55,848l0,24Z" class="g1_435" />
<path fill-rule="evenodd" d="M55,895l825,0l0,-23L55,872l0,23Z" class="g1_435" />
<path fill-rule="evenodd" d="M55,919l825,0l0,-24L55,895l0,24Z" class="g1_435" />
<path fill-rule="evenodd" d="M55,943l825,0l0,-24L55,919l0,24Z" class="g1_435" />
<path fill-rule="evenodd" d="M55,967l825,0l0,-24L55,943l0,24Z" class="g1_435" />
<path fill-rule="evenodd" d="M55,991l825,0l0,-24L55,967l0,24Z" class="g1_435" />
<path fill-rule="evenodd" d="M55,1015l825,0l0,-24L55,991l0,24Z" class="g1_435" />
<path fill-rule="evenodd" d="M55,1038l825,0l0,-23l-825,0l0,23Z" class="g1_435" />
<path fill-rule="evenodd" d="M55,1062l825,0l0,-24l-825,0l0,24Z" class="g1_435" />
<g clip-path="url(#c9_435)">
<path fill-rule="evenodd" d="M55,1086l825,0l0,-24l-825,0l0,24Z" class="g1_435" />
</g>
<path d="M46.5,824.5l0,-2" class="g2_435" />
<path d="M46.5,824.5l0,-2" class="g2_435" />
<path d="M47.5,824.5l840,0" class="g2_435" />
<path d="M887.5,824.5l0,-2" class="g2_435" />
<path d="M887.5,824.5l0,-2" class="g2_435" />
<path d="M46.5,1086.5l0,-262" class="g2_435" />
<path d="M46.5,1088.5l0,-2" class="g2_435" />
<path d="M46.5,1088.5l0,-2" class="g2_435" />
<path d="M47.5,1088.5l840,0" class="g2_435" />
<path d="M887.5,1086.5l0,-262" class="g2_435" />
<path d="M887.5,1088.5l0,-2" class="g2_435" />
<path d="M887.5,1088.5l0,-2" class="g2_435" />
</svg>