<?xml version="1.0" encoding="UTF-8" standalone="no"?>
<!DOCTYPE svg PUBLIC "-//W3C//DTD SVG 1.1//EN"
"http://www.w3.org/Graphics/SVG/1.1/DTD/svg11.dtd">
<svg version="1.1" xmlns="http://www.w3.org/2000/svg" xmlns:xlink="http://www.w3.org/1999/xlink">
<defs>
<clipPath id="c0_203"><path d="M47.5,1070.5l0,-24l840,0l0,24Z" /></clipPath>
<style type="text/css"><![CDATA[
.g2_203{
fill: #F1F1F1;
}
.g3_203{
fill: none;
stroke: #7E7E7E;
stroke-width: 1;
stroke-linecap: butt;
stroke-linejoin: miter;
}
.g1_203{
fill: none;
stroke: #000000;
stroke-width: 1;
stroke-linecap: butt;
stroke-linejoin: miter;
}
]]></style>
</defs>
<path d="M433.5,110.5l82,0" class="g1_203" />
<path d="M516.5,110.5l295,0" class="g1_203" />
<path d="M53.5,158.5l0,-48" class="g1_203" />
<path d="M92.5,158.5l0,-48" class="g1_203" />
<path d="M131.5,158.5l0,-48" class="g1_203" />
<path d="M171.5,158.5l0,-48" class="g1_203" />
<path d="M210.5,158.5l0,-48" class="g1_203" />
<path d="M270.5,158.5l0,-48" class="g1_203" />
<path d="M432.5,158.5l0,-48" class="g1_203" />
<path d="M515.5,158.5l0,-48" class="g1_203" />
<path d="M811.5,158.5l0,-48" class="g1_203" />
<path d="M888.5,158.5l0,-48" class="g1_203" />
<path d="M53.5,159.5l0,-1" class="g1_203" />
<path d="M92.5,159.5l0,-1" class="g1_203" />
<path d="M131.5,159.5l0,-1" class="g1_203" />
<path d="M171.5,159.5l0,-1" class="g1_203" />
<path d="M210.5,159.5l0,-1" class="g1_203" />
<path d="M270.5,159.5l0,-1" class="g1_203" />
<path d="M271.5,159.5l161,0" class="g1_203" />
<path d="M432.5,159.5l0,-1" class="g1_203" />
<path d="M433.5,159.5l82,0" class="g1_203" />
<path d="M515.5,159.5l0,-1" class="g1_203" />
<path d="M516.5,159.5l295,0" class="g1_203" />
<path d="M811.5,159.5l0,-1" class="g1_203" />
<path d="M811.5,159.5l77,0" class="g1_203" />
<path d="M888.5,159.5l0,-1" class="g1_203" />
<path d="M53.5,206.5l0,-47" class="g1_203" />
<path d="M92.5,206.5l0,-47" class="g1_203" />
<path d="M131.5,206.5l0,-47" class="g1_203" />
<path d="M171.5,206.5l0,-47" class="g1_203" />
<path d="M210.5,206.5l0,-47" class="g1_203" />
<path d="M270.5,206.5l0,-47" class="g1_203" />
<path d="M432.5,206.5l0,-47" class="g1_203" />
<path d="M515.5,206.5l0,-47" class="g1_203" />
<path d="M811.5,206.5l0,-47" class="g1_203" />
<path d="M888.5,206.5l0,-47" class="g1_203" />
<path d="M53.5,207.5l0,-1" class="g1_203" />
<path d="M92.5,207.5l0,-1" class="g1_203" />
<path d="M131.5,207.5l0,-1" class="g1_203" />
<path d="M171.5,207.5l0,-1" class="g1_203" />
<path d="M210.5,207.5l0,-1" class="g1_203" />
<path d="M270.5,207.5l0,-1" class="g1_203" />
<path d="M271.5,207.5l161,0" class="g1_203" />
<path d="M432.5,207.5l0,-1" class="g1_203" />
<path d="M433.5,207.5l82,0" class="g1_203" />
<path d="M515.5,207.5l0,-1" class="g1_203" />
<path d="M516.5,207.5l295,0" class="g1_203" />
<path d="M811.5,207.5l0,-1" class="g1_203" />
<path d="M811.5,207.5l77,0" class="g1_203" />
<path d="M888.5,207.5l0,-1" class="g1_203" />
<path d="M53.5,469.5l0,-262" class="g1_203" />
<path d="M92.5,469.5l0,-262" class="g1_203" />
<path d="M131.5,469.5l0,-262" class="g1_203" />
<path d="M171.5,469.5l0,-262" class="g1_203" />
<path d="M210.5,469.5l0,-262" class="g1_203" />
<path d="M270.5,469.5l0,-262" class="g1_203" />
<path d="M432.5,469.5l0,-262" class="g1_203" />
<path d="M515.5,469.5l0,-262" class="g1_203" />
<path d="M811.5,469.5l0,-262" class="g1_203" />
<path d="M888.5,469.5l0,-262" class="g1_203" />
<path d="M53.5,470.5l0,-1" class="g1_203" />
<path d="M92.5,470.5l0,-1" class="g1_203" />
<path d="M131.5,470.5l0,-1" class="g1_203" />
<path d="M171.5,470.5l0,-1" class="g1_203" />
<path d="M210.5,470.5l0,-1" class="g1_203" />
<path d="M270.5,470.5l0,-1" class="g1_203" />
<path d="M271.5,470.5l161,0" class="g1_203" />
<path d="M432.5,470.5l0,-1" class="g1_203" />
<path d="M433.5,470.5l82,0" class="g1_203" />
<path d="M515.5,470.5l0,-1" class="g1_203" />
<path d="M516.5,470.5l295,0" class="g1_203" />
<path d="M811.5,470.5l0,-1" class="g1_203" />
<path d="M811.5,470.5l77,0" class="g1_203" />
<path d="M888.5,470.5l0,-1" class="g1_203" />
<path d="M53.5,542.5l0,-72" class="g1_203" />
<path d="M92.5,542.5l0,-72" class="g1_203" />
<path d="M131.5,542.5l0,-72" class="g1_203" />
<path d="M171.5,542.5l0,-72" class="g1_203" />
<path d="M210.5,542.5l0,-72" class="g1_203" />
<path d="M270.5,542.5l0,-72" class="g1_203" />
<path d="M432.5,542.5l0,-72" class="g1_203" />
<path d="M515.5,542.5l0,-72" class="g1_203" />
<path d="M811.5,542.5l0,-72" class="g1_203" />
<path d="M888.5,542.5l0,-72" class="g1_203" />
<path d="M271.5,542.5l161,0" class="g1_203" />
<path d="M433.5,542.5l82,0" class="g1_203" />
<path d="M516.5,542.5l295,0" class="g1_203" />
<path d="M811.5,542.5l77,0" class="g1_203" />
<path d="M53.5,828.5l0,-286" class="g1_203" />
<path d="M92.5,828.5l0,-286" class="g1_203" />
<path d="M131.5,828.5l0,-286" class="g1_203" />
<path d="M171.5,828.5l0,-286" class="g1_203" />
<path d="M210.5,828.5l0,-286" class="g1_203" />
<path d="M270.5,828.5l0,-286" class="g1_203" />
<path d="M432.5,828.5l0,-286" class="g1_203" />
<path d="M515.5,828.5l0,-286" class="g1_203" />
<path d="M811.5,828.5l0,-286" class="g1_203" />
<path d="M888.5,828.5l0,-286" class="g1_203" />
<path d="M53.5,829.5l0,-1" class="g1_203" />
<path d="M92.5,829.5l0,-1" class="g1_203" />
<path d="M131.5,829.5l0,-1" class="g1_203" />
<path d="M171.5,829.5l0,-1" class="g1_203" />
<path d="M210.5,829.5l0,-1" class="g1_203" />
<path d="M211.5,829.5l59,0" class="g1_203" />
<path d="M270.5,829.5l0,-1" class="g1_203" />
<path d="M271.5,829.5l161,0" class="g1_203" />
<path d="M432.5,829.5l0,-1" class="g1_203" />
<path d="M433.5,829.5l82,0" class="g1_203" />
<path d="M515.5,829.5l0,-1" class="g1_203" />
<path d="M516.5,829.5l295,0" class="g1_203" />
<path d="M811.5,829.5l0,-1" class="g1_203" />
<path d="M811.5,829.5l77,0" class="g1_203" />
<path d="M888.5,829.5l0,-1" class="g1_203" />
<path d="M53.5,948.5l0,-119" class="g1_203" />
<path d="M53.5,949.5l0,-1" class="g1_203" />
<path d="M53.5,949.5l0,-1" class="g1_203" />
<path d="M54.5,949.5l38,0" class="g1_203" />
<path d="M92.5,948.5l0,-119" class="g1_203" />
<path d="M92.5,949.5l0,-1" class="g1_203" />
<path d="M93.5,949.5l38,0" class="g1_203" />
<path d="M131.5,948.5l0,-119" class="g1_203" />
<path d="M131.5,949.5l0,-1" class="g1_203" />
<path d="M132.5,949.5l39,0" class="g1_203" />
<path d="M171.5,948.5l0,-119" class="g1_203" />
<path d="M171.5,949.5l0,-1" class="g1_203" />
<path d="M171.5,949.5l39,0" class="g1_203" />
<path d="M210.5,948.5l0,-119" class="g1_203" />
<path d="M210.5,949.5l0,-1" class="g1_203" />
<path d="M211.5,949.5l221,0" class="g1_203" />
<path d="M432.5,948.5l0,-119" class="g1_203" />
<path d="M432.5,949.5l0,-1" class="g1_203" />
<path d="M433.5,949.5l82,0" class="g1_203" />
<path d="M515.5,948.5l0,-119" class="g1_203" />
<path d="M515.5,949.5l0,-1" class="g1_203" />
<path d="M516.5,949.5l295,0" class="g1_203" />
<path d="M811.5,948.5l0,-119" class="g1_203" />
<path d="M811.5,949.5l0,-1" class="g1_203" />
<path d="M811.5,949.5l77,0" class="g1_203" />
<path d="M888.5,948.5l0,-119" class="g1_203" />
<path d="M888.5,949.5l0,-1" class="g1_203" />
<path d="M888.5,949.5l0,-1" class="g1_203" />
<path fill-rule="evenodd" d="M47,1070l840,0l0,-24l-840,0l0,24Z" class="g2_203" />
<g clip-path="url(#c0_203)">
<path fill-rule="evenodd" d="M55,1070l825,0l0,-24l-825,0l0,24Z" class="g2_203" />
</g>
<path d="M46.5,1046.5l0,-2" class="g3_203" />
<path d="M46.5,1046.5l0,-2" class="g3_203" />
<path d="M47.5,1046.5l840,0" class="g3_203" />
<path d="M887.5,1046.5l0,-2" class="g3_203" />
<path d="M887.5,1046.5l0,-2" class="g3_203" />
<path d="M46.5,1070.5l0,-24" class="g3_203" />
<path d="M46.5,1071.5l0,-1" class="g3_203" />
<path d="M46.5,1071.5l0,-1" class="g3_203" />
<path d="M47.5,1071.5l840,0" class="g3_203" />
<path d="M887.5,1070.5l0,-24" class="g3_203" />
<path d="M887.5,1071.5l0,-1" class="g3_203" />
<path d="M887.5,1071.5l0,-1" class="g3_203" />
</svg>