<?xml version="1.0" encoding="UTF-8" standalone="no"?>
<!DOCTYPE svg PUBLIC "-//W3C//DTD SVG 1.1//EN"
"http://www.w3.org/Graphics/SVG/1.1/DTD/svg11.dtd">
<svg version="1.1" xmlns="http://www.w3.org/2000/svg" xmlns:xlink="http://www.w3.org/1999/xlink">
<defs>
<clipPath id="c0_450"><path d="M76.5,1035.5l0,-924l25,0l0,924Z" /></clipPath>
<clipPath id="c1_450"><path d="M103.5,1035.5l0,-924l26,0l0,924Z" /></clipPath>
<clipPath id="c2_450"><path d="M130.5,183.5l0,-72l220,0l0,72Z" /></clipPath>
<clipPath id="c3_450"><path d="M351.5,183.5l0,-72l88,0l0,72Z" /></clipPath>
<clipPath id="c4_450"><path d="M441.5,183.5l0,-72l67,0l0,72Z" /></clipPath>
<clipPath id="c5_450"><path d="M510.5,183.5l0,-72l377,0l0,72Z" /></clipPath>
<clipPath id="c6_450"><path d="M130.5,257.5l0,-72l220,0l0,72Z" /></clipPath>
<clipPath id="c7_450"><path d="M351.5,257.5l0,-72l88,0l0,72Z" /></clipPath>
<clipPath id="c8_450"><path d="M441.5,257.5l0,-72l67,0l0,72Z" /></clipPath>
<clipPath id="c9_450"><path d="M510.5,257.5l0,-72l377,0l0,72Z" /></clipPath>
<clipPath id="c10_450"><path d="M130.5,331.5l0,-72l220,0l0,72Z" /></clipPath>
<clipPath id="c11_450"><path d="M351.5,331.5l0,-72l88,0l0,72Z" /></clipPath>
<clipPath id="c12_450"><path d="M441.5,331.5l0,-72l67,0l0,72Z" /></clipPath>
<clipPath id="c13_450"><path d="M510.5,331.5l0,-72l377,0l0,72Z" /></clipPath>
<clipPath id="c14_450"><path d="M130.5,404.5l0,-72l220,0l0,72Z" /></clipPath>
<clipPath id="c15_450"><path d="M351.5,404.5l0,-72l88,0l0,72Z" /></clipPath>
<clipPath id="c16_450"><path d="M441.5,404.5l0,-72l67,0l0,72Z" /></clipPath>
<clipPath id="c17_450"><path d="M510.5,404.5l0,-72l377,0l0,72Z" /></clipPath>
<clipPath id="c18_450"><path d="M130.5,819.5l0,-167l220,0l0,167Z" /></clipPath>
<clipPath id="c19_450"><path d="M351.5,819.5l0,-167l88,0l0,167Z" /></clipPath>
<clipPath id="c20_450"><path d="M441.5,819.5l0,-167l67,0l0,167Z" /></clipPath>
<clipPath id="c21_450"><path d="M510.5,819.5l0,-167l377,0l0,167Z" /></clipPath>
<clipPath id="c22_450"><path d="M130.5,1035.5l0,-214l220,0l0,214Z" /></clipPath>
<clipPath id="c23_450"><path d="M351.5,1035.5l0,-214l88,0l0,214Z" /></clipPath>
<clipPath id="c24_450"><path d="M441.5,1035.5l0,-214l67,0l0,214Z" /></clipPath>
<clipPath id="c25_450"><path d="M510.5,1035.5l0,-214l377,0l0,214Z" /></clipPath>
<style type="text/css"><![CDATA[
.g2_450{
fill: none;
stroke: #7E7E7E;
stroke-width: 1;
stroke-linecap: butt;
stroke-linejoin: miter;
}
.g1_450{
fill: #F1F1F1;
}
]]></style>
</defs>
<path fill-rule="evenodd" d="M47,183l27,0l0,-72l-27,0l0,72Z" class="g1_450" />
<path fill-rule="evenodd" d="M76,1035l25,0l0,-924l-25,0l0,924Z" class="g1_450" />
<g clip-path="url(#c0_450)">
<path fill-rule="evenodd" d="M83,1035l18,0l0,-924l-18,0l0,924Z" class="g1_450" />
</g>
<path fill-rule="evenodd" d="M103,1035l26,0l0,-924l-26,0l0,924Z" class="g1_450" />
<g clip-path="url(#c1_450)">
<path fill-rule="evenodd" d="M110,1035l19,0l0,-924l-19,0l0,924Z" class="g1_450" />
</g>
<path fill-rule="evenodd" d="M130,183l220,0l0,-72l-220,0l0,72Z" class="g1_450" />
<g clip-path="url(#c2_450)">
<path fill-rule="evenodd" d="M138,135l204,0l0,-24l-204,0l0,24Z" class="g1_450" />
</g>
<path fill-rule="evenodd" d="M351,183l88,0l0,-72l-88,0l0,72Z" class="g1_450" />
<g clip-path="url(#c3_450)">
<path fill-rule="evenodd" d="M359,135l73,0l0,-24l-73,0l0,24Z" class="g1_450" />
</g>
<path fill-rule="evenodd" d="M441,183l67,0l0,-72l-67,0l0,72Z" class="g1_450" />
<g clip-path="url(#c4_450)">
<path fill-rule="evenodd" d="M448,135l53,0l0,-24l-53,0l0,24Z" class="g1_450" />
</g>
<path fill-rule="evenodd" d="M510,183l377,0l0,-72l-377,0l0,72Z" class="g1_450" />
<g clip-path="url(#c5_450)">
<path fill-rule="evenodd" d="M517,135l363,0l0,-24l-363,0l0,24Z" class="g1_450" />
</g>
<path fill-rule="evenodd" d="M517,159l363,0l0,-24l-363,0l0,24Z" class="g1_450" />
<path fill-rule="evenodd" d="M517,182l363,0l0,-23l-363,0l0,23Z" class="g1_450" />
<path d="M46.5,111.5l0,-1" class="g2_450" />
<path d="M46.5,111.5l0,-1" class="g2_450" />
<path d="M47.5,111.5l27,0" class="g2_450" />
<path d="M74.5,111.5l0,-1" class="g2_450" />
<path d="M76.5,111.5l25,0" class="g2_450" />
<path d="M101.5,111.5l0,-1" class="g2_450" />
<path d="M103.5,111.5l26,0" class="g2_450" />
<path d="M129.5,111.5l0,-1" class="g2_450" />
<path d="M130.5,111.5l220,0" class="g2_450" />
<path d="M350.5,111.5l0,-1" class="g2_450" />
<path d="M351.5,111.5l88,0" class="g2_450" />
<path d="M439.5,111.5l0,-1" class="g2_450" />
<path d="M441.5,111.5l67,0" class="g2_450" />
<path d="M508.5,111.5l0,-1" class="g2_450" />
<path d="M510.5,111.5l378,0" class="g2_450" />
<path d="M888.5,111.5l0,-1" class="g2_450" />
<path d="M888.5,111.5l0,-1" class="g2_450" />
<path d="M46.5,183.5l0,-72" class="g2_450" />
<path d="M74.5,183.5l0,-72" class="g2_450" />
<path d="M101.5,183.5l0,-72" class="g2_450" />
<path d="M129.5,183.5l0,-72" class="g2_450" />
<path d="M350.5,183.5l0,-72" class="g2_450" />
<path d="M439.5,183.5l0,-72" class="g2_450" />
<path d="M508.5,183.5l0,-72" class="g2_450" />
<path d="M888.5,183.5l0,-72" class="g2_450" />
<path fill-rule="evenodd" d="M47,257l27,0l0,-74l-27,0l0,74Z" class="g1_450" />
<path fill-rule="evenodd" d="M130,257l220,0l0,-72l-220,0l0,72Z" class="g1_450" />
<g clip-path="url(#c6_450)">
<path fill-rule="evenodd" d="M138,209l204,0l0,-24l-204,0l0,24Z" class="g1_450" />
</g>
<path fill-rule="evenodd" d="M351,257l88,0l0,-72l-88,0l0,72Z" class="g1_450" />
<g clip-path="url(#c7_450)">
<path fill-rule="evenodd" d="M359,209l73,0l0,-24l-73,0l0,24Z" class="g1_450" />
</g>
<path fill-rule="evenodd" d="M441,257l67,0l0,-72l-67,0l0,72Z" class="g1_450" />
<g clip-path="url(#c8_450)">
<path fill-rule="evenodd" d="M448,209l53,0l0,-24l-53,0l0,24Z" class="g1_450" />
</g>
<path fill-rule="evenodd" d="M510,257l377,0l0,-72l-377,0l0,72Z" class="g1_450" />
<g clip-path="url(#c9_450)">
<path fill-rule="evenodd" d="M517,209l363,0l0,-24l-363,0l0,24Z" class="g1_450" />
</g>
<path fill-rule="evenodd" d="M517,232l363,0l0,-23l-363,0l0,23Z" class="g1_450" />
<path fill-rule="evenodd" d="M517,256l363,0l0,-24l-363,0l0,24Z" class="g1_450" />
<path d="M46.5,185.5l0,-2" class="g2_450" />
<path d="M74.5,185.5l0,-2" class="g2_450" />
<path d="M101.5,185.5l0,-2" class="g2_450" />
<path d="M129.5,185.5l0,-2" class="g2_450" />
<path d="M130.5,185.5l220,0" class="g2_450" />
<path d="M350.5,185.5l0,-2" class="g2_450" />
<path d="M351.5,185.5l88,0" class="g2_450" />
<path d="M439.5,185.5l0,-2" class="g2_450" />
<path d="M441.5,185.5l67,0" class="g2_450" />
<path d="M508.5,185.5l0,-2" class="g2_450" />
<path d="M510.5,185.5l378,0" class="g2_450" />
<path d="M888.5,185.5l0,-2" class="g2_450" />
<path d="M46.5,257.5l0,-72" class="g2_450" />
<path d="M74.5,257.5l0,-72" class="g2_450" />
<path d="M101.5,257.5l0,-72" class="g2_450" />
<path d="M129.5,257.5l0,-72" class="g2_450" />
<path d="M350.5,257.5l0,-72" class="g2_450" />
<path d="M439.5,257.5l0,-72" class="g2_450" />
<path d="M508.5,257.5l0,-72" class="g2_450" />
<path d="M888.5,257.5l0,-72" class="g2_450" />
<path fill-rule="evenodd" d="M47,331l27,0l0,-74l-27,0l0,74Z" class="g1_450" />
<path fill-rule="evenodd" d="M130,331l220,0l0,-72l-220,0l0,72Z" class="g1_450" />
<g clip-path="url(#c10_450)">
<path fill-rule="evenodd" d="M138,282l204,0l0,-23l-204,0l0,23Z" class="g1_450" />
</g>
<path fill-rule="evenodd" d="M351,331l88,0l0,-72l-88,0l0,72Z" class="g1_450" />
<g clip-path="url(#c11_450)">
<path fill-rule="evenodd" d="M359,282l73,0l0,-23l-73,0l0,23Z" class="g1_450" />
</g>
<path fill-rule="evenodd" d="M441,331l67,0l0,-72l-67,0l0,72Z" class="g1_450" />
<g clip-path="url(#c12_450)">
<path fill-rule="evenodd" d="M448,282l53,0l0,-23l-53,0l0,23Z" class="g1_450" />
</g>
<path fill-rule="evenodd" d="M510,331l377,0l0,-72l-377,0l0,72Z" class="g1_450" />
<g clip-path="url(#c13_450)">
<path fill-rule="evenodd" d="M517,282l363,0l0,-23l-363,0l0,23Z" class="g1_450" />
</g>
<path fill-rule="evenodd" d="M517,306l363,0l0,-24l-363,0l0,24Z" class="g1_450" />
<path fill-rule="evenodd" d="M517,330l363,0l0,-24l-363,0l0,24Z" class="g1_450" />
<path d="M46.5,258.5l0,-1" class="g2_450" />
<path d="M74.5,258.5l0,-1" class="g2_450" />
<path d="M101.5,258.5l0,-1" class="g2_450" />
<path d="M129.5,258.5l0,-1" class="g2_450" />
<path d="M130.5,258.5l220,0" class="g2_450" />
<path d="M350.5,258.5l0,-1" class="g2_450" />
<path d="M351.5,258.5l88,0" class="g2_450" />
<path d="M439.5,258.5l0,-1" class="g2_450" />
<path d="M441.5,258.5l67,0" class="g2_450" />
<path d="M508.5,258.5l0,-1" class="g2_450" />
<path d="M510.5,258.5l378,0" class="g2_450" />
<path d="M888.5,258.5l0,-1" class="g2_450" />
<path d="M46.5,331.5l0,-73" class="g2_450" />
<path d="M74.5,331.5l0,-73" class="g2_450" />
<path d="M101.5,331.5l0,-73" class="g2_450" />
<path d="M129.5,331.5l0,-73" class="g2_450" />
<path d="M350.5,331.5l0,-73" class="g2_450" />
<path d="M439.5,331.5l0,-73" class="g2_450" />
<path d="M508.5,331.5l0,-73" class="g2_450" />
<path d="M888.5,331.5l0,-73" class="g2_450" />
<path fill-rule="evenodd" d="M47,404l27,0l0,-73l-27,0l0,73Z" class="g1_450" />
<path fill-rule="evenodd" d="M130,404l220,0l0,-72l-220,0l0,72Z" class="g1_450" />
<g clip-path="url(#c14_450)">
<path fill-rule="evenodd" d="M138,356l204,0l0,-24l-204,0l0,24Z" class="g1_450" />
</g>
<path fill-rule="evenodd" d="M351,404l88,0l0,-72l-88,0l0,72Z" class="g1_450" />
<g clip-path="url(#c15_450)">
<path fill-rule="evenodd" d="M359,356l73,0l0,-24l-73,0l0,24Z" class="g1_450" />
</g>
<path fill-rule="evenodd" d="M441,404l67,0l0,-72l-67,0l0,72Z" class="g1_450" />
<g clip-path="url(#c16_450)">
<path fill-rule="evenodd" d="M448,356l53,0l0,-24l-53,0l0,24Z" class="g1_450" />
</g>
<path fill-rule="evenodd" d="M510,404l377,0l0,-72l-377,0l0,72Z" class="g1_450" />
<g clip-path="url(#c17_450)">
<path fill-rule="evenodd" d="M517,356l363,0l0,-24l-363,0l0,24Z" class="g1_450" />
</g>
<path fill-rule="evenodd" d="M517,380l363,0l0,-24l-363,0l0,24Z" class="g1_450" />
<path fill-rule="evenodd" d="M517,404l363,0l0,-24l-363,0l0,24Z" class="g1_450" />
<path d="M46.5,332.5l0,-1" class="g2_450" />
<path d="M74.5,332.5l0,-1" class="g2_450" />
<path d="M101.5,332.5l0,-1" class="g2_450" />
<path d="M129.5,332.5l0,-1" class="g2_450" />
<path d="M130.5,332.5l220,0" class="g2_450" />
<path d="M350.5,332.5l0,-1" class="g2_450" />
<path d="M351.5,332.5l88,0" class="g2_450" />
<path d="M439.5,332.5l0,-1" class="g2_450" />
<path d="M441.5,332.5l67,0" class="g2_450" />
<path d="M508.5,332.5l0,-1" class="g2_450" />
<path d="M510.5,332.5l378,0" class="g2_450" />
<path d="M888.5,332.5l0,-1" class="g2_450" />
<path d="M46.5,404.5l0,-72" class="g2_450" />
<path d="M74.5,404.5l0,-72" class="g2_450" />
<path d="M101.5,404.5l0,-72" class="g2_450" />
<path d="M129.5,404.5l0,-72" class="g2_450" />
<path d="M350.5,404.5l0,-72" class="g2_450" />
<path d="M439.5,404.5l0,-72" class="g2_450" />
<path d="M508.5,404.5l0,-72" class="g2_450" />
<path d="M888.5,404.5l0,-72" class="g2_450" />
<path fill-rule="evenodd" d="M47,478l27,0l0,-73l-27,0l0,73Z" class="g1_450" />
<path fill-rule="evenodd" d="M130,478l220,0l0,-72l-220,0l0,72Z" class="g1_450" />
<path fill-rule="evenodd" d="M138,430l204,0l0,-24l-204,0l0,24Z" class="g1_450" />
<path fill-rule="evenodd" d="M351,478l88,0l0,-72l-88,0l0,72Z" class="g1_450" />
<path fill-rule="evenodd" d="M359,430l73,0l0,-24l-73,0l0,24Z" class="g1_450" />
<path fill-rule="evenodd" d="M441,478l67,0l0,-72l-67,0l0,72Z" class="g1_450" />
<path fill-rule="evenodd" d="M448,430l53,0l0,-24l-53,0l0,24Z" class="g1_450" />
<path fill-rule="evenodd" d="M510,478l377,0l0,-72l-377,0l0,72Z" class="g1_450" />
<path fill-rule="evenodd" d="M517,430l363,0l0,-24l-363,0l0,24Z" class="g1_450" />
<path fill-rule="evenodd" d="M517,454l363,0l0,-24l-363,0l0,24Z" class="g1_450" />
<path fill-rule="evenodd" d="M517,478l363,0l0,-24l-363,0l0,24Z" class="g1_450" />
<path d="M46.5,406.5l0,-2" class="g2_450" />
<path d="M74.5,406.5l0,-2" class="g2_450" />
<path d="M101.5,406.5l0,-2" class="g2_450" />
<path d="M129.5,406.5l0,-2" class="g2_450" />
<path d="M130.5,406.5l220,0" class="g2_450" />
<path d="M350.5,406.5l0,-2" class="g2_450" />
<path d="M351.5,406.5l88,0" class="g2_450" />
<path d="M439.5,406.5l0,-2" class="g2_450" />
<path d="M441.5,406.5l67,0" class="g2_450" />
<path d="M508.5,406.5l0,-2" class="g2_450" />
<path d="M510.5,406.5l378,0" class="g2_450" />
<path d="M888.5,406.5l0,-2" class="g2_450" />
<path d="M46.5,478.5l0,-72" class="g2_450" />
<path d="M74.5,478.5l0,-72" class="g2_450" />
<path d="M101.5,478.5l0,-72" class="g2_450" />
<path d="M129.5,478.5l0,-72" class="g2_450" />
<path d="M350.5,478.5l0,-72" class="g2_450" />
<path d="M439.5,478.5l0,-72" class="g2_450" />
<path d="M508.5,478.5l0,-72" class="g2_450" />
<path d="M888.5,478.5l0,-72" class="g2_450" />
<path fill-rule="evenodd" d="M47,552l27,0l0,-74l-27,0l0,74Z" class="g1_450" />
<path fill-rule="evenodd" d="M130,552l220,0l0,-72l-220,0l0,72Z" class="g1_450" />
<path fill-rule="evenodd" d="M138,504l204,0l0,-24l-204,0l0,24Z" class="g1_450" />
<path fill-rule="evenodd" d="M351,552l88,0l0,-72l-88,0l0,72Z" class="g1_450" />
<path fill-rule="evenodd" d="M359,504l73,0l0,-24l-73,0l0,24Z" class="g1_450" />
<path fill-rule="evenodd" d="M441,552l67,0l0,-72l-67,0l0,72Z" class="g1_450" />
<path fill-rule="evenodd" d="M448,504l53,0l0,-24l-53,0l0,24Z" class="g1_450" />
<path fill-rule="evenodd" d="M510,552l377,0l0,-72l-377,0l0,72Z" class="g1_450" />
<path fill-rule="evenodd" d="M517,504l363,0l0,-24l-363,0l0,24Z" class="g1_450" />
<path fill-rule="evenodd" d="M517,527l363,0l0,-23l-363,0l0,23Z" class="g1_450" />
<path fill-rule="evenodd" d="M517,551l363,0l0,-24l-363,0l0,24Z" class="g1_450" />
<path d="M46.5,480.5l0,-2" class="g2_450" />
<path d="M74.5,480.5l0,-2" class="g2_450" />
<path d="M101.5,480.5l0,-2" class="g2_450" />
<path d="M129.5,480.5l0,-2" class="g2_450" />
<path d="M130.5,480.5l220,0" class="g2_450" />
<path d="M350.5,480.5l0,-2" class="g2_450" />
<path d="M351.5,480.5l88,0" class="g2_450" />
<path d="M439.5,480.5l0,-2" class="g2_450" />
<path d="M441.5,480.5l67,0" class="g2_450" />
<path d="M508.5,480.5l0,-2" class="g2_450" />
<path d="M510.5,480.5l378,0" class="g2_450" />
<path d="M888.5,480.5l0,-2" class="g2_450" />
<path d="M46.5,552.5l0,-72" class="g2_450" />
<path d="M74.5,552.5l0,-72" class="g2_450" />
<path d="M101.5,552.5l0,-72" class="g2_450" />
<path d="M129.5,552.5l0,-72" class="g2_450" />
<path d="M350.5,552.5l0,-72" class="g2_450" />
<path d="M439.5,552.5l0,-72" class="g2_450" />
<path d="M508.5,552.5l0,-72" class="g2_450" />
<path d="M888.5,552.5l0,-72" class="g2_450" />
<path fill-rule="evenodd" d="M47,626l27,0l0,-74l-27,0l0,74Z" class="g1_450" />
<path fill-rule="evenodd" d="M130,626l220,0l0,-73l-220,0l0,73Z" class="g1_450" />
<path fill-rule="evenodd" d="M138,577l204,0l0,-24l-204,0l0,24Z" class="g1_450" />
<path fill-rule="evenodd" d="M351,626l88,0l0,-73l-88,0l0,73Z" class="g1_450" />
<path fill-rule="evenodd" d="M359,577l73,0l0,-24l-73,0l0,24Z" class="g1_450" />
<path fill-rule="evenodd" d="M441,626l67,0l0,-73l-67,0l0,73Z" class="g1_450" />
<path fill-rule="evenodd" d="M448,577l53,0l0,-24l-53,0l0,24Z" class="g1_450" />
<path fill-rule="evenodd" d="M510,626l377,0l0,-73l-377,0l0,73Z" class="g1_450" />
<path fill-rule="evenodd" d="M517,577l363,0l0,-24l-363,0l0,24Z" class="g1_450" />
<path fill-rule="evenodd" d="M517,601l363,0l0,-24l-363,0l0,24Z" class="g1_450" />
<path fill-rule="evenodd" d="M517,625l363,0l0,-24l-363,0l0,24Z" class="g1_450" />
<path d="M46.5,553.5l0,-1" class="g2_450" />
<path d="M74.5,553.5l0,-1" class="g2_450" />
<path d="M101.5,553.5l0,-1" class="g2_450" />
<path d="M129.5,553.5l0,-1" class="g2_450" />
<path d="M130.5,553.5l220,0" class="g2_450" />
<path d="M350.5,553.5l0,-1" class="g2_450" />
<path d="M351.5,553.5l88,0" class="g2_450" />
<path d="M439.5,553.5l0,-1" class="g2_450" />
<path d="M441.5,553.5l67,0" class="g2_450" />
<path d="M508.5,553.5l0,-1" class="g2_450" />
<path d="M510.5,553.5l378,0" class="g2_450" />
<path d="M888.5,553.5l0,-1" class="g2_450" />
<path d="M46.5,626.5l0,-73" class="g2_450" />
<path d="M74.5,626.5l0,-73" class="g2_450" />
<path d="M101.5,626.5l0,-73" class="g2_450" />
<path d="M129.5,626.5l0,-73" class="g2_450" />
<path d="M350.5,626.5l0,-73" class="g2_450" />
<path d="M439.5,626.5l0,-73" class="g2_450" />
<path d="M508.5,626.5l0,-73" class="g2_450" />
<path d="M888.5,626.5l0,-73" class="g2_450" />
<path fill-rule="evenodd" d="M47,651l27,0l0,-25l-27,0l0,25Z" class="g1_450" />
<path fill-rule="evenodd" d="M130,651l220,0l0,-24l-220,0l0,24Z" class="g1_450" />
<path fill-rule="evenodd" d="M138,651l204,0l0,-24l-204,0l0,24Z" class="g1_450" />
<path fill-rule="evenodd" d="M351,651l88,0l0,-24l-88,0l0,24Z" class="g1_450" />
<path fill-rule="evenodd" d="M359,651l73,0l0,-24l-73,0l0,24Z" class="g1_450" />
<path fill-rule="evenodd" d="M441,651l67,0l0,-24l-67,0l0,24Z" class="g1_450" />
<path fill-rule="evenodd" d="M448,651l53,0l0,-24l-53,0l0,24Z" class="g1_450" />
<path fill-rule="evenodd" d="M510,651l377,0l0,-24l-377,0l0,24Z" class="g1_450" />
<path fill-rule="evenodd" d="M517,651l363,0l0,-24l-363,0l0,24Z" class="g1_450" />
<path d="M46.5,627.5l0,-1" class="g2_450" />
<path d="M74.5,627.5l0,-1" class="g2_450" />
<path d="M101.5,627.5l0,-1" class="g2_450" />
<path d="M129.5,627.5l0,-1" class="g2_450" />
<path d="M130.5,627.5l220,0" class="g2_450" />
<path d="M350.5,627.5l0,-1" class="g2_450" />
<path d="M351.5,627.5l88,0" class="g2_450" />
<path d="M439.5,627.5l0,-1" class="g2_450" />
<path d="M441.5,627.5l67,0" class="g2_450" />
<path d="M508.5,627.5l0,-1" class="g2_450" />
<path d="M510.5,627.5l378,0" class="g2_450" />
<path d="M888.5,627.5l0,-1" class="g2_450" />
<path d="M46.5,651.5l0,-24" class="g2_450" />
<path d="M74.5,651.5l0,-24" class="g2_450" />
<path d="M101.5,651.5l0,-24" class="g2_450" />
<path d="M129.5,651.5l0,-24" class="g2_450" />
<path d="M350.5,651.5l0,-24" class="g2_450" />
<path d="M439.5,651.5l0,-24" class="g2_450" />
<path d="M508.5,651.5l0,-24" class="g2_450" />
<path d="M888.5,651.5l0,-24" class="g2_450" />
<path fill-rule="evenodd" d="M47,819l27,0L74,651l-27,0l0,168Z" class="g1_450" />
<path fill-rule="evenodd" d="M130,819l220,0l0,-167l-220,0l0,167Z" class="g1_450" />
<g clip-path="url(#c18_450)">
<path fill-rule="evenodd" d="M138,676l204,0l0,-24l-204,0l0,24Z" class="g1_450" />
</g>
<path fill-rule="evenodd" d="M351,819l88,0l0,-167l-88,0l0,167Z" class="g1_450" />
<g clip-path="url(#c19_450)">
<path fill-rule="evenodd" d="M359,676l73,0l0,-24l-73,0l0,24Z" class="g1_450" />
</g>
<path fill-rule="evenodd" d="M441,819l67,0l0,-167l-67,0l0,167Z" class="g1_450" />
<g clip-path="url(#c20_450)">
<path fill-rule="evenodd" d="M448,676l53,0l0,-24l-53,0l0,24Z" class="g1_450" />
</g>
<path fill-rule="evenodd" d="M510,819l377,0l0,-167l-377,0l0,167Z" class="g1_450" />
<g clip-path="url(#c21_450)">
<path fill-rule="evenodd" d="M517,676l363,0l0,-24l-363,0l0,24Z" class="g1_450" />
</g>
<path fill-rule="evenodd" d="M517,700l363,0l0,-24l-363,0l0,24Z" class="g1_450" />
<path fill-rule="evenodd" d="M517,724l363,0l0,-24l-363,0l0,24Z" class="g1_450" />
<path fill-rule="evenodd" d="M517,748l363,0l0,-24l-363,0l0,24Z" class="g1_450" />
<path fill-rule="evenodd" d="M517,772l363,0l0,-24l-363,0l0,24Z" class="g1_450" />
<path fill-rule="evenodd" d="M517,795l363,0l0,-23l-363,0l0,23Z" class="g1_450" />
<path fill-rule="evenodd" d="M517,819l363,0l0,-24l-363,0l0,24Z" class="g1_450" />
<path d="M46.5,652.5l0,-1" class="g2_450" />
<path d="M74.5,652.5l0,-1" class="g2_450" />
<path d="M101.5,652.5l0,-1" class="g2_450" />
<path d="M129.5,652.5l0,-1" class="g2_450" />
<path d="M130.5,652.5l220,0" class="g2_450" />
<path d="M350.5,652.5l0,-1" class="g2_450" />
<path d="M351.5,652.5l88,0" class="g2_450" />
<path d="M439.5,652.5l0,-1" class="g2_450" />
<path d="M441.5,652.5l67,0" class="g2_450" />
<path d="M508.5,652.5l0,-1" class="g2_450" />
<path d="M510.5,652.5l378,0" class="g2_450" />
<path d="M888.5,652.5l0,-1" class="g2_450" />
<path d="M46.5,819.5l0,-167" class="g2_450" />
<path d="M74.5,819.5l0,-167" class="g2_450" />
<path d="M101.5,819.5l0,-167" class="g2_450" />
<path d="M129.5,819.5l0,-167" class="g2_450" />
<path d="M350.5,819.5l0,-167" class="g2_450" />
<path d="M439.5,819.5l0,-167" class="g2_450" />
<path d="M508.5,819.5l0,-167" class="g2_450" />
<path d="M888.5,819.5l0,-167" class="g2_450" />
<path fill-rule="evenodd" d="M47,1035l27,0L74,819l-27,0l0,216Z" class="g1_450" />
<path fill-rule="evenodd" d="M130,1035l220,0l0,-214l-220,0l0,214Z" class="g1_450" />
<g clip-path="url(#c22_450)">
<path fill-rule="evenodd" d="M138,845l204,0l0,-24l-204,0l0,24Z" class="g1_450" />
</g>
<path fill-rule="evenodd" d="M351,1035l88,0l0,-214l-88,0l0,214Z" class="g1_450" />
<g clip-path="url(#c23_450)">
<path fill-rule="evenodd" d="M359,845l73,0l0,-24l-73,0l0,24Z" class="g1_450" />
</g>
<path fill-rule="evenodd" d="M441,1035l67,0l0,-214l-67,0l0,214Z" class="g1_450" />
<g clip-path="url(#c24_450)">
<path fill-rule="evenodd" d="M448,845l53,0l0,-24l-53,0l0,24Z" class="g1_450" />
</g>
<path fill-rule="evenodd" d="M510,1035l377,0l0,-214l-377,0l0,214Z" class="g1_450" />
<g clip-path="url(#c25_450)">
<path fill-rule="evenodd" d="M517,845l363,0l0,-24l-363,0l0,24Z" class="g1_450" />
</g>
<path fill-rule="evenodd" d="M517,869l363,0l0,-24l-363,0l0,24Z" class="g1_450" />
<path fill-rule="evenodd" d="M517,892l363,0l0,-23l-363,0l0,23Z" class="g1_450" />
<path fill-rule="evenodd" d="M517,916l363,0l0,-24l-363,0l0,24Z" class="g1_450" />
<path fill-rule="evenodd" d="M517,940l363,0l0,-24l-363,0l0,24Z" class="g1_450" />
<path fill-rule="evenodd" d="M517,964l363,0l0,-24l-363,0l0,24Z" class="g1_450" />
<path fill-rule="evenodd" d="M517,988l363,0l0,-24l-363,0l0,24Z" class="g1_450" />
<path fill-rule="evenodd" d="M517,1012l363,0l0,-24l-363,0l0,24Z" class="g1_450" />
<g clip-path="url(#c25_450)">
<path fill-rule="evenodd" d="M517,1035l363,0l0,-23l-363,0l0,23Z" class="g1_450" />
</g>
<path d="M46.5,821.5l0,-2" class="g2_450" />
<path d="M74.5,821.5l0,-2" class="g2_450" />
<path d="M101.5,821.5l0,-2" class="g2_450" />
<path d="M129.5,821.5l0,-2" class="g2_450" />
<path d="M130.5,821.5l220,0" class="g2_450" />
<path d="M350.5,821.5l0,-2" class="g2_450" />
<path d="M351.5,821.5l88,0" class="g2_450" />
<path d="M439.5,821.5l0,-2" class="g2_450" />
<path d="M441.5,821.5l67,0" class="g2_450" />
<path d="M508.5,821.5l0,-2" class="g2_450" />
<path d="M510.5,821.5l378,0" class="g2_450" />
<path d="M888.5,821.5l0,-2" class="g2_450" />
<path d="M46.5,1035.5l0,-214" class="g2_450" />
<path d="M46.5,1037.5l0,-2" class="g2_450" />
<path d="M46.5,1037.5l0,-2" class="g2_450" />
<path d="M47.5,1037.5l27,0" class="g2_450" />
<path d="M74.5,1035.5l0,-214" class="g2_450" />
<path d="M74.5,1037.5l0,-2" class="g2_450" />
<path d="M76.5,1037.5l25,0" class="g2_450" />
<path d="M101.5,1035.5l0,-214" class="g2_450" />
<path d="M101.5,1037.5l0,-2" class="g2_450" />
<path d="M103.5,1037.5l26,0" class="g2_450" />
<path d="M129.5,1035.5l0,-214" class="g2_450" />
<path d="M129.5,1037.5l0,-2" class="g2_450" />
<path d="M130.5,1037.5l220,0" class="g2_450" />
<path d="M350.5,1035.5l0,-214" class="g2_450" />
<path d="M350.5,1037.5l0,-2" class="g2_450" />
<path d="M351.5,1037.5l88,0" class="g2_450" />
<path d="M439.5,1035.5l0,-214" class="g2_450" />
<path d="M439.5,1037.5l0,-2" class="g2_450" />
<path d="M441.5,1037.5l67,0" class="g2_450" />
<path d="M508.5,1035.5l0,-214" class="g2_450" />
<path d="M508.5,1037.5l0,-2" class="g2_450" />
<path d="M510.5,1037.5l378,0" class="g2_450" />
<path d="M888.5,1035.5l0,-214" class="g2_450" />
<path d="M888.5,1037.5l0,-2" class="g2_450" />
<path d="M888.5,1037.5l0,-2" class="g2_450" />
</svg>