<?xml version="1.0" encoding="UTF-8" standalone="no"?>
<!DOCTYPE svg PUBLIC "-//W3C//DTD SVG 1.1//EN"
"http://www.w3.org/Graphics/SVG/1.1/DTD/svg11.dtd">
<svg version="1.1" xmlns="http://www.w3.org/2000/svg" xmlns:xlink="http://www.w3.org/1999/xlink">
<defs>
<clipPath id="c0_300"><path d="M210.5,206.5l0,-95l278,0l0,95Z" /></clipPath>
<clipPath id="c1_300"><path d="M490.5,206.5l0,-95l66,0l0,95Z" /></clipPath>
<clipPath id="c2_300"><path d="M557.5,206.5l0,-95l330,0l0,95Z" /></clipPath>
<clipPath id="c3_300"><path d="M210.5,232.5l0,-24l278,0l0,24Z" /></clipPath>
<clipPath id="c4_300"><path d="M490.5,232.5l0,-24l66,0l0,24Z" /></clipPath>
<clipPath id="c5_300"><path d="M557.5,232.5l0,-24l330,0l0,24Z" /></clipPath>
<clipPath id="c6_300"><path d="M210.5,257.5l0,-24l278,0l0,24Z" /></clipPath>
<clipPath id="c7_300"><path d="M490.5,257.5l0,-24l66,0l0,24Z" /></clipPath>
<clipPath id="c8_300"><path d="M557.5,257.5l0,-24l330,0l0,24Z" /></clipPath>
<clipPath id="c9_300"><path d="M210.5,282.5l0,-23l278,0l0,23Z" /></clipPath>
<clipPath id="c10_300"><path d="M490.5,282.5l0,-23l66,0l0,23Z" /></clipPath>
<clipPath id="c11_300"><path d="M557.5,282.5l0,-23l330,0l0,23Z" /></clipPath>
<clipPath id="c12_300"><path d="M210.5,308.5l0,-24l278,0l0,24Z" /></clipPath>
<clipPath id="c13_300"><path d="M490.5,308.5l0,-24l66,0l0,24Z" /></clipPath>
<clipPath id="c14_300"><path d="M557.5,308.5l0,-24l330,0l0,24Z" /></clipPath>
<clipPath id="c15_300"><path d="M210.5,333.5l0,-24l278,0l0,24Z" /></clipPath>
<clipPath id="c16_300"><path d="M490.5,333.5l0,-24l66,0l0,24Z" /></clipPath>
<clipPath id="c17_300"><path d="M557.5,333.5l0,-24l330,0l0,24Z" /></clipPath>
<clipPath id="c18_300"><path d="M210.5,406.5l0,-71l278,0l0,71Z" /></clipPath>
<clipPath id="c19_300"><path d="M490.5,406.5l0,-71l66,0l0,71Z" /></clipPath>
<clipPath id="c20_300"><path d="M557.5,406.5l0,-71l330,0l0,71Z" /></clipPath>
<clipPath id="c21_300"><path d="M210.5,989.5l0,-505l71,0l0,505Z" /></clipPath>
<clipPath id="c22_300"><path d="M282.5,989.5l0,-505l40,0l0,505Z" /></clipPath>
<clipPath id="c23_300"><path d="M323.5,597.5l0,-28l165,0l0,28Z" /></clipPath>
<clipPath id="c24_300"><path d="M490.5,597.5l0,-28l66,0l0,28Z" /></clipPath>
<clipPath id="c25_300"><path d="M557.5,597.5l0,-28l330,0l0,28Z" /></clipPath>
<clipPath id="c26_300"><path d="M323.5,674.5l0,-27l165,0l0,27Z" /></clipPath>
<clipPath id="c27_300"><path d="M490.5,674.5l0,-27l66,0l0,27Z" /></clipPath>
<clipPath id="c28_300"><path d="M557.5,674.5l0,-27l330,0l0,27Z" /></clipPath>
<clipPath id="c29_300"><path d="M323.5,795.5l0,-119l165,0l0,119Z" /></clipPath>
<clipPath id="c30_300"><path d="M490.5,795.5l0,-119l66,0l0,119Z" /></clipPath>
<clipPath id="c31_300"><path d="M557.5,795.5l0,-119l330,0l0,119Z" /></clipPath>
<clipPath id="c32_300"><path d="M323.5,892.5l0,-95l165,0l0,95Z" /></clipPath>
<clipPath id="c33_300"><path d="M490.5,892.5l0,-95l66,0l0,95Z" /></clipPath>
<clipPath id="c34_300"><path d="M557.5,892.5l0,-95l330,0l0,95Z" /></clipPath>
<clipPath id="c35_300"><path d="M323.5,989.5l0,-96l165,0l0,96Z" /></clipPath>
<clipPath id="c36_300"><path d="M490.5,989.5l0,-96l66,0l0,96Z" /></clipPath>
<clipPath id="c37_300"><path d="M557.5,989.5l0,-96l330,0l0,96Z" /></clipPath>
<style type="text/css"><![CDATA[
.g2_300{
fill: none;
stroke: #7E7E7E;
stroke-width: 1;
stroke-linecap: butt;
stroke-linejoin: miter;
}
.g1_300{
fill: #F1F1F1;
}
]]></style>
</defs>
<path fill-rule="evenodd" d="M47,206l39,0l0,-95l-39,0l0,95Z" class="g1_300" />
<path fill-rule="evenodd" d="M88,206l39,0l0,-95l-39,0l0,95Z" class="g1_300" />
<path fill-rule="evenodd" d="M129,206l39,0l0,-95l-39,0l0,95Z" class="g1_300" />
<path fill-rule="evenodd" d="M169,206l40,0l0,-95l-40,0l0,95Z" class="g1_300" />
<path fill-rule="evenodd" d="M210,206l278,0l0,-95l-278,0l0,95Z" class="g1_300" />
<g clip-path="url(#c0_300)">
<path fill-rule="evenodd" d="M218,135l263,0l0,-24l-263,0l0,24Z" class="g1_300" />
</g>
<path fill-rule="evenodd" d="M490,206l66,0l0,-95l-66,0l0,95Z" class="g1_300" />
<g clip-path="url(#c1_300)">
<path fill-rule="evenodd" d="M497,135l51,0l0,-24l-51,0l0,24Z" class="g1_300" />
</g>
<path fill-rule="evenodd" d="M557,206l330,0l0,-95l-330,0l0,95Z" class="g1_300" />
<g clip-path="url(#c2_300)">
<path fill-rule="evenodd" d="M565,135l315,0l0,-24l-315,0l0,24Z" class="g1_300" />
</g>
<path fill-rule="evenodd" d="M565,159l315,0l0,-24l-315,0l0,24Z" class="g1_300" />
<path fill-rule="evenodd" d="M565,182l315,0l0,-23l-315,0l0,23Z" class="g1_300" />
<path fill-rule="evenodd" d="M565,206l315,0l0,-24l-315,0l0,24Z" class="g1_300" />
<path d="M46.5,111.5l0,-1" class="g2_300" />
<path d="M46.5,111.5l0,-1" class="g2_300" />
<path d="M47.5,111.5l39,0" class="g2_300" />
<path d="M86.5,111.5l0,-1" class="g2_300" />
<path d="M88.5,111.5l39,0" class="g2_300" />
<path d="M127.5,111.5l0,-1" class="g2_300" />
<path d="M129.5,111.5l39,0" class="g2_300" />
<path d="M168.5,111.5l0,-1" class="g2_300" />
<path d="M169.5,111.5l40,0" class="g2_300" />
<path d="M209.5,111.5l0,-1" class="g2_300" />
<path d="M210.5,111.5l278,0" class="g2_300" />
<path d="M488.5,111.5l0,-1" class="g2_300" />
<path d="M490.5,111.5l66,0" class="g2_300" />
<path d="M556.5,111.5l0,-1" class="g2_300" />
<path d="M557.5,111.5l330,0" class="g2_300" />
<path d="M887.5,111.5l0,-1" class="g2_300" />
<path d="M887.5,111.5l0,-1" class="g2_300" />
<path d="M46.5,206.5l0,-95" class="g2_300" />
<path d="M86.5,206.5l0,-95" class="g2_300" />
<path d="M127.5,206.5l0,-95" class="g2_300" />
<path d="M168.5,206.5l0,-95" class="g2_300" />
<path d="M209.5,206.5l0,-95" class="g2_300" />
<path d="M488.5,206.5l0,-95" class="g2_300" />
<path d="M556.5,206.5l0,-95" class="g2_300" />
<path d="M887.5,206.5l0,-95" class="g2_300" />
<path fill-rule="evenodd" d="M47,232l39,0l0,-25l-39,0l0,25Z" class="g1_300" />
<path fill-rule="evenodd" d="M88,232l39,0l0,-25l-39,0l0,25Z" class="g1_300" />
<path fill-rule="evenodd" d="M129,232l39,0l0,-25l-39,0l0,25Z" class="g1_300" />
<path fill-rule="evenodd" d="M169,232l40,0l0,-25l-40,0l0,25Z" class="g1_300" />
<path fill-rule="evenodd" d="M210,232l278,0l0,-24l-278,0l0,24Z" class="g1_300" />
<g clip-path="url(#c3_300)">
<path fill-rule="evenodd" d="M218,232l263,0l0,-24l-263,0l0,24Z" class="g1_300" />
</g>
<path fill-rule="evenodd" d="M490,232l66,0l0,-24l-66,0l0,24Z" class="g1_300" />
<g clip-path="url(#c4_300)">
<path fill-rule="evenodd" d="M497,232l51,0l0,-24l-51,0l0,24Z" class="g1_300" />
</g>
<path fill-rule="evenodd" d="M557,232l330,0l0,-24l-330,0l0,24Z" class="g1_300" />
<g clip-path="url(#c5_300)">
<path fill-rule="evenodd" d="M565,232l315,0l0,-24l-315,0l0,24Z" class="g1_300" />
</g>
<path d="M46.5,208.5l0,-2" class="g2_300" />
<path d="M86.5,208.5l0,-2" class="g2_300" />
<path d="M127.5,208.5l0,-2" class="g2_300" />
<path d="M168.5,208.5l0,-2" class="g2_300" />
<path d="M209.5,208.5l0,-2" class="g2_300" />
<path d="M210.5,208.5l278,0" class="g2_300" />
<path d="M488.5,208.5l0,-2" class="g2_300" />
<path d="M490.5,208.5l66,0" class="g2_300" />
<path d="M556.5,208.5l0,-2" class="g2_300" />
<path d="M557.5,208.5l330,0" class="g2_300" />
<path d="M887.5,208.5l0,-2" class="g2_300" />
<path d="M46.5,232.5l0,-24" class="g2_300" />
<path d="M86.5,232.5l0,-24" class="g2_300" />
<path d="M127.5,232.5l0,-24" class="g2_300" />
<path d="M168.5,232.5l0,-24" class="g2_300" />
<path d="M209.5,232.5l0,-24" class="g2_300" />
<path d="M488.5,232.5l0,-24" class="g2_300" />
<path d="M556.5,232.5l0,-24" class="g2_300" />
<path d="M887.5,232.5l0,-24" class="g2_300" />
<path fill-rule="evenodd" d="M47,257l39,0l0,-25l-39,0l0,25Z" class="g1_300" />
<path fill-rule="evenodd" d="M88,257l39,0l0,-25l-39,0l0,25Z" class="g1_300" />
<path fill-rule="evenodd" d="M129,257l39,0l0,-25l-39,0l0,25Z" class="g1_300" />
<path fill-rule="evenodd" d="M169,257l40,0l0,-25l-40,0l0,25Z" class="g1_300" />
<path fill-rule="evenodd" d="M210,257l278,0l0,-24l-278,0l0,24Z" class="g1_300" />
<g clip-path="url(#c6_300)">
<path fill-rule="evenodd" d="M218,257l263,0l0,-24l-263,0l0,24Z" class="g1_300" />
</g>
<path fill-rule="evenodd" d="M490,257l66,0l0,-24l-66,0l0,24Z" class="g1_300" />
<g clip-path="url(#c7_300)">
<path fill-rule="evenodd" d="M497,257l51,0l0,-24l-51,0l0,24Z" class="g1_300" />
</g>
<path fill-rule="evenodd" d="M557,257l330,0l0,-24l-330,0l0,24Z" class="g1_300" />
<g clip-path="url(#c8_300)">
<path fill-rule="evenodd" d="M565,257l315,0l0,-24l-315,0l0,24Z" class="g1_300" />
</g>
<path d="M46.5,233.5l0,-1" class="g2_300" />
<path d="M86.5,233.5l0,-1" class="g2_300" />
<path d="M127.5,233.5l0,-1" class="g2_300" />
<path d="M168.5,233.5l0,-1" class="g2_300" />
<path d="M209.5,233.5l0,-1" class="g2_300" />
<path d="M210.5,233.5l278,0" class="g2_300" />
<path d="M488.5,233.5l0,-1" class="g2_300" />
<path d="M490.5,233.5l66,0" class="g2_300" />
<path d="M556.5,233.5l0,-1" class="g2_300" />
<path d="M557.5,233.5l330,0" class="g2_300" />
<path d="M887.5,233.5l0,-1" class="g2_300" />
<path d="M46.5,257.5l0,-24" class="g2_300" />
<path d="M86.5,257.5l0,-24" class="g2_300" />
<path d="M127.5,257.5l0,-24" class="g2_300" />
<path d="M168.5,257.5l0,-24" class="g2_300" />
<path d="M209.5,257.5l0,-24" class="g2_300" />
<path d="M488.5,257.5l0,-24" class="g2_300" />
<path d="M556.5,257.5l0,-24" class="g2_300" />
<path d="M887.5,257.5l0,-24" class="g2_300" />
<path fill-rule="evenodd" d="M47,282l39,0l0,-25l-39,0l0,25Z" class="g1_300" />
<path fill-rule="evenodd" d="M88,282l39,0l0,-25l-39,0l0,25Z" class="g1_300" />
<path fill-rule="evenodd" d="M129,282l39,0l0,-25l-39,0l0,25Z" class="g1_300" />
<path fill-rule="evenodd" d="M169,282l40,0l0,-25l-40,0l0,25Z" class="g1_300" />
<path fill-rule="evenodd" d="M210,282l278,0l0,-23l-278,0l0,23Z" class="g1_300" />
<g clip-path="url(#c9_300)">
<path fill-rule="evenodd" d="M218,282l263,0l0,-23l-263,0l0,23Z" class="g1_300" />
</g>
<path fill-rule="evenodd" d="M490,282l66,0l0,-23l-66,0l0,23Z" class="g1_300" />
<g clip-path="url(#c10_300)">
<path fill-rule="evenodd" d="M497,282l51,0l0,-23l-51,0l0,23Z" class="g1_300" />
</g>
<path fill-rule="evenodd" d="M557,282l330,0l0,-23l-330,0l0,23Z" class="g1_300" />
<g clip-path="url(#c11_300)">
<path fill-rule="evenodd" d="M565,282l315,0l0,-23l-315,0l0,23Z" class="g1_300" />
</g>
<path d="M46.5,259.5l0,-2" class="g2_300" />
<path d="M86.5,259.5l0,-2" class="g2_300" />
<path d="M127.5,259.5l0,-2" class="g2_300" />
<path d="M168.5,259.5l0,-2" class="g2_300" />
<path d="M209.5,259.5l0,-2" class="g2_300" />
<path d="M210.5,259.5l278,0" class="g2_300" />
<path d="M488.5,259.5l0,-2" class="g2_300" />
<path d="M490.5,259.5l66,0" class="g2_300" />
<path d="M556.5,259.5l0,-2" class="g2_300" />
<path d="M557.5,259.5l330,0" class="g2_300" />
<path d="M887.5,259.5l0,-2" class="g2_300" />
<path d="M46.5,282.5l0,-23" class="g2_300" />
<path d="M86.5,282.5l0,-23" class="g2_300" />
<path d="M127.5,282.5l0,-23" class="g2_300" />
<path d="M168.5,282.5l0,-23" class="g2_300" />
<path d="M209.5,282.5l0,-23" class="g2_300" />
<path d="M488.5,282.5l0,-23" class="g2_300" />
<path d="M556.5,282.5l0,-23" class="g2_300" />
<path d="M887.5,282.5l0,-23" class="g2_300" />
<path fill-rule="evenodd" d="M47,308l39,0l0,-25l-39,0l0,25Z" class="g1_300" />
<path fill-rule="evenodd" d="M88,308l39,0l0,-25l-39,0l0,25Z" class="g1_300" />
<path fill-rule="evenodd" d="M129,308l39,0l0,-25l-39,0l0,25Z" class="g1_300" />
<path fill-rule="evenodd" d="M169,308l40,0l0,-25l-40,0l0,25Z" class="g1_300" />
<path fill-rule="evenodd" d="M210,308l278,0l0,-24l-278,0l0,24Z" class="g1_300" />
<g clip-path="url(#c12_300)">
<path fill-rule="evenodd" d="M218,308l263,0l0,-24l-263,0l0,24Z" class="g1_300" />
</g>
<path fill-rule="evenodd" d="M490,308l66,0l0,-24l-66,0l0,24Z" class="g1_300" />
<g clip-path="url(#c13_300)">
<path fill-rule="evenodd" d="M497,308l51,0l0,-24l-51,0l0,24Z" class="g1_300" />
</g>
<path fill-rule="evenodd" d="M557,308l330,0l0,-24l-330,0l0,24Z" class="g1_300" />
<g clip-path="url(#c14_300)">
<path fill-rule="evenodd" d="M565,308l315,0l0,-24l-315,0l0,24Z" class="g1_300" />
</g>
<path d="M46.5,284.5l0,-2" class="g2_300" />
<path d="M86.5,284.5l0,-2" class="g2_300" />
<path d="M127.5,284.5l0,-2" class="g2_300" />
<path d="M168.5,284.5l0,-2" class="g2_300" />
<path d="M209.5,284.5l0,-2" class="g2_300" />
<path d="M210.5,284.5l278,0" class="g2_300" />
<path d="M488.5,284.5l0,-2" class="g2_300" />
<path d="M490.5,284.5l66,0" class="g2_300" />
<path d="M556.5,284.5l0,-2" class="g2_300" />
<path d="M557.5,284.5l330,0" class="g2_300" />
<path d="M887.5,284.5l0,-2" class="g2_300" />
<path d="M46.5,308.5l0,-24" class="g2_300" />
<path d="M86.5,308.5l0,-24" class="g2_300" />
<path d="M127.5,308.5l0,-24" class="g2_300" />
<path d="M168.5,308.5l0,-24" class="g2_300" />
<path d="M209.5,308.5l0,-24" class="g2_300" />
<path d="M488.5,308.5l0,-24" class="g2_300" />
<path d="M556.5,308.5l0,-24" class="g2_300" />
<path d="M887.5,308.5l0,-24" class="g2_300" />
<path fill-rule="evenodd" d="M47,333l39,0l0,-25l-39,0l0,25Z" class="g1_300" />
<path fill-rule="evenodd" d="M88,333l39,0l0,-25l-39,0l0,25Z" class="g1_300" />
<path fill-rule="evenodd" d="M129,333l39,0l0,-25l-39,0l0,25Z" class="g1_300" />
<path fill-rule="evenodd" d="M169,333l40,0l0,-25l-40,0l0,25Z" class="g1_300" />
<path fill-rule="evenodd" d="M210,333l278,0l0,-24l-278,0l0,24Z" class="g1_300" />
<g clip-path="url(#c15_300)">
<path fill-rule="evenodd" d="M218,333l263,0l0,-24l-263,0l0,24Z" class="g1_300" />
</g>
<path fill-rule="evenodd" d="M490,333l66,0l0,-24l-66,0l0,24Z" class="g1_300" />
<g clip-path="url(#c16_300)">
<path fill-rule="evenodd" d="M497,333l51,0l0,-24l-51,0l0,24Z" class="g1_300" />
</g>
<path fill-rule="evenodd" d="M557,333l330,0l0,-24l-330,0l0,24Z" class="g1_300" />
<g clip-path="url(#c17_300)">
<path fill-rule="evenodd" d="M565,333l315,0l0,-24l-315,0l0,24Z" class="g1_300" />
</g>
<path d="M46.5,309.5l0,-1" class="g2_300" />
<path d="M86.5,309.5l0,-1" class="g2_300" />
<path d="M127.5,309.5l0,-1" class="g2_300" />
<path d="M168.5,309.5l0,-1" class="g2_300" />
<path d="M209.5,309.5l0,-1" class="g2_300" />
<path d="M210.5,309.5l278,0" class="g2_300" />
<path d="M488.5,309.5l0,-1" class="g2_300" />
<path d="M490.5,309.5l66,0" class="g2_300" />
<path d="M556.5,309.5l0,-1" class="g2_300" />
<path d="M557.5,309.5l330,0" class="g2_300" />
<path d="M887.5,309.5l0,-1" class="g2_300" />
<path d="M46.5,333.5l0,-24" class="g2_300" />
<path d="M86.5,333.5l0,-24" class="g2_300" />
<path d="M127.5,333.5l0,-24" class="g2_300" />
<path d="M168.5,333.5l0,-24" class="g2_300" />
<path d="M209.5,333.5l0,-24" class="g2_300" />
<path d="M488.5,333.5l0,-24" class="g2_300" />
<path d="M556.5,333.5l0,-24" class="g2_300" />
<path d="M887.5,333.5l0,-24" class="g2_300" />
<path fill-rule="evenodd" d="M47,406l39,0l0,-73l-39,0l0,73Z" class="g1_300" />
<path fill-rule="evenodd" d="M88,406l39,0l0,-73l-39,0l0,73Z" class="g1_300" />
<path fill-rule="evenodd" d="M129,406l39,0l0,-73l-39,0l0,73Z" class="g1_300" />
<path fill-rule="evenodd" d="M169,406l40,0l0,-73l-40,0l0,73Z" class="g1_300" />
<path fill-rule="evenodd" d="M210,406l278,0l0,-71l-278,0l0,71Z" class="g1_300" />
<g clip-path="url(#c18_300)">
<path fill-rule="evenodd" d="M218,358l263,0l0,-23l-263,0l0,23Z" class="g1_300" />
</g>
<path fill-rule="evenodd" d="M490,406l66,0l0,-71l-66,0l0,71Z" class="g1_300" />
<g clip-path="url(#c19_300)">
<path fill-rule="evenodd" d="M497,358l51,0l0,-23l-51,0l0,23Z" class="g1_300" />
</g>
<path fill-rule="evenodd" d="M557,406l330,0l0,-71l-330,0l0,71Z" class="g1_300" />
<g clip-path="url(#c20_300)">
<path fill-rule="evenodd" d="M565,358l315,0l0,-23l-315,0l0,23Z" class="g1_300" />
</g>
<path fill-rule="evenodd" d="M565,382l315,0l0,-24l-315,0l0,24Z" class="g1_300" />
<path fill-rule="evenodd" d="M565,406l315,0l0,-24l-315,0l0,24Z" class="g1_300" />
<path d="M46.5,335.5l0,-2" class="g2_300" />
<path d="M86.5,335.5l0,-2" class="g2_300" />
<path d="M127.5,335.5l0,-2" class="g2_300" />
<path d="M168.5,335.5l0,-2" class="g2_300" />
<path d="M209.5,335.5l0,-2" class="g2_300" />
<path d="M210.5,335.5l278,0" class="g2_300" />
<path d="M488.5,335.5l0,-2" class="g2_300" />
<path d="M490.5,335.5l66,0" class="g2_300" />
<path d="M556.5,335.5l0,-2" class="g2_300" />
<path d="M557.5,335.5l330,0" class="g2_300" />
<path d="M887.5,335.5l0,-2" class="g2_300" />
<path d="M46.5,406.5l0,-71" class="g2_300" />
<path d="M86.5,406.5l0,-71" class="g2_300" />
<path d="M127.5,406.5l0,-71" class="g2_300" />
<path d="M168.5,406.5l0,-71" class="g2_300" />
<path d="M209.5,406.5l0,-71" class="g2_300" />
<path d="M488.5,406.5l0,-71" class="g2_300" />
<path d="M556.5,406.5l0,-71" class="g2_300" />
<path d="M887.5,406.5l0,-71" class="g2_300" />
<path fill-rule="evenodd" d="M47,432l39,0l0,-26l-39,0l0,26Z" class="g1_300" />
<path fill-rule="evenodd" d="M88,432l39,0l0,-26l-39,0l0,26Z" class="g1_300" />
<path fill-rule="evenodd" d="M129,432l39,0l0,-26l-39,0l0,26Z" class="g1_300" />
<path fill-rule="evenodd" d="M169,432l40,0l0,-26l-40,0l0,26Z" class="g1_300" />
<path fill-rule="evenodd" d="M210,432l278,0l0,-24l-278,0l0,24Z" class="g1_300" />
<path fill-rule="evenodd" d="M218,432l263,0l0,-24l-263,0l0,24Z" class="g1_300" />
<path fill-rule="evenodd" d="M490,432l66,0l0,-24l-66,0l0,24Z" class="g1_300" />
<path fill-rule="evenodd" d="M497,432l51,0l0,-24l-51,0l0,24Z" class="g1_300" />
<path fill-rule="evenodd" d="M557,432l330,0l0,-24l-330,0l0,24Z" class="g1_300" />
<path fill-rule="evenodd" d="M565,432l315,0l0,-24l-315,0l0,24Z" class="g1_300" />
<path d="M46.5,408.5l0,-2" class="g2_300" />
<path d="M86.5,408.5l0,-2" class="g2_300" />
<path d="M127.5,408.5l0,-2" class="g2_300" />
<path d="M168.5,408.5l0,-2" class="g2_300" />
<path d="M209.5,408.5l0,-2" class="g2_300" />
<path d="M210.5,408.5l278,0" class="g2_300" />
<path d="M488.5,408.5l0,-2" class="g2_300" />
<path d="M490.5,408.5l66,0" class="g2_300" />
<path d="M556.5,408.5l0,-2" class="g2_300" />
<path d="M557.5,408.5l330,0" class="g2_300" />
<path d="M887.5,408.5l0,-2" class="g2_300" />
<path d="M46.5,432.5l0,-24" class="g2_300" />
<path d="M86.5,432.5l0,-24" class="g2_300" />
<path d="M127.5,432.5l0,-24" class="g2_300" />
<path d="M168.5,432.5l0,-24" class="g2_300" />
<path d="M209.5,432.5l0,-24" class="g2_300" />
<path d="M488.5,432.5l0,-24" class="g2_300" />
<path d="M556.5,432.5l0,-24" class="g2_300" />
<path d="M887.5,432.5l0,-24" class="g2_300" />
<path fill-rule="evenodd" d="M47,457l39,0l0,-25l-39,0l0,25Z" class="g1_300" />
<path fill-rule="evenodd" d="M88,457l39,0l0,-25l-39,0l0,25Z" class="g1_300" />
<path fill-rule="evenodd" d="M129,457l39,0l0,-25l-39,0l0,25Z" class="g1_300" />
<path fill-rule="evenodd" d="M169,457l40,0l0,-25l-40,0l0,25Z" class="g1_300" />
<path fill-rule="evenodd" d="M210,457l278,0l0,-24l-278,0l0,24Z" class="g1_300" />
<path fill-rule="evenodd" d="M218,457l263,0l0,-24l-263,0l0,24Z" class="g1_300" />
<path fill-rule="evenodd" d="M490,457l66,0l0,-24l-66,0l0,24Z" class="g1_300" />
<path fill-rule="evenodd" d="M497,457l51,0l0,-24l-51,0l0,24Z" class="g1_300" />
<path fill-rule="evenodd" d="M557,457l330,0l0,-24l-330,0l0,24Z" class="g1_300" />
<path fill-rule="evenodd" d="M565,457l315,0l0,-24l-315,0l0,24Z" class="g1_300" />
<path d="M46.5,433.5l0,-1" class="g2_300" />
<path d="M86.5,433.5l0,-1" class="g2_300" />
<path d="M127.5,433.5l0,-1" class="g2_300" />
<path d="M168.5,433.5l0,-1" class="g2_300" />
<path d="M209.5,433.5l0,-1" class="g2_300" />
<path d="M210.5,433.5l278,0" class="g2_300" />
<path d="M488.5,433.5l0,-1" class="g2_300" />
<path d="M490.5,433.5l66,0" class="g2_300" />
<path d="M556.5,433.5l0,-1" class="g2_300" />
<path d="M557.5,433.5l330,0" class="g2_300" />
<path d="M887.5,433.5l0,-1" class="g2_300" />
<path d="M46.5,457.5l0,-24" class="g2_300" />
<path d="M86.5,457.5l0,-24" class="g2_300" />
<path d="M127.5,457.5l0,-24" class="g2_300" />
<path d="M168.5,457.5l0,-24" class="g2_300" />
<path d="M209.5,457.5l0,-24" class="g2_300" />
<path d="M488.5,457.5l0,-24" class="g2_300" />
<path d="M556.5,457.5l0,-24" class="g2_300" />
<path d="M887.5,457.5l0,-24" class="g2_300" />
<path fill-rule="evenodd" d="M47,482l39,0l0,-25l-39,0l0,25Z" class="g1_300" />
<path fill-rule="evenodd" d="M88,482l39,0l0,-25l-39,0l0,25Z" class="g1_300" />
<path fill-rule="evenodd" d="M129,482l39,0l0,-25l-39,0l0,25Z" class="g1_300" />
<path fill-rule="evenodd" d="M169,482l40,0l0,-25l-40,0l0,25Z" class="g1_300" />
<path fill-rule="evenodd" d="M210,482l278,0l0,-24l-278,0l0,24Z" class="g1_300" />
<path fill-rule="evenodd" d="M218,482l263,0l0,-24l-263,0l0,24Z" class="g1_300" />
<path fill-rule="evenodd" d="M490,482l66,0l0,-24l-66,0l0,24Z" class="g1_300" />
<path fill-rule="evenodd" d="M497,482l51,0l0,-24l-51,0l0,24Z" class="g1_300" />
<path fill-rule="evenodd" d="M557,482l330,0l0,-24l-330,0l0,24Z" class="g1_300" />
<path fill-rule="evenodd" d="M565,482l315,0l0,-24l-315,0l0,24Z" class="g1_300" />
<path d="M46.5,458.5l0,-1" class="g2_300" />
<path d="M86.5,458.5l0,-1" class="g2_300" />
<path d="M127.5,458.5l0,-1" class="g2_300" />
<path d="M168.5,458.5l0,-1" class="g2_300" />
<path d="M209.5,458.5l0,-1" class="g2_300" />
<path d="M210.5,458.5l278,0" class="g2_300" />
<path d="M488.5,458.5l0,-1" class="g2_300" />
<path d="M490.5,458.5l66,0" class="g2_300" />
<path d="M556.5,458.5l0,-1" class="g2_300" />
<path d="M557.5,458.5l330,0" class="g2_300" />
<path d="M887.5,458.5l0,-1" class="g2_300" />
<path d="M46.5,482.5l0,-24" class="g2_300" />
<path d="M86.5,482.5l0,-24" class="g2_300" />
<path d="M127.5,482.5l0,-24" class="g2_300" />
<path d="M168.5,482.5l0,-24" class="g2_300" />
<path d="M209.5,482.5l0,-24" class="g2_300" />
<path d="M488.5,482.5l0,-24" class="g2_300" />
<path d="M556.5,482.5l0,-24" class="g2_300" />
<path d="M887.5,482.5l0,-24" class="g2_300" />
<path fill-rule="evenodd" d="M47,511l39,0l0,-29l-39,0l0,29Z" class="g1_300" />
<path fill-rule="evenodd" d="M88,511l39,0l0,-29l-39,0l0,29Z" class="g1_300" />
<path fill-rule="evenodd" d="M129,511l39,0l0,-29l-39,0l0,29Z" class="g1_300" />
<path fill-rule="evenodd" d="M169,511l40,0l0,-29l-40,0l0,29Z" class="g1_300" />
<path fill-rule="evenodd" d="M210,989l71,0l0,-505l-71,0l0,505Z" class="g1_300" />
<g clip-path="url(#c21_300)">
<path fill-rule="evenodd" d="M218,989l24,0l0,-505l-24,0l0,505Z" class="g1_300" />
</g>
<path fill-rule="evenodd" d="M282,989l40,0l0,-505l-40,0l0,505Z" class="g1_300" />
<g clip-path="url(#c22_300)">
<path fill-rule="evenodd" d="M290,989l24,0l0,-505l-24,0l0,505Z" class="g1_300" />
</g>
<path fill-rule="evenodd" d="M323,511l165,0l0,-27l-165,0l0,27Z" class="g1_300" />
<path fill-rule="evenodd" d="M331,508l150,0l0,-24l-150,0l0,24Z" class="g1_300" />
<path fill-rule="evenodd" d="M490,511l66,0l0,-27l-66,0l0,27Z" class="g1_300" />
<path fill-rule="evenodd" d="M497,508l51,0l0,-24l-51,0l0,24Z" class="g1_300" />
<path fill-rule="evenodd" d="M557,511l330,0l0,-27l-330,0l0,27Z" class="g1_300" />
<path fill-rule="evenodd" d="M565,508l315,0l0,-24l-315,0l0,24Z" class="g1_300" />
<path d="M46.5,484.5l0,-2" class="g2_300" />
<path d="M86.5,484.5l0,-2" class="g2_300" />
<path d="M127.5,484.5l0,-2" class="g2_300" />
<path d="M168.5,484.5l0,-2" class="g2_300" />
<path d="M209.5,484.5l0,-2" class="g2_300" />
<path d="M210.5,484.5l71,0" class="g2_300" />
<path d="M281.5,484.5l0,-2" class="g2_300" />
<path d="M282.5,484.5l40,0" class="g2_300" />
<path d="M322.5,484.5l0,-2" class="g2_300" />
<path d="M323.5,484.5l165,0" class="g2_300" />
<path d="M488.5,484.5l0,-2" class="g2_300" />
<path d="M490.5,484.5l66,0" class="g2_300" />
<path d="M556.5,484.5l0,-2" class="g2_300" />
<path d="M557.5,484.5l330,0" class="g2_300" />
<path d="M887.5,484.5l0,-2" class="g2_300" />
<path d="M46.5,511.5l0,-27" class="g2_300" />
<path d="M86.5,511.5l0,-27" class="g2_300" />
<path d="M127.5,511.5l0,-27" class="g2_300" />
<path d="M168.5,511.5l0,-27" class="g2_300" />
<path d="M209.5,511.5l0,-27" class="g2_300" />
<path d="M281.5,511.5l0,-27" class="g2_300" />
<path d="M322.5,511.5l0,-27" class="g2_300" />
<path d="M488.5,511.5l0,-27" class="g2_300" />
<path d="M556.5,511.5l0,-27" class="g2_300" />
<path d="M887.5,511.5l0,-27" class="g2_300" />
<path fill-rule="evenodd" d="M47,539l39,0l0,-28l-39,0l0,28Z" class="g1_300" />
<path fill-rule="evenodd" d="M88,539l39,0l0,-28l-39,0l0,28Z" class="g1_300" />
<path fill-rule="evenodd" d="M129,539l39,0l0,-28l-39,0l0,28Z" class="g1_300" />
<path fill-rule="evenodd" d="M169,539l40,0l0,-28l-40,0l0,28Z" class="g1_300" />
<path fill-rule="evenodd" d="M323,539l165,0l0,-26l-165,0l0,26Z" class="g1_300" />
<path fill-rule="evenodd" d="M331,536l150,0l0,-23l-150,0l0,23Z" class="g1_300" />
<path fill-rule="evenodd" d="M490,539l66,0l0,-26l-66,0l0,26Z" class="g1_300" />
<path fill-rule="evenodd" d="M497,536l51,0l0,-23l-51,0l0,23Z" class="g1_300" />
<path fill-rule="evenodd" d="M557,539l330,0l0,-26l-330,0l0,26Z" class="g1_300" />
<path fill-rule="evenodd" d="M565,536l315,0l0,-23l-315,0l0,23Z" class="g1_300" />
<path d="M46.5,513.5l0,-2" class="g2_300" />
<path d="M86.5,513.5l0,-2" class="g2_300" />
<path d="M127.5,513.5l0,-2" class="g2_300" />
<path d="M168.5,513.5l0,-2" class="g2_300" />
<path d="M209.5,513.5l0,-2" class="g2_300" />
<path d="M281.5,513.5l0,-2" class="g2_300" />
<path d="M322.5,513.5l0,-2" class="g2_300" />
<path d="M323.5,513.5l165,0" class="g2_300" />
<path d="M488.5,513.5l0,-2" class="g2_300" />
<path d="M490.5,513.5l66,0" class="g2_300" />
<path d="M556.5,513.5l0,-2" class="g2_300" />
<path d="M557.5,513.5l330,0" class="g2_300" />
<path d="M887.5,513.5l0,-2" class="g2_300" />
<path d="M46.5,539.5l0,-26" class="g2_300" />
<path d="M86.5,539.5l0,-26" class="g2_300" />
<path d="M127.5,539.5l0,-26" class="g2_300" />
<path d="M168.5,539.5l0,-26" class="g2_300" />
<path d="M209.5,539.5l0,-26" class="g2_300" />
<path d="M281.5,539.5l0,-26" class="g2_300" />
<path d="M322.5,539.5l0,-26" class="g2_300" />
<path d="M488.5,539.5l0,-26" class="g2_300" />
<path d="M556.5,539.5l0,-26" class="g2_300" />
<path d="M887.5,539.5l0,-26" class="g2_300" />
<path fill-rule="evenodd" d="M47,568l39,0l0,-29l-39,0l0,29Z" class="g1_300" />
<path fill-rule="evenodd" d="M88,568l39,0l0,-29l-39,0l0,29Z" class="g1_300" />
<path fill-rule="evenodd" d="M129,568l39,0l0,-29l-39,0l0,29Z" class="g1_300" />
<path fill-rule="evenodd" d="M169,568l40,0l0,-29l-40,0l0,29Z" class="g1_300" />
<path fill-rule="evenodd" d="M323,568l165,0l0,-27l-165,0l0,27Z" class="g1_300" />
<path fill-rule="evenodd" d="M331,565l150,0l0,-24l-150,0l0,24Z" class="g1_300" />
<path fill-rule="evenodd" d="M490,568l66,0l0,-27l-66,0l0,27Z" class="g1_300" />
<path fill-rule="evenodd" d="M497,565l51,0l0,-24l-51,0l0,24Z" class="g1_300" />
<path fill-rule="evenodd" d="M557,568l330,0l0,-27l-330,0l0,27Z" class="g1_300" />
<path fill-rule="evenodd" d="M565,565l315,0l0,-24l-315,0l0,24Z" class="g1_300" />
<path d="M46.5,541.5l0,-2" class="g2_300" />
<path d="M86.5,541.5l0,-2" class="g2_300" />
<path d="M127.5,541.5l0,-2" class="g2_300" />
<path d="M168.5,541.5l0,-2" class="g2_300" />
<path d="M209.5,541.5l0,-2" class="g2_300" />
<path d="M281.5,541.5l0,-2" class="g2_300" />
<path d="M322.5,541.5l0,-2" class="g2_300" />
<path d="M323.5,541.5l165,0" class="g2_300" />
<path d="M488.5,541.5l0,-2" class="g2_300" />
<path d="M490.5,541.5l66,0" class="g2_300" />
<path d="M556.5,541.5l0,-2" class="g2_300" />
<path d="M557.5,541.5l330,0" class="g2_300" />
<path d="M887.5,541.5l0,-2" class="g2_300" />
<path d="M46.5,568.5l0,-27" class="g2_300" />
<path d="M86.5,568.5l0,-27" class="g2_300" />
<path d="M127.5,568.5l0,-27" class="g2_300" />
<path d="M168.5,568.5l0,-27" class="g2_300" />
<path d="M209.5,568.5l0,-27" class="g2_300" />
<path d="M281.5,568.5l0,-27" class="g2_300" />
<path d="M322.5,568.5l0,-27" class="g2_300" />
<path d="M488.5,568.5l0,-27" class="g2_300" />
<path d="M556.5,568.5l0,-27" class="g2_300" />
<path d="M887.5,568.5l0,-27" class="g2_300" />
<path fill-rule="evenodd" d="M47,597l39,0l0,-29l-39,0l0,29Z" class="g1_300" />
<path fill-rule="evenodd" d="M88,597l39,0l0,-29l-39,0l0,29Z" class="g1_300" />
<path fill-rule="evenodd" d="M129,597l39,0l0,-29l-39,0l0,29Z" class="g1_300" />
<path fill-rule="evenodd" d="M169,597l40,0l0,-29l-40,0l0,29Z" class="g1_300" />
<path fill-rule="evenodd" d="M323,597l165,0l0,-28l-165,0l0,28Z" class="g1_300" />
<g clip-path="url(#c23_300)">
<path fill-rule="evenodd" d="M331,593l150,0l0,-24l-150,0l0,24Z" class="g1_300" />
</g>
<path fill-rule="evenodd" d="M490,597l66,0l0,-28l-66,0l0,28Z" class="g1_300" />
<g clip-path="url(#c24_300)">
<path fill-rule="evenodd" d="M497,593l51,0l0,-24l-51,0l0,24Z" class="g1_300" />
</g>
<path fill-rule="evenodd" d="M557,597l330,0l0,-28l-330,0l0,28Z" class="g1_300" />
<g clip-path="url(#c25_300)">
<path fill-rule="evenodd" d="M565,593l315,0l0,-24l-315,0l0,24Z" class="g1_300" />
</g>
<path d="M46.5,569.5l0,-1" class="g2_300" />
<path d="M86.5,569.5l0,-1" class="g2_300" />
<path d="M127.5,569.5l0,-1" class="g2_300" />
<path d="M168.5,569.5l0,-1" class="g2_300" />
<path d="M209.5,569.5l0,-1" class="g2_300" />
<path d="M281.5,569.5l0,-1" class="g2_300" />
<path d="M322.5,569.5l0,-1" class="g2_300" />
<path d="M323.5,569.5l165,0" class="g2_300" />
<path d="M488.5,569.5l0,-1" class="g2_300" />
<path d="M490.5,569.5l66,0" class="g2_300" />
<path d="M556.5,569.5l0,-1" class="g2_300" />
<path d="M557.5,569.5l330,0" class="g2_300" />
<path d="M887.5,569.5l0,-1" class="g2_300" />
<path d="M46.5,597.5l0,-28" class="g2_300" />
<path d="M86.5,597.5l0,-28" class="g2_300" />
<path d="M127.5,597.5l0,-28" class="g2_300" />
<path d="M168.5,597.5l0,-28" class="g2_300" />
<path d="M209.5,597.5l0,-28" class="g2_300" />
<path d="M281.5,597.5l0,-28" class="g2_300" />
<path d="M322.5,597.5l0,-28" class="g2_300" />
<path d="M488.5,597.5l0,-28" class="g2_300" />
<path d="M556.5,597.5l0,-28" class="g2_300" />
<path d="M887.5,597.5l0,-28" class="g2_300" />
<path fill-rule="evenodd" d="M47,646l39,0l0,-49l-39,0l0,49Z" class="g1_300" />
<path fill-rule="evenodd" d="M88,646l39,0l0,-49l-39,0l0,49Z" class="g1_300" />
<path fill-rule="evenodd" d="M129,646l39,0l0,-49l-39,0l0,49Z" class="g1_300" />
<path fill-rule="evenodd" d="M169,646l40,0l0,-49l-40,0l0,49Z" class="g1_300" />
<path fill-rule="evenodd" d="M323,646l165,0l0,-48l-165,0l0,48Z" class="g1_300" />
<path fill-rule="evenodd" d="M331,622l150,0l0,-24l-150,0l0,24Z" class="g1_300" />
<path fill-rule="evenodd" d="M490,646l66,0l0,-48l-66,0l0,48Z" class="g1_300" />
<path fill-rule="evenodd" d="M497,622l51,0l0,-24l-51,0l0,24Z" class="g1_300" />
<path fill-rule="evenodd" d="M557,646l330,0l0,-48l-330,0l0,48Z" class="g1_300" />
<path fill-rule="evenodd" d="M565,622l315,0l0,-24l-315,0l0,24Z" class="g1_300" />
<path fill-rule="evenodd" d="M565,646l315,0l0,-24l-315,0l0,24Z" class="g1_300" />
<path d="M46.5,598.5l0,-1" class="g2_300" />
<path d="M86.5,598.5l0,-1" class="g2_300" />
<path d="M127.5,598.5l0,-1" class="g2_300" />
<path d="M168.5,598.5l0,-1" class="g2_300" />
<path d="M209.5,598.5l0,-1" class="g2_300" />
<path d="M281.5,598.5l0,-1" class="g2_300" />
<path d="M322.5,598.5l0,-1" class="g2_300" />
<path d="M323.5,598.5l165,0" class="g2_300" />
<path d="M488.5,598.5l0,-1" class="g2_300" />
<path d="M490.5,598.5l66,0" class="g2_300" />
<path d="M556.5,598.5l0,-1" class="g2_300" />
<path d="M557.5,598.5l330,0" class="g2_300" />
<path d="M887.5,598.5l0,-1" class="g2_300" />
<path d="M46.5,646.5l0,-48" class="g2_300" />
<path d="M86.5,646.5l0,-48" class="g2_300" />
<path d="M127.5,646.5l0,-48" class="g2_300" />
<path d="M168.5,646.5l0,-48" class="g2_300" />
<path d="M209.5,646.5l0,-48" class="g2_300" />
<path d="M281.5,646.5l0,-48" class="g2_300" />
<path d="M322.5,646.5l0,-48" class="g2_300" />
<path d="M488.5,646.5l0,-48" class="g2_300" />
<path d="M556.5,646.5l0,-48" class="g2_300" />
<path d="M887.5,646.5l0,-48" class="g2_300" />
<path fill-rule="evenodd" d="M47,674l39,0l0,-28l-39,0l0,28Z" class="g1_300" />
<path fill-rule="evenodd" d="M88,674l39,0l0,-28l-39,0l0,28Z" class="g1_300" />
<path fill-rule="evenodd" d="M129,674l39,0l0,-28l-39,0l0,28Z" class="g1_300" />
<path fill-rule="evenodd" d="M169,674l40,0l0,-28l-40,0l0,28Z" class="g1_300" />
<path fill-rule="evenodd" d="M323,674l165,0l0,-27l-165,0l0,27Z" class="g1_300" />
<g clip-path="url(#c26_300)">
<path fill-rule="evenodd" d="M331,671l150,0l0,-24l-150,0l0,24Z" class="g1_300" />
</g>
<path fill-rule="evenodd" d="M490,674l66,0l0,-27l-66,0l0,27Z" class="g1_300" />
<g clip-path="url(#c27_300)">
<path fill-rule="evenodd" d="M497,671l51,0l0,-24l-51,0l0,24Z" class="g1_300" />
</g>
<path fill-rule="evenodd" d="M557,674l330,0l0,-27l-330,0l0,27Z" class="g1_300" />
<g clip-path="url(#c28_300)">
<path fill-rule="evenodd" d="M565,671l315,0l0,-24l-315,0l0,24Z" class="g1_300" />
</g>
<path d="M46.5,647.5l0,-1" class="g2_300" />
<path d="M86.5,647.5l0,-1" class="g2_300" />
<path d="M127.5,647.5l0,-1" class="g2_300" />
<path d="M168.5,647.5l0,-1" class="g2_300" />
<path d="M209.5,647.5l0,-1" class="g2_300" />
<path d="M281.5,647.5l0,-1" class="g2_300" />
<path d="M322.5,647.5l0,-1" class="g2_300" />
<path d="M323.5,647.5l165,0" class="g2_300" />
<path d="M488.5,647.5l0,-1" class="g2_300" />
<path d="M490.5,647.5l66,0" class="g2_300" />
<path d="M556.5,647.5l0,-1" class="g2_300" />
<path d="M557.5,647.5l330,0" class="g2_300" />
<path d="M887.5,647.5l0,-1" class="g2_300" />
<path d="M46.5,674.5l0,-27" class="g2_300" />
<path d="M86.5,674.5l0,-27" class="g2_300" />
<path d="M127.5,674.5l0,-27" class="g2_300" />
<path d="M168.5,674.5l0,-27" class="g2_300" />
<path d="M209.5,674.5l0,-27" class="g2_300" />
<path d="M281.5,674.5l0,-27" class="g2_300" />
<path d="M322.5,674.5l0,-27" class="g2_300" />
<path d="M488.5,674.5l0,-27" class="g2_300" />
<path d="M556.5,674.5l0,-27" class="g2_300" />
<path d="M887.5,674.5l0,-27" class="g2_300" />
<path fill-rule="evenodd" d="M47,795l39,0L86,674l-39,0l0,121Z" class="g1_300" />
<path fill-rule="evenodd" d="M88,795l39,0l0,-121l-39,0l0,121Z" class="g1_300" />
<path fill-rule="evenodd" d="M129,795l39,0l0,-121l-39,0l0,121Z" class="g1_300" />
<path fill-rule="evenodd" d="M169,795l40,0l0,-121l-40,0l0,121Z" class="g1_300" />
<path fill-rule="evenodd" d="M323,795l165,0l0,-119l-165,0l0,119Z" class="g1_300" />
<g clip-path="url(#c29_300)">
<path fill-rule="evenodd" d="M331,700l150,0l0,-24l-150,0l0,24Z" class="g1_300" />
</g>
<path fill-rule="evenodd" d="M490,795l66,0l0,-119l-66,0l0,119Z" class="g1_300" />
<g clip-path="url(#c30_300)">
<path fill-rule="evenodd" d="M497,700l51,0l0,-24l-51,0l0,24Z" class="g1_300" />
</g>
<path fill-rule="evenodd" d="M557,795l330,0l0,-119l-330,0l0,119Z" class="g1_300" />
<g clip-path="url(#c31_300)">
<path fill-rule="evenodd" d="M565,700l315,0l0,-24l-315,0l0,24Z" class="g1_300" />
</g>
<path fill-rule="evenodd" d="M565,724l315,0l0,-24l-315,0l0,24Z" class="g1_300" />
<path fill-rule="evenodd" d="M565,747l315,0l0,-23l-315,0l0,23Z" class="g1_300" />
<path fill-rule="evenodd" d="M565,771l315,0l0,-24l-315,0l0,24Z" class="g1_300" />
<path fill-rule="evenodd" d="M565,795l315,0l0,-24l-315,0l0,24Z" class="g1_300" />
<path d="M46.5,676.5l0,-2" class="g2_300" />
<path d="M86.5,676.5l0,-2" class="g2_300" />
<path d="M127.5,676.5l0,-2" class="g2_300" />
<path d="M168.5,676.5l0,-2" class="g2_300" />
<path d="M209.5,676.5l0,-2" class="g2_300" />
<path d="M281.5,676.5l0,-2" class="g2_300" />
<path d="M322.5,676.5l0,-2" class="g2_300" />
<path d="M323.5,676.5l165,0" class="g2_300" />
<path d="M488.5,676.5l0,-2" class="g2_300" />
<path d="M490.5,676.5l66,0" class="g2_300" />
<path d="M556.5,676.5l0,-2" class="g2_300" />
<path d="M557.5,676.5l330,0" class="g2_300" />
<path d="M887.5,676.5l0,-2" class="g2_300" />
<path d="M46.5,795.5l0,-119" class="g2_300" />
<path d="M86.5,795.5l0,-119" class="g2_300" />
<path d="M127.5,795.5l0,-119" class="g2_300" />
<path d="M168.5,795.5l0,-119" class="g2_300" />
<path d="M209.5,795.5l0,-119" class="g2_300" />
<path d="M281.5,795.5l0,-119" class="g2_300" />
<path d="M322.5,795.5l0,-119" class="g2_300" />
<path d="M488.5,795.5l0,-119" class="g2_300" />
<path d="M556.5,795.5l0,-119" class="g2_300" />
<path d="M887.5,795.5l0,-119" class="g2_300" />
<path fill-rule="evenodd" d="M47,892l39,0l0,-97l-39,0l0,97Z" class="g1_300" />
<path fill-rule="evenodd" d="M88,892l39,0l0,-97l-39,0l0,97Z" class="g1_300" />
<path fill-rule="evenodd" d="M129,892l39,0l0,-97l-39,0l0,97Z" class="g1_300" />
<path fill-rule="evenodd" d="M169,892l40,0l0,-97l-40,0l0,97Z" class="g1_300" />
<path fill-rule="evenodd" d="M323,892l165,0l0,-95l-165,0l0,95Z" class="g1_300" />
<g clip-path="url(#c32_300)">
<path fill-rule="evenodd" d="M331,820l150,0l0,-23l-150,0l0,23Z" class="g1_300" />
</g>
<path fill-rule="evenodd" d="M490,892l66,0l0,-95l-66,0l0,95Z" class="g1_300" />
<g clip-path="url(#c33_300)">
<path fill-rule="evenodd" d="M497,820l51,0l0,-23l-51,0l0,23Z" class="g1_300" />
</g>
<path fill-rule="evenodd" d="M557,892l330,0l0,-95l-330,0l0,95Z" class="g1_300" />
<g clip-path="url(#c34_300)">
<path fill-rule="evenodd" d="M565,820l315,0l0,-23l-315,0l0,23Z" class="g1_300" />
</g>
<path fill-rule="evenodd" d="M565,844l315,0l0,-24l-315,0l0,24Z" class="g1_300" />
<path fill-rule="evenodd" d="M565,868l315,0l0,-24l-315,0l0,24Z" class="g1_300" />
<path fill-rule="evenodd" d="M565,892l315,0l0,-24l-315,0l0,24Z" class="g1_300" />
<path d="M46.5,797.5l0,-2" class="g2_300" />
<path d="M86.5,797.5l0,-2" class="g2_300" />
<path d="M127.5,797.5l0,-2" class="g2_300" />
<path d="M168.5,797.5l0,-2" class="g2_300" />
<path d="M209.5,797.5l0,-2" class="g2_300" />
<path d="M281.5,797.5l0,-2" class="g2_300" />
<path d="M322.5,797.5l0,-2" class="g2_300" />
<path d="M323.5,797.5l165,0" class="g2_300" />
<path d="M488.5,797.5l0,-2" class="g2_300" />
<path d="M490.5,797.5l66,0" class="g2_300" />
<path d="M556.5,797.5l0,-2" class="g2_300" />
<path d="M557.5,797.5l330,0" class="g2_300" />
<path d="M887.5,797.5l0,-2" class="g2_300" />
<path d="M46.5,892.5l0,-95" class="g2_300" />
<path d="M86.5,892.5l0,-95" class="g2_300" />
<path d="M127.5,892.5l0,-95" class="g2_300" />
<path d="M168.5,892.5l0,-95" class="g2_300" />
<path d="M209.5,892.5l0,-95" class="g2_300" />
<path d="M281.5,892.5l0,-95" class="g2_300" />
<path d="M322.5,892.5l0,-95" class="g2_300" />
<path d="M488.5,892.5l0,-95" class="g2_300" />
<path d="M556.5,892.5l0,-95" class="g2_300" />
<path d="M887.5,892.5l0,-95" class="g2_300" />
<path fill-rule="evenodd" d="M47,989l39,0l0,-97l-39,0l0,97Z" class="g1_300" />
<path fill-rule="evenodd" d="M88,989l39,0l0,-97l-39,0l0,97Z" class="g1_300" />
<path fill-rule="evenodd" d="M129,989l39,0l0,-97l-39,0l0,97Z" class="g1_300" />
<path fill-rule="evenodd" d="M169,989l40,0l0,-97l-40,0l0,97Z" class="g1_300" />
<path fill-rule="evenodd" d="M323,989l165,0l0,-96l-165,0l0,96Z" class="g1_300" />
<g clip-path="url(#c35_300)">
<path fill-rule="evenodd" d="M331,917l150,0l0,-24l-150,0l0,24Z" class="g1_300" />
</g>
<path fill-rule="evenodd" d="M490,989l66,0l0,-96l-66,0l0,96Z" class="g1_300" />
<g clip-path="url(#c36_300)">
<path fill-rule="evenodd" d="M497,917l51,0l0,-24l-51,0l0,24Z" class="g1_300" />
</g>
<path fill-rule="evenodd" d="M557,989l330,0l0,-96l-330,0l0,96Z" class="g1_300" />
<g clip-path="url(#c37_300)">
<path fill-rule="evenodd" d="M565,917l315,0l0,-24l-315,0l0,24Z" class="g1_300" />
</g>
<path fill-rule="evenodd" d="M565,941l315,0l0,-24l-315,0l0,24Z" class="g1_300" />
<path fill-rule="evenodd" d="M565,965l315,0l0,-24l-315,0l0,24Z" class="g1_300" />
<g clip-path="url(#c37_300)">
<path fill-rule="evenodd" d="M565,989l315,0l0,-24l-315,0l0,24Z" class="g1_300" />
</g>
<path d="M46.5,893.5l0,-1" class="g2_300" />
<path d="M86.5,893.5l0,-1" class="g2_300" />
<path d="M127.5,893.5l0,-1" class="g2_300" />
<path d="M168.5,893.5l0,-1" class="g2_300" />
<path d="M209.5,893.5l0,-1" class="g2_300" />
<path d="M281.5,893.5l0,-1" class="g2_300" />
<path d="M322.5,893.5l0,-1" class="g2_300" />
<path d="M323.5,893.5l165,0" class="g2_300" />
<path d="M488.5,893.5l0,-1" class="g2_300" />
<path d="M490.5,893.5l66,0" class="g2_300" />
<path d="M556.5,893.5l0,-1" class="g2_300" />
<path d="M557.5,893.5l330,0" class="g2_300" />
<path d="M887.5,893.5l0,-1" class="g2_300" />
<path d="M46.5,989.5l0,-96" class="g2_300" />
<path d="M46.5,990.5l0,-1" class="g2_300" />
<path d="M46.5,990.5l0,-1" class="g2_300" />
<path d="M47.5,990.5l39,0" class="g2_300" />
<path d="M86.5,989.5l0,-96" class="g2_300" />
<path d="M86.5,990.5l0,-1" class="g2_300" />
<path d="M88.5,990.5l39,0" class="g2_300" />
<path d="M127.5,989.5l0,-96" class="g2_300" />
<path d="M127.5,990.5l0,-1" class="g2_300" />
<path d="M129.5,990.5l39,0" class="g2_300" />
<path d="M168.5,989.5l0,-96" class="g2_300" />
<path d="M168.5,990.5l0,-1" class="g2_300" />
<path d="M169.5,990.5l40,0" class="g2_300" />
<path d="M209.5,989.5l0,-96" class="g2_300" />
<path d="M209.5,990.5l0,-1" class="g2_300" />
<path d="M210.5,990.5l71,0" class="g2_300" />
<path d="M281.5,989.5l0,-96" class="g2_300" />
<path d="M281.5,990.5l0,-1" class="g2_300" />
<path d="M282.5,990.5l40,0" class="g2_300" />
<path d="M322.5,989.5l0,-96" class="g2_300" />
<path d="M322.5,990.5l0,-1" class="g2_300" />
<path d="M323.5,990.5l165,0" class="g2_300" />
<path d="M488.5,989.5l0,-96" class="g2_300" />
<path d="M488.5,990.5l0,-1" class="g2_300" />
<path d="M490.5,990.5l66,0" class="g2_300" />
<path d="M556.5,989.5l0,-96" class="g2_300" />
<path d="M556.5,990.5l0,-1" class="g2_300" />
<path d="M557.5,990.5l330,0" class="g2_300" />
<path d="M887.5,989.5l0,-96" class="g2_300" />
<path d="M887.5,990.5l0,-1" class="g2_300" />
<path d="M887.5,990.5l0,-1" class="g2_300" />
</svg>