<?xml version="1.0" encoding="UTF-8" standalone="no"?>
<!DOCTYPE svg PUBLIC "-//W3C//DTD SVG 1.1//EN"
"http://www.w3.org/Graphics/SVG/1.1/DTD/svg11.dtd">
<svg version="1.1" xmlns="http://www.w3.org/2000/svg" xmlns:xlink="http://www.w3.org/1999/xlink">
<defs>
<clipPath id="c0_41"><path d="M47.5,696.5l0,-24l179,0l0,24Z" /></clipPath>
<clipPath id="c1_41"><path d="M227.5,696.5l0,-24l163,0l0,24Z" /></clipPath>
<clipPath id="c2_41"><path d="M392.5,696.5l0,-24l495,0l0,24Z" /></clipPath>
<clipPath id="c3_41"><path d="M47.5,722.5l0,-24l179,0l0,24Z" /></clipPath>
<clipPath id="c4_41"><path d="M227.5,722.5l0,-24l163,0l0,24Z" /></clipPath>
<clipPath id="c5_41"><path d="M392.5,722.5l0,-24l495,0l0,24Z" /></clipPath>
<clipPath id="c6_41"><path d="M47.5,771.5l0,-48l179,0l0,48Z" /></clipPath>
<clipPath id="c7_41"><path d="M227.5,771.5l0,-48l163,0l0,48Z" /></clipPath>
<clipPath id="c8_41"><path d="M392.5,771.5l0,-48l495,0l0,48Z" /></clipPath>
<clipPath id="c9_41"><path d="M47.5,869.5l0,-24l178,0l0,24Z" /></clipPath>
<clipPath id="c10_41"><path d="M227.5,869.5l0,-24l163,0l0,24Z" /></clipPath>
<clipPath id="c11_41"><path d="M392.5,869.5l0,-24l164,0l0,24Z" /></clipPath>
<clipPath id="c12_41"><path d="M558.5,869.5l0,-24l163,0l0,24Z" /></clipPath>
<clipPath id="c13_41"><path d="M723.5,869.5l0,-24l164,0l0,24Z" /></clipPath>
<clipPath id="c14_41"><path d="M47.5,894.5l0,-23l178,0l0,23Z" /></clipPath>
<clipPath id="c15_41"><path d="M227.5,894.5l0,-23l163,0l0,23Z" /></clipPath>
<clipPath id="c16_41"><path d="M392.5,894.5l0,-23l164,0l0,23Z" /></clipPath>
<clipPath id="c17_41"><path d="M558.5,894.5l0,-23l163,0l0,23Z" /></clipPath>
<clipPath id="c18_41"><path d="M723.5,894.5l0,-23l164,0l0,23Z" /></clipPath>
<style type="text/css"><![CDATA[
.g5_41{
fill: #DBE5F1;
}
.g2_41{
fill: #0000FF;
}
.g4_41{
fill: none;
stroke: #7E7E7E;
stroke-width: 1;
stroke-linecap: butt;
stroke-linejoin: miter;
}
.g3_41{
fill: #F1F1F1;
}
.g1_41{
fill: none;
stroke: #0000FF;
stroke-width: 1;
stroke-linecap: butt;
stroke-linejoin: miter;
}
]]></style>
</defs>
<path d="M431.5,292.5l201,0" class="g1_41" />
<path fill-rule="evenodd" d="M244,452l302,0l0,-2l-302,0l0,2Z" class="g2_41" />
<path fill-rule="evenodd" d="M47,589l840,0l0,-24L47,565l0,24Z" class="g3_41" />
<path fill-rule="evenodd" d="M55,589l825,0l0,-24L55,565l0,24Z" class="g3_41" />
<path d="M46.5,565.5l0,-1" class="g4_41" />
<path d="M46.5,565.5l0,-1" class="g4_41" />
<path d="M47.5,565.5l840,0" class="g4_41" />
<path d="M887.5,565.5l0,-1" class="g4_41" />
<path d="M887.5,565.5l0,-1" class="g4_41" />
<path d="M46.5,589.5l0,-24" class="g4_41" />
<path d="M46.5,591.5l0,-2" class="g4_41" />
<path d="M46.5,591.5l0,-2" class="g4_41" />
<path d="M47.5,591.5l840,0" class="g4_41" />
<path d="M887.5,589.5l0,-24" class="g4_41" />
<path d="M887.5,591.5l0,-2" class="g4_41" />
<path d="M887.5,591.5l0,-2" class="g4_41" />
<path fill-rule="evenodd" d="M47,696l179,0l0,-24L47,672l0,24Z" class="g5_41" />
<g clip-path="url(#c0_41)">
<path fill-rule="evenodd" d="M55,696l163,0l0,-24L55,672l0,24Z" class="g5_41" />
</g>
<path fill-rule="evenodd" d="M227,696l163,0l0,-24l-163,0l0,24Z" class="g5_41" />
<g clip-path="url(#c1_41)">
<path fill-rule="evenodd" d="M235,696l148,0l0,-24l-148,0l0,24Z" class="g5_41" />
</g>
<path fill-rule="evenodd" d="M392,696l495,0l0,-24l-495,0l0,24Z" class="g5_41" />
<g clip-path="url(#c2_41)">
<path fill-rule="evenodd" d="M400,696l480,0l0,-24l-480,0l0,24Z" class="g5_41" />
</g>
<path d="M46.5,672.5l0,-1" class="g4_41" />
<path d="M46.5,672.5l0,-1" class="g4_41" />
<path d="M47.5,672.5l179,0" class="g4_41" />
<path d="M226.5,672.5l0,-1" class="g4_41" />
<path d="M227.5,672.5l164,0" class="g4_41" />
<path d="M391.5,672.5l0,-1" class="g4_41" />
<path d="M392.5,672.5l495,0" class="g4_41" />
<path d="M887.5,672.5l0,-1" class="g4_41" />
<path d="M887.5,672.5l0,-1" class="g4_41" />
<path d="M46.5,696.5l0,-24" class="g4_41" />
<path d="M226.5,696.5l0,-24" class="g4_41" />
<path d="M391.5,696.5l0,-24" class="g4_41" />
<path d="M887.5,696.5l0,-24" class="g4_41" />
<path fill-rule="evenodd" d="M47,722l179,0l0,-24L47,698l0,24Z" class="g3_41" />
<g clip-path="url(#c3_41)">
<path fill-rule="evenodd" d="M55,722l163,0l0,-24L55,698l0,24Z" class="g3_41" />
</g>
<path fill-rule="evenodd" d="M227,722l163,0l0,-24l-163,0l0,24Z" class="g3_41" />
<g clip-path="url(#c4_41)">
<path fill-rule="evenodd" d="M235,722l148,0l0,-24l-148,0l0,24Z" class="g3_41" />
</g>
<path fill-rule="evenodd" d="M392,722l495,0l0,-24l-495,0l0,24Z" class="g3_41" />
<g clip-path="url(#c5_41)">
<path fill-rule="evenodd" d="M400,722l480,0l0,-24l-480,0l0,24Z" class="g3_41" />
</g>
<path d="M46.5,698.5l0,-2" class="g4_41" />
<path d="M47.5,698.5l179,0" class="g4_41" />
<path d="M226.5,698.5l0,-2" class="g4_41" />
<path d="M227.5,698.5l164,0" class="g4_41" />
<path d="M391.5,698.5l0,-2" class="g4_41" />
<path d="M392.5,698.5l495,0" class="g4_41" />
<path d="M887.5,698.5l0,-2" class="g4_41" />
<path d="M46.5,722.5l0,-24" class="g4_41" />
<path d="M226.5,722.5l0,-24" class="g4_41" />
<path d="M391.5,722.5l0,-24" class="g4_41" />
<path d="M887.5,722.5l0,-24" class="g4_41" />
<path fill-rule="evenodd" d="M47,771l179,0l0,-48L47,723l0,48Z" class="g3_41" />
<g clip-path="url(#c6_41)">
<path fill-rule="evenodd" d="M55,747l163,0l0,-24L55,723l0,24Z" class="g3_41" />
</g>
<path fill-rule="evenodd" d="M227,771l163,0l0,-48l-163,0l0,48Z" class="g3_41" />
<g clip-path="url(#c7_41)">
<path fill-rule="evenodd" d="M235,747l148,0l0,-24l-148,0l0,24Z" class="g3_41" />
</g>
<path fill-rule="evenodd" d="M392,771l495,0l0,-48l-495,0l0,48Z" class="g3_41" />
<g clip-path="url(#c8_41)">
<path fill-rule="evenodd" d="M400,747l480,0l0,-24l-480,0l0,24Z" class="g3_41" />
</g>
<path fill-rule="evenodd" d="M400,771l480,0l0,-24l-480,0l0,24Z" class="g3_41" />
<path d="M46.5,723.5l0,-1" class="g4_41" />
<path d="M47.5,723.5l179,0" class="g4_41" />
<path d="M226.5,723.5l0,-1" class="g4_41" />
<path d="M227.5,723.5l164,0" class="g4_41" />
<path d="M391.5,723.5l0,-1" class="g4_41" />
<path d="M392.5,723.5l495,0" class="g4_41" />
<path d="M887.5,723.5l0,-1" class="g4_41" />
<path d="M46.5,771.5l0,-48" class="g4_41" />
<path d="M46.5,772.5l0,-1" class="g4_41" />
<path d="M46.5,772.5l0,-1" class="g4_41" />
<path d="M47.5,772.5l179,0" class="g4_41" />
<path d="M226.5,771.5l0,-48" class="g4_41" />
<path d="M226.5,772.5l0,-1" class="g4_41" />
<path d="M227.5,772.5l164,0" class="g4_41" />
<path d="M391.5,771.5l0,-48" class="g4_41" />
<path d="M391.5,772.5l0,-1" class="g4_41" />
<path d="M392.5,772.5l495,0" class="g4_41" />
<path d="M887.5,771.5l0,-48" class="g4_41" />
<path d="M887.5,772.5l0,-1" class="g4_41" />
<path d="M887.5,772.5l0,-1" class="g4_41" />
<path fill-rule="evenodd" d="M47,869l178,0l0,-24L47,845l0,24Z" class="g5_41" />
<g clip-path="url(#c9_41)">
<path fill-rule="evenodd" d="M55,869l163,0l0,-24L55,845l0,24Z" class="g5_41" />
</g>
<path fill-rule="evenodd" d="M227,869l163,0l0,-24l-163,0l0,24Z" class="g5_41" />
<g clip-path="url(#c10_41)">
<path fill-rule="evenodd" d="M234,869l149,0l0,-24l-149,0l0,24Z" class="g5_41" />
</g>
<path fill-rule="evenodd" d="M392,869l164,0l0,-24l-164,0l0,24Z" class="g5_41" />
<g clip-path="url(#c11_41)">
<path fill-rule="evenodd" d="M399,869l149,0l0,-24l-149,0l0,24Z" class="g5_41" />
</g>
<path fill-rule="evenodd" d="M557,869l164,0l0,-24l-164,0l0,24Z" class="g5_41" />
<g clip-path="url(#c12_41)">
<path fill-rule="evenodd" d="M565,869l149,0l0,-24l-149,0l0,24Z" class="g5_41" />
</g>
<path fill-rule="evenodd" d="M723,869l164,0l0,-24l-164,0l0,24Z" class="g5_41" />
<g clip-path="url(#c13_41)">
<path fill-rule="evenodd" d="M730,869l150,0l0,-24l-150,0l0,24Z" class="g5_41" />
</g>
<path d="M46.5,845.5l0,-1" class="g4_41" />
<path d="M46.5,845.5l0,-1" class="g4_41" />
<path d="M47.5,845.5l178,0" class="g4_41" />
<path d="M225.5,845.5l0,-1" class="g4_41" />
<path d="M227.5,845.5l163,0" class="g4_41" />
<path d="M390.5,845.5l0,-1" class="g4_41" />
<path d="M392.5,845.5l164,0" class="g4_41" />
<path d="M556.5,845.5l0,-1" class="g4_41" />
<path d="M557.5,845.5l164,0" class="g4_41" />
<path d="M721.5,845.5l0,-1" class="g4_41" />
<path d="M723.5,845.5l164,0" class="g4_41" />
<path d="M887.5,845.5l0,-1" class="g4_41" />
<path d="M887.5,845.5l0,-1" class="g4_41" />
<path d="M46.5,869.5l0,-24" class="g4_41" />
<path d="M225.5,869.5l0,-24" class="g4_41" />
<path d="M390.5,869.5l0,-24" class="g4_41" />
<path d="M556.5,869.5l0,-24" class="g4_41" />
<path d="M721.5,869.5l0,-24" class="g4_41" />
<path d="M887.5,869.5l0,-24" class="g4_41" />
<path fill-rule="evenodd" d="M47,894l178,0l0,-23L47,871l0,23Z" class="g3_41" />
<g clip-path="url(#c14_41)">
<path fill-rule="evenodd" d="M55,894l163,0l0,-23L55,871l0,23Z" class="g3_41" />
</g>
<path fill-rule="evenodd" d="M227,894l163,0l0,-23l-163,0l0,23Z" class="g3_41" />
<g clip-path="url(#c15_41)">
<path fill-rule="evenodd" d="M234,894l149,0l0,-23l-149,0l0,23Z" class="g3_41" />
</g>
<path fill-rule="evenodd" d="M392,894l164,0l0,-23l-164,0l0,23Z" class="g3_41" />
<g clip-path="url(#c16_41)">
<path fill-rule="evenodd" d="M399,894l149,0l0,-23l-149,0l0,23Z" class="g3_41" />
</g>
<path fill-rule="evenodd" d="M557,894l164,0l0,-23l-164,0l0,23Z" class="g3_41" />
<g clip-path="url(#c17_41)">
<path fill-rule="evenodd" d="M565,894l149,0l0,-23l-149,0l0,23Z" class="g3_41" />
</g>
<path fill-rule="evenodd" d="M723,894l164,0l0,-23l-164,0l0,23Z" class="g3_41" />
<g clip-path="url(#c18_41)">
<path fill-rule="evenodd" d="M730,894l150,0l0,-23l-150,0l0,23Z" class="g3_41" />
</g>
<path d="M46.5,871.5l0,-2" class="g4_41" />
<path d="M47.5,871.5l178,0" class="g4_41" />
<path d="M225.5,871.5l0,-2" class="g4_41" />
<path d="M227.5,871.5l163,0" class="g4_41" />
<path d="M390.5,871.5l0,-2" class="g4_41" />
<path d="M392.5,871.5l164,0" class="g4_41" />
<path d="M556.5,871.5l0,-2" class="g4_41" />
<path d="M557.5,871.5l164,0" class="g4_41" />
<path d="M721.5,871.5l0,-2" class="g4_41" />
<path d="M723.5,871.5l164,0" class="g4_41" />
<path d="M887.5,871.5l0,-2" class="g4_41" />
<path d="M46.5,894.5l0,-23" class="g4_41" />
<path d="M46.5,896.5l0,-2" class="g4_41" />
<path d="M46.5,896.5l0,-2" class="g4_41" />
<path d="M47.5,896.5l178,0" class="g4_41" />
<path d="M225.5,894.5l0,-23" class="g4_41" />
<path d="M225.5,896.5l0,-2" class="g4_41" />
<path d="M227.5,896.5l163,0" class="g4_41" />
<path d="M390.5,894.5l0,-23" class="g4_41" />
<path d="M390.5,896.5l0,-2" class="g4_41" />
<path d="M392.5,896.5l164,0" class="g4_41" />
<path d="M556.5,894.5l0,-23" class="g4_41" />
<path d="M556.5,896.5l0,-2" class="g4_41" />
<path d="M557.5,896.5l164,0" class="g4_41" />
<path d="M721.5,894.5l0,-23" class="g4_41" />
<path d="M721.5,896.5l0,-2" class="g4_41" />
<path d="M723.5,896.5l164,0" class="g4_41" />
<path d="M887.5,894.5l0,-23" class="g4_41" />
<path d="M887.5,896.5l0,-2" class="g4_41" />
<path d="M887.5,896.5l0,-2" class="g4_41" />
</svg>