<?xml version="1.0" encoding="UTF-8" standalone="no"?>
<!DOCTYPE svg PUBLIC "-//W3C//DTD SVG 1.1//EN"
"http://www.w3.org/Graphics/SVG/1.1/DTD/svg11.dtd">
<svg version="1.1" xmlns="http://www.w3.org/2000/svg" xmlns:xlink="http://www.w3.org/1999/xlink">
<defs>
<clipPath id="c0_106"><path d="M47.5,135.5l0,-24l282,0l0,24Z" /></clipPath>
<clipPath id="c1_106"><path d="M330.5,135.5l0,-24l67,0l0,24Z" /></clipPath>
<clipPath id="c2_106"><path d="M399.5,135.5l0,-24l488,0l0,24Z" /></clipPath>
<clipPath id="c3_106"><path d="M47.5,1090.5l0,-954l35,0l0,954Z" /></clipPath>
<clipPath id="c4_106"><path d="M83.5,160.5l0,-24l246,0l0,24Z" /></clipPath>
<clipPath id="c5_106"><path d="M330.5,160.5l0,-24l67,0l0,24Z" /></clipPath>
<clipPath id="c6_106"><path d="M399.5,160.5l0,-24l488,0l0,24Z" /></clipPath>
<clipPath id="c7_106"><path d="M83.5,186.5l0,-24l246,0l0,24Z" /></clipPath>
<clipPath id="c8_106"><path d="M330.5,186.5l0,-24l67,0l0,24Z" /></clipPath>
<clipPath id="c9_106"><path d="M399.5,186.5l0,-24l488,0l0,24Z" /></clipPath>
<clipPath id="c10_106"><path d="M83.5,211.5l0,-24l246,0l0,24Z" /></clipPath>
<clipPath id="c11_106"><path d="M330.5,211.5l0,-24l67,0l0,24Z" /></clipPath>
<clipPath id="c12_106"><path d="M399.5,211.5l0,-24l488,0l0,24Z" /></clipPath>
<clipPath id="c13_106"><path d="M83.5,1090.5l0,-877l35,0l0,877Z" /></clipPath>
<clipPath id="c14_106"><path d="M119.5,1090.5l0,-877l35,0l0,877Z" /></clipPath>
<clipPath id="c15_106"><path d="M155.5,308.5l0,-95l174,0l0,95Z" /></clipPath>
<clipPath id="c16_106"><path d="M330.5,308.5l0,-95l67,0l0,95Z" /></clipPath>
<clipPath id="c17_106"><path d="M399.5,308.5l0,-95l488,0l0,95Z" /></clipPath>
<clipPath id="c18_106"><path d="M155.5,667.5l0,-358l174,0l0,358Z" /></clipPath>
<clipPath id="c19_106"><path d="M330.5,667.5l0,-358l67,0l0,358Z" /></clipPath>
<clipPath id="c20_106"><path d="M399.5,667.5l0,-358l488,0l0,358Z" /></clipPath>
<clipPath id="c21_106"><path d="M155.5,716.5l0,-48l174,0l0,48Z" /></clipPath>
<clipPath id="c22_106"><path d="M330.5,716.5l0,-48l67,0l0,48Z" /></clipPath>
<clipPath id="c23_106"><path d="M399.5,716.5l0,-48l488,0l0,48Z" /></clipPath>
<clipPath id="c24_106"><path d="M155.5,754.5l0,-36l174,0l0,36Z" /></clipPath>
<clipPath id="c25_106"><path d="M330.5,754.5l0,-36l67,0l0,36Z" /></clipPath>
<clipPath id="c26_106"><path d="M399.5,754.5l0,-36l488,0l0,36Z" /></clipPath>
<clipPath id="c27_106"><path d="M155.5,827.5l0,-72l174,0l0,72Z" /></clipPath>
<clipPath id="c28_106"><path d="M330.5,827.5l0,-72l67,0l0,72Z" /></clipPath>
<clipPath id="c29_106"><path d="M399.5,827.5l0,-72l488,0l0,72Z" /></clipPath>
<clipPath id="c30_106"><path d="M155.5,1090.5l0,-262l174,0l0,262Z" /></clipPath>
<clipPath id="c31_106"><path d="M330.5,1090.5l0,-262l67,0l0,262Z" /></clipPath>
<clipPath id="c32_106"><path d="M399.5,1090.5l0,-262l488,0l0,262Z" /></clipPath>
<style type="text/css"><![CDATA[
.g2_106{
fill: none;
stroke: #7E7E7E;
stroke-width: 1;
stroke-linecap: butt;
stroke-linejoin: miter;
}
.g4_106{
fill: none;
stroke: #0000FF;
stroke-width: 1;
stroke-linecap: butt;
stroke-linejoin: miter;
}
.g3_106{
fill: #F1F1F1;
}
.g1_106{
fill: #DBE5F1;
}
]]></style>
</defs>
<path fill-rule="evenodd" d="M47,135l282,0l0,-24L47,111l0,24Z" class="g1_106" />
<g clip-path="url(#c0_106)">
<path fill-rule="evenodd" d="M55,135l266,0l0,-24L55,111l0,24Z" class="g1_106" />
</g>
<path fill-rule="evenodd" d="M330,135l67,0l0,-24l-67,0l0,24Z" class="g1_106" />
<g clip-path="url(#c1_106)">
<path fill-rule="evenodd" d="M338,135l52,0l0,-24l-52,0l0,24Z" class="g1_106" />
</g>
<path fill-rule="evenodd" d="M399,135l488,0l0,-24l-488,0l0,24Z" class="g1_106" />
<g clip-path="url(#c2_106)">
<path fill-rule="evenodd" d="M407,135l473,0l0,-24l-473,0l0,24Z" class="g1_106" />
</g>
<path d="M46.5,111.5l0,-1" class="g2_106" />
<path d="M46.5,111.5l0,-1" class="g2_106" />
<path d="M47.5,111.5l282,0" class="g2_106" />
<path d="M329.5,111.5l0,-1" class="g2_106" />
<path d="M330.5,111.5l68,0" class="g2_106" />
<path d="M398.5,111.5l0,-1" class="g2_106" />
<path d="M399.5,111.5l488,0" class="g2_106" />
<path d="M887.5,111.5l0,-1" class="g2_106" />
<path d="M887.5,111.5l0,-1" class="g2_106" />
<path d="M46.5,135.5l0,-24" class="g2_106" />
<path d="M329.5,135.5l0,-24" class="g2_106" />
<path d="M398.5,135.5l0,-24" class="g2_106" />
<path d="M887.5,135.5l0,-24" class="g2_106" />
<path fill-rule="evenodd" d="M47,1090l35,0L82,136l-35,0l0,954Z" class="g3_106" />
<g clip-path="url(#c3_106)">
<path fill-rule="evenodd" d="M55,1090l23,0L78,136l-23,0l0,954Z" class="g3_106" />
</g>
<path fill-rule="evenodd" d="M83,160l246,0l0,-24L83,136l0,24Z" class="g3_106" />
<g clip-path="url(#c4_106)">
<path fill-rule="evenodd" d="M91,160l230,0l0,-24L91,136l0,24Z" class="g3_106" />
</g>
<path fill-rule="evenodd" d="M330,160l67,0l0,-24l-67,0l0,24Z" class="g3_106" />
<g clip-path="url(#c5_106)">
<path fill-rule="evenodd" d="M338,160l52,0l0,-24l-52,0l0,24Z" class="g3_106" />
</g>
<path fill-rule="evenodd" d="M399,160l488,0l0,-24l-488,0l0,24Z" class="g3_106" />
<g clip-path="url(#c6_106)">
<path fill-rule="evenodd" d="M407,160l473,0l0,-24l-473,0l0,24Z" class="g3_106" />
</g>
<path d="M46.5,136.5l0,-1" class="g2_106" />
<path d="M47.5,136.5l35,0" class="g2_106" />
<path d="M82.5,136.5l0,-1" class="g2_106" />
<path d="M83.5,136.5l246,0" class="g2_106" />
<path d="M329.5,136.5l0,-1" class="g2_106" />
<path d="M330.5,136.5l68,0" class="g2_106" />
<path d="M398.5,136.5l0,-1" class="g2_106" />
<path d="M399.5,136.5l488,0" class="g2_106" />
<path d="M887.5,136.5l0,-1" class="g2_106" />
<path d="M46.5,160.5l0,-24" class="g2_106" />
<path d="M82.5,160.5l0,-24" class="g2_106" />
<path d="M329.5,160.5l0,-24" class="g2_106" />
<path d="M398.5,160.5l0,-24" class="g2_106" />
<path d="M887.5,160.5l0,-24" class="g2_106" />
<path fill-rule="evenodd" d="M83,186l246,0l0,-24L83,162l0,24Z" class="g3_106" />
<g clip-path="url(#c7_106)">
<path fill-rule="evenodd" d="M91,186l230,0l0,-24L91,162l0,24Z" class="g3_106" />
</g>
<path fill-rule="evenodd" d="M330,186l67,0l0,-24l-67,0l0,24Z" class="g3_106" />
<g clip-path="url(#c8_106)">
<path fill-rule="evenodd" d="M338,186l52,0l0,-24l-52,0l0,24Z" class="g3_106" />
</g>
<path fill-rule="evenodd" d="M399,186l488,0l0,-24l-488,0l0,24Z" class="g3_106" />
<g clip-path="url(#c9_106)">
<path fill-rule="evenodd" d="M407,186l473,0l0,-24l-473,0l0,24Z" class="g3_106" />
</g>
<path d="M46.5,162.5l0,-2" class="g2_106" />
<path d="M82.5,162.5l0,-2" class="g2_106" />
<path d="M83.5,162.5l246,0" class="g2_106" />
<path d="M329.5,162.5l0,-2" class="g2_106" />
<path d="M330.5,162.5l68,0" class="g2_106" />
<path d="M398.5,162.5l0,-2" class="g2_106" />
<path d="M399.5,162.5l488,0" class="g2_106" />
<path d="M887.5,162.5l0,-2" class="g2_106" />
<path d="M46.5,186.5l0,-24" class="g2_106" />
<path d="M82.5,186.5l0,-24" class="g2_106" />
<path d="M329.5,186.5l0,-24" class="g2_106" />
<path d="M398.5,186.5l0,-24" class="g2_106" />
<path d="M887.5,186.5l0,-24" class="g2_106" />
<path fill-rule="evenodd" d="M83,211l246,0l0,-24L83,187l0,24Z" class="g3_106" />
<g clip-path="url(#c10_106)">
<path fill-rule="evenodd" d="M91,211l230,0l0,-24L91,187l0,24Z" class="g3_106" />
</g>
<path fill-rule="evenodd" d="M330,211l67,0l0,-24l-67,0l0,24Z" class="g3_106" />
<g clip-path="url(#c11_106)">
<path fill-rule="evenodd" d="M338,211l52,0l0,-24l-52,0l0,24Z" class="g3_106" />
</g>
<path fill-rule="evenodd" d="M399,211l488,0l0,-24l-488,0l0,24Z" class="g3_106" />
<g clip-path="url(#c12_106)">
<path fill-rule="evenodd" d="M407,211l473,0l0,-24l-473,0l0,24Z" class="g3_106" />
</g>
<path d="M46.5,187.5l0,-1" class="g2_106" />
<path d="M82.5,187.5l0,-1" class="g2_106" />
<path d="M83.5,187.5l246,0" class="g2_106" />
<path d="M329.5,187.5l0,-1" class="g2_106" />
<path d="M330.5,187.5l68,0" class="g2_106" />
<path d="M398.5,187.5l0,-1" class="g2_106" />
<path d="M399.5,187.5l488,0" class="g2_106" />
<path d="M887.5,187.5l0,-1" class="g2_106" />
<path d="M46.5,211.5l0,-24" class="g2_106" />
<path d="M82.5,211.5l0,-24" class="g2_106" />
<path d="M329.5,211.5l0,-24" class="g2_106" />
<path d="M398.5,211.5l0,-24" class="g2_106" />
<path d="M887.5,211.5l0,-24" class="g2_106" />
<path fill-rule="evenodd" d="M83,1090l35,0l0,-877l-35,0l0,877Z" class="g3_106" />
<g clip-path="url(#c13_106)">
<path fill-rule="evenodd" d="M91,1090l23,0l0,-877l-23,0l0,877Z" class="g3_106" />
</g>
<path fill-rule="evenodd" d="M119,1090l35,0l0,-877l-35,0l0,877Z" class="g3_106" />
<g clip-path="url(#c14_106)">
<path fill-rule="evenodd" d="M127,1090l23,0l0,-877l-23,0l0,877Z" class="g3_106" />
</g>
<path fill-rule="evenodd" d="M155,308l174,0l0,-95l-174,0l0,95Z" class="g3_106" />
<g clip-path="url(#c15_106)">
<path fill-rule="evenodd" d="M163,236l158,0l0,-23l-158,0l0,23Z" class="g3_106" />
</g>
<path fill-rule="evenodd" d="M330,308l67,0l0,-95l-67,0l0,95Z" class="g3_106" />
<g clip-path="url(#c16_106)">
<path fill-rule="evenodd" d="M338,236l52,0l0,-23l-52,0l0,23Z" class="g3_106" />
</g>
<path fill-rule="evenodd" d="M399,308l488,0l0,-95l-488,0l0,95Z" class="g3_106" />
<g clip-path="url(#c17_106)">
<path fill-rule="evenodd" d="M407,236l473,0l0,-23l-473,0l0,23Z" class="g3_106" />
</g>
<path fill-rule="evenodd" d="M407,260l473,0l0,-24l-473,0l0,24Z" class="g3_106" />
<path fill-rule="evenodd" d="M407,284l473,0l0,-24l-473,0l0,24Z" class="g3_106" />
<path fill-rule="evenodd" d="M407,308l473,0l0,-24l-473,0l0,24Z" class="g3_106" />
<path d="M46.5,212.5l0,-1" class="g2_106" />
<path d="M82.5,212.5l0,-1" class="g2_106" />
<path d="M83.5,212.5l35,0" class="g2_106" />
<path d="M118.5,212.5l0,-1" class="g2_106" />
<path d="M119.5,212.5l35,0" class="g2_106" />
<path d="M154.5,212.5l0,-1" class="g2_106" />
<path d="M155.5,212.5l174,0" class="g2_106" />
<path d="M329.5,212.5l0,-1" class="g2_106" />
<path d="M330.5,212.5l68,0" class="g2_106" />
<path d="M398.5,212.5l0,-1" class="g2_106" />
<path d="M399.5,212.5l488,0" class="g2_106" />
<path d="M887.5,212.5l0,-1" class="g2_106" />
<path d="M46.5,308.5l0,-96" class="g2_106" />
<path d="M82.5,308.5l0,-96" class="g2_106" />
<path d="M118.5,308.5l0,-96" class="g2_106" />
<path d="M154.5,308.5l0,-96" class="g2_106" />
<path d="M329.5,308.5l0,-96" class="g2_106" />
<path d="M398.5,308.5l0,-96" class="g2_106" />
<path d="M887.5,308.5l0,-96" class="g2_106" />
<path fill-rule="evenodd" d="M155,667l174,0l0,-358l-174,0l0,358Z" class="g3_106" />
<g clip-path="url(#c18_106)">
<path fill-rule="evenodd" d="M163,333l158,0l0,-24l-158,0l0,24Z" class="g3_106" />
</g>
<path fill-rule="evenodd" d="M330,667l67,0l0,-358l-67,0l0,358Z" class="g3_106" />
<g clip-path="url(#c19_106)">
<path fill-rule="evenodd" d="M338,333l52,0l0,-24l-52,0l0,24Z" class="g3_106" />
</g>
<path fill-rule="evenodd" d="M399,667l488,0l0,-358l-488,0l0,358Z" class="g3_106" />
<g clip-path="url(#c20_106)">
<path fill-rule="evenodd" d="M407,333l473,0l0,-24l-473,0l0,24Z" class="g3_106" />
</g>
<path fill-rule="evenodd" d="M407,357l473,0l0,-24l-473,0l0,24Z" class="g3_106" />
<path fill-rule="evenodd" d="M407,381l473,0l0,-24l-473,0l0,24Z" class="g3_106" />
<path d="M407.5,377.5l465,0" class="g4_106" />
<path fill-rule="evenodd" d="M407,405l473,0l0,-24l-473,0l0,24Z" class="g3_106" />
<path d="M407.5,401.5l214,0" class="g4_106" />
<path fill-rule="evenodd" d="M407,429l473,0l0,-24l-473,0l0,24Z" class="g3_106" />
<path fill-rule="evenodd" d="M407,452l473,0l0,-23l-473,0l0,23Z" class="g3_106" />
<path fill-rule="evenodd" d="M407,476l473,0l0,-24l-473,0l0,24Z" class="g3_106" />
<path fill-rule="evenodd" d="M407,500l473,0l0,-24l-473,0l0,24Z" class="g3_106" />
<path fill-rule="evenodd" d="M407,524l473,0l0,-24l-473,0l0,24Z" class="g3_106" />
<path fill-rule="evenodd" d="M407,548l473,0l0,-24l-473,0l0,24Z" class="g3_106" />
<path fill-rule="evenodd" d="M407,572l473,0l0,-24l-473,0l0,24Z" class="g3_106" />
<path fill-rule="evenodd" d="M407,595l473,0l0,-23l-473,0l0,23Z" class="g3_106" />
<path fill-rule="evenodd" d="M407,619l473,0l0,-24l-473,0l0,24Z" class="g3_106" />
<path fill-rule="evenodd" d="M407,643l473,0l0,-24l-473,0l0,24Z" class="g3_106" />
<path fill-rule="evenodd" d="M407,667l473,0l0,-24l-473,0l0,24Z" class="g3_106" />
<path d="M46.5,309.5l0,-1" class="g2_106" />
<path d="M82.5,309.5l0,-1" class="g2_106" />
<path d="M118.5,309.5l0,-1" class="g2_106" />
<path d="M154.5,309.5l0,-1" class="g2_106" />
<path d="M155.5,309.5l174,0" class="g2_106" />
<path d="M329.5,309.5l0,-1" class="g2_106" />
<path d="M330.5,309.5l68,0" class="g2_106" />
<path d="M398.5,309.5l0,-1" class="g2_106" />
<path d="M399.5,309.5l488,0" class="g2_106" />
<path d="M887.5,309.5l0,-1" class="g2_106" />
<path d="M46.5,667.5l0,-358" class="g2_106" />
<path d="M82.5,667.5l0,-358" class="g2_106" />
<path d="M118.5,667.5l0,-358" class="g2_106" />
<path d="M154.5,667.5l0,-358" class="g2_106" />
<path d="M329.5,667.5l0,-358" class="g2_106" />
<path d="M398.5,667.5l0,-358" class="g2_106" />
<path d="M887.5,667.5l0,-358" class="g2_106" />
<path fill-rule="evenodd" d="M155,716l174,0l0,-48l-174,0l0,48Z" class="g3_106" />
<g clip-path="url(#c21_106)">
<path fill-rule="evenodd" d="M163,692l158,0l0,-24l-158,0l0,24Z" class="g3_106" />
</g>
<path fill-rule="evenodd" d="M330,716l67,0l0,-48l-67,0l0,48Z" class="g3_106" />
<g clip-path="url(#c22_106)">
<path fill-rule="evenodd" d="M338,692l52,0l0,-24l-52,0l0,24Z" class="g3_106" />
</g>
<path fill-rule="evenodd" d="M399,716l488,0l0,-48l-488,0l0,48Z" class="g3_106" />
<g clip-path="url(#c23_106)">
<path fill-rule="evenodd" d="M407,692l473,0l0,-24l-473,0l0,24Z" class="g3_106" />
</g>
<path fill-rule="evenodd" d="M407,716l473,0l0,-24l-473,0l0,24Z" class="g3_106" />
<path d="M46.5,668.5l0,-1" class="g2_106" />
<path d="M82.5,668.5l0,-1" class="g2_106" />
<path d="M118.5,668.5l0,-1" class="g2_106" />
<path d="M154.5,668.5l0,-1" class="g2_106" />
<path d="M155.5,668.5l174,0" class="g2_106" />
<path d="M329.5,668.5l0,-1" class="g2_106" />
<path d="M330.5,668.5l68,0" class="g2_106" />
<path d="M398.5,668.5l0,-1" class="g2_106" />
<path d="M399.5,668.5l488,0" class="g2_106" />
<path d="M887.5,668.5l0,-1" class="g2_106" />
<path d="M46.5,716.5l0,-48" class="g2_106" />
<path d="M82.5,716.5l0,-48" class="g2_106" />
<path d="M118.5,716.5l0,-48" class="g2_106" />
<path d="M154.5,716.5l0,-48" class="g2_106" />
<path d="M329.5,716.5l0,-48" class="g2_106" />
<path d="M398.5,716.5l0,-48" class="g2_106" />
<path d="M887.5,716.5l0,-48" class="g2_106" />
<path fill-rule="evenodd" d="M155,754l174,0l0,-36l-174,0l0,36Z" class="g3_106" />
<g clip-path="url(#c24_106)">
<path fill-rule="evenodd" d="M163,742l158,0l0,-24l-158,0l0,24Z" class="g3_106" />
</g>
<path fill-rule="evenodd" d="M330,754l67,0l0,-36l-67,0l0,36Z" class="g3_106" />
<g clip-path="url(#c25_106)">
<path fill-rule="evenodd" d="M338,742l52,0l0,-24l-52,0l0,24Z" class="g3_106" />
</g>
<path fill-rule="evenodd" d="M399,754l488,0l0,-36l-488,0l0,36Z" class="g3_106" />
<g clip-path="url(#c26_106)">
<path fill-rule="evenodd" d="M407,742l473,0l0,-24l-473,0l0,24Z" class="g3_106" />
</g>
<path d="M46.5,718.5l0,-2" class="g2_106" />
<path d="M82.5,718.5l0,-2" class="g2_106" />
<path d="M118.5,718.5l0,-2" class="g2_106" />
<path d="M154.5,718.5l0,-2" class="g2_106" />
<path d="M155.5,718.5l174,0" class="g2_106" />
<path d="M329.5,718.5l0,-2" class="g2_106" />
<path d="M330.5,718.5l68,0" class="g2_106" />
<path d="M398.5,718.5l0,-2" class="g2_106" />
<path d="M399.5,718.5l488,0" class="g2_106" />
<path d="M887.5,718.5l0,-2" class="g2_106" />
<path d="M46.5,754.5l0,-36" class="g2_106" />
<path d="M82.5,754.5l0,-36" class="g2_106" />
<path d="M118.5,754.5l0,-36" class="g2_106" />
<path d="M154.5,754.5l0,-36" class="g2_106" />
<path d="M329.5,754.5l0,-36" class="g2_106" />
<path d="M398.5,754.5l0,-36" class="g2_106" />
<path d="M887.5,754.5l0,-36" class="g2_106" />
<path fill-rule="evenodd" d="M155,827l174,0l0,-72l-174,0l0,72Z" class="g3_106" />
<g clip-path="url(#c27_106)">
<path fill-rule="evenodd" d="M163,779l158,0l0,-24l-158,0l0,24Z" class="g3_106" />
</g>
<path fill-rule="evenodd" d="M330,827l67,0l0,-72l-67,0l0,72Z" class="g3_106" />
<g clip-path="url(#c28_106)">
<path fill-rule="evenodd" d="M338,779l52,0l0,-24l-52,0l0,24Z" class="g3_106" />
</g>
<path fill-rule="evenodd" d="M399,827l488,0l0,-72l-488,0l0,72Z" class="g3_106" />
<g clip-path="url(#c29_106)">
<path fill-rule="evenodd" d="M407,779l473,0l0,-24l-473,0l0,24Z" class="g3_106" />
</g>
<path fill-rule="evenodd" d="M407,803l473,0l0,-24l-473,0l0,24Z" class="g3_106" />
<path fill-rule="evenodd" d="M407,827l473,0l0,-24l-473,0l0,24Z" class="g3_106" />
<path d="M46.5,755.5l0,-1" class="g2_106" />
<path d="M82.5,755.5l0,-1" class="g2_106" />
<path d="M118.5,755.5l0,-1" class="g2_106" />
<path d="M154.5,755.5l0,-1" class="g2_106" />
<path d="M155.5,755.5l174,0" class="g2_106" />
<path d="M329.5,755.5l0,-1" class="g2_106" />
<path d="M330.5,755.5l68,0" class="g2_106" />
<path d="M398.5,755.5l0,-1" class="g2_106" />
<path d="M399.5,755.5l488,0" class="g2_106" />
<path d="M887.5,755.5l0,-1" class="g2_106" />
<path d="M46.5,827.5l0,-72" class="g2_106" />
<path d="M82.5,827.5l0,-72" class="g2_106" />
<path d="M118.5,827.5l0,-72" class="g2_106" />
<path d="M154.5,827.5l0,-72" class="g2_106" />
<path d="M329.5,827.5l0,-72" class="g2_106" />
<path d="M398.5,827.5l0,-72" class="g2_106" />
<path d="M887.5,827.5l0,-72" class="g2_106" />
<path fill-rule="evenodd" d="M155,1090l174,0l0,-262l-174,0l0,262Z" class="g3_106" />
<g clip-path="url(#c30_106)">
<path fill-rule="evenodd" d="M163,852l158,0l0,-24l-158,0l0,24Z" class="g3_106" />
</g>
<path fill-rule="evenodd" d="M330,1090l67,0l0,-262l-67,0l0,262Z" class="g3_106" />
<g clip-path="url(#c31_106)">
<path fill-rule="evenodd" d="M338,852l52,0l0,-24l-52,0l0,24Z" class="g3_106" />
</g>
<path fill-rule="evenodd" d="M399,1090l488,0l0,-262l-488,0l0,262Z" class="g3_106" />
<g clip-path="url(#c32_106)">
<path fill-rule="evenodd" d="M407,852l473,0l0,-24l-473,0l0,24Z" class="g3_106" />
</g>
<path fill-rule="evenodd" d="M407,876l473,0l0,-24l-473,0l0,24Z" class="g3_106" />
<path fill-rule="evenodd" d="M407,900l473,0l0,-24l-473,0l0,24Z" class="g3_106" />
<path fill-rule="evenodd" d="M407,924l473,0l0,-24l-473,0l0,24Z" class="g3_106" />
<path fill-rule="evenodd" d="M407,947l473,0l0,-23l-473,0l0,23Z" class="g3_106" />
<path fill-rule="evenodd" d="M407,971l473,0l0,-24l-473,0l0,24Z" class="g3_106" />
<path fill-rule="evenodd" d="M407,995l473,0l0,-24l-473,0l0,24Z" class="g3_106" />
<path fill-rule="evenodd" d="M407,1019l473,0l0,-24l-473,0l0,24Z" class="g3_106" />
<path fill-rule="evenodd" d="M407,1043l473,0l0,-24l-473,0l0,24Z" class="g3_106" />
<path fill-rule="evenodd" d="M407,1067l473,0l0,-24l-473,0l0,24Z" class="g3_106" />
<g clip-path="url(#c32_106)">
<path fill-rule="evenodd" d="M407,1090l473,0l0,-23l-473,0l0,23Z" class="g3_106" />
</g>
<path d="M46.5,828.5l0,-1" class="g2_106" />
<path d="M82.5,828.5l0,-1" class="g2_106" />
<path d="M118.5,828.5l0,-1" class="g2_106" />
<path d="M154.5,828.5l0,-1" class="g2_106" />
<path d="M155.5,828.5l174,0" class="g2_106" />
<path d="M329.5,828.5l0,-1" class="g2_106" />
<path d="M330.5,828.5l68,0" class="g2_106" />
<path d="M398.5,828.5l0,-1" class="g2_106" />
<path d="M399.5,828.5l488,0" class="g2_106" />
<path d="M887.5,828.5l0,-1" class="g2_106" />
<path d="M46.5,1090.5l0,-262" class="g2_106" />
<path d="M46.5,1092.5l0,-2" class="g2_106" />
<path d="M46.5,1092.5l0,-2" class="g2_106" />
<path d="M47.5,1092.5l35,0" class="g2_106" />
<path d="M82.5,1090.5l0,-262" class="g2_106" />
<path d="M82.5,1092.5l0,-2" class="g2_106" />
<path d="M83.5,1092.5l35,0" class="g2_106" />
<path d="M118.5,1090.5l0,-262" class="g2_106" />
<path d="M118.5,1092.5l0,-2" class="g2_106" />
<path d="M119.5,1092.5l35,0" class="g2_106" />
<path d="M154.5,1090.5l0,-262" class="g2_106" />
<path d="M154.5,1092.5l0,-2" class="g2_106" />
<path d="M155.5,1092.5l174,0" class="g2_106" />
<path d="M329.5,1090.5l0,-262" class="g2_106" />
<path d="M329.5,1092.5l0,-2" class="g2_106" />
<path d="M330.5,1092.5l68,0" class="g2_106" />
<path d="M398.5,1090.5l0,-262" class="g2_106" />
<path d="M398.5,1092.5l0,-2" class="g2_106" />
<path d="M399.5,1092.5l488,0" class="g2_106" />
<path d="M887.5,1090.5l0,-262" class="g2_106" />
<path d="M887.5,1092.5l0,-2" class="g2_106" />
<path d="M887.5,1092.5l0,-2" class="g2_106" />
</svg>