<?xml version="1.0" encoding="UTF-8" standalone="no"?>
<!DOCTYPE svg PUBLIC "-//W3C//DTD SVG 1.1//EN"
"http://www.w3.org/Graphics/SVG/1.1/DTD/svg11.dtd">
<svg version="1.1" xmlns="http://www.w3.org/2000/svg" xmlns:xlink="http://www.w3.org/1999/xlink">
<defs>
<clipPath id="c0_460"><path d="M47.5,159.5l0,-24l840,0l0,24Z" /></clipPath>
<clipPath id="c1_460"><path d="M47.5,242.5l0,-24l178,0l0,24Z" /></clipPath>
<clipPath id="c2_460"><path d="M227.5,242.5l0,-24l162,0l0,24Z" /></clipPath>
<clipPath id="c3_460"><path d="M391.5,242.5l0,-24l496,0l0,24Z" /></clipPath>
<clipPath id="c4_460"><path d="M47.5,267.5l0,-24l178,0l0,24Z" /></clipPath>
<clipPath id="c5_460"><path d="M227.5,267.5l0,-24l162,0l0,24Z" /></clipPath>
<clipPath id="c6_460"><path d="M391.5,267.5l0,-24l496,0l0,24Z" /></clipPath>
<clipPath id="c7_460"><path d="M47.5,342.5l0,-24l177,0l0,24Z" /></clipPath>
<clipPath id="c8_460"><path d="M226.5,342.5l0,-24l162,0l0,24Z" /></clipPath>
<clipPath id="c9_460"><path d="M390.5,342.5l0,-24l163,0l0,24Z" /></clipPath>
<clipPath id="c10_460"><path d="M554.5,342.5l0,-24l163,0l0,24Z" /></clipPath>
<clipPath id="c11_460"><path d="M719.5,342.5l0,-24l168,0l0,24Z" /></clipPath>
<clipPath id="c12_460"><path d="M47.5,367.5l0,-24l177,0l0,24Z" /></clipPath>
<clipPath id="c13_460"><path d="M226.5,367.5l0,-24l162,0l0,24Z" /></clipPath>
<clipPath id="c14_460"><path d="M390.5,367.5l0,-24l163,0l0,24Z" /></clipPath>
<clipPath id="c15_460"><path d="M554.5,367.5l0,-24l163,0l0,24Z" /></clipPath>
<clipPath id="c16_460"><path d="M719.5,367.5l0,-24l168,0l0,24Z" /></clipPath>
<clipPath id="c17_460"><path d="M47.5,527.5l0,-24l258,0l0,24Z" /></clipPath>
<clipPath id="c18_460"><path d="M306.5,527.5l0,-24l79,0l0,24Z" /></clipPath>
<clipPath id="c19_460"><path d="M386.5,527.5l0,-24l75,0l0,24Z" /></clipPath>
<clipPath id="c20_460"><path d="M463.5,527.5l0,-24l424,0l0,24Z" /></clipPath>
<clipPath id="c21_460"><path d="M47.5,1087.5l0,-558l39,0l0,558Z" /></clipPath>
<clipPath id="c22_460"><path d="M88.5,1087.5l0,-532l39,0l0,532Z" /></clipPath>
<clipPath id="c23_460"><path d="M129.5,1087.5l0,-532l39,0l0,532Z" /></clipPath>
<clipPath id="c24_460"><path d="M169.5,666.5l0,-111l40,0l0,111Z" /></clipPath>
<clipPath id="c25_460"><path d="M169.5,771.5l0,-103l136,0l0,103Z" /></clipPath>
<clipPath id="c26_460"><path d="M306.5,771.5l0,-103l79,0l0,103Z" /></clipPath>
<clipPath id="c27_460"><path d="M386.5,771.5l0,-103l75,0l0,103Z" /></clipPath>
<clipPath id="c28_460"><path d="M463.5,771.5l0,-103l424,0l0,103Z" /></clipPath>
<clipPath id="c29_460"><path d="M169.5,820.5l0,-47l136,0l0,47Z" /></clipPath>
<clipPath id="c30_460"><path d="M306.5,820.5l0,-47l79,0l0,47Z" /></clipPath>
<clipPath id="c31_460"><path d="M386.5,820.5l0,-47l75,0l0,47Z" /></clipPath>
<clipPath id="c32_460"><path d="M463.5,820.5l0,-47l424,0l0,47Z" /></clipPath>
<clipPath id="c33_460"><path d="M463.5,989.5l0,-167l424,0l0,167Z" /></clipPath>
<clipPath id="c34_460"><path d="M463.5,1038.5l0,-48l424,0l0,48Z" /></clipPath>
<clipPath id="c35_460"><path d="M463.5,1087.5l0,-48l424,0l0,48Z" /></clipPath>
<style type="text/css"><![CDATA[
.g2_460{
fill: none;
stroke: #7E7E7E;
stroke-width: 1;
stroke-linecap: butt;
stroke-linejoin: miter;
}
.g3_460{
fill: #DBE5F1;
}
.g1_460{
fill: #F1F1F1;
}
]]></style>
</defs>
<path fill-rule="evenodd" d="M47,159l840,0l0,-24L47,135l0,24Z" class="g1_460" />
<g clip-path="url(#c0_460)">
<path fill-rule="evenodd" d="M55,159l825,0l0,-24L55,135l0,24Z" class="g1_460" />
</g>
<path d="M46.5,135.5l0,-2" class="g2_460" />
<path d="M46.5,135.5l0,-2" class="g2_460" />
<path d="M47.5,135.5l840,0" class="g2_460" />
<path d="M887.5,135.5l0,-2" class="g2_460" />
<path d="M887.5,135.5l0,-2" class="g2_460" />
<path d="M46.5,159.5l0,-24" class="g2_460" />
<path d="M46.5,160.5l0,-1" class="g2_460" />
<path d="M46.5,160.5l0,-1" class="g2_460" />
<path d="M47.5,160.5l840,0" class="g2_460" />
<path d="M887.5,159.5l0,-24" class="g2_460" />
<path d="M887.5,160.5l0,-1" class="g2_460" />
<path d="M887.5,160.5l0,-1" class="g2_460" />
<path fill-rule="evenodd" d="M47,242l178,0l0,-24L47,218l0,24Z" class="g3_460" />
<g clip-path="url(#c1_460)">
<path fill-rule="evenodd" d="M55,242l162,0l0,-24L55,218l0,24Z" class="g3_460" />
</g>
<path fill-rule="evenodd" d="M226,242l163,0l0,-24l-163,0l0,24Z" class="g3_460" />
<g clip-path="url(#c2_460)">
<path fill-rule="evenodd" d="M234,242l148,0l0,-24l-148,0l0,24Z" class="g3_460" />
</g>
<path fill-rule="evenodd" d="M391,242l496,0l0,-24l-496,0l0,24Z" class="g3_460" />
<g clip-path="url(#c3_460)">
<path fill-rule="evenodd" d="M398,242l482,0l0,-24l-482,0l0,24Z" class="g3_460" />
</g>
<path d="M46.5,218.5l0,-1" class="g2_460" />
<path d="M46.5,218.5l0,-1" class="g2_460" />
<path d="M47.5,218.5l178,0" class="g2_460" />
<path d="M225.5,218.5l0,-1" class="g2_460" />
<path d="M226.5,218.5l163,0" class="g2_460" />
<path d="M389.5,218.5l0,-1" class="g2_460" />
<path d="M391.5,218.5l496,0" class="g2_460" />
<path d="M887.5,218.5l0,-1" class="g2_460" />
<path d="M887.5,218.5l0,-1" class="g2_460" />
<path d="M46.5,242.5l0,-24" class="g2_460" />
<path d="M225.5,242.5l0,-24" class="g2_460" />
<path d="M389.5,242.5l0,-24" class="g2_460" />
<path d="M887.5,242.5l0,-24" class="g2_460" />
<path fill-rule="evenodd" d="M47,267l178,0l0,-24L47,243l0,24Z" class="g1_460" />
<g clip-path="url(#c4_460)">
<path fill-rule="evenodd" d="M55,267l162,0l0,-24L55,243l0,24Z" class="g1_460" />
</g>
<path fill-rule="evenodd" d="M226,267l163,0l0,-24l-163,0l0,24Z" class="g1_460" />
<g clip-path="url(#c5_460)">
<path fill-rule="evenodd" d="M234,267l148,0l0,-24l-148,0l0,24Z" class="g1_460" />
</g>
<path fill-rule="evenodd" d="M391,267l496,0l0,-24l-496,0l0,24Z" class="g1_460" />
<g clip-path="url(#c6_460)">
<path fill-rule="evenodd" d="M398,267l482,0l0,-24l-482,0l0,24Z" class="g1_460" />
</g>
<path d="M46.5,243.5l0,-1" class="g2_460" />
<path d="M47.5,243.5l178,0" class="g2_460" />
<path d="M225.5,243.5l0,-1" class="g2_460" />
<path d="M226.5,243.5l163,0" class="g2_460" />
<path d="M389.5,243.5l0,-1" class="g2_460" />
<path d="M391.5,243.5l496,0" class="g2_460" />
<path d="M887.5,243.5l0,-1" class="g2_460" />
<path d="M46.5,267.5l0,-24" class="g2_460" />
<path d="M46.5,269.5l0,-2" class="g2_460" />
<path d="M46.5,269.5l0,-2" class="g2_460" />
<path d="M47.5,269.5l178,0" class="g2_460" />
<path d="M225.5,267.5l0,-24" class="g2_460" />
<path d="M225.5,269.5l0,-2" class="g2_460" />
<path d="M226.5,269.5l163,0" class="g2_460" />
<path d="M389.5,267.5l0,-24" class="g2_460" />
<path d="M389.5,269.5l0,-2" class="g2_460" />
<path d="M391.5,269.5l496,0" class="g2_460" />
<path d="M887.5,267.5l0,-24" class="g2_460" />
<path d="M887.5,269.5l0,-2" class="g2_460" />
<path d="M887.5,269.5l0,-2" class="g2_460" />
<path fill-rule="evenodd" d="M47,342l177,0l0,-24L47,318l0,24Z" class="g3_460" />
<g clip-path="url(#c7_460)">
<path fill-rule="evenodd" d="M55,342l162,0l0,-24L55,318l0,24Z" class="g3_460" />
</g>
<path fill-rule="evenodd" d="M226,342l162,0l0,-24l-162,0l0,24Z" class="g3_460" />
<g clip-path="url(#c8_460)">
<path fill-rule="evenodd" d="M233,342l148,0l0,-24l-148,0l0,24Z" class="g3_460" />
</g>
<path fill-rule="evenodd" d="M390,342l163,0l0,-24l-163,0l0,24Z" class="g3_460" />
<g clip-path="url(#c9_460)">
<path fill-rule="evenodd" d="M397,342l148,0l0,-24l-148,0l0,24Z" class="g3_460" />
</g>
<path fill-rule="evenodd" d="M554,342l163,0l0,-24l-163,0l0,24Z" class="g3_460" />
<g clip-path="url(#c10_460)">
<path fill-rule="evenodd" d="M562,342l148,0l0,-24l-148,0l0,24Z" class="g3_460" />
</g>
<path fill-rule="evenodd" d="M719,342l168,0l0,-24l-168,0l0,24Z" class="g3_460" />
<g clip-path="url(#c11_460)">
<path fill-rule="evenodd" d="M726,342l154,0l0,-24l-154,0l0,24Z" class="g3_460" />
</g>
<path d="M46.5,318.5l0,-1" class="g2_460" />
<path d="M46.5,318.5l0,-1" class="g2_460" />
<path d="M47.5,318.5l177,0" class="g2_460" />
<path d="M224.5,318.5l0,-1" class="g2_460" />
<path d="M226.5,318.5l162,0" class="g2_460" />
<path d="M388.5,318.5l0,-1" class="g2_460" />
<path d="M390.5,318.5l163,0" class="g2_460" />
<path d="M553.5,318.5l0,-1" class="g2_460" />
<path d="M554.5,318.5l163,0" class="g2_460" />
<path d="M717.5,318.5l0,-1" class="g2_460" />
<path d="M719.5,318.5l168,0" class="g2_460" />
<path d="M887.5,318.5l0,-1" class="g2_460" />
<path d="M887.5,318.5l0,-1" class="g2_460" />
<path d="M46.5,342.5l0,-24" class="g2_460" />
<path d="M224.5,342.5l0,-24" class="g2_460" />
<path d="M388.5,342.5l0,-24" class="g2_460" />
<path d="M553.5,342.5l0,-24" class="g2_460" />
<path d="M717.5,342.5l0,-24" class="g2_460" />
<path d="M887.5,342.5l0,-24" class="g2_460" />
<path fill-rule="evenodd" d="M47,367l177,0l0,-24L47,343l0,24Z" class="g1_460" />
<g clip-path="url(#c12_460)">
<path fill-rule="evenodd" d="M55,367l162,0l0,-24L55,343l0,24Z" class="g1_460" />
</g>
<path fill-rule="evenodd" d="M226,367l162,0l0,-24l-162,0l0,24Z" class="g1_460" />
<g clip-path="url(#c13_460)">
<path fill-rule="evenodd" d="M233,367l148,0l0,-24l-148,0l0,24Z" class="g1_460" />
</g>
<path fill-rule="evenodd" d="M390,367l163,0l0,-24l-163,0l0,24Z" class="g1_460" />
<g clip-path="url(#c14_460)">
<path fill-rule="evenodd" d="M397,367l148,0l0,-24l-148,0l0,24Z" class="g1_460" />
</g>
<path fill-rule="evenodd" d="M554,367l163,0l0,-24l-163,0l0,24Z" class="g1_460" />
<g clip-path="url(#c15_460)">
<path fill-rule="evenodd" d="M562,367l148,0l0,-24l-148,0l0,24Z" class="g1_460" />
</g>
<path fill-rule="evenodd" d="M719,367l168,0l0,-24l-168,0l0,24Z" class="g1_460" />
<g clip-path="url(#c16_460)">
<path fill-rule="evenodd" d="M726,367l154,0l0,-24l-154,0l0,24Z" class="g1_460" />
</g>
<path d="M46.5,343.5l0,-1" class="g2_460" />
<path d="M47.5,343.5l177,0" class="g2_460" />
<path d="M224.5,343.5l0,-1" class="g2_460" />
<path d="M226.5,343.5l162,0" class="g2_460" />
<path d="M388.5,343.5l0,-1" class="g2_460" />
<path d="M390.5,343.5l163,0" class="g2_460" />
<path d="M553.5,343.5l0,-1" class="g2_460" />
<path d="M554.5,343.5l163,0" class="g2_460" />
<path d="M717.5,343.5l0,-1" class="g2_460" />
<path d="M719.5,343.5l168,0" class="g2_460" />
<path d="M887.5,343.5l0,-1" class="g2_460" />
<path d="M46.5,367.5l0,-24" class="g2_460" />
<path d="M46.5,369.5l0,-2" class="g2_460" />
<path d="M46.5,369.5l0,-2" class="g2_460" />
<path d="M47.5,369.5l177,0" class="g2_460" />
<path d="M224.5,367.5l0,-24" class="g2_460" />
<path d="M224.5,369.5l0,-2" class="g2_460" />
<path d="M226.5,369.5l162,0" class="g2_460" />
<path d="M388.5,367.5l0,-24" class="g2_460" />
<path d="M388.5,369.5l0,-2" class="g2_460" />
<path d="M390.5,369.5l163,0" class="g2_460" />
<path d="M553.5,367.5l0,-24" class="g2_460" />
<path d="M553.5,369.5l0,-2" class="g2_460" />
<path d="M554.5,369.5l163,0" class="g2_460" />
<path d="M717.5,367.5l0,-24" class="g2_460" />
<path d="M717.5,369.5l0,-2" class="g2_460" />
<path d="M719.5,369.5l168,0" class="g2_460" />
<path d="M887.5,367.5l0,-24" class="g2_460" />
<path d="M887.5,369.5l0,-2" class="g2_460" />
<path d="M887.5,369.5l0,-2" class="g2_460" />
<path fill-rule="evenodd" d="M47,527l258,0l0,-24L47,503l0,24Z" class="g3_460" />
<g clip-path="url(#c17_460)">
<path fill-rule="evenodd" d="M55,526l242,0l0,-23L55,503l0,23Z" class="g3_460" />
</g>
<path fill-rule="evenodd" d="M306,527l79,0l0,-24l-79,0l0,24Z" class="g3_460" />
<g clip-path="url(#c18_460)">
<path fill-rule="evenodd" d="M314,526l63,0l0,-23l-63,0l0,23Z" class="g3_460" />
</g>
<path fill-rule="evenodd" d="M386,527l75,0l0,-24l-75,0l0,24Z" class="g3_460" />
<g clip-path="url(#c19_460)">
<path fill-rule="evenodd" d="M394,526l60,0l0,-23l-60,0l0,23Z" class="g3_460" />
</g>
<path fill-rule="evenodd" d="M463,527l424,0l0,-24l-424,0l0,24Z" class="g3_460" />
<g clip-path="url(#c20_460)">
<path fill-rule="evenodd" d="M470,526l410,0l0,-23l-410,0l0,23Z" class="g3_460" />
</g>
<path d="M46.5,503.5l0,-2" class="g2_460" />
<path d="M46.5,503.5l0,-2" class="g2_460" />
<path d="M47.5,503.5l258,0" class="g2_460" />
<path d="M305.5,503.5l0,-2" class="g2_460" />
<path d="M306.5,503.5l79,0" class="g2_460" />
<path d="M385.5,503.5l0,-2" class="g2_460" />
<path d="M386.5,503.5l75,0" class="g2_460" />
<path d="M461.5,503.5l0,-2" class="g2_460" />
<path d="M463.5,503.5l424,0" class="g2_460" />
<path d="M887.5,503.5l0,-2" class="g2_460" />
<path d="M887.5,503.5l0,-2" class="g2_460" />
<path d="M46.5,527.5l0,-24" class="g2_460" />
<path d="M305.5,527.5l0,-24" class="g2_460" />
<path d="M385.5,527.5l0,-24" class="g2_460" />
<path d="M461.5,527.5l0,-24" class="g2_460" />
<path d="M887.5,527.5l0,-24" class="g2_460" />
<path fill-rule="evenodd" d="M47,1087l39,0L86,529l-39,0l0,558Z" class="g1_460" />
<g clip-path="url(#c21_460)">
<path fill-rule="evenodd" d="M55,1087l23,0L78,529l-23,0l0,558Z" class="g1_460" />
</g>
<path fill-rule="evenodd" d="M88,553l217,0l0,-24L88,529l0,24Z" class="g1_460" />
<path fill-rule="evenodd" d="M95,553l202,0l0,-24L95,529l0,24Z" class="g1_460" />
<path fill-rule="evenodd" d="M306,553l79,0l0,-24l-79,0l0,24Z" class="g1_460" />
<path fill-rule="evenodd" d="M314,553l63,0l0,-24l-63,0l0,24Z" class="g1_460" />
<path fill-rule="evenodd" d="M386,553l75,0l0,-24l-75,0l0,24Z" class="g1_460" />
<path fill-rule="evenodd" d="M394,553l60,0l0,-24l-60,0l0,24Z" class="g1_460" />
<path fill-rule="evenodd" d="M463,553l424,0l0,-24l-424,0l0,24Z" class="g1_460" />
<path fill-rule="evenodd" d="M470,553l410,0l0,-24l-410,0l0,24Z" class="g1_460" />
<path d="M46.5,528.5l0,-1" class="g2_460" />
<path d="M47.5,528.5l39,0" class="g2_460" />
<path d="M86.5,528.5l0,-1" class="g2_460" />
<path d="M88.5,528.5l217,0" class="g2_460" />
<path d="M305.5,528.5l0,-1" class="g2_460" />
<path d="M306.5,528.5l79,0" class="g2_460" />
<path d="M385.5,528.5l0,-1" class="g2_460" />
<path d="M386.5,528.5l75,0" class="g2_460" />
<path d="M461.5,528.5l0,-1" class="g2_460" />
<path d="M463.5,528.5l424,0" class="g2_460" />
<path d="M887.5,528.5l0,-1" class="g2_460" />
<path d="M46.5,553.5l0,-25" class="g2_460" />
<path d="M86.5,553.5l0,-25" class="g2_460" />
<path d="M305.5,553.5l0,-25" class="g2_460" />
<path d="M385.5,553.5l0,-25" class="g2_460" />
<path d="M461.5,553.5l0,-25" class="g2_460" />
<path d="M887.5,553.5l0,-25" class="g2_460" />
<path fill-rule="evenodd" d="M88,1087l39,0l0,-532l-39,0l0,532Z" class="g1_460" />
<g clip-path="url(#c22_460)">
<path fill-rule="evenodd" d="M95,1087l24,0l0,-532l-24,0l0,532Z" class="g1_460" />
</g>
<path fill-rule="evenodd" d="M129,1087l39,0l0,-532l-39,0l0,532Z" class="g1_460" />
<g clip-path="url(#c23_460)">
<path fill-rule="evenodd" d="M136,1087l24,0l0,-532l-24,0l0,532Z" class="g1_460" />
</g>
<path fill-rule="evenodd" d="M169,666l40,0l0,-111l-40,0l0,111Z" class="g1_460" />
<g clip-path="url(#c24_460)">
<path fill-rule="evenodd" d="M177,666l24,0l0,-111l-24,0l0,111Z" class="g1_460" />
</g>
<path fill-rule="evenodd" d="M210,666l95,0l0,-111l-95,0l0,111Z" class="g1_460" />
<path fill-rule="evenodd" d="M218,578l79,0l0,-23l-79,0l0,23Z" class="g1_460" />
<path fill-rule="evenodd" d="M306,666l79,0l0,-111l-79,0l0,111Z" class="g1_460" />
<path fill-rule="evenodd" d="M314,578l63,0l0,-23l-63,0l0,23Z" class="g1_460" />
<path fill-rule="evenodd" d="M386,666l75,0l0,-111l-75,0l0,111Z" class="g1_460" />
<path fill-rule="evenodd" d="M394,578l60,0l0,-23l-60,0l0,23Z" class="g1_460" />
<path fill-rule="evenodd" d="M463,666l424,0l0,-111l-424,0l0,111Z" class="g1_460" />
<path fill-rule="evenodd" d="M470,578l410,0l0,-23l-410,0l0,23Z" class="g1_460" />
<path fill-rule="evenodd" d="M470,602l410,0l0,-24l-410,0l0,24Z" class="g1_460" />
<path d="M46.5,555.5l0,-2" class="g2_460" />
<path d="M86.5,555.5l0,-2" class="g2_460" />
<path d="M88.5,555.5l39,0" class="g2_460" />
<path d="M127.5,555.5l0,-2" class="g2_460" />
<path d="M129.5,555.5l39,0" class="g2_460" />
<path d="M168.5,555.5l0,-2" class="g2_460" />
<path d="M169.5,555.5l40,0" class="g2_460" />
<path d="M209.5,555.5l0,-2" class="g2_460" />
<path d="M210.5,555.5l95,0" class="g2_460" />
<path d="M305.5,555.5l0,-2" class="g2_460" />
<path d="M306.5,555.5l79,0" class="g2_460" />
<path d="M385.5,555.5l0,-2" class="g2_460" />
<path d="M386.5,555.5l75,0" class="g2_460" />
<path d="M461.5,555.5l0,-2" class="g2_460" />
<path d="M463.5,555.5l424,0" class="g2_460" />
<path d="M887.5,555.5l0,-2" class="g2_460" />
<path d="M46.5,666.5l0,-111" class="g2_460" />
<path d="M86.5,666.5l0,-111" class="g2_460" />
<path d="M127.5,666.5l0,-111" class="g2_460" />
<path d="M168.5,666.5l0,-111" class="g2_460" />
<path d="M209.5,666.5l0,-111" class="g2_460" />
<path d="M305.5,666.5l0,-111" class="g2_460" />
<path d="M385.5,666.5l0,-111" class="g2_460" />
<path d="M461.5,666.5l0,-111" class="g2_460" />
<path d="M887.5,666.5l0,-111" class="g2_460" />
<path fill-rule="evenodd" d="M169,771l136,0l0,-103l-136,0l0,103Z" class="g1_460" />
<g clip-path="url(#c25_460)">
<path fill-rule="evenodd" d="M177,692l120,0l0,-24l-120,0l0,24Z" class="g1_460" />
</g>
<path fill-rule="evenodd" d="M306,771l79,0l0,-103l-79,0l0,103Z" class="g1_460" />
<g clip-path="url(#c26_460)">
<path fill-rule="evenodd" d="M314,692l63,0l0,-24l-63,0l0,24Z" class="g1_460" />
</g>
<path fill-rule="evenodd" d="M386,771l75,0l0,-103l-75,0l0,103Z" class="g1_460" />
<g clip-path="url(#c27_460)">
<path fill-rule="evenodd" d="M394,692l60,0l0,-24l-60,0l0,24Z" class="g1_460" />
</g>
<path fill-rule="evenodd" d="M463,771l424,0l0,-103l-424,0l0,103Z" class="g1_460" />
<g clip-path="url(#c28_460)">
<path fill-rule="evenodd" d="M470,692l410,0l0,-24l-410,0l0,24Z" class="g1_460" />
</g>
<path fill-rule="evenodd" d="M470,716l410,0l0,-24l-410,0l0,24Z" class="g1_460" />
<path fill-rule="evenodd" d="M470,740l410,0l0,-24l-410,0l0,24Z" class="g1_460" />
<path fill-rule="evenodd" d="M470,763l410,0l0,-23l-410,0l0,23Z" class="g1_460" />
<path d="M46.5,668.5l0,-2" class="g2_460" />
<path d="M86.5,668.5l0,-2" class="g2_460" />
<path d="M127.5,668.5l0,-2" class="g2_460" />
<path d="M168.5,668.5l0,-2" class="g2_460" />
<path d="M169.5,668.5l40,0" class="g2_460" />
<path d="M209.5,668.5l0,-2" class="g2_460" />
<path d="M210.5,668.5l95,0" class="g2_460" />
<path d="M305.5,668.5l0,-2" class="g2_460" />
<path d="M306.5,668.5l79,0" class="g2_460" />
<path d="M385.5,668.5l0,-2" class="g2_460" />
<path d="M386.5,668.5l75,0" class="g2_460" />
<path d="M461.5,668.5l0,-2" class="g2_460" />
<path d="M463.5,668.5l424,0" class="g2_460" />
<path d="M887.5,668.5l0,-2" class="g2_460" />
<path d="M46.5,771.5l0,-103" class="g2_460" />
<path d="M86.5,771.5l0,-103" class="g2_460" />
<path d="M127.5,771.5l0,-103" class="g2_460" />
<path d="M168.5,771.5l0,-103" class="g2_460" />
<path d="M305.5,771.5l0,-103" class="g2_460" />
<path d="M385.5,771.5l0,-103" class="g2_460" />
<path d="M461.5,771.5l0,-103" class="g2_460" />
<path d="M887.5,771.5l0,-103" class="g2_460" />
<path fill-rule="evenodd" d="M169,820l136,0l0,-47l-136,0l0,47Z" class="g1_460" />
<g clip-path="url(#c29_460)">
<path fill-rule="evenodd" d="M177,796l120,0l0,-23l-120,0l0,23Z" class="g1_460" />
</g>
<path fill-rule="evenodd" d="M306,820l79,0l0,-47l-79,0l0,47Z" class="g1_460" />
<g clip-path="url(#c30_460)">
<path fill-rule="evenodd" d="M314,796l63,0l0,-23l-63,0l0,23Z" class="g1_460" />
</g>
<path fill-rule="evenodd" d="M386,820l75,0l0,-47l-75,0l0,47Z" class="g1_460" />
<g clip-path="url(#c31_460)">
<path fill-rule="evenodd" d="M394,796l60,0l0,-23l-60,0l0,23Z" class="g1_460" />
</g>
<path fill-rule="evenodd" d="M463,820l424,0l0,-47l-424,0l0,47Z" class="g1_460" />
<g clip-path="url(#c32_460)">
<path fill-rule="evenodd" d="M470,796l410,0l0,-23l-410,0l0,23Z" class="g1_460" />
</g>
<path fill-rule="evenodd" d="M470,820l410,0l0,-24l-410,0l0,24Z" class="g1_460" />
<path d="M46.5,772.5l0,-1" class="g2_460" />
<path d="M86.5,772.5l0,-1" class="g2_460" />
<path d="M127.5,772.5l0,-1" class="g2_460" />
<path d="M168.5,772.5l0,-1" class="g2_460" />
<path d="M169.5,772.5l136,0" class="g2_460" />
<path d="M305.5,772.5l0,-1" class="g2_460" />
<path d="M306.5,772.5l79,0" class="g2_460" />
<path d="M385.5,772.5l0,-1" class="g2_460" />
<path d="M386.5,772.5l75,0" class="g2_460" />
<path d="M461.5,772.5l0,-1" class="g2_460" />
<path d="M463.5,772.5l424,0" class="g2_460" />
<path d="M887.5,772.5l0,-1" class="g2_460" />
<path d="M46.5,820.5l0,-48" class="g2_460" />
<path d="M86.5,820.5l0,-48" class="g2_460" />
<path d="M127.5,820.5l0,-48" class="g2_460" />
<path d="M168.5,820.5l0,-48" class="g2_460" />
<path d="M305.5,820.5l0,-48" class="g2_460" />
<path d="M385.5,820.5l0,-48" class="g2_460" />
<path d="M461.5,820.5l0,-48" class="g2_460" />
<path d="M887.5,820.5l0,-48" class="g2_460" />
<path fill-rule="evenodd" d="M169,989l136,0l0,-167l-136,0l0,167Z" class="g1_460" />
<path fill-rule="evenodd" d="M177,846l120,0l0,-24l-120,0l0,24Z" class="g1_460" />
<path fill-rule="evenodd" d="M306,989l79,0l0,-167l-79,0l0,167Z" class="g1_460" />
<path fill-rule="evenodd" d="M314,846l63,0l0,-24l-63,0l0,24Z" class="g1_460" />
<path fill-rule="evenodd" d="M386,989l75,0l0,-167l-75,0l0,167Z" class="g1_460" />
<path fill-rule="evenodd" d="M394,846l60,0l0,-24l-60,0l0,24Z" class="g1_460" />
<path fill-rule="evenodd" d="M463,989l424,0l0,-167l-424,0l0,167Z" class="g1_460" />
<path fill-rule="evenodd" d="M470,846l410,0l0,-24l-410,0l0,24Z" class="g1_460" />
<path fill-rule="evenodd" d="M470,869l410,0l0,-23l-410,0l0,23Z" class="g1_460" />
<path fill-rule="evenodd" d="M470,893l410,0l0,-24l-410,0l0,24Z" class="g1_460" />
<path fill-rule="evenodd" d="M470,917l410,0l0,-24l-410,0l0,24Z" class="g1_460" />
<path fill-rule="evenodd" d="M470,941l410,0l0,-24l-410,0l0,24Z" class="g1_460" />
<path fill-rule="evenodd" d="M470,965l410,0l0,-24l-410,0l0,24Z" class="g1_460" />
<g clip-path="url(#c33_460)">
<path fill-rule="evenodd" d="M470,989l410,0l0,-24l-410,0l0,24Z" class="g1_460" />
</g>
<path d="M46.5,822.5l0,-2" class="g2_460" />
<path d="M86.5,822.5l0,-2" class="g2_460" />
<path d="M127.5,822.5l0,-2" class="g2_460" />
<path d="M168.5,822.5l0,-2" class="g2_460" />
<path d="M169.5,822.5l136,0" class="g2_460" />
<path d="M305.5,822.5l0,-2" class="g2_460" />
<path d="M306.5,822.5l79,0" class="g2_460" />
<path d="M385.5,822.5l0,-2" class="g2_460" />
<path d="M386.5,822.5l75,0" class="g2_460" />
<path d="M461.5,822.5l0,-2" class="g2_460" />
<path d="M463.5,822.5l424,0" class="g2_460" />
<path d="M887.5,822.5l0,-2" class="g2_460" />
<path d="M46.5,989.5l0,-167" class="g2_460" />
<path d="M86.5,989.5l0,-167" class="g2_460" />
<path d="M127.5,989.5l0,-167" class="g2_460" />
<path d="M168.5,989.5l0,-167" class="g2_460" />
<path d="M305.5,989.5l0,-167" class="g2_460" />
<path d="M385.5,989.5l0,-167" class="g2_460" />
<path d="M461.5,989.5l0,-167" class="g2_460" />
<path d="M887.5,989.5l0,-167" class="g2_460" />
<path fill-rule="evenodd" d="M169,1038l136,0l0,-48l-136,0l0,48Z" class="g1_460" />
<path fill-rule="evenodd" d="M177,1014l120,0l0,-24l-120,0l0,24Z" class="g1_460" />
<path fill-rule="evenodd" d="M306,1038l79,0l0,-48l-79,0l0,48Z" class="g1_460" />
<path fill-rule="evenodd" d="M314,1014l63,0l0,-24l-63,0l0,24Z" class="g1_460" />
<path fill-rule="evenodd" d="M386,1038l75,0l0,-48l-75,0l0,48Z" class="g1_460" />
<path fill-rule="evenodd" d="M394,1014l60,0l0,-24l-60,0l0,24Z" class="g1_460" />
<path fill-rule="evenodd" d="M463,1038l424,0l0,-48l-424,0l0,48Z" class="g1_460" />
<path fill-rule="evenodd" d="M470,1014l410,0l0,-24l-410,0l0,24Z" class="g1_460" />
<g clip-path="url(#c34_460)">
<path fill-rule="evenodd" d="M470,1038l410,0l0,-24l-410,0l0,24Z" class="g1_460" />
</g>
<path d="M46.5,990.5l0,-1" class="g2_460" />
<path d="M86.5,990.5l0,-1" class="g2_460" />
<path d="M127.5,990.5l0,-1" class="g2_460" />
<path d="M168.5,990.5l0,-1" class="g2_460" />
<path d="M169.5,990.5l136,0" class="g2_460" />
<path d="M305.5,990.5l0,-1" class="g2_460" />
<path d="M306.5,990.5l79,0" class="g2_460" />
<path d="M385.5,990.5l0,-1" class="g2_460" />
<path d="M386.5,990.5l75,0" class="g2_460" />
<path d="M461.5,990.5l0,-1" class="g2_460" />
<path d="M463.5,990.5l424,0" class="g2_460" />
<path d="M887.5,990.5l0,-1" class="g2_460" />
<path d="M46.5,1038.5l0,-48" class="g2_460" />
<path d="M86.5,1038.5l0,-48" class="g2_460" />
<path d="M127.5,1038.5l0,-48" class="g2_460" />
<path d="M168.5,1038.5l0,-48" class="g2_460" />
<path d="M305.5,1038.5l0,-48" class="g2_460" />
<path d="M385.5,1038.5l0,-48" class="g2_460" />
<path d="M461.5,1038.5l0,-48" class="g2_460" />
<path d="M887.5,1038.5l0,-48" class="g2_460" />
<path fill-rule="evenodd" d="M169,1087l136,0l0,-48l-136,0l0,48Z" class="g1_460" />
<path fill-rule="evenodd" d="M177,1063l120,0l0,-24l-120,0l0,24Z" class="g1_460" />
<path fill-rule="evenodd" d="M306,1087l79,0l0,-48l-79,0l0,48Z" class="g1_460" />
<path fill-rule="evenodd" d="M314,1063l63,0l0,-24l-63,0l0,24Z" class="g1_460" />
<path fill-rule="evenodd" d="M386,1087l75,0l0,-48l-75,0l0,48Z" class="g1_460" />
<path fill-rule="evenodd" d="M394,1063l60,0l0,-24l-60,0l0,24Z" class="g1_460" />
<path fill-rule="evenodd" d="M463,1087l424,0l0,-48l-424,0l0,48Z" class="g1_460" />
<path fill-rule="evenodd" d="M470,1063l410,0l0,-24l-410,0l0,24Z" class="g1_460" />
<g clip-path="url(#c35_460)">
<path fill-rule="evenodd" d="M470,1087l410,0l0,-24l-410,0l0,24Z" class="g1_460" />
</g>
<path d="M46.5,1039.5l0,-1" class="g2_460" />
<path d="M86.5,1039.5l0,-1" class="g2_460" />
<path d="M127.5,1039.5l0,-1" class="g2_460" />
<path d="M168.5,1039.5l0,-1" class="g2_460" />
<path d="M169.5,1039.5l136,0" class="g2_460" />
<path d="M305.5,1039.5l0,-1" class="g2_460" />
<path d="M306.5,1039.5l79,0" class="g2_460" />
<path d="M385.5,1039.5l0,-1" class="g2_460" />
<path d="M386.5,1039.5l75,0" class="g2_460" />
<path d="M461.5,1039.5l0,-1" class="g2_460" />
<path d="M463.5,1039.5l424,0" class="g2_460" />
<path d="M887.5,1039.5l0,-1" class="g2_460" />
<path d="M46.5,1087.5l0,-48" class="g2_460" />
<path d="M46.5,1088.5l0,-1" class="g2_460" />
<path d="M46.5,1088.5l0,-1" class="g2_460" />
<path d="M47.5,1088.5l39,0" class="g2_460" />
<path d="M86.5,1087.5l0,-48" class="g2_460" />
<path d="M86.5,1088.5l0,-1" class="g2_460" />
<path d="M88.5,1088.5l39,0" class="g2_460" />
<path d="M127.5,1087.5l0,-48" class="g2_460" />
<path d="M127.5,1088.5l0,-1" class="g2_460" />
<path d="M129.5,1088.5l39,0" class="g2_460" />
<path d="M168.5,1087.5l0,-48" class="g2_460" />
<path d="M168.5,1088.5l0,-1" class="g2_460" />
<path d="M169.5,1088.5l136,0" class="g2_460" />
<path d="M305.5,1087.5l0,-48" class="g2_460" />
<path d="M305.5,1088.5l0,-1" class="g2_460" />
<path d="M306.5,1088.5l79,0" class="g2_460" />
<path d="M385.5,1087.5l0,-48" class="g2_460" />
<path d="M385.5,1088.5l0,-1" class="g2_460" />
<path d="M386.5,1088.5l75,0" class="g2_460" />
<path d="M461.5,1087.5l0,-48" class="g2_460" />
<path d="M461.5,1088.5l0,-1" class="g2_460" />
<path d="M463.5,1088.5l424,0" class="g2_460" />
<path d="M887.5,1087.5l0,-48" class="g2_460" />
<path d="M887.5,1088.5l0,-1" class="g2_460" />
<path d="M887.5,1088.5l0,-1" class="g2_460" />
</svg>