<?xml version="1.0" encoding="UTF-8" standalone="no"?>
<!DOCTYPE svg PUBLIC "-//W3C//DTD SVG 1.1//EN"
"http://www.w3.org/Graphics/SVG/1.1/DTD/svg11.dtd">
<svg version="1.1" xmlns="http://www.w3.org/2000/svg" xmlns:xlink="http://www.w3.org/1999/xlink">
<defs>
<clipPath id="c0_170"><path d="M192.5,469.5l0,-358l185,0l0,358Z" /></clipPath>
<clipPath id="c1_170"><path d="M379.5,469.5l0,-358l60,0l0,358Z" /></clipPath>
<clipPath id="c2_170"><path d="M441.5,469.5l0,-358l445,0l0,358Z" /></clipPath>
<clipPath id="c3_170"><path d="M192.5,567.5l0,-72l185,0l0,72Z" /></clipPath>
<clipPath id="c4_170"><path d="M379.5,567.5l0,-72l60,0l0,72Z" /></clipPath>
<clipPath id="c5_170"><path d="M441.5,567.5l0,-72l445,0l0,72Z" /></clipPath>
<clipPath id="c6_170"><path d="M192.5,687.5l0,-119l26,0l0,119Z" /></clipPath>
<clipPath id="c7_170"><path d="M220.5,687.5l0,-50l157,0l0,50Z" /></clipPath>
<clipPath id="c8_170"><path d="M379.5,687.5l0,-50l60,0l0,50Z" /></clipPath>
<clipPath id="c9_170"><path d="M441.5,687.5l0,-50l445,0l0,50Z" /></clipPath>
<clipPath id="c10_170"><path d="M192.5,713.5l0,-24l185,0l0,24Z" /></clipPath>
<clipPath id="c11_170"><path d="M379.5,713.5l0,-24l60,0l0,24Z" /></clipPath>
<clipPath id="c12_170"><path d="M441.5,713.5l0,-24l445,0l0,24Z" /></clipPath>
<clipPath id="c13_170"><path d="M192.5,738.5l0,-24l185,0l0,24Z" /></clipPath>
<clipPath id="c14_170"><path d="M379.5,738.5l0,-24l60,0l0,24Z" /></clipPath>
<clipPath id="c15_170"><path d="M441.5,738.5l0,-24l445,0l0,24Z" /></clipPath>
<clipPath id="c16_170"><path d="M192.5,763.5l0,-23l185,0l0,23Z" /></clipPath>
<clipPath id="c17_170"><path d="M379.5,763.5l0,-23l60,0l0,23Z" /></clipPath>
<clipPath id="c18_170"><path d="M441.5,763.5l0,-23l445,0l0,23Z" /></clipPath>
<clipPath id="c19_170"><path d="M192.5,789.5l0,-24l185,0l0,24Z" /></clipPath>
<clipPath id="c20_170"><path d="M379.5,789.5l0,-24l60,0l0,24Z" /></clipPath>
<clipPath id="c21_170"><path d="M441.5,789.5l0,-24l445,0l0,24Z" /></clipPath>
<clipPath id="c22_170"><path d="M192.5,814.5l0,-24l185,0l0,24Z" /></clipPath>
<clipPath id="c23_170"><path d="M379.5,814.5l0,-24l60,0l0,24Z" /></clipPath>
<clipPath id="c24_170"><path d="M441.5,814.5l0,-24l445,0l0,24Z" /></clipPath>
<clipPath id="c25_170"><path d="M192.5,839.5l0,-23l185,0l0,23Z" /></clipPath>
<clipPath id="c26_170"><path d="M379.5,839.5l0,-23l60,0l0,23Z" /></clipPath>
<clipPath id="c27_170"><path d="M441.5,839.5l0,-23l445,0l0,23Z" /></clipPath>
<clipPath id="c28_170"><path d="M192.5,865.5l0,-24l185,0l0,24Z" /></clipPath>
<clipPath id="c29_170"><path d="M379.5,865.5l0,-24l60,0l0,24Z" /></clipPath>
<clipPath id="c30_170"><path d="M441.5,865.5l0,-24l445,0l0,24Z" /></clipPath>
<clipPath id="c31_170"><path d="M192.5,890.5l0,-24l185,0l0,24Z" /></clipPath>
<clipPath id="c32_170"><path d="M379.5,890.5l0,-24l60,0l0,24Z" /></clipPath>
<clipPath id="c33_170"><path d="M441.5,890.5l0,-24l445,0l0,24Z" /></clipPath>
<clipPath id="c34_170"><path d="M192.5,939.5l0,-47l185,0l0,47Z" /></clipPath>
<clipPath id="c35_170"><path d="M379.5,939.5l0,-47l60,0l0,47Z" /></clipPath>
<clipPath id="c36_170"><path d="M441.5,939.5l0,-47l445,0l0,47Z" /></clipPath>
<clipPath id="c37_170"><path d="M192.5,1039.5l0,-98l26,0l0,98Z" /></clipPath>
<clipPath id="c38_170"><path d="M220.5,1039.5l0,-98l25,0l0,98Z" /></clipPath>
<clipPath id="c39_170"><path d="M247.5,965.5l0,-24l130,0l0,24Z" /></clipPath>
<clipPath id="c40_170"><path d="M379.5,965.5l0,-24l60,0l0,24Z" /></clipPath>
<clipPath id="c41_170"><path d="M441.5,965.5l0,-24l445,0l0,24Z" /></clipPath>
<clipPath id="c42_170"><path d="M247.5,1039.5l0,-73l27,0l0,73Z" /></clipPath>
<clipPath id="c43_170"><path d="M275.5,1039.5l0,-73l27,0l0,73Z" /></clipPath>
<clipPath id="c44_170"><path d="M303.5,1014.5l0,-48l74,0l0,48Z" /></clipPath>
<clipPath id="c45_170"><path d="M303.5,1039.5l0,-24l74,0l0,24Z" /></clipPath>
<clipPath id="c46_170"><path d="M379.5,1039.5l0,-24l60,0l0,24Z" /></clipPath>
<clipPath id="c47_170"><path d="M441.5,1039.5l0,-24l445,0l0,24Z" /></clipPath>
<style type="text/css"><![CDATA[
.g2_170{
fill: none;
stroke: #7E7E7E;
stroke-width: 1;
stroke-linecap: butt;
stroke-linejoin: miter;
}
.g1_170{
fill: #F1F1F1;
}
]]></style>
</defs>
<path fill-rule="evenodd" d="M47,469l33,0L80,111l-33,0l0,358Z" class="g1_170" />
<path fill-rule="evenodd" d="M81,469l28,0l0,-358l-28,0l0,358Z" class="g1_170" />
<path fill-rule="evenodd" d="M110,469l26,0l0,-358l-26,0l0,358Z" class="g1_170" />
<path fill-rule="evenodd" d="M138,469l33,0l0,-358l-33,0l0,358Z" class="g1_170" />
<path fill-rule="evenodd" d="M172,469l19,0l0,-358l-19,0l0,358Z" class="g1_170" />
<path fill-rule="evenodd" d="M192,469l185,0l0,-358l-185,0l0,358Z" class="g1_170" />
<g clip-path="url(#c0_170)">
<path fill-rule="evenodd" d="M200,135l170,0l0,-24l-170,0l0,24Z" class="g1_170" />
</g>
<path fill-rule="evenodd" d="M379,469l60,0l0,-358l-60,0l0,358Z" class="g1_170" />
<g clip-path="url(#c1_170)">
<path fill-rule="evenodd" d="M386,135l46,0l0,-24l-46,0l0,24Z" class="g1_170" />
</g>
<path fill-rule="evenodd" d="M441,469l445,0l0,-358l-445,0l0,358Z" class="g1_170" />
<g clip-path="url(#c2_170)">
<path fill-rule="evenodd" d="M448,135l430,0l0,-24l-430,0l0,24Z" class="g1_170" />
</g>
<path fill-rule="evenodd" d="M448,159l430,0l0,-24l-430,0l0,24Z" class="g1_170" />
<path fill-rule="evenodd" d="M448,182l430,0l0,-23l-430,0l0,23Z" class="g1_170" />
<path fill-rule="evenodd" d="M448,206l430,0l0,-24l-430,0l0,24Z" class="g1_170" />
<path fill-rule="evenodd" d="M448,230l430,0l0,-24l-430,0l0,24Z" class="g1_170" />
<path fill-rule="evenodd" d="M448,254l430,0l0,-24l-430,0l0,24Z" class="g1_170" />
<path fill-rule="evenodd" d="M448,278l430,0l0,-24l-430,0l0,24Z" class="g1_170" />
<path fill-rule="evenodd" d="M448,302l430,0l0,-24l-430,0l0,24Z" class="g1_170" />
<path fill-rule="evenodd" d="M448,325l430,0l0,-23l-430,0l0,23Z" class="g1_170" />
<path fill-rule="evenodd" d="M448,349l430,0l0,-24l-430,0l0,24Z" class="g1_170" />
<path fill-rule="evenodd" d="M448,373l430,0l0,-24l-430,0l0,24Z" class="g1_170" />
<path fill-rule="evenodd" d="M448,397l430,0l0,-24l-430,0l0,24Z" class="g1_170" />
<path fill-rule="evenodd" d="M448,421l430,0l0,-24l-430,0l0,24Z" class="g1_170" />
<path fill-rule="evenodd" d="M448,445l430,0l0,-24l-430,0l0,24Z" class="g1_170" />
<path fill-rule="evenodd" d="M448,469l430,0l0,-24l-430,0l0,24Z" class="g1_170" />
<path d="M46.5,111.5l0,-1" class="g2_170" />
<path d="M46.5,111.5l0,-1" class="g2_170" />
<path d="M47.5,111.5l33,0" class="g2_170" />
<path d="M80.5,111.5l0,-1" class="g2_170" />
<path d="M81.5,111.5l28,0" class="g2_170" />
<path d="M109.5,111.5l0,-1" class="g2_170" />
<path d="M110.5,111.5l26,0" class="g2_170" />
<path d="M136.5,111.5l0,-1" class="g2_170" />
<path d="M138.5,111.5l33,0" class="g2_170" />
<path d="M171.5,111.5l0,-1" class="g2_170" />
<path d="M172.5,111.5l19,0" class="g2_170" />
<path d="M191.5,111.5l0,-1" class="g2_170" />
<path d="M192.5,111.5l185,0" class="g2_170" />
<path d="M377.5,111.5l0,-1" class="g2_170" />
<path d="M379.5,111.5l60,0" class="g2_170" />
<path d="M439.5,111.5l0,-1" class="g2_170" />
<path d="M441.5,111.5l445,0" class="g2_170" />
<path d="M886.5,111.5l0,-1" class="g2_170" />
<path d="M886.5,111.5l0,-1" class="g2_170" />
<path d="M46.5,469.5l0,-358" class="g2_170" />
<path d="M80.5,469.5l0,-358" class="g2_170" />
<path d="M109.5,469.5l0,-358" class="g2_170" />
<path d="M136.5,469.5l0,-358" class="g2_170" />
<path d="M171.5,469.5l0,-358" class="g2_170" />
<path d="M191.5,469.5l0,-358" class="g2_170" />
<path d="M377.5,469.5l0,-358" class="g2_170" />
<path d="M439.5,469.5l0,-358" class="g2_170" />
<path d="M886.5,469.5l0,-358" class="g2_170" />
<path fill-rule="evenodd" d="M47,494l33,0l0,-25l-33,0l0,25Z" class="g1_170" />
<path fill-rule="evenodd" d="M81,494l28,0l0,-25l-28,0l0,25Z" class="g1_170" />
<path fill-rule="evenodd" d="M110,494l26,0l0,-25l-26,0l0,25Z" class="g1_170" />
<path fill-rule="evenodd" d="M138,494l33,0l0,-25l-33,0l0,25Z" class="g1_170" />
<path fill-rule="evenodd" d="M172,494l19,0l0,-25l-19,0l0,25Z" class="g1_170" />
<path fill-rule="evenodd" d="M192,494l185,0l0,-24l-185,0l0,24Z" class="g1_170" />
<path fill-rule="evenodd" d="M200,494l170,0l0,-24l-170,0l0,24Z" class="g1_170" />
<path fill-rule="evenodd" d="M379,494l60,0l0,-24l-60,0l0,24Z" class="g1_170" />
<path fill-rule="evenodd" d="M386,494l46,0l0,-24l-46,0l0,24Z" class="g1_170" />
<path fill-rule="evenodd" d="M441,494l445,0l0,-24l-445,0l0,24Z" class="g1_170" />
<path fill-rule="evenodd" d="M448,494l430,0l0,-24l-430,0l0,24Z" class="g1_170" />
<path d="M46.5,470.5l0,-1" class="g2_170" />
<path d="M80.5,470.5l0,-1" class="g2_170" />
<path d="M109.5,470.5l0,-1" class="g2_170" />
<path d="M136.5,470.5l0,-1" class="g2_170" />
<path d="M171.5,470.5l0,-1" class="g2_170" />
<path d="M191.5,470.5l0,-1" class="g2_170" />
<path d="M192.5,470.5l185,0" class="g2_170" />
<path d="M377.5,470.5l0,-1" class="g2_170" />
<path d="M379.5,470.5l60,0" class="g2_170" />
<path d="M439.5,470.5l0,-1" class="g2_170" />
<path d="M441.5,470.5l445,0" class="g2_170" />
<path d="M886.5,470.5l0,-1" class="g2_170" />
<path d="M46.5,494.5l0,-24" class="g2_170" />
<path d="M80.5,494.5l0,-24" class="g2_170" />
<path d="M109.5,494.5l0,-24" class="g2_170" />
<path d="M136.5,494.5l0,-24" class="g2_170" />
<path d="M171.5,494.5l0,-24" class="g2_170" />
<path d="M191.5,494.5l0,-24" class="g2_170" />
<path d="M377.5,494.5l0,-24" class="g2_170" />
<path d="M439.5,494.5l0,-24" class="g2_170" />
<path d="M886.5,494.5l0,-24" class="g2_170" />
<path fill-rule="evenodd" d="M47,567l33,0l0,-73l-33,0l0,73Z" class="g1_170" />
<path fill-rule="evenodd" d="M81,567l28,0l0,-73l-28,0l0,73Z" class="g1_170" />
<path fill-rule="evenodd" d="M110,567l26,0l0,-73l-26,0l0,73Z" class="g1_170" />
<path fill-rule="evenodd" d="M138,567l33,0l0,-73l-33,0l0,73Z" class="g1_170" />
<path fill-rule="evenodd" d="M172,567l19,0l0,-73l-19,0l0,73Z" class="g1_170" />
<path fill-rule="evenodd" d="M192,567l185,0l0,-72l-185,0l0,72Z" class="g1_170" />
<g clip-path="url(#c3_170)">
<path fill-rule="evenodd" d="M200,519l170,0l0,-24l-170,0l0,24Z" class="g1_170" />
</g>
<path fill-rule="evenodd" d="M379,567l60,0l0,-72l-60,0l0,72Z" class="g1_170" />
<g clip-path="url(#c4_170)">
<path fill-rule="evenodd" d="M386,519l46,0l0,-24l-46,0l0,24Z" class="g1_170" />
</g>
<path fill-rule="evenodd" d="M441,567l445,0l0,-72l-445,0l0,72Z" class="g1_170" />
<g clip-path="url(#c5_170)">
<path fill-rule="evenodd" d="M448,519l430,0l0,-24l-430,0l0,24Z" class="g1_170" />
</g>
<path fill-rule="evenodd" d="M448,543l430,0l0,-24l-430,0l0,24Z" class="g1_170" />
<path fill-rule="evenodd" d="M448,567l430,0l0,-24l-430,0l0,24Z" class="g1_170" />
<path d="M46.5,495.5l0,-1" class="g2_170" />
<path d="M80.5,495.5l0,-1" class="g2_170" />
<path d="M109.5,495.5l0,-1" class="g2_170" />
<path d="M136.5,495.5l0,-1" class="g2_170" />
<path d="M171.5,495.5l0,-1" class="g2_170" />
<path d="M191.5,495.5l0,-1" class="g2_170" />
<path d="M192.5,495.5l185,0" class="g2_170" />
<path d="M377.5,495.5l0,-1" class="g2_170" />
<path d="M379.5,495.5l60,0" class="g2_170" />
<path d="M439.5,495.5l0,-1" class="g2_170" />
<path d="M441.5,495.5l445,0" class="g2_170" />
<path d="M886.5,495.5l0,-1" class="g2_170" />
<path d="M46.5,567.5l0,-72" class="g2_170" />
<path d="M80.5,567.5l0,-72" class="g2_170" />
<path d="M109.5,567.5l0,-72" class="g2_170" />
<path d="M136.5,567.5l0,-72" class="g2_170" />
<path d="M171.5,567.5l0,-72" class="g2_170" />
<path d="M191.5,567.5l0,-72" class="g2_170" />
<path d="M377.5,567.5l0,-72" class="g2_170" />
<path d="M439.5,567.5l0,-72" class="g2_170" />
<path d="M886.5,567.5l0,-72" class="g2_170" />
<path fill-rule="evenodd" d="M47,601l33,0l0,-34l-33,0l0,34Z" class="g1_170" />
<path fill-rule="evenodd" d="M81,601l28,0l0,-34l-28,0l0,34Z" class="g1_170" />
<path fill-rule="evenodd" d="M110,601l26,0l0,-34l-26,0l0,34Z" class="g1_170" />
<path fill-rule="evenodd" d="M138,601l33,0l0,-34l-33,0l0,34Z" class="g1_170" />
<path fill-rule="evenodd" d="M172,601l19,0l0,-34l-19,0l0,34Z" class="g1_170" />
<path fill-rule="evenodd" d="M192,687l26,0l0,-119l-26,0l0,119Z" class="g1_170" />
<g clip-path="url(#c6_170)">
<path fill-rule="evenodd" d="M200,687l18,0l0,-119l-18,0l0,119Z" class="g1_170" />
</g>
<path fill-rule="evenodd" d="M220,601l157,0l0,-33l-157,0l0,33Z" class="g1_170" />
<path fill-rule="evenodd" d="M227,592l143,0l0,-24l-143,0l0,24Z" class="g1_170" />
<path fill-rule="evenodd" d="M379,601l60,0l0,-33l-60,0l0,33Z" class="g1_170" />
<path fill-rule="evenodd" d="M386,592l46,0l0,-24l-46,0l0,24Z" class="g1_170" />
<path fill-rule="evenodd" d="M441,601l445,0l0,-33l-445,0l0,33Z" class="g1_170" />
<path fill-rule="evenodd" d="M448,592l430,0l0,-24l-430,0l0,24Z" class="g1_170" />
<path d="M46.5,568.5l0,-1" class="g2_170" />
<path d="M80.5,568.5l0,-1" class="g2_170" />
<path d="M109.5,568.5l0,-1" class="g2_170" />
<path d="M136.5,568.5l0,-1" class="g2_170" />
<path d="M171.5,568.5l0,-1" class="g2_170" />
<path d="M191.5,568.5l0,-1" class="g2_170" />
<path d="M192.5,568.5l26,0" class="g2_170" />
<path d="M218.5,568.5l0,-1" class="g2_170" />
<path d="M220.5,568.5l157,0" class="g2_170" />
<path d="M377.5,568.5l0,-1" class="g2_170" />
<path d="M379.5,568.5l60,0" class="g2_170" />
<path d="M439.5,568.5l0,-1" class="g2_170" />
<path d="M441.5,568.5l445,0" class="g2_170" />
<path d="M886.5,568.5l0,-1" class="g2_170" />
<path d="M46.5,601.5l0,-33" class="g2_170" />
<path d="M80.5,601.5l0,-33" class="g2_170" />
<path d="M109.5,601.5l0,-33" class="g2_170" />
<path d="M136.5,601.5l0,-33" class="g2_170" />
<path d="M171.5,601.5l0,-33" class="g2_170" />
<path d="M191.5,601.5l0,-33" class="g2_170" />
<path d="M218.5,601.5l0,-33" class="g2_170" />
<path d="M377.5,601.5l0,-33" class="g2_170" />
<path d="M439.5,601.5l0,-33" class="g2_170" />
<path d="M886.5,601.5l0,-33" class="g2_170" />
<path fill-rule="evenodd" d="M47,636l33,0l0,-35l-33,0l0,35Z" class="g1_170" />
<path fill-rule="evenodd" d="M81,636l28,0l0,-35l-28,0l0,35Z" class="g1_170" />
<path fill-rule="evenodd" d="M110,636l26,0l0,-35l-26,0l0,35Z" class="g1_170" />
<path fill-rule="evenodd" d="M138,636l33,0l0,-35l-33,0l0,35Z" class="g1_170" />
<path fill-rule="evenodd" d="M172,636l19,0l0,-35l-19,0l0,35Z" class="g1_170" />
<path fill-rule="evenodd" d="M220,636l157,0l0,-33l-157,0l0,33Z" class="g1_170" />
<path fill-rule="evenodd" d="M227,627l143,0l0,-24l-143,0l0,24Z" class="g1_170" />
<path fill-rule="evenodd" d="M379,636l60,0l0,-33l-60,0l0,33Z" class="g1_170" />
<path fill-rule="evenodd" d="M386,627l46,0l0,-24l-46,0l0,24Z" class="g1_170" />
<path fill-rule="evenodd" d="M441,636l445,0l0,-33l-445,0l0,33Z" class="g1_170" />
<path fill-rule="evenodd" d="M448,627l430,0l0,-24l-430,0l0,24Z" class="g1_170" />
<path d="M46.5,603.5l0,-2" class="g2_170" />
<path d="M80.5,603.5l0,-2" class="g2_170" />
<path d="M109.5,603.5l0,-2" class="g2_170" />
<path d="M136.5,603.5l0,-2" class="g2_170" />
<path d="M171.5,603.5l0,-2" class="g2_170" />
<path d="M191.5,603.5l0,-2" class="g2_170" />
<path d="M218.5,603.5l0,-2" class="g2_170" />
<path d="M220.5,603.5l157,0" class="g2_170" />
<path d="M377.5,603.5l0,-2" class="g2_170" />
<path d="M379.5,603.5l60,0" class="g2_170" />
<path d="M439.5,603.5l0,-2" class="g2_170" />
<path d="M441.5,603.5l445,0" class="g2_170" />
<path d="M886.5,603.5l0,-2" class="g2_170" />
<path d="M46.5,636.5l0,-33" class="g2_170" />
<path d="M80.5,636.5l0,-33" class="g2_170" />
<path d="M109.5,636.5l0,-33" class="g2_170" />
<path d="M136.5,636.5l0,-33" class="g2_170" />
<path d="M171.5,636.5l0,-33" class="g2_170" />
<path d="M191.5,636.5l0,-33" class="g2_170" />
<path d="M218.5,636.5l0,-33" class="g2_170" />
<path d="M377.5,636.5l0,-33" class="g2_170" />
<path d="M439.5,636.5l0,-33" class="g2_170" />
<path d="M886.5,636.5l0,-33" class="g2_170" />
<path fill-rule="evenodd" d="M47,687l33,0l0,-51l-33,0l0,51Z" class="g1_170" />
<path fill-rule="evenodd" d="M81,687l28,0l0,-51l-28,0l0,51Z" class="g1_170" />
<path fill-rule="evenodd" d="M110,687l26,0l0,-51l-26,0l0,51Z" class="g1_170" />
<path fill-rule="evenodd" d="M138,687l33,0l0,-51l-33,0l0,51Z" class="g1_170" />
<path fill-rule="evenodd" d="M172,687l19,0l0,-51l-19,0l0,51Z" class="g1_170" />
<path fill-rule="evenodd" d="M220,687l157,0l0,-50l-157,0l0,50Z" class="g1_170" />
<g clip-path="url(#c7_170)">
<path fill-rule="evenodd" d="M227,661l143,0l0,-24l-143,0l0,24Z" class="g1_170" />
</g>
<path fill-rule="evenodd" d="M379,687l60,0l0,-50l-60,0l0,50Z" class="g1_170" />
<g clip-path="url(#c8_170)">
<path fill-rule="evenodd" d="M386,661l46,0l0,-24l-46,0l0,24Z" class="g1_170" />
</g>
<path fill-rule="evenodd" d="M441,687l445,0l0,-50l-445,0l0,50Z" class="g1_170" />
<g clip-path="url(#c9_170)">
<path fill-rule="evenodd" d="M448,661l430,0l0,-24l-430,0l0,24Z" class="g1_170" />
</g>
<path d="M46.5,637.5l0,-1" class="g2_170" />
<path d="M80.5,637.5l0,-1" class="g2_170" />
<path d="M109.5,637.5l0,-1" class="g2_170" />
<path d="M136.5,637.5l0,-1" class="g2_170" />
<path d="M171.5,637.5l0,-1" class="g2_170" />
<path d="M191.5,637.5l0,-1" class="g2_170" />
<path d="M218.5,637.5l0,-1" class="g2_170" />
<path d="M220.5,637.5l157,0" class="g2_170" />
<path d="M377.5,637.5l0,-1" class="g2_170" />
<path d="M379.5,637.5l60,0" class="g2_170" />
<path d="M439.5,637.5l0,-1" class="g2_170" />
<path d="M441.5,637.5l445,0" class="g2_170" />
<path d="M886.5,637.5l0,-1" class="g2_170" />
<path d="M46.5,687.5l0,-50" class="g2_170" />
<path d="M80.5,687.5l0,-50" class="g2_170" />
<path d="M109.5,687.5l0,-50" class="g2_170" />
<path d="M136.5,687.5l0,-50" class="g2_170" />
<path d="M171.5,687.5l0,-50" class="g2_170" />
<path d="M191.5,687.5l0,-50" class="g2_170" />
<path d="M218.5,687.5l0,-50" class="g2_170" />
<path d="M377.5,687.5l0,-50" class="g2_170" />
<path d="M439.5,687.5l0,-50" class="g2_170" />
<path d="M886.5,687.5l0,-50" class="g2_170" />
<path fill-rule="evenodd" d="M47,713l33,0l0,-26l-33,0l0,26Z" class="g1_170" />
<path fill-rule="evenodd" d="M81,713l28,0l0,-26l-28,0l0,26Z" class="g1_170" />
<path fill-rule="evenodd" d="M110,713l26,0l0,-26l-26,0l0,26Z" class="g1_170" />
<path fill-rule="evenodd" d="M138,713l33,0l0,-26l-33,0l0,26Z" class="g1_170" />
<path fill-rule="evenodd" d="M172,713l19,0l0,-26l-19,0l0,26Z" class="g1_170" />
<path fill-rule="evenodd" d="M192,713l185,0l0,-24l-185,0l0,24Z" class="g1_170" />
<g clip-path="url(#c10_170)">
<path fill-rule="evenodd" d="M200,713l170,0l0,-24l-170,0l0,24Z" class="g1_170" />
</g>
<path fill-rule="evenodd" d="M379,713l60,0l0,-24l-60,0l0,24Z" class="g1_170" />
<g clip-path="url(#c11_170)">
<path fill-rule="evenodd" d="M386,713l46,0l0,-24l-46,0l0,24Z" class="g1_170" />
</g>
<path fill-rule="evenodd" d="M441,713l445,0l0,-24l-445,0l0,24Z" class="g1_170" />
<g clip-path="url(#c12_170)">
<path fill-rule="evenodd" d="M448,713l430,0l0,-24l-430,0l0,24Z" class="g1_170" />
</g>
<path d="M46.5,689.5l0,-2" class="g2_170" />
<path d="M80.5,689.5l0,-2" class="g2_170" />
<path d="M109.5,689.5l0,-2" class="g2_170" />
<path d="M136.5,689.5l0,-2" class="g2_170" />
<path d="M171.5,689.5l0,-2" class="g2_170" />
<path d="M191.5,689.5l0,-2" class="g2_170" />
<path d="M192.5,689.5l26,0" class="g2_170" />
<path d="M218.5,689.5l0,-2" class="g2_170" />
<path d="M220.5,689.5l157,0" class="g2_170" />
<path d="M377.5,689.5l0,-2" class="g2_170" />
<path d="M379.5,689.5l60,0" class="g2_170" />
<path d="M439.5,689.5l0,-2" class="g2_170" />
<path d="M441.5,689.5l445,0" class="g2_170" />
<path d="M886.5,689.5l0,-2" class="g2_170" />
<path d="M46.5,713.5l0,-24" class="g2_170" />
<path d="M80.5,713.5l0,-24" class="g2_170" />
<path d="M109.5,713.5l0,-24" class="g2_170" />
<path d="M136.5,713.5l0,-24" class="g2_170" />
<path d="M171.5,713.5l0,-24" class="g2_170" />
<path d="M191.5,713.5l0,-24" class="g2_170" />
<path d="M377.5,713.5l0,-24" class="g2_170" />
<path d="M439.5,713.5l0,-24" class="g2_170" />
<path d="M886.5,713.5l0,-24" class="g2_170" />
<path fill-rule="evenodd" d="M47,738l33,0l0,-25l-33,0l0,25Z" class="g1_170" />
<path fill-rule="evenodd" d="M81,738l28,0l0,-25l-28,0l0,25Z" class="g1_170" />
<path fill-rule="evenodd" d="M110,738l26,0l0,-25l-26,0l0,25Z" class="g1_170" />
<path fill-rule="evenodd" d="M138,738l33,0l0,-25l-33,0l0,25Z" class="g1_170" />
<path fill-rule="evenodd" d="M172,738l19,0l0,-25l-19,0l0,25Z" class="g1_170" />
<path fill-rule="evenodd" d="M192,738l185,0l0,-24l-185,0l0,24Z" class="g1_170" />
<g clip-path="url(#c13_170)">
<path fill-rule="evenodd" d="M200,738l170,0l0,-24l-170,0l0,24Z" class="g1_170" />
</g>
<path fill-rule="evenodd" d="M379,738l60,0l0,-24l-60,0l0,24Z" class="g1_170" />
<g clip-path="url(#c14_170)">
<path fill-rule="evenodd" d="M386,738l46,0l0,-24l-46,0l0,24Z" class="g1_170" />
</g>
<path fill-rule="evenodd" d="M441,738l445,0l0,-24l-445,0l0,24Z" class="g1_170" />
<g clip-path="url(#c15_170)">
<path fill-rule="evenodd" d="M448,738l430,0l0,-24l-430,0l0,24Z" class="g1_170" />
</g>
<path d="M46.5,714.5l0,-1" class="g2_170" />
<path d="M80.5,714.5l0,-1" class="g2_170" />
<path d="M109.5,714.5l0,-1" class="g2_170" />
<path d="M136.5,714.5l0,-1" class="g2_170" />
<path d="M171.5,714.5l0,-1" class="g2_170" />
<path d="M191.5,714.5l0,-1" class="g2_170" />
<path d="M192.5,714.5l185,0" class="g2_170" />
<path d="M377.5,714.5l0,-1" class="g2_170" />
<path d="M379.5,714.5l60,0" class="g2_170" />
<path d="M439.5,714.5l0,-1" class="g2_170" />
<path d="M441.5,714.5l445,0" class="g2_170" />
<path d="M886.5,714.5l0,-1" class="g2_170" />
<path d="M46.5,738.5l0,-24" class="g2_170" />
<path d="M80.5,738.5l0,-24" class="g2_170" />
<path d="M109.5,738.5l0,-24" class="g2_170" />
<path d="M136.5,738.5l0,-24" class="g2_170" />
<path d="M171.5,738.5l0,-24" class="g2_170" />
<path d="M191.5,738.5l0,-24" class="g2_170" />
<path d="M377.5,738.5l0,-24" class="g2_170" />
<path d="M439.5,738.5l0,-24" class="g2_170" />
<path d="M886.5,738.5l0,-24" class="g2_170" />
<path fill-rule="evenodd" d="M47,763l33,0l0,-25l-33,0l0,25Z" class="g1_170" />
<path fill-rule="evenodd" d="M81,763l28,0l0,-25l-28,0l0,25Z" class="g1_170" />
<path fill-rule="evenodd" d="M110,763l26,0l0,-25l-26,0l0,25Z" class="g1_170" />
<path fill-rule="evenodd" d="M138,763l33,0l0,-25l-33,0l0,25Z" class="g1_170" />
<path fill-rule="evenodd" d="M172,763l19,0l0,-25l-19,0l0,25Z" class="g1_170" />
<path fill-rule="evenodd" d="M192,763l185,0l0,-23l-185,0l0,23Z" class="g1_170" />
<g clip-path="url(#c16_170)">
<path fill-rule="evenodd" d="M200,763l170,0l0,-23l-170,0l0,23Z" class="g1_170" />
</g>
<path fill-rule="evenodd" d="M379,763l60,0l0,-23l-60,0l0,23Z" class="g1_170" />
<g clip-path="url(#c17_170)">
<path fill-rule="evenodd" d="M386,763l46,0l0,-23l-46,0l0,23Z" class="g1_170" />
</g>
<path fill-rule="evenodd" d="M441,763l445,0l0,-23l-445,0l0,23Z" class="g1_170" />
<g clip-path="url(#c18_170)">
<path fill-rule="evenodd" d="M448,763l430,0l0,-23l-430,0l0,23Z" class="g1_170" />
</g>
<path d="M46.5,740.5l0,-2" class="g2_170" />
<path d="M80.5,740.5l0,-2" class="g2_170" />
<path d="M109.5,740.5l0,-2" class="g2_170" />
<path d="M136.5,740.5l0,-2" class="g2_170" />
<path d="M171.5,740.5l0,-2" class="g2_170" />
<path d="M191.5,740.5l0,-2" class="g2_170" />
<path d="M192.5,740.5l185,0" class="g2_170" />
<path d="M377.5,740.5l0,-2" class="g2_170" />
<path d="M379.5,740.5l60,0" class="g2_170" />
<path d="M439.5,740.5l0,-2" class="g2_170" />
<path d="M441.5,740.5l445,0" class="g2_170" />
<path d="M886.5,740.5l0,-2" class="g2_170" />
<path d="M46.5,763.5l0,-23" class="g2_170" />
<path d="M80.5,763.5l0,-23" class="g2_170" />
<path d="M109.5,763.5l0,-23" class="g2_170" />
<path d="M136.5,763.5l0,-23" class="g2_170" />
<path d="M171.5,763.5l0,-23" class="g2_170" />
<path d="M191.5,763.5l0,-23" class="g2_170" />
<path d="M377.5,763.5l0,-23" class="g2_170" />
<path d="M439.5,763.5l0,-23" class="g2_170" />
<path d="M886.5,763.5l0,-23" class="g2_170" />
<path fill-rule="evenodd" d="M47,789l33,0l0,-25l-33,0l0,25Z" class="g1_170" />
<path fill-rule="evenodd" d="M81,789l28,0l0,-25l-28,0l0,25Z" class="g1_170" />
<path fill-rule="evenodd" d="M110,789l26,0l0,-25l-26,0l0,25Z" class="g1_170" />
<path fill-rule="evenodd" d="M138,789l33,0l0,-25l-33,0l0,25Z" class="g1_170" />
<path fill-rule="evenodd" d="M172,789l19,0l0,-25l-19,0l0,25Z" class="g1_170" />
<path fill-rule="evenodd" d="M192,789l185,0l0,-24l-185,0l0,24Z" class="g1_170" />
<g clip-path="url(#c19_170)">
<path fill-rule="evenodd" d="M200,789l170,0l0,-24l-170,0l0,24Z" class="g1_170" />
</g>
<path fill-rule="evenodd" d="M379,789l60,0l0,-24l-60,0l0,24Z" class="g1_170" />
<g clip-path="url(#c20_170)">
<path fill-rule="evenodd" d="M386,789l46,0l0,-24l-46,0l0,24Z" class="g1_170" />
</g>
<path fill-rule="evenodd" d="M441,789l445,0l0,-24l-445,0l0,24Z" class="g1_170" />
<g clip-path="url(#c21_170)">
<path fill-rule="evenodd" d="M448,789l430,0l0,-24l-430,0l0,24Z" class="g1_170" />
</g>
<path d="M46.5,765.5l0,-2" class="g2_170" />
<path d="M80.5,765.5l0,-2" class="g2_170" />
<path d="M109.5,765.5l0,-2" class="g2_170" />
<path d="M136.5,765.5l0,-2" class="g2_170" />
<path d="M171.5,765.5l0,-2" class="g2_170" />
<path d="M191.5,765.5l0,-2" class="g2_170" />
<path d="M192.5,765.5l185,0" class="g2_170" />
<path d="M377.5,765.5l0,-2" class="g2_170" />
<path d="M379.5,765.5l60,0" class="g2_170" />
<path d="M439.5,765.5l0,-2" class="g2_170" />
<path d="M441.5,765.5l445,0" class="g2_170" />
<path d="M886.5,765.5l0,-2" class="g2_170" />
<path d="M46.5,789.5l0,-24" class="g2_170" />
<path d="M80.5,789.5l0,-24" class="g2_170" />
<path d="M109.5,789.5l0,-24" class="g2_170" />
<path d="M136.5,789.5l0,-24" class="g2_170" />
<path d="M171.5,789.5l0,-24" class="g2_170" />
<path d="M191.5,789.5l0,-24" class="g2_170" />
<path d="M377.5,789.5l0,-24" class="g2_170" />
<path d="M439.5,789.5l0,-24" class="g2_170" />
<path d="M886.5,789.5l0,-24" class="g2_170" />
<path fill-rule="evenodd" d="M47,814l33,0l0,-25l-33,0l0,25Z" class="g1_170" />
<path fill-rule="evenodd" d="M81,814l28,0l0,-25l-28,0l0,25Z" class="g1_170" />
<path fill-rule="evenodd" d="M110,814l26,0l0,-25l-26,0l0,25Z" class="g1_170" />
<path fill-rule="evenodd" d="M138,814l33,0l0,-25l-33,0l0,25Z" class="g1_170" />
<path fill-rule="evenodd" d="M172,814l19,0l0,-25l-19,0l0,25Z" class="g1_170" />
<path fill-rule="evenodd" d="M192,814l185,0l0,-24l-185,0l0,24Z" class="g1_170" />
<g clip-path="url(#c22_170)">
<path fill-rule="evenodd" d="M200,814l170,0l0,-24l-170,0l0,24Z" class="g1_170" />
</g>
<path fill-rule="evenodd" d="M379,814l60,0l0,-24l-60,0l0,24Z" class="g1_170" />
<g clip-path="url(#c23_170)">
<path fill-rule="evenodd" d="M386,814l46,0l0,-24l-46,0l0,24Z" class="g1_170" />
</g>
<path fill-rule="evenodd" d="M441,814l445,0l0,-24l-445,0l0,24Z" class="g1_170" />
<g clip-path="url(#c24_170)">
<path fill-rule="evenodd" d="M448,814l430,0l0,-24l-430,0l0,24Z" class="g1_170" />
</g>
<path d="M46.5,790.5l0,-1" class="g2_170" />
<path d="M80.5,790.5l0,-1" class="g2_170" />
<path d="M109.5,790.5l0,-1" class="g2_170" />
<path d="M136.5,790.5l0,-1" class="g2_170" />
<path d="M171.5,790.5l0,-1" class="g2_170" />
<path d="M191.5,790.5l0,-1" class="g2_170" />
<path d="M192.5,790.5l185,0" class="g2_170" />
<path d="M377.5,790.5l0,-1" class="g2_170" />
<path d="M379.5,790.5l60,0" class="g2_170" />
<path d="M439.5,790.5l0,-1" class="g2_170" />
<path d="M441.5,790.5l445,0" class="g2_170" />
<path d="M886.5,790.5l0,-1" class="g2_170" />
<path d="M46.5,814.5l0,-24" class="g2_170" />
<path d="M80.5,814.5l0,-24" class="g2_170" />
<path d="M109.5,814.5l0,-24" class="g2_170" />
<path d="M136.5,814.5l0,-24" class="g2_170" />
<path d="M171.5,814.5l0,-24" class="g2_170" />
<path d="M191.5,814.5l0,-24" class="g2_170" />
<path d="M377.5,814.5l0,-24" class="g2_170" />
<path d="M439.5,814.5l0,-24" class="g2_170" />
<path d="M886.5,814.5l0,-24" class="g2_170" />
<path fill-rule="evenodd" d="M47,839l33,0l0,-25l-33,0l0,25Z" class="g1_170" />
<path fill-rule="evenodd" d="M81,839l28,0l0,-25l-28,0l0,25Z" class="g1_170" />
<path fill-rule="evenodd" d="M110,839l26,0l0,-25l-26,0l0,25Z" class="g1_170" />
<path fill-rule="evenodd" d="M138,839l33,0l0,-25l-33,0l0,25Z" class="g1_170" />
<path fill-rule="evenodd" d="M172,839l19,0l0,-25l-19,0l0,25Z" class="g1_170" />
<path fill-rule="evenodd" d="M192,839l185,0l0,-23l-185,0l0,23Z" class="g1_170" />
<g clip-path="url(#c25_170)">
<path fill-rule="evenodd" d="M200,839l170,0l0,-23l-170,0l0,23Z" class="g1_170" />
</g>
<path fill-rule="evenodd" d="M379,839l60,0l0,-23l-60,0l0,23Z" class="g1_170" />
<g clip-path="url(#c26_170)">
<path fill-rule="evenodd" d="M386,839l46,0l0,-23l-46,0l0,23Z" class="g1_170" />
</g>
<path fill-rule="evenodd" d="M441,839l445,0l0,-23l-445,0l0,23Z" class="g1_170" />
<g clip-path="url(#c27_170)">
<path fill-rule="evenodd" d="M448,839l430,0l0,-23l-430,0l0,23Z" class="g1_170" />
</g>
<path d="M46.5,816.5l0,-2" class="g2_170" />
<path d="M80.5,816.5l0,-2" class="g2_170" />
<path d="M109.5,816.5l0,-2" class="g2_170" />
<path d="M136.5,816.5l0,-2" class="g2_170" />
<path d="M171.5,816.5l0,-2" class="g2_170" />
<path d="M191.5,816.5l0,-2" class="g2_170" />
<path d="M192.5,816.5l185,0" class="g2_170" />
<path d="M377.5,816.5l0,-2" class="g2_170" />
<path d="M379.5,816.5l60,0" class="g2_170" />
<path d="M439.5,816.5l0,-2" class="g2_170" />
<path d="M441.5,816.5l445,0" class="g2_170" />
<path d="M886.5,816.5l0,-2" class="g2_170" />
<path d="M46.5,839.5l0,-23" class="g2_170" />
<path d="M80.5,839.5l0,-23" class="g2_170" />
<path d="M109.5,839.5l0,-23" class="g2_170" />
<path d="M136.5,839.5l0,-23" class="g2_170" />
<path d="M171.5,839.5l0,-23" class="g2_170" />
<path d="M191.5,839.5l0,-23" class="g2_170" />
<path d="M377.5,839.5l0,-23" class="g2_170" />
<path d="M439.5,839.5l0,-23" class="g2_170" />
<path d="M886.5,839.5l0,-23" class="g2_170" />
<path fill-rule="evenodd" d="M47,865l33,0l0,-25l-33,0l0,25Z" class="g1_170" />
<path fill-rule="evenodd" d="M81,865l28,0l0,-25l-28,0l0,25Z" class="g1_170" />
<path fill-rule="evenodd" d="M110,865l26,0l0,-25l-26,0l0,25Z" class="g1_170" />
<path fill-rule="evenodd" d="M138,865l33,0l0,-25l-33,0l0,25Z" class="g1_170" />
<path fill-rule="evenodd" d="M172,865l19,0l0,-25l-19,0l0,25Z" class="g1_170" />
<path fill-rule="evenodd" d="M192,865l185,0l0,-24l-185,0l0,24Z" class="g1_170" />
<g clip-path="url(#c28_170)">
<path fill-rule="evenodd" d="M200,865l170,0l0,-24l-170,0l0,24Z" class="g1_170" />
</g>
<path fill-rule="evenodd" d="M379,865l60,0l0,-24l-60,0l0,24Z" class="g1_170" />
<g clip-path="url(#c29_170)">
<path fill-rule="evenodd" d="M386,865l46,0l0,-24l-46,0l0,24Z" class="g1_170" />
</g>
<path fill-rule="evenodd" d="M441,865l445,0l0,-24l-445,0l0,24Z" class="g1_170" />
<g clip-path="url(#c30_170)">
<path fill-rule="evenodd" d="M448,865l430,0l0,-24l-430,0l0,24Z" class="g1_170" />
</g>
<path d="M46.5,841.5l0,-2" class="g2_170" />
<path d="M80.5,841.5l0,-2" class="g2_170" />
<path d="M109.5,841.5l0,-2" class="g2_170" />
<path d="M136.5,841.5l0,-2" class="g2_170" />
<path d="M171.5,841.5l0,-2" class="g2_170" />
<path d="M191.5,841.5l0,-2" class="g2_170" />
<path d="M192.5,841.5l185,0" class="g2_170" />
<path d="M377.5,841.5l0,-2" class="g2_170" />
<path d="M379.5,841.5l60,0" class="g2_170" />
<path d="M439.5,841.5l0,-2" class="g2_170" />
<path d="M441.5,841.5l445,0" class="g2_170" />
<path d="M886.5,841.5l0,-2" class="g2_170" />
<path d="M46.5,865.5l0,-24" class="g2_170" />
<path d="M80.5,865.5l0,-24" class="g2_170" />
<path d="M109.5,865.5l0,-24" class="g2_170" />
<path d="M136.5,865.5l0,-24" class="g2_170" />
<path d="M171.5,865.5l0,-24" class="g2_170" />
<path d="M191.5,865.5l0,-24" class="g2_170" />
<path d="M377.5,865.5l0,-24" class="g2_170" />
<path d="M439.5,865.5l0,-24" class="g2_170" />
<path d="M886.5,865.5l0,-24" class="g2_170" />
<path fill-rule="evenodd" d="M47,890l33,0l0,-25l-33,0l0,25Z" class="g1_170" />
<path fill-rule="evenodd" d="M81,890l28,0l0,-25l-28,0l0,25Z" class="g1_170" />
<path fill-rule="evenodd" d="M110,890l26,0l0,-25l-26,0l0,25Z" class="g1_170" />
<path fill-rule="evenodd" d="M138,890l33,0l0,-25l-33,0l0,25Z" class="g1_170" />
<path fill-rule="evenodd" d="M172,890l19,0l0,-25l-19,0l0,25Z" class="g1_170" />
<path fill-rule="evenodd" d="M192,890l185,0l0,-24l-185,0l0,24Z" class="g1_170" />
<g clip-path="url(#c31_170)">
<path fill-rule="evenodd" d="M200,890l170,0l0,-24l-170,0l0,24Z" class="g1_170" />
</g>
<path fill-rule="evenodd" d="M379,890l60,0l0,-24l-60,0l0,24Z" class="g1_170" />
<g clip-path="url(#c32_170)">
<path fill-rule="evenodd" d="M386,890l46,0l0,-24l-46,0l0,24Z" class="g1_170" />
</g>
<path fill-rule="evenodd" d="M441,890l445,0l0,-24l-445,0l0,24Z" class="g1_170" />
<g clip-path="url(#c33_170)">
<path fill-rule="evenodd" d="M448,890l430,0l0,-24l-430,0l0,24Z" class="g1_170" />
</g>
<path d="M46.5,866.5l0,-1" class="g2_170" />
<path d="M80.5,866.5l0,-1" class="g2_170" />
<path d="M109.5,866.5l0,-1" class="g2_170" />
<path d="M136.5,866.5l0,-1" class="g2_170" />
<path d="M171.5,866.5l0,-1" class="g2_170" />
<path d="M191.5,866.5l0,-1" class="g2_170" />
<path d="M192.5,866.5l185,0" class="g2_170" />
<path d="M377.5,866.5l0,-1" class="g2_170" />
<path d="M379.5,866.5l60,0" class="g2_170" />
<path d="M439.5,866.5l0,-1" class="g2_170" />
<path d="M441.5,866.5l445,0" class="g2_170" />
<path d="M886.5,866.5l0,-1" class="g2_170" />
<path d="M46.5,890.5l0,-24" class="g2_170" />
<path d="M80.5,890.5l0,-24" class="g2_170" />
<path d="M109.5,890.5l0,-24" class="g2_170" />
<path d="M136.5,890.5l0,-24" class="g2_170" />
<path d="M171.5,890.5l0,-24" class="g2_170" />
<path d="M191.5,890.5l0,-24" class="g2_170" />
<path d="M377.5,890.5l0,-24" class="g2_170" />
<path d="M439.5,890.5l0,-24" class="g2_170" />
<path d="M886.5,890.5l0,-24" class="g2_170" />
<path fill-rule="evenodd" d="M47,939l33,0l0,-49l-33,0l0,49Z" class="g1_170" />
<path fill-rule="evenodd" d="M81,939l28,0l0,-49l-28,0l0,49Z" class="g1_170" />
<path fill-rule="evenodd" d="M110,939l26,0l0,-49l-26,0l0,49Z" class="g1_170" />
<path fill-rule="evenodd" d="M138,939l33,0l0,-49l-33,0l0,49Z" class="g1_170" />
<path fill-rule="evenodd" d="M172,939l19,0l0,-49l-19,0l0,49Z" class="g1_170" />
<path fill-rule="evenodd" d="M192,939l185,0l0,-47l-185,0l0,47Z" class="g1_170" />
<g clip-path="url(#c34_170)">
<path fill-rule="evenodd" d="M200,916l170,0l0,-24l-170,0l0,24Z" class="g1_170" />
</g>
<path fill-rule="evenodd" d="M379,939l60,0l0,-47l-60,0l0,47Z" class="g1_170" />
<g clip-path="url(#c35_170)">
<path fill-rule="evenodd" d="M386,916l46,0l0,-24l-46,0l0,24Z" class="g1_170" />
</g>
<path fill-rule="evenodd" d="M441,939l445,0l0,-47l-445,0l0,47Z" class="g1_170" />
<g clip-path="url(#c36_170)">
<path fill-rule="evenodd" d="M448,916l430,0l0,-24l-430,0l0,24Z" class="g1_170" />
<path fill-rule="evenodd" d="M448,939l430,0l0,-23l-430,0l0,23Z" class="g1_170" />
</g>
<path d="M46.5,892.5l0,-2" class="g2_170" />
<path d="M80.5,892.5l0,-2" class="g2_170" />
<path d="M109.5,892.5l0,-2" class="g2_170" />
<path d="M136.5,892.5l0,-2" class="g2_170" />
<path d="M171.5,892.5l0,-2" class="g2_170" />
<path d="M191.5,892.5l0,-2" class="g2_170" />
<path d="M192.5,892.5l185,0" class="g2_170" />
<path d="M377.5,892.5l0,-2" class="g2_170" />
<path d="M379.5,892.5l60,0" class="g2_170" />
<path d="M439.5,892.5l0,-2" class="g2_170" />
<path d="M441.5,892.5l445,0" class="g2_170" />
<path d="M886.5,892.5l0,-2" class="g2_170" />
<path d="M46.5,939.5l0,-47" class="g2_170" />
<path d="M80.5,939.5l0,-47" class="g2_170" />
<path d="M109.5,939.5l0,-47" class="g2_170" />
<path d="M136.5,939.5l0,-47" class="g2_170" />
<path d="M171.5,939.5l0,-47" class="g2_170" />
<path d="M191.5,939.5l0,-47" class="g2_170" />
<path d="M377.5,939.5l0,-47" class="g2_170" />
<path d="M439.5,939.5l0,-47" class="g2_170" />
<path d="M886.5,939.5l0,-47" class="g2_170" />
<path fill-rule="evenodd" d="M47,965l33,0l0,-25l-33,0l0,25Z" class="g1_170" />
<path fill-rule="evenodd" d="M81,965l28,0l0,-25l-28,0l0,25Z" class="g1_170" />
<path fill-rule="evenodd" d="M110,965l26,0l0,-25l-26,0l0,25Z" class="g1_170" />
<path fill-rule="evenodd" d="M138,965l33,0l0,-25l-33,0l0,25Z" class="g1_170" />
<path fill-rule="evenodd" d="M172,965l19,0l0,-25l-19,0l0,25Z" class="g1_170" />
<path fill-rule="evenodd" d="M192,1039l26,0l0,-98l-26,0l0,98Z" class="g1_170" />
<g clip-path="url(#c37_170)">
<path fill-rule="evenodd" d="M200,1039l18,0l0,-98l-18,0l0,98Z" class="g1_170" />
</g>
<path fill-rule="evenodd" d="M220,1039l25,0l0,-98l-25,0l0,98Z" class="g1_170" />
<g clip-path="url(#c38_170)">
<path fill-rule="evenodd" d="M227,1039l18,0l0,-98l-18,0l0,98Z" class="g1_170" />
</g>
<path fill-rule="evenodd" d="M247,965l130,0l0,-24l-130,0l0,24Z" class="g1_170" />
<g clip-path="url(#c39_170)">
<path fill-rule="evenodd" d="M254,965l116,0l0,-24l-116,0l0,24Z" class="g1_170" />
</g>
<path fill-rule="evenodd" d="M379,965l60,0l0,-24l-60,0l0,24Z" class="g1_170" />
<g clip-path="url(#c40_170)">
<path fill-rule="evenodd" d="M386,965l46,0l0,-24l-46,0l0,24Z" class="g1_170" />
</g>
<path fill-rule="evenodd" d="M441,965l445,0l0,-24l-445,0l0,24Z" class="g1_170" />
<g clip-path="url(#c41_170)">
<path fill-rule="evenodd" d="M448,965l430,0l0,-24l-430,0l0,24Z" class="g1_170" />
</g>
<path d="M46.5,941.5l0,-2" class="g2_170" />
<path d="M80.5,941.5l0,-2" class="g2_170" />
<path d="M109.5,941.5l0,-2" class="g2_170" />
<path d="M136.5,941.5l0,-2" class="g2_170" />
<path d="M171.5,941.5l0,-2" class="g2_170" />
<path d="M191.5,941.5l0,-2" class="g2_170" />
<path d="M192.5,941.5l26,0" class="g2_170" />
<path d="M218.5,941.5l0,-2" class="g2_170" />
<path d="M220.5,941.5l25,0" class="g2_170" />
<path d="M245.5,941.5l0,-2" class="g2_170" />
<path d="M247.5,941.5l130,0" class="g2_170" />
<path d="M377.5,941.5l0,-2" class="g2_170" />
<path d="M379.5,941.5l60,0" class="g2_170" />
<path d="M439.5,941.5l0,-2" class="g2_170" />
<path d="M441.5,941.5l445,0" class="g2_170" />
<path d="M886.5,941.5l0,-2" class="g2_170" />
<path d="M46.5,965.5l0,-24" class="g2_170" />
<path d="M80.5,965.5l0,-24" class="g2_170" />
<path d="M109.5,965.5l0,-24" class="g2_170" />
<path d="M136.5,965.5l0,-24" class="g2_170" />
<path d="M171.5,965.5l0,-24" class="g2_170" />
<path d="M191.5,965.5l0,-24" class="g2_170" />
<path d="M218.5,965.5l0,-24" class="g2_170" />
<path d="M245.5,965.5l0,-24" class="g2_170" />
<path d="M377.5,965.5l0,-24" class="g2_170" />
<path d="M439.5,965.5l0,-24" class="g2_170" />
<path d="M886.5,965.5l0,-24" class="g2_170" />
<path fill-rule="evenodd" d="M47,1014l33,0l0,-49l-33,0l0,49Z" class="g1_170" />
<path fill-rule="evenodd" d="M81,1014l28,0l0,-49l-28,0l0,49Z" class="g1_170" />
<path fill-rule="evenodd" d="M110,1014l26,0l0,-49l-26,0l0,49Z" class="g1_170" />
<path fill-rule="evenodd" d="M138,1014l33,0l0,-49l-33,0l0,49Z" class="g1_170" />
<path fill-rule="evenodd" d="M172,1014l19,0l0,-49l-19,0l0,49Z" class="g1_170" />
<path fill-rule="evenodd" d="M247,1039l27,0l0,-73l-27,0l0,73Z" class="g1_170" />
<g clip-path="url(#c42_170)">
<path fill-rule="evenodd" d="M254,1039l20,0l0,-73l-20,0l0,73Z" class="g1_170" />
</g>
<path fill-rule="evenodd" d="M275,1039l27,0l0,-73l-27,0l0,73Z" class="g1_170" />
<g clip-path="url(#c43_170)">
<path fill-rule="evenodd" d="M283,1039l19,0l0,-73l-19,0l0,73Z" class="g1_170" />
</g>
<path fill-rule="evenodd" d="M303,1014l74,0l0,-48l-74,0l0,48Z" class="g1_170" />
<path fill-rule="evenodd" d="M311,990l59,0l0,-24l-59,0l0,24Z" class="g1_170" />
<g clip-path="url(#c44_170)">
<path fill-rule="evenodd" d="M311,1014l59,0l0,-24l-59,0l0,24Z" class="g1_170" />
</g>
<path fill-rule="evenodd" d="M379,1014l60,0l0,-48l-60,0l0,48Z" class="g1_170" />
<path fill-rule="evenodd" d="M386,990l46,0l0,-24l-46,0l0,24Z" class="g1_170" />
<path fill-rule="evenodd" d="M441,1014l445,0l0,-48l-445,0l0,48Z" class="g1_170" />
<path fill-rule="evenodd" d="M448,990l430,0l0,-24l-430,0l0,24Z" class="g1_170" />
<path d="M46.5,966.5l0,-1" class="g2_170" />
<path d="M80.5,966.5l0,-1" class="g2_170" />
<path d="M109.5,966.5l0,-1" class="g2_170" />
<path d="M136.5,966.5l0,-1" class="g2_170" />
<path d="M171.5,966.5l0,-1" class="g2_170" />
<path d="M191.5,966.5l0,-1" class="g2_170" />
<path d="M218.5,966.5l0,-1" class="g2_170" />
<path d="M245.5,966.5l0,-1" class="g2_170" />
<path d="M247.5,966.5l27,0" class="g2_170" />
<path d="M274.5,966.5l0,-1" class="g2_170" />
<path d="M275.5,966.5l27,0" class="g2_170" />
<path d="M302.5,966.5l0,-1" class="g2_170" />
<path d="M303.5,966.5l74,0" class="g2_170" />
<path d="M377.5,966.5l0,-1" class="g2_170" />
<path d="M379.5,966.5l60,0" class="g2_170" />
<path d="M439.5,966.5l0,-1" class="g2_170" />
<path d="M441.5,966.5l445,0" class="g2_170" />
<path d="M886.5,966.5l0,-1" class="g2_170" />
<path d="M46.5,1014.5l0,-48" class="g2_170" />
<path d="M80.5,1014.5l0,-48" class="g2_170" />
<path d="M109.5,1014.5l0,-48" class="g2_170" />
<path d="M136.5,1014.5l0,-48" class="g2_170" />
<path d="M171.5,1014.5l0,-48" class="g2_170" />
<path d="M191.5,1014.5l0,-48" class="g2_170" />
<path d="M218.5,1014.5l0,-48" class="g2_170" />
<path d="M245.5,1014.5l0,-48" class="g2_170" />
<path d="M274.5,1014.5l0,-48" class="g2_170" />
<path d="M302.5,1014.5l0,-48" class="g2_170" />
<path d="M377.5,1014.5l0,-48" class="g2_170" />
<path d="M439.5,1014.5l0,-48" class="g2_170" />
<path d="M886.5,1014.5l0,-48" class="g2_170" />
<path fill-rule="evenodd" d="M47,1039l33,0l0,-25l-33,0l0,25Z" class="g1_170" />
<path fill-rule="evenodd" d="M81,1039l28,0l0,-25l-28,0l0,25Z" class="g1_170" />
<path fill-rule="evenodd" d="M110,1039l26,0l0,-25l-26,0l0,25Z" class="g1_170" />
<path fill-rule="evenodd" d="M138,1039l33,0l0,-25l-33,0l0,25Z" class="g1_170" />
<path fill-rule="evenodd" d="M172,1039l19,0l0,-25l-19,0l0,25Z" class="g1_170" />
<path fill-rule="evenodd" d="M303,1039l74,0l0,-23l-74,0l0,23Z" class="g1_170" />
<g clip-path="url(#c45_170)">
<path fill-rule="evenodd" d="M311,1039l59,0l0,-23l-59,0l0,23Z" class="g1_170" />
</g>
<path fill-rule="evenodd" d="M379,1039l60,0l0,-23l-60,0l0,23Z" class="g1_170" />
<g clip-path="url(#c46_170)">
<path fill-rule="evenodd" d="M386,1039l46,0l0,-23l-46,0l0,23Z" class="g1_170" />
</g>
<path fill-rule="evenodd" d="M441,1039l445,0l0,-23l-445,0l0,23Z" class="g1_170" />
<g clip-path="url(#c47_170)">
<path fill-rule="evenodd" d="M448,1039l430,0l0,-23l-430,0l0,23Z" class="g1_170" />
</g>
<path d="M46.5,1016.5l0,-2" class="g2_170" />
<path d="M80.5,1016.5l0,-2" class="g2_170" />
<path d="M109.5,1016.5l0,-2" class="g2_170" />
<path d="M136.5,1016.5l0,-2" class="g2_170" />
<path d="M171.5,1016.5l0,-2" class="g2_170" />
<path d="M191.5,1016.5l0,-2" class="g2_170" />
<path d="M218.5,1016.5l0,-2" class="g2_170" />
<path d="M245.5,1016.5l0,-2" class="g2_170" />
<path d="M274.5,1016.5l0,-2" class="g2_170" />
<path d="M302.5,1016.5l0,-2" class="g2_170" />
<path d="M303.5,1016.5l74,0" class="g2_170" />
<path d="M377.5,1016.5l0,-2" class="g2_170" />
<path d="M379.5,1016.5l60,0" class="g2_170" />
<path d="M439.5,1016.5l0,-2" class="g2_170" />
<path d="M441.5,1016.5l445,0" class="g2_170" />
<path d="M886.5,1016.5l0,-2" class="g2_170" />
<path d="M46.5,1040.5l0,-24" class="g2_170" />
<path d="M46.5,1041.5l0,-1" class="g2_170" />
<path d="M46.5,1041.5l0,-1" class="g2_170" />
<path d="M47.5,1041.5l33,0" class="g2_170" />
<path d="M80.5,1040.5l0,-24" class="g2_170" />
<path d="M80.5,1041.5l0,-1" class="g2_170" />
<path d="M81.5,1041.5l28,0" class="g2_170" />
<path d="M109.5,1040.5l0,-24" class="g2_170" />
<path d="M109.5,1041.5l0,-1" class="g2_170" />
<path d="M110.5,1041.5l26,0" class="g2_170" />
<path d="M136.5,1040.5l0,-24" class="g2_170" />
<path d="M136.5,1041.5l0,-1" class="g2_170" />
<path d="M138.5,1041.5l33,0" class="g2_170" />
<path d="M171.5,1040.5l0,-24" class="g2_170" />
<path d="M171.5,1041.5l0,-1" class="g2_170" />
<path d="M172.5,1041.5l19,0" class="g2_170" />
<path d="M191.5,1040.5l0,-24" class="g2_170" />
<path d="M191.5,1041.5l0,-1" class="g2_170" />
<path d="M192.5,1041.5l26,0" class="g2_170" />
<path d="M218.5,1040.5l0,-24" class="g2_170" />
<path d="M218.5,1041.5l0,-1" class="g2_170" />
<path d="M220.5,1041.5l25,0" class="g2_170" />
<path d="M245.5,1040.5l0,-24" class="g2_170" />
<path d="M245.5,1041.5l0,-1" class="g2_170" />
<path d="M247.5,1041.5l27,0" class="g2_170" />
<path d="M274.5,1040.5l0,-24" class="g2_170" />
<path d="M274.5,1041.5l0,-1" class="g2_170" />
<path d="M275.5,1041.5l27,0" class="g2_170" />
<path d="M302.5,1040.5l0,-24" class="g2_170" />
<path d="M302.5,1041.5l0,-1" class="g2_170" />
<path d="M303.5,1041.5l74,0" class="g2_170" />
<path d="M377.5,1040.5l0,-24" class="g2_170" />
<path d="M377.5,1041.5l0,-1" class="g2_170" />
<path d="M379.5,1041.5l60,0" class="g2_170" />
<path d="M439.5,1040.5l0,-24" class="g2_170" />
<path d="M439.5,1041.5l0,-1" class="g2_170" />
<path d="M441.5,1041.5l445,0" class="g2_170" />
<path d="M886.5,1040.5l0,-24" class="g2_170" />
<path d="M886.5,1041.5l0,-1" class="g2_170" />
<path d="M886.5,1041.5l0,-1" class="g2_170" />
</svg>