<?xml version="1.0" encoding="UTF-8" standalone="no"?>
<!DOCTYPE svg PUBLIC "-//W3C//DTD SVG 1.1//EN"
"http://www.w3.org/Graphics/SVG/1.1/DTD/svg11.dtd">
<svg version="1.1" xmlns="http://www.w3.org/2000/svg" xmlns:xlink="http://www.w3.org/1999/xlink">
<defs>
<clipPath id="c0_455"><path d="M47.5,516.5l0,-405l840,0l0,405Z" /></clipPath>
<clipPath id="c1_455"><path d="M76.5,786.5l0,-107l26,0l0,107Z" /></clipPath>
<clipPath id="c2_455"><path d="M103.5,786.5l0,-107l26,0l0,107Z" /></clipPath>
<clipPath id="c3_455"><path d="M130.5,712.5l0,-33l220,0l0,33Z" /></clipPath>
<clipPath id="c4_455"><path d="M351.5,712.5l0,-33l88,0l0,33Z" /></clipPath>
<clipPath id="c5_455"><path d="M440.5,712.5l0,-33l68,0l0,33Z" /></clipPath>
<clipPath id="c6_455"><path d="M509.5,712.5l0,-33l378,0l0,33Z" /></clipPath>
<clipPath id="c7_455"><path d="M130.5,786.5l0,-72l220,0l0,72Z" /></clipPath>
<clipPath id="c8_455"><path d="M351.5,786.5l0,-72l88,0l0,72Z" /></clipPath>
<clipPath id="c9_455"><path d="M440.5,786.5l0,-72l68,0l0,72Z" /></clipPath>
<clipPath id="c10_455"><path d="M509.5,786.5l0,-72l378,0l0,72Z" /></clipPath>
<clipPath id="c11_455"><path d="M47.5,908.5l0,-24l840,0l0,24Z" /></clipPath>
<clipPath id="c12_455"><path d="M47.5,1078.5l0,-143l840,0l0,143Z" /></clipPath>
<style type="text/css"><![CDATA[
.g2_455{
fill: none;
stroke: #7E7E7E;
stroke-width: 1;
stroke-linecap: butt;
stroke-linejoin: miter;
}
.g3_455{
fill: #DBE5F1;
}
.g1_455{
fill: #F1F1F1;
}
]]></style>
</defs>
<path fill-rule="evenodd" d="M47,516l840,0l0,-405L47,111l0,405Z" class="g1_455" />
<g clip-path="url(#c0_455)">
<path fill-rule="evenodd" d="M55,135l825,0l0,-24L55,111l0,24Z" class="g1_455" />
</g>
<path fill-rule="evenodd" d="M55,159l825,0l0,-24L55,135l0,24Z" class="g1_455" />
<path fill-rule="evenodd" d="M55,182l825,0l0,-23L55,159l0,23Z" class="g1_455" />
<path fill-rule="evenodd" d="M55,206l825,0l0,-24L55,182l0,24Z" class="g1_455" />
<path fill-rule="evenodd" d="M55,230l825,0l0,-24L55,206l0,24Z" class="g1_455" />
<path fill-rule="evenodd" d="M55,254l825,0l0,-24L55,230l0,24Z" class="g1_455" />
<path fill-rule="evenodd" d="M55,278l825,0l0,-24L55,254l0,24Z" class="g1_455" />
<path fill-rule="evenodd" d="M55,302l825,0l0,-24L55,278l0,24Z" class="g1_455" />
<path fill-rule="evenodd" d="M55,325l825,0l0,-23L55,302l0,23Z" class="g1_455" />
<path fill-rule="evenodd" d="M55,349l825,0l0,-24L55,325l0,24Z" class="g1_455" />
<path fill-rule="evenodd" d="M55,373l825,0l0,-24L55,349l0,24Z" class="g1_455" />
<path fill-rule="evenodd" d="M55,397l825,0l0,-24L55,373l0,24Z" class="g1_455" />
<path fill-rule="evenodd" d="M55,421l825,0l0,-24L55,397l0,24Z" class="g1_455" />
<path fill-rule="evenodd" d="M55,445l825,0l0,-24L55,421l0,24Z" class="g1_455" />
<path fill-rule="evenodd" d="M55,469l825,0l0,-24L55,445l0,24Z" class="g1_455" />
<path fill-rule="evenodd" d="M55,492l825,0l0,-23L55,469l0,23Z" class="g1_455" />
<path fill-rule="evenodd" d="M55,516l825,0l0,-24L55,492l0,24Z" class="g1_455" />
<path d="M46.5,111.5l0,-1" class="g2_455" />
<path d="M46.5,111.5l0,-1" class="g2_455" />
<path d="M47.5,111.5l840,0" class="g2_455" />
<path d="M887.5,111.5l0,-1" class="g2_455" />
<path d="M887.5,111.5l0,-1" class="g2_455" />
<path d="M46.5,516.5l0,-405" class="g2_455" />
<path d="M46.5,518.5l0,-2" class="g2_455" />
<path d="M46.5,518.5l0,-2" class="g2_455" />
<path d="M47.5,518.5l840,0" class="g2_455" />
<path d="M887.5,516.5l0,-405" class="g2_455" />
<path d="M887.5,518.5l0,-2" class="g2_455" />
<path d="M887.5,518.5l0,-2" class="g2_455" />
<path fill-rule="evenodd" d="M47,628l303,0l0,-24L47,604l0,24Z" class="g3_455" />
<path fill-rule="evenodd" d="M55,628l287,0l0,-24L55,604l0,24Z" class="g3_455" />
<path fill-rule="evenodd" d="M351,628l88,0l0,-24l-88,0l0,24Z" class="g3_455" />
<path fill-rule="evenodd" d="M359,628l73,0l0,-24l-73,0l0,24Z" class="g3_455" />
<path fill-rule="evenodd" d="M440,628l68,0l0,-24l-68,0l0,24Z" class="g3_455" />
<path fill-rule="evenodd" d="M448,628l52,0l0,-24l-52,0l0,24Z" class="g3_455" />
<path fill-rule="evenodd" d="M509,628l378,0l0,-24l-378,0l0,24Z" class="g3_455" />
<path fill-rule="evenodd" d="M517,628l363,0l0,-24l-363,0l0,24Z" class="g3_455" />
<path d="M46.5,604.5l0,-1" class="g2_455" />
<path d="M46.5,604.5l0,-1" class="g2_455" />
<path d="M47.5,604.5l303,0" class="g2_455" />
<path d="M350.5,604.5l0,-1" class="g2_455" />
<path d="M351.5,604.5l88,0" class="g2_455" />
<path d="M439.5,604.5l0,-1" class="g2_455" />
<path d="M440.5,604.5l68,0" class="g2_455" />
<path d="M508.5,604.5l0,-1" class="g2_455" />
<path d="M509.5,604.5l378,0" class="g2_455" />
<path d="M887.5,604.5l0,-1" class="g2_455" />
<path d="M887.5,604.5l0,-1" class="g2_455" />
<path d="M46.5,628.5l0,-24" class="g2_455" />
<path d="M350.5,628.5l0,-24" class="g2_455" />
<path d="M439.5,628.5l0,-24" class="g2_455" />
<path d="M508.5,628.5l0,-24" class="g2_455" />
<path d="M887.5,628.5l0,-24" class="g2_455" />
<path fill-rule="evenodd" d="M47,786l27,0L74,630l-27,0l0,156Z" class="g1_455" />
<path fill-rule="evenodd" d="M55,786l19,0L74,630l-19,0l0,156Z" class="g1_455" />
<path fill-rule="evenodd" d="M76,678l274,0l0,-48L76,630l0,48Z" class="g1_455" />
<path fill-rule="evenodd" d="M83,654l259,0l0,-24L83,630l0,24Z" class="g1_455" />
<path fill-rule="evenodd" d="M351,678l88,0l0,-48l-88,0l0,48Z" class="g1_455" />
<path fill-rule="evenodd" d="M359,654l73,0l0,-24l-73,0l0,24Z" class="g1_455" />
<path fill-rule="evenodd" d="M440,678l68,0l0,-48l-68,0l0,48Z" class="g1_455" />
<path fill-rule="evenodd" d="M448,654l52,0l0,-24l-52,0l0,24Z" class="g1_455" />
<path fill-rule="evenodd" d="M509,678l378,0l0,-48l-378,0l0,48Z" class="g1_455" />
<path fill-rule="evenodd" d="M517,654l363,0l0,-24l-363,0l0,24Z" class="g1_455" />
<path fill-rule="evenodd" d="M517,678l363,0l0,-24l-363,0l0,24Z" class="g1_455" />
<path d="M46.5,630.5l0,-2" class="g2_455" />
<path d="M47.5,630.5l27,0" class="g2_455" />
<path d="M74.5,630.5l0,-2" class="g2_455" />
<path d="M76.5,630.5l274,0" class="g2_455" />
<path d="M350.5,630.5l0,-2" class="g2_455" />
<path d="M351.5,630.5l88,0" class="g2_455" />
<path d="M439.5,630.5l0,-2" class="g2_455" />
<path d="M440.5,630.5l68,0" class="g2_455" />
<path d="M508.5,630.5l0,-2" class="g2_455" />
<path d="M509.5,630.5l378,0" class="g2_455" />
<path d="M887.5,630.5l0,-2" class="g2_455" />
<path d="M46.5,678.5l0,-48" class="g2_455" />
<path d="M74.5,678.5l0,-48" class="g2_455" />
<path d="M350.5,678.5l0,-48" class="g2_455" />
<path d="M439.5,678.5l0,-48" class="g2_455" />
<path d="M508.5,678.5l0,-48" class="g2_455" />
<path d="M887.5,678.5l0,-48" class="g2_455" />
<path fill-rule="evenodd" d="M76,786l26,0l0,-107l-26,0l0,107Z" class="g1_455" />
<g clip-path="url(#c1_455)">
<path fill-rule="evenodd" d="M83,786l19,0l0,-107l-19,0l0,107Z" class="g1_455" />
</g>
<path fill-rule="evenodd" d="M103,786l26,0l0,-107l-26,0l0,107Z" class="g1_455" />
<g clip-path="url(#c2_455)">
<path fill-rule="evenodd" d="M111,786l18,0l0,-107l-18,0l0,107Z" class="g1_455" />
</g>
<path fill-rule="evenodd" d="M130,712l220,0l0,-33l-220,0l0,33Z" class="g1_455" />
<g clip-path="url(#c3_455)">
<path fill-rule="evenodd" d="M138,703l204,0l0,-24l-204,0l0,24Z" class="g1_455" />
</g>
<path fill-rule="evenodd" d="M351,712l88,0l0,-33l-88,0l0,33Z" class="g1_455" />
<g clip-path="url(#c4_455)">
<path fill-rule="evenodd" d="M359,703l73,0l0,-24l-73,0l0,24Z" class="g1_455" />
</g>
<path fill-rule="evenodd" d="M440,712l68,0l0,-33l-68,0l0,33Z" class="g1_455" />
<g clip-path="url(#c5_455)">
<path fill-rule="evenodd" d="M448,703l52,0l0,-24l-52,0l0,24Z" class="g1_455" />
</g>
<path fill-rule="evenodd" d="M509,712l378,0l0,-33l-378,0l0,33Z" class="g1_455" />
<g clip-path="url(#c6_455)">
<path fill-rule="evenodd" d="M517,703l363,0l0,-24l-363,0l0,24Z" class="g1_455" />
</g>
<path d="M46.5,679.5l0,-1" class="g2_455" />
<path d="M74.5,679.5l0,-1" class="g2_455" />
<path d="M76.5,679.5l26,0" class="g2_455" />
<path d="M102.5,679.5l0,-1" class="g2_455" />
<path d="M103.5,679.5l26,0" class="g2_455" />
<path d="M129.5,679.5l0,-1" class="g2_455" />
<path d="M130.5,679.5l220,0" class="g2_455" />
<path d="M350.5,679.5l0,-1" class="g2_455" />
<path d="M351.5,679.5l88,0" class="g2_455" />
<path d="M439.5,679.5l0,-1" class="g2_455" />
<path d="M440.5,679.5l68,0" class="g2_455" />
<path d="M508.5,679.5l0,-1" class="g2_455" />
<path d="M509.5,679.5l378,0" class="g2_455" />
<path d="M887.5,679.5l0,-1" class="g2_455" />
<path d="M46.5,712.5l0,-33" class="g2_455" />
<path d="M74.5,712.5l0,-33" class="g2_455" />
<path d="M102.5,712.5l0,-33" class="g2_455" />
<path d="M129.5,712.5l0,-33" class="g2_455" />
<path d="M350.5,712.5l0,-33" class="g2_455" />
<path d="M439.5,712.5l0,-33" class="g2_455" />
<path d="M508.5,712.5l0,-33" class="g2_455" />
<path d="M887.5,712.5l0,-33" class="g2_455" />
<path fill-rule="evenodd" d="M130,786l220,0l0,-72l-220,0l0,72Z" class="g1_455" />
<g clip-path="url(#c7_455)">
<path fill-rule="evenodd" d="M138,737l204,0l0,-23l-204,0l0,23Z" class="g1_455" />
</g>
<path fill-rule="evenodd" d="M351,786l88,0l0,-72l-88,0l0,72Z" class="g1_455" />
<g clip-path="url(#c8_455)">
<path fill-rule="evenodd" d="M359,737l73,0l0,-23l-73,0l0,23Z" class="g1_455" />
</g>
<path fill-rule="evenodd" d="M440,786l68,0l0,-72l-68,0l0,72Z" class="g1_455" />
<g clip-path="url(#c9_455)">
<path fill-rule="evenodd" d="M448,737l52,0l0,-23l-52,0l0,23Z" class="g1_455" />
</g>
<path fill-rule="evenodd" d="M509,786l378,0l0,-72l-378,0l0,72Z" class="g1_455" />
<g clip-path="url(#c10_455)">
<path fill-rule="evenodd" d="M517,737l363,0l0,-23l-363,0l0,23Z" class="g1_455" />
</g>
<path fill-rule="evenodd" d="M517,761l363,0l0,-24l-363,0l0,24Z" class="g1_455" />
<path d="M46.5,714.5l0,-2" class="g2_455" />
<path d="M74.5,714.5l0,-2" class="g2_455" />
<path d="M102.5,714.5l0,-2" class="g2_455" />
<path d="M129.5,714.5l0,-2" class="g2_455" />
<path d="M130.5,714.5l220,0" class="g2_455" />
<path d="M350.5,714.5l0,-2" class="g2_455" />
<path d="M351.5,714.5l88,0" class="g2_455" />
<path d="M439.5,714.5l0,-2" class="g2_455" />
<path d="M440.5,714.5l68,0" class="g2_455" />
<path d="M508.5,714.5l0,-2" class="g2_455" />
<path d="M509.5,714.5l378,0" class="g2_455" />
<path d="M887.5,714.5l0,-2" class="g2_455" />
<path d="M46.5,786.5l0,-72" class="g2_455" />
<path d="M46.5,787.5l0,-1" class="g2_455" />
<path d="M46.5,787.5l0,-1" class="g2_455" />
<path d="M47.5,787.5l27,0" class="g2_455" />
<path d="M74.5,786.5l0,-72" class="g2_455" />
<path d="M74.5,787.5l0,-1" class="g2_455" />
<path d="M76.5,787.5l26,0" class="g2_455" />
<path d="M102.5,786.5l0,-72" class="g2_455" />
<path d="M102.5,787.5l0,-1" class="g2_455" />
<path d="M103.5,787.5l26,0" class="g2_455" />
<path d="M129.5,786.5l0,-72" class="g2_455" />
<path d="M129.5,787.5l0,-1" class="g2_455" />
<path d="M130.5,787.5l220,0" class="g2_455" />
<path d="M350.5,786.5l0,-72" class="g2_455" />
<path d="M350.5,787.5l0,-1" class="g2_455" />
<path d="M351.5,787.5l88,0" class="g2_455" />
<path d="M439.5,786.5l0,-72" class="g2_455" />
<path d="M439.5,787.5l0,-1" class="g2_455" />
<path d="M440.5,787.5l68,0" class="g2_455" />
<path d="M508.5,786.5l0,-72" class="g2_455" />
<path d="M508.5,787.5l0,-1" class="g2_455" />
<path d="M509.5,787.5l378,0" class="g2_455" />
<path d="M887.5,786.5l0,-72" class="g2_455" />
<path d="M887.5,787.5l0,-1" class="g2_455" />
<path d="M887.5,787.5l0,-1" class="g2_455" />
<path fill-rule="evenodd" d="M47,908l840,0l0,-24L47,884l0,24Z" class="g1_455" />
<g clip-path="url(#c11_455)">
<path fill-rule="evenodd" d="M55,908l825,0l0,-24L55,884l0,24Z" class="g1_455" />
</g>
<path d="M46.5,884.5l0,-1" class="g2_455" />
<path d="M46.5,884.5l0,-1" class="g2_455" />
<path d="M47.5,884.5l840,0" class="g2_455" />
<path d="M887.5,884.5l0,-1" class="g2_455" />
<path d="M887.5,884.5l0,-1" class="g2_455" />
<path d="M46.5,908.5l0,-24" class="g2_455" />
<path d="M46.5,909.5l0,-1" class="g2_455" />
<path d="M46.5,909.5l0,-1" class="g2_455" />
<path d="M47.5,909.5l840,0" class="g2_455" />
<path d="M887.5,908.5l0,-24" class="g2_455" />
<path d="M887.5,909.5l0,-1" class="g2_455" />
<path d="M887.5,909.5l0,-1" class="g2_455" />
<path fill-rule="evenodd" d="M47,1078l840,0l0,-143L47,935l0,143Z" class="g1_455" />
<path fill-rule="evenodd" d="M55,959l825,0l0,-24L55,935l0,24Z" class="g1_455" />
<path fill-rule="evenodd" d="M55,983l825,0l0,-24L55,959l0,24Z" class="g1_455" />
<path fill-rule="evenodd" d="M55,1006l825,0l0,-23L55,983l0,23Z" class="g1_455" />
<path fill-rule="evenodd" d="M55,1030l825,0l0,-24l-825,0l0,24Z" class="g1_455" />
<path fill-rule="evenodd" d="M55,1054l825,0l0,-24l-825,0l0,24Z" class="g1_455" />
<g clip-path="url(#c12_455)">
<path fill-rule="evenodd" d="M55,1078l825,0l0,-24l-825,0l0,24Z" class="g1_455" />
</g>
<path d="M46.5,935.5l0,-2" class="g2_455" />
<path d="M46.5,935.5l0,-2" class="g2_455" />
<path d="M47.5,935.5l840,0" class="g2_455" />
<path d="M887.5,935.5l0,-2" class="g2_455" />
<path d="M887.5,935.5l0,-2" class="g2_455" />
<path d="M46.5,1078.5l0,-143" class="g2_455" />
<path d="M46.5,1079.5l0,-1" class="g2_455" />
<path d="M46.5,1079.5l0,-1" class="g2_455" />
<path d="M47.5,1079.5l840,0" class="g2_455" />
<path d="M887.5,1078.5l0,-143" class="g2_455" />
<path d="M887.5,1079.5l0,-1" class="g2_455" />
<path d="M887.5,1079.5l0,-1" class="g2_455" />
</svg>