<?xml version="1.0" encoding="UTF-8" standalone="no"?>
<!DOCTYPE svg PUBLIC "-//W3C//DTD SVG 1.1//EN"
"http://www.w3.org/Graphics/SVG/1.1/DTD/svg11.dtd">
<svg version="1.1" xmlns="http://www.w3.org/2000/svg" xmlns:xlink="http://www.w3.org/1999/xlink">
<defs>
<clipPath id="c0_133"><path d="M47.5,278.5l0,-167l840,0l0,167Z" /></clipPath>
<clipPath id="c1_133"><path d="M47.5,782.5l0,-430l840,0l0,430Z" /></clipPath>
<clipPath id="c2_133"><path d="M47.5,965.5l0,-24l102,0l0,24Z" /></clipPath>
<clipPath id="c3_133"><path d="M151.5,965.5l0,-24l736,0l0,24Z" /></clipPath>
<clipPath id="c4_133"><path d="M47.5,990.5l0,-24l102,0l0,24Z" /></clipPath>
<clipPath id="c5_133"><path d="M151.5,990.5l0,-24l736,0l0,24Z" /></clipPath>
<clipPath id="c6_133"><path d="M47.5,1015.5l0,-23l102,0l0,23Z" /></clipPath>
<clipPath id="c7_133"><path d="M151.5,1015.5l0,-23l736,0l0,23Z" /></clipPath>
<clipPath id="c8_133"><path d="M47.5,1041.5l0,-24l102,0l0,24Z" /></clipPath>
<clipPath id="c9_133"><path d="M151.5,1041.5l0,-24l736,0l0,24Z" /></clipPath>
<clipPath id="c10_133"><path d="M47.5,1066.5l0,-24l102,0l0,24Z" /></clipPath>
<clipPath id="c11_133"><path d="M151.5,1066.5l0,-24l736,0l0,24Z" /></clipPath>
<clipPath id="c12_133"><path d="M47.5,1092.5l0,-24l102,0l0,24Z" /></clipPath>
<clipPath id="c13_133"><path d="M151.5,1092.5l0,-24l736,0l0,24Z" /></clipPath>
<style type="text/css"><![CDATA[
.g2_133{
fill: none;
stroke: #7E7E7E;
stroke-width: 1;
stroke-linecap: butt;
stroke-linejoin: miter;
}
.g3_133{
fill: none;
stroke: #0000FF;
stroke-width: 1;
stroke-linecap: butt;
stroke-linejoin: miter;
}
.g4_133{
fill: #DBE5F1;
}
.g1_133{
fill: #F1F1F1;
}
]]></style>
</defs>
<path fill-rule="evenodd" d="M47,278l840,0l0,-167L47,111l0,167Z" class="g1_133" />
<g clip-path="url(#c0_133)">
<path fill-rule="evenodd" d="M55,135l825,0l0,-24L55,111l0,24Z" class="g1_133" />
</g>
<path fill-rule="evenodd" d="M55,159l825,0l0,-24L55,135l0,24Z" class="g1_133" />
<path fill-rule="evenodd" d="M55,182l825,0l0,-23L55,159l0,23Z" class="g1_133" />
<path fill-rule="evenodd" d="M55,206l825,0l0,-24L55,182l0,24Z" class="g1_133" />
<path fill-rule="evenodd" d="M55,230l825,0l0,-24L55,206l0,24Z" class="g1_133" />
<path fill-rule="evenodd" d="M55,254l825,0l0,-24L55,230l0,24Z" class="g1_133" />
<path fill-rule="evenodd" d="M55,278l825,0l0,-24L55,254l0,24Z" class="g1_133" />
<path d="M46.5,111.5l0,-1" class="g2_133" />
<path d="M46.5,111.5l0,-1" class="g2_133" />
<path d="M47.5,111.5l840,0" class="g2_133" />
<path d="M887.5,111.5l0,-1" class="g2_133" />
<path d="M887.5,111.5l0,-1" class="g2_133" />
<path d="M46.5,278.5l0,-167" class="g2_133" />
<path d="M46.5,279.5l0,-1" class="g2_133" />
<path d="M46.5,279.5l0,-1" class="g2_133" />
<path d="M47.5,279.5l840,0" class="g2_133" />
<path d="M887.5,278.5l0,-167" class="g2_133" />
<path d="M887.5,279.5l0,-1" class="g2_133" />
<path d="M887.5,279.5l0,-1" class="g2_133" />
<path fill-rule="evenodd" d="M47,782l840,0l0,-430L47,352l0,430Z" class="g1_133" />
<g clip-path="url(#c1_133)">
<path fill-rule="evenodd" d="M55,376l825,0l0,-24L55,352l0,24Z" class="g1_133" />
</g>
<path fill-rule="evenodd" d="M55,400l825,0l0,-24L55,376l0,24Z" class="g1_133" />
<path fill-rule="evenodd" d="M55,424l825,0l0,-24L55,400l0,24Z" class="g1_133" />
<path fill-rule="evenodd" d="M55,448l825,0l0,-24L55,424l0,24Z" class="g1_133" />
<path fill-rule="evenodd" d="M55,472l825,0l0,-24L55,448l0,24Z" class="g1_133" />
<path fill-rule="evenodd" d="M55,495l825,0l0,-23L55,472l0,23Z" class="g1_133" />
<path fill-rule="evenodd" d="M55,519l825,0l0,-24L55,495l0,24Z" class="g1_133" />
<path fill-rule="evenodd" d="M55,543l825,0l0,-24L55,519l0,24Z" class="g1_133" />
<path fill-rule="evenodd" d="M55,567l825,0l0,-24L55,543l0,24Z" class="g1_133" />
<path fill-rule="evenodd" d="M55,591l825,0l0,-24L55,567l0,24Z" class="g1_133" />
<path fill-rule="evenodd" d="M55,615l825,0l0,-24L55,591l0,24Z" class="g1_133" />
<path fill-rule="evenodd" d="M55,638l825,0l0,-23L55,615l0,23Z" class="g1_133" />
<path fill-rule="evenodd" d="M55,662l825,0l0,-24L55,638l0,24Z" class="g1_133" />
<path fill-rule="evenodd" d="M55,686l825,0l0,-24L55,662l0,24Z" class="g1_133" />
<path fill-rule="evenodd" d="M55,710l825,0l0,-24L55,686l0,24Z" class="g1_133" />
<path fill-rule="evenodd" d="M55,734l825,0l0,-24L55,710l0,24Z" class="g1_133" />
<path fill-rule="evenodd" d="M55,758l825,0l0,-24L55,734l0,24Z" class="g1_133" />
<path fill-rule="evenodd" d="M55,782l825,0l0,-24L55,758l0,24Z" class="g1_133" />
<path d="M46.5,352.5l0,-1" class="g2_133" />
<path d="M46.5,352.5l0,-1" class="g2_133" />
<path d="M47.5,352.5l840,0" class="g2_133" />
<path d="M887.5,352.5l0,-1" class="g2_133" />
<path d="M887.5,352.5l0,-1" class="g2_133" />
<path d="M46.5,782.5l0,-430" class="g2_133" />
<path d="M46.5,783.5l0,-1" class="g2_133" />
<path d="M46.5,783.5l0,-1" class="g2_133" />
<path d="M47.5,783.5l840,0" class="g2_133" />
<path d="M887.5,782.5l0,-430" class="g2_133" />
<path d="M887.5,783.5l0,-1" class="g2_133" />
<path d="M887.5,783.5l0,-1" class="g2_133" />
<path d="M371.5,911.5l163,0" class="g3_133" />
<path fill-rule="evenodd" d="M47,965l102,0l0,-24L47,941l0,24Z" class="g4_133" />
<g clip-path="url(#c2_133)">
<path fill-rule="evenodd" d="M55,965l87,0l0,-24l-87,0l0,24Z" class="g4_133" />
</g>
<path fill-rule="evenodd" d="M151,965l736,0l0,-24l-736,0l0,24Z" class="g4_133" />
<g clip-path="url(#c3_133)">
<path fill-rule="evenodd" d="M158,965l722,0l0,-24l-722,0l0,24Z" class="g4_133" />
</g>
<path d="M46.5,941.5l0,-2" class="g2_133" />
<path d="M46.5,941.5l0,-2" class="g2_133" />
<path d="M47.5,941.5l102,0" class="g2_133" />
<path d="M149.5,941.5l0,-2" class="g2_133" />
<path d="M151.5,941.5l736,0" class="g2_133" />
<path d="M887.5,941.5l0,-2" class="g2_133" />
<path d="M887.5,941.5l0,-2" class="g2_133" />
<path d="M46.5,965.5l0,-24" class="g2_133" />
<path d="M149.5,965.5l0,-24" class="g2_133" />
<path d="M887.5,965.5l0,-24" class="g2_133" />
<path fill-rule="evenodd" d="M47,990l102,0l0,-24L47,966l0,24Z" class="g1_133" />
<g clip-path="url(#c4_133)">
<path fill-rule="evenodd" d="M55,990l87,0l0,-24l-87,0l0,24Z" class="g1_133" />
</g>
<path fill-rule="evenodd" d="M151,990l736,0l0,-24l-736,0l0,24Z" class="g1_133" />
<g clip-path="url(#c5_133)">
<path fill-rule="evenodd" d="M158,990l722,0l0,-24l-722,0l0,24Z" class="g1_133" />
</g>
<path d="M46.5,966.5l0,-1" class="g2_133" />
<path d="M47.5,966.5l102,0" class="g2_133" />
<path d="M149.5,966.5l0,-1" class="g2_133" />
<path d="M151.5,966.5l736,0" class="g2_133" />
<path d="M887.5,966.5l0,-1" class="g2_133" />
<path d="M46.5,990.5l0,-24" class="g2_133" />
<path d="M149.5,990.5l0,-24" class="g2_133" />
<path d="M887.5,990.5l0,-24" class="g2_133" />
<path fill-rule="evenodd" d="M47,1016l102,0l0,-24L47,992l0,24Z" class="g1_133" />
<g clip-path="url(#c6_133)">
<path fill-rule="evenodd" d="M55,1016l87,0l0,-24l-87,0l0,24Z" class="g1_133" />
</g>
<path fill-rule="evenodd" d="M151,1016l736,0l0,-24l-736,0l0,24Z" class="g1_133" />
<g clip-path="url(#c7_133)">
<path fill-rule="evenodd" d="M158,1016l722,0l0,-24l-722,0l0,24Z" class="g1_133" />
</g>
<path d="M46.5,991.5l0,-1" class="g2_133" />
<path d="M47.5,991.5l102,0" class="g2_133" />
<path d="M149.5,991.5l0,-1" class="g2_133" />
<path d="M151.5,991.5l736,0" class="g2_133" />
<path d="M887.5,991.5l0,-1" class="g2_133" />
<path d="M46.5,1016.5l0,-25" class="g2_133" />
<path d="M149.5,1016.5l0,-25" class="g2_133" />
<path d="M887.5,1016.5l0,-25" class="g2_133" />
<path fill-rule="evenodd" d="M47,1041l102,0l0,-24l-102,0l0,24Z" class="g1_133" />
<g clip-path="url(#c8_133)">
<path fill-rule="evenodd" d="M55,1041l87,0l0,-24l-87,0l0,24Z" class="g1_133" />
</g>
<path fill-rule="evenodd" d="M151,1041l736,0l0,-24l-736,0l0,24Z" class="g1_133" />
<g clip-path="url(#c9_133)">
<path fill-rule="evenodd" d="M158,1041l722,0l0,-24l-722,0l0,24Z" class="g1_133" />
</g>
<path d="M46.5,1017.5l0,-1" class="g2_133" />
<path d="M47.5,1017.5l102,0" class="g2_133" />
<path d="M149.5,1017.5l0,-1" class="g2_133" />
<path d="M151.5,1017.5l736,0" class="g2_133" />
<path d="M887.5,1017.5l0,-1" class="g2_133" />
<path d="M46.5,1041.5l0,-24" class="g2_133" />
<path d="M149.5,1041.5l0,-24" class="g2_133" />
<path d="M887.5,1041.5l0,-24" class="g2_133" />
<path fill-rule="evenodd" d="M47,1066l102,0l0,-24l-102,0l0,24Z" class="g1_133" />
<g clip-path="url(#c10_133)">
<path fill-rule="evenodd" d="M55,1066l87,0l0,-24l-87,0l0,24Z" class="g1_133" />
</g>
<path fill-rule="evenodd" d="M151,1066l736,0l0,-24l-736,0l0,24Z" class="g1_133" />
<g clip-path="url(#c11_133)">
<path fill-rule="evenodd" d="M158,1066l722,0l0,-24l-722,0l0,24Z" class="g1_133" />
</g>
<path d="M46.5,1042.5l0,-1" class="g2_133" />
<path d="M47.5,1042.5l102,0" class="g2_133" />
<path d="M149.5,1042.5l0,-1" class="g2_133" />
<path d="M151.5,1042.5l736,0" class="g2_133" />
<path d="M887.5,1042.5l0,-1" class="g2_133" />
<path d="M46.5,1066.5l0,-24" class="g2_133" />
<path d="M149.5,1066.5l0,-24" class="g2_133" />
<path d="M887.5,1066.5l0,-24" class="g2_133" />
<path fill-rule="evenodd" d="M47,1092l102,0l0,-24l-102,0l0,24Z" class="g1_133" />
<g clip-path="url(#c12_133)">
<path fill-rule="evenodd" d="M55,1092l87,0l0,-24l-87,0l0,24Z" class="g1_133" />
</g>
<path fill-rule="evenodd" d="M151,1092l736,0l0,-24l-736,0l0,24Z" class="g1_133" />
<g clip-path="url(#c13_133)">
<path fill-rule="evenodd" d="M158,1092l722,0l0,-24l-722,0l0,24Z" class="g1_133" />
</g>
<path d="M46.5,1068.5l0,-2" class="g2_133" />
<path d="M47.5,1068.5l102,0" class="g2_133" />
<path d="M149.5,1068.5l0,-2" class="g2_133" />
<path d="M151.5,1068.5l736,0" class="g2_133" />
<path d="M887.5,1068.5l0,-2" class="g2_133" />
<path d="M46.5,1092.5l0,-24" class="g2_133" />
<path d="M46.5,1093.5l0,-1" class="g2_133" />
<path d="M46.5,1093.5l0,-1" class="g2_133" />
<path d="M47.5,1093.5l102,0" class="g2_133" />
<path d="M149.5,1092.5l0,-24" class="g2_133" />
<path d="M149.5,1093.5l0,-1" class="g2_133" />
<path d="M151.5,1093.5l736,0" class="g2_133" />
<path d="M887.5,1092.5l0,-24" class="g2_133" />
<path d="M887.5,1093.5l0,-1" class="g2_133" />
<path d="M887.5,1093.5l0,-1" class="g2_133" />
</svg>