<?xml version="1.0" encoding="UTF-8" standalone="no"?>
<!DOCTYPE svg PUBLIC "-//W3C//DTD SVG 1.1//EN"
"http://www.w3.org/Graphics/SVG/1.1/DTD/svg11.dtd">
<svg version="1.1" xmlns="http://www.w3.org/2000/svg" xmlns:xlink="http://www.w3.org/1999/xlink">
<defs>
<style type="text/css"><![CDATA[
.g1_258{
fill: none;
stroke: #000000;
stroke-width: 1;
stroke-linecap: butt;
stroke-linejoin: miter;
}
]]></style>
</defs>
<path d="M54.5,110.5l40,0" class="g1_258" />
<path d="M94.5,110.5l41,0" class="g1_258" />
<path d="M135.5,110.5l243,0" class="g1_258" />
<path d="M379.5,110.5l74,0" class="g1_258" />
<path d="M454.5,110.5l306,0" class="g1_258" />
<path d="M761.5,110.5l127,0" class="g1_258" />
<path d="M53.5,444.5l0,-334" class="g1_258" />
<path d="M94.5,444.5l0,-334" class="g1_258" />
<path d="M135.5,444.5l0,-334" class="g1_258" />
<path d="M378.5,444.5l0,-334" class="g1_258" />
<path d="M453.5,444.5l0,-334" class="g1_258" />
<path d="M760.5,444.5l0,-334" class="g1_258" />
<path d="M888.5,444.5l0,-334" class="g1_258" />
<path d="M53.5,445.5l0,-1" class="g1_258" />
<path d="M94.5,445.5l0,-1" class="g1_258" />
<path d="M135.5,445.5l0,-1" class="g1_258" />
<path d="M135.5,445.5l243,0" class="g1_258" />
<path d="M378.5,445.5l0,-1" class="g1_258" />
<path d="M379.5,445.5l74,0" class="g1_258" />
<path d="M453.5,445.5l0,-1" class="g1_258" />
<path d="M454.5,445.5l306,0" class="g1_258" />
<path d="M760.5,445.5l0,-1" class="g1_258" />
<path d="M761.5,445.5l127,0" class="g1_258" />
<path d="M888.5,445.5l0,-1" class="g1_258" />
<path d="M53.5,492.5l0,-47" class="g1_258" />
<path d="M94.5,492.5l0,-47" class="g1_258" />
<path d="M135.5,492.5l0,-47" class="g1_258" />
<path d="M378.5,492.5l0,-47" class="g1_258" />
<path d="M453.5,492.5l0,-47" class="g1_258" />
<path d="M760.5,492.5l0,-47" class="g1_258" />
<path d="M888.5,492.5l0,-47" class="g1_258" />
<path d="M53.5,493.5l0,-1" class="g1_258" />
<path d="M94.5,493.5l0,-1" class="g1_258" />
<path d="M135.5,493.5l0,-1" class="g1_258" />
<path d="M135.5,493.5l243,0" class="g1_258" />
<path d="M378.5,493.5l0,-1" class="g1_258" />
<path d="M379.5,493.5l74,0" class="g1_258" />
<path d="M453.5,493.5l0,-1" class="g1_258" />
<path d="M454.5,493.5l306,0" class="g1_258" />
<path d="M760.5,493.5l0,-1" class="g1_258" />
<path d="M761.5,493.5l127,0" class="g1_258" />
<path d="M888.5,493.5l0,-1" class="g1_258" />
<path d="M53.5,565.5l0,-72" class="g1_258" />
<path d="M94.5,565.5l0,-72" class="g1_258" />
<path d="M135.5,565.5l0,-72" class="g1_258" />
<path d="M378.5,565.5l0,-72" class="g1_258" />
<path d="M453.5,565.5l0,-72" class="g1_258" />
<path d="M760.5,565.5l0,-72" class="g1_258" />
<path d="M888.5,565.5l0,-72" class="g1_258" />
<path d="M135.5,565.5l243,0" class="g1_258" />
<path d="M379.5,565.5l74,0" class="g1_258" />
<path d="M454.5,565.5l306,0" class="g1_258" />
<path d="M761.5,565.5l127,0" class="g1_258" />
<path d="M53.5,637.5l0,-72" class="g1_258" />
<path d="M94.5,637.5l0,-72" class="g1_258" />
<path d="M135.5,637.5l0,-72" class="g1_258" />
<path d="M378.5,637.5l0,-72" class="g1_258" />
<path d="M453.5,637.5l0,-72" class="g1_258" />
<path d="M760.5,637.5l0,-72" class="g1_258" />
<path d="M888.5,637.5l0,-72" class="g1_258" />
<path d="M53.5,638.5l0,-1" class="g1_258" />
<path d="M94.5,638.5l0,-1" class="g1_258" />
<path d="M135.5,638.5l0,-1" class="g1_258" />
<path d="M135.5,638.5l243,0" class="g1_258" />
<path d="M378.5,638.5l0,-1" class="g1_258" />
<path d="M379.5,638.5l74,0" class="g1_258" />
<path d="M453.5,638.5l0,-1" class="g1_258" />
<path d="M454.5,638.5l306,0" class="g1_258" />
<path d="M760.5,638.5l0,-1" class="g1_258" />
<path d="M761.5,638.5l127,0" class="g1_258" />
<path d="M888.5,638.5l0,-1" class="g1_258" />
<path d="M53.5,685.5l0,-47" class="g1_258" />
<path d="M94.5,685.5l0,-47" class="g1_258" />
<path d="M135.5,685.5l0,-47" class="g1_258" />
<path d="M378.5,685.5l0,-47" class="g1_258" />
<path d="M453.5,685.5l0,-47" class="g1_258" />
<path d="M760.5,685.5l0,-47" class="g1_258" />
<path d="M888.5,685.5l0,-47" class="g1_258" />
<path d="M53.5,686.5l0,-1" class="g1_258" />
<path d="M94.5,686.5l0,-1" class="g1_258" />
<path d="M135.5,686.5l0,-1" class="g1_258" />
<path d="M135.5,686.5l243,0" class="g1_258" />
<path d="M378.5,686.5l0,-1" class="g1_258" />
<path d="M379.5,686.5l74,0" class="g1_258" />
<path d="M453.5,686.5l0,-1" class="g1_258" />
<path d="M454.5,686.5l306,0" class="g1_258" />
<path d="M760.5,686.5l0,-1" class="g1_258" />
<path d="M761.5,686.5l127,0" class="g1_258" />
<path d="M888.5,686.5l0,-1" class="g1_258" />
<path d="M53.5,758.5l0,-72" class="g1_258" />
<path d="M94.5,758.5l0,-72" class="g1_258" />
<path d="M135.5,758.5l0,-72" class="g1_258" />
<path d="M378.5,758.5l0,-72" class="g1_258" />
<path d="M453.5,758.5l0,-72" class="g1_258" />
<path d="M760.5,758.5l0,-72" class="g1_258" />
<path d="M888.5,758.5l0,-72" class="g1_258" />
<path d="M135.5,758.5l243,0" class="g1_258" />
<path d="M379.5,758.5l74,0" class="g1_258" />
<path d="M454.5,758.5l306,0" class="g1_258" />
<path d="M761.5,758.5l127,0" class="g1_258" />
<path d="M53.5,854.5l0,-96" class="g1_258" />
<path d="M94.5,854.5l0,-96" class="g1_258" />
<path d="M135.5,854.5l0,-96" class="g1_258" />
<path d="M378.5,854.5l0,-96" class="g1_258" />
<path d="M453.5,854.5l0,-96" class="g1_258" />
<path d="M760.5,854.5l0,-96" class="g1_258" />
<path d="M888.5,854.5l0,-96" class="g1_258" />
<path d="M135.5,854.5l243,0" class="g1_258" />
<path d="M379.5,854.5l74,0" class="g1_258" />
<path d="M454.5,854.5l306,0" class="g1_258" />
<path d="M761.5,854.5l127,0" class="g1_258" />
<path d="M53.5,950.5l0,-96" class="g1_258" />
<path d="M94.5,950.5l0,-96" class="g1_258" />
<path d="M135.5,950.5l0,-96" class="g1_258" />
<path d="M378.5,950.5l0,-96" class="g1_258" />
<path d="M453.5,950.5l0,-96" class="g1_258" />
<path d="M760.5,950.5l0,-96" class="g1_258" />
<path d="M888.5,950.5l0,-96" class="g1_258" />
<path d="M53.5,951.5l0,-1" class="g1_258" />
<path d="M94.5,951.5l0,-1" class="g1_258" />
<path d="M135.5,951.5l0,-1" class="g1_258" />
<path d="M135.5,951.5l243,0" class="g1_258" />
<path d="M378.5,951.5l0,-1" class="g1_258" />
<path d="M379.5,951.5l74,0" class="g1_258" />
<path d="M453.5,951.5l0,-1" class="g1_258" />
<path d="M454.5,951.5l306,0" class="g1_258" />
<path d="M760.5,951.5l0,-1" class="g1_258" />
<path d="M761.5,951.5l127,0" class="g1_258" />
<path d="M888.5,951.5l0,-1" class="g1_258" />
<path d="M53.5,1094.5l0,-143" class="g1_258" />
<path d="M53.5,1095.5l0,-1" class="g1_258" />
<path d="M53.5,1095.5l0,-1" class="g1_258" />
<path d="M54.5,1095.5l40,0" class="g1_258" />
<path d="M94.5,1094.5l0,-143" class="g1_258" />
<path d="M94.5,1095.5l0,-1" class="g1_258" />
<path d="M94.5,1095.5l41,0" class="g1_258" />
<path d="M135.5,1094.5l0,-143" class="g1_258" />
<path d="M135.5,1095.5l0,-1" class="g1_258" />
<path d="M135.5,1095.5l243,0" class="g1_258" />
<path d="M378.5,1094.5l0,-143" class="g1_258" />
<path d="M378.5,1095.5l0,-1" class="g1_258" />
<path d="M379.5,1095.5l74,0" class="g1_258" />
<path d="M453.5,1094.5l0,-143" class="g1_258" />
<path d="M453.5,1095.5l0,-1" class="g1_258" />
<path d="M454.5,1095.5l306,0" class="g1_258" />
<path d="M760.5,1094.5l0,-143" class="g1_258" />
<path d="M760.5,1095.5l0,-1" class="g1_258" />
<path d="M761.5,1095.5l127,0" class="g1_258" />
<path d="M888.5,1094.5l0,-143" class="g1_258" />
<path d="M888.5,1095.5l0,-1" class="g1_258" />
<path d="M888.5,1095.5l0,-1" class="g1_258" />
</svg>