<?xml version="1.0" encoding="UTF-8" standalone="no"?>
<!DOCTYPE svg PUBLIC "-//W3C//DTD SVG 1.1//EN"
"http://www.w3.org/Graphics/SVG/1.1/DTD/svg11.dtd">
<svg version="1.1" xmlns="http://www.w3.org/2000/svg" xmlns:xlink="http://www.w3.org/1999/xlink">
<defs>
<clipPath id="c0_464"><path d="M47.5,378.5l0,-23l840,0l0,23Z" /></clipPath>
<clipPath id="c1_464"><path d="M47.5,915.5l0,-167l840,0l0,167Z" /></clipPath>
<clipPath id="c2_464"><path d="M47.5,1085.5l0,-96l840,0l0,96Z" /></clipPath>
<style type="text/css"><![CDATA[
.g2_464{
fill: none;
stroke: #7E7E7E;
stroke-width: 1;
stroke-linecap: butt;
stroke-linejoin: miter;
}
.g4_464{
fill: none;
stroke: #0000FF;
stroke-width: 1;
stroke-linecap: butt;
stroke-linejoin: miter;
}
.g3_464{
fill: #DBE5F1;
}
.g1_464{
fill: #F1F1F1;
}
]]></style>
</defs>
<path fill-rule="evenodd" d="M47,378l840,0l0,-23L47,355l0,23Z" class="g1_464" />
<g clip-path="url(#c0_464)">
<path fill-rule="evenodd" d="M55,378l825,0l0,-23L55,355l0,23Z" class="g1_464" />
</g>
<path d="M46.5,355.5l0,-2" class="g2_464" />
<path d="M46.5,355.5l0,-2" class="g2_464" />
<path d="M47.5,355.5l840,0" class="g2_464" />
<path d="M887.5,355.5l0,-2" class="g2_464" />
<path d="M887.5,355.5l0,-2" class="g2_464" />
<path d="M46.5,379.5l0,-24" class="g2_464" />
<path d="M46.5,380.5l0,-1" class="g2_464" />
<path d="M46.5,380.5l0,-1" class="g2_464" />
<path d="M47.5,380.5l840,0" class="g2_464" />
<path d="M887.5,379.5l0,-24" class="g2_464" />
<path d="M887.5,380.5l0,-1" class="g2_464" />
<path d="M887.5,380.5l0,-1" class="g2_464" />
<path fill-rule="evenodd" d="M47,462l178,0l0,-24L47,438l0,24Z" class="g3_464" />
<path fill-rule="evenodd" d="M55,462l162,0l0,-24L55,438l0,24Z" class="g3_464" />
<path fill-rule="evenodd" d="M226,462l163,0l0,-24l-163,0l0,24Z" class="g3_464" />
<path fill-rule="evenodd" d="M234,462l148,0l0,-24l-148,0l0,24Z" class="g3_464" />
<path fill-rule="evenodd" d="M391,462l496,0l0,-24l-496,0l0,24Z" class="g3_464" />
<path fill-rule="evenodd" d="M398,462l482,0l0,-24l-482,0l0,24Z" class="g3_464" />
<path d="M46.5,438.5l0,-2" class="g2_464" />
<path d="M46.5,438.5l0,-2" class="g2_464" />
<path d="M47.5,438.5l178,0" class="g2_464" />
<path d="M225.5,438.5l0,-2" class="g2_464" />
<path d="M226.5,438.5l163,0" class="g2_464" />
<path d="M389.5,438.5l0,-2" class="g2_464" />
<path d="M391.5,438.5l496,0" class="g2_464" />
<path d="M887.5,438.5l0,-2" class="g2_464" />
<path d="M887.5,438.5l0,-2" class="g2_464" />
<path d="M46.5,462.5l0,-24" class="g2_464" />
<path d="M225.5,462.5l0,-24" class="g2_464" />
<path d="M389.5,462.5l0,-24" class="g2_464" />
<path d="M887.5,462.5l0,-24" class="g2_464" />
<path fill-rule="evenodd" d="M47,487l178,0l0,-24L47,463l0,24Z" class="g1_464" />
<path fill-rule="evenodd" d="M55,487l162,0l0,-24L55,463l0,24Z" class="g1_464" />
<path fill-rule="evenodd" d="M226,487l163,0l0,-24l-163,0l0,24Z" class="g1_464" />
<path fill-rule="evenodd" d="M234,487l148,0l0,-24l-148,0l0,24Z" class="g1_464" />
<path fill-rule="evenodd" d="M391,487l496,0l0,-24l-496,0l0,24Z" class="g1_464" />
<path fill-rule="evenodd" d="M398,487l482,0l0,-24l-482,0l0,24Z" class="g1_464" />
<path d="M46.5,463.5l0,-1" class="g2_464" />
<path d="M47.5,463.5l178,0" class="g2_464" />
<path d="M225.5,463.5l0,-1" class="g2_464" />
<path d="M226.5,463.5l163,0" class="g2_464" />
<path d="M389.5,463.5l0,-1" class="g2_464" />
<path d="M391.5,463.5l496,0" class="g2_464" />
<path d="M887.5,463.5l0,-1" class="g2_464" />
<path d="M46.5,487.5l0,-24" class="g2_464" />
<path d="M225.5,487.5l0,-24" class="g2_464" />
<path d="M389.5,487.5l0,-24" class="g2_464" />
<path d="M887.5,487.5l0,-24" class="g2_464" />
<path fill-rule="evenodd" d="M47,513l178,0l0,-24L47,489l0,24Z" class="g1_464" />
<path fill-rule="evenodd" d="M55,513l162,0l0,-24L55,489l0,24Z" class="g1_464" />
<path fill-rule="evenodd" d="M226,513l163,0l0,-24l-163,0l0,24Z" class="g1_464" />
<path fill-rule="evenodd" d="M234,513l148,0l0,-24l-148,0l0,24Z" class="g1_464" />
<path fill-rule="evenodd" d="M391,513l496,0l0,-24l-496,0l0,24Z" class="g1_464" />
<path fill-rule="evenodd" d="M398,513l482,0l0,-24l-482,0l0,24Z" class="g1_464" />
<path d="M46.5,489.5l0,-2" class="g2_464" />
<path d="M47.5,489.5l178,0" class="g2_464" />
<path d="M225.5,489.5l0,-2" class="g2_464" />
<path d="M226.5,489.5l163,0" class="g2_464" />
<path d="M389.5,489.5l0,-2" class="g2_464" />
<path d="M391.5,489.5l496,0" class="g2_464" />
<path d="M887.5,489.5l0,-2" class="g2_464" />
<path d="M46.5,513.5l0,-24" class="g2_464" />
<path d="M46.5,514.5l0,-1" class="g2_464" />
<path d="M46.5,514.5l0,-1" class="g2_464" />
<path d="M47.5,514.5l178,0" class="g2_464" />
<path d="M225.5,513.5l0,-24" class="g2_464" />
<path d="M225.5,514.5l0,-1" class="g2_464" />
<path d="M226.5,514.5l163,0" class="g2_464" />
<path d="M389.5,513.5l0,-24" class="g2_464" />
<path d="M389.5,514.5l0,-1" class="g2_464" />
<path d="M391.5,514.5l496,0" class="g2_464" />
<path d="M887.5,513.5l0,-24" class="g2_464" />
<path d="M887.5,514.5l0,-1" class="g2_464" />
<path d="M887.5,514.5l0,-1" class="g2_464" />
<path fill-rule="evenodd" d="M47,587l177,0l0,-24L47,563l0,24Z" class="g3_464" />
<path fill-rule="evenodd" d="M55,587l162,0l0,-24L55,563l0,24Z" class="g3_464" />
<path fill-rule="evenodd" d="M226,587l162,0l0,-24l-162,0l0,24Z" class="g3_464" />
<path fill-rule="evenodd" d="M233,587l148,0l0,-24l-148,0l0,24Z" class="g3_464" />
<path fill-rule="evenodd" d="M390,587l163,0l0,-24l-163,0l0,24Z" class="g3_464" />
<path fill-rule="evenodd" d="M397,587l148,0l0,-24l-148,0l0,24Z" class="g3_464" />
<path fill-rule="evenodd" d="M554,587l163,0l0,-24l-163,0l0,24Z" class="g3_464" />
<path fill-rule="evenodd" d="M562,587l148,0l0,-24l-148,0l0,24Z" class="g3_464" />
<path fill-rule="evenodd" d="M719,587l168,0l0,-24l-168,0l0,24Z" class="g3_464" />
<path fill-rule="evenodd" d="M726,587l154,0l0,-24l-154,0l0,24Z" class="g3_464" />
<path d="M46.5,563.5l0,-1" class="g2_464" />
<path d="M46.5,563.5l0,-1" class="g2_464" />
<path d="M47.5,563.5l177,0" class="g2_464" />
<path d="M224.5,563.5l0,-1" class="g2_464" />
<path d="M226.5,563.5l162,0" class="g2_464" />
<path d="M388.5,563.5l0,-1" class="g2_464" />
<path d="M390.5,563.5l163,0" class="g2_464" />
<path d="M553.5,563.5l0,-1" class="g2_464" />
<path d="M554.5,563.5l163,0" class="g2_464" />
<path d="M717.5,563.5l0,-1" class="g2_464" />
<path d="M719.5,563.5l168,0" class="g2_464" />
<path d="M887.5,563.5l0,-1" class="g2_464" />
<path d="M887.5,563.5l0,-1" class="g2_464" />
<path d="M46.5,587.5l0,-24" class="g2_464" />
<path d="M224.5,587.5l0,-24" class="g2_464" />
<path d="M388.5,587.5l0,-24" class="g2_464" />
<path d="M553.5,587.5l0,-24" class="g2_464" />
<path d="M717.5,587.5l0,-24" class="g2_464" />
<path d="M887.5,587.5l0,-24" class="g2_464" />
<path fill-rule="evenodd" d="M47,612l177,0l0,-23L47,589l0,23Z" class="g1_464" />
<path fill-rule="evenodd" d="M55,612l162,0l0,-23L55,589l0,23Z" class="g1_464" />
<path fill-rule="evenodd" d="M226,612l162,0l0,-23l-162,0l0,23Z" class="g1_464" />
<path fill-rule="evenodd" d="M233,612l148,0l0,-23l-148,0l0,23Z" class="g1_464" />
<path fill-rule="evenodd" d="M390,612l163,0l0,-23l-163,0l0,23Z" class="g1_464" />
<path fill-rule="evenodd" d="M397,612l148,0l0,-23l-148,0l0,23Z" class="g1_464" />
<path fill-rule="evenodd" d="M554,612l163,0l0,-23l-163,0l0,23Z" class="g1_464" />
<path fill-rule="evenodd" d="M562,612l148,0l0,-23l-148,0l0,23Z" class="g1_464" />
<path fill-rule="evenodd" d="M719,612l168,0l0,-23l-168,0l0,23Z" class="g1_464" />
<path fill-rule="evenodd" d="M726,612l154,0l0,-23l-154,0l0,23Z" class="g1_464" />
<path d="M46.5,588.5l0,-1" class="g2_464" />
<path d="M47.5,588.5l177,0" class="g2_464" />
<path d="M224.5,588.5l0,-1" class="g2_464" />
<path d="M226.5,588.5l162,0" class="g2_464" />
<path d="M388.5,588.5l0,-1" class="g2_464" />
<path d="M390.5,588.5l163,0" class="g2_464" />
<path d="M553.5,588.5l0,-1" class="g2_464" />
<path d="M554.5,588.5l163,0" class="g2_464" />
<path d="M717.5,588.5l0,-1" class="g2_464" />
<path d="M719.5,588.5l168,0" class="g2_464" />
<path d="M887.5,588.5l0,-1" class="g2_464" />
<path d="M46.5,612.5l0,-24" class="g2_464" />
<path d="M46.5,614.5l0,-2" class="g2_464" />
<path d="M46.5,614.5l0,-2" class="g2_464" />
<path d="M47.5,614.5l177,0" class="g2_464" />
<path d="M224.5,612.5l0,-24" class="g2_464" />
<path d="M224.5,614.5l0,-2" class="g2_464" />
<path d="M226.5,614.5l162,0" class="g2_464" />
<path d="M388.5,612.5l0,-24" class="g2_464" />
<path d="M388.5,614.5l0,-2" class="g2_464" />
<path d="M390.5,614.5l163,0" class="g2_464" />
<path d="M553.5,612.5l0,-24" class="g2_464" />
<path d="M553.5,614.5l0,-2" class="g2_464" />
<path d="M554.5,614.5l163,0" class="g2_464" />
<path d="M717.5,612.5l0,-24" class="g2_464" />
<path d="M717.5,614.5l0,-2" class="g2_464" />
<path d="M719.5,614.5l168,0" class="g2_464" />
<path d="M887.5,612.5l0,-24" class="g2_464" />
<path d="M887.5,614.5l0,-2" class="g2_464" />
<path d="M887.5,614.5l0,-2" class="g2_464" />
<path fill-rule="evenodd" d="M47,915l840,0l0,-167L47,748l0,167Z" class="g1_464" />
<g clip-path="url(#c1_464)">
<path fill-rule="evenodd" d="M55,772l825,0l0,-24L55,748l0,24Z" class="g1_464" />
</g>
<path fill-rule="evenodd" d="M55,796l825,0l0,-24L55,772l0,24Z" class="g1_464" />
<path fill-rule="evenodd" d="M55,819l825,0l0,-23L55,796l0,23Z" class="g1_464" />
<path fill-rule="evenodd" d="M55,843l825,0l0,-24L55,819l0,24Z" class="g1_464" />
<path fill-rule="evenodd" d="M55,867l825,0l0,-24L55,843l0,24Z" class="g1_464" />
<path fill-rule="evenodd" d="M55,891l825,0l0,-24L55,867l0,24Z" class="g1_464" />
<path fill-rule="evenodd" d="M55,915l825,0l0,-24L55,891l0,24Z" class="g1_464" />
<path d="M46.5,748.5l0,-2" class="g2_464" />
<path d="M46.5,748.5l0,-2" class="g2_464" />
<path d="M47.5,748.5l840,0" class="g2_464" />
<path d="M887.5,748.5l0,-2" class="g2_464" />
<path d="M887.5,748.5l0,-2" class="g2_464" />
<path d="M46.5,915.5l0,-167" class="g2_464" />
<path d="M46.5,916.5l0,-1" class="g2_464" />
<path d="M46.5,916.5l0,-1" class="g2_464" />
<path d="M47.5,916.5l840,0" class="g2_464" />
<path d="M887.5,915.5l0,-167" class="g2_464" />
<path d="M887.5,916.5l0,-1" class="g2_464" />
<path d="M887.5,916.5l0,-1" class="g2_464" />
<path fill-rule="evenodd" d="M47,1085l840,0l0,-96L47,989l0,96Z" class="g1_464" />
<path fill-rule="evenodd" d="M55,1013l825,0l0,-24L55,989l0,24Z" class="g1_464" />
<path fill-rule="evenodd" d="M55,1037l825,0l0,-24l-825,0l0,24Z" class="g1_464" />
<path d="M55.5,1032.5l816,0" class="g4_464" />
<path fill-rule="evenodd" d="M55,1061l825,0l0,-24l-825,0l0,24Z" class="g1_464" />
<path d="M55.5,1056.5l49,0" class="g4_464" />
<g clip-path="url(#c2_464)">
<path fill-rule="evenodd" d="M55,1085l825,0l0,-24l-825,0l0,24Z" class="g1_464" />
</g>
<path d="M46.5,989.5l0,-1" class="g2_464" />
<path d="M46.5,989.5l0,-1" class="g2_464" />
<path d="M47.5,989.5l840,0" class="g2_464" />
<path d="M887.5,989.5l0,-1" class="g2_464" />
<path d="M887.5,989.5l0,-1" class="g2_464" />
<path d="M46.5,1085.5l0,-96" class="g2_464" />
<path d="M46.5,1086.5l0,-1" class="g2_464" />
<path d="M46.5,1086.5l0,-1" class="g2_464" />
<path d="M47.5,1086.5l840,0" class="g2_464" />
<path d="M887.5,1085.5l0,-96" class="g2_464" />
<path d="M887.5,1086.5l0,-1" class="g2_464" />
<path d="M887.5,1086.5l0,-1" class="g2_464" />
</svg>