<?xml version="1.0" encoding="UTF-8" standalone="no"?>
<!DOCTYPE svg PUBLIC "-//W3C//DTD SVG 1.1//EN"
"http://www.w3.org/Graphics/SVG/1.1/DTD/svg11.dtd">
<svg version="1.1" xmlns="http://www.w3.org/2000/svg" xmlns:xlink="http://www.w3.org/1999/xlink">
<defs>
<clipPath id="c0_356"><path d="M47.5,244.5l0,-24l248,0l0,24Z" /></clipPath>
<clipPath id="c1_356"><path d="M297.5,244.5l0,-24l87,0l0,24Z" /></clipPath>
<clipPath id="c2_356"><path d="M385.5,244.5l0,-24l88,0l0,24Z" /></clipPath>
<clipPath id="c3_356"><path d="M475.5,244.5l0,-24l412,0l0,24Z" /></clipPath>
<clipPath id="c4_356"><path d="M47.5,983.5l0,-737l34,0l0,737Z" /></clipPath>
<clipPath id="c5_356"><path d="M83.5,269.5l0,-23l212,0l0,23Z" /></clipPath>
<clipPath id="c6_356"><path d="M297.5,269.5l0,-23l87,0l0,23Z" /></clipPath>
<clipPath id="c7_356"><path d="M385.5,269.5l0,-23l88,0l0,23Z" /></clipPath>
<clipPath id="c8_356"><path d="M475.5,269.5l0,-23l412,0l0,23Z" /></clipPath>
<clipPath id="c9_356"><path d="M83.5,295.5l0,-24l212,0l0,24Z" /></clipPath>
<clipPath id="c10_356"><path d="M297.5,295.5l0,-24l87,0l0,24Z" /></clipPath>
<clipPath id="c11_356"><path d="M385.5,295.5l0,-24l88,0l0,24Z" /></clipPath>
<clipPath id="c12_356"><path d="M475.5,295.5l0,-24l412,0l0,24Z" /></clipPath>
<clipPath id="c13_356"><path d="M83.5,983.5l0,-687l26,0l0,687Z" /></clipPath>
<clipPath id="c14_356"><path d="M110.5,983.5l0,-687l33,0l0,687Z" /></clipPath>
<clipPath id="c15_356"><path d="M145.5,330.5l0,-34l150,0l0,34Z" /></clipPath>
<clipPath id="c16_356"><path d="M297.5,330.5l0,-34l87,0l0,34Z" /></clipPath>
<clipPath id="c17_356"><path d="M385.5,330.5l0,-34l88,0l0,34Z" /></clipPath>
<clipPath id="c18_356"><path d="M475.5,330.5l0,-34l412,0l0,34Z" /></clipPath>
<clipPath id="c19_356"><path d="M145.5,356.5l0,-24l150,0l0,24Z" /></clipPath>
<clipPath id="c20_356"><path d="M297.5,356.5l0,-24l87,0l0,24Z" /></clipPath>
<clipPath id="c21_356"><path d="M385.5,356.5l0,-24l88,0l0,24Z" /></clipPath>
<clipPath id="c22_356"><path d="M475.5,356.5l0,-24l412,0l0,24Z" /></clipPath>
<clipPath id="c23_356"><path d="M145.5,810.5l0,-453l150,0l0,453Z" /></clipPath>
<clipPath id="c24_356"><path d="M297.5,810.5l0,-453l87,0l0,453Z" /></clipPath>
<clipPath id="c25_356"><path d="M385.5,810.5l0,-453l88,0l0,453Z" /></clipPath>
<clipPath id="c26_356"><path d="M475.5,810.5l0,-453l412,0l0,453Z" /></clipPath>
<clipPath id="c27_356"><path d="M145.5,859.5l0,-47l150,0l0,47Z" /></clipPath>
<clipPath id="c28_356"><path d="M297.5,859.5l0,-47l87,0l0,47Z" /></clipPath>
<clipPath id="c29_356"><path d="M385.5,859.5l0,-47l88,0l0,47Z" /></clipPath>
<clipPath id="c30_356"><path d="M475.5,859.5l0,-47l412,0l0,47Z" /></clipPath>
<clipPath id="c31_356"><path d="M145.5,909.5l0,-48l150,0l0,48Z" /></clipPath>
<clipPath id="c32_356"><path d="M297.5,909.5l0,-48l87,0l0,48Z" /></clipPath>
<clipPath id="c33_356"><path d="M385.5,909.5l0,-48l88,0l0,48Z" /></clipPath>
<clipPath id="c34_356"><path d="M475.5,909.5l0,-48l412,0l0,48Z" /></clipPath>
<clipPath id="c35_356"><path d="M475.5,958.5l0,-48l412,0l0,48Z" /></clipPath>
<clipPath id="c36_356"><path d="M145.5,983.5l0,-24l150,0l0,24Z" /></clipPath>
<clipPath id="c37_356"><path d="M297.5,983.5l0,-24l87,0l0,24Z" /></clipPath>
<clipPath id="c38_356"><path d="M385.5,983.5l0,-24l88,0l0,24Z" /></clipPath>
<clipPath id="c39_356"><path d="M475.5,983.5l0,-24l412,0l0,24Z" /></clipPath>
<style type="text/css"><![CDATA[
.g2_356{
fill: none;
stroke: #7E7E7E;
stroke-width: 1;
stroke-linecap: butt;
stroke-linejoin: miter;
}
.g3_356{
fill: #F1F1F1;
}
.g1_356{
fill: #DBE5F1;
}
]]></style>
</defs>
<path fill-rule="evenodd" d="M47,244l248,0l0,-24L47,220l0,24Z" class="g1_356" />
<g clip-path="url(#c0_356)">
<path fill-rule="evenodd" d="M55,244l233,0l0,-24L55,220l0,24Z" class="g1_356" />
</g>
<path fill-rule="evenodd" d="M297,244l87,0l0,-24l-87,0l0,24Z" class="g1_356" />
<g clip-path="url(#c1_356)">
<path fill-rule="evenodd" d="M304,244l72,0l0,-24l-72,0l0,24Z" class="g1_356" />
</g>
<path fill-rule="evenodd" d="M385,244l88,0l0,-24l-88,0l0,24Z" class="g1_356" />
<g clip-path="url(#c2_356)">
<path fill-rule="evenodd" d="M393,244l73,0l0,-24l-73,0l0,24Z" class="g1_356" />
</g>
<path fill-rule="evenodd" d="M475,244l412,0l0,-24l-412,0l0,24Z" class="g1_356" />
<g clip-path="url(#c3_356)">
<path fill-rule="evenodd" d="M482,244l398,0l0,-24l-398,0l0,24Z" class="g1_356" />
</g>
<path d="M46.5,220.5l0,-2" class="g2_356" />
<path d="M46.5,220.5l0,-2" class="g2_356" />
<path d="M47.5,220.5l248,0" class="g2_356" />
<path d="M295.5,220.5l0,-2" class="g2_356" />
<path d="M297.5,220.5l87,0" class="g2_356" />
<path d="M384.5,220.5l0,-2" class="g2_356" />
<path d="M385.5,220.5l88,0" class="g2_356" />
<path d="M473.5,220.5l0,-2" class="g2_356" />
<path d="M475.5,220.5l412,0" class="g2_356" />
<path d="M887.5,220.5l0,-2" class="g2_356" />
<path d="M887.5,220.5l0,-2" class="g2_356" />
<path d="M46.5,244.5l0,-24" class="g2_356" />
<path d="M295.5,244.5l0,-24" class="g2_356" />
<path d="M384.5,244.5l0,-24" class="g2_356" />
<path d="M473.5,244.5l0,-24" class="g2_356" />
<path d="M887.5,244.5l0,-24" class="g2_356" />
<path fill-rule="evenodd" d="M47,983l34,0L81,246l-34,0l0,737Z" class="g3_356" />
<g clip-path="url(#c4_356)">
<path fill-rule="evenodd" d="M55,983l23,0L78,246l-23,0l0,737Z" class="g3_356" />
</g>
<path fill-rule="evenodd" d="M83,269l212,0l0,-23L83,246l0,23Z" class="g3_356" />
<g clip-path="url(#c5_356)">
<path fill-rule="evenodd" d="M90,269l198,0l0,-23L90,246l0,23Z" class="g3_356" />
</g>
<path fill-rule="evenodd" d="M297,269l87,0l0,-23l-87,0l0,23Z" class="g3_356" />
<g clip-path="url(#c6_356)">
<path fill-rule="evenodd" d="M304,269l72,0l0,-23l-72,0l0,23Z" class="g3_356" />
</g>
<path fill-rule="evenodd" d="M385,269l88,0l0,-23l-88,0l0,23Z" class="g3_356" />
<g clip-path="url(#c7_356)">
<path fill-rule="evenodd" d="M393,269l73,0l0,-23l-73,0l0,23Z" class="g3_356" />
</g>
<path fill-rule="evenodd" d="M475,269l412,0l0,-23l-412,0l0,23Z" class="g3_356" />
<g clip-path="url(#c8_356)">
<path fill-rule="evenodd" d="M482,269l398,0l0,-23l-398,0l0,23Z" class="g3_356" />
</g>
<path d="M46.5,246.5l0,-2" class="g2_356" />
<path d="M47.5,246.5l34,0" class="g2_356" />
<path d="M81.5,246.5l0,-2" class="g2_356" />
<path d="M83.5,246.5l212,0" class="g2_356" />
<path d="M295.5,246.5l0,-2" class="g2_356" />
<path d="M297.5,246.5l87,0" class="g2_356" />
<path d="M384.5,246.5l0,-2" class="g2_356" />
<path d="M385.5,246.5l88,0" class="g2_356" />
<path d="M473.5,246.5l0,-2" class="g2_356" />
<path d="M475.5,246.5l412,0" class="g2_356" />
<path d="M887.5,246.5l0,-2" class="g2_356" />
<path d="M46.5,269.5l0,-23" class="g2_356" />
<path d="M81.5,269.5l0,-23" class="g2_356" />
<path d="M295.5,269.5l0,-23" class="g2_356" />
<path d="M384.5,269.5l0,-23" class="g2_356" />
<path d="M473.5,269.5l0,-23" class="g2_356" />
<path d="M887.5,269.5l0,-23" class="g2_356" />
<path fill-rule="evenodd" d="M83,295l212,0l0,-24L83,271l0,24Z" class="g3_356" />
<g clip-path="url(#c9_356)">
<path fill-rule="evenodd" d="M90,295l198,0l0,-24L90,271l0,24Z" class="g3_356" />
</g>
<path fill-rule="evenodd" d="M297,295l87,0l0,-24l-87,0l0,24Z" class="g3_356" />
<g clip-path="url(#c10_356)">
<path fill-rule="evenodd" d="M304,295l72,0l0,-24l-72,0l0,24Z" class="g3_356" />
</g>
<path fill-rule="evenodd" d="M385,295l88,0l0,-24l-88,0l0,24Z" class="g3_356" />
<g clip-path="url(#c11_356)">
<path fill-rule="evenodd" d="M393,295l73,0l0,-24l-73,0l0,24Z" class="g3_356" />
</g>
<path fill-rule="evenodd" d="M475,295l412,0l0,-24l-412,0l0,24Z" class="g3_356" />
<g clip-path="url(#c12_356)">
<path fill-rule="evenodd" d="M482,295l398,0l0,-24l-398,0l0,24Z" class="g3_356" />
</g>
<path d="M46.5,271.5l0,-2" class="g2_356" />
<path d="M81.5,271.5l0,-2" class="g2_356" />
<path d="M83.5,271.5l212,0" class="g2_356" />
<path d="M295.5,271.5l0,-2" class="g2_356" />
<path d="M297.5,271.5l87,0" class="g2_356" />
<path d="M384.5,271.5l0,-2" class="g2_356" />
<path d="M385.5,271.5l88,0" class="g2_356" />
<path d="M473.5,271.5l0,-2" class="g2_356" />
<path d="M475.5,271.5l412,0" class="g2_356" />
<path d="M887.5,271.5l0,-2" class="g2_356" />
<path d="M46.5,295.5l0,-24" class="g2_356" />
<path d="M81.5,295.5l0,-24" class="g2_356" />
<path d="M295.5,295.5l0,-24" class="g2_356" />
<path d="M384.5,295.5l0,-24" class="g2_356" />
<path d="M473.5,295.5l0,-24" class="g2_356" />
<path d="M887.5,295.5l0,-24" class="g2_356" />
<path fill-rule="evenodd" d="M83,983l26,0l0,-687l-26,0l0,687Z" class="g3_356" />
<g clip-path="url(#c13_356)">
<path fill-rule="evenodd" d="M84,983l24,0l0,-687l-24,0l0,687Z" class="g3_356" />
</g>
<path fill-rule="evenodd" d="M110,983l33,0l0,-687l-33,0l0,687Z" class="g3_356" />
<g clip-path="url(#c14_356)">
<path fill-rule="evenodd" d="M115,983l24,0l0,-687l-24,0l0,687Z" class="g3_356" />
</g>
<path fill-rule="evenodd" d="M145,330l150,0l0,-34l-150,0l0,34Z" class="g3_356" />
<g clip-path="url(#c15_356)">
<path fill-rule="evenodd" d="M152,320l136,0l0,-24l-136,0l0,24Z" class="g3_356" />
</g>
<path fill-rule="evenodd" d="M297,330l87,0l0,-34l-87,0l0,34Z" class="g3_356" />
<g clip-path="url(#c16_356)">
<path fill-rule="evenodd" d="M304,320l72,0l0,-24l-72,0l0,24Z" class="g3_356" />
</g>
<path fill-rule="evenodd" d="M385,330l88,0l0,-34l-88,0l0,34Z" class="g3_356" />
<g clip-path="url(#c17_356)">
<path fill-rule="evenodd" d="M393,320l73,0l0,-24l-73,0l0,24Z" class="g3_356" />
</g>
<path fill-rule="evenodd" d="M475,330l412,0l0,-34l-412,0l0,34Z" class="g3_356" />
<g clip-path="url(#c18_356)">
<path fill-rule="evenodd" d="M482,320l398,0l0,-24l-398,0l0,24Z" class="g3_356" />
</g>
<path d="M46.5,296.5l0,-1" class="g2_356" />
<path d="M81.5,296.5l0,-1" class="g2_356" />
<path d="M83.5,296.5l26,0" class="g2_356" />
<path d="M109.5,296.5l0,-1" class="g2_356" />
<path d="M110.5,296.5l33,0" class="g2_356" />
<path d="M143.5,296.5l0,-1" class="g2_356" />
<path d="M145.5,296.5l150,0" class="g2_356" />
<path d="M295.5,296.5l0,-1" class="g2_356" />
<path d="M297.5,296.5l87,0" class="g2_356" />
<path d="M384.5,296.5l0,-1" class="g2_356" />
<path d="M385.5,296.5l88,0" class="g2_356" />
<path d="M473.5,296.5l0,-1" class="g2_356" />
<path d="M475.5,296.5l412,0" class="g2_356" />
<path d="M887.5,296.5l0,-1" class="g2_356" />
<path d="M46.5,330.5l0,-34" class="g2_356" />
<path d="M81.5,330.5l0,-34" class="g2_356" />
<path d="M109.5,330.5l0,-34" class="g2_356" />
<path d="M143.5,330.5l0,-34" class="g2_356" />
<path d="M295.5,330.5l0,-34" class="g2_356" />
<path d="M384.5,330.5l0,-34" class="g2_356" />
<path d="M473.5,330.5l0,-34" class="g2_356" />
<path d="M887.5,330.5l0,-34" class="g2_356" />
<path fill-rule="evenodd" d="M145,356l150,0l0,-24l-150,0l0,24Z" class="g3_356" />
<g clip-path="url(#c19_356)">
<path fill-rule="evenodd" d="M152,356l136,0l0,-24l-136,0l0,24Z" class="g3_356" />
</g>
<path fill-rule="evenodd" d="M297,356l87,0l0,-24l-87,0l0,24Z" class="g3_356" />
<g clip-path="url(#c20_356)">
<path fill-rule="evenodd" d="M304,356l72,0l0,-24l-72,0l0,24Z" class="g3_356" />
</g>
<path fill-rule="evenodd" d="M385,356l88,0l0,-24l-88,0l0,24Z" class="g3_356" />
<g clip-path="url(#c21_356)">
<path fill-rule="evenodd" d="M393,356l73,0l0,-24l-73,0l0,24Z" class="g3_356" />
</g>
<path fill-rule="evenodd" d="M475,356l412,0l0,-24l-412,0l0,24Z" class="g3_356" />
<g clip-path="url(#c22_356)">
<path fill-rule="evenodd" d="M482,356l398,0l0,-24l-398,0l0,24Z" class="g3_356" />
</g>
<path d="M46.5,332.5l0,-2" class="g2_356" />
<path d="M81.5,332.5l0,-2" class="g2_356" />
<path d="M109.5,332.5l0,-2" class="g2_356" />
<path d="M143.5,332.5l0,-2" class="g2_356" />
<path d="M145.5,332.5l150,0" class="g2_356" />
<path d="M295.5,332.5l0,-2" class="g2_356" />
<path d="M297.5,332.5l87,0" class="g2_356" />
<path d="M384.5,332.5l0,-2" class="g2_356" />
<path d="M385.5,332.5l88,0" class="g2_356" />
<path d="M473.5,332.5l0,-2" class="g2_356" />
<path d="M475.5,332.5l412,0" class="g2_356" />
<path d="M887.5,332.5l0,-2" class="g2_356" />
<path d="M46.5,356.5l0,-24" class="g2_356" />
<path d="M81.5,356.5l0,-24" class="g2_356" />
<path d="M109.5,356.5l0,-24" class="g2_356" />
<path d="M143.5,356.5l0,-24" class="g2_356" />
<path d="M295.5,356.5l0,-24" class="g2_356" />
<path d="M384.5,356.5l0,-24" class="g2_356" />
<path d="M473.5,356.5l0,-24" class="g2_356" />
<path d="M887.5,356.5l0,-24" class="g2_356" />
<path fill-rule="evenodd" d="M145,810l150,0l0,-453l-150,0l0,453Z" class="g3_356" />
<g clip-path="url(#c23_356)">
<path fill-rule="evenodd" d="M152,381l136,0l0,-24l-136,0l0,24Z" class="g3_356" />
</g>
<path fill-rule="evenodd" d="M297,810l87,0l0,-453l-87,0l0,453Z" class="g3_356" />
<g clip-path="url(#c24_356)">
<path fill-rule="evenodd" d="M304,381l72,0l0,-24l-72,0l0,24Z" class="g3_356" />
</g>
<path fill-rule="evenodd" d="M385,810l88,0l0,-453l-88,0l0,453Z" class="g3_356" />
<g clip-path="url(#c25_356)">
<path fill-rule="evenodd" d="M393,381l73,0l0,-24l-73,0l0,24Z" class="g3_356" />
</g>
<path fill-rule="evenodd" d="M475,810l412,0l0,-453l-412,0l0,453Z" class="g3_356" />
<g clip-path="url(#c26_356)">
<path fill-rule="evenodd" d="M482,381l398,0l0,-24l-398,0l0,24Z" class="g3_356" />
</g>
<path fill-rule="evenodd" d="M482,405l398,0l0,-24l-398,0l0,24Z" class="g3_356" />
<path fill-rule="evenodd" d="M482,429l398,0l0,-24l-398,0l0,24Z" class="g3_356" />
<path fill-rule="evenodd" d="M482,453l398,0l0,-24l-398,0l0,24Z" class="g3_356" />
<path fill-rule="evenodd" d="M482,477l398,0l0,-24l-398,0l0,24Z" class="g3_356" />
<path fill-rule="evenodd" d="M482,500l398,0l0,-23l-398,0l0,23Z" class="g3_356" />
<path fill-rule="evenodd" d="M482,524l398,0l0,-24l-398,0l0,24Z" class="g3_356" />
<path fill-rule="evenodd" d="M482,548l398,0l0,-24l-398,0l0,24Z" class="g3_356" />
<path fill-rule="evenodd" d="M482,572l398,0l0,-24l-398,0l0,24Z" class="g3_356" />
<path fill-rule="evenodd" d="M482,596l398,0l0,-24l-398,0l0,24Z" class="g3_356" />
<path fill-rule="evenodd" d="M482,620l398,0l0,-24l-398,0l0,24Z" class="g3_356" />
<path fill-rule="evenodd" d="M482,643l398,0l0,-23l-398,0l0,23Z" class="g3_356" />
<path fill-rule="evenodd" d="M482,667l398,0l0,-24l-398,0l0,24Z" class="g3_356" />
<path fill-rule="evenodd" d="M482,691l398,0l0,-24l-398,0l0,24Z" class="g3_356" />
<path fill-rule="evenodd" d="M482,715l398,0l0,-24l-398,0l0,24Z" class="g3_356" />
<path fill-rule="evenodd" d="M482,739l398,0l0,-24l-398,0l0,24Z" class="g3_356" />
<path fill-rule="evenodd" d="M482,763l398,0l0,-24l-398,0l0,24Z" class="g3_356" />
<path fill-rule="evenodd" d="M482,786l398,0l0,-23l-398,0l0,23Z" class="g3_356" />
<path fill-rule="evenodd" d="M482,810l398,0l0,-24l-398,0l0,24Z" class="g3_356" />
<path d="M46.5,357.5l0,-1" class="g2_356" />
<path d="M81.5,357.5l0,-1" class="g2_356" />
<path d="M109.5,357.5l0,-1" class="g2_356" />
<path d="M143.5,357.5l0,-1" class="g2_356" />
<path d="M145.5,357.5l150,0" class="g2_356" />
<path d="M295.5,357.5l0,-1" class="g2_356" />
<path d="M297.5,357.5l87,0" class="g2_356" />
<path d="M384.5,357.5l0,-1" class="g2_356" />
<path d="M385.5,357.5l88,0" class="g2_356" />
<path d="M473.5,357.5l0,-1" class="g2_356" />
<path d="M475.5,357.5l412,0" class="g2_356" />
<path d="M887.5,357.5l0,-1" class="g2_356" />
<path d="M46.5,810.5l0,-453" class="g2_356" />
<path d="M81.5,810.5l0,-453" class="g2_356" />
<path d="M109.5,810.5l0,-453" class="g2_356" />
<path d="M143.5,810.5l0,-453" class="g2_356" />
<path d="M295.5,810.5l0,-453" class="g2_356" />
<path d="M384.5,810.5l0,-453" class="g2_356" />
<path d="M473.5,810.5l0,-453" class="g2_356" />
<path d="M887.5,810.5l0,-453" class="g2_356" />
<path fill-rule="evenodd" d="M145,859l150,0l0,-47l-150,0l0,47Z" class="g3_356" />
<g clip-path="url(#c27_356)">
<path fill-rule="evenodd" d="M152,836l136,0l0,-24l-136,0l0,24Z" class="g3_356" />
</g>
<path fill-rule="evenodd" d="M297,859l87,0l0,-47l-87,0l0,47Z" class="g3_356" />
<g clip-path="url(#c28_356)">
<path fill-rule="evenodd" d="M304,836l72,0l0,-24l-72,0l0,24Z" class="g3_356" />
</g>
<path fill-rule="evenodd" d="M385,859l88,0l0,-47l-88,0l0,47Z" class="g3_356" />
<g clip-path="url(#c29_356)">
<path fill-rule="evenodd" d="M393,836l73,0l0,-24l-73,0l0,24Z" class="g3_356" />
</g>
<path fill-rule="evenodd" d="M475,859l412,0l0,-47l-412,0l0,47Z" class="g3_356" />
<g clip-path="url(#c30_356)">
<path fill-rule="evenodd" d="M482,836l398,0l0,-24l-398,0l0,24Z" class="g3_356" />
</g>
<path fill-rule="evenodd" d="M482,859l398,0l0,-23l-398,0l0,23Z" class="g3_356" />
<path d="M46.5,812.5l0,-2" class="g2_356" />
<path d="M81.5,812.5l0,-2" class="g2_356" />
<path d="M109.5,812.5l0,-2" class="g2_356" />
<path d="M143.5,812.5l0,-2" class="g2_356" />
<path d="M145.5,812.5l150,0" class="g2_356" />
<path d="M295.5,812.5l0,-2" class="g2_356" />
<path d="M297.5,812.5l87,0" class="g2_356" />
<path d="M384.5,812.5l0,-2" class="g2_356" />
<path d="M385.5,812.5l88,0" class="g2_356" />
<path d="M473.5,812.5l0,-2" class="g2_356" />
<path d="M475.5,812.5l412,0" class="g2_356" />
<path d="M887.5,812.5l0,-2" class="g2_356" />
<path d="M46.5,859.5l0,-47" class="g2_356" />
<path d="M81.5,859.5l0,-47" class="g2_356" />
<path d="M109.5,859.5l0,-47" class="g2_356" />
<path d="M143.5,859.5l0,-47" class="g2_356" />
<path d="M295.5,859.5l0,-47" class="g2_356" />
<path d="M384.5,859.5l0,-47" class="g2_356" />
<path d="M473.5,859.5l0,-47" class="g2_356" />
<path d="M887.5,859.5l0,-47" class="g2_356" />
<path fill-rule="evenodd" d="M145,909l150,0l0,-48l-150,0l0,48Z" class="g3_356" />
<g clip-path="url(#c31_356)">
<path fill-rule="evenodd" d="M152,885l136,0l0,-24l-136,0l0,24Z" class="g3_356" />
</g>
<path fill-rule="evenodd" d="M297,909l87,0l0,-48l-87,0l0,48Z" class="g3_356" />
<g clip-path="url(#c32_356)">
<path fill-rule="evenodd" d="M304,885l72,0l0,-24l-72,0l0,24Z" class="g3_356" />
</g>
<path fill-rule="evenodd" d="M385,909l88,0l0,-48l-88,0l0,48Z" class="g3_356" />
<g clip-path="url(#c33_356)">
<path fill-rule="evenodd" d="M393,885l73,0l0,-24l-73,0l0,24Z" class="g3_356" />
</g>
<path fill-rule="evenodd" d="M475,909l412,0l0,-48l-412,0l0,48Z" class="g3_356" />
<g clip-path="url(#c34_356)">
<path fill-rule="evenodd" d="M482,885l398,0l0,-24l-398,0l0,24Z" class="g3_356" />
</g>
<path fill-rule="evenodd" d="M482,909l398,0l0,-24l-398,0l0,24Z" class="g3_356" />
<path d="M46.5,861.5l0,-2" class="g2_356" />
<path d="M81.5,861.5l0,-2" class="g2_356" />
<path d="M109.5,861.5l0,-2" class="g2_356" />
<path d="M143.5,861.5l0,-2" class="g2_356" />
<path d="M145.5,861.5l150,0" class="g2_356" />
<path d="M295.5,861.5l0,-2" class="g2_356" />
<path d="M297.5,861.5l87,0" class="g2_356" />
<path d="M384.5,861.5l0,-2" class="g2_356" />
<path d="M385.5,861.5l88,0" class="g2_356" />
<path d="M473.5,861.5l0,-2" class="g2_356" />
<path d="M475.5,861.5l412,0" class="g2_356" />
<path d="M887.5,861.5l0,-2" class="g2_356" />
<path d="M46.5,909.5l0,-48" class="g2_356" />
<path d="M81.5,909.5l0,-48" class="g2_356" />
<path d="M109.5,909.5l0,-48" class="g2_356" />
<path d="M143.5,909.5l0,-48" class="g2_356" />
<path d="M295.5,909.5l0,-48" class="g2_356" />
<path d="M384.5,909.5l0,-48" class="g2_356" />
<path d="M473.5,909.5l0,-48" class="g2_356" />
<path d="M887.5,909.5l0,-48" class="g2_356" />
<path fill-rule="evenodd" d="M145,958l150,0l0,-48l-150,0l0,48Z" class="g3_356" />
<path fill-rule="evenodd" d="M152,934l136,0l0,-24l-136,0l0,24Z" class="g3_356" />
<path fill-rule="evenodd" d="M297,958l87,0l0,-48l-87,0l0,48Z" class="g3_356" />
<path fill-rule="evenodd" d="M304,934l72,0l0,-24l-72,0l0,24Z" class="g3_356" />
<path fill-rule="evenodd" d="M385,958l88,0l0,-48l-88,0l0,48Z" class="g3_356" />
<path fill-rule="evenodd" d="M393,934l73,0l0,-24l-73,0l0,24Z" class="g3_356" />
<path fill-rule="evenodd" d="M475,958l412,0l0,-48l-412,0l0,48Z" class="g3_356" />
<path fill-rule="evenodd" d="M482,934l398,0l0,-24l-398,0l0,24Z" class="g3_356" />
<g clip-path="url(#c35_356)">
<path fill-rule="evenodd" d="M482,958l398,0l0,-24l-398,0l0,24Z" class="g3_356" />
</g>
<path d="M46.5,910.5l0,-1" class="g2_356" />
<path d="M81.5,910.5l0,-1" class="g2_356" />
<path d="M109.5,910.5l0,-1" class="g2_356" />
<path d="M143.5,910.5l0,-1" class="g2_356" />
<path d="M145.5,910.5l150,0" class="g2_356" />
<path d="M295.5,910.5l0,-1" class="g2_356" />
<path d="M297.5,910.5l87,0" class="g2_356" />
<path d="M384.5,910.5l0,-1" class="g2_356" />
<path d="M385.5,910.5l88,0" class="g2_356" />
<path d="M473.5,910.5l0,-1" class="g2_356" />
<path d="M475.5,910.5l412,0" class="g2_356" />
<path d="M887.5,910.5l0,-1" class="g2_356" />
<path d="M46.5,958.5l0,-48" class="g2_356" />
<path d="M81.5,958.5l0,-48" class="g2_356" />
<path d="M109.5,958.5l0,-48" class="g2_356" />
<path d="M143.5,958.5l0,-48" class="g2_356" />
<path d="M295.5,958.5l0,-48" class="g2_356" />
<path d="M384.5,958.5l0,-48" class="g2_356" />
<path d="M473.5,958.5l0,-48" class="g2_356" />
<path d="M887.5,958.5l0,-48" class="g2_356" />
<path fill-rule="evenodd" d="M145,983l150,0l0,-24l-150,0l0,24Z" class="g3_356" />
<g clip-path="url(#c36_356)">
<path fill-rule="evenodd" d="M152,983l136,0l0,-24l-136,0l0,24Z" class="g3_356" />
</g>
<path fill-rule="evenodd" d="M297,983l87,0l0,-24l-87,0l0,24Z" class="g3_356" />
<g clip-path="url(#c37_356)">
<path fill-rule="evenodd" d="M304,983l72,0l0,-24l-72,0l0,24Z" class="g3_356" />
</g>
<path fill-rule="evenodd" d="M385,983l88,0l0,-24l-88,0l0,24Z" class="g3_356" />
<g clip-path="url(#c38_356)">
<path fill-rule="evenodd" d="M393,983l73,0l0,-24l-73,0l0,24Z" class="g3_356" />
</g>
<path fill-rule="evenodd" d="M475,983l412,0l0,-24l-412,0l0,24Z" class="g3_356" />
<g clip-path="url(#c39_356)">
<path fill-rule="evenodd" d="M482,983l398,0l0,-24l-398,0l0,24Z" class="g3_356" />
</g>
<path d="M46.5,959.5l0,-1" class="g2_356" />
<path d="M81.5,959.5l0,-1" class="g2_356" />
<path d="M109.5,959.5l0,-1" class="g2_356" />
<path d="M143.5,959.5l0,-1" class="g2_356" />
<path d="M145.5,959.5l150,0" class="g2_356" />
<path d="M295.5,959.5l0,-1" class="g2_356" />
<path d="M297.5,959.5l87,0" class="g2_356" />
<path d="M384.5,959.5l0,-1" class="g2_356" />
<path d="M385.5,959.5l88,0" class="g2_356" />
<path d="M473.5,959.5l0,-1" class="g2_356" />
<path d="M475.5,959.5l412,0" class="g2_356" />
<path d="M887.5,959.5l0,-1" class="g2_356" />
<path d="M46.5,983.5l0,-24" class="g2_356" />
<path d="M46.5,985.5l0,-2" class="g2_356" />
<path d="M46.5,985.5l0,-2" class="g2_356" />
<path d="M47.5,985.5l34,0" class="g2_356" />
<path d="M81.5,983.5l0,-24" class="g2_356" />
<path d="M81.5,985.5l0,-2" class="g2_356" />
<path d="M83.5,985.5l26,0" class="g2_356" />
<path d="M109.5,983.5l0,-24" class="g2_356" />
<path d="M109.5,985.5l0,-2" class="g2_356" />
<path d="M110.5,985.5l33,0" class="g2_356" />
<path d="M143.5,983.5l0,-24" class="g2_356" />
<path d="M143.5,985.5l0,-2" class="g2_356" />
<path d="M145.5,985.5l150,0" class="g2_356" />
<path d="M295.5,983.5l0,-24" class="g2_356" />
<path d="M295.5,985.5l0,-2" class="g2_356" />
<path d="M297.5,985.5l87,0" class="g2_356" />
<path d="M384.5,983.5l0,-24" class="g2_356" />
<path d="M384.5,985.5l0,-2" class="g2_356" />
<path d="M385.5,985.5l88,0" class="g2_356" />
<path d="M473.5,983.5l0,-24" class="g2_356" />
<path d="M473.5,985.5l0,-2" class="g2_356" />
<path d="M475.5,985.5l412,0" class="g2_356" />
<path d="M887.5,983.5l0,-24" class="g2_356" />
<path d="M887.5,985.5l0,-2" class="g2_356" />
<path d="M887.5,985.5l0,-2" class="g2_356" />
</svg>