<?xml version="1.0" encoding="UTF-8" standalone="no"?>
<!DOCTYPE svg PUBLIC "-//W3C//DTD SVG 1.1//EN"
"http://www.w3.org/Graphics/SVG/1.1/DTD/svg11.dtd">
<svg version="1.1" xmlns="http://www.w3.org/2000/svg" xmlns:xlink="http://www.w3.org/1999/xlink">
<defs>
<clipPath id="c0_68"><path d="M47.5,135.5l0,-24l102,0l0,24Z" /></clipPath>
<clipPath id="c1_68"><path d="M151.5,135.5l0,-24l736,0l0,24Z" /></clipPath>
<clipPath id="c2_68"><path d="M47.5,184.5l0,-48l102,0l0,48Z" /></clipPath>
<clipPath id="c3_68"><path d="M151.5,184.5l0,-48l736,0l0,48Z" /></clipPath>
<clipPath id="c4_68"><path d="M47.5,209.5l0,-23l102,0l0,23Z" /></clipPath>
<clipPath id="c5_68"><path d="M151.5,209.5l0,-23l736,0l0,23Z" /></clipPath>
<clipPath id="c6_68"><path d="M47.5,235.5l0,-24l102,0l0,24Z" /></clipPath>
<clipPath id="c7_68"><path d="M151.5,235.5l0,-24l736,0l0,24Z" /></clipPath>
<clipPath id="c8_68"><path d="M47.5,260.5l0,-24l102,0l0,24Z" /></clipPath>
<clipPath id="c9_68"><path d="M151.5,260.5l0,-24l736,0l0,24Z" /></clipPath>
<clipPath id="c10_68"><path d="M47.5,286.5l0,-24l102,0l0,24Z" /></clipPath>
<clipPath id="c11_68"><path d="M151.5,286.5l0,-24l736,0l0,24Z" /></clipPath>
<clipPath id="c12_68"><path d="M47.5,518.5l0,-182l840,0l0,182Z" /></clipPath>
<clipPath id="c13_68"><path d="M47.5,687.5l0,-95l840,0l0,95Z" /></clipPath>
<clipPath id="c14_68"><path d="M47.5,958.5l0,-24l840,0l0,24Z" /></clipPath>
<clipPath id="c15_68"><path d="M47.5,1065.5l0,-24l179,0l0,24Z" /></clipPath>
<clipPath id="c16_68"><path d="M227.5,1065.5l0,-24l163,0l0,24Z" /></clipPath>
<clipPath id="c17_68"><path d="M392.5,1065.5l0,-24l495,0l0,24Z" /></clipPath>
<clipPath id="c18_68"><path d="M47.5,1090.5l0,-23l179,0l0,23Z" /></clipPath>
<clipPath id="c19_68"><path d="M227.5,1090.5l0,-23l163,0l0,23Z" /></clipPath>
<clipPath id="c20_68"><path d="M392.5,1090.5l0,-23l495,0l0,23Z" /></clipPath>
<style type="text/css"><![CDATA[
.g2_68{
fill: none;
stroke: #7E7E7E;
stroke-width: 1;
stroke-linecap: butt;
stroke-linejoin: miter;
}
.g3_68{
fill: none;
stroke: #F0F0E0;
stroke-width: 1;
stroke-linecap: butt;
stroke-linejoin: miter;
}
.g4_68{
fill: #DBE5F1;
}
.g1_68{
fill: #F1F1F1;
}
]]></style>
</defs>
<path fill-rule="evenodd" d="M47,135l102,0l0,-24L47,111l0,24Z" class="g1_68" />
<g clip-path="url(#c0_68)">
<path fill-rule="evenodd" d="M55,135l87,0l0,-24l-87,0l0,24Z" class="g1_68" />
</g>
<path fill-rule="evenodd" d="M151,135l736,0l0,-24l-736,0l0,24Z" class="g1_68" />
<g clip-path="url(#c1_68)">
<path fill-rule="evenodd" d="M158,135l722,0l0,-24l-722,0l0,24Z" class="g1_68" />
</g>
<path d="M46.5,111.5l0,-1" class="g2_68" />
<path d="M46.5,111.5l0,-1" class="g2_68" />
<path d="M47.5,111.5l102,0" class="g2_68" />
<path d="M149.5,111.5l0,-1" class="g2_68" />
<path d="M151.5,111.5l736,0" class="g2_68" />
<path d="M887.5,111.5l0,-1" class="g2_68" />
<path d="M887.5,111.5l0,-1" class="g2_68" />
<path d="M46.5,135.5l0,-24" class="g2_68" />
<path d="M149.5,135.5l0,-24" class="g2_68" />
<path d="M887.5,135.5l0,-24" class="g2_68" />
<path fill-rule="evenodd" d="M47,184l102,0l0,-48L47,136l0,48Z" class="g1_68" />
<g clip-path="url(#c2_68)">
<path fill-rule="evenodd" d="M55,160l87,0l0,-24l-87,0l0,24Z" class="g1_68" />
</g>
<path fill-rule="evenodd" d="M151,184l736,0l0,-48l-736,0l0,48Z" class="g1_68" />
<g clip-path="url(#c3_68)">
<path fill-rule="evenodd" d="M158,160l722,0l0,-24l-722,0l0,24Z" class="g1_68" />
</g>
<path fill-rule="evenodd" d="M158,184l722,0l0,-24l-722,0l0,24Z" class="g1_68" />
<path d="M46.5,136.5l0,-1" class="g2_68" />
<path d="M47.5,136.5l102,0" class="g2_68" />
<path d="M149.5,136.5l0,-1" class="g2_68" />
<path d="M151.5,136.5l736,0" class="g2_68" />
<path d="M887.5,136.5l0,-1" class="g2_68" />
<path d="M46.5,184.5l0,-48" class="g2_68" />
<path d="M149.5,184.5l0,-48" class="g2_68" />
<path d="M887.5,184.5l0,-48" class="g2_68" />
<path fill-rule="evenodd" d="M47,209l102,0l0,-23L47,186l0,23Z" class="g1_68" />
<g clip-path="url(#c4_68)">
<path fill-rule="evenodd" d="M55,209l87,0l0,-23l-87,0l0,23Z" class="g1_68" />
</g>
<path fill-rule="evenodd" d="M151,209l736,0l0,-23l-736,0l0,23Z" class="g1_68" />
<g clip-path="url(#c5_68)">
<path fill-rule="evenodd" d="M158,209l722,0l0,-23l-722,0l0,23Z" class="g1_68" />
</g>
<path d="M46.5,186.5l0,-2" class="g2_68" />
<path d="M47.5,186.5l102,0" class="g2_68" />
<path d="M149.5,186.5l0,-2" class="g2_68" />
<path d="M151.5,186.5l736,0" class="g2_68" />
<path d="M887.5,186.5l0,-2" class="g2_68" />
<path d="M46.5,209.5l0,-23" class="g2_68" />
<path d="M149.5,209.5l0,-23" class="g2_68" />
<path d="M887.5,209.5l0,-23" class="g2_68" />
<path fill-rule="evenodd" d="M47,235l102,0l0,-24L47,211l0,24Z" class="g1_68" />
<g clip-path="url(#c6_68)">
<path fill-rule="evenodd" d="M55,235l87,0l0,-24l-87,0l0,24Z" class="g1_68" />
</g>
<path fill-rule="evenodd" d="M151,235l736,0l0,-24l-736,0l0,24Z" class="g1_68" />
<g clip-path="url(#c7_68)">
<path fill-rule="evenodd" d="M158,235l722,0l0,-24l-722,0l0,24Z" class="g1_68" />
</g>
<path d="M46.5,211.5l0,-2" class="g2_68" />
<path d="M47.5,211.5l102,0" class="g2_68" />
<path d="M149.5,211.5l0,-2" class="g2_68" />
<path d="M151.5,211.5l736,0" class="g2_68" />
<path d="M887.5,211.5l0,-2" class="g2_68" />
<path d="M46.5,235.5l0,-24" class="g2_68" />
<path d="M149.5,235.5l0,-24" class="g2_68" />
<path d="M887.5,235.5l0,-24" class="g2_68" />
<path fill-rule="evenodd" d="M47,260l102,0l0,-24L47,236l0,24Z" class="g1_68" />
<g clip-path="url(#c8_68)">
<path fill-rule="evenodd" d="M55,260l87,0l0,-24l-87,0l0,24Z" class="g1_68" />
</g>
<path fill-rule="evenodd" d="M151,260l736,0l0,-24l-736,0l0,24Z" class="g1_68" />
<g clip-path="url(#c9_68)">
<path fill-rule="evenodd" d="M158,260l722,0l0,-24l-722,0l0,24Z" class="g1_68" />
</g>
<path d="M46.5,236.5l0,-1" class="g2_68" />
<path d="M47.5,236.5l102,0" class="g2_68" />
<path d="M149.5,236.5l0,-1" class="g2_68" />
<path d="M151.5,236.5l736,0" class="g2_68" />
<path d="M887.5,236.5l0,-1" class="g2_68" />
<path d="M46.5,260.5l0,-24" class="g2_68" />
<path d="M149.5,260.5l0,-24" class="g2_68" />
<path d="M887.5,260.5l0,-24" class="g2_68" />
<path fill-rule="evenodd" d="M47,286l102,0l0,-24L47,262l0,24Z" class="g1_68" />
<g clip-path="url(#c10_68)">
<path fill-rule="evenodd" d="M55,286l87,0l0,-24l-87,0l0,24Z" class="g1_68" />
</g>
<path fill-rule="evenodd" d="M151,286l736,0l0,-24l-736,0l0,24Z" class="g1_68" />
<g clip-path="url(#c11_68)">
<path fill-rule="evenodd" d="M158,286l722,0l0,-24l-722,0l0,24Z" class="g1_68" />
</g>
<path d="M46.5,262.5l0,-2" class="g2_68" />
<path d="M47.5,262.5l102,0" class="g2_68" />
<path d="M149.5,262.5l0,-2" class="g2_68" />
<path d="M151.5,262.5l736,0" class="g2_68" />
<path d="M887.5,262.5l0,-2" class="g2_68" />
<path d="M46.5,286.5l0,-24" class="g2_68" />
<path d="M46.5,287.5l0,-1" class="g2_68" />
<path d="M46.5,287.5l0,-1" class="g2_68" />
<path d="M47.5,287.5l102,0" class="g2_68" />
<path d="M149.5,286.5l0,-24" class="g2_68" />
<path d="M149.5,287.5l0,-1" class="g2_68" />
<path d="M151.5,287.5l736,0" class="g2_68" />
<path d="M887.5,286.5l0,-24" class="g2_68" />
<path d="M887.5,287.5l0,-1" class="g2_68" />
<path d="M887.5,287.5l0,-1" class="g2_68" />
<path fill-rule="evenodd" d="M47,518l840,0l0,-182L47,336l0,182Z" class="g1_68" />
<g clip-path="url(#c12_68)">
<path fill-rule="evenodd" d="M55,367l825,0l0,-31L55,336l0,31Z" class="g1_68" />
<path d="M45.5,337.5l0,-1" class="g3_68" />
<path d="M45.5,337.5l0,-1" class="g3_68" />
<path d="M46.5,337.5l842,0" class="g3_68" />
<path d="M888.5,337.5l0,-1" class="g3_68" />
<path d="M888.5,337.5l0,-1" class="g3_68" />
<path d="M45.5,367.5l0,-30" class="g3_68" />
<path d="M888.5,367.5l0,-30" class="g3_68" />
</g>
<path fill-rule="evenodd" d="M55,391l825,0l0,-24L55,367l0,24Z" class="g1_68" />
<g clip-path="url(#c12_68)">
<path d="M45.5,391.5l0,-24" class="g3_68" />
<path d="M888.5,391.5l0,-24" class="g3_68" />
</g>
<path fill-rule="evenodd" d="M55,415l825,0l0,-24L55,391l0,24Z" class="g1_68" />
<g clip-path="url(#c12_68)">
<path d="M45.5,415.5l0,-24" class="g3_68" />
<path d="M888.5,415.5l0,-24" class="g3_68" />
</g>
<path fill-rule="evenodd" d="M55,439l825,0l0,-24L55,415l0,24Z" class="g1_68" />
<g clip-path="url(#c12_68)">
<path d="M45.5,439.5l0,-24" class="g3_68" />
<path d="M888.5,439.5l0,-24" class="g3_68" />
</g>
<path fill-rule="evenodd" d="M55,463l825,0l0,-24L55,439l0,24Z" class="g1_68" />
<g clip-path="url(#c12_68)">
<path d="M45.5,463.5l0,-24" class="g3_68" />
<path d="M888.5,463.5l0,-24" class="g3_68" />
</g>
<path fill-rule="evenodd" d="M55,487l825,0l0,-24L55,463l0,24Z" class="g1_68" />
<g clip-path="url(#c12_68)">
<path d="M45.5,487.5l0,-24" class="g3_68" />
<path d="M888.5,487.5l0,-24" class="g3_68" />
</g>
<path fill-rule="evenodd" d="M55,518l825,0l0,-31L55,487l0,31Z" class="g1_68" />
<g clip-path="url(#c12_68)">
<path d="M45.5,518.5l0,-1" class="g3_68" />
<path d="M45.5,518.5l0,-1" class="g3_68" />
<path d="M46.5,518.5l842,0" class="g3_68" />
<path d="M888.5,518.5l0,-1" class="g3_68" />
<path d="M888.5,518.5l0,-1" class="g3_68" />
<path d="M45.5,517.5l0,-30" class="g3_68" />
<path d="M888.5,517.5l0,-30" class="g3_68" />
</g>
<path d="M46.5,336.5l0,-1" class="g2_68" />
<path d="M46.5,336.5l0,-1" class="g2_68" />
<path d="M47.5,336.5l840,0" class="g2_68" />
<path d="M887.5,336.5l0,-1" class="g2_68" />
<path d="M887.5,336.5l0,-1" class="g2_68" />
<path d="M46.5,518.5l0,-182" class="g2_68" />
<path d="M46.5,519.5l0,-1" class="g2_68" />
<path d="M46.5,519.5l0,-1" class="g2_68" />
<path d="M47.5,519.5l840,0" class="g2_68" />
<path d="M887.5,518.5l0,-182" class="g2_68" />
<path d="M887.5,519.5l0,-1" class="g2_68" />
<path d="M887.5,519.5l0,-1" class="g2_68" />
<path fill-rule="evenodd" d="M47,687l840,0l0,-95L47,592l0,95Z" class="g1_68" />
<g clip-path="url(#c13_68)">
<path fill-rule="evenodd" d="M55,616l825,0l0,-24L55,592l0,24Z" class="g1_68" />
</g>
<path fill-rule="evenodd" d="M55,640l825,0l0,-24L55,616l0,24Z" class="g1_68" />
<path fill-rule="evenodd" d="M55,664l825,0l0,-24L55,640l0,24Z" class="g1_68" />
<path fill-rule="evenodd" d="M55,687l825,0l0,-23L55,664l0,23Z" class="g1_68" />
<path d="M46.5,592.5l0,-1" class="g2_68" />
<path d="M46.5,592.5l0,-1" class="g2_68" />
<path d="M47.5,592.5l840,0" class="g2_68" />
<path d="M887.5,592.5l0,-1" class="g2_68" />
<path d="M887.5,592.5l0,-1" class="g2_68" />
<path d="M46.5,688.5l0,-96" class="g2_68" />
<path d="M46.5,689.5l0,-1" class="g2_68" />
<path d="M46.5,689.5l0,-1" class="g2_68" />
<path d="M47.5,689.5l840,0" class="g2_68" />
<path d="M887.5,688.5l0,-96" class="g2_68" />
<path d="M887.5,689.5l0,-1" class="g2_68" />
<path d="M887.5,689.5l0,-1" class="g2_68" />
<path fill-rule="evenodd" d="M47,958l840,0l0,-24L47,934l0,24Z" class="g1_68" />
<g clip-path="url(#c14_68)">
<path fill-rule="evenodd" d="M55,958l825,0l0,-24L55,934l0,24Z" class="g1_68" />
</g>
<path d="M46.5,934.5l0,-1" class="g2_68" />
<path d="M46.5,934.5l0,-1" class="g2_68" />
<path d="M47.5,934.5l840,0" class="g2_68" />
<path d="M887.5,934.5l0,-1" class="g2_68" />
<path d="M887.5,934.5l0,-1" class="g2_68" />
<path d="M46.5,958.5l0,-24" class="g2_68" />
<path d="M46.5,960.5l0,-2" class="g2_68" />
<path d="M46.5,960.5l0,-2" class="g2_68" />
<path d="M47.5,960.5l840,0" class="g2_68" />
<path d="M887.5,958.5l0,-24" class="g2_68" />
<path d="M887.5,960.5l0,-2" class="g2_68" />
<path d="M887.5,960.5l0,-2" class="g2_68" />
<path fill-rule="evenodd" d="M47,1065l179,0l0,-24l-179,0l0,24Z" class="g4_68" />
<g clip-path="url(#c15_68)">
<path fill-rule="evenodd" d="M55,1065l163,0l0,-24l-163,0l0,24Z" class="g4_68" />
</g>
<path fill-rule="evenodd" d="M227,1065l163,0l0,-24l-163,0l0,24Z" class="g4_68" />
<g clip-path="url(#c16_68)">
<path fill-rule="evenodd" d="M235,1065l148,0l0,-24l-148,0l0,24Z" class="g4_68" />
</g>
<path fill-rule="evenodd" d="M392,1065l495,0l0,-24l-495,0l0,24Z" class="g4_68" />
<g clip-path="url(#c17_68)">
<path fill-rule="evenodd" d="M400,1065l480,0l0,-24l-480,0l0,24Z" class="g4_68" />
</g>
<path d="M46.5,1041.5l0,-1" class="g2_68" />
<path d="M46.5,1041.5l0,-1" class="g2_68" />
<path d="M47.5,1041.5l179,0" class="g2_68" />
<path d="M226.5,1041.5l0,-1" class="g2_68" />
<path d="M227.5,1041.5l164,0" class="g2_68" />
<path d="M391.5,1041.5l0,-1" class="g2_68" />
<path d="M392.5,1041.5l495,0" class="g2_68" />
<path d="M887.5,1041.5l0,-1" class="g2_68" />
<path d="M887.5,1041.5l0,-1" class="g2_68" />
<path d="M46.5,1065.5l0,-24" class="g2_68" />
<path d="M226.5,1065.5l0,-24" class="g2_68" />
<path d="M391.5,1065.5l0,-24" class="g2_68" />
<path d="M887.5,1065.5l0,-24" class="g2_68" />
<path fill-rule="evenodd" d="M47,1090l179,0l0,-23l-179,0l0,23Z" class="g1_68" />
<g clip-path="url(#c18_68)">
<path fill-rule="evenodd" d="M55,1090l163,0l0,-23l-163,0l0,23Z" class="g1_68" />
</g>
<path fill-rule="evenodd" d="M227,1090l163,0l0,-23l-163,0l0,23Z" class="g1_68" />
<g clip-path="url(#c19_68)">
<path fill-rule="evenodd" d="M235,1090l148,0l0,-23l-148,0l0,23Z" class="g1_68" />
</g>
<path fill-rule="evenodd" d="M392,1090l495,0l0,-23l-495,0l0,23Z" class="g1_68" />
<g clip-path="url(#c20_68)">
<path fill-rule="evenodd" d="M400,1090l480,0l0,-23l-480,0l0,23Z" class="g1_68" />
</g>
<path d="M46.5,1067.5l0,-2" class="g2_68" />
<path d="M47.5,1067.5l179,0" class="g2_68" />
<path d="M226.5,1067.5l0,-2" class="g2_68" />
<path d="M227.5,1067.5l164,0" class="g2_68" />
<path d="M391.5,1067.5l0,-2" class="g2_68" />
<path d="M392.5,1067.5l495,0" class="g2_68" />
<path d="M887.5,1067.5l0,-2" class="g2_68" />
<path d="M46.5,1091.5l0,-24" class="g2_68" />
<path d="M46.5,1092.5l0,-1" class="g2_68" />
<path d="M46.5,1092.5l0,-1" class="g2_68" />
<path d="M47.5,1092.5l179,0" class="g2_68" />
<path d="M226.5,1091.5l0,-24" class="g2_68" />
<path d="M226.5,1092.5l0,-1" class="g2_68" />
<path d="M227.5,1092.5l164,0" class="g2_68" />
<path d="M391.5,1091.5l0,-24" class="g2_68" />
<path d="M391.5,1092.5l0,-1" class="g2_68" />
<path d="M392.5,1092.5l495,0" class="g2_68" />
<path d="M887.5,1091.5l0,-24" class="g2_68" />
<path d="M887.5,1092.5l0,-1" class="g2_68" />
<path d="M887.5,1092.5l0,-1" class="g2_68" />
</svg>