<?xml version="1.0" encoding="UTF-8" standalone="no"?>
<!DOCTYPE svg PUBLIC "-//W3C//DTD SVG 1.1//EN"
"http://www.w3.org/Graphics/SVG/1.1/DTD/svg11.dtd">
<svg version="1.1" xmlns="http://www.w3.org/2000/svg" xmlns:xlink="http://www.w3.org/1999/xlink">
<defs>
<clipPath id="c0_344"><path d="M47.5,135.5l0,-24l256,0l0,24Z" /></clipPath>
<clipPath id="c1_344"><path d="M304.5,135.5l0,-24l79,0l0,24Z" /></clipPath>
<clipPath id="c2_344"><path d="M384.5,135.5l0,-24l105,0l0,24Z" /></clipPath>
<clipPath id="c3_344"><path d="M490.5,135.5l0,-24l397,0l0,24Z" /></clipPath>
<clipPath id="c4_344"><path d="M47.5,780.5l0,-643l39,0l0,643Z" /></clipPath>
<clipPath id="c5_344"><path d="M88.5,185.5l0,-48l215,0l0,48Z" /></clipPath>
<clipPath id="c6_344"><path d="M304.5,185.5l0,-48l79,0l0,48Z" /></clipPath>
<clipPath id="c7_344"><path d="M384.5,185.5l0,-48l105,0l0,48Z" /></clipPath>
<clipPath id="c8_344"><path d="M490.5,185.5l0,-48l397,0l0,48Z" /></clipPath>
<clipPath id="c9_344"><path d="M88.5,211.5l0,-25l215,0l0,25Z" /></clipPath>
<clipPath id="c10_344"><path d="M304.5,211.5l0,-25l79,0l0,25Z" /></clipPath>
<clipPath id="c11_344"><path d="M384.5,211.5l0,-25l105,0l0,25Z" /></clipPath>
<clipPath id="c12_344"><path d="M490.5,211.5l0,-25l397,0l0,25Z" /></clipPath>
<clipPath id="c13_344"><path d="M88.5,780.5l0,-568l39,0l0,568Z" /></clipPath>
<clipPath id="c14_344"><path d="M128.5,385.5l0,-173l39,0l0,173Z" /></clipPath>
<clipPath id="c15_344"><path d="M169.5,288.5l0,-76l134,0l0,76Z" /></clipPath>
<clipPath id="c16_344"><path d="M304.5,288.5l0,-76l79,0l0,76Z" /></clipPath>
<clipPath id="c17_344"><path d="M384.5,288.5l0,-76l105,0l0,76Z" /></clipPath>
<clipPath id="c18_344"><path d="M490.5,288.5l0,-76l397,0l0,76Z" /></clipPath>
<clipPath id="c19_344"><path d="M169.5,385.5l0,-95l134,0l0,95Z" /></clipPath>
<clipPath id="c20_344"><path d="M304.5,385.5l0,-95l79,0l0,95Z" /></clipPath>
<clipPath id="c21_344"><path d="M384.5,385.5l0,-95l105,0l0,95Z" /></clipPath>
<clipPath id="c22_344"><path d="M490.5,385.5l0,-95l397,0l0,95Z" /></clipPath>
<clipPath id="c23_344"><path d="M128.5,506.5l0,-119l175,0l0,119Z" /></clipPath>
<clipPath id="c24_344"><path d="M304.5,506.5l0,-119l79,0l0,119Z" /></clipPath>
<clipPath id="c25_344"><path d="M384.5,506.5l0,-119l105,0l0,119Z" /></clipPath>
<clipPath id="c26_344"><path d="M490.5,506.5l0,-119l397,0l0,119Z" /></clipPath>
<clipPath id="c27_344"><path d="M128.5,561.5l0,-54l175,0l0,54Z" /></clipPath>
<clipPath id="c28_344"><path d="M304.5,561.5l0,-54l79,0l0,54Z" /></clipPath>
<clipPath id="c29_344"><path d="M384.5,561.5l0,-54l105,0l0,54Z" /></clipPath>
<clipPath id="c30_344"><path d="M490.5,561.5l0,-54l397,0l0,54Z" /></clipPath>
<clipPath id="c31_344"><path d="M128.5,682.5l0,-120l175,0l0,120Z" /></clipPath>
<clipPath id="c32_344"><path d="M304.5,682.5l0,-120l79,0l0,120Z" /></clipPath>
<clipPath id="c33_344"><path d="M384.5,682.5l0,-120l105,0l0,120Z" /></clipPath>
<clipPath id="c34_344"><path d="M490.5,682.5l0,-120l397,0l0,120Z" /></clipPath>
<clipPath id="c35_344"><path d="M128.5,731.5l0,-48l175,0l0,48Z" /></clipPath>
<clipPath id="c36_344"><path d="M304.5,731.5l0,-48l79,0l0,48Z" /></clipPath>
<clipPath id="c37_344"><path d="M384.5,731.5l0,-48l105,0l0,48Z" /></clipPath>
<clipPath id="c38_344"><path d="M490.5,731.5l0,-48l397,0l0,48Z" /></clipPath>
<clipPath id="c39_344"><path d="M128.5,780.5l0,-48l175,0l0,48Z" /></clipPath>
<clipPath id="c40_344"><path d="M304.5,780.5l0,-48l79,0l0,48Z" /></clipPath>
<clipPath id="c41_344"><path d="M384.5,780.5l0,-48l105,0l0,48Z" /></clipPath>
<clipPath id="c42_344"><path d="M490.5,780.5l0,-48l397,0l0,48Z" /></clipPath>
<clipPath id="c43_344"><path d="M47.5,902.5l0,-24l840,0l0,24Z" /></clipPath>
<clipPath id="c44_344"><path d="M47.5,1096.5l0,-167l840,0l0,167Z" /></clipPath>
<style type="text/css"><![CDATA[
.g2_344{
fill: none;
stroke: #7E7E7E;
stroke-width: 1;
stroke-linecap: butt;
stroke-linejoin: miter;
}
.g3_344{
fill: #F1F1F1;
}
.g1_344{
fill: #DBE5F1;
}
]]></style>
</defs>
<path fill-rule="evenodd" d="M47,135l256,0l0,-24L47,111l0,24Z" class="g1_344" />
<g clip-path="url(#c0_344)">
<path fill-rule="evenodd" d="M55,135l240,0l0,-24L55,111l0,24Z" class="g1_344" />
</g>
<path fill-rule="evenodd" d="M304,135l79,0l0,-24l-79,0l0,24Z" class="g1_344" />
<g clip-path="url(#c1_344)">
<path fill-rule="evenodd" d="M312,135l63,0l0,-24l-63,0l0,24Z" class="g1_344" />
</g>
<path fill-rule="evenodd" d="M384,135l105,0l0,-24l-105,0l0,24Z" class="g1_344" />
<g clip-path="url(#c2_344)">
<path fill-rule="evenodd" d="M392,135l89,0l0,-24l-89,0l0,24Z" class="g1_344" />
</g>
<path fill-rule="evenodd" d="M490,135l397,0l0,-24l-397,0l0,24Z" class="g1_344" />
<g clip-path="url(#c3_344)">
<path fill-rule="evenodd" d="M498,135l382,0l0,-24l-382,0l0,24Z" class="g1_344" />
</g>
<path d="M46.5,111.5l0,-1" class="g2_344" />
<path d="M46.5,111.5l0,-1" class="g2_344" />
<path d="M47.5,111.5l256,0" class="g2_344" />
<path d="M303.5,111.5l0,-1" class="g2_344" />
<path d="M304.5,111.5l79,0" class="g2_344" />
<path d="M383.5,111.5l0,-1" class="g2_344" />
<path d="M384.5,111.5l105,0" class="g2_344" />
<path d="M489.5,111.5l0,-1" class="g2_344" />
<path d="M490.5,111.5l397,0" class="g2_344" />
<path d="M887.5,111.5l0,-1" class="g2_344" />
<path d="M887.5,111.5l0,-1" class="g2_344" />
<path d="M46.5,135.5l0,-24" class="g2_344" />
<path d="M303.5,135.5l0,-24" class="g2_344" />
<path d="M383.5,135.5l0,-24" class="g2_344" />
<path d="M489.5,135.5l0,-24" class="g2_344" />
<path d="M887.5,135.5l0,-24" class="g2_344" />
<path fill-rule="evenodd" d="M47,780l39,0L86,137l-39,0l0,643Z" class="g3_344" />
<g clip-path="url(#c4_344)">
<path fill-rule="evenodd" d="M55,780l23,0L78,137l-23,0l0,643Z" class="g3_344" />
</g>
<path fill-rule="evenodd" d="M88,185l215,0l0,-48L88,137l0,48Z" class="g3_344" />
<g clip-path="url(#c5_344)">
<path fill-rule="evenodd" d="M95,161l200,0l0,-24L95,137l0,24Z" class="g3_344" />
</g>
<path fill-rule="evenodd" d="M304,185l79,0l0,-48l-79,0l0,48Z" class="g3_344" />
<g clip-path="url(#c6_344)">
<path fill-rule="evenodd" d="M312,161l63,0l0,-24l-63,0l0,24Z" class="g3_344" />
</g>
<path fill-rule="evenodd" d="M384,185l105,0l0,-48l-105,0l0,48Z" class="g3_344" />
<g clip-path="url(#c7_344)">
<path fill-rule="evenodd" d="M392,161l89,0l0,-24l-89,0l0,24Z" class="g3_344" />
</g>
<path fill-rule="evenodd" d="M490,185l397,0l0,-48l-397,0l0,48Z" class="g3_344" />
<g clip-path="url(#c8_344)">
<path fill-rule="evenodd" d="M498,161l382,0l0,-24l-382,0l0,24Z" class="g3_344" />
</g>
<path fill-rule="evenodd" d="M498,185l382,0l0,-24l-382,0l0,24Z" class="g3_344" />
<path d="M46.5,137.5l0,-2" class="g2_344" />
<path d="M47.5,137.5l39,0" class="g2_344" />
<path d="M86.5,137.5l0,-2" class="g2_344" />
<path d="M88.5,137.5l215,0" class="g2_344" />
<path d="M303.5,137.5l0,-2" class="g2_344" />
<path d="M304.5,137.5l79,0" class="g2_344" />
<path d="M383.5,137.5l0,-2" class="g2_344" />
<path d="M384.5,137.5l105,0" class="g2_344" />
<path d="M489.5,137.5l0,-2" class="g2_344" />
<path d="M490.5,137.5l397,0" class="g2_344" />
<path d="M887.5,137.5l0,-2" class="g2_344" />
<path d="M46.5,185.5l0,-48" class="g2_344" />
<path d="M86.5,185.5l0,-48" class="g2_344" />
<path d="M303.5,185.5l0,-48" class="g2_344" />
<path d="M383.5,185.5l0,-48" class="g2_344" />
<path d="M489.5,185.5l0,-48" class="g2_344" />
<path d="M887.5,185.5l0,-48" class="g2_344" />
<path fill-rule="evenodd" d="M88,211l215,0l0,-25L88,186l0,25Z" class="g3_344" />
<g clip-path="url(#c9_344)">
<path fill-rule="evenodd" d="M95,210l200,0l0,-24L95,186l0,24Z" class="g3_344" />
</g>
<path fill-rule="evenodd" d="M304,211l79,0l0,-25l-79,0l0,25Z" class="g3_344" />
<g clip-path="url(#c10_344)">
<path fill-rule="evenodd" d="M312,210l63,0l0,-24l-63,0l0,24Z" class="g3_344" />
</g>
<path fill-rule="evenodd" d="M384,211l105,0l0,-25l-105,0l0,25Z" class="g3_344" />
<g clip-path="url(#c11_344)">
<path fill-rule="evenodd" d="M392,210l89,0l0,-24l-89,0l0,24Z" class="g3_344" />
</g>
<path fill-rule="evenodd" d="M490,211l397,0l0,-25l-397,0l0,25Z" class="g3_344" />
<g clip-path="url(#c12_344)">
<path fill-rule="evenodd" d="M498,210l382,0l0,-24l-382,0l0,24Z" class="g3_344" />
</g>
<path d="M46.5,186.5l0,-1" class="g2_344" />
<path d="M86.5,186.5l0,-1" class="g2_344" />
<path d="M88.5,186.5l215,0" class="g2_344" />
<path d="M303.5,186.5l0,-1" class="g2_344" />
<path d="M304.5,186.5l79,0" class="g2_344" />
<path d="M383.5,186.5l0,-1" class="g2_344" />
<path d="M384.5,186.5l105,0" class="g2_344" />
<path d="M489.5,186.5l0,-1" class="g2_344" />
<path d="M490.5,186.5l397,0" class="g2_344" />
<path d="M887.5,186.5l0,-1" class="g2_344" />
<path d="M46.5,211.5l0,-25" class="g2_344" />
<path d="M86.5,211.5l0,-25" class="g2_344" />
<path d="M303.5,211.5l0,-25" class="g2_344" />
<path d="M383.5,211.5l0,-25" class="g2_344" />
<path d="M489.5,211.5l0,-25" class="g2_344" />
<path d="M887.5,211.5l0,-25" class="g2_344" />
<path fill-rule="evenodd" d="M88,780l39,0l0,-568l-39,0l0,568Z" class="g3_344" />
<g clip-path="url(#c13_344)">
<path fill-rule="evenodd" d="M95,236l24,0l0,-24l-24,0l0,24Z" class="g3_344" />
</g>
<path fill-rule="evenodd" d="M128,385l39,0l0,-173l-39,0l0,173Z" class="g3_344" />
<g clip-path="url(#c14_344)">
<path fill-rule="evenodd" d="M136,236l24,0l0,-24l-24,0l0,24Z" class="g3_344" />
</g>
<path fill-rule="evenodd" d="M169,288l134,0l0,-76l-134,0l0,76Z" class="g3_344" />
<g clip-path="url(#c15_344)">
<path fill-rule="evenodd" d="M176,236l119,0l0,-24l-119,0l0,24Z" class="g3_344" />
</g>
<path fill-rule="evenodd" d="M304,288l79,0l0,-76l-79,0l0,76Z" class="g3_344" />
<g clip-path="url(#c16_344)">
<path fill-rule="evenodd" d="M312,236l63,0l0,-24l-63,0l0,24Z" class="g3_344" />
</g>
<path fill-rule="evenodd" d="M384,288l105,0l0,-76l-105,0l0,76Z" class="g3_344" />
<g clip-path="url(#c17_344)">
<path fill-rule="evenodd" d="M392,236l89,0l0,-24l-89,0l0,24Z" class="g3_344" />
</g>
<path fill-rule="evenodd" d="M490,288l397,0l0,-76l-397,0l0,76Z" class="g3_344" />
<g clip-path="url(#c18_344)">
<path fill-rule="evenodd" d="M498,236l382,0l0,-24l-382,0l0,24Z" class="g3_344" />
</g>
<path fill-rule="evenodd" d="M498,260l382,0l0,-24l-382,0l0,24Z" class="g3_344" />
<path fill-rule="evenodd" d="M498,284l382,0l0,-24l-382,0l0,24Z" class="g3_344" />
<path d="M46.5,212.5l0,-1" class="g2_344" />
<path d="M86.5,212.5l0,-1" class="g2_344" />
<path d="M88.5,212.5l39,0" class="g2_344" />
<path d="M127.5,212.5l0,-1" class="g2_344" />
<path d="M128.5,212.5l39,0" class="g2_344" />
<path d="M167.5,212.5l0,-1" class="g2_344" />
<path d="M169.5,212.5l134,0" class="g2_344" />
<path d="M303.5,212.5l0,-1" class="g2_344" />
<path d="M304.5,212.5l79,0" class="g2_344" />
<path d="M383.5,212.5l0,-1" class="g2_344" />
<path d="M384.5,212.5l105,0" class="g2_344" />
<path d="M489.5,212.5l0,-1" class="g2_344" />
<path d="M490.5,212.5l397,0" class="g2_344" />
<path d="M887.5,212.5l0,-1" class="g2_344" />
<path d="M46.5,288.5l0,-76" class="g2_344" />
<path d="M86.5,288.5l0,-76" class="g2_344" />
<path d="M127.5,288.5l0,-76" class="g2_344" />
<path d="M167.5,288.5l0,-76" class="g2_344" />
<path d="M303.5,288.5l0,-76" class="g2_344" />
<path d="M383.5,288.5l0,-76" class="g2_344" />
<path d="M489.5,288.5l0,-76" class="g2_344" />
<path d="M887.5,288.5l0,-76" class="g2_344" />
<path fill-rule="evenodd" d="M169,385l134,0l0,-95l-134,0l0,95Z" class="g3_344" />
<g clip-path="url(#c19_344)">
<path fill-rule="evenodd" d="M176,314l119,0l0,-24l-119,0l0,24Z" class="g3_344" />
</g>
<path fill-rule="evenodd" d="M304,385l79,0l0,-95l-79,0l0,95Z" class="g3_344" />
<g clip-path="url(#c20_344)">
<path fill-rule="evenodd" d="M312,314l63,0l0,-24l-63,0l0,24Z" class="g3_344" />
</g>
<path fill-rule="evenodd" d="M384,385l105,0l0,-95l-105,0l0,95Z" class="g3_344" />
<g clip-path="url(#c21_344)">
<path fill-rule="evenodd" d="M392,314l89,0l0,-24l-89,0l0,24Z" class="g3_344" />
</g>
<path fill-rule="evenodd" d="M490,385l397,0l0,-95l-397,0l0,95Z" class="g3_344" />
<g clip-path="url(#c22_344)">
<path fill-rule="evenodd" d="M498,314l382,0l0,-24l-382,0l0,24Z" class="g3_344" />
</g>
<path fill-rule="evenodd" d="M498,337l382,0l0,-23l-382,0l0,23Z" class="g3_344" />
<path fill-rule="evenodd" d="M498,361l382,0l0,-24l-382,0l0,24Z" class="g3_344" />
<path fill-rule="evenodd" d="M498,385l382,0l0,-24l-382,0l0,24Z" class="g3_344" />
<path d="M46.5,290.5l0,-2" class="g2_344" />
<path d="M86.5,290.5l0,-2" class="g2_344" />
<path d="M127.5,290.5l0,-2" class="g2_344" />
<path d="M167.5,290.5l0,-2" class="g2_344" />
<path d="M169.5,290.5l134,0" class="g2_344" />
<path d="M303.5,290.5l0,-2" class="g2_344" />
<path d="M304.5,290.5l79,0" class="g2_344" />
<path d="M383.5,290.5l0,-2" class="g2_344" />
<path d="M384.5,290.5l105,0" class="g2_344" />
<path d="M489.5,290.5l0,-2" class="g2_344" />
<path d="M490.5,290.5l397,0" class="g2_344" />
<path d="M887.5,290.5l0,-2" class="g2_344" />
<path d="M46.5,385.5l0,-95" class="g2_344" />
<path d="M86.5,385.5l0,-95" class="g2_344" />
<path d="M127.5,385.5l0,-95" class="g2_344" />
<path d="M167.5,385.5l0,-95" class="g2_344" />
<path d="M303.5,385.5l0,-95" class="g2_344" />
<path d="M383.5,385.5l0,-95" class="g2_344" />
<path d="M489.5,385.5l0,-95" class="g2_344" />
<path d="M887.5,385.5l0,-95" class="g2_344" />
<path fill-rule="evenodd" d="M128,506l175,0l0,-119l-175,0l0,119Z" class="g3_344" />
<g clip-path="url(#c23_344)">
<path fill-rule="evenodd" d="M136,410l159,0l0,-23l-159,0l0,23Z" class="g3_344" />
</g>
<path fill-rule="evenodd" d="M304,506l79,0l0,-119l-79,0l0,119Z" class="g3_344" />
<g clip-path="url(#c24_344)">
<path fill-rule="evenodd" d="M312,410l63,0l0,-23l-63,0l0,23Z" class="g3_344" />
</g>
<path fill-rule="evenodd" d="M384,506l105,0l0,-119l-105,0l0,119Z" class="g3_344" />
<g clip-path="url(#c25_344)">
<path fill-rule="evenodd" d="M392,410l89,0l0,-23l-89,0l0,23Z" class="g3_344" />
</g>
<path fill-rule="evenodd" d="M490,506l397,0l0,-119l-397,0l0,119Z" class="g3_344" />
<g clip-path="url(#c26_344)">
<path fill-rule="evenodd" d="M498,410l382,0l0,-23l-382,0l0,23Z" class="g3_344" />
</g>
<path fill-rule="evenodd" d="M498,434l382,0l0,-24l-382,0l0,24Z" class="g3_344" />
<path fill-rule="evenodd" d="M498,458l382,0l0,-24l-382,0l0,24Z" class="g3_344" />
<path fill-rule="evenodd" d="M498,482l382,0l0,-24l-382,0l0,24Z" class="g3_344" />
<path fill-rule="evenodd" d="M498,506l382,0l0,-24l-382,0l0,24Z" class="g3_344" />
<path d="M46.5,387.5l0,-2" class="g2_344" />
<path d="M86.5,387.5l0,-2" class="g2_344" />
<path d="M127.5,387.5l0,-2" class="g2_344" />
<path d="M128.5,387.5l39,0" class="g2_344" />
<path d="M167.5,387.5l0,-2" class="g2_344" />
<path d="M169.5,387.5l134,0" class="g2_344" />
<path d="M303.5,387.5l0,-2" class="g2_344" />
<path d="M304.5,387.5l79,0" class="g2_344" />
<path d="M383.5,387.5l0,-2" class="g2_344" />
<path d="M384.5,387.5l105,0" class="g2_344" />
<path d="M489.5,387.5l0,-2" class="g2_344" />
<path d="M490.5,387.5l397,0" class="g2_344" />
<path d="M887.5,387.5l0,-2" class="g2_344" />
<path d="M46.5,506.5l0,-119" class="g2_344" />
<path d="M86.5,506.5l0,-119" class="g2_344" />
<path d="M127.5,506.5l0,-119" class="g2_344" />
<path d="M303.5,506.5l0,-119" class="g2_344" />
<path d="M383.5,506.5l0,-119" class="g2_344" />
<path d="M489.5,506.5l0,-119" class="g2_344" />
<path d="M887.5,506.5l0,-119" class="g2_344" />
<path fill-rule="evenodd" d="M128,561l175,0l0,-54l-175,0l0,54Z" class="g3_344" />
<g clip-path="url(#c27_344)">
<path fill-rule="evenodd" d="M136,531l159,0l0,-24l-159,0l0,24Z" class="g3_344" />
</g>
<path fill-rule="evenodd" d="M304,561l79,0l0,-54l-79,0l0,54Z" class="g3_344" />
<g clip-path="url(#c28_344)">
<path fill-rule="evenodd" d="M312,531l63,0l0,-24l-63,0l0,24Z" class="g3_344" />
</g>
<path fill-rule="evenodd" d="M384,561l105,0l0,-54l-105,0l0,54Z" class="g3_344" />
<g clip-path="url(#c29_344)">
<path fill-rule="evenodd" d="M392,531l89,0l0,-24l-89,0l0,24Z" class="g3_344" />
</g>
<path fill-rule="evenodd" d="M490,561l397,0l0,-54l-397,0l0,54Z" class="g3_344" />
<g clip-path="url(#c30_344)">
<path fill-rule="evenodd" d="M498,531l382,0l0,-24l-382,0l0,24Z" class="g3_344" />
</g>
<path fill-rule="evenodd" d="M498,555l382,0l0,-24l-382,0l0,24Z" class="g3_344" />
<path d="M46.5,507.5l0,-1" class="g2_344" />
<path d="M86.5,507.5l0,-1" class="g2_344" />
<path d="M127.5,507.5l0,-1" class="g2_344" />
<path d="M128.5,507.5l175,0" class="g2_344" />
<path d="M303.5,507.5l0,-1" class="g2_344" />
<path d="M304.5,507.5l79,0" class="g2_344" />
<path d="M383.5,507.5l0,-1" class="g2_344" />
<path d="M384.5,507.5l105,0" class="g2_344" />
<path d="M489.5,507.5l0,-1" class="g2_344" />
<path d="M490.5,507.5l397,0" class="g2_344" />
<path d="M887.5,507.5l0,-1" class="g2_344" />
<path d="M46.5,561.5l0,-54" class="g2_344" />
<path d="M86.5,561.5l0,-54" class="g2_344" />
<path d="M127.5,561.5l0,-54" class="g2_344" />
<path d="M303.5,561.5l0,-54" class="g2_344" />
<path d="M383.5,561.5l0,-54" class="g2_344" />
<path d="M489.5,561.5l0,-54" class="g2_344" />
<path d="M887.5,561.5l0,-54" class="g2_344" />
<path fill-rule="evenodd" d="M128,682l175,0l0,-120l-175,0l0,120Z" class="g3_344" />
<g clip-path="url(#c31_344)">
<path fill-rule="evenodd" d="M136,586l159,0l0,-24l-159,0l0,24Z" class="g3_344" />
</g>
<path fill-rule="evenodd" d="M304,682l79,0l0,-120l-79,0l0,120Z" class="g3_344" />
<g clip-path="url(#c32_344)">
<path fill-rule="evenodd" d="M312,586l63,0l0,-24l-63,0l0,24Z" class="g3_344" />
</g>
<path fill-rule="evenodd" d="M384,682l105,0l0,-120l-105,0l0,120Z" class="g3_344" />
<g clip-path="url(#c33_344)">
<path fill-rule="evenodd" d="M392,586l89,0l0,-24l-89,0l0,24Z" class="g3_344" />
</g>
<path fill-rule="evenodd" d="M490,682l397,0l0,-120l-397,0l0,120Z" class="g3_344" />
<g clip-path="url(#c34_344)">
<path fill-rule="evenodd" d="M498,586l382,0l0,-24l-382,0l0,24Z" class="g3_344" />
</g>
<path fill-rule="evenodd" d="M498,610l382,0l0,-24l-382,0l0,24Z" class="g3_344" />
<path fill-rule="evenodd" d="M498,634l382,0l0,-24l-382,0l0,24Z" class="g3_344" />
<path fill-rule="evenodd" d="M498,658l382,0l0,-24l-382,0l0,24Z" class="g3_344" />
<path fill-rule="evenodd" d="M498,682l382,0l0,-24l-382,0l0,24Z" class="g3_344" />
<path d="M46.5,562.5l0,-1" class="g2_344" />
<path d="M86.5,562.5l0,-1" class="g2_344" />
<path d="M127.5,562.5l0,-1" class="g2_344" />
<path d="M128.5,562.5l175,0" class="g2_344" />
<path d="M303.5,562.5l0,-1" class="g2_344" />
<path d="M304.5,562.5l79,0" class="g2_344" />
<path d="M383.5,562.5l0,-1" class="g2_344" />
<path d="M384.5,562.5l105,0" class="g2_344" />
<path d="M489.5,562.5l0,-1" class="g2_344" />
<path d="M490.5,562.5l397,0" class="g2_344" />
<path d="M887.5,562.5l0,-1" class="g2_344" />
<path d="M46.5,682.5l0,-120" class="g2_344" />
<path d="M86.5,682.5l0,-120" class="g2_344" />
<path d="M127.5,682.5l0,-120" class="g2_344" />
<path d="M303.5,682.5l0,-120" class="g2_344" />
<path d="M383.5,682.5l0,-120" class="g2_344" />
<path d="M489.5,682.5l0,-120" class="g2_344" />
<path d="M887.5,682.5l0,-120" class="g2_344" />
<path fill-rule="evenodd" d="M128,731l175,0l0,-48l-175,0l0,48Z" class="g3_344" />
<g clip-path="url(#c35_344)">
<path fill-rule="evenodd" d="M136,707l159,0l0,-24l-159,0l0,24Z" class="g3_344" />
</g>
<path fill-rule="evenodd" d="M136,731l159,0l0,-24l-159,0l0,24Z" class="g3_344" />
<path fill-rule="evenodd" d="M304,731l79,0l0,-48l-79,0l0,48Z" class="g3_344" />
<g clip-path="url(#c36_344)">
<path fill-rule="evenodd" d="M312,707l63,0l0,-24l-63,0l0,24Z" class="g3_344" />
</g>
<path fill-rule="evenodd" d="M384,731l105,0l0,-48l-105,0l0,48Z" class="g3_344" />
<g clip-path="url(#c37_344)">
<path fill-rule="evenodd" d="M392,707l89,0l0,-24l-89,0l0,24Z" class="g3_344" />
</g>
<path fill-rule="evenodd" d="M490,731l397,0l0,-48l-397,0l0,48Z" class="g3_344" />
<g clip-path="url(#c38_344)">
<path fill-rule="evenodd" d="M498,707l382,0l0,-24l-382,0l0,24Z" class="g3_344" />
</g>
<path fill-rule="evenodd" d="M498,731l382,0l0,-24l-382,0l0,24Z" class="g3_344" />
<path d="M46.5,683.5l0,-1" class="g2_344" />
<path d="M86.5,683.5l0,-1" class="g2_344" />
<path d="M127.5,683.5l0,-1" class="g2_344" />
<path d="M128.5,683.5l175,0" class="g2_344" />
<path d="M303.5,683.5l0,-1" class="g2_344" />
<path d="M304.5,683.5l79,0" class="g2_344" />
<path d="M383.5,683.5l0,-1" class="g2_344" />
<path d="M384.5,683.5l105,0" class="g2_344" />
<path d="M489.5,683.5l0,-1" class="g2_344" />
<path d="M490.5,683.5l397,0" class="g2_344" />
<path d="M887.5,683.5l0,-1" class="g2_344" />
<path d="M46.5,731.5l0,-48" class="g2_344" />
<path d="M86.5,731.5l0,-48" class="g2_344" />
<path d="M127.5,731.5l0,-48" class="g2_344" />
<path d="M303.5,731.5l0,-48" class="g2_344" />
<path d="M383.5,731.5l0,-48" class="g2_344" />
<path d="M489.5,731.5l0,-48" class="g2_344" />
<path d="M887.5,731.5l0,-48" class="g2_344" />
<path fill-rule="evenodd" d="M128,780l175,0l0,-48l-175,0l0,48Z" class="g3_344" />
<g clip-path="url(#c39_344)">
<path fill-rule="evenodd" d="M136,756l159,0l0,-24l-159,0l0,24Z" class="g3_344" />
</g>
<path fill-rule="evenodd" d="M304,780l79,0l0,-48l-79,0l0,48Z" class="g3_344" />
<g clip-path="url(#c40_344)">
<path fill-rule="evenodd" d="M312,756l63,0l0,-24l-63,0l0,24Z" class="g3_344" />
</g>
<path fill-rule="evenodd" d="M384,780l105,0l0,-48l-105,0l0,48Z" class="g3_344" />
<g clip-path="url(#c41_344)">
<path fill-rule="evenodd" d="M392,756l89,0l0,-24l-89,0l0,24Z" class="g3_344" />
</g>
<path fill-rule="evenodd" d="M490,780l397,0l0,-48l-397,0l0,48Z" class="g3_344" />
<g clip-path="url(#c42_344)">
<path fill-rule="evenodd" d="M498,756l382,0l0,-24l-382,0l0,24Z" class="g3_344" />
</g>
<path fill-rule="evenodd" d="M498,780l382,0l0,-24l-382,0l0,24Z" class="g3_344" />
<path d="M46.5,732.5l0,-1" class="g2_344" />
<path d="M86.5,732.5l0,-1" class="g2_344" />
<path d="M127.5,732.5l0,-1" class="g2_344" />
<path d="M128.5,732.5l175,0" class="g2_344" />
<path d="M303.5,732.5l0,-1" class="g2_344" />
<path d="M304.5,732.5l79,0" class="g2_344" />
<path d="M383.5,732.5l0,-1" class="g2_344" />
<path d="M384.5,732.5l105,0" class="g2_344" />
<path d="M489.5,732.5l0,-1" class="g2_344" />
<path d="M490.5,732.5l397,0" class="g2_344" />
<path d="M887.5,732.5l0,-1" class="g2_344" />
<path d="M46.5,780.5l0,-48" class="g2_344" />
<path d="M46.5,782.5l0,-2" class="g2_344" />
<path d="M46.5,782.5l0,-2" class="g2_344" />
<path d="M47.5,782.5l39,0" class="g2_344" />
<path d="M86.5,780.5l0,-48" class="g2_344" />
<path d="M86.5,782.5l0,-2" class="g2_344" />
<path d="M88.5,782.5l39,0" class="g2_344" />
<path d="M127.5,780.5l0,-48" class="g2_344" />
<path d="M127.5,782.5l0,-2" class="g2_344" />
<path d="M128.5,782.5l175,0" class="g2_344" />
<path d="M303.5,780.5l0,-48" class="g2_344" />
<path d="M303.5,782.5l0,-2" class="g2_344" />
<path d="M304.5,782.5l79,0" class="g2_344" />
<path d="M383.5,780.5l0,-48" class="g2_344" />
<path d="M383.5,782.5l0,-2" class="g2_344" />
<path d="M384.5,782.5l105,0" class="g2_344" />
<path d="M489.5,780.5l0,-48" class="g2_344" />
<path d="M489.5,782.5l0,-2" class="g2_344" />
<path d="M490.5,782.5l397,0" class="g2_344" />
<path d="M887.5,780.5l0,-48" class="g2_344" />
<path d="M887.5,782.5l0,-2" class="g2_344" />
<path d="M887.5,782.5l0,-2" class="g2_344" />
<path fill-rule="evenodd" d="M47,902l840,0l0,-24L47,878l0,24Z" class="g3_344" />
<g clip-path="url(#c43_344)">
<path fill-rule="evenodd" d="M55,902l825,0l0,-24L55,878l0,24Z" class="g3_344" />
</g>
<path d="M46.5,878.5l0,-1" class="g2_344" />
<path d="M46.5,878.5l0,-1" class="g2_344" />
<path d="M47.5,878.5l840,0" class="g2_344" />
<path d="M887.5,878.5l0,-1" class="g2_344" />
<path d="M887.5,878.5l0,-1" class="g2_344" />
<path d="M46.5,902.5l0,-24" class="g2_344" />
<path d="M46.5,904.5l0,-2" class="g2_344" />
<path d="M46.5,904.5l0,-2" class="g2_344" />
<path d="M47.5,904.5l840,0" class="g2_344" />
<path d="M887.5,902.5l0,-24" class="g2_344" />
<path d="M887.5,904.5l0,-2" class="g2_344" />
<path d="M887.5,904.5l0,-2" class="g2_344" />
<path fill-rule="evenodd" d="M47,1096l840,0l0,-167L47,929l0,167Z" class="g3_344" />
<path fill-rule="evenodd" d="M55,953l825,0l0,-24L55,929l0,24Z" class="g3_344" />
<path fill-rule="evenodd" d="M55,977l825,0l0,-24L55,953l0,24Z" class="g3_344" />
<path fill-rule="evenodd" d="M55,1001l825,0l0,-24L55,977l0,24Z" class="g3_344" />
<path fill-rule="evenodd" d="M55,1024l825,0l0,-23l-825,0l0,23Z" class="g3_344" />
<path fill-rule="evenodd" d="M55,1048l825,0l0,-24l-825,0l0,24Z" class="g3_344" />
<path fill-rule="evenodd" d="M55,1072l825,0l0,-24l-825,0l0,24Z" class="g3_344" />
<g clip-path="url(#c44_344)">
<path fill-rule="evenodd" d="M55,1096l825,0l0,-24l-825,0l0,24Z" class="g3_344" />
</g>
<path d="M46.5,929.5l0,-1" class="g2_344" />
<path d="M46.5,929.5l0,-1" class="g2_344" />
<path d="M47.5,929.5l840,0" class="g2_344" />
<path d="M887.5,929.5l0,-1" class="g2_344" />
<path d="M887.5,929.5l0,-1" class="g2_344" />
<path d="M46.5,1096.5l0,-167" class="g2_344" />
<path d="M46.5,1097.5l0,-1" class="g2_344" />
<path d="M46.5,1097.5l0,-1" class="g2_344" />
<path d="M47.5,1097.5l840,0" class="g2_344" />
<path d="M887.5,1096.5l0,-167" class="g2_344" />
<path d="M887.5,1097.5l0,-1" class="g2_344" />
<path d="M887.5,1097.5l0,-1" class="g2_344" />
</svg>