<?xml version="1.0" encoding="UTF-8" standalone="no"?>
<!DOCTYPE svg PUBLIC "-//W3C//DTD SVG 1.1//EN"
"http://www.w3.org/Graphics/SVG/1.1/DTD/svg11.dtd">
<svg version="1.1" xmlns="http://www.w3.org/2000/svg" xmlns:xlink="http://www.w3.org/1999/xlink">
<defs>
<clipPath id="c0_157"><path d="M144.5,144.5l0,-33l196,0l0,33Z" /></clipPath>
<clipPath id="c1_157"><path d="M342.5,144.5l0,-33l68,0l0,33Z" /></clipPath>
<clipPath id="c2_157"><path d="M412.5,144.5l0,-33l55,0l0,33Z" /></clipPath>
<clipPath id="c3_157"><path d="M469.5,144.5l0,-33l386,0l0,33Z" /></clipPath>
<clipPath id="c4_157"><path d="M144.5,178.5l0,-33l196,0l0,33Z" /></clipPath>
<clipPath id="c5_157"><path d="M342.5,178.5l0,-33l68,0l0,33Z" /></clipPath>
<clipPath id="c6_157"><path d="M412.5,178.5l0,-33l55,0l0,33Z" /></clipPath>
<clipPath id="c7_157"><path d="M469.5,178.5l0,-33l386,0l0,33Z" /></clipPath>
<clipPath id="c8_157"><path d="M144.5,213.5l0,-33l196,0l0,33Z" /></clipPath>
<clipPath id="c9_157"><path d="M342.5,213.5l0,-33l68,0l0,33Z" /></clipPath>
<clipPath id="c10_157"><path d="M412.5,213.5l0,-33l55,0l0,33Z" /></clipPath>
<clipPath id="c11_157"><path d="M469.5,213.5l0,-33l386,0l0,33Z" /></clipPath>
<clipPath id="c12_157"><path d="M144.5,286.5l0,-72l196,0l0,72Z" /></clipPath>
<clipPath id="c13_157"><path d="M342.5,286.5l0,-72l68,0l0,72Z" /></clipPath>
<clipPath id="c14_157"><path d="M412.5,286.5l0,-72l55,0l0,72Z" /></clipPath>
<clipPath id="c15_157"><path d="M469.5,286.5l0,-72l386,0l0,72Z" /></clipPath>
<clipPath id="c16_157"><path d="M144.5,359.5l0,-72l196,0l0,72Z" /></clipPath>
<clipPath id="c17_157"><path d="M342.5,359.5l0,-72l68,0l0,72Z" /></clipPath>
<clipPath id="c18_157"><path d="M412.5,359.5l0,-72l55,0l0,72Z" /></clipPath>
<clipPath id="c19_157"><path d="M469.5,359.5l0,-72l386,0l0,72Z" /></clipPath>
<clipPath id="c20_157"><path d="M144.5,432.5l0,-72l196,0l0,72Z" /></clipPath>
<clipPath id="c21_157"><path d="M342.5,432.5l0,-72l68,0l0,72Z" /></clipPath>
<clipPath id="c22_157"><path d="M412.5,432.5l0,-72l55,0l0,72Z" /></clipPath>
<clipPath id="c23_157"><path d="M469.5,432.5l0,-72l386,0l0,72Z" /></clipPath>
<clipPath id="c24_157"><path d="M144.5,578.5l0,-72l196,0l0,72Z" /></clipPath>
<clipPath id="c25_157"><path d="M342.5,578.5l0,-72l68,0l0,72Z" /></clipPath>
<clipPath id="c26_157"><path d="M412.5,578.5l0,-72l55,0l0,72Z" /></clipPath>
<clipPath id="c27_157"><path d="M469.5,578.5l0,-72l386,0l0,72Z" /></clipPath>
<clipPath id="c28_157"><path d="M144.5,675.5l0,-96l196,0l0,96Z" /></clipPath>
<clipPath id="c29_157"><path d="M342.5,675.5l0,-96l68,0l0,96Z" /></clipPath>
<clipPath id="c30_157"><path d="M412.5,675.5l0,-96l55,0l0,96Z" /></clipPath>
<clipPath id="c31_157"><path d="M469.5,675.5l0,-96l386,0l0,96Z" /></clipPath>
<clipPath id="c32_157"><path d="M144.5,1036.5l0,-360l30,0l0,360Z" /></clipPath>
<clipPath id="c33_157"><path d="M176.5,1036.5l0,-360l30,0l0,360Z" /></clipPath>
<clipPath id="c34_157"><path d="M208.5,738.5l0,-62l132,0l0,62Z" /></clipPath>
<clipPath id="c35_157"><path d="M342.5,738.5l0,-62l68,0l0,62Z" /></clipPath>
<clipPath id="c36_157"><path d="M412.5,738.5l0,-62l55,0l0,62Z" /></clipPath>
<clipPath id="c37_157"><path d="M469.5,738.5l0,-62l386,0l0,62Z" /></clipPath>
<clipPath id="c38_157"><path d="M208.5,807.5l0,-67l132,0l0,67Z" /></clipPath>
<clipPath id="c39_157"><path d="M342.5,807.5l0,-67l68,0l0,67Z" /></clipPath>
<clipPath id="c40_157"><path d="M412.5,807.5l0,-67l55,0l0,67Z" /></clipPath>
<clipPath id="c41_157"><path d="M469.5,807.5l0,-67l386,0l0,67Z" /></clipPath>
<clipPath id="c42_157"><path d="M208.5,869.5l0,-61l132,0l0,61Z" /></clipPath>
<clipPath id="c43_157"><path d="M342.5,869.5l0,-61l68,0l0,61Z" /></clipPath>
<clipPath id="c44_157"><path d="M412.5,869.5l0,-61l55,0l0,61Z" /></clipPath>
<clipPath id="c45_157"><path d="M469.5,869.5l0,-61l386,0l0,61Z" /></clipPath>
<clipPath id="c46_157"><path d="M208.5,933.5l0,-63l132,0l0,63Z" /></clipPath>
<clipPath id="c47_157"><path d="M342.5,933.5l0,-63l68,0l0,63Z" /></clipPath>
<clipPath id="c48_157"><path d="M412.5,933.5l0,-63l55,0l0,63Z" /></clipPath>
<clipPath id="c49_157"><path d="M469.5,933.5l0,-63l386,0l0,63Z" /></clipPath>
<clipPath id="c50_157"><path d="M208.5,1036.5l0,-102l28,0l0,102Z" /></clipPath>
<clipPath id="c51_157"><path d="M237.5,1036.5l0,-102l29,0l0,102Z" /></clipPath>
<style type="text/css"><![CDATA[
.g2_157{
fill: none;
stroke: #7E7E7E;
stroke-width: 1;
stroke-linecap: butt;
stroke-linejoin: miter;
}
.g3_157{
fill: none;
stroke: #0000FF;
stroke-width: 1;
stroke-linecap: butt;
stroke-linejoin: miter;
}
.g1_157{
fill: #F1F1F1;
}
]]></style>
</defs>
<path fill-rule="evenodd" d="M47,144l31,0l0,-33l-31,0l0,33Z" class="g1_157" />
<path fill-rule="evenodd" d="M79,144l31,0l0,-33l-31,0l0,33Z" class="g1_157" />
<path fill-rule="evenodd" d="M111,144l31,0l0,-33l-31,0l0,33Z" class="g1_157" />
<path fill-rule="evenodd" d="M144,144l196,0l0,-33l-196,0l0,33Z" class="g1_157" />
<g clip-path="url(#c0_157)">
<path fill-rule="evenodd" d="M151,135l182,0l0,-24l-182,0l0,24Z" class="g1_157" />
</g>
<path fill-rule="evenodd" d="M342,144l68,0l0,-33l-68,0l0,33Z" class="g1_157" />
<g clip-path="url(#c1_157)">
<path fill-rule="evenodd" d="M349,135l53,0l0,-24l-53,0l0,24Z" class="g1_157" />
</g>
<path fill-rule="evenodd" d="M412,144l55,0l0,-33l-55,0l0,33Z" class="g1_157" />
<g clip-path="url(#c2_157)">
<path fill-rule="evenodd" d="M419,135l41,0l0,-24l-41,0l0,24Z" class="g1_157" />
</g>
<path fill-rule="evenodd" d="M469,144l386,0l0,-33l-386,0l0,33Z" class="g1_157" />
<g clip-path="url(#c3_157)">
<path fill-rule="evenodd" d="M476,135l372,0l0,-24l-372,0l0,24Z" class="g1_157" />
</g>
<path d="M46.5,111.5l0,-1" class="g2_157" />
<path d="M46.5,111.5l0,-1" class="g2_157" />
<path d="M47.5,111.5l31,0" class="g2_157" />
<path d="M78.5,111.5l0,-1" class="g2_157" />
<path d="M79.5,111.5l31,0" class="g2_157" />
<path d="M110.5,111.5l0,-1" class="g2_157" />
<path d="M111.5,111.5l31,0" class="g2_157" />
<path d="M142.5,111.5l0,-1" class="g2_157" />
<path d="M144.5,111.5l196,0" class="g2_157" />
<path d="M340.5,111.5l0,-1" class="g2_157" />
<path d="M342.5,111.5l68,0" class="g2_157" />
<path d="M410.5,111.5l0,-1" class="g2_157" />
<path d="M412.5,111.5l55,0" class="g2_157" />
<path d="M467.5,111.5l0,-1" class="g2_157" />
<path d="M469.5,111.5l386,0" class="g2_157" />
<path d="M855.5,111.5l0,-1" class="g2_157" />
<path d="M855.5,111.5l0,-1" class="g2_157" />
<path d="M46.5,144.5l0,-33" class="g2_157" />
<path d="M78.5,144.5l0,-33" class="g2_157" />
<path d="M110.5,144.5l0,-33" class="g2_157" />
<path d="M142.5,144.5l0,-33" class="g2_157" />
<path d="M340.5,144.5l0,-33" class="g2_157" />
<path d="M410.5,144.5l0,-33" class="g2_157" />
<path d="M467.5,144.5l0,-33" class="g2_157" />
<path d="M855.5,144.5l0,-33" class="g2_157" />
<path fill-rule="evenodd" d="M47,178l31,0l0,-34l-31,0l0,34Z" class="g1_157" />
<path fill-rule="evenodd" d="M79,178l31,0l0,-34l-31,0l0,34Z" class="g1_157" />
<path fill-rule="evenodd" d="M111,178l31,0l0,-34l-31,0l0,34Z" class="g1_157" />
<path fill-rule="evenodd" d="M144,178l196,0l0,-33l-196,0l0,33Z" class="g1_157" />
<g clip-path="url(#c4_157)">
<path fill-rule="evenodd" d="M151,169l182,0l0,-24l-182,0l0,24Z" class="g1_157" />
</g>
<path fill-rule="evenodd" d="M342,178l68,0l0,-33l-68,0l0,33Z" class="g1_157" />
<g clip-path="url(#c5_157)">
<path fill-rule="evenodd" d="M349,169l53,0l0,-24l-53,0l0,24Z" class="g1_157" />
</g>
<path fill-rule="evenodd" d="M412,178l55,0l0,-33l-55,0l0,33Z" class="g1_157" />
<g clip-path="url(#c6_157)">
<path fill-rule="evenodd" d="M419,169l41,0l0,-24l-41,0l0,24Z" class="g1_157" />
</g>
<path fill-rule="evenodd" d="M469,178l386,0l0,-33l-386,0l0,33Z" class="g1_157" />
<g clip-path="url(#c7_157)">
<path fill-rule="evenodd" d="M476,169l372,0l0,-24l-372,0l0,24Z" class="g1_157" />
</g>
<path d="M46.5,145.5l0,-1" class="g2_157" />
<path d="M78.5,145.5l0,-1" class="g2_157" />
<path d="M110.5,145.5l0,-1" class="g2_157" />
<path d="M142.5,145.5l0,-1" class="g2_157" />
<path d="M144.5,145.5l196,0" class="g2_157" />
<path d="M340.5,145.5l0,-1" class="g2_157" />
<path d="M342.5,145.5l68,0" class="g2_157" />
<path d="M410.5,145.5l0,-1" class="g2_157" />
<path d="M412.5,145.5l55,0" class="g2_157" />
<path d="M467.5,145.5l0,-1" class="g2_157" />
<path d="M469.5,145.5l386,0" class="g2_157" />
<path d="M855.5,145.5l0,-1" class="g2_157" />
<path d="M46.5,178.5l0,-33" class="g2_157" />
<path d="M78.5,178.5l0,-33" class="g2_157" />
<path d="M110.5,178.5l0,-33" class="g2_157" />
<path d="M142.5,178.5l0,-33" class="g2_157" />
<path d="M340.5,178.5l0,-33" class="g2_157" />
<path d="M410.5,178.5l0,-33" class="g2_157" />
<path d="M467.5,178.5l0,-33" class="g2_157" />
<path d="M855.5,178.5l0,-33" class="g2_157" />
<path fill-rule="evenodd" d="M47,213l31,0l0,-35l-31,0l0,35Z" class="g1_157" />
<path fill-rule="evenodd" d="M79,213l31,0l0,-35l-31,0l0,35Z" class="g1_157" />
<path fill-rule="evenodd" d="M111,213l31,0l0,-35l-31,0l0,35Z" class="g1_157" />
<path fill-rule="evenodd" d="M144,213l196,0l0,-33l-196,0l0,33Z" class="g1_157" />
<g clip-path="url(#c8_157)">
<path fill-rule="evenodd" d="M151,204l182,0l0,-24l-182,0l0,24Z" class="g1_157" />
</g>
<path fill-rule="evenodd" d="M342,213l68,0l0,-33l-68,0l0,33Z" class="g1_157" />
<g clip-path="url(#c9_157)">
<path fill-rule="evenodd" d="M349,204l53,0l0,-24l-53,0l0,24Z" class="g1_157" />
</g>
<path fill-rule="evenodd" d="M412,213l55,0l0,-33l-55,0l0,33Z" class="g1_157" />
<g clip-path="url(#c10_157)">
<path fill-rule="evenodd" d="M419,204l41,0l0,-24l-41,0l0,24Z" class="g1_157" />
</g>
<path fill-rule="evenodd" d="M469,213l386,0l0,-33l-386,0l0,33Z" class="g1_157" />
<g clip-path="url(#c11_157)">
<path fill-rule="evenodd" d="M476,204l372,0l0,-24l-372,0l0,24Z" class="g1_157" />
</g>
<path d="M46.5,180.5l0,-2" class="g2_157" />
<path d="M78.5,180.5l0,-2" class="g2_157" />
<path d="M110.5,180.5l0,-2" class="g2_157" />
<path d="M142.5,180.5l0,-2" class="g2_157" />
<path d="M144.5,180.5l196,0" class="g2_157" />
<path d="M340.5,180.5l0,-2" class="g2_157" />
<path d="M342.5,180.5l68,0" class="g2_157" />
<path d="M410.5,180.5l0,-2" class="g2_157" />
<path d="M412.5,180.5l55,0" class="g2_157" />
<path d="M467.5,180.5l0,-2" class="g2_157" />
<path d="M469.5,180.5l386,0" class="g2_157" />
<path d="M855.5,180.5l0,-2" class="g2_157" />
<path d="M46.5,213.5l0,-33" class="g2_157" />
<path d="M78.5,213.5l0,-33" class="g2_157" />
<path d="M110.5,213.5l0,-33" class="g2_157" />
<path d="M142.5,213.5l0,-33" class="g2_157" />
<path d="M340.5,213.5l0,-33" class="g2_157" />
<path d="M410.5,213.5l0,-33" class="g2_157" />
<path d="M467.5,213.5l0,-33" class="g2_157" />
<path d="M855.5,213.5l0,-33" class="g2_157" />
<path fill-rule="evenodd" d="M47,286l31,0l0,-73l-31,0l0,73Z" class="g1_157" />
<path fill-rule="evenodd" d="M79,286l31,0l0,-73l-31,0l0,73Z" class="g1_157" />
<path fill-rule="evenodd" d="M111,286l31,0l0,-73l-31,0l0,73Z" class="g1_157" />
<path fill-rule="evenodd" d="M144,286l196,0l0,-72l-196,0l0,72Z" class="g1_157" />
<g clip-path="url(#c12_157)">
<path fill-rule="evenodd" d="M151,238l182,0l0,-24l-182,0l0,24Z" class="g1_157" />
</g>
<path fill-rule="evenodd" d="M342,286l68,0l0,-72l-68,0l0,72Z" class="g1_157" />
<g clip-path="url(#c13_157)">
<path fill-rule="evenodd" d="M349,238l53,0l0,-24l-53,0l0,24Z" class="g1_157" />
</g>
<path fill-rule="evenodd" d="M412,286l55,0l0,-72l-55,0l0,72Z" class="g1_157" />
<g clip-path="url(#c14_157)">
<path fill-rule="evenodd" d="M419,238l41,0l0,-24l-41,0l0,24Z" class="g1_157" />
</g>
<path fill-rule="evenodd" d="M469,286l386,0l0,-72l-386,0l0,72Z" class="g1_157" />
<g clip-path="url(#c15_157)">
<path fill-rule="evenodd" d="M476,238l372,0l0,-24l-372,0l0,24Z" class="g1_157" />
</g>
<path fill-rule="evenodd" d="M476,262l372,0l0,-24l-372,0l0,24Z" class="g1_157" />
<path fill-rule="evenodd" d="M476,286l372,0l0,-24l-372,0l0,24Z" class="g1_157" />
<path d="M46.5,214.5l0,-1" class="g2_157" />
<path d="M78.5,214.5l0,-1" class="g2_157" />
<path d="M110.5,214.5l0,-1" class="g2_157" />
<path d="M142.5,214.5l0,-1" class="g2_157" />
<path d="M144.5,214.5l196,0" class="g2_157" />
<path d="M340.5,214.5l0,-1" class="g2_157" />
<path d="M342.5,214.5l68,0" class="g2_157" />
<path d="M410.5,214.5l0,-1" class="g2_157" />
<path d="M412.5,214.5l55,0" class="g2_157" />
<path d="M467.5,214.5l0,-1" class="g2_157" />
<path d="M469.5,214.5l386,0" class="g2_157" />
<path d="M855.5,214.5l0,-1" class="g2_157" />
<path d="M46.5,286.5l0,-72" class="g2_157" />
<path d="M78.5,286.5l0,-72" class="g2_157" />
<path d="M110.5,286.5l0,-72" class="g2_157" />
<path d="M142.5,286.5l0,-72" class="g2_157" />
<path d="M340.5,286.5l0,-72" class="g2_157" />
<path d="M410.5,286.5l0,-72" class="g2_157" />
<path d="M467.5,286.5l0,-72" class="g2_157" />
<path d="M855.5,286.5l0,-72" class="g2_157" />
<path fill-rule="evenodd" d="M47,359l31,0l0,-73l-31,0l0,73Z" class="g1_157" />
<path fill-rule="evenodd" d="M79,359l31,0l0,-73l-31,0l0,73Z" class="g1_157" />
<path fill-rule="evenodd" d="M111,359l31,0l0,-73l-31,0l0,73Z" class="g1_157" />
<path fill-rule="evenodd" d="M144,359l196,0l0,-72l-196,0l0,72Z" class="g1_157" />
<g clip-path="url(#c16_157)">
<path fill-rule="evenodd" d="M151,311l182,0l0,-24l-182,0l0,24Z" class="g1_157" />
</g>
<path fill-rule="evenodd" d="M342,359l68,0l0,-72l-68,0l0,72Z" class="g1_157" />
<g clip-path="url(#c17_157)">
<path fill-rule="evenodd" d="M349,311l53,0l0,-24l-53,0l0,24Z" class="g1_157" />
</g>
<path fill-rule="evenodd" d="M412,359l55,0l0,-72l-55,0l0,72Z" class="g1_157" />
<g clip-path="url(#c18_157)">
<path fill-rule="evenodd" d="M419,311l41,0l0,-24l-41,0l0,24Z" class="g1_157" />
</g>
<path fill-rule="evenodd" d="M469,359l386,0l0,-72l-386,0l0,72Z" class="g1_157" />
<g clip-path="url(#c19_157)">
<path fill-rule="evenodd" d="M476,311l372,0l0,-24l-372,0l0,24Z" class="g1_157" />
</g>
<path fill-rule="evenodd" d="M476,335l372,0l0,-24l-372,0l0,24Z" class="g1_157" />
<path fill-rule="evenodd" d="M476,359l372,0l0,-24l-372,0l0,24Z" class="g1_157" />
<path d="M46.5,287.5l0,-1" class="g2_157" />
<path d="M78.5,287.5l0,-1" class="g2_157" />
<path d="M110.5,287.5l0,-1" class="g2_157" />
<path d="M142.5,287.5l0,-1" class="g2_157" />
<path d="M144.5,287.5l196,0" class="g2_157" />
<path d="M340.5,287.5l0,-1" class="g2_157" />
<path d="M342.5,287.5l68,0" class="g2_157" />
<path d="M410.5,287.5l0,-1" class="g2_157" />
<path d="M412.5,287.5l55,0" class="g2_157" />
<path d="M467.5,287.5l0,-1" class="g2_157" />
<path d="M469.5,287.5l386,0" class="g2_157" />
<path d="M855.5,287.5l0,-1" class="g2_157" />
<path d="M46.5,359.5l0,-72" class="g2_157" />
<path d="M78.5,359.5l0,-72" class="g2_157" />
<path d="M110.5,359.5l0,-72" class="g2_157" />
<path d="M142.5,359.5l0,-72" class="g2_157" />
<path d="M340.5,359.5l0,-72" class="g2_157" />
<path d="M410.5,359.5l0,-72" class="g2_157" />
<path d="M467.5,359.5l0,-72" class="g2_157" />
<path d="M855.5,359.5l0,-72" class="g2_157" />
<path fill-rule="evenodd" d="M47,432l31,0l0,-73l-31,0l0,73Z" class="g1_157" />
<path fill-rule="evenodd" d="M79,432l31,0l0,-73l-31,0l0,73Z" class="g1_157" />
<path fill-rule="evenodd" d="M111,432l31,0l0,-73l-31,0l0,73Z" class="g1_157" />
<path fill-rule="evenodd" d="M144,432l196,0l0,-72l-196,0l0,72Z" class="g1_157" />
<g clip-path="url(#c20_157)">
<path fill-rule="evenodd" d="M151,384l182,0l0,-24l-182,0l0,24Z" class="g1_157" />
</g>
<path fill-rule="evenodd" d="M342,432l68,0l0,-72l-68,0l0,72Z" class="g1_157" />
<g clip-path="url(#c21_157)">
<path fill-rule="evenodd" d="M349,384l53,0l0,-24l-53,0l0,24Z" class="g1_157" />
</g>
<path fill-rule="evenodd" d="M412,432l55,0l0,-72l-55,0l0,72Z" class="g1_157" />
<g clip-path="url(#c22_157)">
<path fill-rule="evenodd" d="M419,384l41,0l0,-24l-41,0l0,24Z" class="g1_157" />
</g>
<path fill-rule="evenodd" d="M469,432l386,0l0,-72l-386,0l0,72Z" class="g1_157" />
<g clip-path="url(#c23_157)">
<path fill-rule="evenodd" d="M476,384l372,0l0,-24l-372,0l0,24Z" class="g1_157" />
</g>
<path fill-rule="evenodd" d="M476,408l372,0l0,-24l-372,0l0,24Z" class="g1_157" />
<path fill-rule="evenodd" d="M476,432l372,0l0,-24l-372,0l0,24Z" class="g1_157" />
<path d="M46.5,360.5l0,-1" class="g2_157" />
<path d="M78.5,360.5l0,-1" class="g2_157" />
<path d="M110.5,360.5l0,-1" class="g2_157" />
<path d="M142.5,360.5l0,-1" class="g2_157" />
<path d="M144.5,360.5l196,0" class="g2_157" />
<path d="M340.5,360.5l0,-1" class="g2_157" />
<path d="M342.5,360.5l68,0" class="g2_157" />
<path d="M410.5,360.5l0,-1" class="g2_157" />
<path d="M412.5,360.5l55,0" class="g2_157" />
<path d="M467.5,360.5l0,-1" class="g2_157" />
<path d="M469.5,360.5l386,0" class="g2_157" />
<path d="M855.5,360.5l0,-1" class="g2_157" />
<path d="M46.5,432.5l0,-72" class="g2_157" />
<path d="M78.5,432.5l0,-72" class="g2_157" />
<path d="M110.5,432.5l0,-72" class="g2_157" />
<path d="M142.5,432.5l0,-72" class="g2_157" />
<path d="M340.5,432.5l0,-72" class="g2_157" />
<path d="M410.5,432.5l0,-72" class="g2_157" />
<path d="M467.5,432.5l0,-72" class="g2_157" />
<path d="M855.5,432.5l0,-72" class="g2_157" />
<path fill-rule="evenodd" d="M47,505l31,0l0,-73l-31,0l0,73Z" class="g1_157" />
<path fill-rule="evenodd" d="M79,505l31,0l0,-73l-31,0l0,73Z" class="g1_157" />
<path fill-rule="evenodd" d="M111,505l31,0l0,-73l-31,0l0,73Z" class="g1_157" />
<path fill-rule="evenodd" d="M144,505l196,0l0,-72l-196,0l0,72Z" class="g1_157" />
<path fill-rule="evenodd" d="M151,457l182,0l0,-24l-182,0l0,24Z" class="g1_157" />
<path fill-rule="evenodd" d="M342,505l68,0l0,-72l-68,0l0,72Z" class="g1_157" />
<path fill-rule="evenodd" d="M349,457l53,0l0,-24l-53,0l0,24Z" class="g1_157" />
<path fill-rule="evenodd" d="M412,505l55,0l0,-72l-55,0l0,72Z" class="g1_157" />
<path fill-rule="evenodd" d="M419,457l41,0l0,-24l-41,0l0,24Z" class="g1_157" />
<path fill-rule="evenodd" d="M469,505l386,0l0,-72l-386,0l0,72Z" class="g1_157" />
<path fill-rule="evenodd" d="M476,457l372,0l0,-24l-372,0l0,24Z" class="g1_157" />
<path fill-rule="evenodd" d="M476,481l372,0l0,-24l-372,0l0,24Z" class="g1_157" />
<path fill-rule="evenodd" d="M476,505l372,0l0,-24l-372,0l0,24Z" class="g1_157" />
<path d="M46.5,433.5l0,-1" class="g2_157" />
<path d="M78.5,433.5l0,-1" class="g2_157" />
<path d="M110.5,433.5l0,-1" class="g2_157" />
<path d="M142.5,433.5l0,-1" class="g2_157" />
<path d="M144.5,433.5l196,0" class="g2_157" />
<path d="M340.5,433.5l0,-1" class="g2_157" />
<path d="M342.5,433.5l68,0" class="g2_157" />
<path d="M410.5,433.5l0,-1" class="g2_157" />
<path d="M412.5,433.5l55,0" class="g2_157" />
<path d="M467.5,433.5l0,-1" class="g2_157" />
<path d="M469.5,433.5l386,0" class="g2_157" />
<path d="M855.5,433.5l0,-1" class="g2_157" />
<path d="M46.5,505.5l0,-72" class="g2_157" />
<path d="M78.5,505.5l0,-72" class="g2_157" />
<path d="M110.5,505.5l0,-72" class="g2_157" />
<path d="M142.5,505.5l0,-72" class="g2_157" />
<path d="M340.5,505.5l0,-72" class="g2_157" />
<path d="M410.5,505.5l0,-72" class="g2_157" />
<path d="M467.5,505.5l0,-72" class="g2_157" />
<path d="M855.5,505.5l0,-72" class="g2_157" />
<path fill-rule="evenodd" d="M47,578l31,0l0,-73l-31,0l0,73Z" class="g1_157" />
<path fill-rule="evenodd" d="M79,578l31,0l0,-73l-31,0l0,73Z" class="g1_157" />
<path fill-rule="evenodd" d="M111,578l31,0l0,-73l-31,0l0,73Z" class="g1_157" />
<path fill-rule="evenodd" d="M144,578l196,0l0,-72l-196,0l0,72Z" class="g1_157" />
<g clip-path="url(#c24_157)">
<path fill-rule="evenodd" d="M151,530l182,0l0,-24l-182,0l0,24Z" class="g1_157" />
</g>
<path fill-rule="evenodd" d="M342,578l68,0l0,-72l-68,0l0,72Z" class="g1_157" />
<g clip-path="url(#c25_157)">
<path fill-rule="evenodd" d="M349,530l53,0l0,-24l-53,0l0,24Z" class="g1_157" />
</g>
<path fill-rule="evenodd" d="M412,578l55,0l0,-72l-55,0l0,72Z" class="g1_157" />
<g clip-path="url(#c26_157)">
<path fill-rule="evenodd" d="M419,530l41,0l0,-24l-41,0l0,24Z" class="g1_157" />
</g>
<path fill-rule="evenodd" d="M469,578l386,0l0,-72l-386,0l0,72Z" class="g1_157" />
<g clip-path="url(#c27_157)">
<path fill-rule="evenodd" d="M476,530l372,0l0,-24l-372,0l0,24Z" class="g1_157" />
</g>
<path fill-rule="evenodd" d="M476,554l372,0l0,-24l-372,0l0,24Z" class="g1_157" />
<path fill-rule="evenodd" d="M476,578l372,0l0,-24l-372,0l0,24Z" class="g1_157" />
<path d="M46.5,506.5l0,-1" class="g2_157" />
<path d="M78.5,506.5l0,-1" class="g2_157" />
<path d="M110.5,506.5l0,-1" class="g2_157" />
<path d="M142.5,506.5l0,-1" class="g2_157" />
<path d="M144.5,506.5l196,0" class="g2_157" />
<path d="M340.5,506.5l0,-1" class="g2_157" />
<path d="M342.5,506.5l68,0" class="g2_157" />
<path d="M410.5,506.5l0,-1" class="g2_157" />
<path d="M412.5,506.5l55,0" class="g2_157" />
<path d="M467.5,506.5l0,-1" class="g2_157" />
<path d="M469.5,506.5l386,0" class="g2_157" />
<path d="M855.5,506.5l0,-1" class="g2_157" />
<path d="M46.5,578.5l0,-72" class="g2_157" />
<path d="M78.5,578.5l0,-72" class="g2_157" />
<path d="M110.5,578.5l0,-72" class="g2_157" />
<path d="M142.5,578.5l0,-72" class="g2_157" />
<path d="M340.5,578.5l0,-72" class="g2_157" />
<path d="M410.5,578.5l0,-72" class="g2_157" />
<path d="M467.5,578.5l0,-72" class="g2_157" />
<path d="M855.5,578.5l0,-72" class="g2_157" />
<path fill-rule="evenodd" d="M47,675l31,0l0,-97l-31,0l0,97Z" class="g1_157" />
<path fill-rule="evenodd" d="M79,675l31,0l0,-97l-31,0l0,97Z" class="g1_157" />
<path fill-rule="evenodd" d="M111,675l31,0l0,-97l-31,0l0,97Z" class="g1_157" />
<path fill-rule="evenodd" d="M144,675l196,0l0,-96l-196,0l0,96Z" class="g1_157" />
<g clip-path="url(#c28_157)">
<path fill-rule="evenodd" d="M151,603l182,0l0,-24l-182,0l0,24Z" class="g1_157" />
</g>
<path fill-rule="evenodd" d="M342,675l68,0l0,-96l-68,0l0,96Z" class="g1_157" />
<g clip-path="url(#c29_157)">
<path fill-rule="evenodd" d="M349,603l53,0l0,-24l-53,0l0,24Z" class="g1_157" />
</g>
<path fill-rule="evenodd" d="M412,675l55,0l0,-96l-55,0l0,96Z" class="g1_157" />
<g clip-path="url(#c30_157)">
<path fill-rule="evenodd" d="M419,603l41,0l0,-24l-41,0l0,24Z" class="g1_157" />
</g>
<path fill-rule="evenodd" d="M469,675l386,0l0,-96l-386,0l0,96Z" class="g1_157" />
<g clip-path="url(#c31_157)">
<path fill-rule="evenodd" d="M476,603l372,0l0,-24l-372,0l0,24Z" class="g1_157" />
</g>
<path fill-rule="evenodd" d="M476,627l372,0l0,-24l-372,0l0,24Z" class="g1_157" />
<path fill-rule="evenodd" d="M476,651l372,0l0,-24l-372,0l0,24Z" class="g1_157" />
<path fill-rule="evenodd" d="M476,675l372,0l0,-24l-372,0l0,24Z" class="g1_157" />
<path d="M46.5,579.5l0,-1" class="g2_157" />
<path d="M78.5,579.5l0,-1" class="g2_157" />
<path d="M110.5,579.5l0,-1" class="g2_157" />
<path d="M142.5,579.5l0,-1" class="g2_157" />
<path d="M144.5,579.5l196,0" class="g2_157" />
<path d="M340.5,579.5l0,-1" class="g2_157" />
<path d="M342.5,579.5l68,0" class="g2_157" />
<path d="M410.5,579.5l0,-1" class="g2_157" />
<path d="M412.5,579.5l55,0" class="g2_157" />
<path d="M467.5,579.5l0,-1" class="g2_157" />
<path d="M469.5,579.5l386,0" class="g2_157" />
<path d="M855.5,579.5l0,-1" class="g2_157" />
<path d="M46.5,675.5l0,-96" class="g2_157" />
<path d="M78.5,675.5l0,-96" class="g2_157" />
<path d="M110.5,675.5l0,-96" class="g2_157" />
<path d="M142.5,675.5l0,-96" class="g2_157" />
<path d="M340.5,675.5l0,-96" class="g2_157" />
<path d="M410.5,675.5l0,-96" class="g2_157" />
<path d="M467.5,675.5l0,-96" class="g2_157" />
<path d="M855.5,675.5l0,-96" class="g2_157" />
<path fill-rule="evenodd" d="M47,738l31,0l0,-63l-31,0l0,63Z" class="g1_157" />
<path fill-rule="evenodd" d="M79,738l31,0l0,-63l-31,0l0,63Z" class="g1_157" />
<path fill-rule="evenodd" d="M111,738l31,0l0,-63l-31,0l0,63Z" class="g1_157" />
<path fill-rule="evenodd" d="M144,1036l30,0l0,-360l-30,0l0,360Z" class="g1_157" />
<g clip-path="url(#c32_157)">
<path fill-rule="evenodd" d="M151,1036l23,0l0,-360l-23,0l0,360Z" class="g1_157" />
</g>
<path fill-rule="evenodd" d="M176,1036l30,0l0,-360l-30,0l0,360Z" class="g1_157" />
<g clip-path="url(#c33_157)">
<path fill-rule="evenodd" d="M183,1036l23,0l0,-360l-23,0l0,360Z" class="g1_157" />
</g>
<path fill-rule="evenodd" d="M208,738l132,0l0,-62l-132,0l0,62Z" class="g1_157" />
<g clip-path="url(#c34_157)">
<path fill-rule="evenodd" d="M215,700l118,0l0,-24l-118,0l0,24Z" class="g1_157" />
</g>
<path fill-rule="evenodd" d="M342,738l68,0l0,-62l-68,0l0,62Z" class="g1_157" />
<g clip-path="url(#c35_157)">
<path fill-rule="evenodd" d="M349,700l53,0l0,-24l-53,0l0,24Z" class="g1_157" />
</g>
<path fill-rule="evenodd" d="M412,738l55,0l0,-62l-55,0l0,62Z" class="g1_157" />
<g clip-path="url(#c36_157)">
<path fill-rule="evenodd" d="M419,700l41,0l0,-24l-41,0l0,24Z" class="g1_157" />
</g>
<path fill-rule="evenodd" d="M419,724l41,0l0,-24l-41,0l0,24Z" class="g1_157" />
<path fill-rule="evenodd" d="M469,738l386,0l0,-62l-386,0l0,62Z" class="g1_157" />
<g clip-path="url(#c37_157)">
<path fill-rule="evenodd" d="M476,700l372,0l0,-24l-372,0l0,24Z" class="g1_157" />
</g>
<path fill-rule="evenodd" d="M476,724l372,0l0,-24l-372,0l0,24Z" class="g1_157" />
<path d="M502.5,720.5l239,0" class="g3_157" />
<path d="M46.5,676.5l0,-1" class="g2_157" />
<path d="M78.5,676.5l0,-1" class="g2_157" />
<path d="M110.5,676.5l0,-1" class="g2_157" />
<path d="M142.5,676.5l0,-1" class="g2_157" />
<path d="M144.5,676.5l30,0" class="g2_157" />
<path d="M174.5,676.5l0,-1" class="g2_157" />
<path d="M176.5,676.5l30,0" class="g2_157" />
<path d="M206.5,676.5l0,-1" class="g2_157" />
<path d="M208.5,676.5l132,0" class="g2_157" />
<path d="M340.5,676.5l0,-1" class="g2_157" />
<path d="M342.5,676.5l68,0" class="g2_157" />
<path d="M410.5,676.5l0,-1" class="g2_157" />
<path d="M412.5,676.5l55,0" class="g2_157" />
<path d="M467.5,676.5l0,-1" class="g2_157" />
<path d="M469.5,676.5l386,0" class="g2_157" />
<path d="M855.5,676.5l0,-1" class="g2_157" />
<path d="M46.5,738.5l0,-62" class="g2_157" />
<path d="M78.5,738.5l0,-62" class="g2_157" />
<path d="M110.5,738.5l0,-62" class="g2_157" />
<path d="M142.5,738.5l0,-62" class="g2_157" />
<path d="M174.5,738.5l0,-62" class="g2_157" />
<path d="M206.5,738.5l0,-62" class="g2_157" />
<path d="M340.5,738.5l0,-62" class="g2_157" />
<path d="M410.5,738.5l0,-62" class="g2_157" />
<path d="M467.5,738.5l0,-62" class="g2_157" />
<path d="M855.5,738.5l0,-62" class="g2_157" />
<path fill-rule="evenodd" d="M47,807l31,0l0,-69l-31,0l0,69Z" class="g1_157" />
<path fill-rule="evenodd" d="M79,807l31,0l0,-69l-31,0l0,69Z" class="g1_157" />
<path fill-rule="evenodd" d="M111,807l31,0l0,-69l-31,0l0,69Z" class="g1_157" />
<path fill-rule="evenodd" d="M208,807l132,0l0,-67l-132,0l0,67Z" class="g1_157" />
<g clip-path="url(#c38_157)">
<path fill-rule="evenodd" d="M215,763l118,0l0,-23l-118,0l0,23Z" class="g1_157" />
</g>
<path fill-rule="evenodd" d="M342,807l68,0l0,-67l-68,0l0,67Z" class="g1_157" />
<g clip-path="url(#c39_157)">
<path fill-rule="evenodd" d="M349,763l53,0l0,-23l-53,0l0,23Z" class="g1_157" />
</g>
<path fill-rule="evenodd" d="M412,807l55,0l0,-67l-55,0l0,67Z" class="g1_157" />
<g clip-path="url(#c40_157)">
<path fill-rule="evenodd" d="M419,763l41,0l0,-23l-41,0l0,23Z" class="g1_157" />
</g>
<path fill-rule="evenodd" d="M419,787l41,0l0,-24l-41,0l0,24Z" class="g1_157" />
<path fill-rule="evenodd" d="M469,807l386,0l0,-67l-386,0l0,67Z" class="g1_157" />
<g clip-path="url(#c41_157)">
<path fill-rule="evenodd" d="M476,763l372,0l0,-23l-372,0l0,23Z" class="g1_157" />
</g>
<path fill-rule="evenodd" d="M476,787l372,0l0,-24l-372,0l0,24Z" class="g1_157" />
<path d="M502.5,783.5l239,0" class="g3_157" />
<path d="M46.5,739.5l0,-1" class="g2_157" />
<path d="M78.5,739.5l0,-1" class="g2_157" />
<path d="M110.5,739.5l0,-1" class="g2_157" />
<path d="M142.5,739.5l0,-1" class="g2_157" />
<path d="M174.5,739.5l0,-1" class="g2_157" />
<path d="M206.5,739.5l0,-1" class="g2_157" />
<path d="M208.5,739.5l132,0" class="g2_157" />
<path d="M340.5,739.5l0,-1" class="g2_157" />
<path d="M342.5,739.5l68,0" class="g2_157" />
<path d="M410.5,739.5l0,-1" class="g2_157" />
<path d="M412.5,739.5l55,0" class="g2_157" />
<path d="M467.5,739.5l0,-1" class="g2_157" />
<path d="M469.5,739.5l386,0" class="g2_157" />
<path d="M855.5,739.5l0,-1" class="g2_157" />
<path d="M46.5,807.5l0,-68" class="g2_157" />
<path d="M78.5,807.5l0,-68" class="g2_157" />
<path d="M110.5,807.5l0,-68" class="g2_157" />
<path d="M142.5,807.5l0,-68" class="g2_157" />
<path d="M174.5,807.5l0,-68" class="g2_157" />
<path d="M206.5,807.5l0,-68" class="g2_157" />
<path d="M340.5,807.5l0,-68" class="g2_157" />
<path d="M410.5,807.5l0,-68" class="g2_157" />
<path d="M467.5,807.5l0,-68" class="g2_157" />
<path d="M855.5,807.5l0,-68" class="g2_157" />
<path fill-rule="evenodd" d="M47,869l31,0l0,-62l-31,0l0,62Z" class="g1_157" />
<path fill-rule="evenodd" d="M79,869l31,0l0,-62l-31,0l0,62Z" class="g1_157" />
<path fill-rule="evenodd" d="M111,869l31,0l0,-62l-31,0l0,62Z" class="g1_157" />
<path fill-rule="evenodd" d="M208,869l132,0l0,-61l-132,0l0,61Z" class="g1_157" />
<g clip-path="url(#c42_157)">
<path fill-rule="evenodd" d="M215,832l118,0l0,-24l-118,0l0,24Z" class="g1_157" />
</g>
<path fill-rule="evenodd" d="M342,869l68,0l0,-61l-68,0l0,61Z" class="g1_157" />
<g clip-path="url(#c43_157)">
<path fill-rule="evenodd" d="M349,832l53,0l0,-24l-53,0l0,24Z" class="g1_157" />
</g>
<path fill-rule="evenodd" d="M412,869l55,0l0,-61l-55,0l0,61Z" class="g1_157" />
<g clip-path="url(#c44_157)">
<path fill-rule="evenodd" d="M419,832l41,0l0,-24l-41,0l0,24Z" class="g1_157" />
</g>
<path fill-rule="evenodd" d="M419,856l41,0l0,-24l-41,0l0,24Z" class="g1_157" />
<path fill-rule="evenodd" d="M469,869l386,0l0,-61l-386,0l0,61Z" class="g1_157" />
<g clip-path="url(#c45_157)">
<path fill-rule="evenodd" d="M476,832l372,0l0,-24l-372,0l0,24Z" class="g1_157" />
</g>
<path fill-rule="evenodd" d="M476,856l372,0l0,-24l-372,0l0,24Z" class="g1_157" />
<path d="M502.5,852.5l239,0" class="g3_157" />
<path d="M46.5,808.5l0,-1" class="g2_157" />
<path d="M78.5,808.5l0,-1" class="g2_157" />
<path d="M110.5,808.5l0,-1" class="g2_157" />
<path d="M142.5,808.5l0,-1" class="g2_157" />
<path d="M174.5,808.5l0,-1" class="g2_157" />
<path d="M206.5,808.5l0,-1" class="g2_157" />
<path d="M208.5,808.5l132,0" class="g2_157" />
<path d="M340.5,808.5l0,-1" class="g2_157" />
<path d="M342.5,808.5l68,0" class="g2_157" />
<path d="M410.5,808.5l0,-1" class="g2_157" />
<path d="M412.5,808.5l55,0" class="g2_157" />
<path d="M467.5,808.5l0,-1" class="g2_157" />
<path d="M469.5,808.5l386,0" class="g2_157" />
<path d="M855.5,808.5l0,-1" class="g2_157" />
<path d="M46.5,869.5l0,-61" class="g2_157" />
<path d="M78.5,869.5l0,-61" class="g2_157" />
<path d="M110.5,869.5l0,-61" class="g2_157" />
<path d="M142.5,869.5l0,-61" class="g2_157" />
<path d="M174.5,869.5l0,-61" class="g2_157" />
<path d="M206.5,869.5l0,-61" class="g2_157" />
<path d="M340.5,869.5l0,-61" class="g2_157" />
<path d="M410.5,869.5l0,-61" class="g2_157" />
<path d="M467.5,869.5l0,-61" class="g2_157" />
<path d="M855.5,869.5l0,-61" class="g2_157" />
<path fill-rule="evenodd" d="M47,933l31,0l0,-64l-31,0l0,64Z" class="g1_157" />
<path fill-rule="evenodd" d="M79,933l31,0l0,-64l-31,0l0,64Z" class="g1_157" />
<path fill-rule="evenodd" d="M111,933l31,0l0,-64l-31,0l0,64Z" class="g1_157" />
<path fill-rule="evenodd" d="M208,933l132,0l0,-63l-132,0l0,63Z" class="g1_157" />
<g clip-path="url(#c46_157)">
<path fill-rule="evenodd" d="M215,894l118,0l0,-24l-118,0l0,24Z" class="g1_157" />
</g>
<path fill-rule="evenodd" d="M342,933l68,0l0,-63l-68,0l0,63Z" class="g1_157" />
<g clip-path="url(#c47_157)">
<path fill-rule="evenodd" d="M349,894l53,0l0,-24l-53,0l0,24Z" class="g1_157" />
</g>
<path fill-rule="evenodd" d="M412,933l55,0l0,-63l-55,0l0,63Z" class="g1_157" />
<g clip-path="url(#c48_157)">
<path fill-rule="evenodd" d="M419,894l41,0l0,-24l-41,0l0,24Z" class="g1_157" />
</g>
<path fill-rule="evenodd" d="M419,918l41,0l0,-24l-41,0l0,24Z" class="g1_157" />
<path fill-rule="evenodd" d="M469,933l386,0l0,-63l-386,0l0,63Z" class="g1_157" />
<g clip-path="url(#c49_157)">
<path fill-rule="evenodd" d="M476,894l372,0l0,-24l-372,0l0,24Z" class="g1_157" />
</g>
<path fill-rule="evenodd" d="M476,918l372,0l0,-24l-372,0l0,24Z" class="g1_157" />
<path d="M502.5,914.5l239,0" class="g3_157" />
<path d="M46.5,870.5l0,-1" class="g2_157" />
<path d="M78.5,870.5l0,-1" class="g2_157" />
<path d="M110.5,870.5l0,-1" class="g2_157" />
<path d="M142.5,870.5l0,-1" class="g2_157" />
<path d="M174.5,870.5l0,-1" class="g2_157" />
<path d="M206.5,870.5l0,-1" class="g2_157" />
<path d="M208.5,870.5l132,0" class="g2_157" />
<path d="M340.5,870.5l0,-1" class="g2_157" />
<path d="M342.5,870.5l68,0" class="g2_157" />
<path d="M410.5,870.5l0,-1" class="g2_157" />
<path d="M412.5,870.5l55,0" class="g2_157" />
<path d="M467.5,870.5l0,-1" class="g2_157" />
<path d="M469.5,870.5l386,0" class="g2_157" />
<path d="M855.5,870.5l0,-1" class="g2_157" />
<path d="M46.5,933.5l0,-63" class="g2_157" />
<path d="M78.5,933.5l0,-63" class="g2_157" />
<path d="M110.5,933.5l0,-63" class="g2_157" />
<path d="M142.5,933.5l0,-63" class="g2_157" />
<path d="M174.5,933.5l0,-63" class="g2_157" />
<path d="M206.5,933.5l0,-63" class="g2_157" />
<path d="M340.5,933.5l0,-63" class="g2_157" />
<path d="M410.5,933.5l0,-63" class="g2_157" />
<path d="M467.5,933.5l0,-63" class="g2_157" />
<path d="M855.5,933.5l0,-63" class="g2_157" />
<path fill-rule="evenodd" d="M47,994l31,0l0,-61l-31,0l0,61Z" class="g1_157" />
<path fill-rule="evenodd" d="M79,994l31,0l0,-61l-31,0l0,61Z" class="g1_157" />
<path fill-rule="evenodd" d="M111,994l31,0l0,-61l-31,0l0,61Z" class="g1_157" />
<path fill-rule="evenodd" d="M208,1036l28,0l0,-102l-28,0l0,102Z" class="g1_157" />
<g clip-path="url(#c50_157)">
<path fill-rule="evenodd" d="M215,1036l21,0l0,-102l-21,0l0,102Z" class="g1_157" />
</g>
<path fill-rule="evenodd" d="M237,1036l29,0l0,-102l-29,0l0,102Z" class="g1_157" />
<g clip-path="url(#c51_157)">
<path fill-rule="evenodd" d="M245,1036l21,0l0,-102l-21,0l0,102Z" class="g1_157" />
</g>
<path fill-rule="evenodd" d="M267,994l73,0l0,-60l-73,0l0,60Z" class="g1_157" />
<path fill-rule="evenodd" d="M275,958l58,0l0,-24l-58,0l0,24Z" class="g1_157" />
<path fill-rule="evenodd" d="M275,982l58,0l0,-24l-58,0l0,24Z" class="g1_157" />
<path fill-rule="evenodd" d="M342,994l68,0l0,-60l-68,0l0,60Z" class="g1_157" />
<path fill-rule="evenodd" d="M349,958l53,0l0,-24l-53,0l0,24Z" class="g1_157" />
<path fill-rule="evenodd" d="M412,994l55,0l0,-60l-55,0l0,60Z" class="g1_157" />
<path fill-rule="evenodd" d="M419,958l41,0l0,-24l-41,0l0,24Z" class="g1_157" />
<path fill-rule="evenodd" d="M469,994l386,0l0,-60l-386,0l0,60Z" class="g1_157" />
<path fill-rule="evenodd" d="M476,958l372,0l0,-24l-372,0l0,24Z" class="g1_157" />
<path d="M46.5,934.5l0,-1" class="g2_157" />
<path d="M78.5,934.5l0,-1" class="g2_157" />
<path d="M110.5,934.5l0,-1" class="g2_157" />
<path d="M142.5,934.5l0,-1" class="g2_157" />
<path d="M174.5,934.5l0,-1" class="g2_157" />
<path d="M206.5,934.5l0,-1" class="g2_157" />
<path d="M208.5,934.5l28,0" class="g2_157" />
<path d="M236.5,934.5l0,-1" class="g2_157" />
<path d="M237.5,934.5l29,0" class="g2_157" />
<path d="M266.5,934.5l0,-1" class="g2_157" />
<path d="M267.5,934.5l73,0" class="g2_157" />
<path d="M340.5,934.5l0,-1" class="g2_157" />
<path d="M342.5,934.5l68,0" class="g2_157" />
<path d="M410.5,934.5l0,-1" class="g2_157" />
<path d="M412.5,934.5l55,0" class="g2_157" />
<path d="M467.5,934.5l0,-1" class="g2_157" />
<path d="M469.5,934.5l386,0" class="g2_157" />
<path d="M855.5,934.5l0,-1" class="g2_157" />
<path d="M46.5,994.5l0,-60" class="g2_157" />
<path d="M78.5,994.5l0,-60" class="g2_157" />
<path d="M110.5,994.5l0,-60" class="g2_157" />
<path d="M142.5,994.5l0,-60" class="g2_157" />
<path d="M174.5,994.5l0,-60" class="g2_157" />
<path d="M206.5,994.5l0,-60" class="g2_157" />
<path d="M236.5,994.5l0,-60" class="g2_157" />
<path d="M266.5,994.5l0,-60" class="g2_157" />
<path d="M340.5,994.5l0,-60" class="g2_157" />
<path d="M410.5,994.5l0,-60" class="g2_157" />
<path d="M467.5,994.5l0,-60" class="g2_157" />
<path d="M855.5,994.5l0,-60" class="g2_157" />
<path fill-rule="evenodd" d="M47,1036l31,0l0,-41l-31,0l0,41Z" class="g1_157" />
<path fill-rule="evenodd" d="M79,1036l31,0l0,-41l-31,0l0,41Z" class="g1_157" />
<path fill-rule="evenodd" d="M111,1036l31,0l0,-41l-31,0l0,41Z" class="g1_157" />
<path fill-rule="evenodd" d="M267,1036l73,0l0,-40l-73,0l0,40Z" class="g1_157" />
<path fill-rule="evenodd" d="M275,1020l58,0l0,-24l-58,0l0,24Z" class="g1_157" />
<path fill-rule="evenodd" d="M342,1036l68,0l0,-40l-68,0l0,40Z" class="g1_157" />
<path fill-rule="evenodd" d="M349,1020l53,0l0,-24l-53,0l0,24Z" class="g1_157" />
<path fill-rule="evenodd" d="M412,1036l55,0l0,-40l-55,0l0,40Z" class="g1_157" />
<path fill-rule="evenodd" d="M419,1020l41,0l0,-24l-41,0l0,24Z" class="g1_157" />
<path fill-rule="evenodd" d="M469,1036l386,0l0,-40l-386,0l0,40Z" class="g1_157" />
<path fill-rule="evenodd" d="M476,1020l372,0l0,-24l-372,0l0,24Z" class="g1_157" />
<path d="M46.5,996.5l0,-2" class="g2_157" />
<path d="M78.5,996.5l0,-2" class="g2_157" />
<path d="M110.5,996.5l0,-2" class="g2_157" />
<path d="M142.5,996.5l0,-2" class="g2_157" />
<path d="M174.5,996.5l0,-2" class="g2_157" />
<path d="M206.5,996.5l0,-2" class="g2_157" />
<path d="M236.5,996.5l0,-2" class="g2_157" />
<path d="M266.5,996.5l0,-2" class="g2_157" />
<path d="M267.5,996.5l73,0" class="g2_157" />
<path d="M340.5,996.5l0,-2" class="g2_157" />
<path d="M342.5,996.5l68,0" class="g2_157" />
<path d="M410.5,996.5l0,-2" class="g2_157" />
<path d="M412.5,996.5l55,0" class="g2_157" />
<path d="M467.5,996.5l0,-2" class="g2_157" />
<path d="M469.5,996.5l386,0" class="g2_157" />
<path d="M855.5,996.5l0,-2" class="g2_157" />
<path d="M46.5,1036.5l0,-40" class="g2_157" />
<path d="M46.5,1037.5l0,-1" class="g2_157" />
<path d="M46.5,1037.5l0,-1" class="g2_157" />
<path d="M47.5,1037.5l31,0" class="g2_157" />
<path d="M78.5,1036.5l0,-40" class="g2_157" />
<path d="M78.5,1037.5l0,-1" class="g2_157" />
<path d="M79.5,1037.5l31,0" class="g2_157" />
<path d="M110.5,1036.5l0,-40" class="g2_157" />
<path d="M110.5,1037.5l0,-1" class="g2_157" />
<path d="M111.5,1037.5l31,0" class="g2_157" />
<path d="M142.5,1036.5l0,-40" class="g2_157" />
<path d="M142.5,1037.5l0,-1" class="g2_157" />
<path d="M144.5,1037.5l30,0" class="g2_157" />
<path d="M174.5,1036.5l0,-40" class="g2_157" />
<path d="M174.5,1037.5l0,-1" class="g2_157" />
<path d="M176.5,1037.5l30,0" class="g2_157" />
<path d="M206.5,1036.5l0,-40" class="g2_157" />
<path d="M206.5,1037.5l0,-1" class="g2_157" />
<path d="M208.5,1037.5l28,0" class="g2_157" />
<path d="M236.5,1036.5l0,-40" class="g2_157" />
<path d="M236.5,1037.5l0,-1" class="g2_157" />
<path d="M237.5,1037.5l29,0" class="g2_157" />
<path d="M266.5,1036.5l0,-40" class="g2_157" />
<path d="M266.5,1037.5l0,-1" class="g2_157" />
<path d="M267.5,1037.5l73,0" class="g2_157" />
<path d="M340.5,1036.5l0,-40" class="g2_157" />
<path d="M340.5,1037.5l0,-1" class="g2_157" />
<path d="M342.5,1037.5l68,0" class="g2_157" />
<path d="M410.5,1036.5l0,-40" class="g2_157" />
<path d="M410.5,1037.5l0,-1" class="g2_157" />
<path d="M412.5,1037.5l55,0" class="g2_157" />
<path d="M467.5,1036.5l0,-40" class="g2_157" />
<path d="M467.5,1037.5l0,-1" class="g2_157" />
<path d="M469.5,1037.5l386,0" class="g2_157" />
<path d="M855.5,1036.5l0,-40" class="g2_157" />
<path d="M855.5,1037.5l0,-1" class="g2_157" />
<path d="M855.5,1037.5l0,-1" class="g2_157" />
</svg>