<?xml version="1.0" encoding="UTF-8" standalone="no"?>
<!DOCTYPE svg PUBLIC "-//W3C//DTD SVG 1.1//EN"
"http://www.w3.org/Graphics/SVG/1.1/DTD/svg11.dtd">
<svg version="1.1" xmlns="http://www.w3.org/2000/svg" xmlns:xlink="http://www.w3.org/1999/xlink">
<defs>
<clipPath id="c0_126"><path d="M47.5,135.5l0,-24l178,0l0,24Z" /></clipPath>
<clipPath id="c1_126"><path d="M226.5,135.5l0,-24l163,0l0,24Z" /></clipPath>
<clipPath id="c2_126"><path d="M390.5,135.5l0,-24l497,0l0,24Z" /></clipPath>
<clipPath id="c3_126"><path d="M47.5,160.5l0,-24l178,0l0,24Z" /></clipPath>
<clipPath id="c4_126"><path d="M226.5,160.5l0,-24l163,0l0,24Z" /></clipPath>
<clipPath id="c5_126"><path d="M390.5,160.5l0,-24l497,0l0,24Z" /></clipPath>
<clipPath id="c6_126"><path d="M47.5,235.5l0,-24l177,0l0,24Z" /></clipPath>
<clipPath id="c7_126"><path d="M226.5,235.5l0,-24l162,0l0,24Z" /></clipPath>
<clipPath id="c8_126"><path d="M390.5,235.5l0,-24l163,0l0,24Z" /></clipPath>
<clipPath id="c9_126"><path d="M554.5,235.5l0,-24l163,0l0,24Z" /></clipPath>
<clipPath id="c10_126"><path d="M719.5,235.5l0,-24l168,0l0,24Z" /></clipPath>
<clipPath id="c11_126"><path d="M47.5,260.5l0,-24l177,0l0,24Z" /></clipPath>
<clipPath id="c12_126"><path d="M226.5,260.5l0,-24l162,0l0,24Z" /></clipPath>
<clipPath id="c13_126"><path d="M390.5,260.5l0,-24l163,0l0,24Z" /></clipPath>
<clipPath id="c14_126"><path d="M554.5,260.5l0,-24l163,0l0,24Z" /></clipPath>
<clipPath id="c15_126"><path d="M719.5,260.5l0,-24l168,0l0,24Z" /></clipPath>
<clipPath id="c16_126"><path d="M47.5,372.5l0,-24l342,0l0,24Z" /></clipPath>
<clipPath id="c17_126"><path d="M390.5,372.5l0,-24l81,0l0,24Z" /></clipPath>
<clipPath id="c18_126"><path d="M472.5,372.5l0,-24l60,0l0,24Z" /></clipPath>
<clipPath id="c19_126"><path d="M534.5,372.5l0,-24l353,0l0,24Z" /></clipPath>
<clipPath id="c20_126"><path d="M88.5,422.5l0,-48l301,0l0,48Z" /></clipPath>
<clipPath id="c21_126"><path d="M390.5,422.5l0,-48l81,0l0,48Z" /></clipPath>
<clipPath id="c22_126"><path d="M472.5,422.5l0,-48l60,0l0,48Z" /></clipPath>
<clipPath id="c23_126"><path d="M534.5,422.5l0,-48l353,0l0,48Z" /></clipPath>
<clipPath id="c24_126"><path d="M169.5,604.5l0,-155l220,0l0,155Z" /></clipPath>
<clipPath id="c25_126"><path d="M390.5,604.5l0,-155l81,0l0,155Z" /></clipPath>
<clipPath id="c26_126"><path d="M472.5,604.5l0,-155l60,0l0,155Z" /></clipPath>
<clipPath id="c27_126"><path d="M534.5,604.5l0,-155l353,0l0,155Z" /></clipPath>
<clipPath id="c28_126"><path d="M47.5,726.5l0,-24l840,0l0,24Z" /></clipPath>
<clipPath id="c29_126"><path d="M47.5,1087.5l0,-334l840,0l0,334Z" /></clipPath>
<style type="text/css"><![CDATA[
.g2_126{
fill: none;
stroke: #7E7E7E;
stroke-width: 1;
stroke-linecap: butt;
stroke-linejoin: miter;
}
.g3_126{
fill: #F1F1F1;
}
.g1_126{
fill: #DBE5F1;
}
]]></style>
</defs>
<path fill-rule="evenodd" d="M47,135l178,0l0,-24L47,111l0,24Z" class="g1_126" />
<g clip-path="url(#c0_126)">
<path fill-rule="evenodd" d="M55,135l162,0l0,-24L55,111l0,24Z" class="g1_126" />
</g>
<path fill-rule="evenodd" d="M226,135l163,0l0,-24l-163,0l0,24Z" class="g1_126" />
<g clip-path="url(#c1_126)">
<path fill-rule="evenodd" d="M234,135l147,0l0,-24l-147,0l0,24Z" class="g1_126" />
</g>
<path fill-rule="evenodd" d="M390,135l497,0l0,-24l-497,0l0,24Z" class="g1_126" />
<g clip-path="url(#c2_126)">
<path fill-rule="evenodd" d="M398,135l482,0l0,-24l-482,0l0,24Z" class="g1_126" />
</g>
<path d="M46.5,111.5l0,-1" class="g2_126" />
<path d="M46.5,111.5l0,-1" class="g2_126" />
<path d="M47.5,111.5l178,0" class="g2_126" />
<path d="M225.5,111.5l0,-1" class="g2_126" />
<path d="M226.5,111.5l163,0" class="g2_126" />
<path d="M389.5,111.5l0,-1" class="g2_126" />
<path d="M390.5,111.5l497,0" class="g2_126" />
<path d="M887.5,111.5l0,-1" class="g2_126" />
<path d="M887.5,111.5l0,-1" class="g2_126" />
<path d="M46.5,135.5l0,-24" class="g2_126" />
<path d="M225.5,135.5l0,-24" class="g2_126" />
<path d="M389.5,135.5l0,-24" class="g2_126" />
<path d="M887.5,135.5l0,-24" class="g2_126" />
<path fill-rule="evenodd" d="M47,160l178,0l0,-24L47,136l0,24Z" class="g3_126" />
<g clip-path="url(#c3_126)">
<path fill-rule="evenodd" d="M55,160l162,0l0,-24L55,136l0,24Z" class="g3_126" />
</g>
<path fill-rule="evenodd" d="M226,160l163,0l0,-24l-163,0l0,24Z" class="g3_126" />
<g clip-path="url(#c4_126)">
<path fill-rule="evenodd" d="M234,160l147,0l0,-24l-147,0l0,24Z" class="g3_126" />
</g>
<path fill-rule="evenodd" d="M390,160l497,0l0,-24l-497,0l0,24Z" class="g3_126" />
<g clip-path="url(#c5_126)">
<path fill-rule="evenodd" d="M398,160l482,0l0,-24l-482,0l0,24Z" class="g3_126" />
</g>
<path d="M46.5,136.5l0,-1" class="g2_126" />
<path d="M47.5,136.5l178,0" class="g2_126" />
<path d="M225.5,136.5l0,-1" class="g2_126" />
<path d="M226.5,136.5l163,0" class="g2_126" />
<path d="M389.5,136.5l0,-1" class="g2_126" />
<path d="M390.5,136.5l497,0" class="g2_126" />
<path d="M887.5,136.5l0,-1" class="g2_126" />
<path d="M46.5,160.5l0,-24" class="g2_126" />
<path d="M46.5,162.5l0,-2" class="g2_126" />
<path d="M46.5,162.5l0,-2" class="g2_126" />
<path d="M47.5,162.5l178,0" class="g2_126" />
<path d="M225.5,160.5l0,-24" class="g2_126" />
<path d="M225.5,162.5l0,-2" class="g2_126" />
<path d="M226.5,162.5l163,0" class="g2_126" />
<path d="M389.5,160.5l0,-24" class="g2_126" />
<path d="M389.5,162.5l0,-2" class="g2_126" />
<path d="M390.5,162.5l497,0" class="g2_126" />
<path d="M887.5,160.5l0,-24" class="g2_126" />
<path d="M887.5,162.5l0,-2" class="g2_126" />
<path d="M887.5,162.5l0,-2" class="g2_126" />
<path fill-rule="evenodd" d="M47,235l177,0l0,-24L47,211l0,24Z" class="g1_126" />
<g clip-path="url(#c6_126)">
<path fill-rule="evenodd" d="M55,235l162,0l0,-24L55,211l0,24Z" class="g1_126" />
</g>
<path fill-rule="evenodd" d="M226,235l162,0l0,-24l-162,0l0,24Z" class="g1_126" />
<g clip-path="url(#c7_126)">
<path fill-rule="evenodd" d="M233,235l148,0l0,-24l-148,0l0,24Z" class="g1_126" />
</g>
<path fill-rule="evenodd" d="M390,235l163,0l0,-24l-163,0l0,24Z" class="g1_126" />
<g clip-path="url(#c8_126)">
<path fill-rule="evenodd" d="M397,235l148,0l0,-24l-148,0l0,24Z" class="g1_126" />
</g>
<path fill-rule="evenodd" d="M554,235l163,0l0,-24l-163,0l0,24Z" class="g1_126" />
<g clip-path="url(#c9_126)">
<path fill-rule="evenodd" d="M562,235l148,0l0,-24l-148,0l0,24Z" class="g1_126" />
</g>
<path fill-rule="evenodd" d="M719,235l168,0l0,-24l-168,0l0,24Z" class="g1_126" />
<g clip-path="url(#c10_126)">
<path fill-rule="evenodd" d="M726,235l154,0l0,-24l-154,0l0,24Z" class="g1_126" />
</g>
<path d="M46.5,211.5l0,-2" class="g2_126" />
<path d="M46.5,211.5l0,-2" class="g2_126" />
<path d="M47.5,211.5l177,0" class="g2_126" />
<path d="M224.5,211.5l0,-2" class="g2_126" />
<path d="M226.5,211.5l162,0" class="g2_126" />
<path d="M388.5,211.5l0,-2" class="g2_126" />
<path d="M390.5,211.5l163,0" class="g2_126" />
<path d="M553.5,211.5l0,-2" class="g2_126" />
<path d="M554.5,211.5l163,0" class="g2_126" />
<path d="M717.5,211.5l0,-2" class="g2_126" />
<path d="M719.5,211.5l168,0" class="g2_126" />
<path d="M887.5,211.5l0,-2" class="g2_126" />
<path d="M887.5,211.5l0,-2" class="g2_126" />
<path d="M46.5,235.5l0,-24" class="g2_126" />
<path d="M224.5,235.5l0,-24" class="g2_126" />
<path d="M388.5,235.5l0,-24" class="g2_126" />
<path d="M553.5,235.5l0,-24" class="g2_126" />
<path d="M717.5,235.5l0,-24" class="g2_126" />
<path d="M887.5,235.5l0,-24" class="g2_126" />
<path fill-rule="evenodd" d="M47,260l177,0l0,-24L47,236l0,24Z" class="g3_126" />
<g clip-path="url(#c11_126)">
<path fill-rule="evenodd" d="M55,260l162,0l0,-24L55,236l0,24Z" class="g3_126" />
</g>
<path fill-rule="evenodd" d="M226,260l162,0l0,-24l-162,0l0,24Z" class="g3_126" />
<g clip-path="url(#c12_126)">
<path fill-rule="evenodd" d="M233,260l148,0l0,-24l-148,0l0,24Z" class="g3_126" />
</g>
<path fill-rule="evenodd" d="M390,260l163,0l0,-24l-163,0l0,24Z" class="g3_126" />
<g clip-path="url(#c13_126)">
<path fill-rule="evenodd" d="M397,260l148,0l0,-24l-148,0l0,24Z" class="g3_126" />
</g>
<path fill-rule="evenodd" d="M554,260l163,0l0,-24l-163,0l0,24Z" class="g3_126" />
<g clip-path="url(#c14_126)">
<path fill-rule="evenodd" d="M562,260l148,0l0,-24l-148,0l0,24Z" class="g3_126" />
</g>
<path fill-rule="evenodd" d="M719,260l168,0l0,-24l-168,0l0,24Z" class="g3_126" />
<g clip-path="url(#c15_126)">
<path fill-rule="evenodd" d="M726,260l154,0l0,-24l-154,0l0,24Z" class="g3_126" />
</g>
<path d="M46.5,236.5l0,-1" class="g2_126" />
<path d="M47.5,236.5l177,0" class="g2_126" />
<path d="M224.5,236.5l0,-1" class="g2_126" />
<path d="M226.5,236.5l162,0" class="g2_126" />
<path d="M388.5,236.5l0,-1" class="g2_126" />
<path d="M390.5,236.5l163,0" class="g2_126" />
<path d="M553.5,236.5l0,-1" class="g2_126" />
<path d="M554.5,236.5l163,0" class="g2_126" />
<path d="M717.5,236.5l0,-1" class="g2_126" />
<path d="M719.5,236.5l168,0" class="g2_126" />
<path d="M887.5,236.5l0,-1" class="g2_126" />
<path d="M46.5,260.5l0,-24" class="g2_126" />
<path d="M46.5,262.5l0,-2" class="g2_126" />
<path d="M46.5,262.5l0,-2" class="g2_126" />
<path d="M47.5,262.5l177,0" class="g2_126" />
<path d="M224.5,260.5l0,-24" class="g2_126" />
<path d="M224.5,262.5l0,-2" class="g2_126" />
<path d="M226.5,262.5l162,0" class="g2_126" />
<path d="M388.5,260.5l0,-24" class="g2_126" />
<path d="M388.5,262.5l0,-2" class="g2_126" />
<path d="M390.5,262.5l163,0" class="g2_126" />
<path d="M553.5,260.5l0,-24" class="g2_126" />
<path d="M553.5,262.5l0,-2" class="g2_126" />
<path d="M554.5,262.5l163,0" class="g2_126" />
<path d="M717.5,260.5l0,-24" class="g2_126" />
<path d="M717.5,262.5l0,-2" class="g2_126" />
<path d="M719.5,262.5l168,0" class="g2_126" />
<path d="M887.5,260.5l0,-24" class="g2_126" />
<path d="M887.5,262.5l0,-2" class="g2_126" />
<path d="M887.5,262.5l0,-2" class="g2_126" />
<path fill-rule="evenodd" d="M47,372l342,0l0,-24L47,348l0,24Z" class="g1_126" />
<g clip-path="url(#c16_126)">
<path fill-rule="evenodd" d="M55,372l326,0l0,-24L55,348l0,24Z" class="g1_126" />
</g>
<path fill-rule="evenodd" d="M390,372l81,0l0,-24l-81,0l0,24Z" class="g1_126" />
<g clip-path="url(#c17_126)">
<path fill-rule="evenodd" d="M398,372l65,0l0,-24l-65,0l0,24Z" class="g1_126" />
</g>
<path fill-rule="evenodd" d="M472,372l60,0l0,-24l-60,0l0,24Z" class="g1_126" />
<g clip-path="url(#c18_126)">
<path fill-rule="evenodd" d="M480,372l45,0l0,-24l-45,0l0,24Z" class="g1_126" />
</g>
<path fill-rule="evenodd" d="M534,372l353,0l0,-24l-353,0l0,24Z" class="g1_126" />
<g clip-path="url(#c19_126)">
<path fill-rule="evenodd" d="M541,372l339,0l0,-24l-339,0l0,24Z" class="g1_126" />
</g>
<path d="M46.5,348.5l0,-2" class="g2_126" />
<path d="M46.5,348.5l0,-2" class="g2_126" />
<path d="M47.5,348.5l342,0" class="g2_126" />
<path d="M389.5,348.5l0,-2" class="g2_126" />
<path d="M390.5,348.5l81,0" class="g2_126" />
<path d="M471.5,348.5l0,-2" class="g2_126" />
<path d="M472.5,348.5l60,0" class="g2_126" />
<path d="M532.5,348.5l0,-2" class="g2_126" />
<path d="M534.5,348.5l353,0" class="g2_126" />
<path d="M887.5,348.5l0,-2" class="g2_126" />
<path d="M887.5,348.5l0,-2" class="g2_126" />
<path d="M46.5,372.5l0,-24" class="g2_126" />
<path d="M389.5,372.5l0,-24" class="g2_126" />
<path d="M471.5,372.5l0,-24" class="g2_126" />
<path d="M532.5,372.5l0,-24" class="g2_126" />
<path d="M887.5,372.5l0,-24" class="g2_126" />
<path fill-rule="evenodd" d="M47,604l39,0L86,374l-39,0l0,230Z" class="g3_126" />
<path fill-rule="evenodd" d="M55,604l23,0L78,374l-23,0l0,230Z" class="g3_126" />
<path fill-rule="evenodd" d="M88,422l301,0l0,-48L88,374l0,48Z" class="g3_126" />
<g clip-path="url(#c20_126)">
<path fill-rule="evenodd" d="M95,398l286,0l0,-24L95,374l0,24Z" class="g3_126" />
</g>
<path fill-rule="evenodd" d="M390,422l81,0l0,-48l-81,0l0,48Z" class="g3_126" />
<g clip-path="url(#c21_126)">
<path fill-rule="evenodd" d="M398,398l65,0l0,-24l-65,0l0,24Z" class="g3_126" />
</g>
<path fill-rule="evenodd" d="M472,422l60,0l0,-48l-60,0l0,48Z" class="g3_126" />
<g clip-path="url(#c22_126)">
<path fill-rule="evenodd" d="M480,398l45,0l0,-24l-45,0l0,24Z" class="g3_126" />
</g>
<path fill-rule="evenodd" d="M534,422l353,0l0,-48l-353,0l0,48Z" class="g3_126" />
<g clip-path="url(#c23_126)">
<path fill-rule="evenodd" d="M541,398l339,0l0,-24l-339,0l0,24Z" class="g3_126" />
</g>
<path fill-rule="evenodd" d="M541,422l339,0l0,-24l-339,0l0,24Z" class="g3_126" />
<path d="M46.5,374.5l0,-2" class="g2_126" />
<path d="M47.5,374.5l39,0" class="g2_126" />
<path d="M86.5,374.5l0,-2" class="g2_126" />
<path d="M88.5,374.5l301,0" class="g2_126" />
<path d="M389.5,374.5l0,-2" class="g2_126" />
<path d="M390.5,374.5l81,0" class="g2_126" />
<path d="M471.5,374.5l0,-2" class="g2_126" />
<path d="M472.5,374.5l60,0" class="g2_126" />
<path d="M532.5,374.5l0,-2" class="g2_126" />
<path d="M534.5,374.5l353,0" class="g2_126" />
<path d="M887.5,374.5l0,-2" class="g2_126" />
<path d="M46.5,422.5l0,-48" class="g2_126" />
<path d="M86.5,422.5l0,-48" class="g2_126" />
<path d="M389.5,422.5l0,-48" class="g2_126" />
<path d="M471.5,422.5l0,-48" class="g2_126" />
<path d="M532.5,422.5l0,-48" class="g2_126" />
<path d="M887.5,422.5l0,-48" class="g2_126" />
<path fill-rule="evenodd" d="M88,447l301,0l0,-24L88,423l0,24Z" class="g3_126" />
<path fill-rule="evenodd" d="M95,447l286,0l0,-24L95,423l0,24Z" class="g3_126" />
<path fill-rule="evenodd" d="M390,447l81,0l0,-24l-81,0l0,24Z" class="g3_126" />
<path fill-rule="evenodd" d="M398,447l65,0l0,-24l-65,0l0,24Z" class="g3_126" />
<path fill-rule="evenodd" d="M472,447l60,0l0,-24l-60,0l0,24Z" class="g3_126" />
<path fill-rule="evenodd" d="M480,447l45,0l0,-24l-45,0l0,24Z" class="g3_126" />
<path fill-rule="evenodd" d="M534,447l353,0l0,-24l-353,0l0,24Z" class="g3_126" />
<path fill-rule="evenodd" d="M541,447l339,0l0,-24l-339,0l0,24Z" class="g3_126" />
<path d="M46.5,423.5l0,-1" class="g2_126" />
<path d="M86.5,423.5l0,-1" class="g2_126" />
<path d="M88.5,423.5l301,0" class="g2_126" />
<path d="M389.5,423.5l0,-1" class="g2_126" />
<path d="M390.5,423.5l81,0" class="g2_126" />
<path d="M471.5,423.5l0,-1" class="g2_126" />
<path d="M472.5,423.5l60,0" class="g2_126" />
<path d="M532.5,423.5l0,-1" class="g2_126" />
<path d="M534.5,423.5l353,0" class="g2_126" />
<path d="M887.5,423.5l0,-1" class="g2_126" />
<path d="M46.5,447.5l0,-24" class="g2_126" />
<path d="M86.5,447.5l0,-24" class="g2_126" />
<path d="M389.5,447.5l0,-24" class="g2_126" />
<path d="M471.5,447.5l0,-24" class="g2_126" />
<path d="M532.5,447.5l0,-24" class="g2_126" />
<path d="M887.5,447.5l0,-24" class="g2_126" />
<path fill-rule="evenodd" d="M88,604l39,0l0,-155l-39,0l0,155Z" class="g3_126" />
<path fill-rule="evenodd" d="M95,604l24,0l0,-155l-24,0l0,155Z" class="g3_126" />
<path fill-rule="evenodd" d="M129,604l39,0l0,-155l-39,0l0,155Z" class="g3_126" />
<path fill-rule="evenodd" d="M136,604l24,0l0,-155l-24,0l0,155Z" class="g3_126" />
<path fill-rule="evenodd" d="M169,604l220,0l0,-155l-220,0l0,155Z" class="g3_126" />
<g clip-path="url(#c24_126)">
<path fill-rule="evenodd" d="M177,473l204,0l0,-24l-204,0l0,24Z" class="g3_126" />
</g>
<path fill-rule="evenodd" d="M390,604l81,0l0,-155l-81,0l0,155Z" class="g3_126" />
<g clip-path="url(#c25_126)">
<path fill-rule="evenodd" d="M398,473l65,0l0,-24l-65,0l0,24Z" class="g3_126" />
</g>
<path fill-rule="evenodd" d="M472,604l60,0l0,-155l-60,0l0,155Z" class="g3_126" />
<g clip-path="url(#c26_126)">
<path fill-rule="evenodd" d="M480,473l45,0l0,-24l-45,0l0,24Z" class="g3_126" />
</g>
<path fill-rule="evenodd" d="M534,604l353,0l0,-155l-353,0l0,155Z" class="g3_126" />
<g clip-path="url(#c27_126)">
<path fill-rule="evenodd" d="M541,473l339,0l0,-24l-339,0l0,24Z" class="g3_126" />
</g>
<path fill-rule="evenodd" d="M541,497l339,0l0,-24l-339,0l0,24Z" class="g3_126" />
<path d="M46.5,449.5l0,-2" class="g2_126" />
<path d="M86.5,449.5l0,-2" class="g2_126" />
<path d="M88.5,449.5l39,0" class="g2_126" />
<path d="M127.5,449.5l0,-2" class="g2_126" />
<path d="M129.5,449.5l39,0" class="g2_126" />
<path d="M168.5,449.5l0,-2" class="g2_126" />
<path d="M169.5,449.5l220,0" class="g2_126" />
<path d="M389.5,449.5l0,-2" class="g2_126" />
<path d="M390.5,449.5l81,0" class="g2_126" />
<path d="M471.5,449.5l0,-2" class="g2_126" />
<path d="M472.5,449.5l60,0" class="g2_126" />
<path d="M532.5,449.5l0,-2" class="g2_126" />
<path d="M534.5,449.5l353,0" class="g2_126" />
<path d="M887.5,449.5l0,-2" class="g2_126" />
<path d="M46.5,604.5l0,-155" class="g2_126" />
<path d="M46.5,605.5l0,-1" class="g2_126" />
<path d="M46.5,605.5l0,-1" class="g2_126" />
<path d="M47.5,605.5l39,0" class="g2_126" />
<path d="M86.5,604.5l0,-155" class="g2_126" />
<path d="M86.5,605.5l0,-1" class="g2_126" />
<path d="M88.5,605.5l39,0" class="g2_126" />
<path d="M127.5,604.5l0,-155" class="g2_126" />
<path d="M127.5,605.5l0,-1" class="g2_126" />
<path d="M129.5,605.5l39,0" class="g2_126" />
<path d="M168.5,604.5l0,-155" class="g2_126" />
<path d="M168.5,605.5l0,-1" class="g2_126" />
<path d="M169.5,605.5l220,0" class="g2_126" />
<path d="M389.5,604.5l0,-155" class="g2_126" />
<path d="M389.5,605.5l0,-1" class="g2_126" />
<path d="M390.5,605.5l81,0" class="g2_126" />
<path d="M471.5,604.5l0,-155" class="g2_126" />
<path d="M471.5,605.5l0,-1" class="g2_126" />
<path d="M472.5,605.5l60,0" class="g2_126" />
<path d="M532.5,604.5l0,-155" class="g2_126" />
<path d="M532.5,605.5l0,-1" class="g2_126" />
<path d="M534.5,605.5l353,0" class="g2_126" />
<path d="M887.5,604.5l0,-155" class="g2_126" />
<path d="M887.5,605.5l0,-1" class="g2_126" />
<path d="M887.5,605.5l0,-1" class="g2_126" />
<path fill-rule="evenodd" d="M47,726l840,0l0,-24L47,702l0,24Z" class="g3_126" />
<g clip-path="url(#c28_126)">
<path fill-rule="evenodd" d="M55,726l825,0l0,-24L55,702l0,24Z" class="g3_126" />
</g>
<path d="M46.5,702.5l0,-1" class="g2_126" />
<path d="M46.5,702.5l0,-1" class="g2_126" />
<path d="M47.5,702.5l840,0" class="g2_126" />
<path d="M887.5,702.5l0,-1" class="g2_126" />
<path d="M887.5,702.5l0,-1" class="g2_126" />
<path d="M46.5,726.5l0,-24" class="g2_126" />
<path d="M46.5,728.5l0,-2" class="g2_126" />
<path d="M46.5,728.5l0,-2" class="g2_126" />
<path d="M47.5,728.5l840,0" class="g2_126" />
<path d="M887.5,726.5l0,-24" class="g2_126" />
<path d="M887.5,728.5l0,-2" class="g2_126" />
<path d="M887.5,728.5l0,-2" class="g2_126" />
<path fill-rule="evenodd" d="M47,1087l840,0l0,-334L47,753l0,334Z" class="g3_126" />
<g clip-path="url(#c29_126)">
<path fill-rule="evenodd" d="M55,777l825,0l0,-24L55,753l0,24Z" class="g3_126" />
</g>
<path fill-rule="evenodd" d="M55,801l825,0l0,-24L55,777l0,24Z" class="g3_126" />
<path fill-rule="evenodd" d="M55,825l825,0l0,-24L55,801l0,24Z" class="g3_126" />
<path fill-rule="evenodd" d="M55,848l825,0l0,-23L55,825l0,23Z" class="g3_126" />
<path fill-rule="evenodd" d="M55,872l825,0l0,-24L55,848l0,24Z" class="g3_126" />
<path fill-rule="evenodd" d="M55,896l825,0l0,-24L55,872l0,24Z" class="g3_126" />
<path fill-rule="evenodd" d="M55,920l825,0l0,-24L55,896l0,24Z" class="g3_126" />
<path fill-rule="evenodd" d="M55,944l825,0l0,-24L55,920l0,24Z" class="g3_126" />
<path fill-rule="evenodd" d="M55,968l825,0l0,-24L55,944l0,24Z" class="g3_126" />
<path fill-rule="evenodd" d="M55,991l825,0l0,-23L55,968l0,23Z" class="g3_126" />
<path fill-rule="evenodd" d="M55,1015l825,0l0,-24L55,991l0,24Z" class="g3_126" />
<path fill-rule="evenodd" d="M55,1039l825,0l0,-24l-825,0l0,24Z" class="g3_126" />
<path fill-rule="evenodd" d="M55,1063l825,0l0,-24l-825,0l0,24Z" class="g3_126" />
<g clip-path="url(#c29_126)">
<path fill-rule="evenodd" d="M55,1087l825,0l0,-24l-825,0l0,24Z" class="g3_126" />
</g>
<path d="M46.5,753.5l0,-2" class="g2_126" />
<path d="M46.5,753.5l0,-2" class="g2_126" />
<path d="M47.5,753.5l840,0" class="g2_126" />
<path d="M887.5,753.5l0,-2" class="g2_126" />
<path d="M887.5,753.5l0,-2" class="g2_126" />
<path d="M46.5,1087.5l0,-334" class="g2_126" />
<path d="M46.5,1088.5l0,-1" class="g2_126" />
<path d="M46.5,1088.5l0,-1" class="g2_126" />
<path d="M47.5,1088.5l840,0" class="g2_126" />
<path d="M887.5,1087.5l0,-334" class="g2_126" />
<path d="M887.5,1088.5l0,-1" class="g2_126" />
<path d="M887.5,1088.5l0,-1" class="g2_126" />
</svg>