<?xml version="1.0" encoding="UTF-8" standalone="no"?>
<!DOCTYPE svg PUBLIC "-//W3C//DTD SVG 1.1//EN"
"http://www.w3.org/Graphics/SVG/1.1/DTD/svg11.dtd">
<svg version="1.1" xmlns="http://www.w3.org/2000/svg" xmlns:xlink="http://www.w3.org/1999/xlink">
<defs>
<clipPath id="c0_360"><path d="M427.5,135.5l0,-24l460,0l0,24Z" /></clipPath>
<clipPath id="c1_360"><path d="M138.5,184.5l0,-48l136,0l0,48Z" /></clipPath>
<clipPath id="c2_360"><path d="M275.5,184.5l0,-48l81,0l0,48Z" /></clipPath>
<clipPath id="c3_360"><path d="M358.5,184.5l0,-48l67,0l0,48Z" /></clipPath>
<clipPath id="c4_360"><path d="M427.5,184.5l0,-48l460,0l0,48Z" /></clipPath>
<clipPath id="c5_360"><path d="M138.5,376.5l0,-190l136,0l0,190Z" /></clipPath>
<clipPath id="c6_360"><path d="M275.5,376.5l0,-190l81,0l0,190Z" /></clipPath>
<clipPath id="c7_360"><path d="M358.5,376.5l0,-190l67,0l0,190Z" /></clipPath>
<clipPath id="c8_360"><path d="M427.5,376.5l0,-190l460,0l0,190Z" /></clipPath>
<clipPath id="c9_360"><path d="M138.5,449.5l0,-71l136,0l0,71Z" /></clipPath>
<clipPath id="c10_360"><path d="M275.5,449.5l0,-71l81,0l0,71Z" /></clipPath>
<clipPath id="c11_360"><path d="M358.5,449.5l0,-71l67,0l0,71Z" /></clipPath>
<clipPath id="c12_360"><path d="M427.5,449.5l0,-71l460,0l0,71Z" /></clipPath>
<clipPath id="c13_360"><path d="M138.5,522.5l0,-71l136,0l0,71Z" /></clipPath>
<clipPath id="c14_360"><path d="M275.5,522.5l0,-71l81,0l0,71Z" /></clipPath>
<clipPath id="c15_360"><path d="M358.5,522.5l0,-71l67,0l0,71Z" /></clipPath>
<clipPath id="c16_360"><path d="M427.5,522.5l0,-71l460,0l0,71Z" /></clipPath>
<clipPath id="c17_360"><path d="M138.5,716.5l0,-95l136,0l0,95Z" /></clipPath>
<clipPath id="c18_360"><path d="M275.5,716.5l0,-95l81,0l0,95Z" /></clipPath>
<clipPath id="c19_360"><path d="M358.5,716.5l0,-95l67,0l0,95Z" /></clipPath>
<clipPath id="c20_360"><path d="M427.5,716.5l0,-95l460,0l0,95Z" /></clipPath>
<clipPath id="c21_360"><path d="M47.5,838.5l0,-23l840,0l0,23Z" /></clipPath>
<clipPath id="c22_360"><path d="M47.5,1080.5l0,-215l840,0l0,215Z" /></clipPath>
<style type="text/css"><![CDATA[
.g2_360{
fill: none;
stroke: #7E7E7E;
stroke-width: 1;
stroke-linecap: butt;
stroke-linejoin: miter;
}
.g1_360{
fill: #F1F1F1;
}
]]></style>
</defs>
<path fill-rule="evenodd" d="M47,135l27,0l0,-24l-27,0l0,24Z" class="g1_360" />
<path fill-rule="evenodd" d="M76,135l27,0l0,-24l-27,0l0,24Z" class="g1_360" />
<path fill-rule="evenodd" d="M105,135l31,0l0,-24l-31,0l0,24Z" class="g1_360" />
<path fill-rule="evenodd" d="M138,135l136,0l0,-24l-136,0l0,24Z" class="g1_360" />
<path fill-rule="evenodd" d="M275,135l81,0l0,-24l-81,0l0,24Z" class="g1_360" />
<path fill-rule="evenodd" d="M358,135l67,0l0,-24l-67,0l0,24Z" class="g1_360" />
<path fill-rule="evenodd" d="M427,135l460,0l0,-24l-460,0l0,24Z" class="g1_360" />
<g clip-path="url(#c0_360)">
<path fill-rule="evenodd" d="M434,135l446,0l0,-24l-446,0l0,24Z" class="g1_360" />
</g>
<path d="M46.5,111.5l0,-1" class="g2_360" />
<path d="M46.5,111.5l0,-1" class="g2_360" />
<path d="M47.5,111.5l27,0" class="g2_360" />
<path d="M74.5,111.5l0,-1" class="g2_360" />
<path d="M76.5,111.5l27,0" class="g2_360" />
<path d="M103.5,111.5l0,-1" class="g2_360" />
<path d="M105.5,111.5l31,0" class="g2_360" />
<path d="M136.5,111.5l0,-1" class="g2_360" />
<path d="M138.5,111.5l136,0" class="g2_360" />
<path d="M274.5,111.5l0,-1" class="g2_360" />
<path d="M275.5,111.5l81,0" class="g2_360" />
<path d="M356.5,111.5l0,-1" class="g2_360" />
<path d="M358.5,111.5l67,0" class="g2_360" />
<path d="M425.5,111.5l0,-1" class="g2_360" />
<path d="M427.5,111.5l460,0" class="g2_360" />
<path d="M887.5,111.5l0,-1" class="g2_360" />
<path d="M887.5,111.5l0,-1" class="g2_360" />
<path d="M46.5,135.5l0,-24" class="g2_360" />
<path d="M74.5,135.5l0,-24" class="g2_360" />
<path d="M103.5,135.5l0,-24" class="g2_360" />
<path d="M136.5,135.5l0,-24" class="g2_360" />
<path d="M274.5,135.5l0,-24" class="g2_360" />
<path d="M356.5,135.5l0,-24" class="g2_360" />
<path d="M425.5,135.5l0,-24" class="g2_360" />
<path d="M887.5,135.5l0,-24" class="g2_360" />
<path fill-rule="evenodd" d="M47,184l27,0l0,-49l-27,0l0,49Z" class="g1_360" />
<path fill-rule="evenodd" d="M76,184l27,0l0,-49l-27,0l0,49Z" class="g1_360" />
<path fill-rule="evenodd" d="M105,184l31,0l0,-49l-31,0l0,49Z" class="g1_360" />
<path fill-rule="evenodd" d="M138,184l136,0l0,-48l-136,0l0,48Z" class="g1_360" />
<g clip-path="url(#c1_360)">
<path fill-rule="evenodd" d="M145,160l121,0l0,-24l-121,0l0,24Z" class="g1_360" />
</g>
<path fill-rule="evenodd" d="M275,184l81,0l0,-48l-81,0l0,48Z" class="g1_360" />
<g clip-path="url(#c2_360)">
<path fill-rule="evenodd" d="M283,160l66,0l0,-24l-66,0l0,24Z" class="g1_360" />
</g>
<path fill-rule="evenodd" d="M358,184l67,0l0,-48l-67,0l0,48Z" class="g1_360" />
<g clip-path="url(#c3_360)">
<path fill-rule="evenodd" d="M365,160l53,0l0,-24l-53,0l0,24Z" class="g1_360" />
</g>
<path fill-rule="evenodd" d="M427,184l460,0l0,-48l-460,0l0,48Z" class="g1_360" />
<g clip-path="url(#c4_360)">
<path fill-rule="evenodd" d="M434,160l446,0l0,-24l-446,0l0,24Z" class="g1_360" />
</g>
<path fill-rule="evenodd" d="M434,184l446,0l0,-24l-446,0l0,24Z" class="g1_360" />
<path d="M46.5,136.5l0,-1" class="g2_360" />
<path d="M74.5,136.5l0,-1" class="g2_360" />
<path d="M103.5,136.5l0,-1" class="g2_360" />
<path d="M136.5,136.5l0,-1" class="g2_360" />
<path d="M138.5,136.5l136,0" class="g2_360" />
<path d="M274.5,136.5l0,-1" class="g2_360" />
<path d="M275.5,136.5l81,0" class="g2_360" />
<path d="M356.5,136.5l0,-1" class="g2_360" />
<path d="M358.5,136.5l67,0" class="g2_360" />
<path d="M425.5,136.5l0,-1" class="g2_360" />
<path d="M427.5,136.5l460,0" class="g2_360" />
<path d="M887.5,136.5l0,-1" class="g2_360" />
<path d="M46.5,184.5l0,-48" class="g2_360" />
<path d="M74.5,184.5l0,-48" class="g2_360" />
<path d="M103.5,184.5l0,-48" class="g2_360" />
<path d="M136.5,184.5l0,-48" class="g2_360" />
<path d="M274.5,184.5l0,-48" class="g2_360" />
<path d="M356.5,184.5l0,-48" class="g2_360" />
<path d="M425.5,184.5l0,-48" class="g2_360" />
<path d="M887.5,184.5l0,-48" class="g2_360" />
<path fill-rule="evenodd" d="M47,376l27,0L74,184l-27,0l0,192Z" class="g1_360" />
<path fill-rule="evenodd" d="M76,376l27,0l0,-192l-27,0l0,192Z" class="g1_360" />
<path fill-rule="evenodd" d="M105,376l31,0l0,-192l-31,0l0,192Z" class="g1_360" />
<path fill-rule="evenodd" d="M138,376l136,0l0,-190l-136,0l0,190Z" class="g1_360" />
<g clip-path="url(#c5_360)">
<path fill-rule="evenodd" d="M145,209l121,0l0,-23l-121,0l0,23Z" class="g1_360" />
</g>
<path fill-rule="evenodd" d="M275,376l81,0l0,-190l-81,0l0,190Z" class="g1_360" />
<g clip-path="url(#c6_360)">
<path fill-rule="evenodd" d="M283,209l66,0l0,-23l-66,0l0,23Z" class="g1_360" />
</g>
<path fill-rule="evenodd" d="M358,376l67,0l0,-190l-67,0l0,190Z" class="g1_360" />
<g clip-path="url(#c7_360)">
<path fill-rule="evenodd" d="M365,209l53,0l0,-23l-53,0l0,23Z" class="g1_360" />
</g>
<path fill-rule="evenodd" d="M427,376l460,0l0,-190l-460,0l0,190Z" class="g1_360" />
<g clip-path="url(#c8_360)">
<path fill-rule="evenodd" d="M434,209l446,0l0,-23l-446,0l0,23Z" class="g1_360" />
</g>
<path fill-rule="evenodd" d="M434,233l446,0l0,-24l-446,0l0,24Z" class="g1_360" />
<path fill-rule="evenodd" d="M434,257l446,0l0,-24l-446,0l0,24Z" class="g1_360" />
<path fill-rule="evenodd" d="M434,281l446,0l0,-24l-446,0l0,24Z" class="g1_360" />
<path fill-rule="evenodd" d="M434,305l446,0l0,-24l-446,0l0,24Z" class="g1_360" />
<path fill-rule="evenodd" d="M434,329l446,0l0,-24l-446,0l0,24Z" class="g1_360" />
<path fill-rule="evenodd" d="M434,352l446,0l0,-23l-446,0l0,23Z" class="g1_360" />
<path fill-rule="evenodd" d="M434,376l446,0l0,-24l-446,0l0,24Z" class="g1_360" />
<path d="M46.5,186.5l0,-2" class="g2_360" />
<path d="M74.5,186.5l0,-2" class="g2_360" />
<path d="M103.5,186.5l0,-2" class="g2_360" />
<path d="M136.5,186.5l0,-2" class="g2_360" />
<path d="M138.5,186.5l136,0" class="g2_360" />
<path d="M274.5,186.5l0,-2" class="g2_360" />
<path d="M275.5,186.5l81,0" class="g2_360" />
<path d="M356.5,186.5l0,-2" class="g2_360" />
<path d="M358.5,186.5l67,0" class="g2_360" />
<path d="M425.5,186.5l0,-2" class="g2_360" />
<path d="M427.5,186.5l460,0" class="g2_360" />
<path d="M887.5,186.5l0,-2" class="g2_360" />
<path d="M46.5,376.5l0,-190" class="g2_360" />
<path d="M74.5,376.5l0,-190" class="g2_360" />
<path d="M103.5,376.5l0,-190" class="g2_360" />
<path d="M136.5,376.5l0,-190" class="g2_360" />
<path d="M274.5,376.5l0,-190" class="g2_360" />
<path d="M356.5,376.5l0,-190" class="g2_360" />
<path d="M425.5,376.5l0,-190" class="g2_360" />
<path d="M887.5,376.5l0,-190" class="g2_360" />
<path fill-rule="evenodd" d="M47,449l27,0l0,-73l-27,0l0,73Z" class="g1_360" />
<path fill-rule="evenodd" d="M76,449l27,0l0,-73l-27,0l0,73Z" class="g1_360" />
<path fill-rule="evenodd" d="M105,449l31,0l0,-73l-31,0l0,73Z" class="g1_360" />
<path fill-rule="evenodd" d="M138,449l136,0l0,-71l-136,0l0,71Z" class="g1_360" />
<g clip-path="url(#c9_360)">
<path fill-rule="evenodd" d="M145,402l121,0l0,-24l-121,0l0,24Z" class="g1_360" />
</g>
<path fill-rule="evenodd" d="M275,449l81,0l0,-71l-81,0l0,71Z" class="g1_360" />
<g clip-path="url(#c10_360)">
<path fill-rule="evenodd" d="M283,402l66,0l0,-24l-66,0l0,24Z" class="g1_360" />
</g>
<path fill-rule="evenodd" d="M358,449l67,0l0,-71l-67,0l0,71Z" class="g1_360" />
<g clip-path="url(#c11_360)">
<path fill-rule="evenodd" d="M365,402l53,0l0,-24l-53,0l0,24Z" class="g1_360" />
</g>
<path fill-rule="evenodd" d="M427,449l460,0l0,-71l-460,0l0,71Z" class="g1_360" />
<g clip-path="url(#c12_360)">
<path fill-rule="evenodd" d="M434,402l446,0l0,-24l-446,0l0,24Z" class="g1_360" />
</g>
<path fill-rule="evenodd" d="M434,425l446,0l0,-23l-446,0l0,23Z" class="g1_360" />
<path fill-rule="evenodd" d="M434,449l446,0l0,-24l-446,0l0,24Z" class="g1_360" />
<path d="M46.5,378.5l0,-2" class="g2_360" />
<path d="M74.5,378.5l0,-2" class="g2_360" />
<path d="M103.5,378.5l0,-2" class="g2_360" />
<path d="M136.5,378.5l0,-2" class="g2_360" />
<path d="M138.5,378.5l136,0" class="g2_360" />
<path d="M274.5,378.5l0,-2" class="g2_360" />
<path d="M275.5,378.5l81,0" class="g2_360" />
<path d="M356.5,378.5l0,-2" class="g2_360" />
<path d="M358.5,378.5l67,0" class="g2_360" />
<path d="M425.5,378.5l0,-2" class="g2_360" />
<path d="M427.5,378.5l460,0" class="g2_360" />
<path d="M887.5,378.5l0,-2" class="g2_360" />
<path d="M46.5,449.5l0,-71" class="g2_360" />
<path d="M74.5,449.5l0,-71" class="g2_360" />
<path d="M103.5,449.5l0,-71" class="g2_360" />
<path d="M136.5,449.5l0,-71" class="g2_360" />
<path d="M274.5,449.5l0,-71" class="g2_360" />
<path d="M356.5,449.5l0,-71" class="g2_360" />
<path d="M425.5,449.5l0,-71" class="g2_360" />
<path d="M887.5,449.5l0,-71" class="g2_360" />
<path fill-rule="evenodd" d="M47,522l27,0l0,-73l-27,0l0,73Z" class="g1_360" />
<path fill-rule="evenodd" d="M76,522l27,0l0,-73l-27,0l0,73Z" class="g1_360" />
<path fill-rule="evenodd" d="M105,522l31,0l0,-73l-31,0l0,73Z" class="g1_360" />
<path fill-rule="evenodd" d="M138,522l136,0l0,-71l-136,0l0,71Z" class="g1_360" />
<g clip-path="url(#c13_360)">
<path fill-rule="evenodd" d="M145,475l121,0l0,-24l-121,0l0,24Z" class="g1_360" />
</g>
<path fill-rule="evenodd" d="M275,522l81,0l0,-71l-81,0l0,71Z" class="g1_360" />
<g clip-path="url(#c14_360)">
<path fill-rule="evenodd" d="M283,475l66,0l0,-24l-66,0l0,24Z" class="g1_360" />
</g>
<path fill-rule="evenodd" d="M358,522l67,0l0,-71l-67,0l0,71Z" class="g1_360" />
<g clip-path="url(#c15_360)">
<path fill-rule="evenodd" d="M365,475l53,0l0,-24l-53,0l0,24Z" class="g1_360" />
</g>
<path fill-rule="evenodd" d="M427,522l460,0l0,-71l-460,0l0,71Z" class="g1_360" />
<g clip-path="url(#c16_360)">
<path fill-rule="evenodd" d="M434,475l446,0l0,-24l-446,0l0,24Z" class="g1_360" />
</g>
<path fill-rule="evenodd" d="M434,499l446,0l0,-24l-446,0l0,24Z" class="g1_360" />
<path fill-rule="evenodd" d="M434,522l446,0l0,-23l-446,0l0,23Z" class="g1_360" />
<path d="M46.5,451.5l0,-2" class="g2_360" />
<path d="M74.5,451.5l0,-2" class="g2_360" />
<path d="M103.5,451.5l0,-2" class="g2_360" />
<path d="M136.5,451.5l0,-2" class="g2_360" />
<path d="M138.5,451.5l136,0" class="g2_360" />
<path d="M274.5,451.5l0,-2" class="g2_360" />
<path d="M275.5,451.5l81,0" class="g2_360" />
<path d="M356.5,451.5l0,-2" class="g2_360" />
<path d="M358.5,451.5l67,0" class="g2_360" />
<path d="M425.5,451.5l0,-2" class="g2_360" />
<path d="M427.5,451.5l460,0" class="g2_360" />
<path d="M887.5,451.5l0,-2" class="g2_360" />
<path d="M46.5,522.5l0,-71" class="g2_360" />
<path d="M74.5,522.5l0,-71" class="g2_360" />
<path d="M103.5,522.5l0,-71" class="g2_360" />
<path d="M136.5,522.5l0,-71" class="g2_360" />
<path d="M274.5,522.5l0,-71" class="g2_360" />
<path d="M356.5,522.5l0,-71" class="g2_360" />
<path d="M425.5,522.5l0,-71" class="g2_360" />
<path d="M887.5,522.5l0,-71" class="g2_360" />
<path fill-rule="evenodd" d="M47,619l27,0l0,-97l-27,0l0,97Z" class="g1_360" />
<path fill-rule="evenodd" d="M76,619l27,0l0,-97l-27,0l0,97Z" class="g1_360" />
<path fill-rule="evenodd" d="M105,619l31,0l0,-97l-31,0l0,97Z" class="g1_360" />
<path fill-rule="evenodd" d="M138,619l136,0l0,-95l-136,0l0,95Z" class="g1_360" />
<path fill-rule="evenodd" d="M145,548l121,0l0,-24l-121,0l0,24Z" class="g1_360" />
<path fill-rule="evenodd" d="M275,619l81,0l0,-95l-81,0l0,95Z" class="g1_360" />
<path fill-rule="evenodd" d="M283,548l66,0l0,-24l-66,0l0,24Z" class="g1_360" />
<path fill-rule="evenodd" d="M358,619l67,0l0,-95l-67,0l0,95Z" class="g1_360" />
<path fill-rule="evenodd" d="M365,548l53,0l0,-24l-53,0l0,24Z" class="g1_360" />
<path fill-rule="evenodd" d="M427,619l460,0l0,-95l-460,0l0,95Z" class="g1_360" />
<path fill-rule="evenodd" d="M434,548l446,0l0,-24l-446,0l0,24Z" class="g1_360" />
<path fill-rule="evenodd" d="M434,572l446,0l0,-24l-446,0l0,24Z" class="g1_360" />
<path fill-rule="evenodd" d="M434,595l446,0l0,-23l-446,0l0,23Z" class="g1_360" />
<path fill-rule="evenodd" d="M434,619l446,0l0,-24l-446,0l0,24Z" class="g1_360" />
<path d="M46.5,524.5l0,-2" class="g2_360" />
<path d="M74.5,524.5l0,-2" class="g2_360" />
<path d="M103.5,524.5l0,-2" class="g2_360" />
<path d="M136.5,524.5l0,-2" class="g2_360" />
<path d="M138.5,524.5l136,0" class="g2_360" />
<path d="M274.5,524.5l0,-2" class="g2_360" />
<path d="M275.5,524.5l81,0" class="g2_360" />
<path d="M356.5,524.5l0,-2" class="g2_360" />
<path d="M358.5,524.5l67,0" class="g2_360" />
<path d="M425.5,524.5l0,-2" class="g2_360" />
<path d="M427.5,524.5l460,0" class="g2_360" />
<path d="M887.5,524.5l0,-2" class="g2_360" />
<path d="M46.5,619.5l0,-95" class="g2_360" />
<path d="M74.5,619.5l0,-95" class="g2_360" />
<path d="M103.5,619.5l0,-95" class="g2_360" />
<path d="M136.5,619.5l0,-95" class="g2_360" />
<path d="M274.5,619.5l0,-95" class="g2_360" />
<path d="M356.5,619.5l0,-95" class="g2_360" />
<path d="M425.5,619.5l0,-95" class="g2_360" />
<path d="M887.5,619.5l0,-95" class="g2_360" />
<path fill-rule="evenodd" d="M47,716l27,0l0,-97l-27,0l0,97Z" class="g1_360" />
<path fill-rule="evenodd" d="M76,716l27,0l0,-97l-27,0l0,97Z" class="g1_360" />
<path fill-rule="evenodd" d="M105,716l31,0l0,-97l-31,0l0,97Z" class="g1_360" />
<path fill-rule="evenodd" d="M138,716l136,0l0,-95l-136,0l0,95Z" class="g1_360" />
<g clip-path="url(#c17_360)">
<path fill-rule="evenodd" d="M145,645l121,0l0,-24l-121,0l0,24Z" class="g1_360" />
</g>
<path fill-rule="evenodd" d="M275,716l81,0l0,-95l-81,0l0,95Z" class="g1_360" />
<g clip-path="url(#c18_360)">
<path fill-rule="evenodd" d="M283,645l66,0l0,-24l-66,0l0,24Z" class="g1_360" />
</g>
<path fill-rule="evenodd" d="M358,716l67,0l0,-95l-67,0l0,95Z" class="g1_360" />
<g clip-path="url(#c19_360)">
<path fill-rule="evenodd" d="M365,645l53,0l0,-24l-53,0l0,24Z" class="g1_360" />
</g>
<path fill-rule="evenodd" d="M427,716l460,0l0,-95l-460,0l0,95Z" class="g1_360" />
<g clip-path="url(#c20_360)">
<path fill-rule="evenodd" d="M434,645l446,0l0,-24l-446,0l0,24Z" class="g1_360" />
</g>
<path fill-rule="evenodd" d="M434,668l446,0l0,-23l-446,0l0,23Z" class="g1_360" />
<path fill-rule="evenodd" d="M434,692l446,0l0,-24l-446,0l0,24Z" class="g1_360" />
<path fill-rule="evenodd" d="M434,716l446,0l0,-24l-446,0l0,24Z" class="g1_360" />
<path d="M46.5,621.5l0,-2" class="g2_360" />
<path d="M74.5,621.5l0,-2" class="g2_360" />
<path d="M103.5,621.5l0,-2" class="g2_360" />
<path d="M136.5,621.5l0,-2" class="g2_360" />
<path d="M138.5,621.5l136,0" class="g2_360" />
<path d="M274.5,621.5l0,-2" class="g2_360" />
<path d="M275.5,621.5l81,0" class="g2_360" />
<path d="M356.5,621.5l0,-2" class="g2_360" />
<path d="M358.5,621.5l67,0" class="g2_360" />
<path d="M425.5,621.5l0,-2" class="g2_360" />
<path d="M427.5,621.5l460,0" class="g2_360" />
<path d="M887.5,621.5l0,-2" class="g2_360" />
<path d="M46.5,716.5l0,-95" class="g2_360" />
<path d="M46.5,718.5l0,-2" class="g2_360" />
<path d="M46.5,718.5l0,-2" class="g2_360" />
<path d="M47.5,718.5l27,0" class="g2_360" />
<path d="M74.5,716.5l0,-95" class="g2_360" />
<path d="M74.5,718.5l0,-2" class="g2_360" />
<path d="M76.5,718.5l27,0" class="g2_360" />
<path d="M103.5,716.5l0,-95" class="g2_360" />
<path d="M103.5,718.5l0,-2" class="g2_360" />
<path d="M105.5,718.5l31,0" class="g2_360" />
<path d="M136.5,716.5l0,-95" class="g2_360" />
<path d="M136.5,718.5l0,-2" class="g2_360" />
<path d="M138.5,718.5l136,0" class="g2_360" />
<path d="M274.5,716.5l0,-95" class="g2_360" />
<path d="M274.5,718.5l0,-2" class="g2_360" />
<path d="M275.5,718.5l81,0" class="g2_360" />
<path d="M356.5,716.5l0,-95" class="g2_360" />
<path d="M356.5,718.5l0,-2" class="g2_360" />
<path d="M358.5,718.5l67,0" class="g2_360" />
<path d="M425.5,716.5l0,-95" class="g2_360" />
<path d="M425.5,718.5l0,-2" class="g2_360" />
<path d="M427.5,718.5l460,0" class="g2_360" />
<path d="M887.5,716.5l0,-95" class="g2_360" />
<path d="M887.5,718.5l0,-2" class="g2_360" />
<path d="M887.5,718.5l0,-2" class="g2_360" />
<path fill-rule="evenodd" d="M47,838l840,0l0,-23L47,815l0,23Z" class="g1_360" />
<g clip-path="url(#c21_360)">
<path fill-rule="evenodd" d="M55,838l825,0l0,-23L55,815l0,23Z" class="g1_360" />
</g>
<path d="M46.5,815.5l0,-2" class="g2_360" />
<path d="M46.5,815.5l0,-2" class="g2_360" />
<path d="M47.5,815.5l840,0" class="g2_360" />
<path d="M887.5,815.5l0,-2" class="g2_360" />
<path d="M887.5,815.5l0,-2" class="g2_360" />
<path d="M46.5,838.5l0,-23" class="g2_360" />
<path d="M46.5,840.5l0,-2" class="g2_360" />
<path d="M46.5,840.5l0,-2" class="g2_360" />
<path d="M47.5,840.5l840,0" class="g2_360" />
<path d="M887.5,838.5l0,-23" class="g2_360" />
<path d="M887.5,840.5l0,-2" class="g2_360" />
<path d="M887.5,840.5l0,-2" class="g2_360" />
<path fill-rule="evenodd" d="M47,1080l840,0l0,-215L47,865l0,215Z" class="g1_360" />
<g clip-path="url(#c22_360)">
<path fill-rule="evenodd" d="M55,889l825,0l0,-24L55,865l0,24Z" class="g1_360" />
</g>
<path fill-rule="evenodd" d="M55,913l825,0l0,-24L55,889l0,24Z" class="g1_360" />
<path fill-rule="evenodd" d="M55,937l825,0l0,-24L55,913l0,24Z" class="g1_360" />
<path fill-rule="evenodd" d="M55,961l825,0l0,-24L55,937l0,24Z" class="g1_360" />
<path fill-rule="evenodd" d="M55,985l825,0l0,-24L55,961l0,24Z" class="g1_360" />
<path fill-rule="evenodd" d="M55,1008l825,0l0,-23L55,985l0,23Z" class="g1_360" />
<path fill-rule="evenodd" d="M55,1032l825,0l0,-24l-825,0l0,24Z" class="g1_360" />
<path fill-rule="evenodd" d="M55,1056l825,0l0,-24l-825,0l0,24Z" class="g1_360" />
<g clip-path="url(#c22_360)">
<path fill-rule="evenodd" d="M55,1080l825,0l0,-24l-825,0l0,24Z" class="g1_360" />
</g>
<path d="M46.5,865.5l0,-1" class="g2_360" />
<path d="M46.5,865.5l0,-1" class="g2_360" />
<path d="M47.5,865.5l840,0" class="g2_360" />
<path d="M887.5,865.5l0,-1" class="g2_360" />
<path d="M887.5,865.5l0,-1" class="g2_360" />
<path d="M46.5,1080.5l0,-215" class="g2_360" />
<path d="M46.5,1081.5l0,-1" class="g2_360" />
<path d="M46.5,1081.5l0,-1" class="g2_360" />
<path d="M47.5,1081.5l840,0" class="g2_360" />
<path d="M887.5,1080.5l0,-215" class="g2_360" />
<path d="M887.5,1081.5l0,-1" class="g2_360" />
<path d="M887.5,1081.5l0,-1" class="g2_360" />
</svg>